<?xml version="1.0" encoding="UTF-8" standalone="no"?>
<svg
   width="787.000mm"
   height="586.000mm"
   viewBox="-395.000000 -406.000000 787.000000 586.000000"
   version="1.1"
   id="svg700"
   sodipodi:docname="base.svg"
   inkscape:version="1.2.1 (9c6d41e, 2022-07-14)"
   xmlns:inkscape="http://www.inkscape.org/namespaces/inkscape"
   xmlns:sodipodi="http://sodipodi.sourceforge.net/DTD/sodipodi-0.dtd"
   xmlns="http://www.w3.org/2000/svg"
   xmlns:svg="http://www.w3.org/2000/svg">
  <defs
     id="defs704" />
  <sodipodi:namedview
     id="namedview702"
     pagecolor="#ffffff"
     bordercolor="#000000"
     borderopacity="0.25"
     inkscape:showpageshadow="2"
     inkscape:pageopacity="0.0"
     inkscape:pagecheckerboard="0"
     inkscape:deskcolor="#d1d1d1"
     inkscape:document-units="mm"
     showgrid="false"
     inkscape:zoom="0.3859901"
     inkscape:cx="1470.2449"
     inkscape:cy="1133.4487"
     inkscape:window-width="2560"
     inkscape:window-height="1387"
     inkscape:window-x="0"
     inkscape:window-y="215"
     inkscape:window-maximized="1"
     inkscape:current-layer="svg700" />
  <circle
     transform="scale(1,-1)"
     style="fill:none;stroke:#000000;stroke-width:0.05mm"
     r="61"
     cx="199.32759"
     cy="-63.028255"
     id="circle606" />
  <path
     style="fill:none;stroke:#ff0000;stroke-width:0.0499999mm"
     d="m 149.5731,58.020325 c 0,0 0.31574,-4.110498 1.99507,-4.995577"
     id="path622" />
  <path
     style="fill:none;stroke:#ff0000;stroke-width:0.0499999mm"
     d="m 151.56817,53.024746 h 7.50439 v 25.999926 h 2.99999 v 3.999988 h -8.44731"
     id="path624" />
  <path
     style="fill:none;stroke:#ff0000;stroke-width:0.0499999mm"
     d="m 149.5731,58.020323 -5.1e-4,15.809086 c 0,0 0.77622,4.751931 4.05265,9.195251"
     id="path626" />
  <path
     style="fill:none;stroke:#ff0000;stroke-width:0.0499999mm"
     d="m 249.08363,66.838295 c 0,0 -0.75506,4.089411 -2.3722,6.197548"
     id="path628" />
  <path
     style="fill:none;stroke:#ff0000;stroke-width:0.0499999mm"
     d="m 247.08457,73.035843 -7.5044,-10e-7 V 47.035918 h -2.99999 V 43.03593 l 7.83167,-0.004"
     id="path630" />
  <path
     style="fill:none;stroke:#ff0000;stroke-width:0.0499999mm"
     d="m 249.08363,66.838295 -0.0113,-15.222759 c 0,0 -1.00289,-4.433451 -4.66044,-8.583607"
     id="path632" />
  <circle
     transform="matrix(1,0,0,-1,331,-220)"
     style="stroke:#000000;stroke-width:0.05mm;fill:none"
     r="55"
     cx="0"
     cy="0"
     id="circle634" />
  <circle
     transform="matrix(1,0,0,-1,331,-220)"
     style="stroke:#000000;stroke-width:0.05mm;fill:none"
     r="61"
     cx="0"
     cy="0"
     id="circle636" />
  <circle
     transform="matrix(1,0,0,-1,331,-345)"
     style="stroke:#000000;stroke-width:0.05mm;fill:none"
     r="55"
     cx="0"
     cy="0"
     id="circle638" />
  <circle
     transform="matrix(1,0,0,-1,331,-345)"
     style="stroke:#000000;stroke-width:0.05mm;fill:none"
     r="61"
     cx="0"
     cy="0"
     id="circle640" />
  <circle
     transform="matrix(1,0,0,-1,331,-95)"
     style="stroke:#000000;stroke-width:0.05mm;fill:none"
     r="55"
     cx="0"
     cy="0"
     id="circle642" />
  <circle
     transform="matrix(1,0,0,-1,331,-95)"
     style="stroke:#000000;stroke-width:0.05mm;fill:none"
     r="61"
     cx="0"
     cy="0"
     id="circle644" />
  <circle
     transform="scale(1,-1)"
     style="fill:none;stroke:#000000;stroke-width:0.05mm"
     r="61"
     cx="199.32759"
     cy="340.03461"
     id="circle646" />
  <circle
     transform="scale(1,-1)"
     style="fill:none;stroke:#ff0000;stroke-width:0.05mm"
     r="1.099894"
     cx="199.32759"
     cy="396.4986"
     id="circle648" />
  <circle
     transform="scale(1,-1)"
     style="fill:none;stroke:#ff0000;stroke-width:0.05mm"
     r="1.099894"
     cx="199.32759"
     cy="396.4986"
     id="circle650" />
  <ellipse
     style="fill:none;stroke:#ff0000;stroke-width:0.05mm"
     rx="0.037825"
     ry="0.040978"
     cx="199.3264"
     cy="-340.03461"
     id="ellipse652" />
  <circle
     transform="matrix(0,1,1,0,0,0)"
     style="fill:none;stroke:#ff0000;stroke-width:0.05mm"
     r="1.099894"
     cx="-340.0256"
     cy="255.78859"
     id="circle654" />
  <circle
     transform="scale(-1,1)"
     style="fill:none;stroke:#ff0000;stroke-width:0.05mm"
     r="1.099894"
     cx="-199.31499"
     cy="-283.56461"
     id="circle656" />
  <circle
     transform="matrix(0,-1,-1,0,0,0)"
     style="fill:none;stroke:#ff0000;stroke-width:0.05mm"
     r="1.099894"
     cx="340.0386"
     cy="-142.85429"
     id="circle658" />
  <circle
     transform="matrix(0.70710678,0.70710678,0.70710678,-0.70710678,0,0)"
     style="fill:none;stroke:#ff0000;stroke-width:0.05mm"
     r="1.0998944"
     cx="-99.491348"
     cy="437.84702"
     id="circle660" />
  <circle
     transform="matrix(0.70710678,0.70710678,0.70710678,-0.70710678,0,0)"
     style="fill:none;stroke:#ff0000;stroke-width:0.05mm"
     r="1.0998944"
     cx="-99.491348"
     cy="437.84702"
     id="circle662" />
  <ellipse
     transform="rotate(45)"
     style="fill:none;stroke:#ff0000;stroke-width:0.05mm"
     rx="0.037825011"
     ry="0.040978011"
     cx="-99.492119"
     cy="-381.38235"
     id="ellipse664" />
  <circle
     transform="matrix(-0.70710678,0.70710678,0.70710678,0.70710678,0,0)"
     style="fill:none;stroke:#ff0000;stroke-width:0.05mm"
     r="1.0998944"
     cx="-381.37393"
     cy="-43.030991"
     id="circle666" />
  <circle
     transform="matrix(-0.70710678,-0.70710678,-0.70710678,0.70710678,0,0)"
     style="fill:none;stroke:#ff0000;stroke-width:0.05mm"
     r="1.0998944"
     cx="99.504005"
     cy="-324.91367"
     id="circle668" />
  <circle
     transform="matrix(0.70710678,-0.70710678,-0.70710678,-0.70710678,0,0)"
     style="fill:none;stroke:#ff0000;stroke-width:0.05mm"
     r="1.0998944"
     cx="381.38666"
     cy="155.96442"
     id="circle670" />
  <circle
     transform="scale(1,-1)"
     style="fill:none;stroke:#000000;stroke-width:0.05mm"
     r="51.91082"
     cx="199.32759"
     cy="200.03461"
     id="circle672" />
  <circle
     transform="scale(1,-1)"
     style="fill:none;stroke:#000000;stroke-width:0.05mm"
     r="61"
     cx="199.32759"
     cy="200.03461"
     id="circle674" />
  <circle
     transform="scale(1,-1)"
     style="fill:none;stroke:#ff0000;stroke-width:0.05mm"
     r="1.099894"
     cx="199.32759"
     cy="256.4986"
     id="circle676" />
  <circle
     transform="scale(1,-1)"
     style="fill:none;stroke:#ff0000;stroke-width:0.05mm"
     r="1.099894"
     cx="199.32759"
     cy="256.4986"
     id="circle678" />
  <ellipse
     style="fill:none;stroke:#ff0000;stroke-width:0.05mm"
     rx="0.037825"
     ry="0.040978"
     cx="199.3264"
     cy="-200.03441"
     id="ellipse680" />
  <circle
     transform="matrix(0,1,1,0,0,0)"
     style="fill:none;stroke:#ff0000;stroke-width:0.05mm"
     r="1.099894"
     cx="-200.0257"
     cy="255.78859"
     id="circle682" />
  <circle
     transform="scale(-1,1)"
     style="fill:none;stroke:#ff0000;stroke-width:0.05mm"
     r="1.099894"
     cx="-199.31499"
     cy="-143.565"
     id="circle684" />
  <circle
     transform="matrix(0,-1,-1,0,0,0)"
     style="fill:none;stroke:#ff0000;stroke-width:0.05mm"
     r="1.099894"
     cx="200.0383"
     cy="-142.85429"
     id="circle686" />
  <circle
     transform="matrix(0.70710678,0.70710678,0.70710678,-0.70710678,0,0)"
     style="fill:none;stroke:#ff0000;stroke-width:0.05mm"
     r="1.0998944"
     cx="-0.49639195"
     cy="338.85208"
     id="circle688" />
  <circle
     transform="matrix(0.70710678,0.70710678,0.70710678,-0.70710678,0,0)"
     style="fill:none;stroke:#ff0000;stroke-width:0.05mm"
     r="1.0998944"
     cx="-0.49639195"
     cy="338.85208"
     id="circle690" />
  <ellipse
     transform="rotate(45)"
     style="fill:none;stroke:#ff0000;stroke-width:0.05mm"
     rx="0.037825011"
     ry="0.040978011"
     cx="-0.49752545"
     cy="-282.38776"
     id="ellipse692" />
  <circle
     transform="matrix(-0.70710678,0.70710678,0.70710678,0.70710678,0,0)"
     style="fill:none;stroke:#ff0000;stroke-width:0.05mm"
     r="1.0998944"
     cx="-282.37878"
     cy="55.964172"
     id="circle694" />
  <circle
     transform="matrix(-0.70710678,-0.70710678,-0.70710678,0.70710678,0,0)"
     style="fill:none;stroke:#ff0000;stroke-width:0.05mm"
     r="1.0998944"
     cx="0.50884056"
     cy="-225.91849"
     id="circle696" />
  <circle
     transform="matrix(0.70710678,-0.70710678,-0.70710678,-0.70710678,0,0)"
     style="fill:none;stroke:#ff0000;stroke-width:0.05mm"
     r="1.0998944"
     cx="282.39172"
     cy="56.969479"
     id="circle698" />
  <circle
     transform="scale(1,-1)"
     style="fill:none;stroke:#000000;stroke-width:0.05mm"
     r="55"
     cx="199.32759"
     cy="69.637733"
     id="circle706" />
  <circle
     transform="scale(1,-1)"
     style="fill:none;stroke:#000000;stroke-width:0.05mm"
     r="61"
     cx="199.32759"
     cy="69.637733"
     id="circle708" />
  <circle
     transform="scale(1,-1)"
     style="fill:none;stroke:#000000;stroke-width:0.05mm"
     r="55"
     cx="331"
     cy="-38.665993"
     id="circle710" />
  <circle
     transform="scale(1,-1)"
     style="fill:none;stroke:#000000;stroke-width:0.05mm"
     r="61"
     cx="331"
     cy="-38.665993"
     id="circle712" />
</svg>
