999
"DXF R12 Output" (www.mydxf.blogspot.com)
 0 
SECTION
 2 
HEADER
 9 
$ACADVER
 1 
AC1009
 9 
$EXTMIN
 10 
 0 
 20 
 0 
 9 
$EXTMAX
 10 
 8.5 
 20 
 11 
 0 
ENDSEC
 0 
SECTION
 2 
ENTITIES
0
LINE
8
Layer 1
10
129.000000
20
639.435000
11
129.000000
21
375.935000
0
LINE
8
Layer 1
10
129.000000
20
375.935000
11
114.000000
21
375.935000
0
LINE
8
Layer 1
10
114.000000
20
375.935000
11
114.000000
21
639.435000
0
LINE
8
Layer 1
10
114.000000
20
639.435000
11
129.000000
21
639.435000
0
LINE
8
Layer 1
10
129.000000
20
639.435000
11
129.000000
21
639.435000
0
LINE
8
Layer 1
10
149.000000
20
639.435000
11
149.000000
21
375.935000
0
LINE
8
Layer 1
10
149.000000
20
375.935000
11
134.000000
21
375.935000
0
LINE
8
Layer 1
10
134.000000
20
375.935000
11
134.000000
21
639.435000
0
LINE
8
Layer 1
10
134.000000
20
639.435000
11
149.000000
21
639.435000
0
LINE
8
Layer 1
10
149.000000
20
639.435000
11
149.000000
21
639.435000
0
LINE
8
Layer 1
10
169.000000
20
639.435000
11
169.000000
21
375.935000
0
LINE
8
Layer 1
10
169.000000
20
375.935000
11
154.000000
21
375.935000
0
LINE
8
Layer 1
10
154.000000
20
375.935000
11
154.000000
21
639.435000
0
LINE
8
Layer 1
10
154.000000
20
639.435000
11
169.000000
21
639.435000
0
LINE
8
Layer 1
10
169.000000
20
639.435000
11
169.000000
21
639.435000
0
LINE
8
Layer 1
10
189.000000
20
639.435000
11
189.000000
21
375.935000
0
LINE
8
Layer 1
10
189.000000
20
375.935000
11
174.000000
21
375.935000
0
LINE
8
Layer 1
10
174.000000
20
375.935000
11
174.000000
21
639.435000
0
LINE
8
Layer 1
10
174.000000
20
639.435000
11
189.000000
21
639.435000
0
LINE
8
Layer 1
10
189.000000
20
639.435000
11
189.000000
21
639.435000
0
LINE
8
Layer 1
10
33.032000
20
415.473000
11
33.318969
21
418.819990
0
LINE
8
Layer 1
10
33.318969
20
418.819990
11
33.896247
21
422.109547
0
LINE
8
Layer 1
10
33.896247
20
422.109547
11
34.756439
21
425.323799
0
LINE
8
Layer 1
10
34.756439
20
425.323799
11
35.892150
21
428.444875
0
LINE
8
Layer 1
10
35.892150
20
428.444875
11
37.295986
21
431.454904
0
LINE
8
Layer 1
10
37.295986
20
431.454904
11
38.960553
21
434.336016
0
LINE
8
Layer 1
10
38.960553
20
434.336016
11
40.878456
21
437.070338
0
LINE
8
Layer 1
10
40.878456
20
437.070338
11
43.042300
21
439.640000
0
LINE
8
Layer 1
10
43.042300
20
439.640000
11
53.648900
21
429.033000
0
LINE
8
Layer 1
10
53.648900
20
429.033000
11
55.869200
21
431.253000
0
LINE
8
Layer 1
10
55.869200
20
431.253000
11
45.262600
21
441.860000
0
LINE
8
Layer 1
10
45.262600
20
441.860000
11
47.832270
21
444.023971
0
LINE
8
Layer 1
10
47.832270
20
444.023971
11
50.566556
21
445.941953
0
LINE
8
Layer 1
10
50.566556
20
445.941953
11
53.447608
21
447.606553
0
LINE
8
Layer 1
10
53.447608
20
447.606553
11
56.457575
21
449.010375
0
LINE
8
Layer 1
10
56.457575
20
449.010375
11
59.578608
21
450.146025
0
LINE
8
Layer 1
10
59.578608
20
450.146025
11
62.792856
21
451.006109
0
LINE
8
Layer 1
10
62.792856
20
451.006109
11
66.082470
21
451.583232
0
LINE
8
Layer 1
10
66.082470
20
451.583232
11
69.429600
21
451.870000
0
LINE
8
Layer 1
10
69.429600
20
451.870000
11
69.429600
21
436.870000
0
LINE
8
Layer 1
10
69.429600
20
436.870000
11
72.569600
21
436.870000
0
LINE
8
Layer 1
10
72.569600
20
436.870000
11
72.569600
21
451.870000
0
LINE
8
Layer 1
10
72.569600
20
451.870000
11
75.916697
21
451.583232
0
LINE
8
Layer 1
10
75.916697
20
451.583232
11
79.206286
21
451.006109
0
LINE
8
Layer 1
10
79.206286
20
451.006109
11
82.420517
21
450.146025
0
LINE
8
Layer 1
10
82.420517
20
450.146025
11
85.541538
21
449.010375
0
LINE
8
Layer 1
10
85.541538
20
449.010375
11
88.551497
21
447.606553
0
LINE
8
Layer 1
10
88.551497
20
447.606553
11
91.432545
21
445.941953
0
LINE
8
Layer 1
10
91.432545
20
445.941953
11
94.166830
21
444.023971
0
LINE
8
Layer 1
10
94.166830
20
444.023971
11
96.736500
21
441.860000
0
LINE
8
Layer 1
10
96.736500
20
441.860000
11
86.129900
21
431.253000
0
LINE
8
Layer 1
10
86.129900
20
431.253000
11
88.350200
21
429.033000
0
LINE
8
Layer 1
10
88.350200
20
429.033000
11
98.956800
21
439.640000
0
LINE
8
Layer 1
10
98.956800
20
439.640000
11
101.120550
21
437.070338
0
LINE
8
Layer 1
10
101.120550
20
437.070338
11
103.038447
21
434.336016
0
LINE
8
Layer 1
10
103.038447
20
434.336016
11
104.703064
21
431.454904
0
LINE
8
Layer 1
10
104.703064
20
431.454904
11
106.106975
21
428.444875
0
LINE
8
Layer 1
10
106.106975
20
428.444875
11
107.242751
21
425.323799
0
LINE
8
Layer 1
10
107.242751
20
425.323799
11
108.102966
21
422.109547
0
LINE
8
Layer 1
10
108.102966
20
422.109547
11
108.680191
21
418.819990
0
LINE
8
Layer 1
10
108.680191
20
418.819990
11
108.967000
21
415.473000
0
LINE
8
Layer 1
10
108.967000
20
415.473000
11
93.967100
21
415.473000
0
LINE
8
Layer 1
10
93.967100
20
415.473000
11
93.967100
21
412.333000
0
LINE
8
Layer 1
10
93.967100
20
412.333000
11
108.967000
21
412.333000
0
LINE
8
Layer 1
10
108.967000
20
412.333000
11
108.680191
21
408.985723
0
LINE
8
Layer 1
10
108.680191
20
408.985723
11
108.102966
21
405.696031
0
LINE
8
Layer 1
10
108.102966
20
405.696031
11
107.242751
21
402.481762
0
LINE
8
Layer 1
10
107.242751
20
402.481762
11
106.106975
21
399.360750
0
LINE
8
Layer 1
10
106.106975
20
399.360750
11
104.703064
21
396.350832
0
LINE
8
Layer 1
10
104.703064
20
396.350832
11
103.038447
21
393.469844
0
LINE
8
Layer 1
10
103.038447
20
393.469844
11
101.120550
21
390.735621
0
LINE
8
Layer 1
10
101.120550
20
390.735621
11
98.956800
21
388.166000
0
LINE
8
Layer 1
10
33.032000
20
415.473000
11
48.032000
21
415.473000
0
LINE
8
Layer 1
10
48.032000
20
415.473000
11
48.032000
21
412.333000
0
LINE
8
Layer 1
10
48.032000
20
412.333000
11
33.032000
21
412.333000
0
LINE
8
Layer 1
10
33.032000
20
412.333000
11
33.318969
21
408.985723
0
LINE
8
Layer 1
10
33.318969
20
408.985723
11
33.896247
21
405.696031
0
LINE
8
Layer 1
10
33.896247
20
405.696031
11
34.756439
21
402.481762
0
LINE
8
Layer 1
10
34.756439
20
402.481762
11
35.892150
21
399.360750
0
LINE
8
Layer 1
10
35.892150
20
399.360750
11
37.295986
21
396.350832
0
LINE
8
Layer 1
10
37.295986
20
396.350832
11
38.960553
21
393.469844
0
LINE
8
Layer 1
10
38.960553
20
393.469844
11
40.878456
21
390.735621
0
LINE
8
Layer 1
10
40.878456
20
390.735621
11
43.042300
21
388.166000
0
LINE
8
Layer 1
10
43.042300
20
388.166000
11
53.648900
21
398.772000
0
LINE
8
Layer 1
10
53.648900
20
398.772000
11
55.869200
21
396.552000
0
LINE
8
Layer 1
10
55.869200
20
396.552000
11
45.262600
21
385.945000
0
LINE
8
Layer 1
10
45.262600
20
385.945000
11
47.832270
21
383.781357
0
LINE
8
Layer 1
10
47.832270
20
383.781357
11
50.566556
21
381.863609
0
LINE
8
Layer 1
10
50.566556
20
381.863609
11
53.447608
21
380.199150
0
LINE
8
Layer 1
10
53.447608
20
380.199150
11
56.457575
21
378.795375
0
LINE
8
Layer 1
10
56.457575
20
378.795375
11
59.578608
21
377.659678
0
LINE
8
Layer 1
10
59.578608
20
377.659678
11
62.792856
21
376.799453
0
LINE
8
Layer 1
10
62.792856
20
376.799453
11
66.082470
21
376.222096
0
LINE
8
Layer 1
10
66.082470
20
376.222096
11
69.429600
21
375.935000
0
LINE
8
Layer 1
10
69.429600
20
375.935000
11
69.429600
21
390.935000
0
LINE
8
Layer 1
10
69.429600
20
390.935000
11
72.569600
21
390.935000
0
LINE
8
Layer 1
10
72.569600
20
390.935000
11
72.569500
21
375.935000
0
LINE
8
Layer 1
10
72.569500
20
375.935000
11
75.916630
21
376.222096
0
LINE
8
Layer 1
10
75.916630
20
376.222096
11
79.206244
21
376.799453
0
LINE
8
Layer 1
10
79.206244
20
376.799453
11
82.420492
21
377.659678
0
LINE
8
Layer 1
10
82.420492
20
377.659678
11
85.541525
21
378.795375
0
LINE
8
Layer 1
10
85.541525
20
378.795375
11
88.551492
21
380.199150
0
LINE
8
Layer 1
10
88.551492
20
380.199150
11
91.432544
21
381.863609
0
LINE
8
Layer 1
10
91.432544
20
381.863609
11
94.166830
21
383.781357
0
LINE
8
Layer 1
10
94.166830
20
383.781357
11
96.736500
21
385.945000
0
LINE
8
Layer 1
10
96.736500
20
385.945000
11
86.129900
21
396.552000
0
LINE
8
Layer 1
10
86.129900
20
396.552000
11
88.350200
21
398.772000
0
LINE
8
Layer 1
10
88.350200
20
398.772000
11
98.956800
21
388.166000
0
LINE
8
Layer 1
10
33.032000
20
495.473000
11
33.318969
21
498.819990
0
LINE
8
Layer 1
10
33.318969
20
498.819990
11
33.896247
21
502.109547
0
LINE
8
Layer 1
10
33.896247
20
502.109547
11
34.756439
21
505.323799
0
LINE
8
Layer 1
10
34.756439
20
505.323799
11
35.892150
21
508.444875
0
LINE
8
Layer 1
10
35.892150
20
508.444875
11
37.295986
21
511.454904
0
LINE
8
Layer 1
10
37.295986
20
511.454904
11
38.960553
21
514.336016
0
LINE
8
Layer 1
10
38.960553
20
514.336016
11
40.878456
21
517.070338
0
LINE
8
Layer 1
10
40.878456
20
517.070338
11
43.042300
21
519.640000
0
LINE
8
Layer 1
10
43.042300
20
519.640000
11
53.648900
21
509.033000
0
LINE
8
Layer 1
10
53.648900
20
509.033000
11
55.869200
21
511.253000
0
LINE
8
Layer 1
10
55.869200
20
511.253000
11
45.262600
21
521.860000
0
LINE
8
Layer 1
10
45.262600
20
521.860000
11
47.832270
21
524.023971
0
LINE
8
Layer 1
10
47.832270
20
524.023971
11
50.566556
21
525.941953
0
LINE
8
Layer 1
10
50.566556
20
525.941953
11
53.447608
21
527.606553
0
LINE
8
Layer 1
10
53.447608
20
527.606553
11
56.457575
21
529.010375
0
LINE
8
Layer 1
10
56.457575
20
529.010375
11
59.578608
21
530.146025
0
LINE
8
Layer 1
10
59.578608
20
530.146025
11
62.792856
21
531.006109
0
LINE
8
Layer 1
10
62.792856
20
531.006109
11
66.082470
21
531.583232
0
LINE
8
Layer 1
10
66.082470
20
531.583232
11
69.429600
21
531.870000
0
LINE
8
Layer 1
10
69.429600
20
531.870000
11
69.429600
21
516.870000
0
LINE
8
Layer 1
10
69.429600
20
516.870000
11
72.569600
21
516.870000
0
LINE
8
Layer 1
10
72.569600
20
516.870000
11
72.569600
21
531.870000
0
LINE
8
Layer 1
10
72.569600
20
531.870000
11
75.916697
21
531.583232
0
LINE
8
Layer 1
10
75.916697
20
531.583232
11
79.206286
21
531.006109
0
LINE
8
Layer 1
10
79.206286
20
531.006109
11
82.420517
21
530.146025
0
LINE
8
Layer 1
10
82.420517
20
530.146025
11
85.541538
21
529.010375
0
LINE
8
Layer 1
10
85.541538
20
529.010375
11
88.551497
21
527.606553
0
LINE
8
Layer 1
10
88.551497
20
527.606553
11
91.432545
21
525.941953
0
LINE
8
Layer 1
10
91.432545
20
525.941953
11
94.166830
21
524.023971
0
LINE
8
Layer 1
10
94.166830
20
524.023971
11
96.736500
21
521.860000
0
LINE
8
Layer 1
10
96.736500
20
521.860000
11
86.129900
21
511.253000
0
LINE
8
Layer 1
10
86.129900
20
511.253000
11
88.350200
21
509.033000
0
LINE
8
Layer 1
10
88.350200
20
509.033000
11
98.956800
21
519.640000
0
LINE
8
Layer 1
10
98.956800
20
519.640000
11
101.120550
21
517.070338
0
LINE
8
Layer 1
10
101.120550
20
517.070338
11
103.038447
21
514.336016
0
LINE
8
Layer 1
10
103.038447
20
514.336016
11
104.703064
21
511.454904
0
LINE
8
Layer 1
10
104.703064
20
511.454904
11
106.106975
21
508.444875
0
LINE
8
Layer 1
10
106.106975
20
508.444875
11
107.242751
21
505.323799
0
LINE
8
Layer 1
10
107.242751
20
505.323799
11
108.102966
21
502.109547
0
LINE
8
Layer 1
10
108.102966
20
502.109547
11
108.680191
21
498.819990
0
LINE
8
Layer 1
10
108.680191
20
498.819990
11
108.967000
21
495.473000
0
LINE
8
Layer 1
10
108.967000
20
495.473000
11
93.967100
21
495.473000
0
LINE
8
Layer 1
10
93.967100
20
495.473000
11
93.967100
21
492.333000
0
LINE
8
Layer 1
10
93.967100
20
492.333000
11
108.967000
21
492.333000
0
LINE
8
Layer 1
10
108.967000
20
492.333000
11
108.680191
21
488.985723
0
LINE
8
Layer 1
10
108.680191
20
488.985723
11
108.102966
21
485.696031
0
LINE
8
Layer 1
10
108.102966
20
485.696031
11
107.242751
21
482.481762
0
LINE
8
Layer 1
10
107.242751
20
482.481762
11
106.106975
21
479.360750
0
LINE
8
Layer 1
10
106.106975
20
479.360750
11
104.703064
21
476.350832
0
LINE
8
Layer 1
10
104.703064
20
476.350832
11
103.038447
21
473.469844
0
LINE
8
Layer 1
10
103.038447
20
473.469844
11
101.120550
21
470.735621
0
LINE
8
Layer 1
10
101.120550
20
470.735621
11
98.956800
21
468.166000
0
LINE
8
Layer 1
10
33.032000
20
495.473000
11
48.032000
21
495.473000
0
LINE
8
Layer 1
10
48.032000
20
495.473000
11
48.032000
21
492.333000
0
LINE
8
Layer 1
10
48.032000
20
492.333000
11
33.032000
21
492.333000
0
LINE
8
Layer 1
10
33.032000
20
492.333000
11
33.318969
21
488.985723
0
LINE
8
Layer 1
10
33.318969
20
488.985723
11
33.896247
21
485.696031
0
LINE
8
Layer 1
10
33.896247
20
485.696031
11
34.756439
21
482.481762
0
LINE
8
Layer 1
10
34.756439
20
482.481762
11
35.892150
21
479.360750
0
LINE
8
Layer 1
10
35.892150
20
479.360750
11
37.295986
21
476.350832
0
LINE
8
Layer 1
10
37.295986
20
476.350832
11
38.960553
21
473.469844
0
LINE
8
Layer 1
10
38.960553
20
473.469844
11
40.878456
21
470.735621
0
LINE
8
Layer 1
10
40.878456
20
470.735621
11
43.042300
21
468.166000
0
LINE
8
Layer 1
10
43.042300
20
468.166000
11
53.648900
21
478.772000
0
LINE
8
Layer 1
10
53.648900
20
478.772000
11
55.869200
21
476.552000
0
LINE
8
Layer 1
10
55.869200
20
476.552000
11
45.262600
21
465.945000
0
LINE
8
Layer 1
10
45.262600
20
465.945000
11
47.832270
21
463.781357
0
LINE
8
Layer 1
10
47.832270
20
463.781357
11
50.566556
21
461.863609
0
LINE
8
Layer 1
10
50.566556
20
461.863609
11
53.447608
21
460.199150
0
LINE
8
Layer 1
10
53.447608
20
460.199150
11
56.457575
21
458.795375
0
LINE
8
Layer 1
10
56.457575
20
458.795375
11
59.578608
21
457.659678
0
LINE
8
Layer 1
10
59.578608
20
457.659678
11
62.792856
21
456.799453
0
LINE
8
Layer 1
10
62.792856
20
456.799453
11
66.082470
21
456.222096
0
LINE
8
Layer 1
10
66.082470
20
456.222096
11
69.429600
21
455.935000
0
LINE
8
Layer 1
10
69.429600
20
455.935000
11
69.429600
21
470.935000
0
LINE
8
Layer 1
10
69.429600
20
470.935000
11
72.569600
21
470.935000
0
LINE
8
Layer 1
10
72.569600
20
470.935000
11
72.569500
21
455.935000
0
LINE
8
Layer 1
10
72.569500
20
455.935000
11
75.916630
21
456.222096
0
LINE
8
Layer 1
10
75.916630
20
456.222096
11
79.206244
21
456.799453
0
LINE
8
Layer 1
10
79.206244
20
456.799453
11
82.420492
21
457.659678
0
LINE
8
Layer 1
10
82.420492
20
457.659678
11
85.541525
21
458.795375
0
LINE
8
Layer 1
10
85.541525
20
458.795375
11
88.551492
21
460.199150
0
LINE
8
Layer 1
10
88.551492
20
460.199150
11
91.432544
21
461.863609
0
LINE
8
Layer 1
10
91.432544
20
461.863609
11
94.166830
21
463.781357
0
LINE
8
Layer 1
10
94.166830
20
463.781357
11
96.736500
21
465.945000
0
LINE
8
Layer 1
10
96.736500
20
465.945000
11
86.129900
21
476.552000
0
LINE
8
Layer 1
10
86.129900
20
476.552000
11
88.350200
21
478.772000
0
LINE
8
Layer 1
10
88.350200
20
478.772000
11
98.956800
21
468.166000
0
LINE
8
Layer 1
10
33.032000
20
575.473000
11
33.318969
21
578.819990
0
LINE
8
Layer 1
10
33.318969
20
578.819990
11
33.896247
21
582.109547
0
LINE
8
Layer 1
10
33.896247
20
582.109547
11
34.756439
21
585.323799
0
LINE
8
Layer 1
10
34.756439
20
585.323799
11
35.892150
21
588.444875
0
LINE
8
Layer 1
10
35.892150
20
588.444875
11
37.295986
21
591.454904
0
LINE
8
Layer 1
10
37.295986
20
591.454904
11
38.960553
21
594.336016
0
LINE
8
Layer 1
10
38.960553
20
594.336016
11
40.878456
21
597.070338
0
LINE
8
Layer 1
10
40.878456
20
597.070338
11
43.042300
21
599.640000
0
LINE
8
Layer 1
10
43.042300
20
599.640000
11
53.648900
21
589.033000
0
LINE
8
Layer 1
10
53.648900
20
589.033000
11
55.869200
21
591.253000
0
LINE
8
Layer 1
10
55.869200
20
591.253000
11
45.262600
21
601.860000
0
LINE
8
Layer 1
10
45.262600
20
601.860000
11
47.832270
21
604.023971
0
LINE
8
Layer 1
10
47.832270
20
604.023971
11
50.566556
21
605.941953
0
LINE
8
Layer 1
10
50.566556
20
605.941953
11
53.447608
21
607.606553
0
LINE
8
Layer 1
10
53.447608
20
607.606553
11
56.457575
21
609.010375
0
LINE
8
Layer 1
10
56.457575
20
609.010375
11
59.578608
21
610.146025
0
LINE
8
Layer 1
10
59.578608
20
610.146025
11
62.792856
21
611.006109
0
LINE
8
Layer 1
10
62.792856
20
611.006109
11
66.082470
21
611.583232
0
LINE
8
Layer 1
10
66.082470
20
611.583232
11
69.429600
21
611.870000
0
LINE
8
Layer 1
10
69.429600
20
611.870000
11
69.429600
21
596.870000
0
LINE
8
Layer 1
10
69.429600
20
596.870000
11
72.569600
21
596.870000
0
LINE
8
Layer 1
10
72.569600
20
596.870000
11
72.569600
21
611.870000
0
LINE
8
Layer 1
10
72.569600
20
611.870000
11
75.916697
21
611.583232
0
LINE
8
Layer 1
10
75.916697
20
611.583232
11
79.206286
21
611.006109
0
LINE
8
Layer 1
10
79.206286
20
611.006109
11
82.420517
21
610.146025
0
LINE
8
Layer 1
10
82.420517
20
610.146025
11
85.541538
21
609.010375
0
LINE
8
Layer 1
10
85.541538
20
609.010375
11
88.551497
21
607.606553
0
LINE
8
Layer 1
10
88.551497
20
607.606553
11
91.432545
21
605.941953
0
LINE
8
Layer 1
10
91.432545
20
605.941953
11
94.166830
21
604.023971
0
LINE
8
Layer 1
10
94.166830
20
604.023971
11
96.736500
21
601.860000
0
LINE
8
Layer 1
10
96.736500
20
601.860000
11
86.129900
21
591.253000
0
LINE
8
Layer 1
10
86.129900
20
591.253000
11
88.350200
21
589.033000
0
LINE
8
Layer 1
10
88.350200
20
589.033000
11
98.956800
21
599.640000
0
LINE
8
Layer 1
10
98.956800
20
599.640000
11
101.120550
21
597.070338
0
LINE
8
Layer 1
10
101.120550
20
597.070338
11
103.038447
21
594.336016
0
LINE
8
Layer 1
10
103.038447
20
594.336016
11
104.703064
21
591.454904
0
LINE
8
Layer 1
10
104.703064
20
591.454904
11
106.106975
21
588.444875
0
LINE
8
Layer 1
10
106.106975
20
588.444875
11
107.242751
21
585.323799
0
LINE
8
Layer 1
10
107.242751
20
585.323799
11
108.102966
21
582.109547
0
LINE
8
Layer 1
10
108.102966
20
582.109547
11
108.680191
21
578.819990
0
LINE
8
Layer 1
10
108.680191
20
578.819990
11
108.967000
21
575.473000
0
LINE
8
Layer 1
10
108.967000
20
575.473000
11
93.967100
21
575.473000
0
LINE
8
Layer 1
10
93.967100
20
575.473000
11
93.967100
21
572.333000
0
LINE
8
Layer 1
10
93.967100
20
572.333000
11
108.967000
21
572.333000
0
LINE
8
Layer 1
10
108.967000
20
572.333000
11
108.680191
21
568.985723
0
LINE
8
Layer 1
10
108.680191
20
568.985723
11
108.102966
21
565.696031
0
LINE
8
Layer 1
10
108.102966
20
565.696031
11
107.242751
21
562.481762
0
LINE
8
Layer 1
10
107.242751
20
562.481762
11
106.106975
21
559.360750
0
LINE
8
Layer 1
10
106.106975
20
559.360750
11
104.703064
21
556.350832
0
LINE
8
Layer 1
10
104.703064
20
556.350832
11
103.038447
21
553.469844
0
LINE
8
Layer 1
10
103.038447
20
553.469844
11
101.120550
21
550.735621
0
LINE
8
Layer 1
10
101.120550
20
550.735621
11
98.956800
21
548.166000
0
LINE
8
Layer 1
10
33.032000
20
575.473000
11
48.032000
21
575.473000
0
LINE
8
Layer 1
10
48.032000
20
575.473000
11
48.032000
21
572.333000
0
LINE
8
Layer 1
10
48.032000
20
572.333000
11
33.032000
21
572.333000
0
LINE
8
Layer 1
10
33.032000
20
572.333000
11
33.318969
21
568.985723
0
LINE
8
Layer 1
10
33.318969
20
568.985723
11
33.896247
21
565.696031
0
LINE
8
Layer 1
10
33.896247
20
565.696031
11
34.756439
21
562.481762
0
LINE
8
Layer 1
10
34.756439
20
562.481762
11
35.892150
21
559.360750
0
LINE
8
Layer 1
10
35.892150
20
559.360750
11
37.295986
21
556.350832
0
LINE
8
Layer 1
10
37.295986
20
556.350832
11
38.960553
21
553.469844
0
LINE
8
Layer 1
10
38.960553
20
553.469844
11
40.878456
21
550.735621
0
LINE
8
Layer 1
10
40.878456
20
550.735621
11
43.042300
21
548.166000
0
LINE
8
Layer 1
10
43.042300
20
548.166000
11
53.648900
21
558.772000
0
LINE
8
Layer 1
10
53.648900
20
558.772000
11
55.869200
21
556.552000
0
LINE
8
Layer 1
10
55.869200
20
556.552000
11
45.262600
21
545.945000
0
LINE
8
Layer 1
10
45.262600
20
545.945000
11
47.832270
21
543.781357
0
LINE
8
Layer 1
10
47.832270
20
543.781357
11
50.566556
21
541.863609
0
LINE
8
Layer 1
10
50.566556
20
541.863609
11
53.447608
21
540.199150
0
LINE
8
Layer 1
10
53.447608
20
540.199150
11
56.457575
21
538.795375
0
LINE
8
Layer 1
10
56.457575
20
538.795375
11
59.578608
21
537.659678
0
LINE
8
Layer 1
10
59.578608
20
537.659678
11
62.792856
21
536.799453
0
LINE
8
Layer 1
10
62.792856
20
536.799453
11
66.082470
21
536.222096
0
LINE
8
Layer 1
10
66.082470
20
536.222096
11
69.429600
21
535.935000
0
LINE
8
Layer 1
10
69.429600
20
535.935000
11
69.429600
21
550.935000
0
LINE
8
Layer 1
10
69.429600
20
550.935000
11
72.569600
21
550.935000
0
LINE
8
Layer 1
10
72.569600
20
550.935000
11
72.569500
21
535.935000
0
LINE
8
Layer 1
10
72.569500
20
535.935000
11
75.916630
21
536.222096
0
LINE
8
Layer 1
10
75.916630
20
536.222096
11
79.206244
21
536.799453
0
LINE
8
Layer 1
10
79.206244
20
536.799453
11
82.420492
21
537.659678
0
LINE
8
Layer 1
10
82.420492
20
537.659678
11
85.541525
21
538.795375
0
LINE
8
Layer 1
10
85.541525
20
538.795375
11
88.551492
21
540.199150
0
LINE
8
Layer 1
10
88.551492
20
540.199150
11
91.432544
21
541.863609
0
LINE
8
Layer 1
10
91.432544
20
541.863609
11
94.166830
21
543.781357
0
LINE
8
Layer 1
10
94.166830
20
543.781357
11
96.736500
21
545.945000
0
LINE
8
Layer 1
10
96.736500
20
545.945000
11
86.129900
21
556.552000
0
LINE
8
Layer 1
10
86.129900
20
556.552000
11
88.350200
21
558.772000
0
LINE
8
Layer 1
10
88.350200
20
558.772000
11
98.956800
21
548.166000
0
LINE
8
Layer 1
10
33.032000
20
655.473000
11
33.318969
21
658.819990
0
LINE
8
Layer 1
10
33.318969
20
658.819990
11
33.896247
21
662.109547
0
LINE
8
Layer 1
10
33.896247
20
662.109547
11
34.756439
21
665.323799
0
LINE
8
Layer 1
10
34.756439
20
665.323799
11
35.892150
21
668.444875
0
LINE
8
Layer 1
10
35.892150
20
668.444875
11
37.295986
21
671.454904
0
LINE
8
Layer 1
10
37.295986
20
671.454904
11
38.960553
21
674.336016
0
LINE
8
Layer 1
10
38.960553
20
674.336016
11
40.878456
21
677.070338
0
LINE
8
Layer 1
10
40.878456
20
677.070338
11
43.042300
21
679.640000
0
LINE
8
Layer 1
10
43.042300
20
679.640000
11
53.648900
21
669.033000
0
LINE
8
Layer 1
10
53.648900
20
669.033000
11
55.869200
21
671.253000
0
LINE
8
Layer 1
10
55.869200
20
671.253000
11
45.262600
21
681.860000
0
LINE
8
Layer 1
10
45.262600
20
681.860000
11
47.832270
21
684.023971
0
LINE
8
Layer 1
10
47.832270
20
684.023971
11
50.566556
21
685.941953
0
LINE
8
Layer 1
10
50.566556
20
685.941953
11
53.447608
21
687.606553
0
LINE
8
Layer 1
10
53.447608
20
687.606553
11
56.457575
21
689.010375
0
LINE
8
Layer 1
10
56.457575
20
689.010375
11
59.578608
21
690.146025
0
LINE
8
Layer 1
10
59.578608
20
690.146025
11
62.792856
21
691.006109
0
LINE
8
Layer 1
10
62.792856
20
691.006109
11
66.082470
21
691.583232
0
LINE
8
Layer 1
10
66.082470
20
691.583232
11
69.429600
21
691.870000
0
LINE
8
Layer 1
10
69.429600
20
691.870000
11
69.429600
21
676.870000
0
LINE
8
Layer 1
10
69.429600
20
676.870000
11
72.569600
21
676.870000
0
LINE
8
Layer 1
10
72.569600
20
676.870000
11
72.569600
21
691.870000
0
LINE
8
Layer 1
10
72.569600
20
691.870000
11
75.916697
21
691.583232
0
LINE
8
Layer 1
10
75.916697
20
691.583232
11
79.206286
21
691.006109
0
LINE
8
Layer 1
10
79.206286
20
691.006109
11
82.420517
21
690.146025
0
LINE
8
Layer 1
10
82.420517
20
690.146025
11
85.541538
21
689.010375
0
LINE
8
Layer 1
10
85.541538
20
689.010375
11
88.551497
21
687.606553
0
LINE
8
Layer 1
10
88.551497
20
687.606553
11
91.432545
21
685.941953
0
LINE
8
Layer 1
10
91.432545
20
685.941953
11
94.166830
21
684.023971
0
LINE
8
Layer 1
10
94.166830
20
684.023971
11
96.736500
21
681.860000
0
LINE
8
Layer 1
10
96.736500
20
681.860000
11
86.129900
21
671.253000
0
LINE
8
Layer 1
10
86.129900
20
671.253000
11
88.350200
21
669.033000
0
LINE
8
Layer 1
10
88.350200
20
669.033000
11
98.956800
21
679.640000
0
LINE
8
Layer 1
10
98.956800
20
679.640000
11
101.120550
21
677.070338
0
LINE
8
Layer 1
10
101.120550
20
677.070338
11
103.038447
21
674.336016
0
LINE
8
Layer 1
10
103.038447
20
674.336016
11
104.703064
21
671.454904
0
LINE
8
Layer 1
10
104.703064
20
671.454904
11
106.106975
21
668.444875
0
LINE
8
Layer 1
10
106.106975
20
668.444875
11
107.242751
21
665.323799
0
LINE
8
Layer 1
10
107.242751
20
665.323799
11
108.102966
21
662.109547
0
LINE
8
Layer 1
10
108.102966
20
662.109547
11
108.680191
21
658.819990
0
LINE
8
Layer 1
10
108.680191
20
658.819990
11
108.967000
21
655.473000
0
LINE
8
Layer 1
10
108.967000
20
655.473000
11
93.967100
21
655.473000
0
LINE
8
Layer 1
10
93.967100
20
655.473000
11
93.967100
21
652.333000
0
LINE
8
Layer 1
10
93.967100
20
652.333000
11
108.967000
21
652.333000
0
LINE
8
Layer 1
10
108.967000
20
652.333000
11
108.680191
21
648.985723
0
LINE
8
Layer 1
10
108.680191
20
648.985723
11
108.102966
21
645.696031
0
LINE
8
Layer 1
10
108.102966
20
645.696031
11
107.242751
21
642.481762
0
LINE
8
Layer 1
10
107.242751
20
642.481762
11
106.106975
21
639.360750
0
LINE
8
Layer 1
10
106.106975
20
639.360750
11
104.703064
21
636.350832
0
LINE
8
Layer 1
10
104.703064
20
636.350832
11
103.038447
21
633.469844
0
LINE
8
Layer 1
10
103.038447
20
633.469844
11
101.120550
21
630.735621
0
LINE
8
Layer 1
10
101.120550
20
630.735621
11
98.956800
21
628.166000
0
LINE
8
Layer 1
10
33.032000
20
655.473000
11
48.032000
21
655.473000
0
LINE
8
Layer 1
10
48.032000
20
655.473000
11
48.032000
21
652.333000
0
LINE
8
Layer 1
10
48.032000
20
652.333000
11
33.032000
21
652.333000
0
LINE
8
Layer 1
10
33.032000
20
652.333000
11
33.318969
21
648.985723
0
LINE
8
Layer 1
10
33.318969
20
648.985723
11
33.896247
21
645.696031
0
LINE
8
Layer 1
10
33.896247
20
645.696031
11
34.756439
21
642.481762
0
LINE
8
Layer 1
10
34.756439
20
642.481762
11
35.892150
21
639.360750
0
LINE
8
Layer 1
10
35.892150
20
639.360750
11
37.295986
21
636.350832
0
LINE
8
Layer 1
10
37.295986
20
636.350832
11
38.960553
21
633.469844
0
LINE
8
Layer 1
10
38.960553
20
633.469844
11
40.878456
21
630.735621
0
LINE
8
Layer 1
10
40.878456
20
630.735621
11
43.042300
21
628.166000
0
LINE
8
Layer 1
10
43.042300
20
628.166000
11
53.648900
21
638.772000
0
LINE
8
Layer 1
10
53.648900
20
638.772000
11
55.869200
21
636.552000
0
LINE
8
Layer 1
10
55.869200
20
636.552000
11
45.262600
21
625.945000
0
LINE
8
Layer 1
10
45.262600
20
625.945000
11
47.832270
21
623.781357
0
LINE
8
Layer 1
10
47.832270
20
623.781357
11
50.566556
21
621.863609
0
LINE
8
Layer 1
10
50.566556
20
621.863609
11
53.447608
21
620.199150
0
LINE
8
Layer 1
10
53.447608
20
620.199150
11
56.457575
21
618.795375
0
LINE
8
Layer 1
10
56.457575
20
618.795375
11
59.578608
21
617.659678
0
LINE
8
Layer 1
10
59.578608
20
617.659678
11
62.792856
21
616.799453
0
LINE
8
Layer 1
10
62.792856
20
616.799453
11
66.082470
21
616.222096
0
LINE
8
Layer 1
10
66.082470
20
616.222096
11
69.429600
21
615.935000
0
LINE
8
Layer 1
10
69.429600
20
615.935000
11
69.429600
21
630.935000
0
LINE
8
Layer 1
10
69.429600
20
630.935000
11
72.569600
21
630.935000
0
LINE
8
Layer 1
10
72.569600
20
630.935000
11
72.569500
21
615.935000
0
LINE
8
Layer 1
10
72.569500
20
615.935000
11
75.916630
21
616.222096
0
LINE
8
Layer 1
10
75.916630
20
616.222096
11
79.206244
21
616.799453
0
LINE
8
Layer 1
10
79.206244
20
616.799453
11
82.420492
21
617.659678
0
LINE
8
Layer 1
10
82.420492
20
617.659678
11
85.541525
21
618.795375
0
LINE
8
Layer 1
10
85.541525
20
618.795375
11
88.551492
21
620.199150
0
LINE
8
Layer 1
10
88.551492
20
620.199150
11
91.432544
21
621.863609
0
LINE
8
Layer 1
10
91.432544
20
621.863609
11
94.166830
21
623.781357
0
LINE
8
Layer 1
10
94.166830
20
623.781357
11
96.736500
21
625.945000
0
LINE
8
Layer 1
10
96.736500
20
625.945000
11
86.129900
21
636.552000
0
LINE
8
Layer 1
10
86.129900
20
636.552000
11
88.350200
21
638.772000
0
LINE
8
Layer 1
10
88.350200
20
638.772000
11
98.956800
21
628.166000
0
LINE
8
Layer 1
10
207.629000
20
639.435000
11
207.629000
21
375.935000
0
LINE
8
Layer 1
10
207.629000
20
375.935000
11
192.629000
21
375.935000
0
LINE
8
Layer 1
10
192.629000
20
375.935000
11
192.629000
21
639.435000
0
LINE
8
Layer 1
10
192.629000
20
639.435000
11
207.629000
21
639.435000
0
LINE
8
Layer 1
10
227.629000
20
639.435000
11
227.629000
21
375.935000
0
LINE
8
Layer 1
10
227.629000
20
375.935000
11
212.629000
21
375.935000
0
LINE
8
Layer 1
10
212.629000
20
375.935000
11
212.629000
21
639.435000
0
LINE
8
Layer 1
10
212.629000
20
639.435000
11
227.629000
21
639.435000
 0 
ENDSEC
 0 
EOF