<?xml version="1.0" encoding="UTF-8" standalone="no"?>
<svg
   width="155.968mm"
   height="315.935mm"
   viewBox="33.031994 -375.935120 155.968063 315.935120"
   version="1.1"
   id="svg872"
   sodipodi:docname="helper.svg"
   inkscape:version="1.2.1 (9c6d41e, 2022-07-14)"
   xmlns:inkscape="http://www.inkscape.org/namespaces/inkscape"
   xmlns:sodipodi="http://sodipodi.sourceforge.net/DTD/sodipodi-0.dtd"
   xmlns="http://www.w3.org/2000/svg"
   xmlns:svg="http://www.w3.org/2000/svg">
  <defs
     id="defs876" />
  <sodipodi:namedview
     id="namedview874"
     pagecolor="#ffffff"
     bordercolor="#000000"
     borderopacity="0.25"
     inkscape:showpageshadow="2"
     inkscape:pageopacity="0.0"
     inkscape:pagecheckerboard="0"
     inkscape:deskcolor="#d1d1d1"
     inkscape:document-units="mm"
     showgrid="false"
     inkscape:zoom="0.71593905"
     inkscape:cx="722.8269"
     inkscape:cy="580.35667"
     inkscape:window-width="2560"
     inkscape:window-height="1387"
     inkscape:window-x="0"
     inkscape:window-y="215"
     inkscape:window-maximized="1"
     inkscape:current-layer="svg872" />
  <path
     transform="matrix(1,0,0,-1,2.10905,-41.575001)"
     style="stroke:#000000;stroke-width:0.05mm;fill:none"
     d="M126.890953,281.924988L126.890953,18.424999L111.890953,18.424999L111.890953,281.924988L126.890953,281.924988z"
     id="path848" />
  <path
     transform="matrix(1,0,0,-1,22.1091,-41.575001)"
     style="stroke:#000000;stroke-width:0.05mm;fill:none"
     d="M126.890953,281.924988L126.890953,18.424999L111.890953,18.424999L111.890953,281.924988L126.890953,281.924988z"
     id="path850" />
  <path
     transform="matrix(1,0,0,-1,42.1091,-41.575001)"
     style="stroke:#000000;stroke-width:0.05mm;fill:none"
     d="M126.890953,281.924988L126.890953,18.424999L111.890953,18.424999L111.890953,281.924988L126.890953,281.924988z"
     id="path852" />
  <path
     transform="matrix(1,0,0,-1,62.1091,-41.575001)"
     style="stroke:#000000;stroke-width:0.05mm;fill:none"
     d="M126.890953,281.924988L126.890953,18.424999L111.890953,18.424999L111.890953,281.924988L126.890953,281.924988z"
     id="path854" />
  <path
     transform="matrix(1,0,0,-1,33.031998,128.688004)"
     style="stroke:#000000;stroke-width:0.05mm;fill:none"
     d="M-0.000004,228.225708C0.371597,237.212173,3.918652,245.775513,10.010282,252.39267L20.616882,241.786072L22.837198,244.006393L12.230593,254.612991C18.84774,260.70462,27.411091,264.251678,36.397552,264.62326L36.397552,249.623276L39.537552,249.623276L39.537552,264.62326C48.52401,264.251678,57.087364,260.70462,63.70451,254.612991L53.097908,244.006393L55.318222,241.786072L65.924828,252.39267C72.016449,245.775528,75.563507,237.212173,75.935104,228.225723L60.935108,228.225723L60.935108,225.085709L75.935104,225.085709C75.563507,216.099258,72.016449,207.535904,65.92482,200.918747"
     id="path856" />
  <path
     transform="matrix(1,0,0,-1,33.031998,128.688004)"
     style="stroke:#000000;stroke-width:0.05mm;fill:none"
     d="M0,228.225723L15,228.225723L15,225.085709L0,225.085709C0.371601,216.099258,3.918655,207.535904,10.010281,200.918762L20.616882,211.52536L22.837198,209.305038L12.230593,198.698441C18.847736,192.606812,27.411087,189.059753,36.397552,188.688156L36.397552,203.688156L39.537552,203.688156L39.537548,188.688156C48.524017,189.059769,57.087368,192.606827,63.70451,198.698441L53.097908,209.305038L55.318222,211.52536L65.924828,200.918762"
     id="path858" />
  <path
     transform="matrix(1,0,0,-1,33.031998,48.688004)"
     style="stroke:#000000;stroke-width:0.05mm;fill:none"
     d="M-0.000004,228.225708C0.371597,237.212173,3.918652,245.775513,10.010282,252.39267L20.616882,241.786072L22.837198,244.006393L12.230593,254.612991C18.84774,260.70462,27.411091,264.251678,36.397552,264.62326L36.397552,249.623276L39.537552,249.623276L39.537552,264.62326C48.52401,264.251678,57.087364,260.70462,63.70451,254.612991L53.097908,244.006393L55.318222,241.786072L65.924828,252.39267C72.016449,245.775528,75.563507,237.212173,75.935104,228.225723L60.935108,228.225723L60.935108,225.085709L75.935104,225.085709C75.563507,216.099258,72.016449,207.535904,65.92482,200.918747"
     id="path860" />
  <path
     transform="matrix(1,0,0,-1,33.031998,48.688004)"
     style="stroke:#000000;stroke-width:0.05mm;fill:none"
     d="M0,228.225723L15,228.225723L15,225.085709L0,225.085709C0.371601,216.099258,3.918655,207.535904,10.010281,200.918762L20.616882,211.52536L22.837198,209.305038L12.230593,198.698441C18.847736,192.606812,27.411087,189.059753,36.397552,188.688156L36.397552,203.688156L39.537552,203.688156L39.537548,188.688156C48.524017,189.059769,57.087368,192.606827,63.70451,198.698441L53.097908,209.305038L55.318222,211.52536L65.924828,200.918762"
     id="path862" />
  <path
     transform="matrix(1,0,0,-1,33.031998,-31.311798)"
     style="stroke:#000000;stroke-width:0.05mm;fill:none"
     d="M-0.000004,228.225708C0.371597,237.212173,3.918652,245.775513,10.010282,252.39267L20.616882,241.786072L22.837198,244.006393L12.230593,254.612991C18.84774,260.70462,27.411091,264.251678,36.397552,264.62326L36.397552,249.623276L39.537552,249.623276L39.537552,264.62326C48.52401,264.251678,57.087364,260.70462,63.70451,254.612991L53.097908,244.006393L55.318222,241.786072L65.924828,252.39267C72.016449,245.775528,75.563507,237.212173,75.935104,228.225723L60.935108,228.225723L60.935108,225.085709L75.935104,225.085709C75.563507,216.099258,72.016449,207.535904,65.92482,200.918747"
     id="path864" />
  <path
     transform="matrix(1,0,0,-1,33.031998,-31.311798)"
     style="stroke:#000000;stroke-width:0.05mm;fill:none"
     d="M0,228.225723L15,228.225723L15,225.085709L0,225.085709C0.371601,216.099258,3.918655,207.535904,10.010281,200.918762L20.616882,211.52536L22.837198,209.305038L12.230593,198.698441C18.847736,192.606812,27.411087,189.059753,36.397552,188.688156L36.397552,203.688156L39.537552,203.688156L39.537548,188.688156C48.524017,189.059769,57.087368,192.606827,63.70451,198.698441L53.097908,209.305038L55.318222,211.52536L65.924828,200.918762"
     id="path866" />
  <path
     transform="matrix(1,0,0,-1,33.031998,-111.311844)"
     style="stroke:#000000;stroke-width:0.05mm;fill:none"
     d="M-0.000004,228.225708C0.371597,237.212173,3.918652,245.775513,10.010282,252.39267L20.616882,241.786072L22.837198,244.006393L12.230593,254.612991C18.84774,260.70462,27.411091,264.251678,36.397552,264.62326L36.397552,249.623276L39.537552,249.623276L39.537552,264.62326C48.52401,264.251678,57.087364,260.70462,63.70451,254.612991L53.097908,244.006393L55.318222,241.786072L65.924828,252.39267C72.016449,245.775528,75.563507,237.212173,75.935104,228.225723L60.935108,228.225723L60.935108,225.085709L75.935104,225.085709C75.563507,216.099258,72.016449,207.535904,65.92482,200.918747"
     id="path868" />
  <path
     transform="matrix(1,0,0,-1,33.031998,-111.311844)"
     style="stroke:#000000;stroke-width:0.05mm;fill:none"
     d="M0,228.225723L15,228.225723L15,225.085709L0,225.085709C0.371601,216.099258,3.918655,207.535904,10.010281,200.918762L20.616882,211.52536L22.837198,209.305038L12.230593,198.698441C18.847736,192.606812,27.411087,189.059753,36.397552,188.688156L36.397552,203.688156L39.537552,203.688156L39.537548,188.688156C48.524017,189.059769,57.087368,192.606827,63.70451,198.698441L53.097908,209.305038L55.318222,211.52536L65.924828,200.918762"
     id="path870" />
  <path
     style="fill:none;stroke:#000000;stroke-width:0.05mm"
     d="M 207.62925,-323.49999 V -60 h -15 v -263.49999 z"
     id="path878" />
  <path
     style="fill:none;stroke:#000000;stroke-width:0.05mm"
     d="M 227.62925,-323.49999 V -60 h -15 v -263.49999 z"
     id="path880" />
</svg>
