<?xml version="1.0" encoding="UTF-8" standalone="no"?>
<svg
   width="260.410mm"
   height="332.000mm"
   viewBox="1.000002 -357.000122 260.410034 331.999664"
   version="1.1"
   id="svg6400"
   sodipodi:docname="bottom.svg"
   inkscape:version="1.2.1 (9c6d41e, 2022-07-14)"
   xmlns:inkscape="http://www.inkscape.org/namespaces/inkscape"
   xmlns:sodipodi="http://sodipodi.sourceforge.net/DTD/sodipodi-0.dtd"
   xmlns="http://www.w3.org/2000/svg"
   xmlns:svg="http://www.w3.org/2000/svg">
  <defs
     id="defs6404" />
  <sodipodi:namedview
     id="namedview6402"
     pagecolor="#ffffff"
     bordercolor="#000000"
     borderopacity="0.25"
     inkscape:showpageshadow="2"
     inkscape:pageopacity="0.0"
     inkscape:pagecheckerboard="0"
     inkscape:deskcolor="#d1d1d1"
     inkscape:document-units="mm"
     showgrid="false"
     inkscape:zoom="0.60959538"
     inkscape:cx="109.08875"
     inkscape:cy="323.9854"
     inkscape:window-width="2560"
     inkscape:window-height="1387"
     inkscape:window-x="0"
     inkscape:window-y="215"
     inkscape:window-maximized="1"
     inkscape:current-layer="svg6400" />
  <circle
     transform="matrix(-0,-1,-1,0,18.000019,-340)"
     style="stroke:#ff0000;stroke-width:0.05mm;fill:none"
     r="1.249999"
     cx="0"
     cy="0"
     id="circle6390" />
  <path
     transform="matrix(-0,-0.999999,-0.999999,0,283.26004,259.987)"
     style="stroke:#000000;stroke-width:0.05mm;fill:none"
     d="M612.987793,227.437012L616.987793,227.437012L616.987793,213.731216L612.987793,213.731216L612.987793,200.025421L616.987793,200.025421L616.987793,186.319611L612.987793,186.319611L612.987793,172.613815L616.987793,172.613815L616.987793,158.90802L612.987793,158.90802L612.987793,145.202209L616.987793,145.202209L616.987793,131.496414L612.987793,131.496414L612.987793,117.790611L616.987793,117.790611L616.987793,104.084808L612.987793,104.084808L612.987793,90.379005L616.987793,90.379005L616.987793,76.673203L612.987793,76.673203L612.987793,62.967403L616.987793,62.967403L616.987793,49.261604L612.987793,49.261604L612.987793,35.555801L616.987793,35.555801L616.987793,21.85L284.987793,21.85L284.987793,35.555801L288.987793,35.555801L288.987793,49.261604L284.987793,49.261604L284.987793,62.967403L288.987793,62.967403L288.987793,76.673203L284.987793,76.673203L284.987793,90.379005L288.987793,90.379005L288.987793,104.084808L284.987793,104.084808L284.987793,117.790611L288.987793,117.790611L288.987793,131.496414L284.987793,131.496414L284.987793,145.202209L288.987793,145.202209L288.987793,158.90802L284.987793,158.90802L284.987793,172.613815L288.987793,172.613815L288.987793,186.319611L284.987793,186.319611L284.987793,200.025421L288.987793,200.025421L288.987793,213.731216L284.987793,213.731216L284.987793,227.437012L288.987793,227.437012L288.987793,241.142822L284.987793,241.142822L284.987793,254.848618L288.987793,254.848618L288.987793,268.554413L284.987793,268.554413L284.987793,282.260223L616.987793,282.260223L616.987793,268.554413L612.987793,268.554413L612.987793,254.848618L616.987793,254.848618L616.987793,241.142822L612.987793,241.142822L612.987793,227.437012z"
     id="path6392" />
  <circle
     transform="matrix(-0,-1,-1,0,244.410019,-340)"
     style="stroke:#ff0000;stroke-width:0.05mm;fill:none"
     r="1.249999"
     cx="0"
     cy="0"
     id="circle6394" />
  <circle
     transform="matrix(-0,-1,-1,0,244.410019,-42)"
     style="stroke:#ff0000;stroke-width:0.05mm;fill:none"
     r="1.249999"
     cx="0"
     cy="0"
     id="circle6396" />
  <circle
     transform="matrix(-0,-1,-1,0,18.000019,-42)"
     style="stroke:#ff0000;stroke-width:0.05mm;fill:none"
     r="1.249999"
     cx="0"
     cy="0"
     id="circle6398" />
  <circle
     transform="matrix(0,-1,-1,0,0,0)"
     style="fill:none;stroke:#ff0000;stroke-width:0.05mm"
     r="1.25"
     cx="344.00937"
     cy="-286.41479"
     id="circle6121" />
  <circle
     transform="scale(1,-1)"
     style="fill:none;stroke:#ff0000;stroke-width:0.05mm"
     r="1.049999"
     cx="288.6926"
     cy="311.23917"
     id="circle6123" />
  <path
     style="fill:none;stroke:#000000;stroke-width:0.05mm"
     d="m 286.74814,-337.00936 h -8.33334 v -9 c 0,-5.52284 4.47716,-9.99999 10,-9.99999 h 5 c 5.52284,-1e-5 10,4.47714 10,9.99999 v 9 h -8.33333 v 6 h -8.33333 z"
     id="path6125" />
  <path
     style="fill:none;stroke:#000000;stroke-width:0.05mm"
     d="m 294.36948,-303.23918 v -6 h -8.33334 v 6 h -8.33333 v -15 c 0,-5.52285 4.47715,-10 10,-10 h 5 c 5.52285,0 10,4.47715 10,10 v 15 z"
     id="path6127" />
  <circle
     transform="scale(1,-1)"
     style="fill:none;stroke:#ff0000;stroke-width:0.05mm"
     r="1.2499959"
     cx="310.97119"
     cy="281.42789"
     id="circle6129" />
  <circle
     transform="matrix(0,1,1,0,0,0)"
     style="fill:none;stroke:#ff0000;stroke-width:0.05mm"
     r="1.049997"
     cx="-279.15018"
     cy="278.20108"
     id="circle6131" />
  <path
     style="fill:none;stroke:#000000;stroke-width:0.0499999mm"
     d="m 303.97112,-281.09457 v -8.33331 h 8.99997 c 5.52283,0 9.99997,4.47714 9.99997,9.99997 v 4.99999 c 0,5.52282 -4.47714,9.99997 -9.99997,9.99997 h -8.99997 v -8.33332 h -5.99999 v -8.3333 z"
     id="path6133" />
  <path
     style="fill:none;stroke:#000000;stroke-width:0.0499999mm"
     d="m 270.20108,-273.47335 h 5.99998 v -8.33331 h -5.99998 v -8.33331 h 14.99996 c 5.52283,0 9.99997,4.47714 9.99997,9.99997 v 4.99999 c 0,5.52283 -4.47714,9.99996 -9.99997,9.99996 h -14.99996 z"
     id="path6135" />
  <text
     xml:space="preserve"
     style="font-size:13.198px;font-family:'.Hiragino Kaku Gothic Interface';-inkscape-font-specification:'.Hiragino Kaku Gothic Interface';fill:#000000;fill-opacity:0.950089;stroke:#0000ff;stroke-width:0;stroke-linecap:round;stroke-linejoin:round"
     x="132.94121"
     y="-309.81207"
     id="text6851"
     transform="scale(0.84987472,1.176644)"><tspan
       sodipodi:role="line"
       id="tspan6849"
       style="stroke-width:0"
       x="132.94121"
       y="-309.81207">6mm</tspan></text>
</svg>
