<?xml version="1.0" encoding="UTF-8" standalone="no"?>
<svg
   width="502.745mm"
   height="485.848mm"
   viewBox="0.000004 -485.847992 502.744995 485.847961"
   version="1.1"
   id="svg7473"
   sodipodi:docname="handle_wheel.svg"
   inkscape:version="1.2.1 (9c6d41e, 2022-07-14)"
   xmlns:inkscape="http://www.inkscape.org/namespaces/inkscape"
   xmlns:sodipodi="http://sodipodi.sourceforge.net/DTD/sodipodi-0.dtd"
   xmlns="http://www.w3.org/2000/svg"
   xmlns:svg="http://www.w3.org/2000/svg">
  <defs
     id="defs7477" />
  <sodipodi:namedview
     id="namedview7475"
     pagecolor="#ffffff"
     bordercolor="#000000"
     borderopacity="0.25"
     inkscape:showpageshadow="2"
     inkscape:pageopacity="0.0"
     inkscape:pagecheckerboard="0"
     inkscape:deskcolor="#d1d1d1"
     inkscape:document-units="mm"
     showgrid="false"
     inkscape:zoom="0.39547362"
     inkscape:cx="570.20238"
     inkscape:cy="901.45077"
     inkscape:window-width="2560"
     inkscape:window-height="1387"
     inkscape:window-x="0"
     inkscape:window-y="215"
     inkscape:window-maximized="1"
     inkscape:current-layer="svg7473" />
  <circle
     transform="scale(1,-1)"
     style="fill:none;stroke:#000000;stroke-width:0.05mm"
     r="1.05"
     cx="176.71948"
     cy="71.813278"
     id="circle7377" />
  <circle
     transform="scale(1,-1)"
     style="fill:none;stroke:#000000;stroke-width:0.05mm"
     r="1.05"
     cx="144.67648"
     cy="38.313274"
     id="circle7379" />
  <path
     style="fill:none;stroke:#000000;stroke-width:0.05mm"
     d="m 195.73575,-100.31849 c -3.09019,-1.35519 -6.65544,-1.06054 -9.48124,0.783521 -2.82582,1.84407 -4.53109,4.988883 -4.53493,8.363174 0.005,3.972092 2.35951,7.564941 6,9.153786 11.05603,4.825241 17.67668,16.292534 16.32745,28.27996 -0.44427,3.947182 1.48975,7.783093 4.92742,9.773049 2.92413,1.683822 6.50024,1.779422 9.51016,0.254238 3.00993,-1.525189 5.04771,-4.465458 5.41919,-7.819241 2.28985,-20.672767 -9.11998,-40.435196 -28.16806,-48.788507"
     id="path7381" />
  <path
     style="fill:none;stroke:#000000;stroke-width:0.05mm"
     d="m 149.37105,-53.749439 c -1.37698,-11.993691 5.25278,-23.476792 16.32811,-28.281136 3.64643,-1.581772 6.00989,-5.172913 6.02039,-9.147621 -0.009,-3.372803 -1.71742,-6.51387 -4.54401,-8.354073 -2.82657,-1.840191 -6.39033,-2.131541 -9.47827,-0.774891 -19.02956,8.360417 -30.42961,28.105877 -28.15515,48.766171 0.36906,3.352558 2.40327,6.29319 5.41022,7.82098 3.00694,1.52779 6.58145,1.436867 9.50683,-0.241817 3.43692,-1.996445 5.36522,-5.838837 4.91188,-9.787613 z"
     id="path7383" />
  <path
     style="fill:none;stroke:#000000;stroke-width:0.05mm"
     d="m 148.52799,-18.5924 c -2.71614,-2.001842 -4.23962,-5.238415 -4.05154,-8.607303 0.18808,-3.368885 2.06236,-6.415764 4.98445,-8.102829 l 0.0156,-0.009 c 3.43534,-1.983394 7.71826,-1.748706 10.91632,0.598175 9.71669,7.130547 22.93685,7.130547 32.65354,0 3.19806,-2.346881 7.48097,-2.581569 10.91632,-0.598171 l 0.0156,0.009 c 2.92209,1.687069 4.79637,4.733947 4.98445,8.102836 0.18808,3.368885 -1.3354,6.605458 -4.05154,8.6073 -16.76384,12.3552515 -39.61934,12.3552515 -56.3832,-4e-6"
     id="path7385" />
  <circle
     transform="scale(1,-1)"
     style="fill:none;stroke:#000000;stroke-width:0.05mm"
     r="1.05"
     cx="208.76248"
     cy="38.313274"
     id="circle7387" />
  <circle
     transform="scale(1,-1)"
     style="fill:none;stroke:#000000;stroke-width:0.05mm"
     r="1.05"
     cx="176.71948"
     cy="93.813278"
     id="circle7389" />
  <circle
     transform="scale(1,-1)"
     style="fill:none;stroke:#000000;stroke-width:0.05mm"
     r="55"
     cx="176.71948"
     cy="56.813274"
     id="circle7391" />
  <circle
     transform="scale(1,-1)"
     style="fill:none;stroke:#000000;stroke-width:0.05mm"
     r="1.05"
     cx="189.71048"
     cy="49.313274"
     id="circle7393" />
  <circle
     transform="scale(1,-1)"
     style="fill:none;stroke:#000000;stroke-width:0.05mm"
     r="3.95"
     cx="176.71948"
     cy="56.813274"
     id="circle7395" />
  <circle
     transform="scale(1,-1)"
     style="fill:none;stroke:#000000;stroke-width:0.05mm"
     r="1.05"
     cx="163.72949"
     cy="49.313274"
     id="circle7397" />
  <circle
     transform="scale(1,-1)"
     style="fill:none;stroke:#000000;stroke-width:0.05mm"
     r="1.05"
     cx="251.71948"
     cy="152.81328"
     id="circle7399" />
  <circle
     transform="scale(1,-1)"
     style="fill:none;stroke:#000000;stroke-width:0.05mm"
     r="1.05"
     cx="219.67648"
     cy="119.31328"
     id="circle7401" />
  <path
     style="fill:none;stroke:#000000;stroke-width:0.05mm"
     d="m 270.73575,-181.31849 c -3.09019,-1.35519 -6.65544,-1.06054 -9.48124,0.78352 -2.82582,1.84407 -4.53109,4.98888 -4.53493,8.36318 0.005,3.97209 2.35951,7.56494 6,9.15378 11.05603,4.82524 17.67668,16.29254 16.32745,28.27996 -0.44427,3.94718 1.48975,7.78309 4.92742,9.77305 2.92413,1.68382 6.50024,1.77942 9.51016,0.25424 3.00993,-1.52519 5.04771,-4.46546 5.41919,-7.81924 2.28985,-20.67277 -9.11998,-40.4352 -28.16806,-48.78851"
     id="path7403" />
  <path
     style="fill:none;stroke:#000000;stroke-width:0.05mm"
     d="m 224.37105,-134.74944 c -1.37698,-11.99369 5.25278,-23.47679 16.32811,-28.28113 3.64643,-1.58178 6.00989,-5.17292 6.02039,-9.14763 -0.009,-3.3728 -1.71742,-6.51387 -4.54401,-8.35407 -2.82657,-1.84019 -6.39033,-2.13154 -9.47827,-0.77489 -19.02956,8.36042 -30.42961,28.10588 -28.15515,48.76617 0.36906,3.35256 2.40327,6.29319 5.41022,7.82098 3.00694,1.52779 6.58145,1.43687 9.50683,-0.24182 3.43692,-1.99644 5.36522,-5.83883 4.91188,-9.78761 z"
     id="path7405" />
  <path
     style="fill:none;stroke:#000000;stroke-width:0.05mm"
     d="m 223.52799,-99.5924 c -2.71614,-2.00184 -4.23962,-5.23841 -4.05154,-8.6073 0.18808,-3.36889 2.06236,-6.41577 4.98445,-8.10283 l 0.0156,-0.009 c 3.43534,-1.9834 7.71826,-1.74871 10.91632,0.59817 9.71669,7.13055 22.93685,7.13055 32.65354,0 3.19806,-2.34688 7.48097,-2.58157 10.91632,-0.59817 l 0.0156,0.009 c 2.92209,1.68707 4.79637,4.73395 4.98445,8.10283 0.18808,3.36889 -1.3354,6.60546 -4.05154,8.607304 -16.76384,12.355251 -39.61934,12.355251 -56.3832,-4e-6"
     id="path7407" />
  <circle
     transform="scale(1,-1)"
     style="fill:none;stroke:#000000;stroke-width:0.05mm"
     r="1.05"
     cx="283.76248"
     cy="119.31328"
     id="circle7409" />
  <circle
     transform="scale(1,-1)"
     style="fill:none;stroke:#000000;stroke-width:0.05mm"
     r="1.05"
     cx="251.71948"
     cy="174.81328"
     id="circle7411" />
  <circle
     transform="scale(1,-1)"
     style="fill:none;stroke:#000000;stroke-width:0.05mm"
     r="55"
     cx="251.71948"
     cy="137.81328"
     id="circle7413" />
  <circle
     transform="scale(1,-1)"
     style="fill:none;stroke:#000000;stroke-width:0.05mm"
     r="1.05"
     cx="264.71048"
     cy="130.31328"
     id="circle7415" />
  <circle
     transform="scale(1,-1)"
     style="fill:none;stroke:#000000;stroke-width:0.05mm"
     r="3.95"
     cx="251.71948"
     cy="137.81328"
     id="circle7417" />
  <circle
     transform="scale(1,-1)"
     style="fill:none;stroke:#000000;stroke-width:0.05mm"
     r="1.05"
     cx="238.72949"
     cy="130.31328"
     id="circle7419" />
  <path
     transform="matrix(1.11111,0,0,-1.11111,63.333302,-28.888901)"
     style="stroke:#000000;stroke-width:0.05mm;fill:none"
     d="M-57,-26L132,-26"
     id="path7421" />
  <path
     transform="matrix(0.999999,0,0,-0.999999,0.000002,11.1528)"
     style="stroke:#000000;stroke-width:0.05mm;fill:none"
     d="M19.835556,24.751179C17.606247,26.674419,15.521557,28.759109,13.598321,30.988417C12.760092,31.960039,12.327519,33.21674,12.390122,34.498432C12.658112,39.985138,9.692587,45.121578,4.806967,47.632843C3.665686,48.219479,2.793638,49.222446,2.371303,50.434177"
     id="path7423" />
  <path
     transform="matrix(0.999999,0,0,-0.999999,0.000002,11.1528)"
     style="stroke:#000000;stroke-width:0.05mm;fill:none"
     d="M2.371304,50.434181C1.402283,53.214409,0.639229,56.062176,0.088313,58.954418C-0.151801,60.214977,0.101931,61.519596,0.796992,62.598274C3.772429,67.215897,3.77243,73.14695,0.796995,77.76458"
     id="path7425" />
  <path
     transform="matrix(0.999999,0,0,-0.999999,0.000002,11.1528)"
     style="stroke:#000000;stroke-width:0.05mm;fill:none"
     d="M115.685837,50.434185C116.654861,53.214424,117.417908,56.062164,117.968826,58.954407"
     id="path7427" />
  <circle
     transform="matrix(0.999999,0,0,-0.999999,59.0289,-74.028099)"
     style="stroke:#ff0000;stroke-width:0.05mm;fill:none"
     r="1.05"
     cx="0"
     cy="0"
     id="circle7429" />
  <path
     transform="matrix(0.999999,0,0,-0.999999,0.000002,11.1528)"
     style="stroke:#ff0000;stroke-width:0.05mm;fill:none"
     d="M14.069704,65.8256C14.322197,63.212383,15.840809,60.88937,18.133202,59.609684C20.425592,58.329998,23.199968,58.256531,25.556877,59.413101C28.026243,61.07008,29.372736,63.960041,29.052896,66.916573"
     id="path7431" />
  <circle
     transform="matrix(0.999999,0,0,-0.999999,46.037899,-51.528099)"
     style="stroke:#ff0000;stroke-width:0.05mm;fill:none"
     r="1.05"
     cx="0"
     cy="0"
     id="circle7433" />
  <path
     transform="matrix(0.999999,0,0,-0.999999,0.000002,11.1528)"
     style="stroke:#000000;stroke-width:0.05mm;fill:none"
     d="M0.796992,77.764587C0.10193,78.843262,-0.151801,80.147881,0.088312,81.40844C0.639233,84.300697,1.402287,87.14846,2.371302,89.928673C2.793638,91.140411,3.665687,92.143379,4.806967,92.730011C9.692585,95.24128,12.65811,100.377724,12.390123,105.864418C12.32752,107.146118,12.760092,108.402817,13.598313,109.374443C15.521545,111.603729,17.60627,113.688454,19.835569,115.611687C20.807182,116.449913,22.063883,116.882477,23.345575,116.819878"
     id="path7435" />
  <path
     transform="matrix(0.999999,0,0,-0.999999,0.000002,11.1528)"
     style="stroke:#000000;stroke-width:0.05mm;fill:none"
     d="M19.835564,24.751173C20.80718,23.912952,22.063881,23.480379,23.345573,23.54298"
     id="path7437" />
  <path
     transform="matrix(0.999999,0,0,-0.999999,0.000002,11.1528)"
     style="stroke:#000000;stroke-width:0.05mm;fill:none"
     d="M117.968826,58.954418C118.208946,60.214973,117.955223,61.519592,117.260147,62.59827C114.284714,67.215904,114.284714,73.146957,117.260147,77.764587C117.955223,78.843262,118.208946,80.147881,117.968826,81.40844C117.417923,84.30069,116.654846,87.14846,115.685837,89.92868C115.263496,91.140411,114.391457,92.143379,113.250183,92.730011C108.364563,95.24128,105.399033,100.377724,105.667023,105.864433C105.729622,107.146118,105.29705,108.402817,104.458817,109.374443C102.535599,111.603737,100.450882,113.688454,98.221581,115.611687C97.249962,116.449913,95.993263,116.882477,94.711571,116.819878C89.224854,116.551903,84.088417,119.517418,81.577156,124.40303C80.990524,125.544312,79.987556,126.416359,78.775826,126.838699C75.995605,127.807709,73.147842,128.57077,70.255585,129.121689C68.995026,129.361801,67.690407,129.108063,66.611732,128.41301C61.994099,125.437569,56.063049,125.437569,51.445415,128.41301C50.366737,129.108063,49.062115,129.361801,47.801559,129.121689C44.909309,128.57077,42.061546,127.807709,39.281322,126.838699C38.069588,126.416359,37.06662,125.544312,36.479988,124.40303C33.968719,119.51741,28.832279,116.551888,23.345577,116.819878"
     id="path7439" />
  <circle
     transform="matrix(0.999999,0,0,-0.999999,59.0289,-96.028)"
     style="stroke:#ff0000;stroke-width:0.05mm;fill:none"
     r="1.05"
     cx="0"
     cy="0"
     id="circle7441" />
  <path
     transform="matrix(0.999999,0,0,-0.999999,0.000002,11.1528)"
     style="stroke:#ff0000;stroke-width:0.05mm;fill:none"
     d="M84.854874,46.463333C82.234764,47.742035,79.12648,47.494114,76.742188,45.816257C66.116722,38.338997,51.940422,38.338997,41.31496,45.816254"
     id="path7443" />
  <path
     transform="matrix(0.999999,0,0,-0.999999,0.000002,11.1528)"
     style="stroke:#ff0000;stroke-width:0.05mm;fill:none"
     d="M29.052898,66.91658C27.647806,79.904892,34.809464,92.309242,46.760212,97.586548C49.480568,98.787827,51.310101,101.398903,51.510403,104.365929C51.333569,106.985359,49.882755,109.351303,47.628319,110.696732C45.373882,112.04216,42.602791,112.195808,40.213428,111.107857C22.724014,103.144447,12.221516,84.953598,14.069706,65.825607"
     id="path7445" />
  <circle
     transform="matrix(0.999999,0,0,-0.999999,59.0289,-59.028099)"
     style="stroke:#ff0000;stroke-width:0.05mm;fill:none"
     r="4"
     cx="0"
     cy="0"
     id="circle7447" />
  <path
     transform="matrix(0.999999,0,0,-0.999999,0.000002,11.1528)"
     style="stroke:#000000;stroke-width:0.05mm;fill:none"
     d="M47.801567,11.241165C44.909325,11.79208,42.061535,12.555141,39.281319,13.52416C38.069588,13.946495,37.06662,14.818542,36.479988,15.959824C33.968723,20.845446,28.832281,23.81097,23.345575,23.54298"
     id="path7449" />
  <path
     transform="matrix(0.999999,0,0,-0.999999,0.000002,11.1528)"
     style="stroke:#ff0000;stroke-width:0.05mm;fill:none"
     d="M103.936974,65.902725C103.699142,63.28511,102.190689,60.951324,99.901665,59.659512C97.612633,58.367699,94.835091,58.282688,92.471344,59.432098C90.01844,61.090836,88.682388,63.968803,88.998444,66.912987C90.392517,79.899109,83.234283,92.297539,71.290932,97.583313C68.583145,98.7817,66.758781,101.377739,66.548729,104.331383C66.735184,106.953148,68.197578,109.316071,70.460831,110.652519C72.724091,111.988968,75.499435,112.128433,77.885269,111.025589C95.235878,103.005363,105.66655,84.938873,103.936974,65.902702"
     id="path7451" />
  <circle
     transform="matrix(0.999999,0,0,-0.999999,91.071899,-40.528099)"
     style="stroke:#ff0000;stroke-width:0.05mm;fill:none"
     r="1.05"
     cx="0"
     cy="0"
     id="circle7453" />
  <circle
     transform="matrix(0.999999,0,0,-0.999999,72.018898,-51.528099)"
     style="stroke:#ff0000;stroke-width:0.05mm;fill:none"
     r="1.05"
     cx="0"
     cy="0"
     id="circle7455" />
  <path
     transform="matrix(0.999999,0,0,-0.999999,0.000002,11.1528)"
     style="stroke:#ff0000;stroke-width:0.05mm;fill:none"
     d="M84.854881,46.463337C87.046455,44.985867,88.366837,42.521286,88.38279,39.878239C88.398743,37.235195,87.108208,34.754856,84.934624,33.251038C69.347389,22.466858,48.709755,22.466858,33.12252,33.251038C30.948936,34.754856,29.658401,37.235195,29.674355,39.878242C29.690308,42.521286,31.010689,44.98587,33.202271,46.463337C35.82238,47.742035,38.93066,47.494114,41.314957,45.816257"
     id="path7457" />
  <path
     transform="matrix(0.999999,0,0,-0.999999,0.000002,11.1528)"
     style="stroke:#000000;stroke-width:0.05mm;fill:none"
     d="M98.221565,24.751162C100.450867,26.674393,102.535599,28.759117,104.458832,30.988419"
     id="path7459" />
  <path
     transform="matrix(0.999999,0,0,-0.999999,0.000002,11.1528)"
     style="stroke:#000000;stroke-width:0.05mm;fill:none"
     d="M115.685837,50.434177C115.263496,49.222446,114.391457,48.219479,113.250183,47.632847C108.364563,45.121578,105.399033,39.985138,105.667023,34.498432C105.729622,33.21674,105.29705,31.960039,104.458832,30.98842"
     id="path7461" />
  <path
     transform="matrix(0.999999,0,0,-0.999999,0.000002,11.1528)"
     style="stroke:#000000;stroke-width:0.05mm;fill:none"
     d="M47.801559,11.241168C49.062119,11.001057,50.366737,11.254787,51.445415,11.949849C56.063046,14.925289,61.994099,14.925289,66.611732,11.94985C67.690407,11.254787,68.995026,11.001057,70.255585,11.241169C73.147827,11.792084,75.995613,12.555145,78.775826,13.524162C79.987549,13.946495,80.990524,14.818542,81.577156,15.959823"
     id="path7463" />
  <path
     transform="matrix(0.999999,0,0,-0.999999,0.000002,11.1528)"
     style="stroke:#000000;stroke-width:0.05mm;fill:none"
     d="M98.221581,24.751171C97.249962,23.912951,95.993263,23.480379,94.711571,23.54298C89.224861,23.81097,84.088417,20.845444,81.577156,15.959825"
     id="path7465" />
  <circle
     transform="matrix(0.999999,0,0,-0.999999,26.986,-40.528099)"
     style="stroke:#ff0000;stroke-width:0.05mm;fill:none"
     r="1.05"
     cx="0"
     cy="0"
     id="circle7467" />
  <path
     style="fill:#0000ff;fill-rule:evenodd;stroke:none"
     d="m 201.26383,-56.813275 c 0,13.55545 -10.98889,24.544342 -24.54434,24.544342 -13.55545,0 -24.54434,-10.988892 -24.54434,-24.544342 0,-13.55545 10.98889,-24.544342 24.54434,-24.544342 13.55545,0 24.54434,10.988892 24.54434,24.544342 z m -3,0 c 0,11.898621 -9.64572,21.544342 -21.54434,21.544342 -11.89862,0 -21.54434,-9.645721 -21.54434,-21.544342 0,-11.898621 9.64572,-21.544342 21.54434,-21.544342 11.89862,0 21.54434,9.645721 21.54434,21.544342 z"
     id="path7469" />
  <path
     style="fill:#0000ff;fill-rule:evenodd;stroke:none"
     d="m 276.26383,-137.81327 c 0,13.55545 -10.98889,24.54434 -24.54434,24.54434 -13.55545,0 -24.54434,-10.98889 -24.54434,-24.54434 0,-13.55545 10.98889,-24.54435 24.54434,-24.54435 13.55545,0 24.54434,10.9889 24.54434,24.54435 z m -3,0 c 0,11.89862 -9.64572,21.54434 -21.54434,21.54434 -11.89862,0 -21.54434,-9.64572 -21.54434,-21.54434 0,-11.89863 9.64572,-21.54435 21.54434,-21.54435 11.89862,0 21.54434,9.64572 21.54434,21.54435 z"
     id="path7471" />
  <text
     xml:space="preserve"
     style="font-size:28.0585px;font-family:'.Hiragino Kaku Gothic Interface';-inkscape-font-specification:'.Hiragino Kaku Gothic Interface';fill:#000000;fill-opacity:0.950089;stroke:#000000;stroke-width:0;stroke-linecap:round;stroke-linejoin:round"
     x="125.49771"
     y="-110.34555"
     id="text1870"
     transform="scale(0.714226,1.400117)"><tspan
       sodipodi:role="line"
       id="tspan1868"
       style="stroke-width:0"
       x="125.49771"
       y="-110.34555">4.5mm</tspan></text>
</svg>
