<?xml version="1.0" encoding="UTF-8" standalone="no"?>
<!-- Created with Inkscape (http://www.inkscape.org/) -->

<svg
   width="210mm"
   height="297mm"
   viewBox="0 0 210 297"
   version="1.1"
   id="svg18122"
   inkscape:version="1.2.1 (9c6d41e, 2022-07-14)"
   sodipodi:docname="side_base.svg"
   xmlns:inkscape="http://www.inkscape.org/namespaces/inkscape"
   xmlns:sodipodi="http://sodipodi.sourceforge.net/DTD/sodipodi-0.dtd"
   xmlns="http://www.w3.org/2000/svg"
   xmlns:svg="http://www.w3.org/2000/svg">
  <sodipodi:namedview
     id="namedview18124"
     pagecolor="#ffffff"
     bordercolor="#000000"
     borderopacity="0.25"
     inkscape:showpageshadow="2"
     inkscape:pageopacity="0.0"
     inkscape:pagecheckerboard="0"
     inkscape:deskcolor="#d1d1d1"
     inkscape:document-units="mm"
     showgrid="false"
     inkscape:zoom="0.914906"
     inkscape:cx="82.522139"
     inkscape:cy="562.35285"
     inkscape:window-width="2560"
     inkscape:window-height="1387"
     inkscape:window-x="0"
     inkscape:window-y="215"
     inkscape:window-maximized="1"
     inkscape:current-layer="layer1" />
  <defs
     id="defs18119" />
  <g
     inkscape:label="Layer 1"
     inkscape:groupmode="layer"
     id="layer1">
    <path
       style="fill:none;stroke:#ff0000;stroke-width:0.0499999mm"
       d="m 209.79926,297.18849 h 13.7054"
       id="path10970" />
    <path
       style="fill:none;stroke:#ff0000;stroke-width:0.0499999mm"
       d="m -23.279561,250.02655 0.08038,47.16192"
       id="path10972" />
    <path
       style="fill:none;stroke:#ff0000;stroke-width:0.0499999mm"
       d="m 4.2123936,291.18774 v 6.00075"
       id="path10974" />
    <path
       style="fill:none;stroke:#ff0000;stroke-width:0.0499999mm"
       d="M 72.74126,291.18774 H 59.035592"
       id="path10976" />
    <path
       style="fill:none;stroke:#ff0000;stroke-width:0.0499999mm"
       d="m 59.035592,291.18774 v 6.00075"
       id="path10980" />
    <path
       style="fill:none;stroke:#ff0000;stroke-width:0.0499999mm"
       d="m 100.15286,291.18774 v 6.00075"
       id="path10984" />
    <path
       style="fill:none;stroke:#000000;stroke-width:0.0499999mm"
       d="m 111.00068,200.68817 c 0,-2.20914 -1.79086,-4 -4,-4 -2.20914,0 -4,1.79086 -4,4 0,2.20914 1.79086,3.99999 4,3.99999 2.20914,0 4,-1.79085 4,-3.99999 z"
       id="path10986" />
    <path
       style="fill:none;stroke:#ff0000;stroke-width:0.0499999mm"
       d="M 127.56446,291.18774 H 113.85879"
       id="path10988" />
    <path
       style="fill:none;stroke:#ff0000;stroke-width:0.0499999mm"
       d="m 182.38766,291.18774 v 6.00075"
       id="path10992" />
    <path
       style="fill:none;stroke:#ff0000;stroke-width:0.0499999mm"
       d="m 86.447192,291.18774 v 6.00075"
       id="path10996" />
    <path
       style="fill:none;stroke:#ff0000;stroke-width:0.0499999mm"
       d="m 223.50466,291.18774 v 6.00075"
       id="path11002" />
    <path
       style="fill:none;stroke:#ff0000;stroke-width:0.0499999mm"
       d="m 168.68172,291.18774 v 6.00075"
       id="path11006" />
    <path
       style="fill:none;stroke:#ff0000;stroke-width:0.0499999mm"
       d="M 17.918061,297.18849 H 31.623996"
       id="path11008" />
    <path
       style="fill:none;stroke:#ff0000;stroke-width:0.0499999mm"
       d="m 17.918061,291.18774 v 6.00075"
       id="path11010" />
    <path
       style="fill:none;stroke:#000000;stroke-width:0.0499999mm"
       d="m 107.75068,148.68822 c -2.9e-4,-0.41401 -0.33599,-0.74948 -0.75,-0.74948 -0.41401,0 -0.74972,0.33547 -0.75,0.74948 2.8e-4,0.414 0.33599,0.74948 0.75,0.74948 0.41401,0 0.74971,-0.33548 0.75,-0.74948 z"
       id="path11012" />
    <path
       style="fill:none;stroke:#ff0000;stroke-width:0.0499999mm"
       d="m 141.27039,291.18774 v 6.00075"
       id="path11014" />
    <path
       style="fill:none;stroke:#ff0000;stroke-width:0.0499999mm"
       d="m 237.28151,250.02655 -0.0714,41.16118"
       id="path11016" />
    <path
       style="fill:none;stroke:#ff0000;stroke-width:0.0499999mm"
       d="M -9.4932737,291.18774 H -23.199177"
       id="path11020" />
    <path
       style="fill:none;stroke:#000000;stroke-width:0.0499999mm"
       d="m 112.45296,163.16034 c -1.4e-4,-0.41406 -0.33587,-0.74968 -0.74997,-0.7497 -0.4141,-1e-5 -0.74986,0.33558 -0.75003,0.7497 1.4e-4,0.41406 0.33587,0.74969 0.74997,0.7497 0.4141,2e-5 0.74985,-0.33557 0.75003,-0.7497 z"
       id="path11022" />
    <path
       style="fill:none;stroke:#000000;stroke-width:0.0499999mm"
       d="m 115.35912,154.21608 c -1.4e-4,-0.41407 -0.33586,-0.74969 -0.74997,-0.74971 -0.4141,-1e-5 -0.74985,0.33558 -0.75002,0.74971 1.4e-4,0.41406 0.33586,0.74968 0.74996,0.7497 0.4141,1e-5 0.74986,-0.33558 0.75003,-0.7497 z"
       id="path11024" />
    <path
       style="fill:none;stroke:#ff0000;stroke-width:0.0499999mm"
       d="M 45.32966,297.18849 H 59.035592"
       id="path11026" />
    <path
       style="fill:none;stroke:#ff0000;stroke-width:0.0499999mm"
       d="m 127.56446,291.18774 v 6.00075"
       id="path11028" />
    <path
       style="fill:none;stroke:#ff0000;stroke-width:0.0499999mm"
       d="M 154.97606,291.18774 H 141.27039"
       id="path11030" />
    <path
       style="fill:none;stroke:#000000;stroke-width:0.0499999mm"
       d="m 103.0484,163.16034 c -1.4e-4,-0.41406 -0.33587,-0.74968 -0.74997,-0.7497 -0.4141,-1e-5 -0.74985,0.33558 -0.75003,0.7497 1.5e-4,0.41406 0.33587,0.74969 0.74997,0.7497 0.4141,2e-5 0.74986,-0.33557 0.75003,-0.7497 z"
       id="path11032" />
    <path
       style="fill:none;stroke:#000000;stroke-width:0.0499999mm"
       d="m 64.250727,178.68819 c 0,-3.83838 -3.111618,-6.94999 -6.949994,-6.95 -3.838375,1e-5 -6.949994,3.11162 -6.949994,6.95 0,3.83837 3.111619,6.94999 6.949994,6.95 3.838376,-1e-5 6.949994,-3.11163 6.949994,-6.95 z"
       id="path11034" />
    <path
       style="fill:none;stroke:#ff0000;stroke-width:0.0499999mm"
       d="m -9.4932737,291.18774 v 6.00075"
       id="path11036" />
    <path
       style="fill:none;stroke:#ff0000;stroke-width:0.0499999mm"
       d="m 63.509045,140.16957 c -47.712366,16.7929 -81.494032,59.55386 -86.78859,109.8573"
       id="path11038" />
    <path
       style="fill:none;stroke:#000000;stroke-width:0.0499999mm"
       d="m 114.40807,198.52505 c -1.4e-4,-0.41406 -0.33587,-0.74968 -0.74997,-0.7497 -0.4141,-1e-5 -0.74986,0.33558 -0.75003,0.7497 1.4e-4,0.41407 0.33587,0.74969 0.74997,0.74971 0.4141,1e-5 0.74985,-0.33558 0.75003,-0.74971 z"
       id="path11040" />
    <path
       style="fill:none;stroke:#ff0000;stroke-width:0.0499999mm"
       d="m 209.79926,291.18774 v 6.00075"
       id="path11042" />
    <path
       style="fill:none;stroke:#ff0000;stroke-width:0.0499999mm"
       d="M 209.79926,291.18774 H 196.09333"
       id="path11046" />
    <path
       style="fill:none;stroke:#ff0000;stroke-width:0.0499999mm"
       d="m 127.56446,297.18849 h 13.70593"
       id="path11048" />
    <path
       style="fill:none;stroke:#ff0000;stroke-width:0.0499999mm"
       d="m 113.85879,291.18774 v 6.00075"
       id="path11052" />
    <path
       style="fill:none;stroke:#ff0000;stroke-width:0.0499999mm"
       d="M 45.32966,291.18774 H 31.623996"
       id="path11054" />
    <path
       style="fill:none;stroke:#000000;stroke-width:0.0499999mm"
       d="m 163.65062,178.68819 c 0,-3.83838 -3.11161,-6.94999 -6.94999,-6.94999 -3.83837,0 -6.94998,3.11161 -6.94999,6.94999 1e-5,3.83837 3.11162,6.94999 6.94999,6.94999 3.83838,0 6.94999,-3.11162 6.94999,-6.94999 z"
       id="path11056" />
    <path
       style="fill:none;stroke:#ff0000;stroke-width:0.0499999mm"
       d="m 72.74126,291.18774 v 6.00075"
       id="path11058" />
    <path
       style="fill:none;stroke:#ff0000;stroke-width:0.0499999mm"
       d="m -23.199177,291.18774 v 6.00075"
       id="path11060" />
    <path
       style="fill:none;stroke:#ff0000;stroke-width:0.0499999mm"
       d="m 45.32966,291.18774 v 6.00075"
       id="path11062" />
    <path
       style="fill:none;stroke:#000000;stroke-width:0.0499999mm"
       d="m 107.75068,193.68817 c -2.9e-4,-0.414 -0.33599,-0.74948 -0.75,-0.74948 -0.41401,0 -0.74972,0.33548 -0.75,0.74948 2.8e-4,0.41401 0.33599,0.74948 0.75,0.74948 0.41401,0 0.74971,-0.33547 0.75,-0.74948 z"
       id="path11064" />
    <path
       style="fill:none;stroke:#000000;stroke-width:0.0499999mm"
       d="m 100.14224,154.21608 c -1.5e-4,-0.41407 -0.335868,-0.74969 -0.749968,-0.74971 -0.4141,-1e-5 -0.74986,0.33558 -0.75003,0.74971 1.4e-4,0.41406 0.33587,0.74968 0.74997,0.7497 0.4141,1e-5 0.749848,-0.33558 0.750028,-0.7497 z"
       id="path11066" />
    <path
       style="fill:none;stroke:#ff0000;stroke-width:0.0499999mm"
       d="M 107.00068,3.6883633 C 69.299434,38.233323 52.74568,90.180718 63.509045,140.16957"
       id="path11070" />
    <path
       style="fill:none;stroke:#ff0000;stroke-width:0.0499999mm"
       d="m 154.97606,291.18774 v 6.00075"
       id="path11072" />
    <path
       style="fill:none;stroke:#ff0000;stroke-width:0.0499999mm"
       d="M 182.38766,291.18774 H 168.68172"
       id="path11074" />
    <path
       style="fill:none;stroke:#000000;stroke-width:0.0499999mm"
       d="m 111.00068,156.68821 c 0,-2.20914 -1.79086,-4 -4,-4 -2.20914,0 -4,1.79086 -4,4 0,2.20914 1.79086,3.99999 4,3.99999 2.20914,0 4,-1.79085 4,-3.99999 z"
       id="path11076" />
    <path
       style="fill:none;stroke:#ff0000;stroke-width:0.0499999mm"
       d="m 154.97606,297.18849 h 13.70566"
       id="path11080" />
    <path
       style="fill:none;stroke:#000000;stroke-width:0.0499999mm"
       d="m 103.63619,206.35128 c -1.5e-4,-0.41407 -0.33587,-0.74969 -0.74997,-0.74971 -0.4141,-1e-5 -0.74985,0.33558 -0.75003,0.74971 1.4e-4,0.41406 0.33587,0.74968 0.74997,0.7497 0.4141,1e-5 0.74985,-0.33558 0.75003,-0.7497 z"
       id="path11082" />
    <path
       style="fill:none;stroke:#ff0000;stroke-width:0.0499999mm"
       d="m 237.28093,250.02687 c -5.29454,-50.30346 -39.07621,-93.06439 -86.78861,-109.8573"
       id="path11086" />
    <path
       style="fill:none;stroke:#ff0000;stroke-width:0.0499999mm"
       d="m 196.09333,291.18774 v 6.00075"
       id="path11090" />
    <path
       style="fill:none;stroke:#000000;stroke-width:0.0499999mm"
       d="m 101.09329,198.52505 c -6.8e-4,-0.41373 -0.33627,-0.74876 -0.75001,-0.74876 -0.413728,0 -0.749308,0.33504 -0.749988,0.74876 1.5e-4,0.41407 0.33587,0.74969 0.749968,0.74971 0.4141,1e-5 0.74985,-0.33558 0.75003,-0.74971 z"
       id="path11092" />
    <path
       style="fill:none;stroke:#ff0000;stroke-width:0.0499999mm"
       d="M -9.4932737,297.18849 H 4.2123936"
       id="path11094" />
    <path
       style="fill:none;stroke:#ff0000;stroke-width:0.0499999mm"
       d="m 182.38766,297.18849 h 13.70567"
       id="path11096" />
    <path
       style="fill:none;stroke:#ff0000;stroke-width:0.0499999mm"
       d="M 100.15286,291.18774 H 86.447192"
       id="path11098" />
    <path
       style="fill:none;stroke:#ff0000;stroke-width:0.0499999mm"
       d="M 17.918061,291.18774 H 4.2123936"
       id="path11100" />
    <path
       style="fill:none;stroke:#ff0000;stroke-width:0.0499999mm"
       d="m 31.623996,291.18774 v 6.00075"
       id="path11102" />
    <path
       style="fill:none;stroke:#ff0000;stroke-width:0.0499999mm"
       d="M 150.49232,140.16957 C 161.2557,90.180742 144.70193,38.233323 107.00068,3.6883633"
       id="path11104" />
    <path
       style="fill:none;stroke:#ff0000;stroke-width:0.0499999mm"
       d="M 237.21007,291.18774 H 223.50466"
       id="path11106" />
    <path
       style="fill:none;stroke:#ff0000;stroke-width:0.0499999mm"
       d="m 100.15286,297.18849 h 13.70593"
       id="path11108" />
    <path
       style="fill:none;stroke:#ff0000;stroke-width:0.0499999mm"
       d="M 72.74126,297.18849 H 86.447192"
       id="path11110" />
    <path
       style="fill:none;stroke:#000000;stroke-width:0.0499999mm"
       d="m 111.86517,206.35128 c -1.4e-4,-0.41407 -0.33587,-0.74969 -0.74996,-0.74971 -0.41411,-1e-5 -0.74986,0.33558 -0.75004,0.74971 1.5e-4,0.41406 0.33587,0.74968 0.74997,0.7497 0.4141,1e-5 0.74986,-0.33558 0.75003,-0.7497 z"
       id="path11112" />
    <path
       style="fill:#0000ff;fill-rule:evenodd;stroke:none"
       d="m 90.589052,161.39662 c -0.24868,-0.11032 -1.11841,0.7439 -3.42459,3.0148 -4.3432,4.27683 -4.8025,5.68055 -3.4023,10.40558 l 0.90331,3.04837 1.13629,-3.36825 c 0.625,-1.85257 1.87399,-4.90155 2.7756,-6.77582 0.9018,-1.87433 1.7865,-4.2063 1.96521,-5.18213 0.12201,-0.6629 0.19629,-1.07635 0.047,-1.14255 z"
       id="path11208" />
    <path
       style="fill:#0000ff;fill-rule:evenodd;stroke:none"
       d="m 98.180362,47.104893 c -0.072,-0.002 -0.13171,0.004 -0.1767,0.0212 -0.6123,0.23047 -8.05178,8.51799 -10.6278,11.83957 -1.22611,1.5811 -2.9753,4.26276 -3.8871,5.95934 -1.95031,3.62886 -2.990102,4.89841 -4.014212,4.89841 -0.4107,0 -2.7648,-1.88891 -5.2312,-4.19768 -2.8936,-2.70871 -5.5914,-4.79061 -8.276,-6.37067 -0.6234,1.69139 -1.2209,3.39234 -1.7818,5.10512 6.5088,4.23761 12.0123,12.11174 12.4628,18.33687 0.1635,2.26022 0.02,3.13467 -0.59689,3.6468 -1.2253,1.01686 -4.13451,-0.14296 -6.8125,-2.7156 -1.8689,-1.79528 -2.28751,-2.56876 -2.5636,-4.73667 -0.18171,-1.42497 -0.43761,-3.29046 -0.5685,-4.14547 -0.12219,-0.79891 -1.83749,-3.04583 -3.56261,-4.99402 -0.52209,1.82763 -1.0043,3.66661 -1.4557,5.51388 0.1152,0.19785 0.2238,0.36653 0.3447,0.5948 0.73199,1.38205 1.709,3.03751 2.17089,3.67884 1.26891,1.76124 -0.13549,1.47546 -1.86909,-0.38034 -0.41679,-0.44625 -0.8161,-1.10453 -1.15241,-1.81487 -0.29559,1.29076 -0.5664,2.58754 -0.8273,3.88658 0.89751,0.63547 2.01081,1.13956 3.39611,1.51258 3.7209,1.0019 12.65699,8.23874 13.9387,11.28872 0.8286,1.97158 0.93331,6.677707 0.1592,7.156147 -0.2979,0.18423 -2.6433,-0.86031 -5.2121,-2.320787 -6.0204,-3.42309 -9.19479,-4.65218 -13.3909,-5.18521 -0.3347,-0.0425 -0.5687,-0.0627 -0.8273,-0.0884 -0.1266,1.11099 -0.248,2.22242 -0.3494,3.33726 3.57621,0.90605 8.014,2.71317 10.4402,4.323777 4.28211,2.84272 7.4795,6.50755 11.58741,13.28135 4.211802,6.94524 6.733002,9.74431 12.002902,13.32837 4.0639,2.76392 6.5224,5.2063 9.124508,9.06458 0.96121,1.4252 2.32309,3.23248 3.0267,4.01629 0.7038,0.78382 1.6221,1.42527 2.04071,1.42527 0.78,0 5.7785,-5.08515 5.7785,-5.88544 0,-0.24448 -0.4053,-0.27283 -0.9039,-0.0631 -3.0964,1.30145 -5.268,0.41077 -8.23669,-3.37915 -4.089508,-5.22058 -9.739498,-19.65784 -12.167688,-31.09215 -0.95722,-4.507437 -1.14881,-7.040947 -1.13581,-14.768097 0.017,-8.28602 0.1648,-9.878 1.32599,-14.25648 2.177,-8.20898 6.52191,-16.39984 10.977108,-20.69383 1.01889,-0.98207 1.85309,-2.06426 1.85309,-2.40451 0,-0.60636 -3.919008,-2.68862 -5.002288,-2.72335 z"
       id="path11210" />
    <path
       style="fill:#0000ff;fill-rule:evenodd;stroke:none"
       d="m 202.7419,169.85759 0.81543,1.89652 c 0.62268,1.44729 1.50708,4.8038 1.96527,7.45898 0.93262,5.40451 0.68579,9.30875 -0.8031,12.715 -1.01251,2.31527 -2.1579,2.90857 -6.83881,3.54034 -5.65649,0.76352 -9.23297,5.61807 -9.23297,12.55789 0,2.50315 0.79639,5.3356 1.50531,5.3356 0.16809,0 0.98139,-0.84756 1.80756,-1.88308 1.01984,-1.27783 2.87799,-2.51819 5.78369,-3.86075 6.1427,-2.83798 6.77771,-3.82697 9.61444,-14.9841 1.62219,-6.38162 2.03919,-11.41098 1.33222,-16.34628 -1.91163,-2.20652 -3.89563,-4.35016 -5.94904,-6.43012 z m -0.48218,26.70172 c 0.79987,0.0103 0.164,0.61246 -1.86194,1.68723 -1.25299,0.66476 -3.1184,1.97836 -4.14538,2.91922 -2.16608,1.98404 -2.45728,1.40545 -0.5509,-1.094 1.47503,-1.9338 2.7868,-2.75927 5.27819,-3.32123 0.58759,-0.1325 1.01349,-0.19421 1.28003,-0.19122 z"
       id="path11212" />
    <path
       style="fill:#0000ff;fill-rule:evenodd;stroke:none"
       d="m 129.35724,284.98372 c -0.77701,-0.12509 -0.77719,0.4946 -0.77719,5.14905 0.01,4.68579 0.56689,8.27536 1.7637,11.0567 h 6.06171 c -1.52219,-1.43771 -2.71661,-3.2233 -3.2009,-4.99039 -0.3392,-1.23709 -0.58468,-4.17328 -0.54669,-6.52466 0.061,-3.75705 -0.041,-4.28192 -0.84131,-4.28192 -0.50101,-0.004 -1.43521,-0.14758 -2.07638,-0.31936 -0.1449,-0.0387 -0.27192,-0.0715 -0.38291,-0.0894 z"
       id="path11214" />
    <path
       style="fill:#0000ff;fill-rule:evenodd;stroke:none"
       d="m 127.01834,278.77324 c -0.63461,0.0842 -0.81839,0.52499 -1.281,1.41956 -1.28391,2.48288 -1.32779,2.44671 4.65039,3.86538 v -5.2e-4 c 0.56988,0.13474 3.7182,0.18586 6.99591,0.11216 4.4129,-0.0996 6.39581,-0.36469 7.643,-1.02012 0.926,-0.48693 1.68412,-0.99117 1.68412,-1.12033 0,-0.12942 -0.9339,-0.71148 -2.07529,-1.29397 -1.7731,-0.90412 -2.65991,-1.01187 -6.08859,-0.73535 -2.85691,0.23041 -5.03101,0.0849 -7.5437,-0.50592 -2.26502,-0.53263 -3.35019,-0.80509 -3.98481,-0.72089 z"
       id="path11216" />
    <path
       style="fill:#0000ff;fill-rule:evenodd;stroke:none"
       d="m 16.20194,282.3141 c -0.9375,0.0834 -0.55409,1.16379 0.6867,3.78684 2.5922,5.47928 8.2775,9.54779 16.429,11.75638 3.20821,0.86898 4.95681,0.99337 11.3089,0.80407 6.93981,-0.20678 11.01841,-0.83035 12.09171,-1.84848 0.2381,-0.22571 0.051,-1.14959 -0.41589,-2.05258 -0.8281,-1.60095 -0.9095,-1.63122 -3.2831,-1.22525 -1.3387,0.229 -5.815,0.41599 -9.94769,0.41599 -6.6473,0 -7.9144,-0.14475 -10.9926,-1.25522 -3.7235,-1.34326 -8.1666,-4.76316 -9.4749,-7.29309 -0.5129,-0.99173 -1.51891,-1.71118 -3.1879,-2.27997 -1.6136,-0.54981 -2.6517,-0.85874 -3.2142,-0.80875 z"
       id="path11218" />
    <path
       style="fill:#0000ff;fill-rule:evenodd;stroke:none"
       d="m -4.2284064,188.7076 c -1.613205,2.37127 -3.147293,4.7977 -4.607498,7.27087 1.065399,0.55484 2.182205,1.04715 3.345505,1.40921 1.709305,0.53229 3.196304,0.87918 3.304703,0.77051 0.108398,-0.10813 -0.033,-0.80209 -0.314103,-1.54151 -0.281295,-0.73962 -0.867706,-3.38595 -1.303298,-5.88128 -0.128495,-0.73602 -0.273896,-1.3941 -0.425293,-2.0278 z"
       id="path11220" />
    <path
       style="fill:#0000ff;fill-rule:evenodd;stroke:none"
       d="m 198.59023,165.82011 c 0.12701,0.9365 0.15814,2.14268 0.15814,4.01319 0,5.45227 -0.98242,8.19189 -3.69592,10.32651 -2.01801,1.58731 -3.58246,1.82873 -7.19379,1.11105 -7.73071,-1.53662 -12.09765,2.39734 -12.58789,11.33936 l -0.24029,4.38009 1.6051,-1.34979 c 1.63379,-1.37473 4.35998,-2.54395 8.17419,-3.50522 3.19861,-0.80612 5.51282,-2.62366 6.80683,-5.3454 0.7835,-1.64734 2.17315,-3.22424 4.29266,-4.86999 3.88751,-3.01886 5.05231,-4.86609 5.8725,-9.31055 l 0.57934,-3.13779 c -1.23382,-1.23974 -2.4881,-2.45938 -3.77081,-3.65146 z m -11.0376,17.50022 c 1.1087,0.0108 0.61969,0.42367 -2.40649,2.02984 -2.08881,1.10871 -4.28003,2.44361 -4.86902,2.96622 -1.04517,0.9271 -1.0578,0.92487 -0.52191,-0.0868 1.43249,-2.7041 4.979,-4.93896 7.79742,-4.90924 z"
       id="path11222" />
    <path
       style="fill:#0000ff;fill-rule:evenodd;stroke:none"
       d="m 50.59824,268.31749 c -0.7623,-0.0103 -1.30791,0.14133 -1.30791,0.45889 0,1.04306 5.4666,6.36969 8.8356,8.60929 4.14251,2.7539 8.5791,4.6918 13.7056,5.9862 1.995,0.50385 4.8517,0.93796 6.34801,0.95447 2.9635,0.0416 3.130992,-0.18414 2.17399,-2.92953 -0.5292,-1.51841 -0.6931,-1.58658 -5.21,-2.16578 -2.56501,-0.32901 -5.75901,-0.96255 -7.09731,-1.40768 -3.4866,-1.1597 -8.28619,-3.92023 -11.0587,-6.36084 -1.31489,-1.1572 -3.0168,-2.34207 -3.7822,-2.63342 -0.8659,-0.32932 -1.8448,-0.50132 -2.6071,-0.5116 z"
       id="path11224" />
    <path
       style="fill:#0000ff;fill-rule:evenodd;stroke:none"
       d="m 119.98673,179.91951 c -0.078,-0.0336 -0.26529,0.10587 -0.56479,0.35346 -0.47251,0.39089 -3.13379,3.74209 -5.91379,7.44711 -6.20709,8.27218 -11.4686,13.42389 -18.737878,18.34613 -3.05939,2.07159 -6.27771,4.66958 -7.15201,5.77328 -1.20181,1.5177 -5.63671,12.39057 -5.67571,13.91852 -0.022,0.83914 2.4572,-2.33896 4.37029,-5.60223 1.27179,-2.16947 3.0809,-4.68253 4.02038,-5.58414 1.86911,-1.79394 6.98661,-5.34643 7.70139,-5.34643 0.98959,0 1.6384,2.33758 1.3699,4.93664 -0.33999,3.29352 -2.15771,6.9928 -5.39239,10.97247 -3.71231,4.56736 -3.86209,4.69474 -7.97571,6.79392 -2.1125,1.07791 -5.006502,2.70254 -6.431702,3.61062 -1.425,0.90806 -3.40691,1.77631 -4.40441,1.9296 -1.80769,0.27774 -1.80639,0.27518 0.47231,-0.7829 1.25751,-0.58389 3.7059,-2.07138 5.4411,-3.3052 1.735202,-1.23401 3.926502,-2.6395 4.869902,-3.12384 3.95969,-2.03266 9.86289,-8.82755 11.56781,-13.31443 1.11982,-2.94747 1.2876,-6.1737 0.3194,-6.14071 -2.71771,0.0912 -8.73279,5.75753 -11.53158,10.86343 -1.2816,2.33795 -2.6359,4.04929 -3.75071,4.73822 -0.95979,0.59329 -2.803492,2.68457 -4.096892,4.64777 -5.57809,8.46713 -12.0222,11.84713 -30.517,16.00677 -10.49249,2.35993 -15.7261,4.30533 -20.2287,7.5184 -6.5888,4.70163 -12.6566,13.28992 -12.6566,17.91416 0,1.84524 0.131,2.01495 1.943,2.51819 2.662,0.73932 2.54679,0.80371 2.93679,-1.63452 1.3584,-8.49592 9.1615,-15.61441 21.7464,-19.83912 3.6621,-1.22915 8.6299,-1.75595 8.5949,-0.91104 -0.01,0.2139 -0.5909,1.32135 -1.293,2.46137 -0.7587,1.23193 -1.27901,2.86133 -1.27901,4.01629 0,1.91355 0.024,1.94303 2.0459,1.94303 1.9456,0 2.103,-0.12357 3.13679,-2.46137 1.2461,-2.81805 3.1922,-5.04376 5.43371,-6.21356 0.85299,-0.44519 4.5381,-1.81116 8.1882,-3.03546 6.3571,-2.13211 6.62179,-2.17777 6.2921,-1.08728 -1.0907,3.60544 -7.5867,10.14166 -12.5284,12.60544 -2.6273,1.30999 -3.54269,1.48053 -7.64819,1.48053 -5.02001,-0.008 -9.8702,-1.28314 -14.03681,-3.69126 -1.1652,-0.67337 -2.4476,-1.22265 -2.85,-1.22265 -0.4025,8.2e-4 -2.03861,0.8757 -3.6359,1.94354 l -2.9042,1.9415 4.8332,8.03207 c 2.6581,4.4177 6.5204,11.58808 8.582,15.93442 h -5.9e-4 l 3.74859,7.90289 h 2.1942 c 1.2068,0 2.3261,-0.21411 2.4877,-0.47543 0.4402,-0.71228 -6.3251,-14.6012 -10.8737,-22.32318 -2.19769,-3.73111 -3.8866,-6.89316 -3.75279,-7.02695 0.1338,-0.13382 1.5433,0.33109 3.13161,1.03354 9.6797,4.28052 20.1629,4.16583 26.6428,-0.29196 1.19141,-0.81964 2.2853,-1.48984 2.4309,-1.48984 0.14579,0 1.02409,1.42365 1.95179,3.16415 0.9276,1.74054 2.0045,3.28666 2.39321,3.43598 0.3885,0.14908 1.36259,-0.358 2.1647,-1.12656 l 1.4588,-1.39734 -0.9689,-3.11349 c -1.1933,-3.83423 -0.72501,-6.27207 1.89799,-9.8826 3.08701,-4.24878 10.383702,-9.19916 13.581092,-9.21237 2.0842,-0.009 1.16959,2.46313 -2.34812,6.34741 -1.3908,1.53586 -3.2944,3.90536 -4.2303,5.26581 -2.1029,3.05618 -1.00329,2.62463 3.27419,-1.28467 3.05441,-2.79166 5.68991,-7.38272 6.32681,-11.0231 l 0.34671,-1.98489 -2.6561,1.34564 c -1.46109,0.74029 -2.6567,1.20111 -2.6567,1.02371 0,-0.86154 6.02688,-4.83099 7.37008,-4.86069 0.7891,-0.0143 0.707,0.50797 -0.70639,4.51807 -1.84439,5.23309 -3.01388,7.60858 -4.69171,9.52759 -1.72619,1.97433 -6.5394,5.58599 -7.89931,5.92727 -0.6401,0.16052 -1.7256,1.2266 -2.411692,2.36884 -3.6604,6.09265 -5.7063,8.64401 -8.8057,10.9797 -1.828,1.37766 -3.6736,2.7045 -4.101,2.94764 -1.28129,0.72912 0.14751,1.65954 2.9636,1.93011 2.3573,0.22644 2.6793,0.10025 5.4064,-2.12131 1.59489,-1.29922 4.4353,-4.06106 6.312302,-6.13812 3.96231,-4.38483 4.237,-4.33545 5.3262,0.95551 1.3274,6.44918 2.0402,7.33395 4.37909,5.43997 1.18131,-0.95627 1.18201,-0.9664 0.31681,-4.0499 -1.18851,-4.23941 -1.1475,-10.28912 0.087,-12.59045 0.52442,-0.978 1.1796,-1.8526 1.45569,-1.9451 0.27621,-0.0921 1.7207,1.33389 3.20969,3.16931 3.246788,4.00192 13.590598,14.03186 17.566308,17.0336 l 2.84891,2.15076 0.97409,-1.20304 c 1.40411,-1.73404 1.20511,-2.74002 -0.81491,-4.11551 -2.8057,-1.91061 -10.4361,-10.08361 -12.73569,-13.64154 -2.86279,-4.42947 -3.78671,-7.87081 -3.5119,-13.07983 0.3241,-6.14279 3.3938,-12.2251 6.1702,-12.2251 1.07281,0 3.51651,2.78467 4.22351,4.81262 0.27969,0.8021 0.6289,1.33796 0.77621,1.19062 0.14731,-0.14743 0.93811,0.65652 1.75699,1.78695 0.81891,1.1305 1.59381,2.0557 1.72031,2.0557 0.24841,0 -0.77689,-3.47824 -1.72861,-5.86371 -0.31989,-0.8024 -0.58191,-2.40759 -0.58191,-3.56775 0,-2.41928 2.7663,-13.09527 5.51651,-21.28967 1.03159,-3.07358 1.75989,-5.70377 1.61749,-5.84616 -0.142,-0.14203 -0.5683,0.50744 -0.94729,1.44281 -0.379,0.93558 -1.7959,3.17465 -3.14859,4.97644 -1.7623,2.34726 -2.926,4.69806 -4.1052,8.2915 -2.04761,6.23984 -3.86801,9.17258 -7.81759,12.59406 -3.6026,3.12115 -5.08231,5.71197 -5.483888,9.60251 -0.34241,3.31838 -0.93469,3.96511 -1.39319,1.52084 -0.51239,-2.73126 0.50299,-6.11353 3.620508,-12.05817 1.57721,-3.00711 2.71531,-5.61603 2.529,-5.79706 -0.18631,-0.18106 -0.72281,0.2396 -1.19269,0.93485 -2.14441,3.17267 -5.745608,6.12585 -9.935788,8.14783 -5.11881,2.46991 -8.70441,5.27966 -11.1776,8.75811 -1.929092,2.71326 -2.340702,2.33982 -0.7731,-0.70126 1.12089,-2.17465 3.1552,-4.19281 7.29979,-7.24091 3.0549,-2.24685 10.3648,-9.56994 13.904108,-13.92938 1.1901,-1.46579 2.2992,-3.44757 2.466,-4.40439 l 0.30231,-1.73944 -1.98849,2.12854 c -1.0936,1.17069 -3.777008,4.10651 -5.963018,6.52362 -2.64019,2.91898 -5.17349,5.10675 -7.54528,6.51587 -1.96399,1.16669 -4.8973,3.23676 -6.51841,4.59973 -3.849302,3.2363 -13.097992,6.86737 -17.556592,6.90036 -1.6219,0.0104 -3.09351,-0.21411 -3.2695,-0.4992 -0.19479,-0.31507 0.56509,-0.51831 1.9404,-0.51831 2.3379,0 14.27859,-3.62601 16.3112,-4.95319 0.633192,-0.41336 2.289702,-1.76282 3.680892,-2.99826 1.39101,-1.23553 3.59209,-2.76083 4.89171,-3.38998 4.9216,-2.38257 11.074798,-9.30912 18.276888,-20.57343 6.05398,-9.46896 7.802,-13.40167 9.5379,-21.45917 0.8288,-3.84762 1.8739,-8.01516 2.3223,-9.26092 0.4739,-1.31577 0.6502,-1.8519 0.5209,-1.9079 z m -23.506008,34.51935 c 0.12069,0.01 0.21609,0.0457 0.28109,0.11111 0.5347,0.53482 -0.8251,3.82868 -2.867,6.9448 -1.78781,2.72842 -5.74021,7.04846 -5.74021,6.27401 0,-0.173 1.4043,-2.02584 3.12021,-4.11758 3.2602,-3.975 4.54071,-6.77103 3.2432,-7.08484 -0.8468,-0.20492 -3.9856,2.0524 -5.95362,4.28192 -0.77218,0.87439 -1.4118,1.28427 -1.4248,0.90949 -0.052,-1.67789 7.5304,-7.46475 9.34109,-7.31894 z M 116.1565,187.46065 c 2.113,0 -3.33429,13.69171 -6.62079,16.64136 l -1.37769,1.23663 0.80622,-1.29553 c 3.29748,-5.29627 4.14569,-6.8382 4.83529,-8.79276 0.43079,-1.22079 0.78339,-2.53064 0.78339,-2.91095 0,-0.38012 -3.1789,2.44733 -7.06409,6.28336 -3.88531,3.83618 -7.16549,6.97476 -7.29001,6.97476 -0.593408,0 2.2956,-3.29492 6.5882,-7.51376 2.60989,-2.5651 5.66669,-6.00461 6.79291,-7.64347 1.12619,-1.63882 2.27209,-2.97967 2.5466,-2.97967 z"
       id="path11226" />
    <path
       style="fill:#0000ff;fill-rule:evenodd;stroke:none"
       d="m 152.97235,296.32408 c -0.13238,-0.005 -0.21908,0.0111 -0.24389,0.0532 -0.86499,1.46914 -2.15891,3.13653 -3.63031,4.8121 h 6.04512 c 1.13458,-1.60178 1.9317,-2.9288 1.9317,-3.41324 0,-0.35062 -3.17561,-1.41672 -4.10262,-1.45212 z"
       id="path11228" />
    <path
       style="fill:#0000ff;fill-rule:evenodd;stroke:none"
       d="m 123.40415,62.563363 c -0.11441,-0.006 -0.20191,0.0174 -0.25791,0.0734 -0.1329,0.13305 -0.28589,1.6297 -0.33691,3.32589 -0.084,2.72109 0.125,3.44147 1.77508,6.12778 1.02842,1.67441 2.4039,4.58937 3.05661,6.47765 2.35489,6.81321 1.2009,19.65811 -2.56161,28.509357 l -0.96729,2.27584 -1.4335,-3.19515 c -2.34021,-5.21458 -2.32379,-6.12994 0.18079,-10.229347 l 2.17718,-3.56362 -0.3421,-4.4049 c -0.18799,-2.42255 -0.50088,-5.80382 -0.6951,-7.51375 l -0.35348,-3.10938 -3.6369,3.62769 c -4.63822,4.62567 -5.66532,6.68372 -5.67832,11.40033 -0.011,3.34672 0.17789,3.98152 2.4433,8.208277 4.2323,7.89676 4.90741,12.26079 3.0314,19.59673 -1.1853,4.63464 -4.25421,11.11378 -6.53039,13.78883 -0.90549,1.06387 -1.5604,2.18399 -1.45472,2.48923 0.10511,0.30524 -0.9277,2.05429 -2.29489,3.88659 -2.0845,2.79383 -2.73401,3.33158 -4.02771,3.33158 -1.35489,0 -1.9067,-0.53488 -4.531,-4.38938 -3.769988,-5.53686 -5.319088,-7.13989 -10.580688,-10.95385 -2.33261,-1.69074 -5.09599,-4.06049 -6.14079,-5.26584 -1.0445,-1.20535 -1.7844,-1.82964 -1.6433,-1.387 0.1404,0.44237 0.64501,2.19164 1.12241,3.88659 l 0.86819,3.08146 5.194,3.10938 c 6.2059,3.71499 9.18469,6.7222 10.805598,10.90838 1.32502,3.42221 1.72602,10.11753 0.70951,11.83597 -0.46051,0.77845 -0.57309,0.13825 -0.5571,-3.10937 0.026,-4.82886 -1.488498,-10.00617 -3.664888,-12.52689 -1.78518,-2.06766 -11.72419,-9.47165 -11.94189,-8.89609 -0.089,0.23548 0.55218,2.81531 1.4252,5.73297 1.89441,6.33262 2.17499,11.34195 0.63571,11.34195 -1.2395,0 -9.549702,-5.03793 -12.455092,-7.55044 -5.3478,-4.62445 -5.57291,-8.05884 -0.803,-12.2468 2.2511,-1.97673 2.9749,-3.98501 2.71761,-7.54371 -0.24989,-3.45452 -1.7641,-6.8908 -4.302,-9.76479 l -1.78191,-2.01797 -0.023,2.23036 c -0.013,1.29216 -0.6911,3.79948 -1.6128,5.95932 -1.30589,3.05151 -1.5426,4.19888 -1.3219,6.3195 0.9764,9.39194 0.98511,9.72162 0.25681,9.48212 -1.0377,-0.34119 -2.965,-3.37714 -3.56979,-5.62291 -0.28791,-1.06906 -0.74871,-3.72128 -1.0242,-5.89421 -0.57601,-4.54241 -0.8554,-5.19203 -3.97341,-9.22063 -0.81911,-1.05841 -1.6923,-2.41279 -2.4087,-3.63492 -0.059,3.13324 -0.018,6.27468 0.1246,9.42113 0.45129,0.99214 1.0401,2.09932 1.55701,2.87683 0.7577,1.14005 1.5569,2.36463 1.7756,2.72077 0.754,1.22831 -0.6247,0.64364 -2.20239,-0.93432 -0.3404,-0.34034 -0.6505,-0.76622 -0.9421,-1.22369 0.088,1.27637 0.1823,2.55278 0.3033,3.82974 0.4379,0.29705 0.87221,0.5622 1.28371,0.73638 0.89529,0.37896 2.0054,1.1295 2.46699,1.6676 1.2871,1.50018 7.2759,11.20138 6.79081,11.00088 -4.5707,-1.89282 -7.34211,-3.11959 -9.3725,-4.20077 0.26669,1.68198 0.558,3.36337 0.88409,5.04257 -6.2097,2.34223 -12.17289,5.12555 -17.8723,8.29047 1.2316,0.1983 2.3873,0.43304 3.314,0.73846 2.0663,0.68103 3.7538,1.38065 3.7538,1.55445 0,0.17401 -0.8474,0.89111 -1.87891,1.59368 -1.03129,0.70255 -2.6038,2.19483 -3.4944,3.31608 -1.11839,1.40835 -2.80749,2.58346 -5.4627,3.80129 -5.4495,2.49952 -6.7329,3.56281 -8.262,6.8451 -1.14259,2.45376 -1.3405,3.57116 -1.2935,7.30188 0.031,2.44952 0.39371,5.32025 0.817,6.46728 l 0.7607,2.06241 0.9136,-1.92496 c 0.578,-1.21783 2.23441,-2.90429 4.5109,-4.59195 5.4573,-4.04574 6.72329,-6.16015 7.4579,-12.45764 0.4359,-3.73703 1.6866,-5.76614 4.7501,-7.70907 4.3156,-2.73685 8.93821,-3.30081 14.17481,-1.72913 1.5479,0.46512 4.0726,0.80701 5.61,0.76172 3.6376,-0.10825 5.9288,0.6846 7.5515,2.61328 2.25509,2.67999 1.49609,3.37567 -0.8898,0.81598 -2.2845,-2.45087 -3.87661,-3.16412 -6.4146,-2.87372 -1.4272,0.16303 -1.3611,0.25086 1.6216,2.16626 1.7099,1.09796 3.9252,2.73099 4.9227,3.62821 1.77569,1.59732 3.8025,2.92538 4.4638,2.92538 0.6933,0 -0.4248,-4.49475 -1.62939,-6.55047 -1.498,-2.55631 -5.159,-5.111 -8.8718,-6.19034 -2.6992,-0.78467 -4.1582,-0.6204 -10.156,1.14358 -0.4989,0.1471 -0.90691,0.025 -0.90691,-0.2713 0,-0.29626 1.3271,-0.92484 2.9492,-1.3963 6.09701,-1.77234 13.1704,0.19159 17.2072,4.7775 2.80741,3.18942 3.7246,7.68725 2.0149,9.87948 -0.4198,0.53845 0.2682,2.75385 0.85519,2.75385 0.10429,0 0.6568,-0.79187 1.227802,-1.75959 0.57091,-0.96783 2.296,-2.70913 3.8329,-3.8695 3.17401,-2.3964 4.69791,-4.78284 5.83011,-9.1297 0.43219,-1.65912 0.90979,-3.14099 1.06149,-3.2923 0.5669,-0.56702 3.05911,1.85083 3.6803,3.57031 0.88461,2.42987 0.88779,8.2038 0.013,10.6836 -0.39459,1.1181 -2.3765,5.40295 -4.40439,9.52191 -5.31451,10.7937 -5.7296,13.11908 -4.79559,26.86398 l 0.33069,4.86481 1.70901,-2.64325 c 2.2955,-3.55139 4.93839,-5.73422 12.023008,-9.92859 6.57199,-3.89084 11.60999,-8.19711 15.33811,-13.11081 1.3543,-1.78503 4.975,-8.41785 8.12249,-14.88025 3.12342,-6.4126 6.35199,-12.51001 7.17481,-13.54956 1.99231,-2.517 5.54349,-4.70297 10.42669,-6.41821 2.206,-0.77484 4.62211,-1.9751 5.36921,-2.66754 0.65368,-0.60572 1.29971,-1.01877 1.5549,-1.00873 0.036,0.001 0.065,0.0116 0.084,0.031 0.7208,0.72059 -3.6398,3.82007 -6.86319,4.87827 -1.91501,0.62869 -4.10019,1.46786 -4.8555,1.86447 -1.712,0.89893 -4.62201,3.96243 -6.67349,7.0249 -2.02441,3.02247 -7.28201,13.61475 -9.38809,18.91413 -0.9061,2.27997 -2.52661,5.31158 -3.6008,6.73651 -2.30679,3.0599 -8.48499,8.13 -15.8212,12.98321 -7.757688,5.13172 -10.623808,7.42453 -12.227688,9.78132 -1.689,2.4819 -2.9519,5.86062 -3.3967,9.08575 l -0.3188,2.31253 1.48821,-2.05362 c 1.68771,-2.32904 3.37979,-3.67249 8.9277,-7.08899 4.716398,-2.90448 13.033288,-11.12369 16.795808,-16.59845 2.56921,-3.73834 7.673,-9.71722 8.29458,-9.71722 0.6221,0 0.24939,2.50506 -1.04071,6.99957 -0.7359,2.56299 -1.51181,6.55298 -1.72449,8.86664 -0.34021,3.70617 -0.64309,4.6142 -2.54818,7.63052 -1.1893,1.88318 -2.1626,3.53058 -2.1626,3.65973 0,0.70151 -3.2395,7.04437 -4.3848,8.58551 -1.63128,2.19483 -2.0606,3.76892 -3.11239,11.41379 -0.45099,3.27753 -0.95761,6.77515 -1.1261,7.77264 l -0.04,-0.002 -0.30591,1.81384 2.07071,-1.98746 c 2.7316,-2.62182 4.68079,-6.61294 5.10361,-10.44897 0.65429,-5.93875 4.0841,-13.39529 9.31619,-20.2525 6.07639,-7.96393 6.91242,-9.82044 9.31101,-20.68503 1.78079,-8.06479 3.32299,-12.07678 6.18258,-16.08429 3.08591,-4.32434 6.95029,-7.64871 11.55069,-9.93637 4.6854,-2.33005 10.24889,-2.89639 14.51799,-1.47845 2.83985,0.94317 6.95923,4.23367 8.1272,6.49209 1.05322,2.03662 0.53644,3.21912 -2.58331,5.91232 -1.72901,1.49283 -2.99701,3.09464 -3.38849,4.28089 -0.9267,2.80804 -0.35108,7.83938 1.30493,11.40396 1.22931,2.64667 1.46527,2.89694 1.83398,1.94507 0.23273,-0.60059 1.97101,-2.81641 3.86231,-4.92319 1.89154,-2.10684 3.8172,-4.53018 4.27929,-5.38519 1.80744,-3.34427 0.71821,-7.65751 -3.88506,-15.3851 -1.99964,-3.35715 -4.01942,-5.07093 -8.28681,-7.03162 l -2.97241,-1.3653 2.07269,-0.46096 c 2.92072,-0.64914 10.41986,-0.0751 14.97638,1.12191 -7.36469,-4.57238 -15.22015,-8.48535 -23.51439,-11.61377 0.073,-0.37466 0.1297,-0.75018 0.19949,-1.125 -1.03311,0.98114 -2.1618,2.25891 -3.76098,4.17285 -3.68399,4.40925 -5.39459,5.42969 -10.63339,6.34641 -2.86741,0.50183 -1.991,-0.54373 1.10269,-1.31516 3.65091,-0.91052 6.2558,-2.66516 9.6532,-6.50195 1.67059,-1.88678 2.9461,-3.52173 2.83441,-3.63336 -0.11139,-0.11151 -2.29419,0.49786 -4.8508,1.35391 -4.8143,1.61191 -10.6846,4.5585 -16.2605,8.16229 -1.77399,1.14664 -3.55969,1.95646 -3.96829,1.7999 -1.67221,-0.64163 -0.22541,-11.12518 3.45099,-25.00519 3.9559,-14.936 9.90771,-23.209187 20.3522,-28.290257 1.09369,-0.53202 2.29668,-1.0333 3.55168,-1.51412 -0.80847,-6.81786 -2.07988,-13.55879 -3.81987,-20.17241 -0.21579,0.52005 -0.46561,1.07428 -0.80511,1.75235 -1.7605,3.51644 -3.7255,5.8608 -8.3519,9.96529 -4.48331,3.9772 -5.021,3.60217 -8.39691,-5.86165 -2.5466,-7.13867 -4.05552,-10.01009 -6.68341,-12.71756 -1.75229,-1.80531 -3.86469,-3.27922 -4.66532,-3.31972 z m -2.62717,91.252327 c 0.33051,0.0568 0.5426,0.6507 0.5426,1.73685 0,0.98059 -0.21139,1.91388 -0.46978,2.07379 -0.25892,0.15964 -0.34821,-0.17633 -0.19892,-0.74674 0.19049,-0.72848 0.016,-1.03714 -0.58499,-1.03714 -0.6954,0 -0.75189,-0.1947 -0.3013,-1.03662 0.31711,-0.59244 0.61499,-0.91452 0.86349,-0.98135 0.052,-0.0139 0.10172,-0.0169 0.1489,-0.009 z m 19.93109,2.08514 c 0.2388,0.02 -0.2814,0.26868 -1.66611,0.92707 -1.875,0.89175 -2.4663,1.57452 -3.73309,4.31189 -1.52621,3.29821 -2.24051,2.68936 -0.82059,-0.69971 0.9982,-2.383 2.85071,-4.00357 4.99302,-4.36771 0.66699,-0.11334 1.08349,-0.18359 1.2268,-0.17157 z m -20.5993,4.77695 c 0.4172,0.41718 -1.46271,5.07373 -3.27991,8.12409 -1.63699,2.74829 -2.76419,4.15826 -2.76419,3.45715 0,-0.12476 0.7886,-1.5368 1.75241,-3.13727 0.9639,-1.60065 2.27661,-4.20242 2.9176,-5.78155 0.6409,-1.57926 1.25949,-2.77668 1.37412,-2.66239 z m -47.02402,-42.9033 c 0.029,-0.0122 0.058,-0.01 0.088,0.009 0.8491,0.52486 1.0862,3.78132 0.4109,5.64874 -0.7036,1.94553 -2.5291,4.0652 -2.5291,2.93678 0,-0.33839 0.35921,-1.47496 0.7984,-2.52595 0.4392,-1.05115 0.8129,-2.90476 0.8429,-4.11913 0.021,-1.06251 0.1884,-1.86396 0.3891,-1.94923 z m 99.13609,48.5102 c 0.33838,0.0552 0.11622,0.86155 -0.71521,2.27066 -0.63653,1.07892 -1.539,3.13254 -2.00561,4.56354 -0.95484,2.92884 -1.87183,2.51645 -1.2909,-0.58032 0.44379,-2.36505 1.39447,-4.23135 2.80707,-5.50974 0.59674,-0.54003 1.00153,-0.77725 1.20459,-0.74414 z M 39.28067,159.48149 c 0.4552,0.0168 0.021,0.88794 -1.50689,2.44946 -1.325,1.35377 -3.02131,3.51105 -3.76981,4.79352 l -1.3607,2.33161 0.3535,-1.8133 c 0.52679,-2.69909 1.5403,-4.38769 3.70469,-6.17172 1.333,-1.09872 2.2251,-1.60263 2.5792,-1.58957 z m 80.24048,-72.844137 c 0.2254,0.0489 0.1536,0.78352 -0.2341,2.1797 -0.30429,1.09547 -0.556,3.44935 -0.556,5.2307 0,3.52858 -0.78509,4.34236 -1.33841,1.39268 -0.4881,-2.60141 -0.012,-6.00755 1.0723,-7.66154 0.52579,-0.8026 0.88089,-1.17954 1.05621,-1.14153 z M 68.95786,140.35603 c 2.3385,0.0338 4.3627,0.65711 7.059,1.8154 4.7134,2.02472 6.126802,3.4762 1.6444,1.68824 -7.9655,-3.17691 -9.33161,-3.22483 -18.0894,-0.63715 -3.5174,1.03925 -7.91071,2.19681 -9.7632,2.57193 -4.765,0.96542 -5.6203,0.78311 -1.2955,-0.27597 1.9949,-0.48853 5.4926,-1.50232 7.77259,-2.25308 6.1398,-2.02182 9.6655,-2.95288 12.67211,-2.9094 z m 24.635162,31.92933 c 0.20801,0.0884 -0.11511,2.14676 -1.01959,5.88028 -1.47931,6.10638 -1.76169,11.8778 -0.5813,11.8778 0.40039,0 1.31961,-1.00979 2.04269,-2.24377 1.2743,-2.17426 2.92911,-3.98139 2.92911,-3.19879 0,0.60415 -3.67361,6.61044 -4.83441,7.90393 -0.5755,0.64129 -1.22821,1.1658 -1.4505,1.1658 -1.60941,0 -0.69141,-11.02377 1.4888,-17.87747 0.78049,-2.45368 1.2634,-3.57654 1.4252,-3.50781 z M 69.77536,145.23274 c 5.2024,0.0123 5.98551,0.14518 8.69921,1.47275 3.956602,1.93591 4.638992,3.09439 4.914502,8.34628 h 5e-4 c 0.148,2.82468 0.027,4.40281 -0.35499,4.63901 -0.40221,0.24823 -0.5829,-0.56512 -0.5829,-2.65204 -0.01,-6.35266 -1.760002,-8.7456 -7.510192,-10.24328 -4.1675,-1.08548 -8.65821,-1.00379 -14.79911,0.2687 -2.83369,0.58744 -6.02699,0.99512 -7.0957,0.90693 -4.12869,-0.34183 10.60091,-2.75153 16.7287,-2.73832 z m 74.86731,7.54941 c 0.86469,-0.002 1.6575,0.0505 2.2862,0.16846 3.20941,0.60211 1.4917,1.33688 -3.12439,1.33688 -2.87101,0 -4.91559,0.26694 -5.8834,0.7674 -2.63888,1.36456 -4.54361,4.47836 -6.0285,9.85571 -0.84711,3.06796 -0.99121,7.16928 -0.20929,5.95932 0.41501,-0.64063 0.51001,-0.59033 0.51001,0.28528 0,0.58429 -0.27191,1.3421 -0.61389,1.68414 -0.34189,0.34195 -0.80399,0.62164 -1.02631,0.62164 -0.82071,0 -1.09781,-2.91171 -0.5653,-5.94586 1.13708,-6.48016 4.0354,-11.7492 7.42898,-13.50409 1.39111,-0.71954 4.63172,-1.22168 7.22589,-1.22888 z M 89.637762,136.24468 h 0.001 c 0.81311,0.0686 3.05578,1.51257 4.2897,2.8396 4.57309,4.91839 6.423608,15.50372 4.0524,23.18103 -0.58151,1.88253 -1.17981,3.42251 -1.33011,3.42251 -0.15201,0 -0.15131,-0.40774 0,-0.9064 2.1496,-7.09461 1.5704,-15.83368 -1.4433,-21.7811 -1.37369,-2.71097 -3.70471,-4.98544 -4.5646,-4.45401 -0.30231,0.18698 -0.35779,1.99948 -0.14112,4.60129 0.20801,2.49173 0.1507,4.66379 -0.13641,5.17642 -0.3468,0.61975 -0.6008,-1.00799 -0.8522,-5.45392 -0.19721,-3.48529 -0.25501,-6.44 -0.12909,-6.56653 0.051,-0.0507 0.13751,-0.0687 0.25369,-0.0589 z m 56.197108,13.46374 c 3.4332,0.0388 7.75131,0.46808 7.34781,0.87076 -0.1879,0.18774 -3.17859,0.34854 -6.64551,0.36172 -5.51678,0.0184 -6.6116,0.17096 -8.76849,1.22422 -2.8587,1.39584 -4.23731,2.90689 -7.19589,7.88736 -3.26331,5.49292 -4.5842,9.65338 -4.8974,15.42749 -0.14871,2.73724 -0.52021,5.96765 -0.82581,7.17889 v 5.2e-4 c -0.30569,1.21121 -0.71109,2.20193 -0.90069,2.20193 -0.58719,0 0.9461,-14.61697 1.82101,-17.35913 1.42709,-4.47442 5.0163,-10.77652 7.71841,-13.55267 2.72132,-2.79562 4.3892,-3.5282 9.41599,-4.13413 0.73999,-0.0892 1.78619,-0.1199 2.9306,-0.10696 z m -22.07879,-2.11352 c 0.64801,-0.0579 0.6914,1.12423 0.43978,3.67779 -0.65188,6.61527 -2.6412,13.22571 -5.3077,17.63666 -3.14731,5.20611 -5.2956,7.78574 -9.39942,11.28821 -1.8367,1.56753 -4.8172,4.19125 -6.62341,5.83014 -2.929598,2.65856 -4.346008,3.53784 -4.346008,2.69958 0,-0.67868 2.436618,-4.96057 4.853488,-8.52972 1.44738,-2.13755 3.3908,-5.28534 4.3186,-6.99543 0.92761,-1.70993 1.68561,-2.69384 1.69861,-2.18591 0.018,1.44965 -1.16431,3.88467 -4.31549,8.88522 -1.60361,2.54456 -2.818,4.72422 -2.6991,4.84311 0.11911,0.11915 1.22781,-0.47842 2.46341,-1.32858 3.5372,-2.43353 9.2149,-8.76584 12.4292,-13.86117 2.5531,-4.04725 3.1243,-5.44864 4.3016,-10.56113 1.37149,-5.95859 1.39261,-7.29672 0.11521,-7.29672 -1.1633,0 -2.92581,2.25915 -5.3216,6.82129 -1.24771,2.37591 -2.2706,4.00744 -2.2836,3.62512 -0.031,-1.41944 4.79261,-9.93903 6.92151,-12.2251 1.38101,-1.48346 2.25089,-2.27832 2.75492,-2.32336 z m -0.74415,-36.05829 0.4155,3.88659 c 0.22891,2.13752 0.87909,5.98542 1.44431,8.55039 2.98199,13.53055 1.6734,18.6373 -6.1702,24.08481 -4.00479,2.78134 -7.05069,5.75787 -10.88299,10.634 -5.1615,6.56753 -9.117798,13.44852 -10.130708,17.61908 -0.59812,2.4624 0.6879,1.03479 4.222498,-4.68759 1.69721,-2.74771 3.52152,-5.23041 4.0546,-5.51746 1.12478,-0.60507 1.2091,-0.77722 -2.20151,4.50461 -1.28821,1.99503 -3.2836,4.85159 -4.434298,6.34793 -2.31259,3.00723 -2.8825,3.30759 -2.8825,1.5188 0,-7.55292 12.944298,-26.34662 21.889708,-31.78052 3.63128,-2.20581 5.75949,-5.15137 6.58099,-9.10846 0.65439,-3.15307 0.52411,-4.80307 -1.0491,-13.25296 -0.54639,-2.93579 -0.96301,-7.01629 -0.92499,-9.06817 z m -1.05676,13.47256 h 4.9e-4 c 0.62079,-0.0331 1.07089,4.3768 0.76019,7.97318 -0.5444,6.30371 -1.0747,7.13018 -10.35598,16.12613 -4.64801,4.50509 -9.0846,9.10525 -9.85932,10.22314 -3.208888,4.63052 -8.645988,19.49033 -8.645988,23.6301 v 1.56216 l 1.2955,-1.21698 c 1.56769,-1.47287 1.71258,-0.67068 0.22119,1.22525 v 4.9e-4 c -2.0379,2.591 -2.8566,1.40063 -2.38699,-3.46903 0.31921,-3.30871 2.33081,-9.76394 4.68609,-15.03732 2.30441,-5.15906 5.715208,-9.70492 11.527888,-15.36548 8.5748,-8.3504 9.45112,-9.35336 11.1312,-12.73873 1.3074,-2.63462 1.53909,-3.65519 1.40659,-6.21824 l -0.1587,-3.06646 -2.26959,4.56146 c -2.00879,4.03567 -2.91711,5.16763 -7.88171,9.82629 -5.9675,5.60004 -7.4325,6.55732 -7.9545,5.19709 -0.17139,-0.45032 -0.1915,-0.94108 -0.042,-1.0904 0.14898,-0.14947 0.2713,7.3e-4 0.2713,0.33331 0,1.18256 1.28311,0.57319 3.36569,-1.59783 1.1619,-1.21125 3.3873,-3.30555 4.9454,-4.65397 3.47962,-3.01065 5.8902,-6.61453 7.8667,-11.76156 0.82871,-2.15796 1.707,-4.12683 1.95081,-4.37491 0.043,-0.0433 0.085,-0.0652 0.12561,-0.0677 z"
       id="path11230" />
    <path
       style="fill:#0000ff;fill-rule:evenodd;stroke:none"
       d="m 222.87502,196.00584 c -0.68384,1.92487 -1.78143,4.13538 -2.45819,4.93976 l -1.24439,1.47898 1.7865,0.33538 c 1.33869,0.25113 3.42182,0.0915 5.49268,-0.29714 -1.13367,-2.18741 -2.32697,-4.33942 -3.5766,-6.45698 z"
       id="path11232" />
    <path
       style="fill:#0000ff;fill-rule:evenodd;stroke:none"
       d="m -8.5650454,234.61748 c -2.6452936,0 -3.0637056,0.16226 -4.5924986,1.78335 -3.938599,4.17606 -2.229797,11.13645 3.4727016,14.14487 4.692703,2.47586 5.887604,3.99588 6.631607,8.43567 1.811096,10.80957 2.75810505,12.96542 7.256895,16.52149 4.36301,3.44897 15.2428004,6.95812 29.0225104,9.36065 5.7968,1.01065 8.291,1.2392 8.291,0.75913 0,-0.16303 -0.5907,-1.30402 -1.3121,-2.53525 l -1.3115,-2.23862 -5.9609,-1.11053 C 11.41826,275.72878 3.1706696,271.33208 3.1706696,263.87255 c 0,-4.30048 5.19881,-6.64246 14.1650004,-6.3805 l 5.32739,0.15555 2.6902,-2.31717 c 1.4797,-1.27426 2.6905,-2.47784 2.69079,-2.67374 7.1e-4,-0.84289 -4.80059,-0.93747 -9.7126,-0.1907 -6.92509,1.05255 -9.5068904,1.01752 -14.2415004,-0.19327 -3.88379995,-0.99344 -10.008602,-3.81338 -12.134091,-5.58725 -2.6934956,-2.24765 -3.3419946,-6.26919 -1.196304,-7.41763 1.227097,-0.65705 3.083496,-0.64908 3.083496,0.0129 0,0.28531 -0.224502,0.51831 -0.499695,0.51831 -0.274994,0 -0.749801,0.46655 -1.054702,1.03662 -0.822998,1.53766 0.193405,3.10886 2.010696,3.10886 2.044403,0 3.406998,-1.69526 3.406998,-4.23954 0,-1.69659 -0.312607,-2.36374 -1.680496,-3.58581 -1.431305,-1.27903 -2.112305,-1.50171 -4.590897,-1.50171 z"
       id="path11234" />
    <path
       style="fill:#0000ff;fill-rule:evenodd;stroke:none"
       d="m 17.22565,164.18919 c -1.4194,1.27228 -2.8185,2.56495 -4.18069,3.89435 0.18139,3.1027 0.27859,5.70453 0.21609,5.78778 -0.063,0.0832 -0.4939,-0.79629 -0.95711,-1.95392 -0.29699,-0.74218 -0.4904,-1.59344 -0.6248,-2.46441 -1.1541,1.1593 -2.2852904,2.33972 -3.3956004,3.53931 0.4487,1.95715 1.2663,3.83856 2.4944004,5.46374 1.3311,1.76175 4.41701,4.03372 6.1893,4.55734 1.06751,0.31552 1.09731,0.20816 0.84331,-2.96157 -0.1654,-2.06043 0.041,-4.63123 0.55251,-6.88227 0.8878,-3.90826 0.66619,-5.82709 -1.13741,-8.98035 z"
       id="path11236" />
    <path
       style="fill:#0000ff;fill-rule:evenodd;stroke:none"
       d="m 80.34064,301.04732 c -0.1485,8.2e-4 -0.3136,0.0522 -0.4987,0.14212 h 0.91729 c -0.13189,-0.0924 -0.26759,-0.14295 -0.41859,-0.14212 z"
       id="path11238" />
    <path
       style="fill:#0000ff;fill-rule:evenodd;stroke:none"
       d="m 91.263982,41.115073 c -8.398,-0.0107 -11.580992,0.62205 -17.968402,3.56979 -0.48399,0.22339 -0.92149,0.44731 -1.3694,0.67127 -1.1322,2.30981 -2.2048,4.6459 -3.2132,7.00837 3.558,-2.64058 8.69791,-5.2661 11.2907,-5.68492 2.728002,-0.44066 2.171202,0.72934 -1.51151,3.17447 -2.9443,1.95483 -4.81239,4.85001 -4.8354,7.49722 -0.018,2.0262 2.0672,5.75269 3.81641,6.81923 2.19009,1.33565 2.668,1.24575 2.8034,-0.52656 0.064,-0.83289 0.6939,-2.75663 1.400902,-4.27521 1.03889,-2.2321 1.2904,-3.57944 1.2904,-7.03575 0,-3.53212 0.17931,-4.44928 1.00771,-5.27771 2.3136,-2.31355 9.61209,-2.81001 15.1055,-1.02785 4.384088,1.42249 7.383298,3.20526 10.764798,6.40015 4.76431,4.50157 6.86081,10.29434 5.73089,15.83674 -1.17608,5.76999 -5.12258,11.63207 -10.16738,15.10295 -2.19791,1.51209 -2.529,2.16521 -1.91251,3.77187 v 0.001 c 0.1731,0.45091 0.716,0.81959 1.2066,0.81959 1.5279,0 5.82459,-3.14184 9.939,-7.26777 4.96939,-4.98328 5.97031,-7.40113 6.68481,-16.1463 0.76871,-9.40799 2.17832,-11.74118 8.09671,-13.39815 2.6355,-0.73795 2.7945,-1.60933 0.59369,-3.25096 l -1.40658,-1.04905 -4.71601,1.44643 c -6.13009,1.88051 -7.54928,1.66928 -13.6777,-2.03863 -7.31061,-4.42319 -9.91129,-5.12706 -18.953398,-5.14026 z m -11.496922,9.56942 c 0.355,-0.0493 0.2872,0.61197 -0.2625,1.9079 h 5.1e-4 c -0.45329,1.06879 -1.0997,3.10898 -1.4361,4.53409 l -0.61189,2.59055 -0.3788,-2.09601 c -0.4034,-2.23154 0.2002,-4.51052 1.60609,-6.06423 0.5042,-0.5572 0.86971,-0.84272 1.08271,-0.8723 z"
       id="path11240" />
    <path
       style="fill:#0000ff;fill-rule:evenodd;stroke:none"
       d="m 144.89685,290.07332 c -3.53039,-0.007 -4.6271,0.21951 -7.39331,1.52808 -1.78659,0.84524 -3.39358,1.91519 -3.57141,2.37814 -0.17749,0.46304 0.062,1.64972 0.53229,2.63653 v 5.2e-4 c 0.90658,1.90067 0.97919,1.89817 3.69641,-0.12042 2.3129,-1.71838 5.70291,-2.45178 9.65469,-2.08874 3.49311,0.32092 10.15099,2.1047 11.04692,2.9595 0.90449,0.8631 1.74628,0.48468 2.83387,-1.27536 0.59344,-0.95993 1.07849,-1.87363 1.07849,-2.03089 0,-0.43231 -6.02747,-2.34716 -10.1115,-3.21218 -1.99139,-0.42191 -5.4863,-0.77515 -7.76651,-0.77515 z"
       id="path11242" />
    <path
       style="fill:#0000ff;fill-rule:evenodd;stroke:none"
       d="m 146.32166,54.782963 c -1.81659,1.40779 -5.46271,5.68498 -6.58151,7.93027 -1.75229,3.51643 -1.69352,6.05864 0.2351,10.13528 0.85489,1.80692 1.55442,3.84708 1.55442,4.53409 0,1.76018 1.0747,1.55588 3.2474,-0.617 2.42151,-2.42139 3.6178,-4.98995 3.90619,-8.3871 0.2027,-2.38939 0.026,-3.07285 -1.38751,-5.34644 -1.97659,-3.17929 -2.0206,-4.19772 -0.25171,-5.83789 0.062,-0.0573 0.10001,-0.11981 0.155,-0.1788 -0.2887,-0.74569 -0.5766,-1.49135 -0.87741,-2.23243 z m -2.1637,8.35506 c 0.086,-0.0161 0.19519,0.0832 0.33121,0.26922 1.05279,1.43935 1.3667,4.28516 0.71371,6.46472 -0.33331,1.11249 -0.7716,2.02216 -0.97409,2.02158 -0.20251,-7.9e-4 -0.38089,-2.11177 -0.38089,-4.69118 -0.01,-2.92553 0.051,-4.0159 0.31009,-4.06434 z"
       id="path11244" />
    <path
       style="fill:#0000ff;fill-rule:evenodd;stroke:none"
       d="m 223.85335,234.62447 c -2.94012,0.01 -4.5155,0.86404 -5.72064,3.10162 -1.65271,3.06805 -0.063,6.40488 2.91254,6.11383 1.31738,-0.12897 1.60791,-0.40671 1.75329,-1.66501 0.11127,-0.97708 -0.117,-1.67187 -0.64752,-1.96887 -1.23016,-0.68832 -0.98761,-1.44333 0.46362,-1.44333 0.80341,0 1.60657,0.49329 2.14771,1.31879 2.57806,3.93533 -3.70612,10.043 -12.7956,12.43646 -2.8175,0.74179 -4.45099,0.80981 -10.58648,0.44183 -14.94501,-0.89642 -16.65723,-0.64248 -20.88813,3.09751 -2.65228,2.34454 -5.04565,3.68918 -8.4486,4.74649 -2.79377,0.86816 -2.92951,0.99347 -3.42609,3.16363 -0.50891,2.2204 -0.495,2.26319 0.83661,2.25 0.74432,-0.005 3.32422,-0.82159 5.73352,-1.81384 2.4093,-0.99219 4.44311,-1.80402 4.5191,-1.80402 0.076,0 -1.3844,2.34559 -3.24481,5.21259 -3.99603,6.15787 -7.12823,12.21689 -6.68591,12.93253 0.44867,0.72607 3.5318,0.63125 4.4881,-0.13797 0.44281,-0.35639 1.8045,-2.51297 3.02569,-4.793 6.0896,-11.37012 8.68677,-14.85346 12.69019,-17.01706 1.76337,-0.95304 2.88531,-1.11905 7.51416,-1.08933 9.32562,0.0527 13.9909,2.20288 13.9909,6.44767 0,1.16793 -0.34167,2.78479 -0.75958,3.59304 -1.03729,2.00583 -5.16742,5.55704 -7.26929,6.2508 -1.63849,0.54126 -1.7312,0.70712 -1.89971,3.41839 -0.17341,2.8031 -0.15479,2.84415 1.10284,2.52802 2.95721,-0.74375 6.99206,-3.11484 9.54828,-5.61051 3.26013,-3.18292 4.586,-6.32449 5.45849,-12.93307 0.83112,-6.29404 1.69641,-7.90329 5.21161,-9.69141 3.19641,-1.62582 5.88501,-4.17929 6.71283,-6.37482 0.30231,-0.80233 0.54981,-2.63684 0.54981,-4.07675 0,-2.35043 -0.20569,-2.82373 -2.01172,-4.6297 -1.72736,-1.72747 -2.33179,-2.00451 -4.27521,-2.00451 z"
       id="path11246" />
    <path
       style="fill:#0000ff;fill-rule:evenodd;stroke:none"
       d="m 112.96704,288.76952 -1.04229,1.29553 c -5.59092,6.94897 -9.9708,10.42831 -13.244688,10.52081 -3.12479,0.0885 -4.0553,-2.32068 -2.4484,-6.33706 0.76981,-1.92276 0.76142,-2.14002 -0.12921,-3.36258 -1.40729,-1.93213 -2.1539,-1.64277 -3.56149,1.38079 -1.47672,3.17173 -1.55219,6.46317 -0.4408,8.92246 h 15.207798 c 2.67831,-2.21265 5.5465,-5.16477 7.01721,-7.39697 l 1.47021,-2.23191 -1.41391,-1.39526 z"
       id="path11248" />
    <path
       style="fill:#0000ff;fill-rule:evenodd;stroke:none"
       d="m 156.62581,110.45088 c -0.97119,0.0932 -1.83105,1.19109 -3.16878,3.78014 -1.45529,2.8168 -2.21191,3.47186 -6.22799,5.38779 -4.24442,2.0247 -5.68662,4.14477 -6.4585,9.49452 -0.20221,1.40143 -0.7493,3.13037 -1.216,3.84265 l -0.84851,1.29501 3.22198,-0.33694 c 4.01142,-0.41925 6.60849,-1.47992 8.86051,-3.61838 2.1401,-2.0321 3.177,-4.33502 3.177,-7.05641 0,-4.03127 1.01527,-7.1272 3.12282,-9.52139 l 0.028,-0.0315 c 0.024,-1.06268 0.045,-2.12521 0.047,-3.18637 -0.18451,-0.0449 -0.36353,-0.0658 -0.53754,-0.0491 z m -5.06215,10.35442 c 0.2414,-0.044 0.10721,0.87765 -0.44079,2.72282 -0.7584,2.55399 -2.05732,4.17566 -4.24829,5.30408 -1.96439,1.01178 -1.9105,0.6488 0.2517,-1.69708 1.15619,-1.25412 2.60111,-3.25904 3.21109,-4.455 0.6236,-1.22216 1.03861,-1.84057 1.22629,-1.87482 z"
       id="path11250" />
    <path
       style="fill:#0000ff;fill-rule:evenodd;stroke:none"
       d="m 230.38881,210.73933 c -1.66321,2.20932 -2.35589,4.58155 -2.35589,7.80573 0,2.95249 0.4425,5.6698 1.35589,8.29147 0.19531,0.56009 0.49372,0.34314 1.0672,-0.77722 0.7923,-1.54645 1.90454,-2.71359 4.12219,-4.39923 -0.60791,-1.8193 -1.25946,-3.61929 -1.9425,-5.40485 -0.33307,0.15809 -0.44067,-0.087 -0.33331,-0.8666 -0.61048,-1.56317 -1.24658,-3.11393 -1.91358,-4.64932 z"
       id="path11252" />
    <path
       style="fill:#0000ff;fill-rule:evenodd;stroke:none"
       d="m 107.87174,278.60478 -2.24121,0.99167 c -2.56601,1.13504 -6.075598,4.03665 -6.075598,5.02347 0,0.36649 0.43412,1.20239 0.964298,1.85724 l 0.9638,1.19012 2.49329,-1.65106 c 1.37119,-0.9082 3,-1.65158 3.61951,-1.65158 2.63739,0 9.4754,5.72223 11.57031,9.6821 1.0007,1.89181 0.72049,4.23468 -0.67331,5.6286 -1.54291,1.5426 -2.29269,1.57678 -5.07831,0.23099 l -2.15381,-1.04129 -1.16949,1.4299 c -0.2865,0.35025 -0.4841,0.63467 -0.6377,0.89453 h 13.91861 c 1.36872,-2.54517 1.20261,-5.70313 -0.57681,-9.22891 -1.4664,-2.90619 -9.43881,-10.67722 -12.47461,-12.15998 z"
       id="path11254" />
    <path
       style="fill:#0000ff;fill-rule:evenodd;stroke:none"
       d="m 3.5675196,178.34184 c -0.6038,0.72596 -1.1873,1.46863 -1.7756,2.2071 0.71159,2.3298 1.44971,6.17718 1.63969,8.54986 0.48301,6.02765 1.0748,7.96347 3.1326,10.24124 2.4643,2.7276 6.2882004,4.28653 11.2489004,4.58679 l 4.0261,0.24338 -1.8252,-2.71197 c -1.00369,-1.49164 -2.2037,-4.02817 -2.666,-5.63739 -1.5775,-5.48761 -2.94231,-7.22553 -7.1887,-9.15241 -3.7231004,-1.68939 -5.5138004,-3.9292 -6.5918004,-8.3266 z m 2.36257,10.66339 c 0.13811,0 0.8863,1.10712 1.6625,2.46085 0.7762,1.35391 2.245,3.33615 3.2638004,4.40491 1.01849,1.06875 1.6297,1.93475 1.35809,1.93475 -1.06419,-0.0188 -3.8773904,-2.22745 -4.8244904,-3.78787 -0.97051,-1.59857 -1.96471,-5.0126 -1.4599,-5.0126 z"
       id="path11256" />
    <path
       style="fill:#0000ff;fill-rule:evenodd;stroke:none"
       d="m 141.60764,272.73894 c -0.10849,-0.0187 -0.18961,-0.0188 -0.23969,5.2e-4 -0.40121,0.15399 -1.0339,0.84839 -1.40561,1.54306 -0.60629,1.13278 -0.54721,1.37512 0.57459,2.35077 0.6879,0.59845 3.2135,2.17459 5.61209,3.50262 5.6969,3.15433 7.5965,4.96802 8.354,7.97678 0.53728,2.13369 0.80632,2.44598 2.49389,2.89541 v 5.2e-4 c 2.669,0.71225 2.66912,0.71299 2.66912,-0.34829 0,-0.5275 0.25562,-1.69355 0.56836,-2.59107 l 0.56903,-1.63193 h 6.89356 c 9.62671,0 23.40533,-2.40732 25.7431,-4.4974 0.83051,-0.74256 1.83154,-4.63468 1.32239,-5.14337 -0.13367,-0.13382 -2.11096,0.43844 -4.39398,1.27175 -16.29279,5.94608 -30.6601,5.00794 -43.7007,-2.85357 -2.19971,-1.32605 -4.3006,-2.34522 -5.06021,-2.47583 z"
       id="path11258" />
    <path
       style="fill:#0000ff;fill-rule:evenodd;stroke:none"
       d="m -15.546582,208.88362 c -0.439896,0.97211 -0.860794,1.95356 -1.278,2.93729 1.112503,0.87311 2.328003,2.18558 2.898606,3.36414 0.612304,1.26513 1.035995,2.6997 0.942001,3.18841 -0.130798,0.67926 -0.3228,0.55533 -0.815399,-0.52606 -0.354599,-0.77805 -1.729996,-2.57517 -3.056702,-3.99356 -0.205795,-0.22007 -0.378799,-0.42459 -0.562698,-0.63459 -0.947205,2.30622 -1.822602,4.64673 -2.642807,7.012 0.613098,0.61206 1.333206,1.24334 2.311004,1.9978 2.693802,2.07822 4.850403,5.15451 4.850403,6.91895 0,2.43219 2.780594,-0.82196 3.8876036,-4.5496 1.060501,-3.57043 0.956802,-6.89984 -0.301804,-9.68002 -1.3892966,-3.069 -2.9920956,-4.6358 -6.2321926,-6.03476 z"
       id="path11260" />
    <path
       style="fill:#0000ff;fill-rule:evenodd;stroke:none"
       d="m 97.184542,88.800523 c -0.58938,-0.0324 -1.2814,1.06214 -2.32849,3.45095 -0.92941,2.11937 -1.18811,3.6567 -1.18811,7.10861 0,4.636847 0.13919,5.042717 4.1037,11.719687 0.8215,1.38375 1.37381,3.29607 1.57199,5.44153 0.4762,5.15978 1.057008,6.43259 4.132998,9.06043 1.94079,1.65809 2.9964,3.02296 3.41269,4.41264 0.33151,1.10669 0.74069,2.0112 0.90948,2.01019 0.16849,-9.7e-4 0.7601,-1.10318 1.31369,-2.44946 3.0903,-7.5123 1.302,-13.59433 -4.92071,-16.7354 -2.35489,-1.18876 -3.51001,-2.17967 -4.666908,-4.00389 -2.78338,-4.38905 -3.14099,-7.41279 -1.5849,-13.402277 0.83732,-3.22353 0.86881,-3.89974 0.24912,-5.37382 -0.33411,-0.79458 -0.65091,-1.21978 -1.00461,-1.2392 z m 5.321108,25.666657 c 0.94879,-0.032 4.26379,4.06557 4.80279,6.06682 0.3328,1.22212 0.4863,2.49635 0.34992,2.83134 -0.1427,0.34963 -0.26639,0.25739 -0.2894,-0.21654 -0.022,-0.45419 -1.22641,-2.51362 -2.67529,-4.57698 -1.4491,-2.06321 -2.50409,-3.88154 -2.34452,-4.0411 0.041,-0.0407 0.093,-0.0615 0.1565,-0.0636 z"
       id="path11262" />
    <path
       style="fill:#0000ff;fill-rule:evenodd;stroke:none"
       d="m 59.54865,279.90907 c -0.60291,-0.0431 -1.2191,0.14441 -2.3425,0.5271 -1.29711,0.44205 -3.8423,0.95591 -5.6555,1.14154 -1.8131,0.18583 -3.297,0.41788 -3.297,0.51468 0,0.0973 0.3752,1.11454 0.8336,2.26032 0.7926,1.98056 0.9435,2.08359 3.0665,2.08359 2.1931,0 2.2486,0.0437 3.1248,2.46136 1.799,4.96387 4.1362,9.40958 6.334,12.29175 h 5.7997 c -4.0219,-4.37299 -7.24049,-11.06159 -6.5283,-13.8989 0.18679,-0.74463 1.06709,-2.18234 1.9559,-3.19464 0.88879,-1.01239 1.5258,-1.92007 1.41749,-2.01849 -0.10921,-0.0979 -1.20979,-0.68802 -2.4458,-1.31155 -1.0704,-0.5398 -1.66,-0.81364 -2.26289,-0.85682 z"
       id="path11264" />
    <path
       style="fill:#0000ff;fill-rule:evenodd;stroke:none"
       d="m 103.44153,268.3449 -3.768798,3.28042 c -3.4407,2.99448 -9.05981,6.52106 -10.39059,6.52106 -0.2977,0 -1.12171,0.22034 -1.83081,0.4899 -1.21372,0.46139 -1.2554,0.60135 -0.70902,2.38177 0.5701,1.85752 0.61829,1.8859 2.68039,1.55753 3.6207,-0.57657 12.128598,-5.86618 15.807308,-9.82782 l 1.2707,-1.36838 -1.52961,-1.51721 z"
       id="path11266" />
    <path
       style="fill:#0000ff;fill-rule:evenodd;stroke:none"
       d="m 128.83319,192.38384 -1.96371,3.48248 c -1.078,1.91528 -2.32971,5.06311 -2.78119,6.99545 -0.45151,1.93231 -1.2713,4.77579 -1.82159,6.31848 -0.55011,1.543 -1.45981,4.80768 -2.0221,7.25486 -0.5621,2.4472 -1.86011,6.8977 -2.88461,9.88983 -1.67569,4.89514 -1.83551,5.82995 -1.59369,9.3276 0.31149,4.50431 2.67609,12.00711 4.69479,14.89572 0.74829,1.07047 1.77121,2.52378 2.27329,3.22925 0.849,1.19312 0.77829,1.17618 -1.0108,-0.24338 -2.26301,-1.79571 -5.0058,-5.28494 -7.1944,-9.15243 -0.862,-1.5224 -1.42789,-2.26721 -1.25782,-1.65363 1.88721,6.80701 1.14161,11.19034 -2.91101,17.11472 -0.81469,1.19134 -1.4815,2.45923 -1.4815,2.81689 0,0.82904 2.06671,3.04892 2.83859,3.04892 0.7449,0 3.2453,-2.66668 5.4379,-5.79965 1.987,-2.83896 2.9338,-3.34222 4.17489,-2.21899 3.52951,3.19409 2.2359,14.57974 -2.5383,22.33868 -0.89209,1.44983 -1.6221,2.83454 -1.6221,3.07733 0,0.2428 0.64139,0.9664 1.4252,1.60819 1.82682,1.49573 1.86802,1.49173 3.40909,-0.33951 2.4964,-2.96674 5.24051,-10.04388 6.28382,-16.20468 0.181,-1.06879 0.53408,-1.94357 0.78351,-1.94357 0.2499,0 1.30468,0.99124 2.34399,2.20245 l 1.88931,2.20245 1.79941,-1.95852 c 0.98968,-1.07727 1.7099,-2.12702 1.59991,-2.33216 -2.37979,-4.44906 -7.73059,-12.64959 -9.61551,-14.73657 -4.54681,-5.03467 -5.21908,-6.63141 -2.7936,-6.61819 3.87649,0.0136 10.45779,4.92166 13.59399,10.13788 1.49679,2.48989 1.80051,3.49407 1.78751,5.88647 -0.021,3.42959 -0.79831,5.07611 -4.94181,10.47635 -3.06131,3.98962 -4.36941,6.42605 -3.67941,6.85229 0.20499,0.12683 1.18741,0.36591 2.1828,0.53174 1.80609,0.30051 1.8183,0.28922 6.13141,-5.73505 2.37689,-3.31988 4.79999,-7.02151 5.38519,-8.22586 l 1.06409,-2.18954 4.0545,2.10736 c 3.01721,1.56833 4.8342,2.16418 7.10189,2.32803 l 3.0473,0.22068 0.87799,-2.19367 c 0.48321,-1.20669 0.81061,-2.25375 0.72662,-2.32544 -0.083,-0.0721 -1.54071,-0.52978 -3.23858,-1.01751 -7.29772,-2.09555 -14.32732,-7.66498 -16.33333,-12.9408 -0.5322,-1.39917 -0.5047,-1.43366 0.88571,-1.09759 3.13251,0.75695 11.88829,3.59088 13.35319,4.3222 4.26685,2.13019 6.42023,5.20151 6.4502,9.18033 0.031,4.86484 -3.8103,10.49554 -9.06139,13.28137 -1.2716,0.6745 -2.31201,1.3588 -2.31201,1.52032 0,0.16144 0.8407,0.6944 1.8681,1.18442 1.82982,0.8725 1.91253,0.86411 4.05449,-0.3912 3.75544,-2.2009 7.41254,-5.88208 8.93494,-8.99378 2.03351,-4.14877 2.04376,-9.15466 0.03,-12.75787 -0.77576,-1.38806 -1.41071,-2.61063 -1.41071,-2.71768 0,-0.64951 4.65619,0.0256 9.26923,1.34411 l 5.38049,1.53791 1.99158,-1.40818 c 1.09564,-0.77468 2.0025,-1.55209 2.0025,-1.7265 0.03,-0.85782 -7.38257,-3.4353 -16.26519,-5.65597 -11.90601,-2.97644 -13.8406,-3.60538 -19.31609,-6.28025 -6.33081,-3.09286 -10.45331,-7.10977 -13.39661,-13.05398 -3.40439,-6.8757 -4.836,-15.10657 -5.55829,-31.95258 z m 7.12476,39.31598 c 0.088,0.0225 0.25,0.23089 0.50119,0.58499 0.40439,0.57006 1.14569,2.14215 1.64749,3.49279 0.50189,1.35068 1.48981,2.9094 2.1947,3.46387 1.26819,0.99753 7.4205,3.19885 14.4415,5.16715 2.96031,0.82968 3.29399,1.01928 1.81383,1.0325 -2.54271,0.022 -13.24571,-2.84973 -15.77483,-4.23282 -2.31479,-1.26581 -4.1261,-4.29468 -4.71701,-7.88684 -0.19391,-1.18042 -0.25351,-1.65921 -0.1069,-1.62161 z m -9.42893,-22.44205 c 1.081,-0.1373 2.26349,1.96911 2.77811,5.40896 0.30161,2.01502 0.26959,1.98679 -1.15079,-1.0144 -1.7658,-3.73081 -2.11261,-3.40836 -3.0216,2.81222 -0.51349,3.51392 -1.14801,5.37671 -3.0954,9.0842 -1.34741,2.56516 -2.87869,6.06256 -3.40341,7.77268 l -0.95389,3.10937 0.19009,-2.33215 c 0.1048,-1.28265 1.06119,-4.16144 2.12549,-6.39807 1.0643,-2.2366 2.62561,-6.88068 3.46952,-10.3198 0.84381,-3.43908 1.76321,-6.68103 2.0433,-7.20422 0.30939,-0.57797 0.6582,-0.87302 1.01858,-0.91882 z m 2.4531,9.81646 c 0.565,0.0962 1.19531,0.87757 1.91351,2.32856 0.8418,1.70053 1.08081,3.56204 1.3302,10.36422 0.318,8.67099 0.62271,10.02045 2.9502,13.07209 1.1355,1.48871 1.2092,1.72903 0.36999,1.20507 -2.92651,-1.82775 -4.3435,-6.11911 -4.37649,-13.24105 -0.011,-2.56501 -0.25519,-5.01355 -0.5426,-5.44101 -0.64151,-0.95465 -1.3538,-0.15171 -5.4177,6.10815 -3.39499,5.2302 -4.33249,8.76856 -3.45099,13.0297 0.71149,3.43927 0.38309,3.99676 -0.75448,1.28106 -0.6348,-1.51471 -0.78101,-3.00393 -0.58179,-5.92935 0.2312,-3.39703 0.61551,-4.59759 2.94189,-9.20151 1.4715,-2.91198 2.92371,-6.63385 3.22611,-8.27081 0.6889,-3.72192 1.45041,-5.46549 2.39221,-5.30512 z m -0.10129,1.29242 -0.69711,2.59107 c -0.38361,1.42514 -1.39731,4.22314 -2.25311,6.21823 -1.7078,3.98126 -1.09461,3.79956 1.38128,-0.40927 1.0539,-1.79147 1.9845,-2.75702 2.76621,-2.87167 0.9938,-0.14469 1.125,-0.38801 0.83819,-1.55445 -0.18689,-0.76074 -0.72131,-1.96585 -1.1875,-2.67837 z"
       id="path11268" />
    <path
       style="fill:#0000ff;fill-rule:evenodd;stroke:none"
       d="m 80.74573,272.82683 c -0.099,0.0147 -0.1964,0.0468 -0.2914,0.0977 -2.33099,1.24752 -2.4255,1.9765 -0.6992,5.38211 2.502002,4.93609 2.788192,5.95092 3.175992,11.25512 0.29531,4.03568 0.5867,5.24396 1.5942,6.60685 0.6783,0.91735 1.3994,1.66812 1.60249,1.66812 0.203,0 0.64871,-1.16468 0.99011,-2.58847 1.52301,-6.34885 -3.3031,-22.87507 -6.372192,-22.42136 z"
       id="path11270" />
    <path
       style="fill:#0000ff;fill-rule:evenodd;stroke:none"
       d="m 139.55567,44.972203 c -1.00821,-0.0385 -1.97849,0.0198 -2.8758,0.18809 l -1.83661,0.34418 1.01749,1.72443 c 0.93601,1.58644 1.2721,1.74753 4.19769,2.01282 1.6915,0.15338 3.1402,0.58615 4.4726,1.31929 -0.78931,-1.78287 -1.6221,-3.54729 -2.48261,-5.29943 -0.84298,-0.14911 -1.68121,-0.25842 -2.49279,-0.28938 z"
       id="path11272" />
    <path
       style="fill:#0000ff;fill-rule:evenodd;stroke:none"
       d="m 128.68964,300.94551 c -0.059,0 -0.16309,0.0954 -0.29099,0.2439 h 0.61551 c -0.12619,-0.14691 -0.2395,-0.2439 -0.32449,-0.2439 z"
       id="path11274" />
    <path
       style="fill:#0000ff;fill-rule:evenodd;stroke:none"
       d="m 69.13974,290.34358 c -6.07609,-0.0245 -6.8846,0.35157 -5.8947,2.74143 0.62801,1.51562 0.6612,1.5264 5.6456,1.73221 4.33031,0.17904 5.3886,0.41232 7.7618,1.71048 1.4917,0.81601 3.25529,2.4707 5.070012,4.66174 h 5.4653 c -0.063,-0.0875 -0.13221,-0.18271 -0.18759,-0.26199 -3.1978,-4.57618 -6.309502,-7.51133 -9.727602,-9.17515 -2.50741,-1.22058 -3.48481,-1.39221 -8.1328,-1.40869 z"
       id="path11276" />
    <path
       style="fill:#0000ff;fill-rule:evenodd;stroke:none"
       d="m 169.24117,287.47246 c -2.06769,0 -2.41193,0.16705 -2.93164,1.42471 -2.66089,6.43888 -4.61188,9.72757 -7.4704,12.29227 h 6.18469 c 0.7851,-0.99472 1.53003,-2.04212 2.20142,-3.16828 1.93609,-3.24746 4.35888,-8.83349 4.35888,-10.05004 0,-0.27396 -1.05432,-0.49866 -2.34301,-0.49866 z"
       id="path11278" />
    <path
       style="fill:#0000ff;fill-rule:evenodd;stroke:none"
       d="m 150.65265,104.55408 c -5.7529,-0.0233 -9.87451,3.26857 -11.78741,9.41441 -0.54142,1.74005 -0.87909,3.26856 -0.74991,3.39772 0.1289,0.12897 1.64981,-0.25555 3.3797,-0.85422 1.72989,-0.59864 3.4487,-1.0883 3.81891,-1.0883 1.75729,0 5.87298,-2.71556 7.06878,-4.66431 0.6977,-1.13711 1.67679,-2.19685 2.17609,-2.3554 0.56407,-0.17913 1.42448,0.048 2.5916,0.64543 -0.01,-1.00568 -0.022,-2.01096 -0.051,-3.0148 -2.34343,-1.00962 -4.36531,-1.47335 -6.44712,-1.48053 z m -1.37411,1.89859 c 0.46301,-0.0356 0.8955,0.0103 1.27789,0.14522 0.81241,0.28657 0.57449,0.51704 -1.2955,1.25418 -1.2598,0.49647 -3.1651,1.4741 -4.2338,2.17196 -2.4039,1.56969 -2.51251,0.97225 -0.22589,-1.24385 1.4227,-1.37886 3.0882,-2.22053 4.4773,-2.32751 z"
       id="path11280" />
    <path
       style="fill:#0000ff;fill-rule:evenodd;stroke:none"
       d="m 116.41699,39.775103 c -3.29681,0.007 -9.25311,1.01972 -9.91979,1.68619 -0.14582,0.14587 0.50628,0.81543 1.449,1.48776 1.60699,1.14656 2.1825,1.22333 9.22739,1.24643 6.60251,0.0214 7.85971,0.16754 10.36419,1.20355 5.37369,2.22321 7.11621,5.29363 4.43381,7.81348 -1.87991,1.76608 -2.88361,4.27716 -2.8396,7.10138 0.049,3.13888 0.77219,5.12854 3.0184,8.30492 1.7511,2.47627 1.7663,2.48442 2.2598,1.20044 0.2735,-0.71094 1.40399,-3.27842 2.5126,-5.70559 2.56229,-5.611 2.55579,-7.08297 -0.056,-12.30107 -4.03021,-8.05189 -10.8378,-12.054 -20.44989,-12.0375 z m 17.78806,14.09113 c 0.28171,4.4e-4 0.26871,0.66423 -0.199,1.98953 -0.42261,1.19809 -0.76841,3.31482 -0.76841,4.7041 v 0.005 c 0,2.62526 -0.68539,3.38452 -1.22781,1.36012 -0.56461,-2.10669 -0.34189,-4.26294 0.6268,-6.06938 0.71039,-1.32709 1.28671,-1.98999 1.56839,-1.98955 z"
       id="path11282" />
    <path
       style="fill:#0000ff;fill-rule:evenodd;stroke:none"
       d="m 122.71991,201.11665 c -0.11938,-0.11932 -1.37478,1.47944 -2.78949,3.55277 -2.673,3.91736 -4.8421,8.4602 -4.81311,10.08362 v 5.2e-4 c 0.015,0.86828 0.078,0.86108 0.82111,-0.0961 1.12219,-1.44596 7.04681,-13.27552 6.78149,-13.54078 z"
       id="path11284" />
    <path
       style="fill:#0000ff;fill-rule:evenodd;stroke:none"
       d="m 53.93605,299.47222 c -0.33479,-0.0155 -0.7039,0.0178 -1.15699,0.0786 -1.1111,0.14908 -2.16161,0.41238 -2.33431,0.58548 -0.12669,0.12668 0.1458,0.54516 0.5524,1.05316 h 5.9893 c -1.4196,-1.20706 -2.1326,-1.67462 -3.0504,-1.71722 z"
       id="path11286" />
    <path
       style="fill:#0000ff;fill-rule:evenodd;stroke:none"
       d="m 104.39084,224.41551 c -0.19919,-0.0511 -0.5419,0.28479 -1.22061,1.08469 -0.70581,0.83209 -2.8573,3.25934 -4.781098,5.39398 -1.92379,2.13464 -3.49798,4.0549 -3.49798,4.26798 0,0.88989 2.2778,-0.31852 4.69329,-2.4903 2.882118,-2.59122 5.330998,-6.35419 5.051918,-7.76333 -0.058,-0.29224 -0.12601,-0.46241 -0.24552,-0.49299 z"
       id="path11288" />
    <path
       style="fill:#0000ff;fill-rule:evenodd;stroke:none"
       d="m 93.223582,149.96321 c -0.47132,-0.11996 -0.95981,1.02005 -1.9477,3.80597 -1.6112,4.5441 -2.2728,5.43909 -5.782,7.82227 -1.6566,1.125 -3.2505,2.49124 -3.54249,3.0365 -0.6818,1.27334 -0.691,4.68704 -0.013,4.68704 0.28489,0 0.51829,-0.37372 0.51829,-0.83045 0,-0.94433 7.68889,-8.45855 8.67961,-8.48162 1.29459,-0.0308 0.60831,3.19335 -1.62728,7.64501 -2.9076,5.78919 -3.954,9.35554 -3.9,13.29114 l 0.042,3.14453 0.69559,-2.84994 c 0.38239,-1.5676 2.39401,-6.33548 4.4711,-10.59522 3.7088,-7.60727 3.78021,-7.82864 3.98209,-12.44729 0.15509,-3.54593 0,-5.20026 -0.6402,-6.72672 -0.3757,-0.8992 -0.6528,-1.42752 -0.93591,-1.50119 z"
       id="path11290" />
    <path
       style="fill:#0000ff;fill-rule:evenodd;stroke:none"
       d="m 113.05435,61.751533 c -0.42221,0.0131 -0.95788,0.12248 -1.63598,0.30179 -5.1135,1.35194 -9.3916,5.20048 -12.066498,10.85412 -1.42331,3.00888 -1.6076,3.92033 -1.6076,8.05635 0,4.32279 0.13909,4.96085 1.94039,8.73332 1.616488,3.38608 1.942998,4.62481 1.942998,7.37371 0,4.434607 1.091,6.917517 4.1864,9.527577 1.40781,1.18703 2.9364,2.88683 3.39661,3.77703 0.79638,1.53993 0.87188,1.57055 1.55499,0.63666 1.12741,-1.54189 1.74148,-4.36423 1.74148,-8.04447 0,-4.341197 -1.45221,-7.365127 -4.6607,-9.679517 -4.3277,-3.12166 -5.53699,-4.5605 -6.21771,-7.39747 -0.84162,-3.50788 -0.44532,-6.12699 1.53579,-10.15133 1.9115,-3.88278 4.3382,-6.05548 8.43882,-7.55612 2.97158,-1.08709 2.9844,-1.09662 2.9714,-3.22305 -0.01,-2.41924 -0.25409,-3.248 -1.52039,-3.20859 z m -8.1008,32.42592 c 1.2103,0 3.86081,3.50151 4.2081,5.55987 0.1814,1.074937 0.44181,2.362117 0.57819,2.860807 0.13709,0.49883 0.03,0.90692 -0.2392,0.90692 -0.26849,0 -0.6177,-0.64105 -0.77621,-1.42471 -0.15839,-0.78382 -1.23181,-2.882657 -2.38541,-4.663797 -1.34439,-2.07584 -1.8421,-3.23908 -1.3855,-3.23908 z"
       id="path11292" />
    <path
       style="fill:#0000ff;fill-rule:evenodd;stroke:none"
       d="m 96.063142,281.28728 c -0.61969,-0.0907 -3.24469,1.83511 -3.24469,2.44791 0,1.45584 2.96302,5.68154 6.52671,9.30795 2.030478,2.06631 4.001188,3.75686 4.379088,3.75686 0.37799,0 1.22311,-0.50317 1.87838,-1.1188 l 1.1911,-1.11932 -4.1015,-4.27262 c -2.2561,-2.34994 -4.613308,-5.28573 -5.237878,-6.52414 -0.62479,-1.2384 -1.20709,-2.3338 -1.29511,-2.43188 -0.022,-0.025 -0.055,-0.04 -0.096,-0.046 z"
       id="path11294" />
    <path
       style="fill:#0000ff;fill-rule:evenodd;stroke:none"
       d="m 192.21645,259.49117 c -0.87274,0 -2.79663,0.75708 -3.50049,1.37768 -0.12524,0.11044 0.85028,1.30277 2.16827,2.64996 5.71033,5.83713 6.52179,14.93537 1.93891,21.7465 -3.45471,5.13498 -9.25177,7.94271 -17.97101,8.70333 l -4.1568,0.36277 -1.10327,2.27118 v -0.004 l -1.10333,2.27118 h 2.19519 c 4.98492,-0.01 11.51342,-1.1153 15.37274,-2.60346 10.16266,-3.91916 16.08935,-14.12207 14.01977,-24.13391 -1.21661,-5.88446 -5.41766,-12.64108 -7.85998,-12.64108 z"
       id="path11296" />
    <path
       style="fill:#ffffff;stroke:#000000;stroke-width:0.0499999mm"
       d="m 113.95067,43.688323 c 0,-3.83837 -3.11161,-6.94999 -6.94999,-6.94999 -3.83837,0 -6.94999,3.11162 -6.94999,6.94999 0,3.83838 3.11162,6.95 6.94999,6.95 3.83838,0 6.94999,-3.11162 6.94999,-6.95 z"
       id="path11084" />
    <text
       xml:space="preserve"
       style="font-size:10.1906px;font-family:'.Hiragino Kaku Gothic Interface';-inkscape-font-specification:'.Hiragino Kaku Gothic Interface';fill:#000000;fill-opacity:0.950089;stroke:#000000;stroke-width:0;stroke-linecap:round;stroke-linejoin:round"
       x="33.596382"
       y="19.60454"
       id="text18722"
       transform="scale(0.89661195,1.1153097)"><tspan
         sodipodi:role="line"
         id="tspan18720"
         style="fill:#000000;stroke-width:0"
         x="33.596382"
         y="19.60454">4mm</tspan></text>
  </g>
</svg>
