<?xml version="1.0" encoding="UTF-8" standalone="no"?>
<svg
   width="313.000mm"
   height="188.250mm"
   viewBox="-118.000000 -150.000076 312.999939 188.250076"
   version="1.1"
   id="svg6947"
   sodipodi:docname="sticks.svg"
   inkscape:version="1.2.1 (9c6d41e, 2022-07-14)"
   xmlns:inkscape="http://www.inkscape.org/namespaces/inkscape"
   xmlns:sodipodi="http://sodipodi.sourceforge.net/DTD/sodipodi-0.dtd"
   xmlns="http://www.w3.org/2000/svg"
   xmlns:svg="http://www.w3.org/2000/svg">
  <defs
     id="defs6951" />
  <sodipodi:namedview
     id="namedview6949"
     pagecolor="#ffffff"
     bordercolor="#000000"
     borderopacity="0.25"
     inkscape:showpageshadow="2"
     inkscape:pageopacity="0.0"
     inkscape:pagecheckerboard="0"
     inkscape:deskcolor="#d1d1d1"
     inkscape:document-units="mm"
     showgrid="false"
     inkscape:zoom="1.4775821"
     inkscape:cx="-280.52587"
     inkscape:cy="208.78704"
     inkscape:window-width="2560"
     inkscape:window-height="1387"
     inkscape:window-x="0"
     inkscape:window-y="215"
     inkscape:window-maximized="1"
     inkscape:current-layer="svg6947" />
  <rect
     transform="matrix(1,0,0,-1,-68.5,-75)"
     style="stroke:#000000;stroke-width:0.05mm;fill:none"
     x="-49.5"
     y="-75"
     width="99"
     height="150"
     id="rect6873" />
  <path
     transform="matrix(1,0,0,-0.789474,-120.5,9.47368)"
     style="stroke:#000000;stroke-width:0.05mm;fill:none"
     d="M7,202L7,12"
     id="path6875" />
  <path
     transform="matrix(1,0,0,-0.789474,-116,9.47368)"
     style="stroke:#000000;stroke-width:0.05mm;fill:none"
     d="M7,202L7,12"
     id="path6877" />
  <path
     transform="matrix(1,0,0,-0.789474,-111.5,9.47368)"
     style="stroke:#000000;stroke-width:0.05mm;fill:none"
     d="M7,202L7,12"
     id="path6879" />
  <path
     transform="matrix(1,0,0,-0.789474,-107,9.47368)"
     style="stroke:#000000;stroke-width:0.05mm;fill:none"
     d="M7,202L7,12"
     id="path6881" />
  <path
     transform="matrix(1,0,0,-0.789474,-102.5,9.47368)"
     style="stroke:#000000;stroke-width:0.05mm;fill:none"
     d="M7,202L7,12"
     id="path6883" />
  <path
     transform="matrix(1,0,0,-0.789474,-98,9.47368)"
     style="stroke:#000000;stroke-width:0.05mm;fill:none"
     d="M7,202L7,12"
     id="path6885" />
  <path
     transform="matrix(1,0,0,-0.789474,-80,9.47368)"
     style="stroke:#000000;stroke-width:0.05mm;fill:none"
     d="M7,202L7,12"
     id="path6887" />
  <path
     transform="matrix(1,0,0,-0.789474,-71,9.47368)"
     style="stroke:#000000;stroke-width:0.05mm;fill:none"
     d="M7,202L7,12"
     id="path6889" />
  <path
     transform="matrix(1,0,0,-0.789474,-93.5,9.47368)"
     style="stroke:#000000;stroke-width:0.05mm;fill:none"
     d="M7,202L7,12"
     id="path6891" />
  <path
     transform="matrix(1,0,0,-0.789474,-89,9.47368)"
     style="stroke:#000000;stroke-width:0.05mm;fill:none"
     d="M7,202L7,12"
     id="path6893" />
  <path
     transform="matrix(1,0,0,-0.789474,-84.5,9.47368)"
     style="stroke:#000000;stroke-width:0.05mm;fill:none"
     d="M7,202L7,12"
     id="path6895" />
  <path
     transform="matrix(1,0,0,-0.789474,-62,9.47368)"
     style="stroke:#000000;stroke-width:0.05mm;fill:none"
     d="M7,202L7,12"
     id="path6897" />
  <path
     transform="matrix(1,0,0,-0.789474,-53,9.47368)"
     style="stroke:#000000;stroke-width:0.05mm;fill:none"
     d="M7,202L7,12"
     id="path6899" />
  <path
     transform="matrix(1,0,0,-0.789474,-44,9.47368)"
     style="stroke:#000000;stroke-width:0.05mm;fill:none"
     d="M7,202L7,12"
     id="path6901" />
  <path
     transform="matrix(1,0,0,-0.789474,-35,9.47368)"
     style="stroke:#000000;stroke-width:0.05mm;fill:none"
     d="M7,202L7,12"
     id="path6903" />
  <path
     transform="matrix(1,0,0,-1,-120,0)"
     style="stroke:#000000;stroke-width:0.05mm;fill:none"
     d="M2,75L101,75"
     id="path6905" />
  <text
     xml:space="preserve"
     style="font-size:8.20962px;font-family:'.Hiragino Kaku Gothic Interface';-inkscape-font-specification:'.Hiragino Kaku Gothic Interface';fill:#000000;fill-opacity:0.950089;stroke:#000000;stroke-width:0;stroke-linecap:round;stroke-linejoin:round"
     x="-130.50771"
     y="-116.53874"
     id="text1676"
     transform="scale(0.74695952,1.3387606)"><tspan
       sodipodi:role="line"
       id="tspan1674"
       style="stroke-width:0"
       x="-130.50771"
       y="-116.53874">4.5mm</tspan></text>
</svg>
