999
"DXF R12 Output" (www.mydxf.blogspot.com)
 0 
SECTION
 2 
HEADER
 9 
$ACADVER
 1 
AC1009
 9 
$EXTMIN
 10 
 0 
 20 
 0 
 9 
$EXTMAX
 10 
 8.5 
 20 
 11 
 0 
ENDSEC
 0 
SECTION
 2 
ENTITIES
0
LINE
8
Layer 1
10
381.499000
20
925.333000
11
381.499000
21
800.333000
0
LINE
8
Layer 1
10
381.499000
20
800.333000
11
381.336369
21
797.112303
0
LINE
8
Layer 1
10
381.336369
20
797.112303
11
380.859033
21
793.984643
0
LINE
8
Layer 1
10
380.859033
20
793.984643
11
380.082825
21
790.965852
0
LINE
8
Layer 1
10
380.082825
20
790.965852
11
379.023578
21
788.071766
0
LINE
8
Layer 1
10
379.023578
20
788.071766
11
377.697126
21
785.318216
0
LINE
8
Layer 1
10
377.697126
20
785.318216
11
376.119303
21
782.721037
0
LINE
8
Layer 1
10
376.119303
20
782.721037
11
374.305941
21
780.296062
0
LINE
8
Layer 1
10
374.305941
20
780.296062
11
372.272875
21
778.059125
0
LINE
8
Layer 1
10
372.272875
20
778.059125
11
370.035938
21
776.026059
0
LINE
8
Layer 1
10
370.035938
20
776.026059
11
367.610963
21
774.212697
0
LINE
8
Layer 1
10
367.610963
20
774.212697
11
365.013784
21
772.634874
0
LINE
8
Layer 1
10
365.013784
20
772.634874
11
362.260234
21
771.308422
0
LINE
8
Layer 1
10
362.260234
20
771.308422
11
359.366148
21
770.249175
0
LINE
8
Layer 1
10
359.366148
20
770.249175
11
356.347357
21
769.472967
0
LINE
8
Layer 1
10
356.347357
20
769.472967
11
353.219697
21
768.995631
0
LINE
8
Layer 1
10
353.219697
20
768.995631
11
349.999000
21
768.833000
0
LINE
8
Layer 1
10
349.999000
20
768.833000
11
346.778303
21
768.995631
0
LINE
8
Layer 1
10
346.778303
20
768.995631
11
343.650643
21
769.472967
0
LINE
8
Layer 1
10
343.650643
20
769.472967
11
340.631852
21
770.249175
0
LINE
8
Layer 1
10
340.631852
20
770.249175
11
337.737766
21
771.308422
0
LINE
8
Layer 1
10
337.737766
20
771.308422
11
334.984216
21
772.634874
0
LINE
8
Layer 1
10
334.984216
20
772.634874
11
332.387037
21
774.212697
0
LINE
8
Layer 1
10
332.387037
20
774.212697
11
329.962062
21
776.026059
0
LINE
8
Layer 1
10
329.962062
20
776.026059
11
327.725125
21
778.059125
0
LINE
8
Layer 1
10
327.725125
20
778.059125
11
325.692059
21
780.296062
0
LINE
8
Layer 1
10
325.692059
20
780.296062
11
323.878697
21
782.721037
0
LINE
8
Layer 1
10
323.878697
20
782.721037
11
322.300874
21
785.318216
0
LINE
8
Layer 1
10
322.300874
20
785.318216
11
320.974422
21
788.071766
0
LINE
8
Layer 1
10
320.974422
20
788.071766
11
319.915175
21
790.965852
0
LINE
8
Layer 1
10
319.915175
20
790.965852
11
319.138967
21
793.984643
0
LINE
8
Layer 1
10
319.138967
20
793.984643
11
318.661631
21
797.112303
0
LINE
8
Layer 1
10
318.661631
20
797.112303
11
318.499000
21
800.333000
0
LINE
8
Layer 1
10
318.499000
20
800.333000
11
318.499000
21
925.333000
0
LINE
8
Layer 1
10
318.499000
20
925.333000
11
318.661631
21
928.553697
0
LINE
8
Layer 1
10
318.661631
20
928.553697
11
319.138967
21
931.681357
0
LINE
8
Layer 1
10
319.138967
20
931.681357
11
319.915175
21
934.700148
0
LINE
8
Layer 1
10
319.915175
20
934.700148
11
320.974422
21
937.594234
0
LINE
8
Layer 1
10
320.974422
20
937.594234
11
322.300874
21
940.347784
0
LINE
8
Layer 1
10
322.300874
20
940.347784
11
323.878697
21
942.944963
0
LINE
8
Layer 1
10
323.878697
20
942.944963
11
325.692059
21
945.369938
0
LINE
8
Layer 1
10
325.692059
20
945.369938
11
327.725125
21
947.606875
0
LINE
8
Layer 1
10
327.725125
20
947.606875
11
329.962062
21
949.639941
0
LINE
8
Layer 1
10
329.962062
20
949.639941
11
332.387037
21
951.453303
0
LINE
8
Layer 1
10
332.387037
20
951.453303
11
334.984216
21
953.031126
0
LINE
8
Layer 1
10
334.984216
20
953.031126
11
337.737766
21
954.357578
0
LINE
8
Layer 1
10
337.737766
20
954.357578
11
340.631852
21
955.416825
0
LINE
8
Layer 1
10
340.631852
20
955.416825
11
343.650643
21
956.193033
0
LINE
8
Layer 1
10
343.650643
20
956.193033
11
346.778303
21
956.670369
0
LINE
8
Layer 1
10
346.778303
20
956.670369
11
349.999000
21
956.833000
0
LINE
8
Layer 1
10
349.999000
20
956.833000
11
349.999000
21
962.333000
0
LINE
8
Layer 1
10
349.999000
20
962.333000
11
346.215888
21
962.141978
0
LINE
8
Layer 1
10
346.215888
20
962.141978
11
342.542076
21
961.581311
0
LINE
8
Layer 1
10
342.542076
20
961.581311
11
338.996159
21
960.669593
0
LINE
8
Layer 1
10
338.996159
20
960.669593
11
335.596734
21
959.425422
0
LINE
8
Layer 1
10
335.596734
20
959.425422
11
332.362397
21
957.867393
0
LINE
8
Layer 1
10
332.362397
20
957.867393
11
329.311744
21
956.014104
0
LINE
8
Layer 1
10
329.311744
20
956.014104
11
326.463371
21
953.884149
0
LINE
8
Layer 1
10
326.463371
20
953.884149
11
323.835875
21
951.496125
0
LINE
8
Layer 1
10
323.835875
20
951.496125
11
321.447851
21
948.868629
0
LINE
8
Layer 1
10
321.447851
20
948.868629
11
319.317896
21
946.020256
0
LINE
8
Layer 1
10
319.317896
20
946.020256
11
317.464607
21
942.969603
0
LINE
8
Layer 1
10
317.464607
20
942.969603
11
315.906578
21
939.735266
0
LINE
8
Layer 1
10
315.906578
20
939.735266
11
314.662407
21
936.335841
0
LINE
8
Layer 1
10
314.662407
20
936.335841
11
313.750689
21
932.789924
0
LINE
8
Layer 1
10
313.750689
20
932.789924
11
313.190022
21
929.116112
0
LINE
8
Layer 1
10
313.190022
20
929.116112
11
312.999000
21
925.333000
0
LINE
8
Layer 1
10
312.999000
20
925.333000
11
312.999000
21
800.333000
0
LINE
8
Layer 1
10
312.999000
20
800.333000
11
313.190022
21
796.549888
0
LINE
8
Layer 1
10
313.190022
20
796.549888
11
313.750689
21
792.876076
0
LINE
8
Layer 1
10
313.750689
20
792.876076
11
314.662407
21
789.330159
0
LINE
8
Layer 1
10
314.662407
20
789.330159
11
315.906578
21
785.930734
0
LINE
8
Layer 1
10
315.906578
20
785.930734
11
317.464607
21
782.696397
0
LINE
8
Layer 1
10
317.464607
20
782.696397
11
319.317896
21
779.645744
0
LINE
8
Layer 1
10
319.317896
20
779.645744
11
321.447851
21
776.797371
0
LINE
8
Layer 1
10
321.447851
20
776.797371
11
323.835875
21
774.169875
0
LINE
8
Layer 1
10
323.835875
20
774.169875
11
326.463371
21
771.781851
0
LINE
8
Layer 1
10
326.463371
20
771.781851
11
329.311744
21
769.651896
0
LINE
8
Layer 1
10
329.311744
20
769.651896
11
332.362397
21
767.798607
0
LINE
8
Layer 1
10
332.362397
20
767.798607
11
335.596734
21
766.240578
0
LINE
8
Layer 1
10
335.596734
20
766.240578
11
338.996159
21
764.996407
0
LINE
8
Layer 1
10
338.996159
20
764.996407
11
342.542076
21
764.084689
0
LINE
8
Layer 1
10
342.542076
20
764.084689
11
346.215888
21
763.524022
0
LINE
8
Layer 1
10
346.215888
20
763.524022
11
349.999000
21
763.333000
0
LINE
8
Layer 1
10
349.999000
20
763.333000
11
353.781947
21
763.524022
0
LINE
8
Layer 1
10
353.781947
20
763.524022
11
357.455637
21
764.084689
0
LINE
8
Layer 1
10
357.455637
20
764.084689
11
361.001469
21
764.996407
0
LINE
8
Layer 1
10
361.001469
20
764.996407
11
364.400844
21
766.240578
0
LINE
8
Layer 1
10
364.400844
20
766.240578
11
367.635160
21
767.798607
0
LINE
8
Layer 1
10
367.635160
20
767.798607
11
370.685816
21
769.651896
0
LINE
8
Layer 1
10
370.685816
20
769.651896
11
373.534213
21
771.781851
0
LINE
8
Layer 1
10
373.534213
20
771.781851
11
376.161750
21
774.169875
0
LINE
8
Layer 1
10
376.161750
20
774.169875
11
378.549826
21
776.797371
0
LINE
8
Layer 1
10
378.549826
20
776.797371
11
380.679840
21
779.645744
0
LINE
8
Layer 1
10
380.679840
20
779.645744
11
382.533192
21
782.696397
0
LINE
8
Layer 1
10
382.533192
20
782.696397
11
384.091281
21
785.930734
0
LINE
8
Layer 1
10
384.091281
20
785.930734
11
385.335507
21
789.330159
0
LINE
8
Layer 1
10
385.335507
20
789.330159
11
386.247270
21
792.876076
0
LINE
8
Layer 1
10
386.247270
20
792.876076
11
386.807967
21
796.549888
0
LINE
8
Layer 1
10
386.807967
20
796.549888
11
386.999000
21
800.333000
0
LINE
8
Layer 1
10
386.999000
20
800.333000
11
386.999000
21
925.333000
0
LINE
8
Layer 1
10
386.999000
20
925.333000
11
381.499000
21
925.333000
0
LINE
8
Layer 1
10
381.499000
20
925.333000
11
381.499000
21
925.333000
0
LINE
8
Layer 1
10
389.706000
20
795.498000
11
389.043434
21
791.629804
0
LINE
8
Layer 1
10
389.043434
20
791.629804
11
388.027553
21
787.909492
0
LINE
8
Layer 1
10
388.027553
20
787.909492
11
386.677766
21
784.353231
0
LINE
8
Layer 1
10
386.677766
20
784.353231
11
385.013484
21
780.977187
0
LINE
8
Layer 1
10
385.013484
20
780.977187
11
383.054119
21
777.797526
0
LINE
8
Layer 1
10
383.054119
20
777.797526
11
380.819080
21
774.830414
0
LINE
8
Layer 1
10
380.819080
20
774.830414
11
378.327779
21
772.092017
0
LINE
8
Layer 1
10
378.327779
20
772.092017
11
375.599625
21
769.598500
0
LINE
8
Layer 1
10
375.599625
20
769.598500
11
372.654030
21
767.366030
0
LINE
8
Layer 1
10
372.654030
20
767.366030
11
369.510404
21
765.410773
0
LINE
8
Layer 1
10
369.510404
20
765.410773
11
366.188158
21
763.748896
0
LINE
8
Layer 1
10
366.188158
20
763.748896
11
362.706703
21
762.396563
0
LINE
8
Layer 1
10
362.706703
20
762.396563
11
359.085449
21
761.369940
0
LINE
8
Layer 1
10
359.085449
20
761.369940
11
355.343807
21
760.685195
0
LINE
8
Layer 1
10
355.343807
20
760.685195
11
351.501187
21
760.358493
0
LINE
8
Layer 1
10
351.501187
20
760.358493
11
347.577000
21
760.406000
0
LINE
8
Layer 1
10
347.577000
20
760.406000
11
343.675831
21
760.833129
0
LINE
8
Layer 1
10
343.675831
20
760.833129
11
339.900867
21
761.621879
0
LINE
8
Layer 1
10
339.900867
20
761.621879
11
336.269423
21
762.753853
0
LINE
8
Layer 1
10
336.269423
20
762.753853
11
332.798812
21
764.210656
0
LINE
8
Layer 1
10
332.798812
20
764.210656
11
329.506351
21
765.973893
0
LINE
8
Layer 1
10
329.506351
20
765.973893
11
326.409352
21
768.025168
0
LINE
8
Layer 1
10
326.409352
20
768.025168
11
323.525130
21
770.346085
0
LINE
8
Layer 1
10
323.525130
20
770.346085
11
320.871000
21
772.918250
0
LINE
8
Layer 1
10
320.871000
20
772.918250
11
318.464276
21
775.723266
0
LINE
8
Layer 1
10
318.464276
20
775.723266
11
316.322273
21
778.742738
0
LINE
8
Layer 1
10
316.322273
20
778.742738
11
314.462306
21
781.958271
0
LINE
8
Layer 1
10
314.462306
20
781.958271
11
312.901688
21
785.351469
0
LINE
8
Layer 1
10
312.901688
20
785.351469
11
311.657733
21
788.903936
0
LINE
8
Layer 1
10
311.657733
20
788.903936
11
310.747758
21
792.597277
0
LINE
8
Layer 1
10
310.747758
20
792.597277
11
310.189075
21
796.413097
0
LINE
8
Layer 1
10
310.189075
20
796.413097
11
309.999000
21
800.333000
0
LINE
8
Layer 1
10
309.999000
20
800.333000
11
309.999000
21
925.333000
0
LINE
8
Layer 1
10
309.999000
20
925.333000
11
310.205520
21
929.422703
0
LINE
8
Layer 1
10
310.205520
20
929.422703
11
310.811674
21
933.394283
0
LINE
8
Layer 1
10
310.811674
20
933.394283
11
311.797354
21
937.227632
0
LINE
8
Layer 1
10
311.797354
20
937.227632
11
313.142453
21
940.902641
0
LINE
8
Layer 1
10
313.142453
20
940.902641
11
314.826863
21
944.399202
0
LINE
8
Layer 1
10
314.826863
20
944.399202
11
316.830475
21
947.697209
0
LINE
8
Layer 1
10
316.830475
20
947.697209
11
319.133181
21
950.776552
0
LINE
8
Layer 1
10
319.133181
20
950.776552
11
321.714875
21
953.617125
0
LINE
8
Layer 1
10
321.714875
20
953.617125
11
324.555448
21
956.198819
0
LINE
8
Layer 1
10
324.555448
20
956.198819
11
327.634791
21
958.501525
0
LINE
8
Layer 1
10
327.634791
20
958.501525
11
330.932798
21
960.505137
0
LINE
8
Layer 1
10
330.932798
20
960.505137
11
334.429359
21
962.189547
0
LINE
8
Layer 1
10
334.429359
20
962.189547
11
338.104368
21
963.534646
0
LINE
8
Layer 1
10
338.104368
20
963.534646
11
341.937717
21
964.520326
0
LINE
8
Layer 1
10
341.937717
20
964.520326
11
345.909297
21
965.126480
0
LINE
8
Layer 1
10
345.909297
20
965.126480
11
349.999000
21
965.333000
0
LINE
8
Layer 1
10
349.999000
20
965.333000
11
394.499000
21
965.333000
0
LINE
8
Layer 1
10
394.499000
20
965.333000
11
394.499000
21
960.833000
0
LINE
8
Layer 1
10
394.499000
20
960.833000
11
389.999000
21
960.833000
0
LINE
8
Layer 1
10
389.999000
20
960.833000
11
389.999000
21
951.657000
0
LINE
8
Layer 1
10
389.999000
20
951.657000
11
394.499000
21
951.657000
0
LINE
8
Layer 1
10
394.499000
20
951.657000
11
394.499000
21
942.480000
0
LINE
8
Layer 1
10
394.499000
20
942.480000
11
389.999000
21
942.480000
0
LINE
8
Layer 1
10
389.999000
20
942.480000
11
389.999000
21
933.304000
0
LINE
8
Layer 1
10
389.999000
20
933.304000
11
394.499000
21
933.304000
0
LINE
8
Layer 1
10
394.499000
20
933.304000
11
394.499000
21
924.127000
0
LINE
8
Layer 1
10
394.499000
20
924.127000
11
389.999000
21
924.127000
0
LINE
8
Layer 1
10
389.999000
20
924.127000
11
389.999000
21
914.951000
0
LINE
8
Layer 1
10
389.999000
20
914.951000
11
394.499000
21
914.951000
0
LINE
8
Layer 1
10
394.499000
20
914.951000
11
394.499000
21
905.774000
0
LINE
8
Layer 1
10
394.499000
20
905.774000
11
389.999000
21
905.774000
0
LINE
8
Layer 1
10
389.999000
20
905.774000
11
389.999000
21
896.598000
0
LINE
8
Layer 1
10
389.999000
20
896.598000
11
394.499000
21
896.598000
0
LINE
8
Layer 1
10
394.499000
20
896.598000
11
394.499000
21
887.421000
0
LINE
8
Layer 1
10
394.499000
20
887.421000
11
389.999000
21
887.421000
0
LINE
8
Layer 1
10
389.999000
20
887.421000
11
389.999000
21
878.245000
0
LINE
8
Layer 1
10
389.999000
20
878.245000
11
394.499000
21
878.245000
0
LINE
8
Layer 1
10
394.499000
20
878.245000
11
394.499000
21
869.068000
0
LINE
8
Layer 1
10
394.499000
20
869.068000
11
389.999000
21
869.068000
0
LINE
8
Layer 1
10
389.999000
20
869.068000
11
389.999000
21
859.892000
0
LINE
8
Layer 1
10
389.999000
20
859.892000
11
394.499000
21
859.892000
0
LINE
8
Layer 1
10
394.499000
20
859.892000
11
394.499000
21
850.715000
0
LINE
8
Layer 1
10
394.499000
20
850.715000
11
389.999000
21
850.715000
0
LINE
8
Layer 1
10
389.999000
20
850.715000
11
389.999000
21
841.539000
0
LINE
8
Layer 1
10
389.999000
20
841.539000
11
394.499000
21
841.539000
0
LINE
8
Layer 1
10
394.499000
20
841.539000
11
394.499000
21
832.362000
0
LINE
8
Layer 1
10
394.499000
20
832.362000
11
389.999000
21
832.362000
0
LINE
8
Layer 1
10
389.999000
20
832.362000
11
389.999000
21
823.186000
0
LINE
8
Layer 1
10
389.999000
20
823.186000
11
394.499000
21
823.186000
0
LINE
8
Layer 1
10
394.499000
20
823.186000
11
394.499000
21
814.009000
0
LINE
8
Layer 1
10
394.499000
20
814.009000
11
389.999000
21
814.009000
0
LINE
8
Layer 1
10
389.999000
20
814.009000
11
389.999000
21
804.833000
0
LINE
8
Layer 1
10
389.999000
20
804.833000
11
394.499000
21
804.833000
0
LINE
8
Layer 1
10
394.499000
20
804.833000
11
394.499000
21
800.292000
0
LINE
8
Layer 1
10
394.499000
20
800.292000
11
393.584916
21
800.101102
0
LINE
8
Layer 1
10
393.584916
20
800.101102
11
392.734078
21
799.766813
0
LINE
8
Layer 1
10
392.734078
20
799.766813
11
391.275625
21
798.721500
0
LINE
8
Layer 1
10
391.275625
20
798.721500
11
390.230609
21
797.262938
0
LINE
8
Layer 1
10
390.230609
20
797.262938
11
389.896568
21
796.412086
0
LINE
8
Layer 1
10
389.896568
20
796.412086
11
389.706000
21
795.498000
0
LINE
8
Layer 1
10
355.499000
20
814.780000
11
355.499000
21
824.517000
0
LINE
8
Layer 1
10
355.499000
20
824.517000
11
350.999000
21
824.517000
0
LINE
8
Layer 1
10
350.999000
20
824.517000
11
350.999000
21
814.780000
0
LINE
8
Layer 1
10
350.999000
20
814.780000
11
355.499000
21
814.780000
0
LINE
8
Layer 1
10
355.499000
20
814.780000
11
355.499000
21
814.780000
0
LINE
8
Layer 1
10
355.499000
20
834.254000
11
355.499000
21
843.991000
0
LINE
8
Layer 1
10
355.499000
20
843.991000
11
350.999000
21
843.991000
0
LINE
8
Layer 1
10
350.999000
20
843.991000
11
350.999000
21
834.254000
0
LINE
8
Layer 1
10
350.999000
20
834.254000
11
355.499000
21
834.254000
0
LINE
8
Layer 1
10
355.499000
20
834.254000
11
355.499000
21
834.254000
0
LINE
8
Layer 1
10
355.499000
20
853.728000
11
355.499000
21
863.465000
0
LINE
8
Layer 1
10
355.499000
20
863.465000
11
350.999000
21
863.465000
0
LINE
8
Layer 1
10
350.999000
20
863.465000
11
350.999000
21
853.728000
0
LINE
8
Layer 1
10
350.999000
20
853.728000
11
355.499000
21
853.728000
0
LINE
8
Layer 1
10
355.499000
20
853.728000
11
355.499000
21
853.728000
0
LINE
8
Layer 1
10
355.499000
20
873.201000
11
355.499000
21
882.938000
0
LINE
8
Layer 1
10
355.499000
20
882.938000
11
350.999000
21
882.938000
0
LINE
8
Layer 1
10
350.999000
20
882.938000
11
350.999000
21
873.201000
0
LINE
8
Layer 1
10
350.999000
20
873.201000
11
355.499000
21
873.201000
0
LINE
8
Layer 1
10
355.499000
20
873.201000
11
355.499000
21
873.201000
0
LINE
8
Layer 1
10
355.499000
20
775.833000
11
355.499000
21
785.570000
0
LINE
8
Layer 1
10
355.499000
20
785.570000
11
350.999000
21
785.570000
0
LINE
8
Layer 1
10
350.999000
20
785.570000
11
350.999000
21
775.833000
0
LINE
8
Layer 1
10
350.999000
20
775.833000
11
355.499000
21
775.833000
0
LINE
8
Layer 1
10
355.499000
20
775.833000
11
355.499000
21
775.833000
0
LINE
8
Layer 1
10
355.499000
20
931.622000
11
355.499000
21
941.359000
0
LINE
8
Layer 1
10
355.499000
20
941.359000
11
350.999000
21
941.359000
0
LINE
8
Layer 1
10
350.999000
20
941.359000
11
350.999000
21
931.622000
0
LINE
8
Layer 1
10
350.999000
20
931.622000
11
355.499000
21
931.622000
0
LINE
8
Layer 1
10
355.499000
20
931.622000
11
355.499000
21
931.622000
0
LINE
8
Layer 1
10
355.499000
20
912.149000
11
355.499000
21
921.886000
0
LINE
8
Layer 1
10
355.499000
20
921.886000
11
350.999000
21
921.886000
0
LINE
8
Layer 1
10
350.999000
20
921.886000
11
350.999000
21
912.149000
0
LINE
8
Layer 1
10
350.999000
20
912.149000
11
355.499000
21
912.149000
0
LINE
8
Layer 1
10
355.499000
20
912.149000
11
355.499000
21
912.149000
0
LINE
8
Layer 1
10
355.499000
20
892.675000
11
355.499000
21
902.412000
0
LINE
8
Layer 1
10
355.499000
20
902.412000
11
350.999000
21
902.412000
0
LINE
8
Layer 1
10
350.999000
20
902.412000
11
350.999000
21
892.675000
0
LINE
8
Layer 1
10
350.999000
20
892.675000
11
355.499000
21
892.675000
0
LINE
8
Layer 1
10
355.499000
20
892.675000
11
355.499000
21
892.675000
0
LINE
8
Layer 1
10
355.499000
20
795.307000
11
355.499000
21
805.044000
0
LINE
8
Layer 1
10
355.499000
20
805.044000
11
350.999000
21
805.044000
0
LINE
8
Layer 1
10
350.999000
20
805.044000
11
350.999000
21
795.307000
0
LINE
8
Layer 1
10
350.999000
20
795.307000
11
355.499000
21
795.307000
0
LINE
8
Layer 1
10
355.499000
20
795.307000
11
355.499000
21
795.307000
0
LINE
8
Layer 1
10
355.499000
20
951.096000
11
355.499000
21
960.833000
0
LINE
8
Layer 1
10
355.499000
20
960.833000
11
350.999000
21
960.833000
0
LINE
8
Layer 1
10
350.999000
20
960.833000
11
350.999000
21
951.096000
0
LINE
8
Layer 1
10
350.999000
20
951.096000
11
355.499000
21
951.096000
0
LINE
8
Layer 1
10
355.499000
20
951.096000
11
355.499000
21
951.096000
0
LINE
8
Layer 1
10
402.000000
20
925.333000
11
402.000000
21
800.333000
0
LINE
8
Layer 1
10
402.000000
20
800.333000
11
402.191022
21
796.549888
0
LINE
8
Layer 1
10
402.191022
20
796.549888
11
402.751689
21
792.876076
0
LINE
8
Layer 1
10
402.751689
20
792.876076
11
403.663407
21
789.330159
0
LINE
8
Layer 1
10
403.663407
20
789.330159
11
404.907578
21
785.930734
0
LINE
8
Layer 1
10
404.907578
20
785.930734
11
406.465607
21
782.696397
0
LINE
8
Layer 1
10
406.465607
20
782.696397
11
408.318896
21
779.645744
0
LINE
8
Layer 1
10
408.318896
20
779.645744
11
410.448851
21
776.797371
0
LINE
8
Layer 1
10
410.448851
20
776.797371
11
412.836875
21
774.169875
0
LINE
8
Layer 1
10
412.836875
20
774.169875
11
415.464371
21
771.781851
0
LINE
8
Layer 1
10
415.464371
20
771.781851
11
418.312744
21
769.651896
0
LINE
8
Layer 1
10
418.312744
20
769.651896
11
421.363397
21
767.798607
0
LINE
8
Layer 1
10
421.363397
20
767.798607
11
424.597734
21
766.240578
0
LINE
8
Layer 1
10
424.597734
20
766.240578
11
427.997159
21
764.996407
0
LINE
8
Layer 1
10
427.997159
20
764.996407
11
431.543076
21
764.084689
0
LINE
8
Layer 1
10
431.543076
20
764.084689
11
435.216888
21
763.524022
0
LINE
8
Layer 1
10
435.216888
20
763.524022
11
439.000000
21
763.333000
0
LINE
8
Layer 1
10
439.000000
20
763.333000
11
439.000000
21
768.833000
0
LINE
8
Layer 1
10
439.000000
20
768.833000
11
435.779303
21
768.995631
0
LINE
8
Layer 1
10
435.779303
20
768.995631
11
432.651643
21
769.472967
0
LINE
8
Layer 1
10
432.651643
20
769.472967
11
429.632852
21
770.249175
0
LINE
8
Layer 1
10
429.632852
20
770.249175
11
426.738766
21
771.308422
0
LINE
8
Layer 1
10
426.738766
20
771.308422
11
423.985216
21
772.634874
0
LINE
8
Layer 1
10
423.985216
20
772.634874
11
421.388037
21
774.212697
0
LINE
8
Layer 1
10
421.388037
20
774.212697
11
418.963062
21
776.026059
0
LINE
8
Layer 1
10
418.963062
20
776.026059
11
416.726125
21
778.059125
0
LINE
8
Layer 1
10
416.726125
20
778.059125
11
414.693059
21
780.296062
0
LINE
8
Layer 1
10
414.693059
20
780.296062
11
412.879697
21
782.721037
0
LINE
8
Layer 1
10
412.879697
20
782.721037
11
411.301874
21
785.318216
0
LINE
8
Layer 1
10
411.301874
20
785.318216
11
409.975422
21
788.071766
0
LINE
8
Layer 1
10
409.975422
20
788.071766
11
408.916175
21
790.965852
0
LINE
8
Layer 1
10
408.916175
20
790.965852
11
408.139967
21
793.984643
0
LINE
8
Layer 1
10
408.139967
20
793.984643
11
407.662631
21
797.112303
0
LINE
8
Layer 1
10
407.662631
20
797.112303
11
407.500000
21
800.333000
0
LINE
8
Layer 1
10
407.500000
20
800.333000
11
407.500000
21
925.333000
0
LINE
8
Layer 1
10
407.500000
20
925.333000
11
407.662631
21
928.553697
0
LINE
8
Layer 1
10
407.662631
20
928.553697
11
408.139967
21
931.681357
0
LINE
8
Layer 1
10
408.139967
20
931.681357
11
408.916175
21
934.700148
0
LINE
8
Layer 1
10
408.916175
20
934.700148
11
409.975422
21
937.594234
0
LINE
8
Layer 1
10
409.975422
20
937.594234
11
411.301874
21
940.347784
0
LINE
8
Layer 1
10
411.301874
20
940.347784
11
412.879697
21
942.944963
0
LINE
8
Layer 1
10
412.879697
20
942.944963
11
414.693059
21
945.369938
0
LINE
8
Layer 1
10
414.693059
20
945.369938
11
416.726125
21
947.606875
0
LINE
8
Layer 1
10
416.726125
20
947.606875
11
418.963062
21
949.639941
0
LINE
8
Layer 1
10
418.963062
20
949.639941
11
421.388037
21
951.453303
0
LINE
8
Layer 1
10
421.388037
20
951.453303
11
423.985216
21
953.031126
0
LINE
8
Layer 1
10
423.985216
20
953.031126
11
426.738766
21
954.357578
0
LINE
8
Layer 1
10
426.738766
20
954.357578
11
429.632852
21
955.416825
0
LINE
8
Layer 1
10
429.632852
20
955.416825
11
432.651643
21
956.193033
0
LINE
8
Layer 1
10
432.651643
20
956.193033
11
435.779303
21
956.670369
0
LINE
8
Layer 1
10
435.779303
20
956.670369
11
439.000000
21
956.833000
0
LINE
8
Layer 1
10
439.000000
20
956.833000
11
442.220697
21
956.670369
0
LINE
8
Layer 1
10
442.220697
20
956.670369
11
445.348357
21
956.193033
0
LINE
8
Layer 1
10
445.348357
20
956.193033
11
448.367148
21
955.416825
0
LINE
8
Layer 1
10
448.367148
20
955.416825
11
451.261234
21
954.357578
0
LINE
8
Layer 1
10
451.261234
20
954.357578
11
454.014784
21
953.031126
0
LINE
8
Layer 1
10
454.014784
20
953.031126
11
456.611963
21
951.453303
0
LINE
8
Layer 1
10
456.611963
20
951.453303
11
459.036938
21
949.639941
0
LINE
8
Layer 1
10
459.036938
20
949.639941
11
461.273875
21
947.606875
0
LINE
8
Layer 1
10
461.273875
20
947.606875
11
463.306941
21
945.369938
0
LINE
8
Layer 1
10
463.306941
20
945.369938
11
465.120303
21
942.944963
0
LINE
8
Layer 1
10
465.120303
20
942.944963
11
466.698126
21
940.347784
0
LINE
8
Layer 1
10
466.698126
20
940.347784
11
468.024578
21
937.594234
0
LINE
8
Layer 1
10
468.024578
20
937.594234
11
469.083825
21
934.700148
0
LINE
8
Layer 1
10
469.083825
20
934.700148
11
469.860033
21
931.681357
0
LINE
8
Layer 1
10
469.860033
20
931.681357
11
470.337369
21
928.553697
0
LINE
8
Layer 1
10
470.337369
20
928.553697
11
470.500000
21
925.333000
0
LINE
8
Layer 1
10
470.500000
20
925.333000
11
470.500000
21
800.333000
0
LINE
8
Layer 1
10
470.500000
20
800.333000
11
476.000000
21
800.333000
0
LINE
8
Layer 1
10
476.000000
20
800.333000
11
476.000000
21
925.333000
0
LINE
8
Layer 1
10
476.000000
20
925.333000
11
475.808967
21
929.116112
0
LINE
8
Layer 1
10
475.808967
20
929.116112
11
475.248270
21
932.789924
0
LINE
8
Layer 1
10
475.248270
20
932.789924
11
474.336507
21
936.335841
0
LINE
8
Layer 1
10
474.336507
20
936.335841
11
473.092281
21
939.735266
0
LINE
8
Layer 1
10
473.092281
20
939.735266
11
471.534192
21
942.969603
0
LINE
8
Layer 1
10
471.534192
20
942.969603
11
469.680840
21
946.020256
0
LINE
8
Layer 1
10
469.680840
20
946.020256
11
467.550826
21
948.868629
0
LINE
8
Layer 1
10
467.550826
20
948.868629
11
465.162750
21
951.496125
0
LINE
8
Layer 1
10
465.162750
20
951.496125
11
462.535213
21
953.884149
0
LINE
8
Layer 1
10
462.535213
20
953.884149
11
459.686816
21
956.014104
0
LINE
8
Layer 1
10
459.686816
20
956.014104
11
456.636160
21
957.867393
0
LINE
8
Layer 1
10
456.636160
20
957.867393
11
453.401844
21
959.425422
0
LINE
8
Layer 1
10
453.401844
20
959.425422
11
450.002469
21
960.669593
0
LINE
8
Layer 1
10
450.002469
20
960.669593
11
446.456637
21
961.581311
0
LINE
8
Layer 1
10
446.456637
20
961.581311
11
442.782947
21
962.141978
0
LINE
8
Layer 1
10
442.782947
20
962.141978
11
439.000000
21
962.333000
0
LINE
8
Layer 1
10
439.000000
20
962.333000
11
435.216888
21
962.141978
0
LINE
8
Layer 1
10
435.216888
20
962.141978
11
431.543076
21
961.581311
0
LINE
8
Layer 1
10
431.543076
20
961.581311
11
427.997159
21
960.669593
0
LINE
8
Layer 1
10
427.997159
20
960.669593
11
424.597734
21
959.425422
0
LINE
8
Layer 1
10
424.597734
20
959.425422
11
421.363397
21
957.867393
0
LINE
8
Layer 1
10
421.363397
20
957.867393
11
418.312744
21
956.014104
0
LINE
8
Layer 1
10
418.312744
20
956.014104
11
415.464371
21
953.884149
0
LINE
8
Layer 1
10
415.464371
20
953.884149
11
412.836875
21
951.496125
0
LINE
8
Layer 1
10
412.836875
20
951.496125
11
410.448851
21
948.868629
0
LINE
8
Layer 1
10
410.448851
20
948.868629
11
408.318896
21
946.020256
0
LINE
8
Layer 1
10
408.318896
20
946.020256
11
406.465607
21
942.969603
0
LINE
8
Layer 1
10
406.465607
20
942.969603
11
404.907578
21
939.735266
0
LINE
8
Layer 1
10
404.907578
20
939.735266
11
403.663407
21
936.335841
0
LINE
8
Layer 1
10
403.663407
20
936.335841
11
402.751689
21
932.789924
0
LINE
8
Layer 1
10
402.751689
20
932.789924
11
402.191022
21
929.116112
0
LINE
8
Layer 1
10
402.191022
20
929.116112
11
402.000000
21
925.333000
0
LINE
8
Layer 1
10
483.500000
20
925.374000
11
483.500000
21
920.833000
0
LINE
8
Layer 1
10
483.500000
20
920.833000
11
479.000000
21
920.833000
0
LINE
8
Layer 1
10
479.000000
20
920.833000
11
479.000000
21
911.657000
0
LINE
8
Layer 1
10
479.000000
20
911.657000
11
483.500000
21
911.657000
0
LINE
8
Layer 1
10
483.500000
20
911.657000
11
483.500000
21
902.480000
0
LINE
8
Layer 1
10
483.500000
20
902.480000
11
479.000000
21
902.480000
0
LINE
8
Layer 1
10
479.000000
20
902.480000
11
479.000000
21
893.304000
0
LINE
8
Layer 1
10
479.000000
20
893.304000
11
483.500000
21
893.304000
0
LINE
8
Layer 1
10
483.500000
20
893.304000
11
483.500000
21
884.127000
0
LINE
8
Layer 1
10
483.500000
20
884.127000
11
479.000000
21
884.127000
0
LINE
8
Layer 1
10
479.000000
20
884.127000
11
479.000000
21
874.951000
0
LINE
8
Layer 1
10
479.000000
20
874.951000
11
483.500000
21
874.951000
0
LINE
8
Layer 1
10
483.500000
20
874.951000
11
483.500000
21
865.774000
0
LINE
8
Layer 1
10
483.500000
20
865.774000
11
479.000000
21
865.774000
0
LINE
8
Layer 1
10
479.000000
20
865.774000
11
479.000000
21
856.598000
0
LINE
8
Layer 1
10
479.000000
20
856.598000
11
483.500000
21
856.598000
0
LINE
8
Layer 1
10
483.500000
20
856.598000
11
483.500000
21
847.421000
0
LINE
8
Layer 1
10
483.500000
20
847.421000
11
479.000000
21
847.421000
0
LINE
8
Layer 1
10
479.000000
20
847.421000
11
479.000000
21
838.245000
0
LINE
8
Layer 1
10
479.000000
20
838.245000
11
483.500000
21
838.245000
0
LINE
8
Layer 1
10
483.500000
20
838.245000
11
483.500000
21
829.068000
0
LINE
8
Layer 1
10
483.500000
20
829.068000
11
479.000000
21
829.068000
0
LINE
8
Layer 1
10
479.000000
20
829.068000
11
479.000000
21
819.892000
0
LINE
8
Layer 1
10
479.000000
20
819.892000
11
483.500000
21
819.892000
0
LINE
8
Layer 1
10
483.500000
20
819.892000
11
483.500000
21
810.715000
0
LINE
8
Layer 1
10
483.500000
20
810.715000
11
479.000000
21
810.715000
0
LINE
8
Layer 1
10
479.000000
20
810.715000
11
479.000000
21
801.539000
0
LINE
8
Layer 1
10
479.000000
20
801.539000
11
483.500000
21
801.539000
0
LINE
8
Layer 1
10
483.500000
20
801.539000
11
483.500000
21
792.362000
0
LINE
8
Layer 1
10
483.500000
20
792.362000
11
479.000000
21
792.362000
0
LINE
8
Layer 1
10
479.000000
20
792.362000
11
479.000000
21
783.186000
0
LINE
8
Layer 1
10
479.000000
20
783.186000
11
483.500000
21
783.186000
0
LINE
8
Layer 1
10
483.500000
20
783.186000
11
483.500000
21
774.009000
0
LINE
8
Layer 1
10
483.500000
20
774.009000
11
479.000000
21
774.009000
0
LINE
8
Layer 1
10
479.000000
20
774.009000
11
479.000000
21
764.833000
0
LINE
8
Layer 1
10
479.000000
20
764.833000
11
483.500000
21
764.833000
0
LINE
8
Layer 1
10
483.500000
20
764.833000
11
483.500000
21
760.333000
0
LINE
8
Layer 1
10
483.500000
20
760.333000
11
439.000000
21
760.333000
0
LINE
8
Layer 1
10
439.000000
20
760.333000
11
434.910132
21
760.539520
0
LINE
8
Layer 1
10
434.910132
20
760.539520
11
430.938430
21
761.145674
0
LINE
8
Layer 1
10
430.938430
20
761.145674
11
427.104997
21
762.131354
0
LINE
8
Layer 1
10
427.104997
20
762.131354
11
423.429937
21
763.476453
0
LINE
8
Layer 1
10
423.429937
20
763.476453
11
419.933354
21
765.160863
0
LINE
8
Layer 1
10
419.933354
20
765.160863
11
416.635352
21
767.164475
0
LINE
8
Layer 1
10
416.635352
20
767.164475
11
413.556032
21
769.467181
0
LINE
8
Layer 1
10
413.556032
20
769.467181
11
410.715500
21
772.048875
0
LINE
8
Layer 1
10
410.715500
20
772.048875
11
408.133858
21
774.889448
0
LINE
8
Layer 1
10
408.133858
20
774.889448
11
405.831211
21
777.968791
0
LINE
8
Layer 1
10
405.831211
20
777.968791
11
403.827661
21
781.266798
0
LINE
8
Layer 1
10
403.827661
20
781.266798
11
402.143312
21
784.763359
0
LINE
8
Layer 1
10
402.143312
20
784.763359
11
400.798269
21
788.438368
0
LINE
8
Layer 1
10
400.798269
20
788.438368
11
399.812633
21
792.271717
0
LINE
8
Layer 1
10
399.812633
20
792.271717
11
399.206509
21
796.243297
0
LINE
8
Layer 1
10
399.206509
20
796.243297
11
399.000000
21
800.333000
0
LINE
8
Layer 1
10
399.000000
20
800.333000
11
399.000000
21
925.333000
0
LINE
8
Layer 1
10
399.000000
20
925.333000
11
399.190075
21
929.252903
0
LINE
8
Layer 1
10
399.190075
20
929.252903
11
399.748758
21
933.068723
0
LINE
8
Layer 1
10
399.748758
20
933.068723
11
400.658733
21
936.762064
0
LINE
8
Layer 1
10
400.658733
20
936.762064
11
401.902688
21
940.314531
0
LINE
8
Layer 1
10
401.902688
20
940.314531
11
403.463306
21
943.707729
0
LINE
8
Layer 1
10
403.463306
20
943.707729
11
405.323273
21
946.923262
0
LINE
8
Layer 1
10
405.323273
20
946.923262
11
407.465276
21
949.942734
0
LINE
8
Layer 1
10
407.465276
20
949.942734
11
409.872000
21
952.747750
0
LINE
8
Layer 1
10
409.872000
20
952.747750
11
412.526130
21
955.319915
0
LINE
8
Layer 1
10
412.526130
20
955.319915
11
415.410352
21
957.640832
0
LINE
8
Layer 1
10
415.410352
20
957.640832
11
418.507351
21
959.692107
0
LINE
8
Layer 1
10
418.507351
20
959.692107
11
421.799812
21
961.455344
0
LINE
8
Layer 1
10
421.799812
20
961.455344
11
425.270423
21
962.912147
0
LINE
8
Layer 1
10
425.270423
20
962.912147
11
428.901867
21
964.044121
0
LINE
8
Layer 1
10
428.901867
20
964.044121
11
432.676831
21
964.832871
0
LINE
8
Layer 1
10
432.676831
20
964.832871
11
436.578000
21
965.260000
0
LINE
8
Layer 1
10
436.578000
20
965.260000
11
440.502187
21
965.307507
0
LINE
8
Layer 1
10
440.502187
20
965.307507
11
444.344805
21
964.980805
0
LINE
8
Layer 1
10
444.344805
20
964.980805
11
448.086442
21
964.296060
0
LINE
8
Layer 1
10
448.086442
20
964.296060
11
451.707688
21
963.269437
0
LINE
8
Layer 1
10
451.707688
20
963.269437
11
455.189128
21
961.917104
0
LINE
8
Layer 1
10
455.189128
20
961.917104
11
458.511352
21
960.255227
0
LINE
8
Layer 1
10
458.511352
20
960.255227
11
461.654946
21
958.299970
0
LINE
8
Layer 1
10
461.654946
20
958.299970
11
464.600500
21
956.067500
0
LINE
8
Layer 1
10
464.600500
20
956.067500
11
467.328601
21
953.573983
0
LINE
8
Layer 1
10
467.328601
20
953.573983
11
469.819836
21
950.835586
0
LINE
8
Layer 1
10
469.819836
20
950.835586
11
472.054794
21
947.868474
0
LINE
8
Layer 1
10
472.054794
20
947.868474
11
474.014062
21
944.688813
0
LINE
8
Layer 1
10
474.014062
20
944.688813
11
475.678229
21
941.312769
0
LINE
8
Layer 1
10
475.678229
20
941.312769
11
477.027883
21
937.756508
0
LINE
8
Layer 1
10
477.027883
20
937.756508
11
478.043610
21
934.036196
0
LINE
8
Layer 1
10
478.043610
20
934.036196
11
478.706000
21
930.168000
0
LINE
8
Layer 1
10
478.706000
20
930.168000
11
478.896898
21
929.253914
0
LINE
8
Layer 1
10
478.896898
20
929.253914
11
479.231188
21
928.403062
0
LINE
8
Layer 1
10
479.231188
20
928.403062
11
480.276500
21
926.944500
0
LINE
8
Layer 1
10
480.276500
20
926.944500
11
481.735062
21
925.899187
0
LINE
8
Layer 1
10
481.735062
20
925.899187
11
482.585914
21
925.564898
0
LINE
8
Layer 1
10
482.585914
20
925.564898
11
483.500000
21
925.374000
0
LINE
8
Layer 1
10
483.500000
20
925.374000
11
483.500000
21
925.374000
0
LINE
8
Layer 1
10
440.000000
20
813.517000
11
444.500000
21
813.517000
0
LINE
8
Layer 1
10
444.500000
20
813.517000
11
444.500000
21
803.780000
0
LINE
8
Layer 1
10
444.500000
20
803.780000
11
440.000000
21
803.780000
0
LINE
8
Layer 1
10
440.000000
20
803.780000
11
440.000000
21
813.517000
0
LINE
8
Layer 1
10
440.000000
20
813.517000
11
440.000000
21
813.517000
0
LINE
8
Layer 1
10
440.000000
20
832.991000
11
444.500000
21
832.991000
0
LINE
8
Layer 1
10
444.500000
20
832.991000
11
444.500000
21
823.254000
0
LINE
8
Layer 1
10
444.500000
20
823.254000
11
440.000000
21
823.254000
0
LINE
8
Layer 1
10
440.000000
20
823.254000
11
440.000000
21
832.991000
0
LINE
8
Layer 1
10
440.000000
20
832.991000
11
440.000000
21
832.991000
0
LINE
8
Layer 1
10
440.000000
20
852.465000
11
444.500000
21
852.465000
0
LINE
8
Layer 1
10
444.500000
20
852.465000
11
444.500000
21
842.728000
0
LINE
8
Layer 1
10
444.500000
20
842.728000
11
440.000000
21
842.728000
0
LINE
8
Layer 1
10
440.000000
20
842.728000
11
440.000000
21
852.465000
0
LINE
8
Layer 1
10
440.000000
20
852.465000
11
440.000000
21
852.465000
0
LINE
8
Layer 1
10
440.000000
20
871.938000
11
444.500000
21
871.938000
0
LINE
8
Layer 1
10
444.500000
20
871.938000
11
444.500000
21
862.201000
0
LINE
8
Layer 1
10
444.500000
20
862.201000
11
440.000000
21
862.201000
0
LINE
8
Layer 1
10
440.000000
20
862.201000
11
440.000000
21
871.938000
0
LINE
8
Layer 1
10
440.000000
20
871.938000
11
440.000000
21
871.938000
0
LINE
8
Layer 1
10
440.000000
20
774.570000
11
444.500000
21
774.570000
0
LINE
8
Layer 1
10
444.500000
20
774.570000
11
444.500000
21
764.833000
0
LINE
8
Layer 1
10
444.500000
20
764.833000
11
440.000000
21
764.833000
0
LINE
8
Layer 1
10
440.000000
20
764.833000
11
440.000000
21
774.570000
0
LINE
8
Layer 1
10
440.000000
20
774.570000
11
440.000000
21
774.570000
0
LINE
8
Layer 1
10
440.000000
20
930.359000
11
444.500000
21
930.359000
0
LINE
8
Layer 1
10
444.500000
20
930.359000
11
444.500000
21
920.622000
0
LINE
8
Layer 1
10
444.500000
20
920.622000
11
440.000000
21
920.622000
0
LINE
8
Layer 1
10
440.000000
20
920.622000
11
440.000000
21
930.359000
0
LINE
8
Layer 1
10
440.000000
20
930.359000
11
440.000000
21
930.359000
0
LINE
8
Layer 1
10
440.000000
20
910.886000
11
444.500000
21
910.886000
0
LINE
8
Layer 1
10
444.500000
20
910.886000
11
444.500000
21
901.149000
0
LINE
8
Layer 1
10
444.500000
20
901.149000
11
440.000000
21
901.149000
0
LINE
8
Layer 1
10
440.000000
20
901.149000
11
440.000000
21
910.886000
0
LINE
8
Layer 1
10
440.000000
20
910.886000
11
440.000000
21
910.886000
0
LINE
8
Layer 1
10
440.000000
20
891.412000
11
444.500000
21
891.412000
0
LINE
8
Layer 1
10
444.500000
20
891.412000
11
444.500000
21
881.675000
0
LINE
8
Layer 1
10
444.500000
20
881.675000
11
440.000000
21
881.675000
0
LINE
8
Layer 1
10
440.000000
20
881.675000
11
440.000000
21
891.412000
0
LINE
8
Layer 1
10
440.000000
20
891.412000
11
440.000000
21
891.412000
0
LINE
8
Layer 1
10
440.000000
20
794.044000
11
444.500000
21
794.044000
0
LINE
8
Layer 1
10
444.500000
20
794.044000
11
444.500000
21
784.307000
0
LINE
8
Layer 1
10
444.500000
20
784.307000
11
440.000000
21
784.307000
0
LINE
8
Layer 1
10
440.000000
20
784.307000
11
440.000000
21
794.044000
0
LINE
8
Layer 1
10
440.000000
20
794.044000
11
440.000000
21
794.044000
0
LINE
8
Layer 1
10
440.000000
20
949.833000
11
444.500000
21
949.833000
0
LINE
8
Layer 1
10
444.500000
20
949.833000
11
444.500000
21
940.096000
0
LINE
8
Layer 1
10
444.500000
20
940.096000
11
440.000000
21
940.096000
0
LINE
8
Layer 1
10
440.000000
20
940.096000
11
440.000000
21
949.833000
0
LINE
8
Layer 1
10
440.000000
20
949.833000
11
440.000000
21
949.833000
0
LINE
8
Layer 1
10
537.054000
20
710.093000
11
537.054000
21
700.917000
0
LINE
8
Layer 1
10
537.054000
20
700.917000
11
541.554000
21
700.917000
0
LINE
8
Layer 1
10
541.554000
20
700.917000
11
541.554000
21
691.740000
0
LINE
8
Layer 1
10
541.554000
20
691.740000
11
537.054000
21
691.740000
0
LINE
8
Layer 1
10
537.054000
20
691.740000
11
537.054000
21
682.564000
0
LINE
8
Layer 1
10
537.054000
20
682.564000
11
541.554000
21
682.564000
0
LINE
8
Layer 1
10
541.554000
20
682.564000
11
541.554000
21
673.387000
0
LINE
8
Layer 1
10
541.554000
20
673.387000
11
537.054000
21
673.387000
0
LINE
8
Layer 1
10
537.054000
20
673.387000
11
537.054000
21
664.211000
0
LINE
8
Layer 1
10
537.054000
20
664.211000
11
541.554000
21
664.211000
0
LINE
8
Layer 1
10
541.554000
20
664.211000
11
541.554000
21
655.035000
0
LINE
8
Layer 1
10
541.554000
20
655.035000
11
537.054000
21
655.035000
0
LINE
8
Layer 1
10
537.054000
20
655.035000
11
537.054000
21
645.858000
0
LINE
8
Layer 1
10
537.054000
20
645.858000
11
541.554000
21
645.858000
0
LINE
8
Layer 1
10
541.554000
20
645.858000
11
541.554000
21
636.682000
0
LINE
8
Layer 1
10
541.554000
20
636.682000
11
537.054000
21
636.682000
0
LINE
8
Layer 1
10
537.054000
20
636.682000
11
537.054000
21
627.505000
0
LINE
8
Layer 1
10
537.054000
20
627.505000
11
541.554000
21
627.505000
0
LINE
8
Layer 1
10
541.554000
20
627.505000
11
541.554000
21
618.329000
0
LINE
8
Layer 1
10
541.554000
20
618.329000
11
537.054000
21
618.329000
0
LINE
8
Layer 1
10
537.054000
20
618.329000
11
537.054000
21
609.152000
0
LINE
8
Layer 1
10
537.054000
20
609.152000
11
541.554000
21
609.152000
0
LINE
8
Layer 1
10
541.554000
20
609.152000
11
541.554000
21
604.652000
0
LINE
8
Layer 1
10
541.554000
20
604.652000
11
622.554000
21
604.652000
0
LINE
8
Layer 1
10
622.554000
20
604.652000
11
622.554000
21
609.152000
0
LINE
8
Layer 1
10
622.554000
20
609.152000
11
627.054000
21
609.152000
0
LINE
8
Layer 1
10
627.054000
20
609.152000
11
627.054000
21
618.329000
0
LINE
8
Layer 1
10
627.054000
20
618.329000
11
622.554000
21
618.329000
0
LINE
8
Layer 1
10
622.554000
20
618.329000
11
622.554000
21
627.505000
0
LINE
8
Layer 1
10
622.554000
20
627.505000
11
627.054000
21
627.505000
0
LINE
8
Layer 1
10
627.054000
20
627.505000
11
627.054000
21
636.682000
0
LINE
8
Layer 1
10
627.054000
20
636.682000
11
622.554000
21
636.682000
0
LINE
8
Layer 1
10
622.554000
20
636.682000
11
622.554000
21
645.858000
0
LINE
8
Layer 1
10
622.554000
20
645.858000
11
627.054000
21
645.858000
0
LINE
8
Layer 1
10
627.054000
20
645.858000
11
627.054000
21
655.035000
0
LINE
8
Layer 1
10
627.054000
20
655.035000
11
622.554000
21
655.035000
0
LINE
8
Layer 1
10
622.554000
20
655.035000
11
622.554000
21
664.211000
0
LINE
8
Layer 1
10
622.554000
20
664.211000
11
627.054000
21
664.211000
0
LINE
8
Layer 1
10
627.054000
20
664.211000
11
627.054000
21
673.387000
0
LINE
8
Layer 1
10
627.054000
20
673.387000
11
622.554000
21
673.387000
0
LINE
8
Layer 1
10
622.554000
20
673.387000
11
622.554000
21
682.564000
0
LINE
8
Layer 1
10
622.554000
20
682.564000
11
627.054000
21
682.564000
0
LINE
8
Layer 1
10
627.054000
20
682.564000
11
627.054000
21
691.740000
0
LINE
8
Layer 1
10
627.054000
20
691.740000
11
622.554000
21
691.740000
0
LINE
8
Layer 1
10
622.554000
20
691.740000
11
622.554000
21
700.917000
0
LINE
8
Layer 1
10
622.554000
20
700.917000
11
627.054000
21
700.917000
0
LINE
8
Layer 1
10
627.054000
20
700.917000
11
627.054000
21
710.093000
0
LINE
8
Layer 1
10
627.054000
20
710.093000
11
622.554000
21
710.093000
0
LINE
8
Layer 1
10
622.554000
20
710.093000
11
622.554000
21
719.270000
0
LINE
8
Layer 1
10
622.554000
20
719.270000
11
627.054000
21
719.270000
0
LINE
8
Layer 1
10
627.054000
20
719.270000
11
627.054000
21
728.446000
0
LINE
8
Layer 1
10
627.054000
20
728.446000
11
622.554000
21
728.446000
0
LINE
8
Layer 1
10
622.554000
20
728.446000
11
622.554000
21
737.623000
0
LINE
8
Layer 1
10
622.554000
20
737.623000
11
627.054000
21
737.623000
0
LINE
8
Layer 1
10
627.054000
20
737.623000
11
627.054000
21
746.799000
0
LINE
8
Layer 1
10
627.054000
20
746.799000
11
622.554000
21
746.799000
0
LINE
8
Layer 1
10
622.554000
20
746.799000
11
622.554000
21
755.976000
0
LINE
8
Layer 1
10
622.554000
20
755.976000
11
627.054000
21
755.976000
0
LINE
8
Layer 1
10
627.054000
20
755.976000
11
627.054000
21
765.152000
0
LINE
8
Layer 1
10
627.054000
20
765.152000
11
622.554000
21
765.152000
0
LINE
8
Layer 1
10
622.554000
20
765.152000
11
622.554000
21
769.652000
0
LINE
8
Layer 1
10
622.554000
20
769.652000
11
541.554000
21
769.652000
0
LINE
8
Layer 1
10
541.554000
20
769.652000
11
541.554000
21
765.152000
0
LINE
8
Layer 1
10
541.554000
20
765.152000
11
537.054000
21
765.152000
0
LINE
8
Layer 1
10
537.054000
20
765.152000
11
537.054000
21
755.976000
0
LINE
8
Layer 1
10
537.054000
20
755.976000
11
541.554000
21
755.976000
0
LINE
8
Layer 1
10
541.554000
20
755.976000
11
541.554000
21
746.799000
0
LINE
8
Layer 1
10
541.554000
20
746.799000
11
537.054000
21
746.799000
0
LINE
8
Layer 1
10
537.054000
20
746.799000
11
537.054000
21
737.623000
0
LINE
8
Layer 1
10
537.054000
20
737.623000
11
541.554000
21
737.623000
0
LINE
8
Layer 1
10
541.554000
20
737.623000
11
541.554000
21
728.446000
0
LINE
8
Layer 1
10
541.554000
20
728.446000
11
537.054000
21
728.446000
0
LINE
8
Layer 1
10
537.054000
20
728.446000
11
537.054000
21
719.270000
0
LINE
8
Layer 1
10
537.054000
20
719.270000
11
541.554000
21
719.270000
0
LINE
8
Layer 1
10
541.554000
20
719.270000
11
541.554000
21
710.093000
0
LINE
8
Layer 1
10
541.554000
20
710.093000
11
537.054000
21
710.093000
0
LINE
8
Layer 1
10
537.054000
20
710.093000
11
537.054000
21
710.093000
0
LINE
8
Layer 1
10
718.566000
20
764.741000
11
718.566000
21
774.478000
0
LINE
8
Layer 1
10
718.566000
20
774.478000
11
714.066000
21
774.478000
0
LINE
8
Layer 1
10
714.066000
20
774.478000
11
714.066000
21
784.215000
0
LINE
8
Layer 1
10
714.066000
20
784.215000
11
718.566000
21
784.215000
0
LINE
8
Layer 1
10
718.566000
20
784.215000
11
718.566000
21
793.951000
0
LINE
8
Layer 1
10
718.566000
20
793.951000
11
714.066000
21
793.951000
0
LINE
8
Layer 1
10
714.066000
20
793.951000
11
714.066000
21
798.451000
0
LINE
8
Layer 1
10
714.066000
20
798.451000
11
633.066000
21
798.451000
0
LINE
8
Layer 1
10
633.066000
20
798.451000
11
633.066000
21
793.951000
0
LINE
8
Layer 1
10
633.066000
20
793.951000
11
628.566000
21
793.951000
0
LINE
8
Layer 1
10
628.566000
20
793.951000
11
628.566000
21
784.215000
0
LINE
8
Layer 1
10
628.566000
20
784.215000
11
633.066000
21
784.215000
0
LINE
8
Layer 1
10
633.066000
20
784.215000
11
633.066000
21
774.478000
0
LINE
8
Layer 1
10
633.066000
20
774.478000
11
628.566000
21
774.478000
0
LINE
8
Layer 1
10
628.566000
20
774.478000
11
628.566000
21
764.741000
0
LINE
8
Layer 1
10
628.566000
20
764.741000
11
633.066000
21
764.741000
0
LINE
8
Layer 1
10
633.066000
20
764.741000
11
633.066000
21
755.004000
0
LINE
8
Layer 1
10
633.066000
20
755.004000
11
628.566000
21
755.004000
0
LINE
8
Layer 1
10
628.566000
20
755.004000
11
628.566000
21
745.267000
0
LINE
8
Layer 1
10
628.566000
20
745.267000
11
633.066000
21
745.267000
0
LINE
8
Layer 1
10
633.066000
20
745.267000
11
633.066000
21
735.530000
0
LINE
8
Layer 1
10
633.066000
20
735.530000
11
628.566000
21
735.530000
0
LINE
8
Layer 1
10
628.566000
20
735.530000
11
628.566000
21
725.794000
0
LINE
8
Layer 1
10
628.566000
20
725.794000
11
633.066000
21
725.794000
0
LINE
8
Layer 1
10
633.066000
20
725.794000
11
633.066000
21
716.057000
0
LINE
8
Layer 1
10
633.066000
20
716.057000
11
628.566000
21
716.057000
0
LINE
8
Layer 1
10
628.566000
20
716.057000
11
628.566000
21
706.320000
0
LINE
8
Layer 1
10
628.566000
20
706.320000
11
633.066000
21
706.320000
0
LINE
8
Layer 1
10
633.066000
20
706.320000
11
633.066000
21
696.583000
0
LINE
8
Layer 1
10
633.066000
20
696.583000
11
628.566000
21
696.583000
0
LINE
8
Layer 1
10
628.566000
20
696.583000
11
628.566000
21
686.846000
0
LINE
8
Layer 1
10
628.566000
20
686.846000
11
633.066000
21
686.846000
0
LINE
8
Layer 1
10
633.066000
20
686.846000
11
633.066000
21
677.109000
0
LINE
8
Layer 1
10
633.066000
20
677.109000
11
628.566000
21
677.109000
0
LINE
8
Layer 1
10
628.566000
20
677.109000
11
628.566000
21
667.372000
0
LINE
8
Layer 1
10
628.566000
20
667.372000
11
633.066000
21
667.372000
0
LINE
8
Layer 1
10
633.066000
20
667.372000
11
633.066000
21
657.636000
0
LINE
8
Layer 1
10
633.066000
20
657.636000
11
628.566000
21
657.636000
0
LINE
8
Layer 1
10
628.566000
20
657.636000
11
628.566000
21
647.899000
0
LINE
8
Layer 1
10
628.566000
20
647.899000
11
633.066000
21
647.899000
0
LINE
8
Layer 1
10
633.066000
20
647.899000
11
633.066000
21
638.162000
0
LINE
8
Layer 1
10
633.066000
20
638.162000
11
628.566000
21
638.162000
0
LINE
8
Layer 1
10
628.566000
20
638.162000
11
628.566000
21
628.425000
0
LINE
8
Layer 1
10
628.566000
20
628.425000
11
633.066000
21
628.425000
0
LINE
8
Layer 1
10
633.066000
20
628.425000
11
633.066000
21
618.688000
0
LINE
8
Layer 1
10
633.066000
20
618.688000
11
628.566000
21
618.688000
0
LINE
8
Layer 1
10
628.566000
20
618.688000
11
628.566000
21
608.951000
0
LINE
8
Layer 1
10
628.566000
20
608.951000
11
633.066000
21
608.951000
0
LINE
8
Layer 1
10
633.066000
20
608.951000
11
633.066000
21
604.451000
0
LINE
8
Layer 1
10
633.066000
20
604.451000
11
714.066000
21
604.451000
0
LINE
8
Layer 1
10
714.066000
20
604.451000
11
714.066000
21
608.951000
0
LINE
8
Layer 1
10
714.066000
20
608.951000
11
718.566000
21
608.951000
0
LINE
8
Layer 1
10
718.566000
20
608.951000
11
718.566000
21
618.688000
0
LINE
8
Layer 1
10
718.566000
20
618.688000
11
714.066000
21
618.688000
0
LINE
8
Layer 1
10
714.066000
20
618.688000
11
714.066000
21
628.425000
0
LINE
8
Layer 1
10
714.066000
20
628.425000
11
718.566000
21
628.425000
0
LINE
8
Layer 1
10
718.566000
20
628.425000
11
718.566000
21
638.162000
0
LINE
8
Layer 1
10
718.566000
20
638.162000
11
714.066000
21
638.162000
0
LINE
8
Layer 1
10
714.066000
20
638.162000
11
714.066000
21
647.899000
0
LINE
8
Layer 1
10
714.066000
20
647.899000
11
718.566000
21
647.899000
0
LINE
8
Layer 1
10
718.566000
20
647.899000
11
718.566000
21
657.636000
0
LINE
8
Layer 1
10
718.566000
20
657.636000
11
714.066000
21
657.636000
0
LINE
8
Layer 1
10
714.066000
20
657.636000
11
714.066000
21
667.372000
0
LINE
8
Layer 1
10
714.066000
20
667.372000
11
718.566000
21
667.372000
0
LINE
8
Layer 1
10
718.566000
20
667.372000
11
718.566000
21
677.109000
0
LINE
8
Layer 1
10
718.566000
20
677.109000
11
714.066000
21
677.109000
0
LINE
8
Layer 1
10
714.066000
20
677.109000
11
714.066000
21
686.846000
0
LINE
8
Layer 1
10
714.066000
20
686.846000
11
718.566000
21
686.846000
0
LINE
8
Layer 1
10
718.566000
20
686.846000
11
718.566000
21
696.583000
0
LINE
8
Layer 1
10
718.566000
20
696.583000
11
714.066000
21
696.583000
0
LINE
8
Layer 1
10
714.066000
20
696.583000
11
714.066000
21
706.320000
0
LINE
8
Layer 1
10
714.066000
20
706.320000
11
718.566000
21
706.320000
0
LINE
8
Layer 1
10
718.566000
20
706.320000
11
718.566000
21
716.057000
0
LINE
8
Layer 1
10
718.566000
20
716.057000
11
714.066000
21
716.057000
0
LINE
8
Layer 1
10
714.066000
20
716.057000
11
714.066000
21
725.794000
0
LINE
8
Layer 1
10
714.066000
20
725.794000
11
718.566000
21
725.794000
0
LINE
8
Layer 1
10
718.566000
20
725.794000
11
718.566000
21
735.530000
0
LINE
8
Layer 1
10
718.566000
20
735.530000
11
714.066000
21
735.530000
0
LINE
8
Layer 1
10
714.066000
20
735.530000
11
714.066000
21
745.267000
0
LINE
8
Layer 1
10
714.066000
20
745.267000
11
718.566000
21
745.267000
0
LINE
8
Layer 1
10
718.566000
20
745.267000
11
718.566000
21
755.004000
0
LINE
8
Layer 1
10
718.566000
20
755.004000
11
714.066000
21
755.004000
0
LINE
8
Layer 1
10
714.066000
20
755.004000
11
714.066000
21
764.741000
0
LINE
8
Layer 1
10
714.066000
20
764.741000
11
718.566000
21
764.741000
0
LINE
8
Layer 1
10
718.566000
20
764.741000
11
718.566000
21
764.741000
0
LINE
8
Layer 1
10
726.585000
20
882.216000
11
717.585000
21
882.216000
0
LINE
8
Layer 1
10
717.585000
20
882.216000
11
717.585000
21
877.716000
0
LINE
8
Layer 1
10
717.585000
20
877.716000
11
712.118000
21
877.716000
0
LINE
8
Layer 1
10
712.118000
20
877.716000
11
712.118000
21
882.216000
0
LINE
8
Layer 1
10
712.118000
20
882.216000
11
706.651000
21
882.216000
0
LINE
8
Layer 1
10
706.651000
20
882.216000
11
706.651000
21
877.716000
0
LINE
8
Layer 1
10
706.651000
20
877.716000
11
701.185000
21
877.716000
0
LINE
8
Layer 1
10
701.185000
20
877.716000
11
701.185000
21
882.216000
0
LINE
8
Layer 1
10
701.185000
20
882.216000
11
692.185000
21
882.216000
0
LINE
8
Layer 1
10
692.185000
20
882.216000
11
692.185000
21
801.416000
0
LINE
8
Layer 1
10
692.185000
20
801.416000
11
701.185000
21
801.416000
0
LINE
8
Layer 1
10
701.185000
20
801.416000
11
701.185000
21
805.916000
0
LINE
8
Layer 1
10
701.185000
20
805.916000
11
706.651000
21
805.916000
0
LINE
8
Layer 1
10
706.651000
20
805.916000
11
706.651000
21
801.416000
0
LINE
8
Layer 1
10
706.651000
20
801.416000
11
712.118000
21
801.416000
0
LINE
8
Layer 1
10
712.118000
20
801.416000
11
712.118000
21
805.916000
0
LINE
8
Layer 1
10
712.118000
20
805.916000
11
717.585000
21
805.916000
0
LINE
8
Layer 1
10
717.585000
20
805.916000
11
717.585000
21
801.416000
0
LINE
8
Layer 1
10
717.585000
20
801.416000
11
726.585000
21
801.416000
0
LINE
8
Layer 1
10
726.585000
20
801.416000
11
726.585000
21
814.916000
0
LINE
8
Layer 1
10
726.585000
20
814.916000
11
722.085000
21
814.916000
0
LINE
8
Layer 1
10
722.085000
20
814.916000
11
722.085000
21
822.601000
0
LINE
8
Layer 1
10
722.085000
20
822.601000
11
726.585000
21
822.601000
0
LINE
8
Layer 1
10
726.585000
20
822.601000
11
726.585000
21
830.287000
0
LINE
8
Layer 1
10
726.585000
20
830.287000
11
722.085000
21
830.287000
0
LINE
8
Layer 1
10
722.085000
20
830.287000
11
722.085000
21
837.973000
0
LINE
8
Layer 1
10
722.085000
20
837.973000
11
726.585000
21
837.973000
0
LINE
8
Layer 1
10
726.585000
20
837.973000
11
726.585000
21
845.659000
0
LINE
8
Layer 1
10
726.585000
20
845.659000
11
722.085000
21
845.659000
0
LINE
8
Layer 1
10
722.085000
20
845.659000
11
722.085000
21
853.344000
0
LINE
8
Layer 1
10
722.085000
20
853.344000
11
726.585000
21
853.344000
0
LINE
8
Layer 1
10
726.585000
20
853.344000
11
726.585000
21
861.030000
0
LINE
8
Layer 1
10
726.585000
20
861.030000
11
722.085000
21
861.030000
0
LINE
8
Layer 1
10
722.085000
20
861.030000
11
722.085000
21
868.716000
0
LINE
8
Layer 1
10
722.085000
20
868.716000
11
726.585000
21
868.716000
0
LINE
8
Layer 1
10
726.585000
20
868.716000
11
726.585000
21
882.216000
0
LINE
8
Layer 1
10
726.585000
20
882.216000
11
726.585000
21
882.216000
0
LINE
8
Layer 1
10
701.184000
20
959.516000
11
701.184000
21
964.016000
0
LINE
8
Layer 1
10
701.184000
20
964.016000
11
692.184000
21
964.016000
0
LINE
8
Layer 1
10
692.184000
20
964.016000
11
692.184000
21
883.216000
0
LINE
8
Layer 1
10
692.184000
20
883.216000
11
701.184000
21
883.216000
0
LINE
8
Layer 1
10
701.184000
20
883.216000
11
701.184000
21
887.716000
0
LINE
8
Layer 1
10
701.184000
20
887.716000
11
706.651000
21
887.716000
0
LINE
8
Layer 1
10
706.651000
20
887.716000
11
706.651000
21
883.216000
0
LINE
8
Layer 1
10
706.651000
20
883.216000
11
712.118000
21
883.216000
0
LINE
8
Layer 1
10
712.118000
20
883.216000
11
712.118000
21
887.716000
0
LINE
8
Layer 1
10
712.118000
20
887.716000
11
717.584000
21
887.716000
0
LINE
8
Layer 1
10
717.584000
20
887.716000
11
717.584000
21
883.216000
0
LINE
8
Layer 1
10
717.584000
20
883.216000
11
726.584000
21
883.216000
0
LINE
8
Layer 1
10
726.584000
20
883.216000
11
726.584000
21
896.716000
0
LINE
8
Layer 1
10
726.584000
20
896.716000
11
722.084000
21
896.716000
0
LINE
8
Layer 1
10
722.084000
20
896.716000
11
722.084000
21
904.402000
0
LINE
8
Layer 1
10
722.084000
20
904.402000
11
726.584000
21
904.402000
0
LINE
8
Layer 1
10
726.584000
20
904.402000
11
726.584000
21
912.088000
0
LINE
8
Layer 1
10
726.584000
20
912.088000
11
722.084000
21
912.088000
0
LINE
8
Layer 1
10
722.084000
20
912.088000
11
722.084000
21
919.773000
0
LINE
8
Layer 1
10
722.084000
20
919.773000
11
726.584000
21
919.773000
0
LINE
8
Layer 1
10
726.584000
20
919.773000
11
726.584000
21
927.459000
0
LINE
8
Layer 1
10
726.584000
20
927.459000
11
722.084000
21
927.459000
0
LINE
8
Layer 1
10
722.084000
20
927.459000
11
722.084000
21
935.145000
0
LINE
8
Layer 1
10
722.084000
20
935.145000
11
726.584000
21
935.145000
0
LINE
8
Layer 1
10
726.584000
20
935.145000
11
726.584000
21
942.831000
0
LINE
8
Layer 1
10
726.584000
20
942.831000
11
722.084000
21
942.831000
0
LINE
8
Layer 1
10
722.084000
20
942.831000
11
722.084000
21
950.516000
0
LINE
8
Layer 1
10
722.084000
20
950.516000
11
726.584000
21
950.516000
0
LINE
8
Layer 1
10
726.584000
20
950.516000
11
726.584000
21
964.016000
0
LINE
8
Layer 1
10
726.584000
20
964.016000
11
717.584000
21
964.016000
0
LINE
8
Layer 1
10
717.584000
20
964.016000
11
717.584000
21
959.516000
0
LINE
8
Layer 1
10
717.584000
20
959.516000
11
712.118000
21
959.516000
0
LINE
8
Layer 1
10
712.118000
20
959.516000
11
712.118000
21
964.016000
0
LINE
8
Layer 1
10
712.118000
20
964.016000
11
706.651000
21
964.016000
0
LINE
8
Layer 1
10
706.651000
20
964.016000
11
706.651000
21
959.516000
0
LINE
8
Layer 1
10
706.651000
20
959.516000
11
701.184000
21
959.516000
0
LINE
8
Layer 1
10
701.184000
20
959.516000
11
701.184000
21
959.516000
0
LINE
8
Layer 1
10
688.812000
20
949.510000
11
684.312000
21
949.510000
0
LINE
8
Layer 1
10
684.312000
20
949.510000
11
684.312000
21
940.110000
0
LINE
8
Layer 1
10
684.312000
20
940.110000
11
688.812000
21
940.110000
0
LINE
8
Layer 1
10
688.812000
20
940.110000
11
688.812000
21
930.709000
0
LINE
8
Layer 1
10
688.812000
20
930.709000
11
684.312000
21
930.709000
0
LINE
8
Layer 1
10
684.312000
20
930.709000
11
684.312000
21
921.310000
0
LINE
8
Layer 1
10
684.312000
20
921.310000
11
688.812000
21
921.310000
0
LINE
8
Layer 1
10
688.812000
20
921.310000
11
688.812000
21
911.910000
0
LINE
8
Layer 1
10
688.812000
20
911.910000
11
684.312000
21
911.910000
0
LINE
8
Layer 1
10
684.312000
20
911.910000
11
684.312000
21
902.510000
0
LINE
8
Layer 1
10
684.312000
20
902.510000
11
688.812000
21
902.510000
0
LINE
8
Layer 1
10
688.812000
20
902.510000
11
688.812000
21
893.110000
0
LINE
8
Layer 1
10
688.812000
20
893.110000
11
684.312000
21
893.110000
0
LINE
8
Layer 1
10
684.312000
20
893.110000
11
684.312000
21
883.709000
0
LINE
8
Layer 1
10
684.312000
20
883.709000
11
688.812000
21
883.709000
0
LINE
8
Layer 1
10
688.812000
20
883.709000
11
688.812000
21
874.310000
0
LINE
8
Layer 1
10
688.812000
20
874.310000
11
684.312000
21
874.310000
0
LINE
8
Layer 1
10
684.312000
20
874.310000
11
684.312000
21
864.910000
0
LINE
8
Layer 1
10
684.312000
20
864.910000
11
688.812000
21
864.910000
0
LINE
8
Layer 1
10
688.812000
20
864.910000
11
688.812000
21
855.510000
0
LINE
8
Layer 1
10
688.812000
20
855.510000
11
684.312000
21
855.510000
0
LINE
8
Layer 1
10
684.312000
20
855.510000
11
684.312000
21
846.110000
0
LINE
8
Layer 1
10
684.312000
20
846.110000
11
688.812000
21
846.110000
0
LINE
8
Layer 1
10
688.812000
20
846.110000
11
688.812000
21
836.710000
0
LINE
8
Layer 1
10
688.812000
20
836.710000
11
684.312000
21
836.710000
0
LINE
8
Layer 1
10
684.312000
20
836.710000
11
684.312000
21
827.310000
0
LINE
8
Layer 1
10
684.312000
20
827.310000
11
688.812000
21
827.310000
0
LINE
8
Layer 1
10
688.812000
20
827.310000
11
688.812000
21
817.910000
0
LINE
8
Layer 1
10
688.812000
20
817.910000
11
684.312000
21
817.910000
0
LINE
8
Layer 1
10
684.312000
20
817.910000
11
684.312000
21
808.510000
0
LINE
8
Layer 1
10
684.312000
20
808.510000
11
688.812000
21
808.510000
0
LINE
8
Layer 1
10
688.812000
20
808.510000
11
688.812000
21
802.010000
0
LINE
8
Layer 1
10
688.812000
20
802.010000
11
679.812000
21
802.010000
0
LINE
8
Layer 1
10
679.812000
20
802.010000
11
679.812000
21
799.510000
0
LINE
8
Layer 1
10
679.812000
20
799.510000
11
674.345000
21
799.510000
0
LINE
8
Layer 1
10
674.345000
20
799.510000
11
674.345000
21
802.010000
0
LINE
8
Layer 1
10
674.345000
20
802.010000
11
668.878000
21
802.010000
0
LINE
8
Layer 1
10
668.878000
20
802.010000
11
668.878000
21
799.510000
0
LINE
8
Layer 1
10
668.878000
20
799.510000
11
663.412000
21
799.510000
0
LINE
8
Layer 1
10
663.412000
20
799.510000
11
663.412000
21
802.010000
0
LINE
8
Layer 1
10
663.412000
20
802.010000
11
654.412000
21
802.010000
0
LINE
8
Layer 1
10
654.412000
20
802.010000
11
654.412000
21
956.010000
0
LINE
8
Layer 1
10
654.412000
20
956.010000
11
663.412000
21
956.010000
0
LINE
8
Layer 1
10
663.412000
20
956.010000
11
663.412000
21
958.510000
0
LINE
8
Layer 1
10
663.412000
20
958.510000
11
668.878000
21
958.510000
0
LINE
8
Layer 1
10
668.878000
20
958.510000
11
668.878000
21
956.010000
0
LINE
8
Layer 1
10
668.878000
20
956.010000
11
674.345000
21
956.010000
0
LINE
8
Layer 1
10
674.345000
20
956.010000
11
674.345000
21
958.510000
0
LINE
8
Layer 1
10
674.345000
20
958.510000
11
679.812000
21
958.510000
0
LINE
8
Layer 1
10
679.812000
20
958.510000
11
679.812000
21
956.010000
0
LINE
8
Layer 1
10
679.812000
20
956.010000
11
688.812000
21
956.010000
0
LINE
8
Layer 1
10
688.812000
20
956.010000
11
688.812000
21
949.510000
0
LINE
8
Layer 1
10
688.812000
20
949.510000
11
688.812000
21
949.510000
0
LINE
8
Layer 1
10
653.408000
20
801.956000
11
644.408000
21
801.956000
0
LINE
8
Layer 1
10
644.408000
20
801.956000
11
644.408000
21
799.456000
0
LINE
8
Layer 1
10
644.408000
20
799.456000
11
638.942000
21
799.456000
0
LINE
8
Layer 1
10
638.942000
20
799.456000
11
638.942000
21
801.956000
0
LINE
8
Layer 1
10
638.942000
20
801.956000
11
633.475000
21
801.956000
0
LINE
8
Layer 1
10
633.475000
20
801.956000
11
633.475000
21
799.456000
0
LINE
8
Layer 1
10
633.475000
20
799.456000
11
628.008000
21
799.456000
0
LINE
8
Layer 1
10
628.008000
20
799.456000
11
628.008000
21
801.956000
0
LINE
8
Layer 1
10
628.008000
20
801.956000
11
619.008000
21
801.956000
0
LINE
8
Layer 1
10
619.008000
20
801.956000
11
619.008000
21
808.456000
0
LINE
8
Layer 1
10
619.008000
20
808.456000
11
623.508000
21
808.456000
0
LINE
8
Layer 1
10
623.508000
20
808.456000
11
623.508000
21
817.856000
0
LINE
8
Layer 1
10
623.508000
20
817.856000
11
619.008000
21
817.856000
0
LINE
8
Layer 1
10
619.008000
20
817.856000
11
619.008000
21
827.257000
0
LINE
8
Layer 1
10
619.008000
20
827.257000
11
623.508000
21
827.257000
0
LINE
8
Layer 1
10
623.508000
20
827.257000
11
623.508000
21
836.656000
0
LINE
8
Layer 1
10
623.508000
20
836.656000
11
619.008000
21
836.656000
0
LINE
8
Layer 1
10
619.008000
20
836.656000
11
619.008000
21
846.056000
0
LINE
8
Layer 1
10
619.008000
20
846.056000
11
623.508000
21
846.056000
0
LINE
8
Layer 1
10
623.508000
20
846.056000
11
623.508000
21
855.456000
0
LINE
8
Layer 1
10
623.508000
20
855.456000
11
619.008000
21
855.456000
0
LINE
8
Layer 1
10
619.008000
20
855.456000
11
619.008000
21
864.856000
0
LINE
8
Layer 1
10
619.008000
20
864.856000
11
623.508000
21
864.856000
0
LINE
8
Layer 1
10
623.508000
20
864.856000
11
623.508000
21
874.257000
0
LINE
8
Layer 1
10
623.508000
20
874.257000
11
619.008000
21
874.257000
0
LINE
8
Layer 1
10
619.008000
20
874.257000
11
619.008000
21
883.656000
0
LINE
8
Layer 1
10
619.008000
20
883.656000
11
623.508000
21
883.656000
0
LINE
8
Layer 1
10
623.508000
20
883.656000
11
623.508000
21
893.056000
0
LINE
8
Layer 1
10
623.508000
20
893.056000
11
619.008000
21
893.056000
0
LINE
8
Layer 1
10
619.008000
20
893.056000
11
619.008000
21
902.456000
0
LINE
8
Layer 1
10
619.008000
20
902.456000
11
623.508000
21
902.456000
0
LINE
8
Layer 1
10
623.508000
20
902.456000
11
623.508000
21
911.856000
0
LINE
8
Layer 1
10
623.508000
20
911.856000
11
619.008000
21
911.856000
0
LINE
8
Layer 1
10
619.008000
20
911.856000
11
619.008000
21
921.256000
0
LINE
8
Layer 1
10
619.008000
20
921.256000
11
623.508000
21
921.256000
0
LINE
8
Layer 1
10
623.508000
20
921.256000
11
623.508000
21
930.656000
0
LINE
8
Layer 1
10
623.508000
20
930.656000
11
619.008000
21
930.656000
0
LINE
8
Layer 1
10
619.008000
20
930.656000
11
619.008000
21
940.056000
0
LINE
8
Layer 1
10
619.008000
20
940.056000
11
623.508000
21
940.056000
0
LINE
8
Layer 1
10
623.508000
20
940.056000
11
623.508000
21
949.456000
0
LINE
8
Layer 1
10
623.508000
20
949.456000
11
619.008000
21
949.456000
0
LINE
8
Layer 1
10
619.008000
20
949.456000
11
619.008000
21
955.956000
0
LINE
8
Layer 1
10
619.008000
20
955.956000
11
628.008000
21
955.956000
0
LINE
8
Layer 1
10
628.008000
20
955.956000
11
628.008000
21
958.456000
0
LINE
8
Layer 1
10
628.008000
20
958.456000
11
633.475000
21
958.456000
0
LINE
8
Layer 1
10
633.475000
20
958.456000
11
633.475000
21
955.956000
0
LINE
8
Layer 1
10
633.475000
20
955.956000
11
638.942000
21
955.956000
0
LINE
8
Layer 1
10
638.942000
20
955.956000
11
638.942000
21
958.456000
0
LINE
8
Layer 1
10
638.942000
20
958.456000
11
644.408000
21
958.456000
0
LINE
8
Layer 1
10
644.408000
20
958.456000
11
644.408000
21
955.956000
0
LINE
8
Layer 1
10
644.408000
20
955.956000
11
653.408000
21
955.956000
0
LINE
8
Layer 1
10
653.408000
20
955.956000
11
653.408000
21
801.956000
0
LINE
8
Layer 1
10
653.408000
20
801.956000
11
653.408000
21
801.956000
0
LINE
8
Layer 1
10
550.554000
20
800.027000
11
558.239000
21
800.027000
0
LINE
8
Layer 1
10
558.239000
20
800.027000
11
558.239000
21
802.527000
0
LINE
8
Layer 1
10
558.239000
20
802.527000
11
565.925000
21
802.527000
0
LINE
8
Layer 1
10
565.925000
20
802.527000
11
565.925000
21
800.027000
0
LINE
8
Layer 1
10
565.925000
20
800.027000
11
573.611000
21
800.027000
0
LINE
8
Layer 1
10
573.611000
20
800.027000
11
573.611000
21
802.527000
0
LINE
8
Layer 1
10
573.611000
20
802.527000
11
581.297000
21
802.527000
0
LINE
8
Layer 1
10
581.297000
20
802.527000
11
581.297000
21
800.027000
0
LINE
8
Layer 1
10
581.297000
20
800.027000
11
588.982000
21
800.027000
0
LINE
8
Layer 1
10
588.982000
20
800.027000
11
588.982000
21
802.527000
0
LINE
8
Layer 1
10
588.982000
20
802.527000
11
596.668000
21
802.527000
0
LINE
8
Layer 1
10
596.668000
20
802.527000
11
596.668000
21
800.027000
0
LINE
8
Layer 1
10
596.668000
20
800.027000
11
604.354000
21
800.027000
0
LINE
8
Layer 1
10
604.354000
20
800.027000
11
604.354000
21
802.527000
0
LINE
8
Layer 1
10
604.354000
20
802.527000
11
613.354000
21
802.527000
0
LINE
8
Layer 1
10
613.354000
20
802.527000
11
613.354000
21
809.027000
0
LINE
8
Layer 1
10
613.354000
20
809.027000
11
617.854000
21
809.027000
0
LINE
8
Layer 1
10
617.854000
20
809.027000
11
617.854000
21
818.427000
0
LINE
8
Layer 1
10
617.854000
20
818.427000
11
613.354000
21
818.427000
0
LINE
8
Layer 1
10
613.354000
20
818.427000
11
613.354000
21
827.827000
0
LINE
8
Layer 1
10
613.354000
20
827.827000
11
617.854000
21
827.827000
0
LINE
8
Layer 1
10
617.854000
20
827.827000
11
617.854000
21
837.227000
0
LINE
8
Layer 1
10
617.854000
20
837.227000
11
613.354000
21
837.227000
0
LINE
8
Layer 1
10
613.354000
20
837.227000
11
613.354000
21
846.627000
0
LINE
8
Layer 1
10
613.354000
20
846.627000
11
617.854000
21
846.627000
0
LINE
8
Layer 1
10
617.854000
20
846.627000
11
617.854000
21
856.027000
0
LINE
8
Layer 1
10
617.854000
20
856.027000
11
613.354000
21
856.027000
0
LINE
8
Layer 1
10
613.354000
20
856.027000
11
613.354000
21
865.427000
0
LINE
8
Layer 1
10
613.354000
20
865.427000
11
617.854000
21
865.427000
0
LINE
8
Layer 1
10
617.854000
20
865.427000
11
617.854000
21
874.827000
0
LINE
8
Layer 1
10
617.854000
20
874.827000
11
613.354000
21
874.827000
0
LINE
8
Layer 1
10
613.354000
20
874.827000
11
613.354000
21
884.227000
0
LINE
8
Layer 1
10
613.354000
20
884.227000
11
617.854000
21
884.227000
0
LINE
8
Layer 1
10
617.854000
20
884.227000
11
617.854000
21
893.627000
0
LINE
8
Layer 1
10
617.854000
20
893.627000
11
613.354000
21
893.627000
0
LINE
8
Layer 1
10
613.354000
20
893.627000
11
613.354000
21
903.027000
0
LINE
8
Layer 1
10
613.354000
20
903.027000
11
617.854000
21
903.027000
0
LINE
8
Layer 1
10
617.854000
20
903.027000
11
617.854000
21
912.427000
0
LINE
8
Layer 1
10
617.854000
20
912.427000
11
613.354000
21
912.427000
0
LINE
8
Layer 1
10
613.354000
20
912.427000
11
613.354000
21
921.827000
0
LINE
8
Layer 1
10
613.354000
20
921.827000
11
617.854000
21
921.827000
0
LINE
8
Layer 1
10
617.854000
20
921.827000
11
617.854000
21
931.227000
0
LINE
8
Layer 1
10
617.854000
20
931.227000
11
613.354000
21
931.227000
0
LINE
8
Layer 1
10
613.354000
20
931.227000
11
613.354000
21
940.627000
0
LINE
8
Layer 1
10
613.354000
20
940.627000
11
617.854000
21
940.627000
0
LINE
8
Layer 1
10
617.854000
20
940.627000
11
617.854000
21
950.027000
0
LINE
8
Layer 1
10
617.854000
20
950.027000
11
613.354000
21
950.027000
0
LINE
8
Layer 1
10
613.354000
20
950.027000
11
613.354000
21
956.527000
0
LINE
8
Layer 1
10
613.354000
20
956.527000
11
604.354000
21
956.527000
0
LINE
8
Layer 1
10
604.354000
20
956.527000
11
604.354000
21
959.027000
0
LINE
8
Layer 1
10
604.354000
20
959.027000
11
596.668000
21
959.027000
0
LINE
8
Layer 1
10
596.668000
20
959.027000
11
596.668000
21
956.527000
0
LINE
8
Layer 1
10
596.668000
20
956.527000
11
588.982000
21
956.527000
0
LINE
8
Layer 1
10
588.982000
20
956.527000
11
588.982000
21
959.027000
0
LINE
8
Layer 1
10
588.982000
20
959.027000
11
581.297000
21
959.027000
0
LINE
8
Layer 1
10
581.297000
20
959.027000
11
581.297000
21
956.527000
0
LINE
8
Layer 1
10
581.297000
20
956.527000
11
573.611000
21
956.527000
0
LINE
8
Layer 1
10
573.611000
20
956.527000
11
573.611000
21
959.027000
0
LINE
8
Layer 1
10
573.611000
20
959.027000
11
565.925000
21
959.027000
0
LINE
8
Layer 1
10
565.925000
20
959.027000
11
565.925000
21
956.527000
0
LINE
8
Layer 1
10
565.925000
20
956.527000
11
558.239000
21
956.527000
0
LINE
8
Layer 1
10
558.239000
20
956.527000
11
558.239000
21
959.027000
0
LINE
8
Layer 1
10
558.239000
20
959.027000
11
550.554000
21
959.027000
0
LINE
8
Layer 1
10
550.554000
20
959.027000
11
550.554000
21
956.527000
0
LINE
8
Layer 1
10
550.554000
20
956.527000
11
541.554000
21
956.527000
0
LINE
8
Layer 1
10
541.554000
20
956.527000
11
541.554000
21
950.027000
0
LINE
8
Layer 1
10
541.554000
20
950.027000
11
537.054000
21
950.027000
0
LINE
8
Layer 1
10
537.054000
20
950.027000
11
537.054000
21
940.627000
0
LINE
8
Layer 1
10
537.054000
20
940.627000
11
541.554000
21
940.627000
0
LINE
8
Layer 1
10
541.554000
20
940.627000
11
541.554000
21
931.227000
0
LINE
8
Layer 1
10
541.554000
20
931.227000
11
537.054000
21
931.227000
0
LINE
8
Layer 1
10
537.054000
20
931.227000
11
537.054000
21
921.827000
0
LINE
8
Layer 1
10
537.054000
20
921.827000
11
541.554000
21
921.827000
0
LINE
8
Layer 1
10
541.554000
20
921.827000
11
541.554000
21
912.427000
0
LINE
8
Layer 1
10
541.554000
20
912.427000
11
537.054000
21
912.427000
0
LINE
8
Layer 1
10
537.054000
20
912.427000
11
537.054000
21
903.027000
0
LINE
8
Layer 1
10
537.054000
20
903.027000
11
541.554000
21
903.027000
0
LINE
8
Layer 1
10
541.554000
20
903.027000
11
541.554000
21
893.627000
0
LINE
8
Layer 1
10
541.554000
20
893.627000
11
537.054000
21
893.627000
0
LINE
8
Layer 1
10
537.054000
20
893.627000
11
537.054000
21
884.227000
0
LINE
8
Layer 1
10
537.054000
20
884.227000
11
541.554000
21
884.227000
0
LINE
8
Layer 1
10
541.554000
20
884.227000
11
541.554000
21
874.827000
0
LINE
8
Layer 1
10
541.554000
20
874.827000
11
537.054000
21
874.827000
0
LINE
8
Layer 1
10
537.054000
20
874.827000
11
537.054000
21
865.427000
0
LINE
8
Layer 1
10
537.054000
20
865.427000
11
541.554000
21
865.427000
0
LINE
8
Layer 1
10
541.554000
20
865.427000
11
541.554000
21
856.027000
0
LINE
8
Layer 1
10
541.554000
20
856.027000
11
537.054000
21
856.027000
0
LINE
8
Layer 1
10
537.054000
20
856.027000
11
537.054000
21
846.627000
0
LINE
8
Layer 1
10
537.054000
20
846.627000
11
541.554000
21
846.627000
0
LINE
8
Layer 1
10
541.554000
20
846.627000
11
541.554000
21
837.227000
0
LINE
8
Layer 1
10
541.554000
20
837.227000
11
537.054000
21
837.227000
0
LINE
8
Layer 1
10
537.054000
20
837.227000
11
537.054000
21
827.827000
0
LINE
8
Layer 1
10
537.054000
20
827.827000
11
541.554000
21
827.827000
0
LINE
8
Layer 1
10
541.554000
20
827.827000
11
541.554000
21
818.427000
0
LINE
8
Layer 1
10
541.554000
20
818.427000
11
537.054000
21
818.427000
0
LINE
8
Layer 1
10
537.054000
20
818.427000
11
537.054000
21
809.027000
0
LINE
8
Layer 1
10
537.054000
20
809.027000
11
541.554000
21
809.027000
0
LINE
8
Layer 1
10
541.554000
20
809.027000
11
541.554000
21
802.527000
0
LINE
8
Layer 1
10
541.554000
20
802.527000
11
550.554000
21
802.527000
0
LINE
8
Layer 1
10
550.554000
20
802.527000
11
550.554000
21
800.027000
0
LINE
8
Layer 1
10
550.554000
20
800.027000
11
550.554000
21
800.027000
0
LINE
8
Layer 1
10
101.953000
20
882.620000
11
101.762132
21
881.705914
0
LINE
8
Layer 1
10
101.762132
20
881.705914
11
101.427923
21
880.855062
0
LINE
8
Layer 1
10
101.427923
20
880.855062
11
100.382863
21
879.396500
0
LINE
8
Layer 1
10
100.382863
20
879.396500
11
98.924570
21
878.351187
0
LINE
8
Layer 1
10
98.924570
20
878.351187
11
98.073823
21
878.016898
0
LINE
8
Layer 1
10
98.073823
20
878.016898
11
97.159800
21
877.826000
0
LINE
8
Layer 1
10
97.159800
20
877.826000
11
97.159800
21
712.785000
0
LINE
8
Layer 1
10
97.159800
20
712.785000
11
141.660000
21
712.785000
0
LINE
8
Layer 1
10
141.660000
20
712.785000
11
145.749703
21
712.991520
0
LINE
8
Layer 1
10
145.749703
20
712.991520
11
149.721283
21
713.597674
0
LINE
8
Layer 1
10
149.721283
20
713.597674
11
153.554632
21
714.583354
0
LINE
8
Layer 1
10
153.554632
20
714.583354
11
157.229641
21
715.928453
0
LINE
8
Layer 1
10
157.229641
20
715.928453
11
160.726202
21
717.612863
0
LINE
8
Layer 1
10
160.726202
20
717.612863
11
164.024209
21
719.616475
0
LINE
8
Layer 1
10
164.024209
20
719.616475
11
167.103552
21
721.919181
0
LINE
8
Layer 1
10
167.103552
20
721.919181
11
169.944125
21
724.500875
0
LINE
8
Layer 1
10
169.944125
20
724.500875
11
172.525819
21
727.341448
0
LINE
8
Layer 1
10
172.525819
20
727.341448
11
174.828525
21
730.420791
0
LINE
8
Layer 1
10
174.828525
20
730.420791
11
176.832137
21
733.718798
0
LINE
8
Layer 1
10
176.832137
20
733.718798
11
178.516547
21
737.215359
0
LINE
8
Layer 1
10
178.516547
20
737.215359
11
179.861646
21
740.890368
0
LINE
8
Layer 1
10
179.861646
20
740.890368
11
180.847326
21
744.723717
0
LINE
8
Layer 1
10
180.847326
20
744.723717
11
181.453480
21
748.695297
0
LINE
8
Layer 1
10
181.453480
20
748.695297
11
181.660000
21
752.785000
0
LINE
8
Layer 1
10
181.660000
20
752.785000
11
181.660000
21
877.785000
0
LINE
8
Layer 1
10
181.660000
20
877.785000
11
181.469925
21
881.704903
0
LINE
8
Layer 1
10
181.469925
20
881.704903
11
180.911242
21
885.520723
0
LINE
8
Layer 1
10
180.911242
20
885.520723
11
180.001267
21
889.214064
0
LINE
8
Layer 1
10
180.001267
20
889.214064
11
178.757313
21
892.766531
0
LINE
8
Layer 1
10
178.757313
20
892.766531
11
177.196694
21
896.159729
0
LINE
8
Layer 1
10
177.196694
20
896.159729
11
175.336727
21
899.375262
0
LINE
8
Layer 1
10
175.336727
20
899.375262
11
173.194724
21
902.394734
0
LINE
8
Layer 1
10
173.194724
20
902.394734
11
170.788000
21
905.199750
0
LINE
8
Layer 1
10
170.788000
20
905.199750
11
168.133870
21
907.771915
0
LINE
8
Layer 1
10
168.133870
20
907.771915
11
165.249648
21
910.092832
0
LINE
8
Layer 1
10
165.249648
20
910.092832
11
162.152649
21
912.144107
0
LINE
8
Layer 1
10
162.152649
20
912.144107
11
158.860187
21
913.907344
0
LINE
8
Layer 1
10
158.860187
20
913.907344
11
155.389577
21
915.364147
0
LINE
8
Layer 1
10
155.389577
20
915.364147
11
151.758133
21
916.496121
0
LINE
8
Layer 1
10
151.758133
20
916.496121
11
147.983169
21
917.284871
0
LINE
8
Layer 1
10
147.983169
20
917.284871
11
144.082000
21
917.712000
0
LINE
8
Layer 1
10
144.082000
20
917.712000
11
140.157813
21
917.759672
0
LINE
8
Layer 1
10
140.157813
20
917.759672
11
136.315193
21
917.433092
0
LINE
8
Layer 1
10
136.315193
20
917.433092
11
132.573551
21
916.748431
0
LINE
8
Layer 1
10
132.573551
20
916.748431
11
128.952297
21
915.721859
0
LINE
8
Layer 1
10
128.952297
20
915.721859
11
125.470842
21
914.369548
0
LINE
8
Layer 1
10
125.470842
20
914.369548
11
122.148596
21
912.707666
0
LINE
8
Layer 1
10
122.148596
20
912.707666
11
119.004970
21
910.752385
0
LINE
8
Layer 1
10
119.004970
20
910.752385
11
116.059375
21
908.519875
0
LINE
8
Layer 1
10
116.059375
20
908.519875
11
113.331221
21
906.026306
0
LINE
8
Layer 1
10
113.331221
20
906.026306
11
110.839920
21
903.287850
0
LINE
8
Layer 1
10
110.839920
20
903.287850
11
108.604881
21
900.320675
0
LINE
8
Layer 1
10
108.604881
20
900.320675
11
106.645516
21
897.140953
0
LINE
8
Layer 1
10
106.645516
20
897.140953
11
104.981234
21
893.764854
0
LINE
8
Layer 1
10
104.981234
20
893.764854
11
103.631447
21
890.208549
0
LINE
8
Layer 1
10
103.631447
20
890.208549
11
102.615566
21
886.488207
0
LINE
8
Layer 1
10
102.615566
20
886.488207
11
101.953000
21
882.620000
0
LINE
8
Layer 1
10
14.106200
20
667.788000
11
94.906200
21
667.788000
0
LINE
8
Layer 1
10
94.906200
20
667.788000
11
94.906200
21
702.188000
0
LINE
8
Layer 1
10
94.906200
20
702.188000
11
14.106200
21
702.188000
0
LINE
8
Layer 1
10
14.106200
20
702.188000
11
14.106200
21
667.788000
0
LINE
8
Layer 1
10
14.106200
20
667.788000
11
14.106200
21
667.788000
0
LINE
8
Layer 1
10
95.106200
20
667.788000
11
175.906000
21
667.788000
0
LINE
8
Layer 1
10
175.906000
20
667.788000
11
175.906000
21
702.188000
0
LINE
8
Layer 1
10
175.906000
20
702.188000
11
95.106200
21
702.188000
0
LINE
8
Layer 1
10
95.106200
20
702.188000
11
95.106200
21
667.788000
0
LINE
8
Layer 1
10
95.106200
20
667.788000
11
95.106200
21
667.788000
0
LINE
8
Layer 1
10
91.866900
20
882.620000
11
92.057686
21
881.705914
0
LINE
8
Layer 1
10
92.057686
20
881.705914
11
92.391866
21
880.855062
0
LINE
8
Layer 1
10
92.391866
20
880.855062
11
93.436975
21
879.396500
0
LINE
8
Layer 1
10
93.436975
20
879.396500
11
94.895372
21
878.351187
0
LINE
8
Layer 1
10
94.895372
20
878.351187
11
95.746161
21
878.016898
0
LINE
8
Layer 1
10
95.746161
20
878.016898
11
96.660200
21
877.826000
0
LINE
8
Layer 1
10
96.660200
20
877.826000
11
96.660200
21
712.785000
0
LINE
8
Layer 1
10
96.660200
20
712.785000
11
52.160300
21
712.785000
0
LINE
8
Layer 1
10
52.160300
20
712.785000
11
48.070531
21
712.991520
0
LINE
8
Layer 1
10
48.070531
20
712.991520
11
44.098902
21
713.597674
0
LINE
8
Layer 1
10
44.098902
20
713.597674
11
40.265520
21
714.583354
0
LINE
8
Layer 1
10
40.265520
20
714.583354
11
36.590491
21
715.928453
0
LINE
8
Layer 1
10
36.590491
20
715.928453
11
33.093920
21
717.612863
0
LINE
8
Layer 1
10
33.093920
20
717.612863
11
29.795915
21
719.616475
0
LINE
8
Layer 1
10
29.795915
20
719.616475
11
26.716581
21
721.919181
0
LINE
8
Layer 1
10
26.716581
20
721.919181
11
23.876025
21
724.500875
0
LINE
8
Layer 1
10
23.876025
20
724.500875
11
21.294352
21
727.341448
0
LINE
8
Layer 1
10
21.294352
20
727.341448
11
18.991669
21
730.420791
0
LINE
8
Layer 1
10
18.991669
20
730.420791
11
16.988082
21
733.718798
0
LINE
8
Layer 1
10
16.988082
20
733.718798
11
15.303697
21
737.215359
0
LINE
8
Layer 1
10
15.303697
20
737.215359
11
13.958620
21
740.890368
0
LINE
8
Layer 1
10
13.958620
20
740.890368
11
12.972957
21
744.723717
0
LINE
8
Layer 1
10
12.972957
20
744.723717
11
12.366815
21
748.695297
0
LINE
8
Layer 1
10
12.366815
20
748.695297
11
12.160300
21
752.785000
0
LINE
8
Layer 1
10
12.160300
20
752.785000
11
12.160300
21
877.785000
0
LINE
8
Layer 1
10
12.160300
20
877.785000
11
12.350375
21
881.704903
0
LINE
8
Layer 1
10
12.350375
20
881.704903
11
12.909058
21
885.520723
0
LINE
8
Layer 1
10
12.909058
20
885.520723
11
13.819033
21
889.214064
0
LINE
8
Layer 1
10
13.819033
20
889.214064
11
15.062988
21
892.766531
0
LINE
8
Layer 1
10
15.062988
20
892.766531
11
16.623606
21
896.159729
0
LINE
8
Layer 1
10
16.623606
20
896.159729
11
18.483573
21
899.375262
0
LINE
8
Layer 1
10
18.483573
20
899.375262
11
20.625576
21
902.394734
0
LINE
8
Layer 1
10
20.625576
20
902.394734
11
23.032300
21
905.199750
0
LINE
8
Layer 1
10
23.032300
20
905.199750
11
25.686430
21
907.771915
0
LINE
8
Layer 1
10
25.686430
20
907.771915
11
28.570652
21
910.092832
0
LINE
8
Layer 1
10
28.570652
20
910.092832
11
31.667651
21
912.144107
0
LINE
8
Layer 1
10
31.667651
20
912.144107
11
34.960113
21
913.907344
0
LINE
8
Layer 1
10
34.960113
20
913.907344
11
38.430723
21
915.364147
0
LINE
8
Layer 1
10
38.430723
20
915.364147
11
42.062167
21
916.496121
0
LINE
8
Layer 1
10
42.062167
20
916.496121
11
45.837131
21
917.284871
0
LINE
8
Layer 1
10
45.837131
20
917.284871
11
49.738300
21
917.712000
0
LINE
8
Layer 1
10
49.738300
20
917.712000
11
53.662469
21
917.759672
0
LINE
8
Layer 1
10
53.662469
20
917.759672
11
57.505073
21
917.433092
0
LINE
8
Layer 1
10
57.505073
20
917.433092
11
61.246701
21
916.748431
0
LINE
8
Layer 1
10
61.246701
20
916.748431
11
64.867941
21
915.721859
0
LINE
8
Layer 1
10
64.867941
20
915.721859
11
68.349382
21
914.369548
0
LINE
8
Layer 1
10
68.349382
20
914.369548
11
71.671613
21
912.707666
0
LINE
8
Layer 1
10
71.671613
20
912.707666
11
74.815223
21
910.752385
0
LINE
8
Layer 1
10
74.815223
20
910.752385
11
77.760800
21
908.519875
0
LINE
8
Layer 1
10
77.760800
20
908.519875
11
80.488934
21
906.026306
0
LINE
8
Layer 1
10
80.488934
20
906.026306
11
82.980212
21
903.287850
0
LINE
8
Layer 1
10
82.980212
20
903.287850
11
85.215224
21
900.320675
0
LINE
8
Layer 1
10
85.215224
20
900.320675
11
87.174559
21
897.140953
0
LINE
8
Layer 1
10
87.174559
20
897.140953
11
88.838806
21
893.764854
0
LINE
8
Layer 1
10
88.838806
20
893.764854
11
90.188552
21
890.208549
0
LINE
8
Layer 1
10
90.188552
20
890.208549
11
91.204387
21
886.488207
0
LINE
8
Layer 1
10
91.204387
20
886.488207
11
91.866900
21
882.620000
0
LINE
8
Layer 1
10
16.159700
20
932.855000
11
11.659700
21
932.855000
0
LINE
8
Layer 1
10
11.659700
20
932.855000
11
11.659700
21
923.855000
0
LINE
8
Layer 1
10
11.659700
20
923.855000
11
92.459700
21
923.855000
0
LINE
8
Layer 1
10
92.459700
20
923.855000
11
92.459700
21
932.855000
0
LINE
8
Layer 1
10
92.459700
20
932.855000
11
87.959700
21
932.855000
0
LINE
8
Layer 1
10
87.959700
20
932.855000
11
87.959700
21
938.322000
0
LINE
8
Layer 1
10
87.959700
20
938.322000
11
92.459700
21
938.322000
0
LINE
8
Layer 1
10
92.459700
20
938.322000
11
92.459700
21
943.789000
0
LINE
8
Layer 1
10
92.459700
20
943.789000
11
87.959700
21
943.789000
0
LINE
8
Layer 1
10
87.959700
20
943.789000
11
87.959700
21
949.255000
0
LINE
8
Layer 1
10
87.959700
20
949.255000
11
92.459700
21
949.255000
0
LINE
8
Layer 1
10
92.459700
20
949.255000
11
92.459700
21
958.255000
0
LINE
8
Layer 1
10
92.459700
20
958.255000
11
78.959700
21
958.255000
0
LINE
8
Layer 1
10
78.959700
20
958.255000
11
78.959700
21
953.755000
0
LINE
8
Layer 1
10
78.959700
20
953.755000
11
71.274000
21
953.755000
0
LINE
8
Layer 1
10
71.274000
20
953.755000
11
71.274000
21
958.255000
0
LINE
8
Layer 1
10
71.274000
20
958.255000
11
63.588300
21
958.255000
0
LINE
8
Layer 1
10
63.588300
20
958.255000
11
63.588300
21
953.755000
0
LINE
8
Layer 1
10
63.588300
20
953.755000
11
55.902500
21
953.755000
0
LINE
8
Layer 1
10
55.902500
20
953.755000
11
55.902500
21
958.255000
0
LINE
8
Layer 1
10
55.902500
20
958.255000
11
48.216800
21
958.255000
0
LINE
8
Layer 1
10
48.216800
20
958.255000
11
48.216800
21
953.755000
0
LINE
8
Layer 1
10
48.216800
20
953.755000
11
40.531100
21
953.755000
0
LINE
8
Layer 1
10
40.531100
20
953.755000
11
40.531100
21
958.255000
0
LINE
8
Layer 1
10
40.531100
20
958.255000
11
32.845400
21
958.255000
0
LINE
8
Layer 1
10
32.845400
20
958.255000
11
32.845400
21
953.755000
0
LINE
8
Layer 1
10
32.845400
20
953.755000
11
25.159700
21
953.755000
0
LINE
8
Layer 1
10
25.159700
20
953.755000
11
25.159700
21
958.255000
0
LINE
8
Layer 1
10
25.159700
20
958.255000
11
11.659700
21
958.255000
0
LINE
8
Layer 1
10
11.659700
20
958.255000
11
11.659700
21
949.255000
0
LINE
8
Layer 1
10
11.659700
20
949.255000
11
16.159700
21
949.255000
0
LINE
8
Layer 1
10
16.159700
20
949.255000
11
16.159700
21
943.789000
0
LINE
8
Layer 1
10
16.159700
20
943.789000
11
11.659700
21
943.789000
0
LINE
8
Layer 1
10
11.659700
20
943.789000
11
11.659700
21
938.322000
0
LINE
8
Layer 1
10
11.659700
20
938.322000
11
16.159700
21
938.322000
0
LINE
8
Layer 1
10
16.159700
20
938.322000
11
16.159700
21
932.855000
0
LINE
8
Layer 1
10
16.159700
20
932.855000
11
16.159700
21
932.855000
0
LINE
8
Layer 1
10
93.460200
20
958.258000
11
93.460200
21
949.258000
0
LINE
8
Layer 1
10
93.460200
20
949.258000
11
97.960200
21
949.258000
0
LINE
8
Layer 1
10
97.960200
20
949.258000
11
97.960200
21
943.791000
0
LINE
8
Layer 1
10
97.960200
20
943.791000
11
93.460200
21
943.791000
0
LINE
8
Layer 1
10
93.460200
20
943.791000
11
93.460200
21
938.324000
0
LINE
8
Layer 1
10
93.460200
20
938.324000
11
97.960200
21
938.324000
0
LINE
8
Layer 1
10
97.960200
20
938.324000
11
97.960200
21
932.858000
0
LINE
8
Layer 1
10
97.960200
20
932.858000
11
93.460200
21
932.858000
0
LINE
8
Layer 1
10
93.460200
20
932.858000
11
93.460200
21
923.858000
0
LINE
8
Layer 1
10
93.460200
20
923.858000
11
174.260000
21
923.858000
0
LINE
8
Layer 1
10
174.260000
20
923.858000
11
174.260000
21
932.858000
0
LINE
8
Layer 1
10
174.260000
20
932.858000
11
169.760000
21
932.858000
0
LINE
8
Layer 1
10
169.760000
20
932.858000
11
169.760000
21
938.324000
0
LINE
8
Layer 1
10
169.760000
20
938.324000
11
174.260000
21
938.324000
0
LINE
8
Layer 1
10
174.260000
20
938.324000
11
174.260000
21
943.791000
0
LINE
8
Layer 1
10
174.260000
20
943.791000
11
169.760000
21
943.791000
0
LINE
8
Layer 1
10
169.760000
20
943.791000
11
169.760000
21
949.258000
0
LINE
8
Layer 1
10
169.760000
20
949.258000
11
174.260000
21
949.258000
0
LINE
8
Layer 1
10
174.260000
20
949.258000
11
174.260000
21
958.258000
0
LINE
8
Layer 1
10
174.260000
20
958.258000
11
160.760000
21
958.258000
0
LINE
8
Layer 1
10
160.760000
20
958.258000
11
160.760000
21
953.758000
0
LINE
8
Layer 1
10
160.760000
20
953.758000
11
153.075000
21
953.758000
0
LINE
8
Layer 1
10
153.075000
20
953.758000
11
153.075000
21
958.258000
0
LINE
8
Layer 1
10
153.075000
20
958.258000
11
145.389000
21
958.258000
0
LINE
8
Layer 1
10
145.389000
20
958.258000
11
145.389000
21
953.758000
0
LINE
8
Layer 1
10
145.389000
20
953.758000
11
137.703000
21
953.758000
0
LINE
8
Layer 1
10
137.703000
20
953.758000
11
137.703000
21
958.258000
0
LINE
8
Layer 1
10
137.703000
20
958.258000
11
130.017000
21
958.258000
0
LINE
8
Layer 1
10
130.017000
20
958.258000
11
130.017000
21
953.758000
0
LINE
8
Layer 1
10
130.017000
20
953.758000
11
122.332000
21
953.758000
0
LINE
8
Layer 1
10
122.332000
20
953.758000
11
122.332000
21
958.258000
0
LINE
8
Layer 1
10
122.332000
20
958.258000
11
114.646000
21
958.258000
0
LINE
8
Layer 1
10
114.646000
20
958.258000
11
114.646000
21
953.758000
0
LINE
8
Layer 1
10
114.646000
20
953.758000
11
106.960000
21
953.758000
0
LINE
8
Layer 1
10
106.960000
20
953.758000
11
106.960000
21
958.258000
0
LINE
8
Layer 1
10
106.960000
20
958.258000
11
93.460200
21
958.258000
0
LINE
8
Layer 1
10
93.460200
20
958.258000
11
93.460200
21
958.258000
0
LINE
8
Layer 1
10
367.009000
20
629.787000
11
367.009000
21
719.188000
0
LINE
8
Layer 1
10
307.008000
20
536.787000
11
307.008000
21
626.188000
0
LINE
8
Layer 1
10
292.008000
20
536.787000
11
292.008000
21
626.188000
0
LINE
8
Layer 1
10
472.008000
20
536.787000
11
472.008000
21
626.188000
0
LINE
8
Layer 1
10
327.009000
20
629.787000
11
327.009000
21
719.188000
0
LINE
8
Layer 1
10
452.009000
20
629.787000
11
452.009000
21
719.188000
0
LINE
8
Layer 1
10
302.008000
20
536.787000
11
302.008000
21
626.188000
0
LINE
8
Layer 1
10
372.008000
20
536.787000
11
372.008000
21
626.188000
0
LINE
8
Layer 1
10
392.009000
20
629.787000
11
392.009000
21
719.188000
0
LINE
8
Layer 1
10
287.008000
20
536.787000
11
287.008000
21
626.188000
0
LINE
8
Layer 1
10
442.009000
20
629.787000
11
442.009000
21
719.188000
0
LINE
8
Layer 1
10
467.009000
20
629.787000
11
467.009000
21
719.188000
0
LINE
8
Layer 1
10
382.008000
20
536.787000
11
382.008000
21
626.188000
0
LINE
8
Layer 1
10
357.008000
20
536.787000
11
357.008000
21
626.188000
0
LINE
8
Layer 1
10
427.008000
20
536.787000
11
427.008000
21
626.188000
0
LINE
8
Layer 1
10
272.003000
20
536.787000
11
482.003000
21
536.787000
0
LINE
8
Layer 1
10
482.003000
20
536.787000
11
482.002000
21
626.187000
0
LINE
8
Layer 1
10
482.002000
20
626.187000
11
272.002000
21
626.187000
0
LINE
8
Layer 1
10
272.002000
20
626.187000
11
272.003000
21
536.787000
0
LINE
8
Layer 1
10
272.003000
20
536.787000
11
272.003000
21
536.787000
0
LINE
8
Layer 1
10
462.009000
20
629.787000
11
462.009000
21
719.188000
0
LINE
8
Layer 1
10
412.008000
20
536.787000
11
412.008000
21
626.188000
0
LINE
8
Layer 1
10
317.009000
20
629.787000
11
317.009000
21
719.188000
0
LINE
8
Layer 1
10
407.009000
20
629.787000
11
407.009000
21
719.188000
0
LINE
8
Layer 1
10
392.008000
20
536.787000
11
392.008000
21
626.188000
0
LINE
8
Layer 1
10
457.009000
20
629.787000
11
457.009000
21
719.188000
0
LINE
8
Layer 1
10
447.008000
20
536.787000
11
447.008000
21
626.188000
0
LINE
8
Layer 1
10
347.009000
20
629.787000
11
347.009000
21
719.188000
0
LINE
8
Layer 1
10
277.008000
20
536.787000
11
277.008000
21
626.188000
0
LINE
8
Layer 1
10
362.008000
20
536.787000
11
362.008000
21
626.188000
0
LINE
8
Layer 1
10
467.008000
20
536.787000
11
467.008000
21
626.188000
0
LINE
8
Layer 1
10
417.008000
20
536.787000
11
417.008000
21
626.188000
0
LINE
8
Layer 1
10
407.008000
20
536.787000
11
407.008000
21
626.188000
0
LINE
8
Layer 1
10
352.009000
20
629.787000
11
352.009000
21
719.188000
0
LINE
8
Layer 1
10
417.009000
20
629.787000
11
417.009000
21
719.188000
0
LINE
8
Layer 1
10
332.009000
20
629.787000
11
332.009000
21
719.188000
0
LINE
8
Layer 1
10
422.008000
20
536.787000
11
422.008000
21
626.188000
0
LINE
8
Layer 1
10
312.009000
20
629.787000
11
312.009000
21
719.188000
0
LINE
8
Layer 1
10
342.009000
20
629.787000
11
342.009000
21
719.188000
0
LINE
8
Layer 1
10
272.003000
20
629.787000
11
482.003000
21
629.787000
0
LINE
8
Layer 1
10
482.003000
20
629.787000
11
482.002000
21
719.187000
0
LINE
8
Layer 1
10
482.002000
20
719.187000
11
272.002000
21
719.187000
0
LINE
8
Layer 1
10
272.002000
20
719.187000
11
272.003000
21
629.787000
0
LINE
8
Layer 1
10
272.003000
20
629.787000
11
272.003000
21
629.787000
0
LINE
8
Layer 1
10
387.009000
20
629.787000
11
387.009000
21
719.188000
0
LINE
8
Layer 1
10
477.009000
20
629.787000
11
477.009000
21
719.188000
0
LINE
8
Layer 1
10
302.009000
20
629.787000
11
302.009000
21
719.188000
0
LINE
8
Layer 1
10
382.009000
20
629.787000
11
382.009000
21
719.188000
0
LINE
8
Layer 1
10
402.008000
20
536.787000
11
402.008000
21
626.188000
0
LINE
8
Layer 1
10
282.009000
20
629.787000
11
282.009000
21
719.188000
0
LINE
8
Layer 1
10
422.009000
20
629.787000
11
422.009000
21
719.188000
0
LINE
8
Layer 1
10
442.008000
20
536.787000
11
442.008000
21
626.188000
0
LINE
8
Layer 1
10
337.008000
20
536.787000
11
337.008000
21
626.188000
0
LINE
8
Layer 1
10
312.008000
20
536.787000
11
312.008000
21
626.188000
0
LINE
8
Layer 1
10
327.008000
20
536.787000
11
327.008000
21
626.188000
0
LINE
8
Layer 1
10
437.008000
20
536.787000
11
437.008000
21
626.188000
0
LINE
8
Layer 1
10
472.009000
20
629.787000
11
472.009000
21
719.188000
0
LINE
8
Layer 1
10
347.008000
20
536.787000
11
347.008000
21
626.188000
0
LINE
8
Layer 1
10
397.008000
20
536.787000
11
397.008000
21
626.188000
0
LINE
8
Layer 1
10
412.009000
20
629.787000
11
412.009000
21
719.188000
0
LINE
8
Layer 1
10
337.009000
20
629.787000
11
337.009000
21
719.188000
0
LINE
8
Layer 1
10
372.009000
20
629.787000
11
372.009000
21
719.188000
0
LINE
8
Layer 1
10
377.008000
20
536.787000
11
377.008000
21
626.188000
0
LINE
8
Layer 1
10
377.009000
20
629.787000
11
377.009000
21
719.188000
0
LINE
8
Layer 1
10
357.009000
20
629.787000
11
357.009000
21
719.188000
0
LINE
8
Layer 1
10
387.008000
20
536.787000
11
387.008000
21
626.188000
0
LINE
8
Layer 1
10
352.008000
20
536.787000
11
352.008000
21
626.188000
0
LINE
8
Layer 1
10
322.009000
20
629.787000
11
322.009000
21
719.188000
0
LINE
8
Layer 1
10
397.009000
20
629.787000
11
397.009000
21
719.188000
0
LINE
8
Layer 1
10
362.009000
20
629.787000
11
362.009000
21
719.188000
0
LINE
8
Layer 1
10
462.008000
20
536.787000
11
462.008000
21
626.188000
0
LINE
8
Layer 1
10
332.008000
20
536.787000
11
332.008000
21
626.188000
0
LINE
8
Layer 1
10
452.008000
20
536.787000
11
452.008000
21
626.188000
0
LINE
8
Layer 1
10
432.008000
20
536.787000
11
432.008000
21
626.188000
0
LINE
8
Layer 1
10
457.008000
20
536.787000
11
457.008000
21
626.188000
0
LINE
8
Layer 1
10
292.009000
20
629.787000
11
292.009000
21
719.188000
0
LINE
8
Layer 1
10
282.008000
20
536.787000
11
282.008000
21
626.188000
0
LINE
8
Layer 1
10
287.009000
20
629.787000
11
287.009000
21
719.188000
0
LINE
8
Layer 1
10
367.008000
20
536.787000
11
367.008000
21
626.188000
0
LINE
8
Layer 1
10
437.009000
20
629.787000
11
437.009000
21
719.188000
0
LINE
8
Layer 1
10
427.009000
20
629.787000
11
427.009000
21
719.188000
0
LINE
8
Layer 1
10
297.009000
20
629.787000
11
297.009000
21
719.188000
0
LINE
8
Layer 1
10
402.009000
20
629.787000
11
402.009000
21
719.188000
0
LINE
8
Layer 1
10
322.008000
20
536.787000
11
322.008000
21
626.188000
0
LINE
8
Layer 1
10
277.009000
20
629.787000
11
277.009000
21
719.188000
0
LINE
8
Layer 1
10
342.008000
20
536.787000
11
342.008000
21
626.188000
0
LINE
8
Layer 1
10
297.008000
20
536.787000
11
297.008000
21
626.188000
0
LINE
8
Layer 1
10
432.009000
20
629.787000
11
432.009000
21
719.188000
0
LINE
8
Layer 1
10
447.009000
20
629.787000
11
447.009000
21
719.188000
0
LINE
8
Layer 1
10
477.008000
20
536.787000
11
477.008000
21
626.188000
0
LINE
8
Layer 1
10
307.009000
20
629.787000
11
307.009000
21
719.188000
0
LINE
8
Layer 1
10
317.008000
20
536.787000
11
317.008000
21
626.188000
0
LINE
8
Layer 1
10
334.446000
20
1011.170000
11
336.863000
21
1011.170000
0
LINE
8
Layer 1
10
336.863000
20
1011.170000
11
336.863000
21
1013.180000
0
LINE
8
Layer 1
10
336.863000
20
1013.180000
11
334.446000
21
1013.180000
0
LINE
8
Layer 1
10
334.446000
20
1013.180000
11
334.446000
21
1024.780000
0
LINE
8
Layer 1
10
334.446000
20
1024.780000
11
332.652000
21
1024.780000
0
LINE
8
Layer 1
10
332.652000
20
1024.780000
11
324.485000
21
1013.180000
0
LINE
8
Layer 1
10
324.485000
20
1013.180000
11
324.485000
21
1011.170000
0
LINE
8
Layer 1
10
324.485000
20
1011.170000
11
332.249000
21
1011.170000
0
LINE
8
Layer 1
10
332.249000
20
1011.170000
11
332.249000
21
1006.880000
0
LINE
8
Layer 1
10
332.249000
20
1006.880000
11
334.446000
21
1006.880000
0
LINE
8
Layer 1
10
334.446000
20
1006.880000
11
334.446000
21
1011.170000
0
LINE
8
Layer 1
10
334.446000
20
1011.170000
11
334.446000
21
1011.170000
0
LINE
8
Layer 1
10
352.323000
20
1006.590000
11
353.568703
21
1006.751719
0
LINE
8
Layer 1
10
353.568703
20
1006.751719
11
354.733875
21
1007.178750
0
LINE
8
Layer 1
10
354.733875
20
1007.178750
11
355.776609
21
1007.851406
0
LINE
8
Layer 1
10
355.776609
20
1007.851406
11
356.655000
21
1008.750000
0
LINE
8
Layer 1
10
356.655000
20
1008.750000
11
357.208203
21
1009.562812
0
LINE
8
Layer 1
10
357.208203
20
1009.562812
11
357.629125
21
1010.445000
0
LINE
8
Layer 1
10
357.629125
20
1010.445000
11
358.049000
21
1012.350000
0
LINE
8
Layer 1
10
358.049000
20
1012.350000
11
358.021625
21
1013.832500
0
LINE
8
Layer 1
10
358.021625
20
1013.832500
11
357.668000
21
1015.270000
0
LINE
8
Layer 1
10
357.668000
20
1015.270000
11
357.008797
21
1016.481562
0
LINE
8
Layer 1
10
357.008797
20
1016.481562
11
356.082875
21
1017.477500
0
LINE
8
Layer 1
10
356.082875
20
1017.477500
11
354.940016
21
1018.214687
0
LINE
8
Layer 1
10
354.940016
20
1018.214687
11
353.630000
21
1018.650000
0
LINE
8
Layer 1
10
353.630000
20
1018.650000
11
352.441891
21
1018.750781
0
LINE
8
Layer 1
10
352.441891
20
1018.750781
11
351.270375
21
1018.608750
0
LINE
8
Layer 1
10
351.270375
20
1018.608750
11
350.151922
21
1018.232344
0
LINE
8
Layer 1
10
350.151922
20
1018.232344
11
349.123000
21
1017.630000
0
LINE
8
Layer 1
10
349.123000
20
1017.630000
11
350.087000
21
1022.440000
0
LINE
8
Layer 1
10
350.087000
20
1022.440000
11
357.229000
21
1022.440000
0
LINE
8
Layer 1
10
357.229000
20
1022.440000
11
357.229000
21
1024.540000
0
LINE
8
Layer 1
10
357.229000
20
1024.540000
11
348.330000
21
1024.540000
0
LINE
8
Layer 1
10
348.330000
20
1024.540000
11
346.596000
21
1015.340000
0
LINE
8
Layer 1
10
346.596000
20
1015.340000
11
348.659000
21
1015.080000
0
LINE
8
Layer 1
10
348.659000
20
1015.080000
11
348.926000
21
1015.440000
0
LINE
8
Layer 1
10
348.926000
20
1015.440000
11
349.632047
21
1016.089687
0
LINE
8
Layer 1
10
349.632047
20
1016.089687
11
350.462125
21
1016.542500
0
LINE
8
Layer 1
10
350.462125
20
1016.542500
11
351.376391
21
1016.781563
0
LINE
8
Layer 1
10
351.376391
20
1016.781563
11
352.335000
21
1016.790000
0
LINE
8
Layer 1
10
352.335000
20
1016.790000
11
353.457297
21
1016.544688
0
LINE
8
Layer 1
10
353.457297
20
1016.544688
11
354.419375
21
1015.967500
0
LINE
8
Layer 1
10
354.419375
20
1015.967500
11
355.153266
21
1015.116562
0
LINE
8
Layer 1
10
355.153266
20
1015.116562
11
355.591000
21
1014.050000
0
LINE
8
Layer 1
10
355.591000
20
1014.050000
11
355.726500
21
1012.301250
0
LINE
8
Layer 1
10
355.726500
20
1012.301250
11
355.310000
21
1010.590000
0
LINE
8
Layer 1
10
355.310000
20
1010.590000
11
354.918484
21
1009.915469
0
LINE
8
Layer 1
10
354.918484
20
1009.915469
11
354.403875
21
1009.341250
0
LINE
8
Layer 1
10
354.403875
20
1009.341250
11
353.784078
21
1008.881406
0
LINE
8
Layer 1
10
353.784078
20
1008.881406
11
353.077000
21
1008.550000
0
LINE
8
Layer 1
10
353.077000
20
1008.550000
11
351.751625
21
1008.391250
0
LINE
8
Layer 1
10
351.751625
20
1008.391250
11
350.457000
21
1008.720000
0
LINE
8
Layer 1
10
350.457000
20
1008.720000
11
349.440625
21
1009.505000
0
LINE
8
Layer 1
10
349.440625
20
1009.505000
11
348.800000
21
1010.620000
0
LINE
8
Layer 1
10
348.800000
20
1010.620000
11
348.513000
21
1011.770000
0
LINE
8
Layer 1
10
348.513000
20
1011.770000
11
346.206000
21
1011.570000
0
LINE
8
Layer 1
10
346.206000
20
1011.570000
11
346.538625
21
1010.055000
0
LINE
8
Layer 1
10
346.538625
20
1010.055000
11
347.280000
21
1008.690000
0
LINE
8
Layer 1
10
347.280000
20
1008.690000
11
347.994953
21
1007.931406
0
LINE
8
Layer 1
10
347.994953
20
1007.931406
11
348.835625
21
1007.331250
0
LINE
8
Layer 1
10
348.835625
20
1007.331250
11
349.776234
21
1006.905469
0
LINE
8
Layer 1
10
349.776234
20
1006.905469
11
350.791000
21
1006.670000
0
LINE
8
Layer 1
10
350.791000
20
1006.670000
11
352.323000
21
1006.590000
0
LINE
8
Layer 1
10
352.323000
20
1006.590000
11
352.323000
21
1006.590000
0
LINE
8
Layer 1
10
326.646000
20
1013.180000
11
332.249000
21
1021.250000
0
LINE
8
Layer 1
10
332.249000
20
1021.250000
11
332.249000
21
1013.180000
0
LINE
8
Layer 1
10
332.249000
20
1013.180000
11
326.646000
21
1013.180000
0
LINE
8
Layer 1
10
326.646000
20
1013.180000
11
326.646000
21
1013.180000
0
LINE
8
Layer 1
10
363.013000
20
1013.610000
11
363.019000
21
1014.040000
0
LINE
8
Layer 1
10
363.019000
20
1014.040000
11
363.099625
21
1015.195000
0
LINE
8
Layer 1
10
363.099625
20
1015.195000
11
363.367000
21
1016.320000
0
LINE
8
Layer 1
10
363.367000
20
1016.320000
11
363.823813
21
1017.122031
0
LINE
8
Layer 1
10
363.823813
20
1017.122031
11
364.488750
21
1017.733750
0
LINE
8
Layer 1
10
364.488750
20
1017.733750
11
365.307062
21
1018.118594
0
LINE
8
Layer 1
10
365.307062
20
1018.118594
11
366.224000
21
1018.240000
0
LINE
8
Layer 1
10
366.224000
20
1018.240000
11
366.981500
21
1018.155000
0
LINE
8
Layer 1
10
366.981500
20
1018.155000
11
367.670000
21
1017.830000
0
LINE
8
Layer 1
10
367.670000
20
1017.830000
11
368.132375
21
1017.270000
0
LINE
8
Layer 1
10
368.132375
20
1017.270000
11
368.384000
21
1016.590000
0
LINE
8
Layer 1
10
368.384000
20
1016.590000
11
368.519000
21
1015.310000
0
LINE
8
Layer 1
10
368.519000
20
1015.310000
11
368.519000
21
1006.880000
0
LINE
8
Layer 1
10
368.519000
20
1006.880000
11
370.716000
21
1006.880000
0
LINE
8
Layer 1
10
370.716000
20
1006.880000
11
370.716000
21
1014.420000
0
LINE
8
Layer 1
10
370.716000
20
1014.420000
11
370.786375
21
1015.473750
0
LINE
8
Layer 1
10
370.786375
20
1015.473750
11
371.069000
21
1016.490000
0
LINE
8
Layer 1
10
371.069000
20
1016.490000
11
371.490203
21
1017.173750
0
LINE
8
Layer 1
10
371.490203
20
1017.173750
11
372.069375
21
1017.707500
0
LINE
8
Layer 1
10
372.069375
20
1017.707500
11
372.769859
21
1018.065000
0
LINE
8
Layer 1
10
372.769859
20
1018.065000
11
373.555000
21
1018.220000
0
LINE
8
Layer 1
10
373.555000
20
1018.220000
11
374.410375
21
1018.192500
0
LINE
8
Layer 1
10
374.410375
20
1018.192500
11
375.208000
21
1017.880000
0
LINE
8
Layer 1
10
375.208000
20
1017.880000
11
375.831875
21
1017.253750
0
LINE
8
Layer 1
10
375.831875
20
1017.253750
11
376.113000
21
1016.410000
0
LINE
8
Layer 1
10
376.113000
20
1016.410000
11
376.197000
21
1015.050000
0
LINE
8
Layer 1
10
376.197000
20
1015.050000
11
376.197000
21
1006.880000
0
LINE
8
Layer 1
10
376.197000
20
1006.880000
11
378.382000
21
1006.880000
0
LINE
8
Layer 1
10
378.382000
20
1006.880000
11
378.382000
21
1015.780000
0
LINE
8
Layer 1
10
378.382000
20
1015.780000
11
378.299875
21
1016.967500
0
LINE
8
Layer 1
10
378.299875
20
1016.967500
11
377.977000
21
1018.110000
0
LINE
8
Layer 1
10
377.977000
20
1018.110000
11
377.590969
21
1018.777813
0
LINE
8
Layer 1
10
377.590969
20
1018.777813
11
377.066000
21
1019.327500
0
LINE
8
Layer 1
10
377.066000
20
1019.327500
11
376.427031
21
1019.738438
0
LINE
8
Layer 1
10
376.427031
20
1019.738438
11
375.699000
21
1019.990000
0
LINE
8
Layer 1
10
375.699000
20
1019.990000
11
374.308625
21
1020.146250
0
LINE
8
Layer 1
10
374.308625
20
1020.146250
11
372.928000
21
1019.920000
0
LINE
8
Layer 1
10
372.928000
20
1019.920000
11
371.609500
21
1019.218750
0
LINE
8
Layer 1
10
371.609500
20
1019.218750
11
370.570000
21
1018.150000
0
LINE
8
Layer 1
10
370.570000
20
1018.150000
11
370.374000
21
1017.870000
0
LINE
8
Layer 1
10
370.374000
20
1017.870000
11
370.271000
21
1018.130000
0
LINE
8
Layer 1
10
370.271000
20
1018.130000
11
369.835688
21
1018.847812
0
LINE
8
Layer 1
10
369.835688
20
1018.847812
11
369.244000
21
1019.425000
0
LINE
8
Layer 1
10
369.244000
20
1019.425000
11
368.527813
21
1019.837188
0
LINE
8
Layer 1
10
368.527813
20
1019.837188
11
367.719000
21
1020.060000
0
LINE
8
Layer 1
10
367.719000
20
1020.060000
11
366.162750
21
1020.116250
0
LINE
8
Layer 1
10
366.162750
20
1020.116250
11
364.662000
21
1019.700000
0
LINE
8
Layer 1
10
364.662000
20
1019.700000
11
363.606750
21
1018.996250
0
LINE
8
Layer 1
10
363.606750
20
1018.996250
11
362.781000
21
1018.030000
0
LINE
8
Layer 1
10
362.781000
20
1018.030000
11
362.781000
21
1019.850000
0
LINE
8
Layer 1
10
362.781000
20
1019.850000
11
360.816000
21
1019.850000
0
LINE
8
Layer 1
10
360.816000
20
1019.850000
11
360.816000
21
1006.880000
0
LINE
8
Layer 1
10
360.816000
20
1006.880000
11
363.013000
21
1006.880000
0
LINE
8
Layer 1
10
363.013000
20
1006.880000
11
363.013000
21
1013.610000
0
LINE
8
Layer 1
10
363.013000
20
1013.610000
11
363.013000
21
1013.610000
0
LINE
8
Layer 1
10
384.013000
20
1013.610000
11
384.019000
21
1014.040000
0
LINE
8
Layer 1
10
384.019000
20
1014.040000
11
384.099625
21
1015.195000
0
LINE
8
Layer 1
10
384.099625
20
1015.195000
11
384.367000
21
1016.320000
0
LINE
8
Layer 1
10
384.367000
20
1016.320000
11
384.823813
21
1017.122031
0
LINE
8
Layer 1
10
384.823813
20
1017.122031
11
385.488750
21
1017.733750
0
LINE
8
Layer 1
10
385.488750
20
1017.733750
11
386.307062
21
1018.118594
0
LINE
8
Layer 1
10
386.307062
20
1018.118594
11
387.224000
21
1018.240000
0
LINE
8
Layer 1
10
387.224000
20
1018.240000
11
387.981500
21
1018.155000
0
LINE
8
Layer 1
10
387.981500
20
1018.155000
11
388.670000
21
1017.830000
0
LINE
8
Layer 1
10
388.670000
20
1017.830000
11
389.132375
21
1017.270000
0
LINE
8
Layer 1
10
389.132375
20
1017.270000
11
389.384000
21
1016.590000
0
LINE
8
Layer 1
10
389.384000
20
1016.590000
11
389.519000
21
1015.310000
0
LINE
8
Layer 1
10
389.519000
20
1015.310000
11
389.519000
21
1006.880000
0
LINE
8
Layer 1
10
389.519000
20
1006.880000
11
391.716000
21
1006.880000
0
LINE
8
Layer 1
10
391.716000
20
1006.880000
11
391.716000
21
1014.420000
0
LINE
8
Layer 1
10
391.716000
20
1014.420000
11
391.786375
21
1015.473750
0
LINE
8
Layer 1
10
391.786375
20
1015.473750
11
392.069000
21
1016.490000
0
LINE
8
Layer 1
10
392.069000
20
1016.490000
11
392.490203
21
1017.173750
0
LINE
8
Layer 1
10
392.490203
20
1017.173750
11
393.069375
21
1017.707500
0
LINE
8
Layer 1
10
393.069375
20
1017.707500
11
393.769859
21
1018.065000
0
LINE
8
Layer 1
10
393.769859
20
1018.065000
11
394.555000
21
1018.220000
0
LINE
8
Layer 1
10
394.555000
20
1018.220000
11
395.410375
21
1018.192500
0
LINE
8
Layer 1
10
395.410375
20
1018.192500
11
396.208000
21
1017.880000
0
LINE
8
Layer 1
10
396.208000
20
1017.880000
11
396.831875
21
1017.253750
0
LINE
8
Layer 1
10
396.831875
20
1017.253750
11
397.113000
21
1016.410000
0
LINE
8
Layer 1
10
397.113000
20
1016.410000
11
397.197000
21
1015.050000
0
LINE
8
Layer 1
10
397.197000
20
1015.050000
11
397.197000
21
1006.880000
0
LINE
8
Layer 1
10
397.197000
20
1006.880000
11
399.382000
21
1006.880000
0
LINE
8
Layer 1
10
399.382000
20
1006.880000
11
399.382000
21
1015.780000
0
LINE
8
Layer 1
10
399.382000
20
1015.780000
11
399.299875
21
1016.967500
0
LINE
8
Layer 1
10
399.299875
20
1016.967500
11
398.977000
21
1018.110000
0
LINE
8
Layer 1
10
398.977000
20
1018.110000
11
398.590969
21
1018.777813
0
LINE
8
Layer 1
10
398.590969
20
1018.777813
11
398.066000
21
1019.327500
0
LINE
8
Layer 1
10
398.066000
20
1019.327500
11
397.427031
21
1019.738438
0
LINE
8
Layer 1
10
397.427031
20
1019.738438
11
396.699000
21
1019.990000
0
LINE
8
Layer 1
10
396.699000
20
1019.990000
11
395.308625
21
1020.146250
0
LINE
8
Layer 1
10
395.308625
20
1020.146250
11
393.928000
21
1019.920000
0
LINE
8
Layer 1
10
393.928000
20
1019.920000
11
392.609500
21
1019.218750
0
LINE
8
Layer 1
10
392.609500
20
1019.218750
11
391.570000
21
1018.150000
0
LINE
8
Layer 1
10
391.570000
20
1018.150000
11
391.374000
21
1017.870000
0
LINE
8
Layer 1
10
391.374000
20
1017.870000
11
391.271000
21
1018.130000
0
LINE
8
Layer 1
10
391.271000
20
1018.130000
11
390.835688
21
1018.847812
0
LINE
8
Layer 1
10
390.835688
20
1018.847812
11
390.244000
21
1019.425000
0
LINE
8
Layer 1
10
390.244000
20
1019.425000
11
389.527813
21
1019.837188
0
LINE
8
Layer 1
10
389.527813
20
1019.837188
11
388.719000
21
1020.060000
0
LINE
8
Layer 1
10
388.719000
20
1020.060000
11
387.162750
21
1020.116250
0
LINE
8
Layer 1
10
387.162750
20
1020.116250
11
385.662000
21
1019.700000
0
LINE
8
Layer 1
10
385.662000
20
1019.700000
11
384.606750
21
1018.996250
0
LINE
8
Layer 1
10
384.606750
20
1018.996250
11
383.781000
21
1018.030000
0
LINE
8
Layer 1
10
383.781000
20
1018.030000
11
383.781000
21
1019.850000
0
LINE
8
Layer 1
10
383.781000
20
1019.850000
11
381.816000
21
1019.850000
0
LINE
8
Layer 1
10
381.816000
20
1019.850000
11
381.816000
21
1006.880000
0
LINE
8
Layer 1
10
381.816000
20
1006.880000
11
384.013000
21
1006.880000
0
LINE
8
Layer 1
10
384.013000
20
1006.880000
11
384.013000
21
1013.610000
0
LINE
8
Layer 1
10
384.013000
20
1013.610000
11
384.013000
21
1013.610000
0
LINE
8
Layer 1
10
342.941000
20
1009.390000
11
340.439000
21
1009.390000
0
LINE
8
Layer 1
10
340.439000
20
1009.390000
11
340.439000
21
1006.880000
0
LINE
8
Layer 1
10
340.439000
20
1006.880000
11
342.941000
21
1006.880000
0
LINE
8
Layer 1
10
342.941000
20
1006.880000
11
342.941000
21
1009.390000
0
LINE
8
Layer 1
10
342.941000
20
1009.390000
11
342.941000
21
1009.390000
0
LINE
8
Layer 1
10
24.128500
20
1006.260000
11
15.351700
21
1006.260000
0
LINE
8
Layer 1
10
15.351700
20
1006.260000
11
16.194038
21
1007.352500
0
LINE
8
Layer 1
10
16.194038
20
1007.352500
11
17.195000
21
1008.310000
0
LINE
8
Layer 1
10
17.195000
20
1008.310000
11
19.918300
21
1010.650000
0
LINE
8
Layer 1
10
19.918300
20
1010.650000
11
20.404900
21
1011.080000
0
LINE
8
Layer 1
10
20.404900
20
1011.080000
11
21.594487
21
1012.197500
0
LINE
8
Layer 1
10
21.594487
20
1012.197500
11
22.679300
21
1013.420000
0
LINE
8
Layer 1
10
22.679300
20
1013.420000
11
23.607888
21
1014.910000
0
LINE
8
Layer 1
10
23.607888
20
1014.910000
11
24.076500
21
1016.610000
0
LINE
8
Layer 1
10
24.076500
20
1016.610000
11
24.020337
21
1018.106250
0
LINE
8
Layer 1
10
24.020337
20
1018.106250
11
23.517700
21
1019.520000
0
LINE
8
Layer 1
10
23.517700
20
1019.520000
11
22.917495
21
1020.360312
0
LINE
8
Layer 1
10
22.917495
20
1020.360312
11
22.164338
21
1021.052500
0
LINE
8
Layer 1
10
22.164338
20
1021.052500
11
21.285011
21
1021.575938
0
LINE
8
Layer 1
10
21.285011
20
1021.575938
11
20.306300
21
1021.910000
0
LINE
8
Layer 1
10
20.306300
20
1021.910000
11
18.261425
21
1022.111250
0
LINE
8
Layer 1
10
18.261425
20
1022.111250
11
16.233500
21
1021.780000
0
LINE
8
Layer 1
10
16.233500
20
1021.780000
11
15.174202
21
1021.309375
0
LINE
8
Layer 1
10
15.174202
20
1021.309375
11
14.270012
21
1020.610000
0
LINE
8
Layer 1
10
14.270012
20
1020.610000
11
13.556492
21
1019.715625
0
LINE
8
Layer 1
10
13.556492
20
1019.715625
11
13.069200
21
1018.660000
0
LINE
8
Layer 1
10
13.069200
20
1018.660000
11
12.715000
21
1016.940000
0
LINE
8
Layer 1
10
12.715000
20
1016.940000
11
14.973300
21
1016.710000
0
LINE
8
Layer 1
10
14.973300
20
1016.710000
11
14.991100
21
1017.120000
0
LINE
8
Layer 1
10
14.991100
20
1017.120000
11
15.202687
21
1018.157500
0
LINE
8
Layer 1
10
15.202687
20
1018.157500
11
15.714200
21
1019.090000
0
LINE
8
Layer 1
10
15.714200
20
1019.090000
11
16.775763
21
1019.940000
0
LINE
8
Layer 1
10
16.775763
20
1019.940000
11
18.090000
21
1020.280000
0
LINE
8
Layer 1
10
18.090000
20
1020.280000
11
19.133312
21
1020.248750
0
LINE
8
Layer 1
10
19.133312
20
1020.248750
11
20.131700
21
1019.940000
0
LINE
8
Layer 1
10
20.131700
20
1019.940000
11
21.025698
21
1019.287344
0
LINE
8
Layer 1
10
21.025698
20
1019.287344
11
21.613162
21
1018.386250
0
LINE
8
Layer 1
10
21.613162
20
1018.386250
11
21.852345
21
1017.337031
0
LINE
8
Layer 1
10
21.852345
20
1017.337031
11
21.701500
21
1016.240000
0
LINE
8
Layer 1
10
21.701500
20
1016.240000
11
21.152425
21
1015.047500
0
LINE
8
Layer 1
10
21.152425
20
1015.047500
11
20.369500
21
1013.990000
0
LINE
8
Layer 1
10
20.369500
20
1013.990000
11
18.857613
21
1012.465000
0
LINE
8
Layer 1
10
18.857613
20
1012.465000
11
17.234800
21
1011.060000
0
LINE
8
Layer 1
10
17.234800
20
1011.060000
11
16.421500
21
1010.380000
0
LINE
8
Layer 1
10
16.421500
20
1010.380000
11
15.027587
21
1009.137500
0
LINE
8
Layer 1
10
15.027587
20
1009.137500
11
13.762600
21
1007.760000
0
LINE
8
Layer 1
10
13.762600
20
1007.760000
11
12.982050
21
1006.593750
0
LINE
8
Layer 1
10
12.982050
20
1006.593750
11
12.434900
21
1005.300000
0
LINE
8
Layer 1
10
12.434900
20
1005.300000
11
12.299900
21
1004.140000
0
LINE
8
Layer 1
10
12.299900
20
1004.140000
11
24.128500
21
1004.140000
0
LINE
8
Layer 1
10
24.128500
20
1004.140000
11
24.128500
21
1006.260000
0
LINE
8
Layer 1
10
24.128500
20
1006.260000
11
24.128500
21
1006.260000
0
LINE
8
Layer 1
10
39.697600
20
1003.850000
11
40.943631
21
1004.011719
0
LINE
8
Layer 1
10
40.943631
20
1004.011719
11
42.108925
21
1004.438750
0
LINE
8
Layer 1
10
42.108925
20
1004.438750
11
43.151631
21
1005.111406
0
LINE
8
Layer 1
10
43.151631
20
1005.111406
11
44.029900
21
1006.010000
0
LINE
8
Layer 1
10
44.029900
20
1006.010000
11
44.583170
21
1006.822812
0
LINE
8
Layer 1
10
44.583170
20
1006.822812
11
45.004037
21
1007.705000
0
LINE
8
Layer 1
10
45.004037
20
1007.705000
11
45.423700
21
1009.610000
0
LINE
8
Layer 1
10
45.423700
20
1009.610000
11
45.396412
21
1011.092500
0
LINE
8
Layer 1
10
45.396412
20
1011.092500
11
45.043100
21
1012.530000
0
LINE
8
Layer 1
10
45.043100
20
1012.530000
11
44.383945
21
1013.741562
0
LINE
8
Layer 1
10
44.383945
20
1013.741562
11
43.458062
21
1014.737500
0
LINE
8
Layer 1
10
43.458062
20
1014.737500
11
42.315298
21
1015.474687
0
LINE
8
Layer 1
10
42.315298
20
1015.474687
11
41.005500
21
1015.910000
0
LINE
8
Layer 1
10
41.005500
20
1015.910000
11
39.817316
21
1016.010781
0
LINE
8
Layer 1
10
39.817316
20
1016.010781
11
38.645575
21
1015.868750
0
LINE
8
Layer 1
10
38.645575
20
1015.868750
11
37.526972
21
1015.492344
0
LINE
8
Layer 1
10
37.526972
20
1015.492344
11
36.498200
21
1014.890000
0
LINE
8
Layer 1
10
36.498200
20
1014.890000
11
37.462500
21
1019.700000
0
LINE
8
Layer 1
10
37.462500
20
1019.700000
11
44.603600
21
1019.700000
0
LINE
8
Layer 1
10
44.603600
20
1019.700000
11
44.603600
21
1021.800000
0
LINE
8
Layer 1
10
44.603600
20
1021.800000
11
35.704700
21
1021.800000
0
LINE
8
Layer 1
10
35.704700
20
1021.800000
11
33.971300
21
1012.600000
0
LINE
8
Layer 1
10
33.971300
20
1012.600000
11
36.034300
21
1012.340000
0
LINE
8
Layer 1
10
36.034300
20
1012.340000
11
36.301400
21
1012.700000
0
LINE
8
Layer 1
10
36.301400
20
1012.700000
11
37.007295
21
1013.349687
0
LINE
8
Layer 1
10
37.007295
20
1013.349687
11
37.837438
21
1013.802500
0
LINE
8
Layer 1
10
37.837438
20
1013.802500
11
38.751861
21
1014.041563
0
LINE
8
Layer 1
10
38.751861
20
1014.041563
11
39.710600
21
1014.050000
0
LINE
8
Layer 1
10
39.710600
20
1014.050000
11
40.832817
21
1013.804688
0
LINE
8
Layer 1
10
40.832817
20
1013.804688
11
41.794787
21
1013.227500
0
LINE
8
Layer 1
10
41.794787
20
1013.227500
11
42.528514
21
1012.376562
0
LINE
8
Layer 1
10
42.528514
20
1012.376562
11
42.966000
21
1011.310000
0
LINE
8
Layer 1
10
42.966000
20
1011.310000
11
43.101562
21
1009.561250
0
LINE
8
Layer 1
10
43.101562
20
1009.561250
11
42.685200
21
1007.850000
0
LINE
8
Layer 1
10
42.685200
20
1007.850000
11
42.293369
21
1007.175469
0
LINE
8
Layer 1
10
42.293369
20
1007.175469
11
41.778650
21
1006.601250
0
LINE
8
Layer 1
10
41.778650
20
1006.601250
11
41.158856
21
1006.141406
0
LINE
8
Layer 1
10
41.158856
20
1006.141406
11
40.451800
21
1005.810000
0
LINE
8
Layer 1
10
40.451800
20
1005.810000
11
39.126725
21
1005.651250
0
LINE
8
Layer 1
10
39.126725
20
1005.651250
11
37.832400
21
1005.980000
0
LINE
8
Layer 1
10
37.832400
20
1005.980000
11
36.815725
21
1006.765000
0
LINE
8
Layer 1
10
36.815725
20
1006.765000
11
36.175400
21
1007.880000
0
LINE
8
Layer 1
10
36.175400
20
1007.880000
11
35.887800
21
1009.030000
0
LINE
8
Layer 1
10
35.887800
20
1009.030000
11
33.580700
21
1008.830000
0
LINE
8
Layer 1
10
33.580700
20
1008.830000
11
33.913562
21
1007.315000
0
LINE
8
Layer 1
10
33.913562
20
1007.315000
11
34.655400
21
1005.950000
0
LINE
8
Layer 1
10
34.655400
20
1005.950000
11
35.369948
21
1005.191406
0
LINE
8
Layer 1
10
35.369948
20
1005.191406
11
36.210413
21
1004.591250
0
LINE
8
Layer 1
10
36.210413
20
1004.591250
11
37.150945
21
1004.165469
0
LINE
8
Layer 1
10
37.150945
20
1004.165469
11
38.165700
21
1003.930000
0
LINE
8
Layer 1
10
38.165700
20
1003.930000
11
39.697600
21
1003.850000
0
LINE
8
Layer 1
10
39.697600
20
1003.850000
11
39.697600
21
1003.850000
0
LINE
8
Layer 1
10
50.388300
20
1010.870000
11
50.393900
21
1011.300000
0
LINE
8
Layer 1
10
50.393900
20
1011.300000
11
50.474838
21
1012.455000
0
LINE
8
Layer 1
10
50.474838
20
1012.455000
11
50.742300
21
1013.580000
0
LINE
8
Layer 1
10
50.742300
20
1013.580000
11
51.199203
21
1014.382031
0
LINE
8
Layer 1
10
51.199203
20
1014.382031
11
51.864100
21
1014.993750
0
LINE
8
Layer 1
10
51.864100
20
1014.993750
11
52.682222
21
1015.378594
0
LINE
8
Layer 1
10
52.682222
20
1015.378594
11
53.598800
21
1015.500000
0
LINE
8
Layer 1
10
53.598800
20
1015.500000
11
54.356550
21
1015.415000
0
LINE
8
Layer 1
10
54.356550
20
1015.415000
11
55.045300
21
1015.090000
0
LINE
8
Layer 1
10
55.045300
20
1015.090000
11
55.507500
21
1014.530000
0
LINE
8
Layer 1
10
55.507500
20
1014.530000
11
55.759400
21
1013.850000
0
LINE
8
Layer 1
10
55.759400
20
1013.850000
11
55.893700
21
1012.570000
0
LINE
8
Layer 1
10
55.893700
20
1012.570000
11
55.893700
21
1004.140000
0
LINE
8
Layer 1
10
55.893700
20
1004.140000
11
58.091000
21
1004.140000
0
LINE
8
Layer 1
10
58.091000
20
1004.140000
11
58.091000
21
1011.680000
0
LINE
8
Layer 1
10
58.091000
20
1011.680000
11
58.161150
21
1012.733750
0
LINE
8
Layer 1
10
58.161150
20
1012.733750
11
58.443700
21
1013.750000
0
LINE
8
Layer 1
10
58.443700
20
1013.750000
11
58.865320
21
1014.433750
0
LINE
8
Layer 1
10
58.865320
20
1014.433750
11
59.444637
21
1014.967500
0
LINE
8
Layer 1
10
59.444637
20
1014.967500
11
60.145136
21
1015.325000
0
LINE
8
Layer 1
10
60.145136
20
1015.325000
11
60.930300
21
1015.480000
0
LINE
8
Layer 1
10
60.930300
20
1015.480000
11
61.785463
21
1015.452500
0
LINE
8
Layer 1
10
61.785463
20
1015.452500
11
62.583100
21
1015.140000
0
LINE
8
Layer 1
10
62.583100
20
1015.140000
11
63.207013
21
1014.513750
0
LINE
8
Layer 1
10
63.207013
20
1014.513750
11
63.488400
21
1013.670000
0
LINE
8
Layer 1
10
63.488400
20
1013.670000
11
63.571900
21
1012.310000
0
LINE
8
Layer 1
10
63.571900
20
1012.310000
11
63.571900
21
1004.140000
0
LINE
8
Layer 1
10
63.571900
20
1004.140000
11
65.757000
21
1004.140000
0
LINE
8
Layer 1
10
65.757000
20
1004.140000
11
65.757000
21
1013.040000
0
LINE
8
Layer 1
10
65.757000
20
1013.040000
11
65.674538
21
1014.227500
0
LINE
8
Layer 1
10
65.674538
20
1014.227500
11
65.351700
21
1015.370000
0
LINE
8
Layer 1
10
65.351700
20
1015.370000
11
64.965848
21
1016.037813
0
LINE
8
Layer 1
10
64.965848
20
1016.037813
11
64.440937
21
1016.587500
0
LINE
8
Layer 1
10
64.440937
20
1016.587500
11
63.802083
21
1016.998438
0
LINE
8
Layer 1
10
63.802083
20
1016.998438
11
63.074400
21
1017.250000
0
LINE
8
Layer 1
10
63.074400
20
1017.250000
11
61.683625
21
1017.406250
0
LINE
8
Layer 1
10
61.683625
20
1017.406250
11
60.302600
21
1017.180000
0
LINE
8
Layer 1
10
60.302600
20
1017.180000
11
58.984600
21
1016.478750
0
LINE
8
Layer 1
10
58.984600
20
1016.478750
11
57.945000
21
1015.410000
0
LINE
8
Layer 1
10
57.945000
20
1015.410000
11
57.749200
21
1015.130000
0
LINE
8
Layer 1
10
57.749200
20
1015.130000
11
57.646100
21
1015.390000
0
LINE
8
Layer 1
10
57.646100
20
1015.390000
11
57.210933
21
1016.107812
0
LINE
8
Layer 1
10
57.210933
20
1016.107812
11
56.619213
21
1016.685000
0
LINE
8
Layer 1
10
56.619213
20
1016.685000
11
55.903011
21
1017.097188
0
LINE
8
Layer 1
10
55.903011
20
1017.097188
11
55.094400
21
1017.320000
0
LINE
8
Layer 1
10
55.094400
20
1017.320000
11
53.537975
21
1017.376250
0
LINE
8
Layer 1
10
53.537975
20
1017.376250
11
52.037500
21
1016.960000
0
LINE
8
Layer 1
10
52.037500
20
1016.960000
11
50.981975
21
1016.256250
0
LINE
8
Layer 1
10
50.981975
20
1016.256250
11
50.156400
21
1015.290000
0
LINE
8
Layer 1
10
50.156400
20
1015.290000
11
50.156400
21
1017.110000
0
LINE
8
Layer 1
10
50.156400
20
1017.110000
11
48.191000
21
1017.110000
0
LINE
8
Layer 1
10
48.191000
20
1017.110000
11
48.191000
21
1004.140000
0
LINE
8
Layer 1
10
48.191000
20
1004.140000
11
50.388300
21
1004.140000
0
LINE
8
Layer 1
10
50.388300
20
1004.140000
11
50.388300
21
1010.870000
0
LINE
8
Layer 1
10
50.388300
20
1010.870000
11
50.388300
21
1010.870000
0
LINE
8
Layer 1
10
71.388300
20
1010.870000
11
71.393900
21
1011.300000
0
LINE
8
Layer 1
10
71.393900
20
1011.300000
11
71.474837
21
1012.455000
0
LINE
8
Layer 1
10
71.474837
20
1012.455000
11
71.742300
21
1013.580000
0
LINE
8
Layer 1
10
71.742300
20
1013.580000
11
72.199203
21
1014.382031
0
LINE
8
Layer 1
10
72.199203
20
1014.382031
11
72.864100
21
1014.993750
0
LINE
8
Layer 1
10
72.864100
20
1014.993750
11
73.682222
21
1015.378594
0
LINE
8
Layer 1
10
73.682222
20
1015.378594
11
74.598800
21
1015.500000
0
LINE
8
Layer 1
10
74.598800
20
1015.500000
11
75.356550
21
1015.415000
0
LINE
8
Layer 1
10
75.356550
20
1015.415000
11
76.045300
21
1015.090000
0
LINE
8
Layer 1
10
76.045300
20
1015.090000
11
76.507500
21
1014.530000
0
LINE
8
Layer 1
10
76.507500
20
1014.530000
11
76.759400
21
1013.850000
0
LINE
8
Layer 1
10
76.759400
20
1013.850000
11
76.893700
21
1012.570000
0
LINE
8
Layer 1
10
76.893700
20
1012.570000
11
76.893700
21
1004.140000
0
LINE
8
Layer 1
10
76.893700
20
1004.140000
11
79.091000
21
1004.140000
0
LINE
8
Layer 1
10
79.091000
20
1004.140000
11
79.091000
21
1011.680000
0
LINE
8
Layer 1
10
79.091000
20
1011.680000
11
79.161150
21
1012.733750
0
LINE
8
Layer 1
10
79.161150
20
1012.733750
11
79.443700
21
1013.750000
0
LINE
8
Layer 1
10
79.443700
20
1013.750000
11
79.865320
21
1014.433750
0
LINE
8
Layer 1
10
79.865320
20
1014.433750
11
80.444637
21
1014.967500
0
LINE
8
Layer 1
10
80.444637
20
1014.967500
11
81.145136
21
1015.325000
0
LINE
8
Layer 1
10
81.145136
20
1015.325000
11
81.930300
21
1015.480000
0
LINE
8
Layer 1
10
81.930300
20
1015.480000
11
82.785462
21
1015.452500
0
LINE
8
Layer 1
10
82.785462
20
1015.452500
11
83.583100
21
1015.140000
0
LINE
8
Layer 1
10
83.583100
20
1015.140000
11
84.207013
21
1014.513750
0
LINE
8
Layer 1
10
84.207013
20
1014.513750
11
84.488400
21
1013.670000
0
LINE
8
Layer 1
10
84.488400
20
1013.670000
11
84.571900
21
1012.310000
0
LINE
8
Layer 1
10
84.571900
20
1012.310000
11
84.571900
21
1004.140000
0
LINE
8
Layer 1
10
84.571900
20
1004.140000
11
86.757000
21
1004.140000
0
LINE
8
Layer 1
10
86.757000
20
1004.140000
11
86.757000
21
1013.040000
0
LINE
8
Layer 1
10
86.757000
20
1013.040000
11
86.674538
21
1014.227500
0
LINE
8
Layer 1
10
86.674538
20
1014.227500
11
86.351700
21
1015.370000
0
LINE
8
Layer 1
10
86.351700
20
1015.370000
11
85.965848
21
1016.037813
0
LINE
8
Layer 1
10
85.965848
20
1016.037813
11
85.440937
21
1016.587500
0
LINE
8
Layer 1
10
85.440937
20
1016.587500
11
84.802083
21
1016.998438
0
LINE
8
Layer 1
10
84.802083
20
1016.998438
11
84.074400
21
1017.250000
0
LINE
8
Layer 1
10
84.074400
20
1017.250000
11
82.683625
21
1017.406250
0
LINE
8
Layer 1
10
82.683625
20
1017.406250
11
81.302600
21
1017.180000
0
LINE
8
Layer 1
10
81.302600
20
1017.180000
11
79.984600
21
1016.478750
0
LINE
8
Layer 1
10
79.984600
20
1016.478750
11
78.945000
21
1015.410000
0
LINE
8
Layer 1
10
78.945000
20
1015.410000
11
78.749200
21
1015.130000
0
LINE
8
Layer 1
10
78.749200
20
1015.130000
11
78.646100
21
1015.390000
0
LINE
8
Layer 1
10
78.646100
20
1015.390000
11
78.210933
21
1016.107812
0
LINE
8
Layer 1
10
78.210933
20
1016.107812
11
77.619213
21
1016.685000
0
LINE
8
Layer 1
10
77.619213
20
1016.685000
11
76.903011
21
1017.097188
0
LINE
8
Layer 1
10
76.903011
20
1017.097188
11
76.094400
21
1017.320000
0
LINE
8
Layer 1
10
76.094400
20
1017.320000
11
74.537975
21
1017.376250
0
LINE
8
Layer 1
10
74.537975
20
1017.376250
11
73.037500
21
1016.960000
0
LINE
8
Layer 1
10
73.037500
20
1016.960000
11
71.981975
21
1016.256250
0
LINE
8
Layer 1
10
71.981975
20
1016.256250
11
71.156400
21
1015.290000
0
LINE
8
Layer 1
10
71.156400
20
1015.290000
11
71.156400
21
1017.110000
0
LINE
8
Layer 1
10
71.156400
20
1017.110000
11
69.191000
21
1017.110000
0
LINE
8
Layer 1
10
69.191000
20
1017.110000
11
69.191000
21
1004.140000
0
LINE
8
Layer 1
10
69.191000
20
1004.140000
11
71.388300
21
1004.140000
0
LINE
8
Layer 1
10
71.388300
20
1004.140000
11
71.388300
21
1010.870000
0
LINE
8
Layer 1
10
71.388300
20
1010.870000
11
71.388300
21
1010.870000
0
LINE
8
Layer 1
10
30.316000
20
1006.650000
11
27.813600
21
1006.650000
0
LINE
8
Layer 1
10
27.813600
20
1006.650000
11
27.813600
21
1004.140000
0
LINE
8
Layer 1
10
27.813600
20
1004.140000
11
30.316000
21
1004.140000
0
LINE
8
Layer 1
10
30.316000
20
1004.140000
11
30.316000
21
1006.650000
0
LINE
8
Layer 1
10
30.316000
20
1006.650000
11
30.316000
21
1006.650000
 0 
ENDSEC
 0 
EOF