<?xml version="1.0" encoding="UTF-8" standalone="no"?>
<!DOCTYPE svg PUBLIC "-//W3C//DTD SVG 1.1//EN" "http://www.w3.org/Graphics/SVG/1.1/DTD/svg11.dtd">
<!-- Created with Vectornator (http://vectornator.io/) -->
<svg height="100%" stroke-miterlimit="10" style="fill-rule:nonzero;clip-rule:evenodd;stroke-linecap:round;stroke-linejoin:round;" version="1.1" viewBox="0 0 595.35 841.995" width="100%" xml:space="preserve" xmlns="http://www.w3.org/2000/svg" xmlns:vectornator="http://vectornator.io" xmlns:xlink="http://www.w3.org/1999/xlink">
<defs/>
<g id="layer1" vectornator:layerName="layer1">
<path d="M112.904 148.602L444.6 148.602" fill="none" opacity="1" stroke="#000000" stroke-linecap="butt" stroke-linejoin="miter" stroke-width="0.750093" vectornator:layerName="path"/>
<path d="M515.474 440.825L515.474 477.134" fill="none" opacity="1" stroke="#000000" stroke-linecap="butt" stroke-linejoin="miter" stroke-width="0.750093" vectornator:layerName="path"/>
<path d="M515.474 513.443L515.474 549.756" fill="none" opacity="1" stroke="#000000" stroke-linecap="butt" stroke-linejoin="miter" stroke-width="0.750093" vectornator:layerName="path"/>
<path d="M442.637 556.844L479.056 556.844" fill="none" opacity="1" stroke="#000000" stroke-linecap="butt" stroke-linejoin="miter" stroke-width="0.750093" vectornator:layerName="path"/>
<path d="M442.637 556.844L442.637 549.756" fill="none" opacity="1" stroke="#000000" stroke-linecap="butt" stroke-linejoin="miter" stroke-width="0.750093" vectornator:layerName="path"/>
<path d="M442.637 549.756L406.218 549.756" fill="none" opacity="1" stroke="#000000" stroke-linecap="butt" stroke-linejoin="miter" stroke-width="0.750093" vectornator:layerName="path"/>
<path d="M406.218 556.844L406.218 549.756" fill="none" opacity="1" stroke="#000000" stroke-linecap="butt" stroke-linejoin="miter" stroke-width="0.750093" vectornator:layerName="path"/>
<path d="M369.799 556.844L369.799 549.756" fill="none" opacity="1" stroke="#000000" stroke-linecap="butt" stroke-linejoin="miter" stroke-width="0.750093" vectornator:layerName="path"/>
<path d="M369.799 549.756L333.38 549.756" fill="none" opacity="1" stroke="#000000" stroke-linecap="butt" stroke-linejoin="miter" stroke-width="0.750093" vectornator:layerName="path"/>
<path d="M333.38 556.844L333.38 549.756" fill="none" opacity="1" stroke="#000000" stroke-linecap="butt" stroke-linejoin="miter" stroke-width="0.750093" vectornator:layerName="path"/>
<path d="M296.962 556.844L296.962 549.756" fill="none" opacity="1" stroke="#000000" stroke-linecap="butt" stroke-linejoin="miter" stroke-width="0.750093" vectornator:layerName="path"/>
<path d="M296.962 549.756L260.543 549.756" fill="none" opacity="1" stroke="#000000" stroke-linecap="butt" stroke-linejoin="miter" stroke-width="0.750093" vectornator:layerName="path"/>
<path d="M260.543 556.844L260.543 549.756" fill="none" opacity="1" stroke="#000000" stroke-linecap="butt" stroke-linejoin="miter" stroke-width="0.750093" vectornator:layerName="path"/>
<path d="M224.124 556.844L260.543 556.844" fill="none" opacity="1" stroke="#000000" stroke-linecap="butt" stroke-linejoin="miter" stroke-width="0.750093" vectornator:layerName="path"/>
<path d="M224.124 556.844L224.124 549.756" fill="none" opacity="1" stroke="#000000" stroke-linecap="butt" stroke-linejoin="miter" stroke-width="0.750093" vectornator:layerName="path"/>
<path d="M224.124 549.756L187.705 549.756" fill="none" opacity="1" stroke="#000000" stroke-linecap="butt" stroke-linejoin="miter" stroke-width="0.750093" vectornator:layerName="path"/>
<path d="M187.705 556.844L187.705 549.756" fill="none" opacity="1" stroke="#000000" stroke-linecap="butt" stroke-linejoin="miter" stroke-width="0.750093" vectornator:layerName="path"/>
<path d="M151.286 556.844L187.705 556.844" fill="none" opacity="1" stroke="#000000" stroke-linecap="butt" stroke-linejoin="miter" stroke-width="0.750093" vectornator:layerName="path"/>
<path d="M151.286 556.844L151.286 549.756" fill="none" opacity="1" stroke="#000000" stroke-linecap="butt" stroke-linejoin="miter" stroke-width="0.750093" vectornator:layerName="path"/>
<path d="M151.286 549.756L114.867 549.756" fill="none" opacity="1" stroke="#000000" stroke-linecap="butt" stroke-linejoin="miter" stroke-width="0.750093" vectornator:layerName="path"/>
<path d="M114.867 556.844L114.867 549.756" fill="none" opacity="1" stroke="#000000" stroke-linecap="butt" stroke-linejoin="miter" stroke-width="0.750093" vectornator:layerName="path"/>
<path d="M78.4488 556.844L114.867 556.844" fill="none" opacity="1" stroke="#000000" stroke-linecap="butt" stroke-linejoin="miter" stroke-width="0.750093" vectornator:layerName="path"/>
<path d="M78.4488 556.844L78.4488 549.756" fill="none" opacity="1" stroke="#000000" stroke-linecap="butt" stroke-linejoin="miter" stroke-width="0.750093" vectornator:layerName="path"/>
<path d="M78.4488 549.756L49.1172 549.756" fill="none" opacity="1" stroke="#000000" stroke-linecap="butt" stroke-linejoin="miter" stroke-width="0.750093" vectornator:layerName="path"/>
<path d="M42.0295 513.443L49.1172 513.443" fill="none" opacity="1" stroke="#000000" stroke-linecap="butt" stroke-linejoin="miter" stroke-width="0.750093" vectornator:layerName="path"/>
<path d="M42.0295 477.134L49.1172 477.134" fill="none" opacity="1" stroke="#000000" stroke-linecap="butt" stroke-linejoin="miter" stroke-width="0.750093" vectornator:layerName="path"/>
<path d="M49.1172 477.134L49.1172 440.825" fill="none" opacity="1" stroke="#000000" stroke-linecap="butt" stroke-linejoin="miter" stroke-width="0.750093" vectornator:layerName="path"/>
<path d="M42.0295 440.825L49.1172 440.825" fill="none" opacity="1" stroke="#000000" stroke-linecap="butt" stroke-linejoin="miter" stroke-width="0.750093" vectornator:layerName="path"/>
<path d="M42.0295 404.515L42.0295 440.825" fill="none" opacity="1" stroke="#000000" stroke-linecap="butt" stroke-linejoin="miter" stroke-width="0.750093" vectornator:layerName="path"/>
<path d="M49.1172 404.515L49.1172 368.205" fill="none" opacity="1" stroke="#000000" stroke-linecap="butt" stroke-linejoin="miter" stroke-width="0.750093" vectornator:layerName="path"/>
<path d="M42.0295 368.205L49.1172 368.205" fill="none" opacity="1" stroke="#000000" stroke-linecap="butt" stroke-linejoin="miter" stroke-width="0.750093" vectornator:layerName="path"/>
<path d="M49.1172 331.895L49.1172 295.586" fill="none" opacity="1" stroke="#000000" stroke-linecap="butt" stroke-linejoin="miter" stroke-width="0.750093" vectornator:layerName="path"/>
<path d="M42.0295 295.586L49.1172 295.586" fill="none" opacity="1" stroke="#000000" stroke-linecap="butt" stroke-linejoin="miter" stroke-width="0.750093" vectornator:layerName="path"/>
<path d="M42.0295 259.276L42.0295 295.586" fill="none" opacity="1" stroke="#000000" stroke-linecap="butt" stroke-linejoin="miter" stroke-width="0.750093" vectornator:layerName="path"/>
<path d="M42.0295 259.276L49.1172 259.276" fill="none" opacity="1" stroke="#000000" stroke-linecap="butt" stroke-linejoin="miter" stroke-width="0.750093" vectornator:layerName="path"/>
<path d="M49.1172 259.276L49.1172 222.966" fill="none" opacity="1" stroke="#000000" stroke-linecap="butt" stroke-linejoin="miter" stroke-width="0.750093" vectornator:layerName="path"/>
<path d="M42.0295 222.966L49.1172 222.966" fill="none" opacity="1" stroke="#000000" stroke-linecap="butt" stroke-linejoin="miter" stroke-width="0.750093" vectornator:layerName="path"/>
<path d="M42.0295 186.656L42.0295 222.966" fill="none" opacity="1" stroke="#000000" stroke-linecap="butt" stroke-linejoin="miter" stroke-width="0.750093" vectornator:layerName="path"/>
<path d="M42.0295 186.656L49.1172 186.656" fill="none" opacity="1" stroke="#000000" stroke-linecap="butt" stroke-linejoin="miter" stroke-width="0.750093" vectornator:layerName="path"/>
<path d="M49.1172 186.656L49.1172 150.346" fill="none" opacity="1" stroke="#000000" stroke-linecap="butt" stroke-linejoin="miter" stroke-width="0.750093" vectornator:layerName="path"/>
<path d="M42.0295 150.346L49.1172 150.346" fill="none" opacity="1" stroke="#000000" stroke-linecap="butt" stroke-linejoin="miter" stroke-width="0.750093" vectornator:layerName="path"/>
<path d="M42.0295 114.037L42.0295 150.346" fill="none" opacity="1" stroke="#000000" stroke-linecap="butt" stroke-linejoin="miter" stroke-width="0.750093" vectornator:layerName="path"/>
<path d="M42.0295 114.037L49.1172 114.037" fill="none" opacity="1" stroke="#000000" stroke-linecap="butt" stroke-linejoin="miter" stroke-width="0.750093" vectornator:layerName="path"/>
<path d="M49.1172 114.037L49.1172 77.7268" fill="none" opacity="1" stroke="#000000" stroke-linecap="butt" stroke-linejoin="miter" stroke-width="0.750093" vectornator:layerName="path"/>
<path d="M49.1172 77.7268L515.474 77.7268" fill="none" opacity="1" stroke="#000000" stroke-linecap="butt" stroke-linejoin="miter" stroke-width="0.750093" vectornator:layerName="path"/>
<path d="M508.388 114.037L515.474 114.037" fill="none" opacity="1" stroke="#000000" stroke-linecap="butt" stroke-linejoin="miter" stroke-width="0.750093" vectornator:layerName="path"/>
<path d="M508.388 150.346L515.474 150.346" fill="none" opacity="1" stroke="#000000" stroke-linecap="butt" stroke-linejoin="miter" stroke-width="0.750093" vectornator:layerName="path"/>
<path d="M508.388 186.656L515.474 186.656" fill="none" opacity="1" stroke="#000000" stroke-linecap="butt" stroke-linejoin="miter" stroke-width="0.750093" vectornator:layerName="path"/>
<path d="M508.388 222.966L508.388 186.656" fill="none" opacity="1" stroke="#000000" stroke-linecap="butt" stroke-linejoin="miter" stroke-width="0.750093" vectornator:layerName="path"/>
<path d="M508.388 222.966L515.474 222.966" fill="none" opacity="1" stroke="#000000" stroke-linecap="butt" stroke-linejoin="miter" stroke-width="0.750093" vectornator:layerName="path"/>
<path d="M508.388 259.276L515.474 259.276" fill="none" opacity="1" stroke="#000000" stroke-linecap="butt" stroke-linejoin="miter" stroke-width="0.750093" vectornator:layerName="path"/>
<path d="M508.388 295.586L508.388 259.276" fill="none" opacity="1" stroke="#000000" stroke-linecap="butt" stroke-linejoin="miter" stroke-width="0.750093" vectornator:layerName="path"/>
<path d="M508.388 295.586L515.474 295.586" fill="none" opacity="1" stroke="#000000" stroke-linecap="butt" stroke-linejoin="miter" stroke-width="0.750093" vectornator:layerName="path"/>
<path d="M515.474 295.586L515.474 331.895" fill="none" opacity="1" stroke="#000000" stroke-linecap="butt" stroke-linejoin="miter" stroke-width="0.750093" vectornator:layerName="path"/>
<path d="M508.388 331.895L515.474 331.895" fill="none" opacity="1" stroke="#000000" stroke-linecap="butt" stroke-linejoin="miter" stroke-width="0.750093" vectornator:layerName="path"/>
<path d="M508.388 368.205L508.388 331.895" fill="none" opacity="1" stroke="#000000" stroke-linecap="butt" stroke-linejoin="miter" stroke-width="0.750093" vectornator:layerName="path"/>
<path d="M508.388 368.205L515.474 368.205" fill="none" opacity="1" stroke="#000000" stroke-linecap="butt" stroke-linejoin="miter" stroke-width="0.750093" vectornator:layerName="path"/>
<path d="M515.474 368.205L515.474 404.515" fill="none" opacity="1" stroke="#000000" stroke-linecap="butt" stroke-linejoin="miter" stroke-width="0.750093" vectornator:layerName="path"/>
<path d="M508.388 404.515L515.474 404.515" fill="none" opacity="1" stroke="#000000" stroke-linecap="butt" stroke-linejoin="miter" stroke-width="0.750093" vectornator:layerName="path"/>
<path d="M508.388 440.825L508.388 404.515" fill="none" opacity="1" stroke="#000000" stroke-linecap="butt" stroke-linejoin="miter" stroke-width="0.750093" vectornator:layerName="path"/>
<path d="M508.388 440.825L515.474 440.825" fill="none" opacity="1" stroke="#000000" stroke-linecap="butt" stroke-linejoin="miter" stroke-width="0.750093" vectornator:layerName="path"/>
<path d="M479.056 556.844L479.056 549.756" fill="none" opacity="1" stroke="#000000" stroke-linecap="butt" stroke-linejoin="miter" stroke-width="0.750093" vectornator:layerName="path"/>
<path d="M49.1172 549.756L49.1172 513.443" fill="none" opacity="1" stroke="#000000" stroke-linecap="butt" stroke-linejoin="miter" stroke-width="0.750093" vectornator:layerName="path"/>
<path d="M42.0295 477.134L42.0295 513.443" fill="none" opacity="1" stroke="#000000" stroke-linecap="butt" stroke-linejoin="miter" stroke-width="0.750093" vectornator:layerName="path"/>
<path d="M112.904 148.602L112.904 480.297" fill="none" opacity="1" stroke="#000000" stroke-linecap="butt" stroke-linejoin="miter" stroke-width="0.750093" vectornator:layerName="path"/>
<path d="M508.388 477.134L515.474 477.134" fill="none" opacity="1" stroke="#000000" stroke-linecap="butt" stroke-linejoin="miter" stroke-width="0.750093" vectornator:layerName="path"/>
<path d="M112.904 480.297L444.6 480.297" fill="none" opacity="1" stroke="#000000" stroke-linecap="butt" stroke-linejoin="miter" stroke-width="0.750093" vectornator:layerName="path"/>
<path d="M508.388 513.443L508.388 477.134" fill="none" opacity="1" stroke="#000000" stroke-linecap="butt" stroke-linejoin="miter" stroke-width="0.750093" vectornator:layerName="path"/>
<path d="M515.474 549.756L479.056 549.756" fill="none" opacity="1" stroke="#000000" stroke-linecap="butt" stroke-linejoin="miter" stroke-width="0.750093" vectornator:layerName="path"/>
<path d="M369.799 556.844L406.218 556.844" fill="none" opacity="1" stroke="#000000" stroke-linecap="butt" stroke-linejoin="miter" stroke-width="0.750093" vectornator:layerName="path"/>
<path d="M296.962 556.844L333.38 556.844" fill="none" opacity="1" stroke="#000000" stroke-linecap="butt" stroke-linejoin="miter" stroke-width="0.750093" vectornator:layerName="path"/>
<path d="M42.0295 331.895L42.0295 368.205" fill="none" opacity="1" stroke="#000000" stroke-linecap="butt" stroke-linejoin="miter" stroke-width="0.750093" vectornator:layerName="path"/>
<path d="M508.388 513.443L515.474 513.443" fill="none" opacity="1" stroke="#000000" stroke-linecap="butt" stroke-linejoin="miter" stroke-width="0.750093" vectornator:layerName="path"/>
<path d="M42.0295 404.515L49.1172 404.515" fill="none" opacity="1" stroke="#000000" stroke-linecap="butt" stroke-linejoin="miter" stroke-width="0.750093" vectornator:layerName="path"/>
<path d="M42.0295 331.895L49.1172 331.895" fill="none" opacity="1" stroke="#000000" stroke-linecap="butt" stroke-linejoin="miter" stroke-width="0.750093" vectornator:layerName="path"/>
<path d="M515.474 150.346L515.474 186.656" fill="none" opacity="1" stroke="#000000" stroke-linecap="butt" stroke-linejoin="miter" stroke-width="0.750093" vectornator:layerName="path"/>
<path d="M515.474 77.7268L515.474 114.037" fill="none" opacity="1" stroke="#000000" stroke-linecap="butt" stroke-linejoin="miter" stroke-width="0.750093" vectornator:layerName="path"/>
<path d="M508.388 150.346L508.388 114.037" fill="none" opacity="1" stroke="#000000" stroke-linecap="butt" stroke-linejoin="miter" stroke-width="0.750093" vectornator:layerName="path"/>
<path d="M444.6 148.602L444.6 480.297" fill="none" opacity="1" stroke="#000000" stroke-linecap="butt" stroke-linejoin="miter" stroke-width="0.750093" vectornator:layerName="path"/>
<path d="M515.474 222.966L515.474 259.276" fill="none" opacity="1" stroke="#000000" stroke-linecap="butt" stroke-linejoin="miter" stroke-width="0.750093" vectornator:layerName="path"/>
<path d="M329.643 120.124C324.127 119.834 317.493 121.595 312.111 121.562C303.961 121.511 295.831 121.562 287.681 121.562C295.614 121.99 303.523 122.692 311.466 122.871C320.267 123.07 329.655 120.543 337.861 123.701C335.859 121.19 332.952 120.298 329.643 120.124ZM231.41 120.316C226.516 120.085 222.097 120.767 219.518 124.372C224.939 121.686 231.082 120.92 237.502 120.923C235.463 120.669 233.387 120.409 231.41 120.316ZM85.1575 121.562C85.2657 204.483 85.2757 204.492 85.3831 287.413C87.494 265.164 87.9266 242.831 87.897 220.472C87.993 239.067 88.0449 257.625 88.4126 276.362C90.6128 272.417 89.5203 275.118 89.7018 267.803C90.9999 267.803 91.0141 267.803 92.3123 267.803C92.745 270.537 92.7497 270.531 93.1824 273.264C93.2906 265.385 93.2684 265.399 93.3758 257.519C94.9985 257.519 95.009 257.519 96.6309 257.519C97.0636 263.415 97.0683 263.408 97.5011 269.304C97.6092 263.301 97.6192 263.299 97.7267 257.296C100.648 259.391 99.8431 264.229 99.886 267.803C100.319 262.55 100.323 262.549 100.756 257.296C101.946 257.296 101.92 257.296 103.109 257.296C103.109 261.155 103.109 261.165 103.109 265.024C103.878 254.481 103.805 257.121 103.786 249.535C103.73 249.54 103.68 249.565 103.624 249.567C103.363 252.276 103.277 253.321 102.915 257.072C99.0072 254.546 101.167 256.587 99.886 248.704C99.886 252.885 99.886 252.891 99.886 257.072C98.8042 257.072 98.8084 257.072 97.7267 257.072C97.2534 253.588 97.2331 253.594 96.7598 250.11C96.6922 253.594 96.6989 253.588 96.6309 257.072C95.1164 257.072 95.1159 257.072 93.6014 257.072C93.6014 244.851 93.6014 244.862 93.6014 232.64C94.7914 232.64 94.7971 232.64 95.9863 232.64C94.0817 231.588 93.9727 232.087 93.8915 229.702C93.6907 223.746 93.7021 217.807 93.6014 211.849C95.1159 211.849 95.1164 211.849 96.6309 211.849C96.6309 229.751 96.6309 229.748 96.6309 247.651C97.4963 247.651 97.5058 247.651 98.3712 247.651C98.0467 221.815 98.0512 221.812 97.7267 195.976C95.5957 200.682 96.6831 206.245 96.6309 211.402C95.1164 211.402 95.1159 211.402 93.6014 211.402C93.6014 201.11 93.6014 201.125 93.6014 190.834C95.2241 190.834 95.2346 190.834 96.8565 190.834C97.181 192.871 97.1765 192.854 97.5011 194.89C97.6378 187.027 98.3803 179.038 96.8565 171.32C96.8024 180.754 96.7824 180.761 96.7276 190.195C95.159 190.302 95.17 190.28 93.6014 190.387C93.8234 170.722 93.922 165.271 92.9568 145.387C92.8487 148.174 92.8386 148.157 92.7312 150.944C91.2167 150.944 91.2163 150.944 89.7018 150.944C89.5936 138.83 89.5836 138.817 89.4762 126.703C93.0029 138.811 96.2639 151.017 98.7902 163.368C97.9248 160.259 97.9153 160.281 97.0499 157.172C97.7082 162.826 99.1988 168.291 101.755 173.013C101.74 172.318 101.746 171.615 101.723 170.809C101.615 170.667 101.509 170.616 101.401 170.458C101.519 170.56 101.608 170.556 101.723 170.649C101.694 169.633 101.7 169.165 101.659 167.903C94.6914 157.643 97.132 139.409 91.8611 128.013C100.792 134.371 115.325 134.813 126.281 139.926C127.414 139.848 128.506 139.752 129.665 139.702C129.461 139.615 129.292 139.462 129.085 139.383C116.824 134.657 104.13 130.93 92.3123 125.202C101.433 125.595 111.249 124.772 119.449 128.747C113.607 128.962 113.623 128.98 107.782 129.195C122.657 129.463 122.654 129.438 137.529 129.706C137.529 130.992 137.529 131.006 137.529 132.292C127.252 132.4 127.244 132.409 116.967 132.516C127.244 133.749 127.253 133.742 137.529 134.975C131.795 134.922 131.79 134.933 126.055 134.879C135.378 138.344 145.943 135.634 155.899 135.71C154.24 138.848 155.655 137.385 150.066 137.658C155.621 138.729 154.61 137.32 155.77 140.564C155.858 140.573 155.94 140.588 156.028 140.596C156.857 137.813 156.115 138.697 160.443 137.754C158.28 137.7 158.288 137.711 156.125 137.658C156.125 136.586 156.125 136.59 156.125 135.518C172.892 135.625 172.907 135.603 189.675 135.71C178.748 135.46 167.796 135.811 156.898 134.975C156.237 134.925 156.376 133.762 156.125 133.155C182.776 132.835 183.129 132.831 209.431 132.516C193.889 132.342 178.333 132.363 162.796 131.973C155.896 131.8 156.756 133.094 155.899 129.514C183.615 129.193 183.682 129.196 211.332 128.875C183.789 128.768 183.732 128.759 156.125 128.652C156.125 127.365 156.125 127.351 156.125 126.065C175.241 125.951 194.504 127.243 213.459 124.787C184.792 123.93 184.792 123.92 156.125 123.063C174.182 122.973 192.244 122.962 210.301 122.807C213.546 122.779 217.375 123.491 219.969 121.562C152.574 121.562 152.551 121.562 85.1575 121.562ZM338.506 121.562C347.349 123.677 356.677 122.806 365.771 122.871C365.771 123.729 365.771 123.706 365.771 124.564C355.169 124.564 355.169 124.564 344.565 124.564C351.148 126.946 358.566 125.81 365.578 125.873C365.578 127.267 365.578 127.258 365.578 128.652C356.274 128.866 356.25 128.852 346.95 129.067C374.211 129.388 374.222 129.384 401.48 129.706C401.48 130.992 401.48 131.006 401.48 132.292C389.653 131.506 377.85 130.021 365.997 129.929C360.316 129.885 354.789 132.177 349.109 132.292C357.222 132.721 357.238 132.726 365.352 133.155C365.352 134.012 365.352 134.022 365.352 134.879C362.323 135.308 362.322 135.281 359.293 135.71C365.459 135.71 365.467 135.71 371.637 135.71C368.716 135.388 368.692 135.393 365.771 135.071C365.771 133.999 365.771 134.003 365.771 132.931C383.621 133.038 383.63 133.048 401.48 133.155C401.318 134.012 401.317 134.022 401.158 134.879C386.716 134.987 386.723 134.964 372.281 135.071C385.393 135.68 398.597 136.494 411.664 135.295C408.344 135.127 403.811 135.85 401.899 133.155C412.242 132.916 417.351 132.796 422.59 132.676C421.08 132.145 420 131.206 419.657 129.514C434.694 129.192 434.689 129.197 449.726 128.875C444.209 128.875 444.221 128.875 438.704 128.875C438.812 127.428 438.786 127.416 438.897 125.969C451.338 125.486 451.331 125.493 463.778 125.011C441.709 124.796 441.726 124.778 419.657 124.564C419.657 123.706 419.657 123.729 419.657 122.871C445.404 122.978 445.411 122.955 471.158 123.063C470.293 190.064 470.28 190.071 469.418 257.072C469.526 190.392 469.532 190.381 469.643 123.701C455.831 129.172 440.864 132.458 428.036 139.83C429.018 139.776 429.504 139.831 430.808 139.734C441.229 133.955 456.227 133.531 465.421 128.428C461.6 141.86 463.609 161.599 452.981 171.32C454.388 170.784 454.385 170.77 455.785 170.234C454.892 171.737 454.132 172.705 452.852 172.725C452.845 173.286 452.833 173.882 452.82 174.45C453.3 174.386 453.694 174.403 454.335 174.162C453.7 174.576 453.263 174.827 452.82 175.057C452.791 176.283 452.774 177.472 452.723 178.761C464.955 166.521 463.555 142.933 468.322 127.566C467.997 147.934 467.996 147.949 467.677 168.318C465.48 167.917 464.555 165.617 464.229 162.825C464.031 171.328 463.932 179.413 464.003 190.387C462.381 190.387 462.374 190.387 460.748 190.387C460.965 181.167 460.98 181.178 461.199 171.959C457.141 185.342 459.619 203.781 459.685 217.629C461.654 211.776 459.669 213.165 464.003 211.849C463.751 223.858 463.929 235.887 465.099 247.842C465.099 240.231 465.099 240.251 465.099 232.64C466.397 232.64 466.379 232.64 467.677 232.64C467.677 244.861 467.677 244.85 467.677 257.072C464.89 255.772 464.837 251.542 464.455 248.513C464.238 252.694 464.223 252.668 464.003 256.848C462.489 256.848 462.488 256.848 460.974 256.848C460.433 252.775 460.454 252.777 459.91 248.704C459.099 252.745 459.078 252.745 458.267 256.785C457.455 252.423 457.467 252.428 456.655 248.066C456.655 252.568 456.655 252.57 456.655 257.072C455.573 257.072 455.578 257.072 454.496 257.072C454.28 251.926 454.264 251.933 454.045 246.788C454.003 252.507 453.186 258.368 454.496 263.939C455.037 260.669 455.019 260.661 455.56 257.391C456.533 262.376 456.555 262.371 457.525 267.356C457.633 263.923 456.922 259.369 459.685 257.296C459.815 261.532 459.159 266.103 460.974 269.943C461.124 265.612 460.359 259.691 464.003 257.296C464.544 265.336 464.555 265.32 465.099 273.36C465.099 270.466 465.099 270.474 465.099 267.579C468.554 268.037 468.529 273.663 469.418 277.001C469.85 267.192 469.856 267.2 470.288 257.391C471.37 272.453 471.365 272.446 472.447 287.508C472.447 204.534 472.447 204.536 472.447 121.562C405.484 121.562 405.469 121.562 338.506 121.562ZM422.59 132.676C426.768 134.144 434.303 132.193 439.123 132.292C430.859 132.483 426.78 132.579 422.59 132.676ZM252.585 121.721C258.76 122.176 264.877 122.532 270.568 121.785C264.569 121.759 258.584 121.743 252.585 121.721ZM384.012 121.785C391.466 121.571 398.871 121.992 401.48 124.564C383.847 124.564 383.855 124.564 366.222 124.564C366.222 123.706 366.222 123.729 366.222 122.871C369.063 122.871 376.558 121.999 384.012 121.785ZM147.004 122.584C150.127 122.567 153.206 122.88 155.802 124.053C149.867 125.078 143.779 124.512 137.754 124.564C137.863 123.76 137.84 123.771 137.948 122.967C140.707 122.933 143.881 122.601 147.004 122.584ZM410.536 122.711C413.538 122.726 416.547 122.914 419.335 123.606C410.518 124.088 410.522 124.081 401.706 124.564C401.706 123.706 401.706 123.729 401.706 122.871C404.544 122.871 407.529 122.696 410.536 122.711ZM86.6723 123.063C112.094 123.813 112.107 123.813 137.529 124.564C120.867 124.605 104.056 125.9 87.5424 123.701C87.6422 146.378 87.6348 168.473 87.6714 190.514C87.2569 168.027 86.6563 145.52 86.6723 123.063ZM312.239 123.286C305.204 123.635 298.056 124.59 291.13 124.564C299.428 128.902 309.883 125.597 319.265 125.65C319.373 126.775 319.381 126.76 319.491 127.885C319.599 126.759 319.575 126.775 319.684 125.65C326.175 125.65 326.185 125.65 332.672 125.65C326.2 123.207 319.275 122.937 312.239 123.286ZM267.345 124.787C253.769 124.713 240.183 124.801 226.608 125.043C239.999 126.823 253.861 127.041 267.345 124.787ZM426.844 124.947C430.63 125.028 435.11 125.895 438.253 125.873C438.253 127.267 438.253 127.258 438.253 128.652C428.949 128.652 428.96 128.652 419.657 128.652C419.984 125.56 423.064 124.865 426.844 124.947ZM128.054 125.33C131.378 125.411 134.961 126.029 137.303 126.065C137.303 127.458 137.303 127.482 137.303 128.875C131.92 128.875 125.587 129.592 120.319 127.853C121.66 125.716 124.73 125.25 128.054 125.33ZM467.484 125.873C463.791 129.082 466.417 127.101 458.589 130.376C464.298 127.185 461.365 128.692 467.484 125.873ZM137.754 126.065C140.747 126.065 152.714 126.065 155.706 126.065C155.706 126.458 155.706 128.035 155.706 128.428C152.713 128.464 140.747 128.616 137.754 128.652C137.754 128.223 137.754 126.494 137.754 126.065ZM401.255 126.065C401.255 127.351 401.255 127.365 401.255 128.652C383.729 128.504 383.747 128.512 366.222 128.364C366.155 127.373 366.164 127.376 366.093 126.384C383.686 126.237 383.662 126.212 401.255 126.065ZM401.706 126.065C404.627 126.065 416.317 126.065 419.238 126.065C419.238 126.494 419.238 128.223 419.238 128.652C416.317 128.652 404.627 128.652 401.706 128.652C401.706 128.223 401.706 126.494 401.706 126.065ZM91.99 126.512C94.5911 127.514 97.0126 128.831 99.6604 129.706C96.2408 128.84 94.7703 128.441 91.99 126.512ZM242.626 127.406C234.911 127.012 227.354 127.238 222.548 129.706C236.253 129.601 250.033 130.227 263.671 128.875C258.231 128.841 250.341 127.8 242.626 127.406ZM315.043 128.588C308.297 128.587 301.547 128.673 294.804 128.652C308.166 130.466 321.796 129.213 335.283 129.067C328.552 128.661 321.789 128.588 315.043 128.588ZM147.487 129.035C151.342 129.082 154.956 129.797 155.706 132.292C152.887 132.275 148.977 132.972 145.521 133.155C149.706 133.155 154.01 133.155 155.706 133.155C155.706 133.476 155.706 134.749 155.706 135.071C152.749 135.071 140.905 135.071 137.948 135.071C137.948 134.749 137.948 133.477 137.948 133.155C138.801 133.155 141.168 133.155 143.072 133.155C140.268 133.001 138.106 132.181 137.754 129.706C139.543 129.595 143.633 128.988 147.487 129.035ZM401.899 129.514C404.784 129.514 416.356 129.514 419.238 129.514C419.238 129.978 419.238 131.828 419.238 132.292C416.353 132.292 404.781 132.292 401.899 132.292C401.899 131.828 401.899 129.979 401.899 129.514ZM305.407 130.153C305.407 130.26 305.407 130.684 305.407 130.791C305.515 130.756 305.942 130.604 306.052 130.568C305.943 130.496 305.517 130.224 305.407 130.153ZM318.556 130.887C311.873 131.291 305.076 132.313 298.51 132.292C311.369 134.916 324.732 133.115 337.861 133.155C331.781 130.702 325.239 130.483 318.556 130.887ZM463.133 131.334C454.177 134.504 441.686 134.841 433.29 139.606C433.471 139.593 433.75 139.556 433.934 139.542C434.062 139.533 434.13 139.551 434.256 139.542C437.538 138.31 437.258 138.032 440.412 138.297C438.742 139.027 438.808 139.058 437.931 139.446C438.937 139.408 439.994 139.348 440.896 139.351C446.634 137.831 452.452 136.581 458.073 134.752C453.845 137.799 454.815 135.922 453.948 139.702C456.166 138.576 456.181 138.56 458.396 137.434C458.504 136.97 458.607 136.494 458.718 136.029C458.934 135.1 459.227 134.575 459.588 134.432C459.949 134.289 460.188 134.209 460.329 134.209C460.401 134.209 460.486 134.209 460.555 134.209C460.519 134.423 460.468 134.665 460.426 134.879C460.354 135.308 460.015 135.833 459.362 136.476C459.038 136.798 458.714 137.113 458.396 137.434C457.223 144.521 456.715 141.836 457.719 145.578C458.368 145.15 458.388 145.145 459.04 144.716C457.51 152.509 455.622 160.244 453.4 167.871C461.634 160.339 460.555 140.123 463.133 131.334ZM95.1161 131.43C96.9598 139.982 96.7655 154.48 101.562 163.527C101.467 160.524 101.489 158.306 101.465 156.182C101.372 156.378 101.268 156.525 101.175 156.725C100.234 148.485 101.392 144.639 99.886 137.434C101.514 138.608 101.889 138.989 102.303 139.095C102.617 138.468 103.043 138.054 103.689 137.786C103.597 137.585 103.505 137.409 103.334 137.019C104.427 136.859 105.769 136.836 107.266 136.955C111.124 137.263 116.03 138.494 120.48 140.405C121.115 140.33 121.801 140.31 122.446 140.245C122.425 140.234 122.403 140.224 122.381 140.213C122.623 140.213 122.694 140.213 122.865 140.213C123.437 140.158 124.025 140.133 124.605 140.085C114.803 137.11 104.745 134.856 95.1161 131.43ZM239.951 131.813C231.907 131.643 223.895 131.807 220.163 133.155C233.434 133.062 246.762 133.49 259.997 132.516C256.1 132.495 247.995 131.984 239.951 131.813ZM99.4348 133.794C101.28 134.497 100.566 133.919 101.594 135.518C100.512 134.661 100.516 134.651 99.4348 133.794ZM97.5977 134.752C99.4473 135.11 98.7763 134.59 99.2414 136.796C98.43 135.777 98.4091 135.77 97.5977 134.752ZM421.687 134.784C418.648 134.744 415.628 134.877 412.631 135.295C421.718 135.295 421.727 135.295 430.808 135.295C427.79 135.036 424.727 134.823 421.687 134.784ZM191.189 135.071C191.189 135.143 191.189 135.447 191.189 135.518C192.632 135.518 198.386 135.518 199.826 135.518C199.826 135.447 199.826 135.143 199.826 135.071C198.384 135.071 192.63 135.071 191.189 135.071ZM207.626 135.071C207.337 135.071 201.589 135.447 200.471 135.518C201.373 135.554 202.277 135.578 203.178 135.614C204.981 135.685 206.26 135.685 206.981 135.614C207.702 135.543 208.045 135.437 208.045 135.295C208.045 135.223 208.045 135.143 208.045 135.071C207.901 135.071 207.772 135.071 207.626 135.071ZM350.43 135.071C355.833 135.775 353.151 135.73 358.423 135.295C354.42 135.187 354.436 135.178 350.43 135.071ZM257.161 135.295C244.294 135.222 231.45 135.257 218.583 135.358C231.396 135.73 244.373 136.447 257.161 135.295ZM409.279 137.211C405.635 138.145 401.786 137.983 398.032 138.201C403.224 138.147 403.214 138.127 408.409 138.073C408.273 138.225 408.181 138.396 408.055 138.552C408.235 138.552 408.353 138.55 408.538 138.552C408.788 138.108 409.026 137.649 409.279 137.211ZM362.741 137.434C355.31 137.573 358.94 137.439 351.945 137.882C355.309 138.053 359.854 139.34 362.741 137.434ZM328.579 137.498C324.081 137.528 319.557 137.803 315.14 138.201C324.306 138.1 332.714 138.371 341.986 138.201C337.57 137.686 333.078 137.469 328.579 137.498ZM417.433 137.53C415.299 137.544 413.192 137.71 411.213 138.297C417.487 137.975 417.476 137.98 423.75 137.658C421.713 137.658 419.57 137.516 417.433 137.53ZM140.623 137.562C138.162 137.565 135.701 137.692 133.21 137.882C138.119 138.437 143.063 137.975 148.003 137.913C145.516 137.66 143.082 137.56 140.623 137.562ZM177.395 137.594C172.471 137.596 167.557 137.673 162.635 137.658C172.375 139.075 182.312 138.07 192.156 137.977C187.244 137.662 182.322 137.592 177.395 137.594ZM384.335 137.626C380.317 137.625 376.301 137.668 372.281 137.658C376.621 139.41 381.348 139.242 386.139 138.776C385.913 138.919 385.735 139.194 385.527 139.383C386.145 139.334 386.525 139.266 387.203 139.223C388.459 139.143 389.511 139.155 390.845 139.095C390.634 138.92 390.449 138.546 390.232 138.424C392.294 138.198 394.376 137.939 396.388 137.882C392.373 137.672 388.352 137.627 384.335 137.626ZM193.123 137.658C193.123 137.765 193.123 138.19 193.123 138.297C193.988 138.297 197.447 138.297 198.312 138.297C198.312 138.19 198.312 137.765 198.312 137.658C197.446 137.658 193.988 137.658 193.123 137.658ZM363.837 137.658C368.373 138.36 366.136 138.318 370.541 137.882C367.187 137.774 367.191 137.765 363.837 137.658ZM203.436 137.754C202.895 137.77 202.397 137.934 200.278 138.297C204.32 138.451 202.144 138.476 206.756 138.073C204.551 137.862 203.977 137.738 203.436 137.754ZM303.699 137.882C307.493 138.821 311.103 138.496 314.947 138.073C309.321 137.966 309.324 137.989 303.699 137.882ZM208.238 138.201C207.95 138.604 207.725 139.047 207.432 139.446C207.517 139.413 207.564 139.348 207.658 139.319C207.994 139.215 208.363 139.273 208.722 139.287C208.778 139.213 208.869 139.123 208.915 139.063C208.65 138.886 208.449 138.555 208.238 138.201ZM170.821 139.542C170.549 139.542 170.312 139.642 170.047 139.67C170.523 139.723 171.193 139.927 171.723 140.053C171.743 140.058 171.768 140.049 171.788 140.053C172.536 140.235 173.031 140.204 174.14 140.564C174.18 140.577 174.198 140.583 174.237 140.596C174.607 140.717 174.577 140.63 174.882 140.724C173.554 140.026 172.166 139.543 170.821 139.542ZM365.997 140.021C365.924 140.164 365.647 140.741 365.578 140.884C365.866 140.884 366.994 140.884 367.286 140.884C367.105 140.848 366.953 140.792 366.77 140.756C366.409 140.684 366.162 140.555 366.093 140.341C366.057 140.234 366.039 140.128 365.997 140.021ZM373.989 140.021C375.104 141.126 375.159 141.411 375.407 141.682C375.554 141.59 375.629 141.429 375.794 141.363C375.483 141.129 375.139 140.954 373.989 140.021ZM322.52 140.213C321.943 140.213 321.489 140.294 321.199 140.437C321.055 140.508 320.924 140.589 320.78 140.66C321.249 140.66 323.114 140.66 323.584 140.66C323.548 140.589 323.523 140.508 323.487 140.437C323.415 140.294 323.096 140.213 322.52 140.213ZM359.519 140.213C359.519 140.284 359.519 140.365 359.519 140.437C359.519 140.579 359.734 140.741 360.163 140.884C360.596 141.027 361.122 141.051 361.775 140.979C362.099 140.944 362.423 140.92 362.741 140.884C362.705 140.812 362.687 140.732 362.645 140.66C362.573 140.517 362.046 140.412 361.033 140.341C360.529 140.305 360.02 140.249 359.519 140.213ZM194.638 140.437C194.638 140.508 194.638 140.812 194.638 140.884C195.179 140.848 197.352 140.696 197.893 140.66C197.352 140.624 195.179 140.472 194.638 140.437ZM340.02 140.437C343.266 140.973 343.285 140.986 346.531 141.522C343.257 140.392 345.356 140.953 340.02 140.437ZM92.0867 142.161C92.0867 142.411 92.0867 142.646 92.0867 142.896C92.0867 143.396 92.2179 143.743 92.5056 143.886C92.6499 143.957 92.8118 144.006 92.9568 144.077C92.8847 143.756 92.8037 143.441 92.7312 143.119C92.587 142.476 92.4573 142.161 92.3123 142.161C92.2401 142.161 92.1596 142.161 92.0867 142.161ZM464.648 147.718C464.507 151.069 464.483 153.339 464.39 156.182C464.618 154.186 464.885 151.507 464.874 151.168C465.631 150.953 465.628 150.935 466.388 150.72C465.55 150.452 465.548 150.477 464.712 150.209C464.685 148.977 464.672 148.951 464.648 147.718ZM89.7018 151.359C90.1705 151.359 92.0369 151.359 92.5056 151.359C92.4696 154.182 92.3476 165.495 92.3123 168.318C91.8795 168.318 90.1343 168.318 89.7018 168.318C89.7018 165.495 89.7018 154.182 89.7018 151.359ZM455.173 158.545C455.118 158.828 455.069 159.249 455.012 159.503C455.195 159.552 455.306 159.511 455.495 159.567C455.45 159.237 455.275 158.883 455.173 158.545ZM89.7018 168.541C91.054 168.756 91.0575 168.742 92.409 168.957C92.409 178.677 92.4587 173.895 92.3123 183.329C91.0141 183.329 90.9999 183.329 89.7018 183.329C89.7018 175.932 89.7018 175.938 89.7018 168.541ZM465.099 168.541C466.397 168.541 466.379 168.541 467.677 168.541C467.677 176.046 467.677 176.016 467.677 183.52C466.325 183.359 466.325 183.362 464.97 183.201C464.97 173.302 464.959 178.225 465.099 168.541ZM100.079 176.238C100.404 184.922 100.432 184.929 100.756 193.612C100.798 187.82 101.928 181.734 100.079 176.238ZM457.074 178.378C456.453 185.557 455.634 193.234 456.978 200.351C457.366 193.036 457.343 185.699 457.074 178.378ZM454.496 182.786C453.282 187.826 454.129 193.159 454.27 198.339C454.744 193.172 454.846 187.963 454.496 182.786ZM89.7018 183.744C91.1081 183.744 91.0993 183.744 92.5056 183.744C92.5057 190.555 92.2562 197.386 91.8288 204.184C90.7606 204.264 90.77 204.264 89.7018 204.343C89.7018 194.052 89.7018 194.035 89.7018 183.744ZM464.874 183.967C466.334 184.182 466.343 184.168 467.806 184.382C467.752 197.89 467.728 197.894 467.677 211.402C466.379 211.402 466.397 211.402 465.099 211.402C465.099 208.503 464.215 205.12 467.484 204.12C466.294 204.12 466.292 204.12 465.099 204.12C465.051 197.289 464.874 190.712 464.874 183.967ZM460.748 190.834C461.289 190.834 463.459 190.834 464.003 190.834C463.967 193.085 463.82 202.092 463.778 204.343C463.309 204.343 461.444 204.343 460.974 204.343C460.938 202.092 460.79 193.085 460.748 190.834ZM100.627 195.209C99.5251 212.651 99.8258 230.175 99.886 247.651C100.204 247.567 100.532 247.419 100.853 247.331C100.758 246.813 100.795 246.386 100.982 245.894C101.083 228.995 102.323 212.021 100.627 195.209ZM103.109 196.199C103.196 207.43 103.251 212.818 103.302 218.651C103.434 217.737 103.614 216.65 103.882 215.49C103.909 214.46 103.985 213.313 104.011 212.424C104.006 212.12 103.978 211.884 103.979 211.465C103.979 211.293 103.979 207.848 103.979 205.717C103.906 205.78 103.859 205.778 103.786 205.844C103.461 201.02 103.433 201.023 103.109 196.199ZM456.881 201.756C456.714 206.34 456.749 210.091 456.269 212.998C456.293 213.032 456.342 213.028 456.365 213.062C456.693 213.556 456.799 213.967 456.849 214.436C456.87 214.636 456.889 214.838 456.881 215.042C456.86 215.676 456.477 217.563 456.172 219.13C456.735 218.496 457.165 217.66 457.3 216.352C457.786 211.651 457.979 206.37 456.881 201.756ZM89.7018 204.535C90.1345 204.535 91.8797 204.535 92.3123 204.535C92.3123 205.714 92.3123 210.446 92.3123 211.625C91.8795 211.625 90.1343 211.625 89.7018 211.625C89.7018 210.446 89.7018 205.714 89.7018 204.535ZM460.974 204.535C461.479 204.535 463.502 204.535 464.003 204.535C464.003 205.714 464.003 210.446 464.003 211.625C463.499 211.625 461.476 211.625 460.974 211.625C460.974 210.446 460.974 205.714 460.974 204.535ZM465.099 211.849C466.451 212.063 466.451 212.05 467.806 212.264C467.752 222.341 467.728 222.339 467.677 232.416C462.972 231.718 465.099 213.74 465.099 211.849ZM89.7018 212.04C90.1345 212.04 91.8797 212.04 92.3123 212.04C92.3123 215.435 92.3123 229.022 92.3123 232.416C91.8795 232.416 90.1343 232.416 89.7018 232.416C89.7018 229.022 89.7018 215.435 89.7018 212.04ZM460.555 218.683C458.202 227.234 460.575 236.433 460.974 245.287C460.758 231.994 460.772 231.976 460.555 218.683ZM457.3 219.993C454.464 228.021 457.289 237.016 457.719 245.511C457.503 232.754 457.519 232.751 457.3 219.993ZM103.334 225.198C103.376 230.067 103.429 234.967 103.496 243.499C103.52 243.482 103.535 243.452 103.56 243.435C103.991 237.534 103.796 231.603 103.657 225.678C103.555 225.509 103.4 225.388 103.334 225.198ZM89.7018 232.64C90.9999 232.64 91.0141 232.64 92.3123 232.64C92.3123 244.861 92.3123 244.85 92.3123 257.072C91.0141 257.072 90.9999 257.072 89.7018 257.072C90.5198 248.965 90.4664 240.752 89.7018 232.64ZM451.015 247.203C450.91 251.79 450.431 256.436 451.466 260.936C451.446 256.36 451.921 251.691 451.015 247.203ZM106.815 248.162C106.589 248.311 106.362 248.416 106.138 248.577C106.138 251.4 106.138 259.41 106.138 261.575C106.21 261.575 106.517 261.575 106.589 261.575C106.625 259.341 106.775 250.7 106.815 248.162ZM465.099 257.296C465.532 257.296 467.248 257.296 467.677 257.296C467.677 258.975 467.677 265.676 467.677 267.356C467.245 267.356 465.529 267.356 465.099 267.356C465.099 265.676 465.099 258.975 465.099 257.296ZM90.9909 257.391C93.0342 260.148 92.3123 264.115 92.3123 267.356C91.0141 267.356 90.9999 267.356 89.7018 267.356C90.3508 262.371 90.3418 262.376 90.9909 257.391ZM454.045 277.001C454.076 284.794 453.406 292.691 454.689 300.379C454.657 292.586 455.172 284.714 454.045 277.001ZM103.334 277.225C103.28 288.91 103.293 288.918 103.238 300.603C103.929 292.936 104.171 284.88 103.334 277.225ZM100.531 279.588C99.3131 287.574 100.166 295.752 100.305 303.828C101.031 295.784 100.562 287.664 100.531 279.588ZM456.881 279.588C456.848 287.595 456.075 295.728 457.525 303.605C457.494 295.598 458.172 287.493 456.881 279.588ZM97.5011 281.951C96.5225 286.8 96.6309 284.783 96.6309 287.956C95.0082 287.956 94.9977 287.956 93.3758 287.956C93.2135 286.508 93.2166 286.497 93.0535 285.049C91.7441 286.001 90.746 287.124 89.9274 288.339C91.975 289.42 92.9907 291.265 93.4725 293.513C93.4288 291.8 93.3828 290.076 93.3758 288.371C94.9985 288.371 95.009 288.371 96.6309 288.371C96.7932 297.965 96.7901 297.971 96.9532 307.565C97.667 298.988 98.4331 290.558 97.5011 281.951ZM460.329 282.494C458.845 290.289 459.193 298.817 460.426 306.703C460.696 297.537 460.7 297.537 460.974 288.371C462.488 288.371 462.489 288.371 464.003 288.371C464.058 296.097 461.733 304.557 465.099 311.525C465.137 304.43 462.804 289.307 467.903 288.179C467.968 297.551 465.064 307.817 469.192 316.252C469.3 301.887 469.307 301.874 469.418 287.508C468.997 287.531 468.807 287.388 468.451 287.381C468.32 287.373 468.225 287.373 468.096 287.349C466.3 287.236 465.077 286.736 464.003 284.73C462.665 286.016 462.664 286.03 461.328 287.317C460.828 284.905 460.83 284.905 460.329 282.494ZM471.351 287.508C471.315 296.924 471.128 306.359 471.255 315.773C471.43 329.165 468.507 343.26 472.222 356.334C472.242 333.39 473.706 310.333 471.351 287.508ZM85.3831 287.732C85.3728 310.533 83.5668 333.52 86.4467 356.142C86.4059 333.043 86.2174 310.794 85.3831 287.732ZM89.734 288.69C85.0249 296.168 88.1205 307.761 88.187 316.667C94.3309 309.564 89.8687 298.122 89.734 288.69ZM88.187 322.895C88.107 335.78 87.5063 345.144 88.9605 357.196C89.3391 352.693 89.3231 352.692 89.7018 348.19C90.9999 348.19 91.0141 348.19 92.3123 348.19C92.3527 352.072 90.8307 357.037 93.6014 359.783C93.6014 353.994 93.6014 353.978 93.6014 348.19C95.1159 348.19 95.1164 348.19 96.6309 348.19C97.28 355.372 97.271 355.379 97.92 362.561C97.8473 354.091 99.4508 340.712 96.8565 332.54C96.8565 340.152 96.8565 340.163 96.8565 347.774C95.2338 347.774 95.2233 347.774 93.6014 347.774C93.5692 341.241 94.1217 334.597 92.9568 328.165C92.6323 337.96 92.6368 337.979 92.3123 347.774C91.0141 347.774 90.9999 347.774 89.7018 347.774C89.622 339.469 92.2003 330.186 88.187 322.895ZM469.192 323.757C467.093 331.499 467.955 339.759 467.903 347.774C466.497 347.774 466.506 347.774 465.099 347.774C464.829 338.394 464.825 338.375 464.551 328.995C463.615 335.182 464.059 341.519 464.003 347.774C462.381 347.774 462.374 347.774 460.748 347.774C460.532 340.645 460.549 340.627 460.329 333.498C458.457 344.059 459.84 351.67 460.329 362.242C461.096 357.621 460.709 352.873 460.748 348.19C462.371 348.19 462.378 348.19 464.003 348.19C464.111 353.818 464.118 353.835 464.229 359.463C465.631 355.966 465.066 351.951 465.099 348.19C466.505 348.19 466.496 348.19 467.903 348.19C468.447 352.464 468.451 352.476 468.999 356.749C470.712 345.12 469.384 336.425 469.192 323.757ZM100.466 336.309C100.253 345.99 99.2542 355.737 100.531 365.34C100.503 350.814 100.494 350.835 100.466 336.309ZM457.3 336.628C456.892 346.126 456.747 355.645 456.978 365.148C458.486 355.761 457.437 346.133 457.3 336.628ZM102.915 338.768C102.947 348.347 102.237 357.991 103.56 367.48C103.529 357.901 104.349 348.241 102.915 338.768ZM454.496 339.822C453.158 349.105 454.001 358.687 454.367 368.023C454.98 358.644 454.551 349.221 454.496 339.822ZM85.3831 356.557C85.275 431.813 85.2649 431.822 85.1575 507.078C151.471 507.078 151.464 507.078 217.778 507.078C216.984 506.721 216.298 506.001 215.425 505.992C172.516 505.571 129.583 505.869 86.6723 505.801C86.6542 464.117 86.7023 422.418 86.6401 380.734C86.6279 372.665 86.8144 364.5 85.3831 356.557ZM472.222 357.196C471.897 358.482 471.268 359.734 471.255 361.06C470.833 409.3 471.044 457.56 470.932 505.801C469.851 505.694 469.855 505.687 468.773 505.577C469.125 505.104 469.835 504.728 469.837 504.14C469.979 458.945 469.396 413.76 469.192 368.566C466.444 381.44 467.807 394.849 467.677 408.008C464.905 407.093 465.548 407.857 465.454 403.282C465.24 392.644 465.338 381.984 465.293 371.344C462.618 383.209 464.069 395.66 464.003 407.817C462.489 407.817 462.488 407.817 460.974 407.817C460.974 391.093 460.974 391.07 460.974 374.346C460.715 374.929 460.212 375.466 460.2 376.103C459.942 389.599 455.051 404.445 460.974 416.6C461.403 408.482 459.166 410.435 464.003 408.232C464.003 417.023 464.003 417.005 464.003 425.798C462.489 425.798 462.488 425.798 460.974 425.798C460.433 421.402 460.454 421.41 459.91 417.015C459.791 420.046 460.142 424.218 457.525 425.798C456.984 420.866 456.974 420.892 456.43 415.961C456.538 424.859 456.544 424.852 456.655 433.75C457.088 429.891 457.096 429.88 457.525 426.021C461.463 427.998 459.423 426.328 460.974 433.111C460.974 429.681 460.974 429.675 460.974 426.245C462.488 426.245 462.489 426.245 464.003 426.245C463.969 427.776 464.491 430.895 464.712 433.878C464.994 430.52 465.384 427.466 465.647 426.149C466.675 426.095 466.65 426.075 467.677 426.021C467.677 437.706 467.677 437.714 467.677 449.399C465.04 448.962 464.34 444.139 464.39 438.924C463.975 440.861 463.222 442.522 461.425 443.171C464.196 443.717 463.473 443.103 463.713 447.802C464.279 458.98 464.489 470.152 464.874 481.337C464.874 479.407 464.874 479.403 464.874 477.472C465.775 477.592 465.777 477.611 466.678 477.728C468.075 485.038 468.013 492.546 468.129 499.988C464.671 487.969 461.159 475.923 458.815 463.643C459.788 466.163 459.778 466.17 460.748 468.689C460.017 464.889 458.762 461.881 457.268 459.172C455.531 457.12 455.236 456.888 453.851 455.819C454.128 457.098 454.085 457.42 454.528 459.332C454.679 459.984 454.738 460.276 454.85 460.769C460.044 468.55 463.586 493.294 465.293 499.126C454.598 494.092 444.137 492.001 433.064 488.203C443.88 494.902 458.34 494.203 467.903 502.799C463.927 501.208 459.98 499.526 455.978 498.008C448.062 494.993 439.914 492.573 432.162 489.161C431.763 488.986 431.795 488.481 431.807 487.98C430.419 488.023 429.116 488.056 427.972 487.98C437.714 493.96 450.43 497.539 468.129 505.577C429.689 505.613 391.261 505.542 352.815 505.673C348.463 505.688 343.789 505.293 339.827 507.078C406.141 507.078 406.133 507.078 472.447 507.078C472.339 432.144 472.333 432.13 472.222 357.196ZM88.187 368.182C88.0939 413.012 87.5409 457.843 87.9292 502.671C87.938 503.686 88.8934 504.457 89.3795 505.354C99.6497 500.906 112.325 496.78 123.735 491.173C123.678 491.11 123.595 491.081 123.542 491.014C123.503 490.966 123.48 490.896 123.445 490.854C112.322 492.354 99.7246 499.207 90.3463 502.99C98.8574 495.227 111.867 493.45 122.414 489.002C122.393 488.958 122.393 488.924 122.381 488.906C111.628 492.193 101.262 493.311 91.8611 500.212C98.9448 487.972 94.674 469.427 104.076 459.204C104.061 458.737 104.141 458.651 104.108 458.022C104.103 457.934 104.112 457.954 104.108 457.863C104.033 456.415 104.226 455.724 104.269 454.765C94.0678 466.992 95.8305 485.948 89.0572 501.713C89.3817 489.384 89.3772 489.391 89.7018 477.057C94.2989 478.809 92.0906 477.137 92.7312 484.786C93.1715 479.323 92.0196 472.267 96.2119 468.689C93.8158 467.743 93.1975 464.58 93.0857 460.993C92.7359 464.49 91.8208 467.732 89.9274 468.466C89.8913 461.462 89.8116 454.487 89.8307 447.483C89.8516 440.368 85.4327 428.916 92.0867 426.245C92.2489 437.715 92.2466 437.705 92.409 449.176C91.1649 449.497 91.1714 449.496 89.9274 449.814C91.8459 450.21 92.741 453.247 93.0857 456.617C93.3765 452.677 93.9349 448.738 93.7948 446.557C93.3608 439.799 93.6637 433.016 93.6014 426.245C95.1159 426.245 95.1164 426.245 96.6309 426.245C97.1718 429.997 97.1858 429.998 97.7267 433.75C97.8709 431.106 98.1514 428.446 98.1456 425.798C98.1339 419.618 98.6194 413.339 99.048 407.05C98.8851 415.924 99.0412 424.761 100.305 433.526C100.429 414.516 101.808 395.402 99.886 376.486C99.8748 381.971 99.6078 387.495 99.4025 392.998C99.3103 386.735 98.7692 380.552 96.8243 374.634C96.7578 374.626 96.6933 374.614 96.6309 374.602C96.6309 390.666 96.6309 391.299 96.6309 408.008C95.1164 408.008 95.1159 408.008 93.6014 408.008C93.5396 395.895 97.8964 382.456 92.6023 371.632C92.4968 371.539 92.4145 371.494 92.3123 371.408C92.3639 388.818 92.3555 389.269 92.409 407.146C91.0567 407.575 91.0532 407.581 89.7018 408.008C89.6291 394.769 91.0799 381.246 88.2837 368.31C88.272 368.303 88.2632 368.284 88.2515 368.278C88.2152 368.257 88.2213 368.206 88.187 368.182ZM457.3 376.71C456.387 380.758 457.296 385.038 457.719 389.165C457.698 385.018 458.191 380.762 457.3 376.71ZM102.915 378.658C102.915 382.116 102.327 386.266 103.56 389.58C103.593 385.929 104.163 382.093 102.915 378.658ZM462.263 388.079C461.974 388.079 461.816 388.16 461.747 388.303C461.711 388.374 461.661 388.425 461.618 388.495C461.799 388.495 462.531 388.495 462.714 388.495C462.714 388.423 462.714 388.149 462.714 388.079C462.57 388.079 462.404 388.079 462.263 388.079ZM90.153 388.303C90.153 388.374 90.153 388.648 90.153 388.718C90.4414 388.718 91.5734 388.718 91.8611 388.718C91.825 388.647 91.7997 388.565 91.7644 388.495C91.6923 388.352 91.3991 388.303 90.8942 388.303C90.6418 388.303 90.4061 388.303 90.153 388.303ZM457.397 390.443C455.972 396.976 452.446 411.319 457.525 415.098C457.471 402.77 457.448 402.771 457.397 390.443ZM102.915 391.305C102.948 398.884 103.76 406.579 102.271 414.013C102.679 413.826 103.033 413.768 103.431 413.597C103.434 413.549 103.427 413.52 103.431 413.47C103.481 412.579 103.662 411.902 103.786 410.979C103.804 404.4 104.281 397.733 102.915 391.305ZM454.496 391.305C453.838 396.847 453.851 402.015 453.98 407.433C454.288 407.821 454.584 408.228 454.657 408.743C454.606 402.915 454.584 400.029 454.496 391.305ZM89.7018 408.232C94.3347 409.167 92.3123 423.559 92.3123 426.021C91.0141 426.021 90.9999 426.021 89.7018 426.021C89.7018 417.123 89.7018 417.13 89.7018 408.232ZM96.4053 408.232C96.5134 417.023 96.5235 417.005 96.6309 425.798C95.1164 425.798 95.1159 425.798 93.6014 425.798C93.6081 424.848 91.1986 409.197 96.4053 408.232ZM465.099 408.232C469.964 408.856 467.707 423.404 467.677 425.798C466.379 425.798 466.397 425.798 465.099 425.798C465.099 417.007 465.099 417.024 465.099 408.232ZM103.818 417.685C103.67 423.565 103.618 425.324 103.431 432.983C103.593 428.749 103.623 428.755 103.786 424.52C103.833 424.556 103.959 424.608 104.011 424.648C104.008 424.476 104.014 424.275 104.011 424.105C103.922 424.105 103.823 424.105 103.786 424.105C103.786 423.89 103.786 423.01 103.786 422.795C103.823 422.869 103.925 423.065 104.011 423.243C104.009 421.649 103.917 420.144 104.043 418.228C103.964 418.052 103.873 417.882 103.818 417.685ZM454.045 432.792C454.006 433.205 453.958 433.65 453.916 434.069C454.033 434.102 454.153 434.127 454.27 434.165C454.306 433.951 454.325 433.741 454.367 433.526C454.439 433.098 454.336 432.862 454.045 432.792ZM103.786 433.75C102.239 438.513 103.26 443.759 103.431 448.761C103.96 443.784 103.764 438.754 103.786 433.75ZM99.886 434.612C99.886 446.836 99.7499 440.458 100.305 453.679C101.959 447.531 100.201 440.967 99.886 434.612ZM461.199 434.612C460.442 434.773 460.445 434.772 459.685 434.932C460.14 442.306 459.271 449.631 460.748 456.905C460.78 449.471 460.438 442.008 461.199 434.612ZM454.045 434.804C453.619 443.671 453.54 439.329 454.27 447.898C454.162 441.359 454.156 441.343 454.045 434.804ZM97.7267 435.027C95.8876 435.242 95.8594 435.26 94.0204 435.475C96.114 435.926 97.1968 437.371 97.7589 439.307C97.744 437.882 97.7206 436.451 97.7267 435.027ZM97.7589 439.307C97.8216 445.327 97.9349 451.347 97.2755 457.32C97.0981 452.078 99.148 444.086 97.7589 439.307ZM457.719 435.027C457.022 440.937 455.939 446.579 457.525 452.401C457.472 446.612 456.964 440.768 457.719 435.027ZM105.075 438.477C105.291 442.014 105.278 441.997 105.494 445.535C105.89 441.179 105.946 443.559 105.075 438.477ZM467.677 449.623C467.677 459.057 467.677 459.032 467.677 468.466C466.379 468.412 466.397 468.421 465.099 468.37C464.842 464.597 462.406 449.972 467.677 449.623ZM453.497 454.03C453.595 454.526 453.695 455.077 453.819 455.659C455.649 456.896 456.165 457.25 457.01 458.661C455.995 456.907 454.79 455.416 453.497 454.03ZM104.043 461.408C102.262 462.808 101.94 463.665 100.627 469.137C98.4558 478.185 97.2299 487.423 95.5351 496.571C103.829 493.027 101.568 495.752 104.43 490.567C100.463 490.567 102.851 490.144 97.8556 493.665C101.751 488.235 100.721 477.656 101.594 471.276C101.773 471.809 101.987 472.236 102.174 472.746C102.032 472.09 101.915 471.421 101.884 470.733C101.871 470.758 101.831 470.805 101.82 470.829C101.846 470.723 101.826 470.764 101.852 470.67C101.845 470.484 101.787 470.321 101.787 470.127C101.787 468.762 102.15 467.601 103.012 465.432C103.066 465.296 103.054 465.279 103.109 465.144C103.702 463.661 103.913 463.115 104.011 462.621C104.071 462.325 104.014 461.719 104.043 461.408ZM455.076 461.887C455.164 462.293 455.312 462.868 455.398 463.26C455.606 464.228 455.583 464.887 455.753 465.783C455.964 466.316 455.968 466.332 456.43 467.412C456.132 466.841 456.057 466.661 455.85 466.262C456.635 470.661 457.044 474.528 456.655 477.824C456.981 482.551 457.346 487.234 458.589 491.844C456.317 491.415 456.317 491.408 454.045 490.982C454.045 494.589 459.846 495.435 463.133 496.986C461.084 487.253 459.528 477.419 457.01 467.795C456.082 464.253 455.699 462.787 455.076 461.887ZM89.7018 468.689C90.1705 468.689 92.0369 468.689 92.5056 468.689C92.5056 470.047 92.5056 475.473 92.5056 476.834C92.0369 476.834 90.1705 476.834 89.7018 476.834C89.7018 475.476 89.7018 470.05 89.7018 468.689ZM464.874 468.689C466.28 468.689 466.27 468.689 467.677 468.689C467.677 472.978 467.677 472.993 467.677 477.281C463.712 476.466 464.874 472.033 464.874 468.689ZM217.842 486.958C217.474 486.985 217.325 487.077 217.004 487.117C218.38 487.525 219.718 487.813 221.033 487.98C220.276 487.652 219.902 487.505 219.518 487.341C219.242 487.152 219.201 487.116 218.97 486.958C218.635 486.971 218.144 486.931 217.842 486.958ZM359.712 487.98C359.748 488.051 359.799 488.135 359.841 488.203C359.913 488.346 360.34 488.427 361.13 488.427C361.527 488.427 361.92 488.427 362.322 488.427C362.322 488.355 362.322 488.048 362.322 487.98C361.89 487.98 360.144 487.98 359.712 487.98ZM403.414 488.555C402.969 488.505 402.32 488.887 400.191 489.289C400.789 490.552 400.785 490.549 401.383 491.812C399.811 492.318 399.794 492.296 398.225 492.802C399.956 493.821 399.975 493.828 401.706 494.846C391.533 494.888 381.206 493.977 371.185 495.709C386.33 495.816 386.335 495.822 401.48 495.932C401.48 497.326 401.48 497.316 401.48 498.711C383.739 498.711 383.738 498.711 365.997 498.711C365.997 497.317 365.997 497.327 365.997 495.932C368.485 496.575 368.478 496.563 370.96 497.21C367.199 494.104 362.245 493.647 357.778 495.932C361.673 495.932 361.683 495.932 365.578 495.932C365.578 497.326 365.578 497.316 365.578 498.711C359.294 498.827 352.811 498.139 346.756 499.797C356.276 499.797 356.251 499.797 365.771 499.797C365.656 500.563 365.661 500.564 365.545 501.33C359.262 502.455 348.546 500.164 344.565 504.076C383.342 503.908 421.797 504.001 460.555 503.853C452.53 502.152 423.687 505.619 419.657 499.797C429.285 499.797 429.269 499.797 438.897 499.797C439.222 500.869 439.256 500.864 439.574 501.936C439.358 500.864 439.342 500.869 439.123 499.797C444.424 499.689 444.425 499.683 449.726 499.573C439.742 498.685 429.818 499.157 419.915 497.593C419.791 496.764 419.783 496.764 419.657 495.932C425.931 495.557 425.919 495.544 432.194 495.166C426.028 495.219 426.052 495.243 419.883 495.293C419.883 494.221 419.883 494.194 419.883 493.122C423.02 492.8 422.998 492.798 426.135 492.483C418.562 492.376 418.56 492.401 410.988 492.291C414.427 494.163 411.87 492.938 419.335 494.208C413.83 496.048 407.712 494.887 401.899 494.846C404.038 491.952 402.4 493.45 408.184 492.547C404.938 491.448 404.951 491.439 401.706 490.343C403.545 490.343 403.541 490.343 405.38 490.343C404.099 489.074 403.859 488.607 403.414 488.555ZM396.71 488.618C396.854 488.904 397.02 489.192 397.161 489.481C397.45 490.053 397.768 490.427 398.128 490.567C398.309 490.638 398.493 490.722 398.676 490.79C398.532 490.54 398.366 490.271 398.225 490.024C397.936 489.524 397.619 489.187 397.258 488.97C397.078 488.863 396.894 488.729 396.71 488.618ZM168.307 488.746C168.482 488.822 168.642 488.948 168.823 489.002C166.878 489.175 165.009 489.611 163.279 490.567C171.389 488.251 180.142 490.76 188.579 490.982C188.442 490.894 188.387 490.781 188.256 490.694C187.985 490.664 187.696 490.639 187.354 490.567C186.751 490.443 186.01 490.253 185.163 490.024C185.129 490.015 185.101 489.999 185.066 489.992C185.129 490.098 185.156 490.245 185.227 490.343C181.058 490.219 176.626 489.265 172.368 489.034C172.505 489.002 172.679 488.88 172.819 488.842C171.449 488.897 170.282 488.872 168.952 488.81C169.038 488.868 169.087 488.943 169.177 489.002C169.156 489.003 169.134 489 169.113 489.002C168.999 488.937 168.93 488.878 168.823 488.81C168.639 488.801 168.488 488.76 168.307 488.746ZM215.103 489.129C215.357 489.427 215.595 489.744 215.844 490.056C216.348 490.142 216.798 490.183 218.648 490.567C216.332 489.443 215.919 489.257 215.103 489.129ZM343.598 489.289C341.081 490.028 338.461 490.417 335.798 490.662C341.351 490.643 339.643 491.012 343.598 489.289ZM399.546 489.289C399.546 489.503 399.546 490.349 399.546 490.567C399.618 490.567 399.896 490.567 399.965 490.567C399.893 490.352 399.615 489.507 399.546 489.289ZM384.431 489.896C381.298 489.935 378.152 490.032 375.021 490.088C373.921 490.405 372.902 490.611 372.056 490.631C372.009 490.685 372.009 490.733 371.959 490.79C371.845 490.738 371.779 490.655 371.669 490.599C371.01 490.58 370.357 490.536 369.638 490.311C369.948 490.967 370.18 491.665 370.541 492.291C368.161 492.774 368.151 492.761 365.771 493.249C367.978 493.178 369.875 492.982 371.733 492.77C378.684 491.98 384.286 490.507 395.647 490.343C391.922 489.907 388.185 489.849 384.431 489.896ZM371.733 492.77C384.012 492.744 384.013 492.73 396.291 492.706C388.282 491.419 379.791 492.188 371.733 492.77ZM409.054 489.928C413.333 491.442 418.144 490.129 422.686 489.928C415.871 489.928 415.869 489.928 409.054 489.928ZM240.338 489.96C237.614 489.953 234.885 490.142 232.281 490.567C240.34 490.513 240.336 490.521 248.395 490.471C245.775 490.179 243.06 489.963 240.338 489.96ZM196.7 490.12C195.907 490.119 195.32 490.253 194.96 490.471C194.78 490.578 194.592 490.68 194.412 490.79C194.989 490.754 195.577 490.704 196.152 490.662C197.306 490.591 197.893 490.483 197.893 490.343C197.893 490.272 197.893 490.188 197.893 490.12C197.496 490.12 197.095 490.12 196.7 490.12ZM232.087 490.12C224.73 490.12 228.893 490.082 219.518 490.343C223.656 491.176 227.992 491.187 232.087 490.12ZM364.707 490.12C364.707 490.227 364.707 490.68 364.707 490.79C365.32 490.79 367.771 490.79 368.381 490.79C368.345 490.683 368.327 490.581 368.285 490.471C368.213 490.256 367.568 490.12 366.416 490.12C365.839 490.12 365.287 490.12 364.707 490.12ZM155.158 491.142C153.871 493.444 154.587 492.114 148.325 492.706C152.003 492.921 152.029 492.904 155.706 493.122C155.706 493.979 155.706 493.992 155.706 494.846C140.128 495.061 140.118 495.078 124.541 495.293C128.873 497.583 134.823 493.327 137.303 498.711C127.491 498.802 117.536 497.853 107.879 499.573C113.72 499.68 113.737 499.686 119.578 499.797C119.578 501.083 119.578 501.065 119.578 502.352C112.638 502.517 105.612 502.578 98.7902 503.853C139.127 503.983 172.475 503.868 212.815 503.214C209.648 502.721 210.32 502.755 205.628 502.703C189.203 502.532 172.776 502.465 156.35 502.352C156.35 500.958 156.35 500.968 156.35 499.573C183.719 499.68 183.706 499.686 211.074 499.797C208.833 498.63 209.918 498.902 206.53 498.87C189.766 498.699 172.761 500.358 156.254 497.465C156.198 496.699 156.18 496.696 156.125 495.932C171.053 495.557 171.072 495.544 186 495.166C171.072 495.005 171.053 495.004 156.125 494.846C156.125 493.989 156.125 493.976 156.125 493.122C158.288 493.122 158.28 493.122 160.443 493.122C158.301 492.377 156.973 492.805 156.189 491.142C155.873 491.101 155.538 491.104 155.158 491.142ZM176.976 491.621C171.629 491.629 166.322 492.037 161.539 493.122C170.121 493.174 178.744 493.706 187.29 492.93C187.181 494.86 187.174 494.868 187.064 496.794C188.487 493.243 189.232 493.828 192.575 492.579C187.699 492.012 182.327 491.609 176.976 491.621ZM458.815 491.844C459.031 491.951 459.24 492.053 459.459 492.164C459.892 492.378 460.188 492.827 460.329 493.473C460.401 493.795 460.486 494.111 460.555 494.431C460.339 494.324 460.13 494.222 459.91 494.112C459.478 493.897 459.181 493.449 459.04 492.802C458.968 492.481 458.884 492.164 458.815 491.844ZM217.649 492.291C217.71 492.38 217.782 492.457 217.842 492.547C219.58 492.988 219.824 493.046 223.192 492.93C220.133 492.792 219.616 492.62 217.649 492.291ZM139.753 492.387C137.234 492.404 134.743 492.547 132.34 493.122C139.804 492.8 139.797 492.798 147.262 492.483C144.809 492.483 142.271 492.37 139.753 492.387ZM340.375 492.483C340.158 492.626 339.092 492.734 337.217 492.802C335.341 492.874 334.328 492.982 334.187 493.122C334.115 493.193 334.03 493.277 333.961 493.345C335.007 493.345 336.08 493.345 337.12 493.345C339.211 493.345 340.409 493.243 340.697 493.026C340.841 492.919 340.975 492.817 341.116 492.706C341.044 492.635 340.96 492.551 340.891 492.483C340.746 492.34 340.594 492.343 340.375 492.483ZM358.648 492.483C358.648 492.59 358.648 493.011 358.648 493.122C359.37 493.122 362.246 493.122 362.967 493.122C362.967 493.014 362.967 492.593 362.967 492.483C362.246 492.483 359.37 492.483 358.648 492.483ZM242.529 492.515C239.77 492.594 237.008 492.806 234.247 492.93C242.522 492.876 242.504 492.853 250.78 492.802C248.026 492.466 245.288 492.433 242.529 492.515ZM205.015 492.579C204.573 492.594 203.989 492.738 201.986 492.93C204.636 492.93 204.655 492.93 207.303 492.93C205.776 492.678 205.456 492.564 205.015 492.579ZM319.459 492.611C315.012 492.518 310.575 492.63 306.277 493.345C319.475 493.238 319.475 493.232 332.672 493.122C328.361 492.989 323.911 492.7 319.459 492.611ZM195.089 492.706C195.089 492.778 195.089 492.862 195.089 492.93C195.089 493.073 195.936 493.181 197.667 493.249C198.533 493.285 199.412 493.303 200.278 493.345C200.278 493.274 200.278 493.19 200.278 493.122C200.278 492.979 200.116 492.871 199.826 492.802C199.538 492.731 198.691 492.706 197.248 492.706C196.527 492.706 195.81 492.706 195.089 492.706ZM224.932 492.706C224.932 492.778 224.932 493.053 224.932 493.122C226.267 493.122 231.591 493.122 232.925 493.122C232.889 493.05 232.863 492.998 232.828 492.93C232.756 492.787 231.43 492.706 228.832 492.706C227.534 492.706 226.231 492.706 224.932 492.706ZM236.664 493.824C230.86 494.153 224.973 494.959 219.26 495.006C219.292 495.059 219.323 495.11 219.357 495.166C230.925 496.656 242.686 496.014 254.357 496.124C248.844 493.716 242.812 493.476 236.664 493.824ZM356.038 494.846C355.317 494.846 354.787 494.93 354.427 495.07C354.066 495.213 353.879 495.42 353.879 495.709C353.879 495.851 353.879 495.984 353.879 496.124C354.42 496.052 354.946 496.001 355.49 495.932C356.572 495.789 357.134 495.582 357.134 495.293C357.134 495.15 357.134 494.986 357.134 494.846C356.773 494.846 356.399 494.846 356.038 494.846ZM193.671 494.878C192.002 494.945 190.351 495.096 188.708 495.389C195.339 496.555 202.028 495.572 208.689 495.709C203.737 495.311 198.675 494.672 193.671 494.878ZM320.973 495.198C315.171 495.155 309.396 495.298 303.699 495.932C314.543 496.027 327.107 497.063 338.312 495.485C332.598 495.449 326.772 495.237 320.973 495.198ZM137.754 495.932C140.747 495.932 152.714 495.932 155.706 495.932C155.706 496.361 155.706 498.061 155.706 498.487C152.713 498.523 140.747 498.669 137.754 498.711C137.754 498.246 137.754 496.398 137.754 495.932ZM401.899 495.932C410.608 496.187 410.626 496.192 419.335 496.443C417.647 500.902 402.649 498.712 401.899 498.711C401.899 497.317 401.899 497.327 401.899 495.932ZM317.17 497.816C310.797 497.492 304.557 497.75 299.799 499.988C311.63 499.957 323.59 500.916 335.283 499.126C330.052 499.04 323.547 498.141 317.17 497.816ZM221.903 498.934C233.705 500.701 245.774 499.413 257.709 499.222C239.805 499.074 239.807 499.085 221.903 498.934ZM137.754 499.573C140.747 499.573 152.714 499.573 155.706 499.573C155.706 500.038 155.706 501.885 155.706 502.352C152.713 502.352 140.747 502.352 137.754 502.352C137.754 501.887 137.754 500.039 137.754 499.573ZM372.378 499.765C374.532 499.574 376.401 500.043 377.019 502.352C372.933 502.309 369.367 503.275 366.093 501.074C367.784 500.808 370.223 499.958 372.378 499.765ZM119.997 499.797C122.881 499.797 134.418 499.797 137.303 499.797C137.303 500.225 137.303 501.926 137.303 502.352C134.418 502.352 122.882 502.352 119.997 502.352C119.997 501.923 119.997 500.222 119.997 499.797ZM377.244 499.797C389.252 499.797 389.247 499.797 401.255 499.797C401.255 501.083 401.255 501.065 401.255 502.352C394.13 502.318 378.419 504.566 377.244 499.797ZM401.899 499.797C404.784 499.797 416.356 499.797 419.238 499.797C419.238 500.225 419.238 501.926 419.238 502.352C416.353 502.352 404.781 502.352 401.899 502.352C401.899 501.923 401.899 500.222 401.899 499.797ZM319.265 500.212C319.265 500.498 319.265 500.785 319.265 501.074C319.265 501.63 319.383 501.942 319.588 502.096C311.034 501.171 301.265 500.703 296.319 503.853C307.786 503.812 319.301 504.267 330.739 503.437C327.954 503.099 324.024 502.584 319.878 502.128C319.849 501.847 319.841 501.585 319.813 501.298C319.741 500.583 319.635 500.212 319.491 500.212C319.419 500.212 319.336 500.212 319.265 500.212ZM238.984 500.627C238.984 500.877 238.984 501.146 238.984 501.393C238.984 501.894 239.065 502.187 239.21 502.256C233.927 502.632 228.366 503.146 225.674 503.214C237.265 506.592 249.849 503.815 261.931 503.853C256.764 501.418 247.807 501.669 239.403 502.256C239.313 501.9 239.054 500.9 238.984 500.627ZM302.99 504.683C299.193 504.432 295.614 504.774 292.87 507.078C306.578 507.037 320.455 508.306 333.961 505.992C327.435 505.921 320.926 505.815 314.399 505.801C310.804 505.791 306.786 504.934 302.99 504.683ZM336.572 505.449C336.139 505.521 335.74 505.815 335.379 506.312C335.199 506.562 335.015 506.831 334.832 507.078C335.156 507.043 335.512 506.992 335.831 506.951C336.48 506.879 336.9 506.669 337.12 506.312C337.336 505.954 337.414 505.717 337.345 505.577C337.273 505.434 337.002 505.381 336.572 505.449ZM224.03 505.801C244.296 506.118 244.502 506.117 264.96 506.44C262.524 505.997 262.859 505.992 259.417 505.96C247.627 505.853 235.82 505.853 224.03 505.801Z" fill="#8b8b8b" fill-rule="nonzero" opacity="1" stroke="none" vectornator:layerName="Curve 4"/>
</g>
</svg>
