<?xml version="1.0" encoding="UTF-8" standalone="no"?>
<!-- Created with Inkscape (http://www.inkscape.org/) -->

<svg
   width="230mm"
   height="230mm"
   viewBox="0 0 230 230"
   version="1.1"
   id="svg12700"
   inkscape:version="1.2.1 (9c6d41e, 2022-07-14)"
   sodipodi:docname="cut.svg"
   xmlns:inkscape="http://www.inkscape.org/namespaces/inkscape"
   xmlns:sodipodi="http://sodipodi.sourceforge.net/DTD/sodipodi-0.dtd"
   xmlns="http://www.w3.org/2000/svg"
   xmlns:svg="http://www.w3.org/2000/svg">
  <sodipodi:namedview
     id="namedview12702"
     pagecolor="#ffffff"
     bordercolor="#000000"
     borderopacity="0.25"
     inkscape:showpageshadow="2"
     inkscape:pageopacity="0.0"
     inkscape:pagecheckerboard="0"
     inkscape:deskcolor="#d1d1d1"
     inkscape:document-units="mm"
     showgrid="false"
     inkscape:zoom="0.914906"
     inkscape:cx="112.03337"
     inkscape:cy="490.2143"
     inkscape:window-width="2560"
     inkscape:window-height="1387"
     inkscape:window-x="0"
     inkscape:window-y="25"
     inkscape:window-maximized="1"
     inkscape:current-layer="layer1" />
  <defs
     id="defs12697" />
  <g
     inkscape:label="Layer 1"
     inkscape:groupmode="layer"
     id="layer1">
    <path
       id="rect2027"
       style="fill:none;fill-opacity:0.259542;stroke:#000000;stroke-width:0.116899;stroke-linecap:round;stroke-linejoin:round;stroke-opacity:0.361963"
       d="M 33.725853,0.05844906 H 196.27415 c 18.65174,0 33.6674,15.01566194 33.6674,33.66740394 V 196.27415 c 0,18.65174 -15.01566,33.6674 -33.6674,33.6674 H 33.725853 c -18.651742,0 -33.66740421,-15.01566 -33.66740421,-33.6674 V 33.725853 c 0,-18.651742 15.01566221,-33.66740394 33.66740421,-33.66740394 z" />
    <path
       id="rect2078"
       style="fill:none;fill-opacity:0.259542;stroke:#000000;stroke-width:0.0482842;stroke-linecap:round;stroke-linejoin:round;stroke-opacity:0.361963"
       d="m 48.507496,15.024145 h 27.985008 c 18.549777,0 33.483356,14.933575 33.483356,33.483353 v 27.985008 c 0,18.549777 -14.933579,33.483354 -33.483356,33.483354 H 48.507496 c -18.549777,0 -33.483353,-14.933577 -33.483353,-33.483354 V 48.507498 c 0,-18.549778 14.933576,-33.483353 33.483353,-33.483353 z" />
    <path
       id="rect2090"
       style="fill:none;fill-opacity:0.259542;stroke:#000000;stroke-width:0.0482842;stroke-linecap:round;stroke-linejoin:round;stroke-opacity:0.361963"
       d="m 153.50749,15.024145 h 27.98501 c 18.54978,0 33.48335,14.933575 33.48335,33.483353 v 27.985008 c 0,18.549777 -14.93357,33.483354 -33.48335,33.483354 h -27.98501 c -18.54978,0 -33.48335,-14.933577 -33.48335,-33.483354 V 48.507498 c 0,-18.549778 14.93357,-33.483353 33.48335,-33.483353 z" />
    <path
       id="rect2092"
       style="fill:none;fill-opacity:0.259542;stroke:#000000;stroke-width:0.0482842;stroke-linecap:round;stroke-linejoin:round;stroke-opacity:0.361963"
       d="m 48.507496,120.02414 h 27.985008 c 18.549777,0 33.483356,14.93357 33.483356,33.48335 v 27.98501 c 0,18.54978 -14.933579,33.48335 -33.483356,33.48335 H 48.507496 c -18.549777,0 -33.483353,-14.93357 -33.483353,-33.48335 v -27.98501 c 0,-18.54978 14.933576,-33.48335 33.483353,-33.48335 z" />
    <path
       id="rect2094"
       style="fill:none;fill-opacity:0.259542;stroke:#000000;stroke-width:0.0482842;stroke-linecap:round;stroke-linejoin:round;stroke-opacity:0.361963"
       d="m 153.50749,120.02414 h 27.98501 c 18.54978,0 33.48335,14.93357 33.48335,33.48335 v 27.98501 c 0,18.54978 -14.93357,33.48335 -33.48335,33.48335 h -27.98501 c -18.54978,0 -33.48335,-14.93357 -33.48335,-33.48335 v -27.98501 c 0,-18.54978 14.93357,-33.48335 33.48335,-33.48335 z" />
  </g>
</svg>
