999
"DXF R12 Output" (www.mydxf.blogspot.com)
 0 
SECTION
 2 
HEADER
 9 
$ACADVER
 1 
AC1009
 9 
$EXTMIN
 10 
 0 
 20 
 0 
 9 
$EXTMAX
 10 
 8.5 
 20 
 11 
 0 
ENDSEC
 0 
SECTION
 2 
ENTITIES
0
LINE
8
Layer 1
10
45.506100
20
37.695700
11
45.506100
21
52.643000
0
LINE
8
Layer 1
10
45.506100
20
52.643000
11
41.006100
21
52.643000
0
LINE
8
Layer 1
10
41.006100
20
52.643000
11
41.006100
21
67.590400
0
LINE
8
Layer 1
10
41.006100
20
67.590400
11
45.506100
21
67.590400
0
LINE
8
Layer 1
10
45.506100
20
67.590400
11
45.506100
21
82.537700
0
LINE
8
Layer 1
10
45.506100
20
82.537700
11
41.006100
21
82.537700
0
LINE
8
Layer 1
10
41.006100
20
82.537700
11
41.006100
21
97.485000
0
LINE
8
Layer 1
10
41.006100
20
97.485000
11
45.506100
21
97.485000
0
LINE
8
Layer 1
10
45.506100
20
97.485000
11
45.506100
21
112.432000
0
LINE
8
Layer 1
10
45.506100
20
112.432000
11
41.006100
21
112.432000
0
LINE
8
Layer 1
10
41.006100
20
112.432000
11
41.006100
21
127.380000
0
LINE
8
Layer 1
10
41.006100
20
127.380000
11
45.506100
21
127.380000
0
LINE
8
Layer 1
10
45.506100
20
127.380000
11
45.506100
21
142.327000
0
LINE
8
Layer 1
10
45.506100
20
142.327000
11
41.006100
21
142.327000
0
LINE
8
Layer 1
10
41.006100
20
142.327000
11
41.006100
21
157.274000
0
LINE
8
Layer 1
10
41.006100
20
157.274000
11
45.506100
21
157.274000
0
LINE
8
Layer 1
10
45.506100
20
157.274000
11
45.506100
21
172.222000
0
LINE
8
Layer 1
10
45.506100
20
172.222000
11
41.006100
21
172.222000
0
LINE
8
Layer 1
10
41.006100
20
172.222000
11
41.006100
21
187.169000
0
LINE
8
Layer 1
10
41.006100
20
187.169000
11
45.506100
21
187.169000
0
LINE
8
Layer 1
10
45.506100
20
187.169000
11
45.506100
21
202.116000
0
LINE
8
Layer 1
10
45.506100
20
202.116000
11
41.006100
21
202.116000
0
LINE
8
Layer 1
10
41.006100
20
202.116000
11
41.006100
21
217.064000
0
LINE
8
Layer 1
10
41.006100
20
217.064000
11
45.506100
21
217.064000
0
LINE
8
Layer 1
10
45.506100
20
217.064000
11
45.506100
21
232.011000
0
LINE
8
Layer 1
10
45.506100
20
232.011000
11
41.006100
21
232.011000
0
LINE
8
Layer 1
10
41.006100
20
232.011000
11
41.006100
21
246.958000
0
LINE
8
Layer 1
10
41.006100
20
246.958000
11
45.506100
21
246.958000
0
LINE
8
Layer 1
10
45.506100
20
246.958000
11
45.506100
21
261.906000
0
LINE
8
Layer 1
10
45.506100
20
261.906000
11
41.006100
21
261.906000
0
LINE
8
Layer 1
10
41.006100
20
261.906000
11
41.006100
21
276.853000
0
LINE
8
Layer 1
10
41.006100
20
276.853000
11
45.506100
21
276.853000
0
LINE
8
Layer 1
10
45.506100
20
276.853000
11
45.506100
21
291.800000
0
LINE
8
Layer 1
10
45.506100
20
291.800000
11
33.006100
21
291.800000
0
LINE
8
Layer 1
10
33.006100
20
291.800000
11
33.006100
21
276.853000
0
LINE
8
Layer 1
10
33.006100
20
276.853000
11
28.506100
21
276.853000
0
LINE
8
Layer 1
10
28.506100
20
276.853000
11
28.506100
21
261.906000
0
LINE
8
Layer 1
10
28.506100
20
261.906000
11
33.006100
21
261.906000
0
LINE
8
Layer 1
10
33.006100
20
261.906000
11
33.006100
21
246.958000
0
LINE
8
Layer 1
10
33.006100
20
246.958000
11
28.506100
21
246.958000
0
LINE
8
Layer 1
10
28.506100
20
246.958000
11
28.506100
21
232.011000
0
LINE
8
Layer 1
10
28.506100
20
232.011000
11
33.006100
21
232.011000
0
LINE
8
Layer 1
10
33.006100
20
232.011000
11
33.006100
21
217.064000
0
LINE
8
Layer 1
10
33.006100
20
217.064000
11
28.506100
21
217.064000
0
LINE
8
Layer 1
10
28.506100
20
217.064000
11
28.506100
21
202.116000
0
LINE
8
Layer 1
10
28.506100
20
202.116000
11
33.006100
21
202.116000
0
LINE
8
Layer 1
10
33.006100
20
202.116000
11
33.006100
21
187.169000
0
LINE
8
Layer 1
10
33.006100
20
187.169000
11
28.506100
21
187.169000
0
LINE
8
Layer 1
10
28.506100
20
187.169000
11
28.506100
21
172.222000
0
LINE
8
Layer 1
10
28.506100
20
172.222000
11
33.006100
21
172.222000
0
LINE
8
Layer 1
10
33.006100
20
172.222000
11
33.006100
21
157.274000
0
LINE
8
Layer 1
10
33.006100
20
157.274000
11
28.506100
21
157.274000
0
LINE
8
Layer 1
10
28.506100
20
157.274000
11
28.506100
21
142.327000
0
LINE
8
Layer 1
10
28.506100
20
142.327000
11
33.006100
21
142.327000
0
LINE
8
Layer 1
10
33.006100
20
142.327000
11
33.006100
21
127.380000
0
LINE
8
Layer 1
10
33.006100
20
127.380000
11
28.506100
21
127.380000
0
LINE
8
Layer 1
10
28.506100
20
127.380000
11
28.506100
21
112.432000
0
LINE
8
Layer 1
10
28.506100
20
112.432000
11
33.006100
21
112.432000
0
LINE
8
Layer 1
10
33.006100
20
112.432000
11
33.006100
21
97.485000
0
LINE
8
Layer 1
10
33.006100
20
97.485000
11
28.506100
21
97.485000
0
LINE
8
Layer 1
10
28.506100
20
97.485000
11
28.506100
21
82.537700
0
LINE
8
Layer 1
10
28.506100
20
82.537700
11
33.006100
21
82.537700
0
LINE
8
Layer 1
10
33.006100
20
82.537700
11
33.006100
21
67.590400
0
LINE
8
Layer 1
10
33.006100
20
67.590400
11
28.506100
21
67.590400
0
LINE
8
Layer 1
10
28.506100
20
67.590400
11
28.506100
21
52.643000
0
LINE
8
Layer 1
10
28.506100
20
52.643000
11
33.006100
21
52.643000
0
LINE
8
Layer 1
10
33.006100
20
52.643000
11
33.006100
21
37.695700
0
LINE
8
Layer 1
10
33.006100
20
37.695700
11
28.506100
21
37.695700
0
LINE
8
Layer 1
10
28.506100
20
37.695700
11
28.506100
21
22.748400
0
LINE
8
Layer 1
10
28.506100
20
22.748400
11
33.006100
21
22.748400
0
LINE
8
Layer 1
10
33.006100
20
22.748400
11
33.006100
21
7.801060
0
LINE
8
Layer 1
10
33.006100
20
7.801060
11
45.506100
21
7.801060
0
LINE
8
Layer 1
10
45.506100
20
7.801060
11
45.506100
21
22.748400
0
LINE
8
Layer 1
10
45.506100
20
22.748400
11
41.006100
21
22.748400
0
LINE
8
Layer 1
10
41.006100
20
22.748400
11
41.006100
21
37.695700
0
LINE
8
Layer 1
10
41.006100
20
37.695700
11
45.506100
21
37.695700
0
LINE
8
Layer 1
10
46.500900
20
37.696400
11
51.000900
21
37.696400
0
LINE
8
Layer 1
10
51.000900
20
37.696400
11
51.000900
21
22.749100
0
LINE
8
Layer 1
10
51.000900
20
22.749100
11
46.500900
21
22.749100
0
LINE
8
Layer 1
10
46.500900
20
22.749100
11
46.500900
21
7.801690
0
LINE
8
Layer 1
10
46.500900
20
7.801690
11
59.000900
21
7.801690
0
LINE
8
Layer 1
10
59.000900
20
7.801690
11
59.000900
21
22.749100
0
LINE
8
Layer 1
10
59.000900
20
22.749100
11
63.500900
21
22.749100
0
LINE
8
Layer 1
10
63.500900
20
22.749100
11
63.500900
21
37.696400
0
LINE
8
Layer 1
10
63.500900
20
37.696400
11
59.000900
21
37.696400
0
LINE
8
Layer 1
10
59.000900
20
37.696400
11
59.000900
21
52.643800
0
LINE
8
Layer 1
10
59.000900
20
52.643800
11
63.500900
21
52.643800
0
LINE
8
Layer 1
10
63.500900
20
52.643800
11
63.500900
21
67.591200
0
LINE
8
Layer 1
10
63.500900
20
67.591200
11
59.000900
21
67.591200
0
LINE
8
Layer 1
10
59.000900
20
67.591200
11
59.000900
21
82.538500
0
LINE
8
Layer 1
10
59.000900
20
82.538500
11
63.500900
21
82.538500
0
LINE
8
Layer 1
10
63.500900
20
82.538500
11
63.500900
21
97.485900
0
LINE
8
Layer 1
10
63.500900
20
97.485900
11
59.000900
21
97.485900
0
LINE
8
Layer 1
10
59.000900
20
97.485900
11
59.000900
21
112.433000
0
LINE
8
Layer 1
10
59.000900
20
112.433000
11
63.500900
21
112.433000
0
LINE
8
Layer 1
10
63.500900
20
112.433000
11
63.500900
21
127.381000
0
LINE
8
Layer 1
10
63.500900
20
127.381000
11
59.000900
21
127.381000
0
LINE
8
Layer 1
10
59.000900
20
127.381000
11
59.000900
21
142.328000
0
LINE
8
Layer 1
10
59.000900
20
142.328000
11
63.500900
21
142.328000
0
LINE
8
Layer 1
10
63.500900
20
142.328000
11
63.500900
21
157.275000
0
LINE
8
Layer 1
10
63.500900
20
157.275000
11
59.000900
21
157.275000
0
LINE
8
Layer 1
10
59.000900
20
157.275000
11
59.000900
21
172.223000
0
LINE
8
Layer 1
10
59.000900
20
172.223000
11
63.500900
21
172.223000
0
LINE
8
Layer 1
10
63.500900
20
172.223000
11
63.500900
21
187.170000
0
LINE
8
Layer 1
10
63.500900
20
187.170000
11
59.000900
21
187.170000
0
LINE
8
Layer 1
10
59.000900
20
187.170000
11
59.000900
21
202.117000
0
LINE
8
Layer 1
10
59.000900
20
202.117000
11
63.500900
21
202.117000
0
LINE
8
Layer 1
10
63.500900
20
202.117000
11
63.500900
21
217.065000
0
LINE
8
Layer 1
10
63.500900
20
217.065000
11
59.000900
21
217.065000
0
LINE
8
Layer 1
10
59.000900
20
217.065000
11
59.000900
21
232.012000
0
LINE
8
Layer 1
10
59.000900
20
232.012000
11
63.500900
21
232.012000
0
LINE
8
Layer 1
10
63.500900
20
232.012000
11
63.500900
21
246.960000
0
LINE
8
Layer 1
10
63.500900
20
246.960000
11
59.000900
21
246.960000
0
LINE
8
Layer 1
10
59.000900
20
246.960000
11
59.000900
21
261.907000
0
LINE
8
Layer 1
10
59.000900
20
261.907000
11
63.500900
21
261.907000
0
LINE
8
Layer 1
10
63.500900
20
261.907000
11
63.500900
21
276.854000
0
LINE
8
Layer 1
10
63.500900
20
276.854000
11
59.000900
21
276.854000
0
LINE
8
Layer 1
10
59.000900
20
276.854000
11
59.000900
21
291.802000
0
LINE
8
Layer 1
10
59.000900
20
291.802000
11
46.500900
21
291.802000
0
LINE
8
Layer 1
10
46.500900
20
291.802000
11
46.500900
21
276.854000
0
LINE
8
Layer 1
10
46.500900
20
276.854000
11
51.000900
21
276.854000
0
LINE
8
Layer 1
10
51.000900
20
276.854000
11
51.000900
21
261.907000
0
LINE
8
Layer 1
10
51.000900
20
261.907000
11
46.500900
21
261.907000
0
LINE
8
Layer 1
10
46.500900
20
261.907000
11
46.500900
21
246.960000
0
LINE
8
Layer 1
10
46.500900
20
246.960000
11
51.000900
21
246.960000
0
LINE
8
Layer 1
10
51.000900
20
246.960000
11
51.000900
21
232.012000
0
LINE
8
Layer 1
10
51.000900
20
232.012000
11
46.500900
21
232.012000
0
LINE
8
Layer 1
10
46.500900
20
232.012000
11
46.500900
21
217.065000
0
LINE
8
Layer 1
10
46.500900
20
217.065000
11
51.000900
21
217.065000
0
LINE
8
Layer 1
10
51.000900
20
217.065000
11
51.000900
21
202.117000
0
LINE
8
Layer 1
10
51.000900
20
202.117000
11
46.500900
21
202.117000
0
LINE
8
Layer 1
10
46.500900
20
202.117000
11
46.500900
21
187.170000
0
LINE
8
Layer 1
10
46.500900
20
187.170000
11
51.000900
21
187.170000
0
LINE
8
Layer 1
10
51.000900
20
187.170000
11
51.000900
21
172.223000
0
LINE
8
Layer 1
10
51.000900
20
172.223000
11
46.500900
21
172.223000
0
LINE
8
Layer 1
10
46.500900
20
172.223000
11
46.500900
21
157.275000
0
LINE
8
Layer 1
10
46.500900
20
157.275000
11
51.000900
21
157.275000
0
LINE
8
Layer 1
10
51.000900
20
157.275000
11
51.000900
21
142.328000
0
LINE
8
Layer 1
10
51.000900
20
142.328000
11
46.500900
21
142.328000
0
LINE
8
Layer 1
10
46.500900
20
142.328000
11
46.500900
21
127.381000
0
LINE
8
Layer 1
10
46.500900
20
127.381000
11
51.000900
21
127.381000
0
LINE
8
Layer 1
10
51.000900
20
127.381000
11
51.000900
21
112.433000
0
LINE
8
Layer 1
10
51.000900
20
112.433000
11
46.500900
21
112.433000
0
LINE
8
Layer 1
10
46.500900
20
112.433000
11
46.500900
21
97.485900
0
LINE
8
Layer 1
10
46.500900
20
97.485900
11
51.000900
21
97.485900
0
LINE
8
Layer 1
10
51.000900
20
97.485900
11
51.000900
21
82.538500
0
LINE
8
Layer 1
10
51.000900
20
82.538500
11
46.500900
21
82.538500
0
LINE
8
Layer 1
10
46.500900
20
82.538500
11
46.500900
21
67.591200
0
LINE
8
Layer 1
10
46.500900
20
67.591200
11
51.000900
21
67.591200
0
LINE
8
Layer 1
10
51.000900
20
67.591200
11
51.000900
21
52.643800
0
LINE
8
Layer 1
10
51.000900
20
52.643800
11
46.500900
21
52.643800
0
LINE
8
Layer 1
10
46.500900
20
52.643800
11
46.500900
21
37.696400
0
LINE
8
Layer 1
10
81.506300
20
276.854000
11
81.506300
21
261.906000
0
LINE
8
Layer 1
10
81.506300
20
261.906000
11
77.006400
21
261.906000
0
LINE
8
Layer 1
10
77.006400
20
261.906000
11
77.006400
21
246.959000
0
LINE
8
Layer 1
10
77.006400
20
246.959000
11
81.506300
21
246.959000
0
LINE
8
Layer 1
10
81.506300
20
246.959000
11
81.506300
21
232.012000
0
LINE
8
Layer 1
10
81.506300
20
232.012000
11
77.006400
21
232.012000
0
LINE
8
Layer 1
10
77.006400
20
232.012000
11
77.006400
21
217.064000
0
LINE
8
Layer 1
10
77.006400
20
217.064000
11
81.506300
21
217.064000
0
LINE
8
Layer 1
10
81.506300
20
217.064000
11
81.506300
21
202.117000
0
LINE
8
Layer 1
10
81.506300
20
202.117000
11
77.006400
21
202.117000
0
LINE
8
Layer 1
10
77.006400
20
202.117000
11
77.006400
21
187.169000
0
LINE
8
Layer 1
10
77.006400
20
187.169000
11
81.506300
21
187.169000
0
LINE
8
Layer 1
10
81.506300
20
187.169000
11
81.506300
21
172.222000
0
LINE
8
Layer 1
10
81.506300
20
172.222000
11
77.006400
21
172.222000
0
LINE
8
Layer 1
10
77.006400
20
172.222000
11
77.006400
21
157.275000
0
LINE
8
Layer 1
10
77.006400
20
157.275000
11
81.506300
21
157.275000
0
LINE
8
Layer 1
10
81.506300
20
157.275000
11
81.506300
21
142.327000
0
LINE
8
Layer 1
10
81.506300
20
142.327000
11
77.006400
21
142.327000
0
LINE
8
Layer 1
10
77.006400
20
142.327000
11
77.006400
21
127.380000
0
LINE
8
Layer 1
10
77.006400
20
127.380000
11
81.506300
21
127.380000
0
LINE
8
Layer 1
10
81.506300
20
127.380000
11
81.506300
21
112.433000
0
LINE
8
Layer 1
10
81.506300
20
112.433000
11
77.006400
21
112.433000
0
LINE
8
Layer 1
10
77.006400
20
112.433000
11
77.006400
21
97.485500
0
LINE
8
Layer 1
10
77.006400
20
97.485500
11
81.506300
21
97.485500
0
LINE
8
Layer 1
10
81.506300
20
97.485500
11
81.506300
21
82.538100
0
LINE
8
Layer 1
10
81.506300
20
82.538100
11
77.006400
21
82.538100
0
LINE
8
Layer 1
10
77.006400
20
82.538100
11
77.006400
21
67.590800
0
LINE
8
Layer 1
10
77.006400
20
67.590800
11
81.506300
21
67.590800
0
LINE
8
Layer 1
10
81.506300
20
67.590800
11
81.506300
21
52.643400
0
LINE
8
Layer 1
10
81.506300
20
52.643400
11
77.006400
21
52.643400
0
LINE
8
Layer 1
10
77.006400
20
52.643400
11
77.006400
21
37.696100
0
LINE
8
Layer 1
10
77.006400
20
37.696100
11
81.506300
21
37.696100
0
LINE
8
Layer 1
10
81.506300
20
37.696100
11
81.506300
21
22.748800
0
LINE
8
Layer 1
10
81.506300
20
22.748800
11
77.006400
21
22.748800
0
LINE
8
Layer 1
10
77.006400
20
22.748800
11
77.006400
21
7.801430
0
LINE
8
Layer 1
10
77.006400
20
7.801430
11
69.006400
21
7.801430
0
LINE
8
Layer 1
10
69.006400
20
7.801430
11
69.006400
21
22.748800
0
LINE
8
Layer 1
10
69.006400
20
22.748800
11
64.506400
21
22.748800
0
LINE
8
Layer 1
10
64.506400
20
22.748800
11
64.506400
21
37.696100
0
LINE
8
Layer 1
10
64.506400
20
37.696100
11
69.006400
21
37.696100
0
LINE
8
Layer 1
10
69.006400
20
37.696100
11
69.006400
21
52.643400
0
LINE
8
Layer 1
10
69.006400
20
52.643400
11
64.506400
21
52.643400
0
LINE
8
Layer 1
10
64.506400
20
52.643400
11
64.506400
21
67.590800
0
LINE
8
Layer 1
10
64.506400
20
67.590800
11
69.006400
21
67.590800
0
LINE
8
Layer 1
10
69.006400
20
67.590800
11
69.006400
21
82.538100
0
LINE
8
Layer 1
10
69.006400
20
82.538100
11
64.506400
21
82.538100
0
LINE
8
Layer 1
10
64.506400
20
82.538100
11
64.506400
21
97.485500
0
LINE
8
Layer 1
10
64.506400
20
97.485500
11
69.006400
21
97.485500
0
LINE
8
Layer 1
10
69.006400
20
97.485500
11
69.006400
21
112.433000
0
LINE
8
Layer 1
10
69.006400
20
112.433000
11
64.506400
21
112.433000
0
LINE
8
Layer 1
10
64.506400
20
112.433000
11
64.506400
21
127.380000
0
LINE
8
Layer 1
10
64.506400
20
127.380000
11
69.006400
21
127.380000
0
LINE
8
Layer 1
10
69.006400
20
127.380000
11
69.006400
21
142.327000
0
LINE
8
Layer 1
10
69.006400
20
142.327000
11
64.506400
21
142.327000
0
LINE
8
Layer 1
10
64.506400
20
142.327000
11
64.506400
21
157.275000
0
LINE
8
Layer 1
10
64.506400
20
157.275000
11
69.006400
21
157.275000
0
LINE
8
Layer 1
10
69.006400
20
157.275000
11
69.006400
21
172.222000
0
LINE
8
Layer 1
10
69.006400
20
172.222000
11
64.506400
21
172.222000
0
LINE
8
Layer 1
10
64.506400
20
172.222000
11
64.506400
21
187.169000
0
LINE
8
Layer 1
10
64.506400
20
187.169000
11
69.006400
21
187.169000
0
LINE
8
Layer 1
10
69.006400
20
187.169000
11
69.006400
21
202.117000
0
LINE
8
Layer 1
10
69.006400
20
202.117000
11
64.506400
21
202.117000
0
LINE
8
Layer 1
10
64.506400
20
202.117000
11
64.506400
21
217.064000
0
LINE
8
Layer 1
10
64.506400
20
217.064000
11
69.006400
21
217.064000
0
LINE
8
Layer 1
10
69.006400
20
217.064000
11
69.006400
21
232.012000
0
LINE
8
Layer 1
10
69.006400
20
232.012000
11
64.506400
21
232.012000
0
LINE
8
Layer 1
10
64.506400
20
232.012000
11
64.506400
21
246.959000
0
LINE
8
Layer 1
10
64.506400
20
246.959000
11
69.006400
21
246.959000
0
LINE
8
Layer 1
10
69.006400
20
246.959000
11
69.006400
21
261.906000
0
LINE
8
Layer 1
10
69.006400
20
261.906000
11
64.506400
21
261.906000
0
LINE
8
Layer 1
10
64.506400
20
261.906000
11
64.506400
21
276.854000
0
LINE
8
Layer 1
10
64.506400
20
276.854000
11
69.006400
21
276.854000
0
LINE
8
Layer 1
10
69.006400
20
276.854000
11
69.006400
21
291.801000
0
LINE
8
Layer 1
10
69.006400
20
291.801000
11
77.006400
21
291.801000
0
LINE
8
Layer 1
10
77.006400
20
291.801000
11
77.006400
21
276.854000
0
LINE
8
Layer 1
10
77.006400
20
276.854000
11
81.506300
21
276.854000
0
LINE
8
Layer 1
10
86.667700
20
276.854000
11
86.667700
21
261.906000
0
LINE
8
Layer 1
10
86.667700
20
261.906000
11
82.167800
21
261.906000
0
LINE
8
Layer 1
10
82.167800
20
261.906000
11
82.167800
21
246.959000
0
LINE
8
Layer 1
10
82.167800
20
246.959000
11
86.667700
21
246.959000
0
LINE
8
Layer 1
10
86.667700
20
246.959000
11
86.667700
21
232.012000
0
LINE
8
Layer 1
10
86.667700
20
232.012000
11
82.167800
21
232.012000
0
LINE
8
Layer 1
10
82.167800
20
232.012000
11
82.167800
21
217.064000
0
LINE
8
Layer 1
10
82.167800
20
217.064000
11
86.667700
21
217.064000
0
LINE
8
Layer 1
10
86.667700
20
217.064000
11
86.667700
21
202.117000
0
LINE
8
Layer 1
10
86.667700
20
202.117000
11
82.167800
21
202.117000
0
LINE
8
Layer 1
10
82.167800
20
202.117000
11
82.167800
21
187.170000
0
LINE
8
Layer 1
10
82.167800
20
187.170000
11
86.667700
21
187.170000
0
LINE
8
Layer 1
10
86.667700
20
187.170000
11
86.667700
21
172.222000
0
LINE
8
Layer 1
10
86.667700
20
172.222000
11
82.167800
21
172.222000
0
LINE
8
Layer 1
10
82.167800
20
172.222000
11
82.167800
21
157.275000
0
LINE
8
Layer 1
10
82.167800
20
157.275000
11
86.667700
21
157.275000
0
LINE
8
Layer 1
10
86.667700
20
157.275000
11
86.667700
21
142.328000
0
LINE
8
Layer 1
10
86.667700
20
142.328000
11
82.167800
21
142.328000
0
LINE
8
Layer 1
10
82.167800
20
142.328000
11
82.167800
21
127.380000
0
LINE
8
Layer 1
10
82.167800
20
127.380000
11
86.667700
21
127.380000
0
LINE
8
Layer 1
10
86.667700
20
127.380000
11
86.667700
21
112.433000
0
LINE
8
Layer 1
10
86.667700
20
112.433000
11
82.167800
21
112.433000
0
LINE
8
Layer 1
10
82.167800
20
112.433000
11
82.167800
21
97.485700
0
LINE
8
Layer 1
10
82.167800
20
97.485700
11
86.667700
21
97.485700
0
LINE
8
Layer 1
10
86.667700
20
97.485700
11
86.667700
21
82.538400
0
LINE
8
Layer 1
10
86.667700
20
82.538400
11
82.167800
21
82.538400
0
LINE
8
Layer 1
10
82.167800
20
82.538400
11
82.167800
21
67.591100
0
LINE
8
Layer 1
10
82.167800
20
67.591100
11
86.667700
21
67.591100
0
LINE
8
Layer 1
10
86.667700
20
67.591100
11
86.667700
21
52.643700
0
LINE
8
Layer 1
10
86.667700
20
52.643700
11
82.167800
21
52.643700
0
LINE
8
Layer 1
10
82.167800
20
52.643700
11
82.167800
21
37.696400
0
LINE
8
Layer 1
10
82.167800
20
37.696400
11
86.667700
21
37.696400
0
LINE
8
Layer 1
10
86.667700
20
37.696400
11
86.667700
21
22.749100
0
LINE
8
Layer 1
10
86.667700
20
22.749100
11
82.167800
21
22.749100
0
LINE
8
Layer 1
10
82.167800
20
22.749100
11
82.167800
21
7.801750
0
LINE
8
Layer 1
10
82.167800
20
7.801750
11
99.167700
21
7.801750
0
LINE
8
Layer 1
10
99.167700
20
7.801750
11
99.167700
21
22.749100
0
LINE
8
Layer 1
10
99.167700
20
22.749100
11
94.667700
21
22.749100
0
LINE
8
Layer 1
10
94.667700
20
22.749100
11
94.667700
21
37.696400
0
LINE
8
Layer 1
10
94.667700
20
37.696400
11
99.167700
21
37.696400
0
LINE
8
Layer 1
10
99.167700
20
37.696400
11
99.167700
21
52.643700
0
LINE
8
Layer 1
10
99.167700
20
52.643700
11
94.667700
21
52.643700
0
LINE
8
Layer 1
10
94.667700
20
52.643700
11
94.667700
21
67.591000
0
LINE
8
Layer 1
10
94.667700
20
67.591000
11
99.167700
21
67.591000
0
LINE
8
Layer 1
10
99.167700
20
67.591000
11
99.167700
21
82.538400
0
LINE
8
Layer 1
10
99.167700
20
82.538400
11
94.667700
21
82.538400
0
LINE
8
Layer 1
10
94.667700
20
82.538400
11
94.667700
21
97.485700
0
LINE
8
Layer 1
10
94.667700
20
97.485700
11
99.167700
21
97.485700
0
LINE
8
Layer 1
10
99.167700
20
97.485700
11
99.167700
21
112.433000
0
LINE
8
Layer 1
10
99.167700
20
112.433000
11
94.667700
21
112.433000
0
LINE
8
Layer 1
10
94.667700
20
112.433000
11
94.667700
21
127.380000
0
LINE
8
Layer 1
10
94.667700
20
127.380000
11
99.167700
21
127.380000
0
LINE
8
Layer 1
10
99.167700
20
127.380000
11
99.167700
21
142.328000
0
LINE
8
Layer 1
10
99.167700
20
142.328000
11
94.667700
21
142.328000
0
LINE
8
Layer 1
10
94.667700
20
142.328000
11
94.667700
21
157.275000
0
LINE
8
Layer 1
10
94.667700
20
157.275000
11
99.167700
21
157.275000
0
LINE
8
Layer 1
10
99.167700
20
157.275000
11
99.167700
21
172.222000
0
LINE
8
Layer 1
10
99.167700
20
172.222000
11
94.667700
21
172.222000
0
LINE
8
Layer 1
10
94.667700
20
172.222000
11
94.667700
21
187.170000
0
LINE
8
Layer 1
10
94.667700
20
187.170000
11
99.167700
21
187.170000
0
LINE
8
Layer 1
10
99.167700
20
187.170000
11
99.167700
21
202.117000
0
LINE
8
Layer 1
10
99.167700
20
202.117000
11
94.667700
21
202.117000
0
LINE
8
Layer 1
10
94.667700
20
202.117000
11
94.667700
21
217.064000
0
LINE
8
Layer 1
10
94.667700
20
217.064000
11
99.167700
21
217.064000
0
LINE
8
Layer 1
10
99.167700
20
217.064000
11
99.167700
21
232.012000
0
LINE
8
Layer 1
10
99.167700
20
232.012000
11
94.667700
21
232.012000
0
LINE
8
Layer 1
10
94.667700
20
232.012000
11
94.667700
21
246.959000
0
LINE
8
Layer 1
10
94.667700
20
246.959000
11
99.167700
21
246.959000
0
LINE
8
Layer 1
10
99.167700
20
246.959000
11
99.167700
21
261.906000
0
LINE
8
Layer 1
10
99.167700
20
261.906000
11
94.667700
21
261.906000
0
LINE
8
Layer 1
10
94.667700
20
261.906000
11
94.667700
21
276.854000
0
LINE
8
Layer 1
10
94.667700
20
276.854000
11
99.167700
21
276.854000
0
LINE
8
Layer 1
10
99.167700
20
276.854000
11
99.167700
21
291.801000
0
LINE
8
Layer 1
10
99.167700
20
291.801000
11
82.167800
21
291.801000
0
LINE
8
Layer 1
10
82.167800
20
291.801000
11
82.167800
21
276.854000
0
LINE
8
Layer 1
10
82.167800
20
276.854000
11
86.667700
21
276.854000
0
LINE
8
Layer 1
10
103.506000
20
36.222300
11
108.006000
21
36.222300
0
LINE
8
Layer 1
10
108.006000
20
36.222300
11
108.006000
21
22.011800
0
LINE
8
Layer 1
10
108.006000
20
22.011800
11
103.506000
21
22.011800
0
LINE
8
Layer 1
10
103.506000
20
22.011800
11
103.506000
21
7.801230
0
LINE
8
Layer 1
10
103.506000
20
7.801230
11
120.506000
21
7.801230
0
LINE
8
Layer 1
10
120.506000
20
7.801230
11
120.506000
21
22.011800
0
LINE
8
Layer 1
10
120.506000
20
22.011800
11
116.006000
21
22.011800
0
LINE
8
Layer 1
10
116.006000
20
22.011800
11
116.006000
21
36.222300
0
LINE
8
Layer 1
10
116.006000
20
36.222300
11
120.506000
21
36.222300
0
LINE
8
Layer 1
10
120.506000
20
36.222300
11
120.506000
21
50.432800
0
LINE
8
Layer 1
10
120.506000
20
50.432800
11
116.006000
21
50.432800
0
LINE
8
Layer 1
10
116.006000
20
50.432800
11
116.006000
21
64.643300
0
LINE
8
Layer 1
10
116.006000
20
64.643300
11
120.506000
21
64.643300
0
LINE
8
Layer 1
10
120.506000
20
64.643300
11
120.506000
21
78.853900
0
LINE
8
Layer 1
10
120.506000
20
78.853900
11
116.006000
21
78.853900
0
LINE
8
Layer 1
10
116.006000
20
78.853900
11
116.006000
21
93.064400
0
LINE
8
Layer 1
10
116.006000
20
93.064400
11
120.506000
21
93.064400
0
LINE
8
Layer 1
10
120.506000
20
93.064400
11
120.506000
21
107.275000
0
LINE
8
Layer 1
10
120.506000
20
107.275000
11
116.006000
21
107.275000
0
LINE
8
Layer 1
10
116.006000
20
107.275000
11
116.006000
21
121.485000
0
LINE
8
Layer 1
10
116.006000
20
121.485000
11
120.506000
21
121.485000
0
LINE
8
Layer 1
10
120.506000
20
121.485000
11
120.506000
21
135.696000
0
LINE
8
Layer 1
10
120.506000
20
135.696000
11
116.006000
21
135.696000
0
LINE
8
Layer 1
10
116.006000
20
135.696000
11
116.006000
21
149.906000
0
LINE
8
Layer 1
10
116.006000
20
149.906000
11
120.506000
21
149.906000
0
LINE
8
Layer 1
10
120.506000
20
149.906000
11
120.506000
21
164.117000
0
LINE
8
Layer 1
10
120.506000
20
164.117000
11
116.006000
21
164.117000
0
LINE
8
Layer 1
10
116.006000
20
164.117000
11
116.006000
21
178.328000
0
LINE
8
Layer 1
10
116.006000
20
178.328000
11
120.506000
21
178.328000
0
LINE
8
Layer 1
10
120.506000
20
178.328000
11
120.506000
21
192.538000
0
LINE
8
Layer 1
10
120.506000
20
192.538000
11
116.006000
21
192.538000
0
LINE
8
Layer 1
10
116.006000
20
192.538000
11
116.006000
21
206.749000
0
LINE
8
Layer 1
10
116.006000
20
206.749000
11
120.506000
21
206.749000
0
LINE
8
Layer 1
10
120.506000
20
206.749000
11
120.506000
21
220.959000
0
LINE
8
Layer 1
10
120.506000
20
220.959000
11
116.006000
21
220.959000
0
LINE
8
Layer 1
10
116.006000
20
220.959000
11
116.006000
21
235.170000
0
LINE
8
Layer 1
10
116.006000
20
235.170000
11
120.506000
21
235.170000
0
LINE
8
Layer 1
10
120.506000
20
235.170000
11
120.506000
21
249.380000
0
LINE
8
Layer 1
10
120.506000
20
249.380000
11
116.006000
21
249.380000
0
LINE
8
Layer 1
10
116.006000
20
249.380000
11
116.006000
21
263.591000
0
LINE
8
Layer 1
10
116.006000
20
263.591000
11
120.506000
21
263.591000
0
LINE
8
Layer 1
10
120.506000
20
263.591000
11
120.506000
21
277.801000
0
LINE
8
Layer 1
10
120.506000
20
277.801000
11
103.506000
21
277.801000
0
LINE
8
Layer 1
10
103.506000
20
277.801000
11
103.506000
21
263.591000
0
LINE
8
Layer 1
10
103.506000
20
263.591000
11
108.006000
21
263.591000
0
LINE
8
Layer 1
10
108.006000
20
263.591000
11
108.006000
21
249.380000
0
LINE
8
Layer 1
10
108.006000
20
249.380000
11
103.506000
21
249.380000
0
LINE
8
Layer 1
10
103.506000
20
249.380000
11
103.506000
21
235.170000
0
LINE
8
Layer 1
10
103.506000
20
235.170000
11
108.006000
21
235.170000
0
LINE
8
Layer 1
10
108.006000
20
235.170000
11
108.006000
21
220.959000
0
LINE
8
Layer 1
10
108.006000
20
220.959000
11
103.506000
21
220.959000
0
LINE
8
Layer 1
10
103.506000
20
220.959000
11
103.506000
21
206.749000
0
LINE
8
Layer 1
10
103.506000
20
206.749000
11
108.006000
21
206.749000
0
LINE
8
Layer 1
10
108.006000
20
206.749000
11
108.006000
21
192.538000
0
LINE
8
Layer 1
10
108.006000
20
192.538000
11
103.506000
21
192.538000
0
LINE
8
Layer 1
10
103.506000
20
192.538000
11
103.506000
21
178.328000
0
LINE
8
Layer 1
10
103.506000
20
178.328000
11
108.006000
21
178.328000
0
LINE
8
Layer 1
10
108.006000
20
178.328000
11
108.006000
21
164.117000
0
LINE
8
Layer 1
10
108.006000
20
164.117000
11
103.506000
21
164.117000
0
LINE
8
Layer 1
10
103.506000
20
164.117000
11
103.506000
21
149.906000
0
LINE
8
Layer 1
10
103.506000
20
149.906000
11
108.006000
21
149.906000
0
LINE
8
Layer 1
10
108.006000
20
149.906000
11
108.006000
21
135.696000
0
LINE
8
Layer 1
10
108.006000
20
135.696000
11
103.506000
21
135.696000
0
LINE
8
Layer 1
10
103.506000
20
135.696000
11
103.506000
21
121.485000
0
LINE
8
Layer 1
10
103.506000
20
121.485000
11
108.006000
21
121.485000
0
LINE
8
Layer 1
10
108.006000
20
121.485000
11
108.006000
21
107.275000
0
LINE
8
Layer 1
10
108.006000
20
107.275000
11
103.506000
21
107.275000
0
LINE
8
Layer 1
10
103.506000
20
107.275000
11
103.506000
21
93.064400
0
LINE
8
Layer 1
10
103.506000
20
93.064400
11
108.006000
21
93.064400
0
LINE
8
Layer 1
10
108.006000
20
93.064400
11
108.006000
21
78.853900
0
LINE
8
Layer 1
10
108.006000
20
78.853900
11
103.506000
21
78.853900
0
LINE
8
Layer 1
10
103.506000
20
78.853900
11
103.506000
21
64.643300
0
LINE
8
Layer 1
10
103.506000
20
64.643300
11
108.006000
21
64.643300
0
LINE
8
Layer 1
10
108.006000
20
64.643300
11
108.006000
21
50.432800
0
LINE
8
Layer 1
10
108.006000
20
50.432800
11
103.506000
21
50.432800
0
LINE
8
Layer 1
10
103.506000
20
50.432800
11
103.506000
21
36.222300
0
LINE
8
Layer 1
10
121.506000
20
249.380000
11
121.506000
21
235.169000
0
LINE
8
Layer 1
10
121.506000
20
235.169000
11
126.006000
21
235.169000
0
LINE
8
Layer 1
10
126.006000
20
235.169000
11
126.006000
21
220.959000
0
LINE
8
Layer 1
10
126.006000
20
220.959000
11
121.506000
21
220.959000
0
LINE
8
Layer 1
10
121.506000
20
220.959000
11
121.506000
21
206.748000
0
LINE
8
Layer 1
10
121.506000
20
206.748000
11
126.006000
21
206.748000
0
LINE
8
Layer 1
10
126.006000
20
206.748000
11
126.006000
21
192.538000
0
LINE
8
Layer 1
10
126.006000
20
192.538000
11
121.506000
21
192.538000
0
LINE
8
Layer 1
10
121.506000
20
192.538000
11
121.506000
21
178.327000
0
LINE
8
Layer 1
10
121.506000
20
178.327000
11
126.006000
21
178.327000
0
LINE
8
Layer 1
10
126.006000
20
178.327000
11
126.006000
21
164.117000
0
LINE
8
Layer 1
10
126.006000
20
164.117000
11
121.506000
21
164.117000
0
LINE
8
Layer 1
10
121.506000
20
164.117000
11
121.506000
21
149.906000
0
LINE
8
Layer 1
10
121.506000
20
149.906000
11
126.006000
21
149.906000
0
LINE
8
Layer 1
10
126.006000
20
149.906000
11
126.006000
21
135.696000
0
LINE
8
Layer 1
10
126.006000
20
135.696000
11
121.506000
21
135.696000
0
LINE
8
Layer 1
10
121.506000
20
135.696000
11
121.506000
21
121.485000
0
LINE
8
Layer 1
10
121.506000
20
121.485000
11
126.006000
21
121.485000
0
LINE
8
Layer 1
10
126.006000
20
121.485000
11
126.006000
21
107.275000
0
LINE
8
Layer 1
10
126.006000
20
107.275000
11
121.506000
21
107.275000
0
LINE
8
Layer 1
10
121.506000
20
107.275000
11
121.506000
21
93.064300
0
LINE
8
Layer 1
10
121.506000
20
93.064300
11
126.006000
21
93.064300
0
LINE
8
Layer 1
10
126.006000
20
93.064300
11
126.006000
21
78.853900
0
LINE
8
Layer 1
10
126.006000
20
78.853900
11
121.506000
21
78.853900
0
LINE
8
Layer 1
10
121.506000
20
78.853900
11
121.506000
21
64.643400
0
LINE
8
Layer 1
10
121.506000
20
64.643400
11
126.006000
21
64.643400
0
LINE
8
Layer 1
10
126.006000
20
64.643400
11
126.006000
21
50.432900
0
LINE
8
Layer 1
10
126.006000
20
50.432900
11
121.506000
21
50.432900
0
LINE
8
Layer 1
10
121.506000
20
50.432900
11
121.506000
21
36.222400
0
LINE
8
Layer 1
10
121.506000
20
36.222400
11
126.006000
21
36.222400
0
LINE
8
Layer 1
10
126.006000
20
36.222400
11
126.006000
21
22.011900
0
LINE
8
Layer 1
10
126.006000
20
22.011900
11
121.506000
21
22.011900
0
LINE
8
Layer 1
10
121.506000
20
22.011900
11
121.506000
21
7.801440
0
LINE
8
Layer 1
10
121.506000
20
7.801440
11
134.006000
21
7.801440
0
LINE
8
Layer 1
10
134.006000
20
7.801440
11
134.006000
21
22.011900
0
LINE
8
Layer 1
10
134.006000
20
22.011900
11
138.506000
21
22.011900
0
LINE
8
Layer 1
10
138.506000
20
22.011900
11
138.506000
21
36.222400
0
LINE
8
Layer 1
10
138.506000
20
36.222400
11
134.006000
21
36.222400
0
LINE
8
Layer 1
10
134.006000
20
36.222400
11
134.006000
21
50.432900
0
LINE
8
Layer 1
10
134.006000
20
50.432900
11
138.506000
21
50.432900
0
LINE
8
Layer 1
10
138.506000
20
50.432900
11
138.506000
21
64.643400
0
LINE
8
Layer 1
10
138.506000
20
64.643400
11
134.006000
21
64.643400
0
LINE
8
Layer 1
10
134.006000
20
64.643400
11
134.006000
21
78.853900
0
LINE
8
Layer 1
10
134.006000
20
78.853900
11
138.506000
21
78.853900
0
LINE
8
Layer 1
10
138.506000
20
78.853900
11
138.506000
21
93.064300
0
LINE
8
Layer 1
10
138.506000
20
93.064300
11
134.006000
21
93.064300
0
LINE
8
Layer 1
10
134.006000
20
93.064300
11
134.006000
21
107.275000
0
LINE
8
Layer 1
10
134.006000
20
107.275000
11
138.506000
21
107.275000
0
LINE
8
Layer 1
10
138.506000
20
107.275000
11
138.506000
21
121.485000
0
LINE
8
Layer 1
10
138.506000
20
121.485000
11
134.006000
21
121.485000
0
LINE
8
Layer 1
10
134.006000
20
121.485000
11
134.006000
21
135.696000
0
LINE
8
Layer 1
10
134.006000
20
135.696000
11
138.506000
21
135.696000
0
LINE
8
Layer 1
10
138.506000
20
135.696000
11
138.506000
21
149.906000
0
LINE
8
Layer 1
10
138.506000
20
149.906000
11
134.006000
21
149.906000
0
LINE
8
Layer 1
10
134.006000
20
149.906000
11
134.006000
21
164.117000
0
LINE
8
Layer 1
10
134.006000
20
164.117000
11
138.506000
21
164.117000
0
LINE
8
Layer 1
10
138.506000
20
164.117000
11
138.506000
21
178.327000
0
LINE
8
Layer 1
10
138.506000
20
178.327000
11
134.006000
21
178.327000
0
LINE
8
Layer 1
10
134.006000
20
178.327000
11
134.006000
21
192.538000
0
LINE
8
Layer 1
10
134.006000
20
192.538000
11
138.506000
21
192.538000
0
LINE
8
Layer 1
10
138.506000
20
192.538000
11
138.506000
21
206.748000
0
LINE
8
Layer 1
10
138.506000
20
206.748000
11
134.006000
21
206.748000
0
LINE
8
Layer 1
10
134.006000
20
206.748000
11
134.006000
21
220.959000
0
LINE
8
Layer 1
10
134.006000
20
220.959000
11
138.506000
21
220.959000
0
LINE
8
Layer 1
10
138.506000
20
220.959000
11
138.506000
21
235.169000
0
LINE
8
Layer 1
10
138.506000
20
235.169000
11
134.006000
21
235.169000
0
LINE
8
Layer 1
10
134.006000
20
235.169000
11
134.006000
21
249.380000
0
LINE
8
Layer 1
10
134.006000
20
249.380000
11
138.506000
21
249.380000
0
LINE
8
Layer 1
10
138.506000
20
249.380000
11
138.506000
21
263.590000
0
LINE
8
Layer 1
10
138.506000
20
263.590000
11
134.006000
21
263.590000
0
LINE
8
Layer 1
10
134.006000
20
263.590000
11
134.006000
21
277.801000
0
LINE
8
Layer 1
10
134.006000
20
277.801000
11
121.506000
21
277.801000
0
LINE
8
Layer 1
10
121.506000
20
277.801000
11
121.506000
21
263.590000
0
LINE
8
Layer 1
10
121.506000
20
263.590000
11
126.006000
21
263.590000
0
LINE
8
Layer 1
10
126.006000
20
263.590000
11
126.006000
21
249.380000
0
LINE
8
Layer 1
10
126.006000
20
249.380000
11
121.506000
21
249.380000
0
LINE
8
Layer 1
10
152.006000
20
249.380000
11
152.006000
21
235.170000
0
LINE
8
Layer 1
10
152.006000
20
235.170000
11
156.506000
21
235.170000
0
LINE
8
Layer 1
10
156.506000
20
235.170000
11
156.506000
21
220.959000
0
LINE
8
Layer 1
10
156.506000
20
220.959000
11
152.006000
21
220.959000
0
LINE
8
Layer 1
10
152.006000
20
220.959000
11
152.006000
21
206.749000
0
LINE
8
Layer 1
10
152.006000
20
206.749000
11
156.506000
21
206.749000
0
LINE
8
Layer 1
10
156.506000
20
206.749000
11
156.506000
21
192.538000
0
LINE
8
Layer 1
10
156.506000
20
192.538000
11
152.006000
21
192.538000
0
LINE
8
Layer 1
10
152.006000
20
192.538000
11
152.006000
21
178.328000
0
LINE
8
Layer 1
10
152.006000
20
178.328000
11
156.506000
21
178.328000
0
LINE
8
Layer 1
10
156.506000
20
178.328000
11
156.506000
21
164.117000
0
LINE
8
Layer 1
10
156.506000
20
164.117000
11
152.006000
21
164.117000
0
LINE
8
Layer 1
10
152.006000
20
164.117000
11
152.006000
21
149.907000
0
LINE
8
Layer 1
10
152.006000
20
149.907000
11
156.506000
21
149.907000
0
LINE
8
Layer 1
10
156.506000
20
149.907000
11
156.506000
21
135.696000
0
LINE
8
Layer 1
10
156.506000
20
135.696000
11
152.006000
21
135.696000
0
LINE
8
Layer 1
10
152.006000
20
135.696000
11
152.006000
21
121.486000
0
LINE
8
Layer 1
10
152.006000
20
121.486000
11
156.506000
21
121.486000
0
LINE
8
Layer 1
10
156.506000
20
121.486000
11
156.506000
21
107.275000
0
LINE
8
Layer 1
10
156.506000
20
107.275000
11
152.006000
21
107.275000
0
LINE
8
Layer 1
10
152.006000
20
107.275000
11
152.006000
21
93.064700
0
LINE
8
Layer 1
10
152.006000
20
93.064700
11
156.506000
21
93.064700
0
LINE
8
Layer 1
10
156.506000
20
93.064700
11
156.506000
21
78.854200
0
LINE
8
Layer 1
10
156.506000
20
78.854200
11
152.006000
21
78.854200
0
LINE
8
Layer 1
10
152.006000
20
78.854200
11
152.006000
21
64.643600
0
LINE
8
Layer 1
10
152.006000
20
64.643600
11
156.506000
21
64.643600
0
LINE
8
Layer 1
10
156.506000
20
64.643600
11
156.506000
21
50.433100
0
LINE
8
Layer 1
10
156.506000
20
50.433100
11
152.006000
21
50.433100
0
LINE
8
Layer 1
10
152.006000
20
50.433100
11
152.006000
21
36.222600
0
LINE
8
Layer 1
10
152.006000
20
36.222600
11
156.506000
21
36.222600
0
LINE
8
Layer 1
10
156.506000
20
36.222600
11
156.506000
21
22.012100
0
LINE
8
Layer 1
10
156.506000
20
22.012100
11
152.006000
21
22.012100
0
LINE
8
Layer 1
10
152.006000
20
22.012100
11
152.006000
21
7.801530
0
LINE
8
Layer 1
10
152.006000
20
7.801530
11
144.006000
21
7.801530
0
LINE
8
Layer 1
10
144.006000
20
7.801530
11
144.006000
21
22.012100
0
LINE
8
Layer 1
10
144.006000
20
22.012100
11
139.506000
21
22.012100
0
LINE
8
Layer 1
10
139.506000
20
22.012100
11
139.506000
21
36.222600
0
LINE
8
Layer 1
10
139.506000
20
36.222600
11
144.006000
21
36.222600
0
LINE
8
Layer 1
10
144.006000
20
36.222600
11
144.006000
21
50.433100
0
LINE
8
Layer 1
10
144.006000
20
50.433100
11
139.506000
21
50.433100
0
LINE
8
Layer 1
10
139.506000
20
50.433100
11
139.506000
21
64.643600
0
LINE
8
Layer 1
10
139.506000
20
64.643600
11
144.006000
21
64.643600
0
LINE
8
Layer 1
10
144.006000
20
64.643600
11
144.006000
21
78.854200
0
LINE
8
Layer 1
10
144.006000
20
78.854200
11
139.506000
21
78.854200
0
LINE
8
Layer 1
10
139.506000
20
78.854200
11
139.506000
21
93.064700
0
LINE
8
Layer 1
10
139.506000
20
93.064700
11
144.006000
21
93.064700
0
LINE
8
Layer 1
10
144.006000
20
93.064700
11
144.006000
21
107.275000
0
LINE
8
Layer 1
10
144.006000
20
107.275000
11
139.506000
21
107.275000
0
LINE
8
Layer 1
10
139.506000
20
107.275000
11
139.506000
21
121.486000
0
LINE
8
Layer 1
10
139.506000
20
121.486000
11
144.006000
21
121.486000
0
LINE
8
Layer 1
10
144.006000
20
121.486000
11
144.006000
21
135.696000
0
LINE
8
Layer 1
10
144.006000
20
135.696000
11
139.506000
21
135.696000
0
LINE
8
Layer 1
10
139.506000
20
135.696000
11
139.506000
21
149.907000
0
LINE
8
Layer 1
10
139.506000
20
149.907000
11
144.006000
21
149.907000
0
LINE
8
Layer 1
10
144.006000
20
149.907000
11
144.006000
21
164.117000
0
LINE
8
Layer 1
10
144.006000
20
164.117000
11
139.506000
21
164.117000
0
LINE
8
Layer 1
10
139.506000
20
164.117000
11
139.506000
21
178.328000
0
LINE
8
Layer 1
10
139.506000
20
178.328000
11
144.006000
21
178.328000
0
LINE
8
Layer 1
10
144.006000
20
178.328000
11
144.006000
21
192.538000
0
LINE
8
Layer 1
10
144.006000
20
192.538000
11
139.506000
21
192.538000
0
LINE
8
Layer 1
10
139.506000
20
192.538000
11
139.506000
21
206.749000
0
LINE
8
Layer 1
10
139.506000
20
206.749000
11
144.006000
21
206.749000
0
LINE
8
Layer 1
10
144.006000
20
206.749000
11
144.006000
21
220.959000
0
LINE
8
Layer 1
10
144.006000
20
220.959000
11
139.506000
21
220.959000
0
LINE
8
Layer 1
10
139.506000
20
220.959000
11
139.506000
21
235.170000
0
LINE
8
Layer 1
10
139.506000
20
235.170000
11
144.006000
21
235.170000
0
LINE
8
Layer 1
10
144.006000
20
235.170000
11
144.006000
21
249.380000
0
LINE
8
Layer 1
10
144.006000
20
249.380000
11
139.506000
21
249.380000
0
LINE
8
Layer 1
10
139.506000
20
249.380000
11
139.506000
21
263.591000
0
LINE
8
Layer 1
10
139.506000
20
263.591000
11
144.006000
21
263.591000
0
LINE
8
Layer 1
10
144.006000
20
263.591000
11
144.006000
21
277.802000
0
LINE
8
Layer 1
10
144.006000
20
277.802000
11
152.006000
21
277.802000
0
LINE
8
Layer 1
10
152.006000
20
277.802000
11
152.006000
21
263.591000
0
LINE
8
Layer 1
10
152.006000
20
263.591000
11
156.506000
21
263.591000
0
LINE
8
Layer 1
10
156.506000
20
263.591000
11
156.506000
21
249.380000
0
LINE
8
Layer 1
10
156.506000
20
249.380000
11
152.006000
21
249.380000
0
LINE
8
Layer 1
10
157.507000
20
235.170000
11
162.007000
21
235.170000
0
LINE
8
Layer 1
10
162.007000
20
235.170000
11
162.007000
21
249.380000
0
LINE
8
Layer 1
10
162.007000
20
249.380000
11
157.507000
21
249.380000
0
LINE
8
Layer 1
10
157.507000
20
249.380000
11
157.507000
21
263.591000
0
LINE
8
Layer 1
10
157.507000
20
263.591000
11
162.007000
21
263.591000
0
LINE
8
Layer 1
10
162.007000
20
263.591000
11
162.007000
21
277.801000
0
LINE
8
Layer 1
10
162.007000
20
277.801000
11
174.507000
21
277.801000
0
LINE
8
Layer 1
10
174.507000
20
277.801000
11
174.507000
21
263.591000
0
LINE
8
Layer 1
10
174.507000
20
263.591000
11
170.007000
21
263.591000
0
LINE
8
Layer 1
10
170.007000
20
263.591000
11
170.007000
21
249.380000
0
LINE
8
Layer 1
10
170.007000
20
249.380000
11
174.507000
21
249.380000
0
LINE
8
Layer 1
10
174.507000
20
249.380000
11
174.507000
21
235.170000
0
LINE
8
Layer 1
10
174.507000
20
235.170000
11
170.007000
21
235.170000
0
LINE
8
Layer 1
10
170.007000
20
235.170000
11
170.007000
21
220.959000
0
LINE
8
Layer 1
10
170.007000
20
220.959000
11
174.507000
21
220.959000
0
LINE
8
Layer 1
10
174.507000
20
220.959000
11
174.507000
21
206.749000
0
LINE
8
Layer 1
10
174.507000
20
206.749000
11
170.007000
21
206.749000
0
LINE
8
Layer 1
10
170.007000
20
206.749000
11
170.007000
21
192.538000
0
LINE
8
Layer 1
10
170.007000
20
192.538000
11
174.507000
21
192.538000
0
LINE
8
Layer 1
10
174.507000
20
192.538000
11
174.507000
21
178.328000
0
LINE
8
Layer 1
10
174.507000
20
178.328000
11
170.007000
21
178.328000
0
LINE
8
Layer 1
10
170.007000
20
178.328000
11
170.007000
21
164.117000
0
LINE
8
Layer 1
10
170.007000
20
164.117000
11
174.507000
21
164.117000
0
LINE
8
Layer 1
10
174.507000
20
164.117000
11
174.507000
21
149.906000
0
LINE
8
Layer 1
10
174.507000
20
149.906000
11
170.007000
21
149.906000
0
LINE
8
Layer 1
10
170.007000
20
149.906000
11
170.007000
21
135.696000
0
LINE
8
Layer 1
10
170.007000
20
135.696000
11
174.507000
21
135.696000
0
LINE
8
Layer 1
10
174.507000
20
135.696000
11
174.507000
21
121.485000
0
LINE
8
Layer 1
10
174.507000
20
121.485000
11
170.007000
21
121.485000
0
LINE
8
Layer 1
10
170.007000
20
121.485000
11
170.007000
21
107.275000
0
LINE
8
Layer 1
10
170.007000
20
107.275000
11
174.507000
21
107.275000
0
LINE
8
Layer 1
10
174.507000
20
107.275000
11
174.507000
21
93.064400
0
LINE
8
Layer 1
10
174.507000
20
93.064400
11
170.007000
21
93.064400
0
LINE
8
Layer 1
10
170.007000
20
93.064400
11
170.007000
21
78.853900
0
LINE
8
Layer 1
10
170.007000
20
78.853900
11
174.507000
21
78.853900
0
LINE
8
Layer 1
10
174.507000
20
78.853900
11
174.507000
21
64.643300
0
LINE
8
Layer 1
10
174.507000
20
64.643300
11
170.007000
21
64.643300
0
LINE
8
Layer 1
10
170.007000
20
64.643300
11
170.007000
21
50.432800
0
LINE
8
Layer 1
10
170.007000
20
50.432800
11
174.507000
21
50.432800
0
LINE
8
Layer 1
10
174.507000
20
50.432800
11
174.507000
21
36.222300
0
LINE
8
Layer 1
10
174.507000
20
36.222300
11
170.007000
21
36.222300
0
LINE
8
Layer 1
10
170.007000
20
36.222300
11
170.007000
21
22.011700
0
LINE
8
Layer 1
10
170.007000
20
22.011700
11
174.507000
21
22.011700
0
LINE
8
Layer 1
10
174.507000
20
22.011700
11
174.507000
21
7.801230
0
LINE
8
Layer 1
10
174.507000
20
7.801230
11
162.007000
21
7.801230
0
LINE
8
Layer 1
10
162.007000
20
7.801230
11
162.007000
21
22.011700
0
LINE
8
Layer 1
10
162.007000
20
22.011700
11
157.507000
21
22.011700
0
LINE
8
Layer 1
10
157.507000
20
22.011700
11
157.507000
21
36.222300
0
LINE
8
Layer 1
10
157.507000
20
36.222300
11
162.007000
21
36.222300
0
LINE
8
Layer 1
10
162.007000
20
36.222300
11
162.007000
21
50.432800
0
LINE
8
Layer 1
10
162.007000
20
50.432800
11
157.507000
21
50.432800
0
LINE
8
Layer 1
10
157.507000
20
50.432800
11
157.507000
21
64.643300
0
LINE
8
Layer 1
10
157.507000
20
64.643300
11
162.007000
21
64.643300
0
LINE
8
Layer 1
10
162.007000
20
64.643300
11
162.007000
21
78.853900
0
LINE
8
Layer 1
10
162.007000
20
78.853900
11
157.507000
21
78.853900
0
LINE
8
Layer 1
10
157.507000
20
78.853900
11
157.507000
21
93.064400
0
LINE
8
Layer 1
10
157.507000
20
93.064400
11
162.007000
21
93.064400
0
LINE
8
Layer 1
10
162.007000
20
93.064400
11
162.007000
21
107.275000
0
LINE
8
Layer 1
10
162.007000
20
107.275000
11
157.507000
21
107.275000
0
LINE
8
Layer 1
10
157.507000
20
107.275000
11
157.507000
21
121.485000
0
LINE
8
Layer 1
10
157.507000
20
121.485000
11
162.007000
21
121.485000
0
LINE
8
Layer 1
10
162.007000
20
121.485000
11
162.007000
21
135.696000
0
LINE
8
Layer 1
10
162.007000
20
135.696000
11
157.507000
21
135.696000
0
LINE
8
Layer 1
10
157.507000
20
135.696000
11
157.507000
21
149.906000
0
LINE
8
Layer 1
10
157.507000
20
149.906000
11
162.007000
21
149.906000
0
LINE
8
Layer 1
10
162.007000
20
149.906000
11
162.007000
21
164.117000
0
LINE
8
Layer 1
10
162.007000
20
164.117000
11
157.507000
21
164.117000
0
LINE
8
Layer 1
10
157.507000
20
164.117000
11
157.507000
21
178.328000
0
LINE
8
Layer 1
10
157.507000
20
178.328000
11
162.007000
21
178.328000
0
LINE
8
Layer 1
10
162.007000
20
178.328000
11
162.007000
21
192.538000
0
LINE
8
Layer 1
10
162.007000
20
192.538000
11
157.507000
21
192.538000
0
LINE
8
Layer 1
10
157.507000
20
192.538000
11
157.507000
21
206.749000
0
LINE
8
Layer 1
10
157.507000
20
206.749000
11
162.007000
21
206.749000
0
LINE
8
Layer 1
10
162.007000
20
206.749000
11
162.007000
21
220.959000
0
LINE
8
Layer 1
10
162.007000
20
220.959000
11
157.507000
21
220.959000
0
LINE
8
Layer 1
10
157.507000
20
220.959000
11
157.507000
21
235.170000
 0 
ENDSEC
 0 
EOF