<?xml version="1.0" encoding="UTF-8" standalone="no"?>
<svg
   width="1365.809mm"
   height="623.500mm"
   viewBox="-632.999878 -184.999939 1365.808838 623.499939"
   version="1.1"
   id="svg7769"
   sodipodi:docname="holders.svg"
   inkscape:version="1.2.1 (9c6d41e, 2022-07-14)"
   xmlns:inkscape="http://www.inkscape.org/namespaces/inkscape"
   xmlns:sodipodi="http://sodipodi.sourceforge.net/DTD/sodipodi-0.dtd"
   xmlns="http://www.w3.org/2000/svg"
   xmlns:svg="http://www.w3.org/2000/svg">
  <defs
     id="defs7773" />
  <sodipodi:namedview
     id="namedview7771"
     pagecolor="#ffffff"
     bordercolor="#000000"
     borderopacity="0.25"
     inkscape:showpageshadow="2"
     inkscape:pageopacity="0.0"
     inkscape:pagecheckerboard="0"
     inkscape:deskcolor="#d1d1d1"
     inkscape:document-units="mm"
     showgrid="false"
     inkscape:zoom="0.23943685"
     inkscape:cx="3364.1438"
     inkscape:cy="1179.8518"
     inkscape:window-width="2560"
     inkscape:window-height="1387"
     inkscape:window-x="0"
     inkscape:window-y="215"
     inkscape:window-maximized="1"
     inkscape:current-layer="svg7769" />
  <path
     style="fill:none;stroke:#ff8000;stroke-width:0.05mm"
     d="m -386.84561,258.04643 h 3.1937 v 4.5 l -4.49024,-10e-6 c -0.007,0.14711 -0.01,0.29436 -0.01,0.44161 v 10 c 0,5.52284 4.47715,10 10,10 h 22.25 v -5 h -17.25 v -20 h 17.25 v -5 h -22.25 c -3.59671,-1e-5 -6.91636,1.93152 -8.69371,5.05839"
     id="path7191" />
  <path
     style="fill:none;stroke:#ff8000;stroke-width:0.05mm"
     d="m -354.78396,258.40025 h 22.24999 v 20 h -22.24999 v 5 h 22.24999 c 5.52285,0 10,-4.47716 10,-10 v -10 c 0,-5.52285 -4.47716,-10 -10,-10 h -22.24999 z"
     id="path7193" />
  <path
     transform="matrix(0.38463,0.923071,0.923071,-0.38463,-627.144531,410.662842)"
     style="stroke:#ff0000;stroke-width:0.05mm;fill:none"
     d="M14.176098,11.475L7.176097,11.475L7.176097,6.975L14.176098,6.975"
     id="path7195" />
  <path
     transform="matrix(0.38463,0.923071,0.923071,-0.38463,-627.144531,410.662842)"
     style="stroke:#ff0000;stroke-width:0.05mm;fill:none"
     d="M14.176088,11.474994C20.750603,16.01062,24.676096,23.487743,24.676098,31.475004L24.676098,34.128529"
     id="path7197" />
  <path
     transform="matrix(0.38463,0.923071,0.923071,-0.38463,-627.144531,410.662842)"
     style="stroke:#ff0000;stroke-width:0.05mm;fill:none"
     d="M29.176098,34.072689L29.176098,31.475C29.759285,20.983179,23.78569,11.226316,14.176086,6.974996"
     id="path7199" />
  <path
     transform="matrix(0.927772,-0.373147,-0.373147,-0.927772,-627.557007,522.604004)"
     style="stroke:#ff0000;stroke-width:0.05mm;fill:none"
     d="M76.585289,79.451279L76.585289,74.950928"
     id="path7201" />
  <path
     transform="matrix(0.38463,0.923071,0.923071,-0.38463,-627.144531,373.662842)"
     style="stroke:#ff0000;stroke-width:0.05mm;fill:none"
     d="M14.176098,11.475L7.176097,11.475L7.176097,6.975L14.176098,6.975"
     id="path7203" />
  <path
     transform="matrix(0.38463,0.923071,0.923071,-0.38463,-627.144531,373.662842)"
     style="stroke:#ff0000;stroke-width:0.05mm;fill:none"
     d="M14.176088,11.474994C20.750603,16.01062,24.676096,23.487743,24.676098,31.475004L24.676098,34.128529"
     id="path7205" />
  <path
     transform="matrix(0.38463,0.923071,0.923071,-0.38463,-627.144531,373.662842)"
     style="stroke:#ff0000;stroke-width:0.05mm;fill:none"
     d="M29.176098,34.072689L29.176098,31.475C29.759285,20.983179,23.78569,11.226316,14.176086,6.974996"
     id="path7207" />
  <path
     transform="matrix(0.927772,-0.373147,-0.373147,-0.927772,-627.557007,485.604004)"
     style="stroke:#ff0000;stroke-width:0.05mm;fill:none"
     d="M76.585289,79.451279L76.585289,74.950928"
     id="path7209" />
  <path
     transform="matrix(0.38463,0.923071,0.923071,-0.38463,-627.144531,336.662842)"
     style="stroke:#ff0000;stroke-width:0.05mm;fill:none"
     d="M14.176098,11.475L7.176097,11.475L7.176097,6.975L14.176098,6.975"
     id="path7211" />
  <path
     transform="matrix(0.38463,0.923071,0.923071,-0.38463,-627.144531,336.662842)"
     style="stroke:#ff0000;stroke-width:0.05mm;fill:none"
     d="M14.176088,11.474994C20.750603,16.01062,24.676096,23.487743,24.676098,31.475004L24.676098,34.128529"
     id="path7213" />
  <path
     transform="matrix(0.38463,0.923071,0.923071,-0.38463,-627.144531,336.662842)"
     style="stroke:#ff0000;stroke-width:0.05mm;fill:none"
     d="M29.176098,34.072689L29.176098,31.475C29.759285,20.983179,23.78569,11.226316,14.176086,6.974996"
     id="path7215" />
  <path
     transform="matrix(0.927772,-0.373147,-0.373147,-0.927772,-627.557007,448.604004)"
     style="stroke:#ff0000;stroke-width:0.05mm;fill:none"
     d="M76.585289,79.451279L76.585289,74.950928"
     id="path7217" />
  <path
     transform="matrix(0.38463,0.923071,0.923071,-0.38463,-627.144531,299.662842)"
     style="stroke:#ff0000;stroke-width:0.05mm;fill:none"
     d="M14.176098,11.475L7.176097,11.475L7.176097,6.975L14.176098,6.975"
     id="path7219" />
  <path
     transform="matrix(0.38463,0.923071,0.923071,-0.38463,-627.144531,299.662842)"
     style="stroke:#ff0000;stroke-width:0.05mm;fill:none"
     d="M14.176088,11.474994C20.750603,16.01062,24.676096,23.487743,24.676098,31.475004L24.676098,34.128529"
     id="path7221" />
  <path
     transform="matrix(0.38463,0.923071,0.923071,-0.38463,-627.144531,299.662842)"
     style="stroke:#ff0000;stroke-width:0.05mm;fill:none"
     d="M29.176098,34.072689L29.176098,31.475C29.759285,20.983179,23.78569,11.226316,14.176086,6.974996"
     id="path7223" />
  <path
     transform="matrix(0.927772,-0.373147,-0.373147,-0.927772,-627.557007,411.604004)"
     style="stroke:#ff0000;stroke-width:0.05mm;fill:none"
     d="M76.585289,79.451279L76.585289,74.950928"
     id="path7225" />
  <path
     transform="matrix(0.38463,0.923071,0.923071,-0.38463,-627.144531,261.662842)"
     style="stroke:#ff0000;stroke-width:0.05mm;fill:none"
     d="M14.176098,11.475L7.176097,11.475L7.176097,6.975L14.176098,6.975"
     id="path7227" />
  <path
     transform="matrix(0.38463,0.923071,0.923071,-0.38463,-627.144531,261.662842)"
     style="stroke:#ff0000;stroke-width:0.05mm;fill:none"
     d="M14.176088,11.474994C20.750603,16.01062,24.676096,23.487743,24.676098,31.475004L24.676098,34.128529"
     id="path7229" />
  <path
     transform="matrix(0.38463,0.923071,0.923071,-0.38463,-627.144531,261.662842)"
     style="stroke:#ff0000;stroke-width:0.05mm;fill:none"
     d="M29.176098,34.072689L29.176098,31.475C29.759285,20.983179,23.78569,11.226316,14.176086,6.974996"
     id="path7231" />
  <path
     transform="matrix(0.927772,-0.373147,-0.373147,-0.927772,-627.557007,373.604004)"
     style="stroke:#ff0000;stroke-width:0.05mm;fill:none"
     d="M76.585289,79.451279L76.585289,74.950928"
     id="path7233" />
  <path
     transform="matrix(0.38463,0.923071,0.923071,-0.38463,-555.144531,410.662842)"
     style="stroke:#ff0000;stroke-width:0.05mm;fill:none"
     d="M14.176098,11.475L7.176097,11.475L7.176097,6.975L14.176098,6.975"
     id="path7235" />
  <path
     transform="matrix(0.38463,0.923071,0.923071,-0.38463,-555.144531,410.662842)"
     style="stroke:#ff0000;stroke-width:0.05mm;fill:none"
     d="M14.176088,11.474994C20.750603,16.01062,24.676096,23.487743,24.676098,31.475004L24.676098,34.128529"
     id="path7237" />
  <path
     transform="matrix(0.38463,0.923071,0.923071,-0.38463,-555.144531,410.662842)"
     style="stroke:#ff0000;stroke-width:0.05mm;fill:none"
     d="M29.176098,34.072689L29.176098,31.475C29.759285,20.983179,23.78569,11.226316,14.176086,6.974996"
     id="path7239" />
  <path
     transform="matrix(0.927772,-0.373147,-0.373147,-0.927772,-555.557007,522.604004)"
     style="stroke:#ff0000;stroke-width:0.05mm;fill:none"
     d="M76.585289,79.451279L76.585289,74.950928"
     id="path7241" />
  <path
     transform="matrix(0.38463,0.923071,0.923071,-0.38463,-555.144531,373.662842)"
     style="stroke:#ff0000;stroke-width:0.05mm;fill:none"
     d="M14.176098,11.475L7.176097,11.475L7.176097,6.975L14.176098,6.975"
     id="path7243" />
  <path
     transform="matrix(0.38463,0.923071,0.923071,-0.38463,-555.144531,373.662842)"
     style="stroke:#ff0000;stroke-width:0.05mm;fill:none"
     d="M14.176088,11.474994C20.750603,16.01062,24.676096,23.487743,24.676098,31.475004L24.676098,34.128529"
     id="path7245" />
  <path
     transform="matrix(0.38463,0.923071,0.923071,-0.38463,-555.144531,373.662842)"
     style="stroke:#ff0000;stroke-width:0.05mm;fill:none"
     d="M29.176098,34.072689L29.176098,31.475C29.759285,20.983179,23.78569,11.226316,14.176086,6.974996"
     id="path7247" />
  <path
     transform="matrix(0.927772,-0.373147,-0.373147,-0.927772,-555.557007,485.604004)"
     style="stroke:#ff0000;stroke-width:0.05mm;fill:none"
     d="M76.585289,79.451279L76.585289,74.950928"
     id="path7249" />
  <path
     transform="matrix(0.38463,0.923071,0.923071,-0.38463,-555.144531,336.662842)"
     style="stroke:#ff0000;stroke-width:0.05mm;fill:none"
     d="M14.176098,11.475L7.176097,11.475L7.176097,6.975L14.176098,6.975"
     id="path7251" />
  <path
     transform="matrix(0.38463,0.923071,0.923071,-0.38463,-555.144531,336.662842)"
     style="stroke:#ff0000;stroke-width:0.05mm;fill:none"
     d="M14.176088,11.474994C20.750603,16.01062,24.676096,23.487743,24.676098,31.475004L24.676098,34.128529"
     id="path7253" />
  <path
     transform="matrix(0.38463,0.923071,0.923071,-0.38463,-555.144531,336.662842)"
     style="stroke:#ff0000;stroke-width:0.05mm;fill:none"
     d="M29.176098,34.072689L29.176098,31.475C29.759285,20.983179,23.78569,11.226316,14.176086,6.974996"
     id="path7255" />
  <path
     transform="matrix(0.927772,-0.373147,-0.373147,-0.927772,-555.557007,448.604004)"
     style="stroke:#ff0000;stroke-width:0.05mm;fill:none"
     d="M76.585289,79.451279L76.585289,74.950928"
     id="path7257" />
  <path
     transform="matrix(0.38463,0.923071,0.923071,-0.38463,-555.144531,299.662842)"
     style="stroke:#ff0000;stroke-width:0.05mm;fill:none"
     d="M14.176098,11.475L7.176097,11.475L7.176097,6.975L14.176098,6.975"
     id="path7259" />
  <path
     transform="matrix(0.38463,0.923071,0.923071,-0.38463,-555.144531,299.662842)"
     style="stroke:#ff0000;stroke-width:0.05mm;fill:none"
     d="M14.176088,11.474994C20.750603,16.01062,24.676096,23.487743,24.676098,31.475004L24.676098,34.128529"
     id="path7261" />
  <path
     transform="matrix(0.38463,0.923071,0.923071,-0.38463,-555.144531,299.662842)"
     style="stroke:#ff0000;stroke-width:0.05mm;fill:none"
     d="M29.176098,34.072689L29.176098,31.475C29.759285,20.983179,23.78569,11.226316,14.176086,6.974996"
     id="path7263" />
  <path
     transform="matrix(0.927772,-0.373147,-0.373147,-0.927772,-555.557007,411.604004)"
     style="stroke:#ff0000;stroke-width:0.05mm;fill:none"
     d="M76.585289,79.451279L76.585289,74.950928"
     id="path7265" />
  <path
     transform="matrix(-0,1,1,0,-610.411072,253.500031)"
     style="stroke:#000000;stroke-width:0.05mm;fill:none"
     d="M1.499998,93.05394C2.480512,94.636063,3.000001,96.460449,3,98.32177L3,108.911118C3.000001,114.433968,7.477152,118.911118,13,118.911118L23,118.911118C23.147247,118.911118,23.294502,118.907867,23.441605,118.90136L23.441605,114.411118L27.941605,114.411118L27.941605,117.604828C31.06848,115.827469,33,112.507828,33,108.911118L33,98.32177C33,96.460449,33.519489,94.636063,34.5,93.05394C35.480511,91.471825,36,89.647438,36,87.786118L36,80.536118C36,78.674797,35.480511,76.85041,34.5,75.268288C33.519485,73.686157,33,71.861778,33,70.000458L33,59.411114C33,53.888271,28.52285,49.411118,23,49.411114L13,49.411114C7.477154,49.411114,3.000001,53.888264,3,59.411114L3,70.000458C3,71.861778,2.480512,73.686165,1.5,75.26828C0.519489,76.85041,0,78.674797,0,80.536118L0,87.786118C-0.000001,89.647438,0.519487,91.471817,1.5,93.053947"
     id="path7267" />
  <path
     transform="matrix(-0,1,1,0,-610.411072,253.500031)"
     style="stroke:#000000;stroke-width:0.05mm;fill:none"
     d="M14,105.911118L22,105.911118L22,103.911118L28,103.911118L28,59.411114L8,59.411114L8,103.911118L14,103.911118L14,105.911118z"
     id="path7269" />
  <path
     transform="matrix(-0,1,1,0,-610.411072,253.500031)"
     style="stroke:#ff0000;stroke-width:0.05mm;fill:none"
     d="M3,86.661118L3,81.661118L5,81.661118L5,86.661118L3,86.661118z"
     id="path7271" />
  <path
     transform="matrix(-0,1,1,0,-610.411072,253.500031)"
     style="stroke:#ff0000;stroke-width:0.05mm;fill:none"
     d="M33,81.661118L31,81.661118L31,86.661118L33,86.661118L33,81.661118z"
     id="path7273" />
  <path
     transform="matrix(0.38463,0.923071,0.923071,-0.38463,-555.144531,261.662842)"
     style="stroke:#ff0000;stroke-width:0.05mm;fill:none"
     d="M14.176098,11.475L7.176097,11.475L7.176097,6.975L14.176098,6.975"
     id="path7275" />
  <path
     transform="matrix(0.38463,0.923071,0.923071,-0.38463,-555.144531,261.662842)"
     style="stroke:#ff0000;stroke-width:0.05mm;fill:none"
     d="M14.176088,11.474994C20.750603,16.01062,24.676096,23.487743,24.676098,31.475004L24.676098,34.128529"
     id="path7277" />
  <path
     transform="matrix(0.38463,0.923071,0.923071,-0.38463,-555.144531,261.662842)"
     style="stroke:#ff0000;stroke-width:0.05mm;fill:none"
     d="M29.176098,34.072689L29.176098,31.475C29.759285,20.983179,23.78569,11.226316,14.176086,6.974996"
     id="path7279" />
  <path
     transform="matrix(0.927772,-0.373147,-0.373147,-0.927772,-555.557007,373.604004)"
     style="stroke:#ff0000;stroke-width:0.05mm;fill:none"
     d="M76.585289,79.451279L76.585289,74.950928"
     id="path7281" />
  <path
     style="fill:none;stroke:#ff8000;stroke-width:0.05mm"
     d="m -386.84561,289.04643 h 3.1937 v 4.5 l -4.49024,-10e-6 c -0.007,0.14711 -0.01,0.29436 -0.01,0.44161 v 10 c 0,5.52284 4.47715,10 10,10 h 22.25 v -5 h -17.25 v -20 h 17.25 v -5 h -22.25 c -3.59671,-10e-6 -6.91636,1.93152 -8.69371,5.05839"
     id="path7283" />
  <path
     style="fill:none;stroke:#ff8000;stroke-width:0.05mm"
     d="m -354.78396,289.40025 h 22.24999 v 20 h -22.24999 v 5 h 22.24999 c 5.52285,0 10,-4.47716 10,-10 v -10 c 0,-5.52285 -4.47716,-10 -10,-10 h -22.24999 z"
     id="path7285" />
  <path
     style="fill:none;stroke:#ff8000;stroke-width:0.05mm"
     d="m -386.84561,320.04643 h 3.1937 v 4.5 l -4.49024,-10e-6 c -0.007,0.14711 -0.01,0.29436 -0.01,0.44161 v 10 c 0,5.52284 4.47715,10 10,10 h 22.25 v -5 h -17.25 v -20 h 17.25 v -5 h -22.25 c -3.59671,-10e-6 -6.91636,1.93152 -8.69371,5.05839"
     id="path7287" />
  <path
     style="fill:none;stroke:#ff8000;stroke-width:0.05mm"
     d="m -354.78396,320.40025 h 22.24999 v 20 h -22.24999 v 5 h 22.24999 c 5.52285,0 10,-4.47716 10,-10 v -10 c 0,-5.52285 -4.47716,-10 -10,-10 h -22.24999 z"
     id="path7289" />
  <path
     style="fill:none;stroke:#ff8000;stroke-width:0.05mm"
     d="m -386.84561,351.04643 h 3.1937 v 4.5 l -4.49024,-10e-6 c -0.007,0.14711 -0.01,0.29436 -0.01,0.44161 v 10 c 0,5.52284 4.47715,10 10,10 h 22.25 v -5 h -17.25 v -20 h 17.25 v -5 h -22.25 c -3.59671,-10e-6 -6.91636,1.93152 -8.69371,5.05839"
     id="path7291" />
  <path
     style="fill:none;stroke:#ff8000;stroke-width:0.05mm"
     d="m -354.78396,351.40025 h 22.24999 v 20 h -22.24999 v 5 h 22.24999 c 5.52285,0 10,-4.47716 10,-10 v -10 c 0,-5.52285 -4.47716,-10 -10,-10 h -22.24999 z"
     id="path7293" />
  <path
     style="fill:none;stroke:#ff8000;stroke-width:0.05mm"
     d="m -386.84561,382.04643 h 3.1937 v 4.5 l -4.49024,-10e-6 c -0.007,0.14711 -0.01,0.29436 -0.01,0.44161 v 10 c 0,5.52284 4.47715,10 10,10 h 22.25 v -5 h -17.25 v -20 h 17.25 v -5 h -22.25 c -3.59671,-10e-6 -6.91636,1.93152 -8.69371,5.05839"
     id="path7295" />
  <path
     style="fill:none;stroke:#ff8000;stroke-width:0.05mm"
     d="m -354.78396,382.40025 h 22.24999 v 20 h -22.24999 v 5 h 22.24999 c 5.52285,0 10,-4.47716 10,-10 v -10 c 0,-5.52285 -4.47716,-10 -10,-10 h -22.24999 z"
     id="path7297" />
  <path
     style="fill:none;stroke:#ff8000;stroke-width:0.05mm"
     d="m -386.84561,413.04641 h 3.1937 v 4.5 l -4.49024,0 c -0.007,0.1471 -0.01,0.29436 -0.01,0.4416 v 10 c 0,5.52285 4.47715,10 10,10 h 22.25 v -5 h -17.25 v -20 h 17.25 v -4.99999 h -22.25 c -3.59671,-1e-5 -6.91636,1.93151 -8.69371,5.05839"
     id="path7299" />
  <path
     style="fill:none;stroke:#ff8000;stroke-width:0.05mm"
     d="m -354.78396,413.40026 h 22.24999 v 20 h -22.24999 v 5 h 22.24999 c 5.52285,0 10,-4.47715 10,-10 v -10 c 0,-5.52285 -4.47716,-10 -10,-10 h -22.24999 z"
     id="path7301" />
  <path
     style="fill:none;stroke:#ff8000;stroke-width:0.05mm"
     d="m -316.84561,258.04643 h 3.1937 v 4.5 l -4.49024,-10e-6 c -0.007,0.14711 -0.01,0.29436 -0.01,0.44161 v 10 c 0,5.52284 4.47715,10 10,10 h 22.25 v -5 h -17.25 v -20 h 17.25 v -5 h -22.25 c -3.59671,-1e-5 -6.91636,1.93152 -8.69371,5.05839"
     id="path7303" />
  <path
     style="fill:none;stroke:#ff8000;stroke-width:0.05mm"
     d="m -284.78396,258.40025 h 22.24999 v 20 h -22.24999 v 5 h 22.24999 c 5.52285,0 10,-4.47716 10,-10 v -10 c 0,-5.52285 -4.47716,-10 -10,-10 h -22.24999 z"
     id="path7305" />
  <path
     style="fill:none;stroke:#ff8000;stroke-width:0.05mm"
     d="m -316.84561,289.04643 h 3.1937 v 4.5 l -4.49024,-10e-6 c -0.007,0.14711 -0.01,0.29436 -0.01,0.44161 v 10 c 0,5.52284 4.47715,10 10,10 h 22.25 v -5 h -17.25 v -20 h 17.25 v -5 h -22.25 c -3.59671,-10e-6 -6.91636,1.93152 -8.69371,5.05839"
     id="path7307" />
  <path
     style="fill:none;stroke:#ff8000;stroke-width:0.05mm"
     d="m -284.78396,289.40025 h 22.24999 v 20 h -22.24999 v 5 h 22.24999 c 5.52285,0 10,-4.47716 10,-10 v -10 c 0,-5.52285 -4.47716,-10 -10,-10 h -22.24999 z"
     id="path7309" />
  <path
     style="fill:none;stroke:#ff8000;stroke-width:0.05mm"
     d="m -316.84561,320.04643 h 3.1937 v 4.5 l -4.49024,-10e-6 c -0.007,0.14711 -0.01,0.29436 -0.01,0.44161 v 10 c 0,5.52284 4.47715,10 10,10 h 22.25 v -5 h -17.25 v -20 h 17.25 v -5 h -22.25 c -3.59671,-10e-6 -6.91636,1.93152 -8.69371,5.05839"
     id="path7311" />
  <path
     style="fill:none;stroke:#ff8000;stroke-width:0.05mm"
     d="m -284.78396,320.40025 h 22.24999 v 20 h -22.24999 v 5 h 22.24999 c 5.52285,0 10,-4.47716 10,-10 v -10 c 0,-5.52285 -4.47716,-10 -10,-10 h -22.24999 z"
     id="path7313" />
  <path
     style="fill:none;stroke:#ff8000;stroke-width:0.05mm"
     d="m -316.84561,351.04643 h 3.1937 v 4.5 l -4.49024,-10e-6 c -0.007,0.14711 -0.01,0.29436 -0.01,0.44161 v 10 c 0,5.52284 4.47715,10 10,10 h 22.25 v -5 h -17.25 v -20 h 17.25 v -5 h -22.25 c -3.59671,-10e-6 -6.91636,1.93152 -8.69371,5.05839"
     id="path7315" />
  <path
     style="fill:none;stroke:#ff8000;stroke-width:0.05mm"
     d="m -284.78396,351.40025 h 22.24999 v 20 h -22.24999 v 5 h 22.24999 c 5.52285,0 10,-4.47716 10,-10 v -10 c 0,-5.52285 -4.47716,-10 -10,-10 h -22.24999 z"
     id="path7317" />
  <path
     style="fill:none;stroke:#ff8000;stroke-width:0.05mm"
     d="m -316.84561,382.04643 h 3.1937 v 4.5 l -4.49024,-10e-6 c -0.007,0.14711 -0.01,0.29436 -0.01,0.44161 v 10 c 0,5.52284 4.47715,10 10,10 h 22.25 v -5 h -17.25 v -20 h 17.25 v -5 h -22.25 c -3.59671,-10e-6 -6.91636,1.93152 -8.69371,5.05839"
     id="path7319" />
  <path
     style="fill:none;stroke:#ff8000;stroke-width:0.05mm"
     d="m -284.78396,382.40025 h 22.24999 v 20 h -22.24999 v 5 h 22.24999 c 5.52285,0 10,-4.47716 10,-10 v -10 c 0,-5.52285 -4.47716,-10 -10,-10 h -22.24999 z"
     id="path7321" />
  <path
     style="fill:none;stroke:#ff8000;stroke-width:0.05mm"
     d="m -316.84561,413.04641 h 3.1937 v 4.5 l -4.49024,0 c -0.007,0.1471 -0.01,0.29436 -0.01,0.4416 v 10 c 0,5.52285 4.47715,10 10,10 h 22.25 v -5 h -17.25 v -20 h 17.25 v -4.99999 h -22.25 c -3.59671,-1e-5 -6.91636,1.93151 -8.69371,5.05839"
     id="path7323" />
  <path
     style="fill:none;stroke:#ff8000;stroke-width:0.05mm"
     d="m -284.78396,413.40026 h 22.24999 v 20 h -22.24999 v 5 h 22.24999 c 5.52285,0 10,-4.47715 10,-10 v -10 c 0,-5.52285 -4.47716,-10 -10,-10 h -22.24999 z"
     id="path7325" />
  <path
     transform="matrix(-0,1,1,0,-682.411011,253.5)"
     style="stroke:#000000;stroke-width:0.05mm;fill:none"
     d="M1.499998,93.05394C2.480512,94.636063,3.000001,96.460449,3,98.32177L3,108.911118C3.000001,114.433968,7.477152,118.911118,13,118.911118L23,118.911118C23.147247,118.911118,23.294502,118.907867,23.441605,118.90136L23.441605,114.411118L27.941605,114.411118L27.941605,117.604828C31.06848,115.827469,33,112.507828,33,108.911118L33,98.32177C33,96.460449,33.519489,94.636063,34.5,93.05394C35.480511,91.471825,36,89.647438,36,87.786118L36,80.536118C36,78.674797,35.480511,76.85041,34.5,75.268288C33.519485,73.686157,33,71.861778,33,70.000458L33,59.411114C33,53.888271,28.52285,49.411118,23,49.411114L13,49.411114C7.477154,49.411114,3.000001,53.888264,3,59.411114L3,70.000458C3,71.861778,2.480512,73.686165,1.5,75.26828C0.519489,76.85041,0,78.674797,0,80.536118L0,87.786118C-0.000001,89.647438,0.519487,91.471817,1.5,93.053947"
     id="path7375" />
  <path
     transform="matrix(-0,1,1,0,-682.411011,253.5)"
     style="stroke:#000000;stroke-width:0.05mm;fill:none"
     d="M14,105.911118L22,105.911118L22,103.911118L28,103.911118L28,59.411114L8,59.411114L8,103.911118L14,103.911118L14,105.911118z"
     id="path7377" />
  <path
     transform="matrix(-0,1,1,0,-682.411011,253.5)"
     style="stroke:#ff0000;stroke-width:0.05mm;fill:none"
     d="M3,86.661118L3,81.661118L5,81.661118L5,86.661118L3,86.661118z"
     id="path7379" />
  <path
     transform="matrix(-0,1,1,0,-682.411011,253.5)"
     style="stroke:#ff0000;stroke-width:0.05mm;fill:none"
     d="M33,81.661118L31,81.661118L31,86.661118L33,86.661118L33,81.661118z"
     id="path7381" />
  <path
     transform="matrix(-0,1,1,0,-682.411011,291.5)"
     style="stroke:#000000;stroke-width:0.05mm;fill:none"
     d="M1.499998,93.05394C2.480512,94.636063,3.000001,96.460449,3,98.32177L3,108.911118C3.000001,114.433968,7.477152,118.911118,13,118.911118L23,118.911118C23.147247,118.911118,23.294502,118.907867,23.441605,118.90136L23.441605,114.411118L27.941605,114.411118L27.941605,117.604828C31.06848,115.827469,33,112.507828,33,108.911118L33,98.32177C33,96.460449,33.519489,94.636063,34.5,93.05394C35.480511,91.471825,36,89.647438,36,87.786118L36,80.536118C36,78.674797,35.480511,76.85041,34.5,75.268288C33.519485,73.686157,33,71.861778,33,70.000458L33,59.411114C33,53.888271,28.52285,49.411118,23,49.411114L13,49.411114C7.477154,49.411114,3.000001,53.888264,3,59.411114L3,70.000458C3,71.861778,2.480512,73.686165,1.5,75.26828C0.519489,76.85041,0,78.674797,0,80.536118L0,87.786118C-0.000001,89.647438,0.519487,91.471817,1.5,93.053947"
     id="path7383" />
  <path
     transform="matrix(-0,1,1,0,-682.411011,291.5)"
     style="stroke:#000000;stroke-width:0.05mm;fill:none"
     d="M14,105.911118L22,105.911118L22,103.911118L28,103.911118L28,59.411114L8,59.411114L8,103.911118L14,103.911118L14,105.911118z"
     id="path7385" />
  <path
     transform="matrix(-0,1,1,0,-682.411011,291.5)"
     style="stroke:#ff0000;stroke-width:0.05mm;fill:none"
     d="M3,86.661118L3,81.661118L5,81.661118L5,86.661118L3,86.661118z"
     id="path7387" />
  <path
     transform="matrix(-0,1,1,0,-682.411011,291.5)"
     style="stroke:#ff0000;stroke-width:0.05mm;fill:none"
     d="M33,81.661118L31,81.661118L31,86.661118L33,86.661118L33,81.661118z"
     id="path7389" />
  <path
     transform="matrix(-0,1,1,0,-682.411011,328.5)"
     style="stroke:#000000;stroke-width:0.05mm;fill:none"
     d="M1.499998,93.05394C2.480512,94.636063,3.000001,96.460449,3,98.32177L3,108.911118C3.000001,114.433968,7.477152,118.911118,13,118.911118L23,118.911118C23.147247,118.911118,23.294502,118.907867,23.441605,118.90136L23.441605,114.411118L27.941605,114.411118L27.941605,117.604828C31.06848,115.827469,33,112.507828,33,108.911118L33,98.32177C33,96.460449,33.519489,94.636063,34.5,93.05394C35.480511,91.471825,36,89.647438,36,87.786118L36,80.536118C36,78.674797,35.480511,76.85041,34.5,75.268288C33.519485,73.686157,33,71.861778,33,70.000458L33,59.411114C33,53.888271,28.52285,49.411118,23,49.411114L13,49.411114C7.477154,49.411114,3.000001,53.888264,3,59.411114L3,70.000458C3,71.861778,2.480512,73.686165,1.5,75.26828C0.519489,76.85041,0,78.674797,0,80.536118L0,87.786118C-0.000001,89.647438,0.519487,91.471817,1.5,93.053947"
     id="path7391" />
  <path
     transform="matrix(-0,1,1,0,-682.411011,328.5)"
     style="stroke:#000000;stroke-width:0.05mm;fill:none"
     d="M14,105.911118L22,105.911118L22,103.911118L28,103.911118L28,59.411114L8,59.411114L8,103.911118L14,103.911118L14,105.911118z"
     id="path7393" />
  <path
     transform="matrix(-0,1,1,0,-682.411011,328.5)"
     style="stroke:#ff0000;stroke-width:0.05mm;fill:none"
     d="M3,86.661118L3,81.661118L5,81.661118L5,86.661118L3,86.661118z"
     id="path7395" />
  <path
     transform="matrix(-0,1,1,0,-682.411011,328.5)"
     style="stroke:#ff0000;stroke-width:0.05mm;fill:none"
     d="M33,81.661118L31,81.661118L31,86.661118L33,86.661118L33,81.661118z"
     id="path7397" />
  <path
     transform="matrix(-0,1,1,0,-682.411011,365.5)"
     style="stroke:#000000;stroke-width:0.05mm;fill:none"
     d="M1.499998,93.05394C2.480512,94.636063,3.000001,96.460449,3,98.32177L3,108.911118C3.000001,114.433968,7.477152,118.911118,13,118.911118L23,118.911118C23.147247,118.911118,23.294502,118.907867,23.441605,118.90136L23.441605,114.411118L27.941605,114.411118L27.941605,117.604828C31.06848,115.827469,33,112.507828,33,108.911118L33,98.32177C33,96.460449,33.519489,94.636063,34.5,93.05394C35.480511,91.471825,36,89.647438,36,87.786118L36,80.536118C36,78.674797,35.480511,76.85041,34.5,75.268288C33.519485,73.686157,33,71.861778,33,70.000458L33,59.411114C33,53.888271,28.52285,49.411118,23,49.411114L13,49.411114C7.477154,49.411114,3.000001,53.888264,3,59.411114L3,70.000458C3,71.861778,2.480512,73.686165,1.5,75.26828C0.519489,76.85041,0,78.674797,0,80.536118L0,87.786118C-0.000001,89.647438,0.519487,91.471817,1.5,93.053947"
     id="path7399" />
  <path
     transform="matrix(-0,1,1,0,-682.411011,365.5)"
     style="stroke:#000000;stroke-width:0.05mm;fill:none"
     d="M14,105.911118L22,105.911118L22,103.911118L28,103.911118L28,59.411114L8,59.411114L8,103.911118L14,103.911118L14,105.911118z"
     id="path7401" />
  <path
     transform="matrix(-0,1,1,0,-682.411011,365.5)"
     style="stroke:#ff0000;stroke-width:0.05mm;fill:none"
     d="M3,86.661118L3,81.661118L5,81.661118L5,86.661118L3,86.661118z"
     id="path7403" />
  <path
     transform="matrix(-0,1,1,0,-682.411011,365.5)"
     style="stroke:#ff0000;stroke-width:0.05mm;fill:none"
     d="M33,81.661118L31,81.661118L31,86.661118L33,86.661118L33,81.661118z"
     id="path7405" />
  <path
     transform="matrix(-0,1,1,0,-682.411011,402.5)"
     style="stroke:#000000;stroke-width:0.05mm;fill:none"
     d="M1.499998,93.05394C2.480512,94.636063,3.000001,96.460449,3,98.32177L3,108.911118C3.000001,114.433968,7.477152,118.911118,13,118.911118L23,118.911118C23.147247,118.911118,23.294502,118.907867,23.441605,118.90136L23.441605,114.411118L27.941605,114.411118L27.941605,117.604828C31.06848,115.827469,33,112.507828,33,108.911118L33,98.32177C33,96.460449,33.519489,94.636063,34.5,93.05394C35.480511,91.471825,36,89.647438,36,87.786118L36,80.536118C36,78.674797,35.480511,76.85041,34.5,75.268288C33.519485,73.686157,33,71.861778,33,70.000458L33,59.411114C33,53.888271,28.52285,49.411118,23,49.411114L13,49.411114C7.477154,49.411114,3.000001,53.888264,3,59.411114L3,70.000458C3,71.861778,2.480512,73.686165,1.5,75.26828C0.519489,76.85041,0,78.674797,0,80.536118L0,87.786118C-0.000001,89.647438,0.519487,91.471817,1.5,93.053947"
     id="path7407" />
  <path
     transform="matrix(-0,1,1,0,-682.411011,402.5)"
     style="stroke:#000000;stroke-width:0.05mm;fill:none"
     d="M14,105.911118L22,105.911118L22,103.911118L28,103.911118L28,59.411114L8,59.411114L8,103.911118L14,103.911118L14,105.911118z"
     id="path7409" />
  <path
     transform="matrix(-0,1,1,0,-682.411011,402.5)"
     style="stroke:#ff0000;stroke-width:0.05mm;fill:none"
     d="M3,86.661118L3,81.661118L5,81.661118L5,86.661118L3,86.661118z"
     id="path7411" />
  <path
     transform="matrix(-0,1,1,0,-682.411011,402.5)"
     style="stroke:#ff0000;stroke-width:0.05mm;fill:none"
     d="M33,81.661118L31,81.661118L31,86.661118L33,86.661118L33,81.661118z"
     id="path7413" />
  <path
     transform="matrix(-0,1,1,0,-610.411011,402.5)"
     style="stroke:#000000;stroke-width:0.05mm;fill:none"
     d="M1.499998,93.05394C2.480512,94.636063,3.000001,96.460449,3,98.32177L3,108.911118C3.000001,114.433968,7.477152,118.911118,13,118.911118L23,118.911118C23.147247,118.911118,23.294502,118.907867,23.441605,118.90136L23.441605,114.411118L27.941605,114.411118L27.941605,117.604828C31.06848,115.827469,33,112.507828,33,108.911118L33,98.32177C33,96.460449,33.519489,94.636063,34.5,93.05394C35.480511,91.471825,36,89.647438,36,87.786118L36,80.536118C36,78.674797,35.480511,76.85041,34.5,75.268288C33.519485,73.686157,33,71.861778,33,70.000458L33,59.411114C33,53.888271,28.52285,49.411118,23,49.411114L13,49.411114C7.477154,49.411114,3.000001,53.888264,3,59.411114L3,70.000458C3,71.861778,2.480512,73.686165,1.5,75.26828C0.519489,76.85041,0,78.674797,0,80.536118L0,87.786118C-0.000001,89.647438,0.519487,91.471817,1.5,93.053947"
     id="path7415" />
  <path
     transform="matrix(-0,1,1,0,-610.411011,402.5)"
     style="stroke:#000000;stroke-width:0.05mm;fill:none"
     d="M14,105.911118L22,105.911118L22,103.911118L28,103.911118L28,59.411114L8,59.411114L8,103.911118L14,103.911118L14,105.911118z"
     id="path7417" />
  <path
     transform="matrix(-0,1,1,0,-610.411011,402.5)"
     style="stroke:#ff0000;stroke-width:0.05mm;fill:none"
     d="M3,86.661118L3,81.661118L5,81.661118L5,86.661118L3,86.661118z"
     id="path7419" />
  <path
     transform="matrix(-0,1,1,0,-610.411011,402.5)"
     style="stroke:#ff0000;stroke-width:0.05mm;fill:none"
     d="M33,81.661118L31,81.661118L31,86.661118L33,86.661118L33,81.661118z"
     id="path7421" />
  <path
     transform="matrix(-0,1,1,0,-610.411011,365.5)"
     style="stroke:#000000;stroke-width:0.05mm;fill:none"
     d="M1.499998,93.05394C2.480512,94.636063,3.000001,96.460449,3,98.32177L3,108.911118C3.000001,114.433968,7.477152,118.911118,13,118.911118L23,118.911118C23.147247,118.911118,23.294502,118.907867,23.441605,118.90136L23.441605,114.411118L27.941605,114.411118L27.941605,117.604828C31.06848,115.827469,33,112.507828,33,108.911118L33,98.32177C33,96.460449,33.519489,94.636063,34.5,93.05394C35.480511,91.471825,36,89.647438,36,87.786118L36,80.536118C36,78.674797,35.480511,76.85041,34.5,75.268288C33.519485,73.686157,33,71.861778,33,70.000458L33,59.411114C33,53.888271,28.52285,49.411118,23,49.411114L13,49.411114C7.477154,49.411114,3.000001,53.888264,3,59.411114L3,70.000458C3,71.861778,2.480512,73.686165,1.5,75.26828C0.519489,76.85041,0,78.674797,0,80.536118L0,87.786118C-0.000001,89.647438,0.519487,91.471817,1.5,93.053947"
     id="path7423" />
  <path
     transform="matrix(-0,1,1,0,-610.411011,365.5)"
     style="stroke:#000000;stroke-width:0.05mm;fill:none"
     d="M14,105.911118L22,105.911118L22,103.911118L28,103.911118L28,59.411114L8,59.411114L8,103.911118L14,103.911118L14,105.911118z"
     id="path7425" />
  <path
     transform="matrix(-0,1,1,0,-610.411011,365.5)"
     style="stroke:#ff0000;stroke-width:0.05mm;fill:none"
     d="M3,86.661118L3,81.661118L5,81.661118L5,86.661118L3,86.661118z"
     id="path7427" />
  <path
     transform="matrix(-0,1,1,0,-610.411011,365.5)"
     style="stroke:#ff0000;stroke-width:0.05mm;fill:none"
     d="M33,81.661118L31,81.661118L31,86.661118L33,86.661118L33,81.661118z"
     id="path7429" />
  <path
     transform="matrix(-0,1,1,0,-610.411011,328.5)"
     style="stroke:#000000;stroke-width:0.05mm;fill:none"
     d="M1.499998,93.05394C2.480512,94.636063,3.000001,96.460449,3,98.32177L3,108.911118C3.000001,114.433968,7.477152,118.911118,13,118.911118L23,118.911118C23.147247,118.911118,23.294502,118.907867,23.441605,118.90136L23.441605,114.411118L27.941605,114.411118L27.941605,117.604828C31.06848,115.827469,33,112.507828,33,108.911118L33,98.32177C33,96.460449,33.519489,94.636063,34.5,93.05394C35.480511,91.471825,36,89.647438,36,87.786118L36,80.536118C36,78.674797,35.480511,76.85041,34.5,75.268288C33.519485,73.686157,33,71.861778,33,70.000458L33,59.411114C33,53.888271,28.52285,49.411118,23,49.411114L13,49.411114C7.477154,49.411114,3.000001,53.888264,3,59.411114L3,70.000458C3,71.861778,2.480512,73.686165,1.5,75.26828C0.519489,76.85041,0,78.674797,0,80.536118L0,87.786118C-0.000001,89.647438,0.519487,91.471817,1.5,93.053947"
     id="path7431" />
  <path
     transform="matrix(-0,1,1,0,-610.411011,328.5)"
     style="stroke:#000000;stroke-width:0.05mm;fill:none"
     d="M14,105.911118L22,105.911118L22,103.911118L28,103.911118L28,59.411114L8,59.411114L8,103.911118L14,103.911118L14,105.911118z"
     id="path7433" />
  <path
     transform="matrix(-0,1,1,0,-610.411011,328.5)"
     style="stroke:#ff0000;stroke-width:0.05mm;fill:none"
     d="M3,86.661118L3,81.661118L5,81.661118L5,86.661118L3,86.661118z"
     id="path7435" />
  <path
     transform="matrix(-0,1,1,0,-610.411011,328.5)"
     style="stroke:#ff0000;stroke-width:0.05mm;fill:none"
     d="M33,81.661118L31,81.661118L31,86.661118L33,86.661118L33,81.661118z"
     id="path7437" />
  <path
     transform="matrix(-0,1,1,0,-610.411011,291.5)"
     style="stroke:#000000;stroke-width:0.05mm;fill:none"
     d="M1.499998,93.05394C2.480512,94.636063,3.000001,96.460449,3,98.32177L3,108.911118C3.000001,114.433968,7.477152,118.911118,13,118.911118L23,118.911118C23.147247,118.911118,23.294502,118.907867,23.441605,118.90136L23.441605,114.411118L27.941605,114.411118L27.941605,117.604828C31.06848,115.827469,33,112.507828,33,108.911118L33,98.32177C33,96.460449,33.519489,94.636063,34.5,93.05394C35.480511,91.471825,36,89.647438,36,87.786118L36,80.536118C36,78.674797,35.480511,76.85041,34.5,75.268288C33.519485,73.686157,33,71.861778,33,70.000458L33,59.411114C33,53.888271,28.52285,49.411118,23,49.411114L13,49.411114C7.477154,49.411114,3.000001,53.888264,3,59.411114L3,70.000458C3,71.861778,2.480512,73.686165,1.5,75.26828C0.519489,76.85041,0,78.674797,0,80.536118L0,87.786118C-0.000001,89.647438,0.519487,91.471817,1.5,93.053947"
     id="path7439" />
  <path
     transform="matrix(-0,1,1,0,-610.411011,291.5)"
     style="stroke:#000000;stroke-width:0.05mm;fill:none"
     d="M14,105.911118L22,105.911118L22,103.911118L28,103.911118L28,59.411114L8,59.411114L8,103.911118L14,103.911118L14,105.911118z"
     id="path7441" />
  <path
     transform="matrix(-0,1,1,0,-610.411011,291.5)"
     style="stroke:#ff0000;stroke-width:0.05mm;fill:none"
     d="M3,86.661118L3,81.661118L5,81.661118L5,86.661118L3,86.661118z"
     id="path7443" />
  <path
     transform="matrix(-0,1,1,0,-610.411011,291.5)"
     style="stroke:#ff0000;stroke-width:0.05mm;fill:none"
     d="M33,81.661118L31,81.661118L31,86.661118L33,86.661118L33,81.661118z"
     id="path7445" />
  <circle
     transform="matrix(-0,1,1,0,-409.500031,425.500031)"
     style="stroke:#ff0000;stroke-width:0.05mm;fill:none"
     r="4"
     cx="0"
     cy="0"
     id="circle7455" />
  <path
     transform="matrix(-0,1,1,0,-439.865021,374.098053)"
     style="stroke:#000000;stroke-width:0.05mm;fill:none"
     d="M43.927975,26.316711C44.403221,25.439251,44.652111,24.457111,44.652111,23.459215L44.652111,18.86483C44.652111,15.551121,47.338402,12.86483,50.652111,12.86483L52.152111,12.86483C55.46582,12.864831,58.152111,15.551124,58.152111,18.864832L58.152111,23.459215C58.152115,24.457111,58.401005,25.439249,58.876251,26.316711C60.813095,29.892759,59.945507,34.339737,56.806511,36.925507C53.667519,39.511272,49.1367,39.511272,45.997707,36.925503C42.858711,34.339729,41.991127,29.892754,43.927975,26.316708"
     id="path7457" />
  <path
     transform="matrix(-0,1,1,0,-439.865021,374.098053)"
     style="stroke:#ff0000;stroke-width:0.05mm;fill:none"
     d="M49.152111,21.86483L53.652111,21.86483L53.652111,17.36483L49.152111,17.36483L49.152111,21.86483z"
     id="path7459" />
  <circle
     transform="matrix(-0,1,1,0,-409.500031,365.500031)"
     style="stroke:#ff0000;stroke-width:0.05mm;fill:none"
     r="4"
     cx="0"
     cy="0"
     id="circle7477" />
  <path
     transform="matrix(-0,1,1,0,-439.865021,314.098053)"
     style="stroke:#000000;stroke-width:0.05mm;fill:none"
     d="M43.927975,26.316711C44.403221,25.439251,44.652111,24.457111,44.652111,23.459215L44.652111,18.86483C44.652111,15.551121,47.338402,12.86483,50.652111,12.86483L52.152111,12.86483C55.46582,12.864831,58.152111,15.551124,58.152111,18.864832L58.152111,23.459215C58.152115,24.457111,58.401005,25.439249,58.876251,26.316711C60.813095,29.892759,59.945507,34.339737,56.806511,36.925507C53.667519,39.511272,49.1367,39.511272,45.997707,36.925503C42.858711,34.339729,41.991127,29.892754,43.927975,26.316708"
     id="path7479" />
  <path
     transform="matrix(-0,1,1,0,-439.865021,314.098053)"
     style="stroke:#ff0000;stroke-width:0.05mm;fill:none"
     d="M49.152111,21.86483L53.652111,21.86483L53.652111,17.36483L49.152111,17.36483L49.152111,21.86483z"
     id="path7481" />
  <circle
     transform="matrix(-0,1,1,0,-409.500031,305.499847)"
     style="stroke:#ff0000;stroke-width:0.05mm;fill:none"
     r="4"
     cx="0"
     cy="0"
     id="circle7483" />
  <path
     transform="matrix(-0,1,1,0,-439.865021,254.097855)"
     style="stroke:#000000;stroke-width:0.05mm;fill:none"
     d="M43.927975,26.316711C44.403221,25.439251,44.652111,24.457111,44.652111,23.459215L44.652111,18.86483C44.652111,15.551121,47.338402,12.86483,50.652111,12.86483L52.152111,12.86483C55.46582,12.864831,58.152111,15.551124,58.152111,18.864832L58.152111,23.459215C58.152115,24.457111,58.401005,25.439249,58.876251,26.316711C60.813095,29.892759,59.945507,34.339737,56.806511,36.925507C53.667519,39.511272,49.1367,39.511272,45.997707,36.925503C42.858711,34.339729,41.991127,29.892754,43.927975,26.316708"
     id="path7485" />
  <path
     transform="matrix(-0,1,1,0,-439.865021,254.097855)"
     style="stroke:#ff0000;stroke-width:0.05mm;fill:none"
     d="M49.152111,21.86483L53.652111,21.86483L53.652111,17.36483L49.152111,17.36483L49.152111,21.86483z"
     id="path7487" />
  <circle
     transform="matrix(-0,1,1,0,-469.500031,345.500031)"
     style="stroke:#ff0000;stroke-width:0.05mm;fill:none"
     r="4"
     cx="0"
     cy="0"
     id="circle7497" />
  <path
     transform="matrix(-0,1,1,0,-499.865021,294.098053)"
     style="stroke:#000000;stroke-width:0.05mm;fill:none"
     d="M43.927975,26.316711C44.403221,25.439251,44.652111,24.457111,44.652111,23.459215L44.652111,18.86483C44.652111,15.551121,47.338402,12.86483,50.652111,12.86483L52.152111,12.86483C55.46582,12.864831,58.152111,15.551124,58.152111,18.864832L58.152111,23.459215C58.152115,24.457111,58.401005,25.439249,58.876251,26.316711C60.813095,29.892759,59.945507,34.339737,56.806511,36.925507C53.667519,39.511272,49.1367,39.511272,45.997707,36.925503C42.858711,34.339729,41.991127,29.892754,43.927975,26.316708"
     id="path7499" />
  <path
     transform="matrix(-0,1,1,0,-499.865021,294.098053)"
     style="stroke:#ff0000;stroke-width:0.05mm;fill:none"
     d="M49.152111,21.86483L53.652111,21.86483L53.652111,17.36483L49.152111,17.36483L49.152111,21.86483z"
     id="path7501" />
  <circle
     transform="matrix(-0,1,1,0,-409.500031,265.499847)"
     style="stroke:#ff0000;stroke-width:0.05mm;fill:none"
     r="4"
     cx="0"
     cy="0"
     id="circle7503" />
  <path
     transform="matrix(-0,1,1,0,-439.865021,214.097855)"
     style="stroke:#000000;stroke-width:0.05mm;fill:none"
     d="M43.927975,26.316711C44.403221,25.439251,44.652111,24.457111,44.652111,23.459215L44.652111,18.86483C44.652111,15.551121,47.338402,12.86483,50.652111,12.86483L52.152111,12.86483C55.46582,12.864831,58.152111,15.551124,58.152111,18.864832L58.152111,23.459215C58.152115,24.457111,58.401005,25.439249,58.876251,26.316711C60.813095,29.892759,59.945507,34.339737,56.806511,36.925507C53.667519,39.511272,49.1367,39.511272,45.997707,36.925503C42.858711,34.339729,41.991127,29.892754,43.927975,26.316708"
     id="path7505" />
  <path
     transform="matrix(-0,1,1,0,-439.865021,214.097855)"
     style="stroke:#ff0000;stroke-width:0.05mm;fill:none"
     d="M49.152111,21.86483L53.652111,21.86483L53.652111,17.36483L49.152111,17.36483L49.152111,21.86483z"
     id="path7507" />
  <circle
     transform="matrix(-0,1,1,0,-439.500031,405.500031)"
     style="stroke:#ff0000;stroke-width:0.05mm;fill:none"
     r="4"
     cx="0"
     cy="0"
     id="circle7509" />
  <path
     transform="matrix(-0,1,1,0,-469.865021,354.098053)"
     style="stroke:#000000;stroke-width:0.05mm;fill:none"
     d="M43.927975,26.316711C44.403221,25.439251,44.652111,24.457111,44.652111,23.459215L44.652111,18.86483C44.652111,15.551121,47.338402,12.86483,50.652111,12.86483L52.152111,12.86483C55.46582,12.864831,58.152111,15.551124,58.152111,18.864832L58.152111,23.459215C58.152115,24.457111,58.401005,25.439249,58.876251,26.316711C60.813095,29.892759,59.945507,34.339737,56.806511,36.925507C53.667519,39.511272,49.1367,39.511272,45.997707,36.925503C42.858711,34.339729,41.991127,29.892754,43.927975,26.316708"
     id="path7511" />
  <path
     transform="matrix(-0,1,1,0,-469.865021,354.098053)"
     style="stroke:#ff0000;stroke-width:0.05mm;fill:none"
     d="M49.152111,21.86483L53.652111,21.86483L53.652111,17.36483L49.152111,17.36483L49.152111,21.86483z"
     id="path7513" />
  <circle
     transform="matrix(-0,1,1,0,-469.500031,305.499847)"
     style="stroke:#ff0000;stroke-width:0.05mm;fill:none"
     r="4"
     cx="0"
     cy="0"
     id="circle7515" />
  <path
     transform="matrix(-0,1,1,0,-499.865021,254.097855)"
     style="stroke:#000000;stroke-width:0.05mm;fill:none"
     d="M43.927975,26.316711C44.403221,25.439251,44.652111,24.457111,44.652111,23.459215L44.652111,18.86483C44.652111,15.551121,47.338402,12.86483,50.652111,12.86483L52.152111,12.86483C55.46582,12.864831,58.152111,15.551124,58.152111,18.864832L58.152111,23.459215C58.152115,24.457111,58.401005,25.439249,58.876251,26.316711C60.813095,29.892759,59.945507,34.339737,56.806511,36.925507C53.667519,39.511272,49.1367,39.511272,45.997707,36.925503C42.858711,34.339729,41.991127,29.892754,43.927975,26.316708"
     id="path7517" />
  <path
     transform="matrix(-0,1,1,0,-499.865021,254.097855)"
     style="stroke:#ff0000;stroke-width:0.05mm;fill:none"
     d="M49.152111,21.86483L53.652111,21.86483L53.652111,17.36483L49.152111,17.36483L49.152111,21.86483z"
     id="path7519" />
  <circle
     transform="matrix(-0,1,1,0,-439.500031,385.500031)"
     style="stroke:#ff0000;stroke-width:0.05mm;fill:none"
     r="4"
     cx="0"
     cy="0"
     id="circle7521" />
  <path
     transform="matrix(-0,1,1,0,-469.865021,334.098053)"
     style="stroke:#000000;stroke-width:0.05mm;fill:none"
     d="M43.927975,26.316711C44.403221,25.439251,44.652111,24.457111,44.652111,23.459215L44.652111,18.86483C44.652111,15.551121,47.338402,12.86483,50.652111,12.86483L52.152111,12.86483C55.46582,12.864831,58.152111,15.551124,58.152111,18.864832L58.152111,23.459215C58.152115,24.457111,58.401005,25.439249,58.876251,26.316711C60.813095,29.892759,59.945507,34.339737,56.806511,36.925507C53.667519,39.511272,49.1367,39.511272,45.997707,36.925503C42.858711,34.339729,41.991127,29.892754,43.927975,26.316708"
     id="path7523" />
  <path
     transform="matrix(-0,1,1,0,-469.865021,334.098053)"
     style="stroke:#ff0000;stroke-width:0.05mm;fill:none"
     d="M49.152111,21.86483L53.652111,21.86483L53.652111,17.36483L49.152111,17.36483L49.152111,21.86483z"
     id="path7525" />
  <circle
     transform="matrix(-0,1,1,0,-439.500031,325.500031)"
     style="stroke:#ff0000;stroke-width:0.05mm;fill:none"
     r="4"
     cx="0"
     cy="0"
     id="circle7527" />
  <path
     transform="matrix(-0,1,1,0,-469.865021,274.098053)"
     style="stroke:#000000;stroke-width:0.05mm;fill:none"
     d="M43.927975,26.316711C44.403221,25.439251,44.652111,24.457111,44.652111,23.459215L44.652111,18.86483C44.652111,15.551121,47.338402,12.86483,50.652111,12.86483L52.152111,12.86483C55.46582,12.864831,58.152111,15.551124,58.152111,18.864832L58.152111,23.459215C58.152115,24.457111,58.401005,25.439249,58.876251,26.316711C60.813095,29.892759,59.945507,34.339737,56.806511,36.925507C53.667519,39.511272,49.1367,39.511272,45.997707,36.925503C42.858711,34.339729,41.991127,29.892754,43.927975,26.316708"
     id="path7529" />
  <path
     transform="matrix(-0,1,1,0,-469.865021,274.098053)"
     style="stroke:#ff0000;stroke-width:0.05mm;fill:none"
     d="M49.152111,21.86483L53.652111,21.86483L53.652111,17.36483L49.152111,17.36483L49.152111,21.86483z"
     id="path7531" />
  <circle
     transform="matrix(-0,1,1,0,-439.500031,345.500031)"
     style="stroke:#ff0000;stroke-width:0.05mm;fill:none"
     r="4"
     cx="0"
     cy="0"
     id="circle7557" />
  <path
     transform="matrix(-0,1,1,0,-469.865021,294.098053)"
     style="stroke:#000000;stroke-width:0.05mm;fill:none"
     d="M43.927975,26.316711C44.403221,25.439251,44.652111,24.457111,44.652111,23.459215L44.652111,18.86483C44.652111,15.551121,47.338402,12.86483,50.652111,12.86483L52.152111,12.86483C55.46582,12.864831,58.152111,15.551124,58.152111,18.864832L58.152111,23.459215C58.152115,24.457111,58.401005,25.439249,58.876251,26.316711C60.813095,29.892759,59.945507,34.339737,56.806511,36.925507C53.667519,39.511272,49.1367,39.511272,45.997707,36.925503C42.858711,34.339729,41.991127,29.892754,43.927975,26.316708"
     id="path7559" />
  <path
     transform="matrix(-0,1,1,0,-469.865021,294.098053)"
     style="stroke:#ff0000;stroke-width:0.05mm;fill:none"
     d="M49.152111,21.86483L53.652111,21.86483L53.652111,17.36483L49.152111,17.36483L49.152111,21.86483z"
     id="path7561" />
  <circle
     transform="matrix(-0,1,1,0,-409.500031,345.500031)"
     style="stroke:#ff0000;stroke-width:0.05mm;fill:none"
     r="4"
     cx="0"
     cy="0"
     id="circle7563" />
  <path
     transform="matrix(-0,1,1,0,-439.865021,294.098053)"
     style="stroke:#000000;stroke-width:0.05mm;fill:none"
     d="M43.927975,26.316711C44.403221,25.439251,44.652111,24.457111,44.652111,23.459215L44.652111,18.86483C44.652111,15.551121,47.338402,12.86483,50.652111,12.86483L52.152111,12.86483C55.46582,12.864831,58.152111,15.551124,58.152111,18.864832L58.152111,23.459215C58.152115,24.457111,58.401005,25.439249,58.876251,26.316711C60.813095,29.892759,59.945507,34.339737,56.806511,36.925507C53.667519,39.511272,49.1367,39.511272,45.997707,36.925503C42.858711,34.339729,41.991127,29.892754,43.927975,26.316708"
     id="path7565" />
  <path
     transform="matrix(-0,1,1,0,-439.865021,294.098053)"
     style="stroke:#ff0000;stroke-width:0.05mm;fill:none"
     d="M49.152111,21.86483L53.652111,21.86483L53.652111,17.36483L49.152111,17.36483L49.152111,21.86483z"
     id="path7567" />
  <circle
     transform="matrix(-0,1,1,0,-469.500031,325.500031)"
     style="stroke:#ff0000;stroke-width:0.05mm;fill:none"
     r="4"
     cx="0"
     cy="0"
     id="circle7569" />
  <path
     transform="matrix(-0,1,1,0,-499.865021,274.098053)"
     style="stroke:#000000;stroke-width:0.05mm;fill:none"
     d="M43.927975,26.316711C44.403221,25.439251,44.652111,24.457111,44.652111,23.459215L44.652111,18.86483C44.652111,15.551121,47.338402,12.86483,50.652111,12.86483L52.152111,12.86483C55.46582,12.864831,58.152111,15.551124,58.152111,18.864832L58.152111,23.459215C58.152115,24.457111,58.401005,25.439249,58.876251,26.316711C60.813095,29.892759,59.945507,34.339737,56.806511,36.925507C53.667519,39.511272,49.1367,39.511272,45.997707,36.925503C42.858711,34.339729,41.991127,29.892754,43.927975,26.316708"
     id="path7571" />
  <path
     transform="matrix(-0,1,1,0,-499.865021,274.098053)"
     style="stroke:#ff0000;stroke-width:0.05mm;fill:none"
     d="M49.152111,21.86483L53.652111,21.86483L53.652111,17.36483L49.152111,17.36483L49.152111,21.86483z"
     id="path7573" />
  <circle
     transform="matrix(-0,1,1,0,-469.500031,385.500031)"
     style="stroke:#ff0000;stroke-width:0.05mm;fill:none"
     r="4"
     cx="0"
     cy="0"
     id="circle7575" />
  <path
     transform="matrix(-0,1,1,0,-499.865021,334.098053)"
     style="stroke:#000000;stroke-width:0.05mm;fill:none"
     d="M43.927975,26.316711C44.403221,25.439251,44.652111,24.457111,44.652111,23.459215L44.652111,18.86483C44.652111,15.551121,47.338402,12.86483,50.652111,12.86483L52.152111,12.86483C55.46582,12.864831,58.152111,15.551124,58.152111,18.864832L58.152111,23.459215C58.152115,24.457111,58.401005,25.439249,58.876251,26.316711C60.813095,29.892759,59.945507,34.339737,56.806511,36.925507C53.667519,39.511272,49.1367,39.511272,45.997707,36.925503C42.858711,34.339729,41.991127,29.892754,43.927975,26.316708"
     id="path7577" />
  <path
     transform="matrix(-0,1,1,0,-499.865021,334.098053)"
     style="stroke:#ff0000;stroke-width:0.05mm;fill:none"
     d="M49.152111,21.86483L53.652111,21.86483L53.652111,17.36483L49.152111,17.36483L49.152111,21.86483z"
     id="path7579" />
  <circle
     transform="matrix(-0,1,1,0,-409.500031,325.500031)"
     style="stroke:#ff0000;stroke-width:0.05mm;fill:none"
     r="4"
     cx="0"
     cy="0"
     id="circle7581" />
  <path
     transform="matrix(-0,1,1,0,-439.865021,274.098053)"
     style="stroke:#000000;stroke-width:0.05mm;fill:none"
     d="M43.927975,26.316711C44.403221,25.439251,44.652111,24.457111,44.652111,23.459215L44.652111,18.86483C44.652111,15.551121,47.338402,12.86483,50.652111,12.86483L52.152111,12.86483C55.46582,12.864831,58.152111,15.551124,58.152111,18.864832L58.152111,23.459215C58.152115,24.457111,58.401005,25.439249,58.876251,26.316711C60.813095,29.892759,59.945507,34.339737,56.806511,36.925507C53.667519,39.511272,49.1367,39.511272,45.997707,36.925503C42.858711,34.339729,41.991127,29.892754,43.927975,26.316708"
     id="path7583" />
  <path
     transform="matrix(-0,1,1,0,-439.865021,274.098053)"
     style="stroke:#ff0000;stroke-width:0.05mm;fill:none"
     d="M49.152111,21.86483L53.652111,21.86483L53.652111,17.36483L49.152111,17.36483L49.152111,21.86483z"
     id="path7585" />
  <circle
     transform="matrix(-0,1,1,0,-469.500031,405.500031)"
     style="stroke:#ff0000;stroke-width:0.05mm;fill:none"
     r="4"
     cx="0"
     cy="0"
     id="circle7587" />
  <path
     transform="matrix(-0,1,1,0,-499.865021,354.098053)"
     style="stroke:#000000;stroke-width:0.05mm;fill:none"
     d="M43.927975,26.316711C44.403221,25.439251,44.652111,24.457111,44.652111,23.459215L44.652111,18.86483C44.652111,15.551121,47.338402,12.86483,50.652111,12.86483L52.152111,12.86483C55.46582,12.864831,58.152111,15.551124,58.152111,18.864832L58.152111,23.459215C58.152115,24.457111,58.401005,25.439249,58.876251,26.316711C60.813095,29.892759,59.945507,34.339737,56.806511,36.925507C53.667519,39.511272,49.1367,39.511272,45.997707,36.925503C42.858711,34.339729,41.991127,29.892754,43.927975,26.316708"
     id="path7589" />
  <path
     transform="matrix(-0,1,1,0,-499.865021,354.098053)"
     style="stroke:#ff0000;stroke-width:0.05mm;fill:none"
     d="M49.152111,21.86483L53.652111,21.86483L53.652111,17.36483L49.152111,17.36483L49.152111,21.86483z"
     id="path7591" />
  <circle
     transform="matrix(-0,1,1,0,-409.500031,285.499847)"
     style="stroke:#ff0000;stroke-width:0.05mm;fill:none"
     r="4"
     cx="0"
     cy="0"
     id="circle7593" />
  <path
     transform="matrix(-0,1,1,0,-439.865021,234.097855)"
     style="stroke:#000000;stroke-width:0.05mm;fill:none"
     d="M43.927975,26.316711C44.403221,25.439251,44.652111,24.457111,44.652111,23.459215L44.652111,18.86483C44.652111,15.551121,47.338402,12.86483,50.652111,12.86483L52.152111,12.86483C55.46582,12.864831,58.152111,15.551124,58.152111,18.864832L58.152111,23.459215C58.152115,24.457111,58.401005,25.439249,58.876251,26.316711C60.813095,29.892759,59.945507,34.339737,56.806511,36.925507C53.667519,39.511272,49.1367,39.511272,45.997707,36.925503C42.858711,34.339729,41.991127,29.892754,43.927975,26.316708"
     id="path7595" />
  <path
     transform="matrix(-0,1,1,0,-439.865021,234.097855)"
     style="stroke:#ff0000;stroke-width:0.05mm;fill:none"
     d="M49.152111,21.86483L53.652111,21.86483L53.652111,17.36483L49.152111,17.36483L49.152111,21.86483z"
     id="path7597" />
  <circle
     transform="matrix(-0,1,1,0,-409.500031,405.500031)"
     style="stroke:#ff0000;stroke-width:0.05mm;fill:none"
     r="4"
     cx="0"
     cy="0"
     id="circle7599" />
  <path
     transform="matrix(-0,1,1,0,-439.865021,354.098053)"
     style="stroke:#000000;stroke-width:0.05mm;fill:none"
     d="M43.927975,26.316711C44.403221,25.439251,44.652111,24.457111,44.652111,23.459215L44.652111,18.86483C44.652111,15.551121,47.338402,12.86483,50.652111,12.86483L52.152111,12.86483C55.46582,12.864831,58.152111,15.551124,58.152111,18.864832L58.152111,23.459215C58.152115,24.457111,58.401005,25.439249,58.876251,26.316711C60.813095,29.892759,59.945507,34.339737,56.806511,36.925507C53.667519,39.511272,49.1367,39.511272,45.997707,36.925503C42.858711,34.339729,41.991127,29.892754,43.927975,26.316708"
     id="path7601" />
  <path
     transform="matrix(-0,1,1,0,-439.865021,354.098053)"
     style="stroke:#ff0000;stroke-width:0.05mm;fill:none"
     d="M49.152111,21.86483L53.652111,21.86483L53.652111,17.36483L49.152111,17.36483L49.152111,21.86483z"
     id="path7603" />
  <circle
     transform="matrix(-0,1,1,0,-439.500031,285.499847)"
     style="stroke:#ff0000;stroke-width:0.05mm;fill:none"
     r="4"
     cx="0"
     cy="0"
     id="circle7613" />
  <path
     transform="matrix(-0,1,1,0,-469.865021,234.097855)"
     style="stroke:#000000;stroke-width:0.05mm;fill:none"
     d="M43.927975,26.316711C44.403221,25.439251,44.652111,24.457111,44.652111,23.459215L44.652111,18.86483C44.652111,15.551121,47.338402,12.86483,50.652111,12.86483L52.152111,12.86483C55.46582,12.864831,58.152111,15.551124,58.152111,18.864832L58.152111,23.459215C58.152115,24.457111,58.401005,25.439249,58.876251,26.316711C60.813095,29.892759,59.945507,34.339737,56.806511,36.925507C53.667519,39.511272,49.1367,39.511272,45.997707,36.925503C42.858711,34.339729,41.991127,29.892754,43.927975,26.316708"
     id="path7615" />
  <path
     transform="matrix(-0,1,1,0,-469.865021,234.097855)"
     style="stroke:#ff0000;stroke-width:0.05mm;fill:none"
     d="M49.152111,21.86483L53.652111,21.86483L53.652111,17.36483L49.152111,17.36483L49.152111,21.86483z"
     id="path7617" />
  <circle
     transform="matrix(-0,1,1,0,-439.500031,265.499847)"
     style="stroke:#ff0000;stroke-width:0.05mm;fill:none"
     r="4"
     cx="0"
     cy="0"
     id="circle7619" />
  <path
     transform="matrix(-0,1,1,0,-469.865021,214.097855)"
     style="stroke:#000000;stroke-width:0.05mm;fill:none"
     d="M43.927975,26.316711C44.403221,25.439251,44.652111,24.457111,44.652111,23.459215L44.652111,18.86483C44.652111,15.551121,47.338402,12.86483,50.652111,12.86483L52.152111,12.86483C55.46582,12.864831,58.152111,15.551124,58.152111,18.864832L58.152111,23.459215C58.152115,24.457111,58.401005,25.439249,58.876251,26.316711C60.813095,29.892759,59.945507,34.339737,56.806511,36.925507C53.667519,39.511272,49.1367,39.511272,45.997707,36.925503C42.858711,34.339729,41.991127,29.892754,43.927975,26.316708"
     id="path7621" />
  <path
     transform="matrix(-0,1,1,0,-469.865021,214.097855)"
     style="stroke:#ff0000;stroke-width:0.05mm;fill:none"
     d="M49.152111,21.86483L53.652111,21.86483L53.652111,17.36483L49.152111,17.36483L49.152111,21.86483z"
     id="path7623" />
  <circle
     transform="matrix(-0,1,1,0,-439.500031,425.500031)"
     style="stroke:#ff0000;stroke-width:0.05mm;fill:none"
     r="4"
     cx="0"
     cy="0"
     id="circle7625" />
  <path
     transform="matrix(-0,1,1,0,-469.865021,374.098053)"
     style="stroke:#000000;stroke-width:0.05mm;fill:none"
     d="M43.927975,26.316711C44.403221,25.439251,44.652111,24.457111,44.652111,23.459215L44.652111,18.86483C44.652111,15.551121,47.338402,12.86483,50.652111,12.86483L52.152111,12.86483C55.46582,12.864831,58.152111,15.551124,58.152111,18.864832L58.152111,23.459215C58.152115,24.457111,58.401005,25.439249,58.876251,26.316711C60.813095,29.892759,59.945507,34.339737,56.806511,36.925507C53.667519,39.511272,49.1367,39.511272,45.997707,36.925503C42.858711,34.339729,41.991127,29.892754,43.927975,26.316708"
     id="path7627" />
  <path
     transform="matrix(-0,1,1,0,-469.865021,374.098053)"
     style="stroke:#ff0000;stroke-width:0.05mm;fill:none"
     d="M49.152111,21.86483L53.652111,21.86483L53.652111,17.36483L49.152111,17.36483L49.152111,21.86483z"
     id="path7629" />
  <circle
     transform="matrix(-0,1,1,0,-469.500031,265.499847)"
     style="stroke:#ff0000;stroke-width:0.05mm;fill:none"
     r="4"
     cx="0"
     cy="0"
     id="circle7631" />
  <path
     transform="matrix(-0,1,1,0,-499.865021,214.097855)"
     style="stroke:#000000;stroke-width:0.05mm;fill:none"
     d="M43.927975,26.316711C44.403221,25.439251,44.652111,24.457111,44.652111,23.459215L44.652111,18.86483C44.652111,15.551121,47.338402,12.86483,50.652111,12.86483L52.152111,12.86483C55.46582,12.864831,58.152111,15.551124,58.152111,18.864832L58.152111,23.459215C58.152115,24.457111,58.401005,25.439249,58.876251,26.316711C60.813095,29.892759,59.945507,34.339737,56.806511,36.925507C53.667519,39.511272,49.1367,39.511272,45.997707,36.925503C42.858711,34.339729,41.991127,29.892754,43.927975,26.316708"
     id="path7633" />
  <path
     transform="matrix(-0,1,1,0,-499.865021,214.097855)"
     style="stroke:#ff0000;stroke-width:0.05mm;fill:none"
     d="M49.152111,21.86483L53.652111,21.86483L53.652111,17.36483L49.152111,17.36483L49.152111,21.86483z"
     id="path7635" />
  <circle
     transform="matrix(-0,1,1,0,-439.500031,305.499847)"
     style="stroke:#ff0000;stroke-width:0.05mm;fill:none"
     r="4"
     cx="0"
     cy="0"
     id="circle7637" />
  <path
     transform="matrix(-0,1,1,0,-469.865021,254.097855)"
     style="stroke:#000000;stroke-width:0.05mm;fill:none"
     d="M43.927975,26.316711C44.403221,25.439251,44.652111,24.457111,44.652111,23.459215L44.652111,18.86483C44.652111,15.551121,47.338402,12.86483,50.652111,12.86483L52.152111,12.86483C55.46582,12.864831,58.152111,15.551124,58.152111,18.864832L58.152111,23.459215C58.152115,24.457111,58.401005,25.439249,58.876251,26.316711C60.813095,29.892759,59.945507,34.339737,56.806511,36.925507C53.667519,39.511272,49.1367,39.511272,45.997707,36.925503C42.858711,34.339729,41.991127,29.892754,43.927975,26.316708"
     id="path7639" />
  <path
     transform="matrix(-0,1,1,0,-469.865021,254.097855)"
     style="stroke:#ff0000;stroke-width:0.05mm;fill:none"
     d="M49.152111,21.86483L53.652111,21.86483L53.652111,17.36483L49.152111,17.36483L49.152111,21.86483z"
     id="path7641" />
  <circle
     transform="matrix(-0,1,1,0,-469.500031,425.500031)"
     style="stroke:#ff0000;stroke-width:0.05mm;fill:none"
     r="4"
     cx="0"
     cy="0"
     id="circle7667" />
  <path
     transform="matrix(-0,1,1,0,-499.865021,374.098053)"
     style="stroke:#000000;stroke-width:0.05mm;fill:none"
     d="M43.927975,26.316711C44.403221,25.439251,44.652111,24.457111,44.652111,23.459215L44.652111,18.86483C44.652111,15.551121,47.338402,12.86483,50.652111,12.86483L52.152111,12.86483C55.46582,12.864831,58.152111,15.551124,58.152111,18.864832L58.152111,23.459215C58.152115,24.457111,58.401005,25.439249,58.876251,26.316711C60.813095,29.892759,59.945507,34.339737,56.806511,36.925507C53.667519,39.511272,49.1367,39.511272,45.997707,36.925503C42.858711,34.339729,41.991127,29.892754,43.927975,26.316708"
     id="path7669" />
  <path
     transform="matrix(-0,1,1,0,-499.865021,374.098053)"
     style="stroke:#ff0000;stroke-width:0.05mm;fill:none"
     d="M49.152111,21.86483L53.652111,21.86483L53.652111,17.36483L49.152111,17.36483L49.152111,21.86483z"
     id="path7671" />
  <circle
     transform="matrix(-0,1,1,0,-469.500031,285.499847)"
     style="stroke:#ff0000;stroke-width:0.05mm;fill:none"
     r="4"
     cx="0"
     cy="0"
     id="circle7713" />
  <path
     transform="matrix(-0,1,1,0,-499.865021,234.097855)"
     style="stroke:#000000;stroke-width:0.05mm;fill:none"
     d="M43.927975,26.316711C44.403221,25.439251,44.652111,24.457111,44.652111,23.459215L44.652111,18.86483C44.652111,15.551121,47.338402,12.86483,50.652111,12.86483L52.152111,12.86483C55.46582,12.864831,58.152111,15.551124,58.152111,18.864832L58.152111,23.459215C58.152115,24.457111,58.401005,25.439249,58.876251,26.316711C60.813095,29.892759,59.945507,34.339737,56.806511,36.925507C53.667519,39.511272,49.1367,39.511272,45.997707,36.925503C42.858711,34.339729,41.991127,29.892754,43.927975,26.316708"
     id="path7715" />
  <path
     transform="matrix(-0,1,1,0,-499.865021,234.097855)"
     style="stroke:#ff0000;stroke-width:0.05mm;fill:none"
     d="M49.152111,21.86483L53.652111,21.86483L53.652111,17.36483L49.152111,17.36483L49.152111,21.86483z"
     id="path7717" />
  <circle
     transform="matrix(-0,1,1,0,-469.500031,365.500031)"
     style="stroke:#ff0000;stroke-width:0.05mm;fill:none"
     r="4"
     cx="0"
     cy="0"
     id="circle7727" />
  <path
     transform="matrix(-0,1,1,0,-499.865021,314.098053)"
     style="stroke:#000000;stroke-width:0.05mm;fill:none"
     d="M43.927975,26.316711C44.403221,25.439251,44.652111,24.457111,44.652111,23.459215L44.652111,18.86483C44.652111,15.551121,47.338402,12.86483,50.652111,12.86483L52.152111,12.86483C55.46582,12.864831,58.152111,15.551124,58.152111,18.864832L58.152111,23.459215C58.152115,24.457111,58.401005,25.439249,58.876251,26.316711C60.813095,29.892759,59.945507,34.339737,56.806511,36.925507C53.667519,39.511272,49.1367,39.511272,45.997707,36.925503C42.858711,34.339729,41.991127,29.892754,43.927975,26.316708"
     id="path7729" />
  <path
     transform="matrix(-0,1,1,0,-499.865021,314.098053)"
     style="stroke:#ff0000;stroke-width:0.05mm;fill:none"
     d="M49.152111,21.86483L53.652111,21.86483L53.652111,17.36483L49.152111,17.36483L49.152111,21.86483z"
     id="path7731" />
  <circle
     transform="matrix(-0,1,1,0,-439.500031,365.500031)"
     style="stroke:#ff0000;stroke-width:0.05mm;fill:none"
     r="4"
     cx="0"
     cy="0"
     id="circle7741" />
  <path
     transform="matrix(-0,1,1,0,-469.865021,314.098053)"
     style="stroke:#000000;stroke-width:0.05mm;fill:none"
     d="M43.927975,26.316711C44.403221,25.439251,44.652111,24.457111,44.652111,23.459215L44.652111,18.86483C44.652111,15.551121,47.338402,12.86483,50.652111,12.86483L52.152111,12.86483C55.46582,12.864831,58.152111,15.551124,58.152111,18.864832L58.152111,23.459215C58.152115,24.457111,58.401005,25.439249,58.876251,26.316711C60.813095,29.892759,59.945507,34.339737,56.806511,36.925507C53.667519,39.511272,49.1367,39.511272,45.997707,36.925503C42.858711,34.339729,41.991127,29.892754,43.927975,26.316708"
     id="path7743" />
  <path
     transform="matrix(-0,1,1,0,-469.865021,314.098053)"
     style="stroke:#ff0000;stroke-width:0.05mm;fill:none"
     d="M49.152111,21.86483L53.652111,21.86483L53.652111,17.36483L49.152111,17.36483L49.152111,21.86483z"
     id="path7745" />
  <circle
     transform="matrix(-0,1,1,0,-409.500031,385.500031)"
     style="stroke:#ff0000;stroke-width:0.05mm;fill:none"
     r="4"
     cx="0"
     cy="0"
     id="circle7747" />
  <path
     transform="matrix(-0,1,1,0,-439.865021,334.098053)"
     style="stroke:#000000;stroke-width:0.05mm;fill:none"
     d="M43.927975,26.316711C44.403221,25.439251,44.652111,24.457111,44.652111,23.459215L44.652111,18.86483C44.652111,15.551121,47.338402,12.86483,50.652111,12.86483L52.152111,12.86483C55.46582,12.864831,58.152111,15.551124,58.152111,18.864832L58.152111,23.459215C58.152115,24.457111,58.401005,25.439249,58.876251,26.316711C60.813095,29.892759,59.945507,34.339737,56.806511,36.925507C53.667519,39.511272,49.1367,39.511272,45.997707,36.925503C42.858711,34.339729,41.991127,29.892754,43.927975,26.316708"
     id="path7749" />
  <path
     transform="matrix(-0,1,1,0,-439.865021,334.098053)"
     style="stroke:#ff0000;stroke-width:0.05mm;fill:none"
     d="M49.152111,21.86483L53.652111,21.86483L53.652111,17.36483L49.152111,17.36483L49.152111,21.86483z"
     id="path7751" />
</svg>
