<?xml version="1.0" encoding="UTF-8" standalone="no"?>
<!-- Created with Inkscape (http://www.inkscape.org/) -->

<svg
   width="297mm"
   height="210mm"
   viewBox="0 0 297 210"
   version="1.1"
   id="svg5"
   sodipodi:docname="axis.svg"
   inkscape:version="1.2.1 (9c6d41e, 2022-07-14)"
   xmlns:inkscape="http://www.inkscape.org/namespaces/inkscape"
   xmlns:sodipodi="http://sodipodi.sourceforge.net/DTD/sodipodi-0.dtd"
   xmlns="http://www.w3.org/2000/svg"
   xmlns:svg="http://www.w3.org/2000/svg">
  <sodipodi:namedview
     id="namedview16353"
     pagecolor="#ffffff"
     bordercolor="#000000"
     borderopacity="0.25"
     inkscape:showpageshadow="2"
     inkscape:pageopacity="0.0"
     inkscape:pagecheckerboard="0"
     inkscape:deskcolor="#d1d1d1"
     inkscape:document-units="mm"
     showgrid="false"
     inkscape:zoom="0.32346812"
     inkscape:cx="-932.08567"
     inkscape:cy="997.00706"
     inkscape:window-width="2560"
     inkscape:window-height="1387"
     inkscape:window-x="0"
     inkscape:window-y="215"
     inkscape:window-maximized="1"
     inkscape:current-layer="svg5" />
  <defs
     id="defs2" />
  <g
     id="layer1"
     transform="translate(43.351773,-48.259521)">
    <g
       id="g5966"
       transform="translate(361.66744,432.13571)">
      <path
         transform="matrix(0,0.999999,0.999999,0,-626.15698,-805.258)"
         style="fill:none;stroke:#ff0000;stroke-width:0.05mm"
         d="M 502.36963,452.73379 V 442.73254"
         id="path982" />
      <path
         transform="matrix(0,0.999999,0.999999,0,-626.15698,-805.258)"
         style="fill:none;stroke:#ff0000;stroke-width:0.05mm"
         d="m 506.31988,442.73254 h -3.95025"
         id="path984" />
      <path
         transform="matrix(0,0.999999,0.999999,0,-626.15698,-805.258)"
         style="fill:none;stroke:#ff0000;stroke-width:0.05mm"
         d="M 506.31988,452.73379 V 442.73254"
         id="path986" />
      <path
         transform="matrix(0,0.999999,0.999999,0,-626.15698,-805.258)"
         style="fill:none;stroke:#ff0000;stroke-width:0.05mm"
         d="m 506.31988,452.73379 h -3.95025"
         id="path988" />
      <path
         transform="matrix(0,0.999999,0.999999,0,-626.15698,-805.258)"
         style="fill:none;stroke:#ff0000;stroke-width:0.05mm"
         d="m 505.06897,458.4588 c 0,0.40042 -0.32458,0.72501 -0.72498,0.72501 -0.40039,0 -0.72497,-0.32459 -0.725,-0.72501 3e-5,-0.40039 0.32461,-0.72497 0.725,-0.72497 0.4004,0 0.72498,0.32458 0.72498,0.72497 z"
         id="path990" />
      <path
         transform="matrix(0,0.999999,0.999999,0,-626.15698,-805.258)"
         style="fill:none;stroke:#ff0000;stroke-width:0.05mm"
         d="m 505.06897,432.4588 c 0,0.40039 -0.32458,0.72498 -0.72498,0.72498 -0.40039,0 -0.72497,-0.32459 -0.725,-0.72498 3e-5,-0.40042 0.32461,-0.72501 0.725,-0.72501 0.4004,0 0.72498,0.32459 0.72498,0.72501 z"
         id="path992" />
      <path
         transform="matrix(0,0.999999,0.999999,0,-626.15698,-805.258)"
         style="fill:none;stroke:#ff0000;stroke-width:0.05mm"
         d="m 498.09399,311.95883 c 0,0.69034 -0.55963,1.24997 -1.25,1.24997 -0.69037,0 -1.24997,-0.55963 -1.25,-1.24997 3e-5,-0.69037 0.55963,-1.25 1.25,-1.25 0.69037,0 1.25,0.55963 1.25,1.25 z"
         id="path994" />
      <path
         transform="matrix(0,0.999999,0.999999,0,-626.15698,-805.258)"
         style="fill:none;stroke:#ff0000;stroke-width:0.05mm"
         d="m 513.09399,311.95883 c 0,0.69034 -0.55963,1.24997 -1.25,1.24997 -0.69037,0 -1.25,-0.55963 -1.25003,-1.24997 3e-5,-0.69037 0.55966,-1.25 1.25003,-1.25 0.69037,0 1.25,0.55963 1.25,1.25 z"
         id="path996" />
      <path
         transform="matrix(0,0.999999,0.999999,0,-626.15698,-805.258)"
         style="fill:none;stroke:#ff0000;stroke-width:0.05mm"
         d="m 505.34399,414.9588 c 0,0.55228 -0.44769,1 -1,1 -0.55227,0 -1,-0.44772 -1,-1 0,-0.55231 0.44773,-1 1,-1 0.55231,0 1,0.44769 1,1 z"
         id="path998" />
      <path
         transform="matrix(0,0.999999,0.999999,0,-626.15698,-805.258)"
         style="fill:none;stroke:#000000;stroke-width:0.05mm"
         d="m 516.84503,465.24863 h -4.50061"
         id="path1000" />
      <path
         transform="matrix(0,0.999999,0.999999,0,-626.15698,-805.258)"
         style="fill:none;stroke:#000000;stroke-width:0.05mm"
         d="m 512.34442,451.51144 v 13.73719"
         id="path1002" />
      <path
         transform="matrix(0,0.999999,0.999999,0,-626.15698,-805.258)"
         style="fill:none;stroke:#000000;stroke-width:0.05mm"
         d="m 516.84503,451.51144 h -4.50061"
         id="path1004" />
      <path
         transform="matrix(0,0.999999,0.999999,0,-626.15698,-805.258)"
         style="fill:none;stroke:#000000;stroke-width:0.05mm"
         d="M 516.84503,451.51144 V 437.77426"
         id="path1006" />
      <path
         transform="matrix(0,0.999999,0.999999,0,-626.15698,-805.258)"
         style="fill:none;stroke:#000000;stroke-width:0.05mm"
         d="m 516.84503,437.77426 h -4.50061"
         id="path1008" />
      <path
         transform="matrix(0,0.999999,0.999999,0,-626.15698,-805.258)"
         style="fill:none;stroke:#000000;stroke-width:0.05mm"
         d="m 512.34442,424.03711 v 13.73715"
         id="path1010" />
      <path
         transform="matrix(0,0.999999,0.999999,0,-626.15698,-805.258)"
         style="fill:none;stroke:#000000;stroke-width:0.05mm"
         d="m 516.84503,424.03711 h -4.50061"
         id="path1012" />
      <path
         transform="matrix(0,0.999999,0.999999,0,-626.15698,-805.258)"
         style="fill:none;stroke:#000000;stroke-width:0.05mm"
         d="M 516.84503,424.03711 V 410.29993"
         id="path1014" />
      <path
         transform="matrix(0,0.999999,0.999999,0,-626.15698,-805.258)"
         style="fill:none;stroke:#000000;stroke-width:0.05mm"
         d="m 516.84503,410.29993 h -4.50061"
         id="path1016" />
      <path
         transform="matrix(0,0.999999,0.999999,0,-626.15698,-805.258)"
         style="fill:none;stroke:#000000;stroke-width:0.05mm"
         d="m 512.34442,396.56274 v 13.73719"
         id="path1018" />
      <path
         transform="matrix(0,0.999999,0.999999,0,-626.15698,-805.258)"
         style="fill:none;stroke:#000000;stroke-width:0.05mm"
         d="m 516.84503,396.56274 h -4.50061"
         id="path1020" />
      <path
         transform="matrix(0,0.999999,0.999999,0,-626.15698,-805.258)"
         style="fill:none;stroke:#000000;stroke-width:0.05mm"
         d="M 516.84503,396.56274 V 382.82825"
         id="path1022" />
      <path
         transform="matrix(0,0.999999,0.999999,0,-626.15698,-805.258)"
         style="fill:none;stroke:#000000;stroke-width:0.05mm"
         d="m 516.84503,382.82825 h -4.50061"
         id="path1024" />
      <path
         transform="matrix(0,0.999999,0.999999,0,-626.15698,-805.258)"
         style="fill:none;stroke:#000000;stroke-width:0.05mm"
         d="m 512.34442,369.09109 v 13.73716"
         id="path1026" />
      <path
         transform="matrix(0,0.999999,0.999999,0,-626.15698,-805.258)"
         style="fill:none;stroke:#000000;stroke-width:0.05mm"
         d="m 516.84503,369.09109 h -4.50061"
         id="path1028" />
      <path
         transform="matrix(0,0.999999,0.999999,0,-626.15698,-805.258)"
         style="fill:none;stroke:#000000;stroke-width:0.05mm"
         d="M 516.84503,369.09109 V 355.35391"
         id="path1030" />
      <path
         transform="matrix(0,0.999999,0.999999,0,-626.15698,-805.258)"
         style="fill:none;stroke:#000000;stroke-width:0.05mm"
         d="m 516.84503,355.35391 h -4.50061"
         id="path1032" />
      <path
         transform="matrix(0,0.999999,0.999999,0,-626.15698,-805.258)"
         style="fill:none;stroke:#000000;stroke-width:0.05mm"
         d="m 512.34442,341.61676 v 13.73715"
         id="path1034" />
      <path
         transform="matrix(0,0.999999,0.999999,0,-626.15698,-805.258)"
         style="fill:none;stroke:#000000;stroke-width:0.05mm"
         d="m 516.84503,341.61676 h -4.50061"
         id="path1036" />
      <path
         transform="matrix(0,0.999999,0.999999,0,-626.15698,-805.258)"
         style="fill:none;stroke:#000000;stroke-width:0.05mm"
         d="M 516.84503,341.61676 V 327.87958"
         id="path1038" />
      <path
         transform="matrix(0,0.999999,0.999999,0,-626.15698,-805.258)"
         style="fill:none;stroke:#000000;stroke-width:0.05mm"
         d="m 516.84503,327.87958 h -4.50061"
         id="path1040" />
      <path
         transform="matrix(0,0.999999,0.999999,0,-626.15698,-805.258)"
         style="fill:none;stroke:#000000;stroke-width:0.05mm"
         d="m 512.34442,314.14243 v 13.73715"
         id="path1042" />
      <path
         transform="matrix(0,0.999999,0.999999,0,-626.15698,-805.258)"
         style="fill:none;stroke:#000000;stroke-width:0.05mm"
         d="m 516.84503,314.14243 h -4.50061"
         id="path1044" />
      <path
         transform="matrix(0,0.999999,0.999999,0,-626.15698,-805.258)"
         style="fill:none;stroke:#000000;stroke-width:0.05mm"
         d="M 516.84503,314.14243 V 300.40527"
         id="path1046" />
      <path
         transform="matrix(0,0.999999,0.999999,0,-626.15698,-805.258)"
         style="fill:none;stroke:#000000;stroke-width:0.05mm"
         d="m 516.84503,300.40527 h -4.50061"
         id="path1048" />
      <path
         transform="matrix(0,0.999999,0.999999,0,-626.15698,-805.258)"
         style="fill:none;stroke:#000000;stroke-width:0.05mm"
         d="m 512.34442,286.66809 v 13.73718"
         id="path1050" />
      <path
         transform="matrix(0,0.999999,0.999999,0,-626.15698,-805.258)"
         style="fill:none;stroke:#000000;stroke-width:0.05mm"
         d="m 516.84503,286.66809 h -4.50061"
         id="path1052" />
      <path
         transform="matrix(0,0.999999,0.999999,0,-626.15698,-805.258)"
         style="fill:none;stroke:#000000;stroke-width:0.05mm"
         d="m 516.84503,286.66809 v -13.7345"
         id="path1054" />
      <path
         transform="matrix(0,0.999999,0.999999,0,-626.15698,-805.258)"
         style="fill:none;stroke:#000000;stroke-width:0.05mm"
         d="m 516.84503,272.93359 h -4.50061"
         id="path1056" />
      <path
         transform="matrix(0,0.999999,0.999999,0,-626.15698,-805.258)"
         style="fill:none;stroke:#000000;stroke-width:0.05mm"
         d="m 512.34442,259.19562 v 13.73797"
         id="path1058" />
      <path
         transform="matrix(0,0.999999,0.999999,0,-626.15698,-805.258)"
         style="fill:none;stroke:#000000;stroke-width:0.05mm"
         d="m 516.84503,259.19562 h -4.50061"
         id="path1060" />
      <path
         transform="matrix(0,0.999999,0.999999,0,-626.15698,-805.258)"
         style="fill:none;stroke:#000000;stroke-width:0.05mm"
         d="M 516.84503,259.19562 V 245.45871"
         id="path1062" />
      <path
         transform="matrix(0,0.999999,0.999999,0,-626.15698,-805.258)"
         style="fill:none;stroke:#000000;stroke-width:0.05mm"
         d="m 491.84451,245.45871 h 25.00052"
         id="path1064" />
      <path
         transform="matrix(0,0.999999,0.999999,0,-626.15698,-805.258)"
         style="fill:none;stroke:#000000;stroke-width:0.05mm"
         d="M 491.84451,259.19562 V 245.45871"
         id="path1066" />
      <path
         transform="matrix(0,0.999999,0.999999,0,-626.15698,-805.258)"
         style="fill:none;stroke:#000000;stroke-width:0.05mm"
         d="m 491.84451,259.19562 h 4.50055"
         id="path1068" />
      <path
         transform="matrix(0,0.999999,0.999999,0,-626.15698,-805.258)"
         style="fill:none;stroke:#000000;stroke-width:0.05mm"
         d="M 496.34506,272.93359 V 259.19562"
         id="path1070" />
      <path
         transform="matrix(0,0.999999,0.999999,0,-626.15698,-805.258)"
         style="fill:none;stroke:#000000;stroke-width:0.05mm"
         d="m 491.84451,272.93359 h 4.50055"
         id="path1072" />
      <path
         transform="matrix(0,0.999999,0.999999,0,-626.15698,-805.258)"
         style="fill:none;stroke:#000000;stroke-width:0.05mm"
         d="m 491.84451,286.66809 v -13.7345"
         id="path1074" />
      <path
         transform="matrix(0,0.999999,0.999999,0,-626.15698,-805.258)"
         style="fill:none;stroke:#000000;stroke-width:0.05mm"
         d="m 491.84451,286.66809 h 4.50055"
         id="path1076" />
      <path
         transform="matrix(0,0.999999,0.999999,0,-626.15698,-805.258)"
         style="fill:none;stroke:#000000;stroke-width:0.05mm"
         d="M 496.34506,300.40527 V 286.66809"
         id="path1078" />
      <path
         transform="matrix(0,0.999999,0.999999,0,-626.15698,-805.258)"
         style="fill:none;stroke:#000000;stroke-width:0.05mm"
         d="m 491.84451,300.40527 h 4.50055"
         id="path1080" />
      <path
         transform="matrix(0,0.999999,0.999999,0,-626.15698,-805.258)"
         style="fill:none;stroke:#000000;stroke-width:0.05mm"
         d="M 491.84451,314.14243 V 300.40527"
         id="path1082" />
      <path
         transform="matrix(0,0.999999,0.999999,0,-626.15698,-805.258)"
         style="fill:none;stroke:#000000;stroke-width:0.05mm"
         d="m 491.84451,314.14243 h 4.50055"
         id="path1084" />
      <path
         transform="matrix(0,0.999999,0.999999,0,-626.15698,-805.258)"
         style="fill:none;stroke:#000000;stroke-width:0.05mm"
         d="M 496.34506,327.87958 V 314.14243"
         id="path1086" />
      <path
         transform="matrix(0,0.999999,0.999999,0,-626.15698,-805.258)"
         style="fill:none;stroke:#000000;stroke-width:0.05mm"
         d="m 491.84451,327.87958 h 4.50055"
         id="path1088" />
      <path
         transform="matrix(0,0.999999,0.999999,0,-626.15698,-805.258)"
         style="fill:none;stroke:#000000;stroke-width:0.05mm"
         d="M 491.84451,341.61676 V 327.87958"
         id="path1090" />
      <path
         transform="matrix(0,0.999999,0.999999,0,-626.15698,-805.258)"
         style="fill:none;stroke:#000000;stroke-width:0.05mm"
         d="m 491.84451,341.61676 h 4.50055"
         id="path1092" />
      <path
         transform="matrix(0,0.999999,0.999999,0,-626.15698,-805.258)"
         style="fill:none;stroke:#000000;stroke-width:0.05mm"
         d="M 496.34506,355.35391 V 341.61676"
         id="path1094" />
      <path
         transform="matrix(0,0.999999,0.999999,0,-626.15698,-805.258)"
         style="fill:none;stroke:#000000;stroke-width:0.05mm"
         d="m 491.84451,355.35391 h 4.50055"
         id="path1096" />
      <path
         transform="matrix(0,0.999999,0.999999,0,-626.15698,-805.258)"
         style="fill:none;stroke:#000000;stroke-width:0.05mm"
         d="M 491.84451,369.09109 V 355.35391"
         id="path1098" />
      <path
         transform="matrix(0,0.999999,0.999999,0,-626.15698,-805.258)"
         style="fill:none;stroke:#000000;stroke-width:0.05mm"
         d="m 491.84451,369.09109 h 4.50055"
         id="path1100" />
      <path
         transform="matrix(0,0.999999,0.999999,0,-626.15698,-805.258)"
         style="fill:none;stroke:#000000;stroke-width:0.05mm"
         d="M 496.34506,382.82825 V 369.09109"
         id="path1102" />
      <path
         transform="matrix(0,0.999999,0.999999,0,-626.15698,-805.258)"
         style="fill:none;stroke:#000000;stroke-width:0.05mm"
         d="m 491.84451,382.82825 h 4.50055"
         id="path1104" />
      <path
         transform="matrix(0,0.999999,0.999999,0,-626.15698,-805.258)"
         style="fill:none;stroke:#000000;stroke-width:0.05mm"
         d="M 491.84451,396.56274 V 382.82825"
         id="path1106" />
      <path
         transform="matrix(0,0.999999,0.999999,0,-626.15698,-805.258)"
         style="fill:none;stroke:#000000;stroke-width:0.05mm"
         d="m 491.84451,396.56274 h 4.50055"
         id="path1108" />
      <path
         transform="matrix(0,0.999999,0.999999,0,-626.15698,-805.258)"
         style="fill:none;stroke:#000000;stroke-width:0.05mm"
         d="M 496.34506,410.29993 V 396.56274"
         id="path1110" />
      <path
         transform="matrix(0,0.999999,0.999999,0,-626.15698,-805.258)"
         style="fill:none;stroke:#000000;stroke-width:0.05mm"
         d="m 491.84451,410.29993 h 4.50055"
         id="path1112" />
      <path
         transform="matrix(0,0.999999,0.999999,0,-626.15698,-805.258)"
         style="fill:none;stroke:#000000;stroke-width:0.05mm"
         d="M 491.84451,424.03711 V 410.29993"
         id="path1114" />
      <path
         transform="matrix(0,0.999999,0.999999,0,-626.15698,-805.258)"
         style="fill:none;stroke:#000000;stroke-width:0.05mm"
         d="m 491.84451,424.03711 h 4.50055"
         id="path1116" />
      <path
         transform="matrix(0,0.999999,0.999999,0,-626.15698,-805.258)"
         style="fill:none;stroke:#000000;stroke-width:0.05mm"
         d="M 496.34506,437.77426 V 424.03711"
         id="path1118" />
      <path
         transform="matrix(0,0.999999,0.999999,0,-626.15698,-805.258)"
         style="fill:none;stroke:#000000;stroke-width:0.05mm"
         d="m 491.84451,437.77426 h 4.50055"
         id="path1120" />
      <path
         transform="matrix(0,0.999999,0.999999,0,-626.15698,-805.258)"
         style="fill:none;stroke:#000000;stroke-width:0.05mm"
         d="M 491.84451,451.51144 V 437.77426"
         id="path1122" />
      <path
         transform="matrix(0,0.999999,0.999999,0,-626.15698,-805.258)"
         style="fill:none;stroke:#000000;stroke-width:0.05mm"
         d="m 491.84451,451.51144 h 4.50055"
         id="path1124" />
      <path
         transform="matrix(0,0.999999,0.999999,0,-626.15698,-805.258)"
         style="fill:none;stroke:#000000;stroke-width:0.05mm"
         d="M 496.34506,465.24863 V 451.51144"
         id="path1126" />
      <path
         transform="matrix(0,0.999999,0.999999,0,-626.15698,-805.258)"
         style="fill:none;stroke:#000000;stroke-width:0.05mm"
         d="m 491.84451,465.24863 h 4.50055"
         id="path1128" />
      <path
         transform="matrix(0,0.999999,0.999999,0,-626.15698,-805.258)"
         style="fill:none;stroke:#000000;stroke-width:0.05mm"
         d="M 491.84451,478.98575 V 465.24863"
         id="path1130" />
      <path
         transform="matrix(0,0.999999,0.999999,0,-626.15698,-805.258)"
         style="fill:none;stroke:#000000;stroke-width:0.05mm"
         d="m 491.84451,478.98575 h 4.50055"
         id="path1132" />
      <path
         transform="matrix(0,0.999999,0.999999,0,-626.15698,-805.258)"
         style="fill:none;stroke:#000000;stroke-width:0.05mm"
         d="M 496.34506,492.72293 V 478.98575"
         id="path1134" />
      <path
         transform="matrix(0,0.999999,0.999999,0,-626.15698,-805.258)"
         style="fill:none;stroke:#000000;stroke-width:0.05mm"
         d="m 491.84451,492.72293 h 4.50055"
         id="path1136" />
      <path
         transform="matrix(0,0.999999,0.999999,0,-626.15698,-805.258)"
         style="fill:none;stroke:#000000;stroke-width:0.05mm"
         d="M 491.84451,506.46011 V 492.72293"
         id="path1138" />
      <path
         transform="matrix(0,0.999999,0.999999,0,-626.15698,-805.258)"
         style="fill:none;stroke:#000000;stroke-width:0.05mm"
         d="m 491.84451,506.46011 h 25.00052"
         id="path1140" />
      <path
         transform="matrix(0,0.999999,0.999999,0,-626.15698,-805.258)"
         style="fill:none;stroke:#000000;stroke-width:0.05mm"
         d="M 516.84503,506.46011 V 492.72293"
         id="path1142" />
      <path
         transform="matrix(0,0.999999,0.999999,0,-626.15698,-805.258)"
         style="fill:none;stroke:#000000;stroke-width:0.05mm"
         d="m 516.84503,492.72293 h -4.50061"
         id="path1144" />
      <path
         transform="matrix(0,0.999999,0.999999,0,-626.15698,-805.258)"
         style="fill:none;stroke:#000000;stroke-width:0.05mm"
         d="m 512.34442,478.98575 v 13.73718"
         id="path1146" />
      <path
         transform="matrix(0,0.999999,0.999999,0,-626.15698,-805.258)"
         style="fill:none;stroke:#000000;stroke-width:0.05mm"
         d="m 516.84503,478.98575 h -4.50061"
         id="path1148" />
      <path
         transform="matrix(0,0.999999,0.999999,0,-626.15698,-805.258)"
         style="fill:none;stroke:#000000;stroke-width:0.05mm"
         d="M 516.84503,478.98575 V 465.24863"
         id="path1150" />
      <path
         transform="matrix(0,0.999999,0.999999,0,-626.15698,-805.258)"
         style="fill:none;stroke:#ff0000;stroke-width:0.05mm"
         d="m 505.34399,391.9588 c 0,0.55231 -0.44769,1 -1,1 -0.55227,0 -1,-0.44769 -1,-1 0,-0.55228 0.44773,-1 1,-1 0.55231,0 1,0.44772 1,1 z"
         id="path1152" />
      <path
         transform="matrix(0,0.999999,0.999999,0,-626.15698,-805.258)"
         style="fill:none;stroke:#ff0000;stroke-width:0.05mm"
         d="m 505.34399,335.9588 c 0,0.55231 -0.44769,1 -1,1 -0.55227,0 -1,-0.44769 -1,-1 0,-0.55228 0.44773,-1 1,-1 0.55231,0 1,0.44772 1,1 z"
         id="path1154" />
      <path
         transform="matrix(0,0.999999,0.999999,0,-626.15698,-805.258)"
         style="fill:none;stroke:#ff0000;stroke-width:0.05mm"
         d="m 505.06897,272.9588 c 0,0.40039 -0.32458,0.72501 -0.72498,0.72501 -0.40039,0 -0.72497,-0.32462 -0.725,-0.72501 3e-5,-0.40039 0.32461,-0.72497 0.725,-0.72497 0.4004,0 0.72498,0.32458 0.72498,0.72497 z"
         id="path1156" />
      <path
         transform="matrix(0,0.999999,0.999999,0,-626.15698,-805.258)"
         style="fill:none;stroke:#ff0000;stroke-width:0.05mm"
         d="m 505.06897,298.9588 c 0,0.40039 -0.32458,0.72498 -0.72498,0.72498 -0.40039,0 -0.72497,-0.32459 -0.725,-0.72498 3e-5,-0.40039 0.32461,-0.72497 0.725,-0.72497 0.4004,0 0.72498,0.32458 0.72498,0.72497 z"
         id="path1158" />
      <path
         transform="matrix(0,0.999999,0.999999,0,-626.15698,-805.258)"
         style="fill:none;stroke:#ff0000;stroke-width:0.05mm"
         d="M 503.11844,293.68484 V 283.68356"
         id="path1160" />
      <path
         transform="matrix(0,0.999999,0.999999,0,-626.15698,-805.258)"
         style="fill:none;stroke:#ff0000;stroke-width:0.05mm"
         d="m 503.11844,283.68356 h 2.45004"
         id="path1162" />
      <path
         transform="matrix(0,0.999999,0.999999,0,-626.15698,-805.258)"
         style="fill:none;stroke:#ff0000;stroke-width:0.05mm"
         d="M 505.56848,293.68484 V 283.68356"
         id="path1164" />
      <path
         transform="matrix(0,0.999999,0.999999,0,-626.15698,-805.258)"
         style="fill:none;stroke:#ff0000;stroke-width:0.05mm"
         d="m 503.11844,293.68484 h 2.45004"
         id="path1166" />
      <path
         transform="matrix(0,0.999999,0.999999,0,-626.15698,-805.258)"
         style="fill:none;stroke:#ff0000;stroke-width:0.05mm"
         d="M 528.43372,452.83435 V 442.8331"
         id="path1168" />
      <path
         transform="matrix(0,0.999999,0.999999,0,-626.15698,-805.258)"
         style="fill:none;stroke:#ff0000;stroke-width:0.05mm"
         d="m 532.38397,442.8331 h -3.95025"
         id="path1170" />
      <path
         transform="matrix(0,0.999999,0.999999,0,-626.15698,-805.258)"
         style="fill:none;stroke:#ff0000;stroke-width:0.05mm"
         d="M 532.38397,452.83435 V 442.8331"
         id="path1172" />
      <path
         transform="matrix(0,0.999999,0.999999,0,-626.15698,-805.258)"
         style="fill:none;stroke:#ff0000;stroke-width:0.05mm"
         d="m 532.38397,452.83435 h -3.95025"
         id="path1174" />
      <path
         transform="matrix(0,0.999999,0.999999,0,-626.15698,-805.258)"
         style="fill:none;stroke:#ff0000;stroke-width:0.05mm"
         d="m 531.13275,458.55807 c 0,0.4004 -0.32458,0.72498 -0.72503,0.72498 -0.4004,0 -0.72498,-0.32458 -0.72498,-0.72498 0,-0.40039 0.32458,-0.725 0.72498,-0.725 0.40045,0 0.72503,0.32461 0.72503,0.725 z"
         id="path1176" />
      <path
         transform="matrix(0,0.999999,0.999999,0,-626.15698,-805.258)"
         style="fill:none;stroke:#ff0000;stroke-width:0.05mm"
         d="m 531.13275,432.55807 c 0,0.4004 -0.32458,0.72498 -0.72503,0.72498 -0.4004,0 -0.72498,-0.32458 -0.72498,-0.72498 0,-0.40039 0.32458,-0.725 0.72498,-0.725 0.40045,0 0.72503,0.32461 0.72503,0.725 z"
         id="path1178" />
      <path
         transform="matrix(0,0.999999,0.999999,0,-626.15698,-805.258)"
         style="fill:none;stroke:#ff0000;stroke-width:0.05mm"
         d="m 524.15778,312.05807 c 0,0.69037 -0.55963,1.24997 -1.25,1.24997 -0.69037,0 -1.25,-0.5596 -1.25,-1.24997 0,-0.69036 0.55963,-1.25 1.25,-1.25 0.69037,0 1.25,0.55964 1.25,1.25 z"
         id="path1180" />
      <path
         transform="matrix(0,0.999999,0.999999,0,-626.15698,-805.258)"
         style="fill:none;stroke:#ff0000;stroke-width:0.05mm"
         d="m 539.15778,312.05807 c -0.003,0.68821 -0.56177,1.24457 -1.25,1.24457 -0.68818,3e-5 -1.24701,-0.55633 -1.25,-1.24457 0.003,-0.6882 0.5617,-1.24456 1.25,-1.24456 0.68817,-3e-5 1.247,0.55633 1.25,1.24456 z"
         id="path1182" />
      <path
         transform="matrix(0,0.999999,0.999999,0,-626.15698,-805.258)"
         style="fill:none;stroke:#ff0000;stroke-width:0.05mm"
         d="m 531.40778,415.05807 c -10e-4,0.55143 -0.44855,0.99781 -1,0.99781 -0.5514,0 -0.99878,-0.44638 -1,-0.99781 10e-4,-0.55142 0.44854,-0.9978 1,-0.9978 0.55145,0 0.99878,0.44638 1,0.9978 z"
         id="path1184" />
      <path
         transform="matrix(0,0.999999,0.999999,0,-626.15698,-805.258)"
         style="fill:none;stroke:#ff0000;stroke-width:0.05mm"
         d="m 531.13275,299.05807 c 0,0.40043 -0.32458,0.72501 -0.72503,0.72501 -0.4004,0 -0.72498,-0.32458 -0.72498,-0.72501 0,-0.40039 0.32458,-0.72497 0.72498,-0.72497 0.40045,0 0.72503,0.32458 0.72503,0.72497 z"
         id="path1186" />
      <path
         transform="matrix(0,0.999999,0.999999,0,-626.15698,-805.258)"
         style="fill:none;stroke:#ff0000;stroke-width:0.05mm"
         d="m 531.13275,273.05807 c 0,0.4004 -0.32458,0.72498 -0.72503,0.72498 -0.4004,0 -0.72498,-0.32458 -0.72498,-0.72498 0,-0.40042 0.32458,-0.725 0.72498,-0.725 0.40045,0 0.72503,0.32458 0.72503,0.725 z"
         id="path1188" />
      <path
         transform="matrix(0,0.999999,0.999999,0,-626.15698,-805.258)"
         style="fill:none;stroke:#ff0000;stroke-width:0.05mm"
         d="m 531.40778,336.05804 c -10e-4,0.55143 -0.44855,0.99781 -1,0.99781 -0.5514,0 -0.99878,-0.44638 -1,-0.99781 10e-4,-0.55142 0.44854,-0.9978 1,-0.9978 0.55145,0 0.99878,0.44638 1,0.9978 z"
         id="path1190" />
      <path
         transform="matrix(0,0.999999,0.999999,0,-626.15698,-805.258)"
         style="fill:none;stroke:#ff0000;stroke-width:0.05mm"
         d="m 531.40778,392.05804 c -10e-4,0.55143 -0.44855,0.99784 -1,0.99784 -0.5514,0 -0.99878,-0.44641 -1,-0.99784 10e-4,-0.55139 0.44854,-0.9978 1,-0.9978 0.55145,0 0.99878,0.44641 1,0.9978 z"
         id="path1192" />
      <path
         transform="matrix(0,0.999999,0.999999,0,-626.15698,-805.258)"
         style="fill:none;stroke:#ff0000;stroke-width:0.05mm"
         d="m 531.63257,293.78274 h -2.45001"
         id="path1194" />
      <path
         transform="matrix(0,0.999999,0.999999,0,-626.15698,-805.258)"
         style="fill:none;stroke:#ff0000;stroke-width:0.05mm"
         d="m 529.18256,283.78412 v 9.99862"
         id="path1196" />
      <path
         transform="matrix(0,0.999999,0.999999,0,-626.15698,-805.258)"
         style="fill:none;stroke:#ff0000;stroke-width:0.05mm"
         d="m 531.63257,283.78412 h -2.45001"
         id="path1198" />
      <path
         transform="matrix(0,0.999999,0.999999,0,-626.15698,-805.258)"
         style="fill:none;stroke:#ff0000;stroke-width:0.05mm"
         d="m 531.63257,283.78412 v 9.99862"
         id="path1200" />
      <path
         transform="matrix(0,0.999999,0.999999,0,-626.15698,-805.258)"
         style="fill:none;stroke:#000000;stroke-width:0.05mm"
         d="M 538.40851,273.03149 V 259.29486"
         id="path1202" />
      <path
         transform="matrix(0,0.999999,0.999999,0,-626.15698,-805.258)"
         style="fill:none;stroke:#000000;stroke-width:0.05mm"
         d="m 542.90643,259.29483 h -4.49792"
         id="path1204" />
      <path
         transform="matrix(0,0.999999,0.999999,0,-626.15698,-805.258)"
         style="fill:none;stroke:#000000;stroke-width:0.05mm"
         d="M 542.90643,259.29483 V 245.5582"
         id="path1206" />
      <path
         transform="matrix(0,0.999999,0.999999,0,-626.15698,-805.258)"
         style="fill:none;stroke:#000000;stroke-width:0.05mm"
         d="m 517.90863,245.5582 h 24.9978"
         id="path1208" />
      <path
         transform="matrix(0,0.999999,0.999999,0,-626.15698,-805.258)"
         style="fill:none;stroke:#000000;stroke-width:0.05mm"
         d="M 517.90863,259.29483 V 245.5582"
         id="path1210" />
      <path
         transform="matrix(0,0.999999,0.999999,0,-626.15698,-805.258)"
         style="fill:none;stroke:#000000;stroke-width:0.05mm"
         d="m 517.90863,259.29483 h 4.49786"
         id="path1212" />
      <path
         transform="matrix(0,0.999999,0.999999,0,-626.15698,-805.258)"
         style="fill:none;stroke:#000000;stroke-width:0.05mm"
         d="m 522.40649,259.29483 v 13.73666"
         id="path1214" />
      <path
         transform="matrix(0,0.999999,0.999999,0,-626.15698,-805.258)"
         style="fill:none;stroke:#000000;stroke-width:0.05mm"
         d="m 517.90863,273.03149 h 4.49786"
         id="path1216" />
      <path
         transform="matrix(0,0.999999,0.999999,0,-626.15698,-805.258)"
         style="fill:none;stroke:#000000;stroke-width:0.05mm"
         d="M 517.90863,286.76862 V 273.03143"
         id="path1218" />
      <path
         transform="matrix(0,0.999999,0.999999,0,-626.15698,-805.258)"
         style="fill:none;stroke:#000000;stroke-width:0.05mm"
         d="m 517.90863,286.76862 h 4.49786"
         id="path1220" />
      <path
         transform="matrix(0,0.999999,0.999999,0,-626.15698,-805.258)"
         style="fill:none;stroke:#000000;stroke-width:0.05mm"
         d="M 522.40649,286.76862 V 300.5058"
         id="path1222" />
      <path
         transform="matrix(0,0.999999,0.999999,0,-626.15698,-805.258)"
         style="fill:none;stroke:#000000;stroke-width:0.05mm"
         d="m 517.90863,300.5058 h 4.49786"
         id="path1224" />
      <path
         transform="matrix(0,0.999999,0.999999,0,-626.15698,-805.258)"
         style="fill:none;stroke:#000000;stroke-width:0.05mm"
         d="M 517.90863,314.24295 V 300.50577"
         id="path1226" />
      <path
         transform="matrix(0,0.999999,0.999999,0,-626.15698,-805.258)"
         style="fill:none;stroke:#000000;stroke-width:0.05mm"
         d="m 517.90863,314.24295 h 4.49786"
         id="path1228" />
      <path
         transform="matrix(0,0.999999,0.999999,0,-626.15698,-805.258)"
         style="fill:none;stroke:#000000;stroke-width:0.05mm"
         d="m 522.40649,314.24295 v 13.73718"
         id="path1230" />
      <path
         transform="matrix(0,0.999999,0.999999,0,-626.15698,-805.258)"
         style="fill:none;stroke:#000000;stroke-width:0.05mm"
         d="m 517.90863,327.98013 h 4.49786"
         id="path1232" />
      <path
         transform="matrix(0,0.999999,0.999999,0,-626.15698,-805.258)"
         style="fill:none;stroke:#000000;stroke-width:0.05mm"
         d="M 517.90863,341.71466 V 327.98013"
         id="path1234" />
      <path
         transform="matrix(0,0.999999,0.999999,0,-626.15698,-805.258)"
         style="fill:none;stroke:#000000;stroke-width:0.05mm"
         d="m 517.90863,341.71466 h 4.49786"
         id="path1236" />
      <path
         transform="matrix(0,0.999999,0.999999,0,-626.15698,-805.258)"
         style="fill:none;stroke:#000000;stroke-width:0.05mm"
         d="m 522.40649,341.71466 v 13.73718"
         id="path1238" />
      <path
         transform="matrix(0,0.999999,0.999999,0,-626.15698,-805.258)"
         style="fill:none;stroke:#000000;stroke-width:0.05mm"
         d="m 517.90863,355.45181 h 4.49786"
         id="path1240" />
      <path
         transform="matrix(0,0.999999,0.999999,0,-626.15698,-805.258)"
         style="fill:none;stroke:#000000;stroke-width:0.05mm"
         d="M 517.90863,369.18896 V 355.45181"
         id="path1242" />
      <path
         transform="matrix(0,0.999999,0.999999,0,-626.15698,-805.258)"
         style="fill:none;stroke:#000000;stroke-width:0.05mm"
         d="m 517.90863,369.18896 h 4.49786"
         id="path1244" />
      <path
         transform="matrix(0,0.999999,0.999999,0,-626.15698,-805.258)"
         style="fill:none;stroke:#000000;stroke-width:0.05mm"
         d="m 522.40649,369.18896 v 13.73719"
         id="path1246" />
      <path
         transform="matrix(0,0.999999,0.999999,0,-626.15698,-805.258)"
         style="fill:none;stroke:#000000;stroke-width:0.05mm"
         d="m 517.90863,382.92615 h 4.49786"
         id="path1248" />
      <path
         transform="matrix(0,0.999999,0.999999,0,-626.15698,-805.258)"
         style="fill:none;stroke:#000000;stroke-width:0.05mm"
         d="M 517.90863,396.6633 V 382.92612"
         id="path1250" />
      <path
         transform="matrix(0,0.999999,0.999999,0,-626.15698,-805.258)"
         style="fill:none;stroke:#000000;stroke-width:0.05mm"
         d="m 517.90863,396.6633 h 4.49786"
         id="path1252" />
      <path
         transform="matrix(0,0.999999,0.999999,0,-626.15698,-805.258)"
         style="fill:none;stroke:#000000;stroke-width:0.05mm"
         d="m 522.40649,396.6633 v 13.73718"
         id="path1254" />
      <path
         transform="matrix(0,0.999999,0.999999,0,-626.15698,-805.258)"
         style="fill:none;stroke:#000000;stroke-width:0.05mm"
         d="m 517.90863,410.40048 h 4.49786"
         id="path1256" />
      <path
         transform="matrix(0,0.999999,0.999999,0,-626.15698,-805.258)"
         style="fill:none;stroke:#000000;stroke-width:0.05mm"
         d="M 517.90863,424.13767 V 410.40048"
         id="path1258" />
      <path
         transform="matrix(0,0.999999,0.999999,0,-626.15698,-805.258)"
         style="fill:none;stroke:#000000;stroke-width:0.05mm"
         d="m 517.90863,424.13767 h 4.49786"
         id="path1260" />
      <path
         transform="matrix(0,0.999999,0.999999,0,-626.15698,-805.258)"
         style="fill:none;stroke:#000000;stroke-width:0.05mm"
         d="m 522.40649,424.13767 v 13.73718"
         id="path1262" />
      <path
         transform="matrix(0,0.999999,0.999999,0,-626.15698,-805.258)"
         style="fill:none;stroke:#000000;stroke-width:0.05mm"
         d="m 517.90863,437.87479 h 4.49786"
         id="path1264" />
      <path
         transform="matrix(0,0.999999,0.999999,0,-626.15698,-805.258)"
         style="fill:none;stroke:#000000;stroke-width:0.05mm"
         d="M 517.90863,451.61197 V 437.87479"
         id="path1266" />
      <path
         transform="matrix(0,0.999999,0.999999,0,-626.15698,-805.258)"
         style="fill:none;stroke:#000000;stroke-width:0.05mm"
         d="m 517.90863,451.61197 h 4.49786"
         id="path1268" />
      <path
         transform="matrix(0,0.999999,0.999999,0,-626.15698,-805.258)"
         style="fill:none;stroke:#000000;stroke-width:0.05mm"
         d="M 522.40649,451.61197 V 465.3465"
         id="path1270" />
      <path
         transform="matrix(0,0.999999,0.999999,0,-626.15698,-805.258)"
         style="fill:none;stroke:#000000;stroke-width:0.05mm"
         d="m 517.90863,465.3465 h 4.49786"
         id="path1272" />
      <path
         transform="matrix(0,0.999999,0.999999,0,-626.15698,-805.258)"
         style="fill:none;stroke:#000000;stroke-width:0.05mm"
         d="M 517.90863,479.08365 V 465.34647"
         id="path1274" />
      <path
         transform="matrix(0,0.999999,0.999999,0,-626.15698,-805.258)"
         style="fill:none;stroke:#000000;stroke-width:0.05mm"
         d="m 517.90863,479.08365 h 4.49786"
         id="path1276" />
      <path
         transform="matrix(0,0.999999,0.999999,0,-626.15698,-805.258)"
         style="fill:none;stroke:#000000;stroke-width:0.05mm"
         d="m 522.40649,479.08365 v 13.73718"
         id="path1278" />
      <path
         transform="matrix(0,0.999999,0.999999,0,-626.15698,-805.258)"
         style="fill:none;stroke:#000000;stroke-width:0.05mm"
         d="m 517.90863,492.82083 h 4.49786"
         id="path1280" />
      <path
         transform="matrix(0,0.999999,0.999999,0,-626.15698,-805.258)"
         style="fill:none;stroke:#000000;stroke-width:0.05mm"
         d="M 517.90863,506.55801 V 492.82083"
         id="path1282" />
      <path
         transform="matrix(0,0.999999,0.999999,0,-626.15698,-805.258)"
         style="fill:none;stroke:#000000;stroke-width:0.05mm"
         d="m 517.90863,506.55801 h 24.9978"
         id="path1284" />
      <path
         transform="matrix(0,0.999999,0.999999,0,-626.15698,-805.258)"
         style="fill:none;stroke:#000000;stroke-width:0.05mm"
         d="m 542.90643,492.82083 h -4.49792"
         id="path1286" />
      <path
         transform="matrix(0,0.999999,0.999999,0,-626.15698,-805.258)"
         style="fill:none;stroke:#000000;stroke-width:0.05mm"
         d="M 538.40851,492.82083 V 479.08365"
         id="path1288" />
      <path
         transform="matrix(0,0.999999,0.999999,0,-626.15698,-805.258)"
         style="fill:none;stroke:#000000;stroke-width:0.05mm"
         d="m 542.90643,479.08365 h -4.49792"
         id="path1290" />
      <path
         transform="matrix(0,0.999999,0.999999,0,-626.15698,-805.258)"
         style="fill:none;stroke:#000000;stroke-width:0.05mm"
         d="M 542.90643,479.08365 V 465.34647"
         id="path1292" />
      <path
         transform="matrix(0,0.999999,0.999999,0,-626.15698,-805.258)"
         style="fill:none;stroke:#000000;stroke-width:0.05mm"
         d="m 542.90643,465.3465 h -4.49792"
         id="path1294" />
      <path
         transform="matrix(0,0.999999,0.999999,0,-626.15698,-805.258)"
         style="fill:none;stroke:#000000;stroke-width:0.05mm"
         d="M 538.40851,465.3465 V 451.61197"
         id="path1296" />
      <path
         transform="matrix(0,0.999999,0.999999,0,-626.15698,-805.258)"
         style="fill:none;stroke:#000000;stroke-width:0.05mm"
         d="m 542.90643,451.61197 h -4.49792"
         id="path1298" />
      <path
         transform="matrix(0,0.999999,0.999999,0,-626.15698,-805.258)"
         style="fill:none;stroke:#000000;stroke-width:0.05mm"
         d="M 542.90643,451.61197 V 437.87479"
         id="path1300" />
      <path
         transform="matrix(0,0.999999,0.999999,0,-626.15698,-805.258)"
         style="fill:none;stroke:#000000;stroke-width:0.05mm"
         d="m 542.90643,437.87479 h -4.49792"
         id="path1302" />
      <path
         transform="matrix(0,0.999999,0.999999,0,-626.15698,-805.258)"
         style="fill:none;stroke:#000000;stroke-width:0.05mm"
         d="M 538.40851,437.87479 V 424.13763"
         id="path1304" />
      <path
         transform="matrix(0,0.999999,0.999999,0,-626.15698,-805.258)"
         style="fill:none;stroke:#000000;stroke-width:0.05mm"
         d="m 542.90643,424.13767 h -4.49792"
         id="path1306" />
      <path
         transform="matrix(0,0.999999,0.999999,0,-626.15698,-805.258)"
         style="fill:none;stroke:#000000;stroke-width:0.05mm"
         d="M 542.90643,424.13767 V 410.40048"
         id="path1308" />
      <path
         transform="matrix(0,0.999999,0.999999,0,-626.15698,-805.258)"
         style="fill:none;stroke:#000000;stroke-width:0.05mm"
         d="m 542.90643,410.40048 h -4.49792"
         id="path1310" />
      <path
         transform="matrix(0,0.999999,0.999999,0,-626.15698,-805.258)"
         style="fill:none;stroke:#000000;stroke-width:0.05mm"
         d="M 538.40851,410.40048 V 396.6633"
         id="path1312" />
      <path
         transform="matrix(0,0.999999,0.999999,0,-626.15698,-805.258)"
         style="fill:none;stroke:#000000;stroke-width:0.05mm"
         d="m 542.90643,396.6633 h -4.49792"
         id="path1314" />
      <path
         transform="matrix(0,0.999999,0.999999,0,-626.15698,-805.258)"
         style="fill:none;stroke:#000000;stroke-width:0.05mm"
         d="M 542.90643,396.6633 V 382.92612"
         id="path1316" />
      <path
         transform="matrix(0,0.999999,0.999999,0,-626.15698,-805.258)"
         style="fill:none;stroke:#000000;stroke-width:0.05mm"
         d="m 542.90643,382.92615 h -4.49792"
         id="path1318" />
      <path
         transform="matrix(0,0.999999,0.999999,0,-626.15698,-805.258)"
         style="fill:none;stroke:#000000;stroke-width:0.05mm"
         d="M 538.40851,382.92615 V 369.18896"
         id="path1320" />
      <path
         transform="matrix(0,0.999999,0.999999,0,-626.15698,-805.258)"
         style="fill:none;stroke:#000000;stroke-width:0.05mm"
         d="m 542.90643,369.18896 h -4.49792"
         id="path1322" />
      <path
         transform="matrix(0,0.999999,0.999999,0,-626.15698,-805.258)"
         style="fill:none;stroke:#000000;stroke-width:0.05mm"
         d="M 542.90643,369.18896 V 355.45181"
         id="path1324" />
      <path
         transform="matrix(0,0.999999,0.999999,0,-626.15698,-805.258)"
         style="fill:none;stroke:#000000;stroke-width:0.05mm"
         d="m 542.90643,355.45181 h -4.49792"
         id="path1326" />
      <path
         transform="matrix(0,0.999999,0.999999,0,-626.15698,-805.258)"
         style="fill:none;stroke:#000000;stroke-width:0.05mm"
         d="M 538.40851,355.45181 V 341.71463"
         id="path1328" />
      <path
         transform="matrix(0,0.999999,0.999999,0,-626.15698,-805.258)"
         style="fill:none;stroke:#000000;stroke-width:0.05mm"
         d="m 542.90643,341.71466 h -4.49792"
         id="path1330" />
      <path
         transform="matrix(0,0.999999,0.999999,0,-626.15698,-805.258)"
         style="fill:none;stroke:#000000;stroke-width:0.05mm"
         d="M 542.90643,341.71466 V 327.98013"
         id="path1332" />
      <path
         transform="matrix(0,0.999999,0.999999,0,-626.15698,-805.258)"
         style="fill:none;stroke:#000000;stroke-width:0.05mm"
         d="m 542.90643,327.98013 h -4.49792"
         id="path1334" />
      <path
         transform="matrix(0,0.999999,0.999999,0,-626.15698,-805.258)"
         style="fill:none;stroke:#000000;stroke-width:0.05mm"
         d="M 538.40851,327.98013 V 314.24295"
         id="path1336" />
      <path
         transform="matrix(0,0.999999,0.999999,0,-626.15698,-805.258)"
         style="fill:none;stroke:#000000;stroke-width:0.05mm"
         d="m 542.90643,314.24295 h -4.49792"
         id="path1338" />
      <path
         transform="matrix(0,0.999999,0.999999,0,-626.15698,-805.258)"
         style="fill:none;stroke:#000000;stroke-width:0.05mm"
         d="M 542.90643,314.24295 V 300.50577"
         id="path1340" />
      <path
         transform="matrix(0,0.999999,0.999999,0,-626.15698,-805.258)"
         style="fill:none;stroke:#000000;stroke-width:0.05mm"
         d="m 542.90643,300.5058 h -4.49792"
         id="path1342" />
      <path
         transform="matrix(0,0.999999,0.999999,0,-626.15698,-805.258)"
         style="fill:none;stroke:#000000;stroke-width:0.05mm"
         d="M 538.40851,300.5058 V 286.76862"
         id="path1344" />
      <path
         transform="matrix(0,0.999999,0.999999,0,-626.15698,-805.258)"
         style="fill:none;stroke:#000000;stroke-width:0.05mm"
         d="m 542.90643,286.76862 h -4.49792"
         id="path1346" />
      <path
         transform="matrix(0,0.999999,0.999999,0,-626.15698,-805.258)"
         style="fill:none;stroke:#000000;stroke-width:0.05mm"
         d="M 542.90643,286.76862 V 273.03143"
         id="path1348" />
      <path
         transform="matrix(0,0.999999,0.999999,0,-626.15698,-805.258)"
         style="fill:none;stroke:#000000;stroke-width:0.05mm"
         d="m 542.90643,273.03149 h -4.49792"
         id="path1350" />
      <path
         transform="matrix(0,0.999999,0.999999,0,-626.15698,-805.258)"
         style="fill:none;stroke:#000000;stroke-width:0.05mm"
         d="M 542.90643,506.55801 V 492.82083"
         id="path1352" />
      <path
         transform="matrix(0,0.999999,0.999999,0,-626.15698,-805.258)"
         style="fill:none;stroke:#ff0000;stroke-width:0.05mm"
         d="M 554.39734,452.93225 V 442.93097"
         id="path1354" />
      <path
         transform="matrix(0,0.999999,0.999999,0,-626.15698,-805.258)"
         style="fill:none;stroke:#ff0000;stroke-width:0.05mm"
         d="m 558.34753,442.93097 h -3.95019"
         id="path1356" />
      <path
         transform="matrix(0,0.999999,0.999999,0,-626.15698,-805.258)"
         style="fill:none;stroke:#ff0000;stroke-width:0.05mm"
         d="M 558.34753,452.93225 V 442.93097"
         id="path1358" />
      <path
         transform="matrix(0,0.999999,0.999999,0,-626.15698,-805.258)"
         style="fill:none;stroke:#ff0000;stroke-width:0.05mm"
         d="m 558.34753,452.93225 h -3.95019"
         id="path1360" />
      <path
         transform="matrix(0,0.999999,0.999999,0,-626.15698,-805.258)"
         style="fill:none;stroke:#ff0000;stroke-width:0.05mm"
         d="m 557.09729,458.65732 c 0,0.40042 -0.32459,0.725 -0.72498,0.725 -0.40045,0 -0.72503,-0.32458 -0.72503,-0.725 0,-0.40042 0.32458,-0.72504 0.72503,-0.72504 0.40039,0 0.72498,0.32462 0.72498,0.72504 z"
         id="path1362" />
      <path
         transform="matrix(0,0.999999,0.999999,0,-626.15698,-805.258)"
         style="fill:none;stroke:#ff0000;stroke-width:0.05mm"
         d="m 557.09729,432.65732 c 0,0.40042 -0.32459,0.72504 -0.72498,0.72504 -0.40045,0 -0.72503,-0.32462 -0.72503,-0.72504 0,-0.40042 0.32458,-0.72501 0.72503,-0.72501 0.40039,0 0.72498,0.32459 0.72498,0.72501 z"
         id="path1364" />
      <path
         transform="matrix(0,0.999999,0.999999,0,-626.15698,-805.258)"
         style="fill:none;stroke:#ff0000;stroke-width:0.05mm"
         d="m 557.37225,415.15732 c 6e-5,0.55231 -0.44769,1 -0.99994,1 -0.5523,0 -1.00006,-0.44769 -1,-1 0,-0.55228 0.4477,-1 1,-1 0.55225,0 0.99994,0.44772 0.99994,1 z"
         id="path1366" />
      <path
         transform="matrix(0,0.999999,0.999999,0,-626.15698,-805.258)"
         style="fill:none;stroke:#ff0000;stroke-width:0.05mm"
         d="m 557.09729,273.15732 c 0,0.40042 -0.32459,0.725 -0.72498,0.725 -0.40045,0 -0.72503,-0.32458 -0.72503,-0.725 0,-0.40042 0.32458,-0.72504 0.72503,-0.72504 0.40039,0 0.72498,0.32462 0.72498,0.72504 z"
         id="path1368" />
      <path
         transform="matrix(0,0.999999,0.999999,0,-626.15698,-805.258)"
         style="fill:none;stroke:#ff0000;stroke-width:0.05mm"
         d="m 557.09729,299.15732 c 0,0.40042 -0.32459,0.725 -0.72498,0.725 -0.40045,0 -0.72503,-0.32458 -0.72503,-0.725 0,-0.40045 0.32458,-0.72504 0.72503,-0.72504 0.40039,0 0.72498,0.32459 0.72498,0.72504 z"
         id="path1370" />
      <path
         transform="matrix(0,0.999999,0.999999,0,-626.15698,-805.258)"
         style="fill:none;stroke:#ff0000;stroke-width:0.05mm"
         d="m 557.37225,392.15735 c 6e-5,0.55228 -0.44769,1 -0.99994,1 -0.5523,0 -1.00006,-0.44772 -1,-1 0,-0.55231 0.4477,-1 1,-1 0.55225,0 0.99994,0.44769 0.99994,1 z"
         id="path1372" />
      <path
         transform="matrix(0,0.999999,0.999999,0,-626.15698,-805.258)"
         style="fill:none;stroke:#ff0000;stroke-width:0.05mm"
         d="m 557.37225,336.15732 c 6e-5,0.55227 -0.44769,1 -0.99994,1 -0.5523,0 -1.00006,-0.44773 -1,-1 0,-0.55231 0.4477,-1.00003 1,-1.00003 0.55225,0 0.99994,0.44772 0.99994,1.00003 z"
         id="path1374" />
      <path
         transform="matrix(0,0.999999,0.999999,0,-626.15698,-805.258)"
         style="fill:none;stroke:#ff0000;stroke-width:0.05mm"
         d="m 560.8717,377.15823 h -8.99853"
         id="path1376" />
      <path
         transform="matrix(0,0.999999,0.999999,0,-626.15698,-805.258)"
         style="fill:none;stroke:#ff0000;stroke-width:0.05mm"
         d="m 551.87317,377.15823 v -2.00027"
         id="path1378" />
      <path
         transform="matrix(0,0.999999,0.999999,0,-626.15698,-805.258)"
         style="fill:none;stroke:#ff0000;stroke-width:0.05mm"
         d="m 560.8717,375.15799 h -8.99853"
         id="path1380" />
      <path
         transform="matrix(0,0.999999,0.999999,0,-626.15698,-805.258)"
         style="fill:none;stroke:#ff0000;stroke-width:0.05mm"
         d="m 560.8717,377.15823 v -2.00027"
         id="path1382" />
      <path
         transform="matrix(0,0.999999,0.999999,0,-626.15698,-805.258)"
         style="fill:none;stroke:#ff0000;stroke-width:0.05mm"
         d="m 560.8717,357.15839 h -8.99853"
         id="path1384" />
      <path
         transform="matrix(0,0.999999,0.999999,0,-626.15698,-805.258)"
         style="fill:none;stroke:#ff0000;stroke-width:0.05mm"
         d="m 551.87317,357.15839 v -2.00028"
         id="path1386" />
      <path
         transform="matrix(0,0.999999,0.999999,0,-626.15698,-805.258)"
         style="fill:none;stroke:#ff0000;stroke-width:0.05mm"
         d="m 560.8717,355.15811 h -8.99853"
         id="path1388" />
      <path
         transform="matrix(0,0.999999,0.999999,0,-626.15698,-805.258)"
         style="fill:none;stroke:#ff0000;stroke-width:0.05mm"
         d="m 560.8717,357.15839 v -2.00028"
         id="path1390" />
      <path
         transform="matrix(0,0.999999,0.999999,0,-626.15698,-805.258)"
         style="fill:none;stroke:#ff0000;stroke-width:0.05mm"
         d="m 557.59613,293.88327 h -2.45007"
         id="path1392" />
      <path
         transform="matrix(0,0.999999,0.999999,0,-626.15698,-805.258)"
         style="fill:none;stroke:#ff0000;stroke-width:0.05mm"
         d="M 555.14606,293.88327 V 283.88202"
         id="path1394" />
      <path
         transform="matrix(0,0.999999,0.999999,0,-626.15698,-805.258)"
         style="fill:none;stroke:#ff0000;stroke-width:0.05mm"
         d="m 557.59613,283.88202 h -2.45007"
         id="path1396" />
      <path
         transform="matrix(0,0.999999,0.999999,0,-626.15698,-805.258)"
         style="fill:none;stroke:#ff0000;stroke-width:0.05mm"
         d="M 557.59613,293.88327 V 283.88202"
         id="path1398" />
      <path
         transform="matrix(0,0.999999,0.999999,0,-626.15698,-805.258)"
         style="fill:none;stroke:#000000;stroke-width:0.05mm"
         d="m 543.87219,273.13202 h 4.50055"
         id="path1400" />
      <path
         transform="matrix(0,0.999999,0.999999,0,-626.15698,-805.258)"
         style="fill:none;stroke:#000000;stroke-width:0.05mm"
         d="M 548.37274,273.13202 V 286.8692"
         id="path1402" />
      <path
         transform="matrix(0,0.999999,0.999999,0,-626.15698,-805.258)"
         style="fill:none;stroke:#000000;stroke-width:0.05mm"
         d="m 543.87219,286.86917 h 4.50055"
         id="path1404" />
      <path
         transform="matrix(0,0.999999,0.999999,0,-626.15698,-805.258)"
         style="fill:none;stroke:#000000;stroke-width:0.05mm"
         d="M 543.87219,300.6037 V 286.86917"
         id="path1406" />
      <path
         transform="matrix(0,0.999999,0.999999,0,-626.15698,-805.258)"
         style="fill:none;stroke:#000000;stroke-width:0.05mm"
         d="m 543.87219,300.6037 h 4.50055"
         id="path1408" />
      <path
         transform="matrix(0,0.999999,0.999999,0,-626.15698,-805.258)"
         style="fill:none;stroke:#000000;stroke-width:0.05mm"
         d="m 548.37274,300.6037 v 10.40869"
         id="path1410" />
      <path
         transform="matrix(0,0.999999,0.999999,0,-626.15698,-805.258)"
         style="fill:none;stroke:#000000;stroke-width:0.05mm"
         d="m 548.37231,311.01169 c 0.52387,-0.22861 1.13611,-0.0728 1.48688,0.37848 0.35083,0.45132 0.35077,1.08307 0,1.53436 -0.35077,0.45126 -0.96301,0.60709 -1.48688,0.37845"
         id="path1412" />
      <path
         transform="matrix(0,0.999999,0.999999,0,-626.15698,-805.258)"
         style="fill:none;stroke:#000000;stroke-width:0.05mm"
         d="m 548.37274,313.30371 v 1.03717"
         id="path1414" />
      <path
         transform="matrix(0,0.999999,0.999999,0,-626.15698,-805.258)"
         style="fill:none;stroke:#000000;stroke-width:0.05mm"
         d="m 543.87219,314.34088 h 4.50055"
         id="path1416" />
      <path
         transform="matrix(0,0.999999,0.999999,0,-626.15698,-805.258)"
         style="fill:none;stroke:#000000;stroke-width:0.05mm"
         d="M 543.87219,328.07803 V 314.34085"
         id="path1418" />
      <path
         transform="matrix(0,0.999999,0.999999,0,-626.15698,-805.258)"
         style="fill:none;stroke:#000000;stroke-width:0.05mm"
         d="m 543.87219,328.07803 h 4.50055"
         id="path1420" />
      <path
         transform="matrix(0,0.999999,0.999999,0,-626.15698,-805.258)"
         style="fill:none;stroke:#000000;stroke-width:0.05mm"
         d="m 548.37274,328.07803 v 13.73716"
         id="path1422" />
      <path
         transform="matrix(0,0.999999,0.999999,0,-626.15698,-805.258)"
         style="fill:none;stroke:#000000;stroke-width:0.05mm"
         d="m 543.87219,341.81519 h 4.50055"
         id="path1424" />
      <path
         transform="matrix(0,0.999999,0.999999,0,-626.15698,-805.258)"
         style="fill:none;stroke:#000000;stroke-width:0.05mm"
         d="M 543.87219,355.55234 V 341.81515"
         id="path1426" />
      <path
         transform="matrix(0,0.999999,0.999999,0,-626.15698,-805.258)"
         style="fill:none;stroke:#000000;stroke-width:0.05mm"
         d="m 543.87219,355.55234 h 4.50055"
         id="path1428" />
      <path
         transform="matrix(0,0.999999,0.999999,0,-626.15698,-805.258)"
         style="fill:none;stroke:#000000;stroke-width:0.05mm"
         d="m 548.37274,355.55234 v 13.73718"
         id="path1430" />
      <path
         transform="matrix(0,0.999999,0.999999,0,-626.15698,-805.258)"
         style="fill:none;stroke:#000000;stroke-width:0.05mm"
         d="m 543.87219,369.28952 h 4.50055"
         id="path1432" />
      <path
         transform="matrix(0,0.999999,0.999999,0,-626.15698,-805.258)"
         style="fill:none;stroke:#000000;stroke-width:0.05mm"
         d="M 543.87219,383.0267 V 369.28952"
         id="path1434" />
      <path
         transform="matrix(0,0.999999,0.999999,0,-626.15698,-805.258)"
         style="fill:none;stroke:#000000;stroke-width:0.05mm"
         d="m 543.87219,383.0267 h 4.50055"
         id="path1436" />
      <path
         transform="matrix(0,0.999999,0.999999,0,-626.15698,-805.258)"
         style="fill:none;stroke:#000000;stroke-width:0.05mm"
         d="m 548.37274,383.0267 v 13.73719"
         id="path1438" />
      <path
         transform="matrix(0,0.999999,0.999999,0,-626.15698,-805.258)"
         style="fill:none;stroke:#000000;stroke-width:0.05mm"
         d="m 543.87219,396.76385 h 4.50055"
         id="path1440" />
      <path
         transform="matrix(0,0.999999,0.999999,0,-626.15698,-805.258)"
         style="fill:none;stroke:#000000;stroke-width:0.05mm"
         d="M 543.87219,410.49838 V 396.76385"
         id="path1442" />
      <path
         transform="matrix(0,0.999999,0.999999,0,-626.15698,-805.258)"
         style="fill:none;stroke:#000000;stroke-width:0.05mm"
         d="m 543.87219,410.49838 h 4.50055"
         id="path1444" />
      <path
         transform="matrix(0,0.999999,0.999999,0,-626.15698,-805.258)"
         style="fill:none;stroke:#000000;stroke-width:0.05mm"
         d="m 548.37274,410.49838 v 13.73716"
         id="path1446" />
      <path
         transform="matrix(0,0.999999,0.999999,0,-626.15698,-805.258)"
         style="fill:none;stroke:#000000;stroke-width:0.05mm"
         d="m 543.87219,424.23554 h 4.50055"
         id="path1448" />
      <path
         transform="matrix(0,0.999999,0.999999,0,-626.15698,-805.258)"
         style="fill:none;stroke:#000000;stroke-width:0.05mm"
         d="M 543.87219,437.97269 V 424.2355"
         id="path1450" />
      <path
         transform="matrix(0,0.999999,0.999999,0,-626.15698,-805.258)"
         style="fill:none;stroke:#000000;stroke-width:0.05mm"
         d="m 543.87219,437.97269 h 4.50055"
         id="path1452" />
      <path
         transform="matrix(0,0.999999,0.999999,0,-626.15698,-805.258)"
         style="fill:none;stroke:#000000;stroke-width:0.05mm"
         d="m 548.37274,437.97269 v 13.73718"
         id="path1454" />
      <path
         transform="matrix(0,0.999999,0.999999,0,-626.15698,-805.258)"
         style="fill:none;stroke:#000000;stroke-width:0.05mm"
         d="m 543.87219,451.70987 h 4.50055"
         id="path1456" />
      <path
         transform="matrix(0,0.999999,0.999999,0,-626.15698,-805.258)"
         style="fill:none;stroke:#000000;stroke-width:0.05mm"
         d="M 543.87219,465.44705 V 451.70987"
         id="path1458" />
      <path
         transform="matrix(0,0.999999,0.999999,0,-626.15698,-805.258)"
         style="fill:none;stroke:#000000;stroke-width:0.05mm"
         d="m 543.87219,465.44705 h 4.50055"
         id="path1460" />
      <path
         transform="matrix(0,0.999999,0.999999,0,-626.15698,-805.258)"
         style="fill:none;stroke:#000000;stroke-width:0.05mm"
         d="m 548.37274,465.44705 v 13.73718"
         id="path1462" />
      <path
         transform="matrix(0,0.999999,0.999999,0,-626.15698,-805.258)"
         style="fill:none;stroke:#000000;stroke-width:0.05mm"
         d="m 543.87219,479.1842 h 4.50055"
         id="path1464" />
      <path
         transform="matrix(0,0.999999,0.999999,0,-626.15698,-805.258)"
         style="fill:none;stroke:#000000;stroke-width:0.05mm"
         d="M 543.87219,492.92139 V 479.1842"
         id="path1466" />
      <path
         transform="matrix(0,0.999999,0.999999,0,-626.15698,-805.258)"
         style="fill:none;stroke:#000000;stroke-width:0.05mm"
         d="m 543.87219,492.92139 h 4.50055"
         id="path1468" />
      <path
         transform="matrix(0,0.999999,0.999999,0,-626.15698,-805.258)"
         style="fill:none;stroke:#000000;stroke-width:0.05mm"
         d="m 548.37274,492.92139 v 13.73715"
         id="path1470" />
      <path
         transform="matrix(0,0.999999,0.999999,0,-626.15698,-805.258)"
         style="fill:none;stroke:#000000;stroke-width:0.05mm"
         d="m 548.37274,506.65854 h 15.99939"
         id="path1472" />
      <path
         transform="matrix(0,0.999999,0.999999,0,-626.15698,-805.258)"
         style="fill:none;stroke:#000000;stroke-width:0.05mm"
         d="M 564.37213,506.65854 V 492.92139"
         id="path1474" />
      <path
         transform="matrix(0,0.999999,0.999999,0,-626.15698,-805.258)"
         style="fill:none;stroke:#000000;stroke-width:0.05mm"
         d="m 568.87268,492.92139 h -4.50055"
         id="path1476" />
      <path
         transform="matrix(0,0.999999,0.999999,0,-626.15698,-805.258)"
         style="fill:none;stroke:#000000;stroke-width:0.05mm"
         d="M 568.87268,492.92139 V 479.1842"
         id="path1478" />
      <path
         transform="matrix(0,0.999999,0.999999,0,-626.15698,-805.258)"
         style="fill:none;stroke:#000000;stroke-width:0.05mm"
         d="m 568.87268,479.1842 h -4.50055"
         id="path1480" />
      <path
         transform="matrix(0,0.999999,0.999999,0,-626.15698,-805.258)"
         style="fill:none;stroke:#000000;stroke-width:0.05mm"
         d="M 564.37213,479.1842 V 465.44702"
         id="path1482" />
      <path
         transform="matrix(0,0.999999,0.999999,0,-626.15698,-805.258)"
         style="fill:none;stroke:#000000;stroke-width:0.05mm"
         d="m 568.87268,465.44705 h -4.50055"
         id="path1484" />
      <path
         transform="matrix(0,0.999999,0.999999,0,-626.15698,-805.258)"
         style="fill:none;stroke:#000000;stroke-width:0.05mm"
         d="M 568.87268,465.44705 V 451.70987"
         id="path1486" />
      <path
         transform="matrix(0,0.999999,0.999999,0,-626.15698,-805.258)"
         style="fill:none;stroke:#000000;stroke-width:0.05mm"
         d="m 568.87268,451.70987 h -4.50055"
         id="path1488" />
      <path
         transform="matrix(0,0.999999,0.999999,0,-626.15698,-805.258)"
         style="fill:none;stroke:#000000;stroke-width:0.05mm"
         d="M 564.37213,451.70987 V 437.97269"
         id="path1490" />
      <path
         transform="matrix(0,0.999999,0.999999,0,-626.15698,-805.258)"
         style="fill:none;stroke:#000000;stroke-width:0.05mm"
         d="m 568.87268,437.97269 h -4.50055"
         id="path1492" />
      <path
         transform="matrix(0,0.999999,0.999999,0,-626.15698,-805.258)"
         style="fill:none;stroke:#000000;stroke-width:0.05mm"
         d="M 568.87268,437.97269 V 424.2355"
         id="path1494" />
      <path
         transform="matrix(0,0.999999,0.999999,0,-626.15698,-805.258)"
         style="fill:none;stroke:#000000;stroke-width:0.05mm"
         d="m 568.87268,424.23554 h -4.50055"
         id="path1496" />
      <path
         transform="matrix(0,0.999999,0.999999,0,-626.15698,-805.258)"
         style="fill:none;stroke:#000000;stroke-width:0.05mm"
         d="M 564.37213,424.23554 V 410.49838"
         id="path1498" />
      <path
         transform="matrix(0,0.999999,0.999999,0,-626.15698,-805.258)"
         style="fill:none;stroke:#000000;stroke-width:0.05mm"
         d="m 568.87268,410.49838 h -4.50055"
         id="path1500" />
      <path
         transform="matrix(0,0.999999,0.999999,0,-626.15698,-805.258)"
         style="fill:none;stroke:#000000;stroke-width:0.05mm"
         d="M 568.87268,410.49838 V 396.76385"
         id="path1502" />
      <path
         transform="matrix(0,0.999999,0.999999,0,-626.15698,-805.258)"
         style="fill:none;stroke:#000000;stroke-width:0.05mm"
         d="m 568.87268,396.76385 h -4.50055"
         id="path1504" />
      <path
         transform="matrix(0,0.999999,0.999999,0,-626.15698,-805.258)"
         style="fill:none;stroke:#000000;stroke-width:0.05mm"
         d="M 564.37213,396.76385 V 383.02667"
         id="path1506" />
      <path
         transform="matrix(0,0.999999,0.999999,0,-626.15698,-805.258)"
         style="fill:none;stroke:#000000;stroke-width:0.05mm"
         d="m 568.87268,383.0267 h -4.50055"
         id="path1508" />
      <path
         transform="matrix(0,0.999999,0.999999,0,-626.15698,-805.258)"
         style="fill:none;stroke:#000000;stroke-width:0.05mm"
         d="M 568.87268,383.0267 V 369.28952"
         id="path1510" />
      <path
         transform="matrix(0,0.999999,0.999999,0,-626.15698,-805.258)"
         style="fill:none;stroke:#000000;stroke-width:0.05mm"
         d="m 568.87268,369.28952 h -4.50055"
         id="path1512" />
      <path
         transform="matrix(0,0.999999,0.999999,0,-626.15698,-805.258)"
         style="fill:none;stroke:#000000;stroke-width:0.05mm"
         d="M 564.37213,369.28952 V 355.55234"
         id="path1514" />
      <path
         transform="matrix(0,0.999999,0.999999,0,-626.15698,-805.258)"
         style="fill:none;stroke:#000000;stroke-width:0.05mm"
         d="m 568.87268,355.55234 h -4.50055"
         id="path1516" />
      <path
         transform="matrix(0,0.999999,0.999999,0,-626.15698,-805.258)"
         style="fill:none;stroke:#000000;stroke-width:0.05mm"
         d="M 568.87268,355.55234 V 341.81515"
         id="path1518" />
      <path
         transform="matrix(0,0.999999,0.999999,0,-626.15698,-805.258)"
         style="fill:none;stroke:#000000;stroke-width:0.05mm"
         d="m 568.87268,341.81519 h -4.50055"
         id="path1520" />
      <path
         transform="matrix(0,0.999999,0.999999,0,-626.15698,-805.258)"
         style="fill:none;stroke:#000000;stroke-width:0.05mm"
         d="M 564.37213,341.81519 V 328.07803"
         id="path1522" />
      <path
         transform="matrix(0,0.999999,0.999999,0,-626.15698,-805.258)"
         style="fill:none;stroke:#000000;stroke-width:0.05mm"
         d="m 568.87268,328.07803 h -4.50055"
         id="path1524" />
      <path
         transform="matrix(0,0.999999,0.999999,0,-626.15698,-805.258)"
         style="fill:none;stroke:#000000;stroke-width:0.05mm"
         d="M 568.87268,328.07803 V 314.34085"
         id="path1526" />
      <path
         transform="matrix(0,0.999999,0.999999,0,-626.15698,-805.258)"
         style="fill:none;stroke:#000000;stroke-width:0.05mm"
         d="m 568.87268,314.34088 h -4.50055"
         id="path1528" />
      <path
         transform="matrix(0,0.999999,0.999999,0,-626.15698,-805.258)"
         style="fill:none;stroke:#000000;stroke-width:0.05mm"
         d="m 564.37213,314.34088 v -1.03717"
         id="path1530" />
      <path
         transform="matrix(0,0.999999,0.999999,0,-626.15698,-805.258)"
         style="fill:none;stroke:#000000;stroke-width:0.05mm"
         d="m 564.37231,313.30298 c -0.52386,0.22864 -1.1361,0.0728 -1.48687,-0.37845 -0.35077,-0.45129 -0.35083,-1.08304 0,-1.53436 0.35077,-0.45127 0.96301,-0.60709 1.48687,-0.37848"
         id="path1532" />
      <path
         transform="matrix(0,0.999999,0.999999,0,-626.15698,-805.258)"
         style="fill:none;stroke:#000000;stroke-width:0.05mm"
         d="M 564.37213,311.01239 V 300.6037"
         id="path1534" />
      <path
         transform="matrix(0,0.999999,0.999999,0,-626.15698,-805.258)"
         style="fill:none;stroke:#000000;stroke-width:0.05mm"
         d="m 568.87268,300.6037 h -4.50055"
         id="path1536" />
      <path
         transform="matrix(0,0.999999,0.999999,0,-626.15698,-805.258)"
         style="fill:none;stroke:#000000;stroke-width:0.05mm"
         d="M 568.87268,300.6037 V 286.86917"
         id="path1538" />
      <path
         transform="matrix(0,0.999999,0.999999,0,-626.15698,-805.258)"
         style="fill:none;stroke:#000000;stroke-width:0.05mm"
         d="m 568.87268,286.86917 h -4.50055"
         id="path1540" />
      <path
         transform="matrix(0,0.999999,0.999999,0,-626.15698,-805.258)"
         style="fill:none;stroke:#000000;stroke-width:0.05mm"
         d="M 564.37213,286.86917 V 273.13199"
         id="path1542" />
      <path
         transform="matrix(0,0.999999,0.999999,0,-626.15698,-805.258)"
         style="fill:none;stroke:#000000;stroke-width:0.05mm"
         d="m 568.87268,273.13202 h -4.50055"
         id="path1544" />
      <path
         transform="matrix(0,0.999999,0.999999,0,-626.15698,-805.258)"
         style="fill:none;stroke:#000000;stroke-width:0.05mm"
         d="M 568.87268,273.13202 V 259.39407"
         id="path1546" />
      <path
         transform="matrix(0,0.999999,0.999999,0,-626.15698,-805.258)"
         style="fill:none;stroke:#000000;stroke-width:0.05mm"
         d="m 568.87268,259.39404 h -4.50055"
         id="path1548" />
      <path
         transform="matrix(0,0.999999,0.999999,0,-626.15698,-805.258)"
         style="fill:none;stroke:#000000;stroke-width:0.05mm"
         d="M 564.37213,259.39404 V 245.65741"
         id="path1550" />
      <path
         transform="matrix(0,0.999999,0.999999,0,-626.15698,-805.258)"
         style="fill:none;stroke:#000000;stroke-width:0.05mm"
         d="m 548.37274,245.65741 h 15.99939"
         id="path1552" />
      <path
         transform="matrix(0,0.999999,0.999999,0,-626.15698,-805.258)"
         style="fill:none;stroke:#000000;stroke-width:0.05mm"
         d="m 548.37274,245.65741 v 13.73663"
         id="path1554" />
      <path
         transform="matrix(0,0.999999,0.999999,0,-626.15698,-805.258)"
         style="fill:none;stroke:#000000;stroke-width:0.05mm"
         d="m 543.87219,259.39404 h 4.50055"
         id="path1556" />
      <path
         transform="matrix(0,0.999999,0.999999,0,-626.15698,-805.258)"
         style="fill:none;stroke:#000000;stroke-width:0.05mm"
         d="M 543.87219,273.13202 V 259.39407"
         id="path1558" />
      <path
         transform="matrix(0,0.999999,0.999999,0,-626.15698,-805.258)"
         style="fill:none;stroke:#ff0000;stroke-width:0.05mm"
         d="m 580.19684,443.13208 h 3.95026"
         id="path1560" />
      <path
         transform="matrix(0,0.999999,0.999999,0,-626.15698,-805.258)"
         style="fill:none;stroke:#ff0000;stroke-width:0.05mm"
         d="m 584.1471,453.13068 v -9.9986"
         id="path1562" />
      <path
         transform="matrix(0,0.999999,0.999999,0,-626.15698,-805.258)"
         style="fill:none;stroke:#ff0000;stroke-width:0.05mm"
         d="m 580.19684,453.13068 h 3.95026"
         id="path1564" />
      <path
         transform="matrix(0,0.999999,0.999999,0,-626.15698,-805.258)"
         style="fill:none;stroke:#ff0000;stroke-width:0.05mm"
         d="m 580.19684,453.13068 v -9.9986"
         id="path1566" />
      <path
         transform="matrix(0,0.999999,0.999999,0,-626.15698,-805.258)"
         style="fill:none;stroke:#000000;stroke-width:0.05mm"
         d="M 574.1723,259.59274 V 245.85585"
         id="path1568" />
      <path
         transform="matrix(0,0.999999,0.999999,0,-626.15698,-805.258)"
         style="fill:none;stroke:#000000;stroke-width:0.05mm"
         d="m 574.1723,259.59274 h -4.50055"
         id="path1570" />
      <path
         transform="matrix(0,0.999999,0.999999,0,-626.15698,-805.258)"
         style="fill:none;stroke:#000000;stroke-width:0.05mm"
         d="M 569.67175,273.33044 V 259.59277"
         id="path1572" />
      <path
         transform="matrix(0,0.999999,0.999999,0,-626.15698,-805.258)"
         style="fill:none;stroke:#000000;stroke-width:0.05mm"
         d="m 574.1723,273.33044 h -4.50055"
         id="path1574" />
      <path
         transform="matrix(0,0.999999,0.999999,0,-626.15698,-805.258)"
         style="fill:none;stroke:#000000;stroke-width:0.05mm"
         d="M 574.1723,287.0676 V 273.33041"
         id="path1576" />
      <path
         transform="matrix(0,0.999999,0.999999,0,-626.15698,-805.258)"
         style="fill:none;stroke:#000000;stroke-width:0.05mm"
         d="m 574.1723,287.0676 h -4.50055"
         id="path1578" />
      <path
         transform="matrix(0,0.999999,0.999999,0,-626.15698,-805.258)"
         style="fill:none;stroke:#000000;stroke-width:0.05mm"
         d="M 569.67175,300.80212 V 287.0676"
         id="path1580" />
      <path
         transform="matrix(0,0.999999,0.999999,0,-626.15698,-805.258)"
         style="fill:none;stroke:#000000;stroke-width:0.05mm"
         d="m 574.1723,300.80212 h -4.50055"
         id="path1582" />
      <path
         transform="matrix(0,0.999999,0.999999,0,-626.15698,-805.258)"
         style="fill:none;stroke:#000000;stroke-width:0.05mm"
         d="M 574.1723,311.21085 V 300.80212"
         id="path1584" />
      <path
         transform="matrix(0,0.999999,0.999999,0,-626.15698,-805.258)"
         style="fill:none;stroke:#000000;stroke-width:0.05mm"
         d="m 574.1712,311.21017 c 0.52387,-0.22857 1.13611,-0.0727 1.48688,0.37851 0.35083,0.4513 0.35077,1.08304 0,1.53434 -0.35083,0.45126 -0.96301,0.60711 -1.48694,0.37847"
         id="path1586" />
      <path
         transform="matrix(0,0.999999,0.999999,0,-626.15698,-805.258)"
         style="fill:none;stroke:#000000;stroke-width:0.05mm"
         d="m 574.1723,314.53931 v -1.03717"
         id="path1588" />
      <path
         transform="matrix(0,0.999999,0.999999,0,-626.15698,-805.258)"
         style="fill:none;stroke:#000000;stroke-width:0.05mm"
         d="m 574.1723,314.53931 h -4.50055"
         id="path1590" />
      <path
         transform="matrix(0,0.999999,0.999999,0,-626.15698,-805.258)"
         style="fill:none;stroke:#000000;stroke-width:0.05mm"
         d="M 569.67175,328.27646 V 314.53928"
         id="path1592" />
      <path
         transform="matrix(0,0.999999,0.999999,0,-626.15698,-805.258)"
         style="fill:none;stroke:#000000;stroke-width:0.05mm"
         d="m 574.1723,328.27646 h -4.50055"
         id="path1594" />
      <path
         transform="matrix(0,0.999999,0.999999,0,-626.15698,-805.258)"
         style="fill:none;stroke:#000000;stroke-width:0.05mm"
         d="M 574.1723,342.01364 V 328.27646"
         id="path1596" />
      <path
         transform="matrix(0,0.999999,0.999999,0,-626.15698,-805.258)"
         style="fill:none;stroke:#000000;stroke-width:0.05mm"
         d="m 574.1723,342.01364 h -4.50055"
         id="path1598" />
      <path
         transform="matrix(0,0.999999,0.999999,0,-626.15698,-805.258)"
         style="fill:none;stroke:#000000;stroke-width:0.05mm"
         d="M 569.67175,355.75079 V 342.01361"
         id="path1600" />
      <path
         transform="matrix(0,0.999999,0.999999,0,-626.15698,-805.258)"
         style="fill:none;stroke:#000000;stroke-width:0.05mm"
         d="m 574.1723,355.75079 h -4.50055"
         id="path1602" />
      <path
         transform="matrix(0,0.999999,0.999999,0,-626.15698,-805.258)"
         style="fill:none;stroke:#000000;stroke-width:0.05mm"
         d="M 574.1723,369.48795 V 355.75079"
         id="path1604" />
      <path
         transform="matrix(0,0.999999,0.999999,0,-626.15698,-805.258)"
         style="fill:none;stroke:#000000;stroke-width:0.05mm"
         d="m 574.1723,369.48795 h -4.50055"
         id="path1606" />
      <path
         transform="matrix(0,0.999999,0.999999,0,-626.15698,-805.258)"
         style="fill:none;stroke:#000000;stroke-width:0.05mm"
         d="M 569.67175,383.22513 V 369.48795"
         id="path1608" />
      <path
         transform="matrix(0,0.999999,0.999999,0,-626.15698,-805.258)"
         style="fill:none;stroke:#000000;stroke-width:0.05mm"
         d="m 574.1723,383.22513 h -4.50055"
         id="path1610" />
      <path
         transform="matrix(0,0.999999,0.999999,0,-626.15698,-805.258)"
         style="fill:none;stroke:#000000;stroke-width:0.05mm"
         d="M 574.1723,396.96228 V 383.2251"
         id="path1612" />
      <path
         transform="matrix(0,0.999999,0.999999,0,-626.15698,-805.258)"
         style="fill:none;stroke:#000000;stroke-width:0.05mm"
         d="m 574.1723,396.96228 h -4.50055"
         id="path1614" />
      <path
         transform="matrix(0,0.999999,0.999999,0,-626.15698,-805.258)"
         style="fill:none;stroke:#000000;stroke-width:0.05mm"
         d="M 569.67175,410.69681 V 396.96228"
         id="path1616" />
      <path
         transform="matrix(0,0.999999,0.999999,0,-626.15698,-805.258)"
         style="fill:none;stroke:#000000;stroke-width:0.05mm"
         d="m 574.1723,410.69681 h -4.50055"
         id="path1618" />
      <path
         transform="matrix(0,0.999999,0.999999,0,-626.15698,-805.258)"
         style="fill:none;stroke:#000000;stroke-width:0.05mm"
         d="M 574.1723,424.43399 V 410.69681"
         id="path1620" />
      <path
         transform="matrix(0,0.999999,0.999999,0,-626.15698,-805.258)"
         style="fill:none;stroke:#000000;stroke-width:0.05mm"
         d="m 574.1723,424.43399 h -4.50055"
         id="path1622" />
      <path
         transform="matrix(0,0.999999,0.999999,0,-626.15698,-805.258)"
         style="fill:none;stroke:#000000;stroke-width:0.05mm"
         d="M 569.67175,438.17114 V 424.43396"
         id="path1624" />
      <path
         transform="matrix(0,0.999999,0.999999,0,-626.15698,-805.258)"
         style="fill:none;stroke:#000000;stroke-width:0.05mm"
         d="m 574.1723,438.17114 h -4.50055"
         id="path1626" />
      <path
         transform="matrix(0,0.999999,0.999999,0,-626.15698,-805.258)"
         style="fill:none;stroke:#000000;stroke-width:0.05mm"
         d="M 574.1723,451.90829 V 438.17114"
         id="path1628" />
      <path
         transform="matrix(0,0.999999,0.999999,0,-626.15698,-805.258)"
         style="fill:none;stroke:#000000;stroke-width:0.05mm"
         d="m 574.1723,451.90829 h -4.50055"
         id="path1630" />
      <path
         transform="matrix(0,0.999999,0.999999,0,-626.15698,-805.258)"
         style="fill:none;stroke:#000000;stroke-width:0.05mm"
         d="M 569.67175,465.64548 V 451.90829"
         id="path1632" />
      <path
         transform="matrix(0,0.999999,0.999999,0,-626.15698,-805.258)"
         style="fill:none;stroke:#000000;stroke-width:0.05mm"
         d="m 574.1723,465.64548 h -4.50055"
         id="path1634" />
      <path
         transform="matrix(0,0.999999,0.999999,0,-626.15698,-805.258)"
         style="fill:none;stroke:#000000;stroke-width:0.05mm"
         d="M 574.1723,479.38263 V 465.64545"
         id="path1636" />
      <path
         transform="matrix(0,0.999999,0.999999,0,-626.15698,-805.258)"
         style="fill:none;stroke:#000000;stroke-width:0.05mm"
         d="m 574.1723,479.38263 h -4.50055"
         id="path1638" />
      <path
         transform="matrix(0,0.999999,0.999999,0,-626.15698,-805.258)"
         style="fill:none;stroke:#000000;stroke-width:0.05mm"
         d="M 569.67175,493.11981 V 479.38263"
         id="path1640" />
      <path
         transform="matrix(0,0.999999,0.999999,0,-626.15698,-805.258)"
         style="fill:none;stroke:#000000;stroke-width:0.05mm"
         d="m 574.1723,493.11981 h -4.50055"
         id="path1642" />
      <path
         transform="matrix(0,0.999999,0.999999,0,-626.15698,-805.258)"
         style="fill:none;stroke:#000000;stroke-width:0.05mm"
         d="M 574.1723,506.85699 V 493.11981"
         id="path1644" />
      <path
         transform="matrix(0,0.999999,0.999999,0,-626.15698,-805.258)"
         style="fill:none;stroke:#000000;stroke-width:0.05mm"
         d="M 590.17163,506.85699 H 574.1723"
         id="path1646" />
      <path
         transform="matrix(0,0.999999,0.999999,0,-626.15698,-805.258)"
         style="fill:none;stroke:#000000;stroke-width:0.05mm"
         d="m 590.17163,493.11981 v 13.73718"
         id="path1648" />
      <path
         transform="matrix(0,0.999999,0.999999,0,-626.15698,-805.258)"
         style="fill:none;stroke:#000000;stroke-width:0.05mm"
         d="m 590.17163,493.11981 h 4.50055"
         id="path1650" />
      <path
         transform="matrix(0,0.999999,0.999999,0,-626.15698,-805.258)"
         style="fill:none;stroke:#000000;stroke-width:0.05mm"
         d="M 594.67218,493.11981 V 479.38263"
         id="path1652" />
      <path
         transform="matrix(0,0.999999,0.999999,0,-626.15698,-805.258)"
         style="fill:none;stroke:#000000;stroke-width:0.05mm"
         d="m 590.17163,479.38263 h 4.50055"
         id="path1654" />
      <path
         transform="matrix(0,0.999999,0.999999,0,-626.15698,-805.258)"
         style="fill:none;stroke:#000000;stroke-width:0.05mm"
         d="m 590.17163,465.64548 v 13.73718"
         id="path1656" />
      <path
         transform="matrix(0,0.999999,0.999999,0,-626.15698,-805.258)"
         style="fill:none;stroke:#000000;stroke-width:0.05mm"
         d="m 590.17163,465.64548 h 4.50055"
         id="path1658" />
      <path
         transform="matrix(0,0.999999,0.999999,0,-626.15698,-805.258)"
         style="fill:none;stroke:#000000;stroke-width:0.05mm"
         d="M 594.67218,465.64548 V 451.90829"
         id="path1660" />
      <path
         transform="matrix(0,0.999999,0.999999,0,-626.15698,-805.258)"
         style="fill:none;stroke:#000000;stroke-width:0.05mm"
         d="m 590.17163,451.90829 h 4.50055"
         id="path1662" />
      <path
         transform="matrix(0,0.999999,0.999999,0,-626.15698,-805.258)"
         style="fill:none;stroke:#000000;stroke-width:0.05mm"
         d="m 590.17163,438.17114 v 13.73715"
         id="path1664" />
      <path
         transform="matrix(0,0.999999,0.999999,0,-626.15698,-805.258)"
         style="fill:none;stroke:#000000;stroke-width:0.05mm"
         d="m 590.17163,438.17114 h 4.50055"
         id="path1666" />
      <path
         transform="matrix(0,0.999999,0.999999,0,-626.15698,-805.258)"
         style="fill:none;stroke:#000000;stroke-width:0.05mm"
         d="M 594.67218,438.17114 V 424.43396"
         id="path1668" />
      <path
         transform="matrix(0,0.999999,0.999999,0,-626.15698,-805.258)"
         style="fill:none;stroke:#000000;stroke-width:0.05mm"
         d="m 590.17163,424.43399 h 4.50055"
         id="path1670" />
      <path
         transform="matrix(0,0.999999,0.999999,0,-626.15698,-805.258)"
         style="fill:none;stroke:#000000;stroke-width:0.05mm"
         d="m 590.17163,410.69681 v 13.73718"
         id="path1672" />
      <path
         transform="matrix(0,0.999999,0.999999,0,-626.15698,-805.258)"
         style="fill:none;stroke:#000000;stroke-width:0.05mm"
         d="m 590.17163,410.69681 h 4.50055"
         id="path1674" />
      <path
         transform="matrix(0,0.999999,0.999999,0,-626.15698,-805.258)"
         style="fill:none;stroke:#000000;stroke-width:0.05mm"
         d="M 594.67218,410.69681 V 396.96228"
         id="path1676" />
      <path
         transform="matrix(0,0.999999,0.999999,0,-626.15698,-805.258)"
         style="fill:none;stroke:#000000;stroke-width:0.05mm"
         d="m 590.17163,396.96228 h 4.50055"
         id="path1678" />
      <path
         transform="matrix(0,0.999999,0.999999,0,-626.15698,-805.258)"
         style="fill:none;stroke:#000000;stroke-width:0.05mm"
         d="m 590.17163,383.22513 v 13.73718"
         id="path1680" />
      <path
         transform="matrix(0,0.999999,0.999999,0,-626.15698,-805.258)"
         style="fill:none;stroke:#000000;stroke-width:0.05mm"
         d="m 590.17163,383.22513 h 4.50055"
         id="path1682" />
      <path
         transform="matrix(0,0.999999,0.999999,0,-626.15698,-805.258)"
         style="fill:none;stroke:#000000;stroke-width:0.05mm"
         d="M 594.67218,383.22513 V 369.48795"
         id="path1684" />
      <path
         transform="matrix(0,0.999999,0.999999,0,-626.15698,-805.258)"
         style="fill:none;stroke:#000000;stroke-width:0.05mm"
         d="m 590.17163,369.48795 h 4.50055"
         id="path1686" />
      <path
         transform="matrix(0,0.999999,0.999999,0,-626.15698,-805.258)"
         style="fill:none;stroke:#000000;stroke-width:0.05mm"
         d="m 590.17163,355.75079 v 13.73716"
         id="path1688" />
      <path
         transform="matrix(0,0.999999,0.999999,0,-626.15698,-805.258)"
         style="fill:none;stroke:#000000;stroke-width:0.05mm"
         d="m 590.17163,355.75079 h 4.50055"
         id="path1690" />
      <path
         transform="matrix(0,0.999999,0.999999,0,-626.15698,-805.258)"
         style="fill:none;stroke:#000000;stroke-width:0.05mm"
         d="M 594.67218,355.75079 V 342.01361"
         id="path1692" />
      <path
         transform="matrix(0,0.999999,0.999999,0,-626.15698,-805.258)"
         style="fill:none;stroke:#000000;stroke-width:0.05mm"
         d="m 590.17163,342.01364 h 4.50055"
         id="path1694" />
      <path
         transform="matrix(0,0.999999,0.999999,0,-626.15698,-805.258)"
         style="fill:none;stroke:#000000;stroke-width:0.05mm"
         d="m 590.17163,328.27646 v 13.73718"
         id="path1696" />
      <path
         transform="matrix(0,0.999999,0.999999,0,-626.15698,-805.258)"
         style="fill:none;stroke:#000000;stroke-width:0.05mm"
         d="m 590.17163,328.27646 h 4.50055"
         id="path1698" />
      <path
         transform="matrix(0,0.999999,0.999999,0,-626.15698,-805.258)"
         style="fill:none;stroke:#000000;stroke-width:0.05mm"
         d="M 594.67218,328.27646 V 314.53928"
         id="path1700" />
      <path
         transform="matrix(0,0.999999,0.999999,0,-626.15698,-805.258)"
         style="fill:none;stroke:#000000;stroke-width:0.05mm"
         d="m 590.17163,314.53931 h 4.50055"
         id="path1702" />
      <path
         transform="matrix(0,0.999999,0.999999,0,-626.15698,-805.258)"
         style="fill:none;stroke:#000000;stroke-width:0.05mm"
         d="m 590.17163,313.50214 v 1.03717"
         id="path1704" />
      <path
         transform="matrix(0,0.999999,0.999999,0,-626.15698,-805.258)"
         style="fill:none;stroke:#000000;stroke-width:0.05mm"
         d="m 590.1712,313.50149 c -0.52386,0.22864 -1.13611,0.0728 -1.48687,-0.37847 -0.35083,-0.4513 -0.35083,-1.08304 0,-1.53434 0.3507,-0.45126 0.96301,-0.60708 1.48681,-0.37851"
         id="path1706" />
      <path
         transform="matrix(0,0.999999,0.999999,0,-626.15698,-805.258)"
         style="fill:none;stroke:#000000;stroke-width:0.05mm"
         d="m 590.17163,300.80212 v 10.40873"
         id="path1708" />
      <path
         transform="matrix(0,0.999999,0.999999,0,-626.15698,-805.258)"
         style="fill:none;stroke:#000000;stroke-width:0.05mm"
         d="m 590.17163,300.80212 h 4.50055"
         id="path1710" />
      <path
         transform="matrix(0,0.999999,0.999999,0,-626.15698,-805.258)"
         style="fill:none;stroke:#000000;stroke-width:0.05mm"
         d="M 594.67218,300.80212 V 287.0676"
         id="path1712" />
      <path
         transform="matrix(0,0.999999,0.999999,0,-626.15698,-805.258)"
         style="fill:none;stroke:#000000;stroke-width:0.05mm"
         d="m 590.17163,287.0676 h 4.50055"
         id="path1714" />
      <path
         transform="matrix(0,0.999999,0.999999,0,-626.15698,-805.258)"
         style="fill:none;stroke:#000000;stroke-width:0.05mm"
         d="m 590.17163,273.33044 v 13.73719"
         id="path1716" />
      <path
         transform="matrix(0,0.999999,0.999999,0,-626.15698,-805.258)"
         style="fill:none;stroke:#000000;stroke-width:0.05mm"
         d="m 590.17163,273.33044 h 4.50055"
         id="path1718" />
      <path
         transform="matrix(0,0.999999,0.999999,0,-626.15698,-805.258)"
         style="fill:none;stroke:#000000;stroke-width:0.05mm"
         d="M 594.67218,273.33044 V 259.59277"
         id="path1720" />
      <path
         transform="matrix(0,0.999999,0.999999,0,-626.15698,-805.258)"
         style="fill:none;stroke:#000000;stroke-width:0.05mm"
         d="m 590.17163,259.59274 h 4.50055"
         id="path1722" />
      <path
         transform="matrix(0,0.999999,0.999999,0,-626.15698,-805.258)"
         style="fill:none;stroke:#000000;stroke-width:0.05mm"
         d="m 590.17163,245.85585 v 13.73689"
         id="path1724" />
      <path
         transform="matrix(0,0.999999,0.999999,0,-626.15698,-805.258)"
         style="fill:none;stroke:#000000;stroke-width:0.05mm"
         d="M 590.17163,245.85585 H 574.1723"
         id="path1726" />
      <path
         transform="matrix(0,0.999999,0.999999,0,-626.15698,-805.258)"
         style="fill:none;stroke:#ff0000;stroke-width:0.05mm"
         d="M 580.94556,294.08173 V 284.08044"
         id="path1728" />
      <path
         transform="matrix(0,0.999999,0.999999,0,-626.15698,-805.258)"
         style="fill:none;stroke:#ff0000;stroke-width:0.05mm"
         d="m 580.94556,284.08044 h 2.45007"
         id="path1730" />
      <path
         transform="matrix(0,0.999999,0.999999,0,-626.15698,-805.258)"
         style="fill:none;stroke:#ff0000;stroke-width:0.05mm"
         d="M 583.39563,294.08173 V 284.08044"
         id="path1732" />
      <path
         transform="matrix(0,0.999999,0.999999,0,-626.15698,-805.258)"
         style="fill:none;stroke:#ff0000;stroke-width:0.05mm"
         d="m 580.94556,294.08173 h 2.45007"
         id="path1734" />
      <path
         transform="matrix(0,0.999999,0.999999,0,-626.15698,-805.258)"
         style="fill:none;stroke:#ff0000;stroke-width:0.05mm"
         d="m 582.89618,299.35584 c -0.002,0.39877 -0.32623,0.72082 -0.72504,0.72082 -0.39868,0 -0.72265,-0.32205 -0.72497,-0.72082 0.002,-0.39878 0.32617,-0.72083 0.72497,-0.72083 0.39881,0 0.72272,0.32205 0.72504,0.72083 z"
         id="path1736" />
      <path
         transform="matrix(0,0.999999,0.999999,0,-626.15698,-805.258)"
         style="fill:none;stroke:#ff0000;stroke-width:0.05mm"
         d="m 582.89618,273.35584 c -0.002,0.3988 -0.32623,0.72082 -0.72504,0.72082 -0.39868,0 -0.72265,-0.32202 -0.72497,-0.72082 0.002,-0.39878 0.32617,-0.72083 0.72497,-0.72083 0.39881,0 0.72272,0.32205 0.72504,0.72083 z"
         id="path1738" />
      <path
         transform="matrix(0,0.999999,0.999999,0,-626.15698,-805.258)"
         style="fill:none;stroke:#ff0000;stroke-width:0.05mm"
         d="m 583.17114,415.35584 c 0,0.55227 -0.44769,1 -1,1 -0.55224,0 -1,-0.44773 -1,-1 0,-0.55231 0.44769,-1 1,-1 0.55225,0 1,0.44769 1,1 z"
         id="path1740" />
      <path
         transform="matrix(0,0.999999,0.999999,0,-626.15698,-805.258)"
         style="fill:none;stroke:#ff0000;stroke-width:0.05mm"
         d="m 577.67004,377.35666 v -2.00028"
         id="path1742" />
      <path
         transform="matrix(0,0.999999,0.999999,0,-626.15698,-805.258)"
         style="fill:none;stroke:#ff0000;stroke-width:0.05mm"
         d="m 577.67004,375.35642 h 9.00116"
         id="path1744" />
      <path
         transform="matrix(0,0.999999,0.999999,0,-626.15698,-805.258)"
         style="fill:none;stroke:#ff0000;stroke-width:0.05mm"
         d="m 586.6712,377.35666 v -2.00028"
         id="path1746" />
      <path
         transform="matrix(0,0.999999,0.999999,0,-626.15698,-805.258)"
         style="fill:none;stroke:#ff0000;stroke-width:0.05mm"
         d="m 577.67004,377.35666 h 9.00116"
         id="path1748" />
      <path
         transform="matrix(0,0.999999,0.999999,0,-626.15698,-805.258)"
         style="fill:none;stroke:#ff0000;stroke-width:0.05mm"
         d="m 583.17114,392.35584 c 0,0.5523 -0.44769,1 -1,1 -0.55224,0 -1,-0.4477 -1,-1 0,-0.55228 0.44769,-1 1,-1 0.55225,0 1,0.44772 1,1 z"
         id="path1750" />
      <path
         transform="matrix(0,0.999999,0.999999,0,-626.15698,-805.258)"
         style="fill:none;stroke:#ff0000;stroke-width:0.05mm"
         d="m 583.17114,336.35584 c 0,0.5523 -0.44769,1 -1,1 -0.55224,0 -1,-0.4477 -1,-1 0,-0.55228 0.44769,-1 1,-1 0.55225,0 1,0.44772 1,1 z"
         id="path1752" />
      <path
         transform="matrix(0,0.999999,0.999999,0,-626.15698,-805.258)"
         style="fill:none;stroke:#ff0000;stroke-width:0.05mm"
         d="m 577.67004,357.35681 v -2.00024"
         id="path1754" />
      <path
         transform="matrix(0,0.999999,0.999999,0,-626.15698,-805.258)"
         style="fill:none;stroke:#ff0000;stroke-width:0.05mm"
         d="m 577.67004,355.35657 h 9.00116"
         id="path1756" />
      <path
         transform="matrix(0,0.999999,0.999999,0,-626.15698,-805.258)"
         style="fill:none;stroke:#ff0000;stroke-width:0.05mm"
         d="m 586.6712,357.35681 v -2.00024"
         id="path1758" />
      <path
         transform="matrix(0,0.999999,0.999999,0,-626.15698,-805.258)"
         style="fill:none;stroke:#ff0000;stroke-width:0.05mm"
         d="m 577.67004,357.35681 h 9.00116"
         id="path1760" />
      <path
         transform="matrix(0,0.999999,0.999999,0,-626.15698,-805.258)"
         style="fill:none;stroke:#ff0000;stroke-width:0.05mm"
         d="m 582.89618,432.85584 c -0.002,0.39877 -0.32623,0.72082 -0.72504,0.72082 -0.39868,0 -0.72265,-0.32205 -0.72497,-0.72082 0.002,-0.39881 0.32617,-0.72083 0.72497,-0.72083 0.39881,0 0.72272,0.32202 0.72504,0.72083 z"
         id="path1762" />
      <path
         transform="matrix(0,0.999999,0.999999,0,-626.15698,-805.258)"
         style="fill:none;stroke:#ff0000;stroke-width:0.05mm"
         d="m 582.89618,458.8558 c -0.002,0.39881 -0.32623,0.72083 -0.72504,0.72083 -0.39868,0 -0.72265,-0.32202 -0.72497,-0.72083 0.002,-0.39877 0.32617,-0.72079 0.72497,-0.72079 0.39881,0 0.72272,0.32202 0.72504,0.72079 z"
         id="path1764" />
    </g>
    <text
       xml:space="preserve"
       style="font-weight:bold;font-size:15.2141px;font-family:'Gujarati MT';-inkscape-font-specification:'Gujarati MT Bold';fill:#0000ff;stroke:#000000;stroke-width:0.479183;stroke-linecap:round;stroke-linejoin:round"
       x="99.414993"
       y="90.174042"
       id="text8004"
       transform="scale(0.86074943,1.1617783)"><tspan
         id="tspan8002"
         style="font-style:normal;font-variant:normal;font-weight:normal;font-stretch:normal;font-family:'Courier New';-inkscape-font-specification:'Courier New';stroke-width:0.479183"
         x="99.414993"
         y="90.174042">4.5 mm</tspan></text>
  </g>
</svg>
