<?xml version="1.0" encoding="UTF-8" standalone="no"?>
<svg
   width="1357.090mm"
   height="1372.857mm"
   viewBox="-821.500000 -793.395691 1357.090332 1372.856689"
   version="1.1"
   id="svg4136"
   sodipodi:docname="bottom_big.svg"
   inkscape:version="1.2.1 (9c6d41e, 2022-07-14)"
   xmlns:inkscape="http://www.inkscape.org/namespaces/inkscape"
   xmlns:sodipodi="http://sodipodi.sourceforge.net/DTD/sodipodi-0.dtd"
   xmlns="http://www.w3.org/2000/svg"
   xmlns:svg="http://www.w3.org/2000/svg">
  <defs
     id="defs4140" />
  <sodipodi:namedview
     id="namedview4138"
     pagecolor="#ffffff"
     bordercolor="#000000"
     borderopacity="0.25"
     inkscape:showpageshadow="2"
     inkscape:pageopacity="0.0"
     inkscape:pagecheckerboard="0"
     inkscape:deskcolor="#d1d1d1"
     inkscape:document-units="mm"
     showgrid="false"
     inkscape:zoom="0.19792817"
     inkscape:cx="1533.3846"
     inkscape:cy="4145.4433"
     inkscape:window-width="2560"
     inkscape:window-height="1387"
     inkscape:window-x="0"
     inkscape:window-y="215"
     inkscape:window-maximized="1"
     inkscape:current-layer="svg4136" />
  <path
     style="fill:none;stroke:#ff0000;stroke-width:0.05mm"
     d="m 58.716446,-529.0308 c 0,-1.65683 -1.343139,-3 -3,-3 -1.65686,0 -3,1.34317 -3,3 0,1.65686 1.34314,3.00003 3,3.00003 1.656861,0 3,-1.34317 3,-3.00003 z"
     id="path4044" />
  <path
     style="fill:none;stroke:#ff0000;stroke-width:0.05mm"
     d="m -8.635849,-529.0308 c 0,-1.65683 -1.343078,-3 -3,-3 -1.656799,0 -3,1.34317 -3,3 0,1.65686 1.343201,3.00003 3,3.00003 1.656922,0 3,-1.34317 3,-3.00003 z"
     id="path4046" />
  <path
     style="fill:none;stroke:#ff0000;stroke-width:0.05mm"
     d="m 85.265763,-509.95478 c -1.22e-4,-0.5523 -0.447754,-1.00002 -1,-1.00002 -0.552369,0 -1,0.44772 -1,1.00002 0,0.55229 0.447631,1 1,1 0.552246,0 0.999878,-0.44771 1,-1 z"
     id="path4048" />
  <path
     style="fill:none;stroke:#ff0000;stroke-width:0.05mm"
     d="m 85.265763,-385.50399 c -1.22e-4,-0.5523 -0.447754,-1.00002 -1,-1.00002 -0.552369,0 -1,0.44772 -1,1.00002 0,0.55227 0.447631,1 1,1 0.552246,0 0.999878,-0.44773 1,-1 z"
     id="path4050" />
  <path
     style="fill:none;stroke:#ff0000;stroke-width:0.05mm"
     d="m -56.261032,-414.05325 c -0.0063,-1.65237 -1.347595,-2.98859 -3,-2.98859 -1.652466,-1e-5 -2.993713,1.3362 -2.999939,2.98859 0.0062,1.65238 1.347473,2.98857 2.999939,2.98857 1.652405,2e-5 2.993653,-1.33618 3,-2.98857 z"
     id="path4052" />
  <path
     style="fill:none;stroke:#ff0000;stroke-width:0.05mm"
     d="m 25.040421,-349.22942 c 0,-1.65686 -1.34314,-3 -3,-3 -1.656983,0 -3,1.34314 -3,3 0,1.65686 1.343017,3 3,3 1.65686,0 3,-1.34314 3,-3 z"
     id="path4054" />
  <path
     style="fill:none;stroke:#ff0000;stroke-width:0.05mm"
     d="m -8.635849,-366.42802 c 0,-1.65686 -1.343078,-3 -3,-3 -1.656799,0 -3,1.34314 -3,3 0,1.65686 1.343201,3 3,3 1.656922,0 3,-1.34314 3,-3 z"
     id="path4056" />
  <path
     style="fill:none;stroke:#000000;stroke-width:0.05mm"
     d="m 126.54042,-447.7294 c 0,-57.71374 -46.786376,-104.50001 -104.499999,-104.50001 -57.713806,0 -104.500061,46.78627 -104.500061,104.50001 0,57.71376 46.786255,104.5 104.500061,104.50001 57.713623,-10e-6 104.499999,-46.78625 104.499999,-104.50001 z"
     id="path4058" />
  <path
     style="fill:none;stroke:#ff0000;stroke-width:0.05mm"
     d="m 25.040421,-359.7294 c 0,-1.65686 -1.34314,-3.00002 -3,-3.00002 -1.656983,0 -3,1.34316 -3,3.00002 0,1.65686 1.343017,3 3,3 1.65686,0 3,-1.34314 3,-3 z"
     id="path4060" />
  <path
     style="fill:none;stroke:#ff0000;stroke-width:0.05mm"
     d="m -39.185043,-385.50399 c 0,-0.5523 -0.447693,-1.00002 -1,-1.00002 -0.552246,0 -1,0.44772 -1,1.00002 0,0.55227 0.447754,1 1,1 0.552307,0 1,-0.44773 1,-1 z"
     id="path4062" />
  <path
     style="fill:none;stroke:#ff0000;stroke-width:0.05mm"
     d="m 25.040421,-535.72941 c 0,-1.65683 -1.34314,-3 -3,-3 -1.656983,0 -3,1.34317 -3,3 0,1.65683 1.343017,3 3,3 1.65686,0 3,-1.34317 3,-3 z"
     id="path4064" />
  <path
     style="fill:none;stroke:#ff0000;stroke-width:0.05mm"
     d="m 25.040421,-546.22941 c 0,-1.65686 -1.34314,-3 -3,-3 -1.656983,0 -3,1.34314 -3,3 0,1.65683 1.343017,3 3,3 1.65686,0 3,-1.34317 3,-3 z"
     id="path4066" />
  <path
     style="fill:none;stroke:#ff0000;stroke-width:0.05mm"
     d="m -39.185043,-509.95478 c 0,-0.5523 -0.447693,-1.00002 -1,-1.00002 -0.552246,0 -1,0.44772 -1,1.00002 0,0.55229 0.447754,1 1,1 0.552307,0 1,-0.44771 1,-1 z"
     id="path4068" />
  <path
     style="fill:none;stroke:#ff0000;stroke-width:0.05mm"
     d="m -62.95964,-447.7294 c 0,-1.65686 -1.34314,-3 -3.000061,-3 -1.656861,0 -3,1.34314 -3,3 0,1.65686 1.343139,3.00002 3,3.00002 1.656921,0 3.000061,-1.34316 3.000061,-3.00002 z"
     id="path4070" />
  <path
     style="fill:none;stroke:#ff0000;stroke-width:0.05mm"
     d="m -56.261032,-481.40553 c -0.0063,-1.65237 -1.347595,-2.98858 -3,-2.98858 -1.652466,-2e-5 -2.993713,1.33619 -2.999939,2.98858 0.0062,1.65236 1.347473,2.98857 2.999939,2.98857 1.652405,2e-5 2.993653,-1.33619 3,-2.98857 z"
     id="path4072" />
  <path
     style="fill:none;stroke:#ff0000;stroke-width:0.05mm"
     d="m 113.0403,-447.7294 c 0,-1.65686 -1.34302,-2.99998 -3,-2.99998 -1.65686,0 -2.99988,1.34312 -3,2.99998 1.2e-4,1.65686 1.34314,3 3,3 1.65698,0 3,-1.34314 3,-3 z"
     id="path4074" />
  <path
     style="fill:none;stroke:#ff0000;stroke-width:0.05mm"
     d="m 58.716446,-366.42802 c 0,-1.65686 -1.343139,-3 -3,-3 -1.65686,0 -3,1.34314 -3,3 0,1.65686 1.34314,3 3,3 1.656861,0 3,-1.34314 3,-3 z"
     id="path4076" />
  <path
     style="fill:none;stroke:#ff0000;stroke-width:0.05mm"
     d="m 123.54042,-447.7294 c 0,-1.65686 -1.34302,-3 -2.99988,-3 -1.65698,0 -3,1.34314 -3.00012,3 1.2e-4,1.65686 1.34314,3.00002 3.00012,3.00002 1.65686,0 2.99988,-1.34316 2.99988,-3.00002 z"
     id="path4078" />
  <path
     style="fill:none;stroke:#ff0000;stroke-width:0.05mm"
     d="m 106.34169,-481.40553 c -0.003,-1.65436 -1.34558,-2.99354 -2.99988,-2.9935 -1.65442,2e-5 -2.99646,1.33922 -3.00012,2.9935 0.004,1.65436 1.34583,2.99353 3.00012,2.9935 1.65442,-10e-6 2.99646,-1.33923 2.99988,-2.9935 z"
     id="path4080" />
  <path
     style="fill:none;stroke:#ff0000;stroke-width:0.05mm"
     d="m 105.54042,-447.7294 c 0,-46.11576 -37.384277,-83.49998 -83.499999,-83.49998 -46.115845,0 -83.500061,37.38422 -83.500061,83.49998 0,46.11577 37.384216,83.5 83.500061,83.5 46.115722,0 83.499999,-37.38423 83.499999,-83.5 z"
     id="path4082" />
  <path
     style="fill:none;stroke:#ff0000;stroke-width:0.05mm"
     d="m 106.34169,-414.05325 c -0.003,-1.65436 -1.34558,-2.99354 -2.99988,-2.9935 -1.65442,2e-5 -2.99646,1.33922 -3.00012,2.9935 0.004,1.65436 1.34583,2.99353 3.00012,2.9935 1.65442,-10e-6 2.99646,-1.33923 2.99988,-2.9935 z"
     id="path4084" />
  <path
     style="fill:none;stroke:#ff0000;stroke-width:0.05mm"
     d="m -73.459579,-447.7294 c -0.0063,-1.65236 -1.347595,-2.98857 -3.000061,-2.98857 -1.652405,-1e-5 -2.993653,1.33618 -2.999939,2.98857 0.0063,1.65238 1.347534,2.98859 2.999939,2.98859 1.652466,2e-5 2.993713,-1.3362 3.000061,-2.98859 z"
     id="path4086" />
  <path
     style="fill:none;stroke:#ff0000;stroke-width:0.05mm"
     d="m -68.747884,-226.26696 c -0.01,-1.64978 -1.3501,-2.98199 -2.99988,-2.98199 -1.64978,0 -2.98999,1.33221 -3,2.98199 0.01,1.64978 1.35022,2.982 3,2.982 1.64978,0 2.98999,-1.33222 2.99988,-2.982 z"
     id="path4088" />
  <path
     style="fill:none;stroke:#ff0000;stroke-width:0.05mm"
     d="m 107.25212,-226.26696 c -1.3e-4,-1.65686 -1.34314,-3.00001 -3,-3.00001 -1.65687,0 -3,1.34315 -3,3.00001 0,1.65686 1.34313,3.00002 3,3.00002 1.65686,0 2.99987,-1.34316 3,-3.00002 z"
     id="path4090" />
  <path
     style="fill:none;stroke:#ff0000;stroke-width:0.05mm"
     d="m 17.252236,-324.76694 c -0.001,-0.55143 -0.44861,-0.99781 -1,-0.99781 -0.55139,0 -0.99878,0.44638 -1,0.99781 10e-4,0.55142 0.44861,0.9978 1,0.9978 0.55139,0 0.99878,-0.44638 1,-0.9978 z"
     id="path4092" />
  <path
     style="fill:none;stroke:#ff0000;stroke-width:0.05mm"
     d="m 50.928376,-307.56837 c -2.4e-4,-0.55227 -0.44787,-1 -1.00012,-1 -0.55224,0 -1,0.44773 -1,1 0,0.55231 0.44776,1 1,1 0.55225,0 0.99988,-0.44769 1.00012,-1 z"
     id="path4094" />
  <path
     style="fill:none;stroke:#ff0000;stroke-width:0.05mm"
     d="m -44.973354,-164.04157 c -1.2e-4,-0.55228 -0.44775,-1 -1,-1 -0.55236,0 -1,0.44772 -1,1 0,0.55228 0.44764,1.00001 1,1.00001 0.55225,0 0.99988,-0.44773 1,-1.00001 z"
     id="path4096" />
  <path
     style="fill:none;stroke:#ff0000;stroke-width:0.05mm"
     d="m 99.752116,-226.26696 c -1.3e-4,-46.11577 -37.38428,-83.50002 -83.50012,-83.50002 -46.11573,0 -83.49988,37.38425 -83.49988,83.50002 0,46.11577 37.38415,83.49999 83.49988,83.49999 46.11584,0 83.49999,-37.38422 83.50012,-83.49999 z"
     id="path4098" />
  <path
     style="fill:none;stroke:#ff0000;stroke-width:0.05mm"
     d="m 79.477456,-164.04157 c -1.3e-4,-0.55228 -0.44776,-1 -1,-1 -0.55237,0 -1,0.44772 -1,1 0,0.55228 0.44763,1.00001 1,1.00001 0.55224,0 0.99987,-0.44773 1,-1.00001 z"
     id="path4100" />
  <path
     style="fill:none;stroke:#ff0000;stroke-width:0.05mm"
     d="m -81.247884,-226.26696 c -0.003,-0.55009 -0.44995,-0.99443 -1,-0.99443 -0.55017,0 -0.99695,0.44432 -1,0.99443 0.003,0.5501 0.44983,0.99443 1,0.99443 0.55005,0 0.99695,-0.44432 1,-0.99443 z"
     id="path4102" />
  <path
     style="fill:none;stroke:#ff0000;stroke-width:0.05mm"
     d="m 98.553626,-259.94309 c -10e-4,-0.55142 -0.44873,-0.99782 -1.00012,-0.99782 -0.55139,0 -0.99878,0.44638 -0.99988,0.99782 0.001,0.55141 0.44849,0.9978 0.99988,0.9978 0.55139,0 0.99878,-0.44638 1.00012,-0.9978 z"
     id="path4104" />
  <path
     style="fill:none;stroke:#ff0000;stroke-width:0.05mm"
     d="m -64.049274,-259.94309 c 0,-0.55229 -0.44764,-1.00002 -0.99988,-1.00002 -0.55237,0 -1,0.44773 -1.00012,1.00002 1.2e-4,0.55229 0.44775,1 1.00012,1 0.55224,0 0.99988,-0.44771 0.99988,-1 z"
     id="path4106" />
  <path
     style="fill:none;stroke:#ff0000;stroke-width:0.05mm"
     d="m 19.252116,-138.26695 c -1.2e-4,-1.65685 -1.34326,-3 -3.00012,-3 -1.65686,0 -2.99988,1.34315 -2.99988,3 0,1.65686 1.34302,3.00001 2.99988,3.00001 1.65686,0 3,-1.34315 3.00012,-3.00001 z"
     id="path4108" />
  <path
     style="fill:none;stroke:#ff0000;stroke-width:0.05mm"
     d="m 79.477456,-288.49236 c -1.3e-4,-0.55229 -0.44776,-1 -1,-1 -0.55237,0 -1,0.44771 -1,1 0,0.55229 0.44763,1.00001 1,1.00001 0.55224,0 0.99987,-0.44772 1,-1.00001 z"
     id="path4110" />
  <path
     style="fill:none;stroke:#ff0000;stroke-width:0.05mm"
     d="m 19.252116,-314.26698 c -1.2e-4,-1.65686 -1.34326,-3 -3.00012,-3 -1.65686,0 -2.99988,1.34314 -2.99988,3 0,1.65683 1.34302,3 2.99988,3 1.65686,0 3,-1.34317 3.00012,-3 z"
     id="path4112" />
  <path
     style="fill:none;stroke:#ff0000;stroke-width:0.05mm"
     d="m -16.424034,-144.96557 c 0,-0.55227 -0.44763,-1 -0.99988,-1 -0.55237,0 -1,0.44773 -1.00012,1 1.2e-4,0.55229 0.44775,1 1.00012,1 0.55225,0 0.99988,-0.44771 0.99988,-1 z"
     id="path4114" />
  <path
     style="fill:none;stroke:#ff0000;stroke-width:0.05mm"
     d="m 50.928376,-144.96557 c -2.4e-4,-0.55227 -0.44787,-1 -1.00012,-1 -0.55224,0 -1,0.44773 -1,1 0,0.55229 0.44776,1 1,1 0.55225,0 0.99988,-0.44771 1.00012,-1 z"
     id="path4116" />
  <path
     style="fill:none;stroke:#ff0000;stroke-width:0.05mm"
     d="m -16.424034,-307.56837 c 0,-0.55227 -0.44763,-1 -0.99988,-1 -0.55237,0 -1,0.44773 -1.00012,1 1.2e-4,0.55231 0.44775,1 1.00012,1 0.55225,0 0.99988,-0.44769 0.99988,-1 z"
     id="path4118" />
  <path
     style="fill:none;stroke:#ff0000;stroke-width:0.05mm"
     d="m 115.75212,-226.26696 c -0.001,-0.55142 -0.44849,-0.9978 -0.99988,-0.9978 -0.55139,0 -0.99878,0.44636 -1.00012,0.9978 10e-4,0.55142 0.44873,0.9978 1.00012,0.9978 0.55139,0 0.99878,-0.44636 0.99988,-0.9978 z"
     id="path4120" />
  <path
     style="fill:none;stroke:#ff0000;stroke-width:0.05mm"
     d="m -64.049274,-192.59081 c 0,-0.55229 -0.44764,-1.00002 -0.99988,-1.00002 -0.55237,0 -1,0.44773 -1.00012,1.00002 1.2e-4,0.55229 0.44775,1 1.00012,1 0.55224,0 0.99988,-0.44771 0.99988,-1 z"
     id="path4122" />
  <path
     style="fill:none;stroke:#ff0000;stroke-width:0.05mm"
     d="m 98.553626,-192.59081 c -10e-4,-0.55142 -0.44873,-0.99782 -1.00012,-0.99782 -0.55139,0 -0.99878,0.44638 -0.99988,0.99782 0.001,0.55141 0.44849,0.9978 0.99988,0.9978 0.55139,0 0.99878,-0.44638 1.00012,-0.9978 z"
     id="path4124" />
  <path
     style="fill:none;stroke:#000000;stroke-width:0.05mm"
     d="m 120.75212,-226.26696 c -0.0564,-57.67593 -46.827034,-104.40028 -104.501474,-104.39937 -57.67468,8.6e-4 -104.44397,46.72667 -104.49841,104.39937 0.0563,57.67593 46.8269,104.40026 104.50147,104.39938 57.67467,-8.9e-4 104.443844,-46.72666 104.498414,-104.39938 z"
     id="path4126" />
  <path
     style="fill:none;stroke:#ff0000;stroke-width:0.05mm"
     d="m -44.973354,-288.49236 c -1.2e-4,-0.55229 -0.44775,-1 -1,-1 -0.55236,0 -1,0.44771 -1,1 0,0.55229 0.44764,1.00001 1,1.00001 0.55225,0 0.99988,-0.44772 1,-1.00001 z"
     id="path4128" />
  <path
     style="fill:none;stroke:#ff0000;stroke-width:0.05mm"
     d="m 17.252236,-127.76696 c -0.001,-0.55143 -0.44861,-0.99782 -1,-0.99782 -0.55139,0 -0.99878,0.44638 -1,0.99782 10e-4,0.55143 0.44861,0.99782 1,0.99782 0.55139,10e-6 0.99878,-0.44637 1,-0.99782 z"
     id="path4130" />
  <path
     style="fill:none;stroke:#000000;stroke-width:0.05mm"
     d="m -330.19335,-341.26968 c 0.13023,-0.53497 -0.19651,-1.07459 -0.73092,-1.20712 -0.53443,-0.13254 -1.07544,0.19187 -1.21026,0.72572"
     id="path4315" />
  <path
     style="fill:none;stroke:#000000;stroke-width:0.05mm"
     d="m -333.97776,-342.24499 c 0.14993,-0.52967 -0.15641,-1.08089 -0.68537,-1.23328 -0.52894,-0.15239 -1.08162,0.15137 -1.23645,0.67961"
     id="path4317" />
  <path
     style="fill:none;stroke:#000000;stroke-width:0.05mm"
     d="m -337.72305,-343.36111 c 0.16991,-0.52377 -0.11557,-1.08634 -0.63862,-1.25846 -0.52305,-0.17211 -1.08681,0.111 -1.26114,0.63332"
     id="path4319" />
  <path
     style="fill:none;stroke:#000000;stroke-width:0.05mm"
     d="m -341.42399,-344.61651 c 0.1888,-0.5169 -0.0755,-1.08919 -0.59145,-1.28063 -0.51591,-0.19142 -1.08955,0.07 -1.28361,0.5849"
     id="path4321" />
  <path
     style="fill:none;stroke:#000000;stroke-width:0.05mm"
     d="m -345.0754,-346.0094 c 0.20834,-0.50955 -0.0344,-1.09167 -0.54294,-1.30233 -0.50859,-0.21067 -1.09181,0.0293 -1.3048,0.53697"
     id="path4323" />
  <path
     style="fill:none;stroke:#000000;stroke-width:0.05mm"
     d="m -402.16899,-402.02061 c 0.50763,-0.213 0.74764,-0.79621 0.53697,-1.30481 -0.21066,-0.50859 -0.79277,-0.75127 -1.30232,-0.54293"
     id="path4325" />
  <path
     style="fill:none;stroke:#000000;stroke-width:0.05mm"
     d="m -403.63151,-405.6447 c 0.51511,-0.19394 0.77664,-0.7677 0.58517,-1.28373 -0.19148,-0.51602 -0.76396,-0.78032 -1.2809,-0.59133"
     id="path4327" />
  <path
     style="fill:none;stroke:#000000;stroke-width:0.05mm"
     d="m -404.9575,-409.32093 c 0.52231,-0.17432 0.80542,-0.7381 0.63331,-1.26114 -0.17211,-0.52304 -0.73468,-0.80853 -1.25845,-0.63864"
     id="path4329" />
  <path
     style="fill:none;stroke:#000000;stroke-width:0.05mm"
     d="m -406.14511,-413.04418 c 0.52825,-0.15485 0.83201,-0.7075 0.67962,-1.23646 -0.15239,-0.52895 -0.70363,-0.83529 -1.23328,-0.68535"
     id="path4331" />
  <path
     style="fill:none;stroke:#000000;stroke-width:0.05mm"
     d="m -407.19266,-416.80923 c 0.53351,-0.13511 0.85757,-0.67593 0.72509,-1.21011 -0.13248,-0.53417 -0.67169,-0.86089 -1.20651,-0.73105"
     id="path4333" />
  <path
     style="fill:none;stroke:#000000;stroke-width:0.05mm"
     d="m -408.09871,-420.61081 c 0.53809,-0.11518 0.88202,-0.64344 0.76962,-1.18211 -0.1124,-0.53868 -0.63888,-0.88532 -1.17812,-0.7757"
     id="path4335" />
  <path
     style="fill:none;stroke:#000000;stroke-width:0.05mm"
     d="m -408.86198,-424.44362 c 0.54233,-0.0947 0.90616,-0.60986 0.81394,-1.15261 -0.0922,-0.54275 -0.60579,-0.90888 -1.14895,-0.8191"
     id="path4337" />
  <path
     style="fill:none;stroke:#000000;stroke-width:0.05mm"
     d="m -409.48139,-428.30227 c 0.54529,-0.0745 0.92786,-0.57567 0.85602,-1.12133 -0.0718,-0.54565 -0.57108,-0.93069 -1.11708,-0.86154"
     id="path4339" />
  <path
     style="fill:none;stroke:#000000;stroke-width:0.05mm"
     d="m -409.9561,-432.1814 c 0.5476,-0.0542 0.94851,-0.54063 0.89715,-1.0885 -0.0514,-0.54787 -0.53574,-0.95129 -1.08387,-0.90273"
     id="path4341" />
  <path
     style="fill:none;stroke:#000000;stroke-width:0.05mm"
     d="m -410.28543,-436.07556 c 0.54953,-0.0333 0.96875,-0.50456 0.93789,-1.05423 -0.0309,-0.54967 -0.50022,-0.971 -1.05003,-0.9426"
     id="path4343" />
  <path
     style="fill:none;stroke:#000000;stroke-width:0.05mm"
     d="m -410.46892,-439.97931 c 0.5501,-0.0131 0.98623,-0.46826 0.97594,-1.01842 -0.0103,-0.55017 -0.46313,-0.98865 -1.01334,-0.98121"
     id="path4345" />
  <path
     style="fill:none;stroke:#000000;stroke-width:0.05mm"
     d="m -410.50632,-443.8872 c 0.55036,0.008 1.00345,-0.43087 1.01374,-0.9812 0.0103,-0.55032 -0.42608,-1.0055 -0.97634,-1.01843"
     id="path4347" />
  <path
     style="fill:none;stroke:#000000;stroke-width:0.05mm"
     d="m -410.39757,-447.79375 c 0.54965,0.0282 1.01874,-0.39312 1.0496,-0.94262 0.0308,-0.5495 -0.38812,-1.02066 -0.93746,-1.05421"
     id="path4349" />
  <path
     style="fill:none;stroke:#000000;stroke-width:0.05mm"
     d="m -410.14282,-451.6935 c 0.54827,0.0488 1.03288,-0.35467 1.08427,-0.9027 0.0514,-0.54803 -0.34978,-1.03456 -0.89755,-1.08854"
     id="path4351" />
  <path
     style="fill:none;stroke:#000000;stroke-width:0.05mm"
     d="m -409.74245,-455.581 c 0.54601,0.0691 1.04524,-0.31589 1.11708,-0.86155 0.0718,-0.54565 -0.31073,-1.04679 -0.85602,-1.12132"
     id="path4353" />
  <path
     style="fill:none;stroke:#000000;stroke-width:0.05mm"
     d="m -409.19699,-459.45081 c 0.54303,0.0895 1.05633,-0.27659 1.14853,-0.81918 0.0922,-0.54259 -0.27139,-1.05768 -0.81352,-1.15254"
     id="path4355" />
  <path
     style="fill:none;stroke:#000000;stroke-width:0.05mm"
     d="m -408.50721,-463.29752 c 0.53935,0.10986 1.06608,-0.2368 1.17851,-0.77562 0.11242,-0.53883 -0.23173,-1.0672 -0.77001,-1.18219"
     id="path4357" />
  <path
     style="fill:none;stroke:#000000;stroke-width:0.05mm"
     d="m -407.67408,-467.11574 c 0.53482,0.12984 1.07403,-0.19688 1.20651,-0.73106 0.13248,-0.53418 -0.19158,-1.075 -0.72509,-1.21011"
     id="path4359" />
  <path
     style="fill:none;stroke:#000000;stroke-width:0.05mm"
     d="m -406.69877,-470.90015 c 0.52957,0.14968 1.08055,-0.15666 1.23289,-0.68547 0.15236,-0.52881 -0.1512,-1.08133 -0.67923,-1.23634"
     id="path4361" />
  <path
     style="fill:none;stroke:#000000;stroke-width:0.05mm"
     d="m -405.58264,-474.64544 c 0.52369,0.16962 1.08598,-0.11588 1.25804,-0.63877 0.17206,-0.52288 -0.11083,-1.0865 -0.6329,-1.261"
     id="path4363" />
  <path
     style="fill:none;stroke:#000000;stroke-width:0.05mm"
     d="m -404.32724,-478.34638 c 0.51694,0.18899 1.08942,-0.0753 1.2809,-0.59133 0.19147,-0.51603 -0.0701,-1.08978 -0.58517,-1.28373"
     id="path4365" />
  <path
     style="fill:none;stroke:#000000;stroke-width:0.05mm"
     d="m -402.93434,-481.99779 c 0.50952,0.20821 1.0915,-0.0345 1.30214,-0.54301 0.21064,-0.50852 -0.0293,-1.09166 -0.53679,-1.30472"
     id="path4367" />
  <path
     style="fill:none;stroke:#000000;stroke-width:0.05mm"
     d="m -346.92314,-539.09138 c 0.21302,0.50758 0.79621,0.74755 1.30477,0.53689 0.50856,-0.21065 0.75123,-0.79271 0.54297,-1.30225"
     id="path4369" />
  <path
     style="fill:none;stroke:#000000;stroke-width:0.05mm"
     d="m -343.29905,-540.5539 c 0.194,0.51502 0.7677,0.77649 1.28366,0.58503 0.51599,-0.19144 0.78029,-0.76384 0.5914,-1.28076"
     id="path4371" />
  <path
     style="fill:none;stroke:#000000;stroke-width:0.05mm"
     d="m -339.62281,-541.87989 c 0.17439,0.52223 0.73809,0.80526 1.26109,0.63317 0.52298,-0.1721 0.80849,-0.73457 0.63867,-1.25831"
     id="path4373" />
  <path
     style="fill:none;stroke:#000000;stroke-width:0.05mm"
     d="m -335.89958,-543.06749 c 0.15483,0.52824 0.70751,0.832 1.23645,0.67961 0.52896,-0.15238 0.8353,-0.70362 0.68537,-1.23328"
     id="path4375" />
  <path
     style="fill:none;stroke:#000000;stroke-width:0.05mm"
     d="m -332.13453,-544.11505 c 0.13478,0.5339 0.67583,0.85838 1.21029,0.72583 0.53447,-0.13255 0.8612,-0.67224 0.73089,-1.20725"
     id="path4377" />
  <path
     style="fill:none;stroke:#000000;stroke-width:0.05mm"
     d="m -328.33294,-545.0211 c 0.11522,0.53804 0.64345,0.88193 1.18208,0.76954 0.53865,-0.11238 0.88529,-0.63881 0.77573,-1.17804"
     id="path4379" />
  <path
     style="fill:none;stroke:#000000;stroke-width:0.05mm"
     d="m -324.50015,-545.78436 c 0.0942,0.54281 0.60965,0.90719 1.15279,0.81492 0.54312,-0.0923 0.90932,-0.60647 0.81895,-1.14993"
     id="path4381" />
  <path
     style="fill:none;stroke:#000000;stroke-width:0.05mm"
     d="m -320.64147,-546.40379 c 0.0741,0.54565 0.57545,0.92867 1.12141,0.8568 0.54596,-0.0719 0.93106,-0.5716 0.86145,-1.11784"
     id="path4383" />
  <path
     style="fill:none;stroke:#000000;stroke-width:0.05mm"
     d="m -316.76235,-546.87849 c 0.0542,0.54762 0.54061,0.94856 1.0885,0.89718 0.54789,-0.0514 0.95131,-0.53577 0.90274,-1.08391"
     id="path4385" />
  <path
     style="fill:none;stroke:#000000;stroke-width:0.05mm"
     d="m -312.86819,-547.20782 c 0.0337,0.54919 0.50484,0.96793 1.05418,0.93708 0.54937,-0.0308 0.9706,-0.49971 0.94265,-1.04922"
     id="path4387" />
  <path
     style="fill:none;stroke:#000000;stroke-width:0.05mm"
     d="m -308.96443,-547.39131 c 0.0134,0.54995 0.4684,0.98585 1.01841,0.97556 0.55001,-0.0103 0.98844,-0.46289 0.98121,-1.01296"
     id="path4389" />
  <path
     style="fill:none;stroke:#000000;stroke-width:0.05mm"
     d="m -305.05654,-547.42871 c -0.007,0.55007 0.43118,1.00268 0.9812,1.01296 0.55002,0.0103 1.00506,-0.42561 1.01841,-0.97556"
     id="path4391" />
  <path
     style="fill:none;stroke:#000000;stroke-width:0.05mm"
     d="m -301.15,-547.31996 c -0.028,0.54951 0.39329,1.01837 0.94264,1.04922 0.54934,0.0309 1.02043,-0.38789 1.05418,-0.93708"
     id="path4393" />
  <path
     style="fill:none;stroke:#000000;stroke-width:0.05mm"
     d="m -297.25025,-547.06522 c -0.0486,0.54814 0.35484,1.03253 0.90274,1.08391 0.54788,0.0514 1.03431,-0.34956 1.0885,-0.89718"
     id="path4395" />
  <path
     style="fill:none;stroke:#000000;stroke-width:0.05mm"
     d="m -293.36276,-546.66483 c -0.0696,0.54624 0.31551,1.04596 0.86145,1.11784 0.54596,0.0719 1.04727,-0.31115 1.12143,-0.8568"
     id="path4397" />
  <path
     style="fill:none;stroke:#000000;stroke-width:0.05mm"
     d="m -289.49295,-546.11937 c -0.0904,0.54345 0.27582,1.05764 0.81894,1.14992 0.54314,0.0923 1.05861,-0.2721 1.15279,-0.81491"
     id="path4399" />
  <path
     style="fill:none;stroke:#000000;stroke-width:0.05mm"
     d="m -285.64624,-545.4296 c -0.10955,0.53923 0.23708,1.06565 0.77573,1.17804 0.53865,0.11239 1.06688,-0.2315 1.18208,-0.76954"
     id="path4401" />
  <path
     style="fill:none;stroke:#000000;stroke-width:0.05mm"
     d="m -281.82801,-544.59647 c -0.1303,0.53501 0.19642,1.0747 0.73088,1.20725 0.53447,0.13255 1.07551,-0.19193 1.21029,-0.72583"
     id="path4403" />
  <path
     style="fill:none;stroke:#000000;stroke-width:0.05mm"
     d="m -278.0436,-543.62116 c -0.14992,0.52966 0.1564,1.0809 0.68536,1.23328 0.52896,0.15239 1.08162,-0.15137 1.23645,-0.67961"
     id="path4405" />
  <path
     style="fill:none;stroke:#000000;stroke-width:0.05mm"
     d="m -274.29832,-542.50502 c -0.1698,0.52373 0.11569,1.08621 0.63869,1.2583 0.52298,0.17209 1.08671,-0.11094 1.26109,-0.63317"
     id="path4407" />
  <path
     style="fill:none;stroke:#000000;stroke-width:0.05mm"
     d="m -270.59738,-541.24963 c -0.1889,0.51692 0.0754,1.08931 0.59139,1.28076 0.51597,0.19146 1.08966,-0.07 1.28367,-0.58503"
     id="path4409" />
  <path
     style="fill:none;stroke:#000000;stroke-width:0.05mm"
     d="m -266.94598,-539.85674 c -0.20827,0.50954 0.0344,1.0916 0.54298,1.30225 0.50857,0.21066 1.09174,-0.0293 1.30477,-0.53689"
     id="path4411" />
  <path
     style="fill:none;stroke:#000000;stroke-width:0.05mm"
     d="m -209.8524,-483.84552 c -0.5075,0.21306 -0.7474,0.7962 -0.53677,1.30472 0.21063,0.50852 0.79263,0.75122 1.30215,0.54301"
     id="path4413" />
  <path
     style="fill:none;stroke:#000000;stroke-width:0.05mm"
     d="m -208.38984,-480.22144 c -0.51496,0.19405 -0.77634,0.7677 -0.5849,1.28363 0.19141,0.51592 0.76373,0.78023 1.28064,0.59143"
     id="path4415" />
  <path
     style="fill:none;stroke:#000000;stroke-width:0.05mm"
     d="m -207.06385,-476.54521 c -0.52182,0.1747 -0.80442,0.73814 -0.63242,1.26084 0.172,0.52269 0.73395,0.80822 1.25754,0.63893"
     id="path4417" />
  <path
     style="fill:none;stroke:#000000;stroke-width:0.05mm"
     d="m -205.87626,-472.82196 c -0.52826,0.15482 -0.83206,0.7075 -0.67969,1.23648 0.15241,0.52898 0.70368,0.8353 1.23337,0.68533"
     id="path4419" />
  <path
     style="fill:none;stroke:#000000;stroke-width:0.05mm"
     d="m -203.92265,-465.25533 c -0.53827,0.11499 -0.88244,0.64336 -0.77002,1.18219 0.11246,0.53882 0.63916,0.88548 1.17853,0.77562"
     id="path4421" />
  <path
     style="fill:none;stroke:#000000;stroke-width:0.05mm"
     d="m -203.15937,-461.42253 c -0.54203,0.095 -0.90546,0.61001 -0.81327,1.15249 0.0921,0.54249 0.60529,0.90858 1.14826,0.81923"
     id="path4423" />
  <path
     style="fill:none;stroke:#000000;stroke-width:0.05mm"
     d="m -202.53999,-457.56387 c -0.54532,0.0745 -0.92798,0.57565 -0.85614,1.12134 0.0719,0.54569 0.57117,0.93075 1.11722,0.86153"
     id="path4425" />
  <path
     style="fill:none;stroke:#000000;stroke-width:0.05mm"
     d="m -202.06526,-453.68474 c -0.54773,0.054 -0.94888,0.54052 -0.89749,1.08853 0.0514,0.548 0.53595,0.95145 1.0842,0.90271"
     id="path4427" />
  <path
     style="fill:none;stroke:#000000;stroke-width:0.05mm"
     d="m -201.73591,-449.79058 c -0.54938,0.0335 -0.96832,0.50471 -0.93744,1.05421 0.0308,0.5495 0.49991,0.97078 1.04956,0.94262"
     id="path4429" />
  <path
     style="fill:none;stroke:#000000;stroke-width:0.05mm"
     d="m -201.55244,-445.88683 c -0.55026,0.0129 -0.98663,0.46811 -0.97632,1.01843 0.0103,0.55032 0.46338,0.98887 1.01373,0.9812"
     id="path4431" />
  <path
     style="fill:none;stroke:#000000;stroke-width:0.05mm"
     d="m -201.51503,-441.97894 c -0.55023,-0.007 -1.00308,0.43104 -1.01336,0.98121 -0.0103,0.55016 0.42581,1.00528 0.97595,1.01842"
     id="path4433" />
  <path
     style="fill:none;stroke:#000000;stroke-width:0.05mm"
     d="m -201.62379,-438.07239 c -0.54977,-0.0284 -1.0191,0.39293 -1.04999,0.9426 -0.0309,0.54967 0.38834,1.0209 0.93787,1.05423"
     id="path4435" />
  <path
     style="fill:none;stroke:#000000;stroke-width:0.05mm"
     d="m -201.87855,-434.17263 c -0.54813,-0.0485 -1.03244,0.3549 -1.0838,0.90274 -0.0514,0.54784 0.34952,1.03426 0.89709,1.08849"
     id="path4437" />
  <path
     style="fill:none;stroke:#000000;stroke-width:0.05mm"
     d="m -202.27891,-430.28514 c -0.54605,-0.0692 -1.04538,0.31583 -1.11722,0.86153 -0.0718,0.54569 0.31082,1.04686 0.85614,1.12134"
     id="path4439" />
  <path
     style="fill:none;stroke:#000000;stroke-width:0.05mm"
     d="m -202.82438,-426.41533 c -0.54309,-0.0896 -1.05646,0.27652 -1.14865,0.81916 -0.0922,0.54264 0.27142,1.05776 0.81366,1.15255"
     id="path4441" />
  <path
     style="fill:none;stroke:#000000;stroke-width:0.05mm"
     d="m -203.51414,-422.56862 c -0.53925,-0.10962 -1.06573,0.23703 -1.17813,0.7757 -0.1124,0.53867 0.23154,1.06693 0.76962,1.18211"
     id="path4443" />
  <path
     style="fill:none;stroke:#000000;stroke-width:0.05mm"
     d="m -204.3473,-418.75039 c -0.53464,-0.1295 -1.07355,0.19722 -1.20596,0.7312 -0.13242,0.53396 0.19137,1.07461 0.72458,1.20996"
     id="path4445" />
  <path
     style="fill:none;stroke:#000000;stroke-width:0.05mm"
     d="m -205.32258,-414.96599 c -0.52976,-0.15026 -1.08133,0.15606 -1.2338,0.68521 -0.15243,0.52914 0.15161,1.08197 0.68012,1.2366"
     id="path4447" />
  <path
     style="fill:none;stroke:#000000;stroke-width:0.05mm"
     d="m -206.43873,-411.22071 c -0.52368,-0.16953 -1.08588,0.11598 -1.25794,0.63882 -0.17202,0.52284 0.11078,1.08641 0.63282,1.26096"
     id="path4449" />
  <path
     style="fill:none;stroke:#000000;stroke-width:0.05mm"
     d="m -207.6941,-407.51976 c -0.51691,-0.1888 -1.08923,0.0755 -1.28064,0.59143 -0.19144,0.51593 0.0699,1.08957 0.5849,1.28363"
     id="path4451" />
  <path
     style="fill:none;stroke:#000000;stroke-width:0.05mm"
     d="m -209.08702,-403.86835 c -0.50952,-0.20834 -1.09164,0.0344 -1.3023,0.54294 -0.2107,0.50859 0.0294,1.0918 0.53692,1.3048"
     id="path4453" />
  <path
     style="fill:none;stroke:#000000;stroke-width:0.05mm"
     d="m -265.09823,-346.77476 c -0.21298,-0.50763 -0.7962,-0.74764 -1.3048,-0.53697 -0.50859,0.21066 -0.75128,0.79278 -0.54295,1.30233"
     id="path4455" />
  <path
     style="fill:none;stroke:#000000;stroke-width:0.05mm"
     d="m -268.72232,-345.31224 c -0.19406,-0.51494 -0.7677,-0.77632 -1.28363,-0.5849 -0.51591,0.19144 -0.78022,0.76373 -0.59143,1.28063"
     id="path4457" />
  <path
     style="fill:none;stroke:#000000;stroke-width:0.05mm"
     d="m -272.39854,-343.98625 c -0.17433,-0.52232 -0.73811,-0.80543 -1.26115,-0.63332 -0.52304,0.17212 -0.80854,0.73469 -0.63863,1.25846"
     id="path4459" />
  <path
     style="fill:none;stroke:#000000;stroke-width:0.05mm"
     d="m -276.12179,-342.79866 c -0.15483,-0.52824 -0.70749,-0.832 -1.23645,-0.67961 -0.52896,0.15239 -0.83528,0.70361 -0.68536,1.23328"
     id="path4461" />
  <path
     style="fill:none;stroke:#000000;stroke-width:0.05mm"
     d="m -279.88684,-341.75108 c -0.13482,-0.53385 -0.67582,-0.85826 -1.21025,-0.72572 -0.53442,0.13253 -0.86114,0.67215 -0.73092,1.20712"
     id="path4463" />
  <path
     style="fill:none;stroke:#000000;stroke-width:0.05mm"
     d="m -283.68843,-340.84504 c -0.11517,-0.53808 -0.64343,-0.88201 -1.18209,-0.76961 -0.53869,0.11239 -0.88533,0.63887 -0.77572,1.17811"
     id="path4465" />
  <path
     style="fill:none;stroke:#000000;stroke-width:0.05mm"
     d="m -287.52122,-340.08178 c -0.0942,-0.5428 -0.60965,-0.9072 -1.15279,-0.81492 -0.54312,0.0923 -0.90931,0.60646 -0.81894,1.14994"
     id="path4467" />
  <path
     style="fill:none;stroke:#000000;stroke-width:0.05mm"
     d="m -291.37988,-339.46235 c -0.0742,-0.54566 -0.57547,-0.92868 -1.12143,-0.8568 -0.54594,0.0719 -0.93104,0.57159 -0.86145,1.11784"
     id="path4469" />
  <path
     style="fill:none;stroke:#000000;stroke-width:0.05mm"
     d="m -295.25901,-338.98764 c -0.0542,-0.54756 -0.54064,-0.94844 -1.08849,-0.89708 -0.54785,0.0514 -0.95126,0.53568 -0.90275,1.08379"
     id="path4471" />
  <path
     style="fill:none;stroke:#000000;stroke-width:0.05mm"
     d="m -299.15318,-338.65832 c -0.0338,-0.54917 -0.50484,-0.96791 -1.05418,-0.93706 -0.54935,0.0308 -0.97058,0.49969 -0.94264,1.04919"
     id="path4473" />
  <path
     style="fill:none;stroke:#000000;stroke-width:0.05mm"
     d="m -303.05693,-338.47484 c -0.0134,-0.54994 -0.46839,-0.98585 -1.01841,-0.97557 -0.55002,0.0103 -0.98844,0.46291 -0.9812,1.01297"
     id="path4475" />
  <path
     style="fill:none;stroke:#000000;stroke-width:0.05mm"
     d="m -306.96481,-338.43744 c 0.007,-0.55006 -0.4312,-1.00268 -0.98121,-1.01297 -0.55001,-0.0103 -1.00506,0.42563 -1.01841,0.97557"
     id="path4477" />
  <path
     style="fill:none;stroke:#000000;stroke-width:0.05mm"
     d="m -310.87136,-338.54619 c 0.0279,-0.5495 -0.39328,-1.01834 -0.94265,-1.04919 -0.54934,-0.0309 -1.02041,0.38789 -1.05418,0.93706"
     id="path4479" />
  <path
     style="fill:none;stroke:#000000;stroke-width:0.05mm"
     d="m -314.77111,-338.80093 c 0.0485,-0.54811 -0.35491,-1.03241 -0.90276,-1.08379 -0.54784,-0.0514 -1.03426,0.34952 -1.08848,0.89708"
     id="path4481" />
  <path
     style="fill:none;stroke:#000000;stroke-width:0.05mm"
     d="m -318.65861,-339.20131 c 0.0696,-0.54625 -0.31549,-1.04596 -0.86145,-1.11784 -0.54596,-0.0719 -1.04727,0.31114 -1.12141,0.8568"
     id="path4483" />
  <path
     style="fill:none;stroke:#000000;stroke-width:0.05mm"
     d="m -322.52841,-339.74676 c 0.0904,-0.54348 -0.27583,-1.05765 -0.81895,-1.14994 -0.54314,-0.0923 -1.05861,0.27212 -1.15279,0.81492"
     id="path4485" />
  <path
     style="fill:none;stroke:#000000;stroke-width:0.05mm"
     d="m -326.37513,-340.43654 c 0.10962,-0.53924 -0.23703,-1.06572 -0.77571,-1.17811 -0.53865,-0.1124 -1.06693,0.23153 -1.1821,0.76961"
     id="path4487" />
  <path
     style="fill:none;stroke:#ff0000;stroke-width:0.05mm"
     d="m -342.18963,-532.08744 c 0,-0.41421 -0.33579,-0.75 -0.75,-0.75 -0.41422,0 -0.75,0.33579 -0.75,0.75 0,0.41421 0.33578,0.75 0.75,0.75 0.41421,0 0.75,-0.33579 0.75,-0.75 z"
     id="path4489" />
  <path
     style="fill:none;stroke:#ff0000;stroke-width:0.05mm"
     d="m -373.49648,-511.16887 c 0,-0.41422 -0.33579,-0.75 -0.75001,-0.75 -0.4142,0 -0.75,0.33578 -0.75,0.75 0,0.41421 0.3358,0.75 0.75,0.75 0.41422,0 0.75001,-0.33579 0.75001,-0.75 z"
     id="path4491" />
  <path
     style="fill:none;stroke:#ff0000;stroke-width:0.05mm"
     d="m -394.41505,-479.86202 c 0,-0.41421 -0.33579,-0.75 -0.75,-0.75 -0.41421,0 -0.75001,0.33579 -0.75001,0.75 0,0.41421 0.3358,0.75 0.75001,0.75 0.41421,0 0.75,-0.33579 0.75,-0.75 z"
     id="path4493" />
  <path
     style="fill:none;stroke:#ff0000;stroke-width:0.05mm"
     d="m -394.41505,-406.00412 c 0,-0.41421 -0.33579,-0.75001 -0.75,-0.75001 -0.41421,0 -0.75001,0.3358 -0.75001,0.75001 0,0.41421 0.3358,0.75 0.75001,0.75 0.41421,0 0.75,-0.33579 0.75,-0.75 z"
     id="path4495" />
  <path
     style="fill:none;stroke:#ff0000;stroke-width:0.05mm"
     d="m -373.49648,-374.69726 c 0,-0.41422 -0.33579,-0.75 -0.75001,-0.75 -0.4142,0 -0.75,0.33578 -0.75,0.75 0,0.4142 0.3358,0.75 0.75,0.75 0.41422,0 0.75001,-0.3358 0.75001,-0.75 z"
     id="path4497" />
  <path
     style="fill:none;stroke:#ff0000;stroke-width:0.05mm"
     d="m -342.18963,-353.7787 c 0,-0.41421 -0.33579,-0.75 -0.75,-0.75 -0.41422,0 -0.75,0.33579 -0.75,0.75 0,0.41422 0.33578,0.75 0.75,0.75 0.41421,0 0.75,-0.33578 0.75,-0.75 z"
     id="path4499" />
  <path
     style="fill:none;stroke:#ff0000;stroke-width:0.05mm"
     d="m -268.33174,-353.7787 c -0.002,-0.41309 -0.33691,-0.74713 -0.75,-0.74713 -0.41311,0 -0.74842,0.33404 -0.75,0.74713 0.002,0.41309 0.3369,0.74713 0.75,0.74713 0.41311,0 0.74842,-0.33404 0.75,-0.74713 z"
     id="path4501" />
  <path
     style="fill:none;stroke:#ff0000;stroke-width:0.05mm"
     d="m -237.02488,-374.69726 c 0,-0.41422 -0.33579,-0.75 -0.75,-0.75 -0.41422,0 -0.75,0.33578 -0.75,0.75 0,0.4142 0.33578,0.75 0.75,0.75 0.41421,0 0.75,-0.3358 0.75,-0.75 z"
     id="path4503" />
  <path
     style="fill:none;stroke:#ff0000;stroke-width:0.05mm"
     d="m -216.1063,-406.00412 c -3e-5,-0.41421 -0.33579,-0.75001 -0.75,-0.75001 -0.41425,0 -0.75,0.3358 -0.75,0.75001 0,0.41421 0.33575,0.75 0.75,0.75 0.41421,0 0.74997,-0.33579 0.75,-0.75 z"
     id="path4505" />
  <path
     style="fill:none;stroke:#ff0000;stroke-width:0.05mm"
     d="m -216.1063,-479.86202 c -3e-5,-0.41421 -0.33579,-0.75 -0.75,-0.75 -0.41425,0 -0.75,0.33579 -0.75,0.75 0,0.41421 0.33575,0.75 0.75,0.75 0.41421,0 0.74997,-0.33579 0.75,-0.75 z"
     id="path4507" />
  <path
     style="fill:none;stroke:#ff0000;stroke-width:0.05mm"
     d="m -237.02488,-511.16887 c 0,-0.41422 -0.33579,-0.75 -0.75,-0.75 -0.41422,0 -0.75,0.33578 -0.75,0.75 0,0.41421 0.33578,0.75 0.75,0.75 0.41421,0 0.75,-0.33579 0.75,-0.75 z"
     id="path4509" />
  <path
     style="fill:none;stroke:#ff0000;stroke-width:0.05mm"
     d="m -268.33174,-532.08744 c -0.002,-0.41309 -0.33691,-0.74713 -0.75,-0.74713 -0.41311,0 -0.74842,0.33404 -0.75,0.74713 0.002,0.41309 0.3369,0.74713 0.75,0.74713 0.41311,0 0.74842,-0.33404 0.75,-0.74713 z"
     id="path4511" />
  <path
     style="fill:none;stroke:#ff0000;stroke-width:0.05mm"
     d="m -303.01068,-354.93309 c -1e-5,-1.65686 -1.34315,-2.99998 -3.00001,-2.99998 -1.65686,0 -2.99999,1.34312 -2.99999,2.99998 0,1.65686 1.34313,3 2.99999,3 1.65686,0 3,-1.34314 3.00001,-3 z"
     id="path4513" />
  <path
     style="fill:none;stroke:#ff0000;stroke-width:0.05mm"
     d="m -215.01069,-442.93307 c -0.003,-1.65459 -1.3454,-2.99422 -3,-2.99422 -1.65463,0 -2.99683,1.33963 -3,2.99422 0.003,1.65459 1.34537,2.99423 3,2.99423 1.6546,0 2.99679,-1.33964 3,-2.99423 z"
     id="path4515" />
  <path
     style="fill:none;stroke:#ff0000;stroke-width:0.05mm"
     d="m -303.01068,-530.93307 c -1e-5,-1.65685 -1.34315,-3 -3.00001,-3 -1.65686,0 -2.99999,1.34315 -2.99999,3 0,1.65686 1.34313,3 2.99999,3 1.65686,0 3,-1.34314 3.00001,-3 z"
     id="path4517" />
  <path
     style="fill:none;stroke:#ff0000;stroke-width:0.05mm"
     d="m -391.01068,-442.93307 c -0.002,-1.65558 -1.34423,-2.99693 -2.9999,-2.99698 -1.65567,-5e-5 -2.99838,1.34121 -3.0001,2.99698 0.002,1.65559 1.34424,2.99694 2.99992,2.99698 1.65567,6e-5 2.99837,-1.34121 3.00008,-2.99698 z"
     id="path4519" />
  <path
     style="fill:none;stroke:#ff0000;stroke-width:0.05mm"
     d="m -221.70927,-409.25692 c -3e-5,-1.65686 -1.34317,-3.00001 -3.00003,-3.00001 -1.65686,0 -3,1.34315 -3,3.00001 0,1.65684 1.34314,3 3,3 1.65686,0 3,-1.34316 3.00003,-3 z"
     id="path4521" />
  <path
     style="fill:none;stroke:#ff0000;stroke-width:0.05mm"
     d="m -221.70927,-476.60921 c -3e-5,-1.65685 -1.34317,-3 -3.00003,-3 -1.65686,0 -3,1.34315 -3,3 0,1.65685 1.34314,3 3,3 1.65686,0 3,-1.34315 3.00003,-3 z"
     id="path4523" />
  <path
     style="fill:none;stroke:#ff0000;stroke-width:0.05mm"
     d="m -269.33454,-524.23447 c -2e-5,-1.65685 -1.34314,-3 -3,-3 -1.65686,0 -3,1.34315 -3,3 0,1.65686 1.34314,3 3,3.00001 1.65686,-10e-6 2.99998,-1.34315 3,-3.00001 z"
     id="path4525" />
  <path
     style="fill:none;stroke:#ff0000;stroke-width:0.05mm"
     d="m -336.68682,-524.23447 c -2e-5,-1.65685 -1.34314,-3 -3,-3 -1.65686,0 -3,1.34315 -3,3 0,1.65686 1.34314,3 3,3.00001 1.65686,-10e-6 2.99998,-1.34315 3,-3.00001 z"
     id="path4527" />
  <path
     style="fill:none;stroke:#ff0000;stroke-width:0.05mm"
     d="m -384.31208,-476.60921 c 0,-1.65685 -1.34314,-3 -3,-3 -1.65685,0 -3,1.34315 -3,3 0,1.65685 1.34315,3 3,3 1.65686,0 3,-1.34315 3,-3 z"
     id="path4529" />
  <path
     style="fill:none;stroke:#ff0000;stroke-width:0.05mm"
     d="m -269.33454,-361.63167 c -2e-5,-1.65686 -1.34314,-3 -3,-3 -1.65686,0 -3,1.34314 -3,3 0,1.65685 1.34314,2.99999 3,2.99999 1.65686,0 2.99998,-1.34314 3,-2.99999 z"
     id="path4531" />
  <path
     style="fill:none;stroke:#ff0000;stroke-width:0.05mm"
     d="m -336.68682,-361.63167 c -2e-5,-1.65686 -1.34314,-3 -3,-3 -1.65686,0 -3,1.34314 -3,3 0,1.65685 1.34314,2.99999 3,2.99999 1.65686,0 2.99998,-1.34314 3,-2.99999 z"
     id="path4533" />
  <path
     style="fill:none;stroke:#ff0000;stroke-width:0.05mm"
     d="m -384.31208,-409.25692 c 0,-1.65686 -1.34314,-3.00001 -3,-3.00001 -1.65685,0 -3,1.34315 -3,3.00001 0,1.65684 1.34315,3 3,3 1.65686,0 3,-1.34316 3,-3 z"
     id="path4535" />
  <path
     style="fill:none;stroke:#ff0000;stroke-width:0.05mm"
     d="m -401.51068,-442.93307 c -0.002,-1.65558 -1.34423,-2.99693 -2.99991,-2.99698 -1.65567,-5e-5 -2.99837,1.34121 -3.00009,2.99698 0.002,1.65559 1.34424,2.99694 2.99991,2.99698 1.65567,6e-5 2.99838,-1.34121 3.00009,-2.99698 z"
     id="path4537" />
  <path
     style="fill:none;stroke:#ff0000;stroke-width:0.05mm"
     d="m -303.01068,-344.43307 c -1e-5,-1.65686 -1.34315,-3 -3.00001,-3 -1.65686,0 -2.99999,1.34314 -2.99999,3 0,1.65686 1.34313,2.99998 2.99999,2.99998 1.65686,0 3,-1.34312 3.00001,-2.99998 z"
     id="path4539" />
  <path
     style="fill:none;stroke:#ff0000;stroke-width:0.05mm"
     d="m -204.51069,-442.93307 c -0.003,-1.65459 -1.3454,-2.99422 -3,-2.99422 -1.65463,0 -2.99683,1.33963 -2.99997,2.99422 0.003,1.65459 1.34534,2.99423 2.99997,2.99423 1.6546,0 2.99679,-1.33964 3,-2.99423 z"
     id="path4541" />
  <path
     style="fill:none;stroke:#ff0000;stroke-width:0.05mm"
     d="m -303.01068,-541.43307 c -1e-5,-1.65685 -1.34315,-2.99999 -3.00001,-2.99999 -1.65686,0 -2.99999,1.34314 -2.99999,2.99999 0,1.65685 1.34313,3 2.99999,3 1.65686,0 3,-1.34315 3.00001,-3 z"
     id="path4543" />
  <path
     style="fill:none;stroke:#000000;stroke-width:0.05mm"
     d="m -204.82868,-469.05691 c -0.53321,0.13535 -0.857,0.676 -0.72458,1.20997 0.13241,0.53396 0.67132,0.86069 1.20596,0.7312"
     id="path4545" />
  <path
     style="fill:none;stroke:#000000;stroke-width:0.05mm"
     d="m -266.94598,-539.85674 c -0.58972,-0.23769 -1.18227,-0.47025 -1.77634,-0.69716"
     id="path4547" />
  <path
     style="fill:none;stroke:#ff0000;stroke-width:0.05mm"
     d="m -222.51069,-442.93307 c 0,-46.11577 -37.38423,-83.49999 -83.5,-83.49999 -46.11577,0 -83.49999,37.38422 -83.49999,83.49999 0,46.11578 37.38422,83.49998 83.49999,83.49998 46.11577,0 83.5,-37.3842 83.5,-83.49998 z"
     id="path4549" />
  <path
     style="fill:none;stroke:#ff0000;stroke-width:0.05mm"
     d="m -367.23607,-505.15846 c -6e-4,-0.5519 -0.44816,-0.99895 -1.00002,-0.99894 -0.55188,2e-5 -0.99941,0.4471 -0.99998,0.99894 6e-4,0.55189 0.44816,0.99895 1.00002,0.99893 0.55187,-2e-5 0.99941,-0.44709 0.99998,-0.99893 z"
     id="path4551" />
  <path
     style="fill:none;stroke:#ff0000;stroke-width:0.05mm"
     d="m -242.78529,-505.15846 c 0,-0.55229 -0.44771,-1 -1,-1 -0.55229,0 -1,0.44771 -1,1 0,0.55228 0.44771,1 1,1 0.55229,0 1,-0.44772 1,-1 z"
     id="path4553" />
  <path
     style="fill:none;stroke:#ff0000;stroke-width:0.05mm"
     d="m -242.78529,-380.70768 c 0,-0.55228 -0.44771,-1 -1,-1 -0.55229,0 -1,0.44772 -1,1 0,0.55229 0.44771,1 1,1 0.55229,0 1,-0.44771 1,-1 z"
     id="path4555" />
  <path
     style="fill:none;stroke:#ff0000;stroke-width:0.05mm"
     d="m -367.23607,-380.70768 c -6e-4,-0.55189 -0.44816,-0.99894 -1.00002,-0.99894 -0.55188,2e-5 -0.99941,0.4471 -0.99998,0.99894 6e-4,0.5519 0.44816,0.99895 1.00002,0.99893 0.55187,-10e-6 0.99941,-0.44709 0.99998,-0.99893 z"
     id="path4557" />
  <path
     style="fill:none;stroke:#000000;stroke-width:0.05mm"
     d="m -410.50632,-443.8872 c -0.006,0.63604 -0.006,1.27259 0,1.90826"
     id="path4559" />
  <path
     style="fill:none;stroke:#000000;stroke-width:0.05mm"
     d="m -410.46892,-439.97931 c 0.018,0.63562 0.0418,1.27173 0.0713,1.90692"
     id="path4561" />
  <path
     style="fill:none;stroke:#000000;stroke-width:0.05mm"
     d="m -404.32724,-478.34638 c -0.21549,0.59819 -0.42573,1.19903 -0.63026,1.80117"
     id="path4563" />
  <path
     style="fill:none;stroke:#000000;stroke-width:0.05mm"
     d="m -402.93434,-481.99779 c -0.2377,0.58973 -0.47026,1.18229 -0.69717,1.77635"
     id="path4565" />
  <path
     style="fill:none;stroke:#000000;stroke-width:0.05mm"
     d="m -409.74245,-455.581 c -0.077,0.63117 -0.14824,1.26373 -0.21365,1.89626"
     id="path4567" />
  <path
     style="fill:none;stroke:#000000;stroke-width:0.05mm"
     d="m -405.58264,-474.64544 c -0.19297,0.60582 -0.3806,1.21415 -0.56247,1.82348"
     id="path4569" />
  <path
     style="fill:none;stroke:#000000;stroke-width:0.05mm"
     d="m -402.16899,-402.02061 c 10.57959,24.86561 30.3802,44.66626 55.24585,55.24585"
     id="path4571" />
  <path
     style="fill:none;stroke:#000000;stroke-width:0.05mm"
     d="m -406.69877,-470.90015 c -0.17018,0.61263 -0.33494,1.22754 -0.49389,1.84324"
     id="path4573" />
  <path
     style="fill:none;stroke:#000000;stroke-width:0.05mm"
     d="m -407.67408,-467.11574 c -0.14716,0.61858 -0.28881,1.23918 -0.42463,1.86041"
     id="path4575" />
  <path
     style="fill:none;stroke:#000000;stroke-width:0.05mm"
     d="m -409.19699,-459.45081 c -0.1005,0.62785 -0.19538,1.2573 -0.2844,1.88694"
     id="path4577" />
  <path
     style="fill:none;stroke:#000000;stroke-width:0.05mm"
     d="m -408.50721,-463.29752 c -0.1239,0.62361 -0.24225,1.24908 -0.35477,1.87499"
     id="path4579" />
  <path
     style="fill:none;stroke:#000000;stroke-width:0.05mm"
     d="m -283.68843,-340.84504 c 0.62116,-0.13581 1.24178,-0.27747 1.86042,-0.42464"
     id="path4581" />
  <path
     style="fill:none;stroke:#000000;stroke-width:0.05mm"
     d="m -409.48139,-428.30227 c 0.089,0.62955 0.18389,1.259 0.2844,1.88694"
     id="path4583" />
  <path
     style="fill:none;stroke:#000000;stroke-width:0.05mm"
     d="m -408.86198,-424.44362 c 0.1125,0.62582 0.23084,1.25129 0.35477,1.875"
     id="path4585" />
  <path
     style="fill:none;stroke:#000000;stroke-width:0.05mm"
     d="m -410.28543,-436.07556 c 0.0417,0.63448 0.0893,1.2693 0.14261,1.90293"
     id="path4587" />
  <path
     style="fill:none;stroke:#000000;stroke-width:0.05mm"
     d="m -409.9561,-432.1814 c 0.0654,0.63243 0.13668,1.26498 0.21365,1.89626"
     id="path4589" />
  <path
     style="fill:none;stroke:#000000;stroke-width:0.05mm"
     d="m -410.14282,-451.6935 c -0.0533,0.63363 -0.10088,1.26841 -0.14261,1.90292"
     id="path4591" />
  <path
     style="fill:none;stroke:#000000;stroke-width:0.05mm"
     d="m -406.14511,-413.04418 c 0.18185,0.60926 0.36947,1.21755 0.56247,1.82347"
     id="path4593" />
  <path
     style="fill:none;stroke:#000000;stroke-width:0.05mm"
     d="m -408.09871,-420.61081 c 0.13579,0.62113 0.27745,1.24173 0.42463,1.86042"
     id="path4595" />
  <path
     style="fill:none;stroke:#000000;stroke-width:0.05mm"
     d="m -404.9575,-409.32093 c 0.2045,0.60203 0.41474,1.20287 0.63026,1.80117"
     id="path4597" />
  <path
     style="fill:none;stroke:#000000;stroke-width:0.05mm"
     d="m -410.39757,-447.79375 c -0.0296,0.63519 -0.0534,1.27134 -0.0713,1.90692"
     id="path4599" />
  <path
     style="fill:none;stroke:#000000;stroke-width:0.05mm"
     d="m -403.63151,-405.6447 c 0.22687,0.59397 0.45943,1.18652 0.69717,1.77635"
     id="path4601" />
  <path
     style="fill:none;stroke:#000000;stroke-width:0.05mm"
     d="m -407.19266,-416.80923 c 0.15895,0.61564 0.32369,1.23051 0.49389,1.84324"
     id="path4603" />
  <path
     style="fill:none;stroke:#000000;stroke-width:0.05mm"
     d="m -346.92314,-539.09138 c -24.86564,10.57958 -44.66625,30.38019 -55.24585,55.24586"
     id="path4605" />
  <path
     style="fill:none;stroke:#000000;stroke-width:0.05mm"
     d="m -203.51414,-422.56862 c 0.12393,-0.62365 0.24228,-1.24911 0.35477,-1.875"
     id="path4607" />
  <path
     style="fill:none;stroke:#000000;stroke-width:0.05mm"
     d="m -202.82438,-426.41533 c 0.10049,-0.62783 0.1954,-1.25728 0.28439,-1.88694"
     id="path4609" />
  <path
     style="fill:none;stroke:#000000;stroke-width:0.05mm"
     d="m -204.3473,-418.75039 c 0.14716,-0.61857 0.28882,-1.23919 0.42465,-1.86042"
     id="path4611" />
  <path
     style="fill:none;stroke:#000000;stroke-width:0.05mm"
     d="m -343.29905,-540.5539 c -0.594,0.22688 -1.18656,0.45944 -1.77635,0.69716"
     id="path4613" />
  <path
     style="fill:none;stroke:#000000;stroke-width:0.05mm"
     d="m -339.62281,-541.87989 c -0.60205,0.2045 -1.20288,0.41475 -1.80118,0.63026"
     id="path4615" />
  <path
     style="fill:none;stroke:#000000;stroke-width:0.05mm"
     d="m -335.89958,-543.06749 c -0.60928,0.18185 -1.21756,0.36948 -1.82347,0.56247"
     id="path4617" />
  <path
     style="fill:none;stroke:#000000;stroke-width:0.05mm"
     d="m -332.13453,-544.11505 c -0.61565,0.15894 -1.23052,0.32369 -1.84323,0.49389"
     id="path4619" />
  <path
     style="fill:none;stroke:#000000;stroke-width:0.05mm"
     d="m -202.53999,-457.56387 c -0.089,-0.62956 -0.1839,-1.25902 -0.28439,-1.88694"
     id="path4621" />
  <path
     style="fill:none;stroke:#000000;stroke-width:0.05mm"
     d="m -203.15937,-461.42253 c -0.11246,-0.62578 -0.23084,-1.25125 -0.35477,-1.87499"
     id="path4623" />
  <path
     style="fill:none;stroke:#000000;stroke-width:0.05mm"
     d="m -201.73591,-449.79058 c -0.0417,-0.6345 -0.0893,-1.26928 -0.14264,-1.90292"
     id="path4625" />
  <path
     style="fill:none;stroke:#000000;stroke-width:0.05mm"
     d="m -202.06526,-453.68474 c -0.0654,-0.63246 -0.13669,-1.26502 -0.21365,-1.89626"
     id="path4627" />
  <path
     style="fill:none;stroke:#000000;stroke-width:0.05mm"
     d="m -201.51503,-441.97894 c 0.006,-0.63603 0.006,-1.27259 0,-1.90826"
     id="path4629" />
  <path
     style="fill:none;stroke:#000000;stroke-width:0.05mm"
     d="m -201.55244,-445.88683 c -0.0179,-0.63562 -0.0417,-1.27174 -0.0713,-1.90692"
     id="path4631" />
  <path
     style="fill:none;stroke:#000000;stroke-width:0.05mm"
     d="m -207.6941,-407.51976 c 0.21548,-0.5982 0.42569,-1.19904 0.63025,-1.80117"
     id="path4633" />
  <path
     style="fill:none;stroke:#000000;stroke-width:0.05mm"
     d="m -209.08702,-403.86835 c 0.23771,-0.58973 0.47025,-1.18228 0.69718,-1.77635"
     id="path4635" />
  <path
     style="fill:none;stroke:#000000;stroke-width:0.05mm"
     d="m -328.33294,-545.0211 c -0.62114,0.13581 -1.24175,0.27746 -1.86041,0.42463"
     id="path4637" />
  <path
     style="fill:none;stroke:#000000;stroke-width:0.05mm"
     d="m -324.50015,-545.78436 c -0.62579,0.11249 -1.25126,0.23083 -1.87498,0.35476"
     id="path4639" />
  <path
     style="fill:none;stroke:#000000;stroke-width:0.05mm"
     d="m -320.64147,-546.40379 c -0.62957,0.089 -1.25904,0.18389 -1.88694,0.28442"
     id="path4641" />
  <path
     style="fill:none;stroke:#000000;stroke-width:0.05mm"
     d="m -316.76235,-546.87849 c -0.63245,0.0654 -1.26503,0.13668 -1.89626,0.21366"
     id="path4643" />
  <path
     style="fill:none;stroke:#000000;stroke-width:0.05mm"
     d="m -312.86819,-547.20782 c -0.63444,0.0417 -1.26924,0.0893 -1.90292,0.1426"
     id="path4645" />
  <path
     style="fill:none;stroke:#000000;stroke-width:0.05mm"
     d="m -308.96443,-547.39131 c -0.63557,0.018 -1.27169,0.0418 -1.90693,0.0713"
     id="path4647" />
  <path
     style="fill:none;stroke:#000000;stroke-width:0.05mm"
     d="m -305.05654,-547.42871 c -0.63582,-0.006 -1.27237,-0.006 -1.90827,0"
     id="path4649" />
  <path
     style="fill:none;stroke:#000000;stroke-width:0.05mm"
     d="m -301.15,-547.31996 c -0.63515,-0.0296 -1.27126,-0.0534 -1.90693,-0.0713"
     id="path4651" />
  <path
     style="fill:none;stroke:#000000;stroke-width:0.05mm"
     d="m -297.25025,-547.06522 c -0.6336,-0.0533 -1.26838,-0.10088 -1.90293,-0.1426"
     id="path4653" />
  <path
     style="fill:none;stroke:#000000;stroke-width:0.05mm"
     d="m -293.36276,-546.66483 c -0.63115,-0.077 -1.2637,-0.14824 -1.89625,-0.21366"
     id="path4655" />
  <path
     style="fill:none;stroke:#000000;stroke-width:0.05mm"
     d="m -289.49295,-546.11937 c -0.62785,-0.10051 -1.2573,-0.19539 -1.88693,-0.28442"
     id="path4657" />
  <path
     style="fill:none;stroke:#000000;stroke-width:0.05mm"
     d="m -285.64624,-545.4296 c -0.62364,-0.12391 -1.2491,-0.24225 -1.87498,-0.35476"
     id="path4659" />
  <path
     style="fill:none;stroke:#000000;stroke-width:0.05mm"
     d="m -281.82801,-544.59647 c -0.61858,-0.14714 -1.23918,-0.28879 -1.86042,-0.42463"
     id="path4661" />
  <path
     style="fill:none;stroke:#000000;stroke-width:0.05mm"
     d="m -278.0436,-543.62116 c -0.61265,-0.17018 -1.22751,-0.33493 -1.84324,-0.49389"
     id="path4663" />
  <path
     style="fill:none;stroke:#000000;stroke-width:0.05mm"
     d="m -274.29832,-542.50502 c -0.60583,-0.19296 -1.21411,-0.38059 -1.82347,-0.56247"
     id="path4665" />
  <path
     style="fill:none;stroke:#000000;stroke-width:0.05mm"
     d="m -270.59738,-541.24963 c -0.5982,-0.21549 -1.19903,-0.42573 -1.80116,-0.63026"
     id="path4667" />
  <path
     style="fill:none;stroke:#000000;stroke-width:0.05mm"
     d="m -299.15318,-338.65832 c 0.63446,-0.0417 1.26927,-0.0893 1.90293,-0.14261"
     id="path4669" />
  <path
     style="fill:none;stroke:#000000;stroke-width:0.05mm"
     d="m -295.25901,-338.98764 c 0.63246,-0.0654 1.26501,-0.13669 1.89625,-0.21367"
     id="path4671" />
  <path
     style="fill:none;stroke:#000000;stroke-width:0.05mm"
     d="m -306.96481,-338.43744 c 0.63579,0.006 1.27237,0.006 1.90827,0"
     id="path4673" />
  <path
     style="fill:none;stroke:#000000;stroke-width:0.05mm"
     d="m -303.05693,-338.47484 c 0.63558,-0.018 1.27169,-0.0418 1.90693,-0.0714"
     id="path4675" />
  <path
     style="fill:none;stroke:#000000;stroke-width:0.05mm"
     d="m -341.42399,-344.61651 c 0.5982,0.21547 1.19905,0.42572 1.80118,0.63026"
     id="path4677" />
  <path
     style="fill:none;stroke:#000000;stroke-width:0.05mm"
     d="m -345.0754,-346.0094 c 0.58972,0.23769 1.18228,0.47025 1.77635,0.69716"
     id="path4679" />
  <path
     style="fill:none;stroke:#000000;stroke-width:0.05mm"
     d="m -333.97776,-342.24499 c 0.61264,0.17016 1.22751,0.33493 1.84323,0.49391"
     id="path4681" />
  <path
     style="fill:none;stroke:#000000;stroke-width:0.05mm"
     d="m -265.09823,-346.77476 c 24.86565,-10.57959 44.66627,-30.38022 55.24583,-55.24585"
     id="path4683" />
  <path
     style="fill:none;stroke:#000000;stroke-width:0.05mm"
     d="m -268.72232,-345.31224 c 0.594,-0.22688 1.18654,-0.45944 1.77634,-0.69716"
     id="path4685" />
  <path
     style="fill:none;stroke:#000000;stroke-width:0.05mm"
     d="m -279.88684,-341.75108 c 0.61564,-0.15895 1.23053,-0.32372 1.84324,-0.49391"
     id="path4687" />
  <path
     style="fill:none;stroke:#000000;stroke-width:0.05mm"
     d="m -314.77111,-338.80093 c 0.63359,0.0533 1.26837,0.10089 1.90292,0.14261"
     id="path4689" />
  <path
     style="fill:none;stroke:#000000;stroke-width:0.05mm"
     d="m -276.12179,-342.79866 c 0.60927,-0.18184 1.21758,-0.36947 1.82347,-0.56245"
     id="path4691" />
  <path
     style="fill:none;stroke:#000000;stroke-width:0.05mm"
     d="m -310.87136,-338.54619 c 0.63513,0.0296 1.27125,0.0534 1.90693,0.0714"
     id="path4693" />
  <path
     style="fill:none;stroke:#000000;stroke-width:0.05mm"
     d="m -272.39854,-343.98625 c 0.60204,-0.20451 1.20291,-0.41476 1.80116,-0.63026"
     id="path4695" />
  <path
     style="fill:none;stroke:#000000;stroke-width:0.05mm"
     d="m -318.65861,-339.20131 c 0.63116,0.077 1.26372,0.14824 1.89626,0.21367"
     id="path4697" />
  <path
     style="fill:none;stroke:#000000;stroke-width:0.05mm"
     d="m -337.72305,-343.36111 c 0.60585,0.19296 1.21413,0.3806 1.82347,0.56245"
     id="path4699" />
  <path
     style="fill:none;stroke:#000000;stroke-width:0.05mm"
     d="m -207.06385,-476.54521 c -0.20453,-0.60204 -0.41474,-1.20288 -0.63025,-1.80117"
     id="path4701" />
  <path
     style="fill:none;stroke:#000000;stroke-width:0.05mm"
     d="m -201.62379,-438.07239 c 0.0296,-0.63517 0.0534,-1.27129 0.0713,-1.90692"
     id="path4703" />
  <path
     style="fill:none;stroke:#000000;stroke-width:0.05mm"
     d="m -208.38984,-480.22144 c -0.2269,-0.59397 -0.45944,-1.18653 -0.69718,-1.77635"
     id="path4705" />
  <path
     style="fill:none;stroke:#000000;stroke-width:0.05mm"
     d="m -204.82868,-469.05691 c -0.15894,-0.61566 -0.3237,-1.23053 -0.4939,-1.84324"
     id="path4707" />
  <path
     style="fill:none;stroke:#000000;stroke-width:0.05mm"
     d="m -205.32258,-414.96599 c 0.17017,-0.61264 0.33493,-1.22751 0.4939,-1.84324"
     id="path4709" />
  <path
     style="fill:none;stroke:#000000;stroke-width:0.05mm"
     d="m -209.8524,-483.84552 c -10.57956,-24.86566 -30.38018,-44.66628 -55.24583,-55.24586"
     id="path4711" />
  <path
     style="fill:none;stroke:#000000;stroke-width:0.05mm"
     d="m -206.43873,-411.22071 c 0.19296,-0.60585 0.38058,-1.21412 0.56247,-1.82347"
     id="path4713" />
  <path
     style="fill:none;stroke:#000000;stroke-width:0.05mm"
     d="m -202.27891,-430.28514 c 0.077,-0.63115 0.14825,-1.26372 0.21365,-1.89626"
     id="path4715" />
  <path
     style="fill:none;stroke:#000000;stroke-width:0.05mm"
     d="m -287.52122,-340.08178 c 0.62581,-0.11249 1.25127,-0.23082 1.87498,-0.35476"
     id="path4717" />
  <path
     style="fill:none;stroke:#000000;stroke-width:0.05mm"
     d="m -291.37988,-339.46235 c 0.62956,-0.089 1.25902,-0.18389 1.88693,-0.28441"
     id="path4719" />
  <path
     style="fill:none;stroke:#000000;stroke-width:0.05mm"
     d="m -330.19335,-341.26968 c 0.61859,0.14715 1.23916,0.28882 1.86041,0.42464"
     id="path4721" />
  <path
     style="fill:none;stroke:#000000;stroke-width:0.05mm"
     d="m -322.52841,-339.74676 c 0.62783,0.10051 1.2573,0.19537 1.88694,0.28441"
     id="path4723" />
  <path
     style="fill:none;stroke:#000000;stroke-width:0.05mm"
     d="m -201.87855,-434.17263 c 0.0533,-0.6336 0.10089,-1.26838 0.14264,-1.90293"
     id="path4725" />
  <path
     style="fill:none;stroke:#000000;stroke-width:0.05mm"
     d="m -205.87626,-472.82196 c -0.18186,-0.60926 -0.36948,-1.21754 -0.56247,-1.82348"
     id="path4727" />
  <path
     style="fill:none;stroke:#000000;stroke-width:0.05mm"
     d="m -203.92265,-465.25533 c -0.1358,-0.62114 -0.27746,-1.24175 -0.42465,-1.86041"
     id="path4729" />
  <path
     style="fill:none;stroke:#000000;stroke-width:0.05mm"
     d="m -326.37513,-340.43654 c 0.62364,0.12392 1.2491,0.24225 1.87498,0.35476"
     id="path4731" />
  <path
     style="fill:none;stroke:#000000;stroke-width:0.05mm"
     d="m -336.04254,-327.49378 c -0.60927,0.18188 -1.21756,0.36947 -1.82348,0.56247"
     id="path4733" />
  <path
     style="fill:none;stroke:#000000;stroke-width:0.05mm"
     d="m -409.62435,-212.72857 c 0.089,0.62955 0.18388,1.259 0.28441,1.88695"
     id="path4735" />
  <path
     style="fill:none;stroke:#000000;stroke-width:0.05mm"
     d="m -207.20679,-260.97151 c -0.2045,-0.60205 -0.41476,-1.20289 -0.63025,-1.80116"
     id="path4737" />
  <path
     style="fill:none;stroke:#000000;stroke-width:0.05mm"
     d="m -334.12072,-126.67128 c 0.61264,0.17018 1.22751,0.33493 1.84323,0.4939"
     id="path4739" />
  <path
     style="fill:none;stroke:#000000;stroke-width:0.05mm"
     d="m -209.9953,-268.27181 c -10.57959,-24.86564 -30.38023,-44.66628 -55.24588,-55.24587"
     id="path4741" />
  <path
     style="fill:none;stroke:#000000;stroke-width:0.05mm"
     d="m -280.02979,-126.17739 c 0.61563,-0.15893 1.23053,-0.32369 1.84324,-0.49389"
     id="path4743" />
  <path
     style="fill:none;stroke:#000000;stroke-width:0.05mm"
     d="m -326.51808,-124.86284 c 0.10961,-0.53924 -0.23704,-1.06572 -0.77572,-1.17812 -0.53865,-0.11239 -1.06691,0.23154 -1.1821,0.76962"
     id="path4745" />
  <path
     style="fill:none;stroke:#000000;stroke-width:0.05mm"
     d="m -202.96732,-210.84162 c 0.1005,-0.62786 0.19538,-1.25731 0.28443,-1.88695"
     id="path4747" />
  <path
     style="fill:none;stroke:#000000;stroke-width:0.05mm"
     d="m -410.64927,-228.31349 c -0.006,0.63602 -0.006,1.27259 0,1.90825"
     id="path4749" />
  <path
     style="fill:none;stroke:#000000;stroke-width:0.05mm"
     d="m -270.74033,-325.67594 c -0.18919,0.51702 0.0751,1.08969 0.59122,1.28118 0.51616,0.19153 1.09001,-0.0702 1.28384,-0.58544"
     id="path4751" />
  <path
     style="fill:none;stroke:#000000;stroke-width:0.05mm"
     d="m -204.97165,-253.48321 c -0.15894,-0.61562 -0.3237,-1.23051 -0.4939,-1.84323"
     id="path4753" />
  <path
     style="fill:none;stroke:#000000;stroke-width:0.05mm"
     d="m -408.65016,-247.72381 c -0.12392,0.62363 -0.24226,1.2491 -0.35477,1.87498"
     id="path4755" />
  <path
     style="fill:none;stroke:#000000;stroke-width:0.05mm"
     d="m -202.42185,-214.71144 c 0.077,-0.63113 0.14826,-1.26368 0.21366,-1.89624"
     id="path4757" />
  <path
     style="fill:none;stroke:#000000;stroke-width:0.05mm"
     d="m -403.0773,-266.42408 c -0.2377,0.58972 -0.47026,1.18228 -0.69717,1.77635"
     id="path4759" />
  <path
     style="fill:none;stroke:#000000;stroke-width:0.05mm"
     d="m -202.68295,-241.99015 c -0.54575,0.074 -0.92893,0.57541 -0.85703,1.12146 0.0719,0.54605 0.57175,0.93117 1.11811,0.8614"
     id="path4761" />
  <path
     style="fill:none;stroke:#000000;stroke-width:0.05mm"
     d="m -267.0889,-324.28303 c -0.20834,0.50955 0.0343,1.09168 0.54294,1.30234 0.50859,0.21066 1.09181,-0.0294 1.30479,-0.53699"
     id="path4763" />
  <path
     style="fill:none;stroke:#000000;stroke-width:0.05mm"
     d="m -293.50571,-331.09114 c -0.63116,-0.077 -1.2637,-0.14825 -1.89624,-0.21365"
     id="path4765" />
  <path
     style="fill:none;stroke:#000000;stroke-width:0.05mm"
     d="m -202.68295,-241.99015 c -0.089,-0.62956 -0.1839,-1.25902 -0.2844,-1.88695"
     id="path4767" />
  <path
     style="fill:none;stroke:#000000;stroke-width:0.05mm"
     d="m -206.0192,-257.24825 c -0.5285,0.15464 -0.83255,0.70745 -0.68011,1.2366 0.15246,0.52914 0.70404,0.83546 1.23379,0.68521"
     id="path4769" />
  <path
     style="fill:none;stroke:#000000;stroke-width:0.05mm"
     d="m -283.83138,-125.27134 c 0.62116,-0.13581 1.24176,-0.27746 1.86042,-0.42463"
     id="path4771" />
  <path
     style="fill:none;stroke:#000000;stroke-width:0.05mm"
     d="m -345.21836,-130.4357 c 0.20834,-0.50956 -0.0344,-1.09166 -0.54294,-1.30233 -0.50859,-0.21067 -1.09181,0.0293 -1.3048,0.53697"
     id="path4773" />
  <path
     style="fill:none;stroke:#000000;stroke-width:0.05mm"
     d="m -410.54053,-232.22004 c 0.54951,0.0279 1.01835,-0.3933 1.0492,-0.94266 0.0308,-0.54935 -0.38788,-1.0204 -0.93706,-1.05417"
     id="path4775" />
  <path
     style="fill:none;stroke:#000000;stroke-width:0.05mm"
     d="m -406.28806,-197.47047 c 0.18185,0.60924 0.36947,1.21752 0.56247,1.82347"
     id="path4777" />
  <path
     style="fill:none;stroke:#000000;stroke-width:0.05mm"
     d="m -207.83704,-191.94605 c -0.51712,-0.18964 -1.09021,0.0746 -1.28186,0.59098 -0.19162,0.51638 0.0704,1.09049 0.58609,1.28408"
     id="path4779" />
  <path
     style="fill:none;stroke:#000000;stroke-width:0.05mm"
     d="m -410.54053,-232.22004 c -0.0296,0.63519 -0.0534,1.27135 -0.0713,1.90692"
     id="path4781" />
  <path
     style="fill:none;stroke:#000000;stroke-width:0.05mm"
     d="m -341.56694,-129.04281 c 0.18898,-0.51693 -0.0753,-1.08942 -0.59132,-1.28089 -0.51604,-0.19148 -1.0898,0.0701 -1.28374,0.58516"
     id="path4783" />
  <path
     style="fill:none;stroke:#000000;stroke-width:0.05mm"
     d="m -297.3932,-331.4915 c -0.0485,0.54813 0.3549,1.03241 0.90275,1.08381 0.54785,0.0514 1.03426,-0.34952 1.08849,-0.8971"
     id="path4785" />
  <path
     style="fill:none;stroke:#000000;stroke-width:0.05mm"
     d="m -322.67136,-124.17307 c 0.62783,0.10052 1.25728,0.19539 1.88695,0.28442"
     id="path4787" />
  <path
     style="fill:none;stroke:#000000;stroke-width:0.05mm"
     d="m -283.83138,-125.27134 c -0.11517,-0.53808 -0.64343,-0.88202 -1.18209,-0.76962 -0.53869,0.1124 -0.88533,0.63888 -0.77572,1.17812"
     id="path4789" />
  <path
     style="fill:none;stroke:#b4b4b4;stroke-width:0.05mm"
     d="m -377.9251,-297.71649 -2.82495,-2.82495"
     id="path4791" />
  <path
     style="fill:none;stroke:#000000;stroke-width:0.05mm"
     d="m -403.0773,-266.42408 c 0.50955,0.20834 1.09166,-0.0344 1.30233,-0.54294 0.21067,-0.50859 -0.0293,-1.09181 -0.53698,-1.30479"
     id="path4793" />
  <path
     style="fill:none;stroke:#000000;stroke-width:0.05mm"
     d="m -328.4759,-329.44737 c -0.62114,0.13581 -1.24176,0.27744 -1.86041,0.42462"
     id="path4795" />
  <path
     style="fill:none;stroke:#ff0000;stroke-width:0.05mm"
     d="m -384.45504,-261.0355 c -0.002,-1.6556 -1.34423,-2.99693 -2.9999,-2.99698 -1.65567,-5e-5 -2.99837,1.34122 -3.00009,2.99698 0.002,1.65558 1.34423,2.99692 2.99991,2.99698 1.65568,4e-5 2.99838,-1.34122 3.00008,-2.99698 z"
     id="path4797" />
  <path
     style="fill:none;stroke:#000000;stroke-width:0.05mm"
     d="m -281.97096,-329.02275 c -0.12996,0.53485 0.19677,1.07419 0.73103,1.2067 0.53426,0.13248 1.07515,-0.19168 1.21014,-0.72531"
     id="path4799" />
  <path
     style="fill:none;stroke:#000000;stroke-width:0.05mm"
     d="m -405.10046,-193.74722 c 0.2045,0.60204 0.41474,1.20288 0.63026,1.80117"
     id="path4801" />
  <path
     style="fill:none;stroke:#ff0000;stroke-width:0.05mm"
     d="m -221.8522,-193.68322 c -0.002,-1.65544 -1.34449,-2.99649 -3,-2.99652 -1.65549,-2e-5 -2.99808,1.341 -3,2.99652 0.002,1.65544 1.34445,2.99649 2.99993,2.99652 1.65549,1e-5 2.99811,-1.341 3.00007,-2.99652 z"
     id="path4803" />
  <path
     style="fill:none;stroke:#000000;stroke-width:0.05mm"
     d="m -307.10776,-122.86373 c 0.008,-0.55072 -0.43051,-1.00436 -0.98118,-1.01467 -0.55069,-0.0103 -1.00603,0.42663 -1.01845,0.97727"
     id="path4805" />
  <path
     style="fill:none;stroke:#000000;stroke-width:0.05mm"
     d="m -297.3932,-331.4915 c -0.6336,-0.0533 -1.26839,-0.10086 -1.90293,-0.1426"
     id="path4807" />
  <path
     style="fill:none;stroke:#000000;stroke-width:0.05mm"
     d="m -405.72559,-259.07174 c -0.19296,0.60586 -0.3806,1.21414 -0.56247,1.82349"
     id="path4809" />
  <path
     style="fill:none;stroke:#ff0000;stroke-width:0.05mm"
     d="m -221.8522,-261.0355 c -0.002,-1.65544 -1.34449,-2.99649 -3,-2.99652 -1.65549,-2e-5 -2.99808,1.341 -3,2.99652 0.002,1.65544 1.34445,2.99649 2.99993,2.99652 1.65549,10e-6 2.99811,-1.341 3.00007,-2.99652 z"
     id="path4811" />
  <path
     style="fill:none;stroke:#000000;stroke-width:0.05mm"
     d="m -309.10738,-331.81761 c -0.63557,0.0179 -1.2717,0.0417 -1.90692,0.0713"
     id="path4813" />
  <path
     style="fill:none;stroke:#000000;stroke-width:0.05mm"
     d="m -209.9953,-268.27181 c -0.5076,0.21298 -0.74765,0.7962 -0.53696,1.30479 0.21067,0.50859 0.79279,0.75128 1.30231,0.54294"
     id="path4815" />
  <path
     style="fill:none;stroke:#ff0000;stroke-width:0.05mm"
     d="m -242.92824,-289.58476 c 0,-0.55229 -0.44771,-1.00001 -1,-1.00001 -0.55229,0 -1,0.44772 -1,1.00001 0,0.55229 0.44771,1 1,1 0.55229,0 1,-0.44771 1,-1 z"
     id="path4817" />
  <path
     style="fill:none;stroke:#000000;stroke-width:0.05mm"
     d="m -410.42839,-220.50186 c 0.54918,-0.0338 0.96792,-0.50482 0.93706,-1.05418 -0.0308,-0.54935 -0.49969,-0.97058 -1.0492,-0.94264"
     id="path4819" />
  <path
     style="fill:none;stroke:#000000;stroke-width:0.05mm"
     d="m -381.03633,-294.60525 3.11123,-3.11124"
     id="path4821" />
  <path
     style="fill:none;stroke:#000000;stroke-width:0.05mm"
     d="m -207.83704,-191.94605 c 0.21549,-0.59821 0.42569,-1.19906 0.63025,-1.80117"
     id="path4823" />
  <path
     style="fill:none;stroke:#ff0000;stroke-width:0.05mm"
     d="m -303.15363,-315.35935 c 0,-1.65686 -1.34314,-3 -3,-3 -1.65686,0 -2.99998,1.34314 -3,3 2e-5,1.65686 1.34314,2.99996 3,2.99996 1.65686,0 3,-1.3431 3,-2.99996 z"
     id="path4825" />
  <path
     style="fill:none;stroke:#000000;stroke-width:0.05mm"
     d="m -409.8854,-240.0073 c 0.54625,0.0696 1.04597,-0.31549 1.11784,-0.86144 0.0719,-0.54597 -0.31115,-1.04727 -0.85679,-1.12143"
     id="path4827" />
  <path
     style="fill:none;stroke:#000000;stroke-width:0.05mm"
     d="m -408.65016,-247.72381 c 0.53924,0.1096 1.06573,-0.23705 1.17813,-0.77573 0.11238,-0.53865 -0.23154,-1.06691 -0.76963,-1.1821"
     id="path4829" />
  <path
     style="fill:none;stroke:#000000;stroke-width:0.05mm"
     d="m -405.10046,-193.74722 c 0.52231,-0.17433 0.80543,-0.7381 0.63331,-1.26115 -0.17211,-0.52304 -0.73467,-0.80852 -1.25845,-0.63863"
     id="path4831" />
  <path
     style="fill:none;stroke:#000000;stroke-width:0.05mm"
     d="m -407.81704,-251.54205 c 0.53499,0.13024 1.0746,-0.1965 1.20714,-0.73091 0.13253,-0.53442 -0.19188,-1.07544 -0.72573,-1.21026"
     id="path4833" />
  <path
     style="fill:none;stroke:#000000;stroke-width:0.05mm"
     d="m -303.19988,-122.90113 c 0.63558,-0.018 1.2717,-0.0418 1.90693,-0.0713"
     id="path4835" />
  <path
     style="fill:none;stroke:#000000;stroke-width:0.05mm"
     d="m -408.24167,-205.0371 c 0.53809,-0.11518 0.88202,-0.64344 0.76962,-1.1821 -0.1124,-0.53868 -0.63888,-0.88533 -1.17812,-0.77571"
     id="path4837" />
  <path
     style="fill:none;stroke:#000000;stroke-width:0.05mm"
     d="m -326.51808,-124.86284 c 0.62364,0.12392 1.24912,0.24226 1.875,0.35477"
     id="path4839" />
  <path
     style="fill:none;stroke:#000000;stroke-width:0.05mm"
     d="m -281.97096,-329.02275 c -0.61858,-0.14715 -1.23919,-0.28881 -1.86042,-0.42462"
     id="path4841" />
  <path
     style="fill:none;stroke:#000000;stroke-width:0.05mm"
     d="m -206.58167,-195.647 c -0.52368,-0.16952 -1.08587,0.11598 -1.25793,0.63883 -0.17203,0.52282 0.11078,1.08641 0.63281,1.26095"
     id="path4843" />
  <path
     style="fill:none;stroke:#000000;stroke-width:0.05mm"
     d="m -330.33631,-125.69597 c 0.13023,-0.53498 -0.19651,-1.0746 -0.73092,-1.20713 -0.53442,-0.13253 -1.07544,0.19188 -1.21026,0.72572"
     id="path4845" />
  <path
     style="fill:none;stroke:#000000;stroke-width:0.05mm"
     d="m -337.86601,-127.78741 c 0.16991,-0.52378 -0.11557,-1.08634 -0.63861,-1.25846 -0.52306,-0.17211 -1.08682,0.111 -1.26115,0.63331"
     id="path4847" />
  <path
     style="fill:none;stroke:#000000;stroke-width:0.05mm"
     d="m -339.76577,-326.30616 c -0.60205,0.2045 -1.20288,0.41473 -1.80117,0.63022"
     id="path4849" />
  <path
     style="fill:none;stroke:#000000;stroke-width:0.05mm"
     d="m -407.33562,-201.23553 c 0.53385,-0.13483 0.85825,-0.67583 0.72572,-1.21025 -0.13253,-0.53442 -0.67215,-0.86114 -1.20713,-0.73093"
     id="path4851" />
  <path
     style="fill:none;stroke:#000000;stroke-width:0.05mm"
     d="m -318.80156,-123.62761 c 0.63115,0.077 1.26372,0.14823 1.89626,0.21366"
     id="path4853" />
  <path
     style="fill:none;stroke:#000000;stroke-width:0.05mm"
     d="m -202.96732,-210.84162 c -0.543,-0.0894 -1.05621,0.27664 -1.14837,0.81918 -0.0922,0.54254 0.2713,1.0576 0.81335,1.15253"
     id="path4855" />
  <path
     style="fill:none;stroke:#000000;stroke-width:0.05mm"
     d="m -402.31195,-186.44691 c 10.57958,24.86566 30.3802,44.66627 55.24587,55.24585"
     id="path4857" />
  <path
     style="fill:none;stroke:#000000;stroke-width:0.05mm"
     d="m -403.77447,-190.07099 c 0.51511,-0.19396 0.77664,-0.7677 0.58517,-1.28373 -0.19147,-0.51603 -0.76396,-0.78033 -1.2809,-0.59133"
     id="path4859" />
  <path
     style="fill:none;stroke:#000000;stroke-width:0.05mm"
     d="m -322.67136,-124.17307 c 0.0893,-0.54292 -0.27681,-1.05597 -0.81924,-1.14814 -0.54244,-0.0922 -1.05742,0.27119 -1.15248,0.81313"
     id="path4861" />
  <path
     style="fill:none;stroke:#000000;stroke-width:0.05mm"
     d="m -299.29613,-123.08462 c -0.0338,-0.54917 -0.50482,-0.96791 -1.05418,-0.93706 -0.54935,0.0309 -0.97058,0.49969 -0.94264,1.0492"
     id="path4863" />
  <path
     style="fill:none;stroke:#000000;stroke-width:0.05mm"
     d="m -324.6431,-330.21064 c 0.0949,0.54205 0.61,0.90558 1.15254,0.81335 0.54253,-0.0922 0.90863,-0.60538 0.81919,-1.14837"
     id="path4865" />
  <path
     style="fill:none;stroke:#000000;stroke-width:0.05mm"
     d="m -293.50571,-331.09114 c -0.0698,0.54636 0.31539,1.04621 0.86142,1.11811 0.54604,0.0719 1.04744,-0.31128 1.12146,-0.85706"
     id="path4867" />
  <path
     style="fill:none;stroke:#000000;stroke-width:0.05mm"
     d="m -409.33994,-243.8771 c -0.10052,0.62785 -0.19539,1.25729 -0.28441,1.88695"
     id="path4869" />
  <path
     style="fill:none;stroke:#000000;stroke-width:0.05mm"
     d="m -204.49024,-203.17669 c -0.53506,-0.13054 -1.07498,0.19618 -1.20758,0.73079 -0.13259,0.53459 0.19208,1.07576 0.72617,1.21039"
     id="path4871" />
  <path
     style="fill:none;stroke:#000000;stroke-width:0.05mm"
     d="m -311.0143,-122.97248 c 0.0279,-0.54951 -0.39329,-1.01835 -0.94266,-1.0492 -0.54934,-0.0308 -1.0204,0.38789 -1.05416,0.93706"
     id="path4873" />
  <path
     style="fill:none;stroke:#000000;stroke-width:0.05mm"
     d="m -204.06561,-249.68164 c -0.13581,-0.62115 -0.27744,-1.24176 -0.42463,-1.86041"
     id="path4875" />
  <path
     style="fill:none;stroke:#000000;stroke-width:0.05mm"
     d="m -313.01112,-331.6341 c 0.0338,0.54919 0.50482,0.96789 1.05416,0.93707 0.54937,-0.0309 0.97059,-0.4997 0.94266,-1.0492"
     id="path4877" />
  <path
     style="fill:none;stroke:#000000;stroke-width:0.05mm"
     d="m -295.40195,-123.41395 c 0.63245,-0.0654 1.265,-0.13669 1.89624,-0.21366"
     id="path4879" />
  <path
     style="fill:none;stroke:#000000;stroke-width:0.05mm"
     d="m -203.30234,-245.84883 c -0.11249,-0.62577 -0.23083,-1.25125 -0.35476,-1.87498"
     id="path4881" />
  <path
     style="fill:none;stroke:#000000;stroke-width:0.05mm"
     d="m -410.61188,-224.4056 c 0.55064,-0.0124 0.98757,-0.46776 0.97727,-1.01845 -0.0103,-0.55068 -0.46394,-0.98937 -1.01466,-0.98119"
     id="path4883" />
  <path
     style="fill:none;stroke:#000000;stroke-width:0.05mm"
     d="m -320.78442,-330.83009 c -0.62957,0.089 -1.25902,0.1839 -1.88695,0.28443"
     id="path4885" />
  <path
     style="fill:none;stroke:#000000;stroke-width:0.05mm"
     d="m -204.06561,-249.68164 c -0.53809,0.11519 -0.88202,0.64345 -0.76963,1.1821 0.1124,0.53868 0.63889,0.88533 1.17814,0.77573"
     id="path4887" />
  <path
     style="fill:none;stroke:#000000;stroke-width:0.05mm"
     d="m -278.18655,-328.04743 c -0.15024,0.52975 0.15606,1.08132 0.68522,1.23376 0.52915,0.15247 1.08196,-0.15158 1.2366,-0.68008"
     id="path4889" />
  <path
     style="fill:none;stroke:#000000;stroke-width:0.05mm"
     d="m -406.84172,-255.32644 c 0.52966,0.14993 1.08089,-0.1564 1.23328,-0.68535 0.15239,-0.52896 -0.15137,-1.08162 -0.67962,-1.23646"
     id="path4891" />
  <path
     style="fill:none;stroke:#000000;stroke-width:0.05mm"
     d="m -410.09905,-216.60769 c 0.5476,-0.0542 0.94851,-0.54064 0.89714,-1.0885 -0.0514,-0.54788 -0.53573,-0.9513 -1.08387,-0.90274"
     id="path4893" />
  <path
     style="fill:none;stroke:#000000;stroke-width:0.05mm"
     d="m -376.51063,-299.13069 3.11124,-3.11123"
     id="path4895" />
  <path
     style="fill:none;stroke:#000000;stroke-width:0.05mm"
     d="m -205.46555,-199.39228 c 0.17017,-0.61264 0.33493,-1.22754 0.4939,-1.84325"
     id="path4897" />
  <path
     style="fill:none;stroke:#000000;stroke-width:0.05mm"
     d="m -409.33994,-243.8771 c 0.54292,0.0893 1.05598,-0.27681 1.14815,-0.81924 0.0922,-0.54244 -0.2712,-1.05742 -0.81314,-1.15249"
     id="path4899" />
  <path
     style="fill:none;stroke:#ff0000;stroke-width:0.05mm"
     d="m -215.15363,-227.35937 c 0,-1.65686 -1.34317,-3 -3,-3 -1.65686,0 -3.00003,1.34314 -3.00003,3 0,1.65686 1.34317,3.00002 3.00003,3.00002 1.65683,0 3,-1.34316 3,-3.00002 z"
     id="path4901" />
  <path
     style="fill:none;stroke:#000000;stroke-width:0.05mm"
     d="m -316.90529,-331.30479 c 0.0542,0.54758 0.54063,0.94846 1.08849,0.8971 0.54785,-0.0514 0.95126,-0.53568 0.90275,-1.08381"
     id="path4903" />
  <path
     style="fill:none;stroke:#000000;stroke-width:0.05mm"
     d="m -343.442,-324.9802 c -0.59398,0.22689 -1.18654,0.45944 -1.77635,0.69714"
     id="path4905" />
  <path
     style="fill:none;stroke:#ff0000;stroke-width:0.05mm"
     d="m -303.15363,-128.85936 c 0,-1.65686 -1.34314,-3.00001 -3,-3.00001 -1.65686,0 -2.99998,1.34315 -3,3.00001 2e-5,1.65684 1.34314,3 3,3 1.65686,0 3,-1.34316 3,-3 z"
     id="path4907" />
  <path
     style="fill:none;stroke:#000000;stroke-width:0.05mm"
     d="m -267.0889,-324.28303 c -0.58975,-0.2377 -1.1823,-0.47025 -1.77635,-0.69714"
     id="path4909" />
  <path
     style="fill:none;stroke:#000000;stroke-width:0.05mm"
     d="m -209.22995,-188.29464 c -0.50952,-0.20835 -1.09164,0.0344 -1.30231,0.54294 -0.21069,0.50859 0.0294,1.09179 0.53696,1.30479"
     id="path4911" />
  <path
     style="fill:none;stroke:#000000;stroke-width:0.05mm"
     d="m -330.33631,-125.69597 c 0.61859,0.14715 1.23918,0.2888 1.86041,0.42463"
     id="path4913" />
  <path
     style="fill:none;stroke:#000000;stroke-width:0.05mm"
     d="m -278.18655,-328.04743 c -0.61263,-0.17017 -1.22753,-0.33493 -1.84324,-0.4939"
     id="path4915" />
  <path
     style="fill:none;stroke:#000000;stroke-width:0.05mm"
     d="m -313.01112,-331.6341 c -0.63447,0.0417 -1.26925,0.0893 -1.90293,0.1426"
     id="path4917" />
  <path
     style="fill:none;stroke:#000000;stroke-width:0.05mm"
     d="m -380.75002,-300.54154 c -9.13923,9.31584 -16.45264,20.26113 -21.56193,32.26973"
     id="path4919" />
  <path
     style="fill:none;stroke:#ff0000;stroke-width:0.05mm"
     d="m -401.65364,-227.35937 c -0.002,-1.65558 -1.34423,-2.99692 -2.9999,-2.99696 -1.65568,-6e-5 -2.99838,1.3412 -3.00009,2.99696 0.002,1.65559 1.34423,2.99693 2.9999,2.99698 1.65568,5e-5 2.99838,-1.34122 3.00009,-2.99698 z"
     id="path4921" />
  <path
     style="fill:none;stroke:#000000;stroke-width:0.05mm"
     d="m -289.6359,-330.54566 c -0.62783,-0.10053 -1.25729,-0.19538 -1.88694,-0.28443"
     id="path4923" />
  <path
     style="fill:none;stroke:#000000;stroke-width:0.05mm"
     d="m -307.10776,-122.86373 c 0.63579,0.006 1.27236,0.006 1.90825,0"
     id="path4925" />
  <path
     style="fill:none;stroke:#ff0000;stroke-width:0.05mm"
     d="m -303.15363,-325.85935 c 0,-1.65683 -1.34314,-3 -3,-3 -1.65686,0 -2.99998,1.34317 -3,3 2e-5,1.65686 1.34314,3 3,3 1.65686,0 3,-1.34314 3,-3 z"
     id="path4927" />
  <path
     style="fill:none;stroke:#000000;stroke-width:0.05mm"
     d="m -318.80156,-123.62761 c 0.0696,-0.54624 -0.31549,-1.04597 -0.86144,-1.11784 -0.54597,-0.0719 -1.04727,0.31115 -1.12142,0.8568"
     id="path4929" />
  <path
     style="fill:none;stroke:#000000;stroke-width:0.05mm"
     d="m -287.66417,-124.50807 c 0.62579,-0.11248 1.25127,-0.23083 1.875,-0.35477"
     id="path4931" />
  <path
     style="fill:none;stroke:#000000;stroke-width:0.05mm"
     d="m -410.64927,-228.31349 c 0.55071,0.008 1.00437,-0.43051 1.01466,-0.98118 0.0103,-0.55071 -0.42663,-1.00603 -0.97727,-1.01845"
     id="path4933" />
  <path
     style="fill:none;stroke:#000000;stroke-width:0.05mm"
     d="m -409.8854,-240.0073 c -0.077,0.63116 -0.14824,1.26373 -0.21365,1.89625"
     id="path4935" />
  <path
     style="fill:none;stroke:#000000;stroke-width:0.05mm"
     d="m -301.29295,-331.74623 c -0.0279,0.5495 0.39329,1.01835 0.94264,1.0492 0.54936,0.0308 1.02041,-0.38788 1.05418,-0.93707"
     id="path4937" />
  <path
     style="fill:none;stroke:#000000;stroke-width:0.05mm"
     d="m -404.4702,-262.77267 c -0.21548,0.59819 -0.42571,1.19902 -0.63026,1.80116"
     id="path4939" />
  <path
     style="fill:none;stroke:#000000;stroke-width:0.05mm"
     d="m -289.6359,-330.54566 c -0.0894,0.54299 0.27665,1.05621 0.81919,1.14837 0.54254,0.0922 1.0576,-0.2713 1.15252,-0.81335"
     id="path4941" />
  <path
     style="fill:none;stroke:#000000;stroke-width:0.05mm"
     d="m -203.30234,-245.84883 c -0.54205,0.0949 -0.90558,0.61001 -0.81335,1.15255 0.0922,0.54252 0.60537,0.90863 1.14837,0.81918"
     id="path4943" />
  <path
     style="fill:none;stroke:#000000;stroke-width:0.05mm"
     d="m -205.46555,-199.39228 c -0.52975,-0.15026 -1.08132,0.15605 -1.23379,0.68521 -0.15244,0.52914 0.15161,1.08195 0.68011,1.2366"
     id="path4945" />
  <path
     style="fill:none;stroke:#000000;stroke-width:0.05mm"
     d="m -343.442,-324.9802 c 0.19384,0.51529 0.76769,0.77697 1.28383,0.58544 0.51615,-0.19149 0.78041,-0.76419 0.59123,-1.28118"
     id="path4947" />
  <path
     style="fill:none;stroke:#000000;stroke-width:0.05mm"
     d="m -202.42185,-214.71144 c -0.54635,-0.0698 -1.04623,0.31539 -1.1181,0.86142 -0.0719,0.54604 0.31128,1.04744 0.85706,1.12146"
     id="path4949" />
  <path
     style="fill:none;stroke:#000000;stroke-width:0.05mm"
     d="m -314.91405,-123.22722 c 0.0486,-0.54813 -0.35486,-1.0325 -0.90274,-1.08387 -0.54787,-0.0514 -1.0343,0.34955 -1.0885,0.89715"
     id="path4951" />
  <path
     style="fill:none;stroke:#000000;stroke-width:0.05mm"
     d="m -202.02149,-218.59893 c -0.54812,-0.0485 -1.03244,0.3549 -1.0838,0.90275 -0.0514,0.54785 0.34952,1.03426 0.8971,1.08849"
     id="path4953" />
  <path
     style="fill:none;stroke:#000000;stroke-width:0.05mm"
     d="m -202.02149,-218.59893 c 0.0533,-0.63362 0.10087,-1.2684 0.14261,-1.90293"
     id="path4955" />
  <path
     style="fill:none;stroke:#000000;stroke-width:0.05mm"
     d="m -287.66417,-124.50807 c -0.095,-0.54194 -0.61003,-0.9053 -1.15248,-0.81313 -0.54242,0.0922 -0.90852,0.60521 -0.81923,1.14814"
     id="path4957" />
  <path
     style="fill:none;stroke:#000000;stroke-width:0.05mm"
     d="m -204.97165,-253.48321 c -0.53409,0.13464 -0.85876,0.67581 -0.72617,1.2104 0.1326,0.5346 0.67249,0.86133 1.20758,0.73078"
     id="path4959" />
  <path
     style="fill:none;stroke:#000000;stroke-width:0.05mm"
     d="m -406.84172,-255.32644 c -0.17018,0.61265 -0.33494,1.22752 -0.4939,1.84323"
     id="path4961" />
  <path
     style="fill:none;stroke:#000000;stroke-width:0.05mm"
     d="m -201.87888,-234.21687 c -0.54925,0.0337 -0.96811,0.50479 -0.93722,1.05422 0.0308,0.5494 0.49981,0.97065 1.04938,0.94261"
     id="path4963" />
  <path
     style="fill:none;stroke:#000000;stroke-width:0.05mm"
     d="m -324.6431,-330.21064 c -0.6258,0.11249 -1.25126,0.23083 -1.87501,0.35476"
     id="path4965" />
  <path
     style="fill:none;stroke:#000000;stroke-width:0.05mm"
     d="m -314.91405,-123.22722 c 0.63359,0.0533 1.26836,0.10088 1.90293,0.1426"
     id="path4967" />
  <path
     style="fill:none;stroke:#000000;stroke-width:0.05mm"
     d="m -301.29295,-331.74623 c -0.63515,-0.0296 -1.27126,-0.0534 -1.90693,-0.0713"
     id="path4969" />
  <path
     style="fill:none;stroke:#000000;stroke-width:0.05mm"
     d="m -334.12072,-126.67128 c 0.14993,-0.52965 -0.15641,-1.08089 -0.68537,-1.23328 -0.52894,-0.15238 -1.08162,0.15137 -1.23645,0.67962"
     id="path4971" />
  <path
     style="fill:none;stroke:#000000;stroke-width:0.05mm"
     d="m -410.09905,-216.60769 c 0.0654,0.63246 0.13667,1.26503 0.21365,1.89624"
     id="path4973" />
  <path
     style="fill:none;stroke:#000000;stroke-width:0.05mm"
     d="m -376.51063,-299.13069 -1.41447,1.41419"
     id="path4975" />
  <path
     style="fill:none;stroke:#000000;stroke-width:0.05mm"
     d="m -336.04254,-327.49378 c 0.15465,0.5285 0.70746,0.83254 1.23661,0.68008 0.52914,-0.15244 0.83546,-0.70401 0.68521,-1.23376"
     id="path4977" />
  <path
     style="fill:none;stroke:#000000;stroke-width:0.05mm"
     d="m -410.28578,-236.11979 c 0.54813,0.0486 1.03249,-0.35486 1.08386,-0.90274 0.0514,-0.54787 -0.34954,-1.0343 -0.89714,-1.0885"
     id="path4979" />
  <path
     style="fill:none;stroke:#000000;stroke-width:0.05mm"
     d="m -272.54149,-128.41254 c 0.60204,-0.20451 1.20291,-0.41476 1.80116,-0.63027"
     id="path4981" />
  <path
     style="fill:none;stroke:#ff0000;stroke-width:0.05mm"
     d="m -242.92824,-165.13396 c 0,-0.55228 -0.44771,-1 -1,-1 -0.55229,0 -1,0.44772 -1,1 0,0.55229 0.44771,1 1,1 0.55229,0 1,-0.44771 1,-1 z"
     id="path4983" />
  <path
     style="fill:none;stroke:#000000;stroke-width:0.05mm"
     d="m -409.00493,-208.86991 c 0.11249,0.62577 0.23083,1.25123 0.35477,1.87498"
     id="path4985" />
  <path
     style="fill:none;stroke:#000000;stroke-width:0.05mm"
     d="m -403.77447,-190.07099 c 0.22687,0.59397 0.45943,1.18652 0.69717,1.77635"
     id="path4987" />
  <path
     style="fill:none;stroke:#000000;stroke-width:0.05mm"
     d="m -265.24118,-131.20106 c -0.21298,-0.50762 -0.7962,-0.74764 -1.3048,-0.53697 -0.50859,0.21067 -0.75128,0.79277 -0.54293,1.30233"
     id="path4989" />
  <path
     style="fill:none;stroke:#000000;stroke-width:0.05mm"
     d="m -209.22995,-188.29464 c 0.23767,-0.58974 0.47024,-1.1823 0.69714,-1.77635"
     id="path4991" />
  <path
     style="fill:none;stroke:#000000;stroke-width:0.05mm"
     d="m -207.20679,-260.97151 c -0.52203,0.17456 -0.80484,0.73812 -0.63281,1.26096 0.17206,0.52283 0.73425,0.80835 1.25793,0.63881"
     id="path4993" />
  <path
     style="fill:none;stroke:#000000;stroke-width:0.05mm"
     d="m -285.78919,-329.85591 c -0.62365,-0.12393 -1.24911,-0.24227 -1.875,-0.35476"
     id="path4995" />
  <path
     style="fill:none;stroke:#000000;stroke-width:0.05mm"
     d="m -409.00493,-208.86991 c 0.54194,-0.0951 0.9053,-0.61003 0.81314,-1.15248 -0.0922,-0.54242 -0.60523,-0.90851 -1.14815,-0.81923"
     id="path4997" />
  <path
     style="fill:none;stroke:#ff0000;stroke-width:0.05mm"
     d="m -336.82978,-308.66076 c 0,-1.65686 -1.34313,-2.99999 -2.99999,-2.99999 -1.65686,0 -3,1.34313 -3.00001,2.99999 1e-5,1.65686 1.34315,3 3.00001,3 1.65686,0 2.99999,-1.34314 2.99999,-3 z"
     id="path4999" />
  <path
     style="fill:none;stroke:#000000;stroke-width:0.05mm"
     d="m -268.86525,-129.73854 c -0.19396,-0.5151 -0.7677,-0.77664 -1.28372,-0.58516 -0.51604,0.19147 -0.78034,0.76396 -0.59134,1.28089"
     id="path5001" />
  <path
     style="fill:none;stroke:#000000;stroke-width:0.05mm"
     d="m -373.39939,-302.24192 12.14437,12.14438"
     id="path5003" />
  <path
     style="fill:none;stroke:#000000;stroke-width:0.05mm"
     d="m -309.10738,-331.81761 c 0.0124,0.55063 0.46775,0.98755 1.01845,0.97727 0.55069,-0.0103 0.98937,-0.46396 0.98119,-1.01468"
     id="path5005" />
  <path
     style="fill:none;stroke:#000000;stroke-width:0.05mm"
     d="m -202.20819,-238.11103 c -0.0654,-0.63248 -0.13669,-1.26503 -0.21366,-1.89626"
     id="path5007" />
  <path
     style="fill:none;stroke:#b4b4b4;stroke-width:0.05mm"
     d="m -379.33585,-301.95565 2.82522,2.82496"
     id="path5009" />
  <path
     style="fill:none;stroke:#000000;stroke-width:0.05mm"
     d="m -332.27749,-328.54136 c 0.13502,0.53363 0.6759,0.85779 1.21016,0.72531 0.53424,-0.13251 0.86099,-0.67185 0.73102,-1.2067"
     id="path5011" />
  <path
     style="fill:none;stroke:#000000;stroke-width:0.05mm"
     d="m -201.69541,-230.31312 c -0.0179,-0.63562 -0.0417,-1.27174 -0.0713,-1.90692"
     id="path5013" />
  <path
     style="fill:none;stroke:#ff0000;stroke-width:0.05mm"
     d="m -367.37903,-165.13396 c -6e-4,-0.55189 -0.44816,-0.99894 -1.00002,-0.99894 -0.55188,2e-5 -0.99941,0.4471 -0.99998,0.99894 6e-4,0.5519 0.44816,0.99895 1.00003,0.99894 0.55187,-1e-5 0.9994,-0.4471 0.99997,-0.99894 z"
     id="path5015" />
  <path
     style="fill:none;stroke:#000000;stroke-width:0.05mm"
     d="m -341.56694,-129.04281 c 0.59821,0.2155 1.19904,0.42574 1.80117,0.63027"
     id="path5017" />
  <path
     style="fill:none;stroke:#000000;stroke-width:0.05mm"
     d="m -305.19949,-331.85502 c -0.63581,-0.006 -1.27239,-0.006 -1.90825,0"
     id="path5019" />
  <path
     style="fill:none;stroke:#000000;stroke-width:0.05mm"
     d="m -265.24118,-131.20106 c 24.86565,-10.57958 44.66629,-30.38019 55.24588,-55.24585"
     id="path5021" />
  <path
     style="fill:none;stroke:#ff0000;stroke-width:0.05mm"
     d="m -269.47748,-308.66076 c 0,-1.65686 -1.34314,-2.99999 -3,-2.99999 -1.65686,0 -3,1.34313 -3.00001,2.99999 10e-6,1.65686 1.34315,3 3.00001,3 1.65686,0 3,-1.34314 3,-3 z"
     id="path5023" />
  <path
     style="fill:none;stroke:#000000;stroke-width:0.05mm"
     d="m -201.69541,-230.31312 c -0.55062,0.0124 -0.98757,0.46774 -0.97726,1.01845 0.0103,0.55069 0.46396,0.98936 1.01468,0.98118"
     id="path5025" />
  <path
     style="fill:none;stroke:#000000;stroke-width:0.05mm"
     d="m -272.54149,-128.41254 c -0.17433,-0.52232 -0.73811,-0.80543 -1.26115,-0.63332 -0.52304,0.17212 -0.80852,0.73468 -0.63863,1.25846"
     id="path5027" />
  <path
     style="fill:none;stroke:#000000;stroke-width:0.05mm"
     d="m -201.87888,-234.21687 c -0.0417,-0.63446 -0.0893,-1.26924 -0.14261,-1.90292"
     id="path5029" />
  <path
     style="fill:none;stroke:#000000;stroke-width:0.05mm"
     d="m -345.21836,-130.4357 c 0.58972,0.23769 1.18228,0.47025 1.77635,0.69716"
     id="path5031" />
  <path
     style="fill:none;stroke:#000000;stroke-width:0.05mm"
     d="m -276.26473,-127.22494 c 0.60926,-0.18184 1.21755,-0.36947 1.82348,-0.56246"
     id="path5033" />
  <path
     style="fill:none;stroke:#ff0000;stroke-width:0.05mm"
     d="m -384.45504,-193.68322 c -0.002,-1.65558 -1.34423,-2.99693 -2.9999,-2.99698 -1.65567,-5e-5 -2.99837,1.34122 -3.00009,2.99698 0.002,1.65558 1.34423,2.99692 2.99991,2.99698 1.65568,4e-5 2.99838,-1.34122 3.00008,-2.99698 z"
     id="path5035" />
  <path
     style="fill:none;stroke:#000000;stroke-width:0.05mm"
     d="m -305.19949,-331.85502 c -0.008,0.55072 0.43049,1.00439 0.98118,1.01468 0.55069,0.0103 1.00603,-0.42664 1.01845,-0.97727"
     id="path5037" />
  <path
     style="fill:none;stroke:#000000;stroke-width:0.05mm"
     d="m -206.58167,-195.647 c 0.19294,-0.60583 0.38056,-1.21411 0.56247,-1.82347"
     id="path5039" />
  <path
     style="fill:none;stroke:#000000;stroke-width:0.05mm"
     d="m -339.76577,-326.30616 c 0.17407,0.52267 0.73805,0.80612 1.26133,0.63391 0.52329,-0.17218 0.80877,-0.73517 0.63843,-1.25906"
     id="path5041" />
  <path
     style="fill:none;stroke:#000000;stroke-width:0.05mm"
     d="m -270.74033,-325.67594 c -0.5982,-0.21546 -1.19905,-0.42572 -1.80116,-0.63022"
     id="path5043" />
  <path
     style="fill:none;stroke:#000000;stroke-width:0.05mm"
     d="m -406.28806,-197.47047 c 0.52825,-0.15484 0.83201,-0.7075 0.67962,-1.23646 -0.15239,-0.52897 -0.70362,-0.83529 -1.23328,-0.68535"
     id="path5045" />
  <path
     style="fill:none;stroke:#000000;stroke-width:0.05mm"
     d="m -280.02979,-126.17739 c -0.13482,-0.53384 -0.67582,-0.85825 -1.21025,-0.72572 -0.53442,0.13254 -0.86114,0.67215 -0.73092,1.20714"
     id="path5047" />
  <path
     style="fill:none;stroke:#000000;stroke-width:0.05mm"
     d="m -410.61188,-224.4056 c 0.018,0.63562 0.0418,1.27174 0.0713,1.90692"
     id="path5049" />
  <path
     style="fill:none;stroke:#000000;stroke-width:0.05mm"
     d="m -303.19988,-122.90113 c -0.0124,-0.55064 -0.46775,-0.98756 -1.01844,-0.97727 -0.55068,0.0103 -0.98937,0.46394 -0.98119,1.01467"
     id="path5051" />
  <path
     style="fill:none;stroke:#000000;stroke-width:0.05mm"
     d="m -311.0143,-122.97248 c 0.63515,0.0296 1.27127,0.0534 1.90692,0.0713"
     id="path5053" />
  <path
     style="fill:none;stroke:#000000;stroke-width:0.05mm"
     d="m -201.76672,-222.49868 c 0.0296,-0.63516 0.0534,-1.27129 0.0713,-1.90692"
     id="path5055" />
  <path
     style="fill:none;stroke:#000000;stroke-width:0.05mm"
     d="m -316.90529,-331.30479 c -0.63246,0.0654 -1.265,0.13669 -1.89626,0.21365"
     id="path5057" />
  <path
     style="fill:none;stroke:#000000;stroke-width:0.05mm"
     d="m -276.26473,-127.22494 c -0.15484,-0.52825 -0.7075,-0.832 -1.23646,-0.67962 -0.52896,0.15239 -0.83528,0.70363 -0.68536,1.23328"
     id="path5059" />
  <path
     style="fill:none;stroke:#000000;stroke-width:0.05mm"
     d="m -337.86601,-127.78741 c 0.60585,0.19295 1.21413,0.38058 1.82349,0.56246"
     id="path5061" />
  <path
     style="fill:none;stroke:#000000;stroke-width:0.05mm"
     d="m -402.31195,-186.44691 c 0.50763,-0.213 0.74765,-0.79622 0.53698,-1.30481 -0.21067,-0.50859 -0.79278,-0.75127 -1.30233,-0.54292"
     id="path5063" />
  <path
     style="fill:none;stroke:#ff0000;stroke-width:0.05mm"
     d="m -368.89183,-282.46079 c -29.73768,33.85919 -27.24346,85.20657 5.63593,116.02412 32.87936,30.81752 84.28057,29.98583 116.14573,-1.87932 31.86514,-31.86519 32.69681,-83.26639 1.87924,-116.14574 -30.81753,-32.87938 -82.16492,-35.37358 -116.02415,-5.63583"
     id="path5065" />
  <path
     style="fill:none;stroke:#000000;stroke-width:0.05mm"
     d="m -202.20819,-238.11103 c -0.54758,0.0542 -0.94846,0.54063 -0.8971,1.08848 0.0514,0.54785 0.53568,0.95127 1.0838,0.90276"
     id="path5067" />
  <path
     style="fill:none;stroke:#000000;stroke-width:0.05mm"
     d="m -291.52283,-123.88865 c -0.0742,-0.54565 -0.57547,-0.92868 -1.12143,-0.8568 -0.54594,0.0719 -0.93104,0.5716 -0.86145,1.11784"
     id="path5069" />
  <path
     style="fill:none;stroke:#000000;stroke-width:0.05mm"
     d="m -268.86525,-129.73854 c 0.59399,-0.22688 1.18654,-0.45944 1.77635,-0.69716"
     id="path5071" />
  <path
     style="fill:none;stroke:#000000;stroke-width:0.05mm"
     d="m -347.06608,-323.51768 c -12.00859,5.10928 -22.95387,12.4227 -32.26972,21.56194"
     id="path5073" />
  <path
     style="fill:none;stroke:#000000;stroke-width:0.05mm"
     d="m -204.49024,-203.17669 c 0.14716,-0.61858 0.28882,-1.23918 0.42463,-1.86041"
     id="path5075" />
  <path
     style="fill:none;stroke:#000000;stroke-width:0.05mm"
     d="m -410.42839,-220.50186 c 0.0417,0.63448 0.0893,1.26931 0.14261,1.90293"
     id="path5077" />
  <path
     style="fill:none;stroke:#000000;stroke-width:0.05mm"
     d="m -203.6571,-206.99493 c -0.53925,-0.10962 -1.06574,0.23703 -1.17814,0.77571 -0.11239,0.53867 0.23154,1.06693 0.76963,1.1821"
     id="path5079" />
  <path
     style="fill:none;stroke:#000000;stroke-width:0.05mm"
     d="m -407.33562,-201.23553 c 0.15894,0.61565 0.3237,1.23053 0.4939,1.84325"
     id="path5081" />
  <path
     style="fill:none;stroke:#000000;stroke-width:0.05mm"
     d="m -328.4759,-329.44737 c 0.11519,0.53806 0.64345,0.88202 1.1821,0.76963 0.53868,-0.1124 0.88533,-0.63889 0.77572,-1.17814"
     id="path5083" />
  <path
     style="fill:none;stroke:#000000;stroke-width:0.05mm"
     d="m -410.28578,-236.11979 c -0.0533,0.63362 -0.10088,1.2684 -0.14261,1.90292"
     id="path5085" />
  <path
     style="fill:none;stroke:#000000;stroke-width:0.05mm"
     d="m -409.62435,-212.72857 c 0.54564,-0.0742 0.92867,-0.57547 0.85679,-1.12143 -0.0719,-0.54594 -0.57159,-0.93105 -1.11784,-0.86145"
     id="path5087" />
  <path
     style="fill:none;stroke:#000000;stroke-width:0.05mm"
     d="m -299.29613,-123.08462 c 0.63446,-0.0417 1.26924,-0.0893 1.90293,-0.1426"
     id="path5089" />
  <path
     style="fill:none;stroke:#000000;stroke-width:0.05mm"
     d="m -206.0192,-257.24825 c -0.18188,-0.60927 -0.3695,-1.21755 -0.56247,-1.82349"
     id="path5091" />
  <path
     style="fill:none;stroke:#000000;stroke-width:0.05mm"
     d="m -320.78442,-330.83009 c 0.074,0.54578 0.5754,0.92896 1.12146,0.85706 0.54605,-0.0719 0.93116,-0.57175 0.8614,-1.11811"
     id="path5093" />
  <path
     style="fill:none;stroke:#000000;stroke-width:0.05mm"
     d="m -332.27749,-328.54136 c -0.61565,0.15893 -1.23052,0.3237 -1.84323,0.4939"
     id="path5095" />
  <path
     style="fill:none;stroke:#ff0000;stroke-width:0.05mm"
     d="m -391.15363,-227.35937 c -0.002,-1.65558 -1.34424,-2.99692 -2.99991,-2.99696 -1.65568,-6e-5 -2.99837,1.3412 -3.00009,2.99696 0.002,1.65559 1.34423,2.99693 2.99991,2.99698 1.65567,5e-5 2.99837,-1.34122 3.00009,-2.99698 z"
     id="path5097" />
  <path
     style="fill:none;stroke:#000000;stroke-width:0.05mm"
     d="m -347.06608,-323.51768 c 0.21298,0.50763 0.7962,0.74765 1.30479,0.53699 0.50859,-0.21066 0.75128,-0.79279 0.54294,-1.30234"
     id="path5099" />
  <path
     style="fill:none;stroke:#000000;stroke-width:0.05mm"
     d="m -208.53281,-264.64773 c -0.22687,-0.59398 -0.45944,-1.18654 -0.69714,-1.77635"
     id="path5101" />
  <path
     style="fill:none;stroke:#000000;stroke-width:0.05mm"
     d="m -381.03633,-294.60525 12.14437,12.14438"
     id="path5103" />
  <path
     style="fill:none;stroke:#000000;stroke-width:0.05mm"
     d="m -285.78919,-329.85591 c -0.10961,0.53925 0.23703,1.06574 0.77572,1.17814 0.53866,0.11239 1.06692,-0.23157 1.18209,-0.76963"
     id="path5105" />
  <path
     style="fill:none;stroke:#000000;stroke-width:0.05mm"
     d="m -379.3358,-301.95574 c -0.47577,0.46675 -0.94755,0.93852 -1.41422,1.4142"
     id="path5107" />
  <path
     style="fill:none;stroke:#000000;stroke-width:0.05mm"
     d="m -408.24167,-205.0371 c 0.13579,0.62112 0.27745,1.24173 0.42463,1.86041"
     id="path5109" />
  <path
     style="fill:none;stroke:#000000;stroke-width:0.05mm"
     d="m -295.40195,-123.41395 c -0.0542,-0.5476 -0.54063,-0.94852 -1.0885,-0.89715 -0.54788,0.0514 -0.95129,0.53574 -0.90274,1.08388"
     id="path5111" />
  <path
     style="fill:none;stroke:#000000;stroke-width:0.05mm"
     d="m -291.52283,-123.88865 c 0.62957,-0.089 1.25902,-0.1839 1.88695,-0.28442"
     id="path5113" />
  <path
     style="fill:none;stroke:#ff0000;stroke-width:0.05mm"
     d="m -336.82978,-146.05797 c 0,-1.65685 -1.34313,-3 -2.99999,-3 -1.65686,0 -3,1.34315 -3.00001,3 1e-5,1.65685 1.34315,3 3.00001,3 1.65686,0 2.99999,-1.34315 2.99999,-3 z"
     id="path5115" />
  <path
     style="fill:none;stroke:#000000;stroke-width:0.05mm"
     d="m -201.65796,-226.40524 c 0.006,-0.63603 0.006,-1.27258 0,-1.90825"
     id="path5117" />
  <path
     style="fill:none;stroke:#000000;stroke-width:0.05mm"
     d="m -274.44127,-326.93131 c -0.60582,-0.19297 -1.21413,-0.38059 -1.82349,-0.56247"
     id="path5119" />
  <path
     style="fill:none;stroke:#ff0000;stroke-width:0.05mm"
     d="m -269.47748,-146.05797 c 0,-1.65685 -1.34314,-3 -3,-3 -1.65686,0 -3,1.34315 -3.00001,3 10e-6,1.65685 1.34315,3 3.00001,3 1.65686,0 3,-1.34315 3,-3 z"
     id="path5121" />
  <path
     style="fill:none;stroke:#000000;stroke-width:0.05mm"
     d="m -404.4702,-262.77267 c 0.51694,0.18898 1.08943,-0.0753 1.2809,-0.59132 0.19147,-0.51604 -0.0701,-1.0898 -0.58517,-1.28374"
     id="path5123" />
  <path
     style="fill:none;stroke:#000000;stroke-width:0.05mm"
     d="m -208.53281,-264.64773 c -0.51565,0.19359 -0.77771,0.7677 -0.58609,1.28407 0.19165,0.51639 0.76474,0.78063 1.28186,0.59099"
     id="path5125" />
  <path
     style="fill:none;stroke:#ff0000;stroke-width:0.05mm"
     d="m -303.15363,-139.35937 c 0,-1.65686 -1.34314,-3 -3,-3 -1.65686,0 -2.99998,1.34314 -3,3 2e-5,1.65685 1.34314,3 3,3 1.65686,0 3,-1.34315 3,-3 z"
     id="path5127" />
  <path
     style="fill:none;stroke:#000000;stroke-width:0.05mm"
     d="m -203.6571,-206.99493 c 0.12393,-0.62363 0.24227,-1.24908 0.35476,-1.87498"
     id="path5129" />
  <path
     style="fill:none;stroke:#000000;stroke-width:0.05mm"
     d="m -274.44127,-326.93131 c -0.17032,0.52389 0.11514,1.08688 0.63843,1.25906 0.52328,0.17221 1.08728,-0.11124 1.26135,-0.63391"
     id="path5131" />
  <path
     style="fill:none;stroke:#ff0000;stroke-width:0.05mm"
     d="m -204.65363,-227.35937 c 0,-1.65686 -1.34317,-3 -3,-3 -1.65686,0 -3,1.34314 -3,3 0,1.65686 1.34314,3.00002 3,3.00002 1.65683,0 3,-1.34316 3,-3.00002 z"
     id="path5133" />
  <path
     style="fill:none;stroke:#000000;stroke-width:0.05mm"
     d="m -405.72559,-259.07174 c 0.52377,0.16991 1.08633,-0.11557 1.25845,-0.63861 0.17212,-0.52306 -0.111,-1.08682 -0.63331,-1.26116"
     id="path5135" />
  <path
     style="fill:none;stroke:#000000;stroke-width:0.05mm"
     d="m -407.81704,-251.54205 c -0.14716,0.61861 -0.2888,1.23921 -0.42463,1.86041"
     id="path5137" />
  <path
     style="fill:none;stroke:#000000;stroke-width:0.05mm"
     d="m -201.76672,-222.49868 c -0.54957,-0.0281 -1.01853,0.3932 -1.04938,0.94261 -0.0309,0.54942 0.38797,1.02052 0.93722,1.05421"
     id="path5139" />
  <path
     style="fill:none;stroke:#000000;stroke-width:0.05mm"
     d="m -201.65796,-226.40524 c -0.55072,-0.008 -1.00439,0.4305 -1.01468,0.98119 -0.0103,0.55069 0.42664,1.00603 0.97727,1.01845"
     id="path5141" />
  <text
     xml:space="preserve"
     style="font-weight:bold;font-size:27.9951px;font-family:'Gujarati MT';-inkscape-font-specification:'Gujarati MT Bold';fill:none;stroke:#000000;stroke-width:0.881735;stroke-linecap:round;stroke-linejoin:round"
     x="-204.78436"
     y="-658.49597"
     id="text19012"><tspan
       sodipodi:role="line"
       id="tspan19010"
       style="font-style:normal;font-variant:normal;font-weight:normal;font-stretch:normal;font-family:'Courier New';-inkscape-font-specification:'Courier New';stroke-width:0.881735"
       x="-204.78436"
       y="-658.49597">4.5 mm</tspan></text>
</svg>
