<?xml version="1.0" encoding="UTF-8" standalone="no"?>
<svg
   width="474.168mm"
   height="208.941mm"
   viewBox="23.000454 -238.941010 474.167938 208.941467"
   version="1.1"
   id="svg34760"
   xmlns="http://www.w3.org/2000/svg"
   xmlns:svg="http://www.w3.org/2000/svg">
  <defs
     id="defs34764" />
  <path
     transform="matrix(0.999998,0,0,-0.999998,-102.751999,236.259995)"
     style="stroke:#ff0000;stroke-width:0.05mm;fill:none"
     d="M234.775803,339.231049C240.298645,339.231049,244.775787,343.708191,244.775803,349.231018"
     id="path34584" />
  <path
     transform="matrix(0.999998,0,0,-0.999998,-102.751999,236.259995)"
     style="stroke:#ff0000;stroke-width:0.05mm;fill:none"
     d="M244.775818,349.231476L244.775818,392.231537"
     id="path34586" />
  <path
     transform="matrix(0.999998,0,0,-0.999998,-102.751999,236.259995)"
     style="stroke:#ff0000;stroke-width:0.05mm;fill:none"
     d="M244.775803,392.231049C244.775803,397.753906,240.298645,402.231049,234.775803,402.231049"
     id="path34588" />
  <path
     transform="matrix(0.999998,0,0,-0.999998,-102.751999,236.259995)"
     style="stroke:#ff0000;stroke-width:0.05mm;fill:none"
     d="M230.775925,402.230133L234.775879,402.230133"
     id="path34590" />
  <path
     transform="matrix(0.999998,0,0,-0.999998,-102.751999,236.259995)"
     style="stroke:#ff0000;stroke-width:0.05mm;fill:none"
     d="M230.775803,402.231049C225.25296,402.231049,220.775803,397.753906,220.775803,392.231049"
     id="path34592" />
  <path
     transform="matrix(0.999998,0,0,-0.999998,-102.751999,236.259995)"
     style="stroke:#ff0000;stroke-width:0.05mm;fill:none"
     d="M220.775726,349.231476L220.775726,392.231537"
     id="path34594" />
  <path
     transform="matrix(0.999998,0,0,-0.999998,-102.751999,236.259995)"
     style="stroke:#ff0000;stroke-width:0.05mm;fill:none"
     d="M220.775803,349.231018C220.775803,343.708221,225.252945,339.231079,230.775803,339.231049"
     id="path34596" />
  <path
     transform="matrix(0.999998,0,0,-0.999998,-102.751999,236.259995)"
     style="stroke:#ff0000;stroke-width:0.05mm;fill:none"
     d="M230.775925,339.230225L234.775879,339.230225"
     id="path34598" />
  <path
     transform="matrix(0.999998,0,0,-0.999998,-102.751999,236.259995)"
     style="stroke:#ff0000;stroke-width:0.05mm;fill:none"
     d="M220.08812,275.170166C220.08812,275.584381,219.752335,275.920166,219.33812,275.920166C218.923904,275.920166,218.58812,275.584381,218.58812,275.170166C218.58812,274.755951,218.923904,274.420197,219.33812,274.420197C219.752335,274.420197,220.08812,274.755951,220.08812,275.170166z"
     id="path34600" />
  <path
     transform="matrix(0.999998,0,0,-0.999998,-102.751999,236.259995)"
     style="stroke:#ff0000;stroke-width:0.05mm;fill:none"
     d="M246.948532,275.170166C246.948532,275.584381,246.612747,275.920166,246.198532,275.920166C245.784302,275.920166,245.448517,275.584381,245.448517,275.170166C245.448517,274.755951,245.784302,274.420197,246.198532,274.420197C246.612747,274.420197,246.948532,274.755951,246.948532,275.170166z"
     id="path34602" />
  <path
     transform="matrix(0.999998,0,0,-0.999998,-102.751999,236.259995)"
     style="stroke:#ff0000;stroke-width:0.05mm;fill:none"
     d="M329.079193,384.161255C329.079163,384.57547,328.743378,384.911255,328.329163,384.911255C327.914948,384.911255,327.579193,384.57547,327.579193,384.161255C327.579193,383.74704,327.914948,383.411255,328.329163,383.411255C328.743378,383.411255,329.079163,383.74704,329.079193,384.161255z"
     id="path34604" />
  <path
     transform="matrix(0.999998,0,0,-0.999998,-102.751999,236.259995)"
     style="stroke:#ff0000;stroke-width:0.05mm;fill:none"
     d="M137.957458,384.161255C137.957458,384.57547,137.621674,384.911255,137.207458,384.911255C136.793243,384.911255,136.457458,384.57547,136.457458,384.161255C136.457458,383.74704,136.793243,383.411255,137.207458,383.411255C137.621674,383.411255,137.957458,383.74704,137.957458,384.161255z"
     id="path34606" />
  <path
     transform="matrix(0.999998,0,0,-0.999998,-102.751999,236.259995)"
     style="stroke:#ff0000;stroke-width:0.05mm;fill:none"
     d="M137.957458,357.300842C137.957458,357.715057,137.621674,358.050842,137.207458,358.050842C136.793243,358.050842,136.457458,357.715057,136.457458,357.300842C136.457458,356.886627,136.793243,356.550873,137.207458,356.550873C137.621674,356.550873,137.957458,356.886627,137.957458,357.300842z"
     id="path34608" />
  <path
     transform="matrix(0.999998,0,0,-0.999998,-102.751999,236.259995)"
     style="stroke:#ff0000;stroke-width:0.05mm;fill:none"
     d="M233.518326,467.231018C233.518326,467.645233,233.182541,467.981018,232.768326,467.981018C232.354095,467.981018,232.018326,467.645233,232.018326,467.231018C232.018326,466.816803,232.354095,466.481018,232.768326,466.481018C233.182541,466.481018,233.518326,466.816803,233.518326,467.231018z"
     id="path34610" />
  <path
     transform="matrix(0.999998,0,0,-0.999998,-102.751999,236.259995)"
     style="stroke:#ff0000;stroke-width:0.05mm;fill:none"
     d="M301.75415,438.966858C301.75415,439.381073,301.418365,439.716827,301.00415,439.716827C300.589935,439.716827,300.254181,439.381073,300.25415,438.966858C300.254181,438.552643,300.589935,438.216858,301.00415,438.216858C301.418365,438.216858,301.75415,438.552643,301.75415,438.966858z"
     id="path34612" />
  <path
     transform="matrix(0.999998,0,0,-0.999998,-102.751999,236.259995)"
     style="stroke:#ff0000;stroke-width:0.05mm;fill:none"
     d="M322.672699,407.659973C322.672699,408.074188,322.336945,408.409973,321.922699,408.409973C321.508484,408.409973,321.172729,408.074188,321.172699,407.659973C321.172729,407.245758,321.508484,406.910004,321.922699,406.910004C322.336945,406.910004,322.672699,407.245758,322.672699,407.659973z"
     id="path34614" />
  <path
     transform="matrix(0.999998,0,0,-0.999998,-102.751999,236.259995)"
     style="stroke:#ff0000;stroke-width:0.05mm;fill:none"
     d="M330.018311,370.731049C330.015808,371.143463,329.680756,371.476501,329.268311,371.476501C328.855865,371.476501,328.520813,371.143463,328.518341,370.731049C328.520813,370.318604,328.855865,369.985565,329.268311,369.985565C329.680756,369.985565,330.015808,370.318604,330.018311,370.731049z"
     id="path34616" />
  <path
     transform="matrix(0.999998,0,0,-0.999998,-102.751999,236.259995)"
     style="stroke:#ff0000;stroke-width:0.05mm;fill:none"
     d="M322.672699,333.802094C322.672699,334.216309,322.336945,334.552063,321.922699,334.552063C321.508484,334.552063,321.172729,334.216309,321.172699,333.802094C321.172729,333.387878,321.508484,333.052094,321.922699,333.052094C322.336945,333.052094,322.672699,333.387878,322.672699,333.802094z"
     id="path34618" />
  <path
     transform="matrix(0.999998,0,0,-0.999998,-102.751999,236.259995)"
     style="stroke:#ff0000;stroke-width:0.05mm;fill:none"
     d="M301.75415,302.495239C301.75415,302.909454,301.418365,303.245239,301.00415,303.245239C300.589935,303.245239,300.254181,302.909454,300.25415,302.495239C300.254181,302.081024,300.589935,301.74527,301.00415,301.74527C301.418365,301.74527,301.75415,302.081024,301.75415,302.495239z"
     id="path34620" />
  <path
     transform="matrix(0.999998,0,0,-0.999998,-102.751999,236.259995)"
     style="stroke:#ff0000;stroke-width:0.05mm;fill:none"
     d="M270.447266,281.57666C270.445709,281.989746,270.110382,282.323761,269.697296,282.323761C269.28418,282.323761,268.948853,281.989746,268.947266,281.57666C268.948853,281.163574,269.28421,280.829559,269.697296,280.829559C270.110382,280.829559,270.445709,281.163574,270.447266,281.57666z"
     id="path34622" />
  <path
     transform="matrix(0.999998,0,0,-0.999998,-102.751999,236.259995)"
     style="stroke:#ff0000;stroke-width:0.05mm;fill:none"
     d="M233.518326,274.231049C233.518326,274.645264,233.182541,274.981049,232.768326,274.981049C232.354095,274.981049,232.018326,274.645264,232.018326,274.231049C232.018326,273.816833,232.354095,273.481079,232.768326,273.481079C233.182541,273.481079,233.518326,273.816833,233.518326,274.231049z"
     id="path34624" />
  <path
     transform="matrix(0.999998,0,0,-0.999998,-102.751999,236.259995)"
     style="stroke:#ff0000;stroke-width:0.05mm;fill:none"
     d="M196.589386,281.57666C196.589386,281.990875,196.253601,282.32666,195.839371,282.32666C195.425156,282.32666,195.089371,281.990875,195.089371,281.57666C195.089371,281.162445,195.425156,280.82666,195.839371,280.82666C196.253601,280.82666,196.589386,281.162445,196.589386,281.57666z"
     id="path34626" />
  <path
     transform="matrix(0.999998,0,0,-0.999998,-102.751999,236.259995)"
     style="stroke:#ff0000;stroke-width:0.05mm;fill:none"
     d="M165.282516,302.495239C165.280945,302.908325,164.945602,303.242371,164.532516,303.242371C164.119415,303.242371,163.784103,302.908325,163.782532,302.495239C163.784103,302.082153,164.119431,301.748138,164.532516,301.748138C164.945618,301.748138,165.280945,302.082153,165.282516,302.495239z"
     id="path34628" />
  <path
     transform="matrix(0.999998,0,0,-0.999998,-102.751999,236.259995)"
     style="stroke:#ff0000;stroke-width:0.05mm;fill:none"
     d="M144.363953,333.802094C144.362381,334.215179,144.027054,334.549194,143.613968,334.549194C143.200867,334.549194,142.86554,334.215179,142.863968,333.802094C142.86554,333.389008,143.200882,333.054962,143.613968,333.054962C144.027069,333.054962,144.362381,333.389008,144.363953,333.802094z"
     id="path34630" />
  <path
     transform="matrix(0.999998,0,0,-0.999998,-102.751999,236.259995)"
     style="stroke:#ff0000;stroke-width:0.05mm;fill:none"
     d="M137.018326,370.731049C137.016739,371.144135,136.681412,371.478149,136.268326,371.478149C135.855225,371.478149,135.519897,371.144135,135.518341,370.731049C135.519897,370.317932,135.85524,369.983917,136.268326,369.983917C136.681427,369.983917,137.016739,370.317932,137.018326,370.731049z"
     id="path34632" />
  <path
     transform="matrix(0.999998,0,0,-0.999998,-102.751999,236.259995)"
     style="stroke:#ff0000;stroke-width:0.05mm;fill:none"
     d="M144.363953,407.659973C144.362381,408.073059,144.027054,408.407104,143.613968,408.407104C143.200867,408.407104,142.86554,408.073059,142.863968,407.659973C142.86554,407.246887,143.200882,406.912872,143.613968,406.912872C144.027069,406.912872,144.362381,407.246887,144.363953,407.659973z"
     id="path34634" />
  <path
     transform="matrix(0.999998,0,0,-0.999998,-102.751999,236.259995)"
     style="stroke:#ff0000;stroke-width:0.05mm;fill:none"
     d="M165.282516,438.966858C165.280945,439.379944,164.945602,439.713959,164.532516,439.713959C164.119415,439.713959,163.784103,439.379944,163.782532,438.966858C163.784103,438.553772,164.119431,438.219727,164.532516,438.219727C164.945618,438.219727,165.280945,438.553772,165.282516,438.966858z"
     id="path34636" />
  <path
     transform="matrix(0.999998,0,0,-0.999998,-102.751999,236.259995)"
     style="stroke:#ff0000;stroke-width:0.05mm;fill:none"
     d="M196.589386,459.885406C196.589386,460.299622,196.253601,460.635406,195.839371,460.635406C195.425156,460.635406,195.089371,460.299622,195.089371,459.885406C195.089371,459.471191,195.425156,459.135406,195.839371,459.135406C196.253601,459.135406,196.589386,459.471191,196.589386,459.885406z"
     id="path34638" />
  <path
     transform="matrix(0.999998,0,0,-0.999998,-102.751999,236.259995)"
     style="stroke:#000000;stroke-width:0.05mm;fill:none"
     d="M337.268311,370.731049C337.248383,428.439606,290.465027,475.204651,232.763474,475.201965C175.061935,475.199341,128.282913,428.429962,128.268341,370.731049C128.288269,313.0224,175.071625,266.257385,232.773163,266.260071C290.474731,266.262756,337.253723,313.032104,337.268311,370.731049z"
     id="path34640" />
  <path
     transform="matrix(0.999998,0,0,-0.999998,-102.751999,236.259995)"
     style="stroke:#ff0000;stroke-width:0.05mm;fill:none"
     d="M220.08812,466.291901C220.08812,466.706116,219.752335,467.04187,219.33812,467.04187C218.923904,467.04187,218.58812,466.706116,218.58812,466.291901C218.58812,465.877686,218.923904,465.541901,219.33812,465.541901C219.752335,465.541901,220.08812,465.877686,220.08812,466.291901z"
     id="path34642" />
  <path
     transform="matrix(0.999998,0,0,-0.999998,-102.751999,236.259995)"
     style="stroke:#ff0000;stroke-width:0.05mm;fill:none"
     d="M246.948532,466.291901C246.948532,466.706116,246.612747,467.04187,246.198532,467.04187C245.784302,467.04187,245.448517,466.706116,245.448517,466.291901C245.448517,465.877686,245.784302,465.541901,246.198532,465.541901C246.612747,465.541901,246.948532,465.877686,246.948532,466.291901z"
     id="path34644" />
  <path
     transform="matrix(0.999998,0,0,-0.999998,-102.751999,236.259995)"
     style="stroke:#ff0000;stroke-width:0.05mm;fill:none"
     d="M329.079193,357.300842C329.079163,357.715057,328.743378,358.050842,328.329163,358.050842C327.914948,358.050842,327.579193,357.715057,327.579193,357.300842C327.579193,356.886627,327.914948,356.550873,328.329163,356.550873C328.743378,356.550873,329.079163,356.886627,329.079193,357.300842z"
     id="path34646" />
  <path
     transform="matrix(0.999998,0,0,-0.999998,-102.751999,236.259995)"
     style="stroke:#ff0000;stroke-width:0.05mm;fill:none"
     d="M270.447266,459.885406C270.445709,460.298492,270.110382,460.632507,269.697296,460.632507C269.28418,460.632507,268.948853,460.298492,268.947266,459.885406C268.948853,459.472321,269.28421,459.138306,269.697296,459.138306C270.110382,459.138306,270.445709,459.472321,270.447266,459.885406z"
     id="path34648" />
  <path
     transform="matrix(0.999998,0,0,-0.999998,-102.751999,236.259995)"
     style="stroke:#ff0000;stroke-width:0.05mm;fill:none"
     d="M140.180222,306.329559C139.905899,306.639923,139.431931,306.669128,139.121567,306.394806C138.811218,306.120483,138.782013,305.646515,139.056335,305.336151C139.330658,305.025787,139.804626,304.996582,140.11499,305.270905C140.425339,305.545258,140.454559,306.019226,140.180222,306.329559z"
     id="path34650" />
  <path
     transform="matrix(0.999998,0,0,-0.999998,-102.751999,236.259995)"
     style="stroke:#ff0000;stroke-width:0.05mm;fill:none"
     d="M157.969254,286.204163C157.694931,286.514526,157.220963,286.543732,156.910599,286.269409C156.60025,285.995087,156.571045,285.521118,156.845367,285.210754C157.11969,284.900391,157.593658,284.871185,157.904022,285.145508C158.214371,285.41983,158.243591,285.893799,157.969254,286.204163z"
     id="path34652" />
  <path
     transform="matrix(0.999998,0,0,-0.999998,-102.751999,236.259995)"
     style="stroke:#ff0000;stroke-width:0.05mm;fill:none"
     d="M150.056931,297.13504C148.959625,298.376434,147.063736,298.493286,145.822327,297.395966C144.580902,296.298676,144.464081,294.402802,145.561356,293.161377C146.658676,291.919952,148.554565,291.803131,149.795975,292.900421C151.037399,293.997742,151.154221,295.893616,150.056931,297.13504z"
     id="path34654" />
  <path
     transform="matrix(0.999998,0,0,-0.999998,-102.751999,236.259995)"
     style="stroke:#000000;stroke-width:0.05mm;fill:none"
     d="M170.956329,284.864716L162.395432,271.943207"
     id="path34656" />
  <path
     transform="matrix(0.999998,0,0,-0.999998,-102.751999,236.259995)"
     style="stroke:#000000;stroke-width:0.05mm;fill:none"
     d="M126.570663,312.473083C134.748016,296.05304,147.1035,282.074829,162.395325,271.943268"
     id="path34658" />
  <path
     transform="matrix(0.999998,0,0,-0.999998,-102.751999,236.259995)"
     style="stroke:#000000;stroke-width:0.05mm;fill:none"
     d="M140.445374,319.382935L126.570686,312.473053"
     id="path34660" />
  <path
     transform="matrix(0.999998,0,0,-0.999998,-102.751999,236.259995)"
     style="stroke:#000000;stroke-width:0.05mm;fill:none"
     d="M140.445313,319.382813C147.409744,305.398285,157.932617,293.493347,170.956268,284.864594"
     id="path34662" />
  <path
     transform="matrix(0.999998,0,0,-0.999998,-102.751999,236.259995)"
     style="stroke:#ff0000;stroke-width:0.05mm;fill:none"
     d="M349.184174,354.410736C349.598389,354.410736,349.934174,354.746521,349.934174,355.160767C349.934174,355.574982,349.598389,355.910767,349.184174,355.910767C348.769958,355.910767,348.434174,355.574982,348.434174,355.160767C348.434174,354.746521,348.769958,354.410736,349.184174,354.410736z"
     id="path34664" />
  <path
     transform="matrix(0.999998,0,0,-0.999998,-102.751999,236.259995)"
     style="stroke:#ff0000;stroke-width:0.05mm;fill:none"
     d="M349.184174,381.271149C349.598389,381.271149,349.934174,381.606934,349.934174,382.021149C349.934174,382.435364,349.598389,382.771149,349.184174,382.771149C348.769958,382.771149,348.434174,382.435364,348.434174,382.021149C348.434174,381.606934,348.769958,381.271149,349.184174,381.271149z"
     id="path34666" />
  <path
     transform="matrix(0.999998,0,0,-0.999998,-102.751999,236.259995)"
     style="stroke:#ff0000;stroke-width:0.05mm;fill:none"
     d="M342.777679,402.519897C344.43454,402.519897,345.777679,403.863037,345.777679,405.519897C345.777679,407.176758,344.43454,408.519897,342.777679,408.519897C341.120819,408.519897,339.777679,407.176758,339.777679,405.519897C339.777679,403.863037,341.120819,402.519897,342.777679,402.519897z"
     id="path34668" />
  <path
     transform="matrix(0.999998,0,0,-0.999998,-102.751999,236.259995)"
     style="stroke:#ff0000;stroke-width:0.05mm;fill:none"
     d="M342.777679,328.661987C344.43454,328.661987,345.777679,330.005157,345.777679,331.662018C345.777679,333.318848,344.43454,334.662018,342.777679,334.662018C341.120819,334.662018,339.777679,333.318848,339.777679,331.662018C339.777679,330.005157,341.120819,328.661987,342.777679,328.661987z"
     id="path34670" />
  <path
     transform="matrix(0.999998,0,0,-0.999998,-102.751999,236.259995)"
     style="stroke:#000000;stroke-width:0.05mm;fill:none"
     d="M330.699677,413.090912L344.123047,420.84082"
     id="path34672" />
  <path
     transform="matrix(0.999998,0,0,-0.999998,-102.751999,236.259995)"
     style="stroke:#000000;stroke-width:0.05mm;fill:none"
     d="M344.122955,316.340942C362.7901,348.67337,362.7901,388.508545,344.122955,420.840942"
     id="path34674" />
  <path
     transform="matrix(0.999998,0,0,-0.999998,-102.751999,236.259995)"
     style="stroke:#000000;stroke-width:0.05mm;fill:none"
     d="M330.699677,324.091187L344.123047,316.341522"
     id="path34676" />
  <path
     transform="matrix(0.999998,0,0,-0.999998,-102.751999,236.259995)"
     style="stroke:#000000;stroke-width:0.05mm;fill:none"
     d="M330.699554,324.090942C346.59787,351.627594,346.59787,385.55423,330.699554,413.090942"
     id="path34678" />
  <path
     transform="matrix(0.999998,0,0,-0.999998,-102.751999,236.259995)"
     style="stroke:#ff0000;stroke-width:0.05mm;fill:none"
     d="M350.123291,365.590973C351.780151,365.590973,353.123291,366.934082,353.123291,368.590942C353.123291,370.247803,351.780151,371.590942,350.123291,371.590973C348.466431,371.590942,347.123322,370.247803,347.123322,368.590942C347.123322,366.934082,348.466431,365.590973,350.123291,365.590973z"
     id="path34680" />
  <path
     transform="matrix(0.999998,0,0,-0.999998,-102.751999,236.259995)"
     style="stroke:#ff0000;stroke-width:0.05mm;fill:none"
     d="M324.555298,305.102631C324.82962,305.412994,325.303589,305.4422,325.613953,305.167877C325.924316,304.893555,325.953522,304.419586,325.679199,304.109222C325.404846,303.798859,324.930878,303.769653,324.620544,304.043976C324.310181,304.318298,324.280975,304.792267,324.555298,305.102631z"
     id="path34682" />
  <path
     transform="matrix(0.999998,0,0,-0.999998,-102.751999,236.259995)"
     style="stroke:#ff0000;stroke-width:0.05mm;fill:none"
     d="M306.766266,284.977234C307.040588,285.287598,307.514557,285.316803,307.824921,285.04248C308.135284,284.768158,308.16449,284.294159,307.890167,283.983826C307.615814,283.673462,307.141846,283.644257,306.831512,283.918579C306.521149,284.192902,306.491943,284.66687,306.766266,284.977234z"
     id="path34684" />
  <path
     transform="matrix(0.999998,0,0,-0.999998,-102.751999,236.259995)"
     style="stroke:#ff0000;stroke-width:0.05mm;fill:none"
     d="M314.678589,295.908081C315.775909,297.149506,317.671783,297.266327,318.913208,296.169037C320.154602,295.071747,320.271454,293.175842,319.174164,291.934418C318.076843,290.693024,316.180969,290.576202,314.939545,291.673492C313.69812,292.770782,313.581299,294.666687,314.678589,295.908081z"
     id="path34686" />
  <path
     transform="matrix(0.999998,0,0,-0.999998,-102.751999,236.259995)"
     style="stroke:#000000;stroke-width:0.05mm;fill:none"
     d="M293.779175,283.637787L302.340088,270.716248"
     id="path34688" />
  <path
     transform="matrix(0.999998,0,0,-0.999998,-102.751999,236.259995)"
     style="stroke:#000000;stroke-width:0.05mm;fill:none"
     d="M338.164856,311.246155C329.987518,294.826111,317.632019,280.84787,302.340179,270.716339"
     id="path34690" />
  <path
     transform="matrix(0.999998,0,0,-0.999998,-102.751999,236.259995)"
     style="stroke:#000000;stroke-width:0.05mm;fill:none"
     d="M324.290161,318.155975L338.164825,311.246124"
     id="path34692" />
  <path
     transform="matrix(0.999998,0,0,-0.999998,-102.751999,236.259995)"
     style="stroke:#000000;stroke-width:0.05mm;fill:none"
     d="M324.290222,318.155853C317.325775,304.171326,306.802887,292.266418,293.779236,283.637665"
     id="path34694" />
  <path
     transform="matrix(0.999998,0,0,-0.999998,-102.751999,236.259995)"
     style="stroke:#ff0000;stroke-width:0.05mm;fill:none"
     d="M139.362274,434.253082C139.087952,433.942719,138.613983,433.913513,138.303619,434.187836C137.993271,434.462158,137.964066,434.936127,138.238388,435.24649C138.512711,435.556854,138.986679,435.58606,139.297043,435.311737C139.607391,435.037415,139.636612,434.563446,139.362274,434.253082z"
     id="path34696" />
  <path
     transform="matrix(0.999998,0,0,-0.999998,-102.751999,236.259995)"
     style="stroke:#ff0000;stroke-width:0.05mm;fill:none"
     d="M157.151306,454.378479C156.876984,454.068115,156.403015,454.03891,156.092651,454.313232C155.782303,454.587585,155.753098,455.061554,156.02742,455.371887C156.301743,455.682251,156.775711,455.711456,157.086075,455.437134C157.396423,455.162811,157.425644,454.688843,157.151306,454.378479z"
     id="path34698" />
  <path
     transform="matrix(0.999998,0,0,-0.999998,-102.751999,236.259995)"
     style="stroke:#ff0000;stroke-width:0.05mm;fill:none"
     d="M149.238983,443.447632C148.141678,442.206207,146.245789,442.089386,145.004379,443.186676C143.762955,444.283966,143.646133,446.179871,144.743408,447.421295C145.840729,448.662689,147.736618,448.77951,148.978027,447.68222C150.219452,446.58493,150.336273,444.689026,149.238983,443.447632z"
     id="path34700" />
  <path
     transform="matrix(0.999998,0,0,-0.999998,-102.751999,236.259995)"
     style="stroke:#000000;stroke-width:0.05mm;fill:none"
     d="M170.138382,455.717926L161.577484,468.639465"
     id="path34702" />
  <path
     transform="matrix(0.999998,0,0,-0.999998,-102.751999,236.259995)"
     style="stroke:#000000;stroke-width:0.05mm;fill:none"
     d="M125.752708,428.109558C133.930069,444.529602,146.285553,458.507843,161.577377,468.639374"
     id="path34704" />
  <path
     transform="matrix(0.999998,0,0,-0.999998,-102.751999,236.259995)"
     style="stroke:#000000;stroke-width:0.05mm;fill:none"
     d="M139.627426,421.199738L125.752747,428.109589"
     id="path34706" />
  <path
     transform="matrix(0.999998,0,0,-0.999998,-102.751999,236.259995)"
     style="stroke:#000000;stroke-width:0.05mm;fill:none"
     d="M139.627365,421.19986C146.591797,435.184387,157.11467,447.089325,170.138321,455.718048"
     id="path34708" />
  <path
     transform="matrix(0.999998,0,0,-0.999998,-102.751999,236.259995)"
     style="stroke:#ff0000;stroke-width:0.05mm;fill:none"
     d="M328.644653,431.799103C328.918976,431.48877,329.392944,431.459534,329.703308,431.733887C330.013672,432.008209,330.042877,432.482178,329.768555,432.792542C329.494232,433.102875,329.020264,433.13208,328.7099,432.857758C328.399536,432.583435,328.370331,432.109467,328.644653,431.799103z"
     id="path34710" />
  <path
     transform="matrix(0.999998,0,0,-0.999998,-102.751999,236.259995)"
     style="stroke:#ff0000;stroke-width:0.05mm;fill:none"
     d="M310.855621,451.9245C311.129944,451.614166,311.603912,451.58493,311.914276,451.859283C312.22464,452.133606,312.253845,452.607574,311.979523,452.917938C311.7052,453.228271,311.231201,453.257507,310.920868,452.983154C310.610504,452.708832,310.581299,452.234863,310.855621,451.9245z"
     id="path34712" />
  <path
     transform="matrix(0.999998,0,0,-0.999998,-102.751999,236.259995)"
     style="stroke:#ff0000;stroke-width:0.05mm;fill:none"
     d="M318.767944,440.993652C319.865265,439.752228,321.761139,439.635406,323.002563,440.732697C324.243958,441.830017,324.360809,443.725891,323.263519,444.967316C322.166199,446.20871,320.270325,446.325562,319.0289,445.228241C317.787476,444.130951,317.670654,442.235077,318.767944,440.993652z"
     id="path34714" />
  <path
     transform="matrix(0.999998,0,0,-0.999998,-102.751999,236.259995)"
     style="stroke:#000000;stroke-width:0.05mm;fill:none"
     d="M297.868561,453.263947L306.429443,466.185486"
     id="path34716" />
  <path
     transform="matrix(0.999998,0,0,-0.999998,-102.751999,236.259995)"
     style="stroke:#000000;stroke-width:0.05mm;fill:none"
     d="M342.254211,425.655609C334.076874,442.075653,321.721375,456.053864,306.429535,466.185394"
     id="path34718" />
  <path
     transform="matrix(0.999998,0,0,-0.999998,-102.751999,236.259995)"
     style="stroke:#000000;stroke-width:0.05mm;fill:none"
     d="M328.379517,418.745758L342.254181,425.655609"
     id="path34720" />
  <path
     transform="matrix(0.999998,0,0,-0.999998,-102.751999,236.259995)"
     style="stroke:#000000;stroke-width:0.05mm;fill:none"
     d="M328.379578,418.74588C321.415131,432.730408,310.892273,444.635345,297.868591,453.264099"
     id="path34722" />
  <path
     style="fill:none;stroke:#ff0000;stroke-width:0.0499999mm"
     d="m 288.40578,-173.47453 c 0.37262,-0.18091 0.52801,-0.62964 0.34707,-1.00226 -0.18093,-0.37261 -0.62966,-0.52801 -1.00225,-0.34707 -0.37262,0.18094 -0.52802,0.62967 -0.34708,1.00229 0.18094,0.37258 0.62967,0.52798 1.00226,0.34704 z"
     id="path34724" />
  <path
     style="fill:none;stroke:#ff0000;stroke-width:0.0499999mm"
     d="m 276.67307,-197.63693 c 0.37262,-0.18093 0.52799,-0.62966 0.34705,-1.00228 -0.18091,-0.37259 -0.62964,-0.52799 -1.00226,-0.34705 -0.37262,0.18094 -0.52798,0.62967 -0.34707,1.00226 0.18094,0.37262 0.62967,0.52801 1.00228,0.34707 z"
     id="path34726" />
  <path
     style="fill:none;stroke:#ff0000;stroke-width:0.0499999mm"
     d="m 261.62855,-213.95296 c 1.49044,-0.72373 2.11196,-2.51865 1.38824,-4.00906 -0.72372,-1.49044 -2.51861,-2.112 -4.00906,-1.38827 -1.49044,0.72372 -2.11196,2.51864 -1.38824,4.00908 0.72373,1.49042 2.51864,2.11197 4.00906,1.38825 z"
     id="path34728" />
  <path
     style="fill:none;stroke:#ff0000;stroke-width:0.0499999mm"
     d="m 293.88996,-147.51374 c 1.49041,-0.72372 2.11196,-2.51867 1.38824,-4.00908 -0.72372,-1.49042 -2.51864,-2.112 -4.00909,-1.38827 -1.49044,0.72372 -2.11196,2.51867 -1.38824,4.00908 0.72369,1.49045 2.51864,2.112 4.00909,1.38827 z"
     id="path34730" />
  <path
     style="fill:none;stroke:#000000;stroke-width:0.0499999mm"
     d="m 246.14628,-218.18645 8.68986,-12.83484"
     id="path34732" />
  <path
     style="fill:none;stroke:#000000;stroke-width:0.0499999mm"
     d="m 300.48199,-137.01791 c 2.66918,-37.23863 -14.73096,-73.07254 -45.64597,-94.00344"
     id="path34734" />
  <path
     style="fill:none;stroke:#000000;stroke-width:0.0499999mm"
     d="m 285.02169,-138.12633 15.46011,1.10787"
     id="path34736" />
  <path
     style="fill:none;stroke:#000000;stroke-width:0.0499999mm"
     d="m 285.02166,-138.12603 c 2.27331,-31.71521 -12.54597,-62.23407 -38.8755,-80.06039"
     id="path34738" />
  <path
     style="fill:none;stroke:#ff0000;stroke-width:0.0499999mm"
     d="m 284.36703,-183.94195 c 1.49044,-0.72372 2.11199,-2.51864 1.38827,-4.00908 -0.72372,-1.49042 -2.51864,-2.11197 -4.00908,-1.38824 -1.49042,0.72372 -2.11197,2.51864 -1.38825,4.00908 0.72373,1.49042 2.51864,2.11197 4.00906,1.38824 z"
     id="path34740" />
  <path
     style="fill:none;stroke:#ff0000;stroke-width:0.0499999mm"
     d="m 272.78884,-69.25611 c 0.37658,0.172516 0.82171,0.0071 0.99423,-0.369476 0.17254,-0.376586 0.007,-0.821715 -0.36948,-0.99423 -0.37659,-0.172516 -0.82171,-0.0071 -0.99423,0.369476 -0.17252,0.376586 -0.007,0.821714 0.36948,0.99423 z"
     id="path34742" />
  <path
     style="fill:none;stroke:#ff0000;stroke-width:0.0499999mm"
     d="m 283.97607,-93.675861 c 0.37659,0.172515 0.82171,0.0071 0.99423,-0.369476 0.17255,-0.376586 0.007,-0.821715 -0.36948,-0.994231 -0.37658,-0.172514 -0.82171,-0.0071 -0.99423,0.369477 -0.17251,0.376586 -0.007,0.821714 0.36948,0.99423 z"
     id="path34744" />
  <path
     style="fill:none;stroke:#ff0000;stroke-width:0.0499999mm"
     d="m 287.00173,-115.66215 c 1.50631,0.6901 3.2868,0.0284 3.97689,-1.4779 0.69006,-1.50631 0.0284,-3.28683 -1.47793,-3.97689 -1.50632,-0.69006 -3.2868,-0.0284 -3.9769,1.47793 -0.69006,1.50629 -0.0284,3.2868 1.47794,3.97686 z"
     id="path34746" />
  <path
     style="fill:none;stroke:#ff0000;stroke-width:0.0499999mm"
     d="m 256.24025,-48.515277 c 1.50629,0.690063 3.28683,0.02838 3.97689,-1.477933 0.69007,-1.506283 0.0284,-3.286827 -1.47793,-3.97689 -1.50628,-0.690092 -3.28683,-0.02838 -3.97689,1.477902 -0.69006,1.506314 -0.0284,3.28686 1.47793,3.976921 z"
     id="path34748" />
  <path
     style="fill:none;stroke:#000000;stroke-width:0.0499999mm"
     d="m 280.42398,-130.30305 15.43146,-1.45495"
     id="path34750" />
  <path
     style="fill:none;stroke:#000000;stroke-width:0.0499999mm"
     d="m 252.33163,-36.753459 c 30.43726,-21.6198 47.02841,-57.835364 43.52378,-95.004691"
     id="path34752" />
  <path
     style="fill:none;stroke:#000000;stroke-width:0.0499999mm"
     d="m 243.35597,-49.390214 8.976,12.636267"
     id="path34754" />
  <path
     style="fill:none;stroke:#000000;stroke-width:0.0499999mm"
     d="m 243.35576,-49.390031 c 25.92262,-18.412988 40.05293,-49.25692 37.0681,-80.913079"
     id="path34756" />
  <path
     style="fill:none;stroke:#ff0000;stroke-width:0.0499999mm"
     d="m 278.29917,-79.029285 c 1.50628,0.690063 3.2868,0.02838 3.97686,-1.477932 0.69009,-1.506314 0.0284,-3.286798 -1.4779,-3.976891 -1.50632,-0.690061 -3.2868,-0.02838 -3.97689,1.477933 -0.69007,1.506314 -0.0284,3.286798 1.47793,3.97689 z"
     id="path34758" />
  <text
     xml:space="preserve"
     style="font-size:8.95005px;font-family:'Courier New';-inkscape-font-specification:'Courier New';fill:none;stroke:#000000;stroke-width:0.28189;stroke-linecap:round;stroke-linejoin:round"
     x="319.41849"
     y="-169.24187"
     id="text34885"><tspan
       id="tspan34883"
       style="stroke-width:0.28189"
       x="319.41849"
       y="-169.24187">4.5 mm</tspan></text>
</svg>
