<?xml version="1.0" encoding="UTF-8" standalone="no"?>
<svg
   width="951.717mm"
   height="517.927mm"
   viewBox="-549.000000 -345.751221 951.717224 517.926758"
   version="1.1"
   id="svg20971"
   sodipodi:docname="middle_ring.svg"
   inkscape:version="1.2.1 (9c6d41e, 2022-07-14)"
   xmlns:inkscape="http://www.inkscape.org/namespaces/inkscape"
   xmlns:sodipodi="http://sodipodi.sourceforge.net/DTD/sodipodi-0.dtd"
   xmlns="http://www.w3.org/2000/svg"
   xmlns:svg="http://www.w3.org/2000/svg">
  <defs
     id="defs20975" />
  <sodipodi:namedview
     id="namedview20973"
     pagecolor="#ffffff"
     bordercolor="#000000"
     borderopacity="0.25"
     inkscape:showpageshadow="2"
     inkscape:pageopacity="0.0"
     inkscape:pagecheckerboard="0"
     inkscape:deskcolor="#d1d1d1"
     inkscape:document-units="mm"
     showgrid="false"
     inkscape:zoom="0.48594614"
     inkscape:cx="959.98294"
     inkscape:cy="1056.7015"
     inkscape:window-width="2560"
     inkscape:window-height="1387"
     inkscape:window-x="0"
     inkscape:window-y="215"
     inkscape:window-maximized="1"
     inkscape:current-layer="svg20971" />
  <path
     style="fill:none;stroke:#000000;stroke-width:0.0499998mm"
     d="m -513.62683,-188.14289 v -8.99996 h 11.49996 v 1.79999 h 2.49999 v -1.79999 h 8.99996 v 1.79999 h 2.49999 v -1.79999 h 11.49995 v 8.99996 h -11.49995 v -1.79999 h -2.49999 v 1.79999 h -8.99996 v -1.79999 h -2.49999 v 1.79999 z"
     id="path20409" />
  <circle
     transform="matrix(0,-1,-1,0,0,0)"
     style="fill:none;stroke:#ff0000;stroke-width:0.0499998mm"
     r="0.99999601"
     cx="192.64252"
     cy="506.12616"
     id="circle20411" />
  <circle
     transform="matrix(0,-1,-1,0,0,0)"
     style="fill:none;stroke:#ff0000;stroke-width:0.0499998mm"
     r="0.99999601"
     cx="192.64252"
     cy="483.12625"
     id="circle20413" />
  <path
     style="fill:none;stroke:#ff0000;stroke-width:0.0499998mm"
     d="m -490.62692,-191.74288 v -1.79999 h 2.49999 v 1.79999 z"
     id="path20415" />
  <path
     style="fill:none;stroke:#ff0000;stroke-width:0.0499998mm"
     d="m -499.62688,-191.74288 v -1.79999 h -2.49999 v 1.79999 z"
     id="path20417" />
  <path
     style="fill:none;stroke:#000000;stroke-width:0.0499998mm"
     d="m -513.62683,-178.14289 v -8.99996 h 11.49996 v 1.79999 h 2.49999 v -1.79999 h 8.99996 v 1.79999 h 2.49999 v -1.79999 h 11.49995 v 8.99996 h -11.49995 v -1.79999 h -2.49999 v 1.79999 h -8.99996 v -1.79999 h -2.49999 v 1.79999 z"
     id="path20419" />
  <circle
     transform="matrix(0,-1,-1,0,0,0)"
     style="fill:none;stroke:#ff0000;stroke-width:0.0499998mm"
     r="0.99999601"
     cx="182.64252"
     cy="506.12616"
     id="circle20421" />
  <circle
     transform="matrix(0,-1,-1,0,0,0)"
     style="fill:none;stroke:#ff0000;stroke-width:0.0499998mm"
     r="0.99999601"
     cx="182.64252"
     cy="483.12625"
     id="circle20423" />
  <path
     style="fill:none;stroke:#ff0000;stroke-width:0.0499998mm"
     d="m -490.62692,-181.74288 v -1.79999 h 2.49999 v 1.79999 z"
     id="path20425" />
  <path
     style="fill:none;stroke:#ff0000;stroke-width:0.0499998mm"
     d="m -499.62688,-181.74288 v -1.79999 h -2.49999 v 1.79999 z"
     id="path20427" />
  <path
     style="fill:none;stroke:#000000;stroke-width:0.0499998mm"
     d="m -513.62683,-168.14293 v -8.99996 h 11.49996 v 1.79999 h 2.49999 v -1.79999 h 8.99996 v 1.79999 h 2.49999 v -1.79999 h 11.49995 v 8.99996 h -11.49995 v -1.79999 h -2.49999 v 1.79999 h -8.99996 v -1.79999 h -2.49999 v 1.79999 z"
     id="path20429" />
  <circle
     transform="matrix(0,-1,-1,0,0,0)"
     style="fill:none;stroke:#ff0000;stroke-width:0.0499998mm"
     r="0.99999601"
     cx="172.64255"
     cy="506.12616"
     id="circle20431" />
  <circle
     transform="matrix(0,-1,-1,0,0,0)"
     style="fill:none;stroke:#ff0000;stroke-width:0.0499998mm"
     r="0.99999601"
     cx="172.64256"
     cy="483.12625"
     id="circle20433" />
  <path
     style="fill:none;stroke:#ff0000;stroke-width:0.0499998mm"
     d="m -490.62692,-171.74291 v -1.8 h 2.49999 v 1.8 z"
     id="path20435" />
  <path
     style="fill:none;stroke:#ff0000;stroke-width:0.0499998mm"
     d="m -499.62688,-171.74291 v -1.8 h -2.49999 v 1.8 z"
     id="path20437" />
  <path
     style="fill:none;stroke:#000000;stroke-width:0.0499998mm"
     d="m -513.62683,-158.14299 v -8.99996 h 11.49996 v 1.79999 h 2.49999 v -1.79999 h 8.99996 v 1.79999 h 2.49999 v -1.79999 h 11.49995 v 8.99996 h -11.49995 v -1.79999 h -2.49999 v 1.79999 h -8.99996 v -1.79999 h -2.49999 v 1.79999 z"
     id="path20439" />
  <circle
     transform="matrix(0,-1,-1,0,0,0)"
     style="fill:none;stroke:#ff0000;stroke-width:0.0499998mm"
     r="0.99999601"
     cx="162.64261"
     cy="506.12616"
     id="circle20441" />
  <circle
     transform="matrix(0,-1,-1,0,0,0)"
     style="fill:none;stroke:#ff0000;stroke-width:0.0499998mm"
     r="0.99999601"
     cx="162.64261"
     cy="483.12625"
     id="circle20443" />
  <path
     style="fill:none;stroke:#ff0000;stroke-width:0.0499998mm"
     d="m -490.62692,-161.74297 v -1.79999 h 2.49999 v 1.79999 z"
     id="path20445" />
  <path
     style="fill:none;stroke:#ff0000;stroke-width:0.0499998mm"
     d="m -499.62688,-161.74297 v -1.79999 h -2.49999 v 1.79999 z"
     id="path20447" />
  <path
     style="fill:none;stroke:#000000;stroke-width:0.0499998mm"
     d="m -475.62703,-188.14289 v -8.99996 h 11.49995 v 1.79999 h 2.49999 v -1.79999 h 8.99996 v 1.79999 h 2.49999 v -1.79999 h 11.49996 v 8.99996 h -11.49996 v -1.79999 h -2.49999 v 1.79999 h -8.99996 v -1.79999 h -2.49999 v 1.79999 z"
     id="path20449" />
  <circle
     transform="matrix(0,-1,-1,0,0,0)"
     style="fill:none;stroke:#ff0000;stroke-width:0.0499998mm"
     r="0.99999601"
     cx="192.64252"
     cy="468.12637"
     id="circle20451" />
  <circle
     transform="matrix(0,-1,-1,0,0,0)"
     style="fill:none;stroke:#ff0000;stroke-width:0.0499998mm"
     r="0.99999601"
     cx="192.64252"
     cy="445.12646"
     id="circle20453" />
  <path
     style="fill:none;stroke:#ff0000;stroke-width:0.0499998mm"
     d="m -452.62713,-191.74288 v -1.79999 h 2.49999 v 1.79999 z"
     id="path20455" />
  <path
     style="fill:none;stroke:#ff0000;stroke-width:0.0499998mm"
     d="m -461.62709,-191.74288 v -1.79999 h -2.49999 v 1.79999 z"
     id="path20457" />
  <path
     style="fill:none;stroke:#000000;stroke-width:0.0499998mm"
     d="m -475.62703,-178.1429 v -8.99996 h 11.49995 v 1.79999 h 2.49999 v -1.79999 h 8.99996 v 1.79999 h 2.49999 v -1.79999 h 11.49996 v 8.99996 h -11.49996 v -1.79999 h -2.49999 v 1.79999 h -8.99996 v -1.79999 h -2.49999 v 1.79999 z"
     id="path20459" />
  <circle
     transform="matrix(0,-1,-1,0,0,0)"
     style="fill:none;stroke:#ff0000;stroke-width:0.0499998mm"
     r="0.99999601"
     cx="182.64252"
     cy="468.12637"
     id="circle20461" />
  <circle
     transform="matrix(0,-1,-1,0,0,0)"
     style="fill:none;stroke:#ff0000;stroke-width:0.0499998mm"
     r="0.99999601"
     cx="182.64253"
     cy="445.12646"
     id="circle20463" />
  <path
     style="fill:none;stroke:#ff0000;stroke-width:0.0499998mm"
     d="m -452.62713,-181.74288 v -1.8 h 2.49999 v 1.8 z"
     id="path20465" />
  <path
     style="fill:none;stroke:#ff0000;stroke-width:0.0499998mm"
     d="m -461.62709,-181.74288 v -1.8 h -2.49999 v 1.8 z"
     id="path20467" />
  <path
     style="fill:none;stroke:#000000;stroke-width:0.0499998mm"
     d="m -475.62703,-168.14294 v -8.99996 h 11.49995 v 1.79999 h 2.49999 v -1.79999 h 8.99996 v 1.79999 h 2.49999 v -1.79999 h 11.49996 v 8.99996 h -11.49996 v -1.79999 h -2.49999 v 1.79999 h -8.99996 v -1.79999 h -2.49999 v 1.79999 z"
     id="path20469" />
  <circle
     transform="matrix(0,-1,-1,0,0,0)"
     style="fill:none;stroke:#ff0000;stroke-width:0.0499998mm"
     r="0.99999601"
     cx="172.64256"
     cy="468.12637"
     id="circle20471" />
  <circle
     transform="matrix(0,-1,-1,0,0,0)"
     style="fill:none;stroke:#ff0000;stroke-width:0.0499998mm"
     r="0.99999601"
     cx="172.64256"
     cy="445.12646"
     id="circle20473" />
  <path
     style="fill:none;stroke:#ff0000;stroke-width:0.0499998mm"
     d="m -452.62713,-171.74292 v -1.79999 h 2.49999 v 1.79999 z"
     id="path20475" />
  <path
     style="fill:none;stroke:#ff0000;stroke-width:0.0499998mm"
     d="m -461.62709,-171.74292 v -1.79999 h -2.49999 v 1.79999 z"
     id="path20477" />
  <path
     style="fill:none;stroke:#000000;stroke-width:0.0499998mm"
     d="m -475.62703,-158.14299 v -8.99996 h 11.49995 v 1.79999 h 2.49999 v -1.79999 h 8.99996 v 1.79999 h 2.49999 v -1.79999 h 11.49996 v 8.99996 h -11.49996 v -1.79999 h -2.49999 v 1.79999 h -8.99996 v -1.79999 h -2.49999 v 1.79999 z"
     id="path20479" />
  <circle
     transform="matrix(0,-1,-1,0,0,0)"
     style="fill:none;stroke:#ff0000;stroke-width:0.0499998mm"
     r="0.99999601"
     cx="162.64261"
     cy="468.12637"
     id="circle20481" />
  <circle
     transform="matrix(0,-1,-1,0,0,0)"
     style="fill:none;stroke:#ff0000;stroke-width:0.0499998mm"
     r="0.99999601"
     cx="162.64261"
     cy="445.12646"
     id="circle20483" />
  <path
     style="fill:none;stroke:#ff0000;stroke-width:0.0499998mm"
     d="m -452.62713,-161.74297 v -1.79999 h 2.49999 v 1.79999 z"
     id="path20485" />
  <path
     style="fill:none;stroke:#ff0000;stroke-width:0.0499998mm"
     d="m -461.62709,-161.74297 v -1.79999 h -2.49999 v 1.79999 z"
     id="path20487" />
  <circle
     transform="matrix(1,0,0,-1,-546.307007,37.377991)"
     style="stroke:#ff0000;stroke-width:0.05mm;fill:none"
     r="0.75"
     cx="0"
     cy="0"
     id="circle20489" />
  <circle
     transform="matrix(1,0,0,-1,-519.083008,64.365982)"
     style="stroke:#ff0000;stroke-width:0.05mm;fill:none"
     r="0.75"
     cx="0"
     cy="0"
     id="circle20491" />
  <circle
     transform="matrix(1,0,0,-1,-541.100952,49.791992)"
     style="stroke:#ff0000;stroke-width:0.05mm;fill:none"
     r="0.75"
     cx="0"
     cy="0"
     id="circle20493" />
  <circle
     transform="matrix(1,0,0,-1,-493.457977,1.730988)"
     style="stroke:#ff0000;stroke-width:0.05mm;fill:none"
     r="0.75"
     cx="0"
     cy="0"
     id="circle20495" />
  <circle
     transform="matrix(1,0,0,-1,-505.621979,64.306992)"
     style="stroke:#ff0000;stroke-width:0.05mm;fill:none"
     r="0.75"
     cx="0"
     cy="0"
     id="circle20497" />
  <circle
     transform="matrix(1,0,0,-1,-483.89798,11.207977)"
     style="stroke:#ff0000;stroke-width:0.05mm;fill:none"
     r="0.75"
     cx="0"
     cy="0"
     id="circle20499" />
  <circle
     transform="matrix(1,0,0,-1,-505.916992,-3.366028)"
     style="stroke:#ff0000;stroke-width:0.05mm;fill:none"
     r="0.75"
     cx="0"
     cy="0"
     id="circle20501" />
  <circle
     transform="matrix(1,0,0,-1,-541.268982,11.457977)"
     style="stroke:#ff0000;stroke-width:0.05mm;fill:none"
     r="0.75"
     cx="0"
     cy="0"
     id="circle20503" />
  <circle
     transform="matrix(1,0,0,-1,-483.730988,49.541992)"
     style="stroke:#ff0000;stroke-width:0.05mm;fill:none"
     r="0.75"
     cx="0"
     cy="0"
     id="circle20505" />
  <circle
     transform="matrix(1,0,0,-1,-478.633972,37.082977)"
     style="stroke:#ff0000;stroke-width:0.05mm;fill:none"
     r="0.75"
     cx="0"
     cy="0"
     id="circle20507" />
  <circle
     transform="matrix(1,0,0,-1,-512.5,30.5)"
     style="stroke:#000000;stroke-width:0.05mm;fill:none"
     r="32"
     cx="0"
     cy="0"
     id="circle20509" />
  <circle
     transform="matrix(1,0,0,-1,-519.377991,-3.308014)"
     style="stroke:#ff0000;stroke-width:0.05mm;fill:none"
     r="0.75"
     cx="0"
     cy="0"
     id="circle20511" />
  <circle
     transform="matrix(1,0,0,-1,-512.5,30.5)"
     style="stroke:#000000;stroke-width:0.05mm;fill:none"
     r="36.5"
     cx="0"
     cy="0"
     id="circle20513" />
  <circle
     transform="matrix(1,0,0,-1,-531.541992,59.268982)"
     style="stroke:#ff0000;stroke-width:0.05mm;fill:none"
     r="0.75"
     cx="0"
     cy="0"
     id="circle20515" />
  <circle
     transform="matrix(1,0,0,-1,-493.207977,59.10199)"
     style="stroke:#ff0000;stroke-width:0.05mm;fill:none"
     r="0.75"
     cx="0"
     cy="0"
     id="circle20517" />
  <circle
     transform="matrix(1,0,0,-1,-478.691986,23.621979)"
     style="stroke:#ff0000;stroke-width:0.05mm;fill:none"
     r="0.75"
     cx="0"
     cy="0"
     id="circle20519" />
  <circle
     transform="matrix(1,0,0,-1,-531.791992,1.89798)"
     style="stroke:#ff0000;stroke-width:0.05mm;fill:none"
     r="0.75"
     cx="0"
     cy="0"
     id="circle20521" />
  <circle
     transform="matrix(1,0,0,-1,-546.365967,23.916992)"
     style="stroke:#ff0000;stroke-width:0.05mm;fill:none"
     r="0.75"
     cx="0"
     cy="0"
     id="circle20523" />
  <circle
     transform="matrix(1,0,0,-1,-546.307007,-37.621994)"
     style="stroke:#ff0000;stroke-width:0.05mm;fill:none"
     r="0.75"
     cx="0"
     cy="0"
     id="circle20525" />
  <circle
     transform="matrix(1,0,0,-1,-519.083008,-10.634003)"
     style="stroke:#ff0000;stroke-width:0.05mm;fill:none"
     r="0.75"
     cx="0"
     cy="0"
     id="circle20527" />
  <circle
     transform="matrix(1,0,0,-1,-541.100952,-25.207993)"
     style="stroke:#ff0000;stroke-width:0.05mm;fill:none"
     r="0.75"
     cx="0"
     cy="0"
     id="circle20529" />
  <circle
     transform="matrix(1,0,0,-1,-493.457977,-73.268997)"
     style="stroke:#ff0000;stroke-width:0.05mm;fill:none"
     r="0.75"
     cx="0"
     cy="0"
     id="circle20531" />
  <circle
     transform="matrix(1,0,0,-1,-505.621979,-10.692993)"
     style="stroke:#ff0000;stroke-width:0.05mm;fill:none"
     r="0.75"
     cx="0"
     cy="0"
     id="circle20533" />
  <circle
     transform="matrix(1,0,0,-1,-483.89798,-63.792007)"
     style="stroke:#ff0000;stroke-width:0.05mm;fill:none"
     r="0.75"
     cx="0"
     cy="0"
     id="circle20535" />
  <circle
     transform="matrix(1,0,0,-1,-505.916992,-78.366013)"
     style="stroke:#ff0000;stroke-width:0.05mm;fill:none"
     r="0.75"
     cx="0"
     cy="0"
     id="circle20537" />
  <circle
     transform="matrix(1,0,0,-1,-541.268982,-63.542007)"
     style="stroke:#ff0000;stroke-width:0.05mm;fill:none"
     r="0.75"
     cx="0"
     cy="0"
     id="circle20539" />
  <circle
     transform="matrix(1,0,0,-1,-483.730988,-25.457993)"
     style="stroke:#ff0000;stroke-width:0.05mm;fill:none"
     r="0.75"
     cx="0"
     cy="0"
     id="circle20541" />
  <circle
     transform="matrix(1,0,0,-1,-478.633972,-37.917007)"
     style="stroke:#ff0000;stroke-width:0.05mm;fill:none"
     r="0.75"
     cx="0"
     cy="0"
     id="circle20543" />
  <circle
     transform="matrix(1,0,0,-1,-512.5,-44.499985)"
     style="stroke:#000000;stroke-width:0.05mm;fill:none"
     r="32"
     cx="0"
     cy="0"
     id="circle20545" />
  <circle
     transform="matrix(1,0,0,-1,-519.377991,-78.307999)"
     style="stroke:#ff0000;stroke-width:0.05mm;fill:none"
     r="0.75"
     cx="0"
     cy="0"
     id="circle20547" />
  <circle
     transform="matrix(1,0,0,-1,-512.5,-44.499985)"
     style="stroke:#000000;stroke-width:0.05mm;fill:none"
     r="36.5"
     cx="0"
     cy="0"
     id="circle20549" />
  <circle
     transform="matrix(1,0,0,-1,-531.541992,-15.731003)"
     style="stroke:#ff0000;stroke-width:0.05mm;fill:none"
     r="0.75"
     cx="0"
     cy="0"
     id="circle20551" />
  <circle
     transform="matrix(1,0,0,-1,-493.207977,-15.897995)"
     style="stroke:#ff0000;stroke-width:0.05mm;fill:none"
     r="0.75"
     cx="0"
     cy="0"
     id="circle20553" />
  <circle
     transform="matrix(1,0,0,-1,-478.691986,-51.378006)"
     style="stroke:#ff0000;stroke-width:0.05mm;fill:none"
     r="0.75"
     cx="0"
     cy="0"
     id="circle20555" />
  <circle
     transform="matrix(1,0,0,-1,-531.791992,-73.102005)"
     style="stroke:#ff0000;stroke-width:0.05mm;fill:none"
     r="0.75"
     cx="0"
     cy="0"
     id="circle20557" />
  <circle
     transform="matrix(1,0,0,-1,-546.365967,-51.082993)"
     style="stroke:#ff0000;stroke-width:0.05mm;fill:none"
     r="0.75"
     cx="0"
     cy="0"
     id="circle20559" />
  <circle
     transform="matrix(1,0,0,-1,-471.306976,-37.621994)"
     style="stroke:#ff0000;stroke-width:0.05mm;fill:none"
     r="0.75"
     cx="0"
     cy="0"
     id="circle20561" />
  <circle
     transform="matrix(1,0,0,-1,-444.082977,-10.634003)"
     style="stroke:#ff0000;stroke-width:0.05mm;fill:none"
     r="0.75"
     cx="0"
     cy="0"
     id="circle20563" />
  <circle
     transform="matrix(1,0,0,-1,-466.100983,-25.207993)"
     style="stroke:#ff0000;stroke-width:0.05mm;fill:none"
     r="0.75"
     cx="0"
     cy="0"
     id="circle20565" />
  <circle
     transform="matrix(1,0,0,-1,-418.457977,-73.268997)"
     style="stroke:#ff0000;stroke-width:0.05mm;fill:none"
     r="0.75"
     cx="0"
     cy="0"
     id="circle20567" />
  <circle
     transform="matrix(1,0,0,-1,-430.621979,-10.692993)"
     style="stroke:#ff0000;stroke-width:0.05mm;fill:none"
     r="0.75"
     cx="0"
     cy="0"
     id="circle20569" />
  <circle
     transform="matrix(1,0,0,-1,-408.89798,-63.792007)"
     style="stroke:#ff0000;stroke-width:0.05mm;fill:none"
     r="0.75"
     cx="0"
     cy="0"
     id="circle20571" />
  <circle
     transform="matrix(1,0,0,-1,-430.916992,-78.366013)"
     style="stroke:#ff0000;stroke-width:0.05mm;fill:none"
     r="0.75"
     cx="0"
     cy="0"
     id="circle20573" />
  <circle
     transform="matrix(1,0,0,-1,-466.268982,-63.542007)"
     style="stroke:#ff0000;stroke-width:0.05mm;fill:none"
     r="0.75"
     cx="0"
     cy="0"
     id="circle20575" />
  <circle
     transform="matrix(1,0,0,-1,-408.730988,-25.457993)"
     style="stroke:#ff0000;stroke-width:0.05mm;fill:none"
     r="0.75"
     cx="0"
     cy="0"
     id="circle20577" />
  <circle
     transform="matrix(1,0,0,-1,-403.633972,-37.917007)"
     style="stroke:#ff0000;stroke-width:0.05mm;fill:none"
     r="0.75"
     cx="0"
     cy="0"
     id="circle20579" />
  <circle
     transform="matrix(1,0,0,-1,-437.499969,-44.499985)"
     style="stroke:#000000;stroke-width:0.05mm;fill:none"
     r="32"
     cx="0"
     cy="0"
     id="circle20581" />
  <circle
     transform="matrix(1,0,0,-1,-444.377991,-78.307999)"
     style="stroke:#ff0000;stroke-width:0.05mm;fill:none"
     r="0.75"
     cx="0"
     cy="0"
     id="circle20583" />
  <circle
     transform="matrix(1,0,0,-1,-437.499969,-44.499985)"
     style="stroke:#000000;stroke-width:0.05mm;fill:none"
     r="36.5"
     cx="0"
     cy="0"
     id="circle20585" />
  <circle
     transform="matrix(1,0,0,-1,-456.541992,-15.731003)"
     style="stroke:#ff0000;stroke-width:0.05mm;fill:none"
     r="0.75"
     cx="0"
     cy="0"
     id="circle20587" />
  <circle
     transform="matrix(1,0,0,-1,-418.207977,-15.897995)"
     style="stroke:#ff0000;stroke-width:0.05mm;fill:none"
     r="0.75"
     cx="0"
     cy="0"
     id="circle20589" />
  <circle
     transform="matrix(1,0,0,-1,-403.691986,-51.378006)"
     style="stroke:#ff0000;stroke-width:0.05mm;fill:none"
     r="0.75"
     cx="0"
     cy="0"
     id="circle20591" />
  <circle
     transform="matrix(1,0,0,-1,-456.791992,-73.102005)"
     style="stroke:#ff0000;stroke-width:0.05mm;fill:none"
     r="0.75"
     cx="0"
     cy="0"
     id="circle20593" />
  <circle
     transform="matrix(1,0,0,-1,-471.365967,-51.082993)"
     style="stroke:#ff0000;stroke-width:0.05mm;fill:none"
     r="0.75"
     cx="0"
     cy="0"
     id="circle20595" />
  <circle
     transform="matrix(1,0,0,-1,-471.306976,37.377991)"
     style="stroke:#ff0000;stroke-width:0.05mm;fill:none"
     r="0.75"
     cx="0"
     cy="0"
     id="circle20597" />
  <circle
     transform="matrix(1,0,0,-1,-444.082977,64.365982)"
     style="stroke:#ff0000;stroke-width:0.05mm;fill:none"
     r="0.75"
     cx="0"
     cy="0"
     id="circle20599" />
  <circle
     transform="matrix(1,0,0,-1,-466.100983,49.791992)"
     style="stroke:#ff0000;stroke-width:0.05mm;fill:none"
     r="0.75"
     cx="0"
     cy="0"
     id="circle20601" />
  <circle
     transform="matrix(1,0,0,-1,-418.457977,1.730988)"
     style="stroke:#ff0000;stroke-width:0.05mm;fill:none"
     r="0.75"
     cx="0"
     cy="0"
     id="circle20603" />
  <circle
     transform="matrix(1,0,0,-1,-430.621979,64.306992)"
     style="stroke:#ff0000;stroke-width:0.05mm;fill:none"
     r="0.75"
     cx="0"
     cy="0"
     id="circle20605" />
  <circle
     transform="matrix(1,0,0,-1,-408.89798,11.207977)"
     style="stroke:#ff0000;stroke-width:0.05mm;fill:none"
     r="0.75"
     cx="0"
     cy="0"
     id="circle20607" />
  <circle
     transform="matrix(1,0,0,-1,-430.916992,-3.366028)"
     style="stroke:#ff0000;stroke-width:0.05mm;fill:none"
     r="0.75"
     cx="0"
     cy="0"
     id="circle20609" />
  <circle
     transform="matrix(1,0,0,-1,-466.268982,11.457977)"
     style="stroke:#ff0000;stroke-width:0.05mm;fill:none"
     r="0.75"
     cx="0"
     cy="0"
     id="circle20611" />
  <circle
     transform="matrix(1,0,0,-1,-408.730988,49.541992)"
     style="stroke:#ff0000;stroke-width:0.05mm;fill:none"
     r="0.75"
     cx="0"
     cy="0"
     id="circle20613" />
  <circle
     transform="matrix(1,0,0,-1,-403.633972,37.082977)"
     style="stroke:#ff0000;stroke-width:0.05mm;fill:none"
     r="0.75"
     cx="0"
     cy="0"
     id="circle20615" />
  <circle
     transform="matrix(1,0,0,-1,-437.499969,30.5)"
     style="stroke:#000000;stroke-width:0.05mm;fill:none"
     r="32"
     cx="0"
     cy="0"
     id="circle20617" />
  <circle
     transform="matrix(1,0,0,-1,-444.377991,-3.308014)"
     style="stroke:#ff0000;stroke-width:0.05mm;fill:none"
     r="0.75"
     cx="0"
     cy="0"
     id="circle20619" />
  <circle
     transform="matrix(1,0,0,-1,-437.499969,30.5)"
     style="stroke:#000000;stroke-width:0.05mm;fill:none"
     r="36.5"
     cx="0"
     cy="0"
     id="circle20621" />
  <circle
     transform="matrix(1,0,0,-1,-456.541992,59.268982)"
     style="stroke:#ff0000;stroke-width:0.05mm;fill:none"
     r="0.75"
     cx="0"
     cy="0"
     id="circle20623" />
  <circle
     transform="matrix(1,0,0,-1,-418.207977,59.10199)"
     style="stroke:#ff0000;stroke-width:0.05mm;fill:none"
     r="0.75"
     cx="0"
     cy="0"
     id="circle20625" />
  <circle
     transform="matrix(1,0,0,-1,-403.691986,23.621979)"
     style="stroke:#ff0000;stroke-width:0.05mm;fill:none"
     r="0.75"
     cx="0"
     cy="0"
     id="circle20627" />
  <circle
     transform="matrix(1,0,0,-1,-456.791992,1.89798)"
     style="stroke:#ff0000;stroke-width:0.05mm;fill:none"
     r="0.75"
     cx="0"
     cy="0"
     id="circle20629" />
  <circle
     transform="matrix(1,0,0,-1,-471.365967,23.916992)"
     style="stroke:#ff0000;stroke-width:0.05mm;fill:none"
     r="0.75"
     cx="0"
     cy="0"
     id="circle20631" />
  <circle
     transform="matrix(0,-1,-1,0,0,0)"
     style="fill:none;stroke:#000000;stroke-width:0.0499998mm"
     r="6.9999719"
     cx="212.24271"
     cy="498.11716"
     id="circle20633" />
  <circle
     transform="matrix(0,-1,-1,0,0,0)"
     style="fill:none;stroke:#ff0000;stroke-width:0.0499998mm"
     r="3.999984"
     cx="212.24271"
     cy="498.11716"
     id="circle20635" />
  <circle
     transform="matrix(0,-1,-1,0,0,0)"
     style="fill:none;stroke:#000000;stroke-width:0.0499998mm"
     r="6.9999719"
     cx="227.24265"
     cy="498.11716"
     id="circle20637" />
  <circle
     transform="matrix(0,-1,-1,0,0,0)"
     style="fill:none;stroke:#ff0000;stroke-width:0.0499998mm"
     r="3.999984"
     cx="227.24265"
     cy="498.11716"
     id="circle20639" />
  <circle
     transform="matrix(0,-1,-1,0,0,0)"
     style="fill:none;stroke:#000000;stroke-width:0.0499998mm"
     r="6.9999719"
     cx="242.24263"
     cy="498.11716"
     id="circle20641" />
  <circle
     transform="matrix(0,-1,-1,0,0,0)"
     style="fill:none;stroke:#ff0000;stroke-width:0.0499998mm"
     r="3.999984"
     cx="242.24263"
     cy="498.11716"
     id="circle20643" />
  <circle
     transform="matrix(0,-1,-1,0,0,0)"
     style="fill:none;stroke:#000000;stroke-width:0.0499998mm"
     r="6.9999719"
     cx="257.24252"
     cy="498.11716"
     id="circle20645" />
  <circle
     transform="matrix(0,-1,-1,0,0,0)"
     style="fill:none;stroke:#ff0000;stroke-width:0.0499998mm"
     r="3.999984"
     cx="257.24252"
     cy="498.11716"
     id="circle20647" />
  <circle
     transform="matrix(0,-1,-1,0,0,0)"
     style="fill:none;stroke:#000000;stroke-width:0.0499998mm"
     r="6.9999719"
     cx="212.24271"
     cy="483.11722"
     id="circle20649" />
  <circle
     transform="matrix(0,-1,-1,0,0,0)"
     style="fill:none;stroke:#ff0000;stroke-width:0.0499998mm"
     r="3.999984"
     cx="212.24271"
     cy="483.11722"
     id="circle20651" />
  <circle
     transform="matrix(0,-1,-1,0,0,0)"
     style="fill:none;stroke:#000000;stroke-width:0.0499998mm"
     r="6.9999719"
     cx="227.24265"
     cy="483.11722"
     id="circle20653" />
  <circle
     transform="matrix(0,-1,-1,0,0,0)"
     style="fill:none;stroke:#ff0000;stroke-width:0.0499998mm"
     r="3.999984"
     cx="227.24265"
     cy="483.11722"
     id="circle20655" />
  <circle
     transform="matrix(0,-1,-1,0,0,0)"
     style="fill:none;stroke:#000000;stroke-width:0.0499998mm"
     r="6.9999719"
     cx="242.24263"
     cy="483.11722"
     id="circle20657" />
  <circle
     transform="matrix(0,-1,-1,0,0,0)"
     style="fill:none;stroke:#ff0000;stroke-width:0.0499998mm"
     r="3.999984"
     cx="242.24263"
     cy="483.11722"
     id="circle20659" />
  <circle
     transform="matrix(0,-1,-1,0,0,0)"
     style="fill:none;stroke:#000000;stroke-width:0.0499998mm"
     r="6.9999719"
     cx="257.24252"
     cy="483.11722"
     id="circle20661" />
  <circle
     transform="matrix(0,-1,-1,0,0,0)"
     style="fill:none;stroke:#ff0000;stroke-width:0.0499998mm"
     r="3.999984"
     cx="257.24252"
     cy="483.11722"
     id="circle20663" />
  <circle
     transform="matrix(0,-1,-1,0,0,0)"
     style="fill:none;stroke:#000000;stroke-width:0.0499998mm"
     r="6.9999719"
     cx="212.24271"
     cy="468.11734"
     id="circle20665" />
  <circle
     transform="matrix(0,-1,-1,0,0,0)"
     style="fill:none;stroke:#ff0000;stroke-width:0.0499998mm"
     r="3.999984"
     cx="212.24271"
     cy="468.11734"
     id="circle20667" />
  <circle
     transform="matrix(0,-1,-1,0,0,0)"
     style="fill:none;stroke:#000000;stroke-width:0.0499998mm"
     r="6.9999719"
     cx="227.24265"
     cy="468.11734"
     id="circle20669" />
  <circle
     transform="matrix(0,-1,-1,0,0,0)"
     style="fill:none;stroke:#ff0000;stroke-width:0.0499998mm"
     r="3.999984"
     cx="227.24265"
     cy="468.11734"
     id="circle20671" />
  <circle
     transform="matrix(0,-1,-1,0,0,0)"
     style="fill:none;stroke:#000000;stroke-width:0.0499998mm"
     r="6.9999719"
     cx="242.24263"
     cy="468.11734"
     id="circle20673" />
  <circle
     transform="matrix(0,-1,-1,0,0,0)"
     style="fill:none;stroke:#ff0000;stroke-width:0.0499998mm"
     r="3.999984"
     cx="242.24263"
     cy="468.11734"
     id="circle20675" />
  <circle
     transform="matrix(0,-1,-1,0,0,0)"
     style="fill:none;stroke:#000000;stroke-width:0.0499998mm"
     r="6.9999719"
     cx="257.24252"
     cy="468.11734"
     id="circle20677" />
  <circle
     transform="matrix(0,-1,-1,0,0,0)"
     style="fill:none;stroke:#ff0000;stroke-width:0.0499998mm"
     r="3.999984"
     cx="257.24252"
     cy="468.11734"
     id="circle20679" />
  <circle
     transform="matrix(0,-1,-1,0,0,0)"
     style="fill:none;stroke:#000000;stroke-width:0.0499998mm"
     r="6.9999719"
     cx="212.24271"
     cy="453.11734"
     id="circle20681" />
  <circle
     transform="matrix(0,-1,-1,0,0,0)"
     style="fill:none;stroke:#ff0000;stroke-width:0.0499998mm"
     r="3.999984"
     cx="212.24271"
     cy="453.11734"
     id="circle20683" />
  <circle
     transform="matrix(0,-1,-1,0,0,0)"
     style="fill:none;stroke:#000000;stroke-width:0.0499998mm"
     r="6.9999719"
     cx="227.24265"
     cy="453.11734"
     id="circle20685" />
  <circle
     transform="matrix(0,-1,-1,0,0,0)"
     style="fill:none;stroke:#ff0000;stroke-width:0.0499998mm"
     r="3.999984"
     cx="227.24265"
     cy="453.11734"
     id="circle20687" />
  <circle
     transform="matrix(0,-1,-1,0,0,0)"
     style="fill:none;stroke:#000000;stroke-width:0.0499998mm"
     r="6.9999719"
     cx="242.24263"
     cy="453.11734"
     id="circle20689" />
  <circle
     transform="matrix(0,-1,-1,0,0,0)"
     style="fill:none;stroke:#ff0000;stroke-width:0.0499998mm"
     r="3.999984"
     cx="242.24263"
     cy="453.11734"
     id="circle20691" />
  <circle
     transform="matrix(0,-1,-1,0,0,0)"
     style="fill:none;stroke:#000000;stroke-width:0.0499998mm"
     r="6.9999719"
     cx="257.24252"
     cy="453.11734"
     id="circle20693" />
  <circle
     transform="matrix(0,-1,-1,0,0,0)"
     style="fill:none;stroke:#ff0000;stroke-width:0.0499998mm"
     r="3.999984"
     cx="257.24252"
     cy="453.11734"
     id="circle20695" />
  <circle
     transform="matrix(0.70710678,0.70710678,0.70710678,-0.70710678,0,0)"
     style="fill:none;stroke:#ff0000;stroke-width:0.05mm"
     r="0.75000024"
     cx="-217.14302"
     cy="-64.589241"
     id="circle20697" />
  <circle
     transform="matrix(0.70710678,0.70710678,0.70710678,-0.70710678,0,0)"
     style="fill:none;stroke:#ff0000;stroke-width:0.05mm"
     r="0.75000024"
     cx="-193.12399"
     cy="-119.57644"
     id="circle20699" />
  <path
     style="fill:none;stroke:#000000;stroke-width:0.05mm"
     d="m -223.54113,-59.889881 c 2.90111,-4.03577 4.10529,-9.04766 3.3543,-13.9609 l -1.2728,-1.27279 -3.18198,3.18198 -1.27279,-1.27279 3.18198,-3.18198 -1.27279,-1.272794 -3.18198,3.181984 -1.2728,-1.2728 3.18198,-3.181978 -1.27279,-1.27279 c -4.91323,-0.750988 -9.92512,0.45319 -13.96089,3.354288 -2.02439,-5.836877 -2.02439,-12.185395 -1e-5,-18.022286"
     id="path20701" />
  <circle
     transform="matrix(0.70710678,0.70710678,0.70710678,-0.70710678,0,0)"
     style="fill:none;stroke:#ff0000;stroke-width:0.05mm"
     r="0.75000024"
     cx="-183.28999"
     cy="-71.699242"
     id="circle20703" />
  <circle
     transform="matrix(0.70710678,0.70710678,0.70710678,-0.70710678,0,0)"
     style="fill:none;stroke:#ff0000;stroke-width:0.05mm"
     r="0.75000024"
     cx="-218.77002"
     cy="-57.184227"
     id="circle20705" />
  <circle
     transform="matrix(0.70710678,0.70710678,0.70710678,-0.70710678,0,0)"
     style="fill:none;stroke:#ff0000;stroke-width:0.05mm"
     r="0.75000024"
     cx="-178.02499"
     cy="-97.57444"
     id="circle20707" />
  <path
     style="fill:none;stroke:#000000;stroke-width:0.05mm"
     d="m -223.54112,-59.889871 c 5.83689,2.02438 12.18541,2.02438 18.0223,0 -2.90111,-4.03577 -4.10529,-9.04767 -3.3543,-13.9609 l 1.27278,-1.2728 3.18199,3.18198 1.27279,-1.27279 -3.18198,-3.18198 1.27279,-1.272799 3.18198,3.181979 1.27279,-1.27279 -3.18198,-3.181978 1.2728,-1.272795 c 4.91324,-0.750983 9.92513,0.45319 13.9609,3.354303 2.02439,-5.836893 2.02439,-12.185421 -1e-5,-18.022307 -4.03576,2.901106 -9.04765,4.105285 -13.96089,3.354297 l -1.27279,-1.272795 3.18198,-3.181981 -1.2728,-1.272795 -3.18198,3.181981 -1.27279,-1.272789 3.18199,-3.181981 -1.2728,-1.272795 -3.18198,3.181982 -1.27279,-1.27279 c -0.75099,-4.913236 0.45319,-9.925126 3.35429,-13.960896 -5.83688,-2.02439 -12.18541,-2.02439 -18.0223,-1e-5 2.90111,4.03578 4.10529,9.04767 3.3543,13.960906 l -1.2728,1.272795 -3.18198,-3.181982 -1.27279,1.272789 3.18198,3.181982 -1.27279,1.272794 -3.18198,-3.181981 -1.2728,1.272795 3.18198,3.181981 -1.27279,1.27279 c -4.91323,0.750988 -9.92512,-0.453184 -13.9609,-3.354297"
     id="path20709" />
  <circle
     transform="matrix(0.70710678,0.70710678,0.70710678,-0.70710678,0,0)"
     style="fill:none;stroke:#ff0000;stroke-width:0.05mm"
     r="0.75000024"
     cx="-240.66103"
     cy="-71.950233"
     id="circle20711" />
  <circle
     transform="matrix(0.70710678,0.70710678,0.70710678,-0.70710678,0,0)"
     style="fill:none;stroke:#ff0000;stroke-width:0.05mm"
     r="0.75000024"
     cx="-230.93301"
     cy="-119.76044"
     id="circle20713" />
  <path
     style="fill:none;stroke:#ff0000;stroke-width:0.05mm"
     d="m -195.25537,-101.2226 -3.18198,-3.18198 3.18198,-3.18198 3.18198,3.18198 z"
     id="path20715" />
  <circle
     transform="matrix(0.70710678,0.70710678,0.70710678,-0.70710678,0,0)"
     style="fill:none;stroke:#ff0000;stroke-width:0.05mm"
     r="0.75000024"
     cx="-240.49303"
     cy="-110.28344"
     id="circle20717" />
  <path
     style="fill:none;stroke:#000000;stroke-width:0.05mm"
     d="m -180.5559,-106.02136 c 7.36791,12.422881 7.36791,27.876654 0,40.299539 -2.3311,3.93041 -1.7013,8.94102 1.52996,12.17228 l 0.17858,0.17858 c 1.82823,1.82823 4.29352,2.8773 6.87857,2.92708 3.83023,0.0737 6.88967,3.21274 6.86509,7.04362 -0.0246,3.83088 -3.12406,6.93036 -6.95493,6.95494 -3.83088,0.0246 -6.96989,-3.03486 -7.04364,-6.8651 -0.0498,-2.58503 -1.09884,-5.05033 -2.92707,-6.87856 l -0.17858,-0.17858 c -3.23126,-3.23126 -8.24187,-3.86106 -12.17228,-1.52996 -12.42287,7.36791 -27.87666,7.36792 -40.29956,-1e-5 -3.9304,-2.33109 -8.94101,-1.70129 -12.17227,1.52997 l -0.17858,0.17858 c -1.82824,1.82824 -2.87732,4.29352 -2.92709,6.87855 -0.0738,3.83026 -3.21275,6.8897 -7.04362,6.86512 -3.83088,-0.0246 -6.93034,-3.12406 -6.95494,-6.95494 -0.0246,-3.83088 3.03486,-6.96988 6.8651,-7.04363 2.58503,-0.0498 5.05033,-1.09884 6.87857,-2.92708 l 0.17858,-0.17858 c 3.23126,-3.23126 3.86106,-8.24187 1.52996,-12.17228 -7.36792,-12.422878 -7.36792,-27.876658 0,-40.299549 2.33109,-3.93041 1.7013,-8.94102 -1.52996,-12.17228 l -0.17859,-0.17858 c -1.82823,-1.82824 -4.29352,-2.87731 -6.87856,-2.92708 -3.83024,-0.0737 -6.88968,-3.21275 -6.8651,-7.04363 0.0246,-3.83088 3.12406,-6.93035 6.95494,-6.95494 3.83088,-0.0246 6.96988,3.03486 7.04363,6.8651 0.0498,2.58504 1.09884,5.05033 2.92707,6.87857 l 0.17859,0.17858 c 3.23126,3.23126 8.24187,3.86106 12.17228,1.52996"
     id="path20719" />
  <circle
     transform="matrix(0.70710678,0.70710678,0.70710678,-0.70710678,0,0)"
     style="fill:none;stroke:#ff0000;stroke-width:0.05mm"
     r="0.75000024"
     cx="-231.18402"
     cy="-62.390236"
     id="circle20721" />
  <circle
     transform="matrix(0.70710678,0.70710678,0.70710678,-0.70710678,0,0)"
     style="fill:none;stroke:#ff0000;stroke-width:0.05mm"
     r="4.0000014"
     cx="-211.89201"
     cy="-150.99144"
     id="circle20723" />
  <circle
     transform="matrix(0.70710678,0.70710678,0.70710678,-0.70710678,0,0)"
     style="fill:none;stroke:#ff0000;stroke-width:0.05mm"
     r="0.75000024"
     cx="-238.29404"
     cy="-96.243553"
     id="circle20725" />
  <circle
     transform="matrix(0.70710678,0.70710678,0.70710678,-0.70710678,0,0)"
     style="fill:none;stroke:#ff0000;stroke-width:0.05mm"
     r="0.75000024"
     cx="-205.30902"
     cy="-57.125237"
     id="circle20727" />
  <circle
     transform="matrix(0.70710678,0.70710678,0.70710678,-0.70710678,0,0)"
     style="fill:none;stroke:#ff0000;stroke-width:0.05mm"
     r="0.75000024"
     cx="-218.47401"
     cy="-124.85744"
     id="circle20729" />
  <path
     style="fill:none;stroke:#ff0000;stroke-width:0.05mm"
     d="m -229.90361,-104.40458 -3.18199,3.18198 -3.18198,-3.18198 3.18198,-3.18198 z"
     id="path20731" />
  <circle
     transform="matrix(0.70710678,0.70710678,0.70710678,-0.70710678,0,0)"
     style="fill:none;stroke:#ff0000;stroke-width:0.05mm"
     r="0.75000024"
     cx="-178.084"
     cy="-84.113441"
     id="circle20733" />
  <circle
     transform="matrix(0.70710678,0.70710678,0.70710678,-0.70710678,0,0)"
     style="fill:none;stroke:#ff0000;stroke-width:0.05mm"
     r="0.75000024"
     cx="-185.48901"
     cy="-96.243553"
     id="circle20735" />
  <circle
     transform="matrix(0.70710678,0.70710678,0.70710678,-0.70710678,0,0)"
     style="fill:none;stroke:#ff0000;stroke-width:0.05mm"
     r="4.0000014"
     cx="-151.892"
     cy="-90.991631"
     id="circle20737" />
  <circle
     transform="matrix(0.70710678,0.70710678,0.70710678,-0.70710678,0,0)"
     style="fill:none;stroke:#ff0000;stroke-width:0.05mm"
     r="0.75000024"
     cx="-217.14302"
     cy="-117.39445"
     id="circle20739" />
  <path
     style="fill:none;stroke:#000000;stroke-width:0.05mm"
     d="m -180.19641,-105.63925 c -2.3311,-3.93041 -1.7013,-8.94102 1.52996,-12.17227 l 0.17858,-0.17858 c 1.82823,-1.82823 4.29352,-2.87732 6.87855,-2.92708 3.83025,-0.0738 6.88969,-3.21276 6.86512,-7.04363 -0.0246,-3.83087 -3.12406,-6.93034 -6.95494,-6.95493 -3.83089,-0.0246 -6.96988,3.03486 -7.04364,6.8651 -0.0498,2.58503 -1.09884,5.05032 -2.92707,6.87856 l -0.17858,0.17858 c -3.23126,3.23125 -8.24187,3.86105 -12.17228,1.52995 -12.42288,-7.36791 -27.87666,-7.36791 -40.29955,2e-5"
     id="path20741" />
  <circle
     transform="matrix(0.70710678,0.70710678,0.70710678,-0.70710678,0,0)"
     style="fill:none;stroke:#ff0000;stroke-width:0.05mm"
     r="0.75000024"
     cx="-207.164"
     cy="-117.37745"
     id="circle20743" />
  <path
     style="fill:none;stroke:#ff0000;stroke-width:0.05mm"
     d="m -233.0856,-69.756341 3.18199,3.18198 -3.18199,3.18199 -3.18198,-3.18199 z"
     id="path20745" />
  <circle
     transform="matrix(0.70710678,0.70710678,0.70710678,-0.70710678,0,0)"
     style="fill:none;stroke:#ff0000;stroke-width:0.05mm"
     r="0.75000024"
     cx="-192.85002"
     cy="-62.222237"
     id="circle20747" />
  <circle
     transform="matrix(0.70710678,0.70710678,0.70710678,-0.70710678,0,0)"
     style="fill:none;stroke:#ff0000;stroke-width:0.05mm"
     r="0.75000024"
     cx="-206.64"
     cy="-64.589226"
     id="circle20749" />
  <path
     style="fill:none;stroke:#ff0000;stroke-width:0.05mm"
     d="m -198.43736,-66.574361 3.18198,-3.18198 3.18198,3.18198 -3.18198,3.18198 z"
     id="path20751" />
  <circle
     transform="matrix(0.70710678,0.70710678,0.70710678,-0.70710678,0,0)"
     style="fill:none;stroke:#ff0000;stroke-width:0.05mm"
     r="0.75000024"
     cx="-238.29404"
     cy="-85.739845"
     id="circle20753" />
  <circle
     transform="matrix(0.70710678,0.70710678,0.70710678,-0.70710678,0,0)"
     style="fill:none;stroke:#ff0000;stroke-width:0.05mm"
     r="0.75000024"
     cx="-183.64702"
     cy="-110.01644"
     id="circle20755" />
  <circle
     transform="matrix(0.70710678,0.70710678,0.70710678,-0.70710678,0,0)"
     style="fill:none;stroke:#ff0000;stroke-width:0.05mm"
     r="0.75000024"
     cx="-185.489"
     cy="-85.739845"
     id="circle20757" />
  <circle
     transform="matrix(0.70710678,0.70710678,0.70710678,-0.70710678,0,0)"
     style="fill:none;stroke:#ff0000;stroke-width:0.05mm"
     r="4.0000014"
     cx="-271.89203"
     cy="-90.991646"
     id="circle20759" />
  <circle
     transform="matrix(0.70710678,0.70710678,0.70710678,-0.70710678,0,0)"
     style="fill:none;stroke:#ff0000;stroke-width:0.05mm"
     r="0.75000024"
     cx="-245.75803"
     cy="-84.408745"
     id="circle20761" />
  <circle
     transform="matrix(0.70710678,0.70710678,0.70710678,-0.70710678,0,0)"
     style="fill:none;stroke:#ff0000;stroke-width:0.05mm"
     r="4.0000014"
     cx="-211.89201"
     cy="-30.991219"
     id="circle20763" />
  <circle
     transform="matrix(0.70710678,0.70710678,0.70710678,-0.70710678,0,0)"
     style="fill:none;stroke:#ff0000;stroke-width:0.05mm"
     r="0.75000024"
     cx="-205.53801"
     cy="-124.78243"
     id="circle20765" />
  <circle
     transform="matrix(0.70710678,0.70710678,0.70710678,-0.70710678,0,0)"
     style="fill:none;stroke:#ff0000;stroke-width:0.05mm"
     r="0.75000024"
     cx="-245.69902"
     cy="-97.869438"
     id="circle20767" />
  <path
     style="fill:none;stroke:#ff0000;stroke-width:0.05mm"
     d="m -282.57079,-85.723904 -3.18199,-3.181981 3.18199,-3.181982 3.18198,3.181982 z"
     id="path20769" />
  <circle
     transform="matrix(0.70710678,0.70710678,0.70710678,-0.70710678,0,0)"
     style="fill:none;stroke:#ff0000;stroke-width:0.05mm"
     r="0.75000024"
     cx="-236.2711"
     cy="-168.94298"
     id="circle20771" />
  <circle
     transform="matrix(0.70710678,0.70710678,0.70710678,-0.70710678,0,0)"
     style="fill:none;stroke:#ff0000;stroke-width:0.05mm"
     r="0.75000024"
     cx="-243.6321"
     cy="-134.9222"
     id="circle20773" />
  <path
     style="fill:none;stroke:#000000;stroke-width:0.05mm"
     d="m -310.85585,-44.391891 c 2.90111,-4.03576 4.10529,-9.04765 3.3543,-13.96089 l -1.27279,-1.2728 -3.18199,3.18199 -1.27279,-1.2728 3.18198,-3.18198 -1.27279,-1.27279 -3.18198,3.18198 -1.27279,-1.27279 3.18198,-3.18198 -1.27279,-1.27279 c -4.91324,-0.75099 -9.92513,0.45319 -13.9609,3.35429 -2.02439,-5.83688 -2.02439,-12.1854 0,-18.022292"
     id="path20775" />
  <path
     style="fill:none;stroke:#ff0000;stroke-width:0.05mm"
     d="m -320.40102,-54.257641 3.18198,3.18198 -3.18198,3.18198 -3.18198,-3.18198 z"
     id="path20777" />
  <circle
     transform="matrix(0.70710678,0.70710678,0.70710678,-0.70710678,0,0)"
     style="fill:none;stroke:#ff0000;stroke-width:0.05mm"
     r="0.75000024"
     cx="-228.8071"
     cy="-170.274"
     id="circle20779" />
  <circle
     transform="matrix(0.70710678,0.70710678,0.70710678,-0.70710678,0,0)"
     style="fill:none;stroke:#ff0000;stroke-width:0.05mm"
     r="4.0000014"
     cx="-262.67361"
     cy="-223.692"
     id="circle20781" />
  <path
     style="fill:none;stroke:#000000;stroke-width:0.05mm"
     d="m -310.85584,-44.391881 c 5.8369,2.02439 12.18541,2.02438 18.0223,0 -2.9011,-4.03577 -4.10529,-9.04766 -3.35429,-13.9609 l 1.27278,-1.2728 3.18198,3.18199 1.27279,-1.2728 -3.18198,-3.18198 1.2728,-1.2728 3.18198,3.18199 1.27279,-1.27279 -3.18198,-3.18198 1.27279,-1.2728 c 4.91324,-0.75098 9.92513,0.45319 13.96091,3.3543 2.02438,-5.83689 2.02438,-12.18542 -10e-6,-18.022303 -4.03577,2.901103 -9.04766,4.105283 -13.96089,3.354293 l -1.2728,-1.272791 3.18198,-3.181981 -1.27279,-1.272795 -3.18198,3.181981 -1.27279,-1.272789 3.18198,-3.181981 -1.2728,-1.272795 -3.18198,3.181982 -1.27279,-1.27279 c -0.75099,-4.913237 0.45319,-9.925129 3.35429,-13.960897 -5.83688,-2.024387 -12.18541,-2.024387 -18.0223,-5e-6 2.90112,4.035779 4.10529,9.047665 3.3543,13.960902 l -1.27279,1.272795 -3.18199,-3.181982 -1.27279,1.272789 3.18199,3.181982 -1.2728,1.272794 -3.18198,-3.181981 -1.27279,1.272795 3.18198,3.181981 -1.27279,1.272786 c -4.91324,0.75099 -9.92513,-0.45318 -13.9609,-3.354293"
     id="path20783" />
  <circle
     transform="matrix(0.70710678,0.70710678,0.70710678,-0.70710678,0,0)"
     style="fill:none;stroke:#ff0000;stroke-width:0.05mm"
     r="0.75000024"
     cx="-267.92551"
     cy="-137.28917"
     id="circle20785" />
  <circle
     transform="matrix(0.70710678,0.70710678,0.70710678,-0.70710678,0,0)"
     style="fill:none;stroke:#ff0000;stroke-width:0.05mm"
     r="0.75000024"
     cx="-269.2565"
     cy="-197.558"
     id="circle20787" />
  <circle
     transform="matrix(0.70710678,0.70710678,0.70710678,-0.70710678,0,0)"
     style="fill:none;stroke:#ff0000;stroke-width:0.05mm"
     r="0.75000024"
     cx="-296.53983"
     cy="-157.10869"
     id="circle20789" />
  <circle
     transform="matrix(0.70710678,0.70710678,0.70710678,-0.70710678,0,0)"
     style="fill:none;stroke:#ff0000;stroke-width:0.05mm"
     r="0.75000024"
     cx="-281.71542"
     cy="-192.46098"
     id="circle20791" />
  <circle
     transform="matrix(0.70710678,0.70710678,0.70710678,-0.70710678,0,0)"
     style="fill:none;stroke:#ff0000;stroke-width:0.05mm"
     r="0.75000024"
     cx="-291.27542"
     cy="-182.98399"
     id="circle20793" />
  <circle
     transform="matrix(0.70710678,0.70710678,0.70710678,-0.70710678,0,0)"
     style="fill:none;stroke:#ff0000;stroke-width:0.05mm"
     r="0.75000024"
     cx="-267.92551"
     cy="-190.09398"
     id="circle20795" />
  <circle
     transform="matrix(0.70710678,0.70710678,0.70710678,-0.70710678,0,0)"
     style="fill:none;stroke:#ff0000;stroke-width:0.05mm"
     r="0.75000024"
     cx="-228.86609"
     cy="-156.8134"
     id="circle20797" />
  <circle
     transform="matrix(0.70710678,0.70710678,0.70710678,-0.70710678,0,0)"
     style="fill:none;stroke:#ff0000;stroke-width:0.05mm"
     r="0.75000024"
     cx="-281.96582"
     cy="-135.09019"
     id="circle20799" />
  <circle
     transform="matrix(0.70710678,0.70710678,0.70710678,-0.70710678,0,0)"
     style="fill:none;stroke:#ff0000;stroke-width:0.05mm"
     r="0.75000024"
     cx="-243.9061"
     cy="-192.27699"
     id="circle20801" />
  <circle
     transform="matrix(0.70710678,0.70710678,0.70710678,-0.70710678,0,0)"
     style="fill:none;stroke:#ff0000;stroke-width:0.05mm"
     r="4.0000014"
     cx="-322.67365"
     cy="-163.692"
     id="circle20803" />
  <circle
     transform="matrix(0.70710678,0.70710678,0.70710678,-0.70710678,0,0)"
     style="fill:none;stroke:#ff0000;stroke-width:0.05mm"
     r="0.75000024"
     cx="-236.2711"
     cy="-158.43999"
     id="circle20805" />
  <circle
     transform="matrix(0.70710678,0.70710678,0.70710678,-0.70710678,0,0)"
     style="fill:none;stroke:#ff0000;stroke-width:0.05mm"
     r="0.75000024"
     cx="-289.07651"
     cy="-168.94298"
     id="circle20807" />
  <circle
     transform="matrix(0.70710678,0.70710678,0.70710678,-0.70710678,0,0)"
     style="fill:none;stroke:#ff0000;stroke-width:0.05mm"
     r="0.75000024"
     cx="-256.31992"
     cy="-197.48198"
     id="circle20809" />
  <circle
     transform="matrix(0.70710678,0.70710678,0.70710678,-0.70710678,0,0)"
     style="fill:none;stroke:#ff0000;stroke-width:0.05mm"
     r="0.75000024"
     cx="-291.44272"
     cy="-144.65019"
     id="circle20811" />
  <circle
     transform="matrix(0.70710678,0.70710678,0.70710678,-0.70710678,0,0)"
     style="fill:none;stroke:#ff0000;stroke-width:0.05mm"
     r="0.75000024"
     cx="-234.42911"
     cy="-182.717"
     id="circle20813" />
  <circle
     transform="matrix(0.70710678,0.70710678,0.70710678,-0.70710678,0,0)"
     style="fill:none;stroke:#ff0000;stroke-width:0.05mm"
     r="0.75000024"
     cx="-256.0907"
     cy="-129.82518"
     id="circle20815" />
  <circle
     transform="matrix(0.70710678,0.70710678,0.70710678,-0.70710678,0,0)"
     style="fill:none;stroke:#ff0000;stroke-width:0.05mm"
     r="0.75000024"
     cx="-296.48102"
     cy="-170.56999"
     id="circle20817" />
  <circle
     transform="matrix(0.70710678,0.70710678,0.70710678,-0.70710678,0,0)"
     style="fill:none;stroke:#ff0000;stroke-width:0.05mm"
     r="0.75000024"
     cx="-269.55182"
     cy="-129.88417"
     id="circle20819" />
  <path
     style="fill:none;stroke:#000000;stroke-width:0.05mm"
     d="m -267.87062,-90.523367 c 7.36792,12.422882 7.36791,27.876656 0,40.299536 -2.3311,3.93041 -1.7013,8.94103 1.52996,12.17228 l 0.17858,0.17858 c 1.82823,1.82824 4.29353,2.87731 6.87857,2.92709 3.83024,0.0737 6.88967,3.21273 6.8651,7.04362 -0.0246,3.83088 -3.12407,6.93035 -6.95494,6.95493 -3.83088,0.0246 -6.96989,-3.03485 -7.04364,-6.8651 -0.0498,-2.58503 -1.09884,-5.05032 -2.92707,-6.87856 l -0.17858,-0.17857 c -3.23126,-3.23126 -8.24187,-3.86106 -12.17228,-1.52997 -12.42287,7.36792 -27.87666,7.36792 -40.29955,0 -3.93041,-2.3311 -8.94102,-1.7013 -12.17228,1.52996 l -0.17858,0.17859 c -1.82823,1.82823 -2.87731,4.29351 -2.92709,6.87855 -0.0737,3.83025 -3.21275,6.88969 -7.04361,6.86511 -3.83088,-0.0246 -6.93035,-3.12405 -6.95494,-6.95494 -0.0246,-3.83087 3.03485,-6.96988 6.8651,-7.04363 2.58503,-0.0498 5.05032,-1.09884 6.87856,-2.92707 l 0.17858,-0.17859 c 3.23126,-3.23126 3.86106,-8.24187 1.52996,-12.17228 -7.36792,-12.42287 -7.36791,-27.876654 10e-6,-40.299541 2.33109,-3.930413 1.70129,-8.941021 -1.52997,-12.172278 l -0.17858,-0.17859 c -1.82824,-1.82824 -4.29353,-2.8773 -6.87857,-2.92708 -3.83024,-0.0737 -6.88968,-3.21275 -6.86509,-7.04362 0.0246,-3.83088 3.12406,-6.93035 6.95493,-6.95494 3.83088,-0.0246 6.96988,3.03485 7.04363,6.8651 0.0498,2.58504 1.09885,5.05033 2.92708,6.87856 l 0.17858,0.17858 c 3.23126,3.23127 8.24187,3.86106 12.17228,1.52996"
     id="path20821" />
  <circle
     transform="matrix(0.70710678,0.70710678,0.70710678,-0.70710678,0,0)"
     style="fill:none;stroke:#ff0000;stroke-width:0.05mm"
     r="0.75000024"
     cx="-257.94632"
     cy="-190.07799"
     id="circle20823" />
  <circle
     transform="matrix(0.70710678,0.70710678,0.70710678,-0.70710678,0,0)"
     style="fill:none;stroke:#ff0000;stroke-width:0.05mm"
     r="4.0000014"
     cx="-202.67409"
     cy="-163.69197"
     id="circle20825" />
  <circle
     transform="matrix(0.70710678,0.70710678,0.70710678,-0.70710678,0,0)"
     style="fill:none;stroke:#ff0000;stroke-width:0.05mm"
     r="4.0000014"
     cx="-262.67361"
     cy="-103.69118"
     id="circle20827" />
  <path
     style="fill:none;stroke:#ff0000;stroke-width:0.05mm"
     d="m -317.21904,-88.905885 -3.18198,3.181981 -3.18198,-3.181981 3.18198,-3.181982 z"
     id="path20829" />
  <circle
     transform="matrix(0.70710678,0.70710678,0.70710678,-0.70710678,0,0)"
     style="fill:none;stroke:#ff0000;stroke-width:0.05mm"
     r="0.75000024"
     cx="-257.42181"
     cy="-137.28917"
     id="circle20831" />
  <circle
     transform="matrix(0.70710678,0.70710678,0.70710678,-0.70710678,0,0)"
     style="fill:none;stroke:#ff0000;stroke-width:0.05mm"
     r="0.75000024"
     cx="-234.0721"
     cy="-144.39919"
     id="circle20833" />
  <circle
     transform="matrix(0.70710678,0.70710678,0.70710678,-0.70710678,0,0)"
     style="fill:none;stroke:#ff0000;stroke-width:0.05mm"
     r="0.75000024"
     cx="-289.07651"
     cy="-158.43999"
     id="circle20835" />
  <path
     style="fill:none;stroke:#000000;stroke-width:0.05mm"
     d="m -267.51183,-90.140555 c -2.3311,-3.930407 -1.7013,-8.941015 1.52996,-12.172275 l 0.17858,-0.17858 c 1.82823,-1.82823 4.29351,-2.87731 6.87855,-2.92708 3.83025,-0.0737 6.88969,-3.21275 6.86511,-7.04362 -0.0246,-3.83088 -3.12405,-6.93035 -6.95493,-6.95494 -3.83089,-0.0246 -6.96988,3.03486 -7.04364,6.86511 -0.0498,2.58502 -1.09884,5.05032 -2.92707,6.87855 l -0.17858,0.17858 c -3.23126,3.23126 -8.24187,3.86106 -12.17228,1.52996 -12.42289,-7.36792 -27.87666,-7.36792 -40.29955,1e-5"
     id="path20837" />
  <path
     style="fill:none;stroke:#ff0000;stroke-width:0.05mm"
     d="m -285.75278,-51.075661 3.18198,-3.18199 3.18198,3.18199 -3.18198,3.18198 z"
     id="path20839" />
  <path
     style="fill:none;stroke:#000000;stroke-width:0.0499998mm"
     d="m -495.61706,-276.24265 v -8.99996 h 11.49995 v 1.79999 h 2.49999 v -1.79999 h 8.99997 v 1.79999 h 2.49999 v -1.79999 h 11.49995 v 8.99996 h -11.49995 v -1.79999 h -2.49999 v 1.79999 h -8.99997 v -1.79999 h -2.49999 v 1.79999 z"
     id="path20841" />
  <circle
     transform="matrix(0,-1,-1,0,0,0)"
     style="fill:none;stroke:#ff0000;stroke-width:0.0499998mm"
     r="0.99999601"
     cx="280.74225"
     cy="488.11639"
     id="circle20843" />
  <circle
     transform="matrix(0,-1,-1,0,0,0)"
     style="fill:none;stroke:#ff0000;stroke-width:0.0499998mm"
     r="0.99999601"
     cx="280.74228"
     cy="465.11652"
     id="circle20845" />
  <path
     style="fill:none;stroke:#ff0000;stroke-width:0.0499998mm"
     d="m -472.61715,-279.84263 v -1.79999 h 2.49999 v 1.79999 z"
     id="path20847" />
  <path
     style="fill:none;stroke:#ff0000;stroke-width:0.0499998mm"
     d="m -481.61712,-279.84263 v -1.79999 h -2.49999 v 1.79999 z"
     id="path20849" />
  <path
     style="fill:none;stroke:#000000;stroke-width:0.0499998mm"
     d="m -495.61706,-266.24265 v -8.99996 h 11.49995 v 1.79999 h 2.49999 v -1.79999 h 8.99997 v 1.79999 h 2.49999 v -1.79999 h 11.49995 v 8.99996 h -11.49995 v -1.79999 h -2.49999 v 1.79999 h -8.99997 v -1.79999 h -2.49999 v 1.79999 z"
     id="path20851" />
  <circle
     transform="matrix(0,-1,-1,0,0,0)"
     style="fill:none;stroke:#ff0000;stroke-width:0.0499998mm"
     r="0.99999601"
     cx="270.74225"
     cy="488.11639"
     id="circle20853" />
  <circle
     transform="matrix(0,-1,-1,0,0,0)"
     style="fill:none;stroke:#ff0000;stroke-width:0.0499998mm"
     r="0.99999601"
     cx="270.74228"
     cy="465.11652"
     id="circle20855" />
  <path
     style="fill:none;stroke:#ff0000;stroke-width:0.0499998mm"
     d="m -472.61715,-269.84263 v -1.79999 h 2.49999 v 1.79999 z"
     id="path20857" />
  <path
     style="fill:none;stroke:#ff0000;stroke-width:0.0499998mm"
     d="m -481.61712,-269.84263 v -1.79999 h -2.49999 v 1.79999 z"
     id="path20859" />
  <path
     style="fill:none;stroke:#ff0000;stroke-width:0.05mm"
     d="m -470.1172,-285.24293 1e-5,18.99991"
     id="path20861" />
  <circle
     transform="matrix(0,-1,-1,0,0,0)"
     style="fill:none;stroke:#ff0000;stroke-width:0.05mm"
     r="1"
     cx="131.76277"
     cy="476.01624"
     id="circle20863" />
  <circle
     transform="matrix(0,-1,-1,0,0,0)"
     style="fill:none;stroke:#ff0000;stroke-width:0.05mm"
     r="1"
     cx="131.76277"
     cy="480.01624"
     id="circle20865" />
  <circle
     transform="matrix(0,-1,-1,0,0,0)"
     style="fill:none;stroke:#ff0000;stroke-width:0.05mm"
     r="1"
     cx="131.76277"
     cy="460.01654"
     id="circle20867" />
  <circle
     transform="matrix(0,-1,-1,0,0,0)"
     style="fill:none;stroke:#ff0000;stroke-width:0.05mm"
     r="1"
     cx="131.76277"
     cy="468.01624"
     id="circle20869" />
  <path
     style="fill:none;stroke:#000000;stroke-width:0.05mm"
     d="m -468.01661,-127.51279 c 0,-0.55229 -0.44771,-1 -1,-1 -0.5523,0 -1,0.44771 -1,1 h -1 c 0,-0.55229 -0.44771,-1 -1,-1 -0.5523,0 -1,0.44771 -1,1 h -1 c 0,-0.55229 -0.44771,-1 -1,-1 -0.5523,0 -1,0.44771 -1,1 h -1 c 0,-0.55229 -0.44771,-1 -1,-1 -0.5523,0 -1,0.44771 -1,1 h -1 c 0,-0.55229 -0.44771,-1 -1,-1 -0.5523,0 -1,0.44771 -1,1 h -1 c 0,-0.55229 -0.44771,-1 -1,-1 -0.5523,0 -1,0.44771 -1,1 h -1 c 0,-0.55229 -0.44771,-1 -1,-1 -0.5523,0 -1,0.44771 -1,1 h -1 c 0,-0.55229 -0.44771,-1 -1,-1 -0.5523,0 -1,0.44771 -1,1 h -1 c 0,-0.55229 -0.44771,-1 -1,-1 -0.5523,0 -1,0.44771 -1,1 h -1 c 0,-0.55229 -0.44771,-1 -1,-1 -0.5523,0 -1,0.44771 -1,1 h -2 v -2 h -14 v -4.5 h 14 v -2 h 2 c 0,0.55228 0.4477,1 1,1 0.55229,0 1,-0.44772 1,-1 h 1 c 0,0.55228 0.4477,1 1,1 0.55229,0 1,-0.44772 1,-1 h 1 c 0,0.55228 0.4477,1 1,1 0.55229,0 1,-0.44772 1,-1 h 1 c 0,0.55228 0.4477,1 1,1 0.55229,0 1,-0.44772 1,-1 h 1 c 0,0.55228 0.4477,1 1,1 0.55229,0 1,-0.44772 1,-1 h 1 c 0,0.55228 0.4477,1 1,1 0.55229,0 1,-0.44772 1,-1 h 1 c 0,0.55228 0.4477,1 1,1 0.55229,0 1,-0.44772 1,-1 h 1 c 0,0.55228 0.4477,1 1,1 0.55229,0 1,-0.44772 1,-1 h 1 c 0,0.55228 0.4477,1 1,1 0.55229,0 1,-0.44772 1,-1 h 1 c 0,0.55228 0.4477,1 1,1 0.55229,0 1,-0.44772 1,-1 h 0.99998 c 0,0.55228 0.44772,1 1,1 0.55229,0 1,-0.44772 1,-1 h 1 c 0,0.55228 0.44772,1 1,1 0.55229,0 1,-0.44772 1,-1 h 1 c 0,0.55228 0.44772,1 1,1 0.55229,0 1,-0.44772 1,-1 h 2 v 2 h 14 v 4.5 h -14 v 2 h -2 c 0,-0.55229 -0.44771,-1 -1,-1 -0.55228,0 -1,0.44771 -1,1 l -1,0 c 0,-0.55229 -0.44771,-1 -1,-1 -0.55228,0 -1,0.44771 -1,1 l -1,0 c 0,-0.55229 -0.44771,-1 -1,-1 -0.55228,0 -1,0.44771 -1,1 l -1,0"
     id="path20871" />
  <circle
     transform="matrix(0,-1,-1,0,0,0)"
     style="fill:none;stroke:#ff0000;stroke-width:0.05mm"
     r="1"
     cx="131.76277"
     cy="464.01624"
     id="circle20873" />
  <circle
     transform="matrix(0,-1,-1,0,0,0)"
     style="fill:none;stroke:#ff0000;stroke-width:0.05mm"
     r="1"
     cx="131.76277"
     cy="492.01624"
     id="circle20875" />
  <circle
     transform="matrix(0,-1,-1,0,0,0)"
     style="fill:none;stroke:#ff0000;stroke-width:0.05mm"
     r="1"
     cx="131.76277"
     cy="488.01624"
     id="circle20877" />
  <circle
     transform="matrix(0,-1,-1,0,0,0)"
     style="fill:none;stroke:#ff0000;stroke-width:0.05mm"
     r="1"
     cx="131.76277"
     cy="484.01624"
     id="circle20879" />
  <circle
     transform="matrix(0,-1,-1,0,0,0)"
     style="fill:none;stroke:#ff0000;stroke-width:0.05mm"
     r="1"
     cx="131.76277"
     cy="496.01624"
     id="circle20881" />
  <circle
     transform="matrix(0,-1,-1,0,0,0)"
     style="fill:none;stroke:#ff0000;stroke-width:0.05mm"
     r="1"
     cx="131.76277"
     cy="472.01624"
     id="circle20883" />
  <circle
     transform="matrix(0,-1,-1,0,0,0)"
     style="fill:none;stroke:#ff0000;stroke-width:0.05mm"
     r="1"
     cx="99.422874"
     cy="477.31659"
     id="circle20885" />
  <circle
     transform="matrix(0,-1,-1,0,0,0)"
     style="fill:none;stroke:#ff0000;stroke-width:0.05mm"
     r="1"
     cx="99.422874"
     cy="481.31659"
     id="circle20887" />
  <circle
     transform="matrix(0,-1,-1,0,0,0)"
     style="fill:none;stroke:#ff0000;stroke-width:0.05mm"
     r="1"
     cx="99.422874"
     cy="461.31689"
     id="circle20889" />
  <circle
     transform="matrix(0,-1,-1,0,0,0)"
     style="fill:none;stroke:#ff0000;stroke-width:0.05mm"
     r="1"
     cx="99.422874"
     cy="469.31659"
     id="circle20891" />
  <path
     style="fill:none;stroke:#000000;stroke-width:0.05mm"
     d="m -469.31697,-95.172896 c 0,-0.552285 -0.44771,-1 -1,-1 -0.55229,0 -1,0.447715 -1,1 h -1 c 0,-0.552285 -0.44771,-1 -1,-1 -0.55229,0 -1,0.447715 -1,1 h -1 c 0,-0.552285 -0.44771,-1 -1,-1 -0.55229,0 -1,0.447715 -1,1 h -1 c 0,-0.552285 -0.44771,-1 -1,-1 -0.55229,0 -1,0.447715 -1,1 h -1 c 0,-0.552285 -0.44771,-1 -1,-1 -0.55229,0 -1,0.447715 -1,1 h -1 c 0,-0.552285 -0.44771,-1 -1,-1 -0.55229,0 -1,0.447715 -1,1 h -1 c 0,-0.552285 -0.44771,-1 -1,-1 -0.55229,0 -1,0.447715 -1,1 h -1 c 0,-0.552285 -0.44771,-1 -1,-1 -0.55229,0 -1,0.447715 -1,1 h -1 c 0,-0.552285 -0.44771,-1 -1,-1 -0.55229,0 -1,0.447715 -1,1 h -1 c 0,-0.552285 -0.44771,-1 -1,-1 -0.55229,0 -1,0.447715 -1,1 h -2 v -2 h -14 v -4.500004 h 14 v -2 h 2 c 0,0.55229 0.44771,1 1,1 0.55229,0 1,-0.44771 1,-1 h 1 c 0,0.55229 0.44771,1 1,1 0.55229,0 1,-0.44771 1,-1 h 1 c 0,0.55229 0.44771,1 1,1 0.55229,0 1,-0.44771 1,-1 h 1 c 0,0.55229 0.44771,1 1,1 0.55229,0 1,-0.44771 1,-1 h 1 c 0,0.55229 0.44771,1 1,1 0.55229,0 1,-0.44771 1,-1 h 1 c 0,0.55229 0.44771,1 1,1 0.55229,0 1,-0.44771 1,-1 h 1 c 0,0.55229 0.44771,1 1,1 0.55229,0 1,-0.44771 1,-1 h 1 c 0,0.55229 0.44771,1 1,1 0.55229,0 1,-0.44771 1,-1 h 1 c 0,0.55229 0.44771,1 1,1 0.55229,0 1,-0.44771 1,-1 h 1 c 0,0.55229 0.44771,1 1,1 0.55229,0 1,-0.44771 1,-1 h 0.99998 c 0,0.55229 0.44773,1 1,1 0.55229,0 1,-0.44771 1,-1 h 1 c 0,0.55229 0.44773,1 1,1 0.55229,0 1,-0.44771 1,-1 h 1 c 0,0.55229 0.44773,1 1,1 0.55229,0 1,-0.44771 1,-1 h 2 v 2 h 14 v 4.500004 h -14 v 2 h -2 c 0,-0.552285 -0.44771,-1 -1,-1 -0.55227,0 -1,0.447715 -1,0.999999 l -1,1e-6 c 0,-0.552285 -0.44771,-1 -1,-1 -0.55227,0 -1,0.447715 -1,0.999999 l -1,1e-6 c 0,-0.552285 -0.44771,-1 -1,-1 -0.55227,0 -1,0.447715 -1,0.999999 l -1,1e-6"
     id="path20893" />
  <circle
     transform="matrix(0,-1,-1,0,0,0)"
     style="fill:none;stroke:#ff0000;stroke-width:0.05mm"
     r="1"
     cx="99.422874"
     cy="465.31659"
     id="circle20895" />
  <circle
     transform="matrix(0,-1,-1,0,0,0)"
     style="fill:none;stroke:#ff0000;stroke-width:0.05mm"
     r="1"
     cx="99.422874"
     cy="493.31659"
     id="circle20897" />
  <circle
     transform="matrix(0,-1,-1,0,0,0)"
     style="fill:none;stroke:#ff0000;stroke-width:0.05mm"
     r="1"
     cx="99.422874"
     cy="489.31659"
     id="circle20899" />
  <circle
     transform="matrix(0,-1,-1,0,0,0)"
     style="fill:none;stroke:#ff0000;stroke-width:0.05mm"
     r="1"
     cx="99.422874"
     cy="485.31659"
     id="circle20901" />
  <circle
     transform="matrix(0,-1,-1,0,0,0)"
     style="fill:none;stroke:#ff0000;stroke-width:0.05mm"
     r="1"
     cx="99.422867"
     cy="497.31659"
     id="circle20903" />
  <circle
     transform="matrix(0,-1,-1,0,0,0)"
     style="fill:none;stroke:#ff0000;stroke-width:0.05mm"
     r="1"
     cx="99.422874"
     cy="473.31659"
     id="circle20905" />
  <circle
     transform="matrix(0,-1,-1,0,0,0)"
     style="fill:none;stroke:#ff0000;stroke-width:0.05mm"
     r="1"
     cx="109.42287"
     cy="477.31659"
     id="circle20907" />
  <circle
     transform="matrix(0,-1,-1,0,0,0)"
     style="fill:none;stroke:#ff0000;stroke-width:0.05mm"
     r="1"
     cx="109.42287"
     cy="481.31659"
     id="circle20909" />
  <circle
     transform="matrix(0,-1,-1,0,0,0)"
     style="fill:none;stroke:#ff0000;stroke-width:0.05mm"
     r="1"
     cx="109.42287"
     cy="461.31689"
     id="circle20911" />
  <circle
     transform="matrix(0,-1,-1,0,0,0)"
     style="fill:none;stroke:#ff0000;stroke-width:0.05mm"
     r="1"
     cx="109.42287"
     cy="469.31659"
     id="circle20913" />
  <path
     style="fill:none;stroke:#000000;stroke-width:0.05mm"
     d="m -469.31697,-105.1729 c 0,-0.55228 -0.44771,-1 -1,-1 -0.55229,0 -1,0.44772 -1,1 h -1 c 0,-0.55228 -0.44771,-1 -1,-1 -0.55229,0 -1,0.44772 -1,1 h -1 c 0,-0.55228 -0.44771,-1 -1,-1 -0.55229,0 -1,0.44772 -1,1 h -1 c 0,-0.55228 -0.44771,-1 -1,-1 -0.55229,0 -1,0.44772 -1,1 h -1 c 0,-0.55228 -0.44771,-1 -1,-1 -0.55229,0 -1,0.44772 -1,1 h -1 c 0,-0.55228 -0.44771,-1 -1,-1 -0.55229,0 -1,0.44772 -1,1 h -1 c 0,-0.55228 -0.44771,-1 -1,-1 -0.55229,0 -1,0.44772 -1,1 h -1 c 0,-0.55228 -0.44771,-1 -1,-1 -0.55229,0 -1,0.44772 -1,1 h -1 c 0,-0.55228 -0.44771,-1 -1,-1 -0.55229,0 -1,0.44772 -1,1 h -1 c 0,-0.55228 -0.44771,-1 -1,-1 -0.55229,0 -1,0.44772 -1,1 h -2 v -2 h -14 v -4.5 h 14 v -2 h 2 c 0,0.55229 0.44771,1 1,1 0.55229,0 1,-0.44771 1,-1 h 1 c 0,0.55229 0.44771,1 1,1 0.55229,0 1,-0.44771 1,-1 h 1 c 0,0.55229 0.44771,1 1,1 0.55229,0 1,-0.44771 1,-1 h 1 c 0,0.55229 0.44771,1 1,1 0.55229,0 1,-0.44771 1,-1 h 1 c 0,0.55229 0.44771,1 1,1 0.55229,0 1,-0.44771 1,-1 h 1 c 0,0.55229 0.44771,1 1,1 0.55229,0 1,-0.44771 1,-1 h 1 c 0,0.55229 0.44771,1 1,1 0.55229,0 1,-0.44771 1,-1 h 1 c 0,0.55229 0.44771,1 1,1 0.55229,0 1,-0.44771 1,-1 h 1 c 0,0.55229 0.44771,1 1,1 0.55229,0 1,-0.44771 1,-1 h 1 c 0,0.55229 0.44771,1 1,1 0.55229,0 1,-0.44771 1,-1 h 0.99998 c 0,0.55229 0.44773,1 1,1 0.55229,0 1,-0.44771 1,-1 h 1 c 0,0.55229 0.44773,1 1,1 0.55229,0 1,-0.44771 1,-1 h 1 c 0,0.55229 0.44773,1 1,1 0.55229,0 1,-0.44771 1,-1 h 2 v 2 h 14 v 4.5 h -14 v 2 h -2 c 0,-0.55228 -0.44771,-1 -1,-1 -0.55227,0 -1,0.44772 -1,1 l -1,0 c 0,-0.55228 -0.44771,-1 -1,-1 -0.55227,0 -1,0.44772 -1,1 l -1,0 c 0,-0.55228 -0.44771,-1 -1,-1 -0.55227,0 -1,0.44772 -1,1 l -1,0"
     id="path20915" />
  <circle
     transform="matrix(0,-1,-1,0,0,0)"
     style="fill:none;stroke:#ff0000;stroke-width:0.05mm"
     r="1"
     cx="109.42287"
     cy="465.31659"
     id="circle20917" />
  <circle
     transform="matrix(0,-1,-1,0,0,0)"
     style="fill:none;stroke:#ff0000;stroke-width:0.05mm"
     r="1"
     cx="109.42287"
     cy="493.31659"
     id="circle20919" />
  <circle
     transform="matrix(0,-1,-1,0,0,0)"
     style="fill:none;stroke:#ff0000;stroke-width:0.05mm"
     r="1"
     cx="109.42287"
     cy="489.31659"
     id="circle20921" />
  <circle
     transform="matrix(0,-1,-1,0,0,0)"
     style="fill:none;stroke:#ff0000;stroke-width:0.05mm"
     r="1"
     cx="109.42287"
     cy="485.31659"
     id="circle20923" />
  <circle
     transform="matrix(0,-1,-1,0,0,0)"
     style="fill:none;stroke:#ff0000;stroke-width:0.05mm"
     r="1"
     cx="109.42287"
     cy="497.31659"
     id="circle20925" />
  <circle
     transform="matrix(0,-1,-1,0,0,0)"
     style="fill:none;stroke:#ff0000;stroke-width:0.05mm"
     r="1"
     cx="109.42287"
     cy="473.31659"
     id="circle20927" />
  <circle
     transform="matrix(0,-1,-1,0,0,0)"
     style="fill:none;stroke:#ff0000;stroke-width:0.05mm"
     r="1"
     cx="119.42287"
     cy="477.31659"
     id="circle20929" />
  <circle
     transform="matrix(0,-1,-1,0,0,0)"
     style="fill:none;stroke:#ff0000;stroke-width:0.05mm"
     r="1"
     cx="119.42287"
     cy="481.31659"
     id="circle20931" />
  <circle
     transform="matrix(0,-1,-1,0,0,0)"
     style="fill:none;stroke:#ff0000;stroke-width:0.05mm"
     r="1"
     cx="119.42287"
     cy="461.31689"
     id="circle20933" />
  <circle
     transform="matrix(0,-1,-1,0,0,0)"
     style="fill:none;stroke:#ff0000;stroke-width:0.05mm"
     r="1"
     cx="119.42287"
     cy="469.31659"
     id="circle20935" />
  <path
     style="fill:none;stroke:#000000;stroke-width:0.05mm"
     d="m -469.31697,-115.1729 c 0,-0.55228 -0.44771,-1 -1,-1 -0.55229,0 -1,0.44772 -1,1 h -1 c 0,-0.55228 -0.44771,-1 -1,-1 -0.55229,0 -1,0.44772 -1,1 h -1 c 0,-0.55228 -0.44771,-1 -1,-1 -0.55229,0 -1,0.44772 -1,1 h -1 c 0,-0.55228 -0.44771,-1 -1,-1 -0.55229,0 -1,0.44772 -1,1 h -1 c 0,-0.55228 -0.44771,-1 -1,-1 -0.55229,0 -1,0.44772 -1,1 h -1 c 0,-0.55228 -0.44771,-1 -1,-1 -0.55229,0 -1,0.44772 -1,1 h -1 c 0,-0.55228 -0.44771,-1 -1,-1 -0.55229,0 -1,0.44772 -1,1 h -1 c 0,-0.55228 -0.44771,-1 -1,-1 -0.55229,0 -1,0.44772 -1,1 h -1 c 0,-0.55228 -0.44771,-1 -1,-1 -0.55229,0 -1,0.44772 -1,1 h -1 c 0,-0.55228 -0.44771,-1 -1,-1 -0.55229,0 -1,0.44772 -1,1 h -2 v -2 h -14 v -4.5 h 14 v -2 h 2 c 0,0.55229 0.44771,1 1,1 0.55229,0 1,-0.44771 1,-1 h 1 c 0,0.55229 0.44771,1 1,1 0.55229,0 1,-0.44771 1,-1 h 1 c 0,0.55229 0.44771,1 1,1 0.55229,0 1,-0.44771 1,-1 h 1 c 0,0.55229 0.44771,1 1,1 0.55229,0 1,-0.44771 1,-1 h 1 c 0,0.55229 0.44771,1 1,1 0.55229,0 1,-0.44771 1,-1 h 1 c 0,0.55229 0.44771,1 1,1 0.55229,0 1,-0.44771 1,-1 h 1 c 0,0.55229 0.44771,1 1,1 0.55229,0 1,-0.44771 1,-1 h 1 c 0,0.55229 0.44771,1 1,1 0.55229,0 1,-0.44771 1,-1 h 1 c 0,0.55229 0.44771,1 1,1 0.55229,0 1,-0.44771 1,-1 h 1 c 0,0.55229 0.44771,1 1,1 0.55229,0 1,-0.44771 1,-1 h 0.99998 c 0,0.55229 0.44773,1 1,1 0.55229,0 1,-0.44771 1,-1 h 1 c 0,0.55229 0.44773,1 1,1 0.55229,0 1,-0.44771 1,-1 h 1 c 0,0.55229 0.44773,1 1,1 0.55229,0 1,-0.44771 1,-1 h 2 v 2 h 14 v 4.5 h -14 v 2 h -2 c 0,-0.55228 -0.44771,-1 -1,-1 -0.55227,0 -1,0.44772 -1,1 l -1,0 c 0,-0.55228 -0.44771,-1 -1,-1 -0.55227,0 -1,0.44772 -1,1 l -1,0 c 0,-0.55228 -0.44771,-1 -1,-1 -0.55227,0 -1,0.44772 -1,1 l -1,0"
     id="path20937" />
  <circle
     transform="matrix(0,-1,-1,0,0,0)"
     style="fill:none;stroke:#ff0000;stroke-width:0.05mm"
     r="1"
     cx="119.42287"
     cy="465.31659"
     id="circle20939" />
  <circle
     transform="matrix(0,-1,-1,0,0,0)"
     style="fill:none;stroke:#ff0000;stroke-width:0.05mm"
     r="1"
     cx="119.42287"
     cy="493.31659"
     id="circle20941" />
  <circle
     transform="matrix(0,-1,-1,0,0,0)"
     style="fill:none;stroke:#ff0000;stroke-width:0.05mm"
     r="1"
     cx="119.42287"
     cy="489.31659"
     id="circle20943" />
  <circle
     transform="matrix(0,-1,-1,0,0,0)"
     style="fill:none;stroke:#ff0000;stroke-width:0.05mm"
     r="1"
     cx="119.42287"
     cy="485.31659"
     id="circle20945" />
  <circle
     transform="matrix(0,-1,-1,0,0,0)"
     style="fill:none;stroke:#ff0000;stroke-width:0.05mm"
     r="1"
     cx="119.42287"
     cy="497.31659"
     id="circle20947" />
  <circle
     transform="matrix(0,-1,-1,0,0,0)"
     style="fill:none;stroke:#ff0000;stroke-width:0.05mm"
     r="1"
     cx="119.42287"
     cy="473.31659"
     id="circle20949" />
  <circle
     transform="matrix(0.70710678,0.70710678,0.70710678,-0.70710678,0,0)"
     style="fill:none;stroke:#ff0000;stroke-width:0.05mm"
     r="0.75000024"
     cx="-304.53775"
     cy="24.345467"
     id="circle21709" />
  <circle
     transform="matrix(0.70710678,0.70710678,0.70710678,-0.70710678,0,0)"
     style="fill:none;stroke:#ff0000;stroke-width:0.05mm"
     r="0.75000024"
     cx="-280.51874"
     cy="-30.641731"
     id="circle21711" />
  <path
     style="fill:none;stroke:#000000;stroke-width:0.05mm"
     d="m -222.45219,-184.57362 c 2.90111,-4.03577 4.10529,-9.04766 3.3543,-13.9609 l -1.2728,-1.27279 -3.18198,3.18198 -1.27279,-1.27279 3.18198,-3.18198 -1.27279,-1.2728 -3.18198,3.18199 -1.2728,-1.2728 3.18198,-3.18198 -1.27279,-1.27279 c -4.91323,-0.75099 -9.92512,0.45319 -13.96089,3.35429 -2.02439,-5.83688 -2.02439,-12.1854 -1e-5,-18.02229"
     id="path21713" />
  <circle
     transform="matrix(0.70710678,0.70710678,0.70710678,-0.70710678,0,0)"
     style="fill:none;stroke:#ff0000;stroke-width:0.05mm"
     r="0.75000024"
     cx="-270.68472"
     cy="17.235466"
     id="circle21715" />
  <circle
     transform="matrix(0.70710678,0.70710678,0.70710678,-0.70710678,0,0)"
     style="fill:none;stroke:#ff0000;stroke-width:0.05mm"
     r="0.75000024"
     cx="-306.16476"
     cy="31.750488"
     id="circle21717" />
  <circle
     transform="matrix(0.70710678,0.70710678,0.70710678,-0.70710678,0,0)"
     style="fill:none;stroke:#ff0000;stroke-width:0.05mm"
     r="0.75000024"
     cx="-265.41974"
     cy="-8.6397314"
     id="circle21719" />
  <path
     style="fill:none;stroke:#000000;stroke-width:0.05mm"
     d="m -222.45218,-184.57361 c 5.83689,2.02438 12.18541,2.02438 18.0223,0 -2.90111,-4.03577 -4.10529,-9.04767 -3.3543,-13.9609 l 1.27278,-1.2728 3.18199,3.18198 1.27279,-1.27279 -3.18198,-3.18198 1.27279,-1.2728 3.18198,3.18198 1.27279,-1.27279 -3.18198,-3.18198 1.2728,-1.2728 c 4.91324,-0.75098 9.92513,0.45319 13.9609,3.35431 2.02439,-5.8369 2.02439,-12.18542 -1e-5,-18.02231 -4.03576,2.90111 -9.04765,4.10528 -13.96089,3.3543 l -1.27279,-1.2728 3.18198,-3.18198 -1.2728,-1.27279 -3.18198,3.18198 -1.27279,-1.27279 3.18199,-3.18198 -1.2728,-1.2728 -3.18198,3.18198 -1.27279,-1.27279 c -0.75099,-4.91323 0.45319,-9.92513 3.35429,-13.96089 -5.83688,-2.02439 -12.18541,-2.02439 -18.0223,-1e-5 2.90111,4.03578 4.10529,9.04767 3.3543,13.9609 l -1.2728,1.2728 -3.18198,-3.18198 -1.27279,1.27279 3.18198,3.18198 -1.27279,1.27279 -3.18198,-3.18198 -1.2728,1.2728 3.18198,3.18198 -1.27279,1.27279 c -4.91323,0.75098 -9.92512,-0.45319 -13.9609,-3.3543"
     id="path21721" />
  <circle
     transform="matrix(0.70710678,0.70710678,0.70710678,-0.70710678,0,0)"
     style="fill:none;stroke:#ff0000;stroke-width:0.05mm"
     r="0.75000024"
     cx="-328.05576"
     cy="16.984482"
     id="circle21723" />
  <circle
     transform="matrix(0.70710678,0.70710678,0.70710678,-0.70710678,0,0)"
     style="fill:none;stroke:#ff0000;stroke-width:0.05mm"
     r="0.75000024"
     cx="-318.32773"
     cy="-30.825737"
     id="circle21725" />
  <path
     style="fill:none;stroke:#ff0000;stroke-width:0.05mm"
     d="m -194.16643,-225.90634 -3.18198,-3.18198 3.18198,-3.18199 3.18198,3.18199 z"
     id="path21727" />
  <circle
     transform="matrix(0.70710678,0.70710678,0.70710678,-0.70710678,0,0)"
     style="fill:none;stroke:#ff0000;stroke-width:0.05mm"
     r="0.75000024"
     cx="-327.88776"
     cy="-21.348732"
     id="circle21729" />
  <path
     style="fill:none;stroke:#000000;stroke-width:0.05mm"
     d="m -179.46696,-230.7051 c 7.36791,12.42288 7.36791,27.87665 0,40.29954 -2.3311,3.93041 -1.7013,8.94102 1.52996,12.17228 l 0.17858,0.17858 c 1.82823,1.82823 4.29352,2.8773 6.87857,2.92708 3.83023,0.0737 6.88967,3.21274 6.86509,7.04362 -0.0246,3.83088 -3.12406,6.93036 -6.95493,6.95494 -3.83088,0.0246 -6.96989,-3.03486 -7.04364,-6.8651 -0.0498,-2.58503 -1.09884,-5.05033 -2.92707,-6.87856 l -0.17858,-0.17858 c -3.23126,-3.23126 -8.24187,-3.86106 -12.17228,-1.52996 -12.42287,7.36791 -27.87666,7.36792 -40.29956,-1e-5 -3.9304,-2.33109 -8.94101,-1.70129 -12.17227,1.52997 l -0.17858,0.17858 c -1.82824,1.82824 -2.87732,4.29352 -2.92709,6.87855 -0.0738,3.83026 -3.21275,6.8897 -7.04362,6.86512 -3.83088,-0.0246 -6.93034,-3.12406 -6.95494,-6.95494 -0.0246,-3.83088 3.03486,-6.96988 6.8651,-7.04363 2.58503,-0.0498 5.05033,-1.09884 6.87857,-2.92708 l 0.17858,-0.17858 c 3.23126,-3.23126 3.86106,-8.24187 1.52996,-12.17228 -7.36792,-12.42288 -7.36792,-27.87666 0,-40.29955 2.33109,-3.93041 1.7013,-8.94102 -1.52996,-12.17228 l -0.17859,-0.17859 c -1.82823,-1.82823 -4.29352,-2.8773 -6.87856,-2.92707 -3.83024,-0.0738 -6.88968,-3.21275 -6.8651,-7.04363 0.0246,-3.83088 3.12406,-6.93035 6.95494,-6.95494 3.83088,-0.0246 6.96988,3.03485 7.04363,6.8651 0.0498,2.58504 1.09884,5.05033 2.92707,6.87856 l 0.17859,0.17859 c 3.23126,3.23126 8.24187,3.86105 12.17228,1.52996"
     id="path21731" />
  <circle
     transform="matrix(0.70710678,0.70710678,0.70710678,-0.70710678,0,0)"
     style="fill:none;stroke:#ff0000;stroke-width:0.05mm"
     r="0.75000024"
     cx="-318.57877"
     cy="26.544479"
     id="circle21733" />
  <circle
     transform="matrix(0.70710678,0.70710678,0.70710678,-0.70710678,0,0)"
     style="fill:none;stroke:#ff0000;stroke-width:0.05mm"
     r="4.0000014"
     cx="-299.28674"
     cy="-62.05674"
     id="circle21735" />
  <circle
     transform="matrix(0.70710678,0.70710678,0.70710678,-0.70710678,0,0)"
     style="fill:none;stroke:#ff0000;stroke-width:0.05mm"
     r="0.75000024"
     cx="-325.68875"
     cy="-7.308845"
     id="circle21737" />
  <circle
     transform="matrix(0.70710678,0.70710678,0.70710678,-0.70710678,0,0)"
     style="fill:none;stroke:#ff0000;stroke-width:0.05mm"
     r="0.75000024"
     cx="-292.70374"
     cy="31.809479"
     id="circle21739" />
  <circle
     transform="matrix(0.70710678,0.70710678,0.70710678,-0.70710678,0,0)"
     style="fill:none;stroke:#ff0000;stroke-width:0.05mm"
     r="0.75000024"
     cx="-305.86874"
     cy="-35.922737"
     id="circle21741" />
  <path
     style="fill:none;stroke:#ff0000;stroke-width:0.05mm"
     d="m -228.81467,-229.08832 -3.18199,3.18198 -3.18198,-3.18198 3.18198,-3.18199 z"
     id="path21743" />
  <circle
     transform="matrix(0.70710678,0.70710678,0.70710678,-0.70710678,0,0)"
     style="fill:none;stroke:#ff0000;stroke-width:0.05mm"
     r="0.75000024"
     cx="-265.47873"
     cy="4.8212819"
     id="circle21745" />
  <circle
     transform="matrix(0.70710678,0.70710678,0.70710678,-0.70710678,0,0)"
     style="fill:none;stroke:#ff0000;stroke-width:0.05mm"
     r="0.75000024"
     cx="-272.88373"
     cy="-7.308845"
     id="circle21747" />
  <circle
     transform="matrix(0.70710678,0.70710678,0.70710678,-0.70710678,0,0)"
     style="fill:none;stroke:#ff0000;stroke-width:0.05mm"
     r="4.0000014"
     cx="-239.28671"
     cy="-2.0569222"
     id="circle21749" />
  <circle
     transform="matrix(0.70710678,0.70710678,0.70710678,-0.70710678,0,0)"
     style="fill:none;stroke:#ff0000;stroke-width:0.05mm"
     r="0.75000024"
     cx="-304.53775"
     cy="-28.45974"
     id="circle21751" />
  <path
     style="fill:none;stroke:#000000;stroke-width:0.05mm"
     d="m -179.10747,-230.32299 c -2.3311,-3.93041 -1.7013,-8.94102 1.52996,-12.17228 l 0.17858,-0.17857 c 1.82823,-1.82824 4.29352,-2.87732 6.87855,-2.92709 3.83025,-0.0737 6.88969,-3.21275 6.86512,-7.04362 -0.0246,-3.83088 -3.12406,-6.93035 -6.95494,-6.95494 -3.83089,-0.0246 -6.96988,3.03487 -7.04364,6.86511 -0.0498,2.58502 -1.09884,5.05032 -2.92707,6.87855 l -0.17858,0.17858 c -3.23126,3.23126 -8.24187,3.86106 -12.17228,1.52996 -12.42288,-7.36792 -27.87666,-7.36792 -40.29955,1e-5"
     id="path21753" />
  <circle
     transform="matrix(0.70710678,0.70710678,0.70710678,-0.70710678,0,0)"
     style="fill:none;stroke:#ff0000;stroke-width:0.05mm"
     r="0.75000024"
     cx="-294.55875"
     cy="-28.442741"
     id="circle21755" />
  <path
     style="fill:none;stroke:#ff0000;stroke-width:0.05mm"
     d="m -231.99666,-194.44008 3.18199,3.18198 -3.18199,3.18199 -3.18198,-3.18199 z"
     id="path21757" />
  <circle
     transform="matrix(0.70710678,0.70710678,0.70710678,-0.70710678,0,0)"
     style="fill:none;stroke:#ff0000;stroke-width:0.05mm"
     r="0.75000024"
     cx="-280.24475"
     cy="26.712479"
     id="circle21759" />
  <circle
     transform="matrix(0.70710678,0.70710678,0.70710678,-0.70710678,0,0)"
     style="fill:none;stroke:#ff0000;stroke-width:0.05mm"
     r="0.75000024"
     cx="-294.03473"
     cy="24.34549"
     id="circle21761" />
  <path
     style="fill:none;stroke:#ff0000;stroke-width:0.05mm"
     d="m -197.34842,-191.2581 3.18198,-3.18198 3.18198,3.18198 -3.18198,3.18198 z"
     id="path21763" />
  <circle
     transform="matrix(0.70710678,0.70710678,0.70710678,-0.70710678,0,0)"
     style="fill:none;stroke:#ff0000;stroke-width:0.05mm"
     r="0.75000024"
     cx="-325.68875"
     cy="3.1948783"
     id="circle21765" />
  <circle
     transform="matrix(0.70710678,0.70710678,0.70710678,-0.70710678,0,0)"
     style="fill:none;stroke:#ff0000;stroke-width:0.05mm"
     r="0.75000024"
     cx="-271.04175"
     cy="-21.081734"
     id="circle21767" />
  <circle
     transform="matrix(0.70710678,0.70710678,0.70710678,-0.70710678,0,0)"
     style="fill:none;stroke:#ff0000;stroke-width:0.05mm"
     r="0.75000024"
     cx="-272.88373"
     cy="3.1948783"
     id="circle21769" />
  <circle
     transform="matrix(0.70710678,0.70710678,0.70710678,-0.70710678,0,0)"
     style="fill:none;stroke:#ff0000;stroke-width:0.05mm"
     r="4.0000014"
     cx="-359.28677"
     cy="-2.0569375"
     id="circle21771" />
  <circle
     transform="matrix(0.70710678,0.70710678,0.70710678,-0.70710678,0,0)"
     style="fill:none;stroke:#ff0000;stroke-width:0.05mm"
     r="0.75000024"
     cx="-333.15274"
     cy="4.5259786"
     id="circle21773" />
  <circle
     transform="matrix(0.70710678,0.70710678,0.70710678,-0.70710678,0,0)"
     style="fill:none;stroke:#ff0000;stroke-width:0.05mm"
     r="4.0000014"
     cx="-299.28674"
     cy="57.943497"
     id="circle21775" />
  <circle
     transform="matrix(0.70710678,0.70710678,0.70710678,-0.70710678,0,0)"
     style="fill:none;stroke:#ff0000;stroke-width:0.05mm"
     r="0.75000024"
     cx="-292.93274"
     cy="-35.847725"
     id="circle21777" />
  <circle
     transform="matrix(0.70710678,0.70710678,0.70710678,-0.70710678,0,0)"
     style="fill:none;stroke:#ff0000;stroke-width:0.05mm"
     r="0.75000024"
     cx="-333.09375"
     cy="-8.9347296"
     id="circle21779" />
  <path
     style="fill:none;stroke:#ff0000;stroke-width:0.05mm"
     d="m -281.48185,-210.40765 -3.18199,-3.18198 3.18199,-3.18198 3.18198,3.18198 z"
     id="path21781" />
  <circle
     transform="matrix(0.70710678,0.70710678,0.70710678,-0.70710678,0,0)"
     style="fill:none;stroke:#ff0000;stroke-width:0.05mm"
     r="0.75000024"
     cx="-323.66583"
     cy="-80.008278"
     id="circle21783" />
  <circle
     transform="matrix(0.70710678,0.70710678,0.70710678,-0.70710678,0,0)"
     style="fill:none;stroke:#ff0000;stroke-width:0.05mm"
     r="0.75000024"
     cx="-331.02682"
     cy="-45.987495"
     id="circle21785" />
  <path
     style="fill:none;stroke:#000000;stroke-width:0.05mm"
     d="m -309.76691,-169.07563 c 2.90111,-4.03576 4.10529,-9.04765 3.3543,-13.96089 l -1.27279,-1.2728 -3.18199,3.18199 -1.27279,-1.2728 3.18198,-3.18198 -1.27279,-1.27279 -3.18198,3.18198 -1.27279,-1.27279 3.18198,-3.18198 -1.27279,-1.27279 c -4.91324,-0.75099 -9.92513,0.45319 -13.9609,3.35429 -2.02439,-5.83688 -2.02439,-12.1854 0,-18.0223"
     id="path21787" />
  <path
     style="fill:none;stroke:#ff0000;stroke-width:0.05mm"
     d="m -319.31208,-178.94138 3.18198,3.18198 -3.18198,3.18198 -3.18198,-3.18198 z"
     id="path21789" />
  <circle
     transform="matrix(0.70710678,0.70710678,0.70710678,-0.70710678,0,0)"
     style="fill:none;stroke:#ff0000;stroke-width:0.05mm"
     r="0.75000024"
     cx="-316.20184"
     cy="-81.339302"
     id="circle21791" />
  <circle
     transform="matrix(0.70710678,0.70710678,0.70710678,-0.70710678,0,0)"
     style="fill:none;stroke:#ff0000;stroke-width:0.05mm"
     r="4.0000014"
     cx="-350.06836"
     cy="-134.75728"
     id="circle21793" />
  <path
     style="fill:none;stroke:#000000;stroke-width:0.05mm"
     d="m -309.7669,-169.07562 c 5.8369,2.02439 12.18541,2.02438 18.0223,0 -2.9011,-4.03577 -4.10529,-9.04766 -3.35429,-13.9609 l 1.27278,-1.2728 3.18198,3.18199 1.27279,-1.2728 -3.18198,-3.18198 1.2728,-1.2728 3.18198,3.18199 1.27279,-1.27279 -3.18198,-3.18198 1.27279,-1.2728 c 4.91324,-0.75098 9.92513,0.45319 13.96091,3.3543 2.02438,-5.83689 2.02438,-12.18542 -1e-5,-18.02231 -4.03577,2.90111 -9.04766,4.10529 -13.96089,3.3543 l -1.2728,-1.27279 3.18198,-3.18199 -1.27279,-1.27279 -3.18198,3.18198 -1.27279,-1.27279 3.18198,-3.18198 -1.2728,-1.27279 -3.18198,3.18198 -1.27279,-1.27279 c -0.75099,-4.91324 0.45319,-9.92513 3.35429,-13.9609 -5.83688,-2.02439 -12.18541,-2.02439 -18.0223,0 2.90112,4.03577 4.10529,9.04766 3.3543,13.9609 l -1.27279,1.27279 -3.18199,-3.18198 -1.27279,1.27279 3.18199,3.18198 -1.2728,1.2728 -3.18198,-3.18199 -1.27279,1.2728 3.18198,3.18198 -1.27279,1.27279 c -4.91324,0.75099 -9.92513,-0.45318 -13.9609,-3.3543"
     id="path21795" />
  <circle
     transform="matrix(0.70710678,0.70710678,0.70710678,-0.70710678,0,0)"
     style="fill:none;stroke:#ff0000;stroke-width:0.05mm"
     r="0.75000024"
     cx="-355.32025"
     cy="-48.354469"
     id="circle21797" />
  <circle
     transform="matrix(0.70710678,0.70710678,0.70710678,-0.70710678,0,0)"
     style="fill:none;stroke:#ff0000;stroke-width:0.05mm"
     r="0.75000024"
     cx="-356.65125"
     cy="-108.6233"
     id="circle21799" />
  <circle
     transform="matrix(0.70710678,0.70710678,0.70710678,-0.70710678,0,0)"
     style="fill:none;stroke:#ff0000;stroke-width:0.05mm"
     r="0.75000024"
     cx="-383.93454"
     cy="-68.173988"
     id="circle21801" />
  <circle
     transform="matrix(0.70710678,0.70710678,0.70710678,-0.70710678,0,0)"
     style="fill:none;stroke:#ff0000;stroke-width:0.05mm"
     r="0.75000024"
     cx="-369.11014"
     cy="-103.52628"
     id="circle21803" />
  <circle
     transform="matrix(0.70710678,0.70710678,0.70710678,-0.70710678,0,0)"
     style="fill:none;stroke:#ff0000;stroke-width:0.05mm"
     r="0.75000024"
     cx="-378.67017"
     cy="-94.049294"
     id="circle21805" />
  <circle
     transform="matrix(0.70710678,0.70710678,0.70710678,-0.70710678,0,0)"
     style="fill:none;stroke:#ff0000;stroke-width:0.05mm"
     r="0.75000024"
     cx="-355.32025"
     cy="-101.15928"
     id="circle21807" />
  <circle
     transform="matrix(0.70710678,0.70710678,0.70710678,-0.70710678,0,0)"
     style="fill:none;stroke:#ff0000;stroke-width:0.05mm"
     r="0.75000024"
     cx="-316.26083"
     cy="-67.8787"
     id="circle21809" />
  <circle
     transform="matrix(0.70710678,0.70710678,0.70710678,-0.70710678,0,0)"
     style="fill:none;stroke:#ff0000;stroke-width:0.05mm"
     r="0.75000024"
     cx="-369.36053"
     cy="-46.155495"
     id="circle21811" />
  <circle
     transform="matrix(0.70710678,0.70710678,0.70710678,-0.70710678,0,0)"
     style="fill:none;stroke:#ff0000;stroke-width:0.05mm"
     r="0.75000024"
     cx="-331.30081"
     cy="-103.34229"
     id="circle21813" />
  <circle
     transform="matrix(0.70710678,0.70710678,0.70710678,-0.70710678,0,0)"
     style="fill:none;stroke:#ff0000;stroke-width:0.05mm"
     r="4.0000014"
     cx="-410.06836"
     cy="-74.757301"
     id="circle21815" />
  <circle
     transform="matrix(0.70710678,0.70710678,0.70710678,-0.70710678,0,0)"
     style="fill:none;stroke:#ff0000;stroke-width:0.05mm"
     r="0.75000024"
     cx="-323.66583"
     cy="-69.505287"
     id="circle21817" />
  <circle
     transform="matrix(0.70710678,0.70710678,0.70710678,-0.70710678,0,0)"
     style="fill:none;stroke:#ff0000;stroke-width:0.05mm"
     r="0.75000024"
     cx="-376.47125"
     cy="-80.008278"
     id="circle21819" />
  <circle
     transform="matrix(0.70710678,0.70710678,0.70710678,-0.70710678,0,0)"
     style="fill:none;stroke:#ff0000;stroke-width:0.05mm"
     r="0.75000024"
     cx="-343.71463"
     cy="-108.54728"
     id="circle21821" />
  <circle
     transform="matrix(0.70710678,0.70710678,0.70710678,-0.70710678,0,0)"
     style="fill:none;stroke:#ff0000;stroke-width:0.05mm"
     r="0.75000024"
     cx="-378.83743"
     cy="-55.715492"
     id="circle21823" />
  <circle
     transform="matrix(0.70710678,0.70710678,0.70710678,-0.70710678,0,0)"
     style="fill:none;stroke:#ff0000;stroke-width:0.05mm"
     r="0.75000024"
     cx="-321.82382"
     cy="-93.782295"
     id="circle21825" />
  <circle
     transform="matrix(0.70710678,0.70710678,0.70710678,-0.70710678,0,0)"
     style="fill:none;stroke:#ff0000;stroke-width:0.05mm"
     r="0.75000024"
     cx="-343.48541"
     cy="-40.89048"
     id="circle21827" />
  <circle
     transform="matrix(0.70710678,0.70710678,0.70710678,-0.70710678,0,0)"
     style="fill:none;stroke:#ff0000;stroke-width:0.05mm"
     r="0.75000024"
     cx="-383.87576"
     cy="-81.635292"
     id="circle21829" />
  <circle
     transform="matrix(0.70710678,0.70710678,0.70710678,-0.70710678,0,0)"
     style="fill:none;stroke:#ff0000;stroke-width:0.05mm"
     r="0.75000024"
     cx="-356.94653"
     cy="-40.949471"
     id="circle21831" />
  <path
     style="fill:none;stroke:#000000;stroke-width:0.05mm"
     d="m -266.78168,-215.20711 c 7.36792,12.42288 7.36791,27.87666 0,40.29954 -2.3311,3.93041 -1.7013,8.94103 1.52996,12.17228 l 0.17858,0.17858 c 1.82823,1.82824 4.29353,2.87731 6.87857,2.92709 3.83024,0.0737 6.88967,3.21273 6.8651,7.04362 -0.0246,3.83088 -3.12407,6.93035 -6.95494,6.95493 -3.83088,0.0246 -6.96989,-3.03485 -7.04364,-6.8651 -0.0498,-2.58503 -1.09884,-5.05032 -2.92707,-6.87856 l -0.17858,-0.17857 c -3.23126,-3.23126 -8.24187,-3.86106 -12.17228,-1.52997 -12.42287,7.36792 -27.87666,7.36792 -40.29955,0 -3.93041,-2.3311 -8.94102,-1.7013 -12.17228,1.52996 l -0.17858,0.17859 c -1.82823,1.82823 -2.87731,4.29351 -2.92709,6.87855 -0.0737,3.83025 -3.21275,6.88969 -7.04361,6.86511 -3.83088,-0.0246 -6.93035,-3.12405 -6.95494,-6.95494 -0.0246,-3.83087 3.03485,-6.96988 6.8651,-7.04363 2.58503,-0.0498 5.05032,-1.09884 6.87856,-2.92707 l 0.17858,-0.17859 c 3.23126,-3.23126 3.86106,-8.24187 1.52996,-12.17228 -7.36792,-12.42287 -7.36791,-27.87666 10e-6,-40.29954 2.33109,-3.93042 1.70129,-8.94103 -1.52997,-12.17229 l -0.17858,-0.17858 c -1.82824,-1.82824 -4.29353,-2.87731 -6.87857,-2.92708 -3.83024,-0.0737 -6.88968,-3.21275 -6.86509,-7.04362 0.0246,-3.83088 3.12406,-6.93036 6.95493,-6.95495 3.83088,-0.0246 6.96988,3.03486 7.04363,6.8651 0.0498,2.58505 1.09885,5.05033 2.92708,6.87857 l 0.17858,0.17858 c 3.23126,3.23126 8.24187,3.86106 12.17228,1.52996"
     id="path21833" />
  <circle
     transform="matrix(0.70710678,0.70710678,0.70710678,-0.70710678,0,0)"
     style="fill:none;stroke:#ff0000;stroke-width:0.05mm"
     r="0.75000024"
     cx="-345.34103"
     cy="-101.14329"
     id="circle21835" />
  <circle
     transform="matrix(0.70710678,0.70710678,0.70710678,-0.70710678,0,0)"
     style="fill:none;stroke:#ff0000;stroke-width:0.05mm"
     r="4.0000014"
     cx="-290.06882"
     cy="-74.757271"
     id="circle21837" />
  <circle
     transform="matrix(0.70710678,0.70710678,0.70710678,-0.70710678,0,0)"
     style="fill:none;stroke:#ff0000;stroke-width:0.05mm"
     r="4.0000014"
     cx="-350.06836"
     cy="-14.756476"
     id="circle21839" />
  <path
     style="fill:none;stroke:#ff0000;stroke-width:0.05mm"
     d="m -316.1301,-213.58963 -3.18198,3.18198 -3.18198,-3.18198 3.18198,-3.18198 z"
     id="path21841" />
  <circle
     transform="matrix(0.70710678,0.70710678,0.70710678,-0.70710678,0,0)"
     style="fill:none;stroke:#ff0000;stroke-width:0.05mm"
     r="0.75000024"
     cx="-344.81656"
     cy="-48.354469"
     id="circle21843" />
  <circle
     transform="matrix(0.70710678,0.70710678,0.70710678,-0.70710678,0,0)"
     style="fill:none;stroke:#ff0000;stroke-width:0.05mm"
     r="0.75000024"
     cx="-321.46683"
     cy="-55.464485"
     id="circle21845" />
  <circle
     transform="matrix(0.70710678,0.70710678,0.70710678,-0.70710678,0,0)"
     style="fill:none;stroke:#ff0000;stroke-width:0.05mm"
     r="0.75000024"
     cx="-376.47125"
     cy="-69.505287"
     id="circle21847" />
  <path
     style="fill:none;stroke:#000000;stroke-width:0.05mm"
     d="m -266.42289,-214.8243 c -2.3311,-3.9304 -1.7013,-8.94101 1.52996,-12.17227 l 0.17858,-0.17858 c 1.82823,-1.82823 4.29351,-2.87731 6.87855,-2.92708 3.83025,-0.0738 6.88969,-3.21276 6.86511,-7.04362 -0.0246,-3.83088 -3.12405,-6.93035 -6.95493,-6.95494 -3.83089,-0.0246 -6.96988,3.03486 -7.04364,6.8651 -0.0498,2.58503 -1.09884,5.05033 -2.92707,6.87856 l -0.17858,0.17858 c -3.23126,3.23126 -8.24187,3.86106 -12.17228,1.52996 -12.42289,-7.36792 -27.87666,-7.36792 -40.29955,1e-5"
     id="path21849" />
  <path
     style="fill:none;stroke:#ff0000;stroke-width:0.05mm"
     d="m -284.66384,-175.7594 3.18198,-3.18199 3.18198,3.18199 -3.18198,3.18198 z"
     id="path21851" />
  <text
     xml:space="preserve"
     style="font-size:11.5259px;font-family:'Courier New';-inkscape-font-specification:'Courier New';fill:none;stroke:#000000;stroke-width:0.36302;stroke-linecap:round;stroke-linejoin:round"
     x="-495.29404"
     y="-304.02283"
     id="text21855"><tspan
       sodipodi:role="line"
       id="tspan21853"
       style="stroke-width:0.36302"
       x="-495.29404"
       y="-304.02283">4.5 mm</tspan></text>
  <text
     xml:space="preserve"
     style="font-size:11.5259px;font-family:'Courier New';-inkscape-font-specification:'Courier New';fill:none;stroke:#000000;stroke-width:0.36302;stroke-linecap:round;stroke-linejoin:round"
     x="-276.4169"
     y="-287.68872"
     id="text21859"><tspan
       sodipodi:role="line"
       id="tspan21857"
       style="stroke-width:0.36302"
       x="-276.4169"
       y="-287.68872">2.5 mm</tspan></text>
</svg>
