<?xml version="1.0" encoding="UTF-8" standalone="no"?>
<svg
   width="553.301mm"
   height="439.589mm"
   viewBox="-198.301193 -439.588043 553.301270 439.588531"
   version="1.1"
   id="svg23602"
   sodipodi:docname="side_racks_holders.svg"
   inkscape:version="1.2.1 (9c6d41e, 2022-07-14)"
   xmlns:inkscape="http://www.inkscape.org/namespaces/inkscape"
   xmlns:sodipodi="http://sodipodi.sourceforge.net/DTD/sodipodi-0.dtd"
   xmlns="http://www.w3.org/2000/svg"
   xmlns:svg="http://www.w3.org/2000/svg">
  <defs
     id="defs23606" />
  <sodipodi:namedview
     id="namedview23604"
     pagecolor="#ffffff"
     bordercolor="#000000"
     borderopacity="0.25"
     inkscape:showpageshadow="2"
     inkscape:pageopacity="0.0"
     inkscape:pagecheckerboard="0"
     inkscape:deskcolor="#d1d1d1"
     inkscape:document-units="mm"
     showgrid="false"
     inkscape:zoom="0.59104355"
     inkscape:cx="716.52927"
     inkscape:cy="765.59503"
     inkscape:window-width="2560"
     inkscape:window-height="1387"
     inkscape:window-x="0"
     inkscape:window-y="215"
     inkscape:window-maximized="1"
     inkscape:current-layer="svg23602" />
  <path
     transform="matrix(1,0,0,-1,-58,282)"
     style="stroke:#000000;stroke-width:0.05mm;fill:none"
     d="M58,282L268,282"
     id="path22688" />
  <path
     style="fill:none;stroke:#ff0000;stroke-width:0.05mm"
     d="m 196.37168,-269.63674 c -0.41405,1.4e-4 -0.74968,0.33588 -0.7497,0.74998 -1e-5,0.41409 0.33559,0.74984 0.7497,0.75002 0.41405,-1.5e-4 0.74968,-0.33587 0.74969,-0.74997 2e-5,-0.4141 -0.33558,-0.74986 -0.74969,-0.75003 z"
     id="path22690" />
  <path
     style="fill:none;stroke:#ff0000;stroke-width:0.05mm"
     d="m 213.37168,-257.13674 c -0.4137,7.2e-4 -0.7487,0.33628 -0.7487,0.74999 0,0.41371 0.33499,0.74928 0.7487,0.75001 0.4137,-7.2e-4 0.7487,-0.33629 0.7487,-0.75 0,-0.4137 -0.33499,-0.74928 -0.7487,-0.75 z"
     id="path22692" />
  <path
     style="fill:none;stroke:#ff0000;stroke-width:0.05mm"
     d="m -24.972059,-272.13673 c -0.414063,1.3e-4 -0.749687,0.33587 -0.749703,0.74997 -1.5e-5,0.41409 0.335579,0.74985 0.749703,0.75002 0.414062,-1.4e-4 0.749687,-0.33585 0.749702,-0.74997 1.6e-5,-0.41409 -0.335579,-0.74984 -0.749702,-0.75002 z"
     id="path22694" />
  <path
     style="fill:none;stroke:#ff0000;stroke-width:0.05mm"
     d="m 120.12168,-273.13673 c -0.4137,7.1e-4 -0.7487,0.33629 -0.7487,0.75 0,0.41369 0.33499,0.74928 0.7487,0.75 0.4137,-7.2e-4 0.74869,-0.33629 0.74869,-0.75 1e-5,-0.4137 -0.33498,-0.74929 -0.74869,-0.75 z"
     id="path22696" />
  <path
     style="fill:none;stroke:#ff0000;stroke-width:0.05mm"
     d="m 24.621679,-273.13673 c -0.413697,7.1e-4 -0.748695,0.33629 -0.748698,0.75 -4e-6,0.41369 0.334988,0.74928 0.748698,0.75 0.413696,-7.2e-4 0.748694,-0.33629 0.748697,-0.75 4e-6,-0.4137 -0.334988,-0.74929 -0.748697,-0.75 z"
     id="path22698" />
  <path
     style="fill:none;stroke:#ff0000;stroke-width:0.05mm"
     d="m 169.71541,-272.13673 c -0.41404,1.3e-4 -0.74968,0.33587 -0.74969,0.74997 -2e-5,0.41409 0.33559,0.74985 0.74969,0.75002 0.41405,-1.4e-4 0.74968,-0.33585 0.7497,-0.74997 1e-5,-0.41409 -0.33559,-0.74984 -0.7497,-0.75002 z"
     id="path22700" />
  <path
     style="fill:none;stroke:#000000;stroke-width:0.05mm"
     d="m 211.04433,-251.81555 c 0.12515,0.0401 0.25113,0.0774 0.37792,0.11196"
     id="path22702" />
  <path
     style="fill:none;stroke:#000000;stroke-width:0.05mm"
     d="m 211.04433,-251.81555 c -0.89352,-0.28616 -1.79156,-0.56868 -2.6882,-0.8457"
     id="path22704" />
  <path
     style="fill:none;stroke:#000000;stroke-width:0.05mm"
     d="m 208.35613,-252.66125 c 0.10504,-0.34198 0.0194,-0.71402 -0.22458,-0.97566 -0.24399,-0.26164 -0.60916,-0.373 -0.95763,-0.29204 -0.34846,0.0809 -0.62715,0.34189 -0.7308,0.68428"
     id="path22706" />
  <path
     style="fill:none;stroke:#000000;stroke-width:0.05mm"
     d="m 206.44312,-253.24467 c -0.93237,-0.28065 -1.86917,-0.55719 -2.80508,-0.82803"
     id="path22708" />
  <path
     style="fill:none;stroke:#000000;stroke-width:0.05mm"
     d="m 203.63804,-254.0727 c 0.10629,-0.36975 0.007,-0.7681 -0.2605,-1.04465 -0.26747,-0.27654 -0.66228,-0.38913 -1.03537,-0.29525 -0.37309,0.0939 -0.6676,0.37993 -0.77233,0.75013"
     id="path22710" />
  <path
     style="fill:none;stroke:#000000;stroke-width:0.05mm"
     d="m 201.56984,-254.66247 c -0.93742,-0.26336 -1.87919,-0.52253 -2.81991,-0.776"
     id="path22712" />
  <path
     style="fill:none;stroke:#000000;stroke-width:0.05mm"
     d="m 198.74994,-255.43847 c 0.0927,-0.34565 -0.006,-0.71451 -0.2597,-0.96721 -0.2534,-0.25273 -0.62254,-0.35075 -0.96794,-0.25705 -0.3454,0.0937 -0.6144,0.36483 -0.70535,0.71096"
     id="path22714" />
  <path
     style="fill:none;stroke:#000000;stroke-width:0.05mm"
     d="m 196.81693,-255.95177 c -1.00752,-0.26364 -2.01659,-0.52153 -3.02772,-0.77383"
     id="path22716" />
  <path
     style="fill:none;stroke:#000000;stroke-width:0.05mm"
     d="m 193.78921,-256.72561 c 0.0755,-0.30383 -0.0171,-0.62485 -0.24279,-0.84181 -0.22571,-0.21697 -0.55012,-0.29681 -0.85074,-0.2094 -0.30061,0.0874 -0.53161,0.3288 -0.60575,0.63296"
     id="path22718" />
  <path
     style="fill:none;stroke:#000000;stroke-width:0.05mm"
     d="m 192.08993,-257.14386 c -1.09519,-0.26584 -2.18683,-0.52373 -3.28464,-0.776"
     id="path22720" />
  <path
     style="fill:none;stroke:#000000;stroke-width:0.05mm"
     d="m 188.8053,-257.91984 c 0.0601,-0.26162 -0.0242,-0.5354 -0.22105,-0.7179 -0.19685,-0.1825 -0.47621,-0.24588 -0.73254,-0.1662 -0.25632,0.0797 -0.45054,0.29026 -0.50922,0.55219"
     id="path22722" />
  <path
     style="fill:none;stroke:#000000;stroke-width:0.05mm"
     d="m 187.34247,-258.25175 c -1.13749,-0.25484 -2.27911,-0.50295 -3.42019,-0.7433"
     id="path22724" />
  <path
     style="fill:none;stroke:#000000;stroke-width:0.05mm"
     d="m 183.92228,-258.99505 c 0.0549,-0.26249 -0.0345,-0.53436 -0.23456,-0.71299 -0.20004,-0.17862 -0.48024,-0.23684 -0.73488,-0.15271 -0.25465,0.0842 -0.44498,0.29787 -0.49919,0.56052"
     id="path22726" />
  <path
     style="fill:none;stroke:#000000;stroke-width:0.05mm"
     d="m 182.45365,-259.30023 c -1.14197,-0.23406 -2.28792,-0.46132 -3.43318,-0.68085"
     id="path22728" />
  <path
     style="fill:none;stroke:#000000;stroke-width:0.05mm"
     d="m 179.02047,-259.98108 c 0.0769,-0.40702 -0.19077,-0.79928 -0.59778,-0.87617 -0.40703,-0.0768 -0.7993,0.19077 -0.87618,0.59781"
     id="path22730" />
  <path
     style="fill:none;stroke:#000000;stroke-width:0.05mm"
     d="m 177.54651,-260.25944 c -1.14601,-0.2132 -2.29592,-0.41953 -3.44502,-0.61816"
     id="path22732" />
  <path
     style="fill:none;stroke:#000000;stroke-width:0.05mm"
     d="m 174.10149,-260.87761 c 0.0694,-0.40835 -0.20532,-0.79569 -0.61366,-0.86512 -0.40836,-0.0694 -0.79569,0.20532 -0.86511,0.61366"
     id="path22734" />
  <path
     style="fill:none;stroke:#000000;stroke-width:0.05mm"
     d="m 172.62273,-261.12907 c -1.23356,-0.20626 -2.46617,-0.40376 -3.70282,-0.59323"
     id="path22736" />
  <path
     style="fill:none;stroke:#000000;stroke-width:0.05mm"
     d="m 168.91991,-261.72232 c 0.027,-0.17673 -0.0424,-0.35445 -0.1821,-0.46606 -0.13968,-0.11164 -0.3283,-0.14019 -0.49475,-0.0749 -0.16646,0.0653 -0.28537,0.2145 -0.31189,0.3913"
     id="path22738" />
  <path
     style="fill:none;stroke:#000000;stroke-width:0.05mm"
     d="m 167.93117,-261.87197 c -1.31932,-0.19722 -2.63788,-0.38448 -3.96028,-0.56253"
     id="path22740" />
  <path
     style="fill:none;stroke:#000000;stroke-width:0.05mm"
     d="m 163.97089,-262.43449 c 0.0239,-0.17723 -0.0488,-0.35372 -0.19049,-0.46284 -0.14169,-0.10911 -0.33089,-0.13422 -0.49615,-0.0659 -0.16526,0.0684 -0.28144,0.21978 -0.30466,0.39711"
     id="path22742" />
  <path
     style="fill:none;stroke:#000000;stroke-width:0.05mm"
     d="m 162.97959,-262.56609 c -1.32272,-0.17314 -2.64449,-0.33637 -3.96988,-0.49024"
     id="path22744" />
  <path
     style="fill:none;stroke:#000000;stroke-width:0.05mm"
     d="m 159.00971,-263.05633 c 0.0314,-0.27437 -0.16565,-0.52219 -0.44002,-0.55354 -0.27435,-0.0313 -0.52217,0.16566 -0.55353,0.44003"
     id="path22746" />
  <path
     style="fill:none;stroke:#000000;stroke-width:0.05mm"
     d="m 158.01616,-263.16984 c -10.17466,-1.14369 -20.40573,-1.7169 -30.64448,-1.7169"
     id="path22748" />
  <path
     style="fill:none;stroke:#000000;stroke-width:0.05mm"
     d="M 17.371688,-264.88673 H 127.37168"
     id="path22750" />
  <path
     style="fill:none;stroke:#000000;stroke-width:0.05mm"
     d="m 17.37168,-264.88674 c -10.2386941,-1e-5 -20.4697691,0.5732 -30.644498,1.7169"
     id="path22752" />
  <path
     style="fill:none;stroke:#000000;stroke-width:0.05mm"
     d="m -13.272818,-263.16984 c -0.03135,-0.27437 -0.279167,-0.47136 -0.553524,-0.44001 -0.274356,0.0313 -0.471359,0.27915 -0.440013,0.55352"
     id="path22754" />
  <path
     style="fill:none;stroke:#000000;stroke-width:0.05mm"
     d="m -14.266352,-263.05633 c -1.325111,0.15385 -2.646869,0.31708 -3.969875,0.49024"
     id="path22756" />
  <path
     style="fill:none;stroke:#000000;stroke-width:0.05mm"
     d="m -18.236231,-262.56609 c -0.02333,-0.17724 -0.139507,-0.32852 -0.30471,-0.39682 -0.165207,-0.0683 -0.354302,-0.0432 -0.495964,0.0658 -0.141667,0.10903 -0.214348,0.28539 -0.190628,0.46258"
     id="path22758" />
  <path
     style="fill:none;stroke:#000000;stroke-width:0.05mm"
     d="m -19.227533,-262.43449 c -1.322003,0.17798 -2.640564,0.36526 -3.960282,0.56252"
     id="path22760" />
  <path
     style="fill:none;stroke:#000000;stroke-width:0.05mm"
     d="m -23.187815,-261.87197 c -0.02652,-0.17682 -0.145435,-0.326 -0.311878,-0.3913 -0.166447,-0.0653 -0.355087,-0.0367 -0.494751,0.0749 -0.139667,0.11161 -0.209102,0.28933 -0.18211,0.46606"
     id="path22762" />
  <path
     style="fill:none;stroke:#000000;stroke-width:0.05mm"
     d="m -24.176554,-261.72232 c -1.236259,0.18943 -2.468868,0.38691 -3.702812,0.59324"
     id="path22764" />
  <path
     style="fill:none;stroke:#000000;stroke-width:0.05mm"
     d="m -27.87937,-261.12907 c -0.04455,-0.2645 -0.226974,-0.48507 -0.478408,-0.57846 -0.251439,-0.0934 -0.533616,-0.0454 -0.740048,0.12584 -0.206428,0.17126 -0.305687,0.43972 -0.260315,0.70408"
     id="path22766" />
  <path
     style="fill:none;stroke:#000000;stroke-width:0.05mm"
     d="m -29.358141,-260.87761 c -1.148624,0.19854 -2.298542,0.40487 -3.445022,0.61817"
     id="path22768" />
  <path
     style="fill:none;stroke:#000000;stroke-width:0.05mm"
     d="m -42.599131,-258.25175 c -0.0587,-0.26193 -0.252899,-0.47252 -0.509223,-0.55219 -0.256333,-0.0797 -0.535698,-0.0163 -0.732537,0.1662 -0.196846,0.1825 -0.281143,0.45628 -0.221054,0.7179"
     id="path22770" />
  <path
     style="fill:none;stroke:#000000;stroke-width:0.05mm"
     d="m -47.346575,-257.14386 c -0.07415,-0.30416 -0.305153,-0.54552 -0.605774,-0.63296 -0.300613,-0.0874 -0.62503,-0.008 -0.850731,0.2094 -0.225692,0.21696 -0.318275,0.53798 -0.242774,0.84181"
     id="path22772" />
  <path
     style="fill:none;stroke:#000000;stroke-width:0.05mm"
     d="m -56.826494,-254.66247 c -0.104714,-0.37019 -0.399223,-0.65624 -0.772308,-0.75012 -0.373093,-0.0939 -0.767907,0.0187 -1.03537,0.29524 -0.267456,0.27655 -0.366799,0.6749 -0.260514,1.04465"
     id="path22774" />
  <path
     style="fill:none;stroke:#000000;stroke-width:0.05mm"
     d="m 207.37162,-280.88661 v 7.99994"
     id="path22776" />
  <path
     style="fill:none;stroke:#000000;stroke-width:0.05mm"
     d="m 207.37162,-272.88667 h 9.00007"
     id="path22778" />
  <path
     style="fill:none;stroke:#000000;stroke-width:0.05mm"
     d="m 216.37169,-261.38682 v -11.49985"
     id="path22780" />
  <path
     style="fill:none;stroke:#000000;stroke-width:0.05mm"
     d="M 232.37157,-261.38682 H 216.37169"
     id="path22782" />
  <path
     style="fill:none;stroke:#000000;stroke-width:0.05mm"
     d="m 232.37157,-251.38663 v -10.00019"
     id="path22784" />
  <path
     style="fill:none;stroke:#000000;stroke-width:0.05mm"
     d="M 232.37157,-251.38663 H 213.78936"
     id="path22786" />
  <path
     style="fill:none;stroke:#000000;stroke-width:0.05mm"
     d="m 213.39522,-251.39537 c 0.13127,0.006 0.26264,0.009 0.39405,0.009"
     id="path22788" />
  <path
     style="fill:none;stroke:#000000;stroke-width:0.05mm"
     d="m 213.39522,-251.39537 c 0.0526,-0.52807 -0.31639,-1.00529 -0.84073,-1.0872 -0.52432,-0.0819 -1.02131,0.26001 -1.13224,0.77898"
     id="path22790" />
  <path
     style="fill:none;stroke:#000000;stroke-width:0.05mm"
     d="m -69.045908,-251.38674 c 0.131142,-1.2e-4 0.262505,-0.003 0.394051,-0.009"
     id="path22792" />
  <path
     style="fill:none;stroke:#000000;stroke-width:0.05mm"
     d="m -37.710291,-259.30023 c -0.08427,-0.40556 -0.481354,-0.66599 -0.886902,-0.58173 -0.405555,0.0843 -0.666,0.48135 -0.581726,0.88691"
     id="path22794" />
  <path
     style="fill:none;stroke:#000000;stroke-width:0.05mm"
     d="m -52.07358,-255.95177 c -0.09096,-0.34613 -0.359955,-0.61726 -0.705352,-0.71096 -0.345398,-0.0937 -0.714531,0.004 -0.967942,0.25705 -0.25341,0.2527 -0.352447,0.62156 -0.259704,0.96722"
     id="path22796" />
  <path
     style="fill:none;stroke:#000000;stroke-width:0.05mm"
     d="m -32.803163,-260.25944 c -0.04942,-0.2636 -0.235829,-0.48075 -0.4889,-0.56952 -0.253067,-0.0888 -0.534279,-0.0357 -0.737537,0.1393 -0.203259,0.17496 -0.297627,0.44515 -0.247505,0.70859"
     id="path22798" />
  <path
     style="fill:none;stroke:#000000;stroke-width:0.05mm"
     d="m -66.678881,-251.70359 c 0.126786,-0.0346 0.252755,-0.0719 0.377907,-0.11196"
     id="path22800" />
  <path
     style="fill:none;stroke:#000000;stroke-width:0.05mm"
     d="m -62.62826,-272.88667 h -9.000068"
     id="path22802" />
  <path
     style="fill:none;stroke:#000000;stroke-width:0.05mm"
     d="m -62.62826,-280.88661 v 7.99994"
     id="path22804" />
  <path
     style="fill:none;stroke:#000000;stroke-width:0.05mm"
     d="M 207.37162,-280.88661 H -62.62826"
     id="path22806" />
  <path
     style="fill:none;stroke:#000000;stroke-width:0.05mm"
     d="m -66.678881,-251.70359 c -0.1109,-0.51899 -0.607917,-0.86095 -1.13227,-0.77904 -0.524346,0.0819 -0.893387,0.55917 -0.840714,1.08726"
     id="path22808" />
  <path
     style="fill:none;stroke:#000000;stroke-width:0.05mm"
     d="m -61.699755,-253.24467 c -0.10366,-0.3424 -0.382339,-0.60334 -0.730812,-0.68428 -0.348472,-0.081 -0.713638,0.0304 -0.957626,0.29205 -0.243988,0.26163 -0.32962,0.63368 -0.224571,0.97565"
     id="path22810" />
  <path
     style="fill:none;stroke:#000000;stroke-width:0.05mm"
     d="m -87.628199,-251.38663 h 18.582215"
     id="path22812" />
  <path
     style="fill:none;stroke:#ff0000;stroke-width:0.05mm"
     d="m -51.628321,-269.63674 c -0.414062,1.4e-4 -0.749687,0.33588 -0.749702,0.74998 -1.5e-5,0.41409 0.335579,0.74984 0.749702,0.75002 0.414063,-1.5e-4 0.749688,-0.33587 0.749703,-0.74997 1.5e-5,-0.4141 -0.335579,-0.74986 -0.749703,-0.75003 z"
     id="path22814" />
  <path
     style="fill:none;stroke:#000000;stroke-width:0.05mm"
     d="m -34.277109,-259.98108 c -1.144798,0.21945 -2.29076,0.44669 -3.433189,0.68085"
     id="path22816" />
  <path
     style="fill:none;stroke:#000000;stroke-width:0.05mm"
     d="m -71.628321,-272.88667 v 11.00005"
     id="path22818" />
  <path
     style="fill:none;stroke:#ff0000;stroke-width:0.05mm"
     d="m -68.628321,-257.38674 c -0.413696,7.2e-4 -0.748695,0.33628 -0.748695,0.74999 -8e-6,0.41371 0.334984,0.74928 0.748695,0.75001 0.413697,-7.2e-4 0.748696,-0.33629 0.748696,-0.75 7e-6,-0.4137 -0.334984,-0.74928 -0.748696,-0.75 z"
     id="path22820" />
  <path
     style="fill:none;stroke:#000000;stroke-width:0.05mm"
     d="m -63.612772,-252.66125 c -0.896431,0.27697 -1.794472,0.55948 -2.688202,0.8457"
     id="path22822" />
  <path
     style="fill:none;stroke:#000000;stroke-width:0.05mm"
     d="m -39.178919,-258.99505 c -1.140648,0.24026 -2.28228,0.48838 -3.420212,0.7433"
     id="path22824" />
  <path
     style="fill:none;stroke:#000000;stroke-width:0.05mm"
     d="m -49.045854,-256.72561 c -1.010499,0.25216 -2.019547,0.51005 -3.027733,0.77384"
     id="path22826" />
  <path
     style="fill:none;stroke:#000000;stroke-width:0.05mm"
     d="m -44.061945,-257.91984 c -1.09835,0.25238 -2.189995,0.51028 -3.28463,0.776"
     id="path22828" />
  <path
     style="fill:none;stroke:#000000;stroke-width:0.05mm"
     d="m -58.894686,-254.0727 c -0.935295,0.27068 -1.8721,0.5472 -2.805069,0.82803"
     id="path22830" />
  <path
     style="fill:none;stroke:#000000;stroke-width:0.05mm"
     d="m -54.006586,-255.43847 c -0.940163,0.25331 -1.881935,0.51248 -2.819908,0.776"
     id="path22832" />
  <path
     style="fill:none;stroke:#000000;stroke-width:0.05mm"
     d="m -87.628199,-261.88662 v 10.49999"
     id="path22834" />
  <path
     style="fill:none;stroke:#000000;stroke-width:0.05mm"
     d="M -71.628321,-261.88662 H -87.628199"
     id="path22836" />
  <path
     style="fill:none;stroke:#000000;stroke-width:0.05mm"
     d="M 232.37157,-310.97371 H 213.78936"
     id="path22838" />
  <path
     style="fill:none;stroke:#000000;stroke-width:0.05mm"
     d="m 232.37157,-310.97371 v 9.99993"
     id="path22840" />
  <path
     style="fill:none;stroke:#000000;stroke-width:0.05mm"
     d="M 232.37157,-300.97378 H 216.37169"
     id="path22842" />
  <path
     style="fill:none;stroke:#000000;stroke-width:0.05mm"
     d="m 216.37169,-300.97378 v 11.49986"
     id="path22844" />
  <path
     style="fill:none;stroke:#000000;stroke-width:0.05mm"
     d="m 207.37162,-289.47392 h 9.00007"
     id="path22846" />
  <path
     style="fill:none;stroke:#000000;stroke-width:0.05mm"
     d="m 207.37162,-281.47372 v -8.00022"
     id="path22848" />
  <path
     style="fill:none;stroke:#000000;stroke-width:0.05mm"
     d="M 207.37162,-281.47372 H -62.62826"
     id="path22850" />
  <path
     style="fill:none;stroke:#000000;stroke-width:0.05mm"
     d="m -62.62826,-281.47372 v -8.00022"
     id="path22852" />
  <path
     style="fill:none;stroke:#000000;stroke-width:0.05mm"
     d="m -62.62826,-289.47392 h -9.000068"
     id="path22854" />
  <path
     style="fill:none;stroke:#000000;stroke-width:0.05mm"
     d="m -71.628321,-289.47392 v -10.9998"
     id="path22856" />
  <path
     style="fill:none;stroke:#000000;stroke-width:0.05mm"
     d="M -71.628321,-300.47372 H -87.628199"
     id="path22858" />
  <path
     style="fill:none;stroke:#000000;stroke-width:0.05mm"
     d="m -87.628199,-300.47372 v -10.49999"
     id="path22860" />
  <path
     style="fill:none;stroke:#000000;stroke-width:0.05mm"
     d="m -63.612772,-309.69929 c -0.105049,0.34196 -0.01941,0.71402 0.224579,0.97564 0.243988,0.26165 0.609154,0.373 0.957626,0.29206 0.348465,-0.0809 0.627144,-0.34189 0.730805,-0.68428"
     id="path22862" />
  <path
     style="fill:none;stroke:#000000;stroke-width:0.05mm"
     d="m -61.699755,-309.11587 c 0.932366,0.28067 1.869202,0.5572 2.805069,0.82803"
     id="path22864" />
  <path
     style="fill:none;stroke:#000000;stroke-width:0.05mm"
     d="m -58.894686,-308.28784 c -0.106285,0.36973 -0.0069,0.7681 0.260514,1.04463 0.267456,0.27655 0.662277,0.38913 1.035362,0.29526 0.373093,-0.0939 0.667595,-0.37993 0.772316,-0.75012"
     id="path22866" />
  <path
     style="fill:none;stroke:#000000;stroke-width:0.05mm"
     d="m -56.826494,-307.69807 c 0.937385,0.26335 1.879074,0.5225 2.819908,0.776"
     id="path22868" />
  <path
     style="fill:none;stroke:#000000;stroke-width:0.05mm"
     d="m -54.006586,-306.92207 c -0.09289,0.3457 0.0061,0.71469 0.259529,0.96748 0.253441,0.25281 0.622673,0.35086 0.96814,0.2571 0.345466,-0.0938 0.614471,-0.36504 0.70533,-0.71128"
     id="path22870" />
  <path
     style="fill:none;stroke:#000000;stroke-width:0.05mm"
     d="m -52.07358,-306.40875 c 1.007531,0.26361 2.016648,0.52151 3.027733,0.77382"
     id="path22872" />
  <path
     style="fill:none;stroke:#000000;stroke-width:0.05mm"
     d="m -49.045854,-305.63493 c -0.07531,0.30377 0.01735,0.62463 0.243003,0.84147 0.225655,0.21686 0.549942,0.29668 0.850472,0.20934 0.300522,-0.0873 0.531525,-0.32854 0.605804,-0.63255"
     id="path22874" />
  <path
     style="fill:none;stroke:#000000;stroke-width:0.05mm"
     d="m -47.346575,-305.21667 c 1.095131,0.26583 2.186852,0.52374 3.28463,0.77598"
     id="path22876" />
  <path
     style="fill:none;stroke:#000000;stroke-width:0.05mm"
     d="m -44.061945,-304.44069 c -0.0602,0.26166 0.02406,0.53554 0.220925,0.71811 0.196868,0.18257 0.47631,0.24597 0.732696,0.16625 0.256386,-0.0797 0.450584,-0.29044 0.509193,-0.55246"
     id="path22878" />
  <path
     style="fill:none;stroke:#000000;stroke-width:0.05mm"
     d="m -42.599131,-304.10879 c 1.137436,0.25482 2.279091,0.50293 3.420212,0.7433"
     id="path22880" />
  <path
     style="fill:none;stroke:#000000;stroke-width:0.05mm"
     d="m -39.178919,-303.36549 c -0.05458,0.26237 0.03499,0.53393 0.234955,0.71235 0.199959,0.17842 0.479935,0.23659 0.734421,0.15259 0.254486,-0.084 0.444809,-0.29741 0.499252,-0.55977"
     id="path22882" />
  <path
     style="fill:none;stroke:#000000;stroke-width:0.05mm"
     d="m -37.710291,-303.0603 c 1.141987,0.23405 2.287869,0.4613 3.433186,0.68085"
     id="path22884" />
  <path
     style="fill:none;stroke:#000000;stroke-width:0.05mm"
     d="m -34.277109,-302.37945 c -0.05029,0.26353 0.04402,0.53385 0.247322,0.70892 0.203304,0.17506 0.484638,0.22819 0.737785,0.13934 0.253151,-0.0889 0.439553,-0.30617 0.488835,-0.5699"
     id="path22886" />
  <path
     style="fill:none;stroke:#000000;stroke-width:0.05mm"
     d="m -32.803163,-302.1011 c 1.145973,0.21319 2.295806,0.41952 3.445022,0.61816"
     id="path22888" />
  <path
     style="fill:none;stroke:#000000;stroke-width:0.05mm"
     d="m -29.358141,-301.48292 c -0.04516,0.26426 0.05417,0.53254 0.260544,0.70367 0.206371,0.17113 0.488392,0.21909 0.739731,0.12579 0.251339,-0.0933 0.433765,-0.31364 0.478496,-0.578"
     id="path22890" />
  <path
     style="fill:none;stroke:#000000;stroke-width:0.05mm"
     d="m -27.87937,-301.23146 c 1.233494,0.20627 2.46608,0.40375 3.702816,0.59325"
     id="path22892" />
  <path
     style="fill:none;stroke:#000000;stroke-width:0.05mm"
     d="m -24.176554,-300.63821 c -0.02713,0.1768 0.04227,0.35463 0.181973,0.46634 0.139706,0.11171 0.328441,0.14027 0.494945,0.0749 0.166504,-0.0654 0.285408,-0.21469 0.311821,-0.3916"
     id="path22894" />
  <path
     style="fill:none;stroke:#000000;stroke-width:0.05mm"
     d="m -23.187815,-300.48857 c 1.319428,0.19722 2.637913,0.38451 3.960282,0.56251"
     id="path22896" />
  <path
     style="fill:none;stroke:#000000;stroke-width:0.05mm"
     d="m -19.227533,-299.92606 c -0.03634,0.27373 0.156109,0.52511 0.429847,0.56145 0.273739,0.0364 0.525113,-0.15611 0.561455,-0.42984"
     id="path22898" />
  <path
     style="fill:none;stroke:#000000;stroke-width:0.05mm"
     d="m -18.236231,-299.79446 c 1.322598,0.17311 2.644387,0.33633 3.969876,0.49025"
     id="path22900" />
  <path
     style="fill:none;stroke:#000000;stroke-width:0.05mm"
     d="m -14.266352,-299.30421 c -0.03135,0.27435 0.16565,0.52218 0.440007,0.55352 0.274356,0.0314 0.522182,-0.16565 0.553531,-0.44"
     id="path22902" />
  <path
     style="fill:none;stroke:#000000;stroke-width:0.05mm"
     d="m -13.272818,-299.19069 c 10.1746539,1.14369 20.4057679,1.71691 30.644495,1.71689"
     id="path22904" />
  <path
     style="fill:none;stroke:#000000;stroke-width:0.05mm"
     d="M 17.371688,-297.47386 H 127.37168"
     id="path22906" />
  <path
     style="fill:none;stroke:#000000;stroke-width:0.05mm"
     d="m 127.37168,-297.4738 c 10.23881,2e-5 20.46982,-0.5732 30.64448,-1.71689"
     id="path22908" />
  <path
     style="fill:none;stroke:#000000;stroke-width:0.05mm"
     d="m 158.01616,-299.19069 c 0.0314,0.27435 0.27919,0.47136 0.55355,0.44 0.27435,-0.0313 0.47136,-0.27917 0.44,-0.55352"
     id="path22910" />
  <path
     style="fill:none;stroke:#000000;stroke-width:0.05mm"
     d="m 159.00971,-299.30421 c 1.32501,-0.15384 2.64679,-0.31708 3.96988,-0.49025"
     id="path22912" />
  <path
     style="fill:none;stroke:#000000;stroke-width:0.05mm"
     d="m 162.97959,-299.79446 c 0.0233,0.17723 0.13953,0.32852 0.30473,0.3968 0.16519,0.0683 0.35428,0.0432 0.49594,-0.0658 0.14167,-0.10902 0.21434,-0.28539 0.19063,-0.46257"
     id="path22914" />
  <path
     style="fill:none;stroke:#000000;stroke-width:0.05mm"
     d="m 163.97089,-299.92606 c 1.32211,-0.17796 2.6406,-0.36523 3.96028,-0.56251"
     id="path22916" />
  <path
     style="fill:none;stroke:#000000;stroke-width:0.05mm"
     d="m 167.93117,-300.48857 c 0.0264,0.17691 0.14533,0.32625 0.31183,0.3916 0.16649,0.0654 0.35523,0.0368 0.49494,-0.0749 0.13971,-0.11171 0.2091,-0.28954 0.18197,-0.46634"
     id="path22918" />
  <path
     style="fill:none;stroke:#000000;stroke-width:0.05mm"
     d="m 168.91991,-300.63821 c 1.23627,-0.18941 2.46886,-0.38691 3.70282,-0.59325"
     id="path22920" />
  <path
     style="fill:none;stroke:#000000;stroke-width:0.05mm"
     d="m 172.62273,-301.23146 c 0.0694,0.40836 0.45677,0.68309 0.86513,0.61365 0.40836,-0.0694 0.68309,-0.45676 0.61365,-0.86511"
     id="path22922" />
  <path
     style="fill:none;stroke:#000000;stroke-width:0.05mm"
     d="m 174.10149,-301.48292 c 1.14858,-0.19852 2.29852,-0.40487 3.44502,-0.61817"
     id="path22924" />
  <path
     style="fill:none;stroke:#000000;stroke-width:0.05mm"
     d="m 177.54651,-302.1011 c 0.0769,0.40701 0.46914,0.67465 0.87615,0.59777 0.40703,-0.0768 0.67467,-0.46913 0.59781,-0.87614"
     id="path22926" />
  <path
     style="fill:none;stroke:#000000;stroke-width:0.05mm"
     d="m 179.02047,-302.37945 c 1.14482,-0.21944 2.2908,-0.44671 3.43318,-0.68085"
     id="path22928" />
  <path
     style="fill:none;stroke:#000000;stroke-width:0.05mm"
     d="m 182.45365,-303.0603 c 0.0541,0.2628 0.24441,0.4767 0.49914,0.56094 0.25473,0.0842 0.53507,0.026 0.73516,-0.15277 0.20007,-0.17874 0.28944,-0.45076 0.23433,-0.71335"
     id="path22930" />
  <path
     style="fill:none;stroke:#000000;stroke-width:0.05mm"
     d="m 183.92228,-303.36549 c 1.14061,-0.24025 2.28225,-0.48836 3.42019,-0.7433"
     id="path22932" />
  <path
     style="fill:none;stroke:#000000;stroke-width:0.05mm"
     d="m 187.34247,-304.10879 c 0.0586,0.26202 0.25281,0.47271 0.5092,0.55246 0.25638,0.0797 0.53583,0.0163 0.7327,-0.16625 0.19687,-0.18257 0.28113,-0.45645 0.22092,-0.71811"
     id="path22934" />
  <path
     style="fill:none;stroke:#000000;stroke-width:0.05mm"
     d="m 188.8053,-304.44069 c 1.0983,-0.25235 2.19002,-0.51027 3.28464,-0.77598"
     id="path22936" />
  <path
     style="fill:none;stroke:#000000;stroke-width:0.05mm"
     d="m 192.08993,-305.21667 c 0.0743,0.30401 0.30528,0.54521 0.6058,0.63255 0.30054,0.0873 0.62482,0.008 0.85048,-0.20934 0.22565,-0.21685 0.31831,-0.5377 0.243,-0.84147"
     id="path22938" />
  <path
     style="fill:none;stroke:#000000;stroke-width:0.05mm"
     d="m 193.78921,-305.63493 c 1.01048,-0.25214 2.01959,-0.51004 3.02772,-0.77382"
     id="path22940" />
  <path
     style="fill:none;stroke:#000000;stroke-width:0.05mm"
     d="m 196.81693,-306.40875 c 0.0909,0.34624 0.35986,0.61751 0.70532,0.71127 0.34548,0.0938 0.71471,-0.004 0.96814,-0.25709 0.25345,-0.2528 0.35243,-0.62178 0.25954,-0.96749"
     id="path22942" />
  <path
     style="fill:none;stroke:#000000;stroke-width:0.05mm"
     d="m 198.74994,-306.92207 c 0.94016,-0.25331 1.88195,-0.51248 2.81992,-0.776"
     id="path22944" />
  <path
     style="fill:none;stroke:#000000;stroke-width:0.05mm"
     d="m 201.56984,-307.69807 c 0.10473,0.37019 0.39924,0.65623 0.77233,0.75012 0.37308,0.0939 0.7679,-0.0187 1.03535,-0.29524 0.26746,-0.27655 0.36681,-0.6749 0.26052,-1.04465"
     id="path22946" />
  <path
     style="fill:none;stroke:#000000;stroke-width:0.05mm"
     d="m 203.63804,-308.28784 c 0.9353,-0.27065 1.87205,-0.54717 2.80508,-0.82803"
     id="path22948" />
  <path
     style="fill:none;stroke:#000000;stroke-width:0.05mm"
     d="m 206.44312,-309.11587 c 0.10367,0.34239 0.38234,0.60333 0.73082,0.68428 0.34847,0.0809 0.71364,-0.0304 0.95761,-0.29206 0.24399,-0.26164 0.32962,-0.63368 0.22458,-0.97564"
     id="path22950" />
  <path
     style="fill:none;stroke:#000000;stroke-width:0.05mm"
     d="m 208.35613,-309.69929 c 0.8965,-0.27698 1.79451,-0.55948 2.6882,-0.84571"
     id="path22952" />
  <path
     style="fill:none;stroke:#000000;stroke-width:0.05mm"
     d="m 211.42223,-310.65695 c -0.12677,0.0346 -0.25276,0.0719 -0.37791,0.11197"
     id="path22954" />
  <path
     style="fill:none;stroke:#000000;stroke-width:0.05mm"
     d="m 211.42223,-310.65695 c 0.11093,0.51895 0.60793,0.86088 1.13225,0.77898 0.52432,-0.0819 0.89336,-0.55913 0.84073,-1.08719"
     id="path22956" />
  <path
     style="fill:none;stroke:#000000;stroke-width:0.05mm"
     d="m 213.78927,-310.9738 c -0.13114,1.2e-4 -0.2625,0.003 -0.39405,0.009"
     id="path22958" />
  <path
     style="fill:none;stroke:#ff0000;stroke-width:0.05mm"
     d="m 196.37168,-294.2238 c -0.41405,1.4e-4 -0.74968,0.33588 -0.7497,0.74997 -1e-5,0.41409 0.33559,0.74985 0.7497,0.75003 0.41405,-1.4e-4 0.74968,-0.33588 0.74969,-0.74997 2e-5,-0.41409 -0.33558,-0.74985 -0.74969,-0.75003 z"
     id="path22960" />
  <path
     style="fill:none;stroke:#ff0000;stroke-width:0.05mm"
     d="m 213.37168,-306.7238 c -0.4137,7.2e-4 -0.7487,0.33629 -0.7487,0.75 0,0.4137 0.33499,0.74928 0.7487,0.75 0.4137,-7.2e-4 0.7487,-0.33629 0.7487,-0.75 0,-0.4137 -0.33499,-0.74928 -0.7487,-0.75 z"
     id="path22962" />
  <path
     style="fill:none;stroke:#ff0000;stroke-width:0.05mm"
     d="m -68.628321,-306.4738 c -0.413696,7.2e-4 -0.748695,0.33629 -0.748695,0.75 -8e-6,0.4137 0.334984,0.74928 0.748695,0.75 0.413697,-7.2e-4 0.748696,-0.33629 0.748696,-0.75 7e-6,-0.4137 -0.334984,-0.74928 -0.748696,-0.75 z"
     id="path22964" />
  <path
     style="fill:none;stroke:#ff0000;stroke-width:0.05mm"
     d="m -24.972059,-291.7238 c -0.414063,1.4e-4 -0.749687,0.33588 -0.749703,0.74997 -1.5e-5,0.41409 0.335579,0.74985 0.749703,0.75003 0.414062,-1.4e-4 0.749687,-0.33588 0.749702,-0.74997 1.6e-5,-0.41409 -0.335579,-0.74985 -0.749702,-0.75003 z"
     id="path22966" />
  <path
     style="fill:none;stroke:#ff0000;stroke-width:0.05mm"
     d="m -51.628321,-294.2238 c -0.414062,1.4e-4 -0.749687,0.33588 -0.749702,0.74997 -1.5e-5,0.41409 0.335579,0.74985 0.749702,0.75003 0.414063,-1.4e-4 0.749688,-0.33588 0.749703,-0.74997 1.5e-5,-0.41409 -0.335579,-0.74985 -0.749703,-0.75003 z"
     id="path22968" />
  <path
     style="fill:none;stroke:#ff0000;stroke-width:0.05mm"
     d="m 120.12168,-290.7238 c -0.4137,7.2e-4 -0.7487,0.33629 -0.7487,0.75 0,0.4137 0.33499,0.74928 0.7487,0.75 0.4137,-7.2e-4 0.74869,-0.33629 0.74869,-0.75 1e-5,-0.4137 -0.33498,-0.74928 -0.74869,-0.75 z"
     id="path22970" />
  <path
     style="fill:none;stroke:#ff0000;stroke-width:0.05mm"
     d="m 24.621679,-290.7238 c -0.413697,7.2e-4 -0.748695,0.33629 -0.748698,0.75 -4e-6,0.4137 0.334988,0.74928 0.748698,0.75 0.413696,-7.2e-4 0.748694,-0.33629 0.748697,-0.75 4e-6,-0.4137 -0.334988,-0.74928 -0.748697,-0.75 z"
     id="path22972" />
  <path
     style="fill:none;stroke:#ff0000;stroke-width:0.05mm"
     d="m 169.71541,-291.7238 c -0.41404,1.4e-4 -0.74968,0.33588 -0.74969,0.74997 -2e-5,0.41409 0.33559,0.74985 0.74969,0.75003 0.41405,-1.4e-4 0.74968,-0.33588 0.7497,-0.74997 1e-5,-0.41409 -0.33559,-0.74985 -0.7497,-0.75003 z"
     id="path22974" />
  <path
     style="fill:none;stroke:#000000;stroke-width:0.05mm"
     d="m -87.628199,-310.97371 h 18.582215"
     id="path22976" />
  <path
     style="fill:none;stroke:#000000;stroke-width:0.05mm"
     d="m -68.651865,-310.96516 c -0.05267,0.52809 0.316376,1.00534 0.840721,1.08725 0.524346,0.0819 1.021355,-0.26006 1.132263,-0.77904"
     id="path22978" />
  <path
     style="fill:none;stroke:#000000;stroke-width:0.05mm"
     d="m -68.651865,-310.96516 c -0.131271,-0.006 -0.262634,-0.009 -0.394051,-0.009"
     id="path22980" />
  <path
     style="fill:none;stroke:#000000;stroke-width:0.05mm"
     d="m -66.300974,-310.54498 c -0.125145,-0.0401 -0.251129,-0.0774 -0.377907,-0.11197"
     id="path22982" />
  <path
     style="fill:none;stroke:#000000;stroke-width:0.05mm"
     d="m -66.300974,-310.54498 c 0.89357,0.28616 1.791588,0.56868 2.688202,0.8457"
     id="path22984" />
  <path
     style="fill:none;stroke:#000000;stroke-width:0.05mm"
     d="m 182.00638,-207.29383 h 17.24818"
     id="path22986" />
  <path
     style="fill:none;stroke:#000000;stroke-width:0.05mm"
     d="m 182.00544,-207.2943 c -28.60631,0 -57.03931,4.44175 -84.282633,13.16647"
     id="path22988" />
  <path
     style="fill:none;stroke:#000000;stroke-width:0.05mm"
     d="m 95.587854,-193.79431 c 0.724621,0 1.444851,-0.11251 2.134953,-0.33352"
     id="path22990" />
  <path
     style="fill:none;stroke:#000000;stroke-width:0.05mm"
     d="M 77.006483,-193.79478 H 95.588171"
     id="path22992" />
  <path
     style="fill:none;stroke:#000000;stroke-width:0.05mm"
     d="m 77.006483,-202.2932 v 8.49842"
     id="path22994" />
  <path
     style="fill:none;stroke:#000000;stroke-width:0.05mm"
     d="M 93.005838,-202.2932 H 77.006483"
     id="path22996" />
  <path
     style="fill:none;stroke:#000000;stroke-width:0.05mm"
     d="m 93.005838,-213.29458 v 11.00138"
     id="path22998" />
  <path
     style="fill:none;stroke:#000000;stroke-width:0.05mm"
     d="M 102.00432,-213.29458 H 93.005838"
     id="path23000" />
  <path
     style="fill:none;stroke:#000000;stroke-width:0.05mm"
     d="m 102.00432,-217.29507 v 4.00049"
     id="path23002" />
  <path
     style="fill:none;stroke:#000000;stroke-width:0.05mm"
     d="M 199.25456,-217.29507 H 102.00432"
     id="path23004" />
  <path
     style="fill:none;stroke:#000000;stroke-width:0.05mm"
     d="m 199.25456,-217.29507 v 10.00124"
     id="path23006" />
  <path
     style="fill:none;stroke:#ff0000;stroke-width:0.05mm"
     d="m 96.005441,-197.79431 c -0.414058,1.4e-4 -0.749683,0.33587 -0.749698,0.74997 -1.9e-5,0.4141 0.335579,0.74986 0.749698,0.75003 0.414059,-1.4e-4 0.749684,-0.33587 0.749703,-0.74997 1.5e-5,-0.4141 -0.335583,-0.74985 -0.749703,-0.75003 z"
     id="path23008" />
  <path
     style="fill:none;stroke:#ff0000;stroke-width:0.05mm"
     d="m 139.6617,-212.5443 c -0.41374,6.8e-4 -0.74877,0.33627 -0.74876,0.75 0,0.41373 0.33504,0.74931 0.74876,0.74999 0.41407,-1.4e-4 0.74969,-0.33587 0.74971,-0.74997 1e-5,-0.4141 -0.33558,-0.74985 -0.74971,-0.75003 z"
     id="path23010" />
  <path
     style="fill:none;stroke:#ff0000;stroke-width:0.05mm"
     d="m 113.00544,-210.0443 c -0.41406,1.4e-4 -0.74968,0.33586 -0.7497,0.74997 -2e-5,0.4141 0.33558,0.74985 0.7497,0.75003 0.41406,-1.5e-4 0.74969,-0.33587 0.7497,-0.74997 2e-5,-0.4141 -0.33558,-0.74986 -0.7497,-0.75003 z"
     id="path23012" />
  <path
     style="fill:none;stroke:#ff0000;stroke-width:0.05mm"
     d="m 189.25544,-213.54431 c -0.41407,1.5e-4 -0.74969,0.33587 -0.74971,0.74997 -1e-5,0.4141 0.33558,0.74986 0.74971,0.75003 0.41406,-1.4e-4 0.74968,-0.33587 0.7497,-0.74997 10e-6,-0.4141 -0.33558,-0.74985 -0.7497,-0.75003 z"
     id="path23014" />
  <path
     style="fill:none;stroke:#ff0000;stroke-width:0.05mm"
     d="m 103.00544,-212.29431 c -0.55228,0 -1,0.44772 -1,1 0,0.55229 0.44772,1 1,1.00001 0.55229,-1e-5 1,-0.44772 1,-1.00001 0,-0.55228 -0.44771,-1 -1,-1 z"
     id="path23016" />
  <path
     style="fill:none;stroke:#ff0000;stroke-width:0.05mm"
     d="m 179.25544,-214.5443 c -0.55172,8e-4 -0.99854,0.44828 -0.99854,0.99999 0,0.55172 0.44682,0.9992 0.99854,1 0.55209,-2.7e-4 0.99951,-0.4479 0.99951,-1 0,-0.55209 -0.44742,-0.99973 -0.99951,-1 z"
     id="path23018" />
  <path
     style="fill:none;stroke:#000000;stroke-width:0.05mm"
     d="m 102.04929,-217.36387 v -4.0005"
     id="path23020" />
  <path
     style="fill:none;stroke:#000000;stroke-width:0.05mm"
     d="M 102.04929,-221.36437 H 93.04817"
     id="path23022" />
  <path
     style="fill:none;stroke:#000000;stroke-width:0.05mm"
     d="m 93.04817,-221.36437 v -11.00137"
     id="path23024" />
  <path
     style="fill:none;stroke:#000000;stroke-width:0.05mm"
     d="M 93.04817,-232.36574 H 77.048818"
     id="path23026" />
  <path
     style="fill:none;stroke:#000000;stroke-width:0.05mm"
     d="m 77.048818,-232.36574 v -8.49842"
     id="path23028" />
  <path
     style="fill:none;stroke:#000000;stroke-width:0.05mm"
     d="M 77.048818,-240.86416 H 95.630506"
     id="path23030" />
  <path
     style="fill:none;stroke:#000000;stroke-width:0.05mm"
     d="m 97.765817,-240.53155 c -0.690098,-0.221 -1.410331,-0.33352 -2.134952,-0.33352"
     id="path23032" />
  <path
     style="fill:none;stroke:#000000;stroke-width:0.05mm"
     d="m 97.765817,-240.53155 c 27.243363,8.72473 55.676393,13.16648 84.282633,13.16648"
     id="path23034" />
  <path
     style="fill:none;stroke:#000000;stroke-width:0.05mm"
     d="m 182.04871,-227.36512 h 17.25083"
     id="path23036" />
  <path
     style="fill:none;stroke:#000000;stroke-width:0.05mm"
     d="m 199.29954,-217.36387 v -10.00125"
     id="path23038" />
  <path
     style="fill:none;stroke:#000000;stroke-width:0.05mm"
     d="M 199.29954,-217.36387 H 102.04929"
     id="path23040" />
  <path
     style="fill:none;stroke:#ff0000;stroke-width:0.05mm"
     d="m 179.29845,-222.11507 c -0.55228,0 -1,0.44772 -1,1 0,0.55229 0.44772,1 1,1 0.5521,-2.6e-4 0.99951,-0.4479 0.99951,-1 0,-0.55209 -0.44741,-0.99973 -0.99951,-1 z"
     id="path23042" />
  <path
     style="fill:none;stroke:#ff0000;stroke-width:0.05mm"
     d="m 103.04845,-224.36507 c -0.55209,2.7e-4 -0.99951,0.44791 -0.99951,1 0,0.5521 0.44742,0.99973 0.99951,1 0.5521,-2.7e-4 0.99952,-0.4479 0.99952,-1 0,-0.55209 -0.44742,-0.99973 -0.99952,-1 z"
     id="path23044" />
  <path
     style="fill:none;stroke:#ff0000;stroke-width:0.05mm"
     d="m 189.29845,-222.61507 c -0.41385,5e-4 -0.7491,0.33614 -0.7491,0.75 0,0.41387 0.33525,0.74951 0.7491,0.75 0.41386,-4.9e-4 0.7491,-0.33613 0.7491,-0.75 0,-0.41386 -0.33524,-0.7495 -0.7491,-0.75 z"
     id="path23046" />
  <path
     style="fill:none;stroke:#ff0000;stroke-width:0.05mm"
     d="m 113.04846,-226.11507 c -0.41407,1.5e-4 -0.74969,0.33587 -0.74971,0.74997 -1e-5,0.4141 0.33558,0.74986 0.74971,0.75003 0.41406,-1.4e-4 0.74968,-0.33587 0.7497,-0.74997 1e-5,-0.4141 -0.33558,-0.74985 -0.7497,-0.75003 z"
     id="path23048" />
  <path
     style="fill:none;stroke:#ff0000;stroke-width:0.05mm"
     d="m 139.70471,-223.61507 c -0.41406,1.5e-4 -0.74968,0.33587 -0.7497,0.74997 -10e-6,0.4141 0.33558,0.74986 0.7497,0.75003 0.41407,-1.4e-4 0.74969,-0.33587 0.74971,-0.74997 1e-5,-0.4141 -0.33558,-0.74985 -0.74971,-0.75003 z"
     id="path23050" />
  <path
     style="fill:none;stroke:#ff0000;stroke-width:0.05mm"
     d="m 96.048456,-238.36507 c -0.414074,2.5e-4 -0.749588,0.33598 -0.749577,0.75002 8e-6,0.41405 0.335541,0.74976 0.749577,0.74998 0.414074,-2.4e-4 0.749588,-0.33597 0.749576,-0.75001 -7e-6,-0.41405 -0.33554,-0.74976 -0.749576,-0.74999 z"
     id="path23052" />
  <path
     style="fill:none;stroke:#ff0000;stroke-width:0.05mm"
     d="m 200.37168,-343.63676 c -0.41405,1.5e-4 -0.74968,0.33588 -0.7497,0.74998 -1e-5,0.41409 0.33559,0.74985 0.7497,0.75002 0.41405,-1.4e-4 0.74968,-0.33586 0.74969,-0.74997 2e-5,-0.4141 -0.33558,-0.74985 -0.74969,-0.75003 z"
     id="path23070" />
  <path
     style="fill:none;stroke:#ff0000;stroke-width:0.05mm"
     d="m 217.37168,-331.13676 c -0.4137,7.2e-4 -0.7487,0.33628 -0.7487,0.75 0,0.4137 0.33499,0.74928 0.7487,0.75 0.4137,-7.1e-4 0.7487,-0.33628 0.7487,-0.75 0,-0.41369 -0.33499,-0.74927 -0.7487,-0.75 z"
     id="path23072" />
  <path
     style="fill:none;stroke:#ff0000;stroke-width:0.05mm"
     d="m -20.972059,-346.13675 c -0.414063,1.4e-4 -0.749687,0.33588 -0.749703,0.74997 -1.5e-5,0.41409 0.335579,0.74986 0.749703,0.75002 0.414062,-1.3e-4 0.749687,-0.33585 0.749702,-0.74997 1.6e-5,-0.41408 -0.335579,-0.74984 -0.749702,-0.75002 z"
     id="path23074" />
  <path
     style="fill:none;stroke:#ff0000;stroke-width:0.05mm"
     d="m 124.12168,-347.13675 c -0.4137,7.2e-4 -0.7487,0.33629 -0.7487,0.75 0,0.4137 0.33499,0.74928 0.7487,0.75 0.4137,-7.2e-4 0.74869,-0.33629 0.74869,-0.75 1e-5,-0.41369 -0.33498,-0.74928 -0.74869,-0.75 z"
     id="path23076" />
  <path
     style="fill:none;stroke:#ff0000;stroke-width:0.05mm"
     d="m 28.621679,-347.13675 c -0.413697,7.2e-4 -0.748695,0.33629 -0.748698,0.75 -4e-6,0.4137 0.334988,0.74928 0.748698,0.75 0.413696,-7.2e-4 0.748694,-0.33629 0.748697,-0.75 4e-6,-0.41369 -0.334988,-0.74928 -0.748697,-0.75 z"
     id="path23078" />
  <path
     style="fill:none;stroke:#ff0000;stroke-width:0.05mm"
     d="m 173.71541,-346.13675 c -0.41404,1.4e-4 -0.74968,0.33588 -0.74969,0.74997 -2e-5,0.41409 0.33559,0.74986 0.74969,0.75002 0.41405,-1.3e-4 0.74968,-0.33585 0.7497,-0.74997 1e-5,-0.41408 -0.33559,-0.74984 -0.7497,-0.75002 z"
     id="path23080" />
  <path
     style="fill:none;stroke:#000000;stroke-width:0.05mm"
     d="m 215.04433,-325.81557 c 0.12515,0.0401 0.25113,0.0774 0.37792,0.11197"
     id="path23082" />
  <path
     style="fill:none;stroke:#000000;stroke-width:0.05mm"
     d="m 215.04433,-325.81557 c -0.89352,-0.28616 -1.79156,-0.56868 -2.6882,-0.8457"
     id="path23084" />
  <path
     style="fill:none;stroke:#000000;stroke-width:0.05mm"
     d="m 212.35613,-326.66126 c 0.10504,-0.34198 0.0194,-0.71403 -0.22458,-0.97566 -0.24399,-0.26165 -0.60916,-0.373 -0.95763,-0.29205 -0.34846,0.081 -0.62715,0.3419 -0.7308,0.68429"
     id="path23086" />
  <path
     style="fill:none;stroke:#000000;stroke-width:0.05mm"
     d="m 210.44312,-327.24468 c -0.93237,-0.28066 -1.86917,-0.5572 -2.80508,-0.82803"
     id="path23088" />
  <path
     style="fill:none;stroke:#000000;stroke-width:0.05mm"
     d="m 207.63804,-328.07271 c 0.10629,-0.36976 0.007,-0.76811 -0.2605,-1.04465 -0.26747,-0.27654 -0.66228,-0.38913 -1.03537,-0.29525 -0.37309,0.0939 -0.6676,0.37993 -0.77233,0.75013"
     id="path23090" />
  <path
     style="fill:none;stroke:#000000;stroke-width:0.05mm"
     d="m 205.56984,-328.66248 c -0.93742,-0.26337 -1.87919,-0.52254 -2.81991,-0.776"
     id="path23092" />
  <path
     style="fill:none;stroke:#000000;stroke-width:0.05mm"
     d="m 202.74994,-329.43848 c 0.0927,-0.34565 -0.006,-0.71452 -0.2597,-0.96722 -0.2534,-0.25272 -0.62254,-0.35075 -0.96794,-0.25705 -0.3454,0.0937 -0.6144,0.36483 -0.70535,0.71096"
     id="path23094" />
  <path
     style="fill:none;stroke:#000000;stroke-width:0.05mm"
     d="m 200.81693,-329.95179 c -1.00752,-0.26363 -2.01659,-0.52152 -3.02772,-0.77383"
     id="path23096" />
  <path
     style="fill:none;stroke:#000000;stroke-width:0.05mm"
     d="m 197.78921,-330.72562 c 0.0755,-0.30384 -0.0171,-0.62485 -0.24279,-0.84182 -0.22571,-0.21696 -0.55012,-0.29681 -0.85074,-0.20939 -0.30061,0.0874 -0.53161,0.32879 -0.60575,0.63296"
     id="path23098" />
  <path
     style="fill:none;stroke:#000000;stroke-width:0.05mm"
     d="m 196.08993,-331.14387 c -1.09519,-0.26584 -2.18683,-0.52374 -3.28464,-0.77601"
     id="path23100" />
  <path
     style="fill:none;stroke:#000000;stroke-width:0.05mm"
     d="m 192.8053,-331.91986 c 0.0601,-0.26161 -0.0242,-0.53539 -0.22105,-0.7179 -0.19685,-0.18249 -0.47621,-0.24588 -0.73254,-0.16619 -0.25632,0.0797 -0.45054,0.29026 -0.50922,0.55219"
     id="path23102" />
  <path
     style="fill:none;stroke:#000000;stroke-width:0.05mm"
     d="m 191.34247,-332.25176 c -1.13749,-0.25485 -2.27911,-0.50295 -3.42019,-0.7433"
     id="path23104" />
  <path
     style="fill:none;stroke:#000000;stroke-width:0.05mm"
     d="m 187.92228,-332.99506 c 0.0549,-0.2625 -0.0345,-0.53437 -0.23456,-0.71299 -0.20004,-0.17863 -0.48024,-0.23685 -0.73488,-0.15271 -0.25465,0.0842 -0.44498,0.29786 -0.49919,0.56051"
     id="path23106" />
  <path
     style="fill:none;stroke:#000000;stroke-width:0.05mm"
     d="m 186.45365,-333.30025 c -1.14197,-0.23405 -2.28792,-0.46132 -3.43318,-0.68084"
     id="path23108" />
  <path
     style="fill:none;stroke:#000000;stroke-width:0.05mm"
     d="m 183.02047,-333.98109 c 0.0769,-0.40702 -0.19077,-0.79929 -0.59778,-0.87617 -0.40703,-0.0769 -0.7993,0.19076 -0.87618,0.5978"
     id="path23110" />
  <path
     style="fill:none;stroke:#000000;stroke-width:0.05mm"
     d="m 181.54651,-334.25946 c -1.14601,-0.2132 -2.29592,-0.41952 -3.44502,-0.61816"
     id="path23112" />
  <path
     style="fill:none;stroke:#000000;stroke-width:0.05mm"
     d="m 178.10149,-334.87762 c 0.0694,-0.40836 -0.20532,-0.7957 -0.61366,-0.86512 -0.40836,-0.0694 -0.79569,0.20531 -0.86511,0.61366"
     id="path23114" />
  <path
     style="fill:none;stroke:#000000;stroke-width:0.05mm"
     d="m 176.62273,-335.12908 c -1.23356,-0.20627 -2.46617,-0.40376 -3.70282,-0.59324"
     id="path23116" />
  <path
     style="fill:none;stroke:#000000;stroke-width:0.05mm"
     d="m 172.91991,-335.72233 c 0.027,-0.17674 -0.0424,-0.35445 -0.1821,-0.46607 -0.13968,-0.11163 -0.3283,-0.14018 -0.49475,-0.0749 -0.16646,0.0653 -0.28537,0.2145 -0.31189,0.3913"
     id="path23118" />
  <path
     style="fill:none;stroke:#000000;stroke-width:0.05mm"
     d="m 171.93117,-335.87199 c -1.31932,-0.19722 -2.63788,-0.38448 -3.96028,-0.56253"
     id="path23120" />
  <path
     style="fill:none;stroke:#000000;stroke-width:0.05mm"
     d="m 167.97089,-336.4345 c 0.0239,-0.17724 -0.0488,-0.35373 -0.19049,-0.46285 -0.14169,-0.1091 -0.33089,-0.13422 -0.49615,-0.0659 -0.16526,0.0684 -0.28144,0.21978 -0.30466,0.39711"
     id="path23122" />
  <path
     style="fill:none;stroke:#000000;stroke-width:0.05mm"
     d="m 166.97959,-336.5661 c -1.32272,-0.17314 -2.64449,-0.33637 -3.96988,-0.49025"
     id="path23124" />
  <path
     style="fill:none;stroke:#000000;stroke-width:0.05mm"
     d="m 163.00971,-337.05635 c 0.0314,-0.27436 -0.16565,-0.52219 -0.44002,-0.55354 -0.27435,-0.0313 -0.52217,0.16567 -0.55353,0.44003"
     id="path23126" />
  <path
     style="fill:none;stroke:#000000;stroke-width:0.05mm"
     d="m 162.01616,-337.16986 c -10.17466,-1.14368 -20.40573,-1.7169 -30.64448,-1.7169"
     id="path23128" />
  <path
     style="fill:none;stroke:#000000;stroke-width:0.05mm"
     d="M 21.371688,-338.88674 H 131.37168"
     id="path23130" />
  <path
     style="fill:none;stroke:#000000;stroke-width:0.05mm"
     d="m 21.37168,-338.88676 c -10.238694,0 -20.46976906,0.5732 -30.6444981,1.7169"
     id="path23132" />
  <path
     style="fill:none;stroke:#000000;stroke-width:0.05mm"
     d="m -9.2728181,-337.16986 c -0.031345,-0.27436 -0.279167,-0.47136 -0.553524,-0.44001 -0.2743559,0.0313 -0.4713589,0.27916 -0.4400129,0.55352"
     id="path23134" />
  <path
     style="fill:none;stroke:#000000;stroke-width:0.05mm"
     d="m -10.266352,-337.05635 c -1.325111,0.15385 -2.646869,0.31709 -3.969875,0.49025"
     id="path23136" />
  <path
     style="fill:none;stroke:#000000;stroke-width:0.05mm"
     d="m -14.236231,-336.5661 c -0.02333,-0.17725 -0.139507,-0.32853 -0.30471,-0.39682 -0.165207,-0.0683 -0.354302,-0.0432 -0.495964,0.0658 -0.141667,0.10904 -0.214348,0.2854 -0.190628,0.46259"
     id="path23138" />
  <path
     style="fill:none;stroke:#000000;stroke-width:0.05mm"
     d="m -15.227533,-336.4345 c -1.322003,0.17797 -2.640564,0.36526 -3.960282,0.56251"
     id="path23140" />
  <path
     style="fill:none;stroke:#000000;stroke-width:0.05mm"
     d="m -19.187815,-335.87199 c -0.02652,-0.17681 -0.145435,-0.326 -0.311878,-0.3913 -0.166447,-0.0653 -0.355087,-0.0367 -0.494751,0.0749 -0.139667,0.11162 -0.209102,0.28933 -0.18211,0.46607"
     id="path23142" />
  <path
     style="fill:none;stroke:#000000;stroke-width:0.05mm"
     d="m -20.176554,-335.72233 c -1.236259,0.18943 -2.468868,0.3869 -3.702812,0.59323"
     id="path23144" />
  <path
     style="fill:none;stroke:#000000;stroke-width:0.05mm"
     d="m -23.87937,-335.12908 c -0.04455,-0.2645 -0.226974,-0.48507 -0.478408,-0.57847 -0.251439,-0.0934 -0.533616,-0.0454 -0.740048,0.12584 -0.206428,0.17126 -0.305687,0.43973 -0.260315,0.70409"
     id="path23146" />
  <path
     style="fill:none;stroke:#000000;stroke-width:0.05mm"
     d="m -25.358141,-334.87762 c -1.148624,0.19854 -2.298542,0.40487 -3.445022,0.61816"
     id="path23148" />
  <path
     style="fill:none;stroke:#000000;stroke-width:0.05mm"
     d="m -38.599131,-332.25176 c -0.0587,-0.26193 -0.252899,-0.47252 -0.509223,-0.55219 -0.256333,-0.0797 -0.535698,-0.0163 -0.732537,0.16619 -0.196846,0.18251 -0.281143,0.45629 -0.221054,0.7179"
     id="path23150" />
  <path
     style="fill:none;stroke:#000000;stroke-width:0.05mm"
     d="m -43.346575,-331.14387 c -0.07415,-0.30417 -0.305153,-0.54553 -0.605774,-0.63296 -0.300613,-0.0874 -0.62503,-0.008 -0.850731,0.20939 -0.225692,0.21697 -0.318275,0.53798 -0.242774,0.84182"
     id="path23152" />
  <path
     style="fill:none;stroke:#000000;stroke-width:0.05mm"
     d="m -52.826494,-328.66248 c -0.104714,-0.3702 -0.399223,-0.65624 -0.772308,-0.75012 -0.373093,-0.0939 -0.767907,0.0187 -1.03537,0.29524 -0.267456,0.27654 -0.366799,0.67489 -0.260514,1.04465"
     id="path23154" />
  <path
     style="fill:none;stroke:#000000;stroke-width:0.05mm"
     d="m 211.37162,-354.88663 v 7.99994"
     id="path23156" />
  <path
     style="fill:none;stroke:#000000;stroke-width:0.05mm"
     d="m 211.37162,-346.88669 h 9.00007"
     id="path23158" />
  <path
     style="fill:none;stroke:#000000;stroke-width:0.05mm"
     d="m 220.37169,-335.38683 v -11.49986"
     id="path23160" />
  <path
     style="fill:none;stroke:#000000;stroke-width:0.05mm"
     d="M 236.37157,-335.38683 H 220.37169"
     id="path23162" />
  <path
     style="fill:none;stroke:#000000;stroke-width:0.05mm"
     d="m 236.37157,-325.38664 v -10.00019"
     id="path23164" />
  <path
     style="fill:none;stroke:#000000;stroke-width:0.05mm"
     d="M 236.37157,-325.38664 H 217.78936"
     id="path23166" />
  <path
     style="fill:none;stroke:#000000;stroke-width:0.05mm"
     d="m 217.39522,-325.39538 c 0.13127,0.006 0.26264,0.009 0.39405,0.009"
     id="path23168" />
  <path
     style="fill:none;stroke:#000000;stroke-width:0.05mm"
     d="m 217.39522,-325.39538 c 0.0526,-0.52807 -0.31639,-1.00529 -0.84073,-1.0872 -0.52432,-0.0819 -1.02131,0.26001 -1.13224,0.77898"
     id="path23170" />
  <path
     style="fill:none;stroke:#000000;stroke-width:0.05mm"
     d="m -65.045908,-325.38676 c 0.131142,-1.1e-4 0.262505,-0.003 0.394051,-0.009"
     id="path23172" />
  <path
     style="fill:none;stroke:#000000;stroke-width:0.05mm"
     d="m -33.710291,-333.30025 c -0.08427,-0.40555 -0.481354,-0.66599 -0.886902,-0.58172 -0.405555,0.0843 -0.666,0.48134 -0.581726,0.88691"
     id="path23174" />
  <path
     style="fill:none;stroke:#000000;stroke-width:0.05mm"
     d="m -48.07358,-329.95179 c -0.09096,-0.34612 -0.359955,-0.61726 -0.705352,-0.71095 -0.345398,-0.0937 -0.714531,0.004 -0.967942,0.25704 -0.25341,0.25271 -0.352447,0.62157 -0.259704,0.96722"
     id="path23176" />
  <path
     style="fill:none;stroke:#000000;stroke-width:0.05mm"
     d="m -28.803163,-334.25946 c -0.04942,-0.2636 -0.235829,-0.48074 -0.4889,-0.56951 -0.253067,-0.0888 -0.534279,-0.0357 -0.737537,0.1393 -0.203259,0.17495 -0.297627,0.44514 -0.247505,0.70858"
     id="path23178" />
  <path
     style="fill:none;stroke:#000000;stroke-width:0.05mm"
     d="m -62.678881,-325.7036 c 0.126786,-0.0346 0.252755,-0.0719 0.377907,-0.11197"
     id="path23180" />
  <path
     style="fill:none;stroke:#000000;stroke-width:0.05mm"
     d="m -58.62826,-346.88669 h -9.000068"
     id="path23182" />
  <path
     style="fill:none;stroke:#000000;stroke-width:0.05mm"
     d="m -58.62826,-354.88663 v 7.99994"
     id="path23184" />
  <path
     style="fill:none;stroke:#000000;stroke-width:0.05mm"
     d="M 211.37162,-354.88663 H -58.62826"
     id="path23186" />
  <path
     style="fill:none;stroke:#000000;stroke-width:0.05mm"
     d="m -62.678881,-325.7036 c -0.1109,-0.51899 -0.607917,-0.86096 -1.13227,-0.77904 -0.524346,0.0819 -0.893387,0.55916 -0.840714,1.08726"
     id="path23188" />
  <path
     style="fill:none;stroke:#000000;stroke-width:0.05mm"
     d="m -57.699755,-327.24468 c -0.10366,-0.3424 -0.382339,-0.60334 -0.730812,-0.68429 -0.348472,-0.081 -0.713638,0.0304 -0.957626,0.29205 -0.243988,0.26164 -0.32962,0.63369 -0.224571,0.97566"
     id="path23190" />
  <path
     style="fill:none;stroke:#000000;stroke-width:0.05mm"
     d="m -83.628199,-325.38664 h 18.582215"
     id="path23192" />
  <path
     style="fill:none;stroke:#ff0000;stroke-width:0.05mm"
     d="m -47.628321,-343.63676 c -0.414062,1.5e-4 -0.749687,0.33588 -0.749702,0.74998 -1.5e-5,0.41409 0.335579,0.74985 0.749702,0.75002 0.414063,-1.4e-4 0.749688,-0.33586 0.749703,-0.74997 1.5e-5,-0.4141 -0.335579,-0.74985 -0.749703,-0.75003 z"
     id="path23194" />
  <path
     style="fill:none;stroke:#000000;stroke-width:0.05mm"
     d="m -30.277109,-333.98109 c -1.144798,0.21944 -2.29076,0.44669 -3.433189,0.68084"
     id="path23196" />
  <path
     style="fill:none;stroke:#000000;stroke-width:0.05mm"
     d="m -67.628321,-346.88669 v 11.00006"
     id="path23198" />
  <path
     style="fill:none;stroke:#ff0000;stroke-width:0.05mm"
     d="m -64.628321,-331.38676 c -0.413696,7.2e-4 -0.748695,0.33628 -0.748695,0.75 -8e-6,0.4137 0.334984,0.74928 0.748695,0.75 0.413697,-7.1e-4 0.748696,-0.33628 0.748696,-0.75 7e-6,-0.41369 -0.334984,-0.74927 -0.748696,-0.75 z"
     id="path23200" />
  <path
     style="fill:none;stroke:#000000;stroke-width:0.05mm"
     d="m -59.612772,-326.66126 c -0.896431,0.27696 -1.794472,0.55948 -2.688202,0.84569"
     id="path23202" />
  <path
     style="fill:none;stroke:#000000;stroke-width:0.05mm"
     d="m -35.178919,-332.99506 c -1.140648,0.24025 -2.28228,0.48838 -3.420212,0.7433"
     id="path23204" />
  <path
     style="fill:none;stroke:#000000;stroke-width:0.05mm"
     d="m -45.045854,-330.72562 c -1.010499,0.25216 -2.019547,0.51004 -3.027733,0.77383"
     id="path23206" />
  <path
     style="fill:none;stroke:#000000;stroke-width:0.05mm"
     d="m -40.061945,-331.91986 c -1.09835,0.25238 -2.189995,0.51028 -3.28463,0.776"
     id="path23208" />
  <path
     style="fill:none;stroke:#000000;stroke-width:0.05mm"
     d="m -54.894686,-328.07271 c -0.935295,0.27067 -1.8721,0.54719 -2.805069,0.82803"
     id="path23210" />
  <path
     style="fill:none;stroke:#000000;stroke-width:0.05mm"
     d="m -50.006586,-329.43848 c -0.940163,0.25331 -1.881935,0.51247 -2.819908,0.776"
     id="path23212" />
  <path
     style="fill:none;stroke:#000000;stroke-width:0.05mm"
     d="m -83.628199,-335.88663 v 10.49999"
     id="path23214" />
  <path
     style="fill:none;stroke:#000000;stroke-width:0.05mm"
     d="M -67.628321,-335.88663 H -83.628199"
     id="path23216" />
  <path
     style="fill:none;stroke:#000000;stroke-width:0.05mm"
     d="M 236.37157,-384.97372 H 217.78936"
     id="path23218" />
  <path
     style="fill:none;stroke:#000000;stroke-width:0.05mm"
     d="m 236.37157,-384.97372 v 9.99992"
     id="path23220" />
  <path
     style="fill:none;stroke:#000000;stroke-width:0.05mm"
     d="M 236.37157,-374.9738 H 220.37169"
     id="path23222" />
  <path
     style="fill:none;stroke:#000000;stroke-width:0.05mm"
     d="m 220.37169,-374.9738 v 11.49986"
     id="path23224" />
  <path
     style="fill:none;stroke:#000000;stroke-width:0.05mm"
     d="m 211.37162,-363.47394 h 9.00007"
     id="path23226" />
  <path
     style="fill:none;stroke:#000000;stroke-width:0.05mm"
     d="m 211.37162,-355.47374 v -8.00021"
     id="path23228" />
  <path
     style="fill:none;stroke:#000000;stroke-width:0.05mm"
     d="M 211.37162,-355.47374 H -58.62826"
     id="path23230" />
  <path
     style="fill:none;stroke:#000000;stroke-width:0.05mm"
     d="m -58.62826,-355.47374 v -8.00021"
     id="path23232" />
  <path
     style="fill:none;stroke:#000000;stroke-width:0.05mm"
     d="m -58.62826,-363.47394 h -9.000068"
     id="path23234" />
  <path
     style="fill:none;stroke:#000000;stroke-width:0.05mm"
     d="m -67.628321,-363.47394 v -10.9998"
     id="path23236" />
  <path
     style="fill:none;stroke:#000000;stroke-width:0.05mm"
     d="M -67.628321,-374.47374 H -83.628199"
     id="path23238" />
  <path
     style="fill:none;stroke:#000000;stroke-width:0.05mm"
     d="m -83.628199,-374.47374 v -10.49998"
     id="path23240" />
  <path
     style="fill:none;stroke:#000000;stroke-width:0.05mm"
     d="m -59.612772,-383.69931 c -0.105049,0.34197 -0.01941,0.71402 0.224579,0.97565 0.243988,0.26164 0.609154,0.373 0.957626,0.29205 0.348465,-0.081 0.627144,-0.34189 0.730805,-0.68428"
     id="path23242" />
  <path
     style="fill:none;stroke:#000000;stroke-width:0.05mm"
     d="m -57.699755,-383.11589 c 0.932366,0.28067 1.869202,0.55721 2.805069,0.82803"
     id="path23244" />
  <path
     style="fill:none;stroke:#000000;stroke-width:0.05mm"
     d="m -54.894686,-382.28786 c -0.106285,0.36974 -0.0069,0.7681 0.260514,1.04464 0.267456,0.27655 0.662277,0.38913 1.035362,0.29525 0.373093,-0.0939 0.667595,-0.37993 0.772316,-0.75012"
     id="path23246" />
  <path
     style="fill:none;stroke:#000000;stroke-width:0.05mm"
     d="m -52.826494,-381.69809 c 0.937385,0.26335 1.879074,0.52251 2.819908,0.776"
     id="path23248" />
  <path
     style="fill:none;stroke:#000000;stroke-width:0.05mm"
     d="m -50.006586,-380.92209 c -0.09289,0.34571 0.0061,0.71469 0.259529,0.96749 0.253441,0.2528 0.622673,0.35086 0.96814,0.25709 0.345466,-0.0938 0.614471,-0.36503 0.70533,-0.71127"
     id="path23250" />
  <path
     style="fill:none;stroke:#000000;stroke-width:0.05mm"
     d="m -48.07358,-380.40877 c 1.007531,0.26361 2.016648,0.52152 3.027733,0.77382"
     id="path23252" />
  <path
     style="fill:none;stroke:#000000;stroke-width:0.05mm"
     d="m -45.045854,-379.63495 c -0.07531,0.30377 0.01735,0.62464 0.243003,0.84148 0.225655,0.21686 0.549942,0.29668 0.850472,0.20933 0.300522,-0.0873 0.531525,-0.32853 0.605804,-0.63255"
     id="path23254" />
  <path
     style="fill:none;stroke:#000000;stroke-width:0.05mm"
     d="m -43.346575,-379.21669 c 1.095131,0.26584 2.186852,0.52374 3.28463,0.77599"
     id="path23256" />
  <path
     style="fill:none;stroke:#000000;stroke-width:0.05mm"
     d="m -40.061945,-378.4407 c -0.0602,0.26165 0.02406,0.53553 0.220925,0.71811 0.196868,0.18257 0.47631,0.24597 0.732696,0.16624 0.256386,-0.0797 0.450584,-0.29044 0.509193,-0.55246"
     id="path23258" />
  <path
     style="fill:none;stroke:#000000;stroke-width:0.05mm"
     d="m -38.599131,-378.10881 c 1.137436,0.25482 2.279091,0.50293 3.420212,0.7433"
     id="path23260" />
  <path
     style="fill:none;stroke:#000000;stroke-width:0.05mm"
     d="m -35.178919,-377.36551 c -0.05458,0.26238 0.03499,0.53394 0.234955,0.71236 0.199959,0.17842 0.479935,0.23659 0.734421,0.15259 0.254486,-0.084 0.444809,-0.29741 0.499252,-0.55977"
     id="path23262" />
  <path
     style="fill:none;stroke:#000000;stroke-width:0.05mm"
     d="m -33.710291,-377.06032 c 1.141987,0.23406 2.287869,0.46131 3.433186,0.68085"
     id="path23264" />
  <path
     style="fill:none;stroke:#000000;stroke-width:0.05mm"
     d="m -30.277109,-376.37947 c -0.05029,0.26353 0.04402,0.53386 0.247322,0.70892 0.203304,0.17507 0.484638,0.2282 0.737785,0.13935 0.253151,-0.0889 0.439553,-0.30617 0.488835,-0.5699"
     id="path23266" />
  <path
     style="fill:none;stroke:#000000;stroke-width:0.05mm"
     d="m -28.803163,-376.10112 c 1.145973,0.2132 2.295806,0.41953 3.445022,0.61816"
     id="path23268" />
  <path
     style="fill:none;stroke:#000000;stroke-width:0.05mm"
     d="m -25.358141,-375.48294 c -0.04516,0.26427 0.05417,0.53255 0.260544,0.70367 0.206371,0.17113 0.488392,0.21909 0.739731,0.1258 0.251339,-0.0933 0.433765,-0.31365 0.478496,-0.578"
     id="path23270" />
  <path
     style="fill:none;stroke:#000000;stroke-width:0.05mm"
     d="m -23.87937,-375.23147 c 1.233494,0.20626 2.46608,0.40374 3.702816,0.59324"
     id="path23272" />
  <path
     style="fill:none;stroke:#000000;stroke-width:0.05mm"
     d="m -20.176554,-374.63823 c -0.02713,0.17681 0.04227,0.35463 0.181973,0.46634 0.139706,0.11171 0.328441,0.14027 0.494945,0.0749 0.166504,-0.0654 0.285408,-0.2147 0.311821,-0.39161"
     id="path23274" />
  <path
     style="fill:none;stroke:#000000;stroke-width:0.05mm"
     d="m -19.187815,-374.48859 c 1.319428,0.19722 2.637913,0.38451 3.960282,0.56252"
     id="path23276" />
  <path
     style="fill:none;stroke:#000000;stroke-width:0.05mm"
     d="m -15.227533,-373.92607 c -0.03634,0.27373 0.156109,0.5251 0.429847,0.56145 0.273739,0.0363 0.525113,-0.15612 0.561455,-0.42984"
     id="path23278" />
  <path
     style="fill:none;stroke:#000000;stroke-width:0.05mm"
     d="m -14.236231,-373.79448 c 1.322598,0.17311 2.644387,0.33634 3.969876,0.49025"
     id="path23280" />
  <path
     style="fill:none;stroke:#000000;stroke-width:0.05mm"
     d="m -10.266352,-373.30423 c -0.03135,0.27435 0.16565,0.52219 0.4400069,0.55353 0.274356,0.0314 0.522182,-0.16565 0.553531,-0.44"
     id="path23282" />
  <path
     style="fill:none;stroke:#000000;stroke-width:0.05mm"
     d="m -9.2728181,-373.1907 c 10.17465404,1.14369 20.4057681,1.7169 30.6444951,1.71689"
     id="path23284" />
  <path
     style="fill:none;stroke:#000000;stroke-width:0.05mm"
     d="M 21.371688,-371.47388 H 131.37168"
     id="path23286" />
  <path
     style="fill:none;stroke:#000000;stroke-width:0.05mm"
     d="m 131.37168,-371.47381 c 10.23881,1e-5 20.46982,-0.5732 30.64448,-1.71689"
     id="path23288" />
  <path
     style="fill:none;stroke:#000000;stroke-width:0.05mm"
     d="m 162.01616,-373.1907 c 0.0314,0.27435 0.27919,0.47136 0.55355,0.44 0.27435,-0.0313 0.47136,-0.27918 0.44,-0.55353"
     id="path23290" />
  <path
     style="fill:none;stroke:#000000;stroke-width:0.05mm"
     d="m 163.00971,-373.30423 c 1.32501,-0.15384 2.64679,-0.31708 3.96988,-0.49025"
     id="path23292" />
  <path
     style="fill:none;stroke:#000000;stroke-width:0.05mm"
     d="m 166.97959,-373.79448 c 0.0233,0.17723 0.13953,0.32852 0.30473,0.39681 0.16519,0.0683 0.35428,0.0432 0.49594,-0.0659 0.14167,-0.10902 0.21434,-0.28538 0.19063,-0.46257"
     id="path23294" />
  <path
     style="fill:none;stroke:#000000;stroke-width:0.05mm"
     d="m 167.97089,-373.92607 c 1.32211,-0.17796 2.6406,-0.36523 3.96028,-0.56252"
     id="path23296" />
  <path
     style="fill:none;stroke:#000000;stroke-width:0.05mm"
     d="m 171.93117,-374.48859 c 0.0264,0.17691 0.14533,0.32625 0.31183,0.39161 0.16649,0.0654 0.35523,0.0368 0.49494,-0.0749 0.13971,-0.11171 0.2091,-0.28953 0.18197,-0.46634"
     id="path23298" />
  <path
     style="fill:none;stroke:#000000;stroke-width:0.05mm"
     d="m 172.91991,-374.63823 c 1.23627,-0.18941 2.46886,-0.3869 3.70282,-0.59324"
     id="path23300" />
  <path
     style="fill:none;stroke:#000000;stroke-width:0.05mm"
     d="m 176.62273,-375.23147 c 0.0694,0.40835 0.45677,0.68309 0.86513,0.61364 0.40836,-0.0694 0.68309,-0.45675 0.61365,-0.86511"
     id="path23302" />
  <path
     style="fill:none;stroke:#000000;stroke-width:0.05mm"
     d="m 178.10149,-375.48294 c 1.14858,-0.19852 2.29852,-0.40486 3.44502,-0.61816"
     id="path23304" />
  <path
     style="fill:none;stroke:#000000;stroke-width:0.05mm"
     d="m 181.54651,-376.10112 c 0.0769,0.40701 0.46914,0.67465 0.87615,0.59778 0.40703,-0.0769 0.67467,-0.46913 0.59781,-0.87615"
     id="path23306" />
  <path
     style="fill:none;stroke:#000000;stroke-width:0.05mm"
     d="m 183.02047,-376.37947 c 1.14482,-0.21944 2.2908,-0.4467 3.43318,-0.68085"
     id="path23308" />
  <path
     style="fill:none;stroke:#000000;stroke-width:0.05mm"
     d="m 186.45365,-377.06032 c 0.0541,0.26281 0.24441,0.4767 0.49914,0.56095 0.25473,0.0842 0.53507,0.026 0.73516,-0.15277 0.20007,-0.17875 0.28944,-0.45076 0.23433,-0.71335"
     id="path23310" />
  <path
     style="fill:none;stroke:#000000;stroke-width:0.05mm"
     d="m 187.92228,-377.36551 c 1.14061,-0.24025 2.28225,-0.48836 3.42019,-0.7433"
     id="path23312" />
  <path
     style="fill:none;stroke:#000000;stroke-width:0.05mm"
     d="m 191.34247,-378.10881 c 0.0586,0.26202 0.25281,0.47272 0.5092,0.55246 0.25638,0.0797 0.53583,0.0163 0.7327,-0.16624 0.19687,-0.18258 0.28113,-0.45646 0.22092,-0.71811"
     id="path23314" />
  <path
     style="fill:none;stroke:#000000;stroke-width:0.05mm"
     d="m 192.8053,-378.4407 c 1.0983,-0.25235 2.19002,-0.51027 3.28464,-0.77599"
     id="path23316" />
  <path
     style="fill:none;stroke:#000000;stroke-width:0.05mm"
     d="m 196.08993,-379.21669 c 0.0743,0.30402 0.30528,0.54521 0.6058,0.63255 0.30054,0.0874 0.62482,0.008 0.85048,-0.20933 0.22565,-0.21686 0.31831,-0.53771 0.243,-0.84148"
     id="path23318" />
  <path
     style="fill:none;stroke:#000000;stroke-width:0.05mm"
     d="m 197.78921,-379.63495 c 1.01048,-0.25213 2.01959,-0.51004 3.02772,-0.77382"
     id="path23320" />
  <path
     style="fill:none;stroke:#000000;stroke-width:0.05mm"
     d="m 200.81693,-380.40877 c 0.0909,0.34624 0.35986,0.61751 0.70532,0.71128 0.34548,0.0938 0.71471,-0.004 0.96814,-0.2571 0.25345,-0.25279 0.35243,-0.62178 0.25954,-0.96748"
     id="path23322" />
  <path
     style="fill:none;stroke:#000000;stroke-width:0.05mm"
     d="m 202.74994,-380.92209 c 0.94016,-0.25331 1.88195,-0.51248 2.81992,-0.776"
     id="path23324" />
  <path
     style="fill:none;stroke:#000000;stroke-width:0.05mm"
     d="m 205.56984,-381.69809 c 0.10473,0.37019 0.39924,0.65624 0.77233,0.75012 0.37308,0.0939 0.7679,-0.0187 1.03535,-0.29524 0.26746,-0.27655 0.36681,-0.6749 0.26052,-1.04465"
     id="path23326" />
  <path
     style="fill:none;stroke:#000000;stroke-width:0.05mm"
     d="m 207.63804,-382.28786 c 0.9353,-0.27064 1.87205,-0.54716 2.80508,-0.82803"
     id="path23328" />
  <path
     style="fill:none;stroke:#000000;stroke-width:0.05mm"
     d="m 210.44312,-383.11589 c 0.10367,0.34239 0.38234,0.60333 0.73082,0.68428 0.34847,0.0809 0.71364,-0.0304 0.95761,-0.29205 0.24399,-0.26164 0.32962,-0.63368 0.22458,-0.97565"
     id="path23330" />
  <path
     style="fill:none;stroke:#000000;stroke-width:0.05mm"
     d="m 212.35613,-383.69931 c 0.8965,-0.27698 1.79451,-0.55948 2.6882,-0.8457"
     id="path23332" />
  <path
     style="fill:none;stroke:#000000;stroke-width:0.05mm"
     d="m 215.42223,-384.65697 c -0.12677,0.0346 -0.25276,0.0719 -0.37791,0.11197"
     id="path23334" />
  <path
     style="fill:none;stroke:#000000;stroke-width:0.05mm"
     d="m 215.42223,-384.65697 c 0.11093,0.51896 0.60793,0.86089 1.13225,0.77898 0.52432,-0.0819 0.89336,-0.55913 0.84073,-1.08719"
     id="path23336" />
  <path
     style="fill:none;stroke:#000000;stroke-width:0.05mm"
     d="m 217.78927,-384.97381 c -0.13114,1.2e-4 -0.2625,0.003 -0.39405,0.009"
     id="path23338" />
  <path
     style="fill:none;stroke:#ff0000;stroke-width:0.05mm"
     d="m 200.37168,-368.22381 c -0.41405,1.3e-4 -0.74968,0.33587 -0.7497,0.74996 -1e-5,0.4141 0.33559,0.74985 0.7497,0.75004 0.41405,-1.4e-4 0.74968,-0.33588 0.74969,-0.74997 2e-5,-0.4141 -0.33558,-0.74985 -0.74969,-0.75003 z"
     id="path23340" />
  <path
     style="fill:none;stroke:#ff0000;stroke-width:0.05mm"
     d="m 217.37168,-380.72381 c -0.4137,7.1e-4 -0.7487,0.33628 -0.7487,0.75 0,0.41369 0.33499,0.74928 0.7487,0.75 0.4137,-7.2e-4 0.7487,-0.33629 0.7487,-0.75 0,-0.4137 -0.33499,-0.74929 -0.7487,-0.75 z"
     id="path23342" />
  <path
     style="fill:none;stroke:#ff0000;stroke-width:0.05mm"
     d="m -64.628321,-380.47381 c -0.413696,7.1e-4 -0.748695,0.33628 -0.748695,0.75 -8e-6,0.41369 0.334984,0.74928 0.748695,0.75 0.413697,-7.2e-4 0.748696,-0.33629 0.748696,-0.75 7e-6,-0.4137 -0.334984,-0.74929 -0.748696,-0.75 z"
     id="path23344" />
  <path
     style="fill:none;stroke:#ff0000;stroke-width:0.05mm"
     d="m -20.972059,-365.72381 c -0.414063,1.3e-4 -0.749687,0.33587 -0.749703,0.74996 -1.5e-5,0.4141 0.335579,0.74985 0.749703,0.75004 0.414062,-1.4e-4 0.749687,-0.33588 0.749702,-0.74997 1.6e-5,-0.4141 -0.335579,-0.74985 -0.749702,-0.75003 z"
     id="path23346" />
  <path
     style="fill:none;stroke:#ff0000;stroke-width:0.05mm"
     d="m -47.628321,-368.22381 c -0.414062,1.3e-4 -0.749687,0.33587 -0.749702,0.74996 -1.5e-5,0.4141 0.335579,0.74985 0.749702,0.75004 0.414063,-1.4e-4 0.749688,-0.33588 0.749703,-0.74997 1.5e-5,-0.4141 -0.335579,-0.74985 -0.749703,-0.75003 z"
     id="path23348" />
  <path
     style="fill:none;stroke:#ff0000;stroke-width:0.05mm"
     d="m 124.12168,-364.72381 c -0.4137,7.1e-4 -0.7487,0.33628 -0.7487,0.75 0,0.41369 0.33499,0.74928 0.7487,0.75 0.4137,-7.2e-4 0.74869,-0.33629 0.74869,-0.75 1e-5,-0.4137 -0.33498,-0.74929 -0.74869,-0.75 z"
     id="path23350" />
  <path
     style="fill:none;stroke:#ff0000;stroke-width:0.05mm"
     d="m 28.621679,-364.72381 c -0.413697,7.1e-4 -0.748695,0.33628 -0.748698,0.75 -4e-6,0.41369 0.334988,0.74928 0.748698,0.75 0.413696,-7.2e-4 0.748694,-0.33629 0.748697,-0.75 4e-6,-0.4137 -0.334988,-0.74929 -0.748697,-0.75 z"
     id="path23352" />
  <path
     style="fill:none;stroke:#ff0000;stroke-width:0.05mm"
     d="m 173.71541,-365.72381 c -0.41404,1.3e-4 -0.74968,0.33587 -0.74969,0.74996 -2e-5,0.4141 0.33559,0.74985 0.74969,0.75004 0.41405,-1.4e-4 0.74968,-0.33588 0.7497,-0.74997 1e-5,-0.4141 -0.33559,-0.74985 -0.7497,-0.75003 z"
     id="path23354" />
  <path
     style="fill:none;stroke:#000000;stroke-width:0.05mm"
     d="m -83.628199,-384.97372 h 18.582215"
     id="path23356" />
  <path
     style="fill:none;stroke:#000000;stroke-width:0.05mm"
     d="m -64.651865,-384.96518 c -0.05267,0.52809 0.316376,1.00534 0.840721,1.08725 0.524346,0.0819 1.021355,-0.26005 1.132263,-0.77904"
     id="path23358" />
  <path
     style="fill:none;stroke:#000000;stroke-width:0.05mm"
     d="m -64.651865,-384.96518 c -0.131271,-0.006 -0.262634,-0.009 -0.394051,-0.009"
     id="path23360" />
  <path
     style="fill:none;stroke:#000000;stroke-width:0.05mm"
     d="m -62.300974,-384.545 c -0.125145,-0.0401 -0.251129,-0.0774 -0.377907,-0.11197"
     id="path23362" />
  <path
     style="fill:none;stroke:#000000;stroke-width:0.05mm"
     d="m -62.300974,-384.545 c 0.89357,0.28617 1.791588,0.56868 2.688202,0.84571"
     id="path23364" />
  <path
     style="fill:none;stroke:#000000;stroke-width:0.05mm"
     d="M 47.709956,-210.29722 H 64.95814"
     id="path23366" />
  <path
     style="fill:none;stroke:#000000;stroke-width:0.05mm"
     d="m 47.709018,-210.29769 c -28.60631,0 -57.0393093,4.44175 -84.282631,13.16647"
     id="path23368" />
  <path
     style="fill:none;stroke:#000000;stroke-width:0.05mm"
     d="m -38.708566,-196.7977 c 0.724621,0 1.444851,-0.11251 2.134953,-0.33352"
     id="path23370" />
  <path
     style="fill:none;stroke:#000000;stroke-width:0.05mm"
     d="m -57.289937,-196.79817 h 18.581688"
     id="path23372" />
  <path
     style="fill:none;stroke:#000000;stroke-width:0.05mm"
     d="m -57.289937,-205.29659 v 8.49842"
     id="path23374" />
  <path
     style="fill:none;stroke:#000000;stroke-width:0.05mm"
     d="M -41.290582,-205.29659 H -57.289937"
     id="path23376" />
  <path
     style="fill:none;stroke:#000000;stroke-width:0.05mm"
     d="m -41.290582,-216.29797 v 11.00138"
     id="path23378" />
  <path
     style="fill:none;stroke:#000000;stroke-width:0.05mm"
     d="m -32.292104,-216.29797 h -8.998478"
     id="path23380" />
  <path
     style="fill:none;stroke:#000000;stroke-width:0.05mm"
     d="m -32.292104,-220.29846 v 4.00049"
     id="path23382" />
  <path
     style="fill:none;stroke:#000000;stroke-width:0.05mm"
     d="M 64.95814,-220.29846 H -32.292104"
     id="path23384" />
  <path
     style="fill:none;stroke:#000000;stroke-width:0.05mm"
     d="m 64.95814,-220.29846 v 10.00124"
     id="path23386" />
  <path
     style="fill:none;stroke:#ff0000;stroke-width:0.05mm"
     d="m -38.290979,-200.7977 c -0.414058,1.4e-4 -0.749683,0.33587 -0.749698,0.74997 -1.9e-5,0.4141 0.335579,0.74986 0.749698,0.75003 0.414059,-1.4e-4 0.749684,-0.33587 0.749703,-0.74997 1.5e-5,-0.4141 -0.335583,-0.74985 -0.749703,-0.75003 z"
     id="path23388" />
  <path
     style="fill:none;stroke:#ff0000;stroke-width:0.05mm"
     d="m 5.3652847,-215.54769 c -0.413742,6.8e-4 -0.748772,0.33627 -0.748768,0.75 4e-6,0.41373 0.335041,0.74931 0.748768,0.74999 0.414062,-1.4e-4 0.749687,-0.33587 0.749702,-0.74997 1.5e-5,-0.4141 -0.335579,-0.74985 -0.749702,-0.75003 z"
     id="path23390" />
  <path
     style="fill:none;stroke:#ff0000;stroke-width:0.05mm"
     d="m -21.290979,-213.04769 c -0.41406,1.4e-4 -0.749683,0.33586 -0.7497,0.74997 -1.7e-5,0.4141 0.335579,0.74985 0.7497,0.75003 0.414061,-1.5e-4 0.749686,-0.33587 0.749703,-0.74997 1.5e-5,-0.4141 -0.335581,-0.74986 -0.749703,-0.75003 z"
     id="path23392" />
  <path
     style="fill:none;stroke:#ff0000;stroke-width:0.05mm"
     d="m 54.959018,-216.5477 c -0.414063,1.5e-4 -0.749688,0.33587 -0.749703,0.74997 -1.5e-5,0.4141 0.335579,0.74986 0.749703,0.75003 0.414062,-1.4e-4 0.749687,-0.33587 0.749702,-0.74997 1.5e-5,-0.4141 -0.335579,-0.74985 -0.749702,-0.75003 z"
     id="path23394" />
  <path
     style="fill:none;stroke:#ff0000;stroke-width:0.05mm"
     d="m -31.290977,-215.2977 c -0.552286,0 -1.000002,0.44772 -1.000002,1 0,0.55229 0.447716,1 1.000002,1.00001 0.552286,-1e-5 1.000002,-0.44772 1.000002,-1.00001 0,-0.55228 -0.447716,-1 -1.000002,-1 z"
     id="path23396" />
  <path
     style="fill:none;stroke:#ff0000;stroke-width:0.05mm"
     d="m 44.959018,-217.54769 c -0.551713,8e-4 -0.998536,0.44828 -0.998536,0.99999 0,0.55172 0.446823,0.9992 0.998536,1 0.552093,-2.7e-4 0.999511,-0.4479 0.999511,-1 0,-0.55209 -0.447418,-0.99973 -0.999511,-1 z"
     id="path23398" />
  <path
     style="fill:none;stroke:#000000;stroke-width:0.05mm"
     d="m -32.247125,-220.36726 v -4.0005"
     id="path23400" />
  <path
     style="fill:none;stroke:#000000;stroke-width:0.05mm"
     d="M -32.247125,-224.36776 H -41.24825"
     id="path23402" />
  <path
     style="fill:none;stroke:#000000;stroke-width:0.05mm"
     d="m -41.24825,-224.36776 v -11.00137"
     id="path23404" />
  <path
     style="fill:none;stroke:#000000;stroke-width:0.05mm"
     d="M -41.24825,-235.36913 H -57.247602"
     id="path23406" />
  <path
     style="fill:none;stroke:#000000;stroke-width:0.05mm"
     d="m -57.247602,-235.36913 v -8.49842"
     id="path23408" />
  <path
     style="fill:none;stroke:#000000;stroke-width:0.05mm"
     d="m -57.247602,-243.86755 h 18.581688"
     id="path23410" />
  <path
     style="fill:none;stroke:#000000;stroke-width:0.05mm"
     d="m -36.530603,-243.53494 c -0.690098,-0.221 -1.410331,-0.33352 -2.134952,-0.33352"
     id="path23412" />
  <path
     style="fill:none;stroke:#000000;stroke-width:0.05mm"
     d="m -36.530603,-243.53494 c 27.2433587,8.72473 55.676398,13.16648 84.282635,13.16648"
     id="path23414" />
  <path
     style="fill:none;stroke:#000000;stroke-width:0.05mm"
     d="M 47.752291,-230.36851 H 65.003123"
     id="path23416" />
  <path
     style="fill:none;stroke:#000000;stroke-width:0.05mm"
     d="m 65.003123,-220.36726 v -10.00125"
     id="path23418" />
  <path
     style="fill:none;stroke:#000000;stroke-width:0.05mm"
     d="M 65.003123,-220.36726 H -32.247125"
     id="path23420" />
  <path
     style="fill:none;stroke:#ff0000;stroke-width:0.05mm"
     d="m 45.002032,-225.11846 c -0.552284,0 -1,0.44772 -1,1 0,0.55229 0.447716,1 1,1 0.552094,-2.6e-4 0.999512,-0.4479 0.999512,-1 0,-0.55209 -0.447418,-0.99973 -0.999512,-1 z"
     id="path23422" />
  <path
     style="fill:none;stroke:#ff0000;stroke-width:0.05mm"
     d="m -31.247966,-227.36846 c -0.552094,2.7e-4 -0.999512,0.44791 -0.999512,1 0,0.5521 0.447418,0.99973 0.999512,1 0.552095,-2.7e-4 0.999512,-0.4479 0.999512,-1 0,-0.55209 -0.447417,-0.99973 -0.999512,-1 z"
     id="path23424" />
  <path
     style="fill:none;stroke:#ff0000;stroke-width:0.05mm"
     d="m 55.002032,-225.61846 c -0.413856,5e-4 -0.7491,0.33614 -0.7491,0.75 0,0.41387 0.335244,0.74951 0.7491,0.75 0.413857,-4.9e-4 0.7491,-0.33613 0.7491,-0.75 0,-0.41386 -0.335243,-0.7495 -0.7491,-0.75 z"
     id="path23426" />
  <path
     style="fill:none;stroke:#ff0000;stroke-width:0.05mm"
     d="m -21.247964,-229.11846 c -0.414061,1.5e-4 -0.749685,0.33587 -0.749703,0.74997 -1.5e-5,0.4141 0.335581,0.74986 0.749703,0.75003 0.41406,-1.4e-4 0.749683,-0.33587 0.7497,-0.74997 1.8e-5,-0.4141 -0.335579,-0.74985 -0.7497,-0.75003 z"
     id="path23428" />
  <path
     style="fill:none;stroke:#ff0000;stroke-width:0.05mm"
     d="m 5.4082947,-226.61846 c -0.414062,1.5e-4 -0.749685,0.33587 -0.749702,0.74997 -1.7e-5,0.4141 0.335579,0.74986 0.749702,0.75003 0.414063,-1.4e-4 0.749688,-0.33587 0.749703,-0.74997 1.5e-5,-0.4141 -0.335579,-0.74985 -0.749703,-0.75003 z"
     id="path23430" />
  <path
     style="fill:none;stroke:#ff0000;stroke-width:0.05mm"
     d="m -38.247964,-241.36846 c -0.414074,2.5e-4 -0.749588,0.33598 -0.749577,0.75002 8e-6,0.41405 0.335541,0.74976 0.749577,0.74998 0.414074,-2.4e-4 0.749588,-0.33597 0.749576,-0.75001 -7e-6,-0.41405 -0.33554,-0.74976 -0.749576,-0.74999 z"
     id="path23432" />
  <path
     style="fill:none;stroke:#000000;stroke-width:0.05mm"
     d="M -39.63492,-190.36881 H -56.885225"
     id="path23434" />
  <path
     style="fill:none;stroke:#000000;stroke-width:0.05mm"
     d="m -39.635195,-190.36833 c 28.606323,0 57.03933,-4.44175 84.282646,-13.16648"
     id="path23436" />
  <path
     style="fill:none;stroke:#000000;stroke-width:0.05mm"
     d="m 46.7824,-203.86833 c -0.724617,0 -1.444839,0.11251 -2.134949,0.33352"
     id="path23438" />
  <path
     style="fill:none;stroke:#000000;stroke-width:0.05mm"
     d="M 65.364973,-203.86785 H 46.783285"
     id="path23440" />
  <path
     style="fill:none;stroke:#000000;stroke-width:0.05mm"
     d="m 65.364973,-195.36944 v -8.49841"
     id="path23442" />
  <path
     style="fill:none;stroke:#000000;stroke-width:0.05mm"
     d="M 49.365621,-195.36944 H 65.364973"
     id="path23444" />
  <path
     style="fill:none;stroke:#000000;stroke-width:0.05mm"
     d="m 49.365621,-184.36806 v -11.00138"
     id="path23446" />
  <path
     style="fill:none;stroke:#000000;stroke-width:0.05mm"
     d="m 40.364492,-184.36806 h 9.001129"
     id="path23448" />
  <path
     style="fill:none;stroke:#000000;stroke-width:0.05mm"
     d="m 40.364492,-180.36756 v -4.0005"
     id="path23450" />
  <path
     style="fill:none;stroke:#000000;stroke-width:0.05mm"
     d="M -56.885225,-180.36756 H 40.364492"
     id="path23452" />
  <path
     style="fill:none;stroke:#000000;stroke-width:0.05mm"
     d="m -56.885225,-180.36756 v -10.00125"
     id="path23454" />
  <path
     style="fill:none;stroke:#ff0000;stroke-width:0.05mm"
     d="m 46.364813,-199.86833 c 0.414062,-1.4e-4 0.749687,-0.33587 0.749702,-0.74997 1.5e-5,-0.4141 -0.335579,-0.74985 -0.749702,-0.75003 -0.414063,1.4e-4 -0.749687,0.33587 -0.749703,0.74997 -1.5e-5,0.4141 0.335579,0.74985 0.749703,0.75003 z"
     id="path23456" />
  <path
     style="fill:none;stroke:#ff0000;stroke-width:0.05mm"
     d="m 2.7085547,-185.11833 c 0.413742,-6.9e-4 0.748764,-0.33627 0.748764,-0.75001 0,-0.41373 -0.335037,-0.74931 -0.748764,-0.74999 -0.414047,1.4e-4 -0.749679,0.33587 -0.749695,0.74997 -1.5e-5,0.4141 0.335587,0.74985 0.749695,0.75003 z"
     id="path23458" />
  <path
     style="fill:none;stroke:#ff0000;stroke-width:0.05mm"
     d="m 29.364813,-187.61833 c 0.414055,-1.4e-4 0.749687,-0.33587 0.749695,-0.74997 2.2e-5,-0.4141 -0.335564,-0.74985 -0.749695,-0.75003 -0.414063,1.4e-4 -0.749695,0.33587 -0.749703,0.74997 -2.3e-5,0.4141 0.335579,0.74985 0.749703,0.75003 z"
     id="path23460" />
  <path
     style="fill:none;stroke:#ff0000;stroke-width:0.05mm"
     d="m -46.885195,-184.11833 c 0.414047,-1.4e-4 0.74968,-0.33587 0.749695,-0.74997 1.5e-5,-0.4141 -0.335587,-0.74985 -0.749695,-0.75003 -0.414047,1.4e-4 -0.749679,0.33587 -0.749695,0.74997 -1.5e-5,0.4141 0.335587,0.74985 0.749695,0.75003 z"
     id="path23462" />
  <path
     style="fill:none;stroke:#ff0000;stroke-width:0.05mm"
     d="m 39.364813,-185.36833 c 0.552292,0 1,-0.44771 1,-1 0,-0.55229 -0.447708,-1 -1,-1 -0.552284,0 -1,0.44771 -1,1 0,0.55229 0.447716,1 1,1 z"
     id="path23464" />
  <path
     style="fill:none;stroke:#ff0000;stroke-width:0.05mm"
     d="m -36.885195,-183.11833 c 0.551712,-8.1e-4 0.998535,-0.44829 0.998535,-1 0,-0.55171 -0.446823,-0.99919 -0.998535,-1 -0.552093,2.7e-4 -0.999512,0.44791 -0.999512,1 0,0.55209 0.447419,0.99973 0.999512,1 z"
     id="path23466" />
  <path
     style="fill:none;stroke:#000000;stroke-width:0.05mm"
     d="m 40.261305,-179.92306 v 3.99785"
     id="path23468" />
  <path
     style="fill:none;stroke:#000000;stroke-width:0.05mm"
     d="m 40.261305,-175.92521 h 9.001129"
     id="path23470" />
  <path
     style="fill:none;stroke:#000000;stroke-width:0.05mm"
     d="m 49.262434,-175.92521 v 11.00138"
     id="path23472" />
  <path
     style="fill:none;stroke:#000000;stroke-width:0.05mm"
     d="M 49.262434,-164.92383 H 65.261785"
     id="path23474" />
  <path
     style="fill:none;stroke:#000000;stroke-width:0.05mm"
     d="m 65.261785,-164.92383 v 8.50106"
     id="path23476" />
  <path
     style="fill:none;stroke:#000000;stroke-width:0.05mm"
     d="M 65.261785,-156.42277 H 46.680097"
     id="path23478" />
  <path
     style="fill:none;stroke:#000000;stroke-width:0.05mm"
     d="m 44.544248,-156.75743 c 0.690102,0.22101 1.410332,0.33352 2.134957,0.33352"
     id="path23480" />
  <path
     style="fill:none;stroke:#000000;stroke-width:0.05mm"
     d="m 44.544248,-156.75743 c -27.243354,-8.72473 -55.676406,-13.16648 -84.282638,-13.16648"
     id="path23482" />
  <path
     style="fill:none;stroke:#000000;stroke-width:0.05mm"
     d="M -39.738115,-169.92446 H -56.988421"
     id="path23484" />
  <path
     style="fill:none;stroke:#000000;stroke-width:0.05mm"
     d="m -56.988405,-179.92306 v 9.9986"
     id="path23486" />
  <path
     style="fill:none;stroke:#000000;stroke-width:0.05mm"
     d="m -56.988405,-179.92306 h 97.24971"
     id="path23488" />
  <path
     style="fill:none;stroke:#ff0000;stroke-width:0.05mm"
     d="m -36.98839,-175.17391 c 0.552093,-2.7e-4 0.999512,-0.4479 0.999512,-1 0,-0.55209 -0.447419,-0.99973 -0.999512,-1 -0.552094,2.7e-4 -0.999512,0.44791 -0.999512,1 0,0.5521 0.447418,0.99973 0.999512,1 z"
     id="path23490" />
  <path
     style="fill:none;stroke:#ff0000;stroke-width:0.05mm"
     d="m 39.26161,-172.92391 c 0.552093,-2.7e-4 0.999512,-0.4479 0.999512,-1 0,-0.55209 -0.447419,-0.99973 -0.999512,-1 -0.552086,2.7e-4 -0.999512,0.44791 -0.999512,1 0,0.5521 0.447426,0.99973 0.999512,1 z"
     id="path23492" />
  <path
     style="fill:none;stroke:#ff0000;stroke-width:0.05mm"
     d="m -46.98839,-174.67391 c 0.414047,-1.4e-4 0.74968,-0.33586 0.749695,-0.74997 1.5e-5,-0.4141 -0.335587,-0.74985 -0.749695,-0.75003 -0.414047,1.5e-4 -0.74968,0.33587 -0.749695,0.74997 -1.5e-5,0.4141 0.335587,0.74986 0.749695,0.75003 z"
     id="path23494" />
  <path
     style="fill:none;stroke:#ff0000;stroke-width:0.05mm"
     d="m 29.26161,-171.17391 c 0.414062,-1.4e-4 0.749695,-0.33587 0.749702,-0.74997 1.6e-5,-0.4141 -0.335579,-0.74985 -0.749702,-0.75003 -0.414063,1.5e-4 -0.749687,0.33587 -0.749703,0.74997 -1.5e-5,0.4141 0.335587,0.74986 0.749703,0.75003 z"
     id="path23496" />
  <path
     style="fill:none;stroke:#ff0000;stroke-width:0.05mm"
     d="m 2.6053447,-173.67391 c 0.414047,-1.4e-4 0.749679,-0.33586 0.749695,-0.74997 1.5e-5,-0.4141 -0.335587,-0.74985 -0.749695,-0.75003 -0.414048,1.5e-4 -0.74968,0.33587 -0.749695,0.74997 -1.5e-5,0.4141 0.335586,0.74986 0.749695,0.75003 z"
     id="path23498" />
  <path
     style="fill:none;stroke:#ff0000;stroke-width:0.05mm"
     d="m 46.26161,-158.92391 c 0.414078,-2.4e-4 0.749588,-0.33597 0.74958,-0.75002 -7e-6,-0.41404 -0.33554,-0.74975 -0.74958,-0.74998 -0.414078,2.5e-4 -0.749588,0.33598 -0.74958,0.75002 7e-6,0.41405 0.33554,0.74976 0.74958,0.74998 z"
     id="path23500" />
  <path
     style="fill:none;stroke:#000000;stroke-width:0.05mm"
     d="M 94.6615,-187.36511 H 77.411195"
     id="path23502" />
  <path
     style="fill:none;stroke:#000000;stroke-width:0.05mm"
     d="m 94.661225,-187.36464 c 28.606325,0 57.039325,-4.44175 84.282645,-13.16647"
     id="path23504" />
  <path
     style="fill:none;stroke:#000000;stroke-width:0.05mm"
     d="m 181.07882,-200.86463 c -0.72462,0 -1.44484,0.11251 -2.13495,0.33352"
     id="path23506" />
  <path
     style="fill:none;stroke:#000000;stroke-width:0.05mm"
     d="M 199.66139,-200.86416 H 181.0797"
     id="path23508" />
  <path
     style="fill:none;stroke:#000000;stroke-width:0.05mm"
     d="m 199.66139,-192.36574 v -8.49842"
     id="path23510" />
  <path
     style="fill:none;stroke:#000000;stroke-width:0.05mm"
     d="m 183.66204,-192.36574 h 15.99935"
     id="path23512" />
  <path
     style="fill:none;stroke:#000000;stroke-width:0.05mm"
     d="m 183.66204,-181.36436 v -11.00138"
     id="path23514" />
  <path
     style="fill:none;stroke:#000000;stroke-width:0.05mm"
     d="m 174.66091,-181.36436 h 9.00113"
     id="path23516" />
  <path
     style="fill:none;stroke:#000000;stroke-width:0.05mm"
     d="m 174.66091,-177.36387 v -4.00049"
     id="path23518" />
  <path
     style="fill:none;stroke:#000000;stroke-width:0.05mm"
     d="M 77.411195,-177.36387 H 174.66091"
     id="path23520" />
  <path
     style="fill:none;stroke:#000000;stroke-width:0.05mm"
     d="m 77.411195,-177.36387 v -10.00124"
     id="path23522" />
  <path
     style="fill:none;stroke:#ff0000;stroke-width:0.05mm"
     d="m 180.66123,-196.86463 c 0.41406,-1.4e-4 0.74969,-0.33587 0.7497,-0.74997 2e-5,-0.4141 -0.33557,-0.74986 -0.7497,-0.75003 -0.41406,1.4e-4 -0.74968,0.33587 -0.7497,0.74997 -2e-5,0.4141 0.33558,0.74985 0.7497,0.75003 z"
     id="path23524" />
  <path
     style="fill:none;stroke:#ff0000;stroke-width:0.05mm"
     d="m 137.00497,-182.11464 c 0.41375,-6.8e-4 0.74877,-0.33627 0.74877,-0.75 0,-0.41373 -0.33504,-0.74931 -0.74877,-0.74999 -0.41404,1.4e-4 -0.74967,0.33587 -0.74969,0.74997 -2e-5,0.4141 0.33559,0.74985 0.74969,0.75003 z"
     id="path23526" />
  <path
     style="fill:none;stroke:#ff0000;stroke-width:0.05mm"
     d="m 163.66123,-184.61464 c 0.41406,-1.4e-4 0.74969,-0.33586 0.7497,-0.74997 2e-5,-0.4141 -0.33557,-0.74985 -0.7497,-0.75003 -0.41406,1.5e-4 -0.74969,0.33587 -0.7497,0.74997 -2e-5,0.4141 0.33558,0.74986 0.7497,0.75003 z"
     id="path23528" />
  <path
     style="fill:none;stroke:#ff0000;stroke-width:0.05mm"
     d="m 87.411225,-181.11463 c 0.414047,-1.5e-4 0.74968,-0.33587 0.749695,-0.74997 1.5e-5,-0.4141 -0.335587,-0.74986 -0.749695,-0.75003 -0.414047,1.4e-4 -0.749679,0.33587 -0.749695,0.74997 -1.5e-5,0.4141 0.335587,0.74985 0.749695,0.75003 z"
     id="path23530" />
  <path
     style="fill:none;stroke:#ff0000;stroke-width:0.05mm"
     d="m 173.66123,-182.36463 c 0.55229,0 1,-0.44772 1,-1 0,-0.55229 -0.44771,-1 -1,-1.00001 -0.55228,1e-5 -1,0.44772 -1,1.00001 0,0.55228 0.44772,1 1,1 z"
     id="path23532" />
  <path
     style="fill:none;stroke:#ff0000;stroke-width:0.05mm"
     d="m 97.411225,-180.11464 c 0.551712,-8e-4 0.998535,-0.44828 0.998535,-0.99999 0,-0.55172 -0.446823,-0.9992 -0.998535,-1 -0.552093,2.7e-4 -0.999512,0.4479 -0.999512,1 0,0.55209 0.447419,0.99973 0.999512,1 z"
     id="path23534" />
  <path
     style="fill:none;stroke:#000000;stroke-width:0.05mm"
     d="m 174.55772,-176.91937 v 3.99786"
     id="path23536" />
  <path
     style="fill:none;stroke:#000000;stroke-width:0.05mm"
     d="m 174.55772,-172.92151 h 9.00113"
     id="path23538" />
  <path
     style="fill:none;stroke:#000000;stroke-width:0.05mm"
     d="m 183.55885,-172.92151 v 11.00137"
     id="path23540" />
  <path
     style="fill:none;stroke:#000000;stroke-width:0.05mm"
     d="M 183.55885,-161.92014 H 199.5582"
     id="path23542" />
  <path
     style="fill:none;stroke:#000000;stroke-width:0.05mm"
     d="m 199.5582,-161.92014 v 8.50106"
     id="path23544" />
  <path
     style="fill:none;stroke:#000000;stroke-width:0.05mm"
     d="M 199.5582,-153.41908 H 180.97652"
     id="path23546" />
  <path
     style="fill:none;stroke:#000000;stroke-width:0.05mm"
     d="m 178.84067,-153.75373 c 0.6901,0.221 1.41033,0.33352 2.13495,0.33352"
     id="path23548" />
  <path
     style="fill:none;stroke:#000000;stroke-width:0.05mm"
     d="m 178.84067,-153.75373 c -27.24336,-8.72473 -55.67641,-13.16648 -84.28264,-13.16648"
     id="path23550" />
  <path
     style="fill:none;stroke:#000000;stroke-width:0.05mm"
     d="M 94.558305,-166.92076 H 77.307999"
     id="path23552" />
  <path
     style="fill:none;stroke:#000000;stroke-width:0.05mm"
     d="m 77.308015,-176.91937 v 9.99861"
     id="path23554" />
  <path
     style="fill:none;stroke:#000000;stroke-width:0.05mm"
     d="M 77.308015,-176.91937 H 174.55772"
     id="path23556" />
  <path
     style="fill:none;stroke:#ff0000;stroke-width:0.05mm"
     d="m 97.30803,-172.17021 c 0.552093,-2.7e-4 0.999512,-0.44791 0.999512,-1 0,-0.5521 -0.447419,-0.99973 -0.999512,-1 -0.552094,2.7e-4 -0.999512,0.4479 -0.999512,1 0,0.55209 0.447418,0.99973 0.999512,1 z"
     id="path23558" />
  <path
     style="fill:none;stroke:#ff0000;stroke-width:0.05mm"
     d="m 173.55803,-169.92021 c 0.55209,-2.7e-4 0.99951,-0.44791 0.99951,-1 0,-0.5521 -0.44742,-0.99973 -0.99951,-1 -0.55209,2.7e-4 -0.99951,0.4479 -0.99951,1 0,0.55209 0.44742,0.99973 0.99951,1 z"
     id="path23560" />
  <path
     style="fill:none;stroke:#ff0000;stroke-width:0.05mm"
     d="m 87.30803,-171.67021 c 0.414047,-1.5e-4 0.74968,-0.33587 0.749695,-0.74997 1.5e-5,-0.4141 -0.335587,-0.74986 -0.749695,-0.75003 -0.414047,1.4e-4 -0.74968,0.33587 -0.749695,0.74997 -1.5e-5,0.4141 0.335587,0.74985 0.749695,0.75003 z"
     id="path23562" />
  <path
     style="fill:none;stroke:#ff0000;stroke-width:0.05mm"
     d="m 163.55803,-168.17021 c 0.41406,-1.5e-4 0.74969,-0.33587 0.7497,-0.74997 2e-5,-0.4141 -0.33558,-0.74986 -0.7497,-0.75003 -0.41406,1.4e-4 -0.74969,0.33586 -0.7497,0.74997 -2e-5,0.4141 0.33558,0.74985 0.7497,0.75003 z"
     id="path23564" />
  <path
     style="fill:none;stroke:#ff0000;stroke-width:0.05mm"
     d="m 136.90176,-170.67021 c 0.41405,-1.5e-4 0.74968,-0.33587 0.7497,-0.74997 1e-5,-0.4141 -0.33559,-0.74986 -0.7497,-0.75003 -0.41404,1.4e-4 -0.74968,0.33587 -0.74969,0.74997 -2e-5,0.4141 0.33559,0.74985 0.74969,0.75003 z"
     id="path23566" />
  <path
     style="fill:none;stroke:#ff0000;stroke-width:0.05mm"
     d="m 180.55803,-155.92021 c 0.41408,-2.5e-4 0.74959,-0.33598 0.74958,-0.75002 -1e-5,-0.41405 -0.33554,-0.74976 -0.74958,-0.74998 -0.41408,2.4e-4 -0.74959,0.33597 -0.74958,0.75002 1e-5,0.41404 0.33554,0.74975 0.74958,0.74998 z"
     id="path23568" />
  <path
     style="fill:none;stroke:#000000;stroke-width:0.05mm"
     d="m 101.01619,-99.082791 v -9.000069"
     id="path23586" />
  <path
     style="fill:none;stroke:#000000;stroke-width:0.05mm"
     d="M 25.516281,-99.082791 H 101.01619"
     id="path23588" />
  <path
     style="fill:none;stroke:#ff0000;stroke-width:0.05mm"
     d="m 97.266251,-102.58297 v -1.99999"
     id="path23590" />
  <path
     style="fill:none;stroke:#ff0000;stroke-width:0.05mm"
     d="m 29.266221,-104.58296 h 68.00003"
     id="path23592" />
  <path
     style="fill:none;stroke:#ff0000;stroke-width:0.05mm"
     d="m 29.266221,-102.58297 v -1.99999"
     id="path23594" />
  <path
     style="fill:none;stroke:#ff0000;stroke-width:0.05mm"
     d="m 29.266221,-102.58297 h 68.00003"
     id="path23596" />
  <path
     style="fill:none;stroke:#000000;stroke-width:0.05mm"
     d="M 25.516281,-108.08286 H 101.01619"
     id="path23598" />
  <path
     style="fill:none;stroke:#000000;stroke-width:0.05mm"
     d="m 25.516281,-99.082791 v -9.000069"
     id="path23600" />
  <text
     xml:space="preserve"
     style="font-size:11.1853px;font-family:'Courier New';-inkscape-font-specification:'Courier New';fill:none;stroke:#000000;stroke-width:0.352293;stroke-linecap:round;stroke-linejoin:round"
     x="51.226933"
     y="-387.99747"
     id="text23727"><tspan
       sodipodi:role="line"
       id="tspan23725"
       style="stroke-width:0.352293"
       x="51.226933"
       y="-387.99747">4.5 mm</tspan></text>
  <text
     xml:space="preserve"
     style="font-size:11.1853px;font-family:'Courier New';-inkscape-font-specification:'Courier New';fill:none;stroke:#000000;stroke-width:0.352293;stroke-linecap:round;stroke-linejoin:round"
     x="44.064457"
     y="-117.61401"
     id="text23731"><tspan
       sodipodi:role="line"
       id="tspan23729"
       style="stroke-width:0.352293"
       x="44.064457"
       y="-117.61401">.5 mm</tspan></text>
</svg>
