<?xml version="1.0" encoding="UTF-8" standalone="no"?>
<svg
   width="292.000mm"
   height="533.577mm"
   viewBox="0.000096 -219.577026 292.000183 533.577026"
   version="1.1"
   id="svg21586"
   sodipodi:docname="top_ring_with_holders.svg"
   inkscape:version="1.2.1 (9c6d41e, 2022-07-14)"
   xmlns:inkscape="http://www.inkscape.org/namespaces/inkscape"
   xmlns:sodipodi="http://sodipodi.sourceforge.net/DTD/sodipodi-0.dtd"
   xmlns="http://www.w3.org/2000/svg"
   xmlns:svg="http://www.w3.org/2000/svg">
  <defs
     id="defs21590" />
  <sodipodi:namedview
     id="namedview21588"
     pagecolor="#ffffff"
     bordercolor="#000000"
     borderopacity="0.25"
     inkscape:showpageshadow="2"
     inkscape:pageopacity="0.0"
     inkscape:pagecheckerboard="0"
     inkscape:deskcolor="#d1d1d1"
     inkscape:document-units="mm"
     showgrid="false"
     inkscape:zoom="0.50925559"
     inkscape:cx="-142.36466"
     inkscape:cy="1010.2982"
     inkscape:window-width="2560"
     inkscape:window-height="1387"
     inkscape:window-x="0"
     inkscape:window-y="215"
     inkscape:window-maximized="1"
     inkscape:current-layer="svg21586" />
  <path
     style="fill:none;stroke:#ff0000;stroke-width:0.05mm"
     d="m 228.57296,-70.968592 -1.72207,-4.15746 4.15746,-1.72207 1.72207,4.15745 z"
     id="path21094" />
  <path
     style="fill:none;stroke:#ff0000;stroke-width:0.05mm"
     d="m 217.34566,-59.075902 c 1.8444,2.66441 4.41189,4.74616 7.39999,5.99999"
     id="path21096" />
  <path
     style="fill:none;stroke:#ff0000;stroke-width:0.05mm"
     d="m 197.45322,-87.302962 -1.72207,-4.15746 -4.15746,1.72207 1.72208,4.15746 z"
     id="path21098" />
  <path
     style="fill:none;stroke:#ff0000;stroke-width:0.05mm"
     d="m 217.34566,-59.075912 v -1.8 h 4.50025 v -1.8 h -4.50025 v -1.8 h 4.50025 v -1.79999 h -4.50025 v -1.80001 c 1.8444,-2.6644 4.41189,-4.74616 7.4,-6 -2.11504,-4.00844 -5.39131,-7.28471 -9.39975,-9.39975 -1.25384,2.9881 -3.33559,5.5556 -5.99999,7.4"
     id="path21100" />
  <path
     style="fill:none;stroke:#ff0000;stroke-width:0.05mm"
     d="m 180.09591,-65.825912 v 4.5 h -4.5 v -4.5 z"
     id="path21102" />
  <path
     style="fill:none;stroke:#ff0000;stroke-width:0.05mm"
     d="m 202.59591,-38.825912 h 4.5 v 4.5 h -4.5 z"
     id="path21104" />
  <path
     style="fill:none;stroke:#ff0000;stroke-width:0.05mm"
     d="m 209.34591,-76.075662 h -1.8 v -4.50025 h -1.8 v 4.50025 h -1.8 v -4.50025 h -1.8 v 4.50025 h -1.8 c -2.66441,-1.8444 -4.74616,-4.41189 -6,-7.4 -4.00844,2.11504 -7.28471,5.39131 -9.39974,9.39975 2.9881,1.25384 5.55559,3.3356 7.39999,6 v 1.80001 h -4.50025 v 1.79999 h 4.50025 v 1.8 h -4.50025 v 1.8 h 4.50025 v 1.8 c -1.8444,2.66442 -4.41189,4.74617 -7.4,6.00001 2.11504,4.00843 5.39131,7.2847 9.39975,9.39974 1.25384,-2.98811 3.3356,-5.5556 6.00001,-7.4 h 1.79999 v 4.50025 h 1.8 v -4.50025 h 1.8 v 4.50025 h 1.8 v -4.50025 h 1.8 c 2.66441,1.8444 4.74617,4.4119 6,7.4 4.00844,-2.11503 7.28471,-5.3913 9.39975,-9.39974"
     id="path21106" />
  <path
     style="fill:none;stroke:#ff0000;stroke-width:0.05mm"
     d="m 207.09591,-88.325912 h -4.5 v -4.5 h 4.5 z"
     id="path21108" />
  <path
     style="fill:none;stroke:#ff0000;stroke-width:0.05mm"
     d="m 216.39605,-41.570932 -4.15745,1.72208 1.72207,4.15746 4.15746,-1.72208 z"
     id="path21110" />
  <path
     style="fill:none;stroke:#ff0000;stroke-width:0.05mm"
     d="m 229.59591,-61.325912 v -4.5 h 4.5 v 4.5 z"
     id="path21112" />
  <path
     style="fill:none;stroke:#ff0000;stroke-width:0.05mm"
     d="m 181.11885,-70.968592 -4.15745,-1.72208 1.72207,-4.15745 4.15746,1.72207 z"
     id="path21114" />
  <path
     style="fill:none;stroke:#ff0000;stroke-width:0.05mm"
     d="m 185.75403,-47.666002 3.18198,3.18198 -3.18198,3.18198 -3.18198,-3.18198 z"
     id="path21116" />
  <path
     style="fill:none;stroke:#ff0000;stroke-width:0.05mm"
     d="m 228.57296,-56.183222 -1.72207,4.15746 4.15746,1.72207 1.72207,-4.15745 z"
     id="path21118" />
  <circle
     transform="scale(1,-1)"
     style="fill:none;stroke:#000000;stroke-width:0.05mm"
     r="31.5"
     cx="204.8459"
     cy="63.575916"
     id="circle21120" />
  <path
     style="fill:none;stroke:#ff0000;stroke-width:0.05mm"
     d="m 220.75581,-44.484022 3.18198,-3.18198 3.18198,3.18198 -3.18198,3.18198 z"
     id="path21122" />
  <path
     style="fill:none;stroke:#ff0000;stroke-width:0.05mm"
     d="m 223.93779,-79.485812 -3.18198,-3.18198 3.18198,-3.18198 3.18198,3.18198 z"
     id="path21124" />
  <path
     style="fill:none;stroke:#ff0000;stroke-width:0.05mm"
     d="m 216.39605,-85.580892 -4.15745,-1.72207 1.72207,-4.15746 4.15746,1.72207 z"
     id="path21126" />
  <path
     style="fill:none;stroke:#ff0000;stroke-width:0.05mm"
     d="m 185.75403,-79.485812 3.18198,-3.18198 -3.18198,-3.18198 -3.18198,3.18198 z"
     id="path21128" />
  <path
     style="fill:none;stroke:#ff0000;stroke-width:0.05mm"
     d="m 181.11885,-56.183222 -4.15745,1.72208 1.72207,4.15745 4.15746,-1.72207 z"
     id="path21130" />
  <path
     style="fill:none;stroke:#ff0000;stroke-width:0.05mm"
     d="m 197.45322,-39.848852 -1.72207,4.15746 -4.15746,-1.72208 1.72208,-4.15746 z"
     id="path21132" />
  <path
     style="fill:none;stroke:#ff0000;stroke-width:0.05mm"
     d="m 99.250386,-103.11128 v -2.5 h -2 v 2.5 z"
     id="path21134" />
  <path
     style="fill:none;stroke:#ff0000;stroke-width:0.05mm"
     d="m 87.250386,-96.811285 h -2.5 v 2.10001 h 2.5 z"
     id="path21136" />
  <circle
     transform="matrix(0,1,1,0,0,0)"
     style="fill:none;stroke:#ff0000;stroke-width:0.05mm"
     r="1.400002"
     cx="-117.86084"
     cy="83.275406"
     id="circle21138" />
  <path
     style="fill:none;stroke:#ff0000;stroke-width:0.05mm"
     d="m 97.250386,-92.611285 v 2.5 h 2 v -2.5 z"
     id="path21140" />
  <path
     style="fill:none;stroke:#ff0000;stroke-width:0.05mm"
     d="m 95.250386,-103.11128 v -2.5 h -2 v 2.5 z"
     id="path21142" />
  <path
     style="fill:none;stroke:#000000;stroke-width:0.05mm"
     d="m 79.275386,-107.11128 v 18.499995 h 34.000004 v -18.499995 z"
     id="path21144" />
  <path
     style="fill:none;stroke:#ff0000;stroke-width:0.05mm"
     d="m 87.250386,-101.01127 h -2.5 v 2.099995 h 2.5 z"
     id="path21146" />
  <path
     style="fill:none;stroke:#ff0000;stroke-width:0.05mm"
     d="m 93.250386,-92.611285 v 2.5 h 2 v -2.5 z"
     id="path21148" />
  <path
     style="fill:none;stroke:#000000;stroke-width:0.05mm"
     d="m 79.275386,-127.11128 v 18.5 h 34.000004 v -18.5 z"
     id="path21150" />
  <circle
     transform="matrix(0,1,1,0,0,0)"
     style="fill:none;stroke:#ff0000;stroke-width:0.05mm"
     r="1.400002"
     cx="-117.86084"
     cy="109.27541"
     id="circle21152" />
  <circle
     transform="matrix(0,1,1,0,0,0)"
     style="fill:none;stroke:#ff0000;stroke-width:0.05mm"
     r="1.400002"
     cx="-97.86084"
     cy="109.27541"
     id="circle21154" />
  <circle
     transform="matrix(0,1,1,0,0,0)"
     style="fill:none;stroke:#ff0000;stroke-width:0.05mm"
     r="1.400002"
     cx="-97.86084"
     cy="83.275406"
     id="circle21156" />
  <circle
     transform="scale(1,-1)"
     style="fill:none;stroke:#000000;stroke-width:0.05mm"
     r="22.5"
     cx="203.8459"
     cy="-1.4238834"
     id="circle21158" />
  <circle
     transform="scale(1,-1)"
     style="fill:none;stroke:#ff0000;stroke-width:0.05mm"
     r="0.75"
     cx="209.09691"
     cy="24.979132"
     id="circle21160" />
  <path
     style="fill:none;stroke:#ff0000;stroke-width:0.05mm"
     d="m 180.11871,8.8165684 -4.15745,1.7220696 1.72208,4.15746 4.15745,-1.72208 z"
     id="path21162" />
  <circle
     transform="scale(1,-1)"
     style="fill:none;stroke:#ff0000;stroke-width:0.05mm"
     r="0.75"
     cx="177.4429"
     cy="-6.6758976"
     id="circle21164" />
  <path
     style="fill:none;stroke:#ff0000;stroke-width:0.05mm"
     d="m 196.45308,-22.303182 -1.72208,-4.15746 -4.15745,1.72208 1.72208,4.15746 z"
     id="path21166" />
  <path
     style="fill:none;stroke:#ff0000;stroke-width:0.05mm"
     d="m 225.85075,12.974018 4.15744,1.72208 1.72208,-4.15746 -4.15744,-1.7220696 z"
     id="path21168" />
  <path
     style="fill:none;stroke:#ff0000;stroke-width:0.05mm"
     d="m 184.75389,17.333778 3.18198,3.18198 -3.18198,3.18198 -3.18199,-3.18198 z"
     id="path21170" />
  <circle
     transform="scale(1,-1)"
     style="fill:none;stroke:#ff0000;stroke-width:0.05mm"
     r="0.75"
     cx="230.24791"
     cy="3.8281307"
     id="circle21172" />
  <path
     style="fill:none;stroke:#ff0000;stroke-width:0.05mm"
     d="m 206.09577,-23.326122 h -4.5 v -4.5 h 4.5 z"
     id="path21174" />
  <path
     style="fill:none;stroke:#ff0000;stroke-width:0.05mm"
     d="m 225.85075,-10.126272 4.15744,-1.72207 1.72208,4.1574604 -4.15744,1.72207 z"
     id="path21176" />
  <path
     style="fill:none;stroke:#ff0000;stroke-width:0.05mm"
     d="m 180.11871,-5.9688116 -4.15745,-1.72207 1.72208,-4.1574604 4.15745,1.72207 z"
     id="path21178" />
  <circle
     transform="scale(1,-1)"
     style="fill:none;stroke:#ff0000;stroke-width:0.05mm"
     r="0.75"
     cx="177.4429"
     cy="3.8281307"
     id="circle21180" />
  <path
     style="fill:none;stroke:#ff0000;stroke-width:0.05mm"
     d="m 228.59578,3.6738784 v -4.49999996 h 4.5 V 3.6738784 Z"
     id="path21182" />
  <path
     style="fill:none;stroke:#ff0000;stroke-width:0.05mm"
     d="m 211.23845,-22.303182 1.72208,-4.15746 4.15745,1.72208 -1.72208,4.15746 z"
     id="path21184" />
  <path
     style="fill:none;stroke:#ff0000;stroke-width:0.05mm"
     d="m 222.93764,17.333778 -3.18198,3.18198 3.18198,3.18198 3.182,-3.18198 z"
     id="path21186" />
  <path
     style="fill:none;stroke:#ff0000;stroke-width:0.05mm"
     d="m 201.59577,26.173878 h 4.5 v 4.5 h -4.5 z"
     id="path21188" />
  <path
     style="fill:none;stroke:#ff0000;stroke-width:0.05mm"
     d="m 222.93764,-14.486022 -3.18198,-3.18198 3.18198,-3.18198 3.182,3.18198 z"
     id="path21190" />
  <path
     style="fill:none;stroke:#ff0000;stroke-width:0.05mm"
     d="m 211.23845,25.150938 1.72208,4.15745 4.15745,-1.72207 -1.72208,-4.15746 z"
     id="path21192" />
  <circle
     transform="scale(1,-1)"
     style="fill:none;stroke:#000000;stroke-width:0.05mm"
     r="31.5"
     cx="203.8459"
     cy="-1.4238834"
     id="circle21194" />
  <path
     style="fill:none;stroke:#ff0000;stroke-width:0.05mm"
     d="m 184.75389,-14.486022 3.18198,-3.18198 -3.18198,-3.18198 -3.18199,3.18198 z"
     id="path21196" />
  <path
     style="fill:none;stroke:#ff0000;stroke-width:0.05mm"
     d="m 196.45308,25.150938 -1.72208,4.15745 -4.15745,-1.72207 1.72208,-4.15746 z"
     id="path21198" />
  <circle
     transform="scale(1,-1)"
     style="fill:none;stroke:#ff0000;stroke-width:0.05mm"
     r="0.75"
     cx="209.09691"
     cy="-27.826899"
     id="circle21200" />
  <path
     style="fill:none;stroke:#ff0000;stroke-width:0.05mm"
     d="M 179.09577,-0.82612156 V 3.6738784 h -4.5 v -4.49999996 z"
     id="path21202" />
  <circle
     transform="scale(1,-1)"
     style="fill:none;stroke:#ff0000;stroke-width:0.05mm"
     r="0.75"
     cx="198.5939"
     cy="24.979132"
     id="circle21204" />
  <circle
     transform="scale(1,-1)"
     style="fill:none;stroke:#ff0000;stroke-width:0.05mm"
     r="0.75"
     cx="230.24791"
     cy="-6.6758976"
     id="circle21206" />
  <circle
     transform="scale(1,-1)"
     style="fill:none;stroke:#ff0000;stroke-width:0.05mm"
     r="0.75"
     cx="198.5939"
     cy="-27.826899"
     id="circle21208" />
  <path
     style="fill:none;stroke:#000000;stroke-width:0.05mm"
     d="m 183.84603,-28.076242 v -1.79999 h 4.5 v -1.8 h -4.5 v -1.8 h 4.5 v -1.8 h -4.5 v -1.80001 h -10.5 v 9 z"
     id="path21210" />
  <circle
     transform="matrix(0,-1,-1,0,0,0)"
     style="fill:none;stroke:#ff0000;stroke-width:0.05mm"
     r="1"
     cx="32.577106"
     cy="-178.84595"
     id="circle21212" />
  <path
     style="fill:none;stroke:#000000;stroke-width:0.05mm"
     d="m 231.84603,-26.075262 v -1.8 h 4.5 v -1.8 h -4.5 v -1.79999 h 4.5 v -1.80001 h -4.5 v -1.8 h -10.50001 v 9 z"
     id="path21214" />
  <circle
     transform="matrix(0,-1,-1,0,0,0)"
     style="fill:none;stroke:#ff0000;stroke-width:0.05mm"
     r="1"
     cx="30.576132"
     cy="-226.84595"
     id="circle21216" />
  <path
     style="fill:none;stroke:#000000;stroke-width:0.05mm"
     d="m 183.84603,-95.075232 v -1.79999 h 4.5 v -1.80001 h -4.5 v -1.799988 h 4.5 v -1.80001 h -4.5 v -1.8 h -10.5 v 8.999998 z"
     id="path21218" />
  <circle
     transform="matrix(0,-1,-1,0,0,0)"
     style="fill:none;stroke:#ff0000;stroke-width:0.05mm"
     r="1"
     cx="99.576103"
     cy="-178.84595"
     id="circle21220" />
  <path
     style="fill:none;stroke:#000000;stroke-width:0.05mm"
     d="m 183.84603,-105.07523 v -1.79999 h 4.5 v -1.80001 h -4.5 v -1.79999 h 4.5 v -1.80001 h -4.5 v -1.8 h -10.5 v 9 z"
     id="path21222" />
  <circle
     transform="matrix(0,-1,-1,0,0,0)"
     style="fill:none;stroke:#ff0000;stroke-width:0.05mm"
     r="1"
     cx="109.5761"
     cy="-178.84595"
     id="circle21224" />
  <path
     style="fill:none;stroke:#000000;stroke-width:0.05mm"
     d="m 198.84603,-105.07523 v -1.79999 h 4.5 v -1.80001 h -4.5 v -1.79999 h 4.5 v -1.80001 h -4.5 v -1.8 h -10.5 v 9 z"
     id="path21226" />
  <circle
     transform="matrix(0,-1,-1,0,0,0)"
     style="fill:none;stroke:#ff0000;stroke-width:0.05mm"
     r="1"
     cx="109.5761"
     cy="-193.84595"
     id="circle21228" />
  <path
     style="fill:none;stroke:#000000;stroke-width:0.05mm"
     d="m 198.84603,-95.075232 v -1.79999 h 4.5 v -1.80001 h -4.5 v -1.799988 h 4.5 v -1.80001 h -4.5 v -1.8 h -10.5 v 8.999998 z"
     id="path21230" />
  <circle
     transform="matrix(0,-1,-1,0,0,0)"
     style="fill:none;stroke:#ff0000;stroke-width:0.05mm"
     r="1"
     cx="99.576103"
     cy="-193.84595"
     id="circle21232" />
  <path
     style="fill:none;stroke:#000000;stroke-width:0.05mm"
     d="m 204.8738,-143.32591 v 4.49999 h 4.5 v -4.49999 c 5.23866,0 10.32526,-1.76098 14.44257,-5 v -3 h -4.5 c -5.87103,-1e-5 -11.3284,3.02293 -14.44256,7.99999"
     id="path21234" />
  <circle
     transform="scale(1,-1)"
     style="fill:none;stroke:#ff0000;stroke-width:0.05mm"
     r="0.89999998"
     cx="221.56691"
     cy="149.32591"
     id="circle21236" />
  <path
     style="fill:none;stroke:#000000;stroke-width:0.05mm"
     d="m 204.8738,-133.32591 v 4.49999 h 4.5 v -4.49999 c 5.23866,0 10.32526,-1.76098 14.44257,-5 v -3 h -4.5 c -5.87103,-1e-5 -11.3284,3.02293 -14.44256,7.99999"
     id="path21238" />
  <circle
     transform="scale(1,-1)"
     style="fill:none;stroke:#ff0000;stroke-width:0.05mm"
     r="0.89999998"
     cx="221.56691"
     cy="139.32591"
     id="circle21240" />
  <path
     style="fill:none;stroke:#000000;stroke-width:0.05mm"
     d="m 204.8738,-123.32591 v 4.5 h 4.5 v -4.5 c 5.23866,0 10.32526,-1.76098 14.44257,-5 v -3 h -4.5 c -5.87103,-1e-5 -11.3284,3.02293 -14.44256,7.99999"
     id="path21242" />
  <circle
     transform="scale(1,-1)"
     style="fill:none;stroke:#ff0000;stroke-width:0.05mm"
     r="0.89999998"
     cx="221.56691"
     cy="129.32591"
     id="circle21244" />
  <path
     style="fill:none;stroke:#000000;stroke-width:0.05mm"
     d="m 204.8738,-113.32591 v 4.5 h 4.5 v -4.5 c 5.23866,0 10.32526,-1.76098 14.44257,-5 v -3 h -4.5 c -5.87103,-1e-5 -11.3284,3.02293 -14.44256,7.99999"
     id="path21246" />
  <circle
     transform="scale(1,-1)"
     style="fill:none;stroke:#ff0000;stroke-width:0.05mm"
     r="0.89999998"
     cx="221.56691"
     cy="119.32592"
     id="circle21248" />
  <path
     style="fill:none;stroke:#000000;stroke-width:0.05mm"
     d="m 204.8738,-103.32591 v 4.499998 h 4.5 v -4.499998 c 5.23866,0 10.32526,-1.76098 14.44257,-5 v -3 h -4.5 c -5.87103,-1e-5 -11.3284,3.02293 -14.44256,7.99999"
     id="path21250" />
  <circle
     transform="scale(1,-1)"
     style="fill:none;stroke:#ff0000;stroke-width:0.05mm"
     r="0.89999998"
     cx="221.56691"
     cy="109.32592"
     id="circle21252" />
  <path
     style="fill:none;stroke:#000000;stroke-width:0.05mm"
     d="m 184.8738,-143.32591 v 4.49999 h 4.5 v -4.49999 c 5.23866,0 10.32526,-1.76098 14.44258,-5 v -3 h -4.5 c -5.87104,-1e-5 -11.32841,3.02293 -14.44257,7.99999"
     id="path21254" />
  <circle
     transform="scale(1,-1)"
     style="fill:none;stroke:#ff0000;stroke-width:0.05mm"
     r="0.89999998"
     cx="201.56691"
     cy="149.32591"
     id="circle21256" />
  <path
     style="fill:none;stroke:#000000;stroke-width:0.05mm"
     d="m 184.8738,-133.32591 v 4.49999 h 4.5 v -4.49999 c 5.23866,0 10.32526,-1.76098 14.44258,-5 v -3 h -4.5 c -5.87104,-1e-5 -11.32841,3.02293 -14.44257,7.99999"
     id="path21258" />
  <circle
     transform="scale(1,-1)"
     style="fill:none;stroke:#ff0000;stroke-width:0.05mm"
     r="0.89999998"
     cx="201.56691"
     cy="139.32591"
     id="circle21260" />
  <path
     style="fill:none;stroke:#000000;stroke-width:0.05mm"
     d="m 184.8738,-123.32591 v 4.5 h 4.5 v -4.5 c 5.23866,0 10.32526,-1.76098 14.44258,-5 v -3 h -4.5 c -5.87104,-1e-5 -11.32841,3.02293 -14.44257,7.99999"
     id="path21262" />
  <circle
     transform="scale(1,-1)"
     style="fill:none;stroke:#ff0000;stroke-width:0.05mm"
     r="0.89999998"
     cx="201.56691"
     cy="129.32591"
     id="circle21264" />
  <path
     style="fill:none;stroke:#000000;stroke-width:0.05mm"
     d="m 224.87379,-143.32591 v 4.49999 h 4.5 v -4.49999 c 5.23866,0 10.32526,-1.76098 14.44258,-5 v -3 h -4.5 c -5.87104,-1e-5 -11.32841,3.02293 -14.44257,7.99999"
     id="path21266" />
  <circle
     transform="scale(1,-1)"
     style="fill:none;stroke:#ff0000;stroke-width:0.05mm"
     r="0.89999998"
     cx="241.56691"
     cy="149.32591"
     id="circle21268" />
  <path
     style="fill:none;stroke:#000000;stroke-width:0.05mm"
     d="m 224.87379,-133.32591 v 4.49999 h 4.5 v -4.49999 c 5.23866,0 10.32526,-1.76098 14.44258,-5 v -3 h -4.5 c -5.87104,-1e-5 -11.32841,3.02293 -14.44257,7.99999"
     id="path21270" />
  <circle
     transform="scale(1,-1)"
     style="fill:none;stroke:#ff0000;stroke-width:0.05mm"
     r="0.89999998"
     cx="241.56691"
     cy="139.32591"
     id="circle21272" />
  <path
     style="fill:none;stroke:#000000;stroke-width:0.05mm"
     d="m 224.87379,-123.32591 v 4.5 h 4.5 v -4.5 c 5.23866,0 10.32526,-1.76098 14.44258,-5 v -3 h -4.5 c -5.87104,-1e-5 -11.32841,3.02293 -14.44257,7.99999"
     id="path21274" />
  <circle
     transform="scale(1,-1)"
     style="fill:none;stroke:#ff0000;stroke-width:0.05mm"
     r="0.89999998"
     cx="241.56691"
     cy="129.32591"
     id="circle21276" />
  <path
     style="fill:none;stroke:#000000;stroke-width:0.05mm"
     d="m 224.87379,-113.32591 v 4.5 h 4.5 v -4.5 c 5.23866,0 10.32526,-1.76098 14.44258,-5 v -3 h -4.5 c -5.87104,-1e-5 -11.32841,3.02293 -14.44257,7.99999"
     id="path21278" />
  <circle
     transform="scale(1,-1)"
     style="fill:none;stroke:#ff0000;stroke-width:0.05mm"
     r="0.89999998"
     cx="241.56691"
     cy="119.32592"
     id="circle21280" />
  <path
     style="fill:none;stroke:#000000;stroke-width:0.05mm"
     d="m 224.87379,-103.32591 v 4.499998 h 4.5 v -4.499998 c 5.23866,0 10.32526,-1.76098 14.44258,-5 v -3 h -4.5 c -5.87104,-1e-5 -11.32841,3.02293 -14.44257,7.99999"
     id="path21282" />
  <circle
     transform="scale(1,-1)"
     style="fill:none;stroke:#ff0000;stroke-width:0.05mm"
     r="0.89999998"
     cx="241.56691"
     cy="109.32592"
     id="circle21284" />
  <path
     style="fill:none;stroke:#000000;stroke-width:0.05mm"
     d="m 244.87379,-143.32591 v 4.49999 h 4.5 v -4.49999 c 5.23866,0 10.32526,-1.76098 14.44258,-5 v -3 h -4.5 c -5.87104,-1e-5 -11.32841,3.02293 -14.44257,7.99999"
     id="path21286" />
  <circle
     transform="scale(1,-1)"
     style="fill:none;stroke:#ff0000;stroke-width:0.05mm"
     r="0.89999998"
     cx="261.56689"
     cy="149.32591"
     id="circle21288" />
  <path
     style="fill:none;stroke:#000000;stroke-width:0.05mm"
     d="m 244.87379,-133.32591 v 4.49999 h 4.5 v -4.49999 c 5.23866,0 10.32526,-1.76098 14.44258,-5 v -3 h -4.5 c -5.87104,-1e-5 -11.32841,3.02293 -14.44257,7.99999"
     id="path21290" />
  <circle
     transform="scale(1,-1)"
     style="fill:none;stroke:#ff0000;stroke-width:0.05mm"
     r="0.89999998"
     cx="261.56689"
     cy="139.32591"
     id="circle21292" />
  <path
     style="fill:none;stroke:#000000;stroke-width:0.05mm"
     d="m 244.87379,-123.32591 v 4.5 h 4.5 v -4.5 c 5.23866,0 10.32526,-1.76098 14.44258,-5 v -3 h -4.5 c -5.87104,-1e-5 -11.32841,3.02293 -14.44257,7.99999"
     id="path21294" />
  <circle
     transform="scale(1,-1)"
     style="fill:none;stroke:#ff0000;stroke-width:0.05mm"
     r="0.89999998"
     cx="261.56689"
     cy="129.32591"
     id="circle21296" />
  <path
     style="fill:none;stroke:#000000;stroke-width:0.05mm"
     d="m 244.87379,-113.32591 v 4.5 h 4.5 v -4.5 c 5.23866,0 10.32526,-1.76098 14.44258,-5 v -3 h -4.5 c -5.87104,-1e-5 -11.32841,3.02293 -14.44257,7.99999"
     id="path21298" />
  <circle
     transform="scale(1,-1)"
     style="fill:none;stroke:#ff0000;stroke-width:0.05mm"
     r="0.89999998"
     cx="261.56689"
     cy="119.32592"
     id="circle21300" />
  <path
     style="fill:none;stroke:#000000;stroke-width:0.05mm"
     d="m 244.87379,-103.32591 v 4.499998 h 4.5 v -4.499998 c 5.23866,0 10.32526,-1.76098 14.44258,-5 v -3 h -4.5 c -5.87104,-1e-5 -11.32841,3.02293 -14.44257,7.99999"
     id="path21302" />
  <circle
     transform="scale(1,-1)"
     style="fill:none;stroke:#ff0000;stroke-width:0.05mm"
     r="0.89999998"
     cx="261.56689"
     cy="109.32592"
     id="circle21304" />
  <path
     style="fill:none;stroke:#000000;stroke-width:0.05mm"
     d="m 244.87379,-93.325912 v 4.5 h 4.5 v -4.5 c 5.23866,0 10.32526,-1.76098 14.44258,-5 v -2.999998 h -4.5 c -5.87104,-1e-5 -11.32841,3.022928 -14.44257,7.999988"
     id="path21306" />
  <circle
     transform="scale(1,-1)"
     style="fill:none;stroke:#ff0000;stroke-width:0.05mm"
     r="0.89999998"
     cx="261.56689"
     cy="99.32592"
     id="circle21308" />
  <path
     style="fill:none;stroke:#000000;stroke-width:0.05mm"
     d="m 244.87379,-83.325912 v 4.5 h 4.5 v -4.5 c 5.23866,0 10.32526,-1.76098 14.44258,-5 v -3 h -4.5 c -5.87104,-1e-5 -11.32841,3.02293 -14.44257,7.99999"
     id="path21310" />
  <circle
     transform="scale(1,-1)"
     style="fill:none;stroke:#ff0000;stroke-width:0.05mm"
     r="0.89999998"
     cx="261.56689"
     cy="89.32592"
     id="circle21312" />
  <path
     style="fill:none;stroke:#000000;stroke-width:0.05mm"
     d="m 244.87379,-73.325912 v 4.5 h 4.5 v -4.5 c 5.23866,0 10.32526,-1.76098 14.44258,-5 v -3 h -4.5 c -5.87104,-1e-5 -11.32841,3.02293 -14.44257,7.99999"
     id="path21314" />
  <circle
     transform="scale(1,-1)"
     style="fill:none;stroke:#ff0000;stroke-width:0.05mm"
     r="0.89999998"
     cx="261.56689"
     cy="79.32592"
     id="circle21316" />
  <path
     style="fill:none;stroke:#000000;stroke-width:0.05mm"
     d="m 244.87379,-63.325912 v 4.5 h 4.5 v -4.5 c 5.23866,0 10.32526,-1.76098 14.44258,-5 v -3 h -4.5 c -5.87104,-1e-5 -11.32841,3.02293 -14.44257,7.99999"
     id="path21318" />
  <circle
     transform="scale(1,-1)"
     style="fill:none;stroke:#ff0000;stroke-width:0.05mm"
     r="0.89999998"
     cx="261.56689"
     cy="69.32592"
     id="circle21320" />
  <path
     style="fill:none;stroke:#000000;stroke-width:0.05mm"
     d="m 244.87379,-53.325912 v 4.5 h 4.5 v -4.5 c 5.23866,0 10.32526,-1.76098 14.44258,-5 v -3 h -4.5 c -5.87104,-10e-6 -11.32841,3.02293 -14.44257,7.99999"
     id="path21322" />
  <circle
     transform="scale(1,-1)"
     style="fill:none;stroke:#ff0000;stroke-width:0.05mm"
     r="0.89999998"
     cx="261.56689"
     cy="59.325916"
     id="circle21324" />
  <path
     style="fill:none;stroke:#000000;stroke-width:0.05mm"
     d="m 244.87379,-43.325912 v 4.5 h 4.5 v -4.5 c 5.23866,0 10.32526,-1.76098 14.44258,-5 v -3 h -4.5 c -5.87104,-10e-6 -11.32841,3.02293 -14.44257,7.99999"
     id="path21326" />
  <circle
     transform="scale(1,-1)"
     style="fill:none;stroke:#ff0000;stroke-width:0.05mm"
     r="0.89999998"
     cx="261.56689"
     cy="49.325916"
     id="circle21328" />
  <path
     style="fill:none;stroke:#000000;stroke-width:0.05mm"
     d="m 244.87379,-33.325912 v 4.5 h 4.5 v -4.5 c 5.23866,0 10.32526,-1.76098 14.44258,-5 v -3 h -4.5 c -5.87104,-10e-6 -11.32841,3.02293 -14.44257,7.99999"
     id="path21330" />
  <circle
     transform="scale(1,-1)"
     style="fill:none;stroke:#ff0000;stroke-width:0.05mm"
     r="0.89999998"
     cx="261.56689"
     cy="39.325916"
     id="circle21332" />
  <path
     style="fill:none;stroke:#000000;stroke-width:0.05mm"
     d="m 244.87379,-23.325912 v 4.5 h 4.5 v -4.5 c 5.23866,0 10.32526,-1.76098 14.44258,-5 v -3 h -4.5 c -5.87104,-10e-6 -11.32841,3.02293 -14.44257,7.99999"
     id="path21334" />
  <circle
     transform="scale(1,-1)"
     style="fill:none;stroke:#ff0000;stroke-width:0.05mm"
     r="0.89999998"
     cx="261.56689"
     cy="29.325918"
     id="circle21336" />
  <path
     style="fill:none;stroke:#000000;stroke-width:0.05mm"
     d="m 244.87379,-23.325912 v 4.5 h 4.5 v -4.5 c 5.23866,0 10.32526,-1.76098 14.44258,-5 v -3 h -4.5 c -5.87104,-10e-6 -11.32841,3.02293 -14.44257,7.99999"
     id="path21338" />
  <circle
     transform="scale(1,-1)"
     style="fill:none;stroke:#ff0000;stroke-width:0.05mm"
     r="0.89999998"
     cx="261.56689"
     cy="29.325918"
     id="circle21340" />
  <path
     style="fill:none;stroke:#000000;stroke-width:0.05mm"
     d="m 244.87379,-13.325912 v 4.5000004 h 4.5 v -4.5000004 c 5.23866,0 10.32526,-1.76098 14.44258,-5 v -3 h -4.5 c -5.87104,-10e-6 -11.32841,3.02293 -14.44257,7.99999"
     id="path21342" />
  <circle
     transform="scale(1,-1)"
     style="fill:none;stroke:#ff0000;stroke-width:0.05mm"
     r="0.89999998"
     cx="261.56689"
     cy="19.325903"
     id="circle21344" />
  <path
     style="fill:none;stroke:#000000;stroke-width:0.05mm"
     d="m 244.87379,-3.3259116 v 4.5 h 4.5 v -4.5 c 5.23866,0 10.32526,-1.76098 14.44258,-5 v -3.0000004 h -4.5 c -5.87104,-10e-6 -11.32841,3.0229304 -14.44257,7.9999904"
     id="path21346" />
  <circle
     transform="scale(1,-1)"
     style="fill:none;stroke:#ff0000;stroke-width:0.05mm"
     r="0.89999998"
     cx="261.56689"
     cy="9.3259029"
     id="circle21348" />
  <path
     style="fill:none;stroke:#000000;stroke-width:0.05mm"
     d="m 244.87379,6.6740884 v 4.4999996 h 4.5 V 6.6740884 c 5.23866,0 10.32526,-1.76098 14.44258,-5 v -3 h -4.5 c -5.87104,-1e-5 -11.32841,3.02293 -14.44257,7.99999"
     id="path21350" />
  <circle
     transform="scale(1,-1)"
     style="fill:none;stroke:#ff0000;stroke-width:0.05mm"
     r="0.89999998"
     cx="261.56689"
     cy="-0.67409706"
     id="circle21352" />
  <path
     style="fill:none;stroke:#000000;stroke-width:0.05mm"
     d="m 244.87379,16.674088 v 4.5 h 4.5 v -4.5 c 5.23866,0 10.32526,-1.76098 14.44258,-5 V 8.6740884 h -4.5 c -5.87104,-10e-6 -11.32841,3.0229296 -14.44257,7.9999896"
     id="path21354" />
  <circle
     transform="scale(1,-1)"
     style="fill:none;stroke:#ff0000;stroke-width:0.05mm"
     r="0.89999998"
     cx="261.56689"
     cy="-10.674097"
     id="circle21356" />
  <path
     style="fill:none;stroke:#000000;stroke-width:0.05mm"
     d="m 244.87379,26.674088 v 4.5 h 4.5 v -4.5 c 5.23866,0 10.32526,-1.76098 14.44258,-5 v -3 h -4.5 c -5.87104,-10e-6 -11.32841,3.02293 -14.44257,7.99999"
     id="path21358" />
  <circle
     transform="scale(1,-1)"
     style="fill:none;stroke:#ff0000;stroke-width:0.05mm"
     r="0.89999998"
     cx="261.56689"
     cy="-20.674097"
     id="circle21360" />
  <path
     style="fill:none;stroke:#ff0000;stroke-width:0.05mm"
     d="m 99.250386,16.888715 v -2.5 h -2 v 2.5 z"
     id="path21362" />
  <path
     style="fill:none;stroke:#ff0000;stroke-width:0.05mm"
     d="m 87.250386,23.188718 h -2.5 v 2.100006 h 2.5 z"
     id="path21364" />
  <circle
     transform="matrix(0,1,1,0,0,0)"
     style="fill:none;stroke:#ff0000;stroke-width:0.05mm"
     r="1.400002"
     cx="2.1391506"
     cy="83.275406"
     id="circle21366" />
  <path
     style="fill:none;stroke:#ff0000;stroke-width:0.05mm"
     d="m 97.250386,27.388715 v 2.5 h 2 v -2.5 z"
     id="path21368" />
  <path
     style="fill:none;stroke:#ff0000;stroke-width:0.05mm"
     d="m 95.250386,16.888715 v -2.5 h -2 v 2.5 z"
     id="path21370" />
  <path
     style="fill:none;stroke:#000000;stroke-width:0.05mm"
     d="m 79.275386,12.888715 v 18.5 h 34.000004 v -18.5 z"
     id="path21372" />
  <path
     style="fill:none;stroke:#ff0000;stroke-width:0.05mm"
     d="m 87.250386,18.988721 h -2.5 v 2.100006 h 2.5 z"
     id="path21374" />
  <path
     style="fill:none;stroke:#ff0000;stroke-width:0.05mm"
     d="m 93.250386,27.388715 v 2.5 h 2 v -2.5 z"
     id="path21376" />
  <path
     style="fill:none;stroke:#000000;stroke-width:0.05mm"
     d="M 79.275386,-7.1112849 V 11.388715 H 113.27539 V -7.1112849 Z"
     id="path21378" />
  <circle
     transform="matrix(0,1,1,0,0,0)"
     style="fill:none;stroke:#ff0000;stroke-width:0.05mm"
     r="1.400002"
     cx="2.1391563"
     cy="109.27541"
     id="circle21380" />
  <circle
     transform="matrix(0,1,1,0,0,0)"
     style="fill:none;stroke:#ff0000;stroke-width:0.05mm"
     r="1.400002"
     cx="22.139153"
     cy="109.27541"
     id="circle21382" />
  <circle
     transform="matrix(0,1,1,0,0,0)"
     style="fill:none;stroke:#ff0000;stroke-width:0.05mm"
     r="1.400002"
     cx="22.139149"
     cy="83.275406"
     id="circle21384" />
  <path
     style="fill:none;stroke:#ff0000;stroke-width:0.0500005mm"
     d="m 31.405403,-104.69394 v -2.50002 h -2.00002 v 2.50002 z"
     id="path21386" />
  <path
     style="fill:none;stroke:#ff0000;stroke-width:0.0500005mm"
     d="m 19.405283,-98.393875 h -2.500025 v 2.10002 h 2.500025 z"
     id="path21388" />
  <circle
     transform="matrix(0,1,1,0,0,0)"
     style="fill:none;stroke:#ff0000;stroke-width:0.0500005mm"
     r="1.400016"
     cx="-119.44366"
     cy="15.430282"
     id="circle21390" />
  <path
     style="fill:none;stroke:#ff0000;stroke-width:0.0500005mm"
     d="m 29.405383,-94.193835 v 2.50002 h 2.00002 v -2.50002 z"
     id="path21392" />
  <path
     style="fill:none;stroke:#ff0000;stroke-width:0.0500005mm"
     d="m 27.405363,-104.69394 v -2.50002 h -2.00002 v 2.50002 z"
     id="path21394" />
  <path
     style="fill:none;stroke:#000000;stroke-width:0.0500005mm"
     d="m 11.430205,-108.69398 v 18.500185 h 34.00034 v -18.500185 z"
     id="path21396" />
  <path
     style="fill:none;stroke:#ff0000;stroke-width:0.0500005mm"
     d="m 19.405283,-102.59391 h -2.500025 v 2.10002 h 2.500025 z"
     id="path21398" />
  <path
     style="fill:none;stroke:#ff0000;stroke-width:0.0500005mm"
     d="m 25.405343,-94.193835 v 2.50002 h 2.00002 v -2.50002 z"
     id="path21400" />
  <path
     style="fill:none;stroke:#000000;stroke-width:0.0500005mm"
     d="m 11.430209,-128.69419 v 18.50018 h 34.00034 v -18.50018 z"
     id="path21402" />
  <circle
     transform="matrix(0,1,1,0,0,0)"
     style="fill:none;stroke:#ff0000;stroke-width:0.0500005mm"
     r="1.400016"
     cx="-119.44366"
     cy="41.430538"
     id="circle21404" />
  <circle
     transform="matrix(0,1,1,0,0,0)"
     style="fill:none;stroke:#ff0000;stroke-width:0.0500005mm"
     r="1.400016"
     cx="-99.443466"
     cy="41.430538"
     id="circle21406" />
  <circle
     transform="matrix(0,1,1,0,0,0)"
     style="fill:none;stroke:#ff0000;stroke-width:0.0500005mm"
     r="1.400016"
     cx="-99.443466"
     cy="15.430278"
     id="circle21408" />
  <path
     style="fill:none;stroke:#ff0000;stroke-width:0.0500005mm"
     d="m 31.405403,15.307062 v -2.500025 h -2.00002 v 2.500025 z"
     id="path21410" />
  <path
     style="fill:none;stroke:#ff0000;stroke-width:0.0500005mm"
     d="m 19.405283,21.607129 h -2.500025 v 2.100027 h 2.500025 z"
     id="path21412" />
  <circle
     transform="matrix(0,1,1,0,0,0)"
     style="fill:none;stroke:#ff0000;stroke-width:0.0500005mm"
     r="1.400016"
     cx="0.55734628"
     cy="15.430282"
     id="circle21414" />
  <path
     style="fill:none;stroke:#ff0000;stroke-width:0.0500005mm"
     d="m 29.405383,25.807168 v 2.500025 h 2.00002 v -2.500025 z"
     id="path21416" />
  <path
     style="fill:none;stroke:#ff0000;stroke-width:0.0500005mm"
     d="m 27.405363,15.307062 v -2.500025 h -2.00002 v 2.500025 z"
     id="path21418" />
  <path
     style="fill:none;stroke:#000000;stroke-width:0.0500005mm"
     d="m 11.430205,11.307022 v 18.500186 h 34.00034 V 11.307022 Z"
     id="path21420" />
  <path
     style="fill:none;stroke:#ff0000;stroke-width:0.0500005mm"
     d="m 19.405283,17.407089 h -2.500025 v 2.100028 h 2.500025 z"
     id="path21422" />
  <path
     style="fill:none;stroke:#ff0000;stroke-width:0.0500005mm"
     d="m 25.405343,25.807168 v 2.500025 h 2.00002 v -2.500025 z"
     id="path21424" />
  <path
     style="fill:none;stroke:#000000;stroke-width:0.0500005mm"
     d="m 11.430209,-8.6931759 v 18.500185 h 34.00034 v -18.500185 z"
     id="path21426" />
  <circle
     transform="matrix(0,1,1,0,0,0)"
     style="fill:none;stroke:#ff0000;stroke-width:0.0500005mm"
     r="1.400016"
     cx="0.5573501"
     cy="41.430538"
     id="circle21428" />
  <circle
     transform="matrix(0,1,1,0,0,0)"
     style="fill:none;stroke:#ff0000;stroke-width:0.0500005mm"
     r="1.400016"
     cx="20.55755"
     cy="41.430538"
     id="circle21430" />
  <circle
     transform="matrix(0,1,1,0,0,0)"
     style="fill:none;stroke:#ff0000;stroke-width:0.0500005mm"
     r="1.400016"
     cx="20.557547"
     cy="15.430278"
     id="circle21432" />
  <path
     style="fill:none;stroke:#000000;stroke-width:0.0500005mm"
     d="m 58.094686,13.133695 h -2.500025 v 2.00002 h 2.500025 v 2.00002 h -2.500025 v 2.00002 h -3.500035 v -2.00002 h -2.500025 v -2.00002 h 2.500025 v -2.00002 h -2.500025 v -2.00002 h 2.500025 V 9.1336551 h 3.500035 v 2.0000199 h 2.500025 z"
     id="path21434" />
  <path
     style="fill:none;stroke:#000000;stroke-width:0.0500005mm"
     d="m 58.09473,22.133695 h -2.500025 v -2.00002 H 52.09467 v 2.00002 h -2.500025 v 2.00002 h 2.500025 v 2.00002 h -2.500025 v 2.00002 h 2.500025 v 2.00002 h 3.500035 v -2.00002 h 2.500025 v -2.00002 h -2.500025 v -2.00002 h 2.500025 z"
     id="path21436" />
  <path
     style="fill:none;stroke:#000000;stroke-width:0.0500005mm"
     d="m 72.766026,28.133919 h 2.50002 v 2.00002 H 59.765891 v -2.00002 h 2.500029 v -2.00002 h -2.500029 v -2.00002 h 2.500029 v -2.00002 h -2.500029 v -2.00002 h 15.500155 v 2.00002 h -2.50002 v 2.00002 h 2.50002 v 2.00002 h -2.50002 z"
     id="path21438" />
  <path
     style="fill:none;stroke:#000000;stroke-width:0.0500005mm"
     d="M 60.15302,19.479827 V 8.9797221 h 6.000056 v 2.1000189 h 2.50003 v 2.100027 h -2.50003 v 2.10002 h 2.50003 v 2.100019 h -2.50003 v 2.10002 z"
     id="path21440" />
  <path
     style="fill:none;stroke:#000000;stroke-width:0.0500005mm"
     d="m 58.094686,-11.866505 h -2.500025 v 2.0000201 h 2.500025 v 2.00002 h -2.500025 v 2.00002 h -3.500035 v -2.00002 h -2.500025 v -2.00002 h 2.500025 v -2.0000201 h -2.500025 v -2.00002 h 2.500025 v -2.00002 h 3.500035 v 2.00002 h 2.500025 z"
     id="path21442" />
  <path
     style="fill:none;stroke:#000000;stroke-width:0.0500005mm"
     d="m 58.09473,-2.8665049 h -2.500025 v -2.00002 H 52.09467 v 2.00002 h -2.500025 v 2.00001999 H 52.09467 V 1.1335351 h -2.500025 v 2.00002 h 2.500025 v 2.00002 h 3.500035 v -2.00002 h 2.500025 v -2.00002 h -2.500025 v -2.00002001 h 2.500025 z"
     id="path21444" />
  <path
     style="fill:none;stroke:#000000;stroke-width:0.0500005mm"
     d="m 72.766026,3.1337211 h 2.50002 v 2.00002 H 59.765891 v -2.00002 h 2.500029 v -2.00002 H 59.765891 V -0.86631891 H 62.26592 V -2.8663389 h -2.500029 v -2.00002 h 15.500155 v 2.00002 h -2.50002 v 2.00001999 h 2.50002 V 1.1337011 h -2.50002 z"
     id="path21446" />
  <path
     style="fill:none;stroke:#000000;stroke-width:0.0500005mm"
     d="M 60.15302,-5.5203709 V -16.020476 h 6.000056 v 2.100019 h 2.50003 v 2.100027 h -2.50003 v 2.1000201 h 2.50003 v 2.100019 h -2.50003 v 2.10002 z"
     id="path21448" />
  <path
     style="fill:none;stroke:#000000;stroke-width:0.0500005mm"
     d="m 58.094686,-36.866705 h -2.500025 v 2.00002 h 2.500025 v 2.00002 h -2.500025 v 2.00002 h -3.500035 v -2.00002 h -2.500025 v -2.00002 h 2.500025 v -2.00002 h -2.500025 v -2.00002 h 2.500025 v -2.00002 h 3.500035 v 2.00002 h 2.500025 z"
     id="path21450" />
  <path
     style="fill:none;stroke:#000000;stroke-width:0.0500005mm"
     d="m 58.09473,-27.866704 h -2.500025 v -2.00002 H 52.09467 v 2.00002 h -2.500025 v 2.00002 h 2.500025 v 2.00002 h -2.500025 v 2.00002 h 2.500025 v 2.00002 h 3.500035 v -2.00002 h 2.500025 v -2.00002 h -2.500025 v -2.00002 h 2.500025 z"
     id="path21452" />
  <path
     style="fill:none;stroke:#000000;stroke-width:0.0500005mm"
     d="m 72.766026,-21.866477 h 2.50002 v 2.00002 H 59.765891 v -2.00002 h 2.500029 v -2.00002 h -2.500029 v -2.00002 h 2.500029 v -2.00002 h -2.500029 v -2.00002 h 15.500155 v 2.00002 h -2.50002 v 2.00002 h 2.50002 v 2.00002 h -2.50002 z"
     id="path21454" />
  <path
     style="fill:none;stroke:#000000;stroke-width:0.0500005mm"
     d="m 60.15302,-30.520573 v -10.500105 h 6.000056 v 2.100019 h 2.50003 v 2.100027 h -2.50003 v 2.10002 h 2.50003 v 2.100019 h -2.50003 v 2.10002 z"
     id="path21456" />
  <path
     style="fill:none;stroke:#000000;stroke-width:0.0500005mm"
     d="m 58.094686,-61.866904 h -2.500025 v 2.00002 h 2.500025 v 2.00002 h -2.500025 v 2.00002 h -3.500035 v -2.00002 h -2.500025 v -2.00002 h 2.500025 v -2.00002 h -2.500025 v -2.00002 h 2.500025 v -2.00002 h 3.500035 v 2.00002 h 2.500025 z"
     id="path21458" />
  <path
     style="fill:none;stroke:#000000;stroke-width:0.0500005mm"
     d="m 58.09473,-52.866906 h -2.500025 v -2.00002 H 52.09467 v 2.00002 h -2.500025 v 2.00002 h 2.500025 v 2.00002 h -2.500025 v 2.00002 h 2.500025 v 2.00002 h 3.500035 v -2.00002 h 2.500025 v -2.00002 h -2.500025 v -2.00002 h 2.500025 z"
     id="path21460" />
  <path
     style="fill:none;stroke:#000000;stroke-width:0.0500005mm"
     d="m 72.766026,-46.866683 h 2.50002 v 2.00002 H 59.765891 v -2.00002 h 2.500029 v -2.00002 h -2.500029 v -2.00002 h 2.500029 v -2.00002 h -2.500029 v -2.00002 h 15.500155 v 2.00002 h -2.50002 v 2.00002 h 2.50002 v 2.00002 h -2.50002 z"
     id="path21462" />
  <path
     style="fill:none;stroke:#000000;stroke-width:0.0500005mm"
     d="m 60.15302,-55.520773 v -10.500105 h 6.000056 v 2.100019 h 2.50003 v 2.100027 h -2.50003 v 2.10002 h 2.50003 v 2.100019 h -2.50003 v 2.10002 z"
     id="path21464" />
  <path
     style="fill:none;stroke:#000000;stroke-width:0.0500005mm"
     d="m 58.094686,-86.867105 h -2.500025 v 2.00002 h 2.500025 v 2.00002 h -2.500025 v 2.00002 h -3.500035 v -2.00002 h -2.500025 v -2.00002 h 2.500025 v -2.00002 h -2.500025 v -2.00002 h 2.500025 v -2.00002 h 3.500035 v 2.00002 h 2.500025 z"
     id="path21466" />
  <path
     style="fill:none;stroke:#000000;stroke-width:0.0500005mm"
     d="m 58.09473,-77.867105 h -2.500025 v -2.00002 H 52.09467 v 2.00002 h -2.500025 v 2.00002 h 2.500025 v 2.00002 h -2.500025 v 2.00002 h 2.500025 v 2.000017 h 3.500035 v -2.000017 h 2.500025 v -2.00002 h -2.500025 v -2.00002 h 2.500025 z"
     id="path21468" />
  <path
     style="fill:none;stroke:#000000;stroke-width:0.0500005mm"
     d="m 72.766026,-71.866985 h 2.50002 v 2.000024 H 59.765891 v -2.000024 h 2.500029 v -2.00002 h -2.500029 v -2.00002 h 2.500029 v -2.00002 h -2.500029 v -2.00002 h 15.500155 v 2.00002 h -2.50002 v 2.00002 h 2.50002 v 2.00002 h -2.50002 z"
     id="path21470" />
  <path
     style="fill:none;stroke:#000000;stroke-width:0.0500005mm"
     d="m 60.15302,-80.520975 v -10.5001 h 6.000056 v 2.10002 h 2.50003 v 2.10002 h -2.50003 v 2.10002 h 2.50003 v 2.10002 h -2.50003 v 2.10002 z"
     id="path21472" />
  <path
     style="fill:none;stroke:#000000;stroke-width:0.0500005mm"
     d="m 58.094686,-111.8676 h -2.500025 v 2.00002 h 2.500025 v 2.00002 h -2.500025 v 2.00002 h -3.500035 v -2.00002 h -2.500025 v -2.00002 h 2.500025 v -2.00002 h -2.500025 v -2.00002 h 2.500025 v -2.00002 h 3.500035 v 2.00002 h 2.500025 z"
     id="path21474" />
  <path
     style="fill:none;stroke:#000000;stroke-width:0.0500005mm"
     d="m 58.09473,-102.8671 h -2.500025 v -2.00002 H 52.09467 v 2.00002 h -2.500025 v 2.00002 h 2.500025 v 2.000015 h -2.500025 v 2.00002 h 2.500025 v 2.00002 h 3.500035 v -2.00002 h 2.500025 v -2.00002 h -2.500025 v -2.000015 h 2.500025 z"
     id="path21476" />
  <path
     style="fill:none;stroke:#000000;stroke-width:0.0500005mm"
     d="m 72.766026,-96.866985 h 2.50002 v 2.00002 H 59.765891 v -2.00002 h 2.500029 v -2.00002 h -2.500029 v -2.000015 h 2.500029 v -2.00002 h -2.500029 v -2.00002 h 15.500155 v 2.00002 h -2.50002 v 2.00002 h 2.50002 v 2.000015 h -2.50002 z"
     id="path21478" />
  <path
     style="fill:none;stroke:#000000;stroke-width:0.0500005mm"
     d="m 60.15302,-105.52117 v -10.5001 h 6.000056 v 2.10002 h 2.50003 v 2.10002 h -2.50003 v 2.10002 h 2.50003 v 2.10002 h -2.50003 v 2.10002 z"
     id="path21480" />
  <path
     style="fill:none;stroke:#000000;stroke-width:0.0499999mm"
     d="m 90.939176,-145.28388 h -2.49999 v 1.99999 h 2.49999 v 2 h -2.49999 v 1.99999 h -3.5 v -1.99999 h -2.49999 v -2 h 2.49999 v -1.99999 h -2.49999 v -2 h 2.49999 v -2 h 3.5 v 2 h 2.49999 z"
     id="path21482" />
  <path
     style="fill:none;stroke:#000000;stroke-width:0.0499999mm"
     d="m 90.939616,-136.28358 h -2.49999 v -2 h -3.49999 v 2 h -2.5 v 1.99999 h 2.5 v 2 h -2.5 v 1.99999 h 2.5 v 2 h 3.49999 v -2 h 2.49999 v -1.99999 h -2.49999 v -2 h 2.49999 z"
     id="path21484" />
  <path
     style="fill:none;stroke:#000000;stroke-width:0.0499999mm"
     d="m 105.61064,-130.28388 h 2.5 v 1.99999 H 92.610666 v -1.99999 h 2.49999 v -2 h -2.49999 v -2 h 2.49999 v -1.99999 h -2.49999 v -2 h 15.499974 v 2 h -2.5 v 1.99999 h 2.5 v 2 h -2.5 z"
     id="path21486" />
  <path
     style="fill:none;stroke:#000000;stroke-width:0.0499999mm"
     d="m 92.997656,-138.93791 v -10.49998 h 5.99998 v 2.1 h 2.500004 v 2.1 h -2.500004 v 2.09999 h 2.500004 v 2.1 h -2.500004 v 2.09999 z"
     id="path21488" />
  <path
     style="fill:none;stroke:#ff0000;stroke-width:0.0500005mm"
     d="m 31.405403,-64.693945 v -2.500025 h -2.00002 v 2.500025 z"
     id="path21490" />
  <path
     style="fill:none;stroke:#ff0000;stroke-width:0.0500005mm"
     d="m 19.405283,-58.393879 h -2.500025 v 2.100027 h 2.500025 z"
     id="path21492" />
  <circle
     transform="matrix(0,1,1,0,0,0)"
     style="fill:none;stroke:#ff0000;stroke-width:0.0500005mm"
     r="1.400016"
     cx="-79.443649"
     cy="15.430282"
     id="circle21494" />
  <path
     style="fill:none;stroke:#ff0000;stroke-width:0.0500005mm"
     d="m 29.405383,-54.19384 v 2.500025 h 2.00002 v -2.500025 z"
     id="path21496" />
  <path
     style="fill:none;stroke:#ff0000;stroke-width:0.0500005mm"
     d="m 27.405363,-64.693945 v -2.500025 h -2.00002 v 2.500025 z"
     id="path21498" />
  <path
     style="fill:none;stroke:#000000;stroke-width:0.0500005mm"
     d="M 11.430205,-68.693985 V -50.1938 h 34.00034 v -18.500185 z"
     id="path21500" />
  <path
     style="fill:none;stroke:#ff0000;stroke-width:0.0500005mm"
     d="m 19.405283,-62.593918 h -2.500025 v 2.100027 h 2.500025 z"
     id="path21502" />
  <path
     style="fill:none;stroke:#ff0000;stroke-width:0.0500005mm"
     d="m 25.405343,-54.19384 v 2.500025 h 2.00002 v -2.500025 z"
     id="path21504" />
  <path
     style="fill:none;stroke:#000000;stroke-width:0.0500005mm"
     d="m 11.430209,-88.694195 v 18.500182 h 34.00034 v -18.500182 z"
     id="path21506" />
  <circle
     transform="matrix(0,1,1,0,0,0)"
     style="fill:none;stroke:#ff0000;stroke-width:0.0500005mm"
     r="1.400016"
     cx="-79.443649"
     cy="41.430538"
     id="circle21508" />
  <circle
     transform="matrix(0,1,1,0,0,0)"
     style="fill:none;stroke:#ff0000;stroke-width:0.0500005mm"
     r="1.400016"
     cx="-59.443455"
     cy="41.430538"
     id="circle21510" />
  <circle
     transform="matrix(0,1,1,0,0,0)"
     style="fill:none;stroke:#ff0000;stroke-width:0.0500005mm"
     r="1.400016"
     cx="-59.443462"
     cy="15.430278"
     id="circle21512" />
  <path
     style="fill:none;stroke:#ff0000;stroke-width:0.05mm"
     d="m 99.250386,-63.111285 v -2.5 h -2 v 2.5 z"
     id="path21514" />
  <path
     style="fill:none;stroke:#ff0000;stroke-width:0.05mm"
     d="m 87.250386,-56.811282 h -2.5 v 2.100006 h 2.5 z"
     id="path21516" />
  <circle
     transform="matrix(0,1,1,0,0,0)"
     style="fill:none;stroke:#ff0000;stroke-width:0.05mm"
     r="1.400002"
     cx="-77.86084"
     cy="83.275406"
     id="circle21518" />
  <path
     style="fill:none;stroke:#ff0000;stroke-width:0.05mm"
     d="m 97.250386,-52.611285 v 2.5 h 2 v -2.5 z"
     id="path21520" />
  <path
     style="fill:none;stroke:#ff0000;stroke-width:0.05mm"
     d="m 95.250386,-63.111285 v -2.5 h -2 v 2.5 z"
     id="path21522" />
  <path
     style="fill:none;stroke:#000000;stroke-width:0.05mm"
     d="m 79.275386,-67.111285 v 18.5 h 34.000004 v -18.5 z"
     id="path21524" />
  <path
     style="fill:none;stroke:#ff0000;stroke-width:0.05mm"
     d="m 87.250386,-61.011279 h -2.5 v 2.100006 h 2.5 z"
     id="path21526" />
  <path
     style="fill:none;stroke:#ff0000;stroke-width:0.05mm"
     d="m 93.250386,-52.611285 v 2.5 h 2 v -2.5 z"
     id="path21528" />
  <path
     style="fill:none;stroke:#000000;stroke-width:0.05mm"
     d="m 79.275386,-87.111285 v 18.5 h 34.000004 v -18.5 z"
     id="path21530" />
  <circle
     transform="matrix(0,1,1,0,0,0)"
     style="fill:none;stroke:#ff0000;stroke-width:0.05mm"
     r="1.400002"
     cx="-77.86084"
     cy="109.27541"
     id="circle21532" />
  <circle
     transform="matrix(0,1,1,0,0,0)"
     style="fill:none;stroke:#ff0000;stroke-width:0.05mm"
     r="1.400002"
     cx="-57.860844"
     cy="109.27541"
     id="circle21534" />
  <circle
     transform="matrix(0,1,1,0,0,0)"
     style="fill:none;stroke:#ff0000;stroke-width:0.05mm"
     r="1.400002"
     cx="-57.860851"
     cy="83.275406"
     id="circle21536" />
  <path
     style="fill:none;stroke:#ff0000;stroke-width:0.05mm"
     d="m 99.250386,-23.111285 v -2.5 h -2 v 2.5 z"
     id="path21538" />
  <path
     style="fill:none;stroke:#ff0000;stroke-width:0.05mm"
     d="m 87.250386,-16.811282 h -2.5 v 2.100006 h 2.5 z"
     id="path21540" />
  <circle
     transform="matrix(0,1,1,0,0,0)"
     style="fill:none;stroke:#ff0000;stroke-width:0.05mm"
     r="1.400002"
     cx="-37.860851"
     cy="83.275406"
     id="circle21542" />
  <path
     style="fill:none;stroke:#ff0000;stroke-width:0.05mm"
     d="m 97.250386,-12.611285 v 2.5 h 2 v -2.5 z"
     id="path21544" />
  <path
     style="fill:none;stroke:#ff0000;stroke-width:0.05mm"
     d="m 95.250386,-23.111285 v -2.5 h -2 v 2.5 z"
     id="path21546" />
  <path
     style="fill:none;stroke:#000000;stroke-width:0.05mm"
     d="M 79.275386,-27.111285 V -8.6112849 H 113.27539 V -27.111285 Z"
     id="path21548" />
  <path
     style="fill:none;stroke:#ff0000;stroke-width:0.05mm"
     d="m 87.250386,-21.011279 h -2.5 v 2.100006 h 2.5 z"
     id="path21550" />
  <path
     style="fill:none;stroke:#ff0000;stroke-width:0.05mm"
     d="m 93.250386,-12.611285 v 2.5 h 2 v -2.5 z"
     id="path21552" />
  <path
     style="fill:none;stroke:#000000;stroke-width:0.05mm"
     d="m 79.275386,-47.111285 v 18.5 h 34.000004 v -18.5 z"
     id="path21554" />
  <circle
     transform="matrix(0,1,1,0,0,0)"
     style="fill:none;stroke:#ff0000;stroke-width:0.05mm"
     r="1.400002"
     cx="-37.860844"
     cy="109.27541"
     id="circle21556" />
  <circle
     transform="matrix(0,1,1,0,0,0)"
     style="fill:none;stroke:#ff0000;stroke-width:0.05mm"
     r="1.400002"
     cx="-17.860842"
     cy="109.27541"
     id="circle21558" />
  <circle
     transform="matrix(0,1,1,0,0,0)"
     style="fill:none;stroke:#ff0000;stroke-width:0.05mm"
     r="1.400002"
     cx="-17.860849"
     cy="83.275406"
     id="circle21560" />
  <path
     style="fill:none;stroke:#ff0000;stroke-width:0.0500005mm"
     d="m 31.405403,-24.692938 v -2.500025 h -2.00002 v 2.500025 z"
     id="path21562" />
  <path
     style="fill:none;stroke:#ff0000;stroke-width:0.0500005mm"
     d="m 19.405283,-18.392872 h -2.500025 v 2.100027 h 2.500025 z"
     id="path21564" />
  <circle
     transform="matrix(0,1,1,0,0,0)"
     style="fill:none;stroke:#ff0000;stroke-width:0.0500005mm"
     r="1.400016"
     cx="-39.442654"
     cy="15.430282"
     id="circle21566" />
  <path
     style="fill:none;stroke:#ff0000;stroke-width:0.0500005mm"
     d="m 29.405383,-14.192833 v 2.500025 h 2.00002 v -2.500025 z"
     id="path21568" />
  <path
     style="fill:none;stroke:#ff0000;stroke-width:0.0500005mm"
     d="m 27.405363,-24.692938 v -2.500025 h -2.00002 v 2.500025 z"
     id="path21570" />
  <path
     style="fill:none;stroke:#000000;stroke-width:0.0500005mm"
     d="m 11.430205,-28.692978 v 18.500185 h 34.00034 v -18.500185 z"
     id="path21572" />
  <path
     style="fill:none;stroke:#ff0000;stroke-width:0.0500005mm"
     d="m 19.405283,-22.592911 h -2.500025 v 2.100027 h 2.500025 z"
     id="path21574" />
  <path
     style="fill:none;stroke:#ff0000;stroke-width:0.0500005mm"
     d="m 25.405343,-14.192833 v 2.500025 h 2.00002 v -2.500025 z"
     id="path21576" />
  <path
     style="fill:none;stroke:#000000;stroke-width:0.0500005mm"
     d="m 11.430209,-48.693176 v 18.500185 h 34.00034 v -18.500185 z"
     id="path21578" />
  <circle
     transform="matrix(0,1,1,0,0,0)"
     style="fill:none;stroke:#ff0000;stroke-width:0.0500005mm"
     r="1.400016"
     cx="-39.442646"
     cy="41.430538"
     id="circle21580" />
  <circle
     transform="matrix(0,1,1,0,0,0)"
     style="fill:none;stroke:#ff0000;stroke-width:0.0500005mm"
     r="1.400016"
     cx="-19.44245"
     cy="41.430538"
     id="circle21582" />
  <circle
     transform="matrix(0,1,1,0,0,0)"
     style="fill:none;stroke:#ff0000;stroke-width:0.0500005mm"
     r="1.400016"
     cx="-19.442457"
     cy="15.430278"
     id="circle21584" />
  <text
     xml:space="preserve"
     style="font-size:8.89602px;font-family:'Courier New';-inkscape-font-specification:'Courier New';fill:none;stroke:#000000;stroke-width:0.28019;stroke-linecap:round;stroke-linejoin:round"
     x="38.578697"
     y="-174.85294"
     id="text22229"><tspan
       sodipodi:role="line"
       id="tspan22227"
       style="stroke-width:0.28019"
       x="38.578697"
       y="-174.85294">2.5 mm</tspan></text>
  <text
     xml:space="preserve"
     style="font-size:8.89602px;font-family:'Courier New';-inkscape-font-specification:'Courier New';fill:none;stroke:#000000;stroke-width:0.28019;stroke-linecap:round;stroke-linejoin:round"
     x="205.87354"
     y="-170.69655"
     id="text22233"><tspan
       sodipodi:role="line"
       id="tspan22231"
       style="stroke-width:0.28019"
       x="205.87354"
       y="-170.69655">4.5 mm</tspan></text>
</svg>
