<?xml version="1.0" encoding="UTF-8"?>
<svg xmlns="http://www.w3.org/2000/svg" xmlns:xlink="http://www.w3.org/1999/xlink" width="138.119mm" height="178.000mm" viewBox="39.999985 -213.000290 138.118576 178.000244">
    <path transform="matrix(0.999998,0,0,-0.999998,43.362598,-59.349998)" style="stroke:#000000;stroke-width:0.05mm;fill:none" d="M51.755543,16.65L49.255543,16.65L49.255543,18.65L64.755547,18.65L64.755547,16.65L62.255543,16.65L62.255543,14.65L64.755547,14.65L64.755547,12.65L62.255543,12.65L62.255543,10.65L64.755547,10.65L64.755547,8.65L49.255543,8.65L49.255543,10.65L51.755543,10.65L51.755543,12.65L49.255543,12.65L49.255543,14.65L51.755543,14.65L51.755543,16.65z"/>
    <path transform="matrix(-0,0.999998,0.999998,0,46.211498,-139.626007)" style="stroke:#000000;stroke-width:0.05mm;fill:none" d="M72.536201,53.86652L83.036201,53.86652L83.036201,47.86652L80.936203,47.86652L80.936203,45.36652L78.836197,45.36652L78.836197,47.86652L76.736198,47.86652L76.736198,45.36652L74.6362,45.36652L74.6362,47.86652L72.536201,47.86652L72.536201,53.86652z"/>
    <path transform="matrix(0.999998,0,0,-0.999998,18.292801,-15.9699)" style="stroke:#000000;stroke-width:0.05mm;fill:none" d="M83.035271,36.030098L80.535271,36.030098L80.535271,34.030098L83.035271,34.030098L83.035271,32.030098L80.535271,32.030098L80.535271,30.030098L77.035271,30.030098L77.035271,32.030098L74.535271,32.030098L74.535271,34.030098L77.035271,34.030098L77.035271,36.030098L74.535271,36.030098L74.535271,38.030098L77.035271,38.030098L77.035271,40.030098L80.535271,40.030098L80.535271,38.030098L83.035271,38.030098L83.035271,36.030098z"/>
    <path transform="matrix(0.999998,0,0,-0.999998,17.693399,-23.952299)" style="stroke:#000000;stroke-width:0.05mm;fill:none" d="M83.634712,19.047768L81.134712,19.047768L81.134712,21.047768L77.634712,21.047768L77.634712,19.047768L75.134712,19.047768L75.134712,17.047768L77.634712,17.047768L77.634712,15.047768L75.134712,15.047768L75.134712,13.047768L77.634712,13.047768L77.634712,11.047768L81.134712,11.047768L81.134712,13.047768L83.634712,13.047768L83.634712,15.047768L81.134712,15.047768L81.134712,17.047768L83.634712,17.047768L83.634712,19.047768z"/>
    <path transform="matrix(-0,0.999998,0.999998,0,26.573078,-77.427223)" style="stroke:#ff0000;stroke-width:0.05mm;fill:none" d="M10.15,61.626934L10.15,62.426933L8.35,62.426933L8.35,61.626934L10.15,61.626934z"/>
    <path transform="matrix(-0,0.999998,0.999998,0,26.573078,-77.427223)" style="stroke:#ff0000;stroke-width:0.05mm;fill:none" d="M1.5,37.401936L1.5,35.401936L4,35.401936L4,37.401936L1.5,37.401936z"/>
    <path transform="matrix(-0,0.999998,0.999998,0,26.573078,-77.427223)" style="stroke:#ff0000;stroke-width:0.05mm;fill:none" d="M6.1,29.401936L6.1,26.901936L8.2,26.901936L8.2,29.401936L6.1,29.401936z"/>
    <path transform="matrix(-0,0.999998,0.999998,0,26.573078,-77.427223)" style="stroke:#ff0000;stroke-width:0.05mm;fill:none" d="M10.15,22.226934L10.15,21.426935L8.35,21.426935L8.35,22.226934L10.15,22.226934z"/>
    <path transform="matrix(-0,0.999998,0.999998,0,26.573078,-77.427223)" style="stroke:#ff0000;stroke-width:0.05mm;fill:none" d="M14.5,39.401936L17,39.401936L17,41.401936L14.5,41.401936L14.5,39.401936z"/>
    <path transform="matrix(-0,0.999998,0.999998,0,26.573078,-77.427223)" style="stroke:#ff0000;stroke-width:0.05mm;fill:none" d="M10.3,29.401936L10.3,26.901936L12.4,26.901936L12.4,29.401936L10.3,29.401936z"/>
    <path transform="matrix(-0,0.999998,0.999998,0,26.573078,-77.427223)" style="stroke:#000000;stroke-width:0.05mm;fill:none" d="M0,56.426933C0,60.292927,3.134006,63.426933,7,63.426933L11.5,63.426933C15.365993,63.426933,18.5,60.292927,18.5,56.426933L18.5,20.426937C18.500002,16.560944,15.365995,13.426937,11.5,13.426935L7,13.426935C3.134008,13.426935,0,16.56094,0,20.426935L0,56.426933z"/>
    <path transform="matrix(-0,0.999998,0.999998,0,26.573078,-77.427223)" style="stroke:#ff0000;stroke-width:0.05mm;fill:none" d="M10.15,15.226935L8.35,15.226935L8.35,14.426935L10.15,14.426935L10.15,15.226935z"/>
    <circle transform="matrix(-0,0.999998,0.999998,0,52.000225,-68.177231)" style="stroke:#ff0000;stroke-width:0.05mm;fill:none" r="1.35" cx="0" cy="0"/>
    <path transform="matrix(-0,0.999998,0.999998,0,26.573078,-77.427223)" style="stroke:#ff0000;stroke-width:0.05mm;fill:none" d="M4,41.401936L1.5,41.401936L1.5,39.401936L4,39.401936L4,41.401936z"/>
    <path transform="matrix(-0,0.999998,0.999998,0,26.573078,-77.427223)" style="stroke:#ff0000;stroke-width:0.05mm;fill:none" d="M14.5,35.401936L17,35.401936L17,37.401936L14.5,37.401936L14.5,35.401936z"/>
    <circle transform="matrix(-0,0.999998,0.999998,0,78.000183,-68.177231)" style="stroke:#ff0000;stroke-width:0.05mm;fill:none" r="1.35" cx="0" cy="0"/>
    <path transform="matrix(-0,0.999998,0.999998,0,26.573078,-77.427223)" style="stroke:#ff0000;stroke-width:0.05mm;fill:none" d="M10.15,54.626934L10.15,55.426933L8.35,55.426933L8.35,54.626934L10.15,54.626934z"/>
    <path transform="matrix(-0,0.999998,0.999998,0,26.573078,-77.427223)" style="stroke:#ff0000;stroke-width:0.05mm;fill:none" d="M31.928051,56.026379L33.72805,56.026379L33.72805,55.226376L31.928051,55.226376L31.928051,56.026379z"/>
    <path transform="matrix(-0,0.999998,0.999998,0,26.573078,-77.427223)" style="stroke:#000000;stroke-width:0.05mm;fill:none" d="M23.578051,21.026377C23.578051,17.160381,26.712059,14.026377,30.578051,14.026377L35.078053,14.026377C38.94405,14.026379,42.078053,17.160385,42.078053,21.026379L42.078053,57.026379"/>
    <circle transform="matrix(-0,0.999998,0.999998,0,78.599174,-44.599274)" style="stroke:#ff0000;stroke-width:0.05mm;fill:none" r="1.35" cx="0" cy="0"/>
    <path transform="matrix(-0,0.999998,0.999998,0,26.573078,-77.427223)" style="stroke:#ff0000;stroke-width:0.05mm;fill:none" d="M31.928051,63.026379L33.72805,63.026379L33.72805,62.226376L31.928051,62.226376L31.928051,63.026379z"/>
    <path transform="matrix(-0,0.999998,0.999998,0,26.573078,-77.427223)" style="stroke:#000000;stroke-width:0.05mm;fill:none" d="M23.578051,57.026379L23.578051,21.026377"/>
    <path transform="matrix(-0,0.999998,0.999998,0,26.573078,-77.427223)" style="stroke:#000000;stroke-width:0.05mm;fill:none" d="M30.578051,64.026382C26.712057,64.026382,23.578051,60.892372,23.578051,57.026379"/>
    <path transform="matrix(-0,0.999998,0.999998,0,26.573078,-77.427223)" style="stroke:#ff0000;stroke-width:0.05mm;fill:none" d="M31.928051,15.026377L31.928051,15.826377L33.72805,15.826377L33.72805,15.026377L31.928051,15.026377z"/>
    <circle transform="matrix(-0,0.999998,0.999998,0,52.599228,-44.599277)" style="stroke:#ff0000;stroke-width:0.05mm;fill:none" r="1.35" cx="0" cy="0"/>
    <path transform="matrix(-0,0.999998,0.999998,0,26.573078,-77.427223)" style="stroke:#ff0000;stroke-width:0.05mm;fill:none" d="M31.928051,22.826378L33.72805,22.826378L33.72805,22.026377L31.928051,22.026377L31.928051,22.826378z"/>
    <path transform="matrix(-0,0.999998,0.999998,0,26.573078,-77.427223)" style="stroke:#000000;stroke-width:0.05mm;fill:none" d="M30.578051,64.026375L35.078053,64.026375C38.944046,64.026382,42.078053,60.892372,42.078053,57.026379"/>
    <path transform="matrix(0.999998,0,0,-0.999998,48.362499,-104.349998)" style="stroke:#000000;stroke-width:0.05mm;fill:none" d="M51.755543,16.65L49.255543,16.65L49.255543,18.65L64.755547,18.65L64.755547,16.65L62.255543,16.65L62.255543,14.65L64.755547,14.65L64.755547,12.65L62.255543,12.65L62.255543,10.65L64.755547,10.65L64.755547,8.65L49.255543,8.65L49.255543,10.65L51.755543,10.65L51.755543,12.65L49.255543,12.65L49.255543,14.65L51.755543,14.65L51.755543,16.65z"/>
    <path transform="matrix(-0,0.999998,0.999998,0,51.211498,-184.626007)" style="stroke:#000000;stroke-width:0.05mm;fill:none" d="M72.536201,53.86652L83.036201,53.86652L83.036201,47.86652L80.936203,47.86652L80.936203,45.36652L78.836197,45.36652L78.836197,47.86652L76.736198,47.86652L76.736198,45.36652L74.6362,45.36652L74.6362,47.86652L72.536201,47.86652L72.536201,53.86652z"/>
    <path transform="matrix(0.999998,0,0,-0.999998,23.292801,-60.969898)" style="stroke:#000000;stroke-width:0.05mm;fill:none" d="M83.035271,36.030098L80.535271,36.030098L80.535271,34.030098L83.035271,34.030098L83.035271,32.030098L80.535271,32.030098L80.535271,30.030098L77.035271,30.030098L77.035271,32.030098L74.535271,32.030098L74.535271,34.030098L77.035271,34.030098L77.035271,36.030098L74.535271,36.030098L74.535271,38.030098L77.035271,38.030098L77.035271,40.030098L80.535271,40.030098L80.535271,38.030098L83.035271,38.030098L83.035271,36.030098z"/>
    <path transform="matrix(0.999998,0,0,-0.999998,22.693399,-68.952301)" style="stroke:#000000;stroke-width:0.05mm;fill:none" d="M83.634712,19.047768L81.134712,19.047768L81.134712,21.047768L77.634712,21.047768L77.634712,19.047768L75.134712,19.047768L75.134712,17.047768L77.634712,17.047768L77.634712,15.047768L75.134712,15.047768L75.134712,13.047768L77.634712,13.047768L77.634712,11.047768L81.134712,11.047768L81.134712,13.047768L83.634712,13.047768L83.634712,15.047768L81.134712,15.047768L81.134712,17.047768L83.634712,17.047768L83.634712,19.047768z"/>
    <path transform="matrix(-0,0.999998,0.999998,0,31.573078,-122.427223)" style="stroke:#ff0000;stroke-width:0.05mm;fill:none" d="M10.15,61.626934L10.15,62.426933L8.35,62.426933L8.35,61.626934L10.15,61.626934z"/>
    <path transform="matrix(-0,0.999998,0.999998,0,31.573078,-122.427223)" style="stroke:#ff0000;stroke-width:0.05mm;fill:none" d="M1.5,37.401936L1.5,35.401936L4,35.401936L4,37.401936L1.5,37.401936z"/>
    <path transform="matrix(-0,0.999998,0.999998,0,31.573078,-122.427223)" style="stroke:#ff0000;stroke-width:0.05mm;fill:none" d="M6.1,29.401936L6.1,26.901936L8.2,26.901936L8.2,29.401936L6.1,29.401936z"/>
    <path transform="matrix(-0,0.999998,0.999998,0,31.573078,-122.427223)" style="stroke:#ff0000;stroke-width:0.05mm;fill:none" d="M10.15,22.226934L10.15,21.426935L8.35,21.426935L8.35,22.226934L10.15,22.226934z"/>
    <path transform="matrix(-0,0.999998,0.999998,0,31.573078,-122.427223)" style="stroke:#ff0000;stroke-width:0.05mm;fill:none" d="M14.5,39.401936L17,39.401936L17,41.401936L14.5,41.401936L14.5,39.401936z"/>
    <path transform="matrix(-0,0.999998,0.999998,0,31.573078,-122.427223)" style="stroke:#ff0000;stroke-width:0.05mm;fill:none" d="M10.3,29.401936L10.3,26.901936L12.4,26.901936L12.4,29.401936L10.3,29.401936z"/>
    <path transform="matrix(-0,0.999998,0.999998,0,31.573078,-122.427223)" style="stroke:#000000;stroke-width:0.05mm;fill:none" d="M0,56.426933C0,60.292927,3.134006,63.426933,7,63.426933L11.5,63.426933C15.365993,63.426933,18.5,60.292927,18.5,56.426933L18.5,20.426937C18.500002,16.560944,15.365995,13.426937,11.5,13.426935L7,13.426935C3.134008,13.426935,0,16.56094,0,20.426935L0,56.426933z"/>
    <path transform="matrix(-0,0.999998,0.999998,0,31.573078,-122.427223)" style="stroke:#ff0000;stroke-width:0.05mm;fill:none" d="M10.15,15.226935L8.35,15.226935L8.35,14.426935L10.15,14.426935L10.15,15.226935z"/>
    <circle transform="matrix(-0,0.999998,0.999998,0,57.000225,-113.177231)" style="stroke:#ff0000;stroke-width:0.05mm;fill:none" r="1.35" cx="0" cy="0"/>
    <path transform="matrix(-0,0.999998,0.999998,0,31.573078,-122.427223)" style="stroke:#ff0000;stroke-width:0.05mm;fill:none" d="M4,41.401936L1.5,41.401936L1.5,39.401936L4,39.401936L4,41.401936z"/>
    <path transform="matrix(-0,0.999998,0.999998,0,31.573078,-122.427223)" style="stroke:#ff0000;stroke-width:0.05mm;fill:none" d="M14.5,35.401936L17,35.401936L17,37.401936L14.5,37.401936L14.5,35.401936z"/>
    <circle transform="matrix(-0,0.999998,0.999998,0,83.000183,-113.177231)" style="stroke:#ff0000;stroke-width:0.05mm;fill:none" r="1.35" cx="0" cy="0"/>
    <path transform="matrix(-0,0.999998,0.999998,0,31.573078,-122.427223)" style="stroke:#ff0000;stroke-width:0.05mm;fill:none" d="M10.15,54.626934L10.15,55.426933L8.35,55.426933L8.35,54.626934L10.15,54.626934z"/>
    <path transform="matrix(-0,0.999998,0.999998,0,31.573078,-125.426216)" style="stroke:#ff0000;stroke-width:0.05mm;fill:none" d="M31.928051,56.026379L33.72805,56.026379L33.72805,55.226376L31.928051,55.226376L31.928051,56.026379z"/>
    <path transform="matrix(-0,0.999998,0.999998,0,31.573078,-125.426216)" style="stroke:#000000;stroke-width:0.05mm;fill:none" d="M23.578051,21.026377C23.578051,17.160381,26.712059,14.026377,30.578051,14.026377L35.078053,14.026377C38.94405,14.026379,42.078053,17.160385,42.078053,21.026379L42.078053,57.026379"/>
    <circle transform="matrix(-0,0.999998,0.999998,0,83.599174,-92.598267)" style="stroke:#ff0000;stroke-width:0.05mm;fill:none" r="1.35" cx="0" cy="0"/>
    <path transform="matrix(-0,0.999998,0.999998,0,31.573078,-125.426216)" style="stroke:#ff0000;stroke-width:0.05mm;fill:none" d="M31.928051,63.026379L33.72805,63.026379L33.72805,62.226376L31.928051,62.226376L31.928051,63.026379z"/>
    <path transform="matrix(-0,0.999998,0.999998,0,31.573078,-125.426216)" style="stroke:#000000;stroke-width:0.05mm;fill:none" d="M23.578051,57.026379L23.578051,21.026377"/>
    <path transform="matrix(-0,0.999998,0.999998,0,31.573078,-125.426216)" style="stroke:#000000;stroke-width:0.05mm;fill:none" d="M30.578051,64.026382C26.712057,64.026382,23.578051,60.892372,23.578051,57.026379"/>
    <path transform="matrix(-0,0.999998,0.999998,0,31.573078,-125.426216)" style="stroke:#ff0000;stroke-width:0.05mm;fill:none" d="M31.928051,15.026377L31.928051,15.826377L33.72805,15.826377L33.72805,15.026377L31.928051,15.026377z"/>
    <circle transform="matrix(-0,0.999998,0.999998,0,57.599228,-92.598274)" style="stroke:#ff0000;stroke-width:0.05mm;fill:none" r="1.35" cx="0" cy="0"/>
    <path transform="matrix(-0,0.999998,0.999998,0,31.573078,-125.426216)" style="stroke:#ff0000;stroke-width:0.05mm;fill:none" d="M31.928051,22.826378L33.72805,22.826378L33.72805,22.026377L31.928051,22.026377L31.928051,22.826378z"/>
    <path transform="matrix(-0,0.999998,0.999998,0,31.573078,-125.426216)" style="stroke:#000000;stroke-width:0.05mm;fill:none" d="M30.578051,64.026375L35.078053,64.026375C38.944046,64.026382,42.078053,60.892372,42.078053,57.026379"/>
    <path transform="matrix(0.999998,0,0,-0.999998,48.362499,-149.350006)" style="stroke:#000000;stroke-width:0.05mm;fill:none" d="M51.755543,16.65L49.255543,16.65L49.255543,18.65L64.755547,18.65L64.755547,16.65L62.255543,16.65L62.255543,14.65L64.755547,14.65L64.755547,12.65L62.255543,12.65L62.255543,10.65L64.755547,10.65L64.755547,8.65L49.255543,8.65L49.255543,10.65L51.755543,10.65L51.755543,12.65L49.255543,12.65L49.255543,14.65L51.755543,14.65L51.755543,16.65z"/>
    <path transform="matrix(-0,0.999998,0.999998,0,51.211498,-229.626007)" style="stroke:#000000;stroke-width:0.05mm;fill:none" d="M72.536201,53.86652L83.036201,53.86652L83.036201,47.86652L80.936203,47.86652L80.936203,45.36652L78.836197,45.36652L78.836197,47.86652L76.736198,47.86652L76.736198,45.36652L74.6362,45.36652L74.6362,47.86652L72.536201,47.86652L72.536201,53.86652z"/>
    <path transform="matrix(0.999998,0,0,-0.999998,23.292801,-105.970001)" style="stroke:#000000;stroke-width:0.05mm;fill:none" d="M83.035271,36.030098L80.535271,36.030098L80.535271,34.030098L83.035271,34.030098L83.035271,32.030098L80.535271,32.030098L80.535271,30.030098L77.035271,30.030098L77.035271,32.030098L74.535271,32.030098L74.535271,34.030098L77.035271,34.030098L77.035271,36.030098L74.535271,36.030098L74.535271,38.030098L77.035271,38.030098L77.035271,40.030098L80.535271,40.030098L80.535271,38.030098L83.035271,38.030098L83.035271,36.030098z"/>
    <path transform="matrix(0.999998,0,0,-0.999998,22.693399,-113.952003)" style="stroke:#000000;stroke-width:0.05mm;fill:none" d="M83.634712,19.047768L81.134712,19.047768L81.134712,21.047768L77.634712,21.047768L77.634712,19.047768L75.134712,19.047768L75.134712,17.047768L77.634712,17.047768L77.634712,15.047768L75.134712,15.047768L75.134712,13.047768L77.634712,13.047768L77.634712,11.047768L81.134712,11.047768L81.134712,13.047768L83.634712,13.047768L83.634712,15.047768L81.134712,15.047768L81.134712,17.047768L83.634712,17.047768L83.634712,19.047768z"/>
    <path transform="matrix(-0,0.999998,0.999998,0,31.573078,-167.4272)" style="stroke:#ff0000;stroke-width:0.05mm;fill:none" d="M10.15,61.626934L10.15,62.426933L8.35,62.426933L8.35,61.626934L10.15,61.626934z"/>
    <path transform="matrix(-0,0.999998,0.999998,0,31.573078,-167.4272)" style="stroke:#ff0000;stroke-width:0.05mm;fill:none" d="M1.5,37.401936L1.5,35.401936L4,35.401936L4,37.401936L1.5,37.401936z"/>
    <path transform="matrix(-0,0.999998,0.999998,0,31.573078,-167.4272)" style="stroke:#ff0000;stroke-width:0.05mm;fill:none" d="M6.1,29.401936L6.1,26.901936L8.2,26.901936L8.2,29.401936L6.1,29.401936z"/>
    <path transform="matrix(-0,0.999998,0.999998,0,31.573078,-167.4272)" style="stroke:#ff0000;stroke-width:0.05mm;fill:none" d="M10.15,22.226934L10.15,21.426935L8.35,21.426935L8.35,22.226934L10.15,22.226934z"/>
    <path transform="matrix(-0,0.999998,0.999998,0,31.573078,-167.4272)" style="stroke:#ff0000;stroke-width:0.05mm;fill:none" d="M14.5,39.401936L17,39.401936L17,41.401936L14.5,41.401936L14.5,39.401936z"/>
    <path transform="matrix(-0,0.999998,0.999998,0,31.573078,-167.4272)" style="stroke:#ff0000;stroke-width:0.05mm;fill:none" d="M10.3,29.401936L10.3,26.901936L12.4,26.901936L12.4,29.401936L10.3,29.401936z"/>
    <path transform="matrix(-0,0.999998,0.999998,0,31.573078,-167.4272)" style="stroke:#000000;stroke-width:0.05mm;fill:none" d="M0,56.426933C0,60.292927,3.134006,63.426933,7,63.426933L11.5,63.426933C15.365993,63.426933,18.5,60.292927,18.5,56.426933L18.5,20.426937C18.500002,16.560944,15.365995,13.426937,11.5,13.426935L7,13.426935C3.134008,13.426935,0,16.56094,0,20.426935L0,56.426933z"/>
    <path transform="matrix(-0,0.999998,0.999998,0,31.573078,-167.4272)" style="stroke:#ff0000;stroke-width:0.05mm;fill:none" d="M10.15,15.226935L8.35,15.226935L8.35,14.426935L10.15,14.426935L10.15,15.226935z"/>
    <circle transform="matrix(-0,0.999998,0.999998,0,57.000225,-158.177216)" style="stroke:#ff0000;stroke-width:0.05mm;fill:none" r="1.35" cx="0" cy="0"/>
    <path transform="matrix(-0,0.999998,0.999998,0,31.573078,-167.4272)" style="stroke:#ff0000;stroke-width:0.05mm;fill:none" d="M4,41.401936L1.5,41.401936L1.5,39.401936L4,39.401936L4,41.401936z"/>
    <path transform="matrix(-0,0.999998,0.999998,0,31.573078,-167.4272)" style="stroke:#ff0000;stroke-width:0.05mm;fill:none" d="M14.5,35.401936L17,35.401936L17,37.401936L14.5,37.401936L14.5,35.401936z"/>
    <circle transform="matrix(-0,0.999998,0.999998,0,83.000183,-158.177216)" style="stroke:#ff0000;stroke-width:0.05mm;fill:none" r="1.35" cx="0" cy="0"/>
    <path transform="matrix(-0,0.999998,0.999998,0,31.573078,-167.4272)" style="stroke:#ff0000;stroke-width:0.05mm;fill:none" d="M10.15,54.626934L10.15,55.426933L8.35,55.426933L8.35,54.626934L10.15,54.626934z"/>
    <path transform="matrix(-0,0.999998,0.999998,0,31.573078,-167.4272)" style="stroke:#ff0000;stroke-width:0.05mm;fill:none" d="M31.928051,56.026379L33.72805,56.026379L33.72805,55.226376L31.928051,55.226376L31.928051,56.026379z"/>
    <path transform="matrix(-0,0.999998,0.999998,0,31.573078,-167.4272)" style="stroke:#000000;stroke-width:0.05mm;fill:none" d="M23.578051,21.026377C23.578051,17.160381,26.712059,14.026377,30.578051,14.026377L35.078053,14.026377C38.94405,14.026379,42.078053,17.160385,42.078053,21.026379L42.078053,57.026379"/>
    <circle transform="matrix(-0,0.999998,0.999998,0,83.599174,-134.599258)" style="stroke:#ff0000;stroke-width:0.05mm;fill:none" r="1.35" cx="0" cy="0"/>
    <path transform="matrix(-0,0.999998,0.999998,0,31.573078,-167.4272)" style="stroke:#ff0000;stroke-width:0.05mm;fill:none" d="M31.928051,63.026379L33.72805,63.026379L33.72805,62.226376L31.928051,62.226376L31.928051,63.026379z"/>
    <path transform="matrix(-0,0.999998,0.999998,0,31.573078,-167.4272)" style="stroke:#000000;stroke-width:0.05mm;fill:none" d="M23.578051,57.026379L23.578051,21.026377"/>
    <path transform="matrix(-0,0.999998,0.999998,0,31.573078,-167.4272)" style="stroke:#000000;stroke-width:0.05mm;fill:none" d="M30.578051,64.026382C26.712057,64.026382,23.578051,60.892372,23.578051,57.026379"/>
    <path transform="matrix(-0,0.999998,0.999998,0,31.573078,-167.4272)" style="stroke:#ff0000;stroke-width:0.05mm;fill:none" d="M31.928051,15.026377L31.928051,15.826377L33.72805,15.826377L33.72805,15.026377L31.928051,15.026377z"/>
    <circle transform="matrix(-0,0.999998,0.999998,0,57.599228,-134.599258)" style="stroke:#ff0000;stroke-width:0.05mm;fill:none" r="1.35" cx="0" cy="0"/>
    <path transform="matrix(-0,0.999998,0.999998,0,31.573078,-167.4272)" style="stroke:#ff0000;stroke-width:0.05mm;fill:none" d="M31.928051,22.826378L33.72805,22.826378L33.72805,22.026377L31.928051,22.026377L31.928051,22.826378z"/>
    <path transform="matrix(-0,0.999998,0.999998,0,31.573078,-167.4272)" style="stroke:#000000;stroke-width:0.05mm;fill:none" d="M30.578051,64.026375L35.078053,64.026375C38.944046,64.026382,42.078053,60.892372,42.078053,57.026379"/>
    <path transform="matrix(0.999998,0,0,-0.999998,48.362499,-194.350006)" style="stroke:#000000;stroke-width:0.05mm;fill:none" d="M51.755543,16.65L49.255543,16.65L49.255543,18.65L64.755547,18.65L64.755547,16.65L62.255543,16.65L62.255543,14.65L64.755547,14.65L64.755547,12.65L62.255543,12.65L62.255543,10.65L64.755547,10.65L64.755547,8.65L49.255543,8.65L49.255543,10.65L51.755543,10.65L51.755543,12.65L49.255543,12.65L49.255543,14.65L51.755543,14.65L51.755543,16.65z"/>
    <path transform="matrix(-0,0.999998,0.999998,0,51.211498,-274.626007)" style="stroke:#000000;stroke-width:0.05mm;fill:none" d="M72.536201,53.86652L83.036201,53.86652L83.036201,47.86652L80.936203,47.86652L80.936203,45.36652L78.836197,45.36652L78.836197,47.86652L76.736198,47.86652L76.736198,45.36652L74.6362,45.36652L74.6362,47.86652L72.536201,47.86652L72.536201,53.86652z"/>
    <path transform="matrix(0.999998,0,0,-0.999998,23.292801,-150.970001)" style="stroke:#000000;stroke-width:0.05mm;fill:none" d="M83.035271,36.030098L80.535271,36.030098L80.535271,34.030098L83.035271,34.030098L83.035271,32.030098L80.535271,32.030098L80.535271,30.030098L77.035271,30.030098L77.035271,32.030098L74.535271,32.030098L74.535271,34.030098L77.035271,34.030098L77.035271,36.030098L74.535271,36.030098L74.535271,38.030098L77.035271,38.030098L77.035271,40.030098L80.535271,40.030098L80.535271,38.030098L83.035271,38.030098L83.035271,36.030098z"/>
    <path transform="matrix(0.999998,0,0,-0.999998,22.693399,-158.951996)" style="stroke:#000000;stroke-width:0.05mm;fill:none" d="M83.634712,19.047768L81.134712,19.047768L81.134712,21.047768L77.634712,21.047768L77.634712,19.047768L75.134712,19.047768L75.134712,17.047768L77.634712,17.047768L77.634712,15.047768L75.134712,15.047768L75.134712,13.047768L77.634712,13.047768L77.634712,11.047768L81.134712,11.047768L81.134712,13.047768L83.634712,13.047768L83.634712,15.047768L81.134712,15.047768L81.134712,17.047768L83.634712,17.047768L83.634712,19.047768z"/>
    <path transform="matrix(-0,0.999998,0.999998,0,31.573078,-212.4272)" style="stroke:#ff0000;stroke-width:0.05mm;fill:none" d="M10.15,61.626934L10.15,62.426933L8.35,62.426933L8.35,61.626934L10.15,61.626934z"/>
    <path transform="matrix(-0,0.999998,0.999998,0,31.573078,-212.4272)" style="stroke:#ff0000;stroke-width:0.05mm;fill:none" d="M1.5,37.401936L1.5,35.401936L4,35.401936L4,37.401936L1.5,37.401936z"/>
    <path transform="matrix(-0,0.999998,0.999998,0,31.573078,-212.4272)" style="stroke:#ff0000;stroke-width:0.05mm;fill:none" d="M6.1,29.401936L6.1,26.901936L8.2,26.901936L8.2,29.401936L6.1,29.401936z"/>
    <path transform="matrix(-0,0.999998,0.999998,0,31.573078,-212.4272)" style="stroke:#ff0000;stroke-width:0.05mm;fill:none" d="M10.15,22.226934L10.15,21.426935L8.35,21.426935L8.35,22.226934L10.15,22.226934z"/>
    <path transform="matrix(-0,0.999998,0.999998,0,31.573078,-212.4272)" style="stroke:#ff0000;stroke-width:0.05mm;fill:none" d="M14.5,39.401936L17,39.401936L17,41.401936L14.5,41.401936L14.5,39.401936z"/>
    <path transform="matrix(-0,0.999998,0.999998,0,31.573078,-212.4272)" style="stroke:#ff0000;stroke-width:0.05mm;fill:none" d="M10.3,29.401936L10.3,26.901936L12.4,26.901936L12.4,29.401936L10.3,29.401936z"/>
    <path transform="matrix(-0,0.999998,0.999998,0,31.573078,-212.4272)" style="stroke:#000000;stroke-width:0.05mm;fill:none" d="M0,56.426933C0,60.292927,3.134006,63.426933,7,63.426933L11.5,63.426933C15.365993,63.426933,18.5,60.292927,18.5,56.426933L18.5,20.426937C18.500002,16.560944,15.365995,13.426937,11.5,13.426935L7,13.426935C3.134008,13.426935,0,16.56094,0,20.426935L0,56.426933z"/>
    <path transform="matrix(-0,0.999998,0.999998,0,31.573078,-212.4272)" style="stroke:#ff0000;stroke-width:0.05mm;fill:none" d="M10.15,15.226935L8.35,15.226935L8.35,14.426935L10.15,14.426935L10.15,15.226935z"/>
    <circle transform="matrix(-0,0.999998,0.999998,0,57.000225,-203.177216)" style="stroke:#ff0000;stroke-width:0.05mm;fill:none" r="1.35" cx="0" cy="0"/>
    <path transform="matrix(-0,0.999998,0.999998,0,31.573078,-212.4272)" style="stroke:#ff0000;stroke-width:0.05mm;fill:none" d="M4,41.401936L1.5,41.401936L1.5,39.401936L4,39.401936L4,41.401936z"/>
    <path transform="matrix(-0,0.999998,0.999998,0,31.573078,-212.4272)" style="stroke:#ff0000;stroke-width:0.05mm;fill:none" d="M14.5,35.401936L17,35.401936L17,37.401936L14.5,37.401936L14.5,35.401936z"/>
    <circle transform="matrix(-0,0.999998,0.999998,0,83.000183,-203.177216)" style="stroke:#ff0000;stroke-width:0.05mm;fill:none" r="1.35" cx="0" cy="0"/>
    <path transform="matrix(-0,0.999998,0.999998,0,31.573078,-212.4272)" style="stroke:#ff0000;stroke-width:0.05mm;fill:none" d="M10.15,54.626934L10.15,55.426933L8.35,55.426933L8.35,54.626934L10.15,54.626934z"/>
    <path transform="matrix(-0,0.999998,0.999998,0,31.573078,-212.4272)" style="stroke:#ff0000;stroke-width:0.05mm;fill:none" d="M31.928051,56.026379L33.72805,56.026379L33.72805,55.226376L31.928051,55.226376L31.928051,56.026379z"/>
    <path transform="matrix(-0,0.999998,0.999998,0,31.573078,-212.4272)" style="stroke:#000000;stroke-width:0.05mm;fill:none" d="M23.578051,21.026377C23.578051,17.160381,26.712059,14.026377,30.578051,14.026377L35.078053,14.026377C38.94405,14.026379,42.078053,17.160385,42.078053,21.026379L42.078053,57.026379"/>
    <circle transform="matrix(-0,0.999998,0.999998,0,83.599174,-179.599258)" style="stroke:#ff0000;stroke-width:0.05mm;fill:none" r="1.35" cx="0" cy="0"/>
    <path transform="matrix(-0,0.999998,0.999998,0,31.573078,-212.4272)" style="stroke:#ff0000;stroke-width:0.05mm;fill:none" d="M31.928051,63.026379L33.72805,63.026379L33.72805,62.226376L31.928051,62.226376L31.928051,63.026379z"/>
    <path transform="matrix(-0,0.999998,0.999998,0,31.573078,-212.4272)" style="stroke:#000000;stroke-width:0.05mm;fill:none" d="M23.578051,57.026379L23.578051,21.026377"/>
    <path transform="matrix(-0,0.999998,0.999998,0,31.573078,-212.4272)" style="stroke:#000000;stroke-width:0.05mm;fill:none" d="M30.578051,64.026382C26.712057,64.026382,23.578051,60.892372,23.578051,57.026379"/>
    <path transform="matrix(-0,0.999998,0.999998,0,31.573078,-212.4272)" style="stroke:#ff0000;stroke-width:0.05mm;fill:none" d="M31.928051,15.026377L31.928051,15.826377L33.72805,15.826377L33.72805,15.026377L31.928051,15.026377z"/>
    <circle transform="matrix(-0,0.999998,0.999998,0,57.599228,-179.599258)" style="stroke:#ff0000;stroke-width:0.05mm;fill:none" r="1.35" cx="0" cy="0"/>
    <path transform="matrix(-0,0.999998,0.999998,0,31.573078,-212.4272)" style="stroke:#ff0000;stroke-width:0.05mm;fill:none" d="M31.928051,22.826378L33.72805,22.826378L33.72805,22.026377L31.928051,22.026377L31.928051,22.826378z"/>
    <path transform="matrix(-0,0.999998,0.999998,0,31.573078,-212.4272)" style="stroke:#000000;stroke-width:0.05mm;fill:none" d="M30.578051,64.026375L35.078053,64.026375C38.944046,64.026382,42.078053,60.892372,42.078053,57.026379"/>
    <path transform="matrix(-0.999998,-0,-0,0.999998,174.755005,-188.649994)" style="stroke:#000000;stroke-width:0.05mm;fill:none" d="M51.755543,16.65L49.255543,16.65L49.255543,18.65L64.755547,18.65L64.755547,16.65L62.255543,16.65L62.255543,14.65L64.755547,14.65L64.755547,12.65L62.255543,12.65L62.255543,10.65L64.755547,10.65L64.755547,8.65L49.255543,8.65L49.255543,10.65L51.755543,10.65L51.755543,12.65L49.255543,12.65L49.255543,14.65L51.755543,14.65L51.755543,16.65z"/>
    <path transform="matrix(0,-0.999998,-0.999998,-0,171.906006,-108.374001)" style="stroke:#000000;stroke-width:0.05mm;fill:none" d="M72.536201,53.86652L83.036201,53.86652L83.036201,47.86652L80.936203,47.86652L80.936203,45.36652L78.836197,45.36652L78.836197,47.86652L76.736198,47.86652L76.736198,45.36652L74.6362,45.36652L74.6362,47.86652L72.536201,47.86652L72.536201,53.86652z"/>
    <path transform="matrix(-0.999998,-0,-0,0.999998,199.824997,-232.029999)" style="stroke:#000000;stroke-width:0.05mm;fill:none" d="M83.035271,36.030098L80.535271,36.030098L80.535271,34.030098L83.035271,34.030098L83.035271,32.030098L80.535271,32.030098L80.535271,30.030098L77.035271,30.030098L77.035271,32.030098L74.535271,32.030098L74.535271,34.030098L77.035271,34.030098L77.035271,36.030098L74.535271,36.030098L74.535271,38.030098L77.035271,38.030098L77.035271,40.030098L80.535271,40.030098L80.535271,38.030098L83.035271,38.030098L83.035271,36.030098z"/>
    <path transform="matrix(-0.999998,-0,-0,0.999998,200.425003,-224.048004)" style="stroke:#000000;stroke-width:0.05mm;fill:none" d="M83.634712,19.047768L81.134712,19.047768L81.134712,21.047768L77.634712,21.047768L77.634712,19.047768L75.134712,19.047768L75.134712,17.047768L77.634712,17.047768L77.634712,15.047768L75.134712,15.047768L75.134712,13.047768L77.634712,13.047768L77.634712,11.047768L81.134712,11.047768L81.134712,13.047768L83.634712,13.047768L83.634712,15.047768L81.134712,15.047768L81.134712,17.047768L83.634712,17.047768L83.634712,19.047768z"/>
    <path transform="matrix(0,-0.999998,-0.999998,-0,191.545456,-170.572815)" style="stroke:#ff0000;stroke-width:0.05mm;fill:none" d="M10.15,61.626934L10.15,62.426933L8.35,62.426933L8.35,61.626934L10.15,61.626934z"/>
    <path transform="matrix(0,-0.999998,-0.999998,-0,191.545456,-170.572815)" style="stroke:#ff0000;stroke-width:0.05mm;fill:none" d="M1.5,37.401936L1.5,35.401936L4,35.401936L4,37.401936L1.5,37.401936z"/>
    <path transform="matrix(0,-0.999998,-0.999998,-0,191.545456,-170.572815)" style="stroke:#ff0000;stroke-width:0.05mm;fill:none" d="M6.1,29.401936L6.1,26.901936L8.2,26.901936L8.2,29.401936L6.1,29.401936z"/>
    <path transform="matrix(0,-0.999998,-0.999998,-0,191.545456,-170.572815)" style="stroke:#ff0000;stroke-width:0.05mm;fill:none" d="M10.15,22.226934L10.15,21.426935L8.35,21.426935L8.35,22.226934L10.15,22.226934z"/>
    <path transform="matrix(0,-0.999998,-0.999998,-0,191.545456,-170.572815)" style="stroke:#ff0000;stroke-width:0.05mm;fill:none" d="M14.5,39.401936L17,39.401936L17,41.401936L14.5,41.401936L14.5,39.401936z"/>
    <path transform="matrix(0,-0.999998,-0.999998,-0,191.545456,-170.572815)" style="stroke:#ff0000;stroke-width:0.05mm;fill:none" d="M10.3,29.401936L10.3,26.901936L12.4,26.901936L12.4,29.401936L10.3,29.401936z"/>
    <path transform="matrix(0,-0.999998,-0.999998,-0,191.545456,-170.572815)" style="stroke:#000000;stroke-width:0.05mm;fill:none" d="M0,56.426933C0,60.292927,3.134006,63.426933,7,63.426933L11.5,63.426933C15.365993,63.426933,18.5,60.292927,18.5,56.426933L18.5,20.426937C18.500002,16.560944,15.365995,13.426937,11.5,13.426935L7,13.426935C3.134008,13.426935,0,16.56094,0,20.426935L0,56.426933z"/>
    <path transform="matrix(0,-0.999998,-0.999998,-0,191.545456,-170.572815)" style="stroke:#ff0000;stroke-width:0.05mm;fill:none" d="M10.15,15.226935L8.35,15.226935L8.35,14.426935L10.15,14.426935L10.15,15.226935z"/>
    <circle transform="matrix(0,-0.999998,-0.999998,-0,166.118317,-179.8228)" style="stroke:#ff0000;stroke-width:0.05mm;fill:none" r="1.35" cx="0" cy="0"/>
    <path transform="matrix(0,-0.999998,-0.999998,-0,191.545456,-170.572815)" style="stroke:#ff0000;stroke-width:0.05mm;fill:none" d="M4,41.401936L1.5,41.401936L1.5,39.401936L4,39.401936L4,41.401936z"/>
    <path transform="matrix(0,-0.999998,-0.999998,-0,191.545456,-170.572815)" style="stroke:#ff0000;stroke-width:0.05mm;fill:none" d="M14.5,35.401936L17,35.401936L17,37.401936L14.5,37.401936L14.5,35.401936z"/>
    <circle transform="matrix(0,-0.999998,-0.999998,-0,140.118362,-179.822815)" style="stroke:#ff0000;stroke-width:0.05mm;fill:none" r="1.35" cx="0" cy="0"/>
    <path transform="matrix(0,-0.999998,-0.999998,-0,191.545456,-170.572815)" style="stroke:#ff0000;stroke-width:0.05mm;fill:none" d="M10.15,54.626934L10.15,55.426933L8.35,55.426933L8.35,54.626934L10.15,54.626934z"/>
    <path transform="matrix(0,-0.999998,-0.999998,-0,191.545456,-170.572815)" style="stroke:#ff0000;stroke-width:0.05mm;fill:none" d="M31.928051,56.026379L33.72805,56.026379L33.72805,55.226376L31.928051,55.226376L31.928051,56.026379z"/>
    <path transform="matrix(0,-0.999998,-0.999998,-0,191.545456,-170.572815)" style="stroke:#000000;stroke-width:0.05mm;fill:none" d="M23.578051,21.026377C23.578051,17.160381,26.712059,14.026377,30.578051,14.026377L35.078053,14.026377C38.94405,14.026379,42.078053,17.160385,42.078053,21.026379L42.078053,57.026379"/>
    <circle transform="matrix(0,-0.999998,-0.999998,-0,139.519379,-203.400772)" style="stroke:#ff0000;stroke-width:0.05mm;fill:none" r="1.35" cx="0" cy="0"/>
    <path transform="matrix(0,-0.999998,-0.999998,-0,191.545456,-170.572815)" style="stroke:#ff0000;stroke-width:0.05mm;fill:none" d="M31.928051,63.026379L33.72805,63.026379L33.72805,62.226376L31.928051,62.226376L31.928051,63.026379z"/>
    <path transform="matrix(0,-0.999998,-0.999998,-0,191.545456,-170.572815)" style="stroke:#000000;stroke-width:0.05mm;fill:none" d="M23.578051,57.026379L23.578051,21.026377"/>
    <path transform="matrix(0,-0.999998,-0.999998,-0,191.545456,-170.572815)" style="stroke:#000000;stroke-width:0.05mm;fill:none" d="M30.578051,64.026382C26.712057,64.026382,23.578051,60.892372,23.578051,57.026379"/>
    <path transform="matrix(0,-0.999998,-0.999998,-0,191.545456,-170.572815)" style="stroke:#ff0000;stroke-width:0.05mm;fill:none" d="M31.928051,15.026377L31.928051,15.826377L33.72805,15.826377L33.72805,15.026377L31.928051,15.026377z"/>
    <circle transform="matrix(0,-0.999998,-0.999998,-0,165.519318,-203.400757)" style="stroke:#ff0000;stroke-width:0.05mm;fill:none" r="1.35" cx="0" cy="0"/>
    <path transform="matrix(0,-0.999998,-0.999998,-0,191.545456,-170.572815)" style="stroke:#ff0000;stroke-width:0.05mm;fill:none" d="M31.928051,22.826378L33.72805,22.826378L33.72805,22.026377L31.928051,22.026377L31.928051,22.826378z"/>
    <path transform="matrix(0,-0.999998,-0.999998,-0,191.545456,-170.572815)" style="stroke:#000000;stroke-width:0.05mm;fill:none" d="M30.578051,64.026375L35.078053,64.026375C38.944046,64.026382,42.078053,60.892372,42.078053,57.026379"/>
    <path transform="matrix(-0.999998,-0,-0,0.999998,174.755005,-143.649994)" style="stroke:#000000;stroke-width:0.05mm;fill:none" d="M51.755543,16.65L49.255543,16.65L49.255543,18.65L64.755547,18.65L64.755547,16.65L62.255543,16.65L62.255543,14.65L64.755547,14.65L64.755547,12.65L62.255543,12.65L62.255543,10.65L64.755547,10.65L64.755547,8.65L49.255543,8.65L49.255543,10.65L51.755543,10.65L51.755543,12.65L49.255543,12.65L49.255543,14.65L51.755543,14.65L51.755543,16.65z"/>
    <path transform="matrix(0,-0.999998,-0.999998,-0,171.906006,-63.374001)" style="stroke:#000000;stroke-width:0.05mm;fill:none" d="M72.536201,53.86652L83.036201,53.86652L83.036201,47.86652L80.936203,47.86652L80.936203,45.36652L78.836197,45.36652L78.836197,47.86652L76.736198,47.86652L76.736198,45.36652L74.6362,45.36652L74.6362,47.86652L72.536201,47.86652L72.536201,53.86652z"/>
    <path transform="matrix(-0.999998,-0,-0,0.999998,199.824997,-187.029999)" style="stroke:#000000;stroke-width:0.05mm;fill:none" d="M83.035271,36.030098L80.535271,36.030098L80.535271,34.030098L83.035271,34.030098L83.035271,32.030098L80.535271,32.030098L80.535271,30.030098L77.035271,30.030098L77.035271,32.030098L74.535271,32.030098L74.535271,34.030098L77.035271,34.030098L77.035271,36.030098L74.535271,36.030098L74.535271,38.030098L77.035271,38.030098L77.035271,40.030098L80.535271,40.030098L80.535271,38.030098L83.035271,38.030098L83.035271,36.030098z"/>
    <path transform="matrix(-0.999998,-0,-0,0.999998,200.425003,-179.048004)" style="stroke:#000000;stroke-width:0.05mm;fill:none" d="M83.634712,19.047768L81.134712,19.047768L81.134712,21.047768L77.634712,21.047768L77.634712,19.047768L75.134712,19.047768L75.134712,17.047768L77.634712,17.047768L77.634712,15.047768L75.134712,15.047768L75.134712,13.047768L77.634712,13.047768L77.634712,11.047768L81.134712,11.047768L81.134712,13.047768L83.634712,13.047768L83.634712,15.047768L81.134712,15.047768L81.134712,17.047768L83.634712,17.047768L83.634712,19.047768z"/>
    <path transform="matrix(0,-0.999998,-0.999998,-0,191.545456,-125.572815)" style="stroke:#ff0000;stroke-width:0.05mm;fill:none" d="M10.15,61.626934L10.15,62.426933L8.35,62.426933L8.35,61.626934L10.15,61.626934z"/>
    <path transform="matrix(0,-0.999998,-0.999998,-0,191.545456,-125.572815)" style="stroke:#ff0000;stroke-width:0.05mm;fill:none" d="M1.5,37.401936L1.5,35.401936L4,35.401936L4,37.401936L1.5,37.401936z"/>
    <path transform="matrix(0,-0.999998,-0.999998,-0,191.545456,-125.572815)" style="stroke:#ff0000;stroke-width:0.05mm;fill:none" d="M6.1,29.401936L6.1,26.901936L8.2,26.901936L8.2,29.401936L6.1,29.401936z"/>
    <path transform="matrix(0,-0.999998,-0.999998,-0,191.545456,-125.572815)" style="stroke:#ff0000;stroke-width:0.05mm;fill:none" d="M10.15,22.226934L10.15,21.426935L8.35,21.426935L8.35,22.226934L10.15,22.226934z"/>
    <path transform="matrix(0,-0.999998,-0.999998,-0,191.545456,-125.572815)" style="stroke:#ff0000;stroke-width:0.05mm;fill:none" d="M14.5,39.401936L17,39.401936L17,41.401936L14.5,41.401936L14.5,39.401936z"/>
    <path transform="matrix(0,-0.999998,-0.999998,-0,191.545456,-125.572815)" style="stroke:#ff0000;stroke-width:0.05mm;fill:none" d="M10.3,29.401936L10.3,26.901936L12.4,26.901936L12.4,29.401936L10.3,29.401936z"/>
    <path transform="matrix(0,-0.999998,-0.999998,-0,191.545456,-125.572815)" style="stroke:#000000;stroke-width:0.05mm;fill:none" d="M0,56.426933C0,60.292927,3.134006,63.426933,7,63.426933L11.5,63.426933C15.365993,63.426933,18.5,60.292927,18.5,56.426933L18.5,20.426937C18.500002,16.560944,15.365995,13.426937,11.5,13.426935L7,13.426935C3.134008,13.426935,0,16.56094,0,20.426935L0,56.426933z"/>
    <path transform="matrix(0,-0.999998,-0.999998,-0,191.545456,-125.572815)" style="stroke:#ff0000;stroke-width:0.05mm;fill:none" d="M10.15,15.226935L8.35,15.226935L8.35,14.426935L10.15,14.426935L10.15,15.226935z"/>
    <circle transform="matrix(0,-0.999998,-0.999998,-0,166.118317,-134.8228)" style="stroke:#ff0000;stroke-width:0.05mm;fill:none" r="1.35" cx="0" cy="0"/>
    <path transform="matrix(0,-0.999998,-0.999998,-0,191.545456,-125.572815)" style="stroke:#ff0000;stroke-width:0.05mm;fill:none" d="M4,41.401936L1.5,41.401936L1.5,39.401936L4,39.401936L4,41.401936z"/>
    <path transform="matrix(0,-0.999998,-0.999998,-0,191.545456,-125.572815)" style="stroke:#ff0000;stroke-width:0.05mm;fill:none" d="M14.5,35.401936L17,35.401936L17,37.401936L14.5,37.401936L14.5,35.401936z"/>
    <circle transform="matrix(0,-0.999998,-0.999998,-0,140.118362,-134.822815)" style="stroke:#ff0000;stroke-width:0.05mm;fill:none" r="1.35" cx="0" cy="0"/>
    <path transform="matrix(0,-0.999998,-0.999998,-0,191.545456,-125.572815)" style="stroke:#ff0000;stroke-width:0.05mm;fill:none" d="M10.15,54.626934L10.15,55.426933L8.35,55.426933L8.35,54.626934L10.15,54.626934z"/>
    <path transform="matrix(0,-0.999998,-0.999998,-0,191.545456,-125.572815)" style="stroke:#ff0000;stroke-width:0.05mm;fill:none" d="M31.928051,56.026379L33.72805,56.026379L33.72805,55.226376L31.928051,55.226376L31.928051,56.026379z"/>
    <path transform="matrix(0,-0.999998,-0.999998,-0,191.545456,-125.572815)" style="stroke:#000000;stroke-width:0.05mm;fill:none" d="M23.578051,21.026377C23.578051,17.160381,26.712059,14.026377,30.578051,14.026377L35.078053,14.026377C38.94405,14.026379,42.078053,17.160385,42.078053,21.026379L42.078053,57.026379"/>
    <circle transform="matrix(0,-0.999998,-0.999998,-0,139.519379,-158.400772)" style="stroke:#ff0000;stroke-width:0.05mm;fill:none" r="1.35" cx="0" cy="0"/>
    <path transform="matrix(0,-0.999998,-0.999998,-0,191.545456,-125.572815)" style="stroke:#ff0000;stroke-width:0.05mm;fill:none" d="M31.928051,63.026379L33.72805,63.026379L33.72805,62.226376L31.928051,62.226376L31.928051,63.026379z"/>
    <path transform="matrix(0,-0.999998,-0.999998,-0,191.545456,-125.572815)" style="stroke:#000000;stroke-width:0.05mm;fill:none" d="M23.578051,57.026379L23.578051,21.026377"/>
    <path transform="matrix(0,-0.999998,-0.999998,-0,191.545456,-125.572815)" style="stroke:#000000;stroke-width:0.05mm;fill:none" d="M30.578051,64.026382C26.712057,64.026382,23.578051,60.892372,23.578051,57.026379"/>
    <path transform="matrix(0,-0.999998,-0.999998,-0,191.545456,-125.572815)" style="stroke:#ff0000;stroke-width:0.05mm;fill:none" d="M31.928051,15.026377L31.928051,15.826377L33.72805,15.826377L33.72805,15.026377L31.928051,15.026377z"/>
    <circle transform="matrix(0,-0.999998,-0.999998,-0,165.519318,-158.400757)" style="stroke:#ff0000;stroke-width:0.05mm;fill:none" r="1.35" cx="0" cy="0"/>
    <path transform="matrix(0,-0.999998,-0.999998,-0,191.545456,-125.572815)" style="stroke:#ff0000;stroke-width:0.05mm;fill:none" d="M31.928051,22.826378L33.72805,22.826378L33.72805,22.026377L31.928051,22.026377L31.928051,22.826378z"/>
    <path transform="matrix(0,-0.999998,-0.999998,-0,191.545456,-125.572815)" style="stroke:#000000;stroke-width:0.05mm;fill:none" d="M30.578051,64.026375L35.078053,64.026375C38.944046,64.026382,42.078053,60.892372,42.078053,57.026379"/>
    <path transform="matrix(-0.999998,-0,-0,0.999998,174.755005,-98.650002)" style="stroke:#000000;stroke-width:0.05mm;fill:none" d="M51.755543,16.65L49.255543,16.65L49.255543,18.65L64.755547,18.65L64.755547,16.65L62.255543,16.65L62.255543,14.65L64.755547,14.65L64.755547,12.65L62.255543,12.65L62.255543,10.65L64.755547,10.65L64.755547,8.65L49.255543,8.65L49.255543,10.65L51.755543,10.65L51.755543,12.65L49.255543,12.65L49.255543,14.65L51.755543,14.65L51.755543,16.65z"/>
    <path transform="matrix(0,-0.999998,-0.999998,-0,171.906006,-18.374001)" style="stroke:#000000;stroke-width:0.05mm;fill:none" d="M72.536201,53.86652L83.036201,53.86652L83.036201,47.86652L80.936203,47.86652L80.936203,45.36652L78.836197,45.36652L78.836197,47.86652L76.736198,47.86652L76.736198,45.36652L74.6362,45.36652L74.6362,47.86652L72.536201,47.86652L72.536201,53.86652z"/>
    <path transform="matrix(-0.999998,-0,-0,0.999998,199.824997,-142.029999)" style="stroke:#000000;stroke-width:0.05mm;fill:none" d="M83.035271,36.030098L80.535271,36.030098L80.535271,34.030098L83.035271,34.030098L83.035271,32.030098L80.535271,32.030098L80.535271,30.030098L77.035271,30.030098L77.035271,32.030098L74.535271,32.030098L74.535271,34.030098L77.035271,34.030098L77.035271,36.030098L74.535271,36.030098L74.535271,38.030098L77.035271,38.030098L77.035271,40.030098L80.535271,40.030098L80.535271,38.030098L83.035271,38.030098L83.035271,36.030098z"/>
    <path transform="matrix(-0.999998,-0,-0,0.999998,200.425003,-134.048004)" style="stroke:#000000;stroke-width:0.05mm;fill:none" d="M83.634712,19.047768L81.134712,19.047768L81.134712,21.047768L77.634712,21.047768L77.634712,19.047768L75.134712,19.047768L75.134712,17.047768L77.634712,17.047768L77.634712,15.047768L75.134712,15.047768L75.134712,13.047768L77.634712,13.047768L77.634712,11.047768L81.134712,11.047768L81.134712,13.047768L83.634712,13.047768L83.634712,15.047768L81.134712,15.047768L81.134712,17.047768L83.634712,17.047768L83.634712,19.047768z"/>
    <path transform="matrix(0,-0.999998,-0.999998,-0,191.544449,-80.572815)" style="stroke:#ff0000;stroke-width:0.05mm;fill:none" d="M10.15,61.626934L10.15,62.426933L8.35,62.426933L8.35,61.626934L10.15,61.626934z"/>
    <path transform="matrix(0,-0.999998,-0.999998,-0,191.544449,-80.572815)" style="stroke:#ff0000;stroke-width:0.05mm;fill:none" d="M1.5,37.401936L1.5,35.401936L4,35.401936L4,37.401936L1.5,37.401936z"/>
    <path transform="matrix(0,-0.999998,-0.999998,-0,191.544449,-80.572815)" style="stroke:#ff0000;stroke-width:0.05mm;fill:none" d="M6.1,29.401936L6.1,26.901936L8.2,26.901936L8.2,29.401936L6.1,29.401936z"/>
    <path transform="matrix(0,-0.999998,-0.999998,-0,191.544449,-80.572815)" style="stroke:#ff0000;stroke-width:0.05mm;fill:none" d="M10.15,22.226934L10.15,21.426935L8.35,21.426935L8.35,22.226934L10.15,22.226934z"/>
    <path transform="matrix(0,-0.999998,-0.999998,-0,191.544449,-80.572815)" style="stroke:#ff0000;stroke-width:0.05mm;fill:none" d="M14.5,39.401936L17,39.401936L17,41.401936L14.5,41.401936L14.5,39.401936z"/>
    <path transform="matrix(0,-0.999998,-0.999998,-0,191.544449,-80.572815)" style="stroke:#ff0000;stroke-width:0.05mm;fill:none" d="M10.3,29.401936L10.3,26.901936L12.4,26.901936L12.4,29.401936L10.3,29.401936z"/>
    <path transform="matrix(0,-0.999998,-0.999998,-0,191.544449,-80.572815)" style="stroke:#000000;stroke-width:0.05mm;fill:none" d="M0,56.426933C0,60.292927,3.134006,63.426933,7,63.426933L11.5,63.426933C15.365993,63.426933,18.5,60.292927,18.5,56.426933L18.5,20.426937C18.500002,16.560944,15.365995,13.426937,11.5,13.426935L7,13.426935C3.134008,13.426935,0,16.56094,0,20.426935L0,56.426933z"/>
    <path transform="matrix(0,-0.999998,-0.999998,-0,191.544449,-80.572815)" style="stroke:#ff0000;stroke-width:0.05mm;fill:none" d="M10.15,15.226935L8.35,15.226935L8.35,14.426935L10.15,14.426935L10.15,15.226935z"/>
    <circle transform="matrix(0,-0.999998,-0.999998,-0,166.11731,-89.822807)" style="stroke:#ff0000;stroke-width:0.05mm;fill:none" r="1.35" cx="0" cy="0"/>
    <path transform="matrix(0,-0.999998,-0.999998,-0,191.544449,-80.572815)" style="stroke:#ff0000;stroke-width:0.05mm;fill:none" d="M4,41.401936L1.5,41.401936L1.5,39.401936L4,39.401936L4,41.401936z"/>
    <path transform="matrix(0,-0.999998,-0.999998,-0,191.544449,-80.572815)" style="stroke:#ff0000;stroke-width:0.05mm;fill:none" d="M14.5,35.401936L17,35.401936L17,37.401936L14.5,37.401936L14.5,35.401936z"/>
    <circle transform="matrix(0,-0.999998,-0.999998,-0,140.117355,-89.822815)" style="stroke:#ff0000;stroke-width:0.05mm;fill:none" r="1.35" cx="0" cy="0"/>
    <path transform="matrix(0,-0.999998,-0.999998,-0,191.544449,-80.572815)" style="stroke:#ff0000;stroke-width:0.05mm;fill:none" d="M10.15,54.626934L10.15,55.426933L8.35,55.426933L8.35,54.626934L10.15,54.626934z"/>
    <path transform="matrix(0,-0.999998,-0.999998,-0,191.544449,-80.572815)" style="stroke:#ff0000;stroke-width:0.05mm;fill:none" d="M31.928051,56.026379L33.72805,56.026379L33.72805,55.226376L31.928051,55.226376L31.928051,56.026379z"/>
    <path transform="matrix(0,-0.999998,-0.999998,-0,191.544449,-80.572815)" style="stroke:#000000;stroke-width:0.05mm;fill:none" d="M23.578051,21.026377C23.578051,17.160381,26.712059,14.026377,30.578051,14.026377L35.078053,14.026377C38.94405,14.026379,42.078053,17.160385,42.078053,21.026379L42.078053,57.026379"/>
    <circle transform="matrix(0,-0.999998,-0.999998,-0,139.518372,-113.400772)" style="stroke:#ff0000;stroke-width:0.05mm;fill:none" r="1.35" cx="0" cy="0"/>
    <path transform="matrix(0,-0.999998,-0.999998,-0,191.544449,-80.572815)" style="stroke:#ff0000;stroke-width:0.05mm;fill:none" d="M31.928051,63.026379L33.72805,63.026379L33.72805,62.226376L31.928051,62.226376L31.928051,63.026379z"/>
    <path transform="matrix(0,-0.999998,-0.999998,-0,191.544449,-80.572815)" style="stroke:#000000;stroke-width:0.05mm;fill:none" d="M23.578051,57.026379L23.578051,21.026377"/>
    <path transform="matrix(0,-0.999998,-0.999998,-0,191.544449,-80.572815)" style="stroke:#000000;stroke-width:0.05mm;fill:none" d="M30.578051,64.026382C26.712057,64.026382,23.578051,60.892372,23.578051,57.026379"/>
    <path transform="matrix(0,-0.999998,-0.999998,-0,191.544449,-80.572815)" style="stroke:#ff0000;stroke-width:0.05mm;fill:none" d="M31.928051,15.026377L31.928051,15.826377L33.72805,15.826377L33.72805,15.026377L31.928051,15.026377z"/>
    <circle transform="matrix(0,-0.999998,-0.999998,-0,165.518311,-113.400764)" style="stroke:#ff0000;stroke-width:0.05mm;fill:none" r="1.35" cx="0" cy="0"/>
    <path transform="matrix(0,-0.999998,-0.999998,-0,191.544449,-80.572815)" style="stroke:#ff0000;stroke-width:0.05mm;fill:none" d="M31.928051,22.826378L33.72805,22.826378L33.72805,22.026377L31.928051,22.026377L31.928051,22.826378z"/>
    <path transform="matrix(0,-0.999998,-0.999998,-0,191.544449,-80.572815)" style="stroke:#000000;stroke-width:0.05mm;fill:none" d="M30.578051,64.026375L35.078053,64.026375C38.944046,64.026382,42.078053,60.892372,42.078053,57.026379"/>
    <path transform="matrix(-0.999998,-0,-0,0.999998,174.755005,-53.650002)" style="stroke:#000000;stroke-width:0.05mm;fill:none" d="M51.755543,16.65L49.255543,16.65L49.255543,18.65L64.755547,18.65L64.755547,16.65L62.255543,16.65L62.255543,14.65L64.755547,14.65L64.755547,12.65L62.255543,12.65L62.255543,10.65L64.755547,10.65L64.755547,8.65L49.255543,8.65L49.255543,10.65L51.755543,10.65L51.755543,12.65L49.255543,12.65L49.255543,14.65L51.755543,14.65L51.755543,16.65z"/>
    <path transform="matrix(0,-0.999998,-0.999998,-0,171.906006,26.625999)" style="stroke:#000000;stroke-width:0.05mm;fill:none" d="M72.536201,53.86652L83.036201,53.86652L83.036201,47.86652L80.936203,47.86652L80.936203,45.36652L78.836197,45.36652L78.836197,47.86652L76.736198,47.86652L76.736198,45.36652L74.6362,45.36652L74.6362,47.86652L72.536201,47.86652L72.536201,53.86652z"/>
    <path transform="matrix(-0.999998,-0,-0,0.999998,199.824997,-97.029999)" style="stroke:#000000;stroke-width:0.05mm;fill:none" d="M83.035271,36.030098L80.535271,36.030098L80.535271,34.030098L83.035271,34.030098L83.035271,32.030098L80.535271,32.030098L80.535271,30.030098L77.035271,30.030098L77.035271,32.030098L74.535271,32.030098L74.535271,34.030098L77.035271,34.030098L77.035271,36.030098L74.535271,36.030098L74.535271,38.030098L77.035271,38.030098L77.035271,40.030098L80.535271,40.030098L80.535271,38.030098L83.035271,38.030098L83.035271,36.030098z"/>
    <path transform="matrix(-0.999998,-0,-0,0.999998,200.425003,-89.047699)" style="stroke:#000000;stroke-width:0.05mm;fill:none" d="M83.634712,19.047768L81.134712,19.047768L81.134712,21.047768L77.634712,21.047768L77.634712,19.047768L75.134712,19.047768L75.134712,17.047768L77.634712,17.047768L77.634712,15.047768L75.134712,15.047768L75.134712,13.047768L77.634712,13.047768L77.634712,11.047768L81.134712,11.047768L81.134712,13.047768L83.634712,13.047768L83.634712,15.047768L81.134712,15.047768L81.134712,17.047768L83.634712,17.047768L83.634712,19.047768z"/>
    <path transform="matrix(0,-0.999998,-0.999998,-0,191.544449,-35.572811)" style="stroke:#ff0000;stroke-width:0.05mm;fill:none" d="M10.15,61.626934L10.15,62.426933L8.35,62.426933L8.35,61.626934L10.15,61.626934z"/>
    <path transform="matrix(0,-0.999998,-0.999998,-0,191.544449,-35.572811)" style="stroke:#ff0000;stroke-width:0.05mm;fill:none" d="M1.5,37.401936L1.5,35.401936L4,35.401936L4,37.401936L1.5,37.401936z"/>
    <path transform="matrix(0,-0.999998,-0.999998,-0,191.544449,-35.572811)" style="stroke:#ff0000;stroke-width:0.05mm;fill:none" d="M6.1,29.401936L6.1,26.901936L8.2,26.901936L8.2,29.401936L6.1,29.401936z"/>
    <path transform="matrix(0,-0.999998,-0.999998,-0,191.544449,-35.572811)" style="stroke:#ff0000;stroke-width:0.05mm;fill:none" d="M10.15,22.226934L10.15,21.426935L8.35,21.426935L8.35,22.226934L10.15,22.226934z"/>
    <path transform="matrix(0,-0.999998,-0.999998,-0,191.544449,-35.572811)" style="stroke:#ff0000;stroke-width:0.05mm;fill:none" d="M14.5,39.401936L17,39.401936L17,41.401936L14.5,41.401936L14.5,39.401936z"/>
    <path transform="matrix(0,-0.999998,-0.999998,-0,191.544449,-35.572811)" style="stroke:#ff0000;stroke-width:0.05mm;fill:none" d="M10.3,29.401936L10.3,26.901936L12.4,26.901936L12.4,29.401936L10.3,29.401936z"/>
    <path transform="matrix(0,-0.999998,-0.999998,-0,191.544449,-35.572811)" style="stroke:#000000;stroke-width:0.05mm;fill:none" d="M0,56.426933C0,60.292927,3.134006,63.426933,7,63.426933L11.5,63.426933C15.365993,63.426933,18.5,60.292927,18.5,56.426933L18.5,20.426937C18.500002,16.560944,15.365995,13.426937,11.5,13.426935L7,13.426935C3.134008,13.426935,0,16.56094,0,20.426935L0,56.426933z"/>
    <path transform="matrix(0,-0.999998,-0.999998,-0,191.544449,-35.572811)" style="stroke:#ff0000;stroke-width:0.05mm;fill:none" d="M10.15,15.226935L8.35,15.226935L8.35,14.426935L10.15,14.426935L10.15,15.226935z"/>
    <circle transform="matrix(0,-0.999998,-0.999998,-0,166.11731,-44.822807)" style="stroke:#ff0000;stroke-width:0.05mm;fill:none" r="1.35" cx="0" cy="0"/>
    <path transform="matrix(0,-0.999998,-0.999998,-0,191.544449,-35.572811)" style="stroke:#ff0000;stroke-width:0.05mm;fill:none" d="M4,41.401936L1.5,41.401936L1.5,39.401936L4,39.401936L4,41.401936z"/>
    <path transform="matrix(0,-0.999998,-0.999998,-0,191.544449,-35.572811)" style="stroke:#ff0000;stroke-width:0.05mm;fill:none" d="M14.5,35.401936L17,35.401936L17,37.401936L14.5,37.401936L14.5,35.401936z"/>
    <circle transform="matrix(0,-0.999998,-0.999998,-0,140.117355,-44.822819)" style="stroke:#ff0000;stroke-width:0.05mm;fill:none" r="1.35" cx="0" cy="0"/>
    <path transform="matrix(0,-0.999998,-0.999998,-0,191.544449,-35.572811)" style="stroke:#ff0000;stroke-width:0.05mm;fill:none" d="M10.15,54.626934L10.15,55.426933L8.35,55.426933L8.35,54.626934L10.15,54.626934z"/>
    <path transform="matrix(0,-0.999998,-0.999998,-0,191.544449,-35.572811)" style="stroke:#ff0000;stroke-width:0.05mm;fill:none" d="M31.928051,56.026379L33.72805,56.026379L33.72805,55.226376L31.928051,55.226376L31.928051,56.026379z"/>
    <path transform="matrix(0,-0.999998,-0.999998,-0,191.544449,-35.572811)" style="stroke:#000000;stroke-width:0.05mm;fill:none" d="M23.578051,21.026377C23.578051,17.160381,26.712059,14.026377,30.578051,14.026377L35.078053,14.026377C38.94405,14.026379,42.078053,17.160385,42.078053,21.026379L42.078053,57.026379"/>
    <circle transform="matrix(0,-0.999998,-0.999998,-0,139.518372,-68.400772)" style="stroke:#ff0000;stroke-width:0.05mm;fill:none" r="1.35" cx="0" cy="0"/>
    <path transform="matrix(0,-0.999998,-0.999998,-0,191.544449,-35.572811)" style="stroke:#ff0000;stroke-width:0.05mm;fill:none" d="M31.928051,63.026379L33.72805,63.026379L33.72805,62.226376L31.928051,62.226376L31.928051,63.026379z"/>
    <path transform="matrix(0,-0.999998,-0.999998,-0,191.544449,-35.572811)" style="stroke:#000000;stroke-width:0.05mm;fill:none" d="M23.578051,57.026379L23.578051,21.026377"/>
    <path transform="matrix(0,-0.999998,-0.999998,-0,191.544449,-35.572811)" style="stroke:#000000;stroke-width:0.05mm;fill:none" d="M30.578051,64.026382C26.712057,64.026382,23.578051,60.892372,23.578051,57.026379"/>
    <path transform="matrix(0,-0.999998,-0.999998,-0,191.544449,-35.572811)" style="stroke:#ff0000;stroke-width:0.05mm;fill:none" d="M31.928051,15.026377L31.928051,15.826377L33.72805,15.826377L33.72805,15.026377L31.928051,15.026377z"/>
    <circle transform="matrix(0,-0.999998,-0.999998,-0,165.518311,-68.400764)" style="stroke:#ff0000;stroke-width:0.05mm;fill:none" r="1.35" cx="0" cy="0"/>
    <path transform="matrix(0,-0.999998,-0.999998,-0,191.544449,-35.572811)" style="stroke:#ff0000;stroke-width:0.05mm;fill:none" d="M31.928051,22.826378L33.72805,22.826378L33.72805,22.026377L31.928051,22.026377L31.928051,22.826378z"/>
    <path transform="matrix(0,-0.999998,-0.999998,-0,191.544449,-35.572811)" style="stroke:#000000;stroke-width:0.05mm;fill:none" d="M30.578051,64.026375L35.078053,64.026375C38.944046,64.026382,42.078053,60.892372,42.078053,57.026379"/>
    <path transform="matrix(0.999998,0,0,-0.999998,31.693399,-90.952301)" style="stroke:#000000;stroke-width:0.05mm;fill:none" d="M83.634712,19.047768L81.134712,19.047768L81.134712,21.047768L77.634712,21.047768L77.634712,19.047768L75.134712,19.047768L75.134712,17.047768L77.634712,17.047768L77.634712,15.047768L75.134712,15.047768L75.134712,13.047768L77.634712,13.047768L77.634712,11.047768L81.134712,11.047768L81.134712,13.047768L83.634712,13.047768L83.634712,15.047768L81.134712,15.047768L81.134712,17.047768L83.634712,17.047768L83.634712,19.047768z"/>
    <path transform="matrix(0.999998,0,0,-0.999998,31.693399,-79.952301)" style="stroke:#000000;stroke-width:0.05mm;fill:none" d="M83.634712,19.047768L81.134712,19.047768L81.134712,21.047768L77.634712,21.047768L77.634712,19.047768L75.134712,19.047768L75.134712,17.047768L77.634712,17.047768L77.634712,15.047768L75.134712,15.047768L75.134712,13.047768L77.634712,13.047768L77.634712,11.047768L81.134712,11.047768L81.134712,13.047768L83.634712,13.047768L83.634712,15.047768L81.134712,15.047768L81.134712,17.047768L83.634712,17.047768L83.634712,19.047768z"/>
</svg>
