<?xml version="1.0" encoding="UTF-8"?>
<svg xmlns="http://www.w3.org/2000/svg" xmlns:xlink="http://www.w3.org/1999/xlink" width="26.781mm" height="73.323mm" viewBox="-0.000110 -73.323471 26.781048 73.323418">
    <rect transform="matrix(-0,-1.00001,1.00001,-0,7.711162,-11.661362)" style="stroke:#ff0000;stroke-width:0.05mm;fill:none" x="-6.632109" y="-2.882108" width="13.264217" height="5.764217"/>
    <rect transform="matrix(-0,-1.00001,1.00001,-0,7.711162,-11.661362)" style="stroke:#000000;stroke-width:0.05mm;fill:none" x="-11.661195" y="-7.711194" width="23.32239" height="15.422388" rx="2.760608"/>
    <circle transform="matrix(1.00001,0,0,1.00001,21.829803,-16.648708)" style="stroke:#000000;stroke-width:0.05mm;fill:none" r="4.951085" cx="0" cy="0"/>
    <circle transform="matrix(1.00001,0,0,1.00001,21.829803,-16.648708)" style="stroke:#ff0000;stroke-width:0.05mm;fill:none" r="2.970651" cx="0" cy="0"/>
    <circle transform="matrix(1.00001,0,0,1.00001,21.829803,-6.065305)" style="stroke:#000000;stroke-width:0.05mm;fill:none" r="4.951085" cx="0" cy="0"/>
    <circle transform="matrix(1.00001,0,0,1.00001,21.829803,-6.065305)" style="stroke:#ff0000;stroke-width:0.05mm;fill:none" r="2.970651" cx="0" cy="0"/>
    <rect transform="matrix(-0,-1.00001,1.00001,-0,7.711162,-36.662163)" style="stroke:#ff0000;stroke-width:0.05mm;fill:none" x="-6.632109" y="-2.882108" width="13.264217" height="5.764217"/>
    <rect transform="matrix(-0,-1.00001,1.00001,-0,7.711162,-36.662163)" style="stroke:#000000;stroke-width:0.05mm;fill:none" x="-11.661195" y="-7.711194" width="23.32239" height="15.422388" rx="2.760608"/>
    <circle transform="matrix(1.00001,0,0,1.00001,21.829803,-41.649509)" style="stroke:#000000;stroke-width:0.05mm;fill:none" r="4.951085" cx="0" cy="0"/>
    <circle transform="matrix(1.00001,0,0,1.00001,21.829803,-41.649509)" style="stroke:#ff0000;stroke-width:0.05mm;fill:none" r="2.970651" cx="0" cy="0"/>
    <circle transform="matrix(1.00001,0,0,1.00001,21.829803,-31.066107)" style="stroke:#000000;stroke-width:0.05mm;fill:none" r="4.951085" cx="0" cy="0"/>
    <circle transform="matrix(1.00001,0,0,1.00001,21.829803,-31.066107)" style="stroke:#ff0000;stroke-width:0.05mm;fill:none" r="2.970651" cx="0" cy="0"/>
    <rect transform="matrix(-0,-1.00001,1.00001,-0,7.711162,-61.662163)" style="stroke:#ff0000;stroke-width:0.05mm;fill:none" x="-6.632109" y="-2.882108" width="13.264217" height="5.764217"/>
    <rect transform="matrix(-0,-1.00001,1.00001,-0,7.711162,-61.662163)" style="stroke:#000000;stroke-width:0.05mm;fill:none" x="-11.661195" y="-7.711194" width="23.32239" height="15.422388" rx="2.760608"/>
    <circle transform="matrix(1.00001,0,0,1.00001,21.829803,-66.649513)" style="stroke:#000000;stroke-width:0.05mm;fill:none" r="4.951085" cx="0" cy="0"/>
    <circle transform="matrix(1.00001,0,0,1.00001,21.829803,-66.649513)" style="stroke:#ff0000;stroke-width:0.05mm;fill:none" r="2.970651" cx="0" cy="0"/>
    <circle transform="matrix(1.00001,0,0,1.00001,21.829803,-56.066105)" style="stroke:#000000;stroke-width:0.05mm;fill:none" r="4.951085" cx="0" cy="0"/>
    <circle transform="matrix(1.00001,0,0,1.00001,21.829803,-56.066105)" style="stroke:#ff0000;stroke-width:0.05mm;fill:none" r="2.970651" cx="0" cy="0"/>
</svg>
