<?xml version="1.0" encoding="UTF-8"?>
<svg xmlns="http://www.w3.org/2000/svg" xmlns:xlink="http://www.w3.org/1999/xlink" width="951.717mm" height="517.927mm" viewBox="-549.000000 -345.751221 951.717224 517.926758">
    <circle transform="matrix(1,0,0,-1,357.842987,-206.949997)" style="stroke:#000000;stroke-width:0.05mm;fill:none" r="31.5" cx="0" cy="0"/>
    <circle transform="matrix(1,0,0,-1,357.842987,-206.949997)" style="stroke:#000000;stroke-width:0.05mm;fill:none" r="22.5" cx="0" cy="0"/>
    <circle transform="matrix(1,0,0,-1,352.591003,-180.546997)" style="stroke:#ff0000;stroke-width:0.05mm;fill:none" r="0.75" cx="0" cy="0"/>
    <circle transform="matrix(1,0,0,-1,363.093994,-233.352997)" style="stroke:#ff0000;stroke-width:0.05mm;fill:none" r="0.75" cx="0" cy="0"/>
    <circle transform="matrix(1,0,0,-1,331.440002,-201.697998)" style="stroke:#ff0000;stroke-width:0.05mm;fill:none" r="0.75" cx="0" cy="0"/>
    <circle transform="matrix(1,0,0,-1,331.440002,-212.201996)" style="stroke:#ff0000;stroke-width:0.05mm;fill:none" r="0.75" cx="0" cy="0"/>
    <circle transform="matrix(1,0,0,-1,363.093994,-180.546997)" style="stroke:#ff0000;stroke-width:0.05mm;fill:none" r="0.75" cx="0" cy="0"/>
    <circle transform="matrix(1,0,0,-1,384.244995,-212.201996)" style="stroke:#ff0000;stroke-width:0.05mm;fill:none" r="0.75" cx="0" cy="0"/>
    <circle transform="matrix(1,0,0,-1,384.244995,-201.697998)" style="stroke:#ff0000;stroke-width:0.05mm;fill:none" r="0.75" cx="0" cy="0"/>
    <circle transform="matrix(1,0,0,-1,352.591003,-233.352997)" style="stroke:#ff0000;stroke-width:0.05mm;fill:none" r="0.75" cx="0" cy="0"/>
    <path transform="matrix(1,0,0,-1,396.125,-331.091003)" style="stroke:#000000;stroke-width:0.05mm;fill:none" d="M1.571316,11.180555L1.571316,12.013685L0.061713,12.013685L0.061713,12.405328L1.649645,14.660237L1.998562,14.660237L1.998562,12.405328L2.468533,12.405328L2.468533,12.013685L1.998562,12.013685L1.998562,11.180555L1.571316,11.180555zM1.571316,12.405328L1.571316,13.97427L0.481839,12.405328L1.571316,12.405328zM3.16371,11.180555L3.16371,11.667141L3.650296,11.667141L3.650296,11.180555L3.16371,11.180555zM4.285089,12.092013L4.733697,12.129992C4.766927,11.911621,4.844069,11.747448,4.965122,11.637471C5.086175,11.527495,5.232151,11.472507,5.403049,11.472507C5.60876,11.472507,5.782824,11.550044,5.925239,11.705118C6.067654,11.860193,6.138862,12.065905,6.138862,12.322252C6.138862,12.565941,6.070424,12.758201,5.933547,12.899035C5.796669,13.039867,5.617463,13.110284,5.395928,13.110284C5.25826,13.110284,5.134042,13.079031,5.023275,13.016527C4.912507,12.954022,4.825476,12.872925,4.76218,12.773233L4.361043,12.825453L4.698093,14.612765L6.42844,14.612765L6.42844,14.204508L5.03989,14.204508L4.852376,13.269314C5.061252,13.414894,5.280414,13.487684,5.509861,13.487684C5.81368,13.487684,6.070028,13.382455,6.278903,13.171997C6.48778,12.961538,6.592217,12.690949,6.592217,12.360229C6.592217,12.045333,6.500439,11.773162,6.316881,11.543715C6.093764,11.262049,5.789153,11.121216,5.403049,11.121216C5.086571,11.121216,4.828245,11.209829,4.628072,11.387057C4.427899,11.564285,4.313571,11.799271,4.285089,12.092013zM1.571316,0L1.571316,0.83313L0.061713,0.83313L0.061713,1.224772L1.649645,3.479682L1.998562,3.479682L1.998562,1.224772L2.468533,1.224772L2.468533,0.83313L1.998562,0.83313L1.998562,0L1.571316,0zM1.571316,1.224772L1.571316,2.793715L0.481839,1.224772L1.571316,1.224772zM2.757826,0L3.678779,1.310221L2.82666,2.520752L3.360718,2.520752L3.747613,1.929728C3.820403,1.817378,3.878951,1.723226,3.923259,1.647271C3.992884,1.751709,4.056971,1.844279,4.115519,1.924981L4.540392,2.520752L5.050714,2.520752L4.179606,1.333957L5.117174,0L4.592611,0L4.075168,0.783285L3.9375,0.994534L3.275269,0L2.757826,0z"/>
    <path transform="matrix(1,0,0,-1,234.085999,-325.119995)" style="stroke:#000000;stroke-width:0.05mm;fill:none" d="M2.447171,0.410631L2.447171,0L0.147163,0C0.143998,0.102856,0.160613,0.201755,0.197008,0.296699C0.255556,0.453356,0.349313,0.607639,0.478278,0.759549C0.607243,0.911458,0.79357,1.087104,1.037259,1.286485C1.41545,1.596634,1.671007,1.842301,1.803928,2.023485C1.936849,2.204669,2.003309,2.375963,2.003309,2.537367C2.003309,2.706683,1.942783,2.849494,1.82173,2.9658C1.700677,3.082106,1.542833,3.140259,1.348199,3.140259C1.142488,3.140259,0.977919,3.078546,0.854492,2.955119C0.731066,2.831692,0.668561,2.660794,0.666979,2.442424L0.227865,2.487522C0.25793,2.815077,0.371071,3.064699,0.567288,3.236389C0.763505,3.408079,1.026973,3.493924,1.357693,3.493924C1.691578,3.493924,1.955838,3.401354,2.150472,3.216214C2.345106,3.031074,2.442424,2.801627,2.442424,2.527873C2.442424,2.388622,2.41394,2.251745,2.356974,2.117242C2.300008,1.982738,2.20546,1.841114,2.07333,1.692369C1.941201,1.543624,1.721644,1.339496,1.414659,1.079983C1.158312,0.864778,0.993743,0.718802,0.920953,0.642056C0.848163,0.56531,0.788032,0.488168,0.74056,0.410631L2.447171,0.410631zM3.16371,0L3.16371,0.486586L3.650296,0.486586L3.650296,0L3.16371,0zM4.285089,0.911458L4.733697,0.949436C4.766927,0.731066,4.844069,0.566892,4.965122,0.456916C5.086175,0.34694,5.232151,0.291952,5.403049,0.291952C5.60876,0.291952,5.782824,0.369489,5.925239,0.524563C6.067654,0.679638,6.138862,0.885349,6.138862,1.141697C6.138862,1.385385,6.070424,1.577646,5.933547,1.718479C5.796669,1.859312,5.617463,1.929728,5.395928,1.929728C5.25826,1.929728,5.134042,1.898476,5.023275,1.835971C4.912507,1.773467,4.825476,1.692369,4.76218,1.592679L4.361043,1.644897L4.698093,3.43221L6.42844,3.43221L6.42844,3.023953L5.03989,3.023953L4.852376,2.088759C5.061252,2.234339,5.280414,2.307129,5.509861,2.307129C5.81368,2.307129,6.070028,2.2019,6.278903,1.991442C6.48778,1.780983,6.592217,1.510394,6.592217,1.179674C6.592217,0.864778,6.500439,0.592606,6.316881,0.363159C6.093764,0.081493,5.789153,-0.05934,5.403049,-0.05934C5.086571,-0.05934,4.828245,0.029274,4.628072,0.206502C4.427899,0.38373,4.313571,0.618716,4.285089,0.911458zM8.376872,0L8.376872,0.83313L6.867269,0.83313L6.867269,1.224772L8.4552,3.479682L8.804118,3.479682L8.804118,1.224772L9.274089,1.224772L9.274089,0.83313L8.804118,0.83313L8.804118,0L8.376872,0zM8.376872,1.224772L8.376872,2.793715L7.287395,1.224772L8.376872,1.224772zM9.563382,0L10.484335,1.310221L9.632215,2.520752L10.166273,2.520752L10.553168,1.929728C10.625958,1.817378,10.684507,1.723226,10.728814,1.647271C10.79844,1.751709,10.862527,1.844279,10.921075,1.924981L11.345947,2.520752L11.856269,2.520752L10.985162,1.333957L11.922729,0L11.398167,0L10.880724,0.783285L10.743055,0.994534L10.080824,0L9.563382,0z"/>
    <path transform="matrix(-0,-0.999996,-1.48935,0,-54.971298,-129.5)" style="stroke:#000000;stroke-width:0.05mm;fill:none" d="M0,161.330688L4.5,161.330688L4.5,114.330704L0,114.330704L0,161.330688z"/>
    <path transform="matrix(1,0,0,-1,116.933998,-167.050003)" style="stroke:#ff0000;stroke-width:0.05mm;fill:none" d="M233.516174,16.172943L231.794098,12.015486L227.636642,13.737561L229.358719,17.89502L233.516174,16.172943z"/>
    <path transform="matrix(1,0,0,-1,116.933998,-167.050003)" style="stroke:#ff0000;stroke-width:0.05mm;fill:none" d="M221.816986,23.990097L224.998962,20.808117L221.816986,17.626137L218.634995,20.808117L221.816986,23.990097z"/>
    <path transform="matrix(1,0,0,-1,116.933998,-167.050003)" style="stroke:#ff0000;stroke-width:0.05mm;fill:none" d="M217.181808,32.507313L213.024353,30.785238L214.746429,26.627781L218.903885,28.349855L217.181808,32.507313z"/>
    <path transform="matrix(1,0,0,-1,116.933998,-167.050003)" style="stroke:#ff0000;stroke-width:0.05mm;fill:none" d="M216.158859,42.150002L216.158859,37.650002L211.658859,37.650002L211.658859,42.150002L216.158859,42.150002z"/>
    <path transform="matrix(1,0,0,-1,116.933998,-167.050003)" style="stroke:#ff0000;stroke-width:0.05mm;fill:none" d="M217.181808,47.292686L213.024353,49.014763L214.746429,53.172218L218.903885,51.450146L217.181808,47.292686z"/>
    <path transform="matrix(1,0,0,-1,116.933998,-167.050003)" style="stroke:#ff0000;stroke-width:0.05mm;fill:none" d="M221.816986,55.809902L224.998962,58.991882L221.816986,62.173862L218.634995,58.991882L221.816986,55.809902z"/>
    <path transform="matrix(1,0,0,-1,116.933998,-167.050003)" style="stroke:#ff0000;stroke-width:0.05mm;fill:none" d="M233.516174,63.627056L231.794098,67.784515L227.636642,66.062439L229.358719,61.90498L233.516174,63.627056z"/>
    <path transform="matrix(1,0,0,-1,116.933998,-167.050003)" style="stroke:#ff0000;stroke-width:0.05mm;fill:none" d="M243.158859,64.650002L238.658859,64.650002L238.658859,69.150002L243.158859,69.150002L243.158859,64.650002z"/>
    <path transform="matrix(1,0,0,-1,116.933998,-167.050003)" style="stroke:#ff0000;stroke-width:0.05mm;fill:none" d="M248.301544,63.627056L250.023621,67.784515L254.181076,66.062439L252.459,61.90498L248.301544,63.627056z"/>
    <path transform="matrix(1,0,0,-1,116.933998,-167.050003)" style="stroke:#ff0000;stroke-width:0.05mm;fill:none" d="M260.000732,55.809902L256.818756,58.991882L260.000732,62.173862L263.182739,58.991882L260.000732,55.809902z"/>
    <path transform="matrix(1,0,0,-1,116.933998,-167.050003)" style="stroke:#ff0000;stroke-width:0.05mm;fill:none" d="M262.913849,51.450146L267.071289,53.172218L268.793365,49.014763L264.635925,47.292686L262.913849,51.450146z"/>
    <path transform="matrix(1,0,0,-1,116.933998,-167.050003)" style="stroke:#ff0000;stroke-width:0.05mm;fill:none" d="M265.658875,37.650002L265.658875,42.150002L270.158875,42.150002L270.158875,37.650002L265.658875,37.650002z"/>
    <path transform="matrix(1,0,0,-1,116.933998,-167.050003)" style="stroke:#ff0000;stroke-width:0.05mm;fill:none" d="M262.913849,28.349855L267.071289,26.627781L268.793365,30.785238L264.635925,32.507313L262.913849,28.349855z"/>
    <path transform="matrix(1,0,0,-1,116.933998,-167.050003)" style="stroke:#ff0000;stroke-width:0.05mm;fill:none" d="M260.000732,23.990097L256.818756,20.808117L260.000732,17.626137L263.182739,20.808117L260.000732,23.990097z"/>
    <path transform="matrix(1,0,0,-1,116.933998,-167.050003)" style="stroke:#ff0000;stroke-width:0.05mm;fill:none" d="M248.301544,16.172943L250.023621,12.015486L254.181076,13.737561L252.459,17.89502L248.301544,16.172943z"/>
    <path transform="matrix(1,0,0,-1,116.933998,-167.050003)" style="stroke:#ff0000;stroke-width:0.05mm;fill:none" d="M238.658859,15.15L243.158859,15.15L243.158859,10.65L238.658859,10.65L238.658859,15.15z"/>
    <path transform="matrix(-0,-0.999996,-1.48935,0,-54.971298,-124.5)" style="stroke:#000000;stroke-width:0.05mm;fill:none" d="M0,161.330688L4.5,161.330688L4.5,114.330704L0,114.330704L0,161.330688z"/>
    <path transform="matrix(-0,-0.999996,-1.48935,0,-54.971298,-119.5)" style="stroke:#000000;stroke-width:0.05mm;fill:none" d="M0,161.330688L4.5,161.330688L4.5,114.330704L0,114.330704L0,161.330688z"/>
    <path transform="matrix(-0,-0.999996,-1.48935,0,-54.971298,-114.5)" style="stroke:#000000;stroke-width:0.05mm;fill:none" d="M0,161.330688L4.5,161.330688L4.5,114.330704L0,114.330704L0,161.330688z"/>
    <path transform="matrix(-0,-0.999996,-0.999996,0,-148.489578,-79.062828)" style="stroke:#000000;stroke-width:0.05mm;fill:none" d="M24.687235,146.260696L33.687233,146.260696L33.687233,134.760696L31.887234,134.760696L31.887234,132.260696L33.687233,132.260696L33.687233,123.260696L31.887234,123.260696L31.887234,120.760696L33.687233,120.760696L33.687233,109.260696L24.687235,109.260696L24.687235,120.760696L26.487234,120.760696L26.487234,123.260696L24.687235,123.260696L24.687235,132.260696L26.487234,132.260696L26.487234,134.760696L24.687235,134.760696L24.687235,146.260696z"/>
    <circle transform="matrix(-0,-0.999996,-0.999996,0,-287.249023,-108.249588)" style="stroke:#ff0000;stroke-width:0.05mm;fill:none" r="1" cx="0" cy="0"/>
    <circle transform="matrix(-0,-0.999996,-0.999996,0,-264.249115,-108.249588)" style="stroke:#ff0000;stroke-width:0.05mm;fill:none" r="1" cx="0" cy="0"/>
    <path transform="matrix(-0,-0.999996,-0.999996,0,-148.489578,-79.062828)" style="stroke:#ff0000;stroke-width:0.05mm;fill:none" d="M28.287235,123.260696L30.087234,123.260696L30.087234,120.760696L28.287235,120.760696L28.287235,123.260696z"/>
    <path transform="matrix(-0,-0.999996,-0.999996,0,-148.489578,-79.062828)" style="stroke:#ff0000;stroke-width:0.05mm;fill:none" d="M28.287235,132.260696L30.087234,132.260696L30.087234,134.760696L28.287235,134.760696L28.287235,132.260696z"/>
    <path transform="matrix(-0,-0.999996,-0.999996,0,-148.489578,-69.062828)" style="stroke:#000000;stroke-width:0.05mm;fill:none" d="M24.687235,146.260696L33.687233,146.260696L33.687233,134.760696L31.887234,134.760696L31.887234,132.260696L33.687233,132.260696L33.687233,123.260696L31.887234,123.260696L31.887234,120.760696L33.687233,120.760696L33.687233,109.260696L24.687235,109.260696L24.687235,120.760696L26.487234,120.760696L26.487234,123.260696L24.687235,123.260696L24.687235,132.260696L26.487234,132.260696L26.487234,134.760696L24.687235,134.760696L24.687235,146.260696z"/>
    <circle transform="matrix(-0,-0.999996,-0.999996,0,-287.249023,-98.249588)" style="stroke:#ff0000;stroke-width:0.05mm;fill:none" r="1" cx="0" cy="0"/>
    <circle transform="matrix(-0,-0.999996,-0.999996,0,-264.249115,-98.249588)" style="stroke:#ff0000;stroke-width:0.05mm;fill:none" r="1" cx="0" cy="0"/>
    <path transform="matrix(-0,-0.999996,-0.999996,0,-148.489578,-69.062828)" style="stroke:#ff0000;stroke-width:0.05mm;fill:none" d="M28.287235,123.260696L30.087234,123.260696L30.087234,120.760696L28.287235,120.760696L28.287235,123.260696z"/>
    <path transform="matrix(-0,-0.999996,-0.999996,0,-148.489578,-69.062828)" style="stroke:#ff0000;stroke-width:0.05mm;fill:none" d="M28.287235,132.260696L30.087234,132.260696L30.087234,134.760696L28.287235,134.760696L28.287235,132.260696z"/>
    <path transform="matrix(-0,-0.999996,-0.999996,0,-148.489578,-59.062866)" style="stroke:#000000;stroke-width:0.05mm;fill:none" d="M24.687235,146.260696L33.687233,146.260696L33.687233,134.760696L31.887234,134.760696L31.887234,132.260696L33.687233,132.260696L33.687233,123.260696L31.887234,123.260696L31.887234,120.760696L33.687233,120.760696L33.687233,109.260696L24.687235,109.260696L24.687235,120.760696L26.487234,120.760696L26.487234,123.260696L24.687235,123.260696L24.687235,132.260696L26.487234,132.260696L26.487234,134.760696L24.687235,134.760696L24.687235,146.260696z"/>
    <circle transform="matrix(-0,-0.999996,-0.999996,0,-287.249023,-88.249626)" style="stroke:#ff0000;stroke-width:0.05mm;fill:none" r="1" cx="0" cy="0"/>
    <circle transform="matrix(-0,-0.999996,-0.999996,0,-264.249115,-88.249634)" style="stroke:#ff0000;stroke-width:0.05mm;fill:none" r="1" cx="0" cy="0"/>
    <path transform="matrix(-0,-0.999996,-0.999996,0,-148.489578,-59.062866)" style="stroke:#ff0000;stroke-width:0.05mm;fill:none" d="M28.287235,123.260696L30.087234,123.260696L30.087234,120.760696L28.287235,120.760696L28.287235,123.260696z"/>
    <path transform="matrix(-0,-0.999996,-0.999996,0,-148.489578,-59.062866)" style="stroke:#ff0000;stroke-width:0.05mm;fill:none" d="M28.287235,132.260696L30.087234,132.260696L30.087234,134.760696L28.287235,134.760696L28.287235,132.260696z"/>
    <path transform="matrix(-0,-0.999996,-0.999996,0,-148.489578,-49.062923)" style="stroke:#000000;stroke-width:0.05mm;fill:none" d="M24.687235,146.260696L33.687233,146.260696L33.687233,134.760696L31.887234,134.760696L31.887234,132.260696L33.687233,132.260696L33.687233,123.260696L31.887234,123.260696L31.887234,120.760696L33.687233,120.760696L33.687233,109.260696L24.687235,109.260696L24.687235,120.760696L26.487234,120.760696L26.487234,123.260696L24.687235,123.260696L24.687235,132.260696L26.487234,132.260696L26.487234,134.760696L24.687235,134.760696L24.687235,146.260696z"/>
    <circle transform="matrix(-0,-0.999996,-0.999996,0,-287.249023,-78.249687)" style="stroke:#ff0000;stroke-width:0.05mm;fill:none" r="1" cx="0" cy="0"/>
    <circle transform="matrix(-0,-0.999996,-0.999996,0,-264.249115,-78.249687)" style="stroke:#ff0000;stroke-width:0.05mm;fill:none" r="1" cx="0" cy="0"/>
    <path transform="matrix(-0,-0.999996,-0.999996,0,-148.489578,-49.062923)" style="stroke:#ff0000;stroke-width:0.05mm;fill:none" d="M28.287235,123.260696L30.087234,123.260696L30.087234,120.760696L28.287235,120.760696L28.287235,123.260696z"/>
    <path transform="matrix(-0,-0.999996,-0.999996,0,-148.489578,-49.062923)" style="stroke:#ff0000;stroke-width:0.05mm;fill:none" d="M28.287235,132.260696L30.087234,132.260696L30.087234,134.760696L28.287235,134.760696L28.287235,132.260696z"/>
    <path transform="matrix(-0,-0.999996,-0.999996,0,-110.489784,-79.062828)" style="stroke:#000000;stroke-width:0.05mm;fill:none" d="M24.687235,146.260696L33.687233,146.260696L33.687233,134.760696L31.887234,134.760696L31.887234,132.260696L33.687233,132.260696L33.687233,123.260696L31.887234,123.260696L31.887234,120.760696L33.687233,120.760696L33.687233,109.260696L24.687235,109.260696L24.687235,120.760696L26.487234,120.760696L26.487234,123.260696L24.687235,123.260696L24.687235,132.260696L26.487234,132.260696L26.487234,134.760696L24.687235,134.760696L24.687235,146.260696z"/>
    <circle transform="matrix(-0,-0.999996,-0.999996,0,-249.249237,-108.249588)" style="stroke:#ff0000;stroke-width:0.05mm;fill:none" r="1" cx="0" cy="0"/>
    <circle transform="matrix(-0,-0.999996,-0.999996,0,-226.249329,-108.249588)" style="stroke:#ff0000;stroke-width:0.05mm;fill:none" r="1" cx="0" cy="0"/>
    <path transform="matrix(-0,-0.999996,-0.999996,0,-110.489784,-79.062828)" style="stroke:#ff0000;stroke-width:0.05mm;fill:none" d="M28.287235,123.260696L30.087234,123.260696L30.087234,120.760696L28.287235,120.760696L28.287235,123.260696z"/>
    <path transform="matrix(-0,-0.999996,-0.999996,0,-110.489784,-79.062828)" style="stroke:#ff0000;stroke-width:0.05mm;fill:none" d="M28.287235,132.260696L30.087234,132.260696L30.087234,134.760696L28.287235,134.760696L28.287235,132.260696z"/>
    <path transform="matrix(-0,-0.999996,-0.999996,0,-110.489784,-69.062836)" style="stroke:#000000;stroke-width:0.05mm;fill:none" d="M24.687235,146.260696L33.687233,146.260696L33.687233,134.760696L31.887234,134.760696L31.887234,132.260696L33.687233,132.260696L33.687233,123.260696L31.887234,123.260696L31.887234,120.760696L33.687233,120.760696L33.687233,109.260696L24.687235,109.260696L24.687235,120.760696L26.487234,120.760696L26.487234,123.260696L24.687235,123.260696L24.687235,132.260696L26.487234,132.260696L26.487234,134.760696L24.687235,134.760696L24.687235,146.260696z"/>
    <circle transform="matrix(-0,-0.999996,-0.999996,0,-249.249237,-98.249596)" style="stroke:#ff0000;stroke-width:0.05mm;fill:none" r="1" cx="0" cy="0"/>
    <circle transform="matrix(-0,-0.999996,-0.999996,0,-226.249329,-98.249603)" style="stroke:#ff0000;stroke-width:0.05mm;fill:none" r="1" cx="0" cy="0"/>
    <path transform="matrix(-0,-0.999996,-0.999996,0,-110.489784,-69.062836)" style="stroke:#ff0000;stroke-width:0.05mm;fill:none" d="M28.287235,123.260696L30.087234,123.260696L30.087234,120.760696L28.287235,120.760696L28.287235,123.260696z"/>
    <path transform="matrix(-0,-0.999996,-0.999996,0,-110.489784,-69.062836)" style="stroke:#ff0000;stroke-width:0.05mm;fill:none" d="M28.287235,132.260696L30.087234,132.260696L30.087234,134.760696L28.287235,134.760696L28.287235,132.260696z"/>
    <path transform="matrix(-0,-0.999996,-0.999996,0,-110.489784,-59.062874)" style="stroke:#000000;stroke-width:0.05mm;fill:none" d="M24.687235,146.260696L33.687233,146.260696L33.687233,134.760696L31.887234,134.760696L31.887234,132.260696L33.687233,132.260696L33.687233,123.260696L31.887234,123.260696L31.887234,120.760696L33.687233,120.760696L33.687233,109.260696L24.687235,109.260696L24.687235,120.760696L26.487234,120.760696L26.487234,123.260696L24.687235,123.260696L24.687235,132.260696L26.487234,132.260696L26.487234,134.760696L24.687235,134.760696L24.687235,146.260696z"/>
    <circle transform="matrix(-0,-0.999996,-0.999996,0,-249.249237,-88.249634)" style="stroke:#ff0000;stroke-width:0.05mm;fill:none" r="1" cx="0" cy="0"/>
    <circle transform="matrix(-0,-0.999996,-0.999996,0,-226.249329,-88.249641)" style="stroke:#ff0000;stroke-width:0.05mm;fill:none" r="1" cx="0" cy="0"/>
    <path transform="matrix(-0,-0.999996,-0.999996,0,-110.489784,-59.062874)" style="stroke:#ff0000;stroke-width:0.05mm;fill:none" d="M28.287235,123.260696L30.087234,123.260696L30.087234,120.760696L28.287235,120.760696L28.287235,123.260696z"/>
    <path transform="matrix(-0,-0.999996,-0.999996,0,-110.489784,-59.062874)" style="stroke:#ff0000;stroke-width:0.05mm;fill:none" d="M28.287235,132.260696L30.087234,132.260696L30.087234,134.760696L28.287235,134.760696L28.287235,132.260696z"/>
    <path transform="matrix(-0,-0.999996,-0.999996,0,-110.489784,-49.062923)" style="stroke:#000000;stroke-width:0.05mm;fill:none" d="M24.687235,146.260696L33.687233,146.260696L33.687233,134.760696L31.887234,134.760696L31.887234,132.260696L33.687233,132.260696L33.687233,123.260696L31.887234,123.260696L31.887234,120.760696L33.687233,120.760696L33.687233,109.260696L24.687235,109.260696L24.687235,120.760696L26.487234,120.760696L26.487234,123.260696L24.687235,123.260696L24.687235,132.260696L26.487234,132.260696L26.487234,134.760696L24.687235,134.760696L24.687235,146.260696z"/>
    <circle transform="matrix(-0,-0.999996,-0.999996,0,-249.249237,-78.249687)" style="stroke:#ff0000;stroke-width:0.05mm;fill:none" r="1" cx="0" cy="0"/>
    <circle transform="matrix(-0,-0.999996,-0.999996,0,-226.249329,-78.249687)" style="stroke:#ff0000;stroke-width:0.05mm;fill:none" r="1" cx="0" cy="0"/>
    <path transform="matrix(-0,-0.999996,-0.999996,0,-110.489784,-49.062923)" style="stroke:#ff0000;stroke-width:0.05mm;fill:none" d="M28.287235,123.260696L30.087234,123.260696L30.087234,120.760696L28.287235,120.760696L28.287235,123.260696z"/>
    <path transform="matrix(-0,-0.999996,-0.999996,0,-110.489784,-49.062923)" style="stroke:#ff0000;stroke-width:0.05mm;fill:none" d="M28.287235,132.260696L30.087234,132.260696L30.087234,134.760696L28.287235,134.760696L28.287235,132.260696z"/>
    <circle transform="matrix(1,0,0,-1,-546.307007,37.377991)" style="stroke:#ff0000;stroke-width:0.05mm;fill:none" r="0.75" cx="0" cy="0"/>
    <circle transform="matrix(1,0,0,-1,-519.083008,64.365982)" style="stroke:#ff0000;stroke-width:0.05mm;fill:none" r="0.75" cx="0" cy="0"/>
    <circle transform="matrix(1,0,0,-1,-541.100952,49.791992)" style="stroke:#ff0000;stroke-width:0.05mm;fill:none" r="0.75" cx="0" cy="0"/>
    <circle transform="matrix(1,0,0,-1,-493.457977,1.730988)" style="stroke:#ff0000;stroke-width:0.05mm;fill:none" r="0.75" cx="0" cy="0"/>
    <circle transform="matrix(1,0,0,-1,-505.621979,64.306992)" style="stroke:#ff0000;stroke-width:0.05mm;fill:none" r="0.75" cx="0" cy="0"/>
    <circle transform="matrix(1,0,0,-1,-483.89798,11.207977)" style="stroke:#ff0000;stroke-width:0.05mm;fill:none" r="0.75" cx="0" cy="0"/>
    <circle transform="matrix(1,0,0,-1,-505.916992,-3.366028)" style="stroke:#ff0000;stroke-width:0.05mm;fill:none" r="0.75" cx="0" cy="0"/>
    <circle transform="matrix(1,0,0,-1,-541.268982,11.457977)" style="stroke:#ff0000;stroke-width:0.05mm;fill:none" r="0.75" cx="0" cy="0"/>
    <circle transform="matrix(1,0,0,-1,-483.730988,49.541992)" style="stroke:#ff0000;stroke-width:0.05mm;fill:none" r="0.75" cx="0" cy="0"/>
    <circle transform="matrix(1,0,0,-1,-478.633972,37.082977)" style="stroke:#ff0000;stroke-width:0.05mm;fill:none" r="0.75" cx="0" cy="0"/>
    <circle transform="matrix(1,0,0,-1,-512.5,30.5)" style="stroke:#000000;stroke-width:0.05mm;fill:none" r="32" cx="0" cy="0"/>
    <circle transform="matrix(1,0,0,-1,-519.377991,-3.308014)" style="stroke:#ff0000;stroke-width:0.05mm;fill:none" r="0.75" cx="0" cy="0"/>
    <circle transform="matrix(1,0,0,-1,-512.5,30.5)" style="stroke:#000000;stroke-width:0.05mm;fill:none" r="36.5" cx="0" cy="0"/>
    <circle transform="matrix(1,0,0,-1,-531.541992,59.268982)" style="stroke:#ff0000;stroke-width:0.05mm;fill:none" r="0.75" cx="0" cy="0"/>
    <circle transform="matrix(1,0,0,-1,-493.207977,59.10199)" style="stroke:#ff0000;stroke-width:0.05mm;fill:none" r="0.75" cx="0" cy="0"/>
    <circle transform="matrix(1,0,0,-1,-478.691986,23.621979)" style="stroke:#ff0000;stroke-width:0.05mm;fill:none" r="0.75" cx="0" cy="0"/>
    <circle transform="matrix(1,0,0,-1,-531.791992,1.89798)" style="stroke:#ff0000;stroke-width:0.05mm;fill:none" r="0.75" cx="0" cy="0"/>
    <circle transform="matrix(1,0,0,-1,-546.365967,23.916992)" style="stroke:#ff0000;stroke-width:0.05mm;fill:none" r="0.75" cx="0" cy="0"/>
    <circle transform="matrix(1,0,0,-1,-546.307007,-37.621994)" style="stroke:#ff0000;stroke-width:0.05mm;fill:none" r="0.75" cx="0" cy="0"/>
    <circle transform="matrix(1,0,0,-1,-519.083008,-10.634003)" style="stroke:#ff0000;stroke-width:0.05mm;fill:none" r="0.75" cx="0" cy="0"/>
    <circle transform="matrix(1,0,0,-1,-541.100952,-25.207993)" style="stroke:#ff0000;stroke-width:0.05mm;fill:none" r="0.75" cx="0" cy="0"/>
    <circle transform="matrix(1,0,0,-1,-493.457977,-73.268997)" style="stroke:#ff0000;stroke-width:0.05mm;fill:none" r="0.75" cx="0" cy="0"/>
    <circle transform="matrix(1,0,0,-1,-505.621979,-10.692993)" style="stroke:#ff0000;stroke-width:0.05mm;fill:none" r="0.75" cx="0" cy="0"/>
    <circle transform="matrix(1,0,0,-1,-483.89798,-63.792007)" style="stroke:#ff0000;stroke-width:0.05mm;fill:none" r="0.75" cx="0" cy="0"/>
    <circle transform="matrix(1,0,0,-1,-505.916992,-78.366013)" style="stroke:#ff0000;stroke-width:0.05mm;fill:none" r="0.75" cx="0" cy="0"/>
    <circle transform="matrix(1,0,0,-1,-541.268982,-63.542007)" style="stroke:#ff0000;stroke-width:0.05mm;fill:none" r="0.75" cx="0" cy="0"/>
    <circle transform="matrix(1,0,0,-1,-483.730988,-25.457993)" style="stroke:#ff0000;stroke-width:0.05mm;fill:none" r="0.75" cx="0" cy="0"/>
    <circle transform="matrix(1,0,0,-1,-478.633972,-37.917007)" style="stroke:#ff0000;stroke-width:0.05mm;fill:none" r="0.75" cx="0" cy="0"/>
    <circle transform="matrix(1,0,0,-1,-512.5,-44.499985)" style="stroke:#000000;stroke-width:0.05mm;fill:none" r="32" cx="0" cy="0"/>
    <circle transform="matrix(1,0,0,-1,-519.377991,-78.307999)" style="stroke:#ff0000;stroke-width:0.05mm;fill:none" r="0.75" cx="0" cy="0"/>
    <circle transform="matrix(1,0,0,-1,-512.5,-44.499985)" style="stroke:#000000;stroke-width:0.05mm;fill:none" r="36.5" cx="0" cy="0"/>
    <circle transform="matrix(1,0,0,-1,-531.541992,-15.731003)" style="stroke:#ff0000;stroke-width:0.05mm;fill:none" r="0.75" cx="0" cy="0"/>
    <circle transform="matrix(1,0,0,-1,-493.207977,-15.897995)" style="stroke:#ff0000;stroke-width:0.05mm;fill:none" r="0.75" cx="0" cy="0"/>
    <circle transform="matrix(1,0,0,-1,-478.691986,-51.378006)" style="stroke:#ff0000;stroke-width:0.05mm;fill:none" r="0.75" cx="0" cy="0"/>
    <circle transform="matrix(1,0,0,-1,-531.791992,-73.102005)" style="stroke:#ff0000;stroke-width:0.05mm;fill:none" r="0.75" cx="0" cy="0"/>
    <circle transform="matrix(1,0,0,-1,-546.365967,-51.082993)" style="stroke:#ff0000;stroke-width:0.05mm;fill:none" r="0.75" cx="0" cy="0"/>
    <circle transform="matrix(1,0,0,-1,-471.306976,-37.621994)" style="stroke:#ff0000;stroke-width:0.05mm;fill:none" r="0.75" cx="0" cy="0"/>
    <circle transform="matrix(1,0,0,-1,-444.082977,-10.634003)" style="stroke:#ff0000;stroke-width:0.05mm;fill:none" r="0.75" cx="0" cy="0"/>
    <circle transform="matrix(1,0,0,-1,-466.100983,-25.207993)" style="stroke:#ff0000;stroke-width:0.05mm;fill:none" r="0.75" cx="0" cy="0"/>
    <circle transform="matrix(1,0,0,-1,-418.457977,-73.268997)" style="stroke:#ff0000;stroke-width:0.05mm;fill:none" r="0.75" cx="0" cy="0"/>
    <circle transform="matrix(1,0,0,-1,-430.621979,-10.692993)" style="stroke:#ff0000;stroke-width:0.05mm;fill:none" r="0.75" cx="0" cy="0"/>
    <circle transform="matrix(1,0,0,-1,-408.89798,-63.792007)" style="stroke:#ff0000;stroke-width:0.05mm;fill:none" r="0.75" cx="0" cy="0"/>
    <circle transform="matrix(1,0,0,-1,-430.916992,-78.366013)" style="stroke:#ff0000;stroke-width:0.05mm;fill:none" r="0.75" cx="0" cy="0"/>
    <circle transform="matrix(1,0,0,-1,-466.268982,-63.542007)" style="stroke:#ff0000;stroke-width:0.05mm;fill:none" r="0.75" cx="0" cy="0"/>
    <circle transform="matrix(1,0,0,-1,-408.730988,-25.457993)" style="stroke:#ff0000;stroke-width:0.05mm;fill:none" r="0.75" cx="0" cy="0"/>
    <circle transform="matrix(1,0,0,-1,-403.633972,-37.917007)" style="stroke:#ff0000;stroke-width:0.05mm;fill:none" r="0.75" cx="0" cy="0"/>
    <circle transform="matrix(1,0,0,-1,-437.499969,-44.499985)" style="stroke:#000000;stroke-width:0.05mm;fill:none" r="32" cx="0" cy="0"/>
    <circle transform="matrix(1,0,0,-1,-444.377991,-78.307999)" style="stroke:#ff0000;stroke-width:0.05mm;fill:none" r="0.75" cx="0" cy="0"/>
    <circle transform="matrix(1,0,0,-1,-437.499969,-44.499985)" style="stroke:#000000;stroke-width:0.05mm;fill:none" r="36.5" cx="0" cy="0"/>
    <circle transform="matrix(1,0,0,-1,-456.541992,-15.731003)" style="stroke:#ff0000;stroke-width:0.05mm;fill:none" r="0.75" cx="0" cy="0"/>
    <circle transform="matrix(1,0,0,-1,-418.207977,-15.897995)" style="stroke:#ff0000;stroke-width:0.05mm;fill:none" r="0.75" cx="0" cy="0"/>
    <circle transform="matrix(1,0,0,-1,-403.691986,-51.378006)" style="stroke:#ff0000;stroke-width:0.05mm;fill:none" r="0.75" cx="0" cy="0"/>
    <circle transform="matrix(1,0,0,-1,-456.791992,-73.102005)" style="stroke:#ff0000;stroke-width:0.05mm;fill:none" r="0.75" cx="0" cy="0"/>
    <circle transform="matrix(1,0,0,-1,-471.365967,-51.082993)" style="stroke:#ff0000;stroke-width:0.05mm;fill:none" r="0.75" cx="0" cy="0"/>
    <circle transform="matrix(1,0,0,-1,-471.306976,37.377991)" style="stroke:#ff0000;stroke-width:0.05mm;fill:none" r="0.75" cx="0" cy="0"/>
    <circle transform="matrix(1,0,0,-1,-444.082977,64.365982)" style="stroke:#ff0000;stroke-width:0.05mm;fill:none" r="0.75" cx="0" cy="0"/>
    <circle transform="matrix(1,0,0,-1,-466.100983,49.791992)" style="stroke:#ff0000;stroke-width:0.05mm;fill:none" r="0.75" cx="0" cy="0"/>
    <circle transform="matrix(1,0,0,-1,-418.457977,1.730988)" style="stroke:#ff0000;stroke-width:0.05mm;fill:none" r="0.75" cx="0" cy="0"/>
    <circle transform="matrix(1,0,0,-1,-430.621979,64.306992)" style="stroke:#ff0000;stroke-width:0.05mm;fill:none" r="0.75" cx="0" cy="0"/>
    <circle transform="matrix(1,0,0,-1,-408.89798,11.207977)" style="stroke:#ff0000;stroke-width:0.05mm;fill:none" r="0.75" cx="0" cy="0"/>
    <circle transform="matrix(1,0,0,-1,-430.916992,-3.366028)" style="stroke:#ff0000;stroke-width:0.05mm;fill:none" r="0.75" cx="0" cy="0"/>
    <circle transform="matrix(1,0,0,-1,-466.268982,11.457977)" style="stroke:#ff0000;stroke-width:0.05mm;fill:none" r="0.75" cx="0" cy="0"/>
    <circle transform="matrix(1,0,0,-1,-408.730988,49.541992)" style="stroke:#ff0000;stroke-width:0.05mm;fill:none" r="0.75" cx="0" cy="0"/>
    <circle transform="matrix(1,0,0,-1,-403.633972,37.082977)" style="stroke:#ff0000;stroke-width:0.05mm;fill:none" r="0.75" cx="0" cy="0"/>
    <circle transform="matrix(1,0,0,-1,-437.499969,30.5)" style="stroke:#000000;stroke-width:0.05mm;fill:none" r="32" cx="0" cy="0"/>
    <circle transform="matrix(1,0,0,-1,-444.377991,-3.308014)" style="stroke:#ff0000;stroke-width:0.05mm;fill:none" r="0.75" cx="0" cy="0"/>
    <circle transform="matrix(1,0,0,-1,-437.499969,30.5)" style="stroke:#000000;stroke-width:0.05mm;fill:none" r="36.5" cx="0" cy="0"/>
    <circle transform="matrix(1,0,0,-1,-456.541992,59.268982)" style="stroke:#ff0000;stroke-width:0.05mm;fill:none" r="0.75" cx="0" cy="0"/>
    <circle transform="matrix(1,0,0,-1,-418.207977,59.10199)" style="stroke:#ff0000;stroke-width:0.05mm;fill:none" r="0.75" cx="0" cy="0"/>
    <circle transform="matrix(1,0,0,-1,-403.691986,23.621979)" style="stroke:#ff0000;stroke-width:0.05mm;fill:none" r="0.75" cx="0" cy="0"/>
    <circle transform="matrix(1,0,0,-1,-456.791992,1.89798)" style="stroke:#ff0000;stroke-width:0.05mm;fill:none" r="0.75" cx="0" cy="0"/>
    <circle transform="matrix(1,0,0,-1,-471.365967,23.916992)" style="stroke:#ff0000;stroke-width:0.05mm;fill:none" r="0.75" cx="0" cy="0"/>
    <circle transform="matrix(-0,-0.999996,-0.999996,0,-289.25,-143.249725)" style="stroke:#000000;stroke-width:0.05mm;fill:none" r="7" cx="0" cy="0"/>
    <circle transform="matrix(-0,-0.999996,-0.999996,0,-289.25,-143.249725)" style="stroke:#ff0000;stroke-width:0.05mm;fill:none" r="4" cx="0" cy="0"/>
    <circle transform="matrix(-0,-0.999996,-0.999996,0,-289.25,-158.249664)" style="stroke:#000000;stroke-width:0.05mm;fill:none" r="7" cx="0" cy="0"/>
    <circle transform="matrix(-0,-0.999996,-0.999996,0,-289.25,-158.249664)" style="stroke:#ff0000;stroke-width:0.05mm;fill:none" r="4" cx="0" cy="0"/>
    <circle transform="matrix(-0,-0.999996,-0.999996,0,-289.25,-173.249649)" style="stroke:#000000;stroke-width:0.05mm;fill:none" r="7" cx="0" cy="0"/>
    <circle transform="matrix(-0,-0.999996,-0.999996,0,-289.25,-173.249649)" style="stroke:#ff0000;stroke-width:0.05mm;fill:none" r="4" cx="0" cy="0"/>
    <circle transform="matrix(-0,-0.999996,-0.999996,0,-289.25,-188.249557)" style="stroke:#000000;stroke-width:0.05mm;fill:none" r="7" cx="0" cy="0"/>
    <circle transform="matrix(-0,-0.999996,-0.999996,0,-289.25,-188.249557)" style="stroke:#ff0000;stroke-width:0.05mm;fill:none" r="4" cx="0" cy="0"/>
    <circle transform="matrix(-0,-0.999996,-0.999996,0,-274.250061,-143.249725)" style="stroke:#000000;stroke-width:0.05mm;fill:none" r="7" cx="0" cy="0"/>
    <circle transform="matrix(-0,-0.999996,-0.999996,0,-274.250061,-143.249725)" style="stroke:#ff0000;stroke-width:0.05mm;fill:none" r="4" cx="0" cy="0"/>
    <circle transform="matrix(-0,-0.999996,-0.999996,0,-274.250061,-158.249664)" style="stroke:#000000;stroke-width:0.05mm;fill:none" r="7" cx="0" cy="0"/>
    <circle transform="matrix(-0,-0.999996,-0.999996,0,-274.250061,-158.249664)" style="stroke:#ff0000;stroke-width:0.05mm;fill:none" r="4" cx="0" cy="0"/>
    <circle transform="matrix(-0,-0.999996,-0.999996,0,-274.250061,-173.249649)" style="stroke:#000000;stroke-width:0.05mm;fill:none" r="7" cx="0" cy="0"/>
    <circle transform="matrix(-0,-0.999996,-0.999996,0,-274.250061,-173.249649)" style="stroke:#ff0000;stroke-width:0.05mm;fill:none" r="4" cx="0" cy="0"/>
    <circle transform="matrix(-0,-0.999996,-0.999996,0,-274.250061,-188.249557)" style="stroke:#000000;stroke-width:0.05mm;fill:none" r="7" cx="0" cy="0"/>
    <circle transform="matrix(-0,-0.999996,-0.999996,0,-274.250061,-188.249557)" style="stroke:#ff0000;stroke-width:0.05mm;fill:none" r="4" cx="0" cy="0"/>
    <circle transform="matrix(-0,-0.999996,-0.999996,0,-259.250153,-143.249725)" style="stroke:#000000;stroke-width:0.05mm;fill:none" r="7" cx="0" cy="0"/>
    <circle transform="matrix(-0,-0.999996,-0.999996,0,-259.250153,-143.249725)" style="stroke:#ff0000;stroke-width:0.05mm;fill:none" r="4" cx="0" cy="0"/>
    <circle transform="matrix(-0,-0.999996,-0.999996,0,-259.250153,-158.249664)" style="stroke:#000000;stroke-width:0.05mm;fill:none" r="7" cx="0" cy="0"/>
    <circle transform="matrix(-0,-0.999996,-0.999996,0,-259.250153,-158.249664)" style="stroke:#ff0000;stroke-width:0.05mm;fill:none" r="4" cx="0" cy="0"/>
    <circle transform="matrix(-0,-0.999996,-0.999996,0,-259.250153,-173.249649)" style="stroke:#000000;stroke-width:0.05mm;fill:none" r="7" cx="0" cy="0"/>
    <circle transform="matrix(-0,-0.999996,-0.999996,0,-259.250153,-173.249649)" style="stroke:#ff0000;stroke-width:0.05mm;fill:none" r="4" cx="0" cy="0"/>
    <circle transform="matrix(-0,-0.999996,-0.999996,0,-259.250153,-188.249557)" style="stroke:#000000;stroke-width:0.05mm;fill:none" r="7" cx="0" cy="0"/>
    <circle transform="matrix(-0,-0.999996,-0.999996,0,-259.250153,-188.249557)" style="stroke:#ff0000;stroke-width:0.05mm;fill:none" r="4" cx="0" cy="0"/>
    <circle transform="matrix(-0,-0.999996,-0.999996,0,-244.250153,-143.249725)" style="stroke:#000000;stroke-width:0.05mm;fill:none" r="7" cx="0" cy="0"/>
    <circle transform="matrix(-0,-0.999996,-0.999996,0,-244.250153,-143.249725)" style="stroke:#ff0000;stroke-width:0.05mm;fill:none" r="4" cx="0" cy="0"/>
    <circle transform="matrix(-0,-0.999996,-0.999996,0,-244.250153,-158.249664)" style="stroke:#000000;stroke-width:0.05mm;fill:none" r="7" cx="0" cy="0"/>
    <circle transform="matrix(-0,-0.999996,-0.999996,0,-244.250153,-158.249664)" style="stroke:#ff0000;stroke-width:0.05mm;fill:none" r="4" cx="0" cy="0"/>
    <circle transform="matrix(-0,-0.999996,-0.999996,0,-244.250153,-173.249649)" style="stroke:#000000;stroke-width:0.05mm;fill:none" r="7" cx="0" cy="0"/>
    <circle transform="matrix(-0,-0.999996,-0.999996,0,-244.250153,-173.249649)" style="stroke:#ff0000;stroke-width:0.05mm;fill:none" r="4" cx="0" cy="0"/>
    <circle transform="matrix(-0,-0.999996,-0.999996,0,-244.250153,-188.249557)" style="stroke:#000000;stroke-width:0.05mm;fill:none" r="7" cx="0" cy="0"/>
    <circle transform="matrix(-0,-0.999996,-0.999996,0,-244.250153,-188.249557)" style="stroke:#ff0000;stroke-width:0.05mm;fill:none" r="4" cx="0" cy="0"/>
    <circle transform="matrix(0.707107,0.707107,0.707107,-0.707107,188.793228,85.251038)" style="stroke:#ff0000;stroke-width:0.05mm;fill:none" r="0.75" cx="0" cy="0"/>
    <circle transform="matrix(0.707107,0.707107,0.707107,-0.707107,166.895416,141.116882)" style="stroke:#ff0000;stroke-width:0.05mm;fill:none" r="0.75" cx="0" cy="0"/>
    <path transform="matrix(0.707107,0.707107,0.707107,-0.707107,28.142342,79.223518)" style="stroke:#000000;stroke-width:0.05mm;fill:none" d="M134.586426,58.20554C133.784103,63.110649,131.091644,67.506073,127.086433,70.449226L125.28643,70.449226L125.28643,65.949226L123.486427,65.949226L123.486427,70.449226L121.686432,70.449226L121.686432,65.949226L119.886429,65.949226L119.886429,70.449226L118.086433,70.449226C114.081223,67.506073,111.388763,63.110649,110.586433,58.205544C105.027679,60.901382,100.538597,65.390457,97.842751,70.949219"/>
    <circle transform="matrix(0.707107,0.707107,0.707107,-0.707107,207.7034,114.21627)" style="stroke:#ff0000;stroke-width:0.05mm;fill:none" r="0.75" cx="0" cy="0"/>
    <circle transform="matrix(0.707107,0.707107,0.707107,-0.707107,192.878891,78.864449)" style="stroke:#ff0000;stroke-width:0.05mm;fill:none" r="0.75" cx="0" cy="0"/>
    <circle transform="matrix(0.707107,0.707107,0.707107,-0.707107,193.129791,136.235718)" style="stroke:#ff0000;stroke-width:0.05mm;fill:none" r="0.75" cx="0" cy="0"/>
    <path transform="matrix(0.707107,0.707107,0.707107,-0.707107,28.142342,79.223518)" style="stroke:#000000;stroke-width:0.05mm;fill:none" d="M134.586441,58.20554C140.145203,60.90139,144.634277,65.390472,147.330124,70.949226C142.425018,71.751556,138.029587,74.444016,135.086441,78.449226L135.086426,80.249222L139.586426,80.249222L139.586426,82.049225L135.086426,82.049225L135.086426,83.849228L139.586426,83.849228L139.586426,85.649223L135.086426,85.649223L135.086426,87.449226C138.029587,91.454437,142.425003,94.146896,147.330124,94.949226C144.634277,100.507988,140.145187,104.99707,134.586426,107.692909C133.784103,102.787804,131.091644,98.39238,127.086433,95.449226L125.28643,95.449226L125.28643,99.949226L123.486427,99.949226L123.486427,95.449226L121.686432,95.449226L121.686432,99.949226L119.886429,99.949226L119.886429,95.449226L118.086433,95.449226C114.081223,98.39238,111.388763,102.787804,110.586433,107.692909C105.027679,104.99707,100.538589,100.50798,97.842743,94.949226C102.747864,94.146896,107.14328,91.454437,110.086433,87.449226L110.086433,85.649223L105.586433,85.649223L105.586433,83.849228L110.086433,83.849228L110.086433,82.049225L105.586433,82.049225L105.586433,80.249222L110.086433,80.249222L110.086433,78.449226C107.14328,74.444016,102.747864,71.751556,97.842743,70.949226"/>
    <circle transform="matrix(0.707107,0.707107,0.707107,-0.707107,166.958481,73.826317)" style="stroke:#ff0000;stroke-width:0.05mm;fill:none" r="0.75" cx="0" cy="0"/>
    <circle transform="matrix(0.707107,0.707107,0.707107,-0.707107,140.030289,114.511978)" style="stroke:#ff0000;stroke-width:0.05mm;fill:none" r="0.75" cx="0" cy="0"/>
    <path transform="matrix(0.707107,0.707107,0.707107,-0.707107,28.501835,79.605644)" style="stroke:#ff0000;stroke-width:0.05mm;fill:none" d="M124.836433,107.449226L120.336433,107.449226L120.336433,111.949226L124.836433,111.949226L124.836433,107.449226z"/>
    <circle transform="matrix(0.707107,0.707107,0.707107,-0.707107,139.971603,101.050781)" style="stroke:#ff0000;stroke-width:0.05mm;fill:none" r="0.75" cx="0" cy="0"/>
    <path transform="matrix(0.707107,0.707107,0.707107,-0.707107,28.142342,79.223518)" style="stroke:#000000;stroke-width:0.05mm;fill:none" d="M132.361694,121.220551C146.355896,117.646149,157.283356,106.718681,160.857758,92.72448C161.988647,88.296928,165.97702,85.199226,170.546707,85.199226L170.799255,85.199226C173.384766,85.199226,175.869797,86.200645,177.732895,87.993347C180.493423,90.64959,184.876373,90.59333,187.567841,87.867111C190.259293,85.140884,190.259293,80.757568,187.567841,78.031349C184.876389,75.305122,180.493423,75.248863,177.73288,77.905106C175.869797,79.697807,173.384766,80.699226,170.799255,80.699226L170.546707,80.699226C165.97702,80.699226,161.988647,77.601524,160.857758,73.173973C157.283371,59.179783,146.355896,48.252304,132.361679,44.677898C127.934128,43.547016,124.836433,39.558647,124.836433,34.988956L124.836433,34.736401C124.836433,32.150887,125.837837,29.665861,127.630539,27.802769C130.286789,25.042227,130.23053,20.659267,127.504318,17.967815C124.778091,15.276361,120.394783,15.276361,117.668549,17.967815C114.942329,20.659267,114.88607,25.042227,117.542313,27.802767C119.335007,29.665857,120.336433,32.150887,120.336433,34.736401L120.336433,34.988956C120.336433,39.558647,117.238731,43.547016,112.81118,44.677898C98.816978,48.252293,87.889511,59.179764,84.315109,73.173973C83.184219,77.601524,79.195854,80.699226,74.62616,80.699226L74.373604,80.699226C71.788086,80.699226,69.303062,79.697807,67.439972,77.905106C64.679436,75.248863,60.296474,75.305122,57.605022,78.031342C54.913567,80.757568,54.913567,85.140884,57.605019,87.867111C60.296474,90.59333,64.679428,90.64959,67.439972,87.993347C69.303062,86.200638,71.788094,85.199226,74.373604,85.199226L74.62616,85.199226C79.195854,85.199226,83.184219,88.296928,84.315102,92.72448"/>
    <circle transform="matrix(0.707107,0.707107,0.707107,-0.707107,180.419662,73.767624)" style="stroke:#ff0000;stroke-width:0.05mm;fill:none" r="0.75" cx="0" cy="0"/>
    <circle transform="matrix(0.707107,0.707107,0.707107,-0.707107,131.41066,150.059662)" style="stroke:#ff0000;stroke-width:0.05mm;fill:none" r="4" cx="0" cy="0"/>
    <circle transform="matrix(0.707107,0.707107,0.707107,-0.707107,151.454224,92.677994)" style="stroke:#ff0000;stroke-width:0.05mm;fill:none" r="0.75" cx="0" cy="0"/>
    <circle transform="matrix(0.707107,0.707107,0.707107,-0.707107,202.43898,88.341095)" style="stroke:#ff0000;stroke-width:0.05mm;fill:none" r="0.75" cx="0" cy="0"/>
    <circle transform="matrix(0.707107,0.707107,0.707107,-0.707107,145.236008,126.925949)" style="stroke:#ff0000;stroke-width:0.05mm;fill:none" r="0.75" cx="0" cy="0"/>
    <path transform="matrix(0.707107,0.707107,0.707107,-0.707107,28.501835,79.605644)" style="stroke:#ff0000;stroke-width:0.05mm;fill:none" d="M98.086433,85.199226L98.086433,80.699226L93.586433,80.699226L93.586433,85.199226L98.086433,85.199226z"/>
    <circle transform="matrix(0.707107,0.707107,0.707107,-0.707107,202.60643,126.675629)" style="stroke:#ff0000;stroke-width:0.05mm;fill:none" r="0.75" cx="0" cy="0"/>
    <circle transform="matrix(0.707107,0.707107,0.707107,-0.707107,188.793015,130.016785)" style="stroke:#ff0000;stroke-width:0.05mm;fill:none" r="0.75" cx="0" cy="0"/>
    <circle transform="matrix(0.707107,0.707107,0.707107,-0.707107,216.263351,150.059799)" style="stroke:#ff0000;stroke-width:0.05mm;fill:none" r="4" cx="0" cy="0"/>
    <circle transform="matrix(0.707107,0.707107,0.707107,-0.707107,151.4543,122.589966)" style="stroke:#ff0000;stroke-width:0.05mm;fill:none" r="0.75" cx="0" cy="0"/>
    <path transform="matrix(0.707107,0.707107,0.707107,-0.707107,28.501835,79.605644)" style="stroke:#000000;stroke-width:0.05mm;fill:none" d="M132.361679,121.220558C127.934128,122.35144,124.836433,126.339813,124.836433,130.9095L124.836433,131.162048C124.836433,133.747559,125.837837,136.23259,127.630539,138.095673C130.286789,140.856216,130.23053,145.239182,127.504318,147.930634C124.778091,150.622086,120.394783,150.622086,117.668556,147.930634C114.942329,145.239166,114.886078,140.856216,117.542313,138.095673C119.335007,136.23259,120.336433,133.747559,120.336433,131.162048L120.336433,130.9095C120.336433,126.339813,117.238731,122.35144,112.81118,121.220558C98.816971,117.646156,87.889503,106.718689,84.315109,92.724472"/>
    <circle transform="matrix(0.707107,0.707107,0.707107,-0.707107,158.522552,129.634171)" style="stroke:#ff0000;stroke-width:0.05mm;fill:none" r="0.75" cx="0" cy="0"/>
    <path transform="matrix(0.707107,0.707107,0.707107,-0.707107,28.501835,79.605644)" style="stroke:#ff0000;stroke-width:0.05mm;fill:none" d="M120.336433,58.449226L124.836433,58.449226L124.836433,53.949226L120.336433,53.949226L120.336433,58.449226z"/>
    <circle transform="matrix(0.707107,0.707107,0.707107,-0.707107,207.644699,100.755066)" style="stroke:#ff0000;stroke-width:0.05mm;fill:none" r="0.75" cx="0" cy="0"/>
    <circle transform="matrix(0.707107,0.707107,0.707107,-0.707107,196.219986,92.677788)" style="stroke:#ff0000;stroke-width:0.05mm;fill:none" r="0.75" cx="0" cy="0"/>
    <path transform="matrix(0.707107,0.707107,0.707107,-0.707107,28.501835,79.605644)" style="stroke:#ff0000;stroke-width:0.05mm;fill:none" d="M147.086426,80.699226L147.086426,85.199226L151.586426,85.199226L151.586426,80.699226L147.086426,80.699226z"/>
    <circle transform="matrix(0.707107,0.707107,0.707107,-0.707107,158.88147,85.250755)" style="stroke:#ff0000;stroke-width:0.05mm;fill:none" r="0.75" cx="0" cy="0"/>
    <circle transform="matrix(0.707107,0.707107,0.707107,-0.707107,180.356598,141.058182)" style="stroke:#ff0000;stroke-width:0.05mm;fill:none" r="0.75" cx="0" cy="0"/>
    <circle transform="matrix(0.707107,0.707107,0.707107,-0.707107,196.220261,122.589546)" style="stroke:#ff0000;stroke-width:0.05mm;fill:none" r="0.75" cx="0" cy="0"/>
    <circle transform="matrix(0.707107,0.707107,0.707107,-0.707107,131.410507,65.206963)" style="stroke:#ff0000;stroke-width:0.05mm;fill:none" r="4" cx="0" cy="0"/>
    <circle transform="matrix(0.707107,0.707107,0.707107,-0.707107,154.544861,79.031685)" style="stroke:#ff0000;stroke-width:0.05mm;fill:none" r="0.75" cx="0" cy="0"/>
    <circle transform="matrix(0.707107,0.707107,0.707107,-0.707107,216.263641,65.20668)" style="stroke:#ff0000;stroke-width:0.05mm;fill:none" r="4" cx="0" cy="0"/>
    <circle transform="matrix(0.707107,0.707107,0.707107,-0.707107,154.436188,136.02005)" style="stroke:#ff0000;stroke-width:0.05mm;fill:none" r="0.75" cx="0" cy="0"/>
    <circle transform="matrix(0.707107,0.707107,0.707107,-0.707107,145.06842,88.591553)" style="stroke:#ff0000;stroke-width:0.05mm;fill:none" r="0.75" cx="0" cy="0"/>
    <path transform="matrix(0.707107,0.707107,0.707107,-0.707107,-58.813587,95.10434)" style="stroke:#ff0000;stroke-width:0.05mm;fill:none" d="M124.836433,107.449226L120.336433,107.449226L120.336433,111.949226L124.836433,111.949226L124.836433,107.449226z"/>
    <circle transform="matrix(0.707107,0.707107,0.707107,-0.707107,101.478386,145.514694)" style="stroke:#ff0000;stroke-width:0.05mm;fill:none" r="0.75" cx="0" cy="0"/>
    <circle transform="matrix(0.707107,0.707107,0.707107,-0.707107,120.329712,116.253342)" style="stroke:#ff0000;stroke-width:0.05mm;fill:none" r="0.75" cx="0" cy="0"/>
    <path transform="matrix(0.707107,0.707107,0.707107,-0.707107,-59.172375,94.721512)" style="stroke:#000000;stroke-width:0.05mm;fill:none" d="M134.586426,58.20554C133.784103,63.110649,131.091644,67.506073,127.086433,70.449226L125.28643,70.449226L125.28643,65.949226L123.486427,65.949226L123.486427,70.449226L121.686432,70.449226L121.686432,65.949226L119.886429,65.949226L119.886429,70.449226L118.086433,70.449226C114.081223,67.506073,111.388763,63.110649,110.586433,58.205544C105.027679,60.901382,100.538597,65.390457,97.842751,70.949219"/>
    <path transform="matrix(0.707107,0.707107,0.707107,-0.707107,-58.813587,95.10434)" style="stroke:#ff0000;stroke-width:0.05mm;fill:none" d="M120.336433,58.449226L124.836433,58.449226L124.836433,53.949226L120.336433,53.949226L120.336433,58.449226z"/>
    <circle transform="matrix(0.707107,0.707107,0.707107,-0.707107,105.815063,151.733704)" style="stroke:#ff0000;stroke-width:0.05mm;fill:none" r="0.75" cx="0" cy="0"/>
    <circle transform="matrix(0.707107,0.707107,0.707107,-0.707107,44.095585,165.558701)" style="stroke:#ff0000;stroke-width:0.05mm;fill:none" r="4" cx="0" cy="0"/>
    <path transform="matrix(0.707107,0.707107,0.707107,-0.707107,-59.172375,94.721512)" style="stroke:#000000;stroke-width:0.05mm;fill:none" d="M134.586441,58.20554C140.145203,60.90139,144.634277,65.390472,147.330124,70.949226C142.425018,71.751556,138.029587,74.444016,135.086441,78.449226L135.086426,80.249222L139.586426,80.249222L139.586426,82.049225L135.086426,82.049225L135.086426,83.849228L139.586426,83.849228L139.586426,85.649223L135.086426,85.649223L135.086426,87.449226C138.029587,91.454437,142.425003,94.146896,147.330124,94.949226C144.634277,100.507988,140.145187,104.99707,134.586426,107.692909C133.784103,102.787804,131.091644,98.39238,127.086433,95.449226L125.28643,95.449226L125.28643,99.949226L123.486427,99.949226L123.486427,95.449226L121.686432,95.449226L121.686432,99.949226L119.886429,99.949226L119.886429,95.449226L118.086433,95.449226C114.081223,98.39238,111.388763,102.787804,110.586433,107.692909C105.027679,104.99707,100.538589,100.50798,97.842743,94.949226C102.747864,94.146896,107.14328,91.454437,110.086433,87.449226L110.086433,85.649223L105.586433,85.649223L105.586433,83.849228L110.086433,83.849228L110.086433,82.049225L105.586433,82.049225L105.586433,80.249222L110.086433,80.249222L110.086433,78.449226C107.14328,74.444016,102.747864,71.751556,97.842743,70.949226"/>
    <circle transform="matrix(0.707107,0.707107,0.707107,-0.707107,101.477959,100.749023)" style="stroke:#ff0000;stroke-width:0.05mm;fill:none" r="0.75" cx="0" cy="0"/>
    <circle transform="matrix(0.707107,0.707107,0.707107,-0.707107,57.920307,142.424362)" style="stroke:#ff0000;stroke-width:0.05mm;fill:none" r="0.75" cx="0" cy="0"/>
    <circle transform="matrix(0.707107,0.707107,0.707107,-0.707107,67.230072,94.530167)" style="stroke:#ff0000;stroke-width:0.05mm;fill:none" r="0.75" cx="0" cy="0"/>
    <circle transform="matrix(0.707107,0.707107,0.707107,-0.707107,52.714657,130.010452)" style="stroke:#ff0000;stroke-width:0.05mm;fill:none" r="0.75" cx="0" cy="0"/>
    <circle transform="matrix(0.707107,0.707107,0.707107,-0.707107,52.655964,116.549263)" style="stroke:#ff0000;stroke-width:0.05mm;fill:none" r="0.75" cx="0" cy="0"/>
    <circle transform="matrix(0.707107,0.707107,0.707107,-0.707107,64.139313,138.087662)" style="stroke:#ff0000;stroke-width:0.05mm;fill:none" r="0.75" cx="0" cy="0"/>
    <circle transform="matrix(0.707107,0.707107,0.707107,-0.707107,115.291435,142.173904)" style="stroke:#ff0000;stroke-width:0.05mm;fill:none" r="0.75" cx="0" cy="0"/>
    <circle transform="matrix(0.707107,0.707107,0.707107,-0.707107,93.104889,89.266106)" style="stroke:#ff0000;stroke-width:0.05mm;fill:none" r="0.75" cx="0" cy="0"/>
    <circle transform="matrix(0.707107,0.707107,0.707107,-0.707107,79.579979,156.61557)" style="stroke:#ff0000;stroke-width:0.05mm;fill:none" r="0.75" cx="0" cy="0"/>
    <circle transform="matrix(0.707107,0.707107,0.707107,-0.707107,44.095585,80.705864)" style="stroke:#ff0000;stroke-width:0.05mm;fill:none" r="4" cx="0" cy="0"/>
    <circle transform="matrix(0.707107,0.707107,0.707107,-0.707107,108.905128,138.087952)" style="stroke:#ff0000;stroke-width:0.05mm;fill:none" r="0.75" cx="0" cy="0"/>
    <circle transform="matrix(0.707107,0.707107,0.707107,-0.707107,64.139313,108.175629)" style="stroke:#ff0000;stroke-width:0.05mm;fill:none" r="0.75" cx="0" cy="0"/>
    <circle transform="matrix(0.707107,0.707107,0.707107,-0.707107,67.121613,151.518173)" style="stroke:#ff0000;stroke-width:0.05mm;fill:none" r="0.75" cx="0" cy="0"/>
    <circle transform="matrix(0.707107,0.707107,0.707107,-0.707107,79.643768,89.324867)" style="stroke:#ff0000;stroke-width:0.05mm;fill:none" r="0.75" cx="0" cy="0"/>
    <circle transform="matrix(0.707107,0.707107,0.707107,-0.707107,93.041176,156.556885)" style="stroke:#ff0000;stroke-width:0.05mm;fill:none" r="0.75" cx="0" cy="0"/>
    <circle transform="matrix(0.707107,0.707107,0.707107,-0.707107,115.124275,103.839653)" style="stroke:#ff0000;stroke-width:0.05mm;fill:none" r="0.75" cx="0" cy="0"/>
    <circle transform="matrix(0.707107,0.707107,0.707107,-0.707107,57.753075,104.090317)" style="stroke:#ff0000;stroke-width:0.05mm;fill:none" r="0.75" cx="0" cy="0"/>
    <circle transform="matrix(0.707107,0.707107,0.707107,-0.707107,105.564117,94.36293)" style="stroke:#ff0000;stroke-width:0.05mm;fill:none" r="0.75" cx="0" cy="0"/>
    <path transform="matrix(0.707107,0.707107,0.707107,-0.707107,-59.172375,94.721512)" style="stroke:#000000;stroke-width:0.05mm;fill:none" d="M132.361694,121.220551C146.355896,117.646149,157.283356,106.718681,160.857758,92.72448C161.988647,88.296928,165.97702,85.199226,170.546707,85.199226L170.799255,85.199226C173.384766,85.199226,175.869797,86.200645,177.732895,87.993347C180.493423,90.64959,184.876373,90.59333,187.567841,87.867111C190.259293,85.140884,190.259293,80.757568,187.567841,78.031349C184.876389,75.305122,180.493423,75.248863,177.73288,77.905106C175.869797,79.697807,173.384766,80.699226,170.799255,80.699226L170.546707,80.699226C165.97702,80.699226,161.988647,77.601524,160.857758,73.173973C157.283371,59.179783,146.355896,48.252304,132.361679,44.677898C127.934128,43.547016,124.836433,39.558647,124.836433,34.988956L124.836433,34.736401C124.836433,32.150887,125.837837,29.665861,127.630539,27.802769C130.286789,25.042227,130.23053,20.659267,127.504318,17.967815C124.778091,15.276361,120.394783,15.276361,117.668549,17.967815C114.942329,20.659267,114.88607,25.042227,117.542313,27.802767C119.335007,29.665857,120.336433,32.150887,120.336433,34.736401L120.336433,34.988956C120.336433,39.558647,117.238731,43.547016,112.81118,44.677898C98.816978,48.252293,87.889511,59.179764,84.315109,73.173973C83.184219,77.601524,79.195854,80.699226,74.62616,80.699226L74.373604,80.699226C71.788086,80.699226,69.303062,79.697807,67.439972,77.905106C64.679436,75.248863,60.296474,75.305122,57.605022,78.031342C54.913567,80.757568,54.913567,85.140884,57.605019,87.867111C60.296474,90.59333,64.679428,90.64959,67.439972,87.993347C69.303062,86.200638,71.788094,85.199226,74.373604,85.199226L74.62616,85.199226C79.195854,85.199226,83.184219,88.296928,84.315102,92.72448"/>
    <circle transform="matrix(0.707107,0.707107,0.707107,-0.707107,71.206985,145.132721)" style="stroke:#ff0000;stroke-width:0.05mm;fill:none" r="0.75" cx="0" cy="0"/>
    <circle transform="matrix(0.707107,0.707107,0.707107,-0.707107,128.948074,165.55835)" style="stroke:#ff0000;stroke-width:0.05mm;fill:none" r="4" cx="0" cy="0"/>
    <circle transform="matrix(0.707107,0.707107,0.707107,-0.707107,128.94899,80.705299)" style="stroke:#ff0000;stroke-width:0.05mm;fill:none" r="4" cx="0" cy="0"/>
    <path transform="matrix(0.707107,0.707107,0.707107,-0.707107,-58.813587,95.10434)" style="stroke:#ff0000;stroke-width:0.05mm;fill:none" d="M98.086433,85.199226L98.086433,80.699226L93.586433,80.699226L93.586433,85.199226L98.086433,85.199226z"/>
    <circle transform="matrix(0.707107,0.707107,0.707107,-0.707107,108.905197,108.176262)" style="stroke:#ff0000;stroke-width:0.05mm;fill:none" r="0.75" cx="0" cy="0"/>
    <circle transform="matrix(0.707107,0.707107,0.707107,-0.707107,120.388405,129.714539)" style="stroke:#ff0000;stroke-width:0.05mm;fill:none" r="0.75" cx="0" cy="0"/>
    <circle transform="matrix(0.707107,0.707107,0.707107,-0.707107,71.566055,100.748886)" style="stroke:#ff0000;stroke-width:0.05mm;fill:none" r="0.75" cx="0" cy="0"/>
    <path transform="matrix(0.707107,0.707107,0.707107,-0.707107,-58.813587,95.10434)" style="stroke:#000000;stroke-width:0.05mm;fill:none" d="M132.361679,121.220558C127.934128,122.35144,124.836433,126.339813,124.836433,130.9095L124.836433,131.162048C124.836433,133.747559,125.837837,136.23259,127.630539,138.095673C130.286789,140.856216,130.23053,145.239182,127.504318,147.930634C124.778091,150.622086,120.394783,150.622086,117.668556,147.930634C114.942329,145.239166,114.886078,140.856216,117.542313,138.095673C119.335007,136.23259,120.336433,133.747559,120.336433,131.162048L120.336433,130.9095C120.336433,126.339813,117.238731,122.35144,112.81118,121.220558C98.816971,117.646156,87.889503,106.718689,84.315109,92.724472"/>
    <path transform="matrix(0.707107,0.707107,0.707107,-0.707107,-58.813587,95.10434)" style="stroke:#ff0000;stroke-width:0.05mm;fill:none" d="M147.086426,80.699226L147.086426,85.199226L151.586426,85.199226L151.586426,80.699226L147.086426,80.699226z"/>
    <path transform="matrix(-0,-0.999996,-0.999996,0,-140.489777,-182.562531)" style="stroke:#000000;stroke-width:0.05mm;fill:none" d="M24.687235,146.260696L33.687233,146.260696L33.687233,134.760696L31.887234,134.760696L31.887234,132.260696L33.687233,132.260696L33.687233,123.260696L31.887234,123.260696L31.887234,120.760696L33.687233,120.760696L33.687233,109.260696L24.687235,109.260696L24.687235,120.760696L26.487234,120.760696L26.487234,123.260696L24.687235,123.260696L24.687235,132.260696L26.487234,132.260696L26.487234,134.760696L24.687235,134.760696L24.687235,146.260696z"/>
    <circle transform="matrix(-0,-0.999996,-0.999996,0,-279.249237,-211.749283)" style="stroke:#ff0000;stroke-width:0.05mm;fill:none" r="1" cx="0" cy="0"/>
    <circle transform="matrix(-0,-0.999996,-0.999996,0,-256.249329,-211.749298)" style="stroke:#ff0000;stroke-width:0.05mm;fill:none" r="1" cx="0" cy="0"/>
    <path transform="matrix(-0,-0.999996,-0.999996,0,-140.489777,-182.562531)" style="stroke:#ff0000;stroke-width:0.05mm;fill:none" d="M28.287235,123.260696L30.087234,123.260696L30.087234,120.760696L28.287235,120.760696L28.287235,123.260696z"/>
    <path transform="matrix(-0,-0.999996,-0.999996,0,-140.489777,-182.562531)" style="stroke:#ff0000;stroke-width:0.05mm;fill:none" d="M28.287235,132.260696L30.087234,132.260696L30.087234,134.760696L28.287235,134.760696L28.287235,132.260696z"/>
    <path transform="matrix(-0,-0.999996,-0.999996,0,-140.489777,-172.562531)" style="stroke:#000000;stroke-width:0.05mm;fill:none" d="M24.687235,146.260696L33.687233,146.260696L33.687233,134.760696L31.887234,134.760696L31.887234,132.260696L33.687233,132.260696L33.687233,123.260696L31.887234,123.260696L31.887234,120.760696L33.687233,120.760696L33.687233,109.260696L24.687235,109.260696L24.687235,120.760696L26.487234,120.760696L26.487234,123.260696L24.687235,123.260696L24.687235,132.260696L26.487234,132.260696L26.487234,134.760696L24.687235,134.760696L24.687235,146.260696z"/>
    <circle transform="matrix(-0,-0.999996,-0.999996,0,-279.249237,-201.749283)" style="stroke:#ff0000;stroke-width:0.05mm;fill:none" r="1" cx="0" cy="0"/>
    <circle transform="matrix(-0,-0.999996,-0.999996,0,-256.249329,-201.749298)" style="stroke:#ff0000;stroke-width:0.05mm;fill:none" r="1" cx="0" cy="0"/>
    <path transform="matrix(-0,-0.999996,-0.999996,0,-140.489777,-172.562531)" style="stroke:#ff0000;stroke-width:0.05mm;fill:none" d="M28.287235,123.260696L30.087234,123.260696L30.087234,120.760696L28.287235,120.760696L28.287235,123.260696z"/>
    <path transform="matrix(-0,-0.999996,-0.999996,0,-140.489777,-172.562531)" style="stroke:#ff0000;stroke-width:0.05mm;fill:none" d="M28.287235,132.260696L30.087234,132.260696L30.087234,134.760696L28.287235,134.760696L28.287235,132.260696z"/>
    <path transform="matrix(1,0,0,-1,-326.25,-43.75)" style="stroke:#ff0000;stroke-width:0.05mm;fill:none" d="M64.999969,172.499954L64.999977,153.500046"/>
    <circle transform="matrix(-0,-1,-1,0,36.999981,-4.249981)" style="stroke:#ff0000;stroke-width:0.05mm;fill:none" r="1" cx="0" cy="0"/>
    <circle transform="matrix(-0,-1,-1,0,32.999981,-4.24998)" style="stroke:#ff0000;stroke-width:0.05mm;fill:none" r="1" cx="0" cy="0"/>
    <circle transform="matrix(-0,-1,-1,0,52.999676,-4.249984)" style="stroke:#ff0000;stroke-width:0.05mm;fill:none" r="1" cx="0" cy="0"/>
    <circle transform="matrix(-0,-1,-1,0,44.999981,-4.249982)" style="stroke:#ff0000;stroke-width:0.05mm;fill:none" r="1" cx="0" cy="0"/>
    <path transform="matrix(-0,-1,-1,0,172.830276,-0.000003)" style="stroke:#000000;stroke-width:0.05mm;fill:none" d="M0,127.830688C0.552285,127.830688,1,128.278397,1,128.830688C1,129.38298,0.552285,129.830688,0,129.830688L0,130.830688C0.552285,130.830688,1,131.278397,1,131.830688C1,132.38298,0.552285,132.830688,0,132.830688L0,133.830688C0.552285,133.830688,1,134.278397,1,134.830688C1,135.38298,0.552285,135.830688,0,135.830688L0,136.830688C0.552285,136.830688,1,137.278397,1,137.830688C1,138.38298,0.552285,138.830688,0,138.830688L0,139.830688C0.552285,139.830688,1,140.278397,1,140.830688C1,141.38298,0.552285,141.830688,0,141.830688L0,142.830688C0.552285,142.830688,1,143.278397,1,143.830688C1,144.38298,0.552285,144.830688,0,144.830688L0,145.830688C0.552285,145.830688,1,146.278397,1,146.830688C1,147.38298,0.552285,147.830688,0,147.830688L0,148.830688C0.552285,148.830688,1,149.278397,1,149.830688C1,150.38298,0.552285,150.830688,0,150.830688L0,151.830688C0.552285,151.830688,1,152.278397,1,152.830688C1,153.38298,0.552285,153.830688,0,153.830688L0,154.830688C0.552285,154.830688,1,155.278397,1,155.830688C1,156.38298,0.552285,156.830688,0,156.830688L0,158.830688L2,158.830688L2,172.830688L6.5,172.830688L6.5,158.830688L8.5,158.830688L8.5,156.830688C7.947715,156.830688,7.5,156.38298,7.5,155.830688C7.5,155.278397,7.947715,154.830688,8.5,154.830688L8.5,153.830688C7.947715,153.830688,7.5,153.38298,7.5,152.830688C7.5,152.278397,7.947715,151.830688,8.5,151.830688L8.5,150.830688C7.947715,150.830688,7.5,150.38298,7.5,149.830688C7.5,149.278397,7.947715,148.830688,8.5,148.830688L8.5,147.830688C7.947715,147.830688,7.5,147.38298,7.5,146.830688C7.5,146.278397,7.947715,145.830688,8.5,145.830688L8.5,144.830688C7.947715,144.830688,7.5,144.38298,7.5,143.830688C7.5,143.278397,7.947715,142.830688,8.5,142.830688L8.5,141.830688C7.947715,141.830688,7.5,141.38298,7.5,140.830688C7.5,140.278397,7.947715,139.830688,8.5,139.830688L8.5,138.830688C7.947715,138.830688,7.5,138.38298,7.5,137.830688C7.5,137.278397,7.947715,136.830688,8.5,136.830688L8.5,135.830688C7.947715,135.830688,7.5,135.38298,7.5,134.830688C7.5,134.278397,7.947715,133.830688,8.5,133.830688L8.5,132.830688C7.947715,132.830688,7.5,132.38298,7.5,131.830688C7.5,131.278397,7.947715,130.830688,8.5,130.830688L8.5,129.830688C7.947715,129.830688,7.5,129.38298,7.5,128.830688C7.5,128.278397,7.947715,127.830688,8.5,127.830688L8.5,126.830704C7.947715,126.830704,7.5,126.38298,7.5,125.830704C7.5,125.278412,7.947715,124.830704,8.5,124.830704L8.5,123.830704C7.947715,123.830704,7.5,123.38298,7.5,122.830704C7.5,122.278412,7.947715,121.830704,8.5,121.830704L8.5,120.830704C7.947715,120.830704,7.5,120.38298,7.5,119.830704C7.5,119.278412,7.947715,118.830704,8.5,118.830704L8.5,116.830704L6.5,116.830704L6.5,102.830704L2,102.830704L2,116.830704L0,116.830704L0,118.830704C0.552285,118.830704,1,119.278412,1,119.830704C1,120.38298,0.552285,120.830704,0.000001,120.830704L0,121.830704C0.552285,121.830704,1,122.278412,1,122.830704C1,123.38298,0.552285,123.830704,0.000001,123.830704L0,124.830704C0.552285,124.830704,1,125.278412,1,125.830704C1,126.38298,0.552285,126.830704,0.000001,126.830704L0,127.830704"/>
    <circle transform="matrix(-0,-1,-1,0,48.999981,-4.249983)" style="stroke:#ff0000;stroke-width:0.05mm;fill:none" r="1" cx="0" cy="0"/>
    <circle transform="matrix(-0,-1,-1,0,20.999979,-4.249979)" style="stroke:#ff0000;stroke-width:0.05mm;fill:none" r="1" cx="0" cy="0"/>
    <circle transform="matrix(-0,-1,-1,0,24.999979,-4.249979)" style="stroke:#ff0000;stroke-width:0.05mm;fill:none" r="1" cx="0" cy="0"/>
    <circle transform="matrix(-0,-1,-1,0,28.999979,-4.24998)" style="stroke:#ff0000;stroke-width:0.05mm;fill:none" r="1" cx="0" cy="0"/>
    <circle transform="matrix(-0,-1,-1,0,16.999979,-4.249978)" style="stroke:#ff0000;stroke-width:0.05mm;fill:none" r="1" cx="0" cy="0"/>
    <circle transform="matrix(-0,-1,-1,0,40.999981,-4.249982)" style="stroke:#ff0000;stroke-width:0.05mm;fill:none" r="1" cx="0" cy="0"/>
    <circle transform="matrix(-0,-1,-1,0,-202.999619,-4.249981)" style="stroke:#ff0000;stroke-width:0.05mm;fill:none" r="1" cx="0" cy="0"/>
    <circle transform="matrix(-0,-1,-1,0,-206.999619,-4.24998)" style="stroke:#ff0000;stroke-width:0.05mm;fill:none" r="1" cx="0" cy="0"/>
    <circle transform="matrix(-0,-1,-1,0,-186.999924,-4.249984)" style="stroke:#ff0000;stroke-width:0.05mm;fill:none" r="1" cx="0" cy="0"/>
    <circle transform="matrix(-0,-1,-1,0,-194.999619,-4.249982)" style="stroke:#ff0000;stroke-width:0.05mm;fill:none" r="1" cx="0" cy="0"/>
    <path transform="matrix(-0,-1,-1,0,-67.169319,-0.000003)" style="stroke:#000000;stroke-width:0.05mm;fill:none" d="M0,127.830688C0.552285,127.830688,1,128.278397,1,128.830688C1,129.38298,0.552285,129.830688,0,129.830688L0,130.830688C0.552285,130.830688,1,131.278397,1,131.830688C1,132.38298,0.552285,132.830688,0,132.830688L0,133.830688C0.552285,133.830688,1,134.278397,1,134.830688C1,135.38298,0.552285,135.830688,0,135.830688L0,136.830688C0.552285,136.830688,1,137.278397,1,137.830688C1,138.38298,0.552285,138.830688,0,138.830688L0,139.830688C0.552285,139.830688,1,140.278397,1,140.830688C1,141.38298,0.552285,141.830688,0,141.830688L0,142.830688C0.552285,142.830688,1,143.278397,1,143.830688C1,144.38298,0.552285,144.830688,0,144.830688L0,145.830688C0.552285,145.830688,1,146.278397,1,146.830688C1,147.38298,0.552285,147.830688,0,147.830688L0,148.830688C0.552285,148.830688,1,149.278397,1,149.830688C1,150.38298,0.552285,150.830688,0,150.830688L0,151.830688C0.552285,151.830688,1,152.278397,1,152.830688C1,153.38298,0.552285,153.830688,0,153.830688L0,154.830688C0.552285,154.830688,1,155.278397,1,155.830688C1,156.38298,0.552285,156.830688,0,156.830688L0,158.830688L2,158.830688L2,172.830688L6.5,172.830688L6.5,158.830688L8.5,158.830688L8.5,156.830688C7.947715,156.830688,7.5,156.38298,7.5,155.830688C7.5,155.278397,7.947715,154.830688,8.5,154.830688L8.5,153.830688C7.947715,153.830688,7.5,153.38298,7.5,152.830688C7.5,152.278397,7.947715,151.830688,8.5,151.830688L8.5,150.830688C7.947715,150.830688,7.5,150.38298,7.5,149.830688C7.5,149.278397,7.947715,148.830688,8.5,148.830688L8.5,147.830688C7.947715,147.830688,7.5,147.38298,7.5,146.830688C7.5,146.278397,7.947715,145.830688,8.5,145.830688L8.5,144.830688C7.947715,144.830688,7.5,144.38298,7.5,143.830688C7.5,143.278397,7.947715,142.830688,8.5,142.830688L8.5,141.830688C7.947715,141.830688,7.5,141.38298,7.5,140.830688C7.5,140.278397,7.947715,139.830688,8.5,139.830688L8.5,138.830688C7.947715,138.830688,7.5,138.38298,7.5,137.830688C7.5,137.278397,7.947715,136.830688,8.5,136.830688L8.5,135.830688C7.947715,135.830688,7.5,135.38298,7.5,134.830688C7.5,134.278397,7.947715,133.830688,8.5,133.830688L8.5,132.830688C7.947715,132.830688,7.5,132.38298,7.5,131.830688C7.5,131.278397,7.947715,130.830688,8.5,130.830688L8.5,129.830688C7.947715,129.830688,7.5,129.38298,7.5,128.830688C7.5,128.278397,7.947715,127.830688,8.5,127.830688L8.5,126.830704C7.947715,126.830704,7.5,126.38298,7.5,125.830704C7.5,125.278412,7.947715,124.830704,8.5,124.830704L8.5,123.830704C7.947715,123.830704,7.5,123.38298,7.5,122.830704C7.5,122.278412,7.947715,121.830704,8.5,121.830704L8.5,120.830704C7.947715,120.830704,7.5,120.38298,7.5,119.830704C7.5,119.278412,7.947715,118.830704,8.5,118.830704L8.5,116.830704L6.5,116.830704L6.5,102.830704L2,102.830704L2,116.830704L0,116.830704L0,118.830704C0.552285,118.830704,1,119.278412,1,119.830704C1,120.38298,0.552285,120.830704,0.000001,120.830704L0,121.830704C0.552285,121.830704,1,122.278412,1,122.830704C1,123.38298,0.552285,123.830704,0.000001,123.830704L0,124.830704C0.552285,124.830704,1,125.278412,1,125.830704C1,126.38298,0.552285,126.830704,0.000001,126.830704L0,127.830704"/>
    <circle transform="matrix(-0,-1,-1,0,-190.999619,-4.249983)" style="stroke:#ff0000;stroke-width:0.05mm;fill:none" r="1" cx="0" cy="0"/>
    <circle transform="matrix(-0,-1,-1,0,-218.999619,-4.249979)" style="stroke:#ff0000;stroke-width:0.05mm;fill:none" r="1" cx="0" cy="0"/>
    <circle transform="matrix(-0,-1,-1,0,-214.999619,-4.249979)" style="stroke:#ff0000;stroke-width:0.05mm;fill:none" r="1" cx="0" cy="0"/>
    <circle transform="matrix(-0,-1,-1,0,-210.999619,-4.24998)" style="stroke:#ff0000;stroke-width:0.05mm;fill:none" r="1" cx="0" cy="0"/>
    <circle transform="matrix(-0,-1,-1,0,-222.999619,-4.249978)" style="stroke:#ff0000;stroke-width:0.05mm;fill:none" r="1" cx="0" cy="0"/>
    <circle transform="matrix(-0,-1,-1,0,-198.999619,-4.249982)" style="stroke:#ff0000;stroke-width:0.05mm;fill:none" r="1" cx="0" cy="0"/>
    <circle transform="matrix(-0,-1,-1,0,-202.999619,-14.249981)" style="stroke:#ff0000;stroke-width:0.05mm;fill:none" r="1" cx="0" cy="0"/>
    <circle transform="matrix(-0,-1,-1,0,-206.999619,-14.249981)" style="stroke:#ff0000;stroke-width:0.05mm;fill:none" r="1" cx="0" cy="0"/>
    <circle transform="matrix(-0,-1,-1,0,-186.999924,-14.249984)" style="stroke:#ff0000;stroke-width:0.05mm;fill:none" r="1" cx="0" cy="0"/>
    <circle transform="matrix(-0,-1,-1,0,-194.999619,-14.249983)" style="stroke:#ff0000;stroke-width:0.05mm;fill:none" r="1" cx="0" cy="0"/>
    <path transform="matrix(-0,-1,-1,0,-67.169319,-10.000003)" style="stroke:#000000;stroke-width:0.05mm;fill:none" d="M0,127.830688C0.552285,127.830688,1,128.278397,1,128.830688C1,129.38298,0.552285,129.830688,0,129.830688L0,130.830688C0.552285,130.830688,1,131.278397,1,131.830688C1,132.38298,0.552285,132.830688,0,132.830688L0,133.830688C0.552285,133.830688,1,134.278397,1,134.830688C1,135.38298,0.552285,135.830688,0,135.830688L0,136.830688C0.552285,136.830688,1,137.278397,1,137.830688C1,138.38298,0.552285,138.830688,0,138.830688L0,139.830688C0.552285,139.830688,1,140.278397,1,140.830688C1,141.38298,0.552285,141.830688,0,141.830688L0,142.830688C0.552285,142.830688,1,143.278397,1,143.830688C1,144.38298,0.552285,144.830688,0,144.830688L0,145.830688C0.552285,145.830688,1,146.278397,1,146.830688C1,147.38298,0.552285,147.830688,0,147.830688L0,148.830688C0.552285,148.830688,1,149.278397,1,149.830688C1,150.38298,0.552285,150.830688,0,150.830688L0,151.830688C0.552285,151.830688,1,152.278397,1,152.830688C1,153.38298,0.552285,153.830688,0,153.830688L0,154.830688C0.552285,154.830688,1,155.278397,1,155.830688C1,156.38298,0.552285,156.830688,0,156.830688L0,158.830688L2,158.830688L2,172.830688L6.5,172.830688L6.5,158.830688L8.5,158.830688L8.5,156.830688C7.947715,156.830688,7.5,156.38298,7.5,155.830688C7.5,155.278397,7.947715,154.830688,8.5,154.830688L8.5,153.830688C7.947715,153.830688,7.5,153.38298,7.5,152.830688C7.5,152.278397,7.947715,151.830688,8.5,151.830688L8.5,150.830688C7.947715,150.830688,7.5,150.38298,7.5,149.830688C7.5,149.278397,7.947715,148.830688,8.5,148.830688L8.5,147.830688C7.947715,147.830688,7.5,147.38298,7.5,146.830688C7.5,146.278397,7.947715,145.830688,8.5,145.830688L8.5,144.830688C7.947715,144.830688,7.5,144.38298,7.5,143.830688C7.5,143.278397,7.947715,142.830688,8.5,142.830688L8.5,141.830688C7.947715,141.830688,7.5,141.38298,7.5,140.830688C7.5,140.278397,7.947715,139.830688,8.5,139.830688L8.5,138.830688C7.947715,138.830688,7.5,138.38298,7.5,137.830688C7.5,137.278397,7.947715,136.830688,8.5,136.830688L8.5,135.830688C7.947715,135.830688,7.5,135.38298,7.5,134.830688C7.5,134.278397,7.947715,133.830688,8.5,133.830688L8.5,132.830688C7.947715,132.830688,7.5,132.38298,7.5,131.830688C7.5,131.278397,7.947715,130.830688,8.5,130.830688L8.5,129.830688C7.947715,129.830688,7.5,129.38298,7.5,128.830688C7.5,128.278397,7.947715,127.830688,8.5,127.830688L8.5,126.830704C7.947715,126.830704,7.5,126.38298,7.5,125.830704C7.5,125.278412,7.947715,124.830704,8.5,124.830704L8.5,123.830704C7.947715,123.830704,7.5,123.38298,7.5,122.830704C7.5,122.278412,7.947715,121.830704,8.5,121.830704L8.5,120.830704C7.947715,120.830704,7.5,120.38298,7.5,119.830704C7.5,119.278412,7.947715,118.830704,8.5,118.830704L8.5,116.830704L6.5,116.830704L6.5,102.830704L2,102.830704L2,116.830704L0,116.830704L0,118.830704C0.552285,118.830704,1,119.278412,1,119.830704C1,120.38298,0.552285,120.830704,0.000001,120.830704L0,121.830704C0.552285,121.830704,1,122.278412,1,122.830704C1,123.38298,0.552285,123.830704,0.000001,123.830704L0,124.830704C0.552285,124.830704,1,125.278412,1,125.830704C1,126.38298,0.552285,126.830704,0.000001,126.830704L0,127.830704"/>
    <circle transform="matrix(-0,-1,-1,0,-190.999619,-14.249983)" style="stroke:#ff0000;stroke-width:0.05mm;fill:none" r="1" cx="0" cy="0"/>
    <circle transform="matrix(-0,-1,-1,0,-218.999619,-14.249979)" style="stroke:#ff0000;stroke-width:0.05mm;fill:none" r="1" cx="0" cy="0"/>
    <circle transform="matrix(-0,-1,-1,0,-214.999619,-14.249979)" style="stroke:#ff0000;stroke-width:0.05mm;fill:none" r="1" cx="0" cy="0"/>
    <circle transform="matrix(-0,-1,-1,0,-210.999619,-14.24998)" style="stroke:#ff0000;stroke-width:0.05mm;fill:none" r="1" cx="0" cy="0"/>
    <circle transform="matrix(-0,-1,-1,0,-222.999619,-14.249978)" style="stroke:#ff0000;stroke-width:0.05mm;fill:none" r="1" cx="0" cy="0"/>
    <circle transform="matrix(-0,-1,-1,0,-198.999619,-14.249982)" style="stroke:#ff0000;stroke-width:0.05mm;fill:none" r="1" cx="0" cy="0"/>
    <circle transform="matrix(-0,-1,-1,0,-202.999619,-24.249981)" style="stroke:#ff0000;stroke-width:0.05mm;fill:none" r="1" cx="0" cy="0"/>
    <circle transform="matrix(-0,-1,-1,0,-206.999619,-24.249981)" style="stroke:#ff0000;stroke-width:0.05mm;fill:none" r="1" cx="0" cy="0"/>
    <circle transform="matrix(-0,-1,-1,0,-186.999924,-24.249985)" style="stroke:#ff0000;stroke-width:0.05mm;fill:none" r="1" cx="0" cy="0"/>
    <circle transform="matrix(-0,-1,-1,0,-194.999619,-24.249983)" style="stroke:#ff0000;stroke-width:0.05mm;fill:none" r="1" cx="0" cy="0"/>
    <path transform="matrix(-0,-1,-1,0,-67.169319,-20.000004)" style="stroke:#000000;stroke-width:0.05mm;fill:none" d="M0,127.830688C0.552285,127.830688,1,128.278397,1,128.830688C1,129.38298,0.552285,129.830688,0,129.830688L0,130.830688C0.552285,130.830688,1,131.278397,1,131.830688C1,132.38298,0.552285,132.830688,0,132.830688L0,133.830688C0.552285,133.830688,1,134.278397,1,134.830688C1,135.38298,0.552285,135.830688,0,135.830688L0,136.830688C0.552285,136.830688,1,137.278397,1,137.830688C1,138.38298,0.552285,138.830688,0,138.830688L0,139.830688C0.552285,139.830688,1,140.278397,1,140.830688C1,141.38298,0.552285,141.830688,0,141.830688L0,142.830688C0.552285,142.830688,1,143.278397,1,143.830688C1,144.38298,0.552285,144.830688,0,144.830688L0,145.830688C0.552285,145.830688,1,146.278397,1,146.830688C1,147.38298,0.552285,147.830688,0,147.830688L0,148.830688C0.552285,148.830688,1,149.278397,1,149.830688C1,150.38298,0.552285,150.830688,0,150.830688L0,151.830688C0.552285,151.830688,1,152.278397,1,152.830688C1,153.38298,0.552285,153.830688,0,153.830688L0,154.830688C0.552285,154.830688,1,155.278397,1,155.830688C1,156.38298,0.552285,156.830688,0,156.830688L0,158.830688L2,158.830688L2,172.830688L6.5,172.830688L6.5,158.830688L8.5,158.830688L8.5,156.830688C7.947715,156.830688,7.5,156.38298,7.5,155.830688C7.5,155.278397,7.947715,154.830688,8.5,154.830688L8.5,153.830688C7.947715,153.830688,7.5,153.38298,7.5,152.830688C7.5,152.278397,7.947715,151.830688,8.5,151.830688L8.5,150.830688C7.947715,150.830688,7.5,150.38298,7.5,149.830688C7.5,149.278397,7.947715,148.830688,8.5,148.830688L8.5,147.830688C7.947715,147.830688,7.5,147.38298,7.5,146.830688C7.5,146.278397,7.947715,145.830688,8.5,145.830688L8.5,144.830688C7.947715,144.830688,7.5,144.38298,7.5,143.830688C7.5,143.278397,7.947715,142.830688,8.5,142.830688L8.5,141.830688C7.947715,141.830688,7.5,141.38298,7.5,140.830688C7.5,140.278397,7.947715,139.830688,8.5,139.830688L8.5,138.830688C7.947715,138.830688,7.5,138.38298,7.5,137.830688C7.5,137.278397,7.947715,136.830688,8.5,136.830688L8.5,135.830688C7.947715,135.830688,7.5,135.38298,7.5,134.830688C7.5,134.278397,7.947715,133.830688,8.5,133.830688L8.5,132.830688C7.947715,132.830688,7.5,132.38298,7.5,131.830688C7.5,131.278397,7.947715,130.830688,8.5,130.830688L8.5,129.830688C7.947715,129.830688,7.5,129.38298,7.5,128.830688C7.5,128.278397,7.947715,127.830688,8.5,127.830688L8.5,126.830704C7.947715,126.830704,7.5,126.38298,7.5,125.830704C7.5,125.278412,7.947715,124.830704,8.5,124.830704L8.5,123.830704C7.947715,123.830704,7.5,123.38298,7.5,122.830704C7.5,122.278412,7.947715,121.830704,8.5,121.830704L8.5,120.830704C7.947715,120.830704,7.5,120.38298,7.5,119.830704C7.5,119.278412,7.947715,118.830704,8.5,118.830704L8.5,116.830704L6.5,116.830704L6.5,102.830704L2,102.830704L2,116.830704L0,116.830704L0,118.830704C0.552285,118.830704,1,119.278412,1,119.830704C1,120.38298,0.552285,120.830704,0.000001,120.830704L0,121.830704C0.552285,121.830704,1,122.278412,1,122.830704C1,123.38298,0.552285,123.830704,0.000001,123.830704L0,124.830704C0.552285,124.830704,1,125.278412,1,125.830704C1,126.38298,0.552285,126.830704,0.000001,126.830704L0,127.830704"/>
    <circle transform="matrix(-0,-1,-1,0,-190.999619,-24.249983)" style="stroke:#ff0000;stroke-width:0.05mm;fill:none" r="1" cx="0" cy="0"/>
    <circle transform="matrix(-0,-1,-1,0,-218.999619,-24.249979)" style="stroke:#ff0000;stroke-width:0.05mm;fill:none" r="1" cx="0" cy="0"/>
    <circle transform="matrix(-0,-1,-1,0,-214.999619,-24.249979)" style="stroke:#ff0000;stroke-width:0.05mm;fill:none" r="1" cx="0" cy="0"/>
    <circle transform="matrix(-0,-1,-1,0,-210.999619,-24.249979)" style="stroke:#ff0000;stroke-width:0.05mm;fill:none" r="1" cx="0" cy="0"/>
    <circle transform="matrix(-0,-1,-1,0,-222.999619,-24.249977)" style="stroke:#ff0000;stroke-width:0.05mm;fill:none" r="1" cx="0" cy="0"/>
    <circle transform="matrix(-0,-1,-1,0,-198.999619,-24.249981)" style="stroke:#ff0000;stroke-width:0.05mm;fill:none" r="1" cx="0" cy="0"/>
    <path transform="matrix(1,0,0,-1,-33.423996,20.511999)" style="stroke:#000000;stroke-width:0.05mm;fill:none" d="M75.952888,34.762005L75.952888,30.262007L80.452888,30.262007L80.452888,34.762005C85.691544,34.762005,90.778145,36.52298,94.895462,39.762005L94.895462,42.762005L90.395462,42.762005C84.524422,42.762009,79.067055,39.739075,75.952896,34.762009"/>
    <circle transform="matrix(1,0,0,-1,59.222,-20.25)" style="stroke:#ff0000;stroke-width:0.05mm;fill:none" r="0.9" cx="0" cy="0"/>
    <path transform="matrix(1,0,0,-1,-3.423996,27.511999)" style="stroke:#000000;stroke-width:0.05mm;fill:none" d="M75.952888,34.762005L75.952888,30.262007L80.452888,30.262007L80.452888,34.762005C85.691544,34.762005,90.778145,36.52298,94.895462,39.762005L94.895462,42.762005L90.395462,42.762005C84.524422,42.762009,79.067055,39.739075,75.952896,34.762009"/>
    <circle transform="matrix(1,0,0,-1,89.222,-13.25)" style="stroke:#ff0000;stroke-width:0.05mm;fill:none" r="0.9" cx="0" cy="0"/>
    <path transform="matrix(1,0,0,-1,16.576004,27.511999)" style="stroke:#000000;stroke-width:0.05mm;fill:none" d="M75.952888,34.762005L75.952888,30.262007L80.452888,30.262007L80.452888,34.762005C85.691544,34.762005,90.778145,36.52298,94.895462,39.762005L94.895462,42.762005L90.395462,42.762005C84.524422,42.762009,79.067055,39.739075,75.952896,34.762009"/>
    <circle transform="matrix(1,0,0,-1,109.222,-13.25)" style="stroke:#ff0000;stroke-width:0.05mm;fill:none" r="0.9" cx="0" cy="0"/>
    <path transform="matrix(1,0,0,-1,-73.095001,20.0474)" style="stroke:#000000;stroke-width:0.05mm;fill:none" d="M75.952888,34.762005L75.952888,30.262007L80.452888,30.262007L80.452888,34.762005C85.691544,34.762005,90.778145,36.52298,94.895462,39.762005L94.895462,42.762005L90.395462,42.762005C84.524422,42.762009,79.067055,39.739075,75.952896,34.762009"/>
    <circle transform="matrix(1,0,0,-1,19.550995,-20.7146)" style="stroke:#ff0000;stroke-width:0.05mm;fill:none" r="0.9" cx="0" cy="0"/>
    <path transform="matrix(1,0,0,-1,-53.095001,20.0474)" style="stroke:#000000;stroke-width:0.05mm;fill:none" d="M75.952888,34.762005L75.952888,30.262007L80.452888,30.262007L80.452888,34.762005C85.691544,34.762005,90.778145,36.52298,94.895462,39.762005L94.895462,42.762005L90.395462,42.762005C84.524422,42.762009,79.067055,39.739075,75.952896,34.762009"/>
    <circle transform="matrix(1,0,0,-1,39.550995,-20.7146)" style="stroke:#ff0000;stroke-width:0.05mm;fill:none" r="0.9" cx="0" cy="0"/>
</svg>
