<?xml version="1.0" encoding="UTF-8"?>
<svg xmlns="http://www.w3.org/2000/svg" xmlns:xlink="http://www.w3.org/1999/xlink" width="292.000mm" height="533.577mm" viewBox="0.000096 -219.577026 292.000183 533.577026">
    <path transform="matrix(1,0,0,-1,108.500008,257.400208)" style="stroke:#ff0000;stroke-width:0.05mm;fill:none" d="M57.727055,47.292686L56.004982,51.450146L60.162437,53.172218L61.884514,49.014763L57.727055,47.292686z"/>
    <path transform="matrix(1,0,0,-1,108.500008,257.400208)" style="stroke:#ff0000;stroke-width:0.05mm;fill:none" d="M46.499752,35.399998C48.344151,32.735588,50.911644,30.653837,53.899746,29.400002"/>
    <path transform="matrix(1,0,0,-1,108.500008,257.400208)" style="stroke:#ff0000;stroke-width:0.05mm;fill:none" d="M26.607313,63.627056L24.885239,67.784515L20.727781,66.062439L22.449856,61.90498L26.607313,63.627056z"/>
    <path transform="matrix(1,0,0,-1,108.500008,257.400208)" style="stroke:#ff0000;stroke-width:0.05mm;fill:none" d="M46.499748,35.400002L46.499748,37.200001L51,37.200001L51,39L46.499748,39L46.499748,40.799999L51,40.799999L51,42.599998L46.499748,42.599998L46.499748,44.400002C48.344147,47.064407,50.911644,49.146164,53.89975,50.400002C51.784714,54.408447,48.508442,57.684715,44.5,59.799751C43.246162,56.811649,41.16441,54.244156,38.500008,52.399757"/>
    <path transform="matrix(1,0,0,-1,108.500008,257.400208)" style="stroke:#ff0000;stroke-width:0.05mm;fill:none" d="M9.25,42.150002L9.25,37.650002L4.75,37.650002L4.75,42.150002L9.25,42.150002z"/>
    <path transform="matrix(1,0,0,-1,108.500008,257.400208)" style="stroke:#ff0000;stroke-width:0.05mm;fill:none" d="M31.75,15.15L36.25,15.15L36.25,10.65L31.75,10.65L31.75,15.15z"/>
    <path transform="matrix(1,0,0,-1,108.500008,257.400208)" style="stroke:#ff0000;stroke-width:0.05mm;fill:none" d="M38.5,52.39975L36.700001,52.39975L36.700001,56.900002L34.900002,56.900002L34.900002,52.39975L33.099998,52.39975L33.099998,56.900002L31.299999,56.900002L31.299999,52.39975L29.5,52.39975C26.83559,54.244152,24.753838,56.811646,23.5,59.799755C19.491558,57.684715,16.215286,54.408443,14.100254,50.400005C17.088356,49.146164,19.655853,47.064407,21.500252,44.400002L21.500252,42.599998L17,42.599998L17,40.799999L21.500252,40.799999L21.500252,39L17,39L17,37.200001L21.500252,37.200001L21.500252,35.400002C19.655853,32.735588,17.088356,30.653835,14.100249,29.399998C16.215284,25.391562,19.491558,22.11529,23.499994,20.000256C24.753841,22.988359,26.835594,25.555855,29.500004,27.400253L31.299999,27.400251L31.299999,22.9L33.099998,22.9L33.099998,27.400251L34.900002,27.400251L34.900002,22.9L36.700001,22.9L36.700001,27.400251L38.5,27.400251C41.16441,25.555855,43.246166,22.988356,44.5,20.00025C48.508442,22.115286,51.78471,25.391554,53.89975,29.399998"/>
    <path transform="matrix(1,0,0,-1,108.500008,257.400208)" style="stroke:#ff0000;stroke-width:0.05mm;fill:none" d="M36.25,64.650002L31.75,64.650002L31.75,69.150002L36.25,69.150002L36.25,64.650002z"/>
    <path transform="matrix(1,0,0,-1,108.500008,257.400208)" style="stroke:#ff0000;stroke-width:0.05mm;fill:none" d="M45.550144,17.89502L41.392685,16.172943L43.114761,12.015486L47.272221,13.737561L45.550144,17.89502z"/>
    <path transform="matrix(1,0,0,-1,108.500008,257.400208)" style="stroke:#ff0000;stroke-width:0.05mm;fill:none" d="M58.75,37.650002L58.75,42.150002L63.25,42.150002L63.25,37.650002L58.75,37.650002z"/>
    <path transform="matrix(1,0,0,-1,108.500008,257.400208)" style="stroke:#ff0000;stroke-width:0.05mm;fill:none" d="M10.272943,47.292686L6.115486,49.014763L7.837562,53.172218L11.995019,51.450146L10.272943,47.292686z"/>
    <path transform="matrix(1,0,0,-1,108.500008,257.400208)" style="stroke:#ff0000;stroke-width:0.05mm;fill:none" d="M14.908117,23.990097L18.090097,20.808117L14.908117,17.626137L11.726136,20.808117L14.908117,23.990097z"/>
    <path transform="matrix(1,0,0,-1,108.500008,257.400208)" style="stroke:#ff0000;stroke-width:0.05mm;fill:none" d="M57.727055,32.507313L56.004982,28.349855L60.162437,26.627781L61.884514,30.785238L57.727055,32.507313z"/>
    <circle transform="matrix(1,0,0,-1,142.5,217.500198)" style="stroke:#000000;stroke-width:0.05mm;fill:none" r="31.5" cx="0" cy="0"/>
    <path transform="matrix(1,0,0,-1,108.500008,257.400208)" style="stroke:#ff0000;stroke-width:0.05mm;fill:none" d="M49.909904,20.808117L53.091885,23.990097L56.273865,20.808117L53.091885,17.626137L49.909904,20.808117z"/>
    <path transform="matrix(1,0,0,-1,108.500008,257.400208)" style="stroke:#ff0000;stroke-width:0.05mm;fill:none" d="M53.091885,55.809902L49.909904,58.991882L53.091885,62.173862L56.273865,58.991882L53.091885,55.809902z"/>
    <path transform="matrix(1,0,0,-1,108.500008,257.400208)" style="stroke:#ff0000;stroke-width:0.05mm;fill:none" d="M45.550144,61.90498L41.392685,63.627056L43.114761,67.784515L47.272221,66.062439L45.550144,61.90498z"/>
    <path transform="matrix(1,0,0,-1,108.500008,257.400208)" style="stroke:#ff0000;stroke-width:0.05mm;fill:none" d="M14.908117,55.809902L18.090097,58.991882L14.908117,62.173862L11.726136,58.991882L14.908117,55.809902z"/>
    <path transform="matrix(1,0,0,-1,108.500008,257.400208)" style="stroke:#ff0000;stroke-width:0.05mm;fill:none" d="M10.272943,32.507313L6.115486,30.785238L7.837562,26.627781L11.995019,28.349855L10.272943,32.507313z"/>
    <path transform="matrix(1,0,0,-1,108.500008,257.400208)" style="stroke:#ff0000;stroke-width:0.05mm;fill:none" d="M26.607313,16.172943L24.885239,12.015486L20.727781,13.737561L22.449856,17.89502L26.607313,16.172943z"/>
    <path transform="matrix(-0,1,1,0,225.100769,-324.958008)" style="stroke:#ff0000;stroke-width:0.05mm;fill:none" d="M151.707581,52.874542L149.207581,52.874542L149.207581,50.874542L151.707581,50.874542L151.707581,52.874542z"/>
    <path transform="matrix(-0,1,1,0,225.100769,-324.958008)" style="stroke:#ff0000;stroke-width:0.05mm;fill:none" d="M158.007584,40.874542L158.007584,38.374542L160.10759,38.374542L160.10759,40.874542L158.007584,40.874542z"/>
    <circle transform="matrix(-0,1,1,0,262.000336,-187.999985)" style="stroke:#ff0000;stroke-width:0.05mm;fill:none" r="1.400002" cx="0" cy="0"/>
    <path transform="matrix(-0,1,1,0,225.100769,-324.958008)" style="stroke:#ff0000;stroke-width:0.05mm;fill:none" d="M162.207581,50.874542L164.707581,50.874542L164.707581,52.874542L162.207581,52.874542L162.207581,50.874542z"/>
    <path transform="matrix(-0,1,1,0,225.100769,-324.958008)" style="stroke:#ff0000;stroke-width:0.05mm;fill:none" d="M151.707581,48.874542L149.207581,48.874542L149.207581,46.874542L151.707581,46.874542L151.707581,48.874542z"/>
    <path transform="matrix(-0,1,1,0,225.100769,-324.958008)" style="stroke:#000000;stroke-width:0.05mm;fill:none" d="M147.707581,32.899544L166.207581,32.899544L166.207581,66.899544L147.707581,66.899544L147.707581,32.899544z"/>
    <path transform="matrix(-0,1,1,0,225.100769,-324.958008)" style="stroke:#ff0000;stroke-width:0.05mm;fill:none" d="M153.807587,40.874542L153.807587,38.374542L155.907593,38.374542L155.907593,40.874542L153.807587,40.874542z"/>
    <path transform="matrix(-0,1,1,0,225.100769,-324.958008)" style="stroke:#ff0000;stroke-width:0.05mm;fill:none" d="M162.207581,46.874542L164.707581,46.874542L164.707581,48.874542L162.207581,48.874542L162.207581,46.874542z"/>
    <path transform="matrix(-0,1,1,0,225.100769,-344.958008)" style="stroke:#000000;stroke-width:0.05mm;fill:none" d="M147.707581,32.899544L166.207581,32.899544L166.207581,66.899544L147.707581,66.899544L147.707581,32.899544z"/>
    <circle transform="matrix(-0,1,1,0,288.000336,-187.999985)" style="stroke:#ff0000;stroke-width:0.05mm;fill:none" r="1.400002" cx="0" cy="0"/>
    <circle transform="matrix(-0,1,1,0,288.000336,-167.999985)" style="stroke:#ff0000;stroke-width:0.05mm;fill:none" r="1.400002" cx="0" cy="0"/>
    <circle transform="matrix(-0,1,1,0,262.000336,-167.999985)" style="stroke:#ff0000;stroke-width:0.05mm;fill:none" r="1.400002" cx="0" cy="0"/>
    <circle transform="matrix(1,0,0,-1,141.5,282.5)" style="stroke:#000000;stroke-width:0.05mm;fill:none" r="22.5" cx="0" cy="0"/>
    <circle transform="matrix(1,0,0,-1,146.751007,256.096985)" style="stroke:#ff0000;stroke-width:0.05mm;fill:none" r="0.75" cx="0" cy="0"/>
    <path transform="matrix(1,0,0,-1,-99.408997,322.399994)" style="stroke:#ff0000;stroke-width:0.05mm;fill:none" d="M217.181808,32.507313L213.024353,30.785238L214.746429,26.627781L218.903885,28.349855L217.181808,32.507313z"/>
    <circle transform="matrix(1,0,0,-1,115.097,287.752014)" style="stroke:#ff0000;stroke-width:0.05mm;fill:none" r="0.75" cx="0" cy="0"/>
    <path transform="matrix(1,0,0,-1,-99.408997,322.399994)" style="stroke:#ff0000;stroke-width:0.05mm;fill:none" d="M233.516174,63.627056L231.794098,67.784515L227.636642,66.062439L229.358719,61.90498L233.516174,63.627056z"/>
    <path transform="matrix(1,0,0,-1,-99.408997,322.399994)" style="stroke:#ff0000;stroke-width:0.05mm;fill:none" d="M262.913849,28.349855L267.071289,26.627781L268.793365,30.785238L264.635925,32.507313L262.913849,28.349855z"/>
    <path transform="matrix(1,0,0,-1,-99.408997,322.399994)" style="stroke:#ff0000;stroke-width:0.05mm;fill:none" d="M221.816986,23.990097L224.998962,20.808117L221.816986,17.626137L218.634995,20.808117L221.816986,23.990097z"/>
    <circle transform="matrix(1,0,0,-1,167.902008,277.247986)" style="stroke:#ff0000;stroke-width:0.05mm;fill:none" r="0.75" cx="0" cy="0"/>
    <path transform="matrix(1,0,0,-1,-99.408997,322.399994)" style="stroke:#ff0000;stroke-width:0.05mm;fill:none" d="M243.158859,64.650002L238.658859,64.650002L238.658859,69.150002L243.158859,69.150002L243.158859,64.650002z"/>
    <path transform="matrix(1,0,0,-1,-99.408997,322.399994)" style="stroke:#ff0000;stroke-width:0.05mm;fill:none" d="M262.913849,51.450146L267.071289,53.172218L268.793365,49.014763L264.635925,47.292686L262.913849,51.450146z"/>
    <path transform="matrix(1,0,0,-1,-99.408997,322.399994)" style="stroke:#ff0000;stroke-width:0.05mm;fill:none" d="M217.181808,47.292686L213.024353,49.014763L214.746429,53.172218L218.903885,51.450146L217.181808,47.292686z"/>
    <circle transform="matrix(1,0,0,-1,115.097,277.247986)" style="stroke:#ff0000;stroke-width:0.05mm;fill:none" r="0.75" cx="0" cy="0"/>
    <path transform="matrix(1,0,0,-1,-99.408997,322.399994)" style="stroke:#ff0000;stroke-width:0.05mm;fill:none" d="M265.658875,37.650002L265.658875,42.150002L270.158875,42.150002L270.158875,37.650002L265.658875,37.650002z"/>
    <path transform="matrix(1,0,0,-1,-99.408997,322.399994)" style="stroke:#ff0000;stroke-width:0.05mm;fill:none" d="M248.301544,63.627056L250.023621,67.784515L254.181076,66.062439L252.459,61.90498L248.301544,63.627056z"/>
    <path transform="matrix(1,0,0,-1,-99.408997,322.399994)" style="stroke:#ff0000;stroke-width:0.05mm;fill:none" d="M260.000732,23.990097L256.818756,20.808117L260.000732,17.626137L263.182739,20.808117L260.000732,23.990097z"/>
    <path transform="matrix(1,0,0,-1,-99.408997,322.399994)" style="stroke:#ff0000;stroke-width:0.05mm;fill:none" d="M238.658859,15.15L243.158859,15.15L243.158859,10.65L238.658859,10.65L238.658859,15.15z"/>
    <path transform="matrix(1,0,0,-1,-99.408997,322.399994)" style="stroke:#ff0000;stroke-width:0.05mm;fill:none" d="M260.000732,55.809902L256.818756,58.991882L260.000732,62.173862L263.182739,58.991882L260.000732,55.809902z"/>
    <path transform="matrix(1,0,0,-1,-99.408997,322.399994)" style="stroke:#ff0000;stroke-width:0.05mm;fill:none" d="M248.301544,16.172943L250.023621,12.015486L254.181076,13.737561L252.459,17.89502L248.301544,16.172943z"/>
    <circle transform="matrix(1,0,0,-1,141.5,282.5)" style="stroke:#000000;stroke-width:0.05mm;fill:none" r="31.5" cx="0" cy="0"/>
    <path transform="matrix(1,0,0,-1,-99.408997,322.399994)" style="stroke:#ff0000;stroke-width:0.05mm;fill:none" d="M221.816986,55.809902L224.998962,58.991882L221.816986,62.173862L218.634995,58.991882L221.816986,55.809902z"/>
    <path transform="matrix(1,0,0,-1,-99.408997,322.399994)" style="stroke:#ff0000;stroke-width:0.05mm;fill:none" d="M233.516174,16.172943L231.794098,12.015486L227.636642,13.737561L229.358719,17.89502L233.516174,16.172943z"/>
    <circle transform="matrix(1,0,0,-1,146.751007,308.903015)" style="stroke:#ff0000;stroke-width:0.05mm;fill:none" r="0.75" cx="0" cy="0"/>
    <path transform="matrix(1,0,0,-1,-99.408997,322.399994)" style="stroke:#ff0000;stroke-width:0.05mm;fill:none" d="M216.158859,42.150002L216.158859,37.650002L211.658859,37.650002L211.658859,42.150002L216.158859,42.150002z"/>
    <circle transform="matrix(1,0,0,-1,136.248001,256.096985)" style="stroke:#ff0000;stroke-width:0.05mm;fill:none" r="0.75" cx="0" cy="0"/>
    <circle transform="matrix(1,0,0,-1,167.902008,287.752014)" style="stroke:#ff0000;stroke-width:0.05mm;fill:none" r="0.75" cx="0" cy="0"/>
    <circle transform="matrix(1,0,0,-1,136.248001,308.903015)" style="stroke:#ff0000;stroke-width:0.05mm;fill:none" r="0.75" cx="0" cy="0"/>
    <path transform="matrix(-0,-1,-1,0,175.393158,332.924988)" style="stroke:#000000;stroke-width:0.05mm;fill:none" d="M79.92511,53.893032L81.725105,53.893032L81.725105,49.393032L83.525108,49.393032L83.525108,53.893032L85.325104,53.893032L85.325104,49.393032L87.125107,49.393032L87.125107,53.893032L88.92511,53.893032L88.92511,64.393036L79.92511,64.393036L79.92511,53.893032z"/>
    <circle transform="matrix(-0,-1,-1,0,116.500053,248.499008)" style="stroke:#ff0000;stroke-width:0.05mm;fill:none" r="1" cx="0" cy="0"/>
    <path transform="matrix(-0,-1,-1,0,223.393158,334.925964)" style="stroke:#000000;stroke-width:0.05mm;fill:none" d="M79.92511,53.893032L81.725105,53.893032L81.725105,49.393032L83.525108,49.393032L83.525108,53.893032L85.325104,53.893032L85.325104,49.393032L87.125107,49.393032L87.125107,53.893032L88.92511,53.893032L88.92511,64.393036L79.92511,64.393036L79.92511,53.893032z"/>
    <circle transform="matrix(-0,-1,-1,0,164.500046,250.499985)" style="stroke:#ff0000;stroke-width:0.05mm;fill:none" r="1" cx="0" cy="0"/>
    <path transform="matrix(-0,-1,-1,0,175.393158,265.925995)" style="stroke:#000000;stroke-width:0.05mm;fill:none" d="M79.92511,53.893032L81.725105,53.893032L81.725105,49.393032L83.525108,49.393032L83.525108,53.893032L85.325104,53.893032L85.325104,49.393032L87.125107,49.393032L87.125107,53.893032L88.92511,53.893032L88.92511,64.393036L79.92511,64.393036L79.92511,53.893032z"/>
    <circle transform="matrix(-0,-1,-1,0,116.500053,181.500015)" style="stroke:#ff0000;stroke-width:0.05mm;fill:none" r="1" cx="0" cy="0"/>
    <path transform="matrix(-0,-1,-1,0,175.393158,255.925995)" style="stroke:#000000;stroke-width:0.05mm;fill:none" d="M79.92511,53.893032L81.725105,53.893032L81.725105,49.393032L83.525108,49.393032L83.525108,53.893032L85.325104,53.893032L85.325104,49.393032L87.125107,49.393032L87.125107,53.893032L88.92511,53.893032L88.92511,64.393036L79.92511,64.393036L79.92511,53.893032z"/>
    <circle transform="matrix(-0,-1,-1,0,116.500053,171.500015)" style="stroke:#ff0000;stroke-width:0.05mm;fill:none" r="1" cx="0" cy="0"/>
    <path transform="matrix(-0,-1,-1,0,190.393158,255.925995)" style="stroke:#000000;stroke-width:0.05mm;fill:none" d="M79.92511,53.893032L81.725105,53.893032L81.725105,49.393032L83.525108,49.393032L83.525108,53.893032L85.325104,53.893032L85.325104,49.393032L87.125107,49.393032L87.125107,53.893032L88.92511,53.893032L88.92511,64.393036L79.92511,64.393036L79.92511,53.893032z"/>
    <circle transform="matrix(-0,-1,-1,0,131.500046,171.500015)" style="stroke:#ff0000;stroke-width:0.05mm;fill:none" r="1" cx="0" cy="0"/>
    <path transform="matrix(-0,-1,-1,0,190.393158,265.925995)" style="stroke:#000000;stroke-width:0.05mm;fill:none" d="M79.92511,53.893032L81.725105,53.893032L81.725105,49.393032L83.525108,49.393032L83.525108,53.893032L85.325104,53.893032L85.325104,49.393032L87.125107,49.393032L87.125107,53.893032L88.92511,53.893032L88.92511,64.393036L79.92511,64.393036L79.92511,53.893032z"/>
    <circle transform="matrix(-0,-1,-1,0,131.500046,181.500015)" style="stroke:#ff0000;stroke-width:0.05mm;fill:none" r="1" cx="0" cy="0"/>
    <path transform="matrix(1,0,0,-1,66.575012,172.512207)" style="stroke:#000000;stroke-width:0.05mm;fill:none" d="M75.952888,34.762005L75.952888,30.262007L80.452888,30.262007L80.452888,34.762005C85.691544,34.762005,90.778145,36.52298,94.895462,39.762005L94.895462,42.762005L90.395462,42.762005C84.524422,42.762009,79.067055,39.739075,75.952896,34.762009"/>
    <circle transform="matrix(1,0,0,-1,159.221008,131.750198)" style="stroke:#ff0000;stroke-width:0.05mm;fill:none" r="0.9" cx="0" cy="0"/>
    <path transform="matrix(1,0,0,-1,66.575012,182.512207)" style="stroke:#000000;stroke-width:0.05mm;fill:none" d="M75.952888,34.762005L75.952888,30.262007L80.452888,30.262007L80.452888,34.762005C85.691544,34.762005,90.778145,36.52298,94.895462,39.762005L94.895462,42.762005L90.395462,42.762005C84.524422,42.762009,79.067055,39.739075,75.952896,34.762009"/>
    <circle transform="matrix(1,0,0,-1,159.221008,141.750198)" style="stroke:#ff0000;stroke-width:0.05mm;fill:none" r="0.9" cx="0" cy="0"/>
    <path transform="matrix(1,0,0,-1,66.575012,192.512207)" style="stroke:#000000;stroke-width:0.05mm;fill:none" d="M75.952888,34.762005L75.952888,30.262007L80.452888,30.262007L80.452888,34.762005C85.691544,34.762005,90.778145,36.52298,94.895462,39.762005L94.895462,42.762005L90.395462,42.762005C84.524422,42.762009,79.067055,39.739075,75.952896,34.762009"/>
    <circle transform="matrix(1,0,0,-1,159.221008,151.750198)" style="stroke:#ff0000;stroke-width:0.05mm;fill:none" r="0.9" cx="0" cy="0"/>
    <path transform="matrix(1,0,0,-1,66.575012,202.512207)" style="stroke:#000000;stroke-width:0.05mm;fill:none" d="M75.952888,34.762005L75.952888,30.262007L80.452888,30.262007L80.452888,34.762005C85.691544,34.762005,90.778145,36.52298,94.895462,39.762005L94.895462,42.762005L90.395462,42.762005C84.524422,42.762009,79.067055,39.739075,75.952896,34.762009"/>
    <circle transform="matrix(1,0,0,-1,159.221008,161.750198)" style="stroke:#ff0000;stroke-width:0.05mm;fill:none" r="0.9" cx="0" cy="0"/>
    <path transform="matrix(1,0,0,-1,66.575012,212.512207)" style="stroke:#000000;stroke-width:0.05mm;fill:none" d="M75.952888,34.762005L75.952888,30.262007L80.452888,30.262007L80.452888,34.762005C85.691544,34.762005,90.778145,36.52298,94.895462,39.762005L94.895462,42.762005L90.395462,42.762005C84.524422,42.762009,79.067055,39.739075,75.952896,34.762009"/>
    <circle transform="matrix(1,0,0,-1,159.221008,171.750198)" style="stroke:#ff0000;stroke-width:0.05mm;fill:none" r="0.9" cx="0" cy="0"/>
    <path transform="matrix(1,0,0,-1,46.575012,172.512207)" style="stroke:#000000;stroke-width:0.05mm;fill:none" d="M75.952888,34.762005L75.952888,30.262007L80.452888,30.262007L80.452888,34.762005C85.691544,34.762005,90.778145,36.52298,94.895462,39.762005L94.895462,42.762005L90.395462,42.762005C84.524422,42.762009,79.067055,39.739075,75.952896,34.762009"/>
    <circle transform="matrix(1,0,0,-1,139.221008,131.750198)" style="stroke:#ff0000;stroke-width:0.05mm;fill:none" r="0.9" cx="0" cy="0"/>
    <path transform="matrix(1,0,0,-1,46.575012,182.512207)" style="stroke:#000000;stroke-width:0.05mm;fill:none" d="M75.952888,34.762005L75.952888,30.262007L80.452888,30.262007L80.452888,34.762005C85.691544,34.762005,90.778145,36.52298,94.895462,39.762005L94.895462,42.762005L90.395462,42.762005C84.524422,42.762009,79.067055,39.739075,75.952896,34.762009"/>
    <circle transform="matrix(1,0,0,-1,139.221008,141.750198)" style="stroke:#ff0000;stroke-width:0.05mm;fill:none" r="0.9" cx="0" cy="0"/>
    <path transform="matrix(1,0,0,-1,46.575012,192.512207)" style="stroke:#000000;stroke-width:0.05mm;fill:none" d="M75.952888,34.762005L75.952888,30.262007L80.452888,30.262007L80.452888,34.762005C85.691544,34.762005,90.778145,36.52298,94.895462,39.762005L94.895462,42.762005L90.395462,42.762005C84.524422,42.762009,79.067055,39.739075,75.952896,34.762009"/>
    <circle transform="matrix(1,0,0,-1,139.221008,151.750198)" style="stroke:#ff0000;stroke-width:0.05mm;fill:none" r="0.9" cx="0" cy="0"/>
    <path transform="matrix(1,0,0,-1,86.575005,172.512207)" style="stroke:#000000;stroke-width:0.05mm;fill:none" d="M75.952888,34.762005L75.952888,30.262007L80.452888,30.262007L80.452888,34.762005C85.691544,34.762005,90.778145,36.52298,94.895462,39.762005L94.895462,42.762005L90.395462,42.762005C84.524422,42.762009,79.067055,39.739075,75.952896,34.762009"/>
    <circle transform="matrix(1,0,0,-1,179.221008,131.750198)" style="stroke:#ff0000;stroke-width:0.05mm;fill:none" r="0.9" cx="0" cy="0"/>
    <path transform="matrix(1,0,0,-1,86.575005,182.512207)" style="stroke:#000000;stroke-width:0.05mm;fill:none" d="M75.952888,34.762005L75.952888,30.262007L80.452888,30.262007L80.452888,34.762005C85.691544,34.762005,90.778145,36.52298,94.895462,39.762005L94.895462,42.762005L90.395462,42.762005C84.524422,42.762009,79.067055,39.739075,75.952896,34.762009"/>
    <circle transform="matrix(1,0,0,-1,179.221008,141.750198)" style="stroke:#ff0000;stroke-width:0.05mm;fill:none" r="0.9" cx="0" cy="0"/>
    <path transform="matrix(1,0,0,-1,86.575005,192.512207)" style="stroke:#000000;stroke-width:0.05mm;fill:none" d="M75.952888,34.762005L75.952888,30.262007L80.452888,30.262007L80.452888,34.762005C85.691544,34.762005,90.778145,36.52298,94.895462,39.762005L94.895462,42.762005L90.395462,42.762005C84.524422,42.762009,79.067055,39.739075,75.952896,34.762009"/>
    <circle transform="matrix(1,0,0,-1,179.221008,151.750198)" style="stroke:#ff0000;stroke-width:0.05mm;fill:none" r="0.9" cx="0" cy="0"/>
    <path transform="matrix(1,0,0,-1,86.575005,202.512207)" style="stroke:#000000;stroke-width:0.05mm;fill:none" d="M75.952888,34.762005L75.952888,30.262007L80.452888,30.262007L80.452888,34.762005C85.691544,34.762005,90.778145,36.52298,94.895462,39.762005L94.895462,42.762005L90.395462,42.762005C84.524422,42.762009,79.067055,39.739075,75.952896,34.762009"/>
    <circle transform="matrix(1,0,0,-1,179.221008,161.750198)" style="stroke:#ff0000;stroke-width:0.05mm;fill:none" r="0.9" cx="0" cy="0"/>
    <path transform="matrix(1,0,0,-1,86.575005,212.512207)" style="stroke:#000000;stroke-width:0.05mm;fill:none" d="M75.952888,34.762005L75.952888,30.262007L80.452888,30.262007L80.452888,34.762005C85.691544,34.762005,90.778145,36.52298,94.895462,39.762005L94.895462,42.762005L90.395462,42.762005C84.524422,42.762009,79.067055,39.739075,75.952896,34.762009"/>
    <circle transform="matrix(1,0,0,-1,179.221008,171.750198)" style="stroke:#ff0000;stroke-width:0.05mm;fill:none" r="0.9" cx="0" cy="0"/>
    <path transform="matrix(1,0,0,-1,106.575005,172.512207)" style="stroke:#000000;stroke-width:0.05mm;fill:none" d="M75.952888,34.762005L75.952888,30.262007L80.452888,30.262007L80.452888,34.762005C85.691544,34.762005,90.778145,36.52298,94.895462,39.762005L94.895462,42.762005L90.395462,42.762005C84.524422,42.762009,79.067055,39.739075,75.952896,34.762009"/>
    <circle transform="matrix(1,0,0,-1,199.221008,131.750198)" style="stroke:#ff0000;stroke-width:0.05mm;fill:none" r="0.9" cx="0" cy="0"/>
    <path transform="matrix(1,0,0,-1,106.575005,182.512207)" style="stroke:#000000;stroke-width:0.05mm;fill:none" d="M75.952888,34.762005L75.952888,30.262007L80.452888,30.262007L80.452888,34.762005C85.691544,34.762005,90.778145,36.52298,94.895462,39.762005L94.895462,42.762005L90.395462,42.762005C84.524422,42.762009,79.067055,39.739075,75.952896,34.762009"/>
    <circle transform="matrix(1,0,0,-1,199.221008,141.750198)" style="stroke:#ff0000;stroke-width:0.05mm;fill:none" r="0.9" cx="0" cy="0"/>
    <path transform="matrix(1,0,0,-1,106.575005,192.512207)" style="stroke:#000000;stroke-width:0.05mm;fill:none" d="M75.952888,34.762005L75.952888,30.262007L80.452888,30.262007L80.452888,34.762005C85.691544,34.762005,90.778145,36.52298,94.895462,39.762005L94.895462,42.762005L90.395462,42.762005C84.524422,42.762009,79.067055,39.739075,75.952896,34.762009"/>
    <circle transform="matrix(1,0,0,-1,199.221008,151.750198)" style="stroke:#ff0000;stroke-width:0.05mm;fill:none" r="0.9" cx="0" cy="0"/>
    <path transform="matrix(1,0,0,-1,106.575005,202.512207)" style="stroke:#000000;stroke-width:0.05mm;fill:none" d="M75.952888,34.762005L75.952888,30.262007L80.452888,30.262007L80.452888,34.762005C85.691544,34.762005,90.778145,36.52298,94.895462,39.762005L94.895462,42.762005L90.395462,42.762005C84.524422,42.762009,79.067055,39.739075,75.952896,34.762009"/>
    <circle transform="matrix(1,0,0,-1,199.221008,161.750198)" style="stroke:#ff0000;stroke-width:0.05mm;fill:none" r="0.9" cx="0" cy="0"/>
    <path transform="matrix(1,0,0,-1,106.575005,212.512207)" style="stroke:#000000;stroke-width:0.05mm;fill:none" d="M75.952888,34.762005L75.952888,30.262007L80.452888,30.262007L80.452888,34.762005C85.691544,34.762005,90.778145,36.52298,94.895462,39.762005L94.895462,42.762005L90.395462,42.762005C84.524422,42.762009,79.067055,39.739075,75.952896,34.762009"/>
    <circle transform="matrix(1,0,0,-1,199.221008,171.750198)" style="stroke:#ff0000;stroke-width:0.05mm;fill:none" r="0.9" cx="0" cy="0"/>
    <path transform="matrix(1,0,0,-1,106.575005,222.512207)" style="stroke:#000000;stroke-width:0.05mm;fill:none" d="M75.952888,34.762005L75.952888,30.262007L80.452888,30.262007L80.452888,34.762005C85.691544,34.762005,90.778145,36.52298,94.895462,39.762005L94.895462,42.762005L90.395462,42.762005C84.524422,42.762009,79.067055,39.739075,75.952896,34.762009"/>
    <circle transform="matrix(1,0,0,-1,199.221008,181.750198)" style="stroke:#ff0000;stroke-width:0.05mm;fill:none" r="0.9" cx="0" cy="0"/>
    <path transform="matrix(1,0,0,-1,106.575005,232.512207)" style="stroke:#000000;stroke-width:0.05mm;fill:none" d="M75.952888,34.762005L75.952888,30.262007L80.452888,30.262007L80.452888,34.762005C85.691544,34.762005,90.778145,36.52298,94.895462,39.762005L94.895462,42.762005L90.395462,42.762005C84.524422,42.762009,79.067055,39.739075,75.952896,34.762009"/>
    <circle transform="matrix(1,0,0,-1,199.221008,191.750198)" style="stroke:#ff0000;stroke-width:0.05mm;fill:none" r="0.9" cx="0" cy="0"/>
    <path transform="matrix(1,0,0,-1,106.575005,242.512207)" style="stroke:#000000;stroke-width:0.05mm;fill:none" d="M75.952888,34.762005L75.952888,30.262007L80.452888,30.262007L80.452888,34.762005C85.691544,34.762005,90.778145,36.52298,94.895462,39.762005L94.895462,42.762005L90.395462,42.762005C84.524422,42.762009,79.067055,39.739075,75.952896,34.762009"/>
    <circle transform="matrix(1,0,0,-1,199.221008,201.750198)" style="stroke:#ff0000;stroke-width:0.05mm;fill:none" r="0.9" cx="0" cy="0"/>
    <path transform="matrix(1,0,0,-1,106.575005,252.512207)" style="stroke:#000000;stroke-width:0.05mm;fill:none" d="M75.952888,34.762005L75.952888,30.262007L80.452888,30.262007L80.452888,34.762005C85.691544,34.762005,90.778145,36.52298,94.895462,39.762005L94.895462,42.762005L90.395462,42.762005C84.524422,42.762009,79.067055,39.739075,75.952896,34.762009"/>
    <circle transform="matrix(1,0,0,-1,199.221008,211.750198)" style="stroke:#ff0000;stroke-width:0.05mm;fill:none" r="0.9" cx="0" cy="0"/>
    <path transform="matrix(1,0,0,-1,106.575005,262.512207)" style="stroke:#000000;stroke-width:0.05mm;fill:none" d="M75.952888,34.762005L75.952888,30.262007L80.452888,30.262007L80.452888,34.762005C85.691544,34.762005,90.778145,36.52298,94.895462,39.762005L94.895462,42.762005L90.395462,42.762005C84.524422,42.762009,79.067055,39.739075,75.952896,34.762009"/>
    <circle transform="matrix(1,0,0,-1,199.221008,221.750198)" style="stroke:#ff0000;stroke-width:0.05mm;fill:none" r="0.9" cx="0" cy="0"/>
    <path transform="matrix(1,0,0,-1,106.575005,272.512207)" style="stroke:#000000;stroke-width:0.05mm;fill:none" d="M75.952888,34.762005L75.952888,30.262007L80.452888,30.262007L80.452888,34.762005C85.691544,34.762005,90.778145,36.52298,94.895462,39.762005L94.895462,42.762005L90.395462,42.762005C84.524422,42.762009,79.067055,39.739075,75.952896,34.762009"/>
    <circle transform="matrix(1,0,0,-1,199.221008,231.750198)" style="stroke:#ff0000;stroke-width:0.05mm;fill:none" r="0.9" cx="0" cy="0"/>
    <path transform="matrix(1,0,0,-1,106.575005,282.512207)" style="stroke:#000000;stroke-width:0.05mm;fill:none" d="M75.952888,34.762005L75.952888,30.262007L80.452888,30.262007L80.452888,34.762005C85.691544,34.762005,90.778145,36.52298,94.895462,39.762005L94.895462,42.762005L90.395462,42.762005C84.524422,42.762009,79.067055,39.739075,75.952896,34.762009"/>
    <circle transform="matrix(1,0,0,-1,199.221008,241.750198)" style="stroke:#ff0000;stroke-width:0.05mm;fill:none" r="0.9" cx="0" cy="0"/>
    <path transform="matrix(1,0,0,-1,106.575005,292.512207)" style="stroke:#000000;stroke-width:0.05mm;fill:none" d="M75.952888,34.762005L75.952888,30.262007L80.452888,30.262007L80.452888,34.762005C85.691544,34.762005,90.778145,36.52298,94.895462,39.762005L94.895462,42.762005L90.395462,42.762005C84.524422,42.762009,79.067055,39.739075,75.952896,34.762009"/>
    <circle transform="matrix(1,0,0,-1,199.221008,251.750198)" style="stroke:#ff0000;stroke-width:0.05mm;fill:none" r="0.9" cx="0" cy="0"/>
    <path transform="matrix(1,0,0,-1,106.575005,292.512207)" style="stroke:#000000;stroke-width:0.05mm;fill:none" d="M75.952888,34.762005L75.952888,30.262007L80.452888,30.262007L80.452888,34.762005C85.691544,34.762005,90.778145,36.52298,94.895462,39.762005L94.895462,42.762005L90.395462,42.762005C84.524422,42.762009,79.067055,39.739075,75.952896,34.762009"/>
    <circle transform="matrix(1,0,0,-1,199.221008,251.750198)" style="stroke:#ff0000;stroke-width:0.05mm;fill:none" r="0.9" cx="0" cy="0"/>
    <path transform="matrix(1,0,0,-1,106.575005,302.512207)" style="stroke:#000000;stroke-width:0.05mm;fill:none" d="M75.952888,34.762005L75.952888,30.262007L80.452888,30.262007L80.452888,34.762005C85.691544,34.762005,90.778145,36.52298,94.895462,39.762005L94.895462,42.762005L90.395462,42.762005C84.524422,42.762009,79.067055,39.739075,75.952896,34.762009"/>
    <circle transform="matrix(1,0,0,-1,199.221008,261.750214)" style="stroke:#ff0000;stroke-width:0.05mm;fill:none" r="0.9" cx="0" cy="0"/>
    <path transform="matrix(1,0,0,-1,106.575005,312.512207)" style="stroke:#000000;stroke-width:0.05mm;fill:none" d="M75.952888,34.762005L75.952888,30.262007L80.452888,30.262007L80.452888,34.762005C85.691544,34.762005,90.778145,36.52298,94.895462,39.762005L94.895462,42.762005L90.395462,42.762005C84.524422,42.762009,79.067055,39.739075,75.952896,34.762009"/>
    <circle transform="matrix(1,0,0,-1,199.221008,271.750214)" style="stroke:#ff0000;stroke-width:0.05mm;fill:none" r="0.9" cx="0" cy="0"/>
    <path transform="matrix(1,0,0,-1,106.575005,322.512207)" style="stroke:#000000;stroke-width:0.05mm;fill:none" d="M75.952888,34.762005L75.952888,30.262007L80.452888,30.262007L80.452888,34.762005C85.691544,34.762005,90.778145,36.52298,94.895462,39.762005L94.895462,42.762005L90.395462,42.762005C84.524422,42.762009,79.067055,39.739075,75.952896,34.762009"/>
    <circle transform="matrix(1,0,0,-1,199.221008,281.750214)" style="stroke:#ff0000;stroke-width:0.05mm;fill:none" r="0.9" cx="0" cy="0"/>
    <path transform="matrix(1,0,0,-1,106.575005,332.512207)" style="stroke:#000000;stroke-width:0.05mm;fill:none" d="M75.952888,34.762005L75.952888,30.262007L80.452888,30.262007L80.452888,34.762005C85.691544,34.762005,90.778145,36.52298,94.895462,39.762005L94.895462,42.762005L90.395462,42.762005C84.524422,42.762009,79.067055,39.739075,75.952896,34.762009"/>
    <circle transform="matrix(1,0,0,-1,199.221008,291.750214)" style="stroke:#ff0000;stroke-width:0.05mm;fill:none" r="0.9" cx="0" cy="0"/>
    <path transform="matrix(1,0,0,-1,106.575005,342.512207)" style="stroke:#000000;stroke-width:0.05mm;fill:none" d="M75.952888,34.762005L75.952888,30.262007L80.452888,30.262007L80.452888,34.762005C85.691544,34.762005,90.778145,36.52298,94.895462,39.762005L94.895462,42.762005L90.395462,42.762005C84.524422,42.762009,79.067055,39.739075,75.952896,34.762009"/>
    <circle transform="matrix(1,0,0,-1,199.221008,301.750214)" style="stroke:#ff0000;stroke-width:0.05mm;fill:none" r="0.9" cx="0" cy="0"/>
    <path transform="matrix(-0,1,1,0,225.100769,-204.958008)" style="stroke:#ff0000;stroke-width:0.05mm;fill:none" d="M151.707581,52.874542L149.207581,52.874542L149.207581,50.874542L151.707581,50.874542L151.707581,52.874542z"/>
    <path transform="matrix(-0,1,1,0,225.100769,-204.958008)" style="stroke:#ff0000;stroke-width:0.05mm;fill:none" d="M158.007584,40.874542L158.007584,38.374542L160.10759,38.374542L160.10759,40.874542L158.007584,40.874542z"/>
    <circle transform="matrix(-0,1,1,0,262.000336,-67.999992)" style="stroke:#ff0000;stroke-width:0.05mm;fill:none" r="1.400002" cx="0" cy="0"/>
    <path transform="matrix(-0,1,1,0,225.100769,-204.958008)" style="stroke:#ff0000;stroke-width:0.05mm;fill:none" d="M162.207581,50.874542L164.707581,50.874542L164.707581,52.874542L162.207581,52.874542L162.207581,50.874542z"/>
    <path transform="matrix(-0,1,1,0,225.100769,-204.958008)" style="stroke:#ff0000;stroke-width:0.05mm;fill:none" d="M151.707581,48.874542L149.207581,48.874542L149.207581,46.874542L151.707581,46.874542L151.707581,48.874542z"/>
    <path transform="matrix(-0,1,1,0,225.100769,-204.958008)" style="stroke:#000000;stroke-width:0.05mm;fill:none" d="M147.707581,32.899544L166.207581,32.899544L166.207581,66.899544L147.707581,66.899544L147.707581,32.899544z"/>
    <path transform="matrix(-0,1,1,0,225.100769,-204.958008)" style="stroke:#ff0000;stroke-width:0.05mm;fill:none" d="M153.807587,40.874542L153.807587,38.374542L155.907593,38.374542L155.907593,40.874542L153.807587,40.874542z"/>
    <path transform="matrix(-0,1,1,0,225.100769,-204.958008)" style="stroke:#ff0000;stroke-width:0.05mm;fill:none" d="M162.207581,46.874542L164.707581,46.874542L164.707581,48.874542L162.207581,48.874542L162.207581,46.874542z"/>
    <path transform="matrix(-0,1,1,0,225.100769,-224.958008)" style="stroke:#000000;stroke-width:0.05mm;fill:none" d="M147.707581,32.899544L166.207581,32.899544L166.207581,66.899544L147.707581,66.899544L147.707581,32.899544z"/>
    <circle transform="matrix(-0,1,1,0,288.000336,-67.999985)" style="stroke:#ff0000;stroke-width:0.05mm;fill:none" r="1.400002" cx="0" cy="0"/>
    <circle transform="matrix(-0,1,1,0,288.000336,-47.999989)" style="stroke:#ff0000;stroke-width:0.05mm;fill:none" r="1.400002" cx="0" cy="0"/>
    <circle transform="matrix(-0,1,1,0,262.000336,-47.999992)" style="stroke:#ff0000;stroke-width:0.05mm;fill:none" r="1.400002" cx="0" cy="0"/>
    <path transform="matrix(-0,1.00001,1.00001,0,-32.89975,-286.536896)" style="stroke:#ff0000;stroke-width:0.05mm;fill:none" d="M151.707581,52.874542L149.207581,52.874542L149.207581,50.874542L151.707581,50.874542L151.707581,52.874542z"/>
    <path transform="matrix(-0,1.00001,1.00001,0,-32.89975,-286.536896)" style="stroke:#ff0000;stroke-width:0.05mm;fill:none" d="M158.007584,40.874542L158.007584,38.374542L160.10759,38.374542L160.10759,40.874542L158.007584,40.874542z"/>
    <circle transform="matrix(-0,1.00001,1.00001,0,4.000198,-149.577515)" style="stroke:#ff0000;stroke-width:0.05mm;fill:none" r="1.400002" cx="0" cy="0"/>
    <path transform="matrix(-0,1.00001,1.00001,0,-32.89975,-286.536896)" style="stroke:#ff0000;stroke-width:0.05mm;fill:none" d="M162.207581,50.874542L164.707581,50.874542L164.707581,52.874542L162.207581,52.874542L162.207581,50.874542z"/>
    <path transform="matrix(-0,1.00001,1.00001,0,-32.89975,-286.536896)" style="stroke:#ff0000;stroke-width:0.05mm;fill:none" d="M151.707581,48.874542L149.207581,48.874542L149.207581,46.874542L151.707581,46.874542L151.707581,48.874542z"/>
    <path transform="matrix(-0,1.00001,1.00001,0,-32.89975,-286.536896)" style="stroke:#000000;stroke-width:0.05mm;fill:none" d="M147.707581,32.899544L166.207581,32.899544L166.207581,66.899544L147.707581,66.899544L147.707581,32.899544z"/>
    <path transform="matrix(-0,1.00001,1.00001,0,-32.89975,-286.536896)" style="stroke:#ff0000;stroke-width:0.05mm;fill:none" d="M153.807587,40.874542L153.807587,38.374542L155.907593,38.374542L155.907593,40.874542L153.807587,40.874542z"/>
    <path transform="matrix(-0,1.00001,1.00001,0,-32.89975,-286.536896)" style="stroke:#ff0000;stroke-width:0.05mm;fill:none" d="M162.207581,46.874542L164.707581,46.874542L164.707581,48.874542L162.207581,48.874542L162.207581,46.874542z"/>
    <path transform="matrix(-0,1.00001,1.00001,0,-32.899746,-306.537109)" style="stroke:#000000;stroke-width:0.05mm;fill:none" d="M147.707581,32.899544L166.207581,32.899544L166.207581,66.899544L147.707581,66.899544L147.707581,32.899544z"/>
    <circle transform="matrix(-0,1.00001,1.00001,0,30.000458,-149.577515)" style="stroke:#ff0000;stroke-width:0.05mm;fill:none" r="1.400002" cx="0" cy="0"/>
    <circle transform="matrix(-0,1.00001,1.00001,0,30.000456,-129.577316)" style="stroke:#ff0000;stroke-width:0.05mm;fill:none" r="1.400002" cx="0" cy="0"/>
    <circle transform="matrix(-0,1.00001,1.00001,0,4.000195,-129.577316)" style="stroke:#ff0000;stroke-width:0.05mm;fill:none" r="1.400002" cx="0" cy="0"/>
    <path transform="matrix(-0,1.00001,1.00001,0,-32.89975,-166.535889)" style="stroke:#ff0000;stroke-width:0.05mm;fill:none" d="M151.707581,52.874542L149.207581,52.874542L149.207581,50.874542L151.707581,50.874542L151.707581,52.874542z"/>
    <path transform="matrix(-0,1.00001,1.00001,0,-32.89975,-166.535889)" style="stroke:#ff0000;stroke-width:0.05mm;fill:none" d="M158.007584,40.874542L158.007584,38.374542L160.10759,38.374542L160.10759,40.874542L158.007584,40.874542z"/>
    <circle transform="matrix(-0,1.00001,1.00001,0,4.000198,-29.576508)" style="stroke:#ff0000;stroke-width:0.05mm;fill:none" r="1.400002" cx="0" cy="0"/>
    <path transform="matrix(-0,1.00001,1.00001,0,-32.89975,-166.535889)" style="stroke:#ff0000;stroke-width:0.05mm;fill:none" d="M162.207581,50.874542L164.707581,50.874542L164.707581,52.874542L162.207581,52.874542L162.207581,50.874542z"/>
    <path transform="matrix(-0,1.00001,1.00001,0,-32.89975,-166.535889)" style="stroke:#ff0000;stroke-width:0.05mm;fill:none" d="M151.707581,48.874542L149.207581,48.874542L149.207581,46.874542L151.707581,46.874542L151.707581,48.874542z"/>
    <path transform="matrix(-0,1.00001,1.00001,0,-32.89975,-166.535889)" style="stroke:#000000;stroke-width:0.05mm;fill:none" d="M147.707581,32.899544L166.207581,32.899544L166.207581,66.899544L147.707581,66.899544L147.707581,32.899544z"/>
    <path transform="matrix(-0,1.00001,1.00001,0,-32.89975,-166.535889)" style="stroke:#ff0000;stroke-width:0.05mm;fill:none" d="M153.807587,40.874542L153.807587,38.374542L155.907593,38.374542L155.907593,40.874542L153.807587,40.874542z"/>
    <path transform="matrix(-0,1.00001,1.00001,0,-32.89975,-166.535889)" style="stroke:#ff0000;stroke-width:0.05mm;fill:none" d="M162.207581,46.874542L164.707581,46.874542L164.707581,48.874542L162.207581,48.874542L162.207581,46.874542z"/>
    <path transform="matrix(-0,1.00001,1.00001,0,-32.899746,-186.536087)" style="stroke:#000000;stroke-width:0.05mm;fill:none" d="M147.707581,32.899544L166.207581,32.899544L166.207581,66.899544L147.707581,66.899544L147.707581,32.899544z"/>
    <circle transform="matrix(-0,1.00001,1.00001,0,30.000458,-29.576504)" style="stroke:#ff0000;stroke-width:0.05mm;fill:none" r="1.400002" cx="0" cy="0"/>
    <circle transform="matrix(-0,1.00001,1.00001,0,30.000456,-9.576303)" style="stroke:#ff0000;stroke-width:0.05mm;fill:none" r="1.400002" cx="0" cy="0"/>
    <circle transform="matrix(-0,1.00001,1.00001,0,4.000195,-9.576307)" style="stroke:#ff0000;stroke-width:0.05mm;fill:none" r="1.400002" cx="0" cy="0"/>
    <path transform="matrix(1.00001,0,0,-1.00001,-36.371498,19.0303)" style="stroke:#000000;stroke-width:0.05mm;fill:none" d="M83.035271,36.030098L80.535271,36.030098L80.535271,34.030098L83.035271,34.030098L83.035271,32.030098L80.535271,32.030098L80.535271,30.030098L77.035271,30.030098L77.035271,32.030098L74.535271,32.030098L74.535271,34.030098L77.035271,34.030098L77.035271,36.030098L74.535271,36.030098L74.535271,38.030098L77.035271,38.030098L77.035271,40.030098L80.535271,40.030098L80.535271,38.030098L83.035271,38.030098L83.035271,36.030098z"/>
    <path transform="matrix(1.00001,0,0,-1.00001,-36.970901,11.0478)" style="stroke:#000000;stroke-width:0.05mm;fill:none" d="M83.634712,19.047768L81.134712,19.047768L81.134712,21.047768L77.634712,21.047768L77.634712,19.047768L75.134712,19.047768L75.134712,17.047768L77.634712,17.047768L77.634712,15.047768L75.134712,15.047768L75.134712,13.047768L77.634712,13.047768L77.634712,11.047768L81.134712,11.047768L81.134712,13.047768L83.634712,13.047768L83.634712,15.047768L81.134712,15.047768L81.134712,17.047768L83.634712,17.047768L83.634712,19.047768z"/>
    <path transform="matrix(-1.00001,-0,-0,1.00001,113.092003,-18.650101)" style="stroke:#000000;stroke-width:0.05mm;fill:none" d="M51.755543,16.65L49.255543,16.65L49.255543,18.65L64.755547,18.65L64.755547,16.65L62.255543,16.65L62.255543,14.65L64.755547,14.65L64.755547,12.65L62.255543,12.65L62.255543,10.65L64.755547,10.65L64.755547,8.65L49.255543,8.65L49.255543,10.65L51.755543,10.65L51.755543,12.65L49.255543,12.65L49.255543,14.65L51.755543,14.65L51.755543,16.65z"/>
    <path transform="matrix(0,-1.00001,-1.00001,-0,102.589996,61.8829)" style="stroke:#000000;stroke-width:0.05mm;fill:none" d="M72.536201,53.86652L83.036201,53.86652L83.036201,47.86652L80.936203,47.86652L80.936203,45.36652L78.836197,45.36652L78.836197,47.86652L76.736198,47.86652L76.736198,45.36652L74.6362,45.36652L74.6362,47.86652L72.536201,47.86652L72.536201,53.86652z"/>
    <path transform="matrix(1.00001,0,0,-1.00001,-36.371498,-5.9699)" style="stroke:#000000;stroke-width:0.05mm;fill:none" d="M83.035271,36.030098L80.535271,36.030098L80.535271,34.030098L83.035271,34.030098L83.035271,32.030098L80.535271,32.030098L80.535271,30.030098L77.035271,30.030098L77.035271,32.030098L74.535271,32.030098L74.535271,34.030098L77.035271,34.030098L77.035271,36.030098L74.535271,36.030098L74.535271,38.030098L77.035271,38.030098L77.035271,40.030098L80.535271,40.030098L80.535271,38.030098L83.035271,38.030098L83.035271,36.030098z"/>
    <path transform="matrix(1.00001,0,0,-1.00001,-36.970901,-13.9524)" style="stroke:#000000;stroke-width:0.05mm;fill:none" d="M83.634712,19.047768L81.134712,19.047768L81.134712,21.047768L77.634712,21.047768L77.634712,19.047768L75.134712,19.047768L75.134712,17.047768L77.634712,17.047768L77.634712,15.047768L75.134712,15.047768L75.134712,13.047768L77.634712,13.047768L77.634712,11.047768L81.134712,11.047768L81.134712,13.047768L83.634712,13.047768L83.634712,15.047768L81.134712,15.047768L81.134712,17.047768L83.634712,17.047768L83.634712,19.047768z"/>
    <path transform="matrix(-1.00001,-0,-0,1.00001,113.092003,-43.650299)" style="stroke:#000000;stroke-width:0.05mm;fill:none" d="M51.755543,16.65L49.255543,16.65L49.255543,18.65L64.755547,18.65L64.755547,16.65L62.255543,16.65L62.255543,14.65L64.755547,14.65L64.755547,12.65L62.255543,12.65L62.255543,10.65L64.755547,10.65L64.755547,8.65L49.255543,8.65L49.255543,10.65L51.755543,10.65L51.755543,12.65L49.255543,12.65L49.255543,14.65L51.755543,14.65L51.755543,16.65z"/>
    <path transform="matrix(0,-1.00001,-1.00001,-0,102.589996,36.882702)" style="stroke:#000000;stroke-width:0.05mm;fill:none" d="M72.536201,53.86652L83.036201,53.86652L83.036201,47.86652L80.936203,47.86652L80.936203,45.36652L78.836197,45.36652L78.836197,47.86652L76.736198,47.86652L76.736198,45.36652L74.6362,45.36652L74.6362,47.86652L72.536201,47.86652L72.536201,53.86652z"/>
    <path transform="matrix(1.00001,0,0,-1.00001,-36.371498,-30.9701)" style="stroke:#000000;stroke-width:0.05mm;fill:none" d="M83.035271,36.030098L80.535271,36.030098L80.535271,34.030098L83.035271,34.030098L83.035271,32.030098L80.535271,32.030098L80.535271,30.030098L77.035271,30.030098L77.035271,32.030098L74.535271,32.030098L74.535271,34.030098L77.035271,34.030098L77.035271,36.030098L74.535271,36.030098L74.535271,38.030098L77.035271,38.030098L77.035271,40.030098L80.535271,40.030098L80.535271,38.030098L83.035271,38.030098L83.035271,36.030098z"/>
    <path transform="matrix(1.00001,0,0,-1.00001,-36.970901,-38.952599)" style="stroke:#000000;stroke-width:0.05mm;fill:none" d="M83.634712,19.047768L81.134712,19.047768L81.134712,21.047768L77.634712,21.047768L77.634712,19.047768L75.134712,19.047768L75.134712,17.047768L77.634712,17.047768L77.634712,15.047768L75.134712,15.047768L75.134712,13.047768L77.634712,13.047768L77.634712,11.047768L81.134712,11.047768L81.134712,13.047768L83.634712,13.047768L83.634712,15.047768L81.134712,15.047768L81.134712,17.047768L83.634712,17.047768L83.634712,19.047768z"/>
    <path transform="matrix(-1.00001,-0,-0,1.00001,113.092003,-68.650497)" style="stroke:#000000;stroke-width:0.05mm;fill:none" d="M51.755543,16.65L49.255543,16.65L49.255543,18.65L64.755547,18.65L64.755547,16.65L62.255543,16.65L62.255543,14.65L64.755547,14.65L64.755547,12.65L62.255543,12.65L62.255543,10.65L64.755547,10.65L64.755547,8.65L49.255543,8.65L49.255543,10.65L51.755543,10.65L51.755543,12.65L49.255543,12.65L49.255543,14.65L51.755543,14.65L51.755543,16.65z"/>
    <path transform="matrix(0,-1.00001,-1.00001,-0,102.589996,11.8825)" style="stroke:#000000;stroke-width:0.05mm;fill:none" d="M72.536201,53.86652L83.036201,53.86652L83.036201,47.86652L80.936203,47.86652L80.936203,45.36652L78.836197,45.36652L78.836197,47.86652L76.736198,47.86652L76.736198,45.36652L74.6362,45.36652L74.6362,47.86652L72.536201,47.86652L72.536201,53.86652z"/>
    <path transform="matrix(1.00001,0,0,-1.00001,-36.371498,-55.970299)" style="stroke:#000000;stroke-width:0.05mm;fill:none" d="M83.035271,36.030098L80.535271,36.030098L80.535271,34.030098L83.035271,34.030098L83.035271,32.030098L80.535271,32.030098L80.535271,30.030098L77.035271,30.030098L77.035271,32.030098L74.535271,32.030098L74.535271,34.030098L77.035271,34.030098L77.035271,36.030098L74.535271,36.030098L74.535271,38.030098L77.035271,38.030098L77.035271,40.030098L80.535271,40.030098L80.535271,38.030098L83.035271,38.030098L83.035271,36.030098z"/>
    <path transform="matrix(1.00001,0,0,-1.00001,-36.970901,-63.952801)" style="stroke:#000000;stroke-width:0.05mm;fill:none" d="M83.634712,19.047768L81.134712,19.047768L81.134712,21.047768L77.634712,21.047768L77.634712,19.047768L75.134712,19.047768L75.134712,17.047768L77.634712,17.047768L77.634712,15.047768L75.134712,15.047768L75.134712,13.047768L77.634712,13.047768L77.634712,11.047768L81.134712,11.047768L81.134712,13.047768L83.634712,13.047768L83.634712,15.047768L81.134712,15.047768L81.134712,17.047768L83.634712,17.047768L83.634712,19.047768z"/>
    <path transform="matrix(-1.00001,-0,-0,1.00001,113.092003,-93.650703)" style="stroke:#000000;stroke-width:0.05mm;fill:none" d="M51.755543,16.65L49.255543,16.65L49.255543,18.65L64.755547,18.65L64.755547,16.65L62.255543,16.65L62.255543,14.65L64.755547,14.65L64.755547,12.65L62.255543,12.65L62.255543,10.65L64.755547,10.65L64.755547,8.65L49.255543,8.65L49.255543,10.65L51.755543,10.65L51.755543,12.65L49.255543,12.65L49.255543,14.65L51.755543,14.65L51.755543,16.65z"/>
    <path transform="matrix(0,-1.00001,-1.00001,-0,102.589996,-13.1177)" style="stroke:#000000;stroke-width:0.05mm;fill:none" d="M72.536201,53.86652L83.036201,53.86652L83.036201,47.86652L80.936203,47.86652L80.936203,45.36652L78.836197,45.36652L78.836197,47.86652L76.736198,47.86652L76.736198,45.36652L74.6362,45.36652L74.6362,47.86652L72.536201,47.86652L72.536201,53.86652z"/>
    <path transform="matrix(1.00001,0,0,-1.00001,-36.371498,-80.970497)" style="stroke:#000000;stroke-width:0.05mm;fill:none" d="M83.035271,36.030098L80.535271,36.030098L80.535271,34.030098L83.035271,34.030098L83.035271,32.030098L80.535271,32.030098L80.535271,30.030098L77.035271,30.030098L77.035271,32.030098L74.535271,32.030098L74.535271,34.030098L77.035271,34.030098L77.035271,36.030098L74.535271,36.030098L74.535271,38.030098L77.035271,38.030098L77.035271,40.030098L80.535271,40.030098L80.535271,38.030098L83.035271,38.030098L83.035271,36.030098z"/>
    <path transform="matrix(1.00001,0,0,-1.00001,-36.970901,-88.953003)" style="stroke:#000000;stroke-width:0.05mm;fill:none" d="M83.634712,19.047768L81.134712,19.047768L81.134712,21.047768L77.634712,21.047768L77.634712,19.047768L75.134712,19.047768L75.134712,17.047768L77.634712,17.047768L77.634712,15.047768L75.134712,15.047768L75.134712,13.047768L77.634712,13.047768L77.634712,11.047768L81.134712,11.047768L81.134712,13.047768L83.634712,13.047768L83.634712,15.047768L81.134712,15.047768L81.134712,17.047768L83.634712,17.047768L83.634712,19.047768z"/>
    <path transform="matrix(-1.00001,-0,-0,1.00001,113.092003,-118.651001)" style="stroke:#000000;stroke-width:0.05mm;fill:none" d="M51.755543,16.65L49.255543,16.65L49.255543,18.65L64.755547,18.65L64.755547,16.65L62.255543,16.65L62.255543,14.65L64.755547,14.65L64.755547,12.65L62.255543,12.65L62.255543,10.65L64.755547,10.65L64.755547,8.65L49.255543,8.65L49.255543,10.65L51.755543,10.65L51.755543,12.65L49.255543,12.65L49.255543,14.65L51.755543,14.65L51.755543,16.65z"/>
    <path transform="matrix(0,-1.00001,-1.00001,-0,102.589996,-38.117901)" style="stroke:#000000;stroke-width:0.05mm;fill:none" d="M72.536201,53.86652L83.036201,53.86652L83.036201,47.86652L80.936203,47.86652L80.936203,45.36652L78.836197,45.36652L78.836197,47.86652L76.736198,47.86652L76.736198,45.36652L74.6362,45.36652L74.6362,47.86652L72.536201,47.86652L72.536201,53.86652z"/>
    <path transform="matrix(1.00001,0,0,-1.00001,-36.371498,-105.971001)" style="stroke:#000000;stroke-width:0.05mm;fill:none" d="M83.035271,36.030098L80.535271,36.030098L80.535271,34.030098L83.035271,34.030098L83.035271,32.030098L80.535271,32.030098L80.535271,30.030098L77.035271,30.030098L77.035271,32.030098L74.535271,32.030098L74.535271,34.030098L77.035271,34.030098L77.035271,36.030098L74.535271,36.030098L74.535271,38.030098L77.035271,38.030098L77.035271,40.030098L80.535271,40.030098L80.535271,38.030098L83.035271,38.030098L83.035271,36.030098z"/>
    <path transform="matrix(1.00001,0,0,-1.00001,-36.970901,-113.953003)" style="stroke:#000000;stroke-width:0.05mm;fill:none" d="M83.634712,19.047768L81.134712,19.047768L81.134712,21.047768L77.634712,21.047768L77.634712,19.047768L75.134712,19.047768L75.134712,17.047768L77.634712,17.047768L77.634712,15.047768L75.134712,15.047768L75.134712,13.047768L77.634712,13.047768L77.634712,11.047768L81.134712,11.047768L81.134712,13.047768L83.634712,13.047768L83.634712,15.047768L81.134712,15.047768L81.134712,17.047768L83.634712,17.047768L83.634712,19.047768z"/>
    <path transform="matrix(-1.00001,-0,-0,1.00001,113.092003,-143.651001)" style="stroke:#000000;stroke-width:0.05mm;fill:none" d="M51.755543,16.65L49.255543,16.65L49.255543,18.65L64.755547,18.65L64.755547,16.65L62.255543,16.65L62.255543,14.65L64.755547,14.65L64.755547,12.65L62.255543,12.65L62.255543,10.65L64.755547,10.65L64.755547,8.65L49.255543,8.65L49.255543,10.65L51.755543,10.65L51.755543,12.65L49.255543,12.65L49.255543,14.65L51.755543,14.65L51.755543,16.65z"/>
    <path transform="matrix(0,-1.00001,-1.00001,-0,102.589996,-63.118099)" style="stroke:#000000;stroke-width:0.05mm;fill:none" d="M72.536201,53.86652L83.036201,53.86652L83.036201,47.86652L80.936203,47.86652L80.936203,45.36652L78.836197,45.36652L78.836197,47.86652L76.736198,47.86652L76.736198,45.36652L74.6362,45.36652L74.6362,47.86652L72.536201,47.86652L72.536201,53.86652z"/>
    <path transform="matrix(0.999998,0,0,-0.999998,186.628998,-179.393005)" style="stroke:#000000;stroke-width:0.05mm;fill:none" d="M83.035271,36.030098L80.535271,36.030098L80.535271,34.030098L83.035271,34.030098L83.035271,32.030098L80.535271,32.030098L80.535271,30.030098L77.035271,30.030098L77.035271,32.030098L74.535271,32.030098L74.535271,34.030098L77.035271,34.030098L77.035271,36.030098L74.535271,36.030098L74.535271,38.030098L77.035271,38.030098L77.035271,40.030098L80.535271,40.030098L80.535271,38.030098L83.035271,38.030098L83.035271,36.030098z"/>
    <path transform="matrix(0.999998,0,0,-0.999998,186.029999,-187.375)" style="stroke:#000000;stroke-width:0.05mm;fill:none" d="M83.634712,19.047768L81.134712,19.047768L81.134712,21.047768L77.634712,21.047768L77.634712,19.047768L75.134712,19.047768L75.134712,17.047768L77.634712,17.047768L77.634712,15.047768L75.134712,15.047768L75.134712,13.047768L77.634712,13.047768L77.634712,11.047768L81.134712,11.047768L81.134712,13.047768L83.634712,13.047768L83.634712,15.047768L81.134712,15.047768L81.134712,17.047768L83.634712,17.047768L83.634712,19.047768z"/>
    <path transform="matrix(-0.999998,-0,-0,0.999998,336.091003,-217.072998)" style="stroke:#000000;stroke-width:0.05mm;fill:none" d="M51.755543,16.65L49.255543,16.65L49.255543,18.65L64.755547,18.65L64.755547,16.65L62.255543,16.65L62.255543,14.65L64.755547,14.65L64.755547,12.65L62.255543,12.65L62.255543,10.65L64.755547,10.65L64.755547,8.65L49.255543,8.65L49.255543,10.65L51.755543,10.65L51.755543,12.65L49.255543,12.65L49.255543,14.65L51.755543,14.65L51.755543,16.65z"/>
    <path transform="matrix(0,-0.999998,-0.999998,-0,325.588989,-136.541)" style="stroke:#000000;stroke-width:0.05mm;fill:none" d="M72.536201,53.86652L83.036201,53.86652L83.036201,47.86652L80.936203,47.86652L80.936203,45.36652L78.836197,45.36652L78.836197,47.86652L76.736198,47.86652L76.736198,45.36652L74.6362,45.36652L74.6362,47.86652L72.536201,47.86652L72.536201,53.86652z"/>
    <path transform="matrix(-0,1.00001,1.00001,0,-32.89975,-246.536896)" style="stroke:#ff0000;stroke-width:0.05mm;fill:none" d="M151.707581,52.874542L149.207581,52.874542L149.207581,50.874542L151.707581,50.874542L151.707581,52.874542z"/>
    <path transform="matrix(-0,1.00001,1.00001,0,-32.89975,-246.536896)" style="stroke:#ff0000;stroke-width:0.05mm;fill:none" d="M158.007584,40.874542L158.007584,38.374542L160.10759,38.374542L160.10759,40.874542L158.007584,40.874542z"/>
    <circle transform="matrix(-0,1.00001,1.00001,0,4.000198,-109.577515)" style="stroke:#ff0000;stroke-width:0.05mm;fill:none" r="1.400002" cx="0" cy="0"/>
    <path transform="matrix(-0,1.00001,1.00001,0,-32.89975,-246.536896)" style="stroke:#ff0000;stroke-width:0.05mm;fill:none" d="M162.207581,50.874542L164.707581,50.874542L164.707581,52.874542L162.207581,52.874542L162.207581,50.874542z"/>
    <path transform="matrix(-0,1.00001,1.00001,0,-32.89975,-246.536896)" style="stroke:#ff0000;stroke-width:0.05mm;fill:none" d="M151.707581,48.874542L149.207581,48.874542L149.207581,46.874542L151.707581,46.874542L151.707581,48.874542z"/>
    <path transform="matrix(-0,1.00001,1.00001,0,-32.89975,-246.536896)" style="stroke:#000000;stroke-width:0.05mm;fill:none" d="M147.707581,32.899544L166.207581,32.899544L166.207581,66.899544L147.707581,66.899544L147.707581,32.899544z"/>
    <path transform="matrix(-0,1.00001,1.00001,0,-32.89975,-246.536896)" style="stroke:#ff0000;stroke-width:0.05mm;fill:none" d="M153.807587,40.874542L153.807587,38.374542L155.907593,38.374542L155.907593,40.874542L153.807587,40.874542z"/>
    <path transform="matrix(-0,1.00001,1.00001,0,-32.89975,-246.536896)" style="stroke:#ff0000;stroke-width:0.05mm;fill:none" d="M162.207581,46.874542L164.707581,46.874542L164.707581,48.874542L162.207581,48.874542L162.207581,46.874542z"/>
    <path transform="matrix(-0,1.00001,1.00001,0,-32.899746,-266.537109)" style="stroke:#000000;stroke-width:0.05mm;fill:none" d="M147.707581,32.899544L166.207581,32.899544L166.207581,66.899544L147.707581,66.899544L147.707581,32.899544z"/>
    <circle transform="matrix(-0,1.00001,1.00001,0,30.000458,-109.577507)" style="stroke:#ff0000;stroke-width:0.05mm;fill:none" r="1.400002" cx="0" cy="0"/>
    <circle transform="matrix(-0,1.00001,1.00001,0,30.000456,-89.577309)" style="stroke:#ff0000;stroke-width:0.05mm;fill:none" r="1.400002" cx="0" cy="0"/>
    <circle transform="matrix(-0,1.00001,1.00001,0,4.000195,-89.577316)" style="stroke:#ff0000;stroke-width:0.05mm;fill:none" r="1.400002" cx="0" cy="0"/>
    <path transform="matrix(-0,1,1,0,225.100769,-284.958008)" style="stroke:#ff0000;stroke-width:0.05mm;fill:none" d="M151.707581,52.874542L149.207581,52.874542L149.207581,50.874542L151.707581,50.874542L151.707581,52.874542z"/>
    <path transform="matrix(-0,1,1,0,225.100769,-284.958008)" style="stroke:#ff0000;stroke-width:0.05mm;fill:none" d="M158.007584,40.874542L158.007584,38.374542L160.10759,38.374542L160.10759,40.874542L158.007584,40.874542z"/>
    <circle transform="matrix(-0,1,1,0,262.000336,-147.999985)" style="stroke:#ff0000;stroke-width:0.05mm;fill:none" r="1.400002" cx="0" cy="0"/>
    <path transform="matrix(-0,1,1,0,225.100769,-284.958008)" style="stroke:#ff0000;stroke-width:0.05mm;fill:none" d="M162.207581,50.874542L164.707581,50.874542L164.707581,52.874542L162.207581,52.874542L162.207581,50.874542z"/>
    <path transform="matrix(-0,1,1,0,225.100769,-284.958008)" style="stroke:#ff0000;stroke-width:0.05mm;fill:none" d="M151.707581,48.874542L149.207581,48.874542L149.207581,46.874542L151.707581,46.874542L151.707581,48.874542z"/>
    <path transform="matrix(-0,1,1,0,225.100769,-284.958008)" style="stroke:#000000;stroke-width:0.05mm;fill:none" d="M147.707581,32.899544L166.207581,32.899544L166.207581,66.899544L147.707581,66.899544L147.707581,32.899544z"/>
    <path transform="matrix(-0,1,1,0,225.100769,-284.958008)" style="stroke:#ff0000;stroke-width:0.05mm;fill:none" d="M153.807587,40.874542L153.807587,38.374542L155.907593,38.374542L155.907593,40.874542L153.807587,40.874542z"/>
    <path transform="matrix(-0,1,1,0,225.100769,-284.958008)" style="stroke:#ff0000;stroke-width:0.05mm;fill:none" d="M162.207581,46.874542L164.707581,46.874542L164.707581,48.874542L162.207581,48.874542L162.207581,46.874542z"/>
    <path transform="matrix(-0,1,1,0,225.100769,-304.958008)" style="stroke:#000000;stroke-width:0.05mm;fill:none" d="M147.707581,32.899544L166.207581,32.899544L166.207581,66.899544L147.707581,66.899544L147.707581,32.899544z"/>
    <circle transform="matrix(-0,1,1,0,288.000336,-147.999985)" style="stroke:#ff0000;stroke-width:0.05mm;fill:none" r="1.400002" cx="0" cy="0"/>
    <circle transform="matrix(-0,1,1,0,288.000336,-127.999985)" style="stroke:#ff0000;stroke-width:0.05mm;fill:none" r="1.400002" cx="0" cy="0"/>
    <circle transform="matrix(-0,1,1,0,262.000336,-127.999992)" style="stroke:#ff0000;stroke-width:0.05mm;fill:none" r="1.400002" cx="0" cy="0"/>
    <path transform="matrix(-0,1,1,0,225.100769,-244.958008)" style="stroke:#ff0000;stroke-width:0.05mm;fill:none" d="M151.707581,52.874542L149.207581,52.874542L149.207581,50.874542L151.707581,50.874542L151.707581,52.874542z"/>
    <path transform="matrix(-0,1,1,0,225.100769,-244.958008)" style="stroke:#ff0000;stroke-width:0.05mm;fill:none" d="M158.007584,40.874542L158.007584,38.374542L160.10759,38.374542L160.10759,40.874542L158.007584,40.874542z"/>
    <circle transform="matrix(-0,1,1,0,262.000336,-107.999992)" style="stroke:#ff0000;stroke-width:0.05mm;fill:none" r="1.400002" cx="0" cy="0"/>
    <path transform="matrix(-0,1,1,0,225.100769,-244.958008)" style="stroke:#ff0000;stroke-width:0.05mm;fill:none" d="M162.207581,50.874542L164.707581,50.874542L164.707581,52.874542L162.207581,52.874542L162.207581,50.874542z"/>
    <path transform="matrix(-0,1,1,0,225.100769,-244.958008)" style="stroke:#ff0000;stroke-width:0.05mm;fill:none" d="M151.707581,48.874542L149.207581,48.874542L149.207581,46.874542L151.707581,46.874542L151.707581,48.874542z"/>
    <path transform="matrix(-0,1,1,0,225.100769,-244.958008)" style="stroke:#000000;stroke-width:0.05mm;fill:none" d="M147.707581,32.899544L166.207581,32.899544L166.207581,66.899544L147.707581,66.899544L147.707581,32.899544z"/>
    <path transform="matrix(-0,1,1,0,225.100769,-244.958008)" style="stroke:#ff0000;stroke-width:0.05mm;fill:none" d="M153.807587,40.874542L153.807587,38.374542L155.907593,38.374542L155.907593,40.874542L153.807587,40.874542z"/>
    <path transform="matrix(-0,1,1,0,225.100769,-244.958008)" style="stroke:#ff0000;stroke-width:0.05mm;fill:none" d="M162.207581,46.874542L164.707581,46.874542L164.707581,48.874542L162.207581,48.874542L162.207581,46.874542z"/>
    <path transform="matrix(-0,1,1,0,225.100769,-264.958008)" style="stroke:#000000;stroke-width:0.05mm;fill:none" d="M147.707581,32.899544L166.207581,32.899544L166.207581,66.899544L147.707581,66.899544L147.707581,32.899544z"/>
    <circle transform="matrix(-0,1,1,0,288.000336,-107.999985)" style="stroke:#ff0000;stroke-width:0.05mm;fill:none" r="1.400002" cx="0" cy="0"/>
    <circle transform="matrix(-0,1,1,0,288.000336,-87.999985)" style="stroke:#ff0000;stroke-width:0.05mm;fill:none" r="1.400002" cx="0" cy="0"/>
    <circle transform="matrix(-0,1,1,0,262.000336,-87.999992)" style="stroke:#ff0000;stroke-width:0.05mm;fill:none" r="1.400002" cx="0" cy="0"/>
    <path transform="matrix(-0,1.00001,1.00001,0,-32.89975,-206.535889)" style="stroke:#ff0000;stroke-width:0.05mm;fill:none" d="M151.707581,52.874542L149.207581,52.874542L149.207581,50.874542L151.707581,50.874542L151.707581,52.874542z"/>
    <path transform="matrix(-0,1.00001,1.00001,0,-32.89975,-206.535889)" style="stroke:#ff0000;stroke-width:0.05mm;fill:none" d="M158.007584,40.874542L158.007584,38.374542L160.10759,38.374542L160.10759,40.874542L158.007584,40.874542z"/>
    <circle transform="matrix(-0,1.00001,1.00001,0,4.000198,-69.576508)" style="stroke:#ff0000;stroke-width:0.05mm;fill:none" r="1.400002" cx="0" cy="0"/>
    <path transform="matrix(-0,1.00001,1.00001,0,-32.89975,-206.535889)" style="stroke:#ff0000;stroke-width:0.05mm;fill:none" d="M162.207581,50.874542L164.707581,50.874542L164.707581,52.874542L162.207581,52.874542L162.207581,50.874542z"/>
    <path transform="matrix(-0,1.00001,1.00001,0,-32.89975,-206.535889)" style="stroke:#ff0000;stroke-width:0.05mm;fill:none" d="M151.707581,48.874542L149.207581,48.874542L149.207581,46.874542L151.707581,46.874542L151.707581,48.874542z"/>
    <path transform="matrix(-0,1.00001,1.00001,0,-32.89975,-206.535889)" style="stroke:#000000;stroke-width:0.05mm;fill:none" d="M147.707581,32.899544L166.207581,32.899544L166.207581,66.899544L147.707581,66.899544L147.707581,32.899544z"/>
    <path transform="matrix(-0,1.00001,1.00001,0,-32.89975,-206.535889)" style="stroke:#ff0000;stroke-width:0.05mm;fill:none" d="M153.807587,40.874542L153.807587,38.374542L155.907593,38.374542L155.907593,40.874542L153.807587,40.874542z"/>
    <path transform="matrix(-0,1.00001,1.00001,0,-32.89975,-206.535889)" style="stroke:#ff0000;stroke-width:0.05mm;fill:none" d="M162.207581,46.874542L164.707581,46.874542L164.707581,48.874542L162.207581,48.874542L162.207581,46.874542z"/>
    <path transform="matrix(-0,1.00001,1.00001,0,-32.899746,-226.536087)" style="stroke:#000000;stroke-width:0.05mm;fill:none" d="M147.707581,32.899544L166.207581,32.899544L166.207581,66.899544L147.707581,66.899544L147.707581,32.899544z"/>
    <circle transform="matrix(-0,1.00001,1.00001,0,30.000458,-69.5765)" style="stroke:#ff0000;stroke-width:0.05mm;fill:none" r="1.400002" cx="0" cy="0"/>
    <circle transform="matrix(-0,1.00001,1.00001,0,30.000456,-49.576302)" style="stroke:#ff0000;stroke-width:0.05mm;fill:none" r="1.400002" cx="0" cy="0"/>
    <circle transform="matrix(-0,1.00001,1.00001,0,4.000195,-49.576309)" style="stroke:#ff0000;stroke-width:0.05mm;fill:none" r="1.400002" cx="0" cy="0"/>
</svg>
