<?xml version="1.0" encoding="UTF-8"?>
<svg xmlns="http://www.w3.org/2000/svg" xmlns:xlink="http://www.w3.org/1999/xlink" width="474.168mm" height="208.941mm" viewBox="23.000454 -238.941010 474.167938 208.941467">
    <path transform="matrix(0.999998,0,0,-0.999998,-102.751999,236.259995)" style="stroke:#ff0000;stroke-width:0.05mm;fill:none" d="M234.775803,339.231049C240.298645,339.231049,244.775787,343.708191,244.775803,349.231018"/>
    <path transform="matrix(0.999998,0,0,-0.999998,-102.751999,236.259995)" style="stroke:#ff0000;stroke-width:0.05mm;fill:none" d="M244.775818,349.231476L244.775818,392.231537"/>
    <path transform="matrix(0.999998,0,0,-0.999998,-102.751999,236.259995)" style="stroke:#ff0000;stroke-width:0.05mm;fill:none" d="M244.775803,392.231049C244.775803,397.753906,240.298645,402.231049,234.775803,402.231049"/>
    <path transform="matrix(0.999998,0,0,-0.999998,-102.751999,236.259995)" style="stroke:#ff0000;stroke-width:0.05mm;fill:none" d="M230.775925,402.230133L234.775879,402.230133"/>
    <path transform="matrix(0.999998,0,0,-0.999998,-102.751999,236.259995)" style="stroke:#ff0000;stroke-width:0.05mm;fill:none" d="M230.775803,402.231049C225.25296,402.231049,220.775803,397.753906,220.775803,392.231049"/>
    <path transform="matrix(0.999998,0,0,-0.999998,-102.751999,236.259995)" style="stroke:#ff0000;stroke-width:0.05mm;fill:none" d="M220.775726,349.231476L220.775726,392.231537"/>
    <path transform="matrix(0.999998,0,0,-0.999998,-102.751999,236.259995)" style="stroke:#ff0000;stroke-width:0.05mm;fill:none" d="M220.775803,349.231018C220.775803,343.708221,225.252945,339.231079,230.775803,339.231049"/>
    <path transform="matrix(0.999998,0,0,-0.999998,-102.751999,236.259995)" style="stroke:#ff0000;stroke-width:0.05mm;fill:none" d="M230.775925,339.230225L234.775879,339.230225"/>
    <path transform="matrix(0.999998,0,0,-0.999998,-102.751999,236.259995)" style="stroke:#ff0000;stroke-width:0.05mm;fill:none" d="M220.08812,275.170166C220.08812,275.584381,219.752335,275.920166,219.33812,275.920166C218.923904,275.920166,218.58812,275.584381,218.58812,275.170166C218.58812,274.755951,218.923904,274.420197,219.33812,274.420197C219.752335,274.420197,220.08812,274.755951,220.08812,275.170166z"/>
    <path transform="matrix(0.999998,0,0,-0.999998,-102.751999,236.259995)" style="stroke:#ff0000;stroke-width:0.05mm;fill:none" d="M246.948532,275.170166C246.948532,275.584381,246.612747,275.920166,246.198532,275.920166C245.784302,275.920166,245.448517,275.584381,245.448517,275.170166C245.448517,274.755951,245.784302,274.420197,246.198532,274.420197C246.612747,274.420197,246.948532,274.755951,246.948532,275.170166z"/>
    <path transform="matrix(0.999998,0,0,-0.999998,-102.751999,236.259995)" style="stroke:#ff0000;stroke-width:0.05mm;fill:none" d="M329.079193,384.161255C329.079163,384.57547,328.743378,384.911255,328.329163,384.911255C327.914948,384.911255,327.579193,384.57547,327.579193,384.161255C327.579193,383.74704,327.914948,383.411255,328.329163,383.411255C328.743378,383.411255,329.079163,383.74704,329.079193,384.161255z"/>
    <path transform="matrix(0.999998,0,0,-0.999998,-102.751999,236.259995)" style="stroke:#ff0000;stroke-width:0.05mm;fill:none" d="M137.957458,384.161255C137.957458,384.57547,137.621674,384.911255,137.207458,384.911255C136.793243,384.911255,136.457458,384.57547,136.457458,384.161255C136.457458,383.74704,136.793243,383.411255,137.207458,383.411255C137.621674,383.411255,137.957458,383.74704,137.957458,384.161255z"/>
    <path transform="matrix(0.999998,0,0,-0.999998,-102.751999,236.259995)" style="stroke:#ff0000;stroke-width:0.05mm;fill:none" d="M137.957458,357.300842C137.957458,357.715057,137.621674,358.050842,137.207458,358.050842C136.793243,358.050842,136.457458,357.715057,136.457458,357.300842C136.457458,356.886627,136.793243,356.550873,137.207458,356.550873C137.621674,356.550873,137.957458,356.886627,137.957458,357.300842z"/>
    <path transform="matrix(0.999998,0,0,-0.999998,-102.751999,236.259995)" style="stroke:#ff0000;stroke-width:0.05mm;fill:none" d="M233.518326,467.231018C233.518326,467.645233,233.182541,467.981018,232.768326,467.981018C232.354095,467.981018,232.018326,467.645233,232.018326,467.231018C232.018326,466.816803,232.354095,466.481018,232.768326,466.481018C233.182541,466.481018,233.518326,466.816803,233.518326,467.231018z"/>
    <path transform="matrix(0.999998,0,0,-0.999998,-102.751999,236.259995)" style="stroke:#ff0000;stroke-width:0.05mm;fill:none" d="M301.75415,438.966858C301.75415,439.381073,301.418365,439.716827,301.00415,439.716827C300.589935,439.716827,300.254181,439.381073,300.25415,438.966858C300.254181,438.552643,300.589935,438.216858,301.00415,438.216858C301.418365,438.216858,301.75415,438.552643,301.75415,438.966858z"/>
    <path transform="matrix(0.999998,0,0,-0.999998,-102.751999,236.259995)" style="stroke:#ff0000;stroke-width:0.05mm;fill:none" d="M322.672699,407.659973C322.672699,408.074188,322.336945,408.409973,321.922699,408.409973C321.508484,408.409973,321.172729,408.074188,321.172699,407.659973C321.172729,407.245758,321.508484,406.910004,321.922699,406.910004C322.336945,406.910004,322.672699,407.245758,322.672699,407.659973z"/>
    <path transform="matrix(0.999998,0,0,-0.999998,-102.751999,236.259995)" style="stroke:#ff0000;stroke-width:0.05mm;fill:none" d="M330.018311,370.731049C330.015808,371.143463,329.680756,371.476501,329.268311,371.476501C328.855865,371.476501,328.520813,371.143463,328.518341,370.731049C328.520813,370.318604,328.855865,369.985565,329.268311,369.985565C329.680756,369.985565,330.015808,370.318604,330.018311,370.731049z"/>
    <path transform="matrix(0.999998,0,0,-0.999998,-102.751999,236.259995)" style="stroke:#ff0000;stroke-width:0.05mm;fill:none" d="M322.672699,333.802094C322.672699,334.216309,322.336945,334.552063,321.922699,334.552063C321.508484,334.552063,321.172729,334.216309,321.172699,333.802094C321.172729,333.387878,321.508484,333.052094,321.922699,333.052094C322.336945,333.052094,322.672699,333.387878,322.672699,333.802094z"/>
    <path transform="matrix(0.999998,0,0,-0.999998,-102.751999,236.259995)" style="stroke:#ff0000;stroke-width:0.05mm;fill:none" d="M301.75415,302.495239C301.75415,302.909454,301.418365,303.245239,301.00415,303.245239C300.589935,303.245239,300.254181,302.909454,300.25415,302.495239C300.254181,302.081024,300.589935,301.74527,301.00415,301.74527C301.418365,301.74527,301.75415,302.081024,301.75415,302.495239z"/>
    <path transform="matrix(0.999998,0,0,-0.999998,-102.751999,236.259995)" style="stroke:#ff0000;stroke-width:0.05mm;fill:none" d="M270.447266,281.57666C270.445709,281.989746,270.110382,282.323761,269.697296,282.323761C269.28418,282.323761,268.948853,281.989746,268.947266,281.57666C268.948853,281.163574,269.28421,280.829559,269.697296,280.829559C270.110382,280.829559,270.445709,281.163574,270.447266,281.57666z"/>
    <path transform="matrix(0.999998,0,0,-0.999998,-102.751999,236.259995)" style="stroke:#ff0000;stroke-width:0.05mm;fill:none" d="M233.518326,274.231049C233.518326,274.645264,233.182541,274.981049,232.768326,274.981049C232.354095,274.981049,232.018326,274.645264,232.018326,274.231049C232.018326,273.816833,232.354095,273.481079,232.768326,273.481079C233.182541,273.481079,233.518326,273.816833,233.518326,274.231049z"/>
    <path transform="matrix(0.999998,0,0,-0.999998,-102.751999,236.259995)" style="stroke:#ff0000;stroke-width:0.05mm;fill:none" d="M196.589386,281.57666C196.589386,281.990875,196.253601,282.32666,195.839371,282.32666C195.425156,282.32666,195.089371,281.990875,195.089371,281.57666C195.089371,281.162445,195.425156,280.82666,195.839371,280.82666C196.253601,280.82666,196.589386,281.162445,196.589386,281.57666z"/>
    <path transform="matrix(0.999998,0,0,-0.999998,-102.751999,236.259995)" style="stroke:#ff0000;stroke-width:0.05mm;fill:none" d="M165.282516,302.495239C165.280945,302.908325,164.945602,303.242371,164.532516,303.242371C164.119415,303.242371,163.784103,302.908325,163.782532,302.495239C163.784103,302.082153,164.119431,301.748138,164.532516,301.748138C164.945618,301.748138,165.280945,302.082153,165.282516,302.495239z"/>
    <path transform="matrix(0.999998,0,0,-0.999998,-102.751999,236.259995)" style="stroke:#ff0000;stroke-width:0.05mm;fill:none" d="M144.363953,333.802094C144.362381,334.215179,144.027054,334.549194,143.613968,334.549194C143.200867,334.549194,142.86554,334.215179,142.863968,333.802094C142.86554,333.389008,143.200882,333.054962,143.613968,333.054962C144.027069,333.054962,144.362381,333.389008,144.363953,333.802094z"/>
    <path transform="matrix(0.999998,0,0,-0.999998,-102.751999,236.259995)" style="stroke:#ff0000;stroke-width:0.05mm;fill:none" d="M137.018326,370.731049C137.016739,371.144135,136.681412,371.478149,136.268326,371.478149C135.855225,371.478149,135.519897,371.144135,135.518341,370.731049C135.519897,370.317932,135.85524,369.983917,136.268326,369.983917C136.681427,369.983917,137.016739,370.317932,137.018326,370.731049z"/>
    <path transform="matrix(0.999998,0,0,-0.999998,-102.751999,236.259995)" style="stroke:#ff0000;stroke-width:0.05mm;fill:none" d="M144.363953,407.659973C144.362381,408.073059,144.027054,408.407104,143.613968,408.407104C143.200867,408.407104,142.86554,408.073059,142.863968,407.659973C142.86554,407.246887,143.200882,406.912872,143.613968,406.912872C144.027069,406.912872,144.362381,407.246887,144.363953,407.659973z"/>
    <path transform="matrix(0.999998,0,0,-0.999998,-102.751999,236.259995)" style="stroke:#ff0000;stroke-width:0.05mm;fill:none" d="M165.282516,438.966858C165.280945,439.379944,164.945602,439.713959,164.532516,439.713959C164.119415,439.713959,163.784103,439.379944,163.782532,438.966858C163.784103,438.553772,164.119431,438.219727,164.532516,438.219727C164.945618,438.219727,165.280945,438.553772,165.282516,438.966858z"/>
    <path transform="matrix(0.999998,0,0,-0.999998,-102.751999,236.259995)" style="stroke:#ff0000;stroke-width:0.05mm;fill:none" d="M196.589386,459.885406C196.589386,460.299622,196.253601,460.635406,195.839371,460.635406C195.425156,460.635406,195.089371,460.299622,195.089371,459.885406C195.089371,459.471191,195.425156,459.135406,195.839371,459.135406C196.253601,459.135406,196.589386,459.471191,196.589386,459.885406z"/>
    <path transform="matrix(0.999998,0,0,-0.999998,-102.751999,236.259995)" style="stroke:#000000;stroke-width:0.05mm;fill:none" d="M337.268311,370.731049C337.248383,428.439606,290.465027,475.204651,232.763474,475.201965C175.061935,475.199341,128.282913,428.429962,128.268341,370.731049C128.288269,313.0224,175.071625,266.257385,232.773163,266.260071C290.474731,266.262756,337.253723,313.032104,337.268311,370.731049z"/>
    <path transform="matrix(0.999998,0,0,-0.999998,-102.751999,236.259995)" style="stroke:#ff0000;stroke-width:0.05mm;fill:none" d="M220.08812,466.291901C220.08812,466.706116,219.752335,467.04187,219.33812,467.04187C218.923904,467.04187,218.58812,466.706116,218.58812,466.291901C218.58812,465.877686,218.923904,465.541901,219.33812,465.541901C219.752335,465.541901,220.08812,465.877686,220.08812,466.291901z"/>
    <path transform="matrix(0.999998,0,0,-0.999998,-102.751999,236.259995)" style="stroke:#ff0000;stroke-width:0.05mm;fill:none" d="M246.948532,466.291901C246.948532,466.706116,246.612747,467.04187,246.198532,467.04187C245.784302,467.04187,245.448517,466.706116,245.448517,466.291901C245.448517,465.877686,245.784302,465.541901,246.198532,465.541901C246.612747,465.541901,246.948532,465.877686,246.948532,466.291901z"/>
    <path transform="matrix(0.999998,0,0,-0.999998,-102.751999,236.259995)" style="stroke:#ff0000;stroke-width:0.05mm;fill:none" d="M329.079193,357.300842C329.079163,357.715057,328.743378,358.050842,328.329163,358.050842C327.914948,358.050842,327.579193,357.715057,327.579193,357.300842C327.579193,356.886627,327.914948,356.550873,328.329163,356.550873C328.743378,356.550873,329.079163,356.886627,329.079193,357.300842z"/>
    <path transform="matrix(0.999998,0,0,-0.999998,-102.751999,236.259995)" style="stroke:#ff0000;stroke-width:0.05mm;fill:none" d="M270.447266,459.885406C270.445709,460.298492,270.110382,460.632507,269.697296,460.632507C269.28418,460.632507,268.948853,460.298492,268.947266,459.885406C268.948853,459.472321,269.28421,459.138306,269.697296,459.138306C270.110382,459.138306,270.445709,459.472321,270.447266,459.885406z"/>
    <path transform="matrix(0.999998,0,0,-0.999998,-102.751999,236.259995)" style="stroke:#ff0000;stroke-width:0.05mm;fill:none" d="M140.180222,306.329559C139.905899,306.639923,139.431931,306.669128,139.121567,306.394806C138.811218,306.120483,138.782013,305.646515,139.056335,305.336151C139.330658,305.025787,139.804626,304.996582,140.11499,305.270905C140.425339,305.545258,140.454559,306.019226,140.180222,306.329559z"/>
    <path transform="matrix(0.999998,0,0,-0.999998,-102.751999,236.259995)" style="stroke:#ff0000;stroke-width:0.05mm;fill:none" d="M157.969254,286.204163C157.694931,286.514526,157.220963,286.543732,156.910599,286.269409C156.60025,285.995087,156.571045,285.521118,156.845367,285.210754C157.11969,284.900391,157.593658,284.871185,157.904022,285.145508C158.214371,285.41983,158.243591,285.893799,157.969254,286.204163z"/>
    <path transform="matrix(0.999998,0,0,-0.999998,-102.751999,236.259995)" style="stroke:#ff0000;stroke-width:0.05mm;fill:none" d="M150.056931,297.13504C148.959625,298.376434,147.063736,298.493286,145.822327,297.395966C144.580902,296.298676,144.464081,294.402802,145.561356,293.161377C146.658676,291.919952,148.554565,291.803131,149.795975,292.900421C151.037399,293.997742,151.154221,295.893616,150.056931,297.13504z"/>
    <path transform="matrix(0.999998,0,0,-0.999998,-102.751999,236.259995)" style="stroke:#000000;stroke-width:0.05mm;fill:none" d="M170.956329,284.864716L162.395432,271.943207"/>
    <path transform="matrix(0.999998,0,0,-0.999998,-102.751999,236.259995)" style="stroke:#000000;stroke-width:0.05mm;fill:none" d="M126.570663,312.473083C134.748016,296.05304,147.1035,282.074829,162.395325,271.943268"/>
    <path transform="matrix(0.999998,0,0,-0.999998,-102.751999,236.259995)" style="stroke:#000000;stroke-width:0.05mm;fill:none" d="M140.445374,319.382935L126.570686,312.473053"/>
    <path transform="matrix(0.999998,0,0,-0.999998,-102.751999,236.259995)" style="stroke:#000000;stroke-width:0.05mm;fill:none" d="M140.445313,319.382813C147.409744,305.398285,157.932617,293.493347,170.956268,284.864594"/>
    <path transform="matrix(0.999998,0,0,-0.999998,-102.751999,236.259995)" style="stroke:#ff0000;stroke-width:0.05mm;fill:none" d="M349.184174,354.410736C349.598389,354.410736,349.934174,354.746521,349.934174,355.160767C349.934174,355.574982,349.598389,355.910767,349.184174,355.910767C348.769958,355.910767,348.434174,355.574982,348.434174,355.160767C348.434174,354.746521,348.769958,354.410736,349.184174,354.410736z"/>
    <path transform="matrix(0.999998,0,0,-0.999998,-102.751999,236.259995)" style="stroke:#ff0000;stroke-width:0.05mm;fill:none" d="M349.184174,381.271149C349.598389,381.271149,349.934174,381.606934,349.934174,382.021149C349.934174,382.435364,349.598389,382.771149,349.184174,382.771149C348.769958,382.771149,348.434174,382.435364,348.434174,382.021149C348.434174,381.606934,348.769958,381.271149,349.184174,381.271149z"/>
    <path transform="matrix(0.999998,0,0,-0.999998,-102.751999,236.259995)" style="stroke:#ff0000;stroke-width:0.05mm;fill:none" d="M342.777679,402.519897C344.43454,402.519897,345.777679,403.863037,345.777679,405.519897C345.777679,407.176758,344.43454,408.519897,342.777679,408.519897C341.120819,408.519897,339.777679,407.176758,339.777679,405.519897C339.777679,403.863037,341.120819,402.519897,342.777679,402.519897z"/>
    <path transform="matrix(0.999998,0,0,-0.999998,-102.751999,236.259995)" style="stroke:#ff0000;stroke-width:0.05mm;fill:none" d="M342.777679,328.661987C344.43454,328.661987,345.777679,330.005157,345.777679,331.662018C345.777679,333.318848,344.43454,334.662018,342.777679,334.662018C341.120819,334.662018,339.777679,333.318848,339.777679,331.662018C339.777679,330.005157,341.120819,328.661987,342.777679,328.661987z"/>
    <path transform="matrix(0.999998,0,0,-0.999998,-102.751999,236.259995)" style="stroke:#000000;stroke-width:0.05mm;fill:none" d="M330.699677,413.090912L344.123047,420.84082"/>
    <path transform="matrix(0.999998,0,0,-0.999998,-102.751999,236.259995)" style="stroke:#000000;stroke-width:0.05mm;fill:none" d="M344.122955,316.340942C362.7901,348.67337,362.7901,388.508545,344.122955,420.840942"/>
    <path transform="matrix(0.999998,0,0,-0.999998,-102.751999,236.259995)" style="stroke:#000000;stroke-width:0.05mm;fill:none" d="M330.699677,324.091187L344.123047,316.341522"/>
    <path transform="matrix(0.999998,0,0,-0.999998,-102.751999,236.259995)" style="stroke:#000000;stroke-width:0.05mm;fill:none" d="M330.699554,324.090942C346.59787,351.627594,346.59787,385.55423,330.699554,413.090942"/>
    <path transform="matrix(0.999998,0,0,-0.999998,-102.751999,236.259995)" style="stroke:#ff0000;stroke-width:0.05mm;fill:none" d="M350.123291,365.590973C351.780151,365.590973,353.123291,366.934082,353.123291,368.590942C353.123291,370.247803,351.780151,371.590942,350.123291,371.590973C348.466431,371.590942,347.123322,370.247803,347.123322,368.590942C347.123322,366.934082,348.466431,365.590973,350.123291,365.590973z"/>
    <path transform="matrix(0.999998,0,0,-0.999998,-102.751999,236.259995)" style="stroke:#ff0000;stroke-width:0.05mm;fill:none" d="M324.555298,305.102631C324.82962,305.412994,325.303589,305.4422,325.613953,305.167877C325.924316,304.893555,325.953522,304.419586,325.679199,304.109222C325.404846,303.798859,324.930878,303.769653,324.620544,304.043976C324.310181,304.318298,324.280975,304.792267,324.555298,305.102631z"/>
    <path transform="matrix(0.999998,0,0,-0.999998,-102.751999,236.259995)" style="stroke:#ff0000;stroke-width:0.05mm;fill:none" d="M306.766266,284.977234C307.040588,285.287598,307.514557,285.316803,307.824921,285.04248C308.135284,284.768158,308.16449,284.294159,307.890167,283.983826C307.615814,283.673462,307.141846,283.644257,306.831512,283.918579C306.521149,284.192902,306.491943,284.66687,306.766266,284.977234z"/>
    <path transform="matrix(0.999998,0,0,-0.999998,-102.751999,236.259995)" style="stroke:#ff0000;stroke-width:0.05mm;fill:none" d="M314.678589,295.908081C315.775909,297.149506,317.671783,297.266327,318.913208,296.169037C320.154602,295.071747,320.271454,293.175842,319.174164,291.934418C318.076843,290.693024,316.180969,290.576202,314.939545,291.673492C313.69812,292.770782,313.581299,294.666687,314.678589,295.908081z"/>
    <path transform="matrix(0.999998,0,0,-0.999998,-102.751999,236.259995)" style="stroke:#000000;stroke-width:0.05mm;fill:none" d="M293.779175,283.637787L302.340088,270.716248"/>
    <path transform="matrix(0.999998,0,0,-0.999998,-102.751999,236.259995)" style="stroke:#000000;stroke-width:0.05mm;fill:none" d="M338.164856,311.246155C329.987518,294.826111,317.632019,280.84787,302.340179,270.716339"/>
    <path transform="matrix(0.999998,0,0,-0.999998,-102.751999,236.259995)" style="stroke:#000000;stroke-width:0.05mm;fill:none" d="M324.290161,318.155975L338.164825,311.246124"/>
    <path transform="matrix(0.999998,0,0,-0.999998,-102.751999,236.259995)" style="stroke:#000000;stroke-width:0.05mm;fill:none" d="M324.290222,318.155853C317.325775,304.171326,306.802887,292.266418,293.779236,283.637665"/>
    <path transform="matrix(0.999998,0,0,-0.999998,-102.751999,236.259995)" style="stroke:#ff0000;stroke-width:0.05mm;fill:none" d="M139.362274,434.253082C139.087952,433.942719,138.613983,433.913513,138.303619,434.187836C137.993271,434.462158,137.964066,434.936127,138.238388,435.24649C138.512711,435.556854,138.986679,435.58606,139.297043,435.311737C139.607391,435.037415,139.636612,434.563446,139.362274,434.253082z"/>
    <path transform="matrix(0.999998,0,0,-0.999998,-102.751999,236.259995)" style="stroke:#ff0000;stroke-width:0.05mm;fill:none" d="M157.151306,454.378479C156.876984,454.068115,156.403015,454.03891,156.092651,454.313232C155.782303,454.587585,155.753098,455.061554,156.02742,455.371887C156.301743,455.682251,156.775711,455.711456,157.086075,455.437134C157.396423,455.162811,157.425644,454.688843,157.151306,454.378479z"/>
    <path transform="matrix(0.999998,0,0,-0.999998,-102.751999,236.259995)" style="stroke:#ff0000;stroke-width:0.05mm;fill:none" d="M149.238983,443.447632C148.141678,442.206207,146.245789,442.089386,145.004379,443.186676C143.762955,444.283966,143.646133,446.179871,144.743408,447.421295C145.840729,448.662689,147.736618,448.77951,148.978027,447.68222C150.219452,446.58493,150.336273,444.689026,149.238983,443.447632z"/>
    <path transform="matrix(0.999998,0,0,-0.999998,-102.751999,236.259995)" style="stroke:#000000;stroke-width:0.05mm;fill:none" d="M170.138382,455.717926L161.577484,468.639465"/>
    <path transform="matrix(0.999998,0,0,-0.999998,-102.751999,236.259995)" style="stroke:#000000;stroke-width:0.05mm;fill:none" d="M125.752708,428.109558C133.930069,444.529602,146.285553,458.507843,161.577377,468.639374"/>
    <path transform="matrix(0.999998,0,0,-0.999998,-102.751999,236.259995)" style="stroke:#000000;stroke-width:0.05mm;fill:none" d="M139.627426,421.199738L125.752747,428.109589"/>
    <path transform="matrix(0.999998,0,0,-0.999998,-102.751999,236.259995)" style="stroke:#000000;stroke-width:0.05mm;fill:none" d="M139.627365,421.19986C146.591797,435.184387,157.11467,447.089325,170.138321,455.718048"/>
    <path transform="matrix(0.999998,0,0,-0.999998,-102.751999,236.259995)" style="stroke:#ff0000;stroke-width:0.05mm;fill:none" d="M328.644653,431.799103C328.918976,431.48877,329.392944,431.459534,329.703308,431.733887C330.013672,432.008209,330.042877,432.482178,329.768555,432.792542C329.494232,433.102875,329.020264,433.13208,328.7099,432.857758C328.399536,432.583435,328.370331,432.109467,328.644653,431.799103z"/>
    <path transform="matrix(0.999998,0,0,-0.999998,-102.751999,236.259995)" style="stroke:#ff0000;stroke-width:0.05mm;fill:none" d="M310.855621,451.9245C311.129944,451.614166,311.603912,451.58493,311.914276,451.859283C312.22464,452.133606,312.253845,452.607574,311.979523,452.917938C311.7052,453.228271,311.231201,453.257507,310.920868,452.983154C310.610504,452.708832,310.581299,452.234863,310.855621,451.9245z"/>
    <path transform="matrix(0.999998,0,0,-0.999998,-102.751999,236.259995)" style="stroke:#ff0000;stroke-width:0.05mm;fill:none" d="M318.767944,440.993652C319.865265,439.752228,321.761139,439.635406,323.002563,440.732697C324.243958,441.830017,324.360809,443.725891,323.263519,444.967316C322.166199,446.20871,320.270325,446.325562,319.0289,445.228241C317.787476,444.130951,317.670654,442.235077,318.767944,440.993652z"/>
    <path transform="matrix(0.999998,0,0,-0.999998,-102.751999,236.259995)" style="stroke:#000000;stroke-width:0.05mm;fill:none" d="M297.868561,453.263947L306.429443,466.185486"/>
    <path transform="matrix(0.999998,0,0,-0.999998,-102.751999,236.259995)" style="stroke:#000000;stroke-width:0.05mm;fill:none" d="M342.254211,425.655609C334.076874,442.075653,321.721375,456.053864,306.429535,466.185394"/>
    <path transform="matrix(0.999998,0,0,-0.999998,-102.751999,236.259995)" style="stroke:#000000;stroke-width:0.05mm;fill:none" d="M328.379517,418.745758L342.254181,425.655609"/>
    <path transform="matrix(0.999998,0,0,-0.999998,-102.751999,236.259995)" style="stroke:#000000;stroke-width:0.05mm;fill:none" d="M328.379578,418.74588C321.415131,432.730408,310.892273,444.635345,297.868591,453.264099"/>
    <path transform="matrix(0.999998,0,0,-0.999998,117.248001,234.259995)" style="stroke:#ff0000;stroke-width:0.05mm;fill:none" d="M367.578064,406.584442C367.950684,406.76535,368.106079,407.214081,367.92514,407.5867C367.744202,407.95932,367.295471,408.114716,366.922882,407.933777C366.550262,407.752838,366.394867,407.304108,366.575806,406.931488C366.756744,406.558899,367.205475,406.403503,367.578064,406.584442z"/>
    <path transform="matrix(0.999998,0,0,-0.999998,117.248001,234.259995)" style="stroke:#ff0000;stroke-width:0.05mm;fill:none" d="M355.845337,430.746887C356.217957,430.927826,356.373322,431.376556,356.192383,431.749176C356.011475,432.121765,355.562744,432.277161,355.190125,432.096222C354.817505,431.915283,354.66214,431.466553,354.843048,431.093964C355.023987,430.721344,355.472717,430.565948,355.845337,430.746887z"/>
    <path transform="matrix(0.999998,0,0,-0.999998,117.248001,234.259995)" style="stroke:#ff0000;stroke-width:0.05mm;fill:none" d="M340.800781,447.062958C342.291229,447.786682,342.91275,449.581604,342.189026,451.072021C341.465302,452.562469,339.67041,453.184021,338.179962,452.460297C336.689514,451.736572,336.067993,449.94165,336.791718,448.451202C337.515442,446.960785,339.310364,446.339233,340.800781,447.062958z"/>
    <path transform="matrix(0.999998,0,0,-0.999998,117.248001,234.259995)" style="stroke:#ff0000;stroke-width:0.05mm;fill:none" d="M373.062256,380.623596C374.552673,381.347321,375.174225,383.142273,374.4505,384.63269C373.726776,386.123108,371.931854,386.74469,370.441406,386.020966C368.950958,385.297241,368.329437,383.502289,369.053162,382.011871C369.776855,380.521423,371.571808,379.899872,373.062256,380.623596z"/>
    <path transform="matrix(0.999998,0,0,-0.999998,117.248001,234.259995)" style="stroke:#000000;stroke-width:0.05mm;fill:none" d="M325.318481,451.296448L334.008362,464.131317"/>
    <path transform="matrix(0.999998,0,0,-0.999998,117.248001,234.259995)" style="stroke:#000000;stroke-width:0.05mm;fill:none" d="M379.654297,370.127747C382.323486,407.366455,364.923309,443.200439,334.00824,464.131378"/>
    <path transform="matrix(0.999998,0,0,-0.999998,117.248001,234.259995)" style="stroke:#000000;stroke-width:0.05mm;fill:none" d="M364.19397,371.236176L379.654114,370.128296"/>
    <path transform="matrix(0.999998,0,0,-0.999998,117.248001,234.259995)" style="stroke:#000000;stroke-width:0.05mm;fill:none" d="M364.193939,371.23587C366.467255,402.951141,351.647949,433.470062,325.318359,451.296417"/>
    <path transform="matrix(0.999998,0,0,-0.999998,117.248001,234.259995)" style="stroke:#ff0000;stroke-width:0.05mm;fill:none" d="M363.539307,417.05188C365.029755,417.775604,365.651306,419.570526,364.927582,421.060974C364.203857,422.551392,362.408936,423.172943,360.918488,422.449219C359.42807,421.725494,358.806519,419.930573,359.530243,418.440125C360.253967,416.949707,362.048889,416.328156,363.539307,417.05188z"/>
    <path transform="matrix(0.999998,0,0,-0.999998,117.248001,234.259995)" style="stroke:#ff0000;stroke-width:0.05mm;fill:none" d="M351.96109,302.365814C352.337677,302.193298,352.782806,302.358704,352.955322,302.735291C353.127869,303.111877,352.962433,303.557007,352.585846,303.729523C352.209259,303.902039,351.76413,303.736633,351.591614,303.360046C351.419098,302.983459,351.584534,302.53833,351.96109,302.365814z"/>
    <path transform="matrix(0.999998,0,0,-0.999998,117.248001,234.259995)" style="stroke:#ff0000;stroke-width:0.05mm;fill:none" d="M363.148346,326.785614C363.524933,326.613098,363.970062,326.778503,364.142578,327.15509C364.315125,327.531677,364.149689,327.976807,363.773102,328.149323C363.396515,328.321838,362.951385,328.156433,362.77887,327.779846C362.606354,327.403259,362.77179,326.95813,363.148346,326.785614z"/>
    <path transform="matrix(0.999998,0,0,-0.999998,117.248001,234.259995)" style="stroke:#ff0000;stroke-width:0.05mm;fill:none" d="M366.174011,348.771942C367.680328,348.081848,369.460815,348.74353,370.150909,350.249847C370.840973,351.756165,370.179291,353.536682,368.672974,354.226746C367.166656,354.916809,365.386169,354.255127,364.696075,352.74881C364.006012,351.242523,364.667694,349.462006,366.174011,348.771942z"/>
    <path transform="matrix(0.999998,0,0,-0.999998,117.248001,234.259995)" style="stroke:#ff0000;stroke-width:0.05mm;fill:none" d="M335.412476,281.624939C336.918762,280.934875,338.69931,281.596558,339.389374,283.102875C340.079437,284.609161,339.417755,286.389709,337.911438,287.079773C336.405151,287.769867,334.624603,287.108154,333.93454,285.601868C333.244476,284.095551,333.906158,282.315002,335.412476,281.624939z"/>
    <path transform="matrix(0.999998,0,0,-0.999998,117.248001,234.259995)" style="stroke:#000000;stroke-width:0.05mm;fill:none" d="M359.596252,363.412872L375.02774,364.867828"/>
    <path transform="matrix(0.999998,0,0,-0.999998,117.248001,234.259995)" style="stroke:#000000;stroke-width:0.05mm;fill:none" d="M331.503845,269.863098C361.941162,291.482941,378.532349,327.698578,375.02771,364.867981"/>
    <path transform="matrix(0.999998,0,0,-0.999998,117.248001,234.259995)" style="stroke:#000000;stroke-width:0.05mm;fill:none" d="M322.528168,282.499878L331.504181,269.863586"/>
    <path transform="matrix(0.999998,0,0,-0.999998,117.248001,234.259995)" style="stroke:#000000;stroke-width:0.05mm;fill:none" d="M322.527954,282.499695C348.450623,300.91272,362.580963,331.756714,359.59613,363.412933"/>
    <path transform="matrix(0.999998,0,0,-0.999998,117.248001,234.259995)" style="stroke:#ff0000;stroke-width:0.05mm;fill:none" d="M357.471436,312.139008C358.977722,311.448944,360.75824,312.110626,361.448303,313.616943C362.138397,315.12326,361.476715,316.903748,359.970398,317.593842C358.464081,318.283905,356.683594,317.622223,355.9935,316.115906C355.303436,314.609589,355.965118,312.829102,357.471436,312.139008z"/>
</svg>
