<?xml version="1.0" encoding="UTF-8" standalone="no"?>
<!-- Created with Inkscape (http://www.inkscape.org/) -->

<svg
   width="210mm"
   height="297mm"
   viewBox="0 0 210 297"
   version="1.1"
   id="svg17646"
   inkscape:version="1.2.1 (9c6d41e, 2022-07-14)"
   sodipodi:docname="axis.svg"
   xmlns:inkscape="http://www.inkscape.org/namespaces/inkscape"
   xmlns:sodipodi="http://sodipodi.sourceforge.net/DTD/sodipodi-0.dtd"
   xmlns="http://www.w3.org/2000/svg"
   xmlns:svg="http://www.w3.org/2000/svg">
  <sodipodi:namedview
     id="namedview17648"
     pagecolor="#ffffff"
     bordercolor="#000000"
     borderopacity="0.25"
     inkscape:showpageshadow="2"
     inkscape:pageopacity="0.0"
     inkscape:pagecheckerboard="0"
     inkscape:deskcolor="#d1d1d1"
     inkscape:document-units="mm"
     showgrid="false"
     inkscape:zoom="0.914906"
     inkscape:cx="10.38358"
     inkscape:cy="561.25984"
     inkscape:window-width="2560"
     inkscape:window-height="1387"
     inkscape:window-x="0"
     inkscape:window-y="215"
     inkscape:window-maximized="1"
     inkscape:current-layer="layer1" />
  <defs
     id="defs17643" />
  <g
     inkscape:label="Layer 1"
     inkscape:groupmode="layer"
     id="layer1">
    <circle
       transform="matrix(0,-1,-1,0,0,0)"
       style="fill:none;stroke:#000000;stroke-width:0.0499999mm"
       r="0.74999774"
       cx="-30.200115"
       cy="-37.0061"
       id="circle10072" />
    <circle
       transform="matrix(0,-1,-1,0,0,0)"
       style="fill:none;stroke:#000000;stroke-width:0.0499999mm"
       r="0.74999774"
       cx="-274.19897"
       cy="-37.0061"
       id="circle10074" />
    <circle
       transform="matrix(0,-1,-1,0,0,0)"
       style="fill:none;stroke:#000000;stroke-width:0.0499999mm"
       r="0.74999774"
       cx="-20.200138"
       cy="-37.0061"
       id="circle10076" />
    <path
       style="fill:none;stroke:#000000;stroke-width:0.0499999mm"
       d="m 45.506081,259.30429 v -14.94732 h -4.499987 v -14.94732 h 4.499987 V 214.46233 H 41.006094 V 199.515 h 4.499987 v -14.94732 h -4.499987 v -14.94733 h 4.499987 v -14.94732 h -4.499987 v -14.94732 h 4.499987 v -14.94732 h -4.499987 v -14.94733 h 4.499987 V 94.883727 H 41.006094 V 79.936423 h 4.499987 V 64.989088 H 41.006094 V 50.041762 h 4.499987 V 35.094437 H 41.006094 V 20.147112 h 4.499987 V 5.1997966 H 33.006118 V 20.147112 h -4.499986 v 14.947325 h 4.499986 v 14.947325 h -4.499986 v 14.947326 h 4.499986 v 14.947335 h -4.499986 v 14.947304 h 4.499986 v 14.947333 h -4.499986 v 14.94733 h 4.499986 v 14.94732 h -4.499986 v 14.94732 h 4.499986 v 14.94732 h -4.499986 v 14.94733 h 4.499986 V 199.515 h -4.499986 v 14.94733 h 4.499986 v 14.94732 h -4.499986 v 14.94732 h 4.499986 v 14.94732 h -4.499986 v 14.94733 h 4.499986 v 14.94732 h 12.499963 v -14.94732 h -4.499987 v -14.94733 z"
       id="path10078" />
    <circle
       transform="matrix(0,-1,-1,0,0,0)"
       style="fill:none;stroke:#000000;stroke-width:0.0499999mm"
       r="0.74999774"
       cx="-264.19901"
       cy="-37.0061"
       id="circle10080" />
    <circle
       transform="matrix(0,-1,-1,0,0,0)"
       style="fill:none;stroke:#000000;stroke-width:0.05mm"
       r="0.75"
       cx="-35.198582"
       cy="-55.000553"
       id="circle10082" />
    <circle
       transform="matrix(0,-1,-1,0,0,0)"
       style="fill:none;stroke:#000000;stroke-width:0.05mm"
       r="0.75"
       cx="-279.19839"
       cy="-55.000553"
       id="circle10084" />
    <circle
       transform="matrix(0,-1,-1,0,0,0)"
       style="fill:none;stroke:#000000;stroke-width:0.05mm"
       r="0.75"
       cx="-15.198596"
       cy="-55.000553"
       id="circle10086" />
    <path
       style="fill:none;stroke:#000000;stroke-width:0.05mm"
       d="m 46.500873,259.30357 h 4.5 v 14.94737 h -4.5 v 14.94737 h 12.5 v -14.94737 h 4.5 v -14.94737 h -4.5 V 244.3562 h 4.5 v -14.94736 h -4.5 v -14.94737 h 4.5 v -14.94736 h -4.5 v -14.94738 h 4.5 v -14.94736 h -4.5 V 154.672 h 4.5 v -14.94737 h -4.5 v -14.94737 h 4.5 v -14.94738 h -4.5 V 94.882535 h 4.5 v -14.94738 h -4.5 v -14.94737 h 4.5 v -14.94737 h -4.5 v -14.94736 h 4.5 v -14.94737 h -4.5 V 5.1983246 h -12.5 V 20.145685 h 4.5 v 14.94737 h -4.5 v 14.94736 h 4.5 v 14.94737 h -4.5 v 14.94737 h 4.5 v 14.94738 h -4.5 v 14.947345 h 4.5 v 14.94738 h -4.5 v 14.94737 h 4.5 V 154.672 h -4.5 v 14.94737 h 4.5 v 14.94736 h -4.5 v 14.94738 h 4.5 v 14.94736 h -4.5 v 14.94737 h 4.5 v 14.94736 h -4.5 z"
       id="path10088" />
    <circle
       transform="matrix(0,-1,-1,0,0,0)"
       style="fill:none;stroke:#000000;stroke-width:0.05mm"
       r="0.75"
       cx="-259.19839"
       cy="-55.000553"
       id="circle10090" />
    <circle
       transform="matrix(0,-1,-1,0,0,0)"
       style="fill:none;stroke:#000000;stroke-width:0.0499999mm"
       r="0.74999851"
       cx="-259.19867"
       cy="-73.006844"
       id="circle10092" />
    <circle
       transform="matrix(0,-1,-1,0,0,0)"
       style="fill:none;stroke:#000000;stroke-width:0.0499999mm"
       r="0.74999851"
       cx="-15.198977"
       cy="-73.006844"
       id="circle10094" />
    <circle
       transform="matrix(0,-1,-1,0,0,0)"
       style="fill:none;stroke:#000000;stroke-width:0.0499999mm"
       r="0.74999851"
       cx="-35.198948"
       cy="-73.006844"
       id="circle10096" />
    <circle
       transform="matrix(0,-1,-1,0,0,0)"
       style="fill:none;stroke:#000000;stroke-width:0.0499999mm"
       r="0.74999851"
       cx="-279.19864"
       cy="-73.006844"
       id="circle10098" />
    <path
       style="fill:none;stroke:#000000;stroke-width:0.0499999mm"
       d="m 81.506349,20.146465 v 14.94736 h -4.499981 v 14.94733 h 4.499981 v 14.94734 h -4.499981 v 14.94734 h 4.499981 v 14.94735 h -4.499981 v 14.947325 h 4.499981 v 14.94735 h -4.499981 v 14.94734 h 4.499981 v 14.94734 h -4.499981 v 14.94733 h 4.499981 v 14.94734 h -4.499981 v 14.94733 h 4.499981 v 14.94734 h -4.499981 v 14.94734 h 4.499981 v 14.94734 h -4.499981 v 14.94733 h 4.499981 v 14.94734 h -4.499981 v 14.94734 h -7.999984 v -14.94734 h -4.499991 v -14.94734 h 4.499991 v -14.94733 h -4.499991 v -14.94734 h 4.499991 v -14.94734 h -4.499991 v -14.94734 h 4.499991 v -14.94733 h -4.499991 v -14.94734 h 4.499991 V 154.67254 H 64.506393 V 139.7252 h 4.499991 v -14.94734 h -4.499991 v -14.94735 h 4.499991 V 94.883185 h -4.499991 v -14.94735 h 4.499991 v -14.94734 h -4.499991 v -14.94734 h 4.499991 v -14.94733 h -4.499991 v -14.94736 h 4.499991 V 5.1991446 h 7.999984 V 20.146465 Z"
       id="path10100" />
    <circle
       transform="matrix(0,-1,-1,0,0,0)"
       style="fill:none;stroke:#000000;stroke-width:0.0499999mm"
       r="0.74999774"
       cx="-264.19833"
       cy="-90.667915"
       id="circle10102" />
    <circle
       transform="matrix(0,-1,-1,0,0,0)"
       style="fill:none;stroke:#000000;stroke-width:0.0499999mm"
       r="0.74999774"
       cx="-30.199139"
       cy="-90.667915"
       id="circle10104" />
    <circle
       transform="matrix(0,-1,-1,0,0,0)"
       style="fill:none;stroke:#000000;stroke-width:0.0499999mm"
       r="0.74999774"
       cx="-20.199177"
       cy="-90.667915"
       id="circle10106" />
    <path
       style="fill:none;stroke:#000000;stroke-width:0.0499999mm"
       d="M 86.667743,20.146435 V 35.09375 h -4.499986 v 14.947326 h 4.499986 v 14.947325 h -4.499986 v 14.947315 h 4.499986 v 14.947325 h -4.499986 v 14.947339 h 4.499986 v 14.9473 h -4.499986 v 14.94733 h 4.499986 v 14.94733 h -4.499986 v 14.94732 h 4.499986 v 14.94732 h -4.499986 v 14.94733 h 4.499986 v 14.94732 h -4.499986 v 14.94732 h 4.499986 v 14.94732 h -4.499986 v 14.94733 h 4.499986 v 14.94732 h -4.499986 v 14.94733 H 99.167706 V 274.25092 H 94.667719 V 259.3036 h 4.499987 v -14.94733 h -4.499987 v -14.94732 h 4.499987 v -14.94732 h -4.499987 v -14.94732 h 4.499987 v -14.94733 h -4.499987 v -14.94732 h 4.499987 v -14.94732 h -4.499987 v -14.94733 h 4.499987 v -14.94733 h -4.499987 v -14.9473 h 4.499987 V 94.883041 H 94.667719 V 79.935716 h 4.499987 V 64.988401 H 94.667719 V 50.041076 h 4.499987 V 35.09375 H 94.667719 V 20.146435 h 4.499987 V 5.1990896 H 82.167757 V 20.146435 Z"
       id="path10108" />
    <circle
       transform="matrix(0,-1,-1,0,0,0)"
       style="fill:none;stroke:#000000;stroke-width:0.0499999mm"
       r="0.74999774"
       cx="-274.1983"
       cy="-90.667915"
       id="circle10110" />
    <circle
       transform="matrix(0,-1,-1,0,0,0)"
       style="fill:none;stroke:#000000;stroke-width:0.05mm"
       r="0.75"
       cx="-259.19879"
       cy="-112.00654"
       id="circle10112" />
    <circle
       transform="matrix(0,-1,-1,0,0,0)"
       style="fill:none;stroke:#000000;stroke-width:0.05mm"
       r="0.75"
       cx="-279.19879"
       cy="-112.00654"
       id="circle10114" />
    <circle
       transform="matrix(0,-1,-1,0,0,0)"
       style="fill:none;stroke:#000000;stroke-width:0.05mm"
       r="0.75"
       cx="-29.198582"
       cy="-112.00654"
       id="circle10116" />
    <path
       style="fill:none;stroke:#000000;stroke-width:0.05mm"
       d="m 103.50615,260.77772 h 4.5 v 14.21053 h -4.5 v 14.21052 h 17 v -14.21052 h -4.5 v -14.21053 h 4.5 v -14.21053 h -4.5 v -14.21052 h 4.5 v -14.21053 h -4.5 v -14.21052 h 4.5 v -14.21054 h -4.5 v -14.21052 h 4.5 v -14.21052 h -4.5 v -14.21052 h 4.5 v -14.21053 h -4.5 v -14.21054 h 4.5 v -14.21053 h -4.5 V 90.251405 h 4.5 v -14.21053 h -4.5 v -14.21052 h 4.5 v -14.21053 h -4.5 v -14.21052 h 4.5 v -14.21051 h -17 v 14.21051 h 4.5 v 14.21052 h -4.5 v 14.21053 h 4.5 v 14.21052 h -4.5 v 14.21053 h 4.5 v 14.210515 h -4.5 v 14.21053 h 4.5 v 14.21054 h -4.5 v 14.21053 h 4.5 v 14.21052 h -4.5 v 14.21052 h 4.5 v 14.21052 h -4.5 v 14.21054 h 4.5 v 14.21052 h -4.5 v 14.21053 h 4.5 v 14.21052 h -4.5 z"
       id="path10118" />
    <circle
       transform="matrix(0,-1,-1,0,0,0)"
       style="fill:none;stroke:#000000;stroke-width:0.05mm"
       r="0.75"
       cx="-49.198586"
       cy="-112.00654"
       id="circle10120" />
    <path
       style="fill:none;stroke:#000000;stroke-width:0.0499999mm"
       d="m 121.50626,47.620335 v 14.210487 h 4.49999 V 76.0413 h -4.49999 v 14.210487 h 4.49999 v 14.210473 h -4.49999 v 14.21049 h 4.49999 v 14.2105 h -4.49999 v 14.21049 h 4.49999 v 14.21047 h -4.49999 v 14.21048 h 4.49999 v 14.21048 h -4.49999 v 14.21049 h 4.49999 v 14.21048 h -4.49999 v 14.21048 h 4.49999 v 14.21049 h -4.49999 v 14.21048 h 4.49999 v 14.21048 h -4.49999 v 14.21049 h 12.49996 v -14.21049 h 4.49999 v -14.21048 h -4.49999 v -14.21048 h 4.49999 v -14.21049 h -4.49999 v -14.21048 h 4.49999 v -14.21048 h -4.49999 v -14.21049 h 4.49999 v -14.21048 h -4.49999 v -14.21048 h 4.49999 v -14.21047 h -4.49999 v -14.21049 h 4.49999 v -14.2105 h -4.49999 v -14.21049 h 4.49999 V 90.251787 h -4.49999 V 76.0413 h 4.49999 V 61.830822 h -4.49999 V 47.620335 h 4.49999 V 33.409858 h -4.49999 V 19.19939 h -12.49996 v 14.210468 h 4.49999 v 14.210477 z"
       id="path10122" />
    <circle
       transform="matrix(0,-1,-1,0,0,0)"
       style="fill:none;stroke:#000000;stroke-width:0.0499999mm"
       r="0.74999774"
       cx="-49.199074"
       cy="-130.00623"
       id="circle10124" />
    <circle
       transform="matrix(0,-1,-1,0,0,0)"
       style="fill:none;stroke:#000000;stroke-width:0.0499999mm"
       r="0.74999774"
       cx="-259.19867"
       cy="-130.00623"
       id="circle10126" />
    <circle
       transform="matrix(0,-1,-1,0,0,0)"
       style="fill:none;stroke:#000000;stroke-width:0.0499999mm"
       r="0.74999774"
       cx="-279.19861"
       cy="-130.00629"
       id="circle10128" />
    <circle
       transform="matrix(0,-1,-1,0,0,0)"
       style="fill:none;stroke:#000000;stroke-width:0.0499999mm"
       r="0.74999774"
       cx="-29.199139"
       cy="-130.00623"
       id="circle10130" />
    <circle
       transform="matrix(0,-1,-1,0,0,0)"
       style="fill:none;stroke:#000000;stroke-width:0.05mm"
       r="0.75"
       cx="-264.19849"
       cy="-148.00635"
       id="circle10132" />
    <path
       style="fill:none;stroke:#000000;stroke-width:0.05mm"
       d="m 152.00633,47.619525 v 14.21053 h 4.5 v 14.21052 h -4.5 v 14.21053 h 4.5 v 14.210525 h -4.5 v 14.21052 h 4.5 v 14.21053 h -4.5 v 14.21052 h 4.5 v 14.21053 h -4.5 v 14.21052 h 4.5 v 14.21053 h -4.5 v 14.21053 h 4.5 v 14.21053 h -4.5 v 14.21052 h 4.5 v 14.21053 h -4.5 v 14.21052 h 4.5 v 14.21053 h -4.5 v 14.21053 h -8 v -14.21053 h -4.5 v -14.21053 h 4.5 v -14.21052 h -4.5 v -14.21053 h 4.5 v -14.21052 h -4.5 v -14.21053 h 4.5 v -14.21053 h -4.5 v -14.21053 h 4.5 v -14.21052 h -4.5 V 147.0932 h 4.5 v -14.21052 h -4.5 v -14.21053 h 4.5 v -14.21052 h -4.5 V 90.251105 h 4.5 v -14.21053 h -4.5 v -14.21052 h 4.5 v -14.21053 h -4.5 v -14.21054 h 4.5 v -14.21051 h 8 v 14.21051 h 4.5 v 14.21054 z"
       id="path10134" />
    <circle
       transform="matrix(0,-1,-1,0,0,0)"
       style="fill:none;stroke:#000000;stroke-width:0.05mm"
       r="0.89677399"
       cx="-44.198574"
       cy="-148.00635"
       id="circle10136" />
    <circle
       transform="matrix(0,-1,-1,0,0,0)"
       style="fill:none;stroke:#000000;stroke-width:0.05mm"
       r="0.89004499"
       cx="-34.198574"
       cy="-148.00635"
       id="circle10138" />
    <circle
       transform="matrix(0,-1,-1,0,0,0)"
       style="fill:none;stroke:#000000;stroke-width:0.05mm"
       r="0.75"
       cx="-274.19849"
       cy="-148.00635"
       id="circle10140" />
    <path
       style="fill:none;stroke:#000000;stroke-width:0.05mm"
       d="m 157.50653,61.830355 h 4.5 v -14.21053 h -4.5 v -14.21052 h 4.5 v -14.21051 h 12.5 v 14.21051 h -4.5 v 14.21052 h 4.5 v 14.21053"
       id="path10142" />
    <circle
       transform="matrix(0,-1,-1,0,0,0)"
       style="fill:none;stroke:#000000;stroke-width:0.05mm"
       r="0.75"
       cx="-274.19879"
       cy="-166.00653"
       id="circle10144" />
    <circle
       transform="matrix(0,-1,-1,0,0,0)"
       style="fill:none;stroke:#000000;stroke-width:0.05mm"
       r="0.75"
       cx="-264.19879"
       cy="-166.00653"
       id="circle10146" />
    <circle
       transform="matrix(0,-1,-1,0,0,0)"
       style="fill:none;stroke:#000000;stroke-width:0.05mm"
       r="0.89004499"
       cx="-34.198582"
       cy="-166.00653"
       id="circle10148" />
    <path
       style="fill:none;stroke:#000000;stroke-width:0.05mm"
       d="m 174.50653,61.830355 h -4.5 v 14.21052 h 4.5 v 14.21053 h -4.5 v 14.210515 h 4.5 v 14.21053 h -4.5 v 14.21054 h 4.5 v 14.21053 h -4.5 v 14.21052 h 4.5 v 14.21052 h -4.5 v 14.21052 h 4.5 v 14.21054 h -4.5 v 14.21052 h 4.5 v 14.21053 h -4.5 v 14.21052 h 4.5 v 14.21053 h -4.5 v 14.21053 h 4.5 v 14.21052 h -12.5 v -14.21052 h -4.5 v -14.21053 h 4.5 v -14.21053 h -4.5 v -14.21052 h 4.5 v -14.21053 h -4.5 v -14.21052 h 4.5 v -14.21054 h -4.5 v -14.21052 h 4.5 v -14.21052 h -4.5 v -14.21052 h 4.5 v -14.21053 h -4.5 v -14.21054 h 4.5 v -14.21053 h -4.5 V 90.251405 h 4.5 v -14.21053 h -4.5 v -14.21052"
       id="path10150" />
    <circle
       transform="matrix(0,-1,-1,0,0,0)"
       style="fill:none;stroke:#000000;stroke-width:0.05mm"
       r="0.89677399"
       cx="-44.198586"
       cy="-166.00653"
       id="circle10152" />
    <text
       xml:space="preserve"
       style="font-size:10.783px;font-family:'.Hiragino Kaku Gothic Interface';-inkscape-font-specification:'.Hiragino Kaku Gothic Interface';fill:#000000;fill-opacity:0.950089;stroke:#0000ff;stroke-width:0;stroke-linecap:round;stroke-linejoin:round"
       x="100.30821"
       y="-1.6939418"
       id="text17942"
       transform="scale(0.77995239,1.2821295)"><tspan
         sodipodi:role="line"
         id="tspan17940"
         style="stroke-width:0"
         x="100.30821"
         y="-1.6939418">4.5mm</tspan></text>
  </g>
</svg>
