<?xml version="1.0" encoding="UTF-8" standalone="no"?>
<svg
   width="1099.694mm"
   height="455.230mm"
   viewBox="-678.750061 -340.115417 1099.694214 455.230408"
   version="1.1"
   id="svg6251"
   sodipodi:docname="tray.svg"
   inkscape:version="1.2.1 (9c6d41e, 2022-07-14)"
   xmlns:inkscape="http://www.inkscape.org/namespaces/inkscape"
   xmlns:sodipodi="http://sodipodi.sourceforge.net/DTD/sodipodi-0.dtd"
   xmlns="http://www.w3.org/2000/svg"
   xmlns:svg="http://www.w3.org/2000/svg">
  <defs
     id="defs6255" />
  <sodipodi:namedview
     id="namedview6253"
     pagecolor="#ffffff"
     bordercolor="#000000"
     borderopacity="0.25"
     inkscape:showpageshadow="2"
     inkscape:pageopacity="0.0"
     inkscape:pagecheckerboard="0"
     inkscape:deskcolor="#d1d1d1"
     inkscape:document-units="mm"
     showgrid="false"
     inkscape:zoom="0.29737819"
     inkscape:cx="1592.2486"
     inkscape:cy="862.53804"
     inkscape:window-width="2560"
     inkscape:window-height="1387"
     inkscape:window-x="0"
     inkscape:window-y="215"
     inkscape:window-maximized="1"
     inkscape:current-layer="svg6251" />
  <circle
     transform="matrix(-0,-0.999998,-0.999998,0,-546.749695,-110.384895)"
     style="stroke:#ff0000;stroke-width:0.05mm;fill:none"
     r="1.5"
     cx="0"
     cy="0"
     id="circle6041" />
  <circle
     transform="matrix(-0,-0.999998,-0.999998,0,-546.749756,-311.384491)"
     style="stroke:#ff0000;stroke-width:0.05mm;fill:none"
     r="1.5"
     cx="0"
     cy="0"
     id="circle6043" />
  <circle
     transform="matrix(-0,-0.999998,-0.999998,0,-528.749756,-232.384644)"
     style="stroke:#ff0000;stroke-width:0.05mm;fill:none"
     r="1.5"
     cx="0"
     cy="0"
     id="circle6045" />
  <circle
     transform="matrix(-0,-0.999998,-0.999998,0,-528.749756,-311.384491)"
     style="stroke:#ff0000;stroke-width:0.05mm;fill:none"
     r="1.5"
     cx="0"
     cy="0"
     id="circle6047" />
  <circle
     transform="matrix(-0,-0.999998,-0.999998,0,-546.749756,-232.384644)"
     style="stroke:#ff0000;stroke-width:0.05mm;fill:none"
     r="1.5"
     cx="0"
     cy="0"
     id="circle6049" />
  <circle
     transform="matrix(-0,-0.999998,-0.999998,0,-546.749756,-293.384521)"
     style="stroke:#ff0000;stroke-width:0.05mm;fill:none"
     r="1.5"
     cx="0"
     cy="0"
     id="circle6051" />
  <circle
     transform="matrix(-0,-0.999998,-0.999998,0,-546.749756,-250.384613)"
     style="stroke:#ff0000;stroke-width:0.05mm;fill:none"
     r="1.5"
     cx="0"
     cy="0"
     id="circle6053" />
  <circle
     transform="matrix(-0,-0.999998,-0.999998,0,-528.749756,-110.384895)"
     style="stroke:#ff0000;stroke-width:0.05mm;fill:none"
     r="1.5"
     cx="0"
     cy="0"
     id="circle6055" />
  <circle
     transform="matrix(-0,-0.999998,-0.999998,0,-528.749756,-293.384521)"
     style="stroke:#ff0000;stroke-width:0.05mm;fill:none"
     r="1.5"
     cx="0"
     cy="0"
     id="circle6057" />
  <circle
     transform="matrix(-0,-0.999998,-0.999998,0,-528.749756,-171.384766)"
     style="stroke:#ff0000;stroke-width:0.05mm;fill:none"
     r="1.5"
     cx="0"
     cy="0"
     id="circle6059" />
  <circle
     transform="matrix(-0,-0.999998,-0.999998,0,-528.749756,-250.384613)"
     style="stroke:#ff0000;stroke-width:0.05mm;fill:none"
     r="1.5"
     cx="0"
     cy="0"
     id="circle6061" />
  <circle
     transform="matrix(-0,-0.999998,-0.999998,0,-546.749695,-189.384735)"
     style="stroke:#ff0000;stroke-width:0.05mm;fill:none"
     r="1.5"
     cx="0"
     cy="0"
     id="circle6063" />
  <circle
     transform="matrix(-0,-0.999998,-0.999998,0,-546.749695,-128.384857)"
     style="stroke:#ff0000;stroke-width:0.05mm;fill:none"
     r="1.5"
     cx="0"
     cy="0"
     id="circle6065" />
  <circle
     transform="matrix(-0,-0.999998,-0.999998,0,-528.749756,-128.384857)"
     style="stroke:#ff0000;stroke-width:0.05mm;fill:none"
     r="1.5"
     cx="0"
     cy="0"
     id="circle6067" />
  <circle
     transform="matrix(-0,-0.999998,-0.999998,0,-546.749695,-171.384766)"
     style="stroke:#ff0000;stroke-width:0.05mm;fill:none"
     r="1.5"
     cx="0"
     cy="0"
     id="circle6069" />
  <path
     transform="matrix(-0,-0.999998,-0.999998,0,-485.099823,-81.880768)"
     style="stroke:#000000;stroke-width:0.05mm;fill:none"
     d="M181.560013,87.150002L172.004456,87.150002L172.004456,82.650002L162.448898,82.650002L162.448898,87.150002L152.893341,87.150002L152.893341,82.650002L143.337784,82.650002L143.337784,87.150002L133.782242,87.150002L133.782242,82.650002L124.226677,82.650002L124.226677,87.150002L114.671127,87.150002L114.671127,82.650002L105.11557,82.650002L105.11557,87.150002L95.560013,87.150002L95.560013,82.650002L86.004456,82.650002L86.004456,87.150002L76.448906,87.150002L76.448906,82.650002L66.893349,82.650002L66.893349,87.150002L57.337791,87.150002L57.337791,82.650002L47.782234,82.650002L47.782234,87.150002L38.226681,87.150002L38.226681,82.650002L28.671124,82.650002L28.671124,87.150002L19.115568,87.150002L19.115568,82.650002L9.560014,82.650002L9.560014,87.150002L0.004458,87.150002L0.004458,77.292854L4.504458,77.292854L4.504458,67.435715L0.004458,67.435715L0.004458,57.578571L4.504458,57.578571L4.504458,47.721428L0.004458,47.721428L0.004458,37.864285L4.504458,37.864285L4.504458,28.007143L0.004458,28.007143L0.004458,18.15L9.560014,18.15L9.560014,22.65L19.115568,22.65L19.115568,18.15L28.671124,18.15L28.671124,22.65L38.226681,22.65L38.226681,18.15L47.782234,18.15L47.782234,22.65L57.337791,22.65L57.337791,18.15L66.893349,18.15L66.893349,22.65L76.448906,22.65L76.448906,18.15L86.004456,18.15L86.004456,22.65L95.560013,22.65L95.560013,18.15L105.11557,18.15L105.11557,22.65L114.671127,22.65L114.671127,18.15L124.226677,18.15L124.226677,22.65L133.782242,22.65L133.782242,18.15L143.337784,18.15L143.337784,22.65L152.893341,22.65L152.893341,18.15L162.448898,18.15L162.448898,22.65L172.004456,22.65L172.004456,18.15L181.560013,18.15L181.560013,22.65L191.11557,22.65L191.11557,18.15L200.671127,18.15L200.671127,22.65L210.226685,22.65L210.226685,18.15L219.782242,18.15L219.782242,22.65L229.337784,22.65L229.337784,18.15L238.893341,18.15L238.893341,22.65L248.448898,22.65L248.448898,18.15L258.004456,18.15L258.004456,28.007143L253.504456,28.007143L253.504456,37.864285L258.004456,37.864285L258.004456,47.721428L253.504456,47.721428L253.504456,57.578571L258.004456,57.578571L258.004456,67.435715L253.504456,67.435715L253.504456,77.292854L258.004456,77.292854L258.004456,87.150002L248.448898,87.150002L248.448898,82.650002L238.893341,82.650002L238.893341,87.150002L229.337784,87.150002L229.337784,82.650002L219.782242,82.650002L219.782242,87.150002L210.226685,87.150002L210.226685,82.650002L200.671127,82.650002L200.671127,87.150002L191.11557,87.150002L191.11557,82.650002L181.560013,82.650002L181.560013,87.150002z"
     id="path6071" />
  <circle
     transform="matrix(-0,-0.999998,-0.999998,0,-528.749756,-189.384735)"
     style="stroke:#ff0000;stroke-width:0.05mm;fill:none"
     r="1.5"
     cx="0"
     cy="0"
     id="circle6073" />
  <path
     transform="matrix(-0,1,1,0,-864.869019,-341.656006)"
     style="stroke:#000000;stroke-width:0.05mm;fill:none"
     d="M242.246292,283.526764C240.426956,281.946259,238.098053,281.075928,235.68808,281.075928L25.854465,281.075928C23.444492,281.075928,21.115589,281.946259,19.296259,283.526764C14.434608,287.750214,8.211258,290.075928,1.771276,290.075928L1.771276,281.075928L6.271276,281.075928L6.271276,272.075928L1.771276,272.075928L1.771276,263.075928L6.271276,263.075928L6.271276,254.075928L1.771276,254.075928L1.771276,245.075928L11.326832,245.075928L11.326832,240.575928L20.882387,240.575928L20.882387,245.075928L30.437943,245.075928L30.437943,240.575928L39.9935,240.575928L39.9935,245.075928L49.549053,245.075928L49.549053,240.575928L59.10461,240.575928L59.10461,245.075928L68.660164,245.075928L68.660164,240.575928L78.215721,240.575928L78.215721,245.075928L87.771278,245.075928L87.771278,240.575928L97.326836,240.575928L97.326836,245.075928L106.882393,245.075928L106.882393,240.575928L116.437943,240.575928L116.437943,245.075928L125.9935,245.075928L125.9935,240.575928L135.549057,240.575928L135.549057,245.075928L145.104614,245.075928L145.104614,240.575928L154.660172,240.575928L154.660172,245.075928L164.215714,245.075928L164.215714,240.575928L173.771271,240.575928L173.771271,245.075928L183.326828,245.075928L183.326828,240.575928L192.882385,240.575928L192.882385,245.075928L202.437943,245.075928L202.437943,240.575928L211.9935,240.575928L211.9935,245.075928L221.549057,245.075928L221.549057,240.575928L231.104614,240.575928L231.104614,245.075928L240.660172,245.075928L240.660172,240.575928L250.215714,240.575928L250.215714,245.075928L259.771271,245.075928L259.771271,254.075928L255.271271,254.075928L255.271271,263.075928L259.771271,263.075928L259.771271,272.075928L255.271271,272.075928L255.271271,281.075928L259.771271,281.075928L259.771271,290.075928C253.331299,290.075928,247.107941,287.750214,242.246292,283.526764z"
     id="path6075" />
  <path
     transform="matrix(-0,1,1,0,-864.869019,-341.656006)"
     style="stroke:#ff0000;stroke-width:0.05mm;fill:none"
     d="M77.271278,257.075928L123.271278,257.075928C126.584976,257.075928,129.271271,259.762207,129.271271,263.075928C129.271286,266.389648,126.584991,269.075928,123.271278,269.075928L77.271278,269.075928C73.957573,269.075928,71.271278,266.389648,71.271278,263.075928C71.271278,259.762207,73.957565,257.075928,77.271278,257.075928z"
     id="path6077" />
  <path
     transform="matrix(-0,1,1,0,-864.869019,-341.656006)"
     style="stroke:#ff0000;stroke-width:0.05mm;fill:none"
     d="M245.040558,214.618988C248.354263,214.618988,251.040558,211.932693,251.040558,208.618988C251.040558,205.305283,248.354263,202.618988,245.040558,202.618988L199.040558,202.618988C195.726852,202.618988,193.040558,205.305283,193.040558,208.618988C193.040558,211.932693,195.726852,214.618988,199.040558,214.618988L245.040558,214.618988z"
     id="path6079" />
  <path
     transform="matrix(-0,1,1,0,-864.869019,-341.656006)"
     style="stroke:#ff0000;stroke-width:0.05mm;fill:none"
     d="M62.271275,269.075928L16.271276,269.075928C12.957568,269.075928,10.271276,266.389648,10.271276,263.075928C10.271276,259.762207,12.957567,257.075928,16.271276,257.075928L62.271275,257.075928C65.584984,257.075928,68.271271,259.762207,68.271271,263.075928C68.271278,266.389648,65.584984,269.075928,62.271278,269.075928"
     id="path6081" />
  <path
     transform="matrix(-0,1,1,0,-864.869019,-341.656006)"
     style="stroke:#ff0000;stroke-width:0.05mm;fill:none"
     d="M62.040565,214.618988L16.040564,214.618988C12.726855,214.618988,10.040564,211.932693,10.040564,208.618988C10.040564,205.305283,12.726854,202.618988,16.040564,202.618988L62.040565,202.618988"
     id="path6083" />
  <path
     transform="matrix(-0,1,1,0,-864.869019,-341.656006)"
     style="stroke:#000000;stroke-width:0.05mm;fill:none"
     d="M242.015594,229.069824C240.196259,227.489319,237.867355,226.618988,235.457382,226.618988L25.623755,226.618988C23.213781,226.618988,20.884878,227.489304,19.065548,229.069824C14.203896,233.293304,7.980546,235.618988,1.540565,235.618988L1.540565,226.618988L6.040565,226.618988L6.040565,217.618988L1.540565,217.618988L1.540565,208.618988L6.040565,208.618988L6.040565,199.618988L1.540565,199.618988L1.540565,190.618988L11.09612,190.618988L11.09612,186.118988L20.651676,186.118988L20.651676,190.618988L30.207232,190.618988L30.207232,186.118988L39.762787,186.118988L39.762787,190.618988L49.318344,190.618988L49.318344,186.118988L58.873898,186.118988L58.873898,190.618988L68.429451,190.618988L68.429451,186.118988L77.985008,186.118988L77.985008,190.618988L87.540565,190.618988L87.540565,186.118988L97.096123,186.118988L97.096123,190.618988L106.651672,190.618988L106.651672,186.118988L116.20723,186.118988L116.20723,190.618988L125.762787,190.618988L125.762787,186.118988L135.318344,186.118988L135.318344,190.618988L144.873901,190.618988L144.873901,186.118988L154.429459,186.118988L154.429459,190.618988L163.985016,190.618988L163.985016,186.118988L173.540558,186.118988L173.540558,190.618988L183.096115,190.618988L183.096115,186.118988L192.651672,186.118988L192.651672,190.618988L202.20723,190.618988L202.20723,186.118988L211.762787,186.118988L211.762787,190.618988L221.318344,190.618988L221.318344,186.118988L230.873901,186.118988L230.873901,190.618988L240.429459,190.618988L240.429459,186.118988L249.985016,186.118988L249.985016,190.618988L259.540558,190.618988L259.540558,199.618988L255.040558,199.618988L255.040558,208.618988L259.540558,208.618988L259.540558,217.618988L255.040558,217.618988L255.040558,226.618988L259.540558,226.618988L259.540558,235.618988C253.100586,235.619003,246.877228,233.293304,242.015579,229.069824"
     id="path6085" />
  <path
     transform="matrix(-0,1,1,0,-864.869019,-341.656006)"
     style="stroke:#ff0000;stroke-width:0.05mm;fill:none"
     d="M138.271271,257.075928L184.271271,257.075928C187.584976,257.075928,190.271271,259.762207,190.271271,263.075928C190.271271,266.389648,187.584976,269.075928,184.271271,269.075928L138.271271,269.075928C134.957565,269.075928,132.271271,266.389648,132.271271,263.075928C132.271271,259.762207,134.957565,257.075928,138.271271,257.075928z"
     id="path6087" />
  <path
     transform="matrix(-0,1,1,0,-864.869019,-341.656006)"
     style="stroke:#ff0000;stroke-width:0.05mm;fill:none"
     d="M138.040558,202.618988L184.040558,202.618988C187.354263,202.618988,190.040558,205.305283,190.040558,208.618988C190.040558,211.932693,187.354263,214.618988,184.040558,214.618988L138.040558,214.618988C134.726852,214.618988,132.040558,211.932693,132.040558,208.618988C132.040558,205.305283,134.726852,202.618988,138.040558,202.618988z"
     id="path6089" />
  <path
     transform="matrix(-0,1,1,0,-864.869019,-341.656006)"
     style="stroke:#ff0000;stroke-width:0.05mm;fill:none"
     d="M77.040565,202.618988L123.040573,202.618988C126.354271,202.618988,129.040558,205.305283,129.040558,208.618988C129.040573,211.932693,126.354279,214.618988,123.040573,214.618988L77.040565,214.618988C73.72686,214.618988,71.040565,211.932693,71.040565,208.618988C71.040565,205.305283,73.726852,202.618988,77.040565,202.618988z"
     id="path6091" />
  <path
     transform="matrix(-0,1,1,0,-864.869019,-341.656006)"
     style="stroke:#ff0000;stroke-width:0.05mm;fill:none"
     d="M62.040565,202.618988C65.354271,202.618988,68.040565,205.305283,68.040565,208.618988C68.040565,211.932693,65.354279,214.618988,62.040569,214.618988"
     id="path6093" />
  <path
     transform="matrix(-0,1,1,0,-864.869019,-341.656006)"
     style="stroke:#ff0000;stroke-width:0.05mm;fill:none"
     d="M199.271271,257.075928L245.271271,257.075928C248.584976,257.075928,251.271271,259.762207,251.271271,263.075928C251.271271,266.389648,248.584976,269.075928,245.271271,269.075928L199.271271,269.075928C195.957565,269.075928,193.271271,266.389648,193.271271,263.075928C193.271271,259.762207,195.957565,257.075928,199.271271,257.075928z"
     id="path6095" />
  <path
     style="fill:none;stroke:#000000;stroke-width:0.0499999mm"
     d="m -480.96925,-139.1511 c -3.68888,1.57027 -6.08333,5.1919 -6.08333,9.20108 v 2.65566 h 4.49999 v 9 h -4.49999 v 9 h 4.49999 v 9.00001 h -4.49999 v 8.999995 h 4.49999 v 9 h 5.35713 v 4.5 h 9.85712 v -4.5 h 9.85712 v 4.5 h 9.85713 v -4.5 h 9.85712 v 4.5 h 9.85712 v -4.5 h 5.35714 v -9 h 4.49999 v -8.999995 h -4.49999 v -9.00001 h 4.49999 v -9 h -4.49999 v -9 h 4.49999 v -2.65566 c 0,-4.00918 -2.39446,-7.63081 -6.08333,-9.20108 -7.44603,-3.16957 -13.29572,-9.21295 -16.22117,-16.75825 -1.49222,-3.8487 -5.19587,-6.38501 -9.32371,-6.38501 h -5.74344 c -4.12784,0 -7.8315,2.53631 -9.32371,6.38501 -2.92545,7.54529 -8.77514,13.58867 -16.22116,16.75825"
     id="path6113" />
  <ellipse
     transform="scale(1,-1)"
     style="fill:none;stroke:#ff0000;stroke-width:0.0499999mm"
     cx="-452.55258"
     cy="137.29539"
     id="circle6115"
     rx="4.4499927"
     ry="4.4500017" />
  <path
     style="fill:none;stroke:#000000;stroke-width:0.0499999mm"
     d="m -479.96922,-226.90032 c -3.68888,1.57026 -6.08333,5.19189 -6.08333,9.20108 v 2.65567 h 4.49999 v 9 h -4.49999 v 9 h 4.49999 v 8.99999 h -4.49999 v 9 h 4.49999 v 9 h 5.35713 v 4.5 h 9.85712 v -4.5 h 9.85712 v 4.5 h 9.85714 v -4.5 h 9.85711 v 4.5 h 9.85713 v -4.5 h 5.35712 v -9 h 4.49999 v -9 h -4.49999 v -8.99999 h 4.49999 v -9 h -4.49999 v -9 h 4.49999 v -2.65567 c 0,-4.00919 -2.39445,-7.63082 -6.08333,-9.20108 -7.44603,-3.16957 -13.29572,-9.21294 -16.22118,-16.75824 -1.4922,-3.8487 -5.19586,-6.38501 -9.32369,-6.38501 h -5.74345 c -4.12783,0 -7.83149,2.53631 -9.3237,6.38501 -2.92545,7.54529 -8.77514,13.58867 -16.22117,16.75825"
     id="path6117" />
  <ellipse
     transform="scale(1,-1)"
     style="fill:none;stroke:#ff0000;stroke-width:0.0499999mm"
     cx="-451.55258"
     cy="225.0444"
     id="circle6119"
     rx="4.4499927"
     ry="4.4500017" />
  <path
     style="fill:none;stroke:#000000;stroke-width:0.0499999mm"
     d="m -479.96922,-314.90022 c -3.68888,1.57027 -6.08333,5.19189 -6.08333,9.20108 v 2.65567 h 4.49999 v 9 h -4.49999 v 9 h 4.49999 v 8.99999 h -4.49999 v 9 h 4.49999 v 9 h 5.35713 v 4.5 h 9.85712 v -4.5 h 9.85712 v 4.5 h 9.85714 v -4.5 h 9.85711 v 4.5 h 9.85713 v -4.5 h 5.35712 v -9 h 4.49999 v -9 h -4.49999 v -8.99999 h 4.49999 v -9 h -4.49999 v -9 h 4.49999 v -2.65567 c 0,-4.00919 -2.39445,-7.63081 -6.08333,-9.20108 -7.44603,-3.16957 -13.29572,-9.21294 -16.22118,-16.75824 -1.4922,-3.84869 -5.19586,-6.38501 -9.32369,-6.38501 h -5.74345 c -4.12783,0 -7.83149,2.53632 -9.3237,6.38501 -2.92545,7.54529 -8.77514,13.58867 -16.22117,16.75826"
     id="path6243" />
  <ellipse
     transform="scale(1,-1)"
     style="fill:none;stroke:#ff0000;stroke-width:0.0499999mm"
     cx="-451.55258"
     cy="313.0444"
     id="circle6245"
     rx="4.4499927"
     ry="4.4500017" />
  <path
     style="fill:none;stroke:#000000;stroke-width:0.0499999mm"
     d="m -405.96925,-139.1511 c -3.68888,1.57027 -6.08333,5.1919 -6.08333,9.20108 v 2.65566 h 4.49999 v 9 h -4.49999 v 9 h 4.49999 v 9.00001 h -4.49999 v 8.999995 h 4.49999 v 9 h 5.35713 v 4.5 h 9.85712 v -4.5 h 9.85712 v 4.5 h 9.85713 v -4.5 h 9.85712 v 4.5 h 9.85712 v -4.5 h 5.35714 v -9 h 4.49999 v -8.999995 h -4.49999 v -9.00001 h 4.49999 v -9 h -4.49999 v -9 h 4.49999 v -2.65566 c 0,-4.00918 -2.39446,-7.63081 -6.08333,-9.20108 -7.44603,-3.16957 -13.29572,-9.21295 -16.22117,-16.75825 -1.49222,-3.8487 -5.19587,-6.38501 -9.32371,-6.38501 h -5.74344 c -4.12784,0 -7.8315,2.53631 -9.32371,6.38501 -2.92545,7.54529 -8.77514,13.58867 -16.22116,16.75825"
     id="path6247" />
  <ellipse
     transform="scale(1,-1)"
     style="fill:none;stroke:#ff0000;stroke-width:0.0499999mm"
     cx="-377.55258"
     cy="137.29539"
     id="circle6249"
     rx="4.4499927"
     ry="4.4500017" />
  <text
     xml:space="preserve"
     style="font-size:27.2631px;font-family:'.Hiragino Kaku Gothic Interface';-inkscape-font-specification:'.Hiragino Kaku Gothic Interface';fill:#000000;fill-opacity:0.950089;stroke:#0000ff;stroke-width:0;stroke-linecap:round;stroke-linejoin:round"
     x="-783.96997"
     y="-277.91028"
     id="text6621"
     transform="scale(0.75854852,1.3183072)"><tspan
       sodipodi:role="line"
       id="tspan6619"
       style="stroke-width:0"
       x="-783.96997"
       y="-277.91028">4.5 mm</tspan></text>
</svg>
