999
"DXF R12 Output" (www.mydxf.blogspot.com)
 0 
SECTION
 2 
HEADER
 9 
$ACADVER
 1 
AC1009
 9 
$EXTMIN
 10 
 0 
 20 
 0 
 9 
$EXTMAX
 10 
 8.5 
 20 
 11 
 0 
ENDSEC
 0 
SECTION
 2 
ENTITIES
0
LINE
8
Layer 1
10
231.595000
20
129.013000
11
221.594000
21
129.013000
0
LINE
8
Layer 1
10
221.594000
20
125.063000
11
221.594000
21
129.013000
0
LINE
8
Layer 1
10
231.595000
20
125.063000
11
221.594000
21
125.063000
0
LINE
8
Layer 1
10
231.595000
20
125.063000
11
231.595000
21
129.013000
0
LINE
8
Layer 1
10
237.320000
20
126.314000
11
237.832662
21
126.526340
0
LINE
8
Layer 1
10
237.832662
20
126.526340
11
238.045009
21
127.038979
0
LINE
8
Layer 1
10
238.045009
20
127.038979
11
237.832662
21
127.551613
0
LINE
8
Layer 1
10
237.832662
20
127.551613
11
237.320000
21
127.763978
0
LINE
8
Layer 1
10
237.320000
20
127.763978
11
236.807369
21
127.551613
0
LINE
8
Layer 1
10
236.807369
20
127.551613
11
236.595031
21
127.038979
0
LINE
8
Layer 1
10
236.595031
20
127.038979
11
236.807370
21
126.526339
0
LINE
8
Layer 1
10
236.807370
20
126.526339
11
237.320000
21
126.314000
0
LINE
8
Layer 1
10
237.320000
20
126.314000
11
237.320000
21
126.314000
0
LINE
8
Layer 1
10
211.320000
20
126.314000
11
211.832636
21
126.526340
0
LINE
8
Layer 1
10
211.832636
20
126.526340
11
212.044979
21
127.038979
0
LINE
8
Layer 1
10
212.044979
20
127.038979
11
211.832635
21
127.551613
0
LINE
8
Layer 1
10
211.832635
20
127.551613
11
211.320000
21
127.763978
0
LINE
8
Layer 1
10
211.320000
20
127.763978
11
210.807338
21
127.551613
0
LINE
8
Layer 1
10
210.807338
20
127.551613
11
210.594991
21
127.038979
0
LINE
8
Layer 1
10
210.594991
20
127.038979
11
210.807338
21
126.526339
0
LINE
8
Layer 1
10
210.807338
20
126.526339
11
211.320000
21
126.314000
0
LINE
8
Layer 1
10
211.320000
20
126.314000
11
211.320000
21
126.314000
0
LINE
8
Layer 1
10
90.820500
20
133.289000
11
91.307045
21
133.387229
0
LINE
8
Layer 1
10
91.307045
20
133.387229
11
91.704362
21
133.655111
0
LINE
8
Layer 1
10
91.704362
20
133.655111
11
91.972241
21
134.052437
0
LINE
8
Layer 1
10
91.972241
20
134.052437
11
92.070470
21
134.539000
0
LINE
8
Layer 1
10
92.070470
20
134.539000
11
91.972241
21
135.025558
0
LINE
8
Layer 1
10
91.972241
20
135.025558
11
91.704363
21
135.422877
0
LINE
8
Layer 1
10
91.704363
20
135.422877
11
91.307045
21
135.690758
0
LINE
8
Layer 1
10
91.307045
20
135.690758
11
90.820500
21
135.789000
0
LINE
8
Layer 1
10
90.820500
20
135.789000
11
90.333938
21
135.690758
0
LINE
8
Layer 1
10
90.333938
20
135.690758
11
89.936612
21
135.422878
0
LINE
8
Layer 1
10
89.936612
20
135.422878
11
89.668729
21
135.025559
0
LINE
8
Layer 1
10
89.668729
20
135.025559
11
89.570500
21
134.539000
0
LINE
8
Layer 1
10
89.570500
20
134.539000
11
89.668729
21
134.052438
0
LINE
8
Layer 1
10
89.668729
20
134.052438
11
89.936611
21
133.655112
0
LINE
8
Layer 1
10
89.936611
20
133.655112
11
90.333937
21
133.387229
0
LINE
8
Layer 1
10
90.333937
20
133.387229
11
90.820500
21
133.289000
0
LINE
8
Layer 1
10
90.820500
20
133.289000
11
90.820500
21
133.289000
0
LINE
8
Layer 1
10
90.820500
20
118.289000
11
91.307045
21
118.387229
0
LINE
8
Layer 1
10
91.307045
20
118.387229
11
91.704362
21
118.655111
0
LINE
8
Layer 1
10
91.704362
20
118.655111
11
91.972241
21
119.052437
0
LINE
8
Layer 1
10
91.972241
20
119.052437
11
92.070470
21
119.539000
0
LINE
8
Layer 1
10
92.070470
20
119.539000
11
91.972241
21
120.025562
0
LINE
8
Layer 1
10
91.972241
20
120.025562
11
91.704363
21
120.422892
0
LINE
8
Layer 1
10
91.704363
20
120.422892
11
91.307045
21
120.690783
0
LINE
8
Layer 1
10
91.307045
20
120.690783
11
90.820500
21
120.789030
0
LINE
8
Layer 1
10
90.820500
20
120.789030
11
90.333938
21
120.690784
0
LINE
8
Layer 1
10
90.333938
20
120.690784
11
89.936612
21
120.422893
0
LINE
8
Layer 1
10
89.936612
20
120.422893
11
89.668729
21
120.025563
0
LINE
8
Layer 1
10
89.668729
20
120.025563
11
89.570500
21
119.539000
0
LINE
8
Layer 1
10
89.570500
20
119.539000
11
89.668729
21
119.052438
0
LINE
8
Layer 1
10
89.668729
20
119.052438
11
89.936611
21
118.655112
0
LINE
8
Layer 1
10
89.936611
20
118.655112
11
90.333937
21
118.387229
0
LINE
8
Layer 1
10
90.333937
20
118.387229
11
90.820500
21
118.289000
0
LINE
8
Layer 1
10
90.820500
20
118.289000
11
90.820500
21
118.289000
0
LINE
8
Layer 1
10
193.820000
20
126.039000
11
194.209243
21
126.117581
0
LINE
8
Layer 1
10
194.209243
20
126.117581
11
194.527104
21
126.331884
0
LINE
8
Layer 1
10
194.527104
20
126.331884
11
194.741413
21
126.649744
0
LINE
8
Layer 1
10
194.741413
20
126.649744
11
194.819999
21
127.038999
0
LINE
8
Layer 1
10
194.819999
20
127.038999
11
194.741413
21
127.428237
0
LINE
8
Layer 1
10
194.741413
20
127.428237
11
194.527104
21
127.746099
0
LINE
8
Layer 1
10
194.527104
20
127.746099
11
194.209243
21
127.960411
0
LINE
8
Layer 1
10
194.209243
20
127.960411
11
193.820000
21
128.038998
0
LINE
8
Layer 1
10
193.820000
20
128.038998
11
193.430745
21
127.960411
0
LINE
8
Layer 1
10
193.430745
20
127.960411
11
193.112885
21
127.746099
0
LINE
8
Layer 1
10
193.112885
20
127.746099
11
192.898582
21
127.428237
0
LINE
8
Layer 1
10
192.898582
20
127.428237
11
192.820001
21
127.038999
0
LINE
8
Layer 1
10
192.820001
20
127.038999
11
192.898582
21
126.649744
0
LINE
8
Layer 1
10
192.898582
20
126.649744
11
193.112885
21
126.331884
0
LINE
8
Layer 1
10
193.112885
20
126.331884
11
193.430745
21
126.117581
0
LINE
8
Layer 1
10
193.430745
20
126.117581
11
193.820000
21
126.039000
0
LINE
8
Layer 1
10
193.820000
20
126.039000
11
193.820000
21
126.039000
0
LINE
8
Layer 1
10
244.110000
20
114.537000
11
244.110000
21
119.038000
0
LINE
8
Layer 1
10
230.373000
20
119.038000
11
244.110000
21
119.038000
0
LINE
8
Layer 1
10
230.373000
20
114.537000
11
230.373000
21
119.038000
0
LINE
8
Layer 1
10
230.373000
20
114.537000
11
216.636000
21
114.537000
0
LINE
8
Layer 1
10
216.636000
20
114.537000
11
216.636000
21
119.038000
0
LINE
8
Layer 1
10
202.899000
20
119.038000
11
216.636000
21
119.038000
0
LINE
8
Layer 1
10
202.899000
20
114.537000
11
202.899000
21
119.038000
0
LINE
8
Layer 1
10
202.899000
20
114.537000
11
189.162000
21
114.537000
0
LINE
8
Layer 1
10
189.162000
20
114.537000
11
189.162000
21
119.038000
0
LINE
8
Layer 1
10
175.424000
20
119.038000
11
189.162000
21
119.038000
0
LINE
8
Layer 1
10
175.424000
20
114.537000
11
175.424000
21
119.038000
0
LINE
8
Layer 1
10
175.424000
20
114.537000
11
161.690000
21
114.537000
0
LINE
8
Layer 1
10
161.690000
20
114.537000
11
161.690000
21
119.038000
0
LINE
8
Layer 1
10
147.953000
20
119.038000
11
161.690000
21
119.038000
0
LINE
8
Layer 1
10
147.953000
20
114.537000
11
147.953000
21
119.038000
0
LINE
8
Layer 1
10
147.953000
20
114.537000
11
134.216000
21
114.537000
0
LINE
8
Layer 1
10
134.216000
20
114.537000
11
134.216000
21
119.038000
0
LINE
8
Layer 1
10
120.478000
20
119.038000
11
134.216000
21
119.038000
0
LINE
8
Layer 1
10
120.478000
20
114.537000
11
120.478000
21
119.038000
0
LINE
8
Layer 1
10
120.478000
20
114.537000
11
106.741000
21
114.537000
0
LINE
8
Layer 1
10
106.741000
20
114.537000
11
106.741000
21
119.038000
0
LINE
8
Layer 1
10
93.004100
20
119.038000
11
106.741000
21
119.038000
0
LINE
8
Layer 1
10
93.004100
20
114.537000
11
93.004100
21
119.038000
0
LINE
8
Layer 1
10
93.004100
20
114.537000
11
79.267000
21
114.537000
0
LINE
8
Layer 1
10
79.267000
20
114.537000
11
79.267000
21
119.038000
0
LINE
8
Layer 1
10
65.529800
20
119.038000
11
79.267000
21
119.038000
0
LINE
8
Layer 1
10
65.529800
20
114.537000
11
65.529800
21
119.038000
0
LINE
8
Layer 1
10
65.529800
20
114.537000
11
51.795300
21
114.537000
0
LINE
8
Layer 1
10
51.795300
20
114.537000
11
51.795300
21
119.038000
0
LINE
8
Layer 1
10
38.057400
20
119.038000
11
51.795300
21
119.038000
0
LINE
8
Layer 1
10
38.057400
20
114.537000
11
38.057400
21
119.038000
0
LINE
8
Layer 1
10
38.057400
20
114.537000
11
24.320500
21
114.537000
0
LINE
8
Layer 1
10
24.320500
20
139.538000
11
24.320500
21
114.537000
0
LINE
8
Layer 1
10
38.057400
20
139.538000
11
24.320500
21
139.538000
0
LINE
8
Layer 1
10
38.057400
20
139.538000
11
38.057400
21
135.037000
0
LINE
8
Layer 1
10
51.795300
20
135.037000
11
38.057400
21
135.037000
0
LINE
8
Layer 1
10
51.795300
20
139.538000
11
51.795300
21
135.037000
0
LINE
8
Layer 1
10
65.529800
20
139.538000
11
51.795300
21
139.538000
0
LINE
8
Layer 1
10
65.529800
20
139.538000
11
65.529800
21
135.037000
0
LINE
8
Layer 1
10
79.267000
20
135.037000
11
65.529800
21
135.037000
0
LINE
8
Layer 1
10
79.267000
20
139.538000
11
79.267000
21
135.037000
0
LINE
8
Layer 1
10
93.004100
20
139.538000
11
79.267000
21
139.538000
0
LINE
8
Layer 1
10
93.004100
20
139.538000
11
93.004100
21
135.037000
0
LINE
8
Layer 1
10
106.741000
20
135.037000
11
93.004100
21
135.037000
0
LINE
8
Layer 1
10
106.741000
20
139.538000
11
106.741000
21
135.037000
0
LINE
8
Layer 1
10
120.478000
20
139.538000
11
106.741000
21
139.538000
0
LINE
8
Layer 1
10
120.478000
20
139.538000
11
120.478000
21
135.037000
0
LINE
8
Layer 1
10
134.216000
20
135.037000
11
120.478000
21
135.037000
0
LINE
8
Layer 1
10
134.216000
20
139.538000
11
134.216000
21
135.037000
0
LINE
8
Layer 1
10
147.953000
20
139.538000
11
134.216000
21
139.538000
0
LINE
8
Layer 1
10
147.953000
20
139.538000
11
147.953000
21
135.037000
0
LINE
8
Layer 1
10
161.690000
20
135.037000
11
147.953000
21
135.037000
0
LINE
8
Layer 1
10
161.690000
20
139.538000
11
161.690000
21
135.037000
0
LINE
8
Layer 1
10
175.424000
20
139.538000
11
161.690000
21
139.538000
0
LINE
8
Layer 1
10
175.424000
20
139.538000
11
175.424000
21
135.037000
0
LINE
8
Layer 1
10
189.162000
20
135.037000
11
175.424000
21
135.037000
0
LINE
8
Layer 1
10
189.162000
20
139.538000
11
189.162000
21
135.037000
0
LINE
8
Layer 1
10
202.899000
20
139.538000
11
189.162000
21
139.538000
0
LINE
8
Layer 1
10
202.899000
20
139.538000
11
202.899000
21
135.037000
0
LINE
8
Layer 1
10
216.636000
20
135.037000
11
202.899000
21
135.037000
0
LINE
8
Layer 1
10
216.636000
20
139.538000
11
216.636000
21
135.037000
0
LINE
8
Layer 1
10
230.373000
20
139.538000
11
216.636000
21
139.538000
0
LINE
8
Layer 1
10
230.373000
20
139.538000
11
230.373000
21
135.037000
0
LINE
8
Layer 1
10
244.110000
20
135.037000
11
230.373000
21
135.037000
0
LINE
8
Layer 1
10
244.110000
20
139.538000
11
244.110000
21
135.037000
0
LINE
8
Layer 1
10
257.847000
20
139.538000
11
244.110000
21
139.538000
0
LINE
8
Layer 1
10
257.847000
20
139.538000
11
257.847000
21
135.037000
0
LINE
8
Layer 1
10
271.584000
20
135.037000
11
257.847000
21
135.037000
0
LINE
8
Layer 1
10
271.584000
20
139.538000
11
271.584000
21
135.037000
0
LINE
8
Layer 1
10
285.322000
20
139.538000
11
271.584000
21
139.538000
0
LINE
8
Layer 1
10
285.322000
20
139.538000
11
285.322000
21
114.537000
0
LINE
8
Layer 1
10
285.322000
20
114.537000
11
271.584000
21
114.537000
0
LINE
8
Layer 1
10
271.584000
20
114.537000
11
271.584000
21
119.038000
0
LINE
8
Layer 1
10
257.847000
20
119.038000
11
271.584000
21
119.038000
0
LINE
8
Layer 1
10
257.847000
20
114.537000
11
257.847000
21
119.038000
0
LINE
8
Layer 1
10
257.847000
20
114.537000
11
244.110000
21
114.537000
0
LINE
8
Layer 1
10
170.820000
20
126.039000
11
171.209255
21
126.117581
0
LINE
8
Layer 1
10
171.209255
20
126.117581
11
171.527115
21
126.331884
0
LINE
8
Layer 1
10
171.527115
20
126.331884
11
171.741418
21
126.649744
0
LINE
8
Layer 1
10
171.741418
20
126.649744
11
171.819999
21
127.038999
0
LINE
8
Layer 1
10
171.819999
20
127.038999
11
171.741418
21
127.428237
0
LINE
8
Layer 1
10
171.741418
20
127.428237
11
171.527115
21
127.746099
0
LINE
8
Layer 1
10
171.527115
20
127.746099
11
171.209255
21
127.960411
0
LINE
8
Layer 1
10
171.209255
20
127.960411
11
170.820000
21
128.038998
0
LINE
8
Layer 1
10
170.820000
20
128.038998
11
170.430757
21
127.960411
0
LINE
8
Layer 1
10
170.430757
20
127.960411
11
170.112896
21
127.746099
0
LINE
8
Layer 1
10
170.112896
20
127.746099
11
169.898587
21
127.428237
0
LINE
8
Layer 1
10
169.898587
20
127.428237
11
169.820001
21
127.038999
0
LINE
8
Layer 1
10
169.820001
20
127.038999
11
169.898587
21
126.649744
0
LINE
8
Layer 1
10
169.898587
20
126.649744
11
170.112896
21
126.331884
0
LINE
8
Layer 1
10
170.112896
20
126.331884
11
170.430757
21
126.117581
0
LINE
8
Layer 1
10
170.430757
20
126.117581
11
170.820000
21
126.039000
0
LINE
8
Layer 1
10
170.820000
20
126.039000
11
170.820000
21
126.039000
0
LINE
8
Layer 1
10
114.820000
20
126.039000
11
115.209255
21
126.117581
0
LINE
8
Layer 1
10
115.209255
20
126.117581
11
115.527115
21
126.331884
0
LINE
8
Layer 1
10
115.527115
20
126.331884
11
115.741418
21
126.649744
0
LINE
8
Layer 1
10
115.741418
20
126.649744
11
115.819999
21
127.038999
0
LINE
8
Layer 1
10
115.819999
20
127.038999
11
115.741418
21
127.428237
0
LINE
8
Layer 1
10
115.741418
20
127.428237
11
115.527115
21
127.746099
0
LINE
8
Layer 1
10
115.527115
20
127.746099
11
115.209255
21
127.960411
0
LINE
8
Layer 1
10
115.209255
20
127.960411
11
114.820000
21
128.038998
0
LINE
8
Layer 1
10
114.820000
20
128.038998
11
114.430757
21
127.960411
0
LINE
8
Layer 1
10
114.430757
20
127.960411
11
114.112896
21
127.746099
0
LINE
8
Layer 1
10
114.112896
20
127.746099
11
113.898587
21
127.428237
0
LINE
8
Layer 1
10
113.898587
20
127.428237
11
113.820001
21
127.038999
0
LINE
8
Layer 1
10
113.820001
20
127.038999
11
113.898587
21
126.649744
0
LINE
8
Layer 1
10
113.898587
20
126.649744
11
114.112896
21
126.331884
0
LINE
8
Layer 1
10
114.112896
20
126.331884
11
114.430757
21
126.117581
0
LINE
8
Layer 1
10
114.430757
20
126.117581
11
114.820000
21
126.039000
0
LINE
8
Layer 1
10
114.820000
20
126.039000
11
114.820000
21
126.039000
0
LINE
8
Layer 1
10
51.820500
20
126.314000
11
52.333151
21
126.526340
0
LINE
8
Layer 1
10
52.333151
20
126.526340
11
52.545509
21
127.038979
0
LINE
8
Layer 1
10
52.545509
20
127.038979
11
52.333150
21
127.551613
0
LINE
8
Layer 1
10
52.333150
20
127.551613
11
51.820500
21
127.763978
0
LINE
8
Layer 1
10
51.820500
20
127.763978
11
51.307869
21
127.551613
0
LINE
8
Layer 1
10
51.307869
20
127.551613
11
51.095531
21
127.038979
0
LINE
8
Layer 1
10
51.095531
20
127.038979
11
51.307870
21
126.526339
0
LINE
8
Layer 1
10
51.307870
20
126.526339
11
51.820500
21
126.314000
0
LINE
8
Layer 1
10
51.820500
20
126.314000
11
51.820500
21
126.314000
0
LINE
8
Layer 1
10
77.820500
20
126.314000
11
78.333136
21
126.526340
0
LINE
8
Layer 1
10
78.333136
20
126.526340
11
78.545479
21
127.038979
0
LINE
8
Layer 1
10
78.545479
20
127.038979
11
78.333135
21
127.551613
0
LINE
8
Layer 1
10
78.333135
20
127.551613
11
77.820500
21
127.763978
0
LINE
8
Layer 1
10
77.820500
20
127.763978
11
77.307869
21
127.551613
0
LINE
8
Layer 1
10
77.307869
20
127.551613
11
77.095531
21
127.038979
0
LINE
8
Layer 1
10
77.095531
20
127.038979
11
77.307870
21
126.526339
0
LINE
8
Layer 1
10
77.307870
20
126.526339
11
77.820500
21
126.314000
0
LINE
8
Layer 1
10
77.820500
20
126.314000
11
77.820500
21
126.314000
0
LINE
8
Layer 1
10
72.546500
20
128.264000
11
62.545300
21
128.264000
0
LINE
8
Layer 1
10
62.545300
20
128.264000
11
62.545300
21
125.814000
0
LINE
8
Layer 1
10
72.546500
20
125.814000
11
62.545300
21
125.814000
0
LINE
8
Layer 1
10
72.546500
20
128.264000
11
72.546500
21
125.814000
0
LINE
8
Layer 1
10
231.696000
20
102.949000
11
221.695000
21
102.949000
0
LINE
8
Layer 1
10
221.695000
20
98.998600
11
221.695000
21
102.949000
0
LINE
8
Layer 1
10
231.696000
20
98.998600
11
221.695000
21
98.998600
0
LINE
8
Layer 1
10
231.696000
20
98.998600
11
231.696000
21
102.949000
0
LINE
8
Layer 1
10
237.420000
20
100.250000
11
237.932639
21
100.462346
0
LINE
8
Layer 1
10
237.932639
20
100.462346
11
238.144979
21
100.975029
0
LINE
8
Layer 1
10
238.144979
20
100.975029
11
237.932639
21
101.487669
0
LINE
8
Layer 1
10
237.932639
20
101.487669
11
237.420000
21
101.700008
0
LINE
8
Layer 1
10
237.420000
20
101.700008
11
236.907354
21
101.487668
0
LINE
8
Layer 1
10
236.907354
20
101.487668
11
236.695001
21
100.975029
0
LINE
8
Layer 1
10
236.695001
20
100.975029
11
236.907355
21
100.462346
0
LINE
8
Layer 1
10
236.907355
20
100.462346
11
237.420000
21
100.250000
0
LINE
8
Layer 1
10
237.420000
20
100.250000
11
237.420000
21
100.250000
0
LINE
8
Layer 1
10
211.420000
20
100.250000
11
211.932639
21
100.462346
0
LINE
8
Layer 1
10
211.932639
20
100.462346
11
212.144979
21
100.975029
0
LINE
8
Layer 1
10
212.144979
20
100.975029
11
211.932639
21
101.487669
0
LINE
8
Layer 1
10
211.932639
20
101.487669
11
211.420000
21
101.700008
0
LINE
8
Layer 1
10
211.420000
20
101.700008
11
210.907354
21
101.487668
0
LINE
8
Layer 1
10
210.907354
20
101.487668
11
210.695001
21
100.975029
0
LINE
8
Layer 1
10
210.695001
20
100.975029
11
210.907355
21
100.462346
0
LINE
8
Layer 1
10
210.907355
20
100.462346
11
211.420000
21
100.250000
0
LINE
8
Layer 1
10
211.420000
20
100.250000
11
211.420000
21
100.250000
0
LINE
8
Layer 1
10
90.919800
20
107.225000
11
91.406357
21
107.323229
0
LINE
8
Layer 1
10
91.406357
20
107.323229
11
91.803673
21
107.591111
0
LINE
8
Layer 1
10
91.803673
20
107.591111
11
92.071545
21
107.988437
0
LINE
8
Layer 1
10
92.071545
20
107.988437
11
92.169770
21
108.475000
0
LINE
8
Layer 1
10
92.169770
20
108.475000
11
92.071546
21
108.961562
0
LINE
8
Layer 1
10
92.071546
20
108.961562
11
91.803674
21
109.358888
0
LINE
8
Layer 1
10
91.803674
20
109.358888
11
91.406358
21
109.626771
0
LINE
8
Layer 1
10
91.406358
20
109.626771
11
90.919800
21
109.725000
0
LINE
8
Layer 1
10
90.919800
20
109.725000
11
90.433242
21
109.626771
0
LINE
8
Layer 1
10
90.433242
20
109.626771
11
90.035915
21
109.358889
0
LINE
8
Layer 1
10
90.035915
20
109.358889
11
89.768031
21
108.961563
0
LINE
8
Layer 1
10
89.768031
20
108.961563
11
89.669800
21
108.475000
0
LINE
8
Layer 1
10
89.669800
20
108.475000
11
89.768030
21
107.988438
0
LINE
8
Layer 1
10
89.768030
20
107.988438
11
90.035915
21
107.591112
0
LINE
8
Layer 1
10
90.035915
20
107.591112
11
90.433241
21
107.323229
0
LINE
8
Layer 1
10
90.433241
20
107.323229
11
90.919800
21
107.225000
0
LINE
8
Layer 1
10
90.919800
20
107.225000
11
90.919800
21
107.225000
0
LINE
8
Layer 1
10
90.919800
20
92.224800
11
91.404602
21
92.324596
0
LINE
8
Layer 1
10
91.404602
20
92.324596
11
91.800163
21
92.592838
0
LINE
8
Layer 1
10
91.800163
20
92.592838
11
92.066685
21
92.989562
0
LINE
8
Layer 1
10
92.066685
20
92.989562
11
92.164370
21
93.474800
0
LINE
8
Layer 1
10
92.164370
20
93.474800
11
92.066702
21
93.960018
0
LINE
8
Layer 1
10
92.066702
20
93.960018
11
91.800187
21
94.356746
0
LINE
8
Layer 1
10
91.800187
20
94.356746
11
91.404620
21
94.625001
0
LINE
8
Layer 1
10
91.404620
20
94.625001
11
90.919800
21
94.724800
0
LINE
8
Layer 1
10
90.919800
20
94.724800
11
90.435004
21
94.625014
0
LINE
8
Layer 1
10
90.435004
20
94.625014
11
90.039445
21
94.356788
0
LINE
8
Layer 1
10
90.039445
20
94.356788
11
89.772925
21
93.960068
0
LINE
8
Layer 1
10
89.772925
20
93.960068
11
89.675240
21
93.474800
0
LINE
8
Layer 1
10
89.675240
20
93.474800
11
89.772907
21
92.989588
0
LINE
8
Layer 1
10
89.772907
20
92.989588
11
90.039422
21
92.592862
0
LINE
8
Layer 1
10
90.039422
20
92.592862
11
90.434986
21
92.324604
0
LINE
8
Layer 1
10
90.434986
20
92.324604
11
90.919800
21
92.224800
0
LINE
8
Layer 1
10
90.919800
20
92.224800
11
90.919800
21
92.224800
0
LINE
8
Layer 1
10
193.920000
20
99.974800
11
194.308542
21
100.053924
0
LINE
8
Layer 1
10
194.308542
20
100.053924
11
194.625690
21
100.268381
0
LINE
8
Layer 1
10
194.625690
20
100.268381
11
194.839446
21
100.586047
0
LINE
8
Layer 1
10
194.839446
20
100.586047
11
194.917809
21
100.974799
0
LINE
8
Layer 1
10
194.917809
20
100.974799
11
194.839446
21
101.363499
0
LINE
8
Layer 1
10
194.839446
20
101.363499
11
194.625690
21
101.681116
0
LINE
8
Layer 1
10
194.625690
20
101.681116
11
194.308542
21
101.895574
0
LINE
8
Layer 1
10
194.308542
20
101.895574
11
193.920000
21
101.974798
0
LINE
8
Layer 1
10
193.920000
20
101.974798
11
193.531464
21
101.895675
0
LINE
8
Layer 1
10
193.531464
20
101.895675
11
193.214318
21
101.681221
0
LINE
8
Layer 1
10
193.214318
20
101.681221
11
193.000564
21
101.363555
0
LINE
8
Layer 1
10
193.000564
20
101.363555
11
192.922201
21
100.974799
0
LINE
8
Layer 1
10
192.922201
20
100.974799
11
193.000564
21
100.586078
0
LINE
8
Layer 1
10
193.000564
20
100.586078
11
193.214318
21
100.268464
0
LINE
8
Layer 1
10
193.214318
20
100.268464
11
193.531464
21
100.054017
0
LINE
8
Layer 1
10
193.531464
20
100.054017
11
193.920000
21
99.974800
0
LINE
8
Layer 1
10
193.920000
20
99.974800
11
193.920000
21
99.974800
0
LINE
8
Layer 1
10
77.919800
20
100.250000
11
78.432466
21
100.462346
0
LINE
8
Layer 1
10
78.432466
20
100.462346
11
78.644809
21
100.975029
0
LINE
8
Layer 1
10
78.644809
20
100.975029
11
78.432465
21
101.487669
0
LINE
8
Layer 1
10
78.432465
20
101.487669
11
77.919800
21
101.700008
0
LINE
8
Layer 1
10
77.919800
20
101.700008
11
77.407169
21
101.487668
0
LINE
8
Layer 1
10
77.407169
20
101.487668
11
77.194831
21
100.975029
0
LINE
8
Layer 1
10
77.194831
20
100.975029
11
77.407170
21
100.462346
0
LINE
8
Layer 1
10
77.407170
20
100.462346
11
77.919800
21
100.250000
0
LINE
8
Layer 1
10
77.919800
20
100.250000
11
77.919800
21
100.250000
0
LINE
8
Layer 1
10
51.919800
20
100.250000
11
52.432440
21
100.462346
0
LINE
8
Layer 1
10
52.432440
20
100.462346
11
52.644779
21
100.975029
0
LINE
8
Layer 1
10
52.644779
20
100.975029
11
52.432439
21
101.487669
0
LINE
8
Layer 1
10
52.432439
20
101.487669
11
51.919800
21
101.700008
0
LINE
8
Layer 1
10
51.919800
20
101.700008
11
51.407143
21
101.487668
0
LINE
8
Layer 1
10
51.407143
20
101.487668
11
51.194801
21
100.975029
0
LINE
8
Layer 1
10
51.194801
20
100.975029
11
51.407143
21
100.462346
0
LINE
8
Layer 1
10
51.407143
20
100.462346
11
51.919800
21
100.250000
0
LINE
8
Layer 1
10
51.919800
20
100.250000
11
51.919800
21
100.250000
0
LINE
8
Layer 1
10
114.920000
20
99.974800
11
115.308542
21
100.053924
0
LINE
8
Layer 1
10
115.308542
20
100.053924
11
115.625690
21
100.268381
0
LINE
8
Layer 1
10
115.625690
20
100.268381
11
115.839446
21
100.586047
0
LINE
8
Layer 1
10
115.839446
20
100.586047
11
115.917809
21
100.974799
0
LINE
8
Layer 1
10
115.917809
20
100.974799
11
115.839446
21
101.363499
0
LINE
8
Layer 1
10
115.839446
20
101.363499
11
115.625690
21
101.681116
0
LINE
8
Layer 1
10
115.625690
20
101.681116
11
115.308542
21
101.895574
0
LINE
8
Layer 1
10
115.308542
20
101.895574
11
114.920000
21
101.974798
0
LINE
8
Layer 1
10
114.920000
20
101.974798
11
114.531464
21
101.895675
0
LINE
8
Layer 1
10
114.531464
20
101.895675
11
114.214318
21
101.681221
0
LINE
8
Layer 1
10
114.214318
20
101.681221
11
114.000564
21
101.363555
0
LINE
8
Layer 1
10
114.000564
20
101.363555
11
113.922201
21
100.974799
0
LINE
8
Layer 1
10
113.922201
20
100.974799
11
114.000564
21
100.586078
0
LINE
8
Layer 1
10
114.000564
20
100.586078
11
114.214318
21
100.268464
0
LINE
8
Layer 1
10
114.214318
20
100.268464
11
114.531464
21
100.054017
0
LINE
8
Layer 1
10
114.531464
20
100.054017
11
114.920000
21
99.974800
0
LINE
8
Layer 1
10
114.920000
20
99.974800
11
114.920000
21
99.974800
0
LINE
8
Layer 1
10
170.920000
20
99.974800
11
171.308546
21
100.053924
0
LINE
8
Layer 1
10
171.308546
20
100.053924
11
171.625705
21
100.268381
0
LINE
8
Layer 1
10
171.625705
20
100.268381
11
171.839471
21
100.586047
0
LINE
8
Layer 1
10
171.839471
20
100.586047
11
171.917839
21
100.974799
0
LINE
8
Layer 1
10
171.917839
20
100.974799
11
171.839471
21
101.363499
0
LINE
8
Layer 1
10
171.839471
20
101.363499
11
171.625705
21
101.681116
0
LINE
8
Layer 1
10
171.625705
20
101.681116
11
171.308546
21
101.895574
0
LINE
8
Layer 1
10
171.308546
20
101.895574
11
170.920000
21
101.974798
0
LINE
8
Layer 1
10
170.920000
20
101.974798
11
170.531477
21
101.895675
0
LINE
8
Layer 1
10
170.531477
20
101.895675
11
170.214330
21
101.681221
0
LINE
8
Layer 1
10
170.214330
20
101.681221
11
170.000568
21
101.363555
0
LINE
8
Layer 1
10
170.000568
20
101.363555
11
169.922201
21
100.974799
0
LINE
8
Layer 1
10
169.922201
20
100.974799
11
170.000568
21
100.586078
0
LINE
8
Layer 1
10
170.000568
20
100.586078
11
170.214330
21
100.268464
0
LINE
8
Layer 1
10
170.214330
20
100.268464
11
170.531477
21
100.054017
0
LINE
8
Layer 1
10
170.531477
20
100.054017
11
170.920000
21
99.974800
0
LINE
8
Layer 1
10
170.920000
20
99.974800
11
170.920000
21
99.974800
0
LINE
8
Layer 1
10
72.644400
20
99.750000
11
72.644400
21
102.200000
0
LINE
8
Layer 1
10
62.645800
20
102.200000
11
72.644400
21
102.200000
0
LINE
8
Layer 1
10
62.645800
20
99.750000
11
62.645800
21
102.200000
0
LINE
8
Layer 1
10
62.645800
20
99.750000
11
72.644400
21
99.750000
0
LINE
8
Layer 1
10
51.893200
20
92.974000
11
38.156600
21
92.974000
0
LINE
8
Layer 1
10
38.156600
20
88.476100
11
38.156600
21
92.974000
0
LINE
8
Layer 1
10
38.156600
20
88.476100
11
24.420000
21
88.476100
0
LINE
8
Layer 1
10
24.420000
20
113.474000
11
24.420000
21
88.476100
0
LINE
8
Layer 1
10
38.156600
20
113.474000
11
24.420000
21
113.474000
0
LINE
8
Layer 1
10
38.156600
20
113.474000
11
38.156600
21
108.976000
0
LINE
8
Layer 1
10
38.156600
20
108.976000
11
51.893200
21
108.976000
0
LINE
8
Layer 1
10
51.893200
20
113.474000
11
51.893200
21
108.976000
0
LINE
8
Layer 1
10
65.630300
20
113.474000
11
51.893200
21
113.474000
0
LINE
8
Layer 1
10
65.630300
20
113.474000
11
65.630300
21
108.976000
0
LINE
8
Layer 1
10
65.630300
20
108.976000
11
79.367500
21
108.976000
0
LINE
8
Layer 1
10
79.367500
20
113.474000
11
79.367500
21
108.976000
0
LINE
8
Layer 1
10
93.104600
20
113.474000
11
79.367500
21
113.474000
0
LINE
8
Layer 1
10
93.104600
20
113.474000
11
93.104600
21
108.976000
0
LINE
8
Layer 1
10
93.104600
20
108.976000
11
106.842000
21
108.976000
0
LINE
8
Layer 1
10
106.842000
20
113.474000
11
106.842000
21
108.976000
0
LINE
8
Layer 1
10
120.576000
20
113.474000
11
106.842000
21
113.474000
0
LINE
8
Layer 1
10
120.576000
20
113.474000
11
120.576000
21
108.976000
0
LINE
8
Layer 1
10
120.576000
20
108.976000
11
134.313000
21
108.976000
0
LINE
8
Layer 1
10
134.313000
20
113.474000
11
134.313000
21
108.976000
0
LINE
8
Layer 1
10
148.051000
20
113.474000
11
134.313000
21
113.474000
0
LINE
8
Layer 1
10
148.051000
20
113.474000
11
148.051000
21
108.976000
0
LINE
8
Layer 1
10
148.051000
20
108.976000
11
161.788000
21
108.976000
0
LINE
8
Layer 1
10
161.788000
20
113.474000
11
161.788000
21
108.976000
0
LINE
8
Layer 1
10
175.525000
20
113.474000
11
161.788000
21
113.474000
0
LINE
8
Layer 1
10
175.525000
20
113.474000
11
175.525000
21
108.976000
0
LINE
8
Layer 1
10
175.525000
20
108.976000
11
189.262000
21
108.976000
0
LINE
8
Layer 1
10
189.262000
20
113.474000
11
189.262000
21
108.976000
0
LINE
8
Layer 1
10
202.999000
20
113.474000
11
189.262000
21
113.474000
0
LINE
8
Layer 1
10
202.999000
20
113.474000
11
202.999000
21
108.976000
0
LINE
8
Layer 1
10
202.999000
20
108.976000
11
216.736000
21
108.976000
0
LINE
8
Layer 1
10
216.736000
20
113.474000
11
216.736000
21
108.976000
0
LINE
8
Layer 1
10
230.474000
20
113.474000
11
216.736000
21
113.474000
0
LINE
8
Layer 1
10
230.474000
20
113.474000
11
230.474000
21
108.976000
0
LINE
8
Layer 1
10
230.474000
20
108.976000
11
244.208000
21
108.976000
0
LINE
8
Layer 1
10
244.208000
20
113.474000
11
244.208000
21
108.976000
0
LINE
8
Layer 1
10
257.945000
20
113.474000
11
244.208000
21
113.474000
0
LINE
8
Layer 1
10
257.945000
20
113.474000
11
257.945000
21
108.976000
0
LINE
8
Layer 1
10
257.945000
20
108.976000
11
271.682000
21
108.976000
0
LINE
8
Layer 1
10
271.682000
20
113.474000
11
271.682000
21
108.976000
0
LINE
8
Layer 1
10
285.420000
20
113.474000
11
271.682000
21
113.474000
0
LINE
8
Layer 1
10
285.420000
20
113.474000
11
285.420000
21
88.476100
0
LINE
8
Layer 1
10
271.682000
20
88.476100
11
271.682000
21
92.974000
0
LINE
8
Layer 1
10
271.682000
20
92.974000
11
257.945000
21
92.974000
0
LINE
8
Layer 1
10
257.945000
20
88.476100
11
257.945000
21
92.974000
0
LINE
8
Layer 1
10
257.945000
20
88.476100
11
244.208000
21
88.476100
0
LINE
8
Layer 1
10
244.208000
20
88.476100
11
244.208000
21
92.974000
0
LINE
8
Layer 1
10
244.208000
20
92.974000
11
230.474000
21
92.974000
0
LINE
8
Layer 1
10
230.474000
20
88.476100
11
230.474000
21
92.974000
0
LINE
8
Layer 1
10
230.474000
20
88.476100
11
216.736000
21
88.476100
0
LINE
8
Layer 1
10
216.736000
20
88.476100
11
216.736000
21
92.974000
0
LINE
8
Layer 1
10
216.736000
20
92.974000
11
202.999000
21
92.974000
0
LINE
8
Layer 1
10
202.999000
20
88.476100
11
202.999000
21
92.974000
0
LINE
8
Layer 1
10
202.999000
20
88.476100
11
189.262000
21
88.476100
0
LINE
8
Layer 1
10
189.262000
20
88.476100
11
189.262000
21
92.974000
0
LINE
8
Layer 1
10
189.262000
20
92.974000
11
175.525000
21
92.974000
0
LINE
8
Layer 1
10
175.525000
20
88.476100
11
175.525000
21
92.974000
0
LINE
8
Layer 1
10
175.525000
20
88.476100
11
161.788000
21
88.476100
0
LINE
8
Layer 1
10
161.788000
20
88.476100
11
161.788000
21
92.974000
0
LINE
8
Layer 1
10
161.788000
20
92.974000
11
148.051000
21
92.974000
0
LINE
8
Layer 1
10
148.051000
20
88.476100
11
148.051000
21
92.974000
0
LINE
8
Layer 1
10
148.051000
20
88.476100
11
134.313000
21
88.476100
0
LINE
8
Layer 1
10
134.313000
20
88.476100
11
134.313000
21
92.974000
0
LINE
8
Layer 1
10
134.313000
20
92.974000
11
120.576000
21
92.974000
0
LINE
8
Layer 1
10
120.576000
20
88.476100
11
120.576000
21
92.974000
0
LINE
8
Layer 1
10
120.576000
20
88.476100
11
106.842000
21
88.476100
0
LINE
8
Layer 1
10
106.842000
20
88.476100
11
106.842000
21
92.974000
0
LINE
8
Layer 1
10
106.842000
20
92.974000
11
93.104600
21
92.974000
0
LINE
8
Layer 1
10
93.104600
20
88.476100
11
93.104600
21
92.974000
0
LINE
8
Layer 1
10
93.104600
20
88.476100
11
79.367500
21
88.476100
0
LINE
8
Layer 1
10
79.367500
20
88.476100
11
79.367500
21
92.974000
0
LINE
8
Layer 1
10
79.367500
20
92.974000
11
65.630300
21
92.974000
0
LINE
8
Layer 1
10
65.630300
20
88.476100
11
65.630300
21
92.974000
0
LINE
8
Layer 1
10
65.630300
20
88.476100
11
51.893200
21
88.476100
0
LINE
8
Layer 1
10
51.893200
20
88.476100
11
51.893200
21
92.974000
0
LINE
8
Layer 1
10
285.420000
20
88.476100
11
271.682000
21
88.476100
0
LINE
8
Layer 1
10
231.794000
20
76.985200
11
221.793000
21
76.985200
0
LINE
8
Layer 1
10
221.793000
20
73.035000
11
221.793000
21
76.985200
0
LINE
8
Layer 1
10
231.794000
20
73.035000
11
221.793000
21
73.035000
0
LINE
8
Layer 1
10
231.794000
20
73.035000
11
231.794000
21
76.985200
0
LINE
8
Layer 1
10
237.519000
20
74.285300
11
238.031657
21
74.497644
0
LINE
8
Layer 1
10
238.031657
20
74.497644
11
238.243999
21
75.010279
0
LINE
8
Layer 1
10
238.243999
20
75.010279
11
238.031657
21
75.522962
0
LINE
8
Layer 1
10
238.031657
20
75.522962
11
237.519000
21
75.735308
0
LINE
8
Layer 1
10
237.519000
20
75.735308
11
237.006323
21
75.522962
0
LINE
8
Layer 1
10
237.006323
20
75.522962
11
236.793961
21
75.010279
0
LINE
8
Layer 1
10
236.793961
20
75.010279
11
237.006323
21
74.497643
0
LINE
8
Layer 1
10
237.006323
20
74.497643
11
237.519000
21
74.285300
0
LINE
8
Layer 1
10
237.519000
20
74.285300
11
237.519000
21
74.285300
0
LINE
8
Layer 1
10
211.519000
20
74.285300
11
212.031677
21
74.497644
0
LINE
8
Layer 1
10
212.031677
20
74.497644
11
212.244039
21
75.010279
0
LINE
8
Layer 1
10
212.244039
20
75.010279
11
212.031677
21
75.522962
0
LINE
8
Layer 1
10
212.031677
20
75.522962
11
211.519000
21
75.735308
0
LINE
8
Layer 1
10
211.519000
20
75.735308
11
211.006338
21
75.522962
0
LINE
8
Layer 1
10
211.006338
20
75.522962
11
210.793991
21
75.010279
0
LINE
8
Layer 1
10
210.793991
20
75.010279
11
211.006338
21
74.497643
0
LINE
8
Layer 1
10
211.006338
20
74.497643
11
211.519000
21
74.285300
0
LINE
8
Layer 1
10
211.519000
20
74.285300
11
211.519000
21
74.285300
0
LINE
8
Layer 1
10
194.019000
20
74.010300
11
194.408255
21
74.088855
0
LINE
8
Layer 1
10
194.408255
20
74.088855
11
194.726115
21
74.303154
0
LINE
8
Layer 1
10
194.726115
20
74.303154
11
194.940418
21
74.621010
0
LINE
8
Layer 1
10
194.940418
20
74.621010
11
195.018999
21
75.010239
0
LINE
8
Layer 1
10
195.018999
20
75.010239
11
194.940418
21
75.399499
0
LINE
8
Layer 1
10
194.940418
20
75.399499
11
194.726115
21
75.717374
0
LINE
8
Layer 1
10
194.726115
20
75.717374
11
194.408255
21
75.931681
0
LINE
8
Layer 1
10
194.408255
20
75.931681
11
194.019000
21
76.010238
0
LINE
8
Layer 1
10
194.019000
20
76.010238
11
193.629757
21
75.931655
0
LINE
8
Layer 1
10
193.629757
20
75.931655
11
193.311896
21
75.717351
0
LINE
8
Layer 1
10
193.311896
20
75.717351
11
193.097587
21
75.399490
0
LINE
8
Layer 1
10
193.097587
20
75.399490
11
193.019001
21
75.010239
0
LINE
8
Layer 1
10
193.019001
20
75.010239
11
193.097587
21
74.621018
0
LINE
8
Layer 1
10
193.097587
20
74.621018
11
193.311896
21
74.303176
0
LINE
8
Layer 1
10
193.311896
20
74.303176
11
193.629757
21
74.088880
0
LINE
8
Layer 1
10
193.629757
20
74.088880
11
194.019000
21
74.010300
0
LINE
8
Layer 1
10
194.019000
20
74.010300
11
194.019000
21
74.010300
0
LINE
8
Layer 1
10
52.019000
20
74.285300
11
52.531657
21
74.497644
0
LINE
8
Layer 1
10
52.531657
20
74.497644
11
52.743999
21
75.010279
0
LINE
8
Layer 1
10
52.743999
20
75.010279
11
52.531657
21
75.522962
0
LINE
8
Layer 1
10
52.531657
20
75.522962
11
52.019000
21
75.735308
0
LINE
8
Layer 1
10
52.019000
20
75.735308
11
51.506323
21
75.522962
0
LINE
8
Layer 1
10
51.506323
20
75.522962
11
51.293961
21
75.010279
0
LINE
8
Layer 1
10
51.293961
20
75.010279
11
51.506323
21
74.497643
0
LINE
8
Layer 1
10
51.506323
20
74.497643
11
52.019000
21
74.285300
0
LINE
8
Layer 1
10
52.019000
20
74.285300
11
52.019000
21
74.285300
0
LINE
8
Layer 1
10
78.019000
20
74.285300
11
78.531657
21
74.497644
0
LINE
8
Layer 1
10
78.531657
20
74.497644
11
78.743999
21
75.010279
0
LINE
8
Layer 1
10
78.743999
20
75.010279
11
78.531657
21
75.522962
0
LINE
8
Layer 1
10
78.531657
20
75.522962
11
78.019000
21
75.735308
0
LINE
8
Layer 1
10
78.019000
20
75.735308
11
77.506312
21
75.522962
0
LINE
8
Layer 1
10
77.506312
20
75.522962
11
77.293961
21
75.010279
0
LINE
8
Layer 1
10
77.293961
20
75.010279
11
77.506312
21
74.497643
0
LINE
8
Layer 1
10
77.506312
20
74.497643
11
78.019000
21
74.285300
0
LINE
8
Layer 1
10
78.019000
20
74.285300
11
78.019000
21
74.285300
0
LINE
8
Layer 1
10
171.019000
20
74.010300
11
171.408243
21
74.088855
0
LINE
8
Layer 1
10
171.408243
20
74.088855
11
171.726104
21
74.303154
0
LINE
8
Layer 1
10
171.726104
20
74.303154
11
171.940413
21
74.621010
0
LINE
8
Layer 1
10
171.940413
20
74.621010
11
172.018999
21
75.010239
0
LINE
8
Layer 1
10
172.018999
20
75.010239
11
171.940413
21
75.399499
0
LINE
8
Layer 1
10
171.940413
20
75.399499
11
171.726104
21
75.717374
0
LINE
8
Layer 1
10
171.726104
20
75.717374
11
171.408243
21
75.931681
0
LINE
8
Layer 1
10
171.408243
20
75.931681
11
171.019000
21
76.010238
0
LINE
8
Layer 1
10
171.019000
20
76.010238
11
170.629745
21
75.931655
0
LINE
8
Layer 1
10
170.629745
20
75.931655
11
170.311885
21
75.717351
0
LINE
8
Layer 1
10
170.311885
20
75.717351
11
170.097582
21
75.399490
0
LINE
8
Layer 1
10
170.097582
20
75.399490
11
170.019001
21
75.010239
0
LINE
8
Layer 1
10
170.019001
20
75.010239
11
170.097582
21
74.621018
0
LINE
8
Layer 1
10
170.097582
20
74.621018
11
170.311885
21
74.303176
0
LINE
8
Layer 1
10
170.311885
20
74.303176
11
170.629745
21
74.088880
0
LINE
8
Layer 1
10
170.629745
20
74.088880
11
171.019000
21
74.010300
0
LINE
8
Layer 1
10
171.019000
20
74.010300
11
171.019000
21
74.010300
0
LINE
8
Layer 1
10
115.019000
20
74.010300
11
115.408238
21
74.088855
0
LINE
8
Layer 1
10
115.408238
20
74.088855
11
115.726100
21
74.303154
0
LINE
8
Layer 1
10
115.726100
20
74.303154
11
115.940412
21
74.621010
0
LINE
8
Layer 1
10
115.940412
20
74.621010
11
116.018999
21
75.010239
0
LINE
8
Layer 1
10
116.018999
20
75.010239
11
115.940412
21
75.399499
0
LINE
8
Layer 1
10
115.940412
20
75.399499
11
115.726100
21
75.717374
0
LINE
8
Layer 1
10
115.726100
20
75.717374
11
115.408238
21
75.931681
0
LINE
8
Layer 1
10
115.408238
20
75.931681
11
115.019000
21
76.010238
0
LINE
8
Layer 1
10
115.019000
20
76.010238
11
114.629740
21
75.931655
0
LINE
8
Layer 1
10
114.629740
20
75.931655
11
114.311869
21
75.717351
0
LINE
8
Layer 1
10
114.311869
20
75.717351
11
114.097556
21
75.399490
0
LINE
8
Layer 1
10
114.097556
20
75.399490
11
114.018970
21
75.010239
0
LINE
8
Layer 1
10
114.018970
20
75.010239
11
114.097556
21
74.621018
0
LINE
8
Layer 1
10
114.097556
20
74.621018
11
114.311869
21
74.303176
0
LINE
8
Layer 1
10
114.311869
20
74.303176
11
114.629740
21
74.088880
0
LINE
8
Layer 1
10
114.629740
20
74.088880
11
115.019000
21
74.010300
0
LINE
8
Layer 1
10
115.019000
20
74.010300
11
115.019000
21
74.010300
0
LINE
8
Layer 1
10
156.020000
20
70.510900
11
156.020000
21
79.509400
0
LINE
8
Layer 1
10
156.020000
20
79.509400
11
154.020000
21
79.509400
0
LINE
8
Layer 1
10
154.020000
20
70.510900
11
154.020000
21
79.509400
0
LINE
8
Layer 1
10
156.020000
20
70.510900
11
154.020000
21
70.510900
0
LINE
8
Layer 1
10
136.020000
20
70.510900
11
136.020000
21
79.509400
0
LINE
8
Layer 1
10
136.020000
20
79.509400
11
134.020000
21
79.509400
0
LINE
8
Layer 1
10
134.020000
20
70.510900
11
134.020000
21
79.509400
0
LINE
8
Layer 1
10
136.020000
20
70.510900
11
134.020000
21
70.510900
0
LINE
8
Layer 1
10
72.745000
20
73.786400
11
72.745000
21
76.236500
0
LINE
8
Layer 1
10
72.745000
20
76.236500
11
62.743700
21
76.236500
0
LINE
8
Layer 1
10
62.743700
20
73.786400
11
62.743700
21
76.236500
0
LINE
8
Layer 1
10
72.745000
20
73.786400
11
62.743700
21
73.786400
0
LINE
8
Layer 1
10
51.993700
20
87.510400
11
51.993700
21
83.009800
0
LINE
8
Layer 1
10
51.993700
20
83.009800
11
65.730900
21
83.009800
0
LINE
8
Layer 1
10
65.730900
20
87.510400
11
65.730900
21
83.009800
0
LINE
8
Layer 1
10
79.465400
20
87.510400
11
65.730900
21
87.510400
0
LINE
8
Layer 1
10
79.465400
20
87.510400
11
79.465400
21
83.009800
0
LINE
8
Layer 1
10
79.465400
20
83.009800
11
89.874100
21
83.009800
0
LINE
8
Layer 1
10
89.873400
20
83.010200
11
89.807681
21
82.201848
0
LINE
8
Layer 1
10
89.807681
20
82.201848
11
90.251880
21
81.523320
0
LINE
8
Layer 1
10
90.251880
20
81.523320
11
91.019071
21
81.260220
0
LINE
8
Layer 1
10
91.019071
20
81.260220
11
91.786240
21
81.523320
0
LINE
8
Layer 1
10
91.786240
20
81.523320
11
92.230427
21
82.201847
0
LINE
8
Layer 1
10
92.230427
20
82.201847
11
92.164690
21
83.010200
0
LINE
8
Layer 1
10
92.165400
20
83.009800
11
93.202600
21
83.009800
0
LINE
8
Layer 1
10
93.202600
20
87.510400
11
93.202600
21
83.009800
0
LINE
8
Layer 1
10
106.940000
20
87.510400
11
93.202500
21
87.510400
0
LINE
8
Layer 1
10
106.940000
20
87.510400
11
106.940000
21
83.009800
0
LINE
8
Layer 1
10
106.940000
20
83.009800
11
120.677000
21
83.009800
0
LINE
8
Layer 1
10
120.677000
20
87.510400
11
120.677000
21
83.009800
0
LINE
8
Layer 1
10
134.414000
20
87.510400
11
120.677000
21
87.510400
0
LINE
8
Layer 1
10
134.414000
20
87.510400
11
134.414000
21
83.009800
0
LINE
8
Layer 1
10
134.414000
20
83.009800
11
148.151000
21
83.009800
0
LINE
8
Layer 1
10
148.151000
20
87.510400
11
148.151000
21
83.009800
0
LINE
8
Layer 1
10
161.888000
20
87.510400
11
148.151000
21
87.510400
0
LINE
8
Layer 1
10
161.888000
20
87.510400
11
161.888000
21
83.009800
0
LINE
8
Layer 1
10
161.888000
20
83.009800
11
175.625000
21
83.009800
0
LINE
8
Layer 1
10
175.625000
20
87.510400
11
175.625000
21
83.009800
0
LINE
8
Layer 1
10
189.360000
20
87.510400
11
175.625000
21
87.510400
0
LINE
8
Layer 1
10
189.360000
20
87.510400
11
189.360000
21
83.009800
0
LINE
8
Layer 1
10
189.360000
20
83.009800
11
203.097000
21
83.009800
0
LINE
8
Layer 1
10
203.097000
20
87.510400
11
203.097000
21
83.009800
0
LINE
8
Layer 1
10
216.834000
20
87.510400
11
203.097000
21
87.510400
0
LINE
8
Layer 1
10
216.834000
20
87.510400
11
216.834000
21
83.009800
0
LINE
8
Layer 1
10
216.834000
20
83.009800
11
230.571000
21
83.009800
0
LINE
8
Layer 1
10
230.571000
20
87.510400
11
230.571000
21
83.009800
0
LINE
8
Layer 1
10
244.309000
20
87.510400
11
230.571000
21
87.510400
0
LINE
8
Layer 1
10
244.309000
20
87.510400
11
244.309000
21
83.009800
0
LINE
8
Layer 1
10
244.309000
20
83.009800
11
258.046000
21
83.009800
0
LINE
8
Layer 1
10
258.046000
20
87.510400
11
258.046000
21
83.009800
0
LINE
8
Layer 1
10
271.783000
20
87.510400
11
258.046000
21
87.510400
0
LINE
8
Layer 1
10
271.783000
20
87.510400
11
271.783000
21
83.009800
0
LINE
8
Layer 1
10
271.783000
20
83.009800
11
285.520000
21
83.009800
0
LINE
8
Layer 1
10
285.520000
20
83.009800
11
285.520000
21
67.010400
0
LINE
8
Layer 1
10
285.520000
20
67.010400
11
271.783000
21
67.010400
0
LINE
8
Layer 1
10
271.783000
20
62.509900
11
271.783000
21
67.010400
0
LINE
8
Layer 1
10
271.783000
20
62.509900
11
258.046000
21
62.509900
0
LINE
8
Layer 1
10
258.046000
20
62.509900
11
258.046000
21
67.010400
0
LINE
8
Layer 1
10
258.046000
20
67.010400
11
244.309000
21
67.010400
0
LINE
8
Layer 1
10
244.309000
20
62.509900
11
244.309000
21
67.010400
0
LINE
8
Layer 1
10
244.309000
20
62.509900
11
230.571000
21
62.509900
0
LINE
8
Layer 1
10
230.571000
20
62.509900
11
230.571000
21
67.010400
0
LINE
8
Layer 1
10
230.571000
20
67.010400
11
216.834000
21
67.010400
0
LINE
8
Layer 1
10
216.834000
20
62.509900
11
216.834000
21
67.010400
0
LINE
8
Layer 1
10
216.834000
20
62.509900
11
203.097000
21
62.509900
0
LINE
8
Layer 1
10
203.097000
20
62.509900
11
203.097000
21
67.010400
0
LINE
8
Layer 1
10
203.097000
20
67.010400
11
189.360000
21
67.010400
0
LINE
8
Layer 1
10
189.360000
20
62.509900
11
189.360000
21
67.010400
0
LINE
8
Layer 1
10
189.360000
20
62.509900
11
175.625000
21
62.509900
0
LINE
8
Layer 1
10
175.625000
20
62.509900
11
175.625000
21
67.010400
0
LINE
8
Layer 1
10
175.625000
20
67.010400
11
161.888000
21
67.010400
0
LINE
8
Layer 1
10
161.888000
20
62.509900
11
161.888000
21
67.010400
0
LINE
8
Layer 1
10
161.888000
20
62.509900
11
148.151000
21
62.509900
0
LINE
8
Layer 1
10
148.151000
20
62.509900
11
148.151000
21
67.010400
0
LINE
8
Layer 1
10
148.151000
20
67.010400
11
134.414000
21
67.010400
0
LINE
8
Layer 1
10
134.414000
20
62.509900
11
134.414000
21
67.010400
0
LINE
8
Layer 1
10
134.414000
20
62.509900
11
120.677000
21
62.509900
0
LINE
8
Layer 1
10
120.677000
20
62.509900
11
120.677000
21
67.010400
0
LINE
8
Layer 1
10
120.677000
20
67.010400
11
106.940000
21
67.010400
0
LINE
8
Layer 1
10
106.940000
20
62.509900
11
106.940000
21
67.010400
0
LINE
8
Layer 1
10
106.940000
20
62.509900
11
93.202500
21
62.509900
0
LINE
8
Layer 1
10
93.202600
20
62.509900
11
93.202600
21
67.010400
0
LINE
8
Layer 1
10
93.202600
20
67.010400
11
92.165400
21
67.010400
0
LINE
8
Layer 1
10
92.164700
20
67.010300
11
92.230434
21
67.818643
0
LINE
8
Layer 1
10
92.230434
20
67.818643
11
91.786250
21
68.497170
0
LINE
8
Layer 1
10
91.786250
20
68.497170
11
91.019081
21
68.760270
0
LINE
8
Layer 1
10
91.019081
20
68.760270
11
90.251890
21
68.497170
0
LINE
8
Layer 1
10
90.251890
20
68.497170
11
89.807695
21
67.818644
0
LINE
8
Layer 1
10
89.807695
20
67.818644
11
89.873410
21
67.010300
0
LINE
8
Layer 1
10
89.874100
20
67.010400
11
79.465400
21
67.010400
0
LINE
8
Layer 1
10
79.465400
20
62.509900
11
79.465400
21
67.010400
0
LINE
8
Layer 1
10
79.465400
20
62.509900
11
65.730900
21
62.509900
0
LINE
8
Layer 1
10
65.730900
20
62.509900
11
65.730900
21
67.010400
0
LINE
8
Layer 1
10
65.730900
20
67.010400
11
51.993700
21
67.010400
0
LINE
8
Layer 1
10
51.993700
20
62.509900
11
51.993700
21
67.010400
0
LINE
8
Layer 1
10
51.993700
20
62.509900
11
38.255800
21
62.509900
0
LINE
8
Layer 1
10
38.255800
20
62.509900
11
38.255800
21
67.010400
0
LINE
8
Layer 1
10
38.255800
20
67.010400
11
24.519200
21
67.010400
0
LINE
8
Layer 1
10
24.519200
20
83.009800
11
24.519200
21
67.010400
0
LINE
8
Layer 1
10
24.519200
20
83.009800
11
38.255800
21
83.009800
0
LINE
8
Layer 1
10
38.255800
20
87.510400
11
38.255800
21
83.009800
0
LINE
8
Layer 1
10
51.993700
20
87.510400
11
38.255800
21
87.510400
0
LINE
8
Layer 1
10
221.994000
20
51.185700
11
221.994000
21
47.235500
0
LINE
8
Layer 1
10
231.992000
20
47.235500
11
221.994000
21
47.235500
0
LINE
8
Layer 1
10
231.992000
20
51.185700
11
231.992000
21
47.235500
0
LINE
8
Layer 1
10
231.992000
20
51.185700
11
221.994000
21
51.185700
0
LINE
8
Layer 1
10
38.454500
20
57.210300
11
24.717600
21
57.210300
0
LINE
8
Layer 1
10
38.454500
20
57.210300
11
38.454500
21
61.710800
0
LINE
8
Layer 1
10
52.192200
20
61.710800
11
38.454500
21
61.710800
0
LINE
8
Layer 1
10
52.192200
20
57.210300
11
52.192200
21
61.710800
0
LINE
8
Layer 1
10
65.929300
20
57.210300
11
52.192100
21
57.210300
0
LINE
8
Layer 1
10
65.929300
20
57.210300
11
65.929300
21
61.710800
0
LINE
8
Layer 1
10
79.663800
20
61.710800
11
65.929300
21
61.710800
0
LINE
8
Layer 1
10
79.663800
20
57.210300
11
79.663800
21
61.710800
0
LINE
8
Layer 1
10
90.072500
20
57.210300
11
79.663800
21
57.210300
0
LINE
8
Layer 1
10
90.071900
20
57.211400
11
90.006238
21
56.403048
0
LINE
8
Layer 1
10
90.006238
20
56.403048
11
90.450410
21
55.724520
0
LINE
8
Layer 1
10
90.450410
20
55.724520
11
91.217580
21
55.461420
0
LINE
8
Layer 1
10
91.217580
20
55.461420
11
91.984750
21
55.724520
0
LINE
8
Layer 1
10
91.984750
20
55.724520
11
92.428947
21
56.403077
0
LINE
8
Layer 1
10
92.428947
20
56.403077
11
92.363220
21
57.211460
0
LINE
8
Layer 1
10
93.401000
20
57.210300
11
92.363800
21
57.210300
0
LINE
8
Layer 1
10
93.401000
20
57.210300
11
93.401000
21
61.710800
0
LINE
8
Layer 1
10
107.138000
20
61.710800
11
93.401000
21
61.710800
0
LINE
8
Layer 1
10
107.138000
20
57.210300
11
107.138000
21
61.710800
0
LINE
8
Layer 1
10
120.875000
20
57.210300
11
107.138000
21
57.210300
0
LINE
8
Layer 1
10
120.875000
20
57.210300
11
120.875000
21
61.710800
0
LINE
8
Layer 1
10
134.612000
20
61.710800
11
120.875000
21
61.710800
0
LINE
8
Layer 1
10
134.612000
20
57.210300
11
134.612000
21
61.710800
0
LINE
8
Layer 1
10
148.350000
20
57.210300
11
134.612000
21
57.210300
0
LINE
8
Layer 1
10
148.350000
20
57.210300
11
148.350000
21
61.710800
0
LINE
8
Layer 1
10
162.087000
20
61.710800
11
148.350000
21
61.710800
0
LINE
8
Layer 1
10
162.087000
20
57.210300
11
162.087000
21
61.710800
0
LINE
8
Layer 1
10
175.824000
20
57.210300
11
162.087000
21
57.210300
0
LINE
8
Layer 1
10
175.824000
20
57.210300
11
175.824000
21
61.710800
0
LINE
8
Layer 1
10
189.558000
20
61.710800
11
175.824000
21
61.710800
0
LINE
8
Layer 1
10
189.558000
20
57.210300
11
189.558000
21
61.710800
0
LINE
8
Layer 1
10
203.296000
20
57.210300
11
189.558000
21
57.210300
0
LINE
8
Layer 1
10
203.296000
20
57.210300
11
203.296000
21
61.710800
0
LINE
8
Layer 1
10
217.033000
20
61.710800
11
203.296000
21
61.710800
0
LINE
8
Layer 1
10
217.033000
20
57.210300
11
217.033000
21
61.710800
0
LINE
8
Layer 1
10
230.770000
20
57.210300
11
217.033000
21
57.210300
0
LINE
8
Layer 1
10
230.770000
20
57.210300
11
230.770000
21
61.710800
0
LINE
8
Layer 1
10
244.507000
20
61.710800
11
230.770000
21
61.710800
0
LINE
8
Layer 1
10
244.507000
20
57.210300
11
244.507000
21
61.710800
0
LINE
8
Layer 1
10
258.244000
20
57.210300
11
244.507000
21
57.210300
0
LINE
8
Layer 1
10
258.244000
20
57.210300
11
258.244000
21
61.710800
0
LINE
8
Layer 1
10
271.981000
20
61.710800
11
258.244000
21
61.710800
0
LINE
8
Layer 1
10
271.981000
20
57.210300
11
271.981000
21
61.710800
0
LINE
8
Layer 1
10
285.718000
20
57.210300
11
271.981000
21
57.210300
0
LINE
8
Layer 1
10
285.718000
20
41.211000
11
285.718000
21
57.210300
0
LINE
8
Layer 1
10
271.981000
20
41.211000
11
285.718000
21
41.211000
0
LINE
8
Layer 1
10
271.981000
20
41.211000
11
271.981000
21
36.710400
0
LINE
8
Layer 1
10
271.981000
20
36.710400
11
258.244000
21
36.710400
0
LINE
8
Layer 1
10
258.244000
20
41.211000
11
258.244000
21
36.710400
0
LINE
8
Layer 1
10
244.507000
20
41.211000
11
258.244000
21
41.211000
0
LINE
8
Layer 1
10
244.507000
20
41.211000
11
244.507000
21
36.710400
0
LINE
8
Layer 1
10
244.507000
20
36.710400
11
230.770000
21
36.710400
0
LINE
8
Layer 1
10
230.770000
20
41.211000
11
230.770000
21
36.710400
0
LINE
8
Layer 1
10
217.033000
20
41.211000
11
230.770000
21
41.211000
0
LINE
8
Layer 1
10
217.033000
20
41.211000
11
217.033000
21
36.710400
0
LINE
8
Layer 1
10
217.033000
20
36.710400
11
203.296000
21
36.710400
0
LINE
8
Layer 1
10
203.296000
20
41.211000
11
203.296000
21
36.710400
0
LINE
8
Layer 1
10
189.558000
20
41.211000
11
203.296000
21
41.211000
0
LINE
8
Layer 1
10
189.558000
20
41.211000
11
189.558000
21
36.710400
0
LINE
8
Layer 1
10
189.558000
20
36.710400
11
175.824000
21
36.710400
0
LINE
8
Layer 1
10
175.824000
20
41.211000
11
175.824000
21
36.710400
0
LINE
8
Layer 1
10
162.087000
20
41.211000
11
175.824000
21
41.211000
0
LINE
8
Layer 1
10
162.087000
20
41.211000
11
162.087000
21
36.710400
0
LINE
8
Layer 1
10
162.087000
20
36.710400
11
148.350000
21
36.710400
0
LINE
8
Layer 1
10
148.350000
20
41.211000
11
148.350000
21
36.710400
0
LINE
8
Layer 1
10
134.612000
20
41.211000
11
148.350000
21
41.211000
0
LINE
8
Layer 1
10
134.612000
20
41.211000
11
134.612000
21
36.710400
0
LINE
8
Layer 1
10
134.612000
20
36.710400
11
120.875000
21
36.710400
0
LINE
8
Layer 1
10
120.875000
20
41.211000
11
120.875000
21
36.710400
0
LINE
8
Layer 1
10
107.138000
20
41.211000
11
120.875000
21
41.211000
0
LINE
8
Layer 1
10
107.138000
20
41.211000
11
107.138000
21
36.710400
0
LINE
8
Layer 1
10
107.138000
20
36.710400
11
93.401000
21
36.710400
0
LINE
8
Layer 1
10
93.401000
20
41.211000
11
93.401000
21
36.710400
0
LINE
8
Layer 1
10
92.363800
20
41.211000
11
93.401000
21
41.211000
0
LINE
8
Layer 1
10
92.363200
20
41.211400
11
92.428931
21
42.019747
0
LINE
8
Layer 1
10
92.428931
20
42.019747
11
91.984730
21
42.698270
0
LINE
8
Layer 1
10
91.984730
20
42.698270
11
91.217560
21
42.961393
0
LINE
8
Layer 1
10
91.217560
20
42.961393
11
90.450390
21
42.698270
0
LINE
8
Layer 1
10
90.450390
20
42.698270
11
90.006199
21
42.019778
0
LINE
8
Layer 1
10
90.006199
20
42.019778
11
90.071880
21
41.211460
0
LINE
8
Layer 1
10
79.663800
20
41.211000
11
90.072500
21
41.211000
0
LINE
8
Layer 1
10
79.663800
20
41.211000
11
79.663800
21
36.710400
0
LINE
8
Layer 1
10
79.663800
20
36.710400
11
65.929300
21
36.710400
0
LINE
8
Layer 1
10
65.929300
20
41.211000
11
65.929300
21
36.710400
0
LINE
8
Layer 1
10
52.192200
20
41.211000
11
65.929300
21
41.211000
0
LINE
8
Layer 1
10
52.192200
20
41.211000
11
52.192200
21
36.710400
0
LINE
8
Layer 1
10
52.192200
20
36.710400
11
38.454500
21
36.710400
0
LINE
8
Layer 1
10
38.454500
20
41.211000
11
38.454500
21
36.710400
0
LINE
8
Layer 1
10
24.717600
20
41.211000
11
38.454500
21
41.211000
0
LINE
8
Layer 1
10
24.717600
20
41.211000
11
24.717600
21
57.210300
0
LINE
8
Layer 1
10
72.943400
20
50.437000
11
62.942200
21
50.437000
0
LINE
8
Layer 1
10
62.942200
20
50.437000
11
62.942200
21
47.987000
0
LINE
8
Layer 1
10
72.943400
20
47.987000
11
62.942200
21
47.987000
0
LINE
8
Layer 1
10
72.943400
20
50.437000
11
72.943400
21
47.987000
0
LINE
8
Layer 1
10
78.217500
20
48.486400
11
78.727448
21
48.700116
0
LINE
8
Layer 1
10
78.727448
20
48.700116
11
78.938319
21
49.211439
0
LINE
8
Layer 1
10
78.938319
20
49.211439
11
78.727448
21
49.722559
0
LINE
8
Layer 1
10
78.727448
20
49.722559
11
78.217500
21
49.936408
0
LINE
8
Layer 1
10
78.217500
20
49.936408
11
77.707543
21
49.722723
0
LINE
8
Layer 1
10
77.707543
20
49.722723
11
77.496671
21
49.211439
0
LINE
8
Layer 1
10
77.496671
20
49.211439
11
77.707543
21
48.700236
0
LINE
8
Layer 1
10
77.707543
20
48.700236
11
78.217500
21
48.486400
0
LINE
8
Layer 1
10
78.217500
20
48.486400
11
78.217500
21
48.486400
0
LINE
8
Layer 1
10
52.217600
20
48.486400
11
52.727559
21
48.700116
0
LINE
8
Layer 1
10
52.727559
20
48.700116
11
52.938419
21
49.211439
0
LINE
8
Layer 1
10
52.938419
20
49.211439
11
52.727559
21
49.722559
0
LINE
8
Layer 1
10
52.727559
20
49.722559
11
52.217600
21
49.936408
0
LINE
8
Layer 1
10
52.217600
20
49.936408
11
51.707643
21
49.722723
0
LINE
8
Layer 1
10
51.707643
20
49.722723
11
51.496771
21
49.211439
0
LINE
8
Layer 1
10
51.496771
20
49.211439
11
51.707643
21
48.700236
0
LINE
8
Layer 1
10
51.707643
20
48.700236
11
52.217600
21
48.486400
0
LINE
8
Layer 1
10
52.217600
20
48.486400
11
52.217600
21
48.486400
0
LINE
8
Layer 1
10
194.217000
20
48.211400
11
194.606238
21
48.289981
0
LINE
8
Layer 1
10
194.606238
20
48.289981
11
194.924100
21
48.504284
0
LINE
8
Layer 1
10
194.924100
20
48.504284
11
195.138412
21
48.822144
0
LINE
8
Layer 1
10
195.138412
20
48.822144
11
195.216999
21
49.211399
0
LINE
8
Layer 1
10
195.216999
20
49.211399
11
195.138412
21
49.600625
0
LINE
8
Layer 1
10
195.138412
20
49.600625
11
194.924100
21
49.918488
0
LINE
8
Layer 1
10
194.924100
20
49.918488
11
194.606238
21
50.132807
0
LINE
8
Layer 1
10
194.606238
20
50.132807
11
194.217000
21
50.211398
0
LINE
8
Layer 1
10
194.217000
20
50.211398
11
193.827745
21
50.132817
0
LINE
8
Layer 1
10
193.827745
20
50.132817
11
193.509885
21
49.918514
0
LINE
8
Layer 1
10
193.509885
20
49.918514
11
193.295582
21
49.600654
0
LINE
8
Layer 1
10
193.295582
20
49.600654
11
193.217001
21
49.211399
0
LINE
8
Layer 1
10
193.217001
20
49.211399
11
193.295582
21
48.822169
0
LINE
8
Layer 1
10
193.295582
20
48.822169
11
193.509885
21
48.504306
0
LINE
8
Layer 1
10
193.509885
20
48.504306
11
193.827745
21
48.289990
0
LINE
8
Layer 1
10
193.827745
20
48.289990
11
194.217000
21
48.211400
0
LINE
8
Layer 1
10
194.217000
20
48.211400
11
194.217000
21
48.211400
0
LINE
8
Layer 1
10
156.218000
20
53.712500
11
154.218000
21
53.712500
0
LINE
8
Layer 1
10
154.218000
20
53.712500
11
154.218000
21
44.711400
0
LINE
8
Layer 1
10
156.218000
20
44.711400
11
154.218000
21
44.711400
0
LINE
8
Layer 1
10
156.218000
20
53.712500
11
156.218000
21
44.711400
0
LINE
8
Layer 1
10
171.217000
20
48.211400
11
171.606251
21
48.289981
0
LINE
8
Layer 1
10
171.606251
20
48.289981
11
171.924112
21
48.504284
0
LINE
8
Layer 1
10
171.924112
20
48.504284
11
172.138416
21
48.822144
0
LINE
8
Layer 1
10
172.138416
20
48.822144
11
172.216999
21
49.211399
0
LINE
8
Layer 1
10
172.216999
20
49.211399
11
172.138416
21
49.600625
0
LINE
8
Layer 1
10
172.138416
20
49.600625
11
171.924112
21
49.918488
0
LINE
8
Layer 1
10
171.924112
20
49.918488
11
171.606251
21
50.132807
0
LINE
8
Layer 1
10
171.606251
20
50.132807
11
171.217000
21
50.211398
0
LINE
8
Layer 1
10
171.217000
20
50.211398
11
170.827757
21
50.132817
0
LINE
8
Layer 1
10
170.827757
20
50.132817
11
170.509896
21
49.918514
0
LINE
8
Layer 1
10
170.509896
20
49.918514
11
170.295587
21
49.600654
0
LINE
8
Layer 1
10
170.295587
20
49.600654
11
170.217001
21
49.211399
0
LINE
8
Layer 1
10
170.217001
20
49.211399
11
170.295587
21
48.822169
0
LINE
8
Layer 1
10
170.295587
20
48.822169
11
170.509896
21
48.504306
0
LINE
8
Layer 1
10
170.509896
20
48.504306
11
170.827757
21
48.289990
0
LINE
8
Layer 1
10
170.827757
20
48.289990
11
171.217000
21
48.211400
0
LINE
8
Layer 1
10
171.217000
20
48.211400
11
171.217000
21
48.211400
0
LINE
8
Layer 1
10
115.218000
20
48.211400
11
115.607251
21
48.289981
0
LINE
8
Layer 1
10
115.607251
20
48.289981
11
115.925112
21
48.504284
0
LINE
8
Layer 1
10
115.925112
20
48.504284
11
116.139416
21
48.822144
0
LINE
8
Layer 1
10
116.139416
20
48.822144
11
116.217999
21
49.211399
0
LINE
8
Layer 1
10
116.217999
20
49.211399
11
116.139416
21
49.600625
0
LINE
8
Layer 1
10
116.139416
20
49.600625
11
115.925112
21
49.918488
0
LINE
8
Layer 1
10
115.925112
20
49.918488
11
115.607251
21
50.132807
0
LINE
8
Layer 1
10
115.607251
20
50.132807
11
115.218000
21
50.211398
0
LINE
8
Layer 1
10
115.218000
20
50.211398
11
114.828757
21
50.132817
0
LINE
8
Layer 1
10
114.828757
20
50.132817
11
114.510896
21
49.918514
0
LINE
8
Layer 1
10
114.510896
20
49.918514
11
114.296587
21
49.600654
0
LINE
8
Layer 1
10
114.296587
20
49.600654
11
114.218001
21
49.211399
0
LINE
8
Layer 1
10
114.218001
20
49.211399
11
114.296587
21
48.822169
0
LINE
8
Layer 1
10
114.296587
20
48.822169
11
114.510896
21
48.504306
0
LINE
8
Layer 1
10
114.510896
20
48.504306
11
114.828757
21
48.289990
0
LINE
8
Layer 1
10
114.828757
20
48.289990
11
115.218000
21
48.211400
0
LINE
8
Layer 1
10
115.218000
20
48.211400
11
115.218000
21
48.211400
0
LINE
8
Layer 1
10
136.218000
20
53.712500
11
134.218000
21
53.712500
0
LINE
8
Layer 1
10
134.218000
20
53.712500
11
134.218000
21
44.711400
0
LINE
8
Layer 1
10
136.218000
20
44.711400
11
134.218000
21
44.711400
0
LINE
8
Layer 1
10
136.218000
20
53.712500
11
136.218000
21
44.711400
0
LINE
8
Layer 1
10
211.717000
20
48.486400
11
212.226948
21
48.700116
0
LINE
8
Layer 1
10
212.226948
20
48.700116
11
212.437819
21
49.211439
0
LINE
8
Layer 1
10
212.437819
20
49.211439
11
212.226948
21
49.722559
0
LINE
8
Layer 1
10
212.226948
20
49.722559
11
211.717000
21
49.936408
0
LINE
8
Layer 1
10
211.717000
20
49.936408
11
211.207032
21
49.722723
0
LINE
8
Layer 1
10
211.207032
20
49.722723
11
210.996171
21
49.211439
0
LINE
8
Layer 1
10
210.996171
20
49.211439
11
211.207032
21
48.700236
0
LINE
8
Layer 1
10
211.207032
20
48.700236
11
211.717000
21
48.486400
0
LINE
8
Layer 1
10
211.717000
20
48.486400
11
211.717000
21
48.486400
0
LINE
8
Layer 1
10
237.717000
20
48.486400
11
238.226968
21
48.700116
0
LINE
8
Layer 1
10
238.226968
20
48.700116
11
238.437829
21
49.211439
0
LINE
8
Layer 1
10
238.437829
20
49.211439
11
238.226968
21
49.722559
0
LINE
8
Layer 1
10
238.226968
20
49.722559
11
237.717000
21
49.936408
0
LINE
8
Layer 1
10
237.717000
20
49.936408
11
237.207067
21
49.722723
0
LINE
8
Layer 1
10
237.207067
20
49.722723
11
236.996211
21
49.211439
0
LINE
8
Layer 1
10
236.996211
20
49.211439
11
237.207067
21
48.700236
0
LINE
8
Layer 1
10
237.207067
20
48.700236
11
237.717000
21
48.486400
0
LINE
8
Layer 1
10
237.717000
20
48.486400
11
237.717000
21
48.486400
 0 
ENDSEC
 0 
EOF