999
"DXF R12 Output" (www.mydxf.blogspot.com)
 0 
SECTION
 2 
HEADER
 9 
$ACADVER
 1 
AC1009
 9 
$EXTMIN
 10 
 0 
 20 
 0 
 9 
$EXTMAX
 10 
 8.5 
 20 
 11 
 0 
ENDSEC
 0 
SECTION
 2 
ENTITIES
0
LINE
8
Layer 1
10
132.024000
20
311.913000
11
134.039393
21
312.116158
0
LINE
8
Layer 1
10
134.039393
20
312.116158
11
135.916516
21
312.698828
0
LINE
8
Layer 1
10
135.916516
20
312.698828
11
137.615162
21
313.620803
0
LINE
8
Layer 1
10
137.615162
20
313.620803
11
139.095125
21
314.841875
0
LINE
8
Layer 1
10
139.095125
20
314.841875
11
140.316197
21
316.321838
0
LINE
8
Layer 1
10
140.316197
20
316.321838
11
141.238172
21
318.020484
0
LINE
8
Layer 1
10
141.238172
20
318.020484
11
141.820842
21
319.897607
0
LINE
8
Layer 1
10
141.820842
20
319.897607
11
142.024000
21
321.913000
0
LINE
8
Layer 1
10
142.024000
20
321.913000
11
142.024000
21
364.913000
0
LINE
8
Layer 1
10
142.024000
20
364.913000
11
141.820842
21
366.928105
0
LINE
8
Layer 1
10
141.820842
20
366.928105
11
141.238172
21
368.805094
0
LINE
8
Layer 1
10
141.238172
20
368.805094
11
140.316197
21
370.503723
0
LINE
8
Layer 1
10
140.316197
20
370.503723
11
139.095125
21
371.983750
0
LINE
8
Layer 1
10
139.095125
20
371.983750
11
137.615162
21
373.204934
0
LINE
8
Layer 1
10
137.615162
20
373.204934
11
135.916516
21
374.127031
0
LINE
8
Layer 1
10
135.916516
20
374.127031
11
134.039393
21
374.709801
0
LINE
8
Layer 1
10
134.039393
20
374.709801
11
132.024000
21
374.913000
0
LINE
8
Layer 1
10
128.024000
20
374.912000
11
132.024000
21
374.912000
0
LINE
8
Layer 1
10
128.024000
20
374.913000
11
126.008607
21
374.709801
0
LINE
8
Layer 1
10
126.008607
20
374.709801
11
124.131484
21
374.127031
0
LINE
8
Layer 1
10
124.131484
20
374.127031
11
122.432838
21
373.204934
0
LINE
8
Layer 1
10
122.432838
20
373.204934
11
120.952875
21
371.983750
0
LINE
8
Layer 1
10
120.952875
20
371.983750
11
119.731803
21
370.503723
0
LINE
8
Layer 1
10
119.731803
20
370.503723
11
118.809828
21
368.805094
0
LINE
8
Layer 1
10
118.809828
20
368.805094
11
118.227158
21
366.928105
0
LINE
8
Layer 1
10
118.227158
20
366.928105
11
118.024000
21
364.913000
0
LINE
8
Layer 1
10
118.024000
20
321.913000
11
118.024000
21
364.913000
0
LINE
8
Layer 1
10
118.024000
20
321.913000
11
118.227158
21
319.897607
0
LINE
8
Layer 1
10
118.227158
20
319.897607
11
118.809828
21
318.020484
0
LINE
8
Layer 1
10
118.809828
20
318.020484
11
119.731803
21
316.321838
0
LINE
8
Layer 1
10
119.731803
20
316.321838
11
120.952875
21
314.841875
0
LINE
8
Layer 1
10
120.952875
20
314.841875
11
122.432838
21
313.620803
0
LINE
8
Layer 1
10
122.432838
20
313.620803
11
124.131484
21
312.698828
0
LINE
8
Layer 1
10
124.131484
20
312.698828
11
126.008607
21
312.116158
0
LINE
8
Layer 1
10
126.008607
20
312.116158
11
128.024000
21
311.913000
0
LINE
8
Layer 1
10
128.024000
20
311.912000
11
132.024000
21
311.912000
0
LINE
8
Layer 1
10
117.336000
20
247.852000
11
117.116250
21
248.382250
0
LINE
8
Layer 1
10
117.116250
20
248.382250
11
116.586000
21
248.602000
0
LINE
8
Layer 1
10
116.586000
20
248.602000
11
116.055750
21
248.382250
0
LINE
8
Layer 1
10
116.055750
20
248.382250
11
115.836000
21
247.852000
0
LINE
8
Layer 1
10
115.836000
20
247.852000
11
116.055750
21
247.321375
0
LINE
8
Layer 1
10
116.055750
20
247.321375
11
116.586000
21
247.102000
0
LINE
8
Layer 1
10
116.586000
20
247.102000
11
117.116250
21
247.321375
0
LINE
8
Layer 1
10
117.116250
20
247.321375
11
117.336000
21
247.852000
0
LINE
8
Layer 1
10
117.336000
20
247.852000
11
117.336000
21
247.852000
0
LINE
8
Layer 1
10
144.197000
20
247.852000
11
143.977250
21
248.382250
0
LINE
8
Layer 1
10
143.977250
20
248.382250
11
143.447000
21
248.602000
0
LINE
8
Layer 1
10
143.447000
20
248.602000
11
142.916375
21
248.382250
0
LINE
8
Layer 1
10
142.916375
20
248.382250
11
142.697000
21
247.852000
0
LINE
8
Layer 1
10
142.697000
20
247.852000
11
142.916375
21
247.321375
0
LINE
8
Layer 1
10
142.916375
20
247.321375
11
143.447000
21
247.102000
0
LINE
8
Layer 1
10
143.447000
20
247.102000
11
143.977250
21
247.321375
0
LINE
8
Layer 1
10
143.977250
20
247.321375
11
144.197000
21
247.852000
0
LINE
8
Layer 1
10
144.197000
20
247.852000
11
144.197000
21
247.852000
0
LINE
8
Layer 1
10
226.327000
20
356.843000
11
226.107250
21
357.373250
0
LINE
8
Layer 1
10
226.107250
20
357.373250
11
225.577000
21
357.593000
0
LINE
8
Layer 1
10
225.577000
20
357.593000
11
225.046750
21
357.373250
0
LINE
8
Layer 1
10
225.046750
20
357.373250
11
224.827000
21
356.843000
0
LINE
8
Layer 1
10
224.827000
20
356.843000
11
225.046750
21
356.312750
0
LINE
8
Layer 1
10
225.046750
20
356.312750
11
225.577000
21
356.093000
0
LINE
8
Layer 1
10
225.577000
20
356.093000
11
226.107250
21
356.312750
0
LINE
8
Layer 1
10
226.107250
20
356.312750
11
226.327000
21
356.843000
0
LINE
8
Layer 1
10
226.327000
20
356.843000
11
226.327000
21
356.843000
0
LINE
8
Layer 1
10
35.205500
20
356.843000
11
34.985825
21
357.373250
0
LINE
8
Layer 1
10
34.985825
20
357.373250
11
34.455500
21
357.593000
0
LINE
8
Layer 1
10
34.455500
20
357.593000
11
33.925138
21
357.373250
0
LINE
8
Layer 1
10
33.925138
20
357.373250
11
33.705500
21
356.843000
0
LINE
8
Layer 1
10
33.705500
20
356.843000
11
33.925138
21
356.312750
0
LINE
8
Layer 1
10
33.925138
20
356.312750
11
34.455500
21
356.093000
0
LINE
8
Layer 1
10
34.455500
20
356.093000
11
34.985825
21
356.312750
0
LINE
8
Layer 1
10
34.985825
20
356.312750
11
35.205500
21
356.843000
0
LINE
8
Layer 1
10
35.205500
20
356.843000
11
35.205500
21
356.843000
0
LINE
8
Layer 1
10
35.205500
20
329.982000
11
34.985825
21
330.512625
0
LINE
8
Layer 1
10
34.985825
20
330.512625
11
34.455500
21
330.732000
0
LINE
8
Layer 1
10
34.455500
20
330.732000
11
33.925138
21
330.512625
0
LINE
8
Layer 1
10
33.925138
20
330.512625
11
33.705500
21
329.982000
0
LINE
8
Layer 1
10
33.705500
20
329.982000
11
33.925138
21
329.451750
0
LINE
8
Layer 1
10
33.925138
20
329.451750
11
34.455500
21
329.232000
0
LINE
8
Layer 1
10
34.455500
20
329.232000
11
34.985825
21
329.451750
0
LINE
8
Layer 1
10
34.985825
20
329.451750
11
35.205500
21
329.982000
0
LINE
8
Layer 1
10
35.205500
20
329.982000
11
35.205500
21
329.982000
0
LINE
8
Layer 1
10
130.766000
20
439.913000
11
130.546625
21
440.443250
0
LINE
8
Layer 1
10
130.546625
20
440.443250
11
130.016000
21
440.663000
0
LINE
8
Layer 1
10
130.016000
20
440.663000
11
129.485750
21
440.443250
0
LINE
8
Layer 1
10
129.485750
20
440.443250
11
129.266000
21
439.913000
0
LINE
8
Layer 1
10
129.266000
20
439.913000
11
129.485750
21
439.382375
0
LINE
8
Layer 1
10
129.485750
20
439.382375
11
130.016000
21
439.163000
0
LINE
8
Layer 1
10
130.016000
20
439.163000
11
130.546625
21
439.382375
0
LINE
8
Layer 1
10
130.546625
20
439.382375
11
130.766000
21
439.913000
0
LINE
8
Layer 1
10
130.766000
20
439.913000
11
130.766000
21
439.913000
0
LINE
8
Layer 1
10
199.002000
20
411.648000
11
198.782250
21
412.178625
0
LINE
8
Layer 1
10
198.782250
20
412.178625
11
198.252000
21
412.398000
0
LINE
8
Layer 1
10
198.252000
20
412.398000
11
197.721750
21
412.178625
0
LINE
8
Layer 1
10
197.721750
20
412.178625
11
197.502000
21
411.648000
0
LINE
8
Layer 1
10
197.502000
20
411.648000
11
197.721750
21
411.117750
0
LINE
8
Layer 1
10
197.721750
20
411.117750
11
198.252000
21
410.898000
0
LINE
8
Layer 1
10
198.252000
20
410.898000
11
198.782250
21
411.117750
0
LINE
8
Layer 1
10
198.782250
20
411.117750
11
199.002000
21
411.648000
0
LINE
8
Layer 1
10
199.002000
20
411.648000
11
199.002000
21
411.648000
0
LINE
8
Layer 1
10
219.921000
20
380.341000
11
219.701250
21
380.871625
0
LINE
8
Layer 1
10
219.701250
20
380.871625
11
219.171000
21
381.091000
0
LINE
8
Layer 1
10
219.171000
20
381.091000
11
218.640375
21
380.871625
0
LINE
8
Layer 1
10
218.640375
20
380.871625
11
218.421000
21
380.341000
0
LINE
8
Layer 1
10
218.421000
20
380.341000
11
218.640375
21
379.811250
0
LINE
8
Layer 1
10
218.640375
20
379.811250
11
219.171000
21
379.592000
0
LINE
8
Layer 1
10
219.171000
20
379.592000
11
219.701250
21
379.811250
0
LINE
8
Layer 1
10
219.701250
20
379.811250
11
219.921000
21
380.341000
0
LINE
8
Layer 1
10
219.921000
20
380.341000
11
219.921000
21
380.341000
0
LINE
8
Layer 1
10
227.266000
20
343.413000
11
227.045125
21
343.940000
0
LINE
8
Layer 1
10
227.045125
20
343.940000
11
226.516000
21
344.158000
0
LINE
8
Layer 1
10
226.516000
20
344.158000
11
225.987625
21
343.940000
0
LINE
8
Layer 1
10
225.987625
20
343.940000
11
225.766000
21
343.413000
0
LINE
8
Layer 1
10
225.766000
20
343.413000
11
225.987625
21
342.885125
0
LINE
8
Layer 1
10
225.987625
20
342.885125
11
226.516000
21
342.667000
0
LINE
8
Layer 1
10
226.516000
20
342.667000
11
227.045125
21
342.885125
0
LINE
8
Layer 1
10
227.045125
20
342.885125
11
227.266000
21
343.413000
0
LINE
8
Layer 1
10
227.266000
20
343.413000
11
227.266000
21
343.413000
0
LINE
8
Layer 1
10
219.921000
20
306.484000
11
219.701250
21
307.014250
0
LINE
8
Layer 1
10
219.701250
20
307.014250
11
219.171000
21
307.234000
0
LINE
8
Layer 1
10
219.171000
20
307.234000
11
218.640375
21
307.014250
0
LINE
8
Layer 1
10
218.640375
20
307.014250
11
218.421000
21
306.484000
0
LINE
8
Layer 1
10
218.421000
20
306.484000
11
218.640375
21
305.953375
0
LINE
8
Layer 1
10
218.640375
20
305.953375
11
219.171000
21
305.734000
0
LINE
8
Layer 1
10
219.171000
20
305.734000
11
219.701250
21
305.953375
0
LINE
8
Layer 1
10
219.701250
20
305.953375
11
219.921000
21
306.484000
0
LINE
8
Layer 1
10
219.921000
20
306.484000
11
219.921000
21
306.484000
0
LINE
8
Layer 1
10
199.002000
20
275.177000
11
198.782250
21
275.707250
0
LINE
8
Layer 1
10
198.782250
20
275.707250
11
198.252000
21
275.927000
0
LINE
8
Layer 1
10
198.252000
20
275.927000
11
197.721750
21
275.707250
0
LINE
8
Layer 1
10
197.721750
20
275.707250
11
197.502000
21
275.177000
0
LINE
8
Layer 1
10
197.502000
20
275.177000
11
197.721750
21
274.646750
0
LINE
8
Layer 1
10
197.721750
20
274.646750
11
198.252000
21
274.427000
0
LINE
8
Layer 1
10
198.252000
20
274.427000
11
198.782250
21
274.646750
0
LINE
8
Layer 1
10
198.782250
20
274.646750
11
199.002000
21
275.177000
0
LINE
8
Layer 1
10
199.002000
20
275.177000
11
199.002000
21
275.177000
0
LINE
8
Layer 1
10
167.695000
20
254.258000
11
167.474500
21
254.786375
0
LINE
8
Layer 1
10
167.474500
20
254.786375
11
166.945000
21
255.005000
0
LINE
8
Layer 1
10
166.945000
20
255.005000
11
166.415875
21
254.786375
0
LINE
8
Layer 1
10
166.415875
20
254.786375
11
166.195000
21
254.258000
0
LINE
8
Layer 1
10
166.195000
20
254.258000
11
166.415875
21
253.729625
0
LINE
8
Layer 1
10
166.415875
20
253.729625
11
166.945000
21
253.511000
0
LINE
8
Layer 1
10
166.945000
20
253.511000
11
167.474500
21
253.729625
0
LINE
8
Layer 1
10
167.474500
20
253.729625
11
167.695000
21
254.258000
0
LINE
8
Layer 1
10
167.695000
20
254.258000
11
167.695000
21
254.258000
0
LINE
8
Layer 1
10
130.766000
20
246.913000
11
130.546625
21
247.443250
0
LINE
8
Layer 1
10
130.546625
20
247.443250
11
130.016000
21
247.663000
0
LINE
8
Layer 1
10
130.016000
20
247.663000
11
129.485750
21
247.443250
0
LINE
8
Layer 1
10
129.485750
20
247.443250
11
129.266000
21
246.913000
0
LINE
8
Layer 1
10
129.266000
20
246.913000
11
129.485750
21
246.382375
0
LINE
8
Layer 1
10
129.485750
20
246.382375
11
130.016000
21
246.163000
0
LINE
8
Layer 1
10
130.016000
20
246.163000
11
130.546625
21
246.382375
0
LINE
8
Layer 1
10
130.546625
20
246.382375
11
130.766000
21
246.913000
0
LINE
8
Layer 1
10
130.766000
20
246.913000
11
130.766000
21
246.913000
0
LINE
8
Layer 1
10
93.837400
20
254.258000
11
93.617725
21
254.788250
0
LINE
8
Layer 1
10
93.617725
20
254.788250
11
93.087400
21
255.008000
0
LINE
8
Layer 1
10
93.087400
20
255.008000
11
92.557075
21
254.788250
0
LINE
8
Layer 1
10
92.557075
20
254.788250
11
92.337400
21
254.258000
0
LINE
8
Layer 1
10
92.337400
20
254.258000
11
92.557075
21
253.727750
0
LINE
8
Layer 1
10
92.557075
20
253.727750
11
93.087400
21
253.508000
0
LINE
8
Layer 1
10
93.087400
20
253.508000
11
93.617725
21
253.727750
0
LINE
8
Layer 1
10
93.617725
20
253.727750
11
93.837400
21
254.258000
0
LINE
8
Layer 1
10
93.837400
20
254.258000
11
93.837400
21
254.258000
0
LINE
8
Layer 1
10
62.530500
20
275.177000
11
62.309812
21
275.705375
0
LINE
8
Layer 1
10
62.309812
20
275.705375
11
61.780500
21
275.924000
0
LINE
8
Layer 1
10
61.780500
20
275.924000
11
61.251188
21
275.705375
0
LINE
8
Layer 1
10
61.251188
20
275.705375
11
61.030500
21
275.177000
0
LINE
8
Layer 1
10
61.030500
20
275.177000
11
61.251188
21
274.648625
0
LINE
8
Layer 1
10
61.251188
20
274.648625
11
61.780500
21
274.430000
0
LINE
8
Layer 1
10
61.780500
20
274.430000
11
62.309812
21
274.648625
0
LINE
8
Layer 1
10
62.309812
20
274.648625
11
62.530500
21
275.177000
0
LINE
8
Layer 1
10
62.530500
20
275.177000
11
62.530500
21
275.177000
0
LINE
8
Layer 1
10
41.612000
20
306.484000
11
41.391312
21
307.012375
0
LINE
8
Layer 1
10
41.391312
20
307.012375
11
40.862000
21
307.231000
0
LINE
8
Layer 1
10
40.862000
20
307.231000
11
40.332650
21
307.012375
0
LINE
8
Layer 1
10
40.332650
20
307.012375
11
40.112000
21
306.484000
0
LINE
8
Layer 1
10
40.112000
20
306.484000
11
40.332650
21
305.955125
0
LINE
8
Layer 1
10
40.332650
20
305.955125
11
40.862000
21
305.736000
0
LINE
8
Layer 1
10
40.862000
20
305.736000
11
41.391312
21
305.955125
0
LINE
8
Layer 1
10
41.391312
20
305.955125
11
41.612000
21
306.484000
0
LINE
8
Layer 1
10
41.612000
20
306.484000
11
41.612000
21
306.484000
0
LINE
8
Layer 1
10
34.266300
20
343.413000
11
34.045612
21
343.941375
0
LINE
8
Layer 1
10
34.045612
20
343.941375
11
33.516300
21
344.160000
0
LINE
8
Layer 1
10
33.516300
20
344.160000
11
32.986987
21
343.941375
0
LINE
8
Layer 1
10
32.986987
20
343.941375
11
32.766300
21
343.413000
0
LINE
8
Layer 1
10
32.766300
20
343.413000
11
32.986987
21
342.883750
0
LINE
8
Layer 1
10
32.986987
20
342.883750
11
33.516300
21
342.665000
0
LINE
8
Layer 1
10
33.516300
20
342.665000
11
34.045612
21
342.883750
0
LINE
8
Layer 1
10
34.045612
20
342.883750
11
34.266300
21
343.413000
0
LINE
8
Layer 1
10
34.266300
20
343.413000
11
34.266300
21
343.413000
0
LINE
8
Layer 1
10
41.612000
20
380.341000
11
41.391312
21
380.870250
0
LINE
8
Layer 1
10
41.391312
20
380.870250
11
40.862000
21
381.089000
0
LINE
8
Layer 1
10
40.862000
20
381.089000
11
40.332650
21
380.870250
0
LINE
8
Layer 1
10
40.332650
20
380.870250
11
40.112000
21
380.341000
0
LINE
8
Layer 1
10
40.112000
20
380.341000
11
40.332650
21
379.812625
0
LINE
8
Layer 1
10
40.332650
20
379.812625
11
40.862000
21
379.594000
0
LINE
8
Layer 1
10
40.862000
20
379.594000
11
41.391312
21
379.812625
0
LINE
8
Layer 1
10
41.391312
20
379.812625
11
41.612000
21
380.341000
0
LINE
8
Layer 1
10
41.612000
20
380.341000
11
41.612000
21
380.341000
0
LINE
8
Layer 1
10
62.530500
20
411.648000
11
62.309812
21
412.176375
0
LINE
8
Layer 1
10
62.309812
20
412.176375
11
61.780500
21
412.395000
0
LINE
8
Layer 1
10
61.780500
20
412.395000
11
61.251188
21
412.176375
0
LINE
8
Layer 1
10
61.251188
20
412.176375
11
61.030500
21
411.648000
0
LINE
8
Layer 1
10
61.030500
20
411.648000
11
61.251188
21
411.119625
0
LINE
8
Layer 1
10
61.251188
20
411.119625
11
61.780500
21
410.901000
0
LINE
8
Layer 1
10
61.780500
20
410.901000
11
62.309812
21
411.119625
0
LINE
8
Layer 1
10
62.309812
20
411.119625
11
62.530500
21
411.648000
0
LINE
8
Layer 1
10
62.530500
20
411.648000
11
62.530500
21
411.648000
0
LINE
8
Layer 1
10
93.837400
20
432.567000
11
93.617725
21
433.097250
0
LINE
8
Layer 1
10
93.617725
20
433.097250
11
93.087400
21
433.317000
0
LINE
8
Layer 1
10
93.087400
20
433.317000
11
92.557075
21
433.097250
0
LINE
8
Layer 1
10
92.557075
20
433.097250
11
92.337400
21
432.567000
0
LINE
8
Layer 1
10
92.337400
20
432.567000
11
92.557075
21
432.036750
0
LINE
8
Layer 1
10
92.557075
20
432.036750
11
93.087400
21
431.817000
0
LINE
8
Layer 1
10
93.087400
20
431.817000
11
93.617725
21
432.036750
0
LINE
8
Layer 1
10
93.617725
20
432.036750
11
93.837400
21
432.567000
0
LINE
8
Layer 1
10
93.837400
20
432.567000
11
93.837400
21
432.567000
0
LINE
8
Layer 1
10
234.516000
20
343.413000
11
234.378218
21
348.789972
0
LINE
8
Layer 1
10
234.378218
20
348.789972
11
233.972997
21
354.096265
0
LINE
8
Layer 1
10
233.972997
20
354.096265
11
233.306901
21
359.325320
0
LINE
8
Layer 1
10
233.306901
20
359.325320
11
232.386492
21
364.470576
0
LINE
8
Layer 1
10
232.386492
20
364.470576
11
231.218335
21
369.525474
0
LINE
8
Layer 1
10
231.218335
20
369.525474
11
229.808991
21
374.483454
0
LINE
8
Layer 1
10
229.808991
20
374.483454
11
228.165025
21
379.337957
0
LINE
8
Layer 1
10
228.165025
20
379.337957
11
226.293000
21
384.082422
0
LINE
8
Layer 1
10
226.293000
20
384.082422
11
224.199479
21
388.710290
0
LINE
8
Layer 1
10
224.199479
20
388.710290
11
221.891024
21
393.215001
0
LINE
8
Layer 1
10
221.891024
20
393.215001
11
219.374201
21
397.589995
0
LINE
8
Layer 1
10
219.374201
20
397.589995
11
216.655570
21
401.828713
0
LINE
8
Layer 1
10
216.655570
20
401.828713
11
213.741697
21
405.924595
0
LINE
8
Layer 1
10
213.741697
20
405.924595
11
210.639144
21
409.871080
0
LINE
8
Layer 1
10
210.639144
20
409.871080
11
207.354474
21
413.661610
0
LINE
8
Layer 1
10
207.354474
20
413.661610
11
203.894250
21
417.289625
0
LINE
8
Layer 1
10
203.894250
20
417.289625
11
200.265036
21
420.748564
0
LINE
8
Layer 1
10
200.265036
20
420.748564
11
196.473396
21
424.031869
0
LINE
8
Layer 1
10
196.473396
20
424.031869
11
192.525891
21
427.132979
0
LINE
8
Layer 1
10
192.525891
20
427.132979
11
188.429086
21
430.045334
0
LINE
8
Layer 1
10
188.429086
20
430.045334
11
184.189544
21
432.762375
0
LINE
8
Layer 1
10
184.189544
20
432.762375
11
179.813827
21
435.277542
0
LINE
8
Layer 1
10
179.813827
20
435.277542
11
175.308500
21
437.584276
0
LINE
8
Layer 1
10
175.308500
20
437.584276
11
170.680125
21
439.676016
0
LINE
8
Layer 1
10
170.680125
20
439.676016
11
165.935266
21
441.546202
0
LINE
8
Layer 1
10
165.935266
20
441.546202
11
161.080485
21
443.188276
0
LINE
8
Layer 1
10
161.080485
20
443.188276
11
156.122347
21
444.595677
0
LINE
8
Layer 1
10
156.122347
20
444.595677
11
151.067414
21
445.761846
0
LINE
8
Layer 1
10
151.067414
20
445.761846
11
145.922250
21
446.680222
0
LINE
8
Layer 1
10
145.922250
20
446.680222
11
140.693417
21
447.344246
0
LINE
8
Layer 1
10
140.693417
20
447.344246
11
135.387479
21
447.747359
0
LINE
8
Layer 1
10
135.387479
20
447.747359
11
130.011000
21
447.883000
0
LINE
8
Layer 1
10
130.011000
20
447.883000
11
124.634614
21
447.746891
0
LINE
8
Layer 1
10
124.634614
20
447.746891
11
119.328788
21
447.343313
0
LINE
8
Layer 1
10
119.328788
20
447.343313
11
114.100084
21
446.678828
0
LINE
8
Layer 1
10
114.100084
20
446.678828
11
108.955065
21
445.760000
0
LINE
8
Layer 1
10
108.955065
20
445.760000
11
103.900295
21
444.593391
0
LINE
8
Layer 1
10
103.900295
20
444.593391
11
98.942337
21
443.185562
0
LINE
8
Layer 1
10
98.942337
20
443.185562
11
94.087752
21
441.543078
0
LINE
8
Layer 1
10
94.087752
20
441.543078
11
89.343105
21
439.672500
0
LINE
8
Layer 1
10
89.343105
20
439.672500
11
84.714957
21
437.580391
0
LINE
8
Layer 1
10
84.714957
20
437.580391
11
80.209873
21
435.273312
0
LINE
8
Layer 1
10
80.209873
20
435.273312
11
75.834414
21
432.757828
0
LINE
8
Layer 1
10
75.834414
20
432.757828
11
71.595145
21
430.040500
0
LINE
8
Layer 1
10
71.595145
20
430.040500
11
67.498627
21
427.127891
0
LINE
8
Layer 1
10
67.498627
20
427.127891
11
63.551423
21
424.026562
0
LINE
8
Layer 1
10
63.551423
20
424.026562
11
59.760098
21
420.743078
0
LINE
8
Layer 1
10
59.760098
20
420.743078
11
56.131213
21
417.284000
0
LINE
8
Layer 1
10
56.131213
20
417.284000
11
52.671331
21
413.655891
0
LINE
8
Layer 1
10
52.671331
20
413.655891
11
49.387015
21
409.865313
0
LINE
8
Layer 1
10
49.387015
20
409.865313
11
46.284829
21
405.918828
0
LINE
8
Layer 1
10
46.284829
20
405.918828
11
43.371335
21
401.823000
0
LINE
8
Layer 1
10
43.371335
20
401.823000
11
40.653096
21
397.584391
0
LINE
8
Layer 1
10
40.653096
20
397.584391
11
38.136675
21
393.209563
0
LINE
8
Layer 1
10
38.136675
20
393.209563
11
35.828635
21
388.705078
0
LINE
8
Layer 1
10
35.828635
20
388.705078
11
33.735539
21
384.077500
0
LINE
8
Layer 1
10
33.735539
20
384.077500
11
31.863950
21
379.333391
0
LINE
8
Layer 1
10
31.863950
20
379.333391
11
30.220430
21
374.479312
0
LINE
8
Layer 1
10
30.220430
20
374.479312
11
28.811543
21
369.521828
0
LINE
8
Layer 1
10
28.811543
20
369.521828
11
27.643852
21
364.467500
0
LINE
8
Layer 1
10
27.643852
20
364.467500
11
26.723919
21
359.322891
0
LINE
8
Layer 1
10
26.723919
20
359.322891
11
26.058307
21
354.094562
0
LINE
8
Layer 1
10
26.058307
20
354.094562
11
25.653580
21
348.789078
0
LINE
8
Layer 1
10
25.653580
20
348.789078
11
25.516300
21
343.413000
0
LINE
8
Layer 1
10
25.516300
20
343.413000
11
25.654083
21
338.035937
0
LINE
8
Layer 1
10
25.654083
20
338.035937
11
26.059306
21
332.729559
0
LINE
8
Layer 1
10
26.059306
20
332.729559
11
26.725406
21
327.500424
0
LINE
8
Layer 1
10
26.725406
20
327.500424
11
27.645820
21
322.355094
0
LINE
8
Layer 1
10
27.645820
20
322.355094
11
28.813983
21
317.300126
0
LINE
8
Layer 1
10
28.813983
20
317.300126
11
30.223333
21
312.342082
0
LINE
8
Layer 1
10
30.223333
20
312.342082
11
31.867305
21
307.487520
0
LINE
8
Layer 1
10
31.867305
20
307.487520
11
33.739337
21
302.743000
0
LINE
8
Layer 1
10
33.739337
20
302.743000
11
35.832866
21
298.115082
0
LINE
8
Layer 1
10
35.832866
20
298.115082
11
38.141327
21
293.610324
0
LINE
8
Layer 1
10
38.141327
20
293.610324
11
40.658157
21
289.235288
0
LINE
8
Layer 1
10
40.658157
20
289.235288
11
43.376793
21
284.996531
0
LINE
8
Layer 1
10
43.376793
20
284.996531
11
46.290671
21
280.900615
0
LINE
8
Layer 1
10
46.290671
20
280.900615
11
49.393228
21
276.954098
0
LINE
8
Layer 1
10
49.393228
20
276.954098
11
52.677901
21
273.163540
0
LINE
8
Layer 1
10
52.677901
20
273.163540
11
56.138125
21
269.535500
0
LINE
8
Layer 1
10
56.138125
20
269.535500
11
59.767338
21
266.076539
0
LINE
8
Layer 1
10
59.767338
20
266.076539
11
63.558976
21
262.793215
0
LINE
8
Layer 1
10
63.558976
20
262.793215
11
67.506475
21
259.692088
0
LINE
8
Layer 1
10
67.506475
20
259.692088
11
71.603273
21
256.779719
0
LINE
8
Layer 1
10
71.603273
20
256.779719
11
75.842805
21
254.062666
0
LINE
8
Layer 1
10
75.842805
20
254.062666
11
80.218508
21
251.547488
0
LINE
8
Layer 1
10
80.218508
20
251.547488
11
84.723819
21
249.240747
0
LINE
8
Layer 1
10
84.723819
20
249.240747
11
89.352175
21
247.149000
0
LINE
8
Layer 1
10
89.352175
20
247.149000
11
94.097011
21
245.278808
0
LINE
8
Layer 1
10
94.097011
20
245.278808
11
98.951765
21
243.636730
0
LINE
8
Layer 1
10
98.951765
20
243.636730
11
103.909873
21
242.229327
0
LINE
8
Layer 1
10
103.909873
20
242.229327
11
108.964771
21
241.063156
0
LINE
8
Layer 1
10
108.964771
20
241.063156
11
114.109896
21
240.144779
0
LINE
8
Layer 1
10
114.109896
20
240.144779
11
119.338685
21
239.480754
0
LINE
8
Layer 1
10
119.338685
20
239.480754
11
124.644574
21
239.077641
0
LINE
8
Layer 1
10
124.644574
20
239.077641
11
130.021000
21
238.942000
0
LINE
8
Layer 1
10
130.021000
20
238.942000
11
135.397468
21
239.078109
0
LINE
8
Layer 1
10
135.397468
20
239.078109
11
140.703371
21
239.481688
0
LINE
8
Layer 1
10
140.703371
20
239.481688
11
145.932146
21
240.146173
0
LINE
8
Layer 1
10
145.932146
20
240.146173
11
151.077230
21
241.065002
0
LINE
8
Layer 1
10
151.077230
20
241.065002
11
156.132062
21
242.231613
0
LINE
8
Layer 1
10
156.132062
20
242.231613
11
161.090077
21
243.639444
0
LINE
8
Layer 1
10
161.090077
20
243.639444
11
165.944712
21
245.281932
0
LINE
8
Layer 1
10
165.944712
20
245.281932
11
170.689406
21
247.152516
0
LINE
8
Layer 1
10
170.689406
20
247.152516
11
175.317595
21
249.244632
0
LINE
8
Layer 1
10
175.317595
20
249.244632
11
179.822716
21
251.551718
0
LINE
8
Layer 1
10
179.822716
20
251.551718
11
184.198207
21
254.067212
0
LINE
8
Layer 1
10
184.198207
20
254.067212
11
188.437504
21
256.784553
0
LINE
8
Layer 1
10
188.437504
20
256.784553
11
192.534045
21
259.697176
0
LINE
8
Layer 1
10
192.534045
20
259.697176
11
196.481266
21
262.798521
0
LINE
8
Layer 1
10
196.481266
20
262.798521
11
200.272606
21
266.082025
0
LINE
8
Layer 1
10
200.272606
20
266.082025
11
203.901500
21
269.541125
0
LINE
8
Layer 1
10
203.901500
20
269.541125
11
207.361387
21
273.169259
0
LINE
8
Layer 1
10
207.361387
20
273.169259
11
210.645703
21
276.959865
0
LINE
8
Layer 1
10
210.645703
20
276.959865
11
213.747885
21
280.906381
0
LINE
8
Layer 1
10
213.747885
20
280.906381
11
216.661371
21
285.002244
0
LINE
8
Layer 1
10
216.661371
20
285.002244
11
219.379598
21
289.240892
0
LINE
8
Layer 1
10
219.379598
20
289.240892
11
221.896002
21
293.615762
0
LINE
8
Layer 1
10
221.896002
20
293.615762
11
224.204022
21
298.120293
0
LINE
8
Layer 1
10
224.204022
20
298.120293
11
226.297094
21
302.747922
0
LINE
8
Layer 1
10
226.297094
20
302.747922
11
228.168655
21
307.492086
0
LINE
8
Layer 1
10
228.168655
20
307.492086
11
229.812142
21
312.346224
0
LINE
8
Layer 1
10
229.812142
20
312.346224
11
231.220993
21
317.303773
0
LINE
8
Layer 1
10
231.220993
20
317.303773
11
232.388645
21
322.358170
0
LINE
8
Layer 1
10
232.388645
20
322.358170
11
233.308534
21
327.502854
0
LINE
8
Layer 1
10
233.308534
20
327.502854
11
233.974098
21
332.731261
0
LINE
8
Layer 1
10
233.974098
20
332.731261
11
234.378774
21
338.036831
0
LINE
8
Layer 1
10
234.378774
20
338.036831
11
234.516000
21
343.413000
0
LINE
8
Layer 1
10
234.516000
20
343.413000
11
234.516000
21
343.413000
0
LINE
8
Layer 1
10
117.336000
20
438.973000
11
117.116250
21
439.503625
0
LINE
8
Layer 1
10
117.116250
20
439.503625
11
116.586000
21
439.723000
0
LINE
8
Layer 1
10
116.586000
20
439.723000
11
116.055750
21
439.503625
0
LINE
8
Layer 1
10
116.055750
20
439.503625
11
115.836000
21
438.973000
0
LINE
8
Layer 1
10
115.836000
20
438.973000
11
116.055750
21
438.442750
0
LINE
8
Layer 1
10
116.055750
20
438.442750
11
116.586000
21
438.223000
0
LINE
8
Layer 1
10
116.586000
20
438.223000
11
117.116250
21
438.442750
0
LINE
8
Layer 1
10
117.116250
20
438.442750
11
117.336000
21
438.973000
0
LINE
8
Layer 1
10
117.336000
20
438.973000
11
117.336000
21
438.973000
0
LINE
8
Layer 1
10
144.197000
20
438.973000
11
143.977250
21
439.503625
0
LINE
8
Layer 1
10
143.977250
20
439.503625
11
143.447000
21
439.723000
0
LINE
8
Layer 1
10
143.447000
20
439.723000
11
142.916375
21
439.503625
0
LINE
8
Layer 1
10
142.916375
20
439.503625
11
142.697000
21
438.973000
0
LINE
8
Layer 1
10
142.697000
20
438.973000
11
142.916375
21
438.442750
0
LINE
8
Layer 1
10
142.916375
20
438.442750
11
143.447000
21
438.223000
0
LINE
8
Layer 1
10
143.447000
20
438.223000
11
143.977250
21
438.442750
0
LINE
8
Layer 1
10
143.977250
20
438.442750
11
144.197000
21
438.973000
0
LINE
8
Layer 1
10
144.197000
20
438.973000
11
144.197000
21
438.973000
0
LINE
8
Layer 1
10
226.327000
20
329.982000
11
226.107250
21
330.512625
0
LINE
8
Layer 1
10
226.107250
20
330.512625
11
225.577000
21
330.732000
0
LINE
8
Layer 1
10
225.577000
20
330.732000
11
225.046750
21
330.512625
0
LINE
8
Layer 1
10
225.046750
20
330.512625
11
224.827000
21
329.982000
0
LINE
8
Layer 1
10
224.827000
20
329.982000
11
225.046750
21
329.451750
0
LINE
8
Layer 1
10
225.046750
20
329.451750
11
225.577000
21
329.232000
0
LINE
8
Layer 1
10
225.577000
20
329.232000
11
226.107250
21
329.451750
0
LINE
8
Layer 1
10
226.107250
20
329.451750
11
226.327000
21
329.982000
0
LINE
8
Layer 1
10
226.327000
20
329.982000
11
226.327000
21
329.982000
0
LINE
8
Layer 1
10
167.695000
20
432.567000
11
167.474500
21
433.095375
0
LINE
8
Layer 1
10
167.474500
20
433.095375
11
166.945000
21
433.314000
0
LINE
8
Layer 1
10
166.945000
20
433.314000
11
166.415875
21
433.095375
0
LINE
8
Layer 1
10
166.415875
20
433.095375
11
166.195000
21
432.567000
0
LINE
8
Layer 1
10
166.195000
20
432.567000
11
166.415875
21
432.038625
0
LINE
8
Layer 1
10
166.415875
20
432.038625
11
166.945000
21
431.820000
0
LINE
8
Layer 1
10
166.945000
20
431.820000
11
167.474500
21
432.038625
0
LINE
8
Layer 1
10
167.474500
20
432.038625
11
167.695000
21
432.567000
0
LINE
8
Layer 1
10
167.695000
20
432.567000
11
167.695000
21
432.567000
0
LINE
8
Layer 1
10
37.428200
20
279.011000
11
36.912400
21
279.262875
0
LINE
8
Layer 1
10
36.912400
20
279.262875
11
36.369600
21
279.076000
0
LINE
8
Layer 1
10
36.369600
20
279.076000
11
36.117688
21
278.560500
0
LINE
8
Layer 1
10
36.117688
20
278.560500
11
36.304300
21
278.018000
0
LINE
8
Layer 1
10
36.304300
20
278.018000
11
36.820150
21
277.765625
0
LINE
8
Layer 1
10
36.820150
20
277.765625
11
37.363000
21
277.952000
0
LINE
8
Layer 1
10
37.363000
20
277.952000
11
37.614863
21
278.468375
0
LINE
8
Layer 1
10
37.614863
20
278.468375
11
37.428200
21
279.011000
0
LINE
8
Layer 1
10
37.428200
20
279.011000
11
37.428200
21
279.011000
0
LINE
8
Layer 1
10
55.217300
20
258.886000
11
54.701450
21
259.137500
0
LINE
8
Layer 1
10
54.701450
20
259.137500
11
54.158600
21
258.951000
0
LINE
8
Layer 1
10
54.158600
20
258.951000
11
53.906700
21
258.435375
0
LINE
8
Layer 1
10
53.906700
20
258.435375
11
54.093400
21
257.892000
0
LINE
8
Layer 1
10
54.093400
20
257.892000
11
54.609200
21
257.640500
0
LINE
8
Layer 1
10
54.609200
20
257.640500
11
55.152000
21
257.827000
0
LINE
8
Layer 1
10
55.152000
20
257.827000
11
55.403913
21
258.342625
0
LINE
8
Layer 1
10
55.403913
20
258.342625
11
55.217300
21
258.886000
0
LINE
8
Layer 1
10
55.217300
20
258.886000
11
55.217300
21
258.886000
0
LINE
8
Layer 1
10
47.304900
20
269.817000
11
46.354892
21
270.535578
0
LINE
8
Layer 1
10
46.354892
20
270.535578
11
45.241637
21
270.824125
0
LINE
8
Layer 1
10
45.241637
20
270.824125
11
44.101364
21
270.674109
0
LINE
8
Layer 1
10
44.101364
20
270.674109
11
43.070300
21
270.077000
0
LINE
8
Layer 1
10
43.070300
20
270.077000
11
42.351511
21
269.127156
0
LINE
8
Layer 1
10
42.351511
20
269.127156
11
42.062838
21
268.014000
0
LINE
8
Layer 1
10
42.062838
20
268.014000
11
42.212670
21
266.873844
0
LINE
8
Layer 1
10
42.212670
20
266.873844
11
42.809400
21
265.843000
0
LINE
8
Layer 1
10
42.809400
20
265.843000
11
43.759408
21
265.123984
0
LINE
8
Layer 1
10
43.759408
20
265.123984
11
44.872663
21
264.835375
0
LINE
8
Layer 1
10
44.872663
20
264.835375
11
46.012936
21
264.985328
0
LINE
8
Layer 1
10
46.012936
20
264.985328
11
47.044000
21
265.582000
0
LINE
8
Layer 1
10
47.044000
20
265.582000
11
47.762789
21
266.531859
0
LINE
8
Layer 1
10
47.762789
20
266.531859
11
48.051462
21
267.645125
0
LINE
8
Layer 1
10
48.051462
20
267.645125
11
47.901630
21
268.785578
0
LINE
8
Layer 1
10
47.901630
20
268.785578
11
47.304900
21
269.817000
0
LINE
8
Layer 1
10
47.304900
20
269.817000
11
47.304900
21
269.817000
0
LINE
8
Layer 1
10
68.204300
20
257.546000
11
59.643400
21
244.625000
0
LINE
8
Layer 1
10
23.818700
20
285.155000
11
27.078615
21
279.114670
0
LINE
8
Layer 1
10
27.078615
20
279.114670
11
30.715683
21
273.319672
0
LINE
8
Layer 1
10
30.715683
20
273.319672
11
34.715350
21
267.786494
0
LINE
8
Layer 1
10
34.715350
20
267.786494
11
39.063063
21
262.531625
0
LINE
8
Layer 1
10
39.063063
20
262.531625
11
43.744267
21
257.571553
0
LINE
8
Layer 1
10
43.744267
20
257.571553
11
48.744411
21
252.922766
0
LINE
8
Layer 1
10
48.744411
20
252.922766
11
54.048940
21
248.601752
0
LINE
8
Layer 1
10
54.048940
20
248.601752
11
59.643300
21
244.625000
0
LINE
8
Layer 1
10
37.693400
20
292.064000
11
23.818700
21
285.155000
0
LINE
8
Layer 1
10
37.693300
20
292.064000
11
40.469689
21
286.919791
0
LINE
8
Layer 1
10
40.469689
20
286.919791
11
43.567292
21
281.984516
0
LINE
8
Layer 1
10
43.567292
20
281.984516
11
46.973715
21
277.272201
0
LINE
8
Layer 1
10
46.973715
20
277.272201
11
50.676563
21
272.796875
0
LINE
8
Layer 1
10
50.676563
20
272.796875
11
54.663440
21
268.572564
0
LINE
8
Layer 1
10
54.663440
20
268.572564
11
58.921952
21
264.613297
0
LINE
8
Layer 1
10
58.921952
20
264.613297
11
63.439703
21
260.933100
0
LINE
8
Layer 1
10
63.439703
20
260.933100
11
68.204300
21
257.546000
0
LINE
8
Layer 1
10
246.432000
20
327.092000
11
246.962250
21
327.311750
0
LINE
8
Layer 1
10
246.962250
20
327.311750
11
247.182000
21
327.842000
0
LINE
8
Layer 1
10
247.182000
20
327.842000
11
246.962250
21
328.372250
0
LINE
8
Layer 1
10
246.962250
20
328.372250
11
246.432000
21
328.592000
0
LINE
8
Layer 1
10
246.432000
20
328.592000
11
245.901750
21
328.372250
0
LINE
8
Layer 1
10
245.901750
20
328.372250
11
245.682000
21
327.842000
0
LINE
8
Layer 1
10
245.682000
20
327.842000
11
245.901750
21
327.311750
0
LINE
8
Layer 1
10
245.901750
20
327.311750
11
246.432000
21
327.092000
0
LINE
8
Layer 1
10
246.432000
20
327.092000
11
246.432000
21
327.092000
0
LINE
8
Layer 1
10
246.432000
20
353.953000
11
246.962250
21
354.172375
0
LINE
8
Layer 1
10
246.962250
20
354.172375
11
247.182000
21
354.703000
0
LINE
8
Layer 1
10
247.182000
20
354.703000
11
246.962250
21
355.233250
0
LINE
8
Layer 1
10
246.962250
20
355.233250
11
246.432000
21
355.453000
0
LINE
8
Layer 1
10
246.432000
20
355.453000
11
245.901750
21
355.233250
0
LINE
8
Layer 1
10
245.901750
20
355.233250
11
245.682000
21
354.703000
0
LINE
8
Layer 1
10
245.682000
20
354.703000
11
245.901750
21
354.172375
0
LINE
8
Layer 1
10
245.901750
20
354.172375
11
246.432000
21
353.953000
0
LINE
8
Layer 1
10
246.432000
20
353.953000
11
246.432000
21
353.953000
0
LINE
8
Layer 1
10
240.026000
20
375.201000
11
241.193797
21
375.436875
0
LINE
8
Layer 1
10
241.193797
20
375.436875
11
242.147375
21
376.080000
0
LINE
8
Layer 1
10
242.147375
20
376.080000
11
242.790266
21
377.033625
0
LINE
8
Layer 1
10
242.790266
20
377.033625
11
243.026000
21
378.201000
0
LINE
8
Layer 1
10
243.026000
20
378.201000
11
242.790266
21
379.368797
0
LINE
8
Layer 1
10
242.790266
20
379.368797
11
242.147375
21
380.322375
0
LINE
8
Layer 1
10
242.147375
20
380.322375
11
241.193797
21
380.965266
0
LINE
8
Layer 1
10
241.193797
20
380.965266
11
240.026000
21
381.201000
0
LINE
8
Layer 1
10
240.026000
20
381.201000
11
238.858203
21
380.965266
0
LINE
8
Layer 1
10
238.858203
20
380.965266
11
237.904625
21
380.322375
0
LINE
8
Layer 1
10
237.904625
20
380.322375
11
237.261734
21
379.368797
0
LINE
8
Layer 1
10
237.261734
20
379.368797
11
237.026000
21
378.201000
0
LINE
8
Layer 1
10
237.026000
20
378.201000
11
237.261734
21
377.033625
0
LINE
8
Layer 1
10
237.261734
20
377.033625
11
237.904625
21
376.080000
0
LINE
8
Layer 1
10
237.904625
20
376.080000
11
238.858203
21
375.436875
0
LINE
8
Layer 1
10
238.858203
20
375.436875
11
240.026000
21
375.201000
0
LINE
8
Layer 1
10
240.026000
20
375.201000
11
240.026000
21
375.201000
0
LINE
8
Layer 1
10
240.026000
20
301.343000
11
241.193797
21
301.578891
0
LINE
8
Layer 1
10
241.193797
20
301.578891
11
242.147375
21
302.222125
0
LINE
8
Layer 1
10
242.147375
20
302.222125
11
242.790266
21
303.176047
0
LINE
8
Layer 1
10
242.790266
20
303.176047
11
243.026000
21
304.344000
0
LINE
8
Layer 1
10
243.026000
20
304.344000
11
242.790266
21
305.511375
0
LINE
8
Layer 1
10
242.790266
20
305.511375
11
242.147375
21
306.465000
0
LINE
8
Layer 1
10
242.147375
20
306.465000
11
241.193797
21
307.108125
0
LINE
8
Layer 1
10
241.193797
20
307.108125
11
240.026000
21
307.344000
0
LINE
8
Layer 1
10
240.026000
20
307.344000
11
238.858203
21
307.108125
0
LINE
8
Layer 1
10
238.858203
20
307.108125
11
237.904625
21
306.465000
0
LINE
8
Layer 1
10
237.904625
20
306.465000
11
237.261734
21
305.511375
0
LINE
8
Layer 1
10
237.261734
20
305.511375
11
237.026000
21
304.344000
0
LINE
8
Layer 1
10
237.026000
20
304.344000
11
237.261734
21
303.176047
0
LINE
8
Layer 1
10
237.261734
20
303.176047
11
237.904625
21
302.222125
0
LINE
8
Layer 1
10
237.904625
20
302.222125
11
238.858203
21
301.578891
0
LINE
8
Layer 1
10
238.858203
20
301.578891
11
240.026000
21
301.343000
0
LINE
8
Layer 1
10
240.026000
20
301.343000
11
240.026000
21
301.343000
0
LINE
8
Layer 1
10
227.948000
20
385.772000
11
241.371000
21
393.522000
0
LINE
8
Layer 1
10
241.371000
20
289.022000
11
244.652309
21
295.168688
0
LINE
8
Layer 1
10
244.652309
20
295.168688
11
247.496109
21
301.469225
0
LINE
8
Layer 1
10
247.496109
20
301.469225
11
249.902402
21
307.901629
0
LINE
8
Layer 1
10
249.902402
20
307.901629
11
251.871188
21
314.443922
0
LINE
8
Layer 1
10
251.871188
20
314.443922
11
253.402465
21
321.074123
0
LINE
8
Layer 1
10
253.402465
20
321.074123
11
254.496234
21
327.770252
0
LINE
8
Layer 1
10
254.496234
20
327.770252
11
255.152496
21
334.510329
0
LINE
8
Layer 1
10
255.152496
20
334.510329
11
255.371250
21
341.272375
0
LINE
8
Layer 1
10
255.371250
20
341.272375
11
255.152496
21
348.034409
0
LINE
8
Layer 1
10
255.152496
20
348.034409
11
254.496234
21
354.774451
0
LINE
8
Layer 1
10
254.496234
20
354.774451
11
253.402465
21
361.470522
0
LINE
8
Layer 1
10
253.402465
20
361.470522
11
251.871188
21
368.100641
0
LINE
8
Layer 1
10
251.871188
20
368.100641
11
249.902402
21
374.642828
0
LINE
8
Layer 1
10
249.902402
20
374.642828
11
247.496109
21
381.075104
0
LINE
8
Layer 1
10
247.496109
20
381.075104
11
244.652309
21
387.375488
0
LINE
8
Layer 1
10
244.652309
20
387.375488
11
241.371000
21
393.522000
0
LINE
8
Layer 1
10
227.948000
20
296.773000
11
241.371000
21
289.023000
0
LINE
8
Layer 1
10
227.948000
20
296.772000
11
230.742570
21
302.006950
0
LINE
8
Layer 1
10
230.742570
20
302.006950
11
233.164531
21
307.372943
0
LINE
8
Layer 1
10
233.164531
20
307.372943
11
235.213883
21
312.851258
0
LINE
8
Layer 1
10
235.213883
20
312.851258
11
236.890625
21
318.423172
0
LINE
8
Layer 1
10
236.890625
20
318.423172
11
238.194758
21
324.069963
0
LINE
8
Layer 1
10
238.194758
20
324.069963
11
239.126281
21
329.772908
0
LINE
8
Layer 1
10
239.126281
20
329.772908
11
239.685195
21
335.513286
0
LINE
8
Layer 1
10
239.685195
20
335.513286
11
239.871500
21
341.272375
0
LINE
8
Layer 1
10
239.871500
20
341.272375
11
239.685195
21
347.031452
0
LINE
8
Layer 1
10
239.685195
20
347.031452
11
239.126281
21
352.771795
0
LINE
8
Layer 1
10
239.126281
20
352.771795
11
238.194758
21
358.474682
0
LINE
8
Layer 1
10
238.194758
20
358.474682
11
236.890625
21
364.121391
0
LINE
8
Layer 1
10
236.890625
20
364.121391
11
235.213883
21
369.693199
0
LINE
8
Layer 1
10
235.213883
20
369.693199
11
233.164531
21
375.171385
0
LINE
8
Layer 1
10
233.164531
20
375.171385
11
230.742570
21
380.537226
0
LINE
8
Layer 1
10
230.742570
20
380.537226
11
227.948000
21
385.772000
0
LINE
8
Layer 1
10
247.371000
20
338.272000
11
248.538797
21
338.507875
0
LINE
8
Layer 1
10
248.538797
20
338.507875
11
249.492375
21
339.151000
0
LINE
8
Layer 1
10
249.492375
20
339.151000
11
250.135266
21
340.104625
0
LINE
8
Layer 1
10
250.135266
20
340.104625
11
250.371000
21
341.272000
0
LINE
8
Layer 1
10
250.371000
20
341.272000
11
250.135266
21
342.439797
0
LINE
8
Layer 1
10
250.135266
20
342.439797
11
249.492375
21
343.393375
0
LINE
8
Layer 1
10
249.492375
20
343.393375
11
248.538797
21
344.036266
0
LINE
8
Layer 1
10
248.538797
20
344.036266
11
247.371000
21
344.272000
0
LINE
8
Layer 1
10
247.371000
20
344.272000
11
246.203203
21
344.036266
0
LINE
8
Layer 1
10
246.203203
20
344.036266
11
245.249625
21
343.393375
0
LINE
8
Layer 1
10
245.249625
20
343.393375
11
244.606734
21
342.439797
0
LINE
8
Layer 1
10
244.606734
20
342.439797
11
244.371000
21
341.272000
0
LINE
8
Layer 1
10
244.371000
20
341.272000
11
244.606734
21
340.104625
0
LINE
8
Layer 1
10
244.606734
20
340.104625
11
245.249625
21
339.151000
0
LINE
8
Layer 1
10
245.249625
20
339.151000
11
246.203203
21
338.507875
0
LINE
8
Layer 1
10
246.203203
20
338.507875
11
247.371000
21
338.272000
0
LINE
8
Layer 1
10
247.371000
20
338.272000
11
247.371000
21
338.272000
0
LINE
8
Layer 1
10
221.803000
20
277.784000
11
222.319375
21
278.035875
0
LINE
8
Layer 1
10
222.319375
20
278.035875
11
222.862000
21
277.849000
0
LINE
8
Layer 1
10
222.862000
20
277.849000
11
223.113875
21
277.333500
0
LINE
8
Layer 1
10
223.113875
20
277.333500
11
222.927000
21
276.791000
0
LINE
8
Layer 1
10
222.927000
20
276.791000
11
222.411500
21
276.538625
0
LINE
8
Layer 1
10
222.411500
20
276.538625
11
221.869000
21
276.725000
0
LINE
8
Layer 1
10
221.869000
20
276.725000
11
221.616625
21
277.241375
0
LINE
8
Layer 1
10
221.616625
20
277.241375
11
221.803000
21
277.784000
0
LINE
8
Layer 1
10
221.803000
20
277.784000
11
221.803000
21
277.784000
0
LINE
8
Layer 1
10
204.014000
20
257.659000
11
204.530375
21
257.910500
0
LINE
8
Layer 1
10
204.530375
20
257.910500
11
205.073000
21
257.724000
0
LINE
8
Layer 1
10
205.073000
20
257.724000
11
205.324500
21
257.208375
0
LINE
8
Layer 1
10
205.324500
20
257.208375
11
205.138000
21
256.665000
0
LINE
8
Layer 1
10
205.138000
20
256.665000
11
204.622500
21
256.413500
0
LINE
8
Layer 1
10
204.622500
20
256.413500
11
204.080000
21
256.600000
0
LINE
8
Layer 1
10
204.080000
20
256.600000
11
203.827625
21
257.115625
0
LINE
8
Layer 1
10
203.827625
20
257.115625
11
204.014000
21
257.659000
0
LINE
8
Layer 1
10
204.014000
20
257.659000
11
204.014000
21
257.659000
0
LINE
8
Layer 1
10
211.927000
20
268.590000
11
212.876844
21
269.308594
0
LINE
8
Layer 1
10
212.876844
20
269.308594
11
213.990000
21
269.597250
0
LINE
8
Layer 1
10
213.990000
20
269.597250
11
215.130156
21
269.447531
0
LINE
8
Layer 1
10
215.130156
20
269.447531
11
216.161000
21
268.851000
0
LINE
8
Layer 1
10
216.161000
20
268.851000
11
216.880016
21
267.900578
0
LINE
8
Layer 1
10
216.880016
20
267.900578
11
217.168625
21
266.787125
0
LINE
8
Layer 1
10
217.168625
20
266.787125
11
217.018672
21
265.646859
0
LINE
8
Layer 1
10
217.018672
20
265.646859
11
216.422000
21
264.616000
0
LINE
8
Layer 1
10
216.422000
20
264.616000
11
215.472156
21
263.897406
0
LINE
8
Layer 1
10
215.472156
20
263.897406
11
214.359000
21
263.608750
0
LINE
8
Layer 1
10
214.359000
20
263.608750
11
213.218844
21
263.758469
0
LINE
8
Layer 1
10
213.218844
20
263.758469
11
212.188000
21
264.355000
0
LINE
8
Layer 1
10
212.188000
20
264.355000
11
211.468844
21
265.304859
0
LINE
8
Layer 1
10
211.468844
20
265.304859
11
211.180000
21
266.418125
0
LINE
8
Layer 1
10
211.180000
20
266.418125
11
211.329906
21
267.558578
0
LINE
8
Layer 1
10
211.329906
20
267.558578
11
211.927000
21
268.590000
0
LINE
8
Layer 1
10
211.927000
20
268.590000
11
211.927000
21
268.590000
0
LINE
8
Layer 1
10
191.027000
20
256.319000
11
199.588000
21
243.398000
0
LINE
8
Layer 1
10
235.413000
20
283.928000
11
232.153162
21
277.887670
0
LINE
8
Layer 1
10
232.153162
20
277.887670
11
228.516109
21
272.092672
0
LINE
8
Layer 1
10
228.516109
20
272.092672
11
224.516408
21
266.559494
0
LINE
8
Layer 1
10
224.516408
20
266.559494
11
220.168625
21
261.304625
0
LINE
8
Layer 1
10
220.168625
20
261.304625
11
215.487326
21
256.344553
0
LINE
8
Layer 1
10
215.487326
20
256.344553
11
210.487078
21
251.695766
0
LINE
8
Layer 1
10
210.487078
20
251.695766
11
205.182447
21
247.374752
0
LINE
8
Layer 1
10
205.182447
20
247.374752
11
199.588000
21
243.398000
0
LINE
8
Layer 1
10
221.538000
20
290.837000
11
235.413000
21
283.928000
0
LINE
8
Layer 1
10
221.538000
20
290.837000
11
218.761738
21
285.692791
0
LINE
8
Layer 1
10
218.761738
20
285.692791
11
215.664219
21
280.757516
0
LINE
8
Layer 1
10
215.664219
20
280.757516
11
212.257840
21
276.045201
0
LINE
8
Layer 1
10
212.257840
20
276.045201
11
208.555000
21
271.569875
0
LINE
8
Layer 1
10
208.555000
20
271.569875
11
204.568098
21
267.345564
0
LINE
8
Layer 1
10
204.568098
20
267.345564
11
200.309531
21
263.386297
0
LINE
8
Layer 1
10
200.309531
20
263.386297
11
195.791699
21
259.706100
0
LINE
8
Layer 1
10
195.791699
20
259.706100
11
191.027000
21
256.319000
0
LINE
8
Layer 1
10
36.610300
20
406.935000
11
36.094487
21
406.682625
0
LINE
8
Layer 1
10
36.094487
20
406.682625
11
35.551600
21
406.869000
0
LINE
8
Layer 1
10
35.551600
20
406.869000
11
35.299775
21
407.385375
0
LINE
8
Layer 1
10
35.299775
20
407.385375
11
35.486400
21
407.928000
0
LINE
8
Layer 1
10
35.486400
20
407.928000
11
36.002200
21
408.179875
0
LINE
8
Layer 1
10
36.002200
20
408.179875
11
36.545000
21
407.993000
0
LINE
8
Layer 1
10
36.545000
20
407.993000
11
36.796913
21
407.477500
0
LINE
8
Layer 1
10
36.796913
20
407.477500
11
36.610300
21
406.935000
0
LINE
8
Layer 1
10
36.610300
20
406.935000
11
36.610300
21
406.935000
0
LINE
8
Layer 1
10
54.399300
20
427.060000
11
53.883500
21
426.808125
0
LINE
8
Layer 1
10
53.883500
20
426.808125
11
53.340700
21
426.995000
0
LINE
8
Layer 1
10
53.340700
20
426.995000
11
53.088787
21
427.510500
0
LINE
8
Layer 1
10
53.088787
20
427.510500
11
53.275400
21
428.053000
0
LINE
8
Layer 1
10
53.275400
20
428.053000
11
53.791213
21
428.305375
0
LINE
8
Layer 1
10
53.791213
20
428.305375
11
54.334100
21
428.119000
0
LINE
8
Layer 1
10
54.334100
20
428.119000
11
54.585925
21
427.602625
0
LINE
8
Layer 1
10
54.585925
20
427.602625
11
54.399300
21
427.060000
0
LINE
8
Layer 1
10
54.399300
20
427.060000
11
54.399300
21
427.060000
0
LINE
8
Layer 1
10
46.487000
20
416.129000
11
45.536992
21
415.410406
0
LINE
8
Layer 1
10
45.536992
20
415.410406
11
44.423738
21
415.121750
0
LINE
8
Layer 1
10
44.423738
20
415.121750
11
43.283464
21
415.271469
0
LINE
8
Layer 1
10
43.283464
20
415.271469
11
42.252400
21
415.868000
0
LINE
8
Layer 1
10
42.252400
20
415.868000
11
41.533595
21
416.817859
0
LINE
8
Layer 1
10
41.533595
20
416.817859
11
41.244888
21
417.931125
0
LINE
8
Layer 1
10
41.244888
20
417.931125
11
41.394686
21
419.071578
0
LINE
8
Layer 1
10
41.394686
20
419.071578
11
41.991400
21
420.103000
0
LINE
8
Layer 1
10
41.991400
20
420.103000
11
42.941408
21
420.821594
0
LINE
8
Layer 1
10
42.941408
20
420.821594
11
44.054663
21
421.110250
0
LINE
8
Layer 1
10
44.054663
20
421.110250
11
45.194936
21
420.960531
0
LINE
8
Layer 1
10
45.194936
20
420.960531
11
46.226000
21
420.364000
0
LINE
8
Layer 1
10
46.226000
20
420.364000
11
46.944847
21
419.413719
0
LINE
8
Layer 1
10
46.944847
20
419.413719
11
47.233550
21
418.300500
0
LINE
8
Layer 1
10
47.233550
20
418.300500
11
47.083728
21
417.160281
0
LINE
8
Layer 1
10
47.083728
20
417.160281
11
46.487000
21
416.129000
0
LINE
8
Layer 1
10
46.487000
20
416.129000
11
46.487000
21
416.129000
0
LINE
8
Layer 1
10
67.386400
20
428.399000
11
58.825500
21
441.321000
0
LINE
8
Layer 1
10
23.000700
20
400.791000
11
26.260648
21
406.831289
0
LINE
8
Layer 1
10
26.260648
20
406.831289
11
29.897741
21
412.626188
0
LINE
8
Layer 1
10
29.897741
20
412.626188
11
33.897425
21
418.159242
0
LINE
8
Layer 1
10
33.897425
20
418.159242
11
38.245150
21
423.414000
0
LINE
8
Layer 1
10
38.245150
20
423.414000
11
42.926362
21
428.374008
0
LINE
8
Layer 1
10
42.926362
20
428.374008
11
47.926509
21
433.022812
0
LINE
8
Layer 1
10
47.926509
20
433.022812
11
53.231039
21
437.343961
0
LINE
8
Layer 1
10
53.231039
20
437.343961
11
58.825400
21
441.321000
0
LINE
8
Layer 1
10
36.875400
20
393.881000
11
23.000700
21
400.791000
0
LINE
8
Layer 1
10
36.875400
20
393.881000
11
39.651789
21
399.025539
0
LINE
8
Layer 1
10
39.651789
20
399.025539
11
42.749391
21
403.961063
0
LINE
8
Layer 1
10
42.749391
20
403.961063
11
46.155810
21
408.673555
0
LINE
8
Layer 1
10
46.155810
20
408.673555
11
49.858650
21
413.149000
0
LINE
8
Layer 1
10
49.858650
20
413.149000
11
53.845515
21
417.373383
0
LINE
8
Layer 1
10
53.845515
20
417.373383
11
58.104009
21
421.332688
0
LINE
8
Layer 1
10
58.104009
20
421.332688
11
62.621736
21
425.012898
0
LINE
8
Layer 1
10
62.621736
20
425.012898
11
67.386300
21
428.400000
0
LINE
8
Layer 1
10
225.893000
20
404.481000
11
226.408500
21
404.228625
0
LINE
8
Layer 1
10
226.408500
20
404.228625
11
226.951000
21
404.415000
0
LINE
8
Layer 1
10
226.951000
20
404.415000
11
227.203375
21
404.931375
0
LINE
8
Layer 1
10
227.203375
20
404.931375
11
227.017000
21
405.474000
0
LINE
8
Layer 1
10
227.017000
20
405.474000
11
226.500625
21
405.725875
0
LINE
8
Layer 1
10
226.500625
20
405.725875
11
225.958000
21
405.539000
0
LINE
8
Layer 1
10
225.958000
20
405.539000
11
225.706125
21
405.023500
0
LINE
8
Layer 1
10
225.706125
20
405.023500
11
225.893000
21
404.481000
0
LINE
8
Layer 1
10
225.893000
20
404.481000
11
225.893000
21
404.481000
0
LINE
8
Layer 1
10
208.104000
20
424.606000
11
208.619500
21
424.354125
0
LINE
8
Layer 1
10
208.619500
20
424.354125
11
209.162000
21
424.541000
0
LINE
8
Layer 1
10
209.162000
20
424.541000
11
209.414375
21
425.056500
0
LINE
8
Layer 1
10
209.414375
20
425.056500
11
209.228000
21
425.599000
0
LINE
8
Layer 1
10
209.228000
20
425.599000
11
208.711625
21
425.851375
0
LINE
8
Layer 1
10
208.711625
20
425.851375
11
208.169000
21
425.665000
0
LINE
8
Layer 1
10
208.169000
20
425.665000
11
207.917125
21
425.148625
0
LINE
8
Layer 1
10
207.917125
20
425.148625
11
208.104000
21
424.606000
0
LINE
8
Layer 1
10
208.104000
20
424.606000
11
208.104000
21
424.606000
0
LINE
8
Layer 1
10
216.016000
20
413.675000
11
216.965859
21
412.956406
0
LINE
8
Layer 1
10
216.965859
20
412.956406
11
218.079125
21
412.667750
0
LINE
8
Layer 1
10
218.079125
20
412.667750
11
219.219578
21
412.817469
0
LINE
8
Layer 1
10
219.219578
20
412.817469
11
220.251000
21
413.414000
0
LINE
8
Layer 1
10
220.251000
20
413.414000
11
220.969594
21
414.364281
0
LINE
8
Layer 1
10
220.969594
20
414.364281
11
221.258250
21
415.477500
0
LINE
8
Layer 1
10
221.258250
20
415.477500
11
221.108531
21
416.617719
0
LINE
8
Layer 1
10
221.108531
20
416.617719
11
220.512000
21
417.649000
0
LINE
8
Layer 1
10
220.512000
20
417.649000
11
219.561578
21
418.367594
0
LINE
8
Layer 1
10
219.561578
20
418.367594
11
218.448125
21
418.656250
0
LINE
8
Layer 1
10
218.448125
20
418.656250
11
217.307859
21
418.506531
0
LINE
8
Layer 1
10
217.307859
20
418.506531
11
216.277000
21
417.910000
0
LINE
8
Layer 1
10
216.277000
20
417.910000
11
215.557984
21
416.959719
0
LINE
8
Layer 1
10
215.557984
20
416.959719
11
215.269375
21
415.846500
0
LINE
8
Layer 1
10
215.269375
20
415.846500
11
215.419328
21
414.706281
0
LINE
8
Layer 1
10
215.419328
20
414.706281
11
216.016000
21
413.675000
0
LINE
8
Layer 1
10
216.016000
20
413.675000
11
216.016000
21
413.675000
0
LINE
8
Layer 1
10
195.117000
20
425.945000
11
203.677000
21
438.867000
0
LINE
8
Layer 1
10
239.502000
20
398.337000
11
236.242164
21
404.377289
0
LINE
8
Layer 1
10
236.242164
20
404.377289
11
232.605125
21
410.172188
0
LINE
8
Layer 1
10
232.605125
20
410.172188
11
228.605461
21
415.705242
0
LINE
8
Layer 1
10
228.605461
20
415.705242
11
224.257750
21
420.960000
0
LINE
8
Layer 1
10
224.257750
20
420.960000
11
219.576570
21
425.920008
0
LINE
8
Layer 1
10
219.576570
20
425.920008
11
214.576500
21
430.568813
0
LINE
8
Layer 1
10
214.576500
20
430.568813
11
209.272117
21
434.889961
0
LINE
8
Layer 1
10
209.272117
20
434.889961
11
203.678000
21
438.867000
0
LINE
8
Layer 1
10
225.628000
20
391.427000
11
239.502000
21
398.337000
0
LINE
8
Layer 1
10
225.628000
20
391.427000
11
222.851410
21
396.571539
0
LINE
8
Layer 1
10
222.851410
20
396.571539
11
219.753656
21
401.507062
0
LINE
8
Layer 1
10
219.753656
20
401.507062
11
216.347137
21
406.219555
0
LINE
8
Layer 1
10
216.347137
20
406.219555
11
212.644250
21
410.695000
0
LINE
8
Layer 1
10
212.644250
20
410.695000
11
208.657395
21
414.919383
0
LINE
8
Layer 1
10
208.657395
20
414.919383
11
204.398969
21
418.878688
0
LINE
8
Layer 1
10
204.398969
20
418.878688
11
199.881371
21
422.558898
0
LINE
8
Layer 1
10
199.881371
20
422.558898
11
195.117000
21
425.946000
0
LINE
8
Layer 1
10
288.406000
20
382.416000
11
288.787120
21
382.845239
0
LINE
8
Layer 1
10
288.787120
20
382.845239
11
288.753070
21
383.418260
0
LINE
8
Layer 1
10
288.753070
20
383.418260
11
288.323817
21
383.799376
0
LINE
8
Layer 1
10
288.323817
20
383.799376
11
287.750820
21
383.765330
0
LINE
8
Layer 1
10
287.750820
20
383.765330
11
287.369695
21
383.336065
0
LINE
8
Layer 1
10
287.369695
20
383.336065
11
287.403740
21
382.763040
0
LINE
8
Layer 1
10
287.403740
20
382.763040
11
287.833001
21
382.381950
0
LINE
8
Layer 1
10
287.833001
20
382.381950
11
288.406000
21
382.416000
0
LINE
8
Layer 1
10
288.406000
20
382.416000
11
288.406000
21
382.416000
0
LINE
8
Layer 1
10
276.673000
20
406.578000
11
277.054110
21
407.007256
0
LINE
8
Layer 1
10
277.054110
20
407.007256
11
277.020050
21
407.580280
0
LINE
8
Layer 1
10
277.020050
20
407.580280
11
276.590811
21
407.961379
0
LINE
8
Layer 1
10
276.590811
20
407.961379
11
276.017790
21
407.927330
0
LINE
8
Layer 1
10
276.017790
20
407.927330
11
275.636681
21
407.498069
0
LINE
8
Layer 1
10
275.636681
20
407.498069
11
275.670720
21
406.925070
0
LINE
8
Layer 1
10
275.670720
20
406.925070
11
276.099984
21
406.543950
0
LINE
8
Layer 1
10
276.099984
20
406.543950
11
276.673000
21
406.578000
0
LINE
8
Layer 1
10
276.673000
20
406.578000
11
276.673000
21
406.578000
0
LINE
8
Layer 1
10
261.629000
20
422.894000
11
262.576465
21
423.616150
0
LINE
8
Layer 1
10
262.576465
20
423.616150
11
263.153430
21
424.611025
0
LINE
8
Layer 1
10
263.153430
20
424.611025
11
263.315240
21
425.749652
0
LINE
8
Layer 1
10
263.315240
20
425.749652
11
263.017240
21
426.903060
0
LINE
8
Layer 1
10
263.017240
20
426.903060
11
262.295100
21
427.850531
0
LINE
8
Layer 1
10
262.295100
20
427.850531
11
261.300234
21
428.427509
0
LINE
8
Layer 1
10
261.300234
20
428.427509
11
260.161606
21
428.589330
0
LINE
8
Layer 1
10
260.161606
20
428.589330
11
259.008180
21
428.291330
0
LINE
8
Layer 1
10
259.008180
20
428.291330
11
258.060715
21
427.569185
0
LINE
8
Layer 1
10
258.060715
20
427.569185
11
257.483750
21
426.574310
0
LINE
8
Layer 1
10
257.483750
20
426.574310
11
257.321940
21
425.435675
0
LINE
8
Layer 1
10
257.321940
20
425.435675
11
257.619940
21
424.282250
0
LINE
8
Layer 1
10
257.619940
20
424.282250
11
258.342089
21
423.334792
0
LINE
8
Layer 1
10
258.342089
20
423.334792
11
259.336961
21
422.757822
0
LINE
8
Layer 1
10
259.336961
20
422.757822
11
260.475588
21
422.596004
0
LINE
8
Layer 1
10
260.475588
20
422.596004
11
261.629000
21
422.894000
0
LINE
8
Layer 1
10
261.629000
20
422.894000
11
261.629000
21
422.894000
0
LINE
8
Layer 1
10
293.890000
20
356.455000
11
294.837452
21
357.177149
0
LINE
8
Layer 1
10
294.837452
20
357.177149
11
295.414419
21
358.172031
0
LINE
8
Layer 1
10
295.414419
20
358.172031
11
295.576236
21
359.310668
0
LINE
8
Layer 1
10
295.576236
20
359.310668
11
295.278240
21
360.464080
0
LINE
8
Layer 1
10
295.278240
20
360.464080
11
294.556095
21
361.411543
0
LINE
8
Layer 1
10
294.556095
20
361.411543
11
293.561219
21
361.988521
0
LINE
8
Layer 1
10
293.561219
20
361.988521
11
292.422581
21
362.150347
0
LINE
8
Layer 1
10
292.422581
20
362.150347
11
291.269150
21
361.852350
0
LINE
8
Layer 1
10
291.269150
20
361.852350
11
290.321685
21
361.130201
0
LINE
8
Layer 1
10
290.321685
20
361.130201
11
289.744720
21
360.135319
0
LINE
8
Layer 1
10
289.744720
20
360.135319
11
289.582910
21
358.996682
0
LINE
8
Layer 1
10
289.582910
20
358.996682
11
289.880910
21
357.843270
0
LINE
8
Layer 1
10
289.880910
20
357.843270
11
290.603043
21
356.895795
0
LINE
8
Layer 1
10
290.603043
20
356.895795
11
291.597920
21
356.318817
0
LINE
8
Layer 1
10
291.597920
20
356.318817
11
292.736565
21
356.156999
0
LINE
8
Layer 1
10
292.736565
20
356.156999
11
293.890000
21
356.455000
0
LINE
8
Layer 1
10
293.890000
20
356.455000
11
293.890000
21
356.455000
0
LINE
8
Layer 1
10
246.146000
20
427.127000
11
254.835860
21
439.961800
0
LINE
8
Layer 1
10
300.482000
20
345.959000
11
300.748884
21
352.921481
0
LINE
8
Layer 1
10
300.748884
20
352.921481
11
300.554993
21
359.831266
0
LINE
8
Layer 1
10
300.554993
20
359.831266
11
299.909930
21
366.668582
0
LINE
8
Layer 1
10
299.909930
20
366.668582
11
298.823295
21
373.413658
0
LINE
8
Layer 1
10
298.823295
20
373.413658
11
297.304690
21
380.046719
0
LINE
8
Layer 1
10
297.304690
20
380.046719
11
295.363716
21
386.547993
0
LINE
8
Layer 1
10
295.363716
20
386.547993
11
293.009975
21
392.897707
0
LINE
8
Layer 1
10
293.009975
20
392.897707
11
290.253068
21
399.076087
0
LINE
8
Layer 1
10
290.253068
20
399.076087
11
287.102596
21
405.063363
0
LINE
8
Layer 1
10
287.102596
20
405.063363
11
283.568161
21
410.839759
0
LINE
8
Layer 1
10
283.568161
20
410.839759
11
279.659364
21
416.385503
0
LINE
8
Layer 1
10
279.659364
20
416.385503
11
275.385807
21
421.680823
0
LINE
8
Layer 1
10
275.385807
20
421.680823
11
270.757090
21
426.705946
0
LINE
8
Layer 1
10
270.757090
20
426.705946
11
265.782816
21
431.441098
0
LINE
8
Layer 1
10
265.782816
20
431.441098
11
260.472585
21
435.866507
0
LINE
8
Layer 1
10
260.472585
20
435.866507
11
254.836000
21
439.962400
0
LINE
8
Layer 1
10
285.022000
20
347.067000
11
300.482100
21
345.959130
0
LINE
8
Layer 1
10
285.022000
20
347.067000
11
285.249304
21
352.996774
0
LINE
8
Layer 1
10
285.249304
20
352.996774
11
285.084178
21
358.881670
0
LINE
8
Layer 1
10
285.084178
20
358.881670
11
284.534798
21
364.704846
0
LINE
8
Layer 1
10
284.534798
20
364.704846
11
283.609342
21
370.449464
0
LINE
8
Layer 1
10
283.609342
20
370.449464
11
282.315987
21
376.098682
0
LINE
8
Layer 1
10
282.315987
20
376.098682
11
280.662911
21
381.635661
0
LINE
8
Layer 1
10
280.662911
20
381.635661
11
278.658290
21
387.043559
0
LINE
8
Layer 1
10
278.658290
20
387.043559
11
276.310304
21
392.305538
0
LINE
8
Layer 1
10
276.310304
20
392.305538
11
273.627128
21
397.404755
0
LINE
8
Layer 1
10
273.627128
20
397.404755
11
270.616940
21
402.324372
0
LINE
8
Layer 1
10
270.616940
20
402.324372
11
267.287918
21
407.047548
0
LINE
8
Layer 1
10
267.287918
20
407.047548
11
263.648239
21
411.557442
0
LINE
8
Layer 1
10
263.648239
20
411.557442
11
259.706080
21
415.837215
0
LINE
8
Layer 1
10
259.706080
20
415.837215
11
255.469619
21
419.870026
0
LINE
8
Layer 1
10
255.469619
20
419.870026
11
250.947033
21
423.639034
0
LINE
8
Layer 1
10
250.947033
20
423.639034
11
246.146500
21
427.127400
0
LINE
8
Layer 1
10
284.367000
20
392.883000
11
285.314470
21
393.605145
0
LINE
8
Layer 1
10
285.314470
20
393.605145
11
285.891445
21
394.600020
0
LINE
8
Layer 1
10
285.891445
20
394.600020
11
286.053265
21
395.738655
0
LINE
8
Layer 1
10
286.053265
20
395.738655
11
285.755270
21
396.892080
0
LINE
8
Layer 1
10
285.755270
20
396.892080
11
285.033125
21
397.839538
0
LINE
8
Layer 1
10
285.033125
20
397.839538
11
284.038250
21
398.416506
0
LINE
8
Layer 1
10
284.038250
20
398.416506
11
282.899615
21
398.578321
0
LINE
8
Layer 1
10
282.899615
20
398.578321
11
281.746190
21
398.280320
0
LINE
8
Layer 1
10
281.746190
20
398.280320
11
280.798732
21
397.558175
0
LINE
8
Layer 1
10
280.798732
20
397.558175
11
280.221763
21
396.563300
0
LINE
8
Layer 1
10
280.221763
20
396.563300
11
280.059944
21
395.424665
0
LINE
8
Layer 1
10
280.059944
20
395.424665
11
280.357940
21
394.271240
0
LINE
8
Layer 1
10
280.357940
20
394.271240
11
281.080089
21
393.323782
0
LINE
8
Layer 1
10
281.080089
20
393.323782
11
282.074961
21
392.746814
0
LINE
8
Layer 1
10
282.074961
20
392.746814
11
283.213588
21
392.584999
0
LINE
8
Layer 1
10
283.213588
20
392.584999
11
284.367000
21
392.883000
0
LINE
8
Layer 1
10
284.367000
20
392.883000
11
284.367000
21
392.883000
0
LINE
8
Layer 1
10
272.789000
20
278.197000
11
273.362638
21
278.175829
0
LINE
8
Layer 1
10
273.362638
20
278.175829
11
273.783230
21
278.566476
0
LINE
8
Layer 1
10
273.783230
20
278.566476
11
273.804372
21
279.140118
0
LINE
8
Layer 1
10
273.804372
20
279.140118
11
273.413750
21
279.560706
0
LINE
8
Layer 1
10
273.413750
20
279.560706
11
272.840109
21
279.581878
0
LINE
8
Layer 1
10
272.840109
20
279.581878
11
272.419520
21
279.191230
0
LINE
8
Layer 1
10
272.419520
20
279.191230
11
272.398385
21
278.617589
0
LINE
8
Layer 1
10
272.398385
20
278.617589
11
272.789000
21
278.197000
0
LINE
8
Layer 1
10
272.789000
20
278.197000
11
272.789000
21
278.197000
0
LINE
8
Layer 1
10
283.976000
20
302.617000
11
284.549641
21
302.595829
0
LINE
8
Layer 1
10
284.549641
20
302.595829
11
284.970230
21
302.986476
0
LINE
8
Layer 1
10
284.970230
20
302.986476
11
284.991376
21
303.560118
0
LINE
8
Layer 1
10
284.991376
20
303.560118
11
284.600750
21
303.980707
0
LINE
8
Layer 1
10
284.600750
20
303.980707
11
284.027113
21
304.001878
0
LINE
8
Layer 1
10
284.027113
20
304.001878
11
283.606520
21
303.611230
0
LINE
8
Layer 1
10
283.606520
20
303.611230
11
283.585389
21
303.037589
0
LINE
8
Layer 1
10
283.585389
20
303.037589
11
283.976000
21
302.617000
0
LINE
8
Layer 1
10
283.976000
20
302.617000
11
283.976000
21
302.617000
0
LINE
8
Layer 1
10
287.002000
20
324.603000
11
288.161820
21
324.330963
0
LINE
8
Layer 1
10
288.161820
20
324.330963
11
289.296528
21
324.518300
0
LINE
8
Layer 1
10
289.296528
20
324.518300
11
290.278194
21
325.117463
0
LINE
8
Layer 1
10
290.278194
20
325.117463
11
290.978890
21
326.080900
0
LINE
8
Layer 1
10
290.978890
20
326.080900
11
291.250910
21
327.240724
0
LINE
8
Layer 1
10
291.250910
20
327.240724
11
291.063571
21
328.375439
0
LINE
8
Layer 1
10
291.063571
20
328.375439
11
290.464409
21
329.357107
0
LINE
8
Layer 1
10
290.464409
20
329.357107
11
289.500960
21
330.057790
0
LINE
8
Layer 1
10
289.500960
20
330.057790
11
288.341136
21
330.329810
0
LINE
8
Layer 1
10
288.341136
20
330.329810
11
287.206428
21
330.142471
0
LINE
8
Layer 1
10
287.206428
20
330.142471
11
286.224760
21
329.543309
0
LINE
8
Layer 1
10
286.224760
20
329.543309
11
285.524060
21
328.579860
0
LINE
8
Layer 1
10
285.524060
20
328.579860
11
285.252040
21
327.420049
0
LINE
8
Layer 1
10
285.252040
20
327.420049
11
285.439380
21
326.285344
0
LINE
8
Layer 1
10
285.439380
20
326.285344
11
286.038545
21
325.303681
0
LINE
8
Layer 1
10
286.038545
20
325.303681
11
287.002000
21
324.603000
0
LINE
8
Layer 1
10
287.002000
20
324.603000
11
287.002000
21
324.603000
0
LINE
8
Layer 1
10
256.240000
20
257.456000
11
257.399815
21
257.183981
0
LINE
8
Layer 1
10
257.399815
20
257.183981
11
258.534531
21
257.371325
0
LINE
8
Layer 1
10
258.534531
20
257.371325
11
259.516204
21
257.970489
0
LINE
8
Layer 1
10
259.516204
20
257.970489
11
260.216890
21
258.933930
0
LINE
8
Layer 1
10
260.216890
20
258.933930
11
260.488914
21
260.093741
0
LINE
8
Layer 1
10
260.488914
20
260.093741
11
260.301575
21
261.228458
0
LINE
8
Layer 1
10
260.301575
20
261.228458
11
259.702411
21
262.210133
0
LINE
8
Layer 1
10
259.702411
20
262.210133
11
258.738960
21
262.910820
0
LINE
8
Layer 1
10
258.738960
20
262.910820
11
257.579149
21
263.182851
0
LINE
8
Layer 1
10
257.579149
20
263.182851
11
256.444433
21
262.995510
0
LINE
8
Layer 1
10
256.444433
20
262.995510
11
255.462758
21
262.396348
0
LINE
8
Layer 1
10
255.462758
20
262.396348
11
254.762070
21
261.432920
0
LINE
8
Layer 1
10
254.762070
20
261.432920
11
254.490050
21
260.273091
0
LINE
8
Layer 1
10
254.490050
20
260.273091
11
254.677389
21
259.138366
0
LINE
8
Layer 1
10
254.677389
20
259.138366
11
255.276551
21
258.156688
0
LINE
8
Layer 1
10
255.276551
20
258.156688
11
256.240000
21
257.456000
0
LINE
8
Layer 1
10
256.240000
20
257.456000
11
256.240000
21
257.456000
0
LINE
8
Layer 1
10
280.424000
20
339.244000
11
295.855500
21
340.698950
0
LINE
8
Layer 1
10
252.332000
20
245.694000
11
257.875208
21
249.915426
0
LINE
8
Layer 1
10
257.875208
20
249.915426
11
263.084741
21
254.458958
0
LINE
8
Layer 1
10
263.084741
20
254.458958
11
267.951444
21
259.304612
0
LINE
8
Layer 1
10
267.951444
20
259.304612
11
272.466164
21
264.432405
0
LINE
8
Layer 1
10
272.466164
20
264.432405
11
276.619745
21
269.822352
0
LINE
8
Layer 1
10
276.619745
20
269.822352
11
280.403033
21
275.454471
0
LINE
8
Layer 1
10
280.403033
20
275.454471
11
283.806874
21
281.308777
0
LINE
8
Layer 1
10
283.806874
20
281.308777
11
286.822113
21
287.365288
0
LINE
8
Layer 1
10
286.822113
20
287.365288
11
289.439594
21
293.604019
0
LINE
8
Layer 1
10
289.439594
20
293.604019
11
291.650165
21
300.004987
0
LINE
8
Layer 1
10
291.650165
20
300.004987
11
293.444670
21
306.548209
0
LINE
8
Layer 1
10
293.444670
20
306.548209
11
294.813955
21
313.213702
0
LINE
8
Layer 1
10
294.813955
20
313.213702
11
295.748865
21
319.981480
0
LINE
8
Layer 1
10
295.748865
20
319.981480
11
296.240245
21
326.831562
0
LINE
8
Layer 1
10
296.240245
20
326.831562
11
296.278942
21
333.743963
0
LINE
8
Layer 1
10
296.278942
20
333.743963
11
295.855800
21
340.698700
0
LINE
8
Layer 1
10
243.356000
20
258.331000
11
252.332000
21
245.694700
0
LINE
8
Layer 1
10
243.356000
20
258.331000
11
248.076997
21
261.926276
0
LINE
8
Layer 1
10
248.076997
20
261.926276
11
252.513815
21
265.795881
0
LINE
8
Layer 1
10
252.513815
20
265.795881
11
256.658657
21
269.922797
0
LINE
8
Layer 1
10
256.658657
20
269.922797
11
260.503725
21
274.290003
0
LINE
8
Layer 1
10
260.503725
20
274.290003
11
264.041223
21
278.880481
0
LINE
8
Layer 1
10
264.041223
20
278.880481
11
267.263354
21
283.677211
0
LINE
8
Layer 1
10
267.263354
20
283.677211
11
270.162320
21
288.663174
0
LINE
8
Layer 1
10
270.162320
20
288.663174
11
272.730325
21
293.821350
0
LINE
8
Layer 1
10
272.730325
20
293.821350
11
274.959571
21
299.134720
0
LINE
8
Layer 1
10
274.959571
20
299.134720
11
276.842262
21
304.586264
0
LINE
8
Layer 1
10
276.842262
20
304.586264
11
278.370600
21
310.158963
0
LINE
8
Layer 1
10
278.370600
20
310.158963
11
279.536788
21
315.835797
0
LINE
8
Layer 1
10
279.536788
20
315.835797
11
280.333029
21
321.599747
0
LINE
8
Layer 1
10
280.333029
20
321.599747
11
280.751526
21
327.433794
0
LINE
8
Layer 1
10
280.751526
20
327.433794
11
280.784482
21
333.320918
0
LINE
8
Layer 1
10
280.784482
20
333.320918
11
280.424100
21
339.244100
0
LINE
8
Layer 1
10
278.299000
20
287.970000
11
279.458807
21
287.697981
0
LINE
8
Layer 1
10
279.458807
20
287.697981
11
280.593512
21
287.885325
0
LINE
8
Layer 1
10
280.593512
20
287.885325
11
281.575177
21
288.484489
0
LINE
8
Layer 1
10
281.575177
20
288.484489
11
282.275860
21
289.447930
0
LINE
8
Layer 1
10
282.275860
20
289.447930
11
282.547893
21
290.607750
0
LINE
8
Layer 1
10
282.547893
20
290.607750
11
282.360556
21
291.742458
0
LINE
8
Layer 1
10
282.360556
20
291.742458
11
281.761396
21
292.724124
0
LINE
8
Layer 1
10
281.761396
20
292.724124
11
280.797960
21
293.424820
0
LINE
8
Layer 1
10
280.797960
20
293.424820
11
279.638136
21
293.696838
0
LINE
8
Layer 1
10
279.638136
20
293.696838
11
278.503429
21
293.509494
0
LINE
8
Layer 1
10
278.503429
20
293.509494
11
277.521765
21
292.910331
0
LINE
8
Layer 1
10
277.521765
20
292.910331
11
276.821070
21
291.946890
0
LINE
8
Layer 1
10
276.821070
20
291.946890
11
276.549046
21
290.787070
0
LINE
8
Layer 1
10
276.549046
20
290.787070
11
276.736385
21
289.652363
0
LINE
8
Layer 1
10
276.736385
20
289.652363
11
277.335549
21
288.670696
0
LINE
8
Layer 1
10
277.335549
20
288.670696
11
278.299000
21
287.970000
0
LINE
8
Layer 1
10
278.299000
20
287.970000
11
278.299000
21
287.970000
 0 
ENDSEC
 0 
EOF