999
"DXF R12 Output" (www.mydxf.blogspot.com)
 0 
SECTION
 2 
HEADER
 9 
$ACADVER
 1 
AC1009
 9 
$EXTMIN
 10 
 0 
 20 
 0 
 9 
$EXTMAX
 10 
 8.5 
 20 
 11 
 0 
ENDSEC
 0 
SECTION
 2 
ENTITIES
0
LINE
8
Layer 1
10
95.118200
20
254.001000
11
92.618200
21
254.001000
0
LINE
8
Layer 1
10
92.618200
20
254.001000
11
92.618200
21
256.001000
0
LINE
8
Layer 1
10
92.618200
20
256.001000
11
108.118000
21
256.001000
0
LINE
8
Layer 1
10
108.118000
20
256.001000
11
108.118000
21
254.001000
0
LINE
8
Layer 1
10
108.118000
20
254.001000
11
105.618000
21
254.001000
0
LINE
8
Layer 1
10
105.618000
20
254.001000
11
105.618000
21
252.001000
0
LINE
8
Layer 1
10
105.618000
20
252.001000
11
108.118000
21
252.001000
0
LINE
8
Layer 1
10
108.118000
20
252.001000
11
108.118000
21
250.001000
0
LINE
8
Layer 1
10
108.118000
20
250.001000
11
105.618000
21
250.001000
0
LINE
8
Layer 1
10
105.618000
20
250.001000
11
105.618000
21
248.001000
0
LINE
8
Layer 1
10
105.618000
20
248.001000
11
108.118000
21
248.001000
0
LINE
8
Layer 1
10
108.118000
20
248.001000
11
108.118000
21
246.001000
0
LINE
8
Layer 1
10
108.118000
20
246.001000
11
92.618200
21
246.001000
0
LINE
8
Layer 1
10
92.618200
20
246.001000
11
92.618200
21
248.001000
0
LINE
8
Layer 1
10
92.618200
20
248.001000
11
95.118200
21
248.001000
0
LINE
8
Layer 1
10
95.118200
20
248.001000
11
95.118200
21
250.001000
0
LINE
8
Layer 1
10
95.118200
20
250.001000
11
92.618200
21
250.001000
0
LINE
8
Layer 1
10
92.618200
20
250.001000
11
92.618200
21
252.001000
0
LINE
8
Layer 1
10
92.618200
20
252.001000
11
95.118200
21
252.001000
0
LINE
8
Layer 1
10
95.118200
20
252.001000
11
95.118200
21
254.001000
0
LINE
8
Layer 1
10
95.118200
20
254.001000
11
95.118200
21
254.001000
0
LINE
8
Layer 1
10
100.078000
20
245.091000
11
100.078000
21
234.591000
0
LINE
8
Layer 1
10
100.078000
20
234.591000
11
94.078100
21
234.591000
0
LINE
8
Layer 1
10
94.078100
20
234.591000
11
94.078100
21
236.691000
0
LINE
8
Layer 1
10
94.078100
20
236.691000
11
91.578100
21
236.691000
0
LINE
8
Layer 1
10
91.578100
20
236.691000
11
91.578100
21
238.791000
0
LINE
8
Layer 1
10
91.578100
20
238.791000
11
94.078100
21
238.791000
0
LINE
8
Layer 1
10
94.078100
20
238.791000
11
94.078100
21
240.891000
0
LINE
8
Layer 1
10
94.078100
20
240.891000
11
91.578100
21
240.891000
0
LINE
8
Layer 1
10
91.578100
20
240.891000
11
91.578100
21
242.991000
0
LINE
8
Layer 1
10
91.578100
20
242.991000
11
94.078100
21
242.991000
0
LINE
8
Layer 1
10
94.078100
20
242.991000
11
94.078100
21
245.091000
0
LINE
8
Layer 1
10
94.078100
20
245.091000
11
100.078000
21
245.091000
0
LINE
8
Layer 1
10
100.078000
20
245.091000
11
100.078000
21
245.091000
0
LINE
8
Layer 1
10
101.328000
20
230.001000
11
98.828200
21
230.001000
0
LINE
8
Layer 1
10
98.828200
20
230.001000
11
98.828200
21
228.001000
0
LINE
8
Layer 1
10
98.828200
20
228.001000
11
101.328000
21
228.001000
0
LINE
8
Layer 1
10
101.328000
20
228.001000
11
101.328000
21
226.001000
0
LINE
8
Layer 1
10
101.328000
20
226.001000
11
98.828200
21
226.001000
0
LINE
8
Layer 1
10
98.828200
20
226.001000
11
98.828200
21
224.001000
0
LINE
8
Layer 1
10
98.828200
20
224.001000
11
95.328200
21
224.001000
0
LINE
8
Layer 1
10
95.328200
20
224.001000
11
95.328200
21
226.001000
0
LINE
8
Layer 1
10
95.328200
20
226.001000
11
92.828200
21
226.001000
0
LINE
8
Layer 1
10
92.828200
20
226.001000
11
92.828200
21
228.001000
0
LINE
8
Layer 1
10
92.828200
20
228.001000
11
95.328200
21
228.001000
0
LINE
8
Layer 1
10
95.328200
20
228.001000
11
95.328200
21
230.001000
0
LINE
8
Layer 1
10
95.328200
20
230.001000
11
92.828200
21
230.001000
0
LINE
8
Layer 1
10
92.828200
20
230.001000
11
92.828200
21
232.001000
0
LINE
8
Layer 1
10
92.828200
20
232.001000
11
95.328200
21
232.001000
0
LINE
8
Layer 1
10
95.328200
20
232.001000
11
95.328200
21
234.001000
0
LINE
8
Layer 1
10
95.328200
20
234.001000
11
98.828200
21
234.001000
0
LINE
8
Layer 1
10
98.828200
20
234.001000
11
98.828200
21
232.001000
0
LINE
8
Layer 1
10
98.828200
20
232.001000
11
101.328000
21
232.001000
0
LINE
8
Layer 1
10
101.328000
20
232.001000
11
101.328000
21
230.001000
0
LINE
8
Layer 1
10
101.328000
20
230.001000
11
101.328000
21
230.001000
0
LINE
8
Layer 1
10
101.328000
20
221.001000
11
98.828200
21
221.001000
0
LINE
8
Layer 1
10
98.828200
20
221.001000
11
98.828200
21
223.001000
0
LINE
8
Layer 1
10
98.828200
20
223.001000
11
95.328200
21
223.001000
0
LINE
8
Layer 1
10
95.328200
20
223.001000
11
95.328200
21
221.001000
0
LINE
8
Layer 1
10
95.328200
20
221.001000
11
92.828200
21
221.001000
0
LINE
8
Layer 1
10
92.828200
20
221.001000
11
92.828200
21
219.001000
0
LINE
8
Layer 1
10
92.828200
20
219.001000
11
95.328200
21
219.001000
0
LINE
8
Layer 1
10
95.328200
20
219.001000
11
95.328200
21
217.001000
0
LINE
8
Layer 1
10
95.328200
20
217.001000
11
92.828200
21
217.001000
0
LINE
8
Layer 1
10
92.828200
20
217.001000
11
92.828200
21
215.001000
0
LINE
8
Layer 1
10
92.828200
20
215.001000
11
95.328200
21
215.001000
0
LINE
8
Layer 1
10
95.328200
20
215.001000
11
95.328200
21
213.001000
0
LINE
8
Layer 1
10
95.328200
20
213.001000
11
98.828200
21
213.001000
0
LINE
8
Layer 1
10
98.828200
20
213.001000
11
98.828200
21
215.001000
0
LINE
8
Layer 1
10
98.828200
20
215.001000
11
101.328000
21
215.001000
0
LINE
8
Layer 1
10
101.328000
20
215.001000
11
101.328000
21
217.001000
0
LINE
8
Layer 1
10
101.328000
20
217.001000
11
98.828200
21
217.001000
0
LINE
8
Layer 1
10
98.828200
20
217.001000
11
98.828200
21
219.001000
0
LINE
8
Layer 1
10
98.828200
20
219.001000
11
101.328000
21
219.001000
0
LINE
8
Layer 1
10
101.328000
20
219.001000
11
101.328000
21
221.001000
0
LINE
8
Layer 1
10
101.328000
20
221.001000
11
101.328000
21
221.001000
0
LINE
8
Layer 1
10
88.200100
20
245.278000
11
89.000100
21
245.278000
0
LINE
8
Layer 1
10
89.000100
20
245.278000
11
89.000100
21
247.078000
0
LINE
8
Layer 1
10
89.000100
20
247.078000
11
88.200100
21
247.078000
0
LINE
8
Layer 1
10
88.200100
20
247.078000
11
88.200100
21
245.278000
0
LINE
8
Layer 1
10
88.200100
20
245.278000
11
88.200100
21
245.278000
0
LINE
8
Layer 1
10
63.975100
20
253.928000
11
61.975100
21
253.928000
0
LINE
8
Layer 1
10
61.975100
20
253.928000
11
61.975100
21
251.428000
0
LINE
8
Layer 1
10
61.975100
20
251.428000
11
63.975100
21
251.428000
0
LINE
8
Layer 1
10
63.975100
20
251.428000
11
63.975100
21
253.928000
0
LINE
8
Layer 1
10
63.975100
20
253.928000
11
63.975100
21
253.928000
0
LINE
8
Layer 1
10
55.975100
20
249.328000
11
53.475100
21
249.328000
0
LINE
8
Layer 1
10
53.475100
20
249.328000
11
53.475100
21
247.228000
0
LINE
8
Layer 1
10
53.475100
20
247.228000
11
55.975100
21
247.228000
0
LINE
8
Layer 1
10
55.975100
20
247.228000
11
55.975100
21
249.328000
0
LINE
8
Layer 1
10
55.975100
20
249.328000
11
55.975100
21
249.328000
0
LINE
8
Layer 1
10
48.800100
20
245.278000
11
48.000100
21
245.278000
0
LINE
8
Layer 1
10
48.000100
20
245.278000
11
48.000100
21
247.078000
0
LINE
8
Layer 1
10
48.000100
20
247.078000
11
48.800100
21
247.078000
0
LINE
8
Layer 1
10
48.800100
20
247.078000
11
48.800100
21
245.278000
0
LINE
8
Layer 1
10
48.800100
20
245.278000
11
48.800100
21
245.278000
0
LINE
8
Layer 1
10
65.975100
20
240.928000
11
65.975100
21
238.428000
0
LINE
8
Layer 1
10
65.975100
20
238.428000
11
67.975100
21
238.428000
0
LINE
8
Layer 1
10
67.975100
20
238.428000
11
67.975100
21
240.928000
0
LINE
8
Layer 1
10
67.975100
20
240.928000
11
65.975100
21
240.928000
0
LINE
8
Layer 1
10
65.975100
20
240.928000
11
65.975100
21
240.928000
0
LINE
8
Layer 1
10
55.975100
20
245.128000
11
53.475100
21
245.128000
0
LINE
8
Layer 1
10
53.475100
20
245.128000
11
53.475100
21
243.028000
0
LINE
8
Layer 1
10
53.475100
20
243.028000
11
55.975100
21
243.028000
0
LINE
8
Layer 1
10
55.975100
20
243.028000
11
55.975100
21
245.128000
0
LINE
8
Layer 1
10
55.975100
20
245.128000
11
55.975100
21
245.128000
0
LINE
8
Layer 1
10
83.000100
20
255.428000
11
84.410846
21
255.285785
0
LINE
8
Layer 1
10
84.410846
20
255.285785
11
85.724819
21
254.877906
0
LINE
8
Layer 1
10
85.724819
20
254.877906
11
86.913870
21
254.232512
0
LINE
8
Layer 1
10
86.913870
20
254.232512
11
87.949850
21
253.377750
0
LINE
8
Layer 1
10
87.949850
20
253.377750
11
88.804612
21
252.341770
0
LINE
8
Layer 1
10
88.804612
20
252.341770
11
89.450006
21
251.152719
0
LINE
8
Layer 1
10
89.450006
20
251.152719
11
89.857885
21
249.838746
0
LINE
8
Layer 1
10
89.857885
20
249.838746
11
90.000100
21
248.428000
0
LINE
8
Layer 1
10
90.000100
20
248.428000
11
90.000100
21
243.928000
0
LINE
8
Layer 1
10
90.000100
20
243.928000
11
89.857885
21
242.517254
0
LINE
8
Layer 1
10
89.857885
20
242.517254
11
89.450006
21
241.203281
0
LINE
8
Layer 1
10
89.450006
20
241.203281
11
88.804612
21
240.014230
0
LINE
8
Layer 1
10
88.804612
20
240.014230
11
87.949850
21
238.978250
0
LINE
8
Layer 1
10
87.949850
20
238.978250
11
86.913870
21
238.123488
0
LINE
8
Layer 1
10
86.913870
20
238.123488
11
85.724819
21
237.478094
0
LINE
8
Layer 1
10
85.724819
20
237.478094
11
84.410846
21
237.070215
0
LINE
8
Layer 1
10
84.410846
20
237.070215
11
83.000100
21
236.928000
0
LINE
8
Layer 1
10
83.000100
20
236.928000
11
47.000100
21
236.928000
0
LINE
8
Layer 1
10
47.000100
20
236.928000
11
45.589354
21
237.070215
0
LINE
8
Layer 1
10
45.589354
20
237.070215
11
44.275381
21
237.478094
0
LINE
8
Layer 1
10
44.275381
20
237.478094
11
43.086330
21
238.123488
0
LINE
8
Layer 1
10
43.086330
20
238.123488
11
42.050350
21
238.978250
0
LINE
8
Layer 1
10
42.050350
20
238.978250
11
41.195588
21
240.014230
0
LINE
8
Layer 1
10
41.195588
20
240.014230
11
40.550194
21
241.203281
0
LINE
8
Layer 1
10
40.550194
20
241.203281
11
40.142315
21
242.517254
0
LINE
8
Layer 1
10
40.142315
20
242.517254
11
40.000100
21
243.928000
0
LINE
8
Layer 1
10
40.000100
20
243.928000
11
40.000100
21
248.428000
0
LINE
8
Layer 1
10
40.000100
20
248.428000
11
40.142315
21
249.838746
0
LINE
8
Layer 1
10
40.142315
20
249.838746
11
40.550194
21
251.152719
0
LINE
8
Layer 1
10
40.550194
20
251.152719
11
41.195588
21
252.341770
0
LINE
8
Layer 1
10
41.195588
20
252.341770
11
42.050350
21
253.377750
0
LINE
8
Layer 1
10
42.050350
20
253.377750
11
43.086330
21
254.232512
0
LINE
8
Layer 1
10
43.086330
20
254.232512
11
44.275381
21
254.877906
0
LINE
8
Layer 1
10
44.275381
20
254.877906
11
45.589354
21
255.285785
0
LINE
8
Layer 1
10
45.589354
20
255.285785
11
47.000100
21
255.428000
0
LINE
8
Layer 1
10
47.000100
20
255.428000
11
83.000100
21
255.428000
0
LINE
8
Layer 1
10
83.000100
20
255.428000
11
83.000100
21
255.428000
0
LINE
8
Layer 1
10
41.800100
20
245.278000
11
41.800100
21
247.078000
0
LINE
8
Layer 1
10
41.800100
20
247.078000
11
41.000100
21
247.078000
0
LINE
8
Layer 1
10
41.000100
20
247.078000
11
41.000100
21
245.278000
0
LINE
8
Layer 1
10
41.000100
20
245.278000
11
41.800100
21
245.278000
0
LINE
8
Layer 1
10
41.800100
20
245.278000
11
41.800100
21
245.278000
0
LINE
8
Layer 1
10
67.975100
20
251.428000
11
67.975100
21
253.928000
0
LINE
8
Layer 1
10
67.975100
20
253.928000
11
65.975100
21
253.928000
0
LINE
8
Layer 1
10
65.975100
20
253.928000
11
65.975100
21
251.428000
0
LINE
8
Layer 1
10
65.975100
20
251.428000
11
67.975100
21
251.428000
0
LINE
8
Layer 1
10
67.975100
20
251.428000
11
67.975100
21
251.428000
0
LINE
8
Layer 1
10
61.975100
20
240.928000
11
61.975100
21
238.428000
0
LINE
8
Layer 1
10
61.975100
20
238.428000
11
63.975100
21
238.428000
0
LINE
8
Layer 1
10
63.975100
20
238.428000
11
63.975100
21
240.928000
0
LINE
8
Layer 1
10
63.975100
20
240.928000
11
61.975100
21
240.928000
0
LINE
8
Layer 1
10
61.975100
20
240.928000
11
61.975100
21
240.928000
0
LINE
8
Layer 1
10
81.200100
20
245.278000
11
82.000100
21
245.278000
0
LINE
8
Layer 1
10
82.000100
20
245.278000
11
82.000100
21
247.078000
0
LINE
8
Layer 1
10
82.000100
20
247.078000
11
81.200100
21
247.078000
0
LINE
8
Layer 1
10
81.200100
20
247.078000
11
81.200100
21
245.278000
0
LINE
8
Layer 1
10
81.200100
20
245.278000
11
81.200100
21
245.278000
0
LINE
8
Layer 1
10
82.599600
20
223.500000
11
82.599600
21
221.700000
0
LINE
8
Layer 1
10
82.599600
20
221.700000
11
81.799600
21
221.700000
0
LINE
8
Layer 1
10
81.799600
20
221.700000
11
81.799600
21
223.500000
0
LINE
8
Layer 1
10
81.799600
20
223.500000
11
82.599600
21
223.500000
0
LINE
8
Layer 1
10
82.599600
20
223.500000
11
82.599600
21
223.500000
0
LINE
8
Layer 1
10
47.599600
20
231.850000
11
46.188854
21
231.707785
0
LINE
8
Layer 1
10
46.188854
20
231.707785
11
44.874881
21
231.299906
0
LINE
8
Layer 1
10
44.874881
20
231.299906
11
43.685830
21
230.654512
0
LINE
8
Layer 1
10
43.685830
20
230.654512
11
42.649850
21
229.799750
0
LINE
8
Layer 1
10
42.649850
20
229.799750
11
41.795088
21
228.763770
0
LINE
8
Layer 1
10
41.795088
20
228.763770
11
41.149694
21
227.574719
0
LINE
8
Layer 1
10
41.149694
20
227.574719
11
40.741815
21
226.260746
0
LINE
8
Layer 1
10
40.741815
20
226.260746
11
40.599600
21
224.850000
0
LINE
8
Layer 1
10
40.599600
20
224.850000
11
40.599600
21
220.350000
0
LINE
8
Layer 1
10
40.599600
20
220.350000
11
40.741815
21
218.939254
0
LINE
8
Layer 1
10
40.741815
20
218.939254
11
41.149694
21
217.625281
0
LINE
8
Layer 1
10
41.149694
20
217.625281
11
41.795088
21
216.436230
0
LINE
8
Layer 1
10
41.795088
20
216.436230
11
42.649850
21
215.400250
0
LINE
8
Layer 1
10
42.649850
20
215.400250
11
43.685830
21
214.545488
0
LINE
8
Layer 1
10
43.685830
20
214.545488
11
44.874881
21
213.900094
0
LINE
8
Layer 1
10
44.874881
20
213.900094
11
46.188854
21
213.492215
0
LINE
8
Layer 1
10
46.188854
20
213.492215
11
47.599600
21
213.350000
0
LINE
8
Layer 1
10
47.599600
20
213.350000
11
83.599600
21
213.350000
0
LINE
8
Layer 1
10
89.599600
20
223.500000
11
89.599600
21
221.700000
0
LINE
8
Layer 1
10
89.599600
20
221.700000
11
88.799600
21
221.700000
0
LINE
8
Layer 1
10
88.799600
20
221.700000
11
88.799600
21
223.500000
0
LINE
8
Layer 1
10
88.799600
20
223.500000
11
89.599600
21
223.500000
0
LINE
8
Layer 1
10
89.599600
20
223.500000
11
89.599600
21
223.500000
0
LINE
8
Layer 1
10
83.599600
20
231.850000
11
47.599600
21
231.850000
0
LINE
8
Layer 1
10
90.599600
20
224.850000
11
90.457385
21
226.260746
0
LINE
8
Layer 1
10
90.457385
20
226.260746
11
90.049506
21
227.574719
0
LINE
8
Layer 1
10
90.049506
20
227.574719
11
89.404112
21
228.763770
0
LINE
8
Layer 1
10
89.404112
20
228.763770
11
88.549350
21
229.799750
0
LINE
8
Layer 1
10
88.549350
20
229.799750
11
87.513370
21
230.654512
0
LINE
8
Layer 1
10
87.513370
20
230.654512
11
86.324319
21
231.299906
0
LINE
8
Layer 1
10
86.324319
20
231.299906
11
85.010346
21
231.707785
0
LINE
8
Layer 1
10
85.010346
20
231.707785
11
83.599600
21
231.850000
0
LINE
8
Layer 1
10
41.599600
20
223.500000
11
42.399600
21
223.500000
0
LINE
8
Layer 1
10
42.399600
20
223.500000
11
42.399600
21
221.700000
0
LINE
8
Layer 1
10
42.399600
20
221.700000
11
41.599600
21
221.700000
0
LINE
8
Layer 1
10
41.599600
20
221.700000
11
41.599600
21
223.500000
0
LINE
8
Layer 1
10
41.599600
20
223.500000
11
41.599600
21
223.500000
0
LINE
8
Layer 1
10
49.399600
20
223.500000
11
49.399600
21
221.700000
0
LINE
8
Layer 1
10
49.399600
20
221.700000
11
48.599600
21
221.700000
0
LINE
8
Layer 1
10
48.599600
20
221.700000
11
48.599600
21
223.500000
0
LINE
8
Layer 1
10
48.599600
20
223.500000
11
49.399600
21
223.500000
0
LINE
8
Layer 1
10
49.399600
20
223.500000
11
49.399600
21
223.500000
0
LINE
8
Layer 1
10
90.599600
20
224.850000
11
90.599600
21
220.350000
0
LINE
8
Layer 1
10
90.599600
20
220.350000
11
90.457385
21
218.939254
0
LINE
8
Layer 1
10
90.457385
20
218.939254
11
90.049506
21
217.625281
0
LINE
8
Layer 1
10
90.049506
20
217.625281
11
89.404112
21
216.436230
0
LINE
8
Layer 1
10
89.404112
20
216.436230
11
88.549350
21
215.400250
0
LINE
8
Layer 1
10
88.549350
20
215.400250
11
87.513370
21
214.545488
0
LINE
8
Layer 1
10
87.513370
20
214.545488
11
86.324319
21
213.900094
0
LINE
8
Layer 1
10
86.324319
20
213.900094
11
85.010346
21
213.492215
0
LINE
8
Layer 1
10
85.010346
20
213.492215
11
83.599600
21
213.350000
0
LINE
8
Layer 1
10
100.118000
20
299.001000
11
97.618100
21
299.001000
0
LINE
8
Layer 1
10
97.618100
20
299.001000
11
97.618100
21
301.001000
0
LINE
8
Layer 1
10
97.618100
20
301.001000
11
113.118000
21
301.001000
0
LINE
8
Layer 1
10
113.118000
20
301.001000
11
113.118000
21
299.001000
0
LINE
8
Layer 1
10
113.118000
20
299.001000
11
110.618000
21
299.001000
0
LINE
8
Layer 1
10
110.618000
20
299.001000
11
110.618000
21
297.001000
0
LINE
8
Layer 1
10
110.618000
20
297.001000
11
113.118000
21
297.001000
0
LINE
8
Layer 1
10
113.118000
20
297.001000
11
113.118000
21
295.001000
0
LINE
8
Layer 1
10
113.118000
20
295.001000
11
110.618000
21
295.001000
0
LINE
8
Layer 1
10
110.618000
20
295.001000
11
110.618000
21
293.001000
0
LINE
8
Layer 1
10
110.618000
20
293.001000
11
113.118000
21
293.001000
0
LINE
8
Layer 1
10
113.118000
20
293.001000
11
113.118000
21
291.001000
0
LINE
8
Layer 1
10
113.118000
20
291.001000
11
97.618100
21
291.001000
0
LINE
8
Layer 1
10
97.618100
20
291.001000
11
97.618100
21
293.001000
0
LINE
8
Layer 1
10
97.618100
20
293.001000
11
100.118000
21
293.001000
0
LINE
8
Layer 1
10
100.118000
20
293.001000
11
100.118000
21
295.001000
0
LINE
8
Layer 1
10
100.118000
20
295.001000
11
97.618100
21
295.001000
0
LINE
8
Layer 1
10
97.618100
20
295.001000
11
97.618100
21
297.001000
0
LINE
8
Layer 1
10
97.618100
20
297.001000
11
100.118000
21
297.001000
0
LINE
8
Layer 1
10
100.118000
20
297.001000
11
100.118000
21
299.001000
0
LINE
8
Layer 1
10
100.118000
20
299.001000
11
100.118000
21
299.001000
0
LINE
8
Layer 1
10
105.078000
20
290.091000
11
105.078000
21
279.591000
0
LINE
8
Layer 1
10
105.078000
20
279.591000
11
99.078200
21
279.591000
0
LINE
8
Layer 1
10
99.078200
20
279.591000
11
99.078200
21
281.691000
0
LINE
8
Layer 1
10
99.078200
20
281.691000
11
96.578200
21
281.691000
0
LINE
8
Layer 1
10
96.578200
20
281.691000
11
96.578200
21
283.791000
0
LINE
8
Layer 1
10
96.578200
20
283.791000
11
99.078200
21
283.791000
0
LINE
8
Layer 1
10
99.078200
20
283.791000
11
99.078200
21
285.891000
0
LINE
8
Layer 1
10
99.078200
20
285.891000
11
96.578200
21
285.891000
0
LINE
8
Layer 1
10
96.578200
20
285.891000
11
96.578200
21
287.991000
0
LINE
8
Layer 1
10
96.578200
20
287.991000
11
99.078200
21
287.991000
0
LINE
8
Layer 1
10
99.078200
20
287.991000
11
99.078200
21
290.091000
0
LINE
8
Layer 1
10
99.078200
20
290.091000
11
105.078000
21
290.091000
0
LINE
8
Layer 1
10
105.078000
20
290.091000
11
105.078000
21
290.091000
0
LINE
8
Layer 1
10
106.328000
20
275.001000
11
103.828000
21
275.001000
0
LINE
8
Layer 1
10
103.828000
20
275.001000
11
103.828000
21
273.001000
0
LINE
8
Layer 1
10
103.828000
20
273.001000
11
106.328000
21
273.001000
0
LINE
8
Layer 1
10
106.328000
20
273.001000
11
106.328000
21
271.001000
0
LINE
8
Layer 1
10
106.328000
20
271.001000
11
103.828000
21
271.001000
0
LINE
8
Layer 1
10
103.828000
20
271.001000
11
103.828000
21
269.001000
0
LINE
8
Layer 1
10
103.828000
20
269.001000
11
100.328000
21
269.001000
0
LINE
8
Layer 1
10
100.328000
20
269.001000
11
100.328000
21
271.001000
0
LINE
8
Layer 1
10
100.328000
20
271.001000
11
97.828200
21
271.001000
0
LINE
8
Layer 1
10
97.828200
20
271.001000
11
97.828200
21
273.001000
0
LINE
8
Layer 1
10
97.828200
20
273.001000
11
100.328000
21
273.001000
0
LINE
8
Layer 1
10
100.328000
20
273.001000
11
100.328000
21
275.001000
0
LINE
8
Layer 1
10
100.328000
20
275.001000
11
97.828200
21
275.001000
0
LINE
8
Layer 1
10
97.828200
20
275.001000
11
97.828200
21
277.001000
0
LINE
8
Layer 1
10
97.828200
20
277.001000
11
100.328000
21
277.001000
0
LINE
8
Layer 1
10
100.328000
20
277.001000
11
100.328000
21
279.001000
0
LINE
8
Layer 1
10
100.328000
20
279.001000
11
103.828000
21
279.001000
0
LINE
8
Layer 1
10
103.828000
20
279.001000
11
103.828000
21
277.001000
0
LINE
8
Layer 1
10
103.828000
20
277.001000
11
106.328000
21
277.001000
0
LINE
8
Layer 1
10
106.328000
20
277.001000
11
106.328000
21
275.001000
0
LINE
8
Layer 1
10
106.328000
20
275.001000
11
106.328000
21
275.001000
0
LINE
8
Layer 1
10
106.328000
20
266.001000
11
103.828000
21
266.001000
0
LINE
8
Layer 1
10
103.828000
20
266.001000
11
103.828000
21
268.001000
0
LINE
8
Layer 1
10
103.828000
20
268.001000
11
100.328000
21
268.001000
0
LINE
8
Layer 1
10
100.328000
20
268.001000
11
100.328000
21
266.001000
0
LINE
8
Layer 1
10
100.328000
20
266.001000
11
97.828200
21
266.001000
0
LINE
8
Layer 1
10
97.828200
20
266.001000
11
97.828200
21
264.001000
0
LINE
8
Layer 1
10
97.828200
20
264.001000
11
100.328000
21
264.001000
0
LINE
8
Layer 1
10
100.328000
20
264.001000
11
100.328000
21
262.001000
0
LINE
8
Layer 1
10
100.328000
20
262.001000
11
97.828200
21
262.001000
0
LINE
8
Layer 1
10
97.828200
20
262.001000
11
97.828200
21
260.001000
0
LINE
8
Layer 1
10
97.828200
20
260.001000
11
100.328000
21
260.001000
0
LINE
8
Layer 1
10
100.328000
20
260.001000
11
100.328000
21
258.001000
0
LINE
8
Layer 1
10
100.328000
20
258.001000
11
103.828000
21
258.001000
0
LINE
8
Layer 1
10
103.828000
20
258.001000
11
103.828000
21
260.001000
0
LINE
8
Layer 1
10
103.828000
20
260.001000
11
106.328000
21
260.001000
0
LINE
8
Layer 1
10
106.328000
20
260.001000
11
106.328000
21
262.001000
0
LINE
8
Layer 1
10
106.328000
20
262.001000
11
103.828000
21
262.001000
0
LINE
8
Layer 1
10
103.828000
20
262.001000
11
103.828000
21
264.001000
0
LINE
8
Layer 1
10
103.828000
20
264.001000
11
106.328000
21
264.001000
0
LINE
8
Layer 1
10
106.328000
20
264.001000
11
106.328000
21
266.001000
0
LINE
8
Layer 1
10
106.328000
20
266.001000
11
106.328000
21
266.001000
0
LINE
8
Layer 1
10
93.200100
20
290.278000
11
94.000100
21
290.278000
0
LINE
8
Layer 1
10
94.000100
20
290.278000
11
94.000100
21
292.078000
0
LINE
8
Layer 1
10
94.000100
20
292.078000
11
93.200100
21
292.078000
0
LINE
8
Layer 1
10
93.200100
20
292.078000
11
93.200100
21
290.278000
0
LINE
8
Layer 1
10
93.200100
20
290.278000
11
93.200100
21
290.278000
0
LINE
8
Layer 1
10
68.975100
20
298.928000
11
66.975100
21
298.928000
0
LINE
8
Layer 1
10
66.975100
20
298.928000
11
66.975100
21
296.428000
0
LINE
8
Layer 1
10
66.975100
20
296.428000
11
68.975100
21
296.428000
0
LINE
8
Layer 1
10
68.975100
20
296.428000
11
68.975100
21
298.928000
0
LINE
8
Layer 1
10
68.975100
20
298.928000
11
68.975100
21
298.928000
0
LINE
8
Layer 1
10
60.975100
20
294.328000
11
58.475100
21
294.328000
0
LINE
8
Layer 1
10
58.475100
20
294.328000
11
58.475100
21
292.228000
0
LINE
8
Layer 1
10
58.475100
20
292.228000
11
60.975100
21
292.228000
0
LINE
8
Layer 1
10
60.975100
20
292.228000
11
60.975100
21
294.328000
0
LINE
8
Layer 1
10
60.975100
20
294.328000
11
60.975100
21
294.328000
0
LINE
8
Layer 1
10
53.800100
20
290.278000
11
53.000100
21
290.278000
0
LINE
8
Layer 1
10
53.000100
20
290.278000
11
53.000100
21
292.078000
0
LINE
8
Layer 1
10
53.000100
20
292.078000
11
53.800100
21
292.078000
0
LINE
8
Layer 1
10
53.800100
20
292.078000
11
53.800100
21
290.278000
0
LINE
8
Layer 1
10
53.800100
20
290.278000
11
53.800100
21
290.278000
0
LINE
8
Layer 1
10
70.975100
20
285.928000
11
70.975100
21
283.428000
0
LINE
8
Layer 1
10
70.975100
20
283.428000
11
72.975100
21
283.428000
0
LINE
8
Layer 1
10
72.975100
20
283.428000
11
72.975100
21
285.928000
0
LINE
8
Layer 1
10
72.975100
20
285.928000
11
70.975100
21
285.928000
0
LINE
8
Layer 1
10
70.975100
20
285.928000
11
70.975100
21
285.928000
0
LINE
8
Layer 1
10
60.975100
20
290.128000
11
58.475100
21
290.128000
0
LINE
8
Layer 1
10
58.475100
20
290.128000
11
58.475100
21
288.028000
0
LINE
8
Layer 1
10
58.475100
20
288.028000
11
60.975100
21
288.028000
0
LINE
8
Layer 1
10
60.975100
20
288.028000
11
60.975100
21
290.128000
0
LINE
8
Layer 1
10
60.975100
20
290.128000
11
60.975100
21
290.128000
0
LINE
8
Layer 1
10
88.000100
20
300.428000
11
89.410846
21
300.285785
0
LINE
8
Layer 1
10
89.410846
20
300.285785
11
90.724819
21
299.877906
0
LINE
8
Layer 1
10
90.724819
20
299.877906
11
91.913870
21
299.232512
0
LINE
8
Layer 1
10
91.913870
20
299.232512
11
92.949850
21
298.377750
0
LINE
8
Layer 1
10
92.949850
20
298.377750
11
93.804612
21
297.341770
0
LINE
8
Layer 1
10
93.804612
20
297.341770
11
94.450006
21
296.152719
0
LINE
8
Layer 1
10
94.450006
20
296.152719
11
94.857885
21
294.838746
0
LINE
8
Layer 1
10
94.857885
20
294.838746
11
95.000100
21
293.428000
0
LINE
8
Layer 1
10
95.000100
20
293.428000
11
95.000100
21
288.928000
0
LINE
8
Layer 1
10
95.000100
20
288.928000
11
94.857885
21
287.517254
0
LINE
8
Layer 1
10
94.857885
20
287.517254
11
94.450006
21
286.203281
0
LINE
8
Layer 1
10
94.450006
20
286.203281
11
93.804612
21
285.014230
0
LINE
8
Layer 1
10
93.804612
20
285.014230
11
92.949850
21
283.978250
0
LINE
8
Layer 1
10
92.949850
20
283.978250
11
91.913870
21
283.123488
0
LINE
8
Layer 1
10
91.913870
20
283.123488
11
90.724819
21
282.478094
0
LINE
8
Layer 1
10
90.724819
20
282.478094
11
89.410846
21
282.070215
0
LINE
8
Layer 1
10
89.410846
20
282.070215
11
88.000100
21
281.928000
0
LINE
8
Layer 1
10
88.000100
20
281.928000
11
52.000100
21
281.928000
0
LINE
8
Layer 1
10
52.000100
20
281.928000
11
50.589354
21
282.070215
0
LINE
8
Layer 1
10
50.589354
20
282.070215
11
49.275381
21
282.478094
0
LINE
8
Layer 1
10
49.275381
20
282.478094
11
48.086330
21
283.123488
0
LINE
8
Layer 1
10
48.086330
20
283.123488
11
47.050350
21
283.978250
0
LINE
8
Layer 1
10
47.050350
20
283.978250
11
46.195588
21
285.014230
0
LINE
8
Layer 1
10
46.195588
20
285.014230
11
45.550194
21
286.203281
0
LINE
8
Layer 1
10
45.550194
20
286.203281
11
45.142315
21
287.517254
0
LINE
8
Layer 1
10
45.142315
20
287.517254
11
45.000100
21
288.928000
0
LINE
8
Layer 1
10
45.000100
20
288.928000
11
45.000100
21
293.428000
0
LINE
8
Layer 1
10
45.000100
20
293.428000
11
45.142315
21
294.838746
0
LINE
8
Layer 1
10
45.142315
20
294.838746
11
45.550194
21
296.152719
0
LINE
8
Layer 1
10
45.550194
20
296.152719
11
46.195588
21
297.341770
0
LINE
8
Layer 1
10
46.195588
20
297.341770
11
47.050350
21
298.377750
0
LINE
8
Layer 1
10
47.050350
20
298.377750
11
48.086330
21
299.232512
0
LINE
8
Layer 1
10
48.086330
20
299.232512
11
49.275381
21
299.877906
0
LINE
8
Layer 1
10
49.275381
20
299.877906
11
50.589354
21
300.285785
0
LINE
8
Layer 1
10
50.589354
20
300.285785
11
52.000100
21
300.428000
0
LINE
8
Layer 1
10
52.000100
20
300.428000
11
88.000100
21
300.428000
0
LINE
8
Layer 1
10
88.000100
20
300.428000
11
88.000100
21
300.428000
0
LINE
8
Layer 1
10
46.800100
20
290.278000
11
46.800100
21
292.078000
0
LINE
8
Layer 1
10
46.800100
20
292.078000
11
46.000100
21
292.078000
0
LINE
8
Layer 1
10
46.000100
20
292.078000
11
46.000100
21
290.278000
0
LINE
8
Layer 1
10
46.000100
20
290.278000
11
46.800100
21
290.278000
0
LINE
8
Layer 1
10
46.800100
20
290.278000
11
46.800100
21
290.278000
0
LINE
8
Layer 1
10
72.975100
20
296.428000
11
72.975100
21
298.928000
0
LINE
8
Layer 1
10
72.975100
20
298.928000
11
70.975100
21
298.928000
0
LINE
8
Layer 1
10
70.975100
20
298.928000
11
70.975100
21
296.428000
0
LINE
8
Layer 1
10
70.975100
20
296.428000
11
72.975100
21
296.428000
0
LINE
8
Layer 1
10
72.975100
20
296.428000
11
72.975100
21
296.428000
0
LINE
8
Layer 1
10
66.975100
20
285.928000
11
66.975100
21
283.428000
0
LINE
8
Layer 1
10
66.975100
20
283.428000
11
68.975100
21
283.428000
0
LINE
8
Layer 1
10
68.975100
20
283.428000
11
68.975100
21
285.928000
0
LINE
8
Layer 1
10
68.975100
20
285.928000
11
66.975100
21
285.928000
0
LINE
8
Layer 1
10
66.975100
20
285.928000
11
66.975100
21
285.928000
0
LINE
8
Layer 1
10
86.200100
20
290.278000
11
87.000100
21
290.278000
0
LINE
8
Layer 1
10
87.000100
20
290.278000
11
87.000100
21
292.078000
0
LINE
8
Layer 1
10
87.000100
20
292.078000
11
86.200100
21
292.078000
0
LINE
8
Layer 1
10
86.200100
20
292.078000
11
86.200100
21
290.278000
0
LINE
8
Layer 1
10
86.200100
20
290.278000
11
86.200100
21
290.278000
0
LINE
8
Layer 1
10
87.599600
20
271.499000
11
87.599600
21
269.699000
0
LINE
8
Layer 1
10
87.599600
20
269.699000
11
86.799600
21
269.699000
0
LINE
8
Layer 1
10
86.799600
20
269.699000
11
86.799600
21
271.499000
0
LINE
8
Layer 1
10
86.799600
20
271.499000
11
87.599600
21
271.499000
0
LINE
8
Layer 1
10
87.599600
20
271.499000
11
87.599600
21
271.499000
0
LINE
8
Layer 1
10
52.599600
20
279.849000
11
51.188854
21
279.706785
0
LINE
8
Layer 1
10
51.188854
20
279.706785
11
49.874881
21
279.298906
0
LINE
8
Layer 1
10
49.874881
20
279.298906
11
48.685830
21
278.653512
0
LINE
8
Layer 1
10
48.685830
20
278.653512
11
47.649850
21
277.798750
0
LINE
8
Layer 1
10
47.649850
20
277.798750
11
46.795088
21
276.762770
0
LINE
8
Layer 1
10
46.795088
20
276.762770
11
46.149694
21
275.573719
0
LINE
8
Layer 1
10
46.149694
20
275.573719
11
45.741815
21
274.259746
0
LINE
8
Layer 1
10
45.741815
20
274.259746
11
45.599600
21
272.849000
0
LINE
8
Layer 1
10
45.599600
20
272.849000
11
45.599600
21
268.349000
0
LINE
8
Layer 1
10
45.599600
20
268.349000
11
45.741815
21
266.938254
0
LINE
8
Layer 1
10
45.741815
20
266.938254
11
46.149694
21
265.624281
0
LINE
8
Layer 1
10
46.149694
20
265.624281
11
46.795088
21
264.435230
0
LINE
8
Layer 1
10
46.795088
20
264.435230
11
47.649850
21
263.399250
0
LINE
8
Layer 1
10
47.649850
20
263.399250
11
48.685830
21
262.544488
0
LINE
8
Layer 1
10
48.685830
20
262.544488
11
49.874881
21
261.899094
0
LINE
8
Layer 1
10
49.874881
20
261.899094
11
51.188854
21
261.491215
0
LINE
8
Layer 1
10
51.188854
20
261.491215
11
52.599600
21
261.349000
0
LINE
8
Layer 1
10
52.599600
20
261.349000
11
88.599600
21
261.349000
0
LINE
8
Layer 1
10
94.599600
20
271.499000
11
94.599600
21
269.699000
0
LINE
8
Layer 1
10
94.599600
20
269.699000
11
93.799600
21
269.699000
0
LINE
8
Layer 1
10
93.799600
20
269.699000
11
93.799600
21
271.499000
0
LINE
8
Layer 1
10
93.799600
20
271.499000
11
94.599600
21
271.499000
0
LINE
8
Layer 1
10
94.599600
20
271.499000
11
94.599600
21
271.499000
0
LINE
8
Layer 1
10
88.599600
20
279.849000
11
52.599600
21
279.849000
0
LINE
8
Layer 1
10
95.599600
20
272.849000
11
95.457385
21
274.259746
0
LINE
8
Layer 1
10
95.457385
20
274.259746
11
95.049506
21
275.573719
0
LINE
8
Layer 1
10
95.049506
20
275.573719
11
94.404112
21
276.762770
0
LINE
8
Layer 1
10
94.404112
20
276.762770
11
93.549350
21
277.798750
0
LINE
8
Layer 1
10
93.549350
20
277.798750
11
92.513370
21
278.653512
0
LINE
8
Layer 1
10
92.513370
20
278.653512
11
91.324319
21
279.298906
0
LINE
8
Layer 1
10
91.324319
20
279.298906
11
90.010346
21
279.706785
0
LINE
8
Layer 1
10
90.010346
20
279.706785
11
88.599600
21
279.849000
0
LINE
8
Layer 1
10
46.599600
20
271.499000
11
47.399600
21
271.499000
0
LINE
8
Layer 1
10
47.399600
20
271.499000
11
47.399600
21
269.699000
0
LINE
8
Layer 1
10
47.399600
20
269.699000
11
46.599600
21
269.699000
0
LINE
8
Layer 1
10
46.599600
20
269.699000
11
46.599600
21
271.499000
0
LINE
8
Layer 1
10
46.599600
20
271.499000
11
46.599600
21
271.499000
0
LINE
8
Layer 1
10
54.399600
20
271.499000
11
54.399600
21
269.699000
0
LINE
8
Layer 1
10
54.399600
20
269.699000
11
53.599600
21
269.699000
0
LINE
8
Layer 1
10
53.599600
20
269.699000
11
53.599600
21
271.499000
0
LINE
8
Layer 1
10
53.599600
20
271.499000
11
54.399600
21
271.499000
0
LINE
8
Layer 1
10
54.399600
20
271.499000
11
54.399600
21
271.499000
0
LINE
8
Layer 1
10
95.599600
20
272.849000
11
95.599600
21
268.349000
0
LINE
8
Layer 1
10
95.599600
20
268.349000
11
95.457385
21
266.938254
0
LINE
8
Layer 1
10
95.457385
20
266.938254
11
95.049506
21
265.624281
0
LINE
8
Layer 1
10
95.049506
20
265.624281
11
94.404112
21
264.435230
0
LINE
8
Layer 1
10
94.404112
20
264.435230
11
93.549350
21
263.399250
0
LINE
8
Layer 1
10
93.549350
20
263.399250
11
92.513370
21
262.544488
0
LINE
8
Layer 1
10
92.513370
20
262.544488
11
91.324319
21
261.899094
0
LINE
8
Layer 1
10
91.324319
20
261.899094
11
90.010346
21
261.491215
0
LINE
8
Layer 1
10
90.010346
20
261.491215
11
88.599600
21
261.349000
0
LINE
8
Layer 1
10
100.118000
20
344.001000
11
97.618100
21
344.001000
0
LINE
8
Layer 1
10
97.618100
20
344.001000
11
97.618100
21
346.001000
0
LINE
8
Layer 1
10
97.618100
20
346.001000
11
113.118000
21
346.001000
0
LINE
8
Layer 1
10
113.118000
20
346.001000
11
113.118000
21
344.001000
0
LINE
8
Layer 1
10
113.118000
20
344.001000
11
110.618000
21
344.001000
0
LINE
8
Layer 1
10
110.618000
20
344.001000
11
110.618000
21
342.001000
0
LINE
8
Layer 1
10
110.618000
20
342.001000
11
113.118000
21
342.001000
0
LINE
8
Layer 1
10
113.118000
20
342.001000
11
113.118000
21
340.001000
0
LINE
8
Layer 1
10
113.118000
20
340.001000
11
110.618000
21
340.001000
0
LINE
8
Layer 1
10
110.618000
20
340.001000
11
110.618000
21
338.001000
0
LINE
8
Layer 1
10
110.618000
20
338.001000
11
113.118000
21
338.001000
0
LINE
8
Layer 1
10
113.118000
20
338.001000
11
113.118000
21
336.001000
0
LINE
8
Layer 1
10
113.118000
20
336.001000
11
97.618100
21
336.001000
0
LINE
8
Layer 1
10
97.618100
20
336.001000
11
97.618100
21
338.001000
0
LINE
8
Layer 1
10
97.618100
20
338.001000
11
100.118000
21
338.001000
0
LINE
8
Layer 1
10
100.118000
20
338.001000
11
100.118000
21
340.001000
0
LINE
8
Layer 1
10
100.118000
20
340.001000
11
97.618100
21
340.001000
0
LINE
8
Layer 1
10
97.618100
20
340.001000
11
97.618100
21
342.001000
0
LINE
8
Layer 1
10
97.618100
20
342.001000
11
100.118000
21
342.001000
0
LINE
8
Layer 1
10
100.118000
20
342.001000
11
100.118000
21
344.001000
0
LINE
8
Layer 1
10
100.118000
20
344.001000
11
100.118000
21
344.001000
0
LINE
8
Layer 1
10
105.078000
20
335.091000
11
105.078000
21
324.591000
0
LINE
8
Layer 1
10
105.078000
20
324.591000
11
99.078200
21
324.591000
0
LINE
8
Layer 1
10
99.078200
20
324.591000
11
99.078200
21
326.691000
0
LINE
8
Layer 1
10
99.078200
20
326.691000
11
96.578200
21
326.691000
0
LINE
8
Layer 1
10
96.578200
20
326.691000
11
96.578200
21
328.791000
0
LINE
8
Layer 1
10
96.578200
20
328.791000
11
99.078200
21
328.791000
0
LINE
8
Layer 1
10
99.078200
20
328.791000
11
99.078200
21
330.891000
0
LINE
8
Layer 1
10
99.078200
20
330.891000
11
96.578200
21
330.891000
0
LINE
8
Layer 1
10
96.578200
20
330.891000
11
96.578200
21
332.991000
0
LINE
8
Layer 1
10
96.578200
20
332.991000
11
99.078200
21
332.991000
0
LINE
8
Layer 1
10
99.078200
20
332.991000
11
99.078200
21
335.091000
0
LINE
8
Layer 1
10
99.078200
20
335.091000
11
105.078000
21
335.091000
0
LINE
8
Layer 1
10
105.078000
20
335.091000
11
105.078000
21
335.091000
0
LINE
8
Layer 1
10
106.328000
20
320.001000
11
103.828000
21
320.001000
0
LINE
8
Layer 1
10
103.828000
20
320.001000
11
103.828000
21
318.001000
0
LINE
8
Layer 1
10
103.828000
20
318.001000
11
106.328000
21
318.001000
0
LINE
8
Layer 1
10
106.328000
20
318.001000
11
106.328000
21
316.001000
0
LINE
8
Layer 1
10
106.328000
20
316.001000
11
103.828000
21
316.001000
0
LINE
8
Layer 1
10
103.828000
20
316.001000
11
103.828000
21
314.001000
0
LINE
8
Layer 1
10
103.828000
20
314.001000
11
100.328000
21
314.001000
0
LINE
8
Layer 1
10
100.328000
20
314.001000
11
100.328000
21
316.001000
0
LINE
8
Layer 1
10
100.328000
20
316.001000
11
97.828200
21
316.001000
0
LINE
8
Layer 1
10
97.828200
20
316.001000
11
97.828200
21
318.001000
0
LINE
8
Layer 1
10
97.828200
20
318.001000
11
100.328000
21
318.001000
0
LINE
8
Layer 1
10
100.328000
20
318.001000
11
100.328000
21
320.001000
0
LINE
8
Layer 1
10
100.328000
20
320.001000
11
97.828200
21
320.001000
0
LINE
8
Layer 1
10
97.828200
20
320.001000
11
97.828200
21
322.001000
0
LINE
8
Layer 1
10
97.828200
20
322.001000
11
100.328000
21
322.001000
0
LINE
8
Layer 1
10
100.328000
20
322.001000
11
100.328000
21
324.001000
0
LINE
8
Layer 1
10
100.328000
20
324.001000
11
103.828000
21
324.001000
0
LINE
8
Layer 1
10
103.828000
20
324.001000
11
103.828000
21
322.001000
0
LINE
8
Layer 1
10
103.828000
20
322.001000
11
106.328000
21
322.001000
0
LINE
8
Layer 1
10
106.328000
20
322.001000
11
106.328000
21
320.001000
0
LINE
8
Layer 1
10
106.328000
20
320.001000
11
106.328000
21
320.001000
0
LINE
8
Layer 1
10
106.328000
20
311.001000
11
103.828000
21
311.001000
0
LINE
8
Layer 1
10
103.828000
20
311.001000
11
103.828000
21
313.001000
0
LINE
8
Layer 1
10
103.828000
20
313.001000
11
100.328000
21
313.001000
0
LINE
8
Layer 1
10
100.328000
20
313.001000
11
100.328000
21
311.001000
0
LINE
8
Layer 1
10
100.328000
20
311.001000
11
97.828200
21
311.001000
0
LINE
8
Layer 1
10
97.828200
20
311.001000
11
97.828200
21
309.001000
0
LINE
8
Layer 1
10
97.828200
20
309.001000
11
100.328000
21
309.001000
0
LINE
8
Layer 1
10
100.328000
20
309.001000
11
100.328000
21
307.001000
0
LINE
8
Layer 1
10
100.328000
20
307.001000
11
97.828200
21
307.001000
0
LINE
8
Layer 1
10
97.828200
20
307.001000
11
97.828200
21
305.001000
0
LINE
8
Layer 1
10
97.828200
20
305.001000
11
100.328000
21
305.001000
0
LINE
8
Layer 1
10
100.328000
20
305.001000
11
100.328000
21
303.001000
0
LINE
8
Layer 1
10
100.328000
20
303.001000
11
103.828000
21
303.001000
0
LINE
8
Layer 1
10
103.828000
20
303.001000
11
103.828000
21
305.001000
0
LINE
8
Layer 1
10
103.828000
20
305.001000
11
106.328000
21
305.001000
0
LINE
8
Layer 1
10
106.328000
20
305.001000
11
106.328000
21
307.001000
0
LINE
8
Layer 1
10
106.328000
20
307.001000
11
103.828000
21
307.001000
0
LINE
8
Layer 1
10
103.828000
20
307.001000
11
103.828000
21
309.001000
0
LINE
8
Layer 1
10
103.828000
20
309.001000
11
106.328000
21
309.001000
0
LINE
8
Layer 1
10
106.328000
20
309.001000
11
106.328000
21
311.001000
0
LINE
8
Layer 1
10
106.328000
20
311.001000
11
106.328000
21
311.001000
0
LINE
8
Layer 1
10
93.200100
20
335.278000
11
94.000100
21
335.278000
0
LINE
8
Layer 1
10
94.000100
20
335.278000
11
94.000100
21
337.078000
0
LINE
8
Layer 1
10
94.000100
20
337.078000
11
93.200100
21
337.078000
0
LINE
8
Layer 1
10
93.200100
20
337.078000
11
93.200100
21
335.278000
0
LINE
8
Layer 1
10
93.200100
20
335.278000
11
93.200100
21
335.278000
0
LINE
8
Layer 1
10
68.975100
20
343.928000
11
66.975100
21
343.928000
0
LINE
8
Layer 1
10
66.975100
20
343.928000
11
66.975100
21
341.428000
0
LINE
8
Layer 1
10
66.975100
20
341.428000
11
68.975100
21
341.428000
0
LINE
8
Layer 1
10
68.975100
20
341.428000
11
68.975100
21
343.928000
0
LINE
8
Layer 1
10
68.975100
20
343.928000
11
68.975100
21
343.928000
0
LINE
8
Layer 1
10
60.975100
20
339.328000
11
58.475100
21
339.328000
0
LINE
8
Layer 1
10
58.475100
20
339.328000
11
58.475100
21
337.228000
0
LINE
8
Layer 1
10
58.475100
20
337.228000
11
60.975100
21
337.228000
0
LINE
8
Layer 1
10
60.975100
20
337.228000
11
60.975100
21
339.328000
0
LINE
8
Layer 1
10
60.975100
20
339.328000
11
60.975100
21
339.328000
0
LINE
8
Layer 1
10
53.800100
20
335.278000
11
53.000100
21
335.278000
0
LINE
8
Layer 1
10
53.000100
20
335.278000
11
53.000100
21
337.078000
0
LINE
8
Layer 1
10
53.000100
20
337.078000
11
53.800100
21
337.078000
0
LINE
8
Layer 1
10
53.800100
20
337.078000
11
53.800100
21
335.278000
0
LINE
8
Layer 1
10
53.800100
20
335.278000
11
53.800100
21
335.278000
0
LINE
8
Layer 1
10
70.975100
20
330.928000
11
70.975100
21
328.428000
0
LINE
8
Layer 1
10
70.975100
20
328.428000
11
72.975100
21
328.428000
0
LINE
8
Layer 1
10
72.975100
20
328.428000
11
72.975100
21
330.928000
0
LINE
8
Layer 1
10
72.975100
20
330.928000
11
70.975100
21
330.928000
0
LINE
8
Layer 1
10
70.975100
20
330.928000
11
70.975100
21
330.928000
0
LINE
8
Layer 1
10
60.975100
20
335.128000
11
58.475100
21
335.128000
0
LINE
8
Layer 1
10
58.475100
20
335.128000
11
58.475100
21
333.028000
0
LINE
8
Layer 1
10
58.475100
20
333.028000
11
60.975100
21
333.028000
0
LINE
8
Layer 1
10
60.975100
20
333.028000
11
60.975100
21
335.128000
0
LINE
8
Layer 1
10
60.975100
20
335.128000
11
60.975100
21
335.128000
0
LINE
8
Layer 1
10
88.000100
20
345.428000
11
89.410846
21
345.285785
0
LINE
8
Layer 1
10
89.410846
20
345.285785
11
90.724819
21
344.877906
0
LINE
8
Layer 1
10
90.724819
20
344.877906
11
91.913870
21
344.232512
0
LINE
8
Layer 1
10
91.913870
20
344.232512
11
92.949850
21
343.377750
0
LINE
8
Layer 1
10
92.949850
20
343.377750
11
93.804612
21
342.341770
0
LINE
8
Layer 1
10
93.804612
20
342.341770
11
94.450006
21
341.152719
0
LINE
8
Layer 1
10
94.450006
20
341.152719
11
94.857885
21
339.838746
0
LINE
8
Layer 1
10
94.857885
20
339.838746
11
95.000100
21
338.428000
0
LINE
8
Layer 1
10
95.000100
20
338.428000
11
95.000100
21
333.928000
0
LINE
8
Layer 1
10
95.000100
20
333.928000
11
94.857885
21
332.517254
0
LINE
8
Layer 1
10
94.857885
20
332.517254
11
94.450006
21
331.203281
0
LINE
8
Layer 1
10
94.450006
20
331.203281
11
93.804612
21
330.014230
0
LINE
8
Layer 1
10
93.804612
20
330.014230
11
92.949850
21
328.978250
0
LINE
8
Layer 1
10
92.949850
20
328.978250
11
91.913870
21
328.123488
0
LINE
8
Layer 1
10
91.913870
20
328.123488
11
90.724819
21
327.478094
0
LINE
8
Layer 1
10
90.724819
20
327.478094
11
89.410846
21
327.070215
0
LINE
8
Layer 1
10
89.410846
20
327.070215
11
88.000100
21
326.928000
0
LINE
8
Layer 1
10
88.000100
20
326.928000
11
52.000100
21
326.928000
0
LINE
8
Layer 1
10
52.000100
20
326.928000
11
50.589354
21
327.070215
0
LINE
8
Layer 1
10
50.589354
20
327.070215
11
49.275381
21
327.478094
0
LINE
8
Layer 1
10
49.275381
20
327.478094
11
48.086330
21
328.123488
0
LINE
8
Layer 1
10
48.086330
20
328.123488
11
47.050350
21
328.978250
0
LINE
8
Layer 1
10
47.050350
20
328.978250
11
46.195588
21
330.014230
0
LINE
8
Layer 1
10
46.195588
20
330.014230
11
45.550194
21
331.203281
0
LINE
8
Layer 1
10
45.550194
20
331.203281
11
45.142315
21
332.517254
0
LINE
8
Layer 1
10
45.142315
20
332.517254
11
45.000100
21
333.928000
0
LINE
8
Layer 1
10
45.000100
20
333.928000
11
45.000100
21
338.428000
0
LINE
8
Layer 1
10
45.000100
20
338.428000
11
45.142315
21
339.838746
0
LINE
8
Layer 1
10
45.142315
20
339.838746
11
45.550194
21
341.152719
0
LINE
8
Layer 1
10
45.550194
20
341.152719
11
46.195588
21
342.341770
0
LINE
8
Layer 1
10
46.195588
20
342.341770
11
47.050350
21
343.377750
0
LINE
8
Layer 1
10
47.050350
20
343.377750
11
48.086330
21
344.232512
0
LINE
8
Layer 1
10
48.086330
20
344.232512
11
49.275381
21
344.877906
0
LINE
8
Layer 1
10
49.275381
20
344.877906
11
50.589354
21
345.285785
0
LINE
8
Layer 1
10
50.589354
20
345.285785
11
52.000100
21
345.428000
0
LINE
8
Layer 1
10
52.000100
20
345.428000
11
88.000100
21
345.428000
0
LINE
8
Layer 1
10
88.000100
20
345.428000
11
88.000100
21
345.428000
0
LINE
8
Layer 1
10
46.800100
20
335.278000
11
46.800100
21
337.078000
0
LINE
8
Layer 1
10
46.800100
20
337.078000
11
46.000100
21
337.078000
0
LINE
8
Layer 1
10
46.000100
20
337.078000
11
46.000100
21
335.278000
0
LINE
8
Layer 1
10
46.000100
20
335.278000
11
46.800100
21
335.278000
0
LINE
8
Layer 1
10
46.800100
20
335.278000
11
46.800100
21
335.278000
0
LINE
8
Layer 1
10
72.975100
20
341.428000
11
72.975100
21
343.928000
0
LINE
8
Layer 1
10
72.975100
20
343.928000
11
70.975100
21
343.928000
0
LINE
8
Layer 1
10
70.975100
20
343.928000
11
70.975100
21
341.428000
0
LINE
8
Layer 1
10
70.975100
20
341.428000
11
72.975100
21
341.428000
0
LINE
8
Layer 1
10
72.975100
20
341.428000
11
72.975100
21
341.428000
0
LINE
8
Layer 1
10
66.975100
20
330.928000
11
66.975100
21
328.428000
0
LINE
8
Layer 1
10
66.975100
20
328.428000
11
68.975100
21
328.428000
0
LINE
8
Layer 1
10
68.975100
20
328.428000
11
68.975100
21
330.928000
0
LINE
8
Layer 1
10
68.975100
20
330.928000
11
66.975100
21
330.928000
0
LINE
8
Layer 1
10
66.975100
20
330.928000
11
66.975100
21
330.928000
0
LINE
8
Layer 1
10
86.200100
20
335.278000
11
87.000100
21
335.278000
0
LINE
8
Layer 1
10
87.000100
20
335.278000
11
87.000100
21
337.078000
0
LINE
8
Layer 1
10
87.000100
20
337.078000
11
86.200100
21
337.078000
0
LINE
8
Layer 1
10
86.200100
20
337.078000
11
86.200100
21
335.278000
0
LINE
8
Layer 1
10
86.200100
20
335.278000
11
86.200100
21
335.278000
0
LINE
8
Layer 1
10
87.599600
20
313.500000
11
87.599600
21
311.700000
0
LINE
8
Layer 1
10
87.599600
20
311.700000
11
86.799600
21
311.700000
0
LINE
8
Layer 1
10
86.799600
20
311.700000
11
86.799600
21
313.500000
0
LINE
8
Layer 1
10
86.799600
20
313.500000
11
87.599600
21
313.500000
0
LINE
8
Layer 1
10
87.599600
20
313.500000
11
87.599600
21
313.500000
0
LINE
8
Layer 1
10
52.599600
20
321.850000
11
51.188854
21
321.707785
0
LINE
8
Layer 1
10
51.188854
20
321.707785
11
49.874881
21
321.299906
0
LINE
8
Layer 1
10
49.874881
20
321.299906
11
48.685830
21
320.654512
0
LINE
8
Layer 1
10
48.685830
20
320.654512
11
47.649850
21
319.799750
0
LINE
8
Layer 1
10
47.649850
20
319.799750
11
46.795088
21
318.763770
0
LINE
8
Layer 1
10
46.795088
20
318.763770
11
46.149694
21
317.574719
0
LINE
8
Layer 1
10
46.149694
20
317.574719
11
45.741815
21
316.260746
0
LINE
8
Layer 1
10
45.741815
20
316.260746
11
45.599600
21
314.850000
0
LINE
8
Layer 1
10
45.599600
20
314.850000
11
45.599600
21
310.350000
0
LINE
8
Layer 1
10
45.599600
20
310.350000
11
45.741815
21
308.939254
0
LINE
8
Layer 1
10
45.741815
20
308.939254
11
46.149694
21
307.625281
0
LINE
8
Layer 1
10
46.149694
20
307.625281
11
46.795088
21
306.436230
0
LINE
8
Layer 1
10
46.795088
20
306.436230
11
47.649850
21
305.400250
0
LINE
8
Layer 1
10
47.649850
20
305.400250
11
48.685830
21
304.545488
0
LINE
8
Layer 1
10
48.685830
20
304.545488
11
49.874881
21
303.900094
0
LINE
8
Layer 1
10
49.874881
20
303.900094
11
51.188854
21
303.492215
0
LINE
8
Layer 1
10
51.188854
20
303.492215
11
52.599600
21
303.350000
0
LINE
8
Layer 1
10
52.599600
20
303.350000
11
88.599600
21
303.350000
0
LINE
8
Layer 1
10
94.599600
20
313.500000
11
94.599600
21
311.700000
0
LINE
8
Layer 1
10
94.599600
20
311.700000
11
93.799600
21
311.700000
0
LINE
8
Layer 1
10
93.799600
20
311.700000
11
93.799600
21
313.500000
0
LINE
8
Layer 1
10
93.799600
20
313.500000
11
94.599600
21
313.500000
0
LINE
8
Layer 1
10
94.599600
20
313.500000
11
94.599600
21
313.500000
0
LINE
8
Layer 1
10
88.599600
20
321.850000
11
52.599600
21
321.850000
0
LINE
8
Layer 1
10
95.599600
20
314.850000
11
95.457385
21
316.260746
0
LINE
8
Layer 1
10
95.457385
20
316.260746
11
95.049506
21
317.574719
0
LINE
8
Layer 1
10
95.049506
20
317.574719
11
94.404112
21
318.763770
0
LINE
8
Layer 1
10
94.404112
20
318.763770
11
93.549350
21
319.799750
0
LINE
8
Layer 1
10
93.549350
20
319.799750
11
92.513370
21
320.654512
0
LINE
8
Layer 1
10
92.513370
20
320.654512
11
91.324319
21
321.299906
0
LINE
8
Layer 1
10
91.324319
20
321.299906
11
90.010346
21
321.707785
0
LINE
8
Layer 1
10
90.010346
20
321.707785
11
88.599600
21
321.850000
0
LINE
8
Layer 1
10
46.599600
20
313.500000
11
47.399600
21
313.500000
0
LINE
8
Layer 1
10
47.399600
20
313.500000
11
47.399600
21
311.700000
0
LINE
8
Layer 1
10
47.399600
20
311.700000
11
46.599600
21
311.700000
0
LINE
8
Layer 1
10
46.599600
20
311.700000
11
46.599600
21
313.500000
0
LINE
8
Layer 1
10
46.599600
20
313.500000
11
46.599600
21
313.500000
0
LINE
8
Layer 1
10
54.399600
20
313.500000
11
54.399600
21
311.700000
0
LINE
8
Layer 1
10
54.399600
20
311.700000
11
53.599600
21
311.700000
0
LINE
8
Layer 1
10
53.599600
20
311.700000
11
53.599600
21
313.500000
0
LINE
8
Layer 1
10
53.599600
20
313.500000
11
54.399600
21
313.500000
0
LINE
8
Layer 1
10
54.399600
20
313.500000
11
54.399600
21
313.500000
0
LINE
8
Layer 1
10
95.599600
20
314.850000
11
95.599600
21
310.350000
0
LINE
8
Layer 1
10
95.599600
20
310.350000
11
95.457385
21
308.939254
0
LINE
8
Layer 1
10
95.457385
20
308.939254
11
95.049506
21
307.625281
0
LINE
8
Layer 1
10
95.049506
20
307.625281
11
94.404112
21
306.436230
0
LINE
8
Layer 1
10
94.404112
20
306.436230
11
93.549350
21
305.400250
0
LINE
8
Layer 1
10
93.549350
20
305.400250
11
92.513370
21
304.545488
0
LINE
8
Layer 1
10
92.513370
20
304.545488
11
91.324319
21
303.900094
0
LINE
8
Layer 1
10
91.324319
20
303.900094
11
90.010346
21
303.492215
0
LINE
8
Layer 1
10
90.010346
20
303.492215
11
88.599600
21
303.350000
0
LINE
8
Layer 1
10
100.118000
20
389.001000
11
97.618100
21
389.001000
0
LINE
8
Layer 1
10
97.618100
20
389.001000
11
97.618100
21
391.001000
0
LINE
8
Layer 1
10
97.618100
20
391.001000
11
113.118000
21
391.001000
0
LINE
8
Layer 1
10
113.118000
20
391.001000
11
113.118000
21
389.001000
0
LINE
8
Layer 1
10
113.118000
20
389.001000
11
110.618000
21
389.001000
0
LINE
8
Layer 1
10
110.618000
20
389.001000
11
110.618000
21
387.001000
0
LINE
8
Layer 1
10
110.618000
20
387.001000
11
113.118000
21
387.001000
0
LINE
8
Layer 1
10
113.118000
20
387.001000
11
113.118000
21
385.001000
0
LINE
8
Layer 1
10
113.118000
20
385.001000
11
110.618000
21
385.001000
0
LINE
8
Layer 1
10
110.618000
20
385.001000
11
110.618000
21
383.001000
0
LINE
8
Layer 1
10
110.618000
20
383.001000
11
113.118000
21
383.001000
0
LINE
8
Layer 1
10
113.118000
20
383.001000
11
113.118000
21
381.001000
0
LINE
8
Layer 1
10
113.118000
20
381.001000
11
97.618100
21
381.001000
0
LINE
8
Layer 1
10
97.618100
20
381.001000
11
97.618100
21
383.001000
0
LINE
8
Layer 1
10
97.618100
20
383.001000
11
100.118000
21
383.001000
0
LINE
8
Layer 1
10
100.118000
20
383.001000
11
100.118000
21
385.001000
0
LINE
8
Layer 1
10
100.118000
20
385.001000
11
97.618100
21
385.001000
0
LINE
8
Layer 1
10
97.618100
20
385.001000
11
97.618100
21
387.001000
0
LINE
8
Layer 1
10
97.618100
20
387.001000
11
100.118000
21
387.001000
0
LINE
8
Layer 1
10
100.118000
20
387.001000
11
100.118000
21
389.001000
0
LINE
8
Layer 1
10
100.118000
20
389.001000
11
100.118000
21
389.001000
0
LINE
8
Layer 1
10
105.078000
20
380.092000
11
105.078000
21
369.592000
0
LINE
8
Layer 1
10
105.078000
20
369.592000
11
99.078200
21
369.592000
0
LINE
8
Layer 1
10
99.078200
20
369.592000
11
99.078200
21
371.692000
0
LINE
8
Layer 1
10
99.078200
20
371.692000
11
96.578200
21
371.692000
0
LINE
8
Layer 1
10
96.578200
20
371.692000
11
96.578200
21
373.792000
0
LINE
8
Layer 1
10
96.578200
20
373.792000
11
99.078200
21
373.792000
0
LINE
8
Layer 1
10
99.078200
20
373.792000
11
99.078200
21
375.892000
0
LINE
8
Layer 1
10
99.078200
20
375.892000
11
96.578200
21
375.892000
0
LINE
8
Layer 1
10
96.578200
20
375.892000
11
96.578200
21
377.992000
0
LINE
8
Layer 1
10
96.578200
20
377.992000
11
99.078200
21
377.992000
0
LINE
8
Layer 1
10
99.078200
20
377.992000
11
99.078200
21
380.092000
0
LINE
8
Layer 1
10
99.078200
20
380.092000
11
105.078000
21
380.092000
0
LINE
8
Layer 1
10
105.078000
20
380.092000
11
105.078000
21
380.092000
0
LINE
8
Layer 1
10
106.328000
20
365.001000
11
103.828000
21
365.001000
0
LINE
8
Layer 1
10
103.828000
20
365.001000
11
103.828000
21
363.001000
0
LINE
8
Layer 1
10
103.828000
20
363.001000
11
106.328000
21
363.001000
0
LINE
8
Layer 1
10
106.328000
20
363.001000
11
106.328000
21
361.001000
0
LINE
8
Layer 1
10
106.328000
20
361.001000
11
103.828000
21
361.001000
0
LINE
8
Layer 1
10
103.828000
20
361.001000
11
103.828000
21
359.001000
0
LINE
8
Layer 1
10
103.828000
20
359.001000
11
100.328000
21
359.001000
0
LINE
8
Layer 1
10
100.328000
20
359.001000
11
100.328000
21
361.001000
0
LINE
8
Layer 1
10
100.328000
20
361.001000
11
97.828200
21
361.001000
0
LINE
8
Layer 1
10
97.828200
20
361.001000
11
97.828200
21
363.001000
0
LINE
8
Layer 1
10
97.828200
20
363.001000
11
100.328000
21
363.001000
0
LINE
8
Layer 1
10
100.328000
20
363.001000
11
100.328000
21
365.001000
0
LINE
8
Layer 1
10
100.328000
20
365.001000
11
97.828200
21
365.001000
0
LINE
8
Layer 1
10
97.828200
20
365.001000
11
97.828200
21
367.001000
0
LINE
8
Layer 1
10
97.828200
20
367.001000
11
100.328000
21
367.001000
0
LINE
8
Layer 1
10
100.328000
20
367.001000
11
100.328000
21
369.001000
0
LINE
8
Layer 1
10
100.328000
20
369.001000
11
103.828000
21
369.001000
0
LINE
8
Layer 1
10
103.828000
20
369.001000
11
103.828000
21
367.001000
0
LINE
8
Layer 1
10
103.828000
20
367.001000
11
106.328000
21
367.001000
0
LINE
8
Layer 1
10
106.328000
20
367.001000
11
106.328000
21
365.001000
0
LINE
8
Layer 1
10
106.328000
20
365.001000
11
106.328000
21
365.001000
0
LINE
8
Layer 1
10
106.328000
20
356.001000
11
103.828000
21
356.001000
0
LINE
8
Layer 1
10
103.828000
20
356.001000
11
103.828000
21
358.001000
0
LINE
8
Layer 1
10
103.828000
20
358.001000
11
100.328000
21
358.001000
0
LINE
8
Layer 1
10
100.328000
20
358.001000
11
100.328000
21
356.001000
0
LINE
8
Layer 1
10
100.328000
20
356.001000
11
97.828200
21
356.001000
0
LINE
8
Layer 1
10
97.828200
20
356.001000
11
97.828200
21
354.001000
0
LINE
8
Layer 1
10
97.828200
20
354.001000
11
100.328000
21
354.001000
0
LINE
8
Layer 1
10
100.328000
20
354.001000
11
100.328000
21
352.001000
0
LINE
8
Layer 1
10
100.328000
20
352.001000
11
97.828200
21
352.001000
0
LINE
8
Layer 1
10
97.828200
20
352.001000
11
97.828200
21
350.001000
0
LINE
8
Layer 1
10
97.828200
20
350.001000
11
100.328000
21
350.001000
0
LINE
8
Layer 1
10
100.328000
20
350.001000
11
100.328000
21
348.001000
0
LINE
8
Layer 1
10
100.328000
20
348.001000
11
103.828000
21
348.001000
0
LINE
8
Layer 1
10
103.828000
20
348.001000
11
103.828000
21
350.001000
0
LINE
8
Layer 1
10
103.828000
20
350.001000
11
106.328000
21
350.001000
0
LINE
8
Layer 1
10
106.328000
20
350.001000
11
106.328000
21
352.001000
0
LINE
8
Layer 1
10
106.328000
20
352.001000
11
103.828000
21
352.001000
0
LINE
8
Layer 1
10
103.828000
20
352.001000
11
103.828000
21
354.001000
0
LINE
8
Layer 1
10
103.828000
20
354.001000
11
106.328000
21
354.001000
0
LINE
8
Layer 1
10
106.328000
20
354.001000
11
106.328000
21
356.001000
0
LINE
8
Layer 1
10
106.328000
20
356.001000
11
106.328000
21
356.001000
0
LINE
8
Layer 1
10
93.200100
20
380.278000
11
94.000100
21
380.278000
0
LINE
8
Layer 1
10
94.000100
20
380.278000
11
94.000100
21
382.078000
0
LINE
8
Layer 1
10
94.000100
20
382.078000
11
93.200100
21
382.078000
0
LINE
8
Layer 1
10
93.200100
20
382.078000
11
93.200100
21
380.278000
0
LINE
8
Layer 1
10
93.200100
20
380.278000
11
93.200100
21
380.278000
0
LINE
8
Layer 1
10
68.975100
20
388.928000
11
66.975100
21
388.928000
0
LINE
8
Layer 1
10
66.975100
20
388.928000
11
66.975100
21
386.428000
0
LINE
8
Layer 1
10
66.975100
20
386.428000
11
68.975100
21
386.428000
0
LINE
8
Layer 1
10
68.975100
20
386.428000
11
68.975100
21
388.928000
0
LINE
8
Layer 1
10
68.975100
20
388.928000
11
68.975100
21
388.928000
0
LINE
8
Layer 1
10
60.975100
20
384.328000
11
58.475100
21
384.328000
0
LINE
8
Layer 1
10
58.475100
20
384.328000
11
58.475100
21
382.228000
0
LINE
8
Layer 1
10
58.475100
20
382.228000
11
60.975100
21
382.228000
0
LINE
8
Layer 1
10
60.975100
20
382.228000
11
60.975100
21
384.328000
0
LINE
8
Layer 1
10
60.975100
20
384.328000
11
60.975100
21
384.328000
0
LINE
8
Layer 1
10
53.800100
20
380.278000
11
53.000100
21
380.278000
0
LINE
8
Layer 1
10
53.000100
20
380.278000
11
53.000100
21
382.078000
0
LINE
8
Layer 1
10
53.000100
20
382.078000
11
53.800100
21
382.078000
0
LINE
8
Layer 1
10
53.800100
20
382.078000
11
53.800100
21
380.278000
0
LINE
8
Layer 1
10
53.800100
20
380.278000
11
53.800100
21
380.278000
0
LINE
8
Layer 1
10
70.975100
20
375.928000
11
70.975100
21
373.428000
0
LINE
8
Layer 1
10
70.975100
20
373.428000
11
72.975100
21
373.428000
0
LINE
8
Layer 1
10
72.975100
20
373.428000
11
72.975100
21
375.928000
0
LINE
8
Layer 1
10
72.975100
20
375.928000
11
70.975100
21
375.928000
0
LINE
8
Layer 1
10
70.975100
20
375.928000
11
70.975100
21
375.928000
0
LINE
8
Layer 1
10
60.975100
20
380.128000
11
58.475100
21
380.128000
0
LINE
8
Layer 1
10
58.475100
20
380.128000
11
58.475100
21
378.028000
0
LINE
8
Layer 1
10
58.475100
20
378.028000
11
60.975100
21
378.028000
0
LINE
8
Layer 1
10
60.975100
20
378.028000
11
60.975100
21
380.128000
0
LINE
8
Layer 1
10
60.975100
20
380.128000
11
60.975100
21
380.128000
0
LINE
8
Layer 1
10
88.000100
20
390.428000
11
89.410846
21
390.285785
0
LINE
8
Layer 1
10
89.410846
20
390.285785
11
90.724819
21
389.877906
0
LINE
8
Layer 1
10
90.724819
20
389.877906
11
91.913870
21
389.232512
0
LINE
8
Layer 1
10
91.913870
20
389.232512
11
92.949850
21
388.377750
0
LINE
8
Layer 1
10
92.949850
20
388.377750
11
93.804612
21
387.341770
0
LINE
8
Layer 1
10
93.804612
20
387.341770
11
94.450006
21
386.152719
0
LINE
8
Layer 1
10
94.450006
20
386.152719
11
94.857885
21
384.838746
0
LINE
8
Layer 1
10
94.857885
20
384.838746
11
95.000100
21
383.428000
0
LINE
8
Layer 1
10
95.000100
20
383.428000
11
95.000100
21
378.928000
0
LINE
8
Layer 1
10
95.000100
20
378.928000
11
94.857885
21
377.517254
0
LINE
8
Layer 1
10
94.857885
20
377.517254
11
94.450006
21
376.203281
0
LINE
8
Layer 1
10
94.450006
20
376.203281
11
93.804612
21
375.014230
0
LINE
8
Layer 1
10
93.804612
20
375.014230
11
92.949850
21
373.978250
0
LINE
8
Layer 1
10
92.949850
20
373.978250
11
91.913870
21
373.123488
0
LINE
8
Layer 1
10
91.913870
20
373.123488
11
90.724819
21
372.478094
0
LINE
8
Layer 1
10
90.724819
20
372.478094
11
89.410846
21
372.070215
0
LINE
8
Layer 1
10
89.410846
20
372.070215
11
88.000100
21
371.928000
0
LINE
8
Layer 1
10
88.000100
20
371.928000
11
52.000100
21
371.928000
0
LINE
8
Layer 1
10
52.000100
20
371.928000
11
50.589354
21
372.070215
0
LINE
8
Layer 1
10
50.589354
20
372.070215
11
49.275381
21
372.478094
0
LINE
8
Layer 1
10
49.275381
20
372.478094
11
48.086330
21
373.123488
0
LINE
8
Layer 1
10
48.086330
20
373.123488
11
47.050350
21
373.978250
0
LINE
8
Layer 1
10
47.050350
20
373.978250
11
46.195588
21
375.014230
0
LINE
8
Layer 1
10
46.195588
20
375.014230
11
45.550194
21
376.203281
0
LINE
8
Layer 1
10
45.550194
20
376.203281
11
45.142315
21
377.517254
0
LINE
8
Layer 1
10
45.142315
20
377.517254
11
45.000100
21
378.928000
0
LINE
8
Layer 1
10
45.000100
20
378.928000
11
45.000100
21
383.428000
0
LINE
8
Layer 1
10
45.000100
20
383.428000
11
45.142315
21
384.838746
0
LINE
8
Layer 1
10
45.142315
20
384.838746
11
45.550194
21
386.152719
0
LINE
8
Layer 1
10
45.550194
20
386.152719
11
46.195588
21
387.341770
0
LINE
8
Layer 1
10
46.195588
20
387.341770
11
47.050350
21
388.377750
0
LINE
8
Layer 1
10
47.050350
20
388.377750
11
48.086330
21
389.232512
0
LINE
8
Layer 1
10
48.086330
20
389.232512
11
49.275381
21
389.877906
0
LINE
8
Layer 1
10
49.275381
20
389.877906
11
50.589354
21
390.285785
0
LINE
8
Layer 1
10
50.589354
20
390.285785
11
52.000100
21
390.428000
0
LINE
8
Layer 1
10
52.000100
20
390.428000
11
88.000100
21
390.428000
0
LINE
8
Layer 1
10
88.000100
20
390.428000
11
88.000100
21
390.428000
0
LINE
8
Layer 1
10
46.800100
20
380.278000
11
46.800100
21
382.078000
0
LINE
8
Layer 1
10
46.800100
20
382.078000
11
46.000100
21
382.078000
0
LINE
8
Layer 1
10
46.000100
20
382.078000
11
46.000100
21
380.278000
0
LINE
8
Layer 1
10
46.000100
20
380.278000
11
46.800100
21
380.278000
0
LINE
8
Layer 1
10
46.800100
20
380.278000
11
46.800100
21
380.278000
0
LINE
8
Layer 1
10
72.975100
20
386.428000
11
72.975100
21
388.928000
0
LINE
8
Layer 1
10
72.975100
20
388.928000
11
70.975100
21
388.928000
0
LINE
8
Layer 1
10
70.975100
20
388.928000
11
70.975100
21
386.428000
0
LINE
8
Layer 1
10
70.975100
20
386.428000
11
72.975100
21
386.428000
0
LINE
8
Layer 1
10
72.975100
20
386.428000
11
72.975100
21
386.428000
0
LINE
8
Layer 1
10
66.975100
20
375.928000
11
66.975100
21
373.428000
0
LINE
8
Layer 1
10
66.975100
20
373.428000
11
68.975100
21
373.428000
0
LINE
8
Layer 1
10
68.975100
20
373.428000
11
68.975100
21
375.928000
0
LINE
8
Layer 1
10
68.975100
20
375.928000
11
66.975100
21
375.928000
0
LINE
8
Layer 1
10
66.975100
20
375.928000
11
66.975100
21
375.928000
0
LINE
8
Layer 1
10
86.200100
20
380.278000
11
87.000100
21
380.278000
0
LINE
8
Layer 1
10
87.000100
20
380.278000
11
87.000100
21
382.078000
0
LINE
8
Layer 1
10
87.000100
20
382.078000
11
86.200100
21
382.078000
0
LINE
8
Layer 1
10
86.200100
20
382.078000
11
86.200100
21
380.278000
0
LINE
8
Layer 1
10
86.200100
20
380.278000
11
86.200100
21
380.278000
0
LINE
8
Layer 1
10
87.599600
20
358.500000
11
87.599600
21
356.700000
0
LINE
8
Layer 1
10
87.599600
20
356.700000
11
86.799600
21
356.700000
0
LINE
8
Layer 1
10
86.799600
20
356.700000
11
86.799600
21
358.500000
0
LINE
8
Layer 1
10
86.799600
20
358.500000
11
87.599600
21
358.500000
0
LINE
8
Layer 1
10
87.599600
20
358.500000
11
87.599600
21
358.500000
0
LINE
8
Layer 1
10
52.599600
20
366.850000
11
51.188854
21
366.707785
0
LINE
8
Layer 1
10
51.188854
20
366.707785
11
49.874881
21
366.299906
0
LINE
8
Layer 1
10
49.874881
20
366.299906
11
48.685830
21
365.654512
0
LINE
8
Layer 1
10
48.685830
20
365.654512
11
47.649850
21
364.799750
0
LINE
8
Layer 1
10
47.649850
20
364.799750
11
46.795088
21
363.763770
0
LINE
8
Layer 1
10
46.795088
20
363.763770
11
46.149694
21
362.574719
0
LINE
8
Layer 1
10
46.149694
20
362.574719
11
45.741815
21
361.260746
0
LINE
8
Layer 1
10
45.741815
20
361.260746
11
45.599600
21
359.850000
0
LINE
8
Layer 1
10
45.599600
20
359.850000
11
45.599600
21
355.350000
0
LINE
8
Layer 1
10
45.599600
20
355.350000
11
45.741815
21
353.939254
0
LINE
8
Layer 1
10
45.741815
20
353.939254
11
46.149694
21
352.625281
0
LINE
8
Layer 1
10
46.149694
20
352.625281
11
46.795088
21
351.436230
0
LINE
8
Layer 1
10
46.795088
20
351.436230
11
47.649850
21
350.400250
0
LINE
8
Layer 1
10
47.649850
20
350.400250
11
48.685830
21
349.545488
0
LINE
8
Layer 1
10
48.685830
20
349.545488
11
49.874881
21
348.900094
0
LINE
8
Layer 1
10
49.874881
20
348.900094
11
51.188854
21
348.492215
0
LINE
8
Layer 1
10
51.188854
20
348.492215
11
52.599600
21
348.350000
0
LINE
8
Layer 1
10
52.599600
20
348.350000
11
88.599600
21
348.350000
0
LINE
8
Layer 1
10
94.599600
20
358.500000
11
94.599600
21
356.700000
0
LINE
8
Layer 1
10
94.599600
20
356.700000
11
93.799600
21
356.700000
0
LINE
8
Layer 1
10
93.799600
20
356.700000
11
93.799600
21
358.500000
0
LINE
8
Layer 1
10
93.799600
20
358.500000
11
94.599600
21
358.500000
0
LINE
8
Layer 1
10
94.599600
20
358.500000
11
94.599600
21
358.500000
0
LINE
8
Layer 1
10
88.599600
20
366.850000
11
52.599600
21
366.850000
0
LINE
8
Layer 1
10
95.599600
20
359.850000
11
95.457385
21
361.260746
0
LINE
8
Layer 1
10
95.457385
20
361.260746
11
95.049506
21
362.574719
0
LINE
8
Layer 1
10
95.049506
20
362.574719
11
94.404112
21
363.763770
0
LINE
8
Layer 1
10
94.404112
20
363.763770
11
93.549350
21
364.799750
0
LINE
8
Layer 1
10
93.549350
20
364.799750
11
92.513370
21
365.654512
0
LINE
8
Layer 1
10
92.513370
20
365.654512
11
91.324319
21
366.299906
0
LINE
8
Layer 1
10
91.324319
20
366.299906
11
90.010346
21
366.707785
0
LINE
8
Layer 1
10
90.010346
20
366.707785
11
88.599600
21
366.850000
0
LINE
8
Layer 1
10
46.599600
20
358.500000
11
47.399600
21
358.500000
0
LINE
8
Layer 1
10
47.399600
20
358.500000
11
47.399600
21
356.700000
0
LINE
8
Layer 1
10
47.399600
20
356.700000
11
46.599600
21
356.700000
0
LINE
8
Layer 1
10
46.599600
20
356.700000
11
46.599600
21
358.500000
0
LINE
8
Layer 1
10
46.599600
20
358.500000
11
46.599600
21
358.500000
0
LINE
8
Layer 1
10
54.399600
20
358.500000
11
54.399600
21
356.700000
0
LINE
8
Layer 1
10
54.399600
20
356.700000
11
53.599600
21
356.700000
0
LINE
8
Layer 1
10
53.599600
20
356.700000
11
53.599600
21
358.500000
0
LINE
8
Layer 1
10
53.599600
20
358.500000
11
54.399600
21
358.500000
0
LINE
8
Layer 1
10
54.399600
20
358.500000
11
54.399600
21
358.500000
0
LINE
8
Layer 1
10
95.599600
20
359.850000
11
95.599600
21
355.350000
0
LINE
8
Layer 1
10
95.599600
20
355.350000
11
95.457385
21
353.939254
0
LINE
8
Layer 1
10
95.457385
20
353.939254
11
95.049506
21
352.625281
0
LINE
8
Layer 1
10
95.049506
20
352.625281
11
94.404112
21
351.436230
0
LINE
8
Layer 1
10
94.404112
20
351.436230
11
93.549350
21
350.400250
0
LINE
8
Layer 1
10
93.549350
20
350.400250
11
92.513370
21
349.545488
0
LINE
8
Layer 1
10
92.513370
20
349.545488
11
91.324319
21
348.900094
0
LINE
8
Layer 1
10
91.324319
20
348.900094
11
90.010346
21
348.492215
0
LINE
8
Layer 1
10
90.010346
20
348.492215
11
88.599600
21
348.350000
0
LINE
8
Layer 1
10
123.000000
20
350.001000
11
125.500000
21
350.001000
0
LINE
8
Layer 1
10
125.500000
20
350.001000
11
125.500000
21
348.001000
0
LINE
8
Layer 1
10
125.500000
20
348.001000
11
110.000000
21
348.001000
0
LINE
8
Layer 1
10
110.000000
20
348.001000
11
110.000000
21
350.001000
0
LINE
8
Layer 1
10
110.000000
20
350.001000
11
112.500000
21
350.001000
0
LINE
8
Layer 1
10
112.500000
20
350.001000
11
112.500000
21
352.001000
0
LINE
8
Layer 1
10
112.500000
20
352.001000
11
110.000000
21
352.001000
0
LINE
8
Layer 1
10
110.000000
20
352.001000
11
110.000000
21
354.001000
0
LINE
8
Layer 1
10
110.000000
20
354.001000
11
112.500000
21
354.001000
0
LINE
8
Layer 1
10
112.500000
20
354.001000
11
112.500000
21
356.001000
0
LINE
8
Layer 1
10
112.500000
20
356.001000
11
110.000000
21
356.001000
0
LINE
8
Layer 1
10
110.000000
20
356.001000
11
110.000000
21
358.001000
0
LINE
8
Layer 1
10
110.000000
20
358.001000
11
125.500000
21
358.001000
0
LINE
8
Layer 1
10
125.500000
20
358.001000
11
125.500000
21
356.001000
0
LINE
8
Layer 1
10
125.500000
20
356.001000
11
123.000000
21
356.001000
0
LINE
8
Layer 1
10
123.000000
20
356.001000
11
123.000000
21
354.001000
0
LINE
8
Layer 1
10
123.000000
20
354.001000
11
125.500000
21
354.001000
0
LINE
8
Layer 1
10
125.500000
20
354.001000
11
125.500000
21
352.001000
0
LINE
8
Layer 1
10
125.500000
20
352.001000
11
123.000000
21
352.001000
0
LINE
8
Layer 1
10
123.000000
20
352.001000
11
123.000000
21
350.001000
0
LINE
8
Layer 1
10
123.000000
20
350.001000
11
123.000000
21
350.001000
0
LINE
8
Layer 1
10
118.040000
20
358.911000
11
118.040000
21
369.411000
0
LINE
8
Layer 1
10
118.040000
20
369.411000
11
124.040000
21
369.411000
0
LINE
8
Layer 1
10
124.040000
20
369.411000
11
124.040000
21
367.311000
0
LINE
8
Layer 1
10
124.040000
20
367.311000
11
126.540000
21
367.311000
0
LINE
8
Layer 1
10
126.540000
20
367.311000
11
126.540000
21
365.211000
0
LINE
8
Layer 1
10
126.540000
20
365.211000
11
124.040000
21
365.211000
0
LINE
8
Layer 1
10
124.040000
20
365.211000
11
124.040000
21
363.111000
0
LINE
8
Layer 1
10
124.040000
20
363.111000
11
126.540000
21
363.111000
0
LINE
8
Layer 1
10
126.540000
20
363.111000
11
126.540000
21
361.011000
0
LINE
8
Layer 1
10
126.540000
20
361.011000
11
124.040000
21
361.011000
0
LINE
8
Layer 1
10
124.040000
20
361.011000
11
124.040000
21
358.911000
0
LINE
8
Layer 1
10
124.040000
20
358.911000
11
118.040000
21
358.911000
0
LINE
8
Layer 1
10
118.040000
20
358.911000
11
118.040000
21
358.911000
0
LINE
8
Layer 1
10
116.791000
20
374.002000
11
119.291000
21
374.002000
0
LINE
8
Layer 1
10
119.291000
20
374.002000
11
119.291000
21
376.002000
0
LINE
8
Layer 1
10
119.291000
20
376.002000
11
116.791000
21
376.002000
0
LINE
8
Layer 1
10
116.791000
20
376.002000
11
116.791000
21
378.002000
0
LINE
8
Layer 1
10
116.791000
20
378.002000
11
119.291000
21
378.002000
0
LINE
8
Layer 1
10
119.291000
20
378.002000
11
119.291000
21
380.002000
0
LINE
8
Layer 1
10
119.291000
20
380.002000
11
122.791000
21
380.002000
0
LINE
8
Layer 1
10
122.791000
20
380.002000
11
122.791000
21
378.002000
0
LINE
8
Layer 1
10
122.791000
20
378.002000
11
125.291000
21
378.002000
0
LINE
8
Layer 1
10
125.291000
20
378.002000
11
125.291000
21
376.002000
0
LINE
8
Layer 1
10
125.291000
20
376.002000
11
122.791000
21
376.002000
0
LINE
8
Layer 1
10
122.791000
20
376.002000
11
122.791000
21
374.002000
0
LINE
8
Layer 1
10
122.791000
20
374.002000
11
125.291000
21
374.002000
0
LINE
8
Layer 1
10
125.291000
20
374.002000
11
125.291000
21
372.002000
0
LINE
8
Layer 1
10
125.291000
20
372.002000
11
122.791000
21
372.002000
0
LINE
8
Layer 1
10
122.791000
20
372.002000
11
122.791000
21
370.002000
0
LINE
8
Layer 1
10
122.791000
20
370.002000
11
119.291000
21
370.002000
0
LINE
8
Layer 1
10
119.291000
20
370.002000
11
119.291000
21
372.002000
0
LINE
8
Layer 1
10
119.291000
20
372.002000
11
116.791000
21
372.002000
0
LINE
8
Layer 1
10
116.791000
20
372.002000
11
116.791000
21
374.002000
0
LINE
8
Layer 1
10
116.791000
20
374.002000
11
116.791000
21
374.002000
0
LINE
8
Layer 1
10
116.791000
20
383.001000
11
119.291000
21
383.001000
0
LINE
8
Layer 1
10
119.291000
20
383.001000
11
119.291000
21
381.001000
0
LINE
8
Layer 1
10
119.291000
20
381.001000
11
122.791000
21
381.001000
0
LINE
8
Layer 1
10
122.791000
20
381.001000
11
122.791000
21
383.001000
0
LINE
8
Layer 1
10
122.791000
20
383.001000
11
125.291000
21
383.001000
0
LINE
8
Layer 1
10
125.291000
20
383.001000
11
125.291000
21
385.001000
0
LINE
8
Layer 1
10
125.291000
20
385.001000
11
122.791000
21
385.001000
0
LINE
8
Layer 1
10
122.791000
20
385.001000
11
122.791000
21
387.001000
0
LINE
8
Layer 1
10
122.791000
20
387.001000
11
125.291000
21
387.001000
0
LINE
8
Layer 1
10
125.291000
20
387.001000
11
125.291000
21
389.001000
0
LINE
8
Layer 1
10
125.291000
20
389.001000
11
122.791000
21
389.001000
0
LINE
8
Layer 1
10
122.791000
20
389.001000
11
122.791000
21
391.001000
0
LINE
8
Layer 1
10
122.791000
20
391.001000
11
119.291000
21
391.001000
0
LINE
8
Layer 1
10
119.291000
20
391.001000
11
119.291000
21
389.001000
0
LINE
8
Layer 1
10
119.291000
20
389.001000
11
116.791000
21
389.001000
0
LINE
8
Layer 1
10
116.791000
20
389.001000
11
116.791000
21
387.001000
0
LINE
8
Layer 1
10
116.791000
20
387.001000
11
119.291000
21
387.001000
0
LINE
8
Layer 1
10
119.291000
20
387.001000
11
119.291000
21
385.001000
0
LINE
8
Layer 1
10
119.291000
20
385.001000
11
116.791000
21
385.001000
0
LINE
8
Layer 1
10
116.791000
20
385.001000
11
116.791000
21
383.001000
0
LINE
8
Layer 1
10
116.791000
20
383.001000
11
116.791000
21
383.001000
0
LINE
8
Layer 1
10
129.919000
20
358.724000
11
129.119000
21
358.724000
0
LINE
8
Layer 1
10
129.119000
20
358.724000
11
129.119000
21
356.924000
0
LINE
8
Layer 1
10
129.119000
20
356.924000
11
129.919000
21
356.924000
0
LINE
8
Layer 1
10
129.919000
20
356.924000
11
129.919000
21
358.724000
0
LINE
8
Layer 1
10
129.919000
20
358.724000
11
129.919000
21
358.724000
0
LINE
8
Layer 1
10
154.144000
20
350.074000
11
156.144000
21
350.074000
0
LINE
8
Layer 1
10
156.144000
20
350.074000
11
156.144000
21
352.574000
0
LINE
8
Layer 1
10
156.144000
20
352.574000
11
154.144000
21
352.574000
0
LINE
8
Layer 1
10
154.144000
20
352.574000
11
154.144000
21
350.074000
0
LINE
8
Layer 1
10
154.144000
20
350.074000
11
154.144000
21
350.074000
0
LINE
8
Layer 1
10
162.144000
20
354.674000
11
164.644000
21
354.674000
0
LINE
8
Layer 1
10
164.644000
20
354.674000
11
164.644000
21
356.774000
0
LINE
8
Layer 1
10
164.644000
20
356.774000
11
162.144000
21
356.774000
0
LINE
8
Layer 1
10
162.144000
20
356.774000
11
162.144000
21
354.674000
0
LINE
8
Layer 1
10
162.144000
20
354.674000
11
162.144000
21
354.674000
0
LINE
8
Layer 1
10
169.319000
20
358.724000
11
170.119000
21
358.724000
0
LINE
8
Layer 1
10
170.119000
20
358.724000
11
170.119000
21
356.924000
0
LINE
8
Layer 1
10
170.119000
20
356.924000
11
169.319000
21
356.924000
0
LINE
8
Layer 1
10
169.319000
20
356.924000
11
169.319000
21
358.724000
0
LINE
8
Layer 1
10
169.319000
20
358.724000
11
169.319000
21
358.724000
0
LINE
8
Layer 1
10
152.144000
20
363.074000
11
152.144000
21
365.574000
0
LINE
8
Layer 1
10
152.144000
20
365.574000
11
150.144000
21
365.574000
0
LINE
8
Layer 1
10
150.144000
20
365.574000
11
150.144000
21
363.074000
0
LINE
8
Layer 1
10
150.144000
20
363.074000
11
152.144000
21
363.074000
0
LINE
8
Layer 1
10
152.144000
20
363.074000
11
152.144000
21
363.074000
0
LINE
8
Layer 1
10
162.144000
20
358.874000
11
164.644000
21
358.874000
0
LINE
8
Layer 1
10
164.644000
20
358.874000
11
164.644000
21
360.974000
0
LINE
8
Layer 1
10
164.644000
20
360.974000
11
162.144000
21
360.974000
0
LINE
8
Layer 1
10
162.144000
20
360.974000
11
162.144000
21
358.874000
0
LINE
8
Layer 1
10
162.144000
20
358.874000
11
162.144000
21
358.874000
0
LINE
8
Layer 1
10
135.119000
20
348.574000
11
133.708254
21
348.716215
0
LINE
8
Layer 1
10
133.708254
20
348.716215
11
132.394281
21
349.124094
0
LINE
8
Layer 1
10
132.394281
20
349.124094
11
131.205230
21
349.769488
0
LINE
8
Layer 1
10
131.205230
20
349.769488
11
130.169250
21
350.624250
0
LINE
8
Layer 1
10
130.169250
20
350.624250
11
129.314488
21
351.660230
0
LINE
8
Layer 1
10
129.314488
20
351.660230
11
128.669094
21
352.849281
0
LINE
8
Layer 1
10
128.669094
20
352.849281
11
128.261215
21
354.163254
0
LINE
8
Layer 1
10
128.261215
20
354.163254
11
128.119000
21
355.574000
0
LINE
8
Layer 1
10
128.119000
20
355.574000
11
128.119000
21
360.074000
0
LINE
8
Layer 1
10
128.119000
20
360.074000
11
128.261215
21
361.484746
0
LINE
8
Layer 1
10
128.261215
20
361.484746
11
128.669094
21
362.798719
0
LINE
8
Layer 1
10
128.669094
20
362.798719
11
129.314488
21
363.987770
0
LINE
8
Layer 1
10
129.314488
20
363.987770
11
130.169250
21
365.023750
0
LINE
8
Layer 1
10
130.169250
20
365.023750
11
131.205230
21
365.878512
0
LINE
8
Layer 1
10
131.205230
20
365.878512
11
132.394281
21
366.523906
0
LINE
8
Layer 1
10
132.394281
20
366.523906
11
133.708254
21
366.931785
0
LINE
8
Layer 1
10
133.708254
20
366.931785
11
135.119000
21
367.074000
0
LINE
8
Layer 1
10
135.119000
20
367.074000
11
171.119000
21
367.074000
0
LINE
8
Layer 1
10
171.119000
20
367.074000
11
172.529746
21
366.931785
0
LINE
8
Layer 1
10
172.529746
20
366.931785
11
173.843719
21
366.523906
0
LINE
8
Layer 1
10
173.843719
20
366.523906
11
175.032770
21
365.878512
0
LINE
8
Layer 1
10
175.032770
20
365.878512
11
176.068750
21
365.023750
0
LINE
8
Layer 1
10
176.068750
20
365.023750
11
176.923512
21
363.987770
0
LINE
8
Layer 1
10
176.923512
20
363.987770
11
177.568906
21
362.798719
0
LINE
8
Layer 1
10
177.568906
20
362.798719
11
177.976785
21
361.484746
0
LINE
8
Layer 1
10
177.976785
20
361.484746
11
178.119000
21
360.074000
0
LINE
8
Layer 1
10
178.119000
20
360.074000
11
178.119000
21
355.574000
0
LINE
8
Layer 1
10
178.119000
20
355.574000
11
177.976785
21
354.163254
0
LINE
8
Layer 1
10
177.976785
20
354.163254
11
177.568906
21
352.849281
0
LINE
8
Layer 1
10
177.568906
20
352.849281
11
176.923512
21
351.660230
0
LINE
8
Layer 1
10
176.923512
20
351.660230
11
176.068750
21
350.624250
0
LINE
8
Layer 1
10
176.068750
20
350.624250
11
175.032770
21
349.769488
0
LINE
8
Layer 1
10
175.032770
20
349.769488
11
173.843719
21
349.124094
0
LINE
8
Layer 1
10
173.843719
20
349.124094
11
172.529746
21
348.716215
0
LINE
8
Layer 1
10
172.529746
20
348.716215
11
171.119000
21
348.574000
0
LINE
8
Layer 1
10
171.119000
20
348.574000
11
135.119000
21
348.574000
0
LINE
8
Layer 1
10
135.119000
20
348.574000
11
135.119000
21
348.574000
0
LINE
8
Layer 1
10
176.319000
20
358.724000
11
176.319000
21
356.924000
0
LINE
8
Layer 1
10
176.319000
20
356.924000
11
177.119000
21
356.924000
0
LINE
8
Layer 1
10
177.119000
20
356.924000
11
177.119000
21
358.724000
0
LINE
8
Layer 1
10
177.119000
20
358.724000
11
176.319000
21
358.724000
0
LINE
8
Layer 1
10
176.319000
20
358.724000
11
176.319000
21
358.724000
0
LINE
8
Layer 1
10
150.144000
20
352.574000
11
150.144000
21
350.074000
0
LINE
8
Layer 1
10
150.144000
20
350.074000
11
152.144000
21
350.074000
0
LINE
8
Layer 1
10
152.144000
20
350.074000
11
152.144000
21
352.574000
0
LINE
8
Layer 1
10
152.144000
20
352.574000
11
150.144000
21
352.574000
0
LINE
8
Layer 1
10
150.144000
20
352.574000
11
150.144000
21
352.574000
0
LINE
8
Layer 1
10
156.144000
20
363.074000
11
156.144000
21
365.574000
0
LINE
8
Layer 1
10
156.144000
20
365.574000
11
154.144000
21
365.574000
0
LINE
8
Layer 1
10
154.144000
20
365.574000
11
154.144000
21
363.074000
0
LINE
8
Layer 1
10
154.144000
20
363.074000
11
156.144000
21
363.074000
0
LINE
8
Layer 1
10
156.144000
20
363.074000
11
156.144000
21
363.074000
0
LINE
8
Layer 1
10
136.919000
20
358.724000
11
136.119000
21
358.724000
0
LINE
8
Layer 1
10
136.119000
20
358.724000
11
136.119000
21
356.924000
0
LINE
8
Layer 1
10
136.119000
20
356.924000
11
136.919000
21
356.924000
0
LINE
8
Layer 1
10
136.919000
20
356.924000
11
136.919000
21
358.724000
0
LINE
8
Layer 1
10
136.919000
20
358.724000
11
136.919000
21
358.724000
0
LINE
8
Layer 1
10
135.520000
20
380.502000
11
135.520000
21
382.302000
0
LINE
8
Layer 1
10
135.520000
20
382.302000
11
136.320000
21
382.302000
0
LINE
8
Layer 1
10
136.320000
20
382.302000
11
136.320000
21
380.502000
0
LINE
8
Layer 1
10
136.320000
20
380.502000
11
135.520000
21
380.502000
0
LINE
8
Layer 1
10
135.520000
20
380.502000
11
135.520000
21
380.502000
0
LINE
8
Layer 1
10
170.520000
20
372.152000
11
171.930746
21
372.294215
0
LINE
8
Layer 1
10
171.930746
20
372.294215
11
173.244719
21
372.702094
0
LINE
8
Layer 1
10
173.244719
20
372.702094
11
174.433770
21
373.347488
0
LINE
8
Layer 1
10
174.433770
20
373.347488
11
175.469750
21
374.202250
0
LINE
8
Layer 1
10
175.469750
20
374.202250
11
176.324512
21
375.238230
0
LINE
8
Layer 1
10
176.324512
20
375.238230
11
176.969906
21
376.427281
0
LINE
8
Layer 1
10
176.969906
20
376.427281
11
177.377785
21
377.741254
0
LINE
8
Layer 1
10
177.377785
20
377.741254
11
177.520000
21
379.152000
0
LINE
8
Layer 1
10
177.520000
20
379.152000
11
177.520000
21
383.652000
0
LINE
8
Layer 1
10
177.520000
20
383.652000
11
177.377785
21
385.062746
0
LINE
8
Layer 1
10
177.377785
20
385.062746
11
176.969906
21
386.376719
0
LINE
8
Layer 1
10
176.969906
20
386.376719
11
176.324512
21
387.565770
0
LINE
8
Layer 1
10
176.324512
20
387.565770
11
175.469750
21
388.601750
0
LINE
8
Layer 1
10
175.469750
20
388.601750
11
174.433770
21
389.456512
0
LINE
8
Layer 1
10
174.433770
20
389.456512
11
173.244719
21
390.101906
0
LINE
8
Layer 1
10
173.244719
20
390.101906
11
171.930746
21
390.509785
0
LINE
8
Layer 1
10
171.930746
20
390.509785
11
170.520000
21
390.652000
0
LINE
8
Layer 1
10
170.520000
20
390.652000
11
134.520000
21
390.652000
0
LINE
8
Layer 1
10
128.520000
20
380.502000
11
128.520000
21
382.302000
0
LINE
8
Layer 1
10
128.520000
20
382.302000
11
129.320000
21
382.302000
0
LINE
8
Layer 1
10
129.320000
20
382.302000
11
129.320000
21
380.502000
0
LINE
8
Layer 1
10
129.320000
20
380.502000
11
128.520000
21
380.502000
0
LINE
8
Layer 1
10
128.520000
20
380.502000
11
128.520000
21
380.502000
0
LINE
8
Layer 1
10
134.520000
20
372.152000
11
170.520000
21
372.152000
0
LINE
8
Layer 1
10
127.520000
20
379.152000
11
127.662215
21
377.741254
0
LINE
8
Layer 1
10
127.662215
20
377.741254
11
128.070094
21
376.427281
0
LINE
8
Layer 1
10
128.070094
20
376.427281
11
128.715488
21
375.238230
0
LINE
8
Layer 1
10
128.715488
20
375.238230
11
129.570250
21
374.202250
0
LINE
8
Layer 1
10
129.570250
20
374.202250
11
130.606230
21
373.347488
0
LINE
8
Layer 1
10
130.606230
20
373.347488
11
131.795281
21
372.702094
0
LINE
8
Layer 1
10
131.795281
20
372.702094
11
133.109254
21
372.294215
0
LINE
8
Layer 1
10
133.109254
20
372.294215
11
134.520000
21
372.152000
0
LINE
8
Layer 1
10
176.520000
20
380.502000
11
175.720000
21
380.502000
0
LINE
8
Layer 1
10
175.720000
20
380.502000
11
175.720000
21
382.302000
0
LINE
8
Layer 1
10
175.720000
20
382.302000
11
176.520000
21
382.302000
0
LINE
8
Layer 1
10
176.520000
20
382.302000
11
176.520000
21
380.502000
0
LINE
8
Layer 1
10
176.520000
20
380.502000
11
176.520000
21
380.502000
0
LINE
8
Layer 1
10
168.720000
20
380.502000
11
168.720000
21
382.302000
0
LINE
8
Layer 1
10
168.720000
20
382.302000
11
169.520000
21
382.302000
0
LINE
8
Layer 1
10
169.520000
20
382.302000
11
169.520000
21
380.502000
0
LINE
8
Layer 1
10
169.520000
20
380.502000
11
168.720000
21
380.502000
0
LINE
8
Layer 1
10
168.720000
20
380.502000
11
168.720000
21
380.502000
0
LINE
8
Layer 1
10
127.520000
20
379.152000
11
127.520000
21
383.652000
0
LINE
8
Layer 1
10
127.520000
20
383.652000
11
127.662215
21
385.062746
0
LINE
8
Layer 1
10
127.662215
20
385.062746
11
128.070094
21
386.376719
0
LINE
8
Layer 1
10
128.070094
20
386.376719
11
128.715488
21
387.565770
0
LINE
8
Layer 1
10
128.715488
20
387.565770
11
129.570250
21
388.601750
0
LINE
8
Layer 1
10
129.570250
20
388.601750
11
130.606230
21
389.456512
0
LINE
8
Layer 1
10
130.606230
20
389.456512
11
131.795281
21
390.101906
0
LINE
8
Layer 1
10
131.795281
20
390.101906
11
133.109254
21
390.509785
0
LINE
8
Layer 1
10
133.109254
20
390.509785
11
134.520000
21
390.652000
0
LINE
8
Layer 1
10
123.000000
20
305.001000
11
125.500000
21
305.001000
0
LINE
8
Layer 1
10
125.500000
20
305.001000
11
125.500000
21
303.001000
0
LINE
8
Layer 1
10
125.500000
20
303.001000
11
110.000000
21
303.001000
0
LINE
8
Layer 1
10
110.000000
20
303.001000
11
110.000000
21
305.001000
0
LINE
8
Layer 1
10
110.000000
20
305.001000
11
112.500000
21
305.001000
0
LINE
8
Layer 1
10
112.500000
20
305.001000
11
112.500000
21
307.001000
0
LINE
8
Layer 1
10
112.500000
20
307.001000
11
110.000000
21
307.001000
0
LINE
8
Layer 1
10
110.000000
20
307.001000
11
110.000000
21
309.001000
0
LINE
8
Layer 1
10
110.000000
20
309.001000
11
112.500000
21
309.001000
0
LINE
8
Layer 1
10
112.500000
20
309.001000
11
112.500000
21
311.001000
0
LINE
8
Layer 1
10
112.500000
20
311.001000
11
110.000000
21
311.001000
0
LINE
8
Layer 1
10
110.000000
20
311.001000
11
110.000000
21
313.001000
0
LINE
8
Layer 1
10
110.000000
20
313.001000
11
125.500000
21
313.001000
0
LINE
8
Layer 1
10
125.500000
20
313.001000
11
125.500000
21
311.001000
0
LINE
8
Layer 1
10
125.500000
20
311.001000
11
123.000000
21
311.001000
0
LINE
8
Layer 1
10
123.000000
20
311.001000
11
123.000000
21
309.001000
0
LINE
8
Layer 1
10
123.000000
20
309.001000
11
125.500000
21
309.001000
0
LINE
8
Layer 1
10
125.500000
20
309.001000
11
125.500000
21
307.001000
0
LINE
8
Layer 1
10
125.500000
20
307.001000
11
123.000000
21
307.001000
0
LINE
8
Layer 1
10
123.000000
20
307.001000
11
123.000000
21
305.001000
0
LINE
8
Layer 1
10
123.000000
20
305.001000
11
123.000000
21
305.001000
0
LINE
8
Layer 1
10
118.040000
20
313.911000
11
118.040000
21
324.411000
0
LINE
8
Layer 1
10
118.040000
20
324.411000
11
124.040000
21
324.411000
0
LINE
8
Layer 1
10
124.040000
20
324.411000
11
124.040000
21
322.311000
0
LINE
8
Layer 1
10
124.040000
20
322.311000
11
126.540000
21
322.311000
0
LINE
8
Layer 1
10
126.540000
20
322.311000
11
126.540000
21
320.211000
0
LINE
8
Layer 1
10
126.540000
20
320.211000
11
124.040000
21
320.211000
0
LINE
8
Layer 1
10
124.040000
20
320.211000
11
124.040000
21
318.111000
0
LINE
8
Layer 1
10
124.040000
20
318.111000
11
126.540000
21
318.111000
0
LINE
8
Layer 1
10
126.540000
20
318.111000
11
126.540000
21
316.011000
0
LINE
8
Layer 1
10
126.540000
20
316.011000
11
124.040000
21
316.011000
0
LINE
8
Layer 1
10
124.040000
20
316.011000
11
124.040000
21
313.911000
0
LINE
8
Layer 1
10
124.040000
20
313.911000
11
118.040000
21
313.911000
0
LINE
8
Layer 1
10
118.040000
20
313.911000
11
118.040000
21
313.911000
0
LINE
8
Layer 1
10
116.791000
20
329.001000
11
119.291000
21
329.001000
0
LINE
8
Layer 1
10
119.291000
20
329.001000
11
119.291000
21
331.001000
0
LINE
8
Layer 1
10
119.291000
20
331.001000
11
116.791000
21
331.001000
0
LINE
8
Layer 1
10
116.791000
20
331.001000
11
116.791000
21
333.001000
0
LINE
8
Layer 1
10
116.791000
20
333.001000
11
119.291000
21
333.001000
0
LINE
8
Layer 1
10
119.291000
20
333.001000
11
119.291000
21
335.001000
0
LINE
8
Layer 1
10
119.291000
20
335.001000
11
122.791000
21
335.001000
0
LINE
8
Layer 1
10
122.791000
20
335.001000
11
122.791000
21
333.001000
0
LINE
8
Layer 1
10
122.791000
20
333.001000
11
125.291000
21
333.001000
0
LINE
8
Layer 1
10
125.291000
20
333.001000
11
125.291000
21
331.001000
0
LINE
8
Layer 1
10
125.291000
20
331.001000
11
122.791000
21
331.001000
0
LINE
8
Layer 1
10
122.791000
20
331.001000
11
122.791000
21
329.001000
0
LINE
8
Layer 1
10
122.791000
20
329.001000
11
125.291000
21
329.001000
0
LINE
8
Layer 1
10
125.291000
20
329.001000
11
125.291000
21
327.001000
0
LINE
8
Layer 1
10
125.291000
20
327.001000
11
122.791000
21
327.001000
0
LINE
8
Layer 1
10
122.791000
20
327.001000
11
122.791000
21
325.001000
0
LINE
8
Layer 1
10
122.791000
20
325.001000
11
119.291000
21
325.001000
0
LINE
8
Layer 1
10
119.291000
20
325.001000
11
119.291000
21
327.001000
0
LINE
8
Layer 1
10
119.291000
20
327.001000
11
116.791000
21
327.001000
0
LINE
8
Layer 1
10
116.791000
20
327.001000
11
116.791000
21
329.001000
0
LINE
8
Layer 1
10
116.791000
20
329.001000
11
116.791000
21
329.001000
0
LINE
8
Layer 1
10
116.791000
20
338.001000
11
119.291000
21
338.001000
0
LINE
8
Layer 1
10
119.291000
20
338.001000
11
119.291000
21
336.001000
0
LINE
8
Layer 1
10
119.291000
20
336.001000
11
122.791000
21
336.001000
0
LINE
8
Layer 1
10
122.791000
20
336.001000
11
122.791000
21
338.001000
0
LINE
8
Layer 1
10
122.791000
20
338.001000
11
125.291000
21
338.001000
0
LINE
8
Layer 1
10
125.291000
20
338.001000
11
125.291000
21
340.001000
0
LINE
8
Layer 1
10
125.291000
20
340.001000
11
122.791000
21
340.001000
0
LINE
8
Layer 1
10
122.791000
20
340.001000
11
122.791000
21
342.001000
0
LINE
8
Layer 1
10
122.791000
20
342.001000
11
125.291000
21
342.001000
0
LINE
8
Layer 1
10
125.291000
20
342.001000
11
125.291000
21
344.001000
0
LINE
8
Layer 1
10
125.291000
20
344.001000
11
122.791000
21
344.001000
0
LINE
8
Layer 1
10
122.791000
20
344.001000
11
122.791000
21
346.001000
0
LINE
8
Layer 1
10
122.791000
20
346.001000
11
119.291000
21
346.001000
0
LINE
8
Layer 1
10
119.291000
20
346.001000
11
119.291000
21
344.001000
0
LINE
8
Layer 1
10
119.291000
20
344.001000
11
116.791000
21
344.001000
0
LINE
8
Layer 1
10
116.791000
20
344.001000
11
116.791000
21
342.001000
0
LINE
8
Layer 1
10
116.791000
20
342.001000
11
119.291000
21
342.001000
0
LINE
8
Layer 1
10
119.291000
20
342.001000
11
119.291000
21
340.001000
0
LINE
8
Layer 1
10
119.291000
20
340.001000
11
116.791000
21
340.001000
0
LINE
8
Layer 1
10
116.791000
20
340.001000
11
116.791000
21
338.001000
0
LINE
8
Layer 1
10
116.791000
20
338.001000
11
116.791000
21
338.001000
0
LINE
8
Layer 1
10
129.919000
20
313.724000
11
129.119000
21
313.724000
0
LINE
8
Layer 1
10
129.119000
20
313.724000
11
129.119000
21
311.924000
0
LINE
8
Layer 1
10
129.119000
20
311.924000
11
129.919000
21
311.924000
0
LINE
8
Layer 1
10
129.919000
20
311.924000
11
129.919000
21
313.724000
0
LINE
8
Layer 1
10
129.919000
20
313.724000
11
129.919000
21
313.724000
0
LINE
8
Layer 1
10
154.144000
20
305.074000
11
156.144000
21
305.074000
0
LINE
8
Layer 1
10
156.144000
20
305.074000
11
156.144000
21
307.574000
0
LINE
8
Layer 1
10
156.144000
20
307.574000
11
154.144000
21
307.574000
0
LINE
8
Layer 1
10
154.144000
20
307.574000
11
154.144000
21
305.074000
0
LINE
8
Layer 1
10
154.144000
20
305.074000
11
154.144000
21
305.074000
0
LINE
8
Layer 1
10
162.144000
20
309.674000
11
164.644000
21
309.674000
0
LINE
8
Layer 1
10
164.644000
20
309.674000
11
164.644000
21
311.774000
0
LINE
8
Layer 1
10
164.644000
20
311.774000
11
162.144000
21
311.774000
0
LINE
8
Layer 1
10
162.144000
20
311.774000
11
162.144000
21
309.674000
0
LINE
8
Layer 1
10
162.144000
20
309.674000
11
162.144000
21
309.674000
0
LINE
8
Layer 1
10
169.319000
20
313.724000
11
170.119000
21
313.724000
0
LINE
8
Layer 1
10
170.119000
20
313.724000
11
170.119000
21
311.924000
0
LINE
8
Layer 1
10
170.119000
20
311.924000
11
169.319000
21
311.924000
0
LINE
8
Layer 1
10
169.319000
20
311.924000
11
169.319000
21
313.724000
0
LINE
8
Layer 1
10
169.319000
20
313.724000
11
169.319000
21
313.724000
0
LINE
8
Layer 1
10
152.144000
20
318.074000
11
152.144000
21
320.574000
0
LINE
8
Layer 1
10
152.144000
20
320.574000
11
150.144000
21
320.574000
0
LINE
8
Layer 1
10
150.144000
20
320.574000
11
150.144000
21
318.074000
0
LINE
8
Layer 1
10
150.144000
20
318.074000
11
152.144000
21
318.074000
0
LINE
8
Layer 1
10
152.144000
20
318.074000
11
152.144000
21
318.074000
0
LINE
8
Layer 1
10
162.144000
20
313.874000
11
164.644000
21
313.874000
0
LINE
8
Layer 1
10
164.644000
20
313.874000
11
164.644000
21
315.974000
0
LINE
8
Layer 1
10
164.644000
20
315.974000
11
162.144000
21
315.974000
0
LINE
8
Layer 1
10
162.144000
20
315.974000
11
162.144000
21
313.874000
0
LINE
8
Layer 1
10
162.144000
20
313.874000
11
162.144000
21
313.874000
0
LINE
8
Layer 1
10
135.119000
20
303.574000
11
133.708254
21
303.716215
0
LINE
8
Layer 1
10
133.708254
20
303.716215
11
132.394281
21
304.124094
0
LINE
8
Layer 1
10
132.394281
20
304.124094
11
131.205230
21
304.769488
0
LINE
8
Layer 1
10
131.205230
20
304.769488
11
130.169250
21
305.624250
0
LINE
8
Layer 1
10
130.169250
20
305.624250
11
129.314488
21
306.660230
0
LINE
8
Layer 1
10
129.314488
20
306.660230
11
128.669094
21
307.849281
0
LINE
8
Layer 1
10
128.669094
20
307.849281
11
128.261215
21
309.163254
0
LINE
8
Layer 1
10
128.261215
20
309.163254
11
128.119000
21
310.574000
0
LINE
8
Layer 1
10
128.119000
20
310.574000
11
128.119000
21
315.074000
0
LINE
8
Layer 1
10
128.119000
20
315.074000
11
128.261215
21
316.484746
0
LINE
8
Layer 1
10
128.261215
20
316.484746
11
128.669094
21
317.798719
0
LINE
8
Layer 1
10
128.669094
20
317.798719
11
129.314488
21
318.987770
0
LINE
8
Layer 1
10
129.314488
20
318.987770
11
130.169250
21
320.023750
0
LINE
8
Layer 1
10
130.169250
20
320.023750
11
131.205230
21
320.878512
0
LINE
8
Layer 1
10
131.205230
20
320.878512
11
132.394281
21
321.523906
0
LINE
8
Layer 1
10
132.394281
20
321.523906
11
133.708254
21
321.931785
0
LINE
8
Layer 1
10
133.708254
20
321.931785
11
135.119000
21
322.074000
0
LINE
8
Layer 1
10
135.119000
20
322.074000
11
171.119000
21
322.074000
0
LINE
8
Layer 1
10
171.119000
20
322.074000
11
172.529746
21
321.931785
0
LINE
8
Layer 1
10
172.529746
20
321.931785
11
173.843719
21
321.523906
0
LINE
8
Layer 1
10
173.843719
20
321.523906
11
175.032770
21
320.878512
0
LINE
8
Layer 1
10
175.032770
20
320.878512
11
176.068750
21
320.023750
0
LINE
8
Layer 1
10
176.068750
20
320.023750
11
176.923512
21
318.987770
0
LINE
8
Layer 1
10
176.923512
20
318.987770
11
177.568906
21
317.798719
0
LINE
8
Layer 1
10
177.568906
20
317.798719
11
177.976785
21
316.484746
0
LINE
8
Layer 1
10
177.976785
20
316.484746
11
178.119000
21
315.074000
0
LINE
8
Layer 1
10
178.119000
20
315.074000
11
178.119000
21
310.574000
0
LINE
8
Layer 1
10
178.119000
20
310.574000
11
177.976785
21
309.163254
0
LINE
8
Layer 1
10
177.976785
20
309.163254
11
177.568906
21
307.849281
0
LINE
8
Layer 1
10
177.568906
20
307.849281
11
176.923512
21
306.660230
0
LINE
8
Layer 1
10
176.923512
20
306.660230
11
176.068750
21
305.624250
0
LINE
8
Layer 1
10
176.068750
20
305.624250
11
175.032770
21
304.769488
0
LINE
8
Layer 1
10
175.032770
20
304.769488
11
173.843719
21
304.124094
0
LINE
8
Layer 1
10
173.843719
20
304.124094
11
172.529746
21
303.716215
0
LINE
8
Layer 1
10
172.529746
20
303.716215
11
171.119000
21
303.574000
0
LINE
8
Layer 1
10
171.119000
20
303.574000
11
135.119000
21
303.574000
0
LINE
8
Layer 1
10
135.119000
20
303.574000
11
135.119000
21
303.574000
0
LINE
8
Layer 1
10
176.319000
20
313.724000
11
176.319000
21
311.924000
0
LINE
8
Layer 1
10
176.319000
20
311.924000
11
177.119000
21
311.924000
0
LINE
8
Layer 1
10
177.119000
20
311.924000
11
177.119000
21
313.724000
0
LINE
8
Layer 1
10
177.119000
20
313.724000
11
176.319000
21
313.724000
0
LINE
8
Layer 1
10
176.319000
20
313.724000
11
176.319000
21
313.724000
0
LINE
8
Layer 1
10
150.144000
20
307.574000
11
150.144000
21
305.074000
0
LINE
8
Layer 1
10
150.144000
20
305.074000
11
152.144000
21
305.074000
0
LINE
8
Layer 1
10
152.144000
20
305.074000
11
152.144000
21
307.574000
0
LINE
8
Layer 1
10
152.144000
20
307.574000
11
150.144000
21
307.574000
0
LINE
8
Layer 1
10
150.144000
20
307.574000
11
150.144000
21
307.574000
0
LINE
8
Layer 1
10
156.144000
20
318.074000
11
156.144000
21
320.574000
0
LINE
8
Layer 1
10
156.144000
20
320.574000
11
154.144000
21
320.574000
0
LINE
8
Layer 1
10
154.144000
20
320.574000
11
154.144000
21
318.074000
0
LINE
8
Layer 1
10
154.144000
20
318.074000
11
156.144000
21
318.074000
0
LINE
8
Layer 1
10
156.144000
20
318.074000
11
156.144000
21
318.074000
0
LINE
8
Layer 1
10
136.919000
20
313.724000
11
136.119000
21
313.724000
0
LINE
8
Layer 1
10
136.119000
20
313.724000
11
136.119000
21
311.924000
0
LINE
8
Layer 1
10
136.119000
20
311.924000
11
136.919000
21
311.924000
0
LINE
8
Layer 1
10
136.919000
20
311.924000
11
136.919000
21
313.724000
0
LINE
8
Layer 1
10
136.919000
20
313.724000
11
136.919000
21
313.724000
0
LINE
8
Layer 1
10
135.520000
20
335.502000
11
135.520000
21
337.302000
0
LINE
8
Layer 1
10
135.520000
20
337.302000
11
136.320000
21
337.302000
0
LINE
8
Layer 1
10
136.320000
20
337.302000
11
136.320000
21
335.502000
0
LINE
8
Layer 1
10
136.320000
20
335.502000
11
135.520000
21
335.502000
0
LINE
8
Layer 1
10
135.520000
20
335.502000
11
135.520000
21
335.502000
0
LINE
8
Layer 1
10
170.520000
20
327.152000
11
171.930746
21
327.294215
0
LINE
8
Layer 1
10
171.930746
20
327.294215
11
173.244719
21
327.702094
0
LINE
8
Layer 1
10
173.244719
20
327.702094
11
174.433770
21
328.347488
0
LINE
8
Layer 1
10
174.433770
20
328.347488
11
175.469750
21
329.202250
0
LINE
8
Layer 1
10
175.469750
20
329.202250
11
176.324512
21
330.238230
0
LINE
8
Layer 1
10
176.324512
20
330.238230
11
176.969906
21
331.427281
0
LINE
8
Layer 1
10
176.969906
20
331.427281
11
177.377785
21
332.741254
0
LINE
8
Layer 1
10
177.377785
20
332.741254
11
177.520000
21
334.152000
0
LINE
8
Layer 1
10
177.520000
20
334.152000
11
177.520000
21
338.652000
0
LINE
8
Layer 1
10
177.520000
20
338.652000
11
177.377785
21
340.062746
0
LINE
8
Layer 1
10
177.377785
20
340.062746
11
176.969906
21
341.376719
0
LINE
8
Layer 1
10
176.969906
20
341.376719
11
176.324512
21
342.565770
0
LINE
8
Layer 1
10
176.324512
20
342.565770
11
175.469750
21
343.601750
0
LINE
8
Layer 1
10
175.469750
20
343.601750
11
174.433770
21
344.456512
0
LINE
8
Layer 1
10
174.433770
20
344.456512
11
173.244719
21
345.101906
0
LINE
8
Layer 1
10
173.244719
20
345.101906
11
171.930746
21
345.509785
0
LINE
8
Layer 1
10
171.930746
20
345.509785
11
170.520000
21
345.652000
0
LINE
8
Layer 1
10
170.520000
20
345.652000
11
134.520000
21
345.652000
0
LINE
8
Layer 1
10
128.520000
20
335.502000
11
128.520000
21
337.302000
0
LINE
8
Layer 1
10
128.520000
20
337.302000
11
129.320000
21
337.302000
0
LINE
8
Layer 1
10
129.320000
20
337.302000
11
129.320000
21
335.502000
0
LINE
8
Layer 1
10
129.320000
20
335.502000
11
128.520000
21
335.502000
0
LINE
8
Layer 1
10
128.520000
20
335.502000
11
128.520000
21
335.502000
0
LINE
8
Layer 1
10
134.520000
20
327.152000
11
170.520000
21
327.152000
0
LINE
8
Layer 1
10
127.520000
20
334.152000
11
127.662215
21
332.741254
0
LINE
8
Layer 1
10
127.662215
20
332.741254
11
128.070094
21
331.427281
0
LINE
8
Layer 1
10
128.070094
20
331.427281
11
128.715488
21
330.238230
0
LINE
8
Layer 1
10
128.715488
20
330.238230
11
129.570250
21
329.202250
0
LINE
8
Layer 1
10
129.570250
20
329.202250
11
130.606230
21
328.347488
0
LINE
8
Layer 1
10
130.606230
20
328.347488
11
131.795281
21
327.702094
0
LINE
8
Layer 1
10
131.795281
20
327.702094
11
133.109254
21
327.294215
0
LINE
8
Layer 1
10
133.109254
20
327.294215
11
134.520000
21
327.152000
0
LINE
8
Layer 1
10
176.520000
20
335.502000
11
175.720000
21
335.502000
0
LINE
8
Layer 1
10
175.720000
20
335.502000
11
175.720000
21
337.302000
0
LINE
8
Layer 1
10
175.720000
20
337.302000
11
176.520000
21
337.302000
0
LINE
8
Layer 1
10
176.520000
20
337.302000
11
176.520000
21
335.502000
0
LINE
8
Layer 1
10
176.520000
20
335.502000
11
176.520000
21
335.502000
0
LINE
8
Layer 1
10
168.720000
20
335.502000
11
168.720000
21
337.302000
0
LINE
8
Layer 1
10
168.720000
20
337.302000
11
169.520000
21
337.302000
0
LINE
8
Layer 1
10
169.520000
20
337.302000
11
169.520000
21
335.502000
0
LINE
8
Layer 1
10
169.520000
20
335.502000
11
168.720000
21
335.502000
0
LINE
8
Layer 1
10
168.720000
20
335.502000
11
168.720000
21
335.502000
0
LINE
8
Layer 1
10
127.520000
20
334.152000
11
127.520000
21
338.652000
0
LINE
8
Layer 1
10
127.520000
20
338.652000
11
127.662215
21
340.062746
0
LINE
8
Layer 1
10
127.662215
20
340.062746
11
128.070094
21
341.376719
0
LINE
8
Layer 1
10
128.070094
20
341.376719
11
128.715488
21
342.565770
0
LINE
8
Layer 1
10
128.715488
20
342.565770
11
129.570250
21
343.601750
0
LINE
8
Layer 1
10
129.570250
20
343.601750
11
130.606230
21
344.456512
0
LINE
8
Layer 1
10
130.606230
20
344.456512
11
131.795281
21
345.101906
0
LINE
8
Layer 1
10
131.795281
20
345.101906
11
133.109254
21
345.509785
0
LINE
8
Layer 1
10
133.109254
20
345.509785
11
134.520000
21
345.652000
0
LINE
8
Layer 1
10
123.000000
20
260.001000
11
125.500000
21
260.001000
0
LINE
8
Layer 1
10
125.500000
20
260.001000
11
125.500000
21
258.001000
0
LINE
8
Layer 1
10
125.500000
20
258.001000
11
110.000000
21
258.001000
0
LINE
8
Layer 1
10
110.000000
20
258.001000
11
110.000000
21
260.001000
0
LINE
8
Layer 1
10
110.000000
20
260.001000
11
112.500000
21
260.001000
0
LINE
8
Layer 1
10
112.500000
20
260.001000
11
112.500000
21
262.001000
0
LINE
8
Layer 1
10
112.500000
20
262.001000
11
110.000000
21
262.001000
0
LINE
8
Layer 1
10
110.000000
20
262.001000
11
110.000000
21
264.001000
0
LINE
8
Layer 1
10
110.000000
20
264.001000
11
112.500000
21
264.001000
0
LINE
8
Layer 1
10
112.500000
20
264.001000
11
112.500000
21
266.001000
0
LINE
8
Layer 1
10
112.500000
20
266.001000
11
110.000000
21
266.001000
0
LINE
8
Layer 1
10
110.000000
20
266.001000
11
110.000000
21
268.001000
0
LINE
8
Layer 1
10
110.000000
20
268.001000
11
125.500000
21
268.001000
0
LINE
8
Layer 1
10
125.500000
20
268.001000
11
125.500000
21
266.001000
0
LINE
8
Layer 1
10
125.500000
20
266.001000
11
123.000000
21
266.001000
0
LINE
8
Layer 1
10
123.000000
20
266.001000
11
123.000000
21
264.001000
0
LINE
8
Layer 1
10
123.000000
20
264.001000
11
125.500000
21
264.001000
0
LINE
8
Layer 1
10
125.500000
20
264.001000
11
125.500000
21
262.001000
0
LINE
8
Layer 1
10
125.500000
20
262.001000
11
123.000000
21
262.001000
0
LINE
8
Layer 1
10
123.000000
20
262.001000
11
123.000000
21
260.001000
0
LINE
8
Layer 1
10
123.000000
20
260.001000
11
123.000000
21
260.001000
0
LINE
8
Layer 1
10
118.040000
20
268.911000
11
118.040000
21
279.411000
0
LINE
8
Layer 1
10
118.040000
20
279.411000
11
124.040000
21
279.411000
0
LINE
8
Layer 1
10
124.040000
20
279.411000
11
124.040000
21
277.311000
0
LINE
8
Layer 1
10
124.040000
20
277.311000
11
126.540000
21
277.311000
0
LINE
8
Layer 1
10
126.540000
20
277.311000
11
126.540000
21
275.211000
0
LINE
8
Layer 1
10
126.540000
20
275.211000
11
124.040000
21
275.211000
0
LINE
8
Layer 1
10
124.040000
20
275.211000
11
124.040000
21
273.111000
0
LINE
8
Layer 1
10
124.040000
20
273.111000
11
126.540000
21
273.111000
0
LINE
8
Layer 1
10
126.540000
20
273.111000
11
126.540000
21
271.011000
0
LINE
8
Layer 1
10
126.540000
20
271.011000
11
124.040000
21
271.011000
0
LINE
8
Layer 1
10
124.040000
20
271.011000
11
124.040000
21
268.911000
0
LINE
8
Layer 1
10
124.040000
20
268.911000
11
118.040000
21
268.911000
0
LINE
8
Layer 1
10
118.040000
20
268.911000
11
118.040000
21
268.911000
0
LINE
8
Layer 1
10
116.791000
20
284.001000
11
119.291000
21
284.001000
0
LINE
8
Layer 1
10
119.291000
20
284.001000
11
119.291000
21
286.001000
0
LINE
8
Layer 1
10
119.291000
20
286.001000
11
116.791000
21
286.001000
0
LINE
8
Layer 1
10
116.791000
20
286.001000
11
116.791000
21
288.001000
0
LINE
8
Layer 1
10
116.791000
20
288.001000
11
119.291000
21
288.001000
0
LINE
8
Layer 1
10
119.291000
20
288.001000
11
119.291000
21
290.001000
0
LINE
8
Layer 1
10
119.291000
20
290.001000
11
122.791000
21
290.001000
0
LINE
8
Layer 1
10
122.791000
20
290.001000
11
122.791000
21
288.001000
0
LINE
8
Layer 1
10
122.791000
20
288.001000
11
125.291000
21
288.001000
0
LINE
8
Layer 1
10
125.291000
20
288.001000
11
125.291000
21
286.001000
0
LINE
8
Layer 1
10
125.291000
20
286.001000
11
122.791000
21
286.001000
0
LINE
8
Layer 1
10
122.791000
20
286.001000
11
122.791000
21
284.001000
0
LINE
8
Layer 1
10
122.791000
20
284.001000
11
125.291000
21
284.001000
0
LINE
8
Layer 1
10
125.291000
20
284.001000
11
125.291000
21
282.001000
0
LINE
8
Layer 1
10
125.291000
20
282.001000
11
122.791000
21
282.001000
0
LINE
8
Layer 1
10
122.791000
20
282.001000
11
122.791000
21
280.001000
0
LINE
8
Layer 1
10
122.791000
20
280.001000
11
119.291000
21
280.001000
0
LINE
8
Layer 1
10
119.291000
20
280.001000
11
119.291000
21
282.001000
0
LINE
8
Layer 1
10
119.291000
20
282.001000
11
116.791000
21
282.001000
0
LINE
8
Layer 1
10
116.791000
20
282.001000
11
116.791000
21
284.001000
0
LINE
8
Layer 1
10
116.791000
20
284.001000
11
116.791000
21
284.001000
0
LINE
8
Layer 1
10
116.791000
20
293.001000
11
119.291000
21
293.001000
0
LINE
8
Layer 1
10
119.291000
20
293.001000
11
119.291000
21
291.001000
0
LINE
8
Layer 1
10
119.291000
20
291.001000
11
122.791000
21
291.001000
0
LINE
8
Layer 1
10
122.791000
20
291.001000
11
122.791000
21
293.001000
0
LINE
8
Layer 1
10
122.791000
20
293.001000
11
125.291000
21
293.001000
0
LINE
8
Layer 1
10
125.291000
20
293.001000
11
125.291000
21
295.001000
0
LINE
8
Layer 1
10
125.291000
20
295.001000
11
122.791000
21
295.001000
0
LINE
8
Layer 1
10
122.791000
20
295.001000
11
122.791000
21
297.001000
0
LINE
8
Layer 1
10
122.791000
20
297.001000
11
125.291000
21
297.001000
0
LINE
8
Layer 1
10
125.291000
20
297.001000
11
125.291000
21
299.001000
0
LINE
8
Layer 1
10
125.291000
20
299.001000
11
122.791000
21
299.001000
0
LINE
8
Layer 1
10
122.791000
20
299.001000
11
122.791000
21
301.001000
0
LINE
8
Layer 1
10
122.791000
20
301.001000
11
119.291000
21
301.001000
0
LINE
8
Layer 1
10
119.291000
20
301.001000
11
119.291000
21
299.001000
0
LINE
8
Layer 1
10
119.291000
20
299.001000
11
116.791000
21
299.001000
0
LINE
8
Layer 1
10
116.791000
20
299.001000
11
116.791000
21
297.001000
0
LINE
8
Layer 1
10
116.791000
20
297.001000
11
119.291000
21
297.001000
0
LINE
8
Layer 1
10
119.291000
20
297.001000
11
119.291000
21
295.001000
0
LINE
8
Layer 1
10
119.291000
20
295.001000
11
116.791000
21
295.001000
0
LINE
8
Layer 1
10
116.791000
20
295.001000
11
116.791000
21
293.001000
0
LINE
8
Layer 1
10
116.791000
20
293.001000
11
116.791000
21
293.001000
0
LINE
8
Layer 1
10
129.918000
20
268.724000
11
129.118000
21
268.724000
0
LINE
8
Layer 1
10
129.118000
20
268.724000
11
129.118000
21
266.924000
0
LINE
8
Layer 1
10
129.118000
20
266.924000
11
129.918000
21
266.924000
0
LINE
8
Layer 1
10
129.918000
20
266.924000
11
129.918000
21
268.724000
0
LINE
8
Layer 1
10
129.918000
20
268.724000
11
129.918000
21
268.724000
0
LINE
8
Layer 1
10
154.143000
20
260.074000
11
156.143000
21
260.074000
0
LINE
8
Layer 1
10
156.143000
20
260.074000
11
156.143000
21
262.574000
0
LINE
8
Layer 1
10
156.143000
20
262.574000
11
154.143000
21
262.574000
0
LINE
8
Layer 1
10
154.143000
20
262.574000
11
154.143000
21
260.074000
0
LINE
8
Layer 1
10
154.143000
20
260.074000
11
154.143000
21
260.074000
0
LINE
8
Layer 1
10
162.143000
20
264.674000
11
164.643000
21
264.674000
0
LINE
8
Layer 1
10
164.643000
20
264.674000
11
164.643000
21
266.774000
0
LINE
8
Layer 1
10
164.643000
20
266.774000
11
162.143000
21
266.774000
0
LINE
8
Layer 1
10
162.143000
20
266.774000
11
162.143000
21
264.674000
0
LINE
8
Layer 1
10
162.143000
20
264.674000
11
162.143000
21
264.674000
0
LINE
8
Layer 1
10
169.318000
20
268.724000
11
170.118000
21
268.724000
0
LINE
8
Layer 1
10
170.118000
20
268.724000
11
170.118000
21
266.924000
0
LINE
8
Layer 1
10
170.118000
20
266.924000
11
169.318000
21
266.924000
0
LINE
8
Layer 1
10
169.318000
20
266.924000
11
169.318000
21
268.724000
0
LINE
8
Layer 1
10
169.318000
20
268.724000
11
169.318000
21
268.724000
0
LINE
8
Layer 1
10
152.143000
20
273.074000
11
152.143000
21
275.574000
0
LINE
8
Layer 1
10
152.143000
20
275.574000
11
150.143000
21
275.574000
0
LINE
8
Layer 1
10
150.143000
20
275.574000
11
150.143000
21
273.074000
0
LINE
8
Layer 1
10
150.143000
20
273.074000
11
152.143000
21
273.074000
0
LINE
8
Layer 1
10
152.143000
20
273.074000
11
152.143000
21
273.074000
0
LINE
8
Layer 1
10
162.143000
20
268.874000
11
164.643000
21
268.874000
0
LINE
8
Layer 1
10
164.643000
20
268.874000
11
164.643000
21
270.974000
0
LINE
8
Layer 1
10
164.643000
20
270.974000
11
162.143000
21
270.974000
0
LINE
8
Layer 1
10
162.143000
20
270.974000
11
162.143000
21
268.874000
0
LINE
8
Layer 1
10
162.143000
20
268.874000
11
162.143000
21
268.874000
0
LINE
8
Layer 1
10
135.118000
20
258.574000
11
133.707254
21
258.716215
0
LINE
8
Layer 1
10
133.707254
20
258.716215
11
132.393281
21
259.124094
0
LINE
8
Layer 1
10
132.393281
20
259.124094
11
131.204230
21
259.769488
0
LINE
8
Layer 1
10
131.204230
20
259.769488
11
130.168250
21
260.624250
0
LINE
8
Layer 1
10
130.168250
20
260.624250
11
129.313488
21
261.660230
0
LINE
8
Layer 1
10
129.313488
20
261.660230
11
128.668094
21
262.849281
0
LINE
8
Layer 1
10
128.668094
20
262.849281
11
128.260215
21
264.163254
0
LINE
8
Layer 1
10
128.260215
20
264.163254
11
128.118000
21
265.574000
0
LINE
8
Layer 1
10
128.118000
20
265.574000
11
128.118000
21
270.074000
0
LINE
8
Layer 1
10
128.118000
20
270.074000
11
128.260215
21
271.484746
0
LINE
8
Layer 1
10
128.260215
20
271.484746
11
128.668094
21
272.798719
0
LINE
8
Layer 1
10
128.668094
20
272.798719
11
129.313488
21
273.987770
0
LINE
8
Layer 1
10
129.313488
20
273.987770
11
130.168250
21
275.023750
0
LINE
8
Layer 1
10
130.168250
20
275.023750
11
131.204230
21
275.878512
0
LINE
8
Layer 1
10
131.204230
20
275.878512
11
132.393281
21
276.523906
0
LINE
8
Layer 1
10
132.393281
20
276.523906
11
133.707254
21
276.931785
0
LINE
8
Layer 1
10
133.707254
20
276.931785
11
135.118000
21
277.074000
0
LINE
8
Layer 1
10
135.118000
20
277.074000
11
171.118000
21
277.074000
0
LINE
8
Layer 1
10
171.118000
20
277.074000
11
172.528746
21
276.931785
0
LINE
8
Layer 1
10
172.528746
20
276.931785
11
173.842719
21
276.523906
0
LINE
8
Layer 1
10
173.842719
20
276.523906
11
175.031770
21
275.878512
0
LINE
8
Layer 1
10
175.031770
20
275.878512
11
176.067750
21
275.023750
0
LINE
8
Layer 1
10
176.067750
20
275.023750
11
176.922512
21
273.987770
0
LINE
8
Layer 1
10
176.922512
20
273.987770
11
177.567906
21
272.798719
0
LINE
8
Layer 1
10
177.567906
20
272.798719
11
177.975785
21
271.484746
0
LINE
8
Layer 1
10
177.975785
20
271.484746
11
178.118000
21
270.074000
0
LINE
8
Layer 1
10
178.118000
20
270.074000
11
178.118000
21
265.574000
0
LINE
8
Layer 1
10
178.118000
20
265.574000
11
177.975785
21
264.163254
0
LINE
8
Layer 1
10
177.975785
20
264.163254
11
177.567906
21
262.849281
0
LINE
8
Layer 1
10
177.567906
20
262.849281
11
176.922512
21
261.660230
0
LINE
8
Layer 1
10
176.922512
20
261.660230
11
176.067750
21
260.624250
0
LINE
8
Layer 1
10
176.067750
20
260.624250
11
175.031770
21
259.769488
0
LINE
8
Layer 1
10
175.031770
20
259.769488
11
173.842719
21
259.124094
0
LINE
8
Layer 1
10
173.842719
20
259.124094
11
172.528746
21
258.716215
0
LINE
8
Layer 1
10
172.528746
20
258.716215
11
171.118000
21
258.574000
0
LINE
8
Layer 1
10
171.118000
20
258.574000
11
135.118000
21
258.574000
0
LINE
8
Layer 1
10
135.118000
20
258.574000
11
135.118000
21
258.574000
0
LINE
8
Layer 1
10
176.318000
20
268.724000
11
176.318000
21
266.924000
0
LINE
8
Layer 1
10
176.318000
20
266.924000
11
177.118000
21
266.924000
0
LINE
8
Layer 1
10
177.118000
20
266.924000
11
177.118000
21
268.724000
0
LINE
8
Layer 1
10
177.118000
20
268.724000
11
176.318000
21
268.724000
0
LINE
8
Layer 1
10
176.318000
20
268.724000
11
176.318000
21
268.724000
0
LINE
8
Layer 1
10
150.143000
20
262.574000
11
150.143000
21
260.074000
0
LINE
8
Layer 1
10
150.143000
20
260.074000
11
152.143000
21
260.074000
0
LINE
8
Layer 1
10
152.143000
20
260.074000
11
152.143000
21
262.574000
0
LINE
8
Layer 1
10
152.143000
20
262.574000
11
150.143000
21
262.574000
0
LINE
8
Layer 1
10
150.143000
20
262.574000
11
150.143000
21
262.574000
0
LINE
8
Layer 1
10
156.143000
20
273.074000
11
156.143000
21
275.574000
0
LINE
8
Layer 1
10
156.143000
20
275.574000
11
154.143000
21
275.574000
0
LINE
8
Layer 1
10
154.143000
20
275.574000
11
154.143000
21
273.074000
0
LINE
8
Layer 1
10
154.143000
20
273.074000
11
156.143000
21
273.074000
0
LINE
8
Layer 1
10
156.143000
20
273.074000
11
156.143000
21
273.074000
0
LINE
8
Layer 1
10
136.918000
20
268.724000
11
136.118000
21
268.724000
0
LINE
8
Layer 1
10
136.118000
20
268.724000
11
136.118000
21
266.924000
0
LINE
8
Layer 1
10
136.118000
20
266.924000
11
136.918000
21
266.924000
0
LINE
8
Layer 1
10
136.918000
20
266.924000
11
136.918000
21
268.724000
0
LINE
8
Layer 1
10
136.918000
20
268.724000
11
136.918000
21
268.724000
0
LINE
8
Layer 1
10
135.519000
20
290.502000
11
135.519000
21
292.302000
0
LINE
8
Layer 1
10
135.519000
20
292.302000
11
136.319000
21
292.302000
0
LINE
8
Layer 1
10
136.319000
20
292.302000
11
136.319000
21
290.502000
0
LINE
8
Layer 1
10
136.319000
20
290.502000
11
135.519000
21
290.502000
0
LINE
8
Layer 1
10
135.519000
20
290.502000
11
135.519000
21
290.502000
0
LINE
8
Layer 1
10
170.519000
20
282.152000
11
171.929746
21
282.294215
0
LINE
8
Layer 1
10
171.929746
20
282.294215
11
173.243719
21
282.702094
0
LINE
8
Layer 1
10
173.243719
20
282.702094
11
174.432770
21
283.347488
0
LINE
8
Layer 1
10
174.432770
20
283.347488
11
175.468750
21
284.202250
0
LINE
8
Layer 1
10
175.468750
20
284.202250
11
176.323512
21
285.238230
0
LINE
8
Layer 1
10
176.323512
20
285.238230
11
176.968906
21
286.427281
0
LINE
8
Layer 1
10
176.968906
20
286.427281
11
177.376785
21
287.741254
0
LINE
8
Layer 1
10
177.376785
20
287.741254
11
177.519000
21
289.152000
0
LINE
8
Layer 1
10
177.519000
20
289.152000
11
177.519000
21
293.652000
0
LINE
8
Layer 1
10
177.519000
20
293.652000
11
177.376785
21
295.062746
0
LINE
8
Layer 1
10
177.376785
20
295.062746
11
176.968906
21
296.376719
0
LINE
8
Layer 1
10
176.968906
20
296.376719
11
176.323512
21
297.565770
0
LINE
8
Layer 1
10
176.323512
20
297.565770
11
175.468750
21
298.601750
0
LINE
8
Layer 1
10
175.468750
20
298.601750
11
174.432770
21
299.456512
0
LINE
8
Layer 1
10
174.432770
20
299.456512
11
173.243719
21
300.101906
0
LINE
8
Layer 1
10
173.243719
20
300.101906
11
171.929746
21
300.509785
0
LINE
8
Layer 1
10
171.929746
20
300.509785
11
170.519000
21
300.652000
0
LINE
8
Layer 1
10
170.519000
20
300.652000
11
134.519000
21
300.652000
0
LINE
8
Layer 1
10
128.519000
20
290.502000
11
128.519000
21
292.302000
0
LINE
8
Layer 1
10
128.519000
20
292.302000
11
129.319000
21
292.302000
0
LINE
8
Layer 1
10
129.319000
20
292.302000
11
129.319000
21
290.502000
0
LINE
8
Layer 1
10
129.319000
20
290.502000
11
128.519000
21
290.502000
0
LINE
8
Layer 1
10
128.519000
20
290.502000
11
128.519000
21
290.502000
0
LINE
8
Layer 1
10
134.519000
20
282.152000
11
170.519000
21
282.152000
0
LINE
8
Layer 1
10
127.519000
20
289.152000
11
127.661215
21
287.741254
0
LINE
8
Layer 1
10
127.661215
20
287.741254
11
128.069094
21
286.427281
0
LINE
8
Layer 1
10
128.069094
20
286.427281
11
128.714488
21
285.238230
0
LINE
8
Layer 1
10
128.714488
20
285.238230
11
129.569250
21
284.202250
0
LINE
8
Layer 1
10
129.569250
20
284.202250
11
130.605230
21
283.347488
0
LINE
8
Layer 1
10
130.605230
20
283.347488
11
131.794281
21
282.702094
0
LINE
8
Layer 1
10
131.794281
20
282.702094
11
133.108254
21
282.294215
0
LINE
8
Layer 1
10
133.108254
20
282.294215
11
134.519000
21
282.152000
0
LINE
8
Layer 1
10
176.519000
20
290.502000
11
175.719000
21
290.502000
0
LINE
8
Layer 1
10
175.719000
20
290.502000
11
175.719000
21
292.302000
0
LINE
8
Layer 1
10
175.719000
20
292.302000
11
176.519000
21
292.302000
0
LINE
8
Layer 1
10
176.519000
20
292.302000
11
176.519000
21
290.502000
0
LINE
8
Layer 1
10
176.519000
20
290.502000
11
176.519000
21
290.502000
0
LINE
8
Layer 1
10
168.719000
20
290.502000
11
168.719000
21
292.302000
0
LINE
8
Layer 1
10
168.719000
20
292.302000
11
169.519000
21
292.302000
0
LINE
8
Layer 1
10
169.519000
20
292.302000
11
169.519000
21
290.502000
0
LINE
8
Layer 1
10
169.519000
20
290.502000
11
168.719000
21
290.502000
0
LINE
8
Layer 1
10
168.719000
20
290.502000
11
168.719000
21
290.502000
0
LINE
8
Layer 1
10
127.519000
20
289.152000
11
127.519000
21
293.652000
0
LINE
8
Layer 1
10
127.519000
20
293.652000
11
127.661215
21
295.062746
0
LINE
8
Layer 1
10
127.661215
20
295.062746
11
128.069094
21
296.376719
0
LINE
8
Layer 1
10
128.069094
20
296.376719
11
128.714488
21
297.565770
0
LINE
8
Layer 1
10
128.714488
20
297.565770
11
129.569250
21
298.601750
0
LINE
8
Layer 1
10
129.569250
20
298.601750
11
130.605230
21
299.456512
0
LINE
8
Layer 1
10
130.605230
20
299.456512
11
131.794281
21
300.101906
0
LINE
8
Layer 1
10
131.794281
20
300.101906
11
133.108254
21
300.509785
0
LINE
8
Layer 1
10
133.108254
20
300.509785
11
134.519000
21
300.652000
0
LINE
8
Layer 1
10
123.000000
20
215.001000
11
125.500000
21
215.001000
0
LINE
8
Layer 1
10
125.500000
20
215.001000
11
125.500000
21
213.001000
0
LINE
8
Layer 1
10
125.500000
20
213.001000
11
110.000000
21
213.001000
0
LINE
8
Layer 1
10
110.000000
20
213.001000
11
110.000000
21
215.001000
0
LINE
8
Layer 1
10
110.000000
20
215.001000
11
112.500000
21
215.001000
0
LINE
8
Layer 1
10
112.500000
20
215.001000
11
112.500000
21
217.001000
0
LINE
8
Layer 1
10
112.500000
20
217.001000
11
110.000000
21
217.001000
0
LINE
8
Layer 1
10
110.000000
20
217.001000
11
110.000000
21
219.001000
0
LINE
8
Layer 1
10
110.000000
20
219.001000
11
112.500000
21
219.001000
0
LINE
8
Layer 1
10
112.500000
20
219.001000
11
112.500000
21
221.001000
0
LINE
8
Layer 1
10
112.500000
20
221.001000
11
110.000000
21
221.001000
0
LINE
8
Layer 1
10
110.000000
20
221.001000
11
110.000000
21
223.001000
0
LINE
8
Layer 1
10
110.000000
20
223.001000
11
125.500000
21
223.001000
0
LINE
8
Layer 1
10
125.500000
20
223.001000
11
125.500000
21
221.001000
0
LINE
8
Layer 1
10
125.500000
20
221.001000
11
123.000000
21
221.001000
0
LINE
8
Layer 1
10
123.000000
20
221.001000
11
123.000000
21
219.001000
0
LINE
8
Layer 1
10
123.000000
20
219.001000
11
125.500000
21
219.001000
0
LINE
8
Layer 1
10
125.500000
20
219.001000
11
125.500000
21
217.001000
0
LINE
8
Layer 1
10
125.500000
20
217.001000
11
123.000000
21
217.001000
0
LINE
8
Layer 1
10
123.000000
20
217.001000
11
123.000000
21
215.001000
0
LINE
8
Layer 1
10
123.000000
20
215.001000
11
123.000000
21
215.001000
0
LINE
8
Layer 1
10
118.040000
20
223.911000
11
118.040000
21
234.411000
0
LINE
8
Layer 1
10
118.040000
20
234.411000
11
124.040000
21
234.411000
0
LINE
8
Layer 1
10
124.040000
20
234.411000
11
124.040000
21
232.311000
0
LINE
8
Layer 1
10
124.040000
20
232.311000
11
126.540000
21
232.311000
0
LINE
8
Layer 1
10
126.540000
20
232.311000
11
126.540000
21
230.211000
0
LINE
8
Layer 1
10
126.540000
20
230.211000
11
124.040000
21
230.211000
0
LINE
8
Layer 1
10
124.040000
20
230.211000
11
124.040000
21
228.111000
0
LINE
8
Layer 1
10
124.040000
20
228.111000
11
126.540000
21
228.111000
0
LINE
8
Layer 1
10
126.540000
20
228.111000
11
126.540000
21
226.011000
0
LINE
8
Layer 1
10
126.540000
20
226.011000
11
124.040000
21
226.011000
0
LINE
8
Layer 1
10
124.040000
20
226.011000
11
124.040000
21
223.911000
0
LINE
8
Layer 1
10
124.040000
20
223.911000
11
118.040000
21
223.911000
0
LINE
8
Layer 1
10
118.040000
20
223.911000
11
118.040000
21
223.911000
0
LINE
8
Layer 1
10
116.791000
20
239.001000
11
119.291000
21
239.001000
0
LINE
8
Layer 1
10
119.291000
20
239.001000
11
119.291000
21
241.001000
0
LINE
8
Layer 1
10
119.291000
20
241.001000
11
116.791000
21
241.001000
0
LINE
8
Layer 1
10
116.791000
20
241.001000
11
116.791000
21
243.001000
0
LINE
8
Layer 1
10
116.791000
20
243.001000
11
119.291000
21
243.001000
0
LINE
8
Layer 1
10
119.291000
20
243.001000
11
119.291000
21
245.001000
0
LINE
8
Layer 1
10
119.291000
20
245.001000
11
122.791000
21
245.001000
0
LINE
8
Layer 1
10
122.791000
20
245.001000
11
122.791000
21
243.001000
0
LINE
8
Layer 1
10
122.791000
20
243.001000
11
125.291000
21
243.001000
0
LINE
8
Layer 1
10
125.291000
20
243.001000
11
125.291000
21
241.001000
0
LINE
8
Layer 1
10
125.291000
20
241.001000
11
122.791000
21
241.001000
0
LINE
8
Layer 1
10
122.791000
20
241.001000
11
122.791000
21
239.001000
0
LINE
8
Layer 1
10
122.791000
20
239.001000
11
125.291000
21
239.001000
0
LINE
8
Layer 1
10
125.291000
20
239.001000
11
125.291000
21
237.001000
0
LINE
8
Layer 1
10
125.291000
20
237.001000
11
122.791000
21
237.001000
0
LINE
8
Layer 1
10
122.791000
20
237.001000
11
122.791000
21
235.001000
0
LINE
8
Layer 1
10
122.791000
20
235.001000
11
119.291000
21
235.001000
0
LINE
8
Layer 1
10
119.291000
20
235.001000
11
119.291000
21
237.001000
0
LINE
8
Layer 1
10
119.291000
20
237.001000
11
116.791000
21
237.001000
0
LINE
8
Layer 1
10
116.791000
20
237.001000
11
116.791000
21
239.001000
0
LINE
8
Layer 1
10
116.791000
20
239.001000
11
116.791000
21
239.001000
0
LINE
8
Layer 1
10
116.791000
20
248.001000
11
119.291000
21
248.001000
0
LINE
8
Layer 1
10
119.291000
20
248.001000
11
119.291000
21
246.001000
0
LINE
8
Layer 1
10
119.291000
20
246.001000
11
122.791000
21
246.001000
0
LINE
8
Layer 1
10
122.791000
20
246.001000
11
122.791000
21
248.001000
0
LINE
8
Layer 1
10
122.791000
20
248.001000
11
125.291000
21
248.001000
0
LINE
8
Layer 1
10
125.291000
20
248.001000
11
125.291000
21
250.001000
0
LINE
8
Layer 1
10
125.291000
20
250.001000
11
122.791000
21
250.001000
0
LINE
8
Layer 1
10
122.791000
20
250.001000
11
122.791000
21
252.001000
0
LINE
8
Layer 1
10
122.791000
20
252.001000
11
125.291000
21
252.001000
0
LINE
8
Layer 1
10
125.291000
20
252.001000
11
125.291000
21
254.001000
0
LINE
8
Layer 1
10
125.291000
20
254.001000
11
122.791000
21
254.001000
0
LINE
8
Layer 1
10
122.791000
20
254.001000
11
122.791000
21
256.001000
0
LINE
8
Layer 1
10
122.791000
20
256.001000
11
119.291000
21
256.001000
0
LINE
8
Layer 1
10
119.291000
20
256.001000
11
119.291000
21
254.001000
0
LINE
8
Layer 1
10
119.291000
20
254.001000
11
116.791000
21
254.001000
0
LINE
8
Layer 1
10
116.791000
20
254.001000
11
116.791000
21
252.001000
0
LINE
8
Layer 1
10
116.791000
20
252.001000
11
119.291000
21
252.001000
0
LINE
8
Layer 1
10
119.291000
20
252.001000
11
119.291000
21
250.001000
0
LINE
8
Layer 1
10
119.291000
20
250.001000
11
116.791000
21
250.001000
0
LINE
8
Layer 1
10
116.791000
20
250.001000
11
116.791000
21
248.001000
0
LINE
8
Layer 1
10
116.791000
20
248.001000
11
116.791000
21
248.001000
0
LINE
8
Layer 1
10
129.918000
20
223.724000
11
129.118000
21
223.724000
0
LINE
8
Layer 1
10
129.118000
20
223.724000
11
129.118000
21
221.924000
0
LINE
8
Layer 1
10
129.118000
20
221.924000
11
129.918000
21
221.924000
0
LINE
8
Layer 1
10
129.918000
20
221.924000
11
129.918000
21
223.724000
0
LINE
8
Layer 1
10
129.918000
20
223.724000
11
129.918000
21
223.724000
0
LINE
8
Layer 1
10
154.143000
20
215.074000
11
156.143000
21
215.074000
0
LINE
8
Layer 1
10
156.143000
20
215.074000
11
156.143000
21
217.574000
0
LINE
8
Layer 1
10
156.143000
20
217.574000
11
154.143000
21
217.574000
0
LINE
8
Layer 1
10
154.143000
20
217.574000
11
154.143000
21
215.074000
0
LINE
8
Layer 1
10
154.143000
20
215.074000
11
154.143000
21
215.074000
0
LINE
8
Layer 1
10
162.143000
20
219.674000
11
164.643000
21
219.674000
0
LINE
8
Layer 1
10
164.643000
20
219.674000
11
164.643000
21
221.774000
0
LINE
8
Layer 1
10
164.643000
20
221.774000
11
162.143000
21
221.774000
0
LINE
8
Layer 1
10
162.143000
20
221.774000
11
162.143000
21
219.674000
0
LINE
8
Layer 1
10
162.143000
20
219.674000
11
162.143000
21
219.674000
0
LINE
8
Layer 1
10
169.318000
20
223.724000
11
170.118000
21
223.724000
0
LINE
8
Layer 1
10
170.118000
20
223.724000
11
170.118000
21
221.924000
0
LINE
8
Layer 1
10
170.118000
20
221.924000
11
169.318000
21
221.924000
0
LINE
8
Layer 1
10
169.318000
20
221.924000
11
169.318000
21
223.724000
0
LINE
8
Layer 1
10
169.318000
20
223.724000
11
169.318000
21
223.724000
0
LINE
8
Layer 1
10
152.143000
20
228.074000
11
152.143000
21
230.574000
0
LINE
8
Layer 1
10
152.143000
20
230.574000
11
150.143000
21
230.574000
0
LINE
8
Layer 1
10
150.143000
20
230.574000
11
150.143000
21
228.074000
0
LINE
8
Layer 1
10
150.143000
20
228.074000
11
152.143000
21
228.074000
0
LINE
8
Layer 1
10
152.143000
20
228.074000
11
152.143000
21
228.074000
0
LINE
8
Layer 1
10
162.143000
20
223.874000
11
164.643000
21
223.874000
0
LINE
8
Layer 1
10
164.643000
20
223.874000
11
164.643000
21
225.974000
0
LINE
8
Layer 1
10
164.643000
20
225.974000
11
162.143000
21
225.974000
0
LINE
8
Layer 1
10
162.143000
20
225.974000
11
162.143000
21
223.874000
0
LINE
8
Layer 1
10
162.143000
20
223.874000
11
162.143000
21
223.874000
0
LINE
8
Layer 1
10
135.118000
20
213.574000
11
133.707254
21
213.716215
0
LINE
8
Layer 1
10
133.707254
20
213.716215
11
132.393281
21
214.124094
0
LINE
8
Layer 1
10
132.393281
20
214.124094
11
131.204230
21
214.769488
0
LINE
8
Layer 1
10
131.204230
20
214.769488
11
130.168250
21
215.624250
0
LINE
8
Layer 1
10
130.168250
20
215.624250
11
129.313488
21
216.660230
0
LINE
8
Layer 1
10
129.313488
20
216.660230
11
128.668094
21
217.849281
0
LINE
8
Layer 1
10
128.668094
20
217.849281
11
128.260215
21
219.163254
0
LINE
8
Layer 1
10
128.260215
20
219.163254
11
128.118000
21
220.574000
0
LINE
8
Layer 1
10
128.118000
20
220.574000
11
128.118000
21
225.074000
0
LINE
8
Layer 1
10
128.118000
20
225.074000
11
128.260215
21
226.484746
0
LINE
8
Layer 1
10
128.260215
20
226.484746
11
128.668094
21
227.798719
0
LINE
8
Layer 1
10
128.668094
20
227.798719
11
129.313488
21
228.987770
0
LINE
8
Layer 1
10
129.313488
20
228.987770
11
130.168250
21
230.023750
0
LINE
8
Layer 1
10
130.168250
20
230.023750
11
131.204230
21
230.878512
0
LINE
8
Layer 1
10
131.204230
20
230.878512
11
132.393281
21
231.523906
0
LINE
8
Layer 1
10
132.393281
20
231.523906
11
133.707254
21
231.931785
0
LINE
8
Layer 1
10
133.707254
20
231.931785
11
135.118000
21
232.074000
0
LINE
8
Layer 1
10
135.118000
20
232.074000
11
171.118000
21
232.074000
0
LINE
8
Layer 1
10
171.118000
20
232.074000
11
172.528746
21
231.931785
0
LINE
8
Layer 1
10
172.528746
20
231.931785
11
173.842719
21
231.523906
0
LINE
8
Layer 1
10
173.842719
20
231.523906
11
175.031770
21
230.878512
0
LINE
8
Layer 1
10
175.031770
20
230.878512
11
176.067750
21
230.023750
0
LINE
8
Layer 1
10
176.067750
20
230.023750
11
176.922512
21
228.987770
0
LINE
8
Layer 1
10
176.922512
20
228.987770
11
177.567906
21
227.798719
0
LINE
8
Layer 1
10
177.567906
20
227.798719
11
177.975785
21
226.484746
0
LINE
8
Layer 1
10
177.975785
20
226.484746
11
178.118000
21
225.074000
0
LINE
8
Layer 1
10
178.118000
20
225.074000
11
178.118000
21
220.574000
0
LINE
8
Layer 1
10
178.118000
20
220.574000
11
177.975785
21
219.163254
0
LINE
8
Layer 1
10
177.975785
20
219.163254
11
177.567906
21
217.849281
0
LINE
8
Layer 1
10
177.567906
20
217.849281
11
176.922512
21
216.660230
0
LINE
8
Layer 1
10
176.922512
20
216.660230
11
176.067750
21
215.624250
0
LINE
8
Layer 1
10
176.067750
20
215.624250
11
175.031770
21
214.769488
0
LINE
8
Layer 1
10
175.031770
20
214.769488
11
173.842719
21
214.124094
0
LINE
8
Layer 1
10
173.842719
20
214.124094
11
172.528746
21
213.716215
0
LINE
8
Layer 1
10
172.528746
20
213.716215
11
171.118000
21
213.574000
0
LINE
8
Layer 1
10
171.118000
20
213.574000
11
135.118000
21
213.574000
0
LINE
8
Layer 1
10
135.118000
20
213.574000
11
135.118000
21
213.574000
0
LINE
8
Layer 1
10
176.318000
20
223.724000
11
176.318000
21
221.924000
0
LINE
8
Layer 1
10
176.318000
20
221.924000
11
177.118000
21
221.924000
0
LINE
8
Layer 1
10
177.118000
20
221.924000
11
177.118000
21
223.724000
0
LINE
8
Layer 1
10
177.118000
20
223.724000
11
176.318000
21
223.724000
0
LINE
8
Layer 1
10
176.318000
20
223.724000
11
176.318000
21
223.724000
0
LINE
8
Layer 1
10
150.143000
20
217.574000
11
150.143000
21
215.074000
0
LINE
8
Layer 1
10
150.143000
20
215.074000
11
152.143000
21
215.074000
0
LINE
8
Layer 1
10
152.143000
20
215.074000
11
152.143000
21
217.574000
0
LINE
8
Layer 1
10
152.143000
20
217.574000
11
150.143000
21
217.574000
0
LINE
8
Layer 1
10
150.143000
20
217.574000
11
150.143000
21
217.574000
0
LINE
8
Layer 1
10
156.143000
20
228.074000
11
156.143000
21
230.574000
0
LINE
8
Layer 1
10
156.143000
20
230.574000
11
154.143000
21
230.574000
0
LINE
8
Layer 1
10
154.143000
20
230.574000
11
154.143000
21
228.074000
0
LINE
8
Layer 1
10
154.143000
20
228.074000
11
156.143000
21
228.074000
0
LINE
8
Layer 1
10
156.143000
20
228.074000
11
156.143000
21
228.074000
0
LINE
8
Layer 1
10
136.918000
20
223.724000
11
136.118000
21
223.724000
0
LINE
8
Layer 1
10
136.118000
20
223.724000
11
136.118000
21
221.924000
0
LINE
8
Layer 1
10
136.118000
20
221.924000
11
136.918000
21
221.924000
0
LINE
8
Layer 1
10
136.918000
20
221.924000
11
136.918000
21
223.724000
0
LINE
8
Layer 1
10
136.918000
20
223.724000
11
136.918000
21
223.724000
0
LINE
8
Layer 1
10
135.519000
20
245.502000
11
135.519000
21
247.302000
0
LINE
8
Layer 1
10
135.519000
20
247.302000
11
136.319000
21
247.302000
0
LINE
8
Layer 1
10
136.319000
20
247.302000
11
136.319000
21
245.502000
0
LINE
8
Layer 1
10
136.319000
20
245.502000
11
135.519000
21
245.502000
0
LINE
8
Layer 1
10
135.519000
20
245.502000
11
135.519000
21
245.502000
0
LINE
8
Layer 1
10
170.519000
20
237.152000
11
171.929746
21
237.294215
0
LINE
8
Layer 1
10
171.929746
20
237.294215
11
173.243719
21
237.702094
0
LINE
8
Layer 1
10
173.243719
20
237.702094
11
174.432770
21
238.347488
0
LINE
8
Layer 1
10
174.432770
20
238.347488
11
175.468750
21
239.202250
0
LINE
8
Layer 1
10
175.468750
20
239.202250
11
176.323512
21
240.238230
0
LINE
8
Layer 1
10
176.323512
20
240.238230
11
176.968906
21
241.427281
0
LINE
8
Layer 1
10
176.968906
20
241.427281
11
177.376785
21
242.741254
0
LINE
8
Layer 1
10
177.376785
20
242.741254
11
177.519000
21
244.152000
0
LINE
8
Layer 1
10
177.519000
20
244.152000
11
177.519000
21
248.652000
0
LINE
8
Layer 1
10
177.519000
20
248.652000
11
177.376785
21
250.062746
0
LINE
8
Layer 1
10
177.376785
20
250.062746
11
176.968906
21
251.376719
0
LINE
8
Layer 1
10
176.968906
20
251.376719
11
176.323512
21
252.565770
0
LINE
8
Layer 1
10
176.323512
20
252.565770
11
175.468750
21
253.601750
0
LINE
8
Layer 1
10
175.468750
20
253.601750
11
174.432770
21
254.456512
0
LINE
8
Layer 1
10
174.432770
20
254.456512
11
173.243719
21
255.101906
0
LINE
8
Layer 1
10
173.243719
20
255.101906
11
171.929746
21
255.509785
0
LINE
8
Layer 1
10
171.929746
20
255.509785
11
170.519000
21
255.652000
0
LINE
8
Layer 1
10
170.519000
20
255.652000
11
134.519000
21
255.652000
0
LINE
8
Layer 1
10
128.519000
20
245.502000
11
128.519000
21
247.302000
0
LINE
8
Layer 1
10
128.519000
20
247.302000
11
129.319000
21
247.302000
0
LINE
8
Layer 1
10
129.319000
20
247.302000
11
129.319000
21
245.502000
0
LINE
8
Layer 1
10
129.319000
20
245.502000
11
128.519000
21
245.502000
0
LINE
8
Layer 1
10
128.519000
20
245.502000
11
128.519000
21
245.502000
0
LINE
8
Layer 1
10
134.519000
20
237.152000
11
170.519000
21
237.152000
0
LINE
8
Layer 1
10
127.519000
20
244.152000
11
127.661215
21
242.741254
0
LINE
8
Layer 1
10
127.661215
20
242.741254
11
128.069094
21
241.427281
0
LINE
8
Layer 1
10
128.069094
20
241.427281
11
128.714488
21
240.238230
0
LINE
8
Layer 1
10
128.714488
20
240.238230
11
129.569250
21
239.202250
0
LINE
8
Layer 1
10
129.569250
20
239.202250
11
130.605230
21
238.347488
0
LINE
8
Layer 1
10
130.605230
20
238.347488
11
131.794281
21
237.702094
0
LINE
8
Layer 1
10
131.794281
20
237.702094
11
133.108254
21
237.294215
0
LINE
8
Layer 1
10
133.108254
20
237.294215
11
134.519000
21
237.152000
0
LINE
8
Layer 1
10
176.519000
20
245.502000
11
175.719000
21
245.502000
0
LINE
8
Layer 1
10
175.719000
20
245.502000
11
175.719000
21
247.302000
0
LINE
8
Layer 1
10
175.719000
20
247.302000
11
176.519000
21
247.302000
0
LINE
8
Layer 1
10
176.519000
20
247.302000
11
176.519000
21
245.502000
0
LINE
8
Layer 1
10
176.519000
20
245.502000
11
176.519000
21
245.502000
0
LINE
8
Layer 1
10
168.719000
20
245.502000
11
168.719000
21
247.302000
0
LINE
8
Layer 1
10
168.719000
20
247.302000
11
169.519000
21
247.302000
0
LINE
8
Layer 1
10
169.519000
20
247.302000
11
169.519000
21
245.502000
0
LINE
8
Layer 1
10
169.519000
20
245.502000
11
168.719000
21
245.502000
0
LINE
8
Layer 1
10
168.719000
20
245.502000
11
168.719000
21
245.502000
0
LINE
8
Layer 1
10
127.519000
20
244.152000
11
127.519000
21
248.652000
0
LINE
8
Layer 1
10
127.519000
20
248.652000
11
127.661215
21
250.062746
0
LINE
8
Layer 1
10
127.661215
20
250.062746
11
128.069094
21
251.376719
0
LINE
8
Layer 1
10
128.069094
20
251.376719
11
128.714488
21
252.565770
0
LINE
8
Layer 1
10
128.714488
20
252.565770
11
129.569250
21
253.601750
0
LINE
8
Layer 1
10
129.569250
20
253.601750
11
130.605230
21
254.456512
0
LINE
8
Layer 1
10
130.605230
20
254.456512
11
131.794281
21
255.101906
0
LINE
8
Layer 1
10
131.794281
20
255.101906
11
133.108254
21
255.509785
0
LINE
8
Layer 1
10
133.108254
20
255.509785
11
134.519000
21
255.652000
0
LINE
8
Layer 1
10
115.328000
20
288.001000
11
112.828000
21
288.001000
0
LINE
8
Layer 1
10
112.828000
20
288.001000
11
112.828000
21
290.001000
0
LINE
8
Layer 1
10
112.828000
20
290.001000
11
109.328000
21
290.001000
0
LINE
8
Layer 1
10
109.328000
20
290.001000
11
109.328000
21
288.001000
0
LINE
8
Layer 1
10
109.328000
20
288.001000
11
106.828000
21
288.001000
0
LINE
8
Layer 1
10
106.828000
20
288.001000
11
106.828000
21
286.001000
0
LINE
8
Layer 1
10
106.828000
20
286.001000
11
109.328000
21
286.001000
0
LINE
8
Layer 1
10
109.328000
20
286.001000
11
109.328000
21
284.001000
0
LINE
8
Layer 1
10
109.328000
20
284.001000
11
106.828000
21
284.001000
0
LINE
8
Layer 1
10
106.828000
20
284.001000
11
106.828000
21
282.001000
0
LINE
8
Layer 1
10
106.828000
20
282.001000
11
109.328000
21
282.001000
0
LINE
8
Layer 1
10
109.328000
20
282.001000
11
109.328000
21
280.001000
0
LINE
8
Layer 1
10
109.328000
20
280.001000
11
112.828000
21
280.001000
0
LINE
8
Layer 1
10
112.828000
20
280.001000
11
112.828000
21
282.001000
0
LINE
8
Layer 1
10
112.828000
20
282.001000
11
115.328000
21
282.001000
0
LINE
8
Layer 1
10
115.328000
20
282.001000
11
115.328000
21
284.001000
0
LINE
8
Layer 1
10
115.328000
20
284.001000
11
112.828000
21
284.001000
0
LINE
8
Layer 1
10
112.828000
20
284.001000
11
112.828000
21
286.001000
0
LINE
8
Layer 1
10
112.828000
20
286.001000
11
115.328000
21
286.001000
0
LINE
8
Layer 1
10
115.328000
20
286.001000
11
115.328000
21
288.001000
0
LINE
8
Layer 1
10
115.328000
20
288.001000
11
115.328000
21
288.001000
0
LINE
8
Layer 1
10
115.328000
20
277.001000
11
112.828000
21
277.001000
0
LINE
8
Layer 1
10
112.828000
20
277.001000
11
112.828000
21
279.001000
0
LINE
8
Layer 1
10
112.828000
20
279.001000
11
109.328000
21
279.001000
0
LINE
8
Layer 1
10
109.328000
20
279.001000
11
109.328000
21
277.001000
0
LINE
8
Layer 1
10
109.328000
20
277.001000
11
106.828000
21
277.001000
0
LINE
8
Layer 1
10
106.828000
20
277.001000
11
106.828000
21
275.001000
0
LINE
8
Layer 1
10
106.828000
20
275.001000
11
109.328000
21
275.001000
0
LINE
8
Layer 1
10
109.328000
20
275.001000
11
109.328000
21
273.001000
0
LINE
8
Layer 1
10
109.328000
20
273.001000
11
106.828000
21
273.001000
0
LINE
8
Layer 1
10
106.828000
20
273.001000
11
106.828000
21
271.001000
0
LINE
8
Layer 1
10
106.828000
20
271.001000
11
109.328000
21
271.001000
0
LINE
8
Layer 1
10
109.328000
20
271.001000
11
109.328000
21
269.001000
0
LINE
8
Layer 1
10
109.328000
20
269.001000
11
112.828000
21
269.001000
0
LINE
8
Layer 1
10
112.828000
20
269.001000
11
112.828000
21
271.001000
0
LINE
8
Layer 1
10
112.828000
20
271.001000
11
115.328000
21
271.001000
0
LINE
8
Layer 1
10
115.328000
20
271.001000
11
115.328000
21
273.001000
0
LINE
8
Layer 1
10
115.328000
20
273.001000
11
112.828000
21
273.001000
0
LINE
8
Layer 1
10
112.828000
20
273.001000
11
112.828000
21
275.001000
0
LINE
8
Layer 1
10
112.828000
20
275.001000
11
115.328000
21
275.001000
0
LINE
8
Layer 1
10
115.328000
20
275.001000
11
115.328000
21
277.001000
0
LINE
8
Layer 1
10
115.328000
20
277.001000
11
115.328000
21
277.001000
 0 
ENDSEC
 0 
EOF