999
"DXF R12 Output" (www.mydxf.blogspot.com)
 0 
SECTION
 2 
HEADER
 9 
$ACADVER
 1 
AC1009
 9 
$EXTMIN
 10 
 0 
 20 
 0 
 9 
$EXTMAX
 10 
 8.5 
 20 
 11 
 0 
ENDSEC
 0 
SECTION
 2 
ENTITIES
0
LINE
8
Layer 1
10
-0.000100
20
439.589000
11
210.000000
21
439.589000
0
LINE
8
Layer 1
10
196.372000
20
709.226000
11
195.841889
21
709.006245
0
LINE
8
Layer 1
10
195.841889
20
709.006245
11
195.622300
21
708.476020
0
LINE
8
Layer 1
10
195.622300
20
708.476020
11
195.841855
21
707.945794
0
LINE
8
Layer 1
10
195.841855
20
707.945794
11
196.372000
21
707.726000
0
LINE
8
Layer 1
10
196.372000
20
707.726000
11
196.902110
21
707.945754
0
LINE
8
Layer 1
10
196.902110
20
707.945754
11
197.121690
21
708.475970
0
LINE
8
Layer 1
10
197.121690
20
708.475970
11
196.902144
21
709.006209
0
LINE
8
Layer 1
10
196.902144
20
709.006209
11
196.372000
21
709.226000
0
LINE
8
Layer 1
10
196.372000
20
709.226000
11
196.372000
21
709.226000
0
LINE
8
Layer 1
10
213.372000
20
696.726000
11
212.842512
21
696.505876
0
LINE
8
Layer 1
10
212.842512
20
696.505876
11
212.623300
21
695.976010
0
LINE
8
Layer 1
10
212.623300
20
695.976010
11
212.842509
21
695.446137
0
LINE
8
Layer 1
10
212.842509
20
695.446137
11
213.372000
21
695.226000
0
LINE
8
Layer 1
10
213.372000
20
695.226000
11
213.901488
21
695.446129
0
LINE
8
Layer 1
10
213.901488
20
695.446129
11
214.120700
21
695.976000
0
LINE
8
Layer 1
10
214.120700
20
695.976000
11
213.901491
21
696.505867
0
LINE
8
Layer 1
10
213.901491
20
696.505867
11
213.372000
21
696.726000
0
LINE
8
Layer 1
10
213.372000
20
696.726000
11
213.372000
21
696.726000
0
LINE
8
Layer 1
10
-24.972100
20
711.726000
11
-25.502219
21
711.506254
0
LINE
8
Layer 1
10
-25.502219
20
711.506254
11
-25.721803
21
710.976030
0
LINE
8
Layer 1
10
-25.721803
20
710.976030
11
-25.502254
21
710.445800
0
LINE
8
Layer 1
10
-25.502254
20
710.445800
11
-24.972100
21
710.226010
0
LINE
8
Layer 1
10
-24.972100
20
710.226010
11
-24.441981
21
710.445753
0
LINE
8
Layer 1
10
-24.441981
20
710.445753
11
-24.222398
21
710.975980
0
LINE
8
Layer 1
10
-24.222398
20
710.975980
11
-24.441947
21
711.506206
0
LINE
8
Layer 1
10
-24.441947
20
711.506206
11
-24.972100
21
711.726000
0
LINE
8
Layer 1
10
-24.972100
20
711.726000
11
-24.972100
21
711.726000
0
LINE
8
Layer 1
10
120.122000
20
712.726000
11
119.592512
21
712.505875
0
LINE
8
Layer 1
10
119.592512
20
712.505875
11
119.373300
21
711.976000
0
LINE
8
Layer 1
10
119.373300
20
711.976000
11
119.592509
21
711.446136
0
LINE
8
Layer 1
10
119.592509
20
711.446136
11
120.122000
21
711.226000
0
LINE
8
Layer 1
10
120.122000
20
711.226000
11
120.651482
21
711.446129
0
LINE
8
Layer 1
10
120.651482
20
711.446129
11
120.870690
21
711.976000
0
LINE
8
Layer 1
10
120.870690
20
711.976000
11
120.651490
21
712.505871
0
LINE
8
Layer 1
10
120.651490
20
712.505871
11
120.122000
21
712.726000
0
LINE
8
Layer 1
10
120.122000
20
712.726000
11
120.122000
21
712.726000
0
LINE
8
Layer 1
10
24.621700
20
712.726000
11
24.092216
21
712.505875
0
LINE
8
Layer 1
10
24.092216
20
712.505875
11
23.873002
21
711.976000
0
LINE
8
Layer 1
10
23.873002
20
711.976000
11
24.092208
21
711.446136
0
LINE
8
Layer 1
10
24.092208
20
711.446136
11
24.621700
21
711.226000
0
LINE
8
Layer 1
10
24.621700
20
711.226000
11
25.151183
21
711.446129
0
LINE
8
Layer 1
10
25.151183
20
711.446129
11
25.370397
21
711.976000
0
LINE
8
Layer 1
10
25.370397
20
711.976000
11
25.151191
21
712.505871
0
LINE
8
Layer 1
10
25.151191
20
712.505871
11
24.621700
21
712.726000
0
LINE
8
Layer 1
10
24.621700
20
712.726000
11
24.621700
21
712.726000
0
LINE
8
Layer 1
10
169.715000
20
711.726000
11
169.184894
21
711.506254
0
LINE
8
Layer 1
10
169.184894
20
711.506254
11
168.965310
21
710.976030
0
LINE
8
Layer 1
10
168.965310
20
710.976030
11
169.184860
21
710.445800
0
LINE
8
Layer 1
10
169.184860
20
710.445800
11
169.715000
21
710.226010
0
LINE
8
Layer 1
10
169.715000
20
710.226010
11
170.245111
21
710.445753
0
LINE
8
Layer 1
10
170.245111
20
710.445753
11
170.464700
21
710.975980
0
LINE
8
Layer 1
10
170.464700
20
710.975980
11
170.245145
21
711.506206
0
LINE
8
Layer 1
10
170.245145
20
711.506206
11
169.715000
21
711.726000
0
LINE
8
Layer 1
10
169.715000
20
711.726000
11
169.715000
21
711.726000
0
LINE
8
Layer 1
10
211.044000
20
691.405000
11
211.421920
21
691.293040
0
LINE
8
Layer 1
10
211.044000
20
691.405000
11
208.355800
21
692.250700
0
LINE
8
Layer 1
10
208.356000
20
692.250000
11
208.374592
21
692.767957
0
LINE
8
Layer 1
10
208.374592
20
692.767957
11
208.131420
21
693.225660
0
LINE
8
Layer 1
10
208.131420
20
693.225660
11
207.691785
21
693.500155
0
LINE
8
Layer 1
10
207.691785
20
693.500155
11
207.173790
21
693.517700
0
LINE
8
Layer 1
10
207.173790
20
693.517700
11
206.716586
21
693.273619
0
LINE
8
Layer 1
10
206.716586
20
693.273619
11
206.442990
21
692.833420
0
LINE
8
Layer 1
10
206.443000
20
692.834000
11
203.637920
21
693.662030
0
LINE
8
Layer 1
10
203.638000
20
693.662000
11
203.647921
21
694.219275
0
LINE
8
Layer 1
10
203.647921
20
694.219275
11
203.377500
21
694.706650
0
LINE
8
Layer 1
10
203.377500
20
694.706650
11
202.899422
21
694.993183
0
LINE
8
Layer 1
10
202.899422
20
694.993183
11
202.342130
21
695.001900
0
LINE
8
Layer 1
10
202.342130
20
695.001900
11
201.855330
21
694.730448
0
LINE
8
Layer 1
10
201.855330
20
694.730448
11
201.569800
21
694.251770
0
LINE
8
Layer 1
10
201.570000
20
694.251000
11
198.750090
21
695.027000
0
LINE
8
Layer 1
10
198.750000
20
695.027000
11
198.750050
21
695.545461
0
LINE
8
Layer 1
10
198.750050
20
695.545461
11
198.490300
21
695.994210
0
LINE
8
Layer 1
10
198.490300
20
695.994210
11
198.040830
21
696.252646
0
LINE
8
Layer 1
10
198.040830
20
696.252646
11
197.522360
21
696.251260
0
LINE
8
Layer 1
10
197.522360
20
696.251260
11
197.074266
21
695.990441
0
LINE
8
Layer 1
10
197.074266
20
695.990441
11
196.817010
21
695.540300
0
LINE
8
Layer 1
10
196.817000
20
695.541000
11
193.789280
21
696.314830
0
LINE
8
Layer 1
10
193.789000
20
696.315000
11
193.780551
21
696.768481
0
LINE
8
Layer 1
10
193.780551
20
696.768481
11
193.546210
21
697.156810
0
LINE
8
Layer 1
10
193.546210
20
697.156810
11
193.148931
21
697.375653
0
LINE
8
Layer 1
10
193.148931
20
697.375653
11
192.695470
21
697.366210
0
LINE
8
Layer 1
10
192.695470
20
697.366210
11
192.307669
21
697.131015
0
LINE
8
Layer 1
10
192.307669
20
697.131015
11
192.089720
21
696.733250
0
LINE
8
Layer 1
10
192.090000
20
696.733000
11
188.805360
21
697.509000
0
LINE
8
Layer 1
10
188.805000
20
697.509000
11
188.790831
21
697.897620
0
LINE
8
Layer 1
10
188.790831
20
697.897620
11
188.583950
21
698.226900
0
LINE
8
Layer 1
10
188.583950
20
698.226900
11
188.239985
21
698.408318
0
LINE
8
Layer 1
10
188.239985
20
698.408318
11
187.851410
21
698.393100
0
LINE
8
Layer 1
10
187.851410
20
698.393100
11
187.522685
21
698.185341
0
LINE
8
Layer 1
10
187.522685
20
698.185341
11
187.342190
21
697.840910
0
LINE
8
Layer 1
10
187.342000
20
697.841000
11
183.921810
21
698.584300
0
LINE
8
Layer 1
10
183.922000
20
698.584000
11
183.900330
21
698.971942
0
LINE
8
Layer 1
10
183.900330
20
698.971942
11
183.687440
21
699.296990
0
LINE
8
Layer 1
10
183.687440
20
699.296990
11
183.340475
21
699.471876
0
LINE
8
Layer 1
10
183.340475
20
699.471876
11
182.952560
21
699.449700
0
LINE
8
Layer 1
10
182.952560
20
699.449700
11
182.627800
21
699.236359
0
LINE
8
Layer 1
10
182.627800
20
699.236359
11
182.453370
21
698.889180
0
LINE
8
Layer 1
10
182.454000
20
698.889000
11
179.020820
21
699.569850
0
LINE
8
Layer 1
10
179.020000
20
699.570000
11
178.902576
21
700.131884
0
LINE
8
Layer 1
10
178.902576
20
700.131884
11
178.422220
21
700.446170
0
LINE
8
Layer 1
10
178.422220
20
700.446170
11
177.860324
21
700.328705
0
LINE
8
Layer 1
10
177.860324
20
700.328705
11
177.546040
21
699.848360
0
LINE
8
Layer 1
10
177.547000
20
699.848000
11
174.101980
21
700.466160
0
LINE
8
Layer 1
10
174.101000
20
700.467000
11
173.973322
21
701.026655
0
LINE
8
Layer 1
10
173.973322
20
701.026655
11
173.487340
21
701.332120
0
LINE
8
Layer 1
10
173.487340
20
701.332120
11
172.927683
21
701.204442
0
LINE
8
Layer 1
10
172.927683
20
701.204442
11
172.622230
21
700.718460
0
LINE
8
Layer 1
10
172.623000
20
700.718000
11
168.920180
21
701.311230
0
LINE
8
Layer 1
10
168.920000
20
701.311000
11
168.737900
21
701.777060
0
LINE
8
Layer 1
10
168.737900
20
701.777060
11
168.243150
21
701.851960
0
LINE
8
Layer 1
10
168.243150
20
701.851960
11
167.931260
21
701.460660
0
LINE
8
Layer 1
10
167.931000
20
701.461000
11
163.970720
21
702.023530
0
LINE
8
Layer 1
10
163.971000
20
702.023000
11
163.780510
21
702.485840
0
LINE
8
Layer 1
10
163.780510
20
702.485840
11
163.284360
21
702.551740
0
LINE
8
Layer 1
10
163.284360
20
702.551740
11
162.979700
21
702.154630
0
LINE
8
Layer 1
10
162.980000
20
702.155000
11
159.010120
21
702.645240
0
LINE
8
Layer 1
10
159.010000
20
702.645000
11
158.904654
21
703.012902
0
LINE
8
Layer 1
10
158.904654
20
703.012902
11
158.569980
21
703.198540
0
LINE
8
Layer 1
10
158.569980
20
703.198540
11
158.202094
21
703.093151
0
LINE
8
Layer 1
10
158.202094
20
703.093151
11
158.016450
21
702.758510
0
LINE
8
Layer 1
10
158.016000
20
702.759000
11
150.375177
21
703.509760
0
LINE
8
Layer 1
10
150.375177
20
703.509760
11
142.717787
21
704.046334
0
LINE
8
Layer 1
10
142.717787
20
704.046334
11
135.048380
21
704.368466
0
LINE
8
Layer 1
10
135.048380
20
704.368466
11
127.371500
21
704.475900
0
LINE
8
Layer 1
10
17.371700
20
704.476000
11
127.372000
21
704.476000
0
LINE
8
Layer 1
10
17.371700
20
704.476000
11
9.694863
21
704.368571
0
LINE
8
Layer 1
10
9.694863
20
704.368571
11
2.025450
21
704.046441
0
LINE
8
Layer 1
10
2.025450
20
704.046441
11
-5.631963
21
703.509865
0
LINE
8
Layer 1
10
-5.631963
20
703.509865
11
-13.272800
21
702.759100
0
LINE
8
Layer 1
10
-13.272800
20
702.759000
11
-13.458434
21
703.093650
0
LINE
8
Layer 1
10
-13.458434
20
703.093650
11
-13.826324
21
703.199010
0
LINE
8
Layer 1
10
-13.826324
20
703.199010
11
-14.160969
21
703.013401
0
LINE
8
Layer 1
10
-14.160969
20
703.013401
11
-14.266337
21
702.645490
0
LINE
8
Layer 1
10
-14.266400
20
702.645000
11
-18.236280
21
702.154760
0
LINE
8
Layer 1
10
-18.236200
20
702.155000
11
-18.540910
21
702.551820
0
LINE
8
Layer 1
10
-18.540910
20
702.551820
11
-19.036874
21
702.486020
0
LINE
8
Layer 1
10
-19.036874
20
702.486020
11
-19.227502
21
702.023440
0
LINE
8
Layer 1
10
-19.227500
20
702.023000
11
-23.187780
21
701.460480
0
LINE
8
Layer 1
10
-23.187800
20
701.461000
11
-23.499678
21
701.852300
0
LINE
8
Layer 1
10
-23.499678
20
701.852300
11
-23.994429
21
701.777400
0
LINE
8
Layer 1
10
-23.994429
20
701.777400
11
-24.176539
21
701.311340
0
LINE
8
Layer 1
10
-24.176600
20
701.311000
11
-27.879410
21
700.717760
0
LINE
8
Layer 1
10
-27.879400
20
700.718000
11
-28.041023
21
701.071396
0
LINE
8
Layer 1
10
-28.041023
20
701.071396
11
-28.357808
21
701.296460
0
LINE
8
Layer 1
10
-28.357808
20
701.296460
11
-28.744710
21
701.332780
0
LINE
8
Layer 1
10
-28.744710
20
701.332780
11
-29.097856
21
701.170620
0
LINE
8
Layer 1
10
-29.097856
20
701.170620
11
-29.322439
21
700.853492
0
LINE
8
Layer 1
10
-29.322439
20
700.853492
11
-29.358171
21
700.466540
0
LINE
8
Layer 1
10
-29.358100
20
700.467000
11
-32.803120
21
699.848830
0
LINE
8
Layer 1
10
-42.599100
20
697.841000
11
-42.779603
21
698.185443
0
LINE
8
Layer 1
10
-42.779603
20
698.185443
11
-43.108323
21
698.393190
0
LINE
8
Layer 1
10
-43.108323
20
698.393190
11
-43.496902
21
698.408415
0
LINE
8
Layer 1
10
-43.496902
20
698.408415
11
-43.840860
21
698.226990
0
LINE
8
Layer 1
10
-43.840860
20
698.226990
11
-44.047738
21
697.897710
0
LINE
8
Layer 1
10
-44.047738
20
697.897710
11
-44.061914
21
697.509090
0
LINE
8
Layer 1
10
-47.346600
20
696.733000
11
-47.564560
21
697.130750
0
LINE
8
Layer 1
10
-47.564560
20
697.130750
11
-47.952374
21
697.365960
0
LINE
8
Layer 1
10
-47.952374
20
697.365960
11
-48.405831
21
697.375560
0
LINE
8
Layer 1
10
-48.405831
20
697.375560
11
-48.803105
21
697.156560
0
LINE
8
Layer 1
10
-48.803105
20
697.156560
11
-49.037439
21
696.768231
0
LINE
8
Layer 1
10
-49.037439
20
696.768231
11
-49.045879
21
696.314750
0
LINE
8
Layer 1
10
-56.826500
20
694.251000
11
-57.112015
21
694.729676
0
LINE
8
Layer 1
10
-57.112015
20
694.729676
11
-57.598808
21
695.001120
0
LINE
8
Layer 1
10
-57.598808
20
695.001120
11
-58.156104
21
694.992415
0
LINE
8
Layer 1
10
-58.156104
20
694.992415
11
-58.634178
21
694.705880
0
LINE
8
Layer 1
10
-58.634178
20
694.705880
11
-58.904588
21
694.218505
0
LINE
8
Layer 1
10
-58.904588
20
694.218505
11
-58.894692
21
693.661230
0
LINE
8
Layer 1
10
207.372000
20
720.476000
11
207.372000
21
712.476000
0
LINE
8
Layer 1
10
207.372000
20
712.476000
11
216.372000
21
712.476000
0
LINE
8
Layer 1
10
216.372000
20
700.976000
11
216.372000
21
712.476000
0
LINE
8
Layer 1
10
232.372000
20
700.976000
11
216.372000
21
700.976000
0
LINE
8
Layer 1
10
232.372000
20
690.976000
11
232.372000
21
700.976000
0
LINE
8
Layer 1
10
232.372000
20
690.976000
11
213.789000
21
690.976000
0
LINE
8
Layer 1
10
213.395000
20
690.984000
11
213.789050
21
690.975000
0
LINE
8
Layer 1
10
213.395000
20
690.984000
11
213.190988
21
691.694910
0
LINE
8
Layer 1
10
213.190988
20
691.694910
11
212.554270
21
692.071200
0
LINE
8
Layer 1
10
212.554270
20
692.071200
11
211.833129
21
691.907036
0
LINE
8
Layer 1
10
211.833129
20
691.907036
11
211.422030
21
691.292220
0
LINE
8
Layer 1
10
-69.045900
20
690.976000
11
-68.651849
21
690.985000
0
LINE
8
Layer 1
10
-37.710300
20
698.889000
11
-38.033272
21
699.363547
0
LINE
8
Layer 1
10
-38.033272
20
699.363547
11
-38.597202
21
699.470730
0
LINE
8
Layer 1
10
-38.597202
20
699.470730
11
-39.071751
21
699.147748
0
LINE
8
Layer 1
10
-39.071751
20
699.147748
11
-39.178928
21
698.583820
0
LINE
8
Layer 1
10
-52.073600
20
695.541000
11
-52.330862
21
695.991141
0
LINE
8
Layer 1
10
-52.330862
20
695.991141
11
-52.778952
21
696.251960
0
LINE
8
Layer 1
10
-52.778952
20
696.251960
11
-53.297418
21
696.253466
0
LINE
8
Layer 1
10
-53.297418
20
696.253466
11
-53.746894
21
695.994910
0
LINE
8
Layer 1
10
-53.746894
20
695.994910
11
-54.006553
21
695.546160
0
LINE
8
Layer 1
10
-54.006553
20
695.546160
11
-54.006598
21
695.027690
0
LINE
8
Layer 1
10
-32.803200
20
699.848000
11
-32.971281
21
700.198321
0
LINE
8
Layer 1
10
-32.971281
20
700.198321
11
-33.292100
21
700.417520
0
LINE
8
Layer 1
10
-33.292100
20
700.417520
11
-33.679547
21
700.446795
0
LINE
8
Layer 1
10
-33.679547
20
700.446795
11
-34.029637
21
700.278220
0
LINE
8
Layer 1
10
-34.029637
20
700.278220
11
-34.248407
21
699.957105
0
LINE
8
Layer 1
10
-34.248407
20
699.957105
11
-34.277142
21
699.569630
0
LINE
8
Layer 1
10
-66.678900
20
691.293000
11
-66.300993
21
691.404960
0
LINE
8
Layer 1
10
-62.628300
20
712.476000
11
-71.628300
21
712.476000
0
LINE
8
Layer 1
10
-62.628300
20
720.476000
11
-62.628300
21
712.476000
0
LINE
8
Layer 1
10
207.372000
20
720.476000
11
-62.628300
21
720.476000
0
LINE
8
Layer 1
10
-66.678900
20
691.293000
11
-67.089990
21
691.907857
0
LINE
8
Layer 1
10
-67.089990
20
691.907857
11
-67.811170
21
692.072040
0
LINE
8
Layer 1
10
-67.811170
20
692.072040
11
-68.447909
21
691.695731
0
LINE
8
Layer 1
10
-68.447909
20
691.695731
11
-68.651884
21
690.984780
0
LINE
8
Layer 1
10
-61.699800
20
692.834000
11
-61.973401
21
693.274187
0
LINE
8
Layer 1
10
-61.973401
20
693.274187
11
-62.430612
21
693.518280
0
LINE
8
Layer 1
10
-62.430612
20
693.518280
11
-62.948607
21
693.500749
0
LINE
8
Layer 1
10
-62.948607
20
693.500749
11
-63.388238
21
693.226230
0
LINE
8
Layer 1
10
-63.388238
20
693.226230
11
-63.631412
21
692.768532
0
LINE
8
Layer 1
10
-63.631412
20
692.768532
11
-63.612809
21
692.250580
0
LINE
8
Layer 1
10
-87.628200
20
690.976000
11
-69.046000
21
690.976000
0
LINE
8
Layer 1
10
-51.628300
20
709.226000
11
-52.158419
21
709.006245
0
LINE
8
Layer 1
10
-52.158419
20
709.006245
11
-52.378002
21
708.476020
0
LINE
8
Layer 1
10
-52.378002
20
708.476020
11
-52.158453
21
707.945794
0
LINE
8
Layer 1
10
-52.158453
20
707.945794
11
-51.628300
21
707.726000
0
LINE
8
Layer 1
10
-51.628300
20
707.726000
11
-51.098180
21
707.945754
0
LINE
8
Layer 1
10
-51.098180
20
707.945754
11
-50.878597
21
708.475970
0
LINE
8
Layer 1
10
-50.878597
20
708.475970
11
-51.098146
21
709.006209
0
LINE
8
Layer 1
10
-51.098146
20
709.006209
11
-51.628300
21
709.226000
0
LINE
8
Layer 1
10
-51.628300
20
709.226000
11
-51.628300
21
709.226000
0
LINE
8
Layer 1
10
-34.277100
20
699.570000
11
-37.710290
21
698.889150
0
LINE
8
Layer 1
10
-71.628300
20
712.476000
11
-71.628300
21
701.476000
0
LINE
8
Layer 1
10
-68.628300
20
696.976000
11
-69.157783
21
696.755876
0
LINE
8
Layer 1
10
-69.157783
20
696.755876
11
-69.376995
21
696.226010
0
LINE
8
Layer 1
10
-69.376995
20
696.226010
11
-69.157792
21
695.696137
0
LINE
8
Layer 1
10
-69.157792
20
695.696137
11
-68.628300
21
695.476000
0
LINE
8
Layer 1
10
-68.628300
20
695.476000
11
-68.098816
21
695.696129
0
LINE
8
Layer 1
10
-68.098816
20
695.696129
11
-67.879604
21
696.226000
0
LINE
8
Layer 1
10
-67.879604
20
696.226000
11
-68.098807
21
696.755867
0
LINE
8
Layer 1
10
-68.098807
20
696.755867
11
-68.628300
21
696.976000
0
LINE
8
Layer 1
10
-68.628300
20
696.976000
11
-68.628300
21
696.976000
0
LINE
8
Layer 1
10
-63.612800
20
692.250000
11
-66.301000
21
691.404300
0
LINE
8
Layer 1
10
-39.178900
20
698.584000
11
-42.599110
21
697.840700
0
LINE
8
Layer 1
10
-49.045900
20
696.315000
11
-52.073630
21
695.541160
0
LINE
8
Layer 1
10
-44.061900
20
697.509000
11
-47.346530
21
696.733000
0
LINE
8
Layer 1
10
-58.894700
20
693.662000
11
-61.699770
21
692.833970
0
LINE
8
Layer 1
10
-54.006600
20
695.027000
11
-56.826510
21
694.251000
0
LINE
8
Layer 1
10
-87.628200
20
701.476000
11
-87.628200
21
690.976000
0
LINE
8
Layer 1
10
-71.628300
20
701.476000
11
-87.628200
21
701.476000
0
LINE
8
Layer 1
10
232.372000
20
750.563000
11
213.789000
21
750.563000
0
LINE
8
Layer 1
10
232.372000
20
750.563000
11
232.372000
21
740.563000
0
LINE
8
Layer 1
10
232.372000
20
740.563000
11
216.372000
21
740.563000
0
LINE
8
Layer 1
10
216.372000
20
740.563000
11
216.372000
21
729.063000
0
LINE
8
Layer 1
10
207.372000
20
729.063000
11
216.372000
21
729.063000
0
LINE
8
Layer 1
10
207.372000
20
721.063000
11
207.372000
21
729.063000
0
LINE
8
Layer 1
10
207.372000
20
721.063000
11
-62.628300
21
721.063000
0
LINE
8
Layer 1
10
-62.628300
20
721.063000
11
-62.628300
21
729.063000
0
LINE
8
Layer 1
10
-62.628300
20
729.063000
11
-71.628300
21
729.063000
0
LINE
8
Layer 1
10
-71.628300
20
729.063000
11
-71.628300
21
740.063000
0
LINE
8
Layer 1
10
-71.628300
20
740.063000
11
-87.628200
21
740.063000
0
LINE
8
Layer 1
10
-87.628200
20
740.063000
11
-87.628200
21
750.563000
0
LINE
8
Layer 1
10
-63.612800
20
749.288000
11
-63.631400
21
748.770053
0
LINE
8
Layer 1
10
-63.631400
20
748.770053
11
-63.388221
21
748.312360
0
LINE
8
Layer 1
10
-63.388221
20
748.312360
11
-62.948590
21
748.037859
0
LINE
8
Layer 1
10
-62.948590
20
748.037859
11
-62.430595
21
748.020300
0
LINE
8
Layer 1
10
-62.430595
20
748.020300
11
-61.973391
21
748.264381
0
LINE
8
Layer 1
10
-61.973391
20
748.264381
11
-61.699790
21
748.704580
0
LINE
8
Layer 1
10
-61.699800
20
748.705000
11
-58.894730
21
747.876970
0
LINE
8
Layer 1
10
-58.894700
20
747.877000
11
-58.904580
21
747.319735
0
LINE
8
Layer 1
10
-58.904580
20
747.319735
11
-58.634186
21
746.832370
0
LINE
8
Layer 1
10
-58.634186
20
746.832370
11
-58.156116
21
746.545832
0
LINE
8
Layer 1
10
-58.156116
20
746.545832
11
-57.598826
21
746.537110
0
LINE
8
Layer 1
10
-57.598826
20
746.537110
11
-57.112029
21
746.808561
0
LINE
8
Layer 1
10
-57.112029
20
746.808561
11
-56.826510
21
747.287230
0
LINE
8
Layer 1
10
-56.826500
20
747.287000
11
-54.006590
21
746.511000
0
LINE
8
Layer 1
10
-54.006600
20
746.511000
11
-54.006705
21
745.992419
0
LINE
8
Layer 1
10
-54.006705
20
745.992419
11
-53.747071
21
745.543520
0
LINE
8
Layer 1
10
-53.747071
20
745.543520
11
-53.297511
21
745.285006
0
LINE
8
Layer 1
10
-53.297511
20
745.285006
11
-52.778931
21
745.286420
0
LINE
8
Layer 1
10
-52.778931
20
745.286420
11
-52.330788
21
745.547395
0
LINE
8
Layer 1
10
-52.330788
20
745.547395
11
-52.073601
21
745.997700
0
LINE
8
Layer 1
10
-52.073600
20
745.998000
11
-49.045870
21
745.224180
0
LINE
8
Layer 1
10
-49.045900
20
745.224000
11
-49.037260
21
744.770666
0
LINE
8
Layer 1
10
-49.037260
20
744.770666
11
-48.802897
21
744.382530
0
LINE
8
Layer 1
10
-48.802897
20
744.382530
11
-48.405739
21
744.163785
0
LINE
8
Layer 1
10
-48.405739
20
744.163785
11
-47.952425
21
744.173190
0
LINE
8
Layer 1
10
-47.952425
20
744.173190
11
-47.564682
21
744.408199
0
LINE
8
Layer 1
10
-47.564682
20
744.408199
11
-47.346621
21
744.805740
0
LINE
8
Layer 1
10
-47.346600
20
744.806000
11
-44.061970
21
744.030020
0
LINE
8
Layer 1
10
-44.061900
20
744.030000
11
-44.047837
21
743.641286
0
LINE
8
Layer 1
10
-44.047837
20
743.641286
11
-43.840975
21
743.311890
0
LINE
8
Layer 1
10
-43.840975
20
743.311890
11
-43.496946
21
743.130406
0
LINE
8
Layer 1
10
-43.496946
20
743.130406
11
-43.108279
21
743.145640
0
LINE
8
Layer 1
10
-43.108279
20
743.145640
11
-42.779516
21
743.353500
0
LINE
8
Layer 1
10
-42.779516
20
743.353500
11
-42.599086
21
743.698100
0
LINE
8
Layer 1
10
-42.599100
20
743.698000
11
-39.178890
21
742.954700
0
LINE
8
Layer 1
10
-39.178900
20
742.954000
11
-39.156877
21
742.566344
0
LINE
8
Layer 1
10
-39.156877
20
742.566344
11
-38.943945
21
742.241650
0
LINE
8
Layer 1
10
-38.943945
20
742.241650
11
-38.597182
21
742.066947
0
LINE
8
Layer 1
10
-38.597182
20
742.066947
11
-38.209524
21
742.089060
0
LINE
8
Layer 1
10
-38.209524
20
742.089060
11
-37.884882
21
742.302060
0
LINE
8
Layer 1
10
-37.884882
20
742.302060
11
-37.710272
21
742.648830
0
LINE
8
Layer 1
10
-37.710300
20
742.649000
11
-34.277110
21
741.968150
0
LINE
8
Layer 1
10
-34.277100
20
741.968000
11
-34.248536
21
741.580367
0
LINE
8
Layer 1
10
-34.248536
20
741.580367
11
-34.029778
21
741.259080
0
LINE
8
Layer 1
10
-34.029778
20
741.259080
11
-33.679577
21
741.090444
0
LINE
8
Layer 1
10
-33.679577
20
741.090444
11
-33.291993
21
741.119740
0
LINE
8
Layer 1
10
-33.291993
20
741.119740
11
-32.971125
21
741.339129
0
LINE
8
Layer 1
10
-32.971125
20
741.339129
11
-32.803158
21
741.689640
0
LINE
8
Layer 1
10
-32.803200
20
741.690000
11
-29.358180
21
741.071840
0
LINE
8
Layer 1
10
-29.358100
20
741.072000
11
-29.322153
21
740.685241
0
LINE
8
Layer 1
10
-29.322153
20
740.685241
11
-29.097556
21
740.368330
0
LINE
8
Layer 1
10
-29.097556
20
740.368330
11
-28.744554
21
740.206274
0
LINE
8
Layer 1
10
-28.744554
20
740.206274
11
-28.357825
21
740.242540
0
LINE
8
Layer 1
10
-28.357825
20
740.242540
11
-28.041099
21
740.467392
0
LINE
8
Layer 1
10
-28.041099
20
740.467392
11
-27.879329
21
740.820540
0
LINE
8
Layer 1
10
-27.879400
20
740.820000
11
-24.176580
21
740.226750
0
LINE
8
Layer 1
10
-24.176600
20
740.227000
11
-23.994627
21
739.760660
0
LINE
8
Layer 1
10
-23.994627
20
739.760660
11
-23.499682
21
739.685760
0
LINE
8
Layer 1
10
-23.499682
20
739.685760
11
-23.187861
21
740.077360
0
LINE
8
Layer 1
10
-23.187800
20
740.078000
11
-19.227520
21
739.515490
0
LINE
8
Layer 1
10
-19.227500
20
739.515000
11
-19.128856
21
739.145254
0
LINE
8
Layer 1
10
-19.128856
20
739.145254
11
-18.797653
21
738.953550
0
LINE
8
Layer 1
10
-18.797653
20
738.953550
11
-18.427902
21
739.052171
0
LINE
8
Layer 1
10
-18.427902
20
739.052171
11
-18.236198
21
739.383390
0
LINE
8
Layer 1
10
-18.236200
20
739.383000
11
-14.266320
21
738.892750
0
LINE
8
Layer 1
10
-14.266400
20
738.893000
11
-14.161037
21
738.525111
0
LINE
8
Layer 1
10
-14.161037
20
738.525111
11
-13.826393
21
738.339480
0
LINE
8
Layer 1
10
-13.826393
20
738.339480
11
-13.458500
21
738.444824
0
LINE
8
Layer 1
10
-13.458500
20
738.444824
11
-13.272862
21
738.779480
0
LINE
8
Layer 1
10
-13.272800
20
738.780000
11
-5.631963
21
738.029239
0
LINE
8
Layer 1
10
-5.631963
20
738.029239
11
2.025450
21
737.492664
0
LINE
8
Layer 1
10
2.025450
20
737.492664
11
9.694862
21
737.170534
0
LINE
8
Layer 1
10
9.694862
20
737.170534
11
17.371700
21
737.063110
0
LINE
8
Layer 1
10
17.371700
20
737.063000
11
127.372000
21
737.063000
0
LINE
8
Layer 1
10
127.372000
20
737.063000
11
135.048880
21
737.170424
0
LINE
8
Layer 1
10
135.048880
20
737.170424
11
142.718288
21
737.492554
0
LINE
8
Layer 1
10
142.718288
20
737.492554
11
150.375677
21
738.029129
0
LINE
8
Layer 1
10
150.375677
20
738.029129
11
158.016500
21
738.779890
0
LINE
8
Layer 1
10
158.016000
20
738.780000
11
158.201665
21
738.445359
0
LINE
8
Layer 1
10
158.201665
20
738.445359
11
158.569550
21
738.340000
0
LINE
8
Layer 1
10
158.569550
20
738.340000
11
158.904191
21
738.525616
0
LINE
8
Layer 1
10
158.904191
20
738.525616
11
159.009550
21
738.893520
0
LINE
8
Layer 1
10
159.010000
20
738.893000
11
162.979880
21
739.383250
0
LINE
8
Layer 1
10
162.980000
20
739.383000
11
163.284730
21
738.986200
0
LINE
8
Layer 1
10
163.284730
20
738.986200
11
163.780670
21
739.052000
0
LINE
8
Layer 1
10
163.780670
20
739.052000
11
163.971300
21
739.514570
0
LINE
8
Layer 1
10
163.971000
20
739.515000
11
167.931280
21
740.077510
0
LINE
8
Layer 1
10
167.931000
20
740.078000
11
168.242830
21
739.686400
0
LINE
8
Layer 1
10
168.242830
20
739.686400
11
168.737770
21
739.761300
0
LINE
8
Layer 1
10
168.737770
20
739.761300
11
168.919740
21
740.227640
0
LINE
8
Layer 1
10
168.920000
20
740.227000
11
172.622820
21
740.820250
0
LINE
8
Layer 1
10
172.623000
20
740.820000
11
172.928455
21
740.334000
0
LINE
8
Layer 1
10
172.928455
20
740.334000
11
173.488130
21
740.206350
0
LINE
8
Layer 1
10
173.488130
20
740.206350
11
173.974130
21
740.511799
0
LINE
8
Layer 1
10
173.974130
20
740.511799
11
174.101780
21
741.071460
0
LINE
8
Layer 1
10
174.101000
20
741.072000
11
177.546020
21
741.690170
0
LINE
8
Layer 1
10
177.547000
20
741.690000
11
177.861284
21
741.209656
0
LINE
8
Layer 1
10
177.861284
20
741.209656
11
178.423150
21
741.092230
0
LINE
8
Layer 1
10
178.423150
20
741.092230
11
178.903514
21
741.406471
0
LINE
8
Layer 1
10
178.903514
20
741.406471
11
179.020960
21
741.968370
0
LINE
8
Layer 1
10
179.020000
20
741.968000
11
182.453180
21
742.648850
0
LINE
8
Layer 1
10
182.454000
20
742.649000
11
182.628334
21
742.301570
0
LINE
8
Layer 1
10
182.628334
20
742.301570
11
182.953140
21
742.088060
0
LINE
8
Layer 1
10
182.953140
20
742.088060
11
183.341210
21
742.065831
0
LINE
8
Layer 1
10
183.341210
20
742.065831
11
183.688300
21
742.240830
0
LINE
8
Layer 1
10
183.688300
20
742.240830
11
183.901158
21
742.566061
0
LINE
8
Layer 1
10
183.901158
20
742.566061
11
183.922630
21
742.954180
0
LINE
8
Layer 1
10
183.922000
20
742.954000
11
187.342190
21
743.697300
0
LINE
8
Layer 1
10
187.342000
20
743.698000
11
187.522429
21
743.353419
0
LINE
8
Layer 1
10
187.522429
20
743.353419
11
187.851200
21
743.145540
0
LINE
8
Layer 1
10
187.851200
20
743.145540
11
188.239866
21
743.130321
0
LINE
8
Layer 1
10
188.239866
20
743.130321
11
188.583900
21
743.311790
0
LINE
8
Layer 1
10
188.583900
20
743.311790
11
188.790765
21
743.641186
0
LINE
8
Layer 1
10
188.790765
20
743.641186
11
188.804820
21
744.029900
0
LINE
8
Layer 1
10
188.805000
20
744.030000
11
192.089640
21
744.805980
0
LINE
8
Layer 1
10
192.090000
20
744.806000
11
192.308067
21
744.408474
0
LINE
8
Layer 1
10
192.308067
20
744.408474
11
192.695800
21
744.173450
0
LINE
8
Layer 1
10
192.695800
20
744.173450
11
193.149120
21
744.163880
0
LINE
8
Layer 1
10
193.149120
20
744.163880
11
193.546280
21
744.382790
0
LINE
8
Layer 1
10
193.546280
20
744.382790
11
193.780640
21
744.770930
0
LINE
8
Layer 1
10
193.780640
20
744.770930
11
193.789280
21
745.224260
0
LINE
8
Layer 1
10
193.789000
20
745.224000
11
196.816720
21
745.997820
0
LINE
8
Layer 1
10
196.817000
20
745.998000
11
197.074200
21
745.547685
0
LINE
8
Layer 1
10
197.074200
20
745.547685
11
197.522320
21
745.286730
0
LINE
8
Layer 1
10
197.522320
20
745.286730
11
198.040909
21
745.285191
0
LINE
8
Layer 1
10
198.040909
20
745.285191
11
198.490460
21
745.543820
0
LINE
8
Layer 1
10
198.490460
20
745.543820
11
198.750108
21
745.992724
0
LINE
8
Layer 1
10
198.750108
20
745.992724
11
198.750000
21
746.511310
0
LINE
8
Layer 1
10
198.750000
20
746.511000
11
201.569920
21
747.287000
0
LINE
8
Layer 1
10
201.570000
20
747.287000
11
201.855530
21
746.808327
0
LINE
8
Layer 1
10
201.855530
20
746.808327
11
202.342330
21
746.536880
0
LINE
8
Layer 1
10
202.342330
20
746.536880
11
202.899616
21
746.545585
0
LINE
8
Layer 1
10
202.899616
20
746.545585
11
203.377680
21
746.832120
0
LINE
8
Layer 1
10
203.377680
20
746.832120
11
203.648096
21
747.319495
0
LINE
8
Layer 1
10
203.648096
20
747.319495
11
203.638200
21
747.876770
0
LINE
8
Layer 1
10
203.638000
20
747.877000
11
206.443080
21
748.705030
0
LINE
8
Layer 1
10
206.443000
20
748.705000
11
206.716606
21
748.264820
0
LINE
8
Layer 1
10
206.716606
20
748.264820
11
207.173820
21
748.020720
0
LINE
8
Layer 1
10
207.173820
20
748.020720
11
207.691813
21
748.038290
0
LINE
8
Layer 1
10
207.691813
20
748.038290
11
208.131430
21
748.312780
0
LINE
8
Layer 1
10
208.131430
20
748.312780
11
208.374606
21
748.770480
0
LINE
8
Layer 1
10
208.374606
20
748.770480
11
208.356010
21
749.288420
0
LINE
8
Layer 1
10
208.356000
20
749.288000
11
211.044200
21
750.133710
0
LINE
8
Layer 1
10
211.422000
20
750.246000
11
211.044090
21
750.134030
0
LINE
8
Layer 1
10
211.422000
20
750.246000
11
211.833104
21
749.631191
0
LINE
8
Layer 1
10
211.833104
20
749.631191
11
212.554250
21
749.467020
0
LINE
8
Layer 1
10
212.554250
20
749.467020
11
213.190971
21
749.843305
0
LINE
8
Layer 1
10
213.190971
20
749.843305
11
213.394980
21
750.554210
0
LINE
8
Layer 1
10
213.789000
20
750.563000
11
213.394950
21
750.554000
0
LINE
8
Layer 1
10
196.372000
20
733.813000
11
195.841889
21
733.593246
0
LINE
8
Layer 1
10
195.841889
20
733.593246
11
195.622300
21
733.063030
0
LINE
8
Layer 1
10
195.622300
20
733.063030
11
195.841855
21
732.532799
0
LINE
8
Layer 1
10
195.841855
20
732.532799
11
196.372000
21
732.313000
0
LINE
8
Layer 1
10
196.372000
20
732.313000
11
196.902110
21
732.532754
0
LINE
8
Layer 1
10
196.902110
20
732.532754
11
197.121690
21
733.062970
0
LINE
8
Layer 1
10
197.121690
20
733.062970
11
196.902144
21
733.593201
0
LINE
8
Layer 1
10
196.902144
20
733.593201
11
196.372000
21
733.813000
0
LINE
8
Layer 1
10
196.372000
20
733.813000
11
196.372000
21
733.813000
0
LINE
8
Layer 1
10
213.372000
20
746.313000
11
212.842512
21
746.092871
0
LINE
8
Layer 1
10
212.842512
20
746.092871
11
212.623300
21
745.563000
0
LINE
8
Layer 1
10
212.623300
20
745.563000
11
212.842509
21
745.033133
0
LINE
8
Layer 1
10
212.842509
20
745.033133
11
213.372000
21
744.813000
0
LINE
8
Layer 1
10
213.372000
20
744.813000
11
213.901488
21
745.033129
0
LINE
8
Layer 1
10
213.901488
20
745.033129
11
214.120700
21
745.563000
0
LINE
8
Layer 1
10
214.120700
20
745.563000
11
213.901491
21
746.092867
0
LINE
8
Layer 1
10
213.901491
20
746.092867
11
213.372000
21
746.313000
0
LINE
8
Layer 1
10
213.372000
20
746.313000
11
213.372000
21
746.313000
0
LINE
8
Layer 1
10
-68.628300
20
746.063000
11
-69.157783
21
745.842871
0
LINE
8
Layer 1
10
-69.157783
20
745.842871
11
-69.376995
21
745.313000
0
LINE
8
Layer 1
10
-69.376995
20
745.313000
11
-69.157792
21
744.783133
0
LINE
8
Layer 1
10
-69.157792
20
744.783133
11
-68.628300
21
744.563000
0
LINE
8
Layer 1
10
-68.628300
20
744.563000
11
-68.098816
21
744.783129
0
LINE
8
Layer 1
10
-68.098816
20
744.783129
11
-67.879604
21
745.313000
0
LINE
8
Layer 1
10
-67.879604
20
745.313000
11
-68.098807
21
745.842867
0
LINE
8
Layer 1
10
-68.098807
20
745.842867
11
-68.628300
21
746.063000
0
LINE
8
Layer 1
10
-68.628300
20
746.063000
11
-68.628300
21
746.063000
0
LINE
8
Layer 1
10
-24.972100
20
731.313000
11
-25.502219
21
731.093246
0
LINE
8
Layer 1
10
-25.502219
20
731.093246
11
-25.721803
21
730.563030
0
LINE
8
Layer 1
10
-25.721803
20
730.563030
11
-25.502254
21
730.032799
0
LINE
8
Layer 1
10
-25.502254
20
730.032799
11
-24.972100
21
729.813000
0
LINE
8
Layer 1
10
-24.972100
20
729.813000
11
-24.441981
21
730.032754
0
LINE
8
Layer 1
10
-24.441981
20
730.032754
11
-24.222398
21
730.562970
0
LINE
8
Layer 1
10
-24.222398
20
730.562970
11
-24.441947
21
731.093201
0
LINE
8
Layer 1
10
-24.441947
20
731.093201
11
-24.972100
21
731.313000
0
LINE
8
Layer 1
10
-24.972100
20
731.313000
11
-24.972100
21
731.313000
0
LINE
8
Layer 1
10
-51.628300
20
733.813000
11
-52.158419
21
733.593246
0
LINE
8
Layer 1
10
-52.158419
20
733.593246
11
-52.378002
21
733.063030
0
LINE
8
Layer 1
10
-52.378002
20
733.063030
11
-52.158453
21
732.532799
0
LINE
8
Layer 1
10
-52.158453
20
732.532799
11
-51.628300
21
732.313000
0
LINE
8
Layer 1
10
-51.628300
20
732.313000
11
-51.098180
21
732.532754
0
LINE
8
Layer 1
10
-51.098180
20
732.532754
11
-50.878597
21
733.062970
0
LINE
8
Layer 1
10
-50.878597
20
733.062970
11
-51.098146
21
733.593201
0
LINE
8
Layer 1
10
-51.098146
20
733.593201
11
-51.628300
21
733.813000
0
LINE
8
Layer 1
10
-51.628300
20
733.813000
11
-51.628300
21
733.813000
0
LINE
8
Layer 1
10
120.122000
20
730.313000
11
119.592512
21
730.092871
0
LINE
8
Layer 1
10
119.592512
20
730.092871
11
119.373300
21
729.563000
0
LINE
8
Layer 1
10
119.373300
20
729.563000
11
119.592509
21
729.033133
0
LINE
8
Layer 1
10
119.592509
20
729.033133
11
120.122000
21
728.813000
0
LINE
8
Layer 1
10
120.122000
20
728.813000
11
120.651482
21
729.033129
0
LINE
8
Layer 1
10
120.651482
20
729.033129
11
120.870690
21
729.563000
0
LINE
8
Layer 1
10
120.870690
20
729.563000
11
120.651490
21
730.092867
0
LINE
8
Layer 1
10
120.651490
20
730.092867
11
120.122000
21
730.313000
0
LINE
8
Layer 1
10
120.122000
20
730.313000
11
120.122000
21
730.313000
0
LINE
8
Layer 1
10
24.621700
20
730.313000
11
24.092216
21
730.092871
0
LINE
8
Layer 1
10
24.092216
20
730.092871
11
23.873002
21
729.563000
0
LINE
8
Layer 1
10
23.873002
20
729.563000
11
24.092208
21
729.033133
0
LINE
8
Layer 1
10
24.092208
20
729.033133
11
24.621700
21
728.813000
0
LINE
8
Layer 1
10
24.621700
20
728.813000
11
25.151183
21
729.033129
0
LINE
8
Layer 1
10
25.151183
20
729.033129
11
25.370397
21
729.563000
0
LINE
8
Layer 1
10
25.370397
20
729.563000
11
25.151191
21
730.092867
0
LINE
8
Layer 1
10
25.151191
20
730.092867
11
24.621700
21
730.313000
0
LINE
8
Layer 1
10
24.621700
20
730.313000
11
24.621700
21
730.313000
0
LINE
8
Layer 1
10
169.715000
20
731.313000
11
169.184894
21
731.093246
0
LINE
8
Layer 1
10
169.184894
20
731.093246
11
168.965310
21
730.563030
0
LINE
8
Layer 1
10
168.965310
20
730.563030
11
169.184860
21
730.032799
0
LINE
8
Layer 1
10
169.184860
20
730.032799
11
169.715000
21
729.813000
0
LINE
8
Layer 1
10
169.715000
20
729.813000
11
170.245111
21
730.032754
0
LINE
8
Layer 1
10
170.245111
20
730.032754
11
170.464700
21
730.562970
0
LINE
8
Layer 1
10
170.464700
20
730.562970
11
170.245145
21
731.093201
0
LINE
8
Layer 1
10
170.245145
20
731.093201
11
169.715000
21
731.313000
0
LINE
8
Layer 1
10
169.715000
20
731.313000
11
169.715000
21
731.313000
0
LINE
8
Layer 1
10
-87.628200
20
750.563000
11
-69.046000
21
750.563000
0
LINE
8
Layer 1
10
-68.651900
20
750.554000
11
-68.447920
21
749.843057
0
LINE
8
Layer 1
10
-68.447920
20
749.843057
11
-67.811179
21
749.466750
0
LINE
8
Layer 1
10
-67.811179
20
749.466750
11
-67.090011
21
749.630940
0
LINE
8
Layer 1
10
-67.090011
20
749.630940
11
-66.678919
21
750.245790
0
LINE
8
Layer 1
10
-68.651900
20
750.554000
11
-69.045951
21
750.563000
0
LINE
8
Layer 1
10
-66.301000
20
750.134000
11
-66.678907
21
750.245970
0
LINE
8
Layer 1
10
-66.301000
20
750.134000
11
-63.612800
21
749.288300
0
LINE
8
Layer 1
10
182.006000
20
646.883000
11
199.255000
21
646.883000
0
LINE
8
Layer 1
10
182.005000
20
646.883000
11
171.287746
21
646.675103
0
LINE
8
Layer 1
10
171.287746
20
646.675103
11
160.598650
21
646.052652
0
LINE
8
Layer 1
10
160.598650
20
646.052652
11
149.949623
21
645.017508
0
LINE
8
Layer 1
10
149.949623
20
645.017508
11
139.352575
21
643.571531
0
LINE
8
Layer 1
10
139.352575
20
643.571531
11
128.819418
21
641.716582
0
LINE
8
Layer 1
10
128.819418
20
641.716582
11
118.362062
21
639.454520
0
LINE
8
Layer 1
10
118.362062
20
639.454520
11
107.992420
21
636.787206
0
LINE
8
Layer 1
10
107.992420
20
636.787206
11
97.722400
21
633.716500
0
LINE
8
Layer 1
10
95.587900
20
633.383000
11
96.668320
21
633.466881
0
LINE
8
Layer 1
10
96.668320
20
633.466881
11
97.722850
21
633.716520
0
LINE
8
Layer 1
10
77.006500
20
633.384000
11
95.588200
21
633.384000
0
LINE
8
Layer 1
10
77.006500
20
641.882000
11
77.006500
21
633.384000
0
LINE
8
Layer 1
10
93.005800
20
641.882000
11
77.006500
21
641.882000
0
LINE
8
Layer 1
10
93.005800
20
652.884000
11
93.005800
21
641.882000
0
LINE
8
Layer 1
10
102.004000
20
652.884000
11
93.005800
21
652.884000
0
LINE
8
Layer 1
10
102.004000
20
656.884000
11
102.004000
21
652.884000
0
LINE
8
Layer 1
10
199.255000
20
656.884000
11
102.004000
21
656.884000
0
LINE
8
Layer 1
10
199.255000
20
656.884000
11
199.255000
21
646.883000
0
LINE
8
Layer 1
10
96.005400
20
637.383000
11
95.475285
21
637.163250
0
LINE
8
Layer 1
10
95.475285
20
637.163250
11
95.255702
21
636.633030
0
LINE
8
Layer 1
10
95.255702
20
636.633030
11
95.475249
21
636.102791
0
LINE
8
Layer 1
10
95.475249
20
636.102791
11
96.005400
21
635.883000
0
LINE
8
Layer 1
10
96.005400
20
635.883000
11
96.535516
21
636.102750
0
LINE
8
Layer 1
10
96.535516
20
636.102750
11
96.755103
21
636.632970
0
LINE
8
Layer 1
10
96.755103
20
636.632970
11
96.535552
21
637.163205
0
LINE
8
Layer 1
10
96.535552
20
637.163205
11
96.005400
21
637.383000
0
LINE
8
Layer 1
10
96.005400
20
637.383000
11
96.005400
21
637.383000
0
LINE
8
Layer 1
10
139.662000
20
652.133000
11
139.132464
21
651.912894
0
LINE
8
Layer 1
10
139.132464
20
651.912894
11
138.913240
21
651.383000
0
LINE
8
Layer 1
10
138.913240
20
651.383000
11
139.132475
21
650.853111
0
LINE
8
Layer 1
10
139.132475
20
650.853111
11
139.662000
21
650.633010
0
LINE
8
Layer 1
10
139.662000
20
650.633010
11
140.192124
21
650.852760
0
LINE
8
Layer 1
10
140.192124
20
650.852760
11
140.411710
21
651.382980
0
LINE
8
Layer 1
10
140.411710
20
651.382980
11
140.192158
21
651.913215
0
LINE
8
Layer 1
10
140.192158
20
651.913215
11
139.662000
21
652.133010
0
LINE
8
Layer 1
10
139.662000
20
652.133010
11
139.662000
21
652.133000
0
LINE
8
Layer 1
10
113.005000
20
649.633000
11
112.474885
21
649.413254
0
LINE
8
Layer 1
10
112.474885
20
649.413254
11
112.255300
21
648.883030
0
LINE
8
Layer 1
10
112.255300
20
648.883030
11
112.474847
21
648.352795
0
LINE
8
Layer 1
10
112.474847
20
648.352795
11
113.005000
21
648.133000
0
LINE
8
Layer 1
10
113.005000
20
648.133000
11
113.535119
21
648.352754
0
LINE
8
Layer 1
10
113.535119
20
648.352754
11
113.754700
21
648.882970
0
LINE
8
Layer 1
10
113.754700
20
648.882970
11
113.535153
21
649.413209
0
LINE
8
Layer 1
10
113.535153
20
649.413209
11
113.005000
21
649.633000
0
LINE
8
Layer 1
10
113.005000
20
649.633000
11
113.005000
21
649.633000
0
LINE
8
Layer 1
10
189.255000
20
653.133000
11
188.724876
21
652.913246
0
LINE
8
Layer 1
10
188.724876
20
652.913246
11
188.505290
21
652.383030
0
LINE
8
Layer 1
10
188.505290
20
652.383030
11
188.724842
21
651.852791
0
LINE
8
Layer 1
10
188.724842
20
651.852791
11
189.255000
21
651.633000
0
LINE
8
Layer 1
10
189.255000
20
651.633000
11
189.785115
21
651.852750
0
LINE
8
Layer 1
10
189.785115
20
651.852750
11
190.004700
21
652.382970
0
LINE
8
Layer 1
10
190.004700
20
652.382970
11
189.785149
21
652.913205
0
LINE
8
Layer 1
10
189.785149
20
652.913205
11
189.255000
21
653.133000
0
LINE
8
Layer 1
10
189.255000
20
653.133000
11
189.255000
21
653.133000
0
LINE
8
Layer 1
10
103.005000
20
651.883000
11
102.615757
21
651.804414
0
LINE
8
Layer 1
10
102.615757
20
651.804414
11
102.297895
21
651.590105
0
LINE
8
Layer 1
10
102.297895
20
651.590105
11
102.083586
21
651.272243
0
LINE
8
Layer 1
10
102.083586
20
651.272243
11
102.005000
21
650.883000
0
LINE
8
Layer 1
10
102.005000
20
650.883000
11
102.083586
21
650.493753
0
LINE
8
Layer 1
10
102.083586
20
650.493753
11
102.297895
21
650.175890
0
LINE
8
Layer 1
10
102.297895
20
650.175890
11
102.615757
21
649.961580
0
LINE
8
Layer 1
10
102.615757
20
649.961580
11
103.005000
21
649.882990
0
LINE
8
Layer 1
10
103.005000
20
649.882990
11
103.394247
21
649.961580
0
LINE
8
Layer 1
10
103.394247
20
649.961580
11
103.712109
21
650.175890
0
LINE
8
Layer 1
10
103.712109
20
650.175890
11
103.926416
21
650.493753
0
LINE
8
Layer 1
10
103.926416
20
650.493753
11
104.005000
21
650.883000
0
LINE
8
Layer 1
10
104.005000
20
650.883000
11
103.926416
21
651.272243
0
LINE
8
Layer 1
10
103.926416
20
651.272243
11
103.712109
21
651.590105
0
LINE
8
Layer 1
10
103.712109
20
651.590105
11
103.394247
21
651.804414
0
LINE
8
Layer 1
10
103.394247
20
651.804414
11
103.005000
21
651.883000
0
LINE
8
Layer 1
10
103.005000
20
651.883000
11
103.005000
21
651.883000
0
LINE
8
Layer 1
10
179.255000
20
654.133000
11
178.866221
21
654.053998
0
LINE
8
Layer 1
10
178.866221
20
654.053998
11
178.548835
21
653.839596
0
LINE
8
Layer 1
10
178.548835
20
653.839596
11
178.334896
21
653.521899
0
LINE
8
Layer 1
10
178.334896
20
653.521899
11
178.256460
21
653.133010
0
LINE
8
Layer 1
10
178.256460
20
653.133010
11
178.334896
21
652.744116
0
LINE
8
Layer 1
10
178.334896
20
652.744116
11
178.548835
21
652.426415
0
LINE
8
Layer 1
10
178.548835
20
652.426415
11
178.866221
21
652.212012
0
LINE
8
Layer 1
10
178.866221
20
652.212012
11
179.255000
21
652.133010
0
LINE
8
Layer 1
10
179.255000
20
652.133010
11
179.644086
21
652.211735
0
LINE
8
Layer 1
10
179.644086
20
652.211735
11
179.961789
21
652.426074
0
LINE
8
Layer 1
10
179.961789
20
652.426074
11
180.175974
21
652.743881
0
LINE
8
Layer 1
10
180.175974
20
652.743881
11
180.254510
21
653.133010
0
LINE
8
Layer 1
10
180.254510
20
653.133010
11
180.175974
21
653.522135
0
LINE
8
Layer 1
10
180.175974
20
653.522135
11
179.961789
21
653.839943
0
LINE
8
Layer 1
10
179.961789
20
653.839943
11
179.644086
21
654.054284
0
LINE
8
Layer 1
10
179.644086
20
654.054284
11
179.255000
21
654.133010
0
LINE
8
Layer 1
10
179.255000
20
654.133010
11
179.255000
21
654.133000
0
LINE
8
Layer 1
10
102.049000
20
656.953000
11
102.049000
21
660.953000
0
LINE
8
Layer 1
10
102.049000
20
660.953000
11
93.048200
21
660.953000
0
LINE
8
Layer 1
10
93.048200
20
660.953000
11
93.048200
21
671.955000
0
LINE
8
Layer 1
10
93.048200
20
671.955000
11
77.048800
21
671.955000
0
LINE
8
Layer 1
10
77.048800
20
671.955000
11
77.048800
21
680.453000
0
LINE
8
Layer 1
10
77.048800
20
680.453000
11
95.630500
21
680.453000
0
LINE
8
Layer 1
10
97.765800
20
680.121000
11
96.711271
21
680.370635
0
LINE
8
Layer 1
10
96.711271
20
680.370635
11
95.630850
21
680.454520
0
LINE
8
Layer 1
10
97.765800
20
680.121000
11
108.035852
21
677.050300
0
LINE
8
Layer 1
10
108.035852
20
677.050300
11
118.405519
21
674.382989
0
LINE
8
Layer 1
10
118.405519
20
674.382989
11
128.862888
21
672.120927
0
LINE
8
Layer 1
10
128.862888
20
672.120927
11
139.396050
21
670.265976
0
LINE
8
Layer 1
10
139.396050
20
670.265976
11
149.993093
21
668.819997
0
LINE
8
Layer 1
10
149.993093
20
668.819997
11
160.642106
21
667.784850
0
LINE
8
Layer 1
10
160.642106
20
667.784850
11
171.331179
21
667.162398
0
LINE
8
Layer 1
10
171.331179
20
667.162398
11
182.048400
21
666.954500
0
LINE
8
Layer 1
10
182.049000
20
666.954000
11
199.300000
21
666.954000
0
LINE
8
Layer 1
10
199.300000
20
656.953000
11
199.300000
21
666.954000
0
LINE
8
Layer 1
10
199.300000
20
656.953000
11
102.049000
21
656.953000
0
LINE
8
Layer 1
10
179.298000
20
661.704000
11
178.908757
21
661.625414
0
LINE
8
Layer 1
10
178.908757
20
661.625414
11
178.590895
21
661.411105
0
LINE
8
Layer 1
10
178.590895
20
661.411105
11
178.376586
21
661.093243
0
LINE
8
Layer 1
10
178.376586
20
661.093243
11
178.298000
21
660.704000
0
LINE
8
Layer 1
10
178.298000
20
660.704000
11
178.376586
21
660.314753
0
LINE
8
Layer 1
10
178.376586
20
660.314753
11
178.590895
21
659.996891
0
LINE
8
Layer 1
10
178.590895
20
659.996891
11
178.908757
21
659.782584
0
LINE
8
Layer 1
10
178.908757
20
659.782584
11
179.298000
21
659.704000
0
LINE
8
Layer 1
10
179.298000
20
659.704000
11
179.687091
21
659.782721
0
LINE
8
Layer 1
10
179.687091
20
659.782721
11
180.004793
21
659.997060
0
LINE
8
Layer 1
10
180.004793
20
659.997060
11
180.218976
21
660.314869
0
LINE
8
Layer 1
10
180.218976
20
660.314869
11
180.297510
21
660.704000
0
LINE
8
Layer 1
10
180.297510
20
660.704000
11
180.218976
21
661.093125
0
LINE
8
Layer 1
10
180.218976
20
661.093125
11
180.004793
21
661.410932
0
LINE
8
Layer 1
10
180.004793
20
661.410932
11
179.687091
21
661.625274
0
LINE
8
Layer 1
10
179.687091
20
661.625274
11
179.298000
21
661.704000
0
LINE
8
Layer 1
10
179.298000
20
661.704000
11
179.298000
21
661.704000
0
LINE
8
Layer 1
10
103.048000
20
663.954000
11
102.658914
21
663.875274
0
LINE
8
Layer 1
10
102.658914
20
663.875274
11
102.341211
21
663.660932
0
LINE
8
Layer 1
10
102.341211
20
663.660932
11
102.127026
21
663.343125
0
LINE
8
Layer 1
10
102.127026
20
663.343125
11
102.048490
21
662.954000
0
LINE
8
Layer 1
10
102.048490
20
662.954000
11
102.127026
21
662.564871
0
LINE
8
Layer 1
10
102.127026
20
662.564871
11
102.341211
21
662.247064
0
LINE
8
Layer 1
10
102.341211
20
662.247064
11
102.658914
21
662.032725
0
LINE
8
Layer 1
10
102.658914
20
662.032725
11
103.048000
21
661.954000
0
LINE
8
Layer 1
10
103.048000
20
661.954000
11
103.437092
21
662.032725
0
LINE
8
Layer 1
10
103.437092
20
662.032725
11
103.754797
21
662.247064
0
LINE
8
Layer 1
10
103.754797
20
662.247064
11
103.968984
21
662.564871
0
LINE
8
Layer 1
10
103.968984
20
662.564871
11
104.047520
21
662.954000
0
LINE
8
Layer 1
10
104.047520
20
662.954000
11
103.968984
21
663.343125
0
LINE
8
Layer 1
10
103.968984
20
663.343125
11
103.754797
21
663.660932
0
LINE
8
Layer 1
10
103.754797
20
663.660932
11
103.437092
21
663.875274
0
LINE
8
Layer 1
10
103.437092
20
663.875274
11
103.048000
21
663.954000
0
LINE
8
Layer 1
10
103.048000
20
663.954000
11
103.048000
21
663.954000
0
LINE
8
Layer 1
10
189.298000
20
662.204000
11
188.768256
21
661.984010
0
LINE
8
Layer 1
10
188.768256
20
661.984010
11
188.548900
21
661.454000
0
LINE
8
Layer 1
10
188.548900
20
661.454000
11
188.768256
21
660.923982
0
LINE
8
Layer 1
10
188.768256
20
660.923982
11
189.298000
21
660.704000
0
LINE
8
Layer 1
10
189.298000
20
660.704000
11
189.827747
21
660.923982
0
LINE
8
Layer 1
10
189.827747
20
660.923982
11
190.047100
21
661.454000
0
LINE
8
Layer 1
10
190.047100
20
661.454000
11
189.827747
21
661.984010
0
LINE
8
Layer 1
10
189.827747
20
661.984010
11
189.298000
21
662.204000
0
LINE
8
Layer 1
10
189.298000
20
662.204000
11
189.298000
21
662.204000
0
LINE
8
Layer 1
10
113.048000
20
665.704000
11
112.517876
21
665.484246
0
LINE
8
Layer 1
10
112.517876
20
665.484246
11
112.298290
21
664.954030
0
LINE
8
Layer 1
10
112.298290
20
664.954030
11
112.517843
21
664.423791
0
LINE
8
Layer 1
10
112.517843
20
664.423791
11
113.048000
21
664.204000
0
LINE
8
Layer 1
10
113.048000
20
664.204000
11
113.578115
21
664.423750
0
LINE
8
Layer 1
10
113.578115
20
664.423750
11
113.797700
21
664.953970
0
LINE
8
Layer 1
10
113.797700
20
664.953970
11
113.578149
21
665.484205
0
LINE
8
Layer 1
10
113.578149
20
665.484205
11
113.048000
21
665.704000
0
LINE
8
Layer 1
10
113.048000
20
665.704000
11
113.048000
21
665.704000
0
LINE
8
Layer 1
10
139.705000
20
663.204000
11
139.174885
21
662.984246
0
LINE
8
Layer 1
10
139.174885
20
662.984246
11
138.955300
21
662.454030
0
LINE
8
Layer 1
10
138.955300
20
662.454030
11
139.174851
21
661.923791
0
LINE
8
Layer 1
10
139.174851
20
661.923791
11
139.705000
21
661.704000
0
LINE
8
Layer 1
10
139.705000
20
661.704000
11
140.235124
21
661.923750
0
LINE
8
Layer 1
10
140.235124
20
661.923750
11
140.454710
21
662.453970
0
LINE
8
Layer 1
10
140.454710
20
662.453970
11
140.235158
21
662.984205
0
LINE
8
Layer 1
10
140.235158
20
662.984205
11
139.705000
21
663.204000
0
LINE
8
Layer 1
10
139.705000
20
663.204000
11
139.705000
21
663.204000
0
LINE
8
Layer 1
10
96.048500
20
677.954000
11
95.518430
21
677.734161
0
LINE
8
Layer 1
10
95.518430
20
677.734161
11
95.298923
21
677.203980
0
LINE
8
Layer 1
10
95.298923
20
677.203980
11
95.518451
21
676.673804
0
LINE
8
Layer 1
10
95.518451
20
676.673804
11
96.048500
21
676.454000
0
LINE
8
Layer 1
10
96.048500
20
676.454000
11
96.578570
21
676.673830
0
LINE
8
Layer 1
10
96.578570
20
676.673830
11
96.798076
21
677.204010
0
LINE
8
Layer 1
10
96.798076
20
677.204010
11
96.578549
21
677.734187
0
LINE
8
Layer 1
10
96.578549
20
677.734187
11
96.048500
21
677.954000
0
LINE
8
Layer 1
10
96.048500
20
677.954000
11
96.048500
21
677.954000
0
LINE
8
Layer 1
10
200.372000
20
783.226000
11
199.841889
21
783.006241
0
LINE
8
Layer 1
10
199.841889
20
783.006241
11
199.622300
21
782.476020
0
LINE
8
Layer 1
10
199.622300
20
782.476020
11
199.841855
21
781.945790
0
LINE
8
Layer 1
10
199.841855
20
781.945790
11
200.372000
21
781.726000
0
LINE
8
Layer 1
10
200.372000
20
781.726000
11
200.902110
21
781.945746
0
LINE
8
Layer 1
10
200.902110
20
781.945746
11
201.121690
21
782.475970
0
LINE
8
Layer 1
10
201.121690
20
782.475970
11
200.902144
21
783.006205
0
LINE
8
Layer 1
10
200.902144
20
783.006205
11
200.372000
21
783.226000
0
LINE
8
Layer 1
10
200.372000
20
783.226000
11
200.372000
21
783.226000
0
LINE
8
Layer 1
10
217.372000
20
770.726000
11
216.842512
21
770.505875
0
LINE
8
Layer 1
10
216.842512
20
770.505875
11
216.623300
21
769.976000
0
LINE
8
Layer 1
10
216.623300
20
769.976000
11
216.842509
21
769.446133
0
LINE
8
Layer 1
10
216.842509
20
769.446133
11
217.372000
21
769.226000
0
LINE
8
Layer 1
10
217.372000
20
769.226000
11
217.901488
21
769.446121
0
LINE
8
Layer 1
10
217.901488
20
769.446121
11
218.120700
21
769.976000
0
LINE
8
Layer 1
10
218.120700
20
769.976000
11
217.901491
21
770.505860
0
LINE
8
Layer 1
10
217.901491
20
770.505860
11
217.372000
21
770.726000
0
LINE
8
Layer 1
10
217.372000
20
770.726000
11
217.372000
21
770.726000
0
LINE
8
Layer 1
10
-20.972100
20
785.726000
11
-21.502219
21
785.506246
0
LINE
8
Layer 1
10
-21.502219
20
785.506246
11
-21.721803
21
784.976030
0
LINE
8
Layer 1
10
-21.721803
20
784.976030
11
-21.502254
21
784.445796
0
LINE
8
Layer 1
10
-21.502254
20
784.445796
11
-20.972100
21
784.226010
0
LINE
8
Layer 1
10
-20.972100
20
784.226010
11
-20.441981
21
784.445749
0
LINE
8
Layer 1
10
-20.441981
20
784.445749
11
-20.222398
21
784.975980
0
LINE
8
Layer 1
10
-20.222398
20
784.975980
11
-20.441947
21
785.506202
0
LINE
8
Layer 1
10
-20.441947
20
785.506202
11
-20.972100
21
785.726000
0
LINE
8
Layer 1
10
-20.972100
20
785.726000
11
-20.972100
21
785.726000
0
LINE
8
Layer 1
10
124.122000
20
786.726000
11
123.592512
21
786.505871
0
LINE
8
Layer 1
10
123.592512
20
786.505871
11
123.373300
21
785.976000
0
LINE
8
Layer 1
10
123.373300
20
785.976000
11
123.592509
21
785.446133
0
LINE
8
Layer 1
10
123.592509
20
785.446133
11
124.122000
21
785.226000
0
LINE
8
Layer 1
10
124.122000
20
785.226000
11
124.651482
21
785.446129
0
LINE
8
Layer 1
10
124.651482
20
785.446129
11
124.870690
21
785.976000
0
LINE
8
Layer 1
10
124.870690
20
785.976000
11
124.651490
21
786.505864
0
LINE
8
Layer 1
10
124.651490
20
786.505864
11
124.122000
21
786.726000
0
LINE
8
Layer 1
10
124.122000
20
786.726000
11
124.122000
21
786.726000
0
LINE
8
Layer 1
10
28.621700
20
786.726000
11
28.092216
21
786.505871
0
LINE
8
Layer 1
10
28.092216
20
786.505871
11
27.873002
21
785.976000
0
LINE
8
Layer 1
10
27.873002
20
785.976000
11
28.092208
21
785.446133
0
LINE
8
Layer 1
10
28.092208
20
785.446133
11
28.621700
21
785.226000
0
LINE
8
Layer 1
10
28.621700
20
785.226000
11
29.151183
21
785.446129
0
LINE
8
Layer 1
10
29.151183
20
785.446129
11
29.370397
21
785.976000
0
LINE
8
Layer 1
10
29.370397
20
785.976000
11
29.151191
21
786.505864
0
LINE
8
Layer 1
10
29.151191
20
786.505864
11
28.621700
21
786.726000
0
LINE
8
Layer 1
10
28.621700
20
786.726000
11
28.621700
21
786.726000
0
LINE
8
Layer 1
10
173.715000
20
785.726000
11
173.184894
21
785.506246
0
LINE
8
Layer 1
10
173.184894
20
785.506246
11
172.965310
21
784.976030
0
LINE
8
Layer 1
10
172.965310
20
784.976030
11
173.184860
21
784.445796
0
LINE
8
Layer 1
10
173.184860
20
784.445796
11
173.715000
21
784.226010
0
LINE
8
Layer 1
10
173.715000
20
784.226010
11
174.245111
21
784.445749
0
LINE
8
Layer 1
10
174.245111
20
784.445749
11
174.464700
21
784.975980
0
LINE
8
Layer 1
10
174.464700
20
784.975980
11
174.245145
21
785.506202
0
LINE
8
Layer 1
10
174.245145
20
785.506202
11
173.715000
21
785.726000
0
LINE
8
Layer 1
10
173.715000
20
785.726000
11
173.715000
21
785.726000
0
LINE
8
Layer 1
10
215.044000
20
765.405000
11
215.421920
21
765.293030
0
LINE
8
Layer 1
10
215.044000
20
765.405000
11
212.355800
21
766.250700
0
LINE
8
Layer 1
10
212.356000
20
766.250000
11
212.374592
21
766.767961
0
LINE
8
Layer 1
10
212.374592
20
766.767961
11
212.131420
21
767.225660
0
LINE
8
Layer 1
10
212.131420
20
767.225660
11
211.691785
21
767.500160
0
LINE
8
Layer 1
10
211.691785
20
767.500160
11
211.173790
21
767.517710
0
LINE
8
Layer 1
10
211.173790
20
767.517710
11
210.716586
21
767.273586
0
LINE
8
Layer 1
10
210.716586
20
767.273586
11
210.442990
21
766.833420
0
LINE
8
Layer 1
10
210.443000
20
766.834000
11
207.637920
21
767.662030
0
LINE
8
Layer 1
10
207.638000
20
767.662000
11
207.647921
21
768.219283
0
LINE
8
Layer 1
10
207.647921
20
768.219283
11
207.377500
21
768.706650
0
LINE
8
Layer 1
10
207.377500
20
768.706650
11
206.899422
21
768.993183
0
LINE
8
Layer 1
10
206.899422
20
768.993183
11
206.342130
21
769.001900
0
LINE
8
Layer 1
10
206.342130
20
769.001900
11
205.855330
21
768.730448
0
LINE
8
Layer 1
10
205.855330
20
768.730448
11
205.569800
21
768.251770
0
LINE
8
Layer 1
10
205.570000
20
768.251000
11
202.750090
21
769.027000
0
LINE
8
Layer 1
10
202.750000
20
769.027000
11
202.750050
21
769.545466
0
LINE
8
Layer 1
10
202.750050
20
769.545466
11
202.490300
21
769.994220
0
LINE
8
Layer 1
10
202.490300
20
769.994220
11
202.040830
21
770.252653
0
LINE
8
Layer 1
10
202.040830
20
770.252653
11
201.522360
21
770.251270
0
LINE
8
Layer 1
10
201.522360
20
770.251270
11
201.074266
21
769.990451
0
LINE
8
Layer 1
10
201.074266
20
769.990451
11
200.817010
21
769.540310
0
LINE
8
Layer 1
10
200.817000
20
769.541000
11
197.789280
21
770.314830
0
LINE
8
Layer 1
10
197.789000
20
770.315000
11
197.780551
21
770.768486
0
LINE
8
Layer 1
10
197.780551
20
770.768486
11
197.546210
21
771.156820
0
LINE
8
Layer 1
10
197.546210
20
771.156820
11
197.148931
21
771.375657
0
LINE
8
Layer 1
10
197.148931
20
771.375657
11
196.695470
21
771.366210
0
LINE
8
Layer 1
10
196.695470
20
771.366210
11
196.307669
21
771.131019
0
LINE
8
Layer 1
10
196.307669
20
771.131019
11
196.089720
21
770.733250
0
LINE
8
Layer 1
10
196.090000
20
770.733000
11
192.805360
21
771.509010
0
LINE
8
Layer 1
10
192.805000
20
771.509000
11
192.790831
21
771.897613
0
LINE
8
Layer 1
10
192.790831
20
771.897613
11
192.583950
21
772.226900
0
LINE
8
Layer 1
10
192.583950
20
772.226900
11
192.239985
21
772.408313
0
LINE
8
Layer 1
10
192.239985
20
772.408313
11
191.851410
21
772.393090
0
LINE
8
Layer 1
10
191.851410
20
772.393090
11
191.522685
21
772.185331
0
LINE
8
Layer 1
10
191.522685
20
772.185331
11
191.342190
21
771.840900
0
LINE
8
Layer 1
10
191.342000
20
771.841000
11
187.921810
21
772.584300
0
LINE
8
Layer 1
10
187.922000
20
772.584000
11
187.900330
21
772.971950
0
LINE
8
Layer 1
10
187.900330
20
772.971950
11
187.687440
21
773.296990
0
LINE
8
Layer 1
10
187.687440
20
773.296990
11
187.340475
21
773.471884
0
LINE
8
Layer 1
10
187.340475
20
773.471884
11
186.952560
21
773.449700
0
LINE
8
Layer 1
10
186.952560
20
773.449700
11
186.627800
21
773.236364
0
LINE
8
Layer 1
10
186.627800
20
773.236364
11
186.453370
21
772.889190
0
LINE
8
Layer 1
10
186.454000
20
772.889000
11
183.020820
21
773.569840
0
LINE
8
Layer 1
10
183.020000
20
773.570000
11
182.902576
21
774.131888
0
LINE
8
Layer 1
10
182.902576
20
774.131888
11
182.422220
21
774.446170
0
LINE
8
Layer 1
10
182.422220
20
774.446170
11
181.860324
21
774.328748
0
LINE
8
Layer 1
10
181.860324
20
774.328748
11
181.546040
21
773.848370
0
LINE
8
Layer 1
10
181.547000
20
773.848000
11
178.101980
21
774.466160
0
LINE
8
Layer 1
10
178.101000
20
774.467000
11
177.973322
21
775.026662
0
LINE
8
Layer 1
10
177.973322
20
775.026662
11
177.487340
21
775.332120
0
LINE
8
Layer 1
10
177.487340
20
775.332120
11
176.927683
21
775.204446
0
LINE
8
Layer 1
10
176.927683
20
775.204446
11
176.622230
21
774.718460
0
LINE
8
Layer 1
10
176.623000
20
774.718000
11
172.920180
21
775.311240
0
LINE
8
Layer 1
10
172.920000
20
775.311000
11
172.737900
21
775.777070
0
LINE
8
Layer 1
10
172.737900
20
775.777070
11
172.243150
21
775.851970
0
LINE
8
Layer 1
10
172.243150
20
775.851970
11
171.931260
21
775.460670
0
LINE
8
Layer 1
10
171.931000
20
775.461000
11
167.970720
21
776.023530
0
LINE
8
Layer 1
10
167.971000
20
776.024000
11
167.780510
21
776.486850
0
LINE
8
Layer 1
10
167.780510
20
776.486850
11
167.284360
21
776.552750
0
LINE
8
Layer 1
10
167.284360
20
776.552750
11
166.979700
21
776.155640
0
LINE
8
Layer 1
10
166.980000
20
776.155000
11
163.010120
21
776.645250
0
LINE
8
Layer 1
10
163.010000
20
776.645000
11
162.904654
21
777.012899
0
LINE
8
Layer 1
10
162.904654
20
777.012899
11
162.569980
21
777.198540
0
LINE
8
Layer 1
10
162.569980
20
777.198540
11
162.202094
21
777.093147
0
LINE
8
Layer 1
10
162.202094
20
777.093147
11
162.016450
21
776.758510
0
LINE
8
Layer 1
10
162.016000
20
776.759000
11
154.375177
21
777.509756
0
LINE
8
Layer 1
10
154.375177
20
777.509756
11
146.717787
21
778.046330
0
LINE
8
Layer 1
10
146.717787
20
778.046330
11
139.048380
21
778.368464
0
LINE
8
Layer 1
10
139.048380
20
778.368464
11
131.371500
21
778.475900
0
LINE
8
Layer 1
10
21.371700
20
778.476000
11
131.372000
21
778.476000
0
LINE
8
Layer 1
10
21.371700
20
778.476000
11
13.694863
21
778.368567
0
LINE
8
Layer 1
10
13.694863
20
778.368567
11
6.025450
21
778.046437
0
LINE
8
Layer 1
10
6.025450
20
778.046437
11
-1.631962
21
777.509864
0
LINE
8
Layer 1
10
-1.631962
20
777.509864
11
-9.272800
21
776.759100
0
LINE
8
Layer 1
10
-9.272820
20
776.759000
11
-9.458452
21
777.093646
0
LINE
8
Layer 1
10
-9.458452
20
777.093646
11
-9.826344
21
777.199010
0
LINE
8
Layer 1
10
-9.826344
20
777.199010
11
-10.160989
21
777.013397
0
LINE
8
Layer 1
10
-10.160989
20
777.013397
11
-10.266357
21
776.645490
0
LINE
8
Layer 1
10
-10.266400
20
776.645000
11
-14.236280
21
776.154750
0
LINE
8
Layer 1
10
-14.236200
20
776.155000
11
-14.540910
21
776.551820
0
LINE
8
Layer 1
10
-14.540910
20
776.551820
11
-15.036874
21
776.486020
0
LINE
8
Layer 1
10
-15.036874
20
776.486020
11
-15.227502
21
776.023430
0
LINE
8
Layer 1
10
-15.227500
20
776.024000
11
-19.187780
21
775.461490
0
LINE
8
Layer 1
10
-19.187800
20
775.461000
11
-19.499678
21
775.852300
0
LINE
8
Layer 1
10
-19.499678
20
775.852300
11
-19.994429
21
775.777400
0
LINE
8
Layer 1
10
-19.994429
20
775.777400
11
-20.176539
21
775.311330
0
LINE
8
Layer 1
10
-20.176600
20
775.311000
11
-23.879410
21
774.717770
0
LINE
8
Layer 1
10
-23.879400
20
774.718000
11
-24.041023
21
775.071397
0
LINE
8
Layer 1
10
-24.041023
20
775.071397
11
-24.357808
21
775.296470
0
LINE
8
Layer 1
10
-24.357808
20
775.296470
11
-24.744710
21
775.332790
0
LINE
8
Layer 1
10
-24.744710
20
775.332790
11
-25.097856
21
775.170630
0
LINE
8
Layer 1
10
-25.097856
20
775.170630
11
-25.322439
21
774.853498
0
LINE
8
Layer 1
10
-25.322439
20
774.853498
11
-25.358171
21
774.466540
0
LINE
8
Layer 1
10
-25.358100
20
774.467000
11
-28.803120
21
773.848840
0
LINE
8
Layer 1
10
-38.599100
20
771.841000
11
-38.779603
21
772.185443
0
LINE
8
Layer 1
10
-38.779603
20
772.185443
11
-39.108323
21
772.393190
0
LINE
8
Layer 1
10
-39.108323
20
772.393190
11
-39.496902
21
772.408416
0
LINE
8
Layer 1
10
-39.496902
20
772.408416
11
-39.840860
21
772.227000
0
LINE
8
Layer 1
10
-39.840860
20
772.227000
11
-40.047738
21
771.897713
0
LINE
8
Layer 1
10
-40.047738
20
771.897713
11
-40.061914
21
771.509100
0
LINE
8
Layer 1
10
-43.346600
20
770.733000
11
-43.564560
21
771.130757
0
LINE
8
Layer 1
10
-43.564560
20
771.130757
11
-43.952374
21
771.365960
0
LINE
8
Layer 1
10
-43.952374
20
771.365960
11
-44.405831
21
771.375561
0
LINE
8
Layer 1
10
-44.405831
20
771.375561
11
-44.803105
21
771.156570
0
LINE
8
Layer 1
10
-44.803105
20
771.156570
11
-45.037439
21
770.768236
0
LINE
8
Layer 1
10
-45.037439
20
770.768236
11
-45.045879
21
770.314750
0
LINE
8
Layer 1
10
-52.826500
20
768.251000
11
-53.112015
21
768.729680
0
LINE
8
Layer 1
10
-53.112015
20
768.729680
11
-53.598808
21
769.001120
0
LINE
8
Layer 1
10
-53.598808
20
769.001120
11
-54.156104
21
768.992415
0
LINE
8
Layer 1
10
-54.156104
20
768.992415
11
-54.634178
21
768.705880
0
LINE
8
Layer 1
10
-54.634178
20
768.705880
11
-54.904588
21
768.218512
0
LINE
8
Layer 1
10
-54.904588
20
768.218512
11
-54.894692
21
767.661230
0
LINE
8
Layer 1
10
211.372000
20
794.476000
11
211.372000
21
786.476000
0
LINE
8
Layer 1
10
211.372000
20
786.476000
11
220.372000
21
786.476000
0
LINE
8
Layer 1
10
220.372000
20
774.976000
11
220.372000
21
786.476000
0
LINE
8
Layer 1
10
236.372000
20
774.976000
11
220.372000
21
774.976000
0
LINE
8
Layer 1
10
236.372000
20
764.976000
11
236.372000
21
774.976000
0
LINE
8
Layer 1
10
236.372000
20
764.976000
11
217.789000
21
764.976000
0
LINE
8
Layer 1
10
217.395000
20
764.984000
11
217.789050
21
764.975000
0
LINE
8
Layer 1
10
217.395000
20
764.984000
11
217.190988
21
765.694910
0
LINE
8
Layer 1
10
217.190988
20
765.694910
11
216.554270
21
766.071200
0
LINE
8
Layer 1
10
216.554270
20
766.071200
11
215.833129
21
765.907036
0
LINE
8
Layer 1
10
215.833129
20
765.907036
11
215.422030
21
765.292220
0
LINE
8
Layer 1
10
-65.045900
20
764.976000
11
-64.651849
21
764.985000
0
LINE
8
Layer 1
10
-33.710300
20
772.889000
11
-34.033272
21
773.363542
0
LINE
8
Layer 1
10
-34.033272
20
773.363542
11
-34.597202
21
773.470720
0
LINE
8
Layer 1
10
-34.597202
20
773.470720
11
-35.071751
21
773.147741
0
LINE
8
Layer 1
10
-35.071751
20
773.147741
11
-35.178928
21
772.583810
0
LINE
8
Layer 1
10
-48.073600
20
769.541000
11
-48.330862
21
769.991136
0
LINE
8
Layer 1
10
-48.330862
20
769.991136
11
-48.778952
21
770.251950
0
LINE
8
Layer 1
10
-48.778952
20
770.251950
11
-49.297418
21
770.253458
0
LINE
8
Layer 1
10
-49.297418
20
770.253458
11
-49.746894
21
769.994910
0
LINE
8
Layer 1
10
-49.746894
20
769.994910
11
-50.006553
21
769.546153
0
LINE
8
Layer 1
10
-50.006553
20
769.546153
11
-50.006598
21
769.027690
0
LINE
8
Layer 1
10
-28.803200
20
773.848000
11
-28.971281
21
774.198316
0
LINE
8
Layer 1
10
-28.971281
20
774.198316
11
-29.292100
21
774.417510
0
LINE
8
Layer 1
10
-29.292100
20
774.417510
11
-29.679547
21
774.446785
0
LINE
8
Layer 1
10
-29.679547
20
774.446785
11
-30.029637
21
774.278210
0
LINE
8
Layer 1
10
-30.029637
20
774.278210
11
-30.248407
21
773.957104
0
LINE
8
Layer 1
10
-30.248407
20
773.957104
11
-30.277142
21
773.569630
0
LINE
8
Layer 1
10
-62.678900
20
765.293000
11
-62.300993
21
765.404970
0
LINE
8
Layer 1
10
-58.628300
20
786.476000
11
-67.628300
21
786.476000
0
LINE
8
Layer 1
10
-58.628300
20
794.476000
11
-58.628300
21
786.476000
0
LINE
8
Layer 1
10
211.372000
20
794.476000
11
-58.628300
21
794.476000
0
LINE
8
Layer 1
10
-62.678900
20
765.293000
11
-63.089990
21
765.907861
0
LINE
8
Layer 1
10
-63.089990
20
765.907861
11
-63.811170
21
766.072040
0
LINE
8
Layer 1
10
-63.811170
20
766.072040
11
-64.447909
21
765.695735
0
LINE
8
Layer 1
10
-64.447909
20
765.695735
11
-64.651884
21
764.984780
0
LINE
8
Layer 1
10
-57.699800
20
766.834000
11
-57.973401
21
767.274189
0
LINE
8
Layer 1
10
-57.973401
20
767.274189
11
-58.430612
21
767.518290
0
LINE
8
Layer 1
10
-58.430612
20
767.518290
11
-58.948607
21
767.500759
0
LINE
8
Layer 1
10
-58.948607
20
767.500759
11
-59.388238
21
767.226240
0
LINE
8
Layer 1
10
-59.388238
20
767.226240
11
-59.631412
21
766.768534
0
LINE
8
Layer 1
10
-59.631412
20
766.768534
11
-59.612809
21
766.250580
0
LINE
8
Layer 1
10
-83.628200
20
764.976000
11
-65.046000
21
764.976000
0
LINE
8
Layer 1
10
-47.628300
20
783.226000
11
-48.158419
21
783.006241
0
LINE
8
Layer 1
10
-48.158419
20
783.006241
11
-48.378002
21
782.476020
0
LINE
8
Layer 1
10
-48.378002
20
782.476020
11
-48.158453
21
781.945790
0
LINE
8
Layer 1
10
-48.158453
20
781.945790
11
-47.628300
21
781.726000
0
LINE
8
Layer 1
10
-47.628300
20
781.726000
11
-47.098180
21
781.945746
0
LINE
8
Layer 1
10
-47.098180
20
781.945746
11
-46.878597
21
782.475970
0
LINE
8
Layer 1
10
-46.878597
20
782.475970
11
-47.098146
21
783.006205
0
LINE
8
Layer 1
10
-47.098146
20
783.006205
11
-47.628300
21
783.226000
0
LINE
8
Layer 1
10
-47.628300
20
783.226000
11
-47.628300
21
783.226000
0
LINE
8
Layer 1
10
-30.277100
20
773.570000
11
-33.710290
21
772.889160
0
LINE
8
Layer 1
10
-67.628300
20
786.476000
11
-67.628300
21
775.476000
0
LINE
8
Layer 1
10
-64.628300
20
770.976000
11
-65.157783
21
770.755875
0
LINE
8
Layer 1
10
-65.157783
20
770.755875
11
-65.376995
21
770.226000
0
LINE
8
Layer 1
10
-65.376995
20
770.226000
11
-65.157792
21
769.696133
0
LINE
8
Layer 1
10
-65.157792
20
769.696133
11
-64.628300
21
769.476000
0
LINE
8
Layer 1
10
-64.628300
20
769.476000
11
-64.098816
21
769.696121
0
LINE
8
Layer 1
10
-64.098816
20
769.696121
11
-63.879604
21
770.226000
0
LINE
8
Layer 1
10
-63.879604
20
770.226000
11
-64.098807
21
770.755860
0
LINE
8
Layer 1
10
-64.098807
20
770.755860
11
-64.628300
21
770.976000
0
LINE
8
Layer 1
10
-64.628300
20
770.976000
11
-64.628300
21
770.976000
0
LINE
8
Layer 1
10
-59.612800
20
766.250000
11
-62.301000
21
765.404310
0
LINE
8
Layer 1
10
-35.178900
20
772.584000
11
-38.599110
21
771.840700
0
LINE
8
Layer 1
10
-45.045900
20
770.315000
11
-48.073630
21
769.541170
0
LINE
8
Layer 1
10
-40.061900
20
771.509000
11
-43.346530
21
770.733000
0
LINE
8
Layer 1
10
-54.894700
20
767.662000
11
-57.699770
21
766.833970
0
LINE
8
Layer 1
10
-50.006600
20
769.027000
11
-52.826510
21
768.251000
0
LINE
8
Layer 1
10
-83.628200
20
775.476000
11
-83.628200
21
764.976000
0
LINE
8
Layer 1
10
-67.628300
20
775.476000
11
-83.628200
21
775.476000
0
LINE
8
Layer 1
10
236.372000
20
824.563000
11
217.789000
21
824.563000
0
LINE
8
Layer 1
10
236.372000
20
824.563000
11
236.372000
21
814.563000
0
LINE
8
Layer 1
10
236.372000
20
814.563000
11
220.372000
21
814.563000
0
LINE
8
Layer 1
10
220.372000
20
814.563000
11
220.372000
21
803.063000
0
LINE
8
Layer 1
10
211.372000
20
803.063000
11
220.372000
21
803.063000
0
LINE
8
Layer 1
10
211.372000
20
795.063000
11
211.372000
21
803.063000
0
LINE
8
Layer 1
10
211.372000
20
795.063000
11
-58.628300
21
795.063000
0
LINE
8
Layer 1
10
-58.628300
20
795.063000
11
-58.628300
21
803.063000
0
LINE
8
Layer 1
10
-58.628300
20
803.063000
11
-67.628300
21
803.063000
0
LINE
8
Layer 1
10
-67.628300
20
803.063000
11
-67.628300
21
814.063000
0
LINE
8
Layer 1
10
-67.628300
20
814.063000
11
-83.628200
21
814.063000
0
LINE
8
Layer 1
10
-83.628200
20
814.063000
11
-83.628200
21
824.563000
0
LINE
8
Layer 1
10
-59.612800
20
823.288000
11
-59.631400
21
822.770048
0
LINE
8
Layer 1
10
-59.631400
20
822.770048
11
-59.388221
21
822.312350
0
LINE
8
Layer 1
10
-59.388221
20
822.312350
11
-58.948590
21
822.037854
0
LINE
8
Layer 1
10
-58.948590
20
822.037854
11
-58.430595
21
822.020300
0
LINE
8
Layer 1
10
-58.430595
20
822.020300
11
-57.973391
21
822.264419
0
LINE
8
Layer 1
10
-57.973391
20
822.264419
11
-57.699790
21
822.704580
0
LINE
8
Layer 1
10
-57.699800
20
822.705000
11
-54.894730
21
821.876970
0
LINE
8
Layer 1
10
-54.894700
20
821.877000
11
-54.904580
21
821.319730
0
LINE
8
Layer 1
10
-54.904580
20
821.319730
11
-54.634186
21
820.832360
0
LINE
8
Layer 1
10
-54.634186
20
820.832360
11
-54.156116
21
820.545824
0
LINE
8
Layer 1
10
-54.156116
20
820.545824
11
-53.598826
21
820.537110
0
LINE
8
Layer 1
10
-53.598826
20
820.537110
11
-53.112029
21
820.808561
0
LINE
8
Layer 1
10
-53.112029
20
820.808561
11
-52.826510
21
821.287230
0
LINE
8
Layer 1
10
-52.826500
20
821.287000
11
-50.006590
21
820.511000
0
LINE
8
Layer 1
10
-50.006600
20
820.511000
11
-50.006705
21
819.992414
0
LINE
8
Layer 1
10
-50.006705
20
819.992414
11
-49.747071
21
819.543510
0
LINE
8
Layer 1
10
-49.747071
20
819.543510
11
-49.297511
21
819.285001
0
LINE
8
Layer 1
10
-49.297511
20
819.285001
11
-48.778931
21
819.286420
0
LINE
8
Layer 1
10
-48.778931
20
819.286420
11
-48.330788
21
819.547390
0
LINE
8
Layer 1
10
-48.330788
20
819.547390
11
-48.073601
21
819.997690
0
LINE
8
Layer 1
10
-48.073600
20
819.998000
11
-45.045870
21
819.224180
0
LINE
8
Layer 1
10
-45.045900
20
819.224000
11
-45.037260
21
818.770661
0
LINE
8
Layer 1
10
-45.037260
20
818.770661
11
-44.802897
21
818.382520
0
LINE
8
Layer 1
10
-44.802897
20
818.382520
11
-44.405739
21
818.163776
0
LINE
8
Layer 1
10
-44.405739
20
818.163776
11
-43.952425
21
818.173190
0
LINE
8
Layer 1
10
-43.952425
20
818.173190
11
-43.564682
21
818.408195
0
LINE
8
Layer 1
10
-43.564682
20
818.408195
11
-43.346621
21
818.805740
0
LINE
8
Layer 1
10
-43.346600
20
818.806000
11
-40.061970
21
818.030010
0
LINE
8
Layer 1
10
-40.061900
20
818.030000
11
-40.047837
21
817.641294
0
LINE
8
Layer 1
10
-40.047837
20
817.641294
11
-39.840975
21
817.311890
0
LINE
8
Layer 1
10
-39.840975
20
817.311890
11
-39.496946
21
817.130407
0
LINE
8
Layer 1
10
-39.496946
20
817.130407
11
-39.108279
21
817.145650
0
LINE
8
Layer 1
10
-39.108279
20
817.145650
11
-38.779516
21
817.353510
0
LINE
8
Layer 1
10
-38.779516
20
817.353510
11
-38.599086
21
817.698110
0
LINE
8
Layer 1
10
-38.599100
20
817.698000
11
-35.178890
21
816.954700
0
LINE
8
Layer 1
10
-35.178900
20
816.955000
11
-35.156877
21
816.567335
0
LINE
8
Layer 1
10
-35.156877
20
816.567335
11
-34.943945
21
816.242640
0
LINE
8
Layer 1
10
-34.943945
20
816.242640
11
-34.597182
21
816.067938
0
LINE
8
Layer 1
10
-34.597182
20
816.067938
11
-34.209524
21
816.090050
0
LINE
8
Layer 1
10
-34.209524
20
816.090050
11
-33.884882
21
816.303050
0
LINE
8
Layer 1
10
-33.884882
20
816.303050
11
-33.710272
21
816.649820
0
LINE
8
Layer 1
10
-33.710300
20
816.649000
11
-30.277110
21
815.968150
0
LINE
8
Layer 1
10
-30.277100
20
815.968000
11
-30.248536
21
815.580364
0
LINE
8
Layer 1
10
-30.248536
20
815.580364
11
-30.029778
21
815.259080
0
LINE
8
Layer 1
10
-30.029778
20
815.259080
11
-29.679577
21
815.090435
0
LINE
8
Layer 1
10
-29.679577
20
815.090435
11
-29.291993
21
815.119730
0
LINE
8
Layer 1
10
-29.291993
20
815.119730
11
-28.971125
21
815.339119
0
LINE
8
Layer 1
10
-28.971125
20
815.339119
11
-28.803158
21
815.689630
0
LINE
8
Layer 1
10
-28.803200
20
815.690000
11
-25.358180
21
815.071840
0
LINE
8
Layer 1
10
-25.358100
20
815.072000
11
-25.322153
21
814.685234
0
LINE
8
Layer 1
10
-25.322153
20
814.685234
11
-25.097556
21
814.368330
0
LINE
8
Layer 1
10
-25.097556
20
814.368330
11
-24.744554
21
814.206273
0
LINE
8
Layer 1
10
-24.744554
20
814.206273
11
-24.357825
21
814.242530
0
LINE
8
Layer 1
10
-24.357825
20
814.242530
11
-24.041099
21
814.467386
0
LINE
8
Layer 1
10
-24.041099
20
814.467386
11
-23.879329
21
814.820530
0
LINE
8
Layer 1
10
-23.879400
20
814.820000
11
-20.176580
21
814.226760
0
LINE
8
Layer 1
10
-20.176600
20
814.227000
11
-19.994627
21
813.760660
0
LINE
8
Layer 1
10
-19.994627
20
813.760660
11
-19.499682
21
813.685760
0
LINE
8
Layer 1
10
-19.499682
20
813.685760
11
-19.187861
21
814.077370
0
LINE
8
Layer 1
10
-19.187800
20
814.078000
11
-15.227520
21
813.515480
0
LINE
8
Layer 1
10
-15.227500
20
813.515000
11
-15.128856
21
813.145257
0
LINE
8
Layer 1
10
-15.128856
20
813.145257
11
-14.797653
21
812.953550
0
LINE
8
Layer 1
10
-14.797653
20
812.953550
11
-14.427902
21
813.052212
0
LINE
8
Layer 1
10
-14.427902
20
813.052212
11
-14.236198
21
813.383390
0
LINE
8
Layer 1
10
-14.236200
20
813.383000
11
-10.266320
21
812.892750
0
LINE
8
Layer 1
10
-10.266400
20
812.893000
11
-10.161037
21
812.525106
0
LINE
8
Layer 1
10
-10.161037
20
812.525106
11
-9.826393
21
812.339470
0
LINE
8
Layer 1
10
-9.826393
20
812.339470
11
-9.458500
21
812.444814
0
LINE
8
Layer 1
10
-9.458500
20
812.444814
11
-9.272862
21
812.779470
0
LINE
8
Layer 1
10
-9.272820
20
812.780000
11
-1.631982
21
812.029240
0
LINE
8
Layer 1
10
-1.631982
20
812.029240
11
6.025430
21
811.492667
0
LINE
8
Layer 1
10
6.025430
20
811.492667
11
13.694843
21
811.170538
0
LINE
8
Layer 1
10
13.694843
20
811.170538
11
21.371680
21
811.063110
0
LINE
8
Layer 1
10
21.371700
20
811.063000
11
131.372000
21
811.063000
0
LINE
8
Layer 1
10
131.372000
20
811.063000
11
139.048880
21
811.170428
0
LINE
8
Layer 1
10
139.048880
20
811.170428
11
146.718288
21
811.492557
0
LINE
8
Layer 1
10
146.718288
20
811.492557
11
154.375677
21
812.029130
0
LINE
8
Layer 1
10
154.375677
20
812.029130
11
162.016500
21
812.779890
0
LINE
8
Layer 1
10
162.016000
20
812.780000
11
162.201665
21
812.445359
0
LINE
8
Layer 1
10
162.201665
20
812.445359
11
162.569550
21
812.340000
0
LINE
8
Layer 1
10
162.569550
20
812.340000
11
162.904191
21
812.525621
0
LINE
8
Layer 1
10
162.904191
20
812.525621
11
163.009550
21
812.893530
0
LINE
8
Layer 1
10
163.010000
20
812.893000
11
166.979880
21
813.383250
0
LINE
8
Layer 1
10
166.980000
20
813.383000
11
167.284730
21
812.986190
0
LINE
8
Layer 1
10
167.284730
20
812.986190
11
167.780670
21
813.052090
0
LINE
8
Layer 1
10
167.780670
20
813.052090
11
167.971300
21
813.514660
0
LINE
8
Layer 1
10
167.971000
20
813.515000
11
171.931280
21
814.077520
0
LINE
8
Layer 1
10
171.931000
20
814.078000
11
172.242830
21
813.686390
0
LINE
8
Layer 1
10
172.242830
20
813.686390
11
172.737770
21
813.761290
0
LINE
8
Layer 1
10
172.737770
20
813.761290
11
172.919740
21
814.227630
0
LINE
8
Layer 1
10
172.920000
20
814.227000
11
176.622820
21
814.820240
0
LINE
8
Layer 1
10
176.623000
20
814.820000
11
176.928455
21
814.334005
0
LINE
8
Layer 1
10
176.928455
20
814.334005
11
177.488130
21
814.206360
0
LINE
8
Layer 1
10
177.488130
20
814.206360
11
177.974130
21
814.511805
0
LINE
8
Layer 1
10
177.974130
20
814.511805
11
178.101780
21
815.071470
0
LINE
8
Layer 1
10
178.101000
20
815.072000
11
181.546020
21
815.690160
0
LINE
8
Layer 1
10
181.547000
20
815.690000
11
181.861284
21
815.209655
0
LINE
8
Layer 1
10
181.861284
20
815.209655
11
182.423150
21
815.092220
0
LINE
8
Layer 1
10
182.423150
20
815.092220
11
182.903514
21
815.406500
0
LINE
8
Layer 1
10
182.903514
20
815.406500
11
183.020960
21
815.968370
0
LINE
8
Layer 1
10
183.020000
20
815.968000
11
186.453180
21
816.648850
0
LINE
8
Layer 1
10
186.454000
20
816.649000
11
186.628334
21
816.301565
0
LINE
8
Layer 1
10
186.628334
20
816.301565
11
186.953140
21
816.088050
0
LINE
8
Layer 1
10
186.953140
20
816.088050
11
187.341210
21
816.065821
0
LINE
8
Layer 1
10
187.341210
20
816.065821
11
187.688300
21
816.240820
0
LINE
8
Layer 1
10
187.688300
20
816.240820
11
187.901158
21
816.566055
0
LINE
8
Layer 1
10
187.901158
20
816.566055
11
187.922630
21
816.954170
0
LINE
8
Layer 1
10
187.922000
20
816.955000
11
191.342190
21
817.698300
0
LINE
8
Layer 1
10
191.342000
20
817.698000
11
191.522429
21
817.353415
0
LINE
8
Layer 1
10
191.522429
20
817.353415
11
191.851200
21
817.145540
0
LINE
8
Layer 1
10
191.851200
20
817.145540
11
192.239866
21
817.130320
0
LINE
8
Layer 1
10
192.239866
20
817.130320
11
192.583900
21
817.311780
0
LINE
8
Layer 1
10
192.583900
20
817.311780
11
192.790765
21
817.641184
0
LINE
8
Layer 1
10
192.790765
20
817.641184
11
192.804820
21
818.029890
0
LINE
8
Layer 1
10
192.805000
20
818.030000
11
196.089640
21
818.805990
0
LINE
8
Layer 1
10
196.090000
20
818.806000
11
196.308067
21
818.408470
0
LINE
8
Layer 1
10
196.308067
20
818.408470
11
196.695800
21
818.173450
0
LINE
8
Layer 1
10
196.695800
20
818.173450
11
197.149120
21
818.163841
0
LINE
8
Layer 1
10
197.149120
20
818.163841
11
197.546280
21
818.382780
0
LINE
8
Layer 1
10
197.546280
20
818.382780
11
197.780640
21
818.770929
0
LINE
8
Layer 1
10
197.780640
20
818.770929
11
197.789280
21
819.224260
0
LINE
8
Layer 1
10
197.789000
20
819.224000
11
200.816720
21
819.997820
0
LINE
8
Layer 1
10
200.817000
20
819.998000
11
201.074200
21
819.547684
0
LINE
8
Layer 1
10
201.074200
20
819.547684
11
201.522320
21
819.286720
0
LINE
8
Layer 1
10
201.522320
20
819.286720
11
202.040909
21
819.285183
0
LINE
8
Layer 1
10
202.040909
20
819.285183
11
202.490460
21
819.543820
0
LINE
8
Layer 1
10
202.490460
20
819.543820
11
202.750108
21
819.992719
0
LINE
8
Layer 1
10
202.750108
20
819.992719
11
202.750000
21
820.511300
0
LINE
8
Layer 1
10
202.750000
20
820.511000
11
205.569920
21
821.287000
0
LINE
8
Layer 1
10
205.570000
20
821.287000
11
205.855530
21
820.808324
0
LINE
8
Layer 1
10
205.855530
20
820.808324
11
206.342330
21
820.536880
0
LINE
8
Layer 1
10
206.342330
20
820.536880
11
206.899616
21
820.545585
0
LINE
8
Layer 1
10
206.899616
20
820.545585
11
207.377680
21
820.832120
0
LINE
8
Layer 1
10
207.377680
20
820.832120
11
207.648096
21
821.319495
0
LINE
8
Layer 1
10
207.648096
20
821.319495
11
207.638200
21
821.876770
0
LINE
8
Layer 1
10
207.638000
20
821.877000
11
210.443080
21
822.705030
0
LINE
8
Layer 1
10
210.443000
20
822.705000
11
210.716606
21
822.264820
0
LINE
8
Layer 1
10
210.716606
20
822.264820
11
211.173820
21
822.020720
0
LINE
8
Layer 1
10
211.173820
20
822.020720
11
211.691813
21
822.038289
0
LINE
8
Layer 1
10
211.691813
20
822.038289
11
212.131430
21
822.312770
0
LINE
8
Layer 1
10
212.131430
20
822.312770
11
212.374606
21
822.770471
0
LINE
8
Layer 1
10
212.374606
20
822.770471
11
212.356010
21
823.288420
0
LINE
8
Layer 1
10
212.356000
20
823.288000
11
215.044200
21
824.133700
0
LINE
8
Layer 1
10
215.422000
20
824.246000
11
215.044090
21
824.134030
0
LINE
8
Layer 1
10
215.422000
20
824.246000
11
215.833104
21
823.631184
0
LINE
8
Layer 1
10
215.833104
20
823.631184
11
216.554250
21
823.467020
0
LINE
8
Layer 1
10
216.554250
20
823.467020
11
217.190971
21
823.843305
0
LINE
8
Layer 1
10
217.190971
20
823.843305
11
217.394980
21
824.554210
0
LINE
8
Layer 1
10
217.789000
20
824.563000
11
217.394950
21
824.554000
0
LINE
8
Layer 1
10
200.372000
20
807.813000
11
199.841889
21
807.593255
0
LINE
8
Layer 1
10
199.841889
20
807.593255
11
199.622300
21
807.063040
0
LINE
8
Layer 1
10
199.622300
20
807.063040
11
199.841855
21
806.532804
0
LINE
8
Layer 1
10
199.841855
20
806.532804
11
200.372000
21
806.313000
0
LINE
8
Layer 1
10
200.372000
20
806.313000
11
200.902110
21
806.532754
0
LINE
8
Layer 1
10
200.902110
20
806.532754
11
201.121690
21
807.062970
0
LINE
8
Layer 1
10
201.121690
20
807.062970
11
200.902144
21
807.593205
0
LINE
8
Layer 1
10
200.902144
20
807.593205
11
200.372000
21
807.813000
0
LINE
8
Layer 1
10
200.372000
20
807.813000
11
200.372000
21
807.813000
0
LINE
8
Layer 1
10
217.372000
20
820.313000
11
216.842512
21
820.092879
0
LINE
8
Layer 1
10
216.842512
20
820.092879
11
216.623300
21
819.563000
0
LINE
8
Layer 1
10
216.623300
20
819.563000
11
216.842509
21
819.033136
0
LINE
8
Layer 1
10
216.842509
20
819.033136
11
217.372000
21
818.813000
0
LINE
8
Layer 1
10
217.372000
20
818.813000
11
217.901488
21
819.033129
0
LINE
8
Layer 1
10
217.901488
20
819.033129
11
218.120700
21
819.563000
0
LINE
8
Layer 1
10
218.120700
20
819.563000
11
217.901491
21
820.092871
0
LINE
8
Layer 1
10
217.901491
20
820.092871
11
217.372000
21
820.313000
0
LINE
8
Layer 1
10
217.372000
20
820.313000
11
217.372000
21
820.313000
0
LINE
8
Layer 1
10
-64.628300
20
820.063000
11
-65.157783
21
819.842879
0
LINE
8
Layer 1
10
-65.157783
20
819.842879
11
-65.376995
21
819.313000
0
LINE
8
Layer 1
10
-65.376995
20
819.313000
11
-65.157792
21
818.783136
0
LINE
8
Layer 1
10
-65.157792
20
818.783136
11
-64.628300
21
818.563000
0
LINE
8
Layer 1
10
-64.628300
20
818.563000
11
-64.098816
21
818.783129
0
LINE
8
Layer 1
10
-64.098816
20
818.783129
11
-63.879604
21
819.313000
0
LINE
8
Layer 1
10
-63.879604
20
819.313000
11
-64.098807
21
819.842871
0
LINE
8
Layer 1
10
-64.098807
20
819.842871
11
-64.628300
21
820.063000
0
LINE
8
Layer 1
10
-64.628300
20
820.063000
11
-64.628300
21
820.063000
0
LINE
8
Layer 1
10
-20.972100
20
805.313000
11
-21.502219
21
805.093255
0
LINE
8
Layer 1
10
-21.502219
20
805.093255
11
-21.721803
21
804.563040
0
LINE
8
Layer 1
10
-21.721803
20
804.563040
11
-21.502254
21
804.032804
0
LINE
8
Layer 1
10
-21.502254
20
804.032804
11
-20.972100
21
803.813000
0
LINE
8
Layer 1
10
-20.972100
20
803.813000
11
-20.441981
21
804.032754
0
LINE
8
Layer 1
10
-20.441981
20
804.032754
11
-20.222398
21
804.562970
0
LINE
8
Layer 1
10
-20.222398
20
804.562970
11
-20.441947
21
805.093205
0
LINE
8
Layer 1
10
-20.441947
20
805.093205
11
-20.972100
21
805.313000
0
LINE
8
Layer 1
10
-20.972100
20
805.313000
11
-20.972100
21
805.313000
0
LINE
8
Layer 1
10
-47.628300
20
807.813000
11
-48.158419
21
807.593255
0
LINE
8
Layer 1
10
-48.158419
20
807.593255
11
-48.378002
21
807.063040
0
LINE
8
Layer 1
10
-48.378002
20
807.063040
11
-48.158453
21
806.532804
0
LINE
8
Layer 1
10
-48.158453
20
806.532804
11
-47.628300
21
806.313000
0
LINE
8
Layer 1
10
-47.628300
20
806.313000
11
-47.098180
21
806.532754
0
LINE
8
Layer 1
10
-47.098180
20
806.532754
11
-46.878597
21
807.062970
0
LINE
8
Layer 1
10
-46.878597
20
807.062970
11
-47.098146
21
807.593205
0
LINE
8
Layer 1
10
-47.098146
20
807.593205
11
-47.628300
21
807.813000
0
LINE
8
Layer 1
10
-47.628300
20
807.813000
11
-47.628300
21
807.813000
0
LINE
8
Layer 1
10
124.122000
20
804.313000
11
123.592512
21
804.092879
0
LINE
8
Layer 1
10
123.592512
20
804.092879
11
123.373300
21
803.563000
0
LINE
8
Layer 1
10
123.373300
20
803.563000
11
123.592509
21
803.033136
0
LINE
8
Layer 1
10
123.592509
20
803.033136
11
124.122000
21
802.813000
0
LINE
8
Layer 1
10
124.122000
20
802.813000
11
124.651482
21
803.033129
0
LINE
8
Layer 1
10
124.651482
20
803.033129
11
124.870690
21
803.563000
0
LINE
8
Layer 1
10
124.870690
20
803.563000
11
124.651490
21
804.092871
0
LINE
8
Layer 1
10
124.651490
20
804.092871
11
124.122000
21
804.313000
0
LINE
8
Layer 1
10
124.122000
20
804.313000
11
124.122000
21
804.313000
0
LINE
8
Layer 1
10
28.621700
20
804.313000
11
28.092216
21
804.092879
0
LINE
8
Layer 1
10
28.092216
20
804.092879
11
27.873002
21
803.563000
0
LINE
8
Layer 1
10
27.873002
20
803.563000
11
28.092208
21
803.033136
0
LINE
8
Layer 1
10
28.092208
20
803.033136
11
28.621700
21
802.813000
0
LINE
8
Layer 1
10
28.621700
20
802.813000
11
29.151183
21
803.033129
0
LINE
8
Layer 1
10
29.151183
20
803.033129
11
29.370397
21
803.563000
0
LINE
8
Layer 1
10
29.370397
20
803.563000
11
29.151191
21
804.092871
0
LINE
8
Layer 1
10
29.151191
20
804.092871
11
28.621700
21
804.313000
0
LINE
8
Layer 1
10
28.621700
20
804.313000
11
28.621700
21
804.313000
0
LINE
8
Layer 1
10
173.715000
20
805.313000
11
173.184894
21
805.093255
0
LINE
8
Layer 1
10
173.184894
20
805.093255
11
172.965310
21
804.563040
0
LINE
8
Layer 1
10
172.965310
20
804.563040
11
173.184860
21
804.032804
0
LINE
8
Layer 1
10
173.184860
20
804.032804
11
173.715000
21
803.813000
0
LINE
8
Layer 1
10
173.715000
20
803.813000
11
174.245111
21
804.032754
0
LINE
8
Layer 1
10
174.245111
20
804.032754
11
174.464700
21
804.562970
0
LINE
8
Layer 1
10
174.464700
20
804.562970
11
174.245145
21
805.093205
0
LINE
8
Layer 1
10
174.245145
20
805.093205
11
173.715000
21
805.313000
0
LINE
8
Layer 1
10
173.715000
20
805.313000
11
173.715000
21
805.313000
0
LINE
8
Layer 1
10
-83.628200
20
824.563000
11
-65.046000
21
824.563000
0
LINE
8
Layer 1
10
-64.651900
20
824.554000
11
-64.447920
21
823.843057
0
LINE
8
Layer 1
10
-64.447920
20
823.843057
11
-63.811179
21
823.466750
0
LINE
8
Layer 1
10
-63.811179
20
823.466750
11
-63.090010
21
823.630936
0
LINE
8
Layer 1
10
-63.090010
20
823.630936
11
-62.678919
21
824.245790
0
LINE
8
Layer 1
10
-64.651900
20
824.554000
11
-65.045951
21
824.563000
0
LINE
8
Layer 1
10
-62.301000
20
824.134000
11
-62.678907
21
824.245970
0
LINE
8
Layer 1
10
-62.301000
20
824.134000
11
-59.612800
21
823.288290
0
LINE
8
Layer 1
10
47.710000
20
649.886000
11
64.958100
21
649.886000
0
LINE
8
Layer 1
10
47.709000
20
649.887000
11
36.991746
21
649.679103
0
LINE
8
Layer 1
10
36.991746
20
649.679103
11
26.302650
21
649.056652
0
LINE
8
Layer 1
10
26.302650
20
649.056652
11
15.653623
21
648.021508
0
LINE
8
Layer 1
10
15.653623
20
648.021508
11
5.056575
21
646.575531
0
LINE
8
Layer 1
10
5.056575
20
646.575531
11
-5.476582
21
644.720582
0
LINE
8
Layer 1
10
-5.476582
20
644.720582
11
-15.933937
21
642.458520
0
LINE
8
Layer 1
10
-15.933937
20
642.458520
11
-26.303580
21
639.791206
0
LINE
8
Layer 1
10
-26.303580
20
639.791206
11
-36.573600
21
636.720500
0
LINE
8
Layer 1
10
-38.708600
20
636.387000
11
-37.628180
21
636.470881
0
LINE
8
Layer 1
10
-37.628180
20
636.470881
11
-36.573650
21
636.720520
0
LINE
8
Layer 1
10
-57.289900
20
636.387000
11
-38.708200
21
636.387000
0
LINE
8
Layer 1
10
-57.289900
20
644.886000
11
-57.289900
21
636.387000
0
LINE
8
Layer 1
10
-41.290600
20
644.886000
11
-57.289900
21
644.886000
0
LINE
8
Layer 1
10
-41.290600
20
655.887000
11
-41.290600
21
644.886000
0
LINE
8
Layer 1
10
-32.292100
20
655.887000
11
-41.290600
21
655.887000
0
LINE
8
Layer 1
10
-32.292100
20
659.887000
11
-32.292100
21
655.887000
0
LINE
8
Layer 1
10
64.958100
20
659.887000
11
-32.292100
21
659.887000
0
LINE
8
Layer 1
10
64.958100
20
659.887000
11
64.958100
21
649.886000
0
LINE
8
Layer 1
10
-38.291000
20
640.387000
11
-38.821115
21
640.167250
0
LINE
8
Layer 1
10
-38.821115
20
640.167250
11
-39.040698
21
639.637030
0
LINE
8
Layer 1
10
-39.040698
20
639.637030
11
-38.821151
21
639.106791
0
LINE
8
Layer 1
10
-38.821151
20
639.106791
11
-38.291000
21
638.887000
0
LINE
8
Layer 1
10
-38.291000
20
638.887000
11
-37.760883
21
639.106750
0
LINE
8
Layer 1
10
-37.760883
20
639.106750
11
-37.541297
21
639.636970
0
LINE
8
Layer 1
10
-37.541297
20
639.636970
11
-37.760848
21
640.167205
0
LINE
8
Layer 1
10
-37.760848
20
640.167205
11
-38.291000
21
640.387000
0
LINE
8
Layer 1
10
-38.291000
20
640.387000
11
-38.291000
21
640.387000
0
LINE
8
Layer 1
10
5.365280
20
655.137000
11
4.835741
21
654.916894
0
LINE
8
Layer 1
10
4.835741
20
654.916894
11
4.616512
21
654.387000
0
LINE
8
Layer 1
10
4.616512
20
654.387000
11
4.835750
21
653.857111
0
LINE
8
Layer 1
10
4.835750
20
653.857111
11
5.365280
21
653.637010
0
LINE
8
Layer 1
10
5.365280
20
653.637010
11
5.895399
21
653.856760
0
LINE
8
Layer 1
10
5.895399
20
653.856760
11
6.114982
21
654.386980
0
LINE
8
Layer 1
10
6.114982
20
654.386980
11
5.895433
21
654.917215
0
LINE
8
Layer 1
10
5.895433
20
654.917215
11
5.365280
21
655.137010
0
LINE
8
Layer 1
10
5.365280
20
655.137010
11
5.365280
21
655.137000
0
LINE
8
Layer 1
10
-21.291000
20
652.637000
11
-21.821116
21
652.417254
0
LINE
8
Layer 1
10
-21.821116
20
652.417254
11
-22.040700
21
651.887030
0
LINE
8
Layer 1
10
-22.040700
20
651.887030
11
-21.821152
21
651.356795
0
LINE
8
Layer 1
10
-21.821152
20
651.356795
11
-21.291000
21
651.137000
0
LINE
8
Layer 1
10
-21.291000
20
651.137000
11
-20.760882
21
651.356754
0
LINE
8
Layer 1
10
-20.760882
20
651.356754
11
-20.541297
21
651.886970
0
LINE
8
Layer 1
10
-20.541297
20
651.886970
11
-20.760847
21
652.417209
0
LINE
8
Layer 1
10
-20.760847
20
652.417209
11
-21.291000
21
652.637000
0
LINE
8
Layer 1
10
-21.291000
20
652.637000
11
-21.291000
21
652.637000
0
LINE
8
Layer 1
10
54.959000
20
656.137000
11
54.428881
21
655.917246
0
LINE
8
Layer 1
10
54.428881
20
655.917246
11
54.209297
21
655.387030
0
LINE
8
Layer 1
10
54.209297
20
655.387030
11
54.428846
21
654.856791
0
LINE
8
Layer 1
10
54.428846
20
654.856791
11
54.959000
21
654.637000
0
LINE
8
Layer 1
10
54.959000
20
654.637000
11
55.489119
21
654.856750
0
LINE
8
Layer 1
10
55.489119
20
654.856750
11
55.708702
21
655.386970
0
LINE
8
Layer 1
10
55.708702
20
655.386970
11
55.489153
21
655.917205
0
LINE
8
Layer 1
10
55.489153
20
655.917205
11
54.959000
21
656.137000
0
LINE
8
Layer 1
10
54.959000
20
656.137000
11
54.959000
21
656.137000
0
LINE
8
Layer 1
10
-31.291000
20
654.887000
11
-31.680246
21
654.808414
0
LINE
8
Layer 1
10
-31.680246
20
654.808414
11
-31.998107
21
654.594105
0
LINE
8
Layer 1
10
-31.998107
20
654.594105
11
-32.212415
21
654.276243
0
LINE
8
Layer 1
10
-32.212415
20
654.276243
11
-32.291000
21
653.887000
0
LINE
8
Layer 1
10
-32.291000
20
653.887000
11
-32.212415
21
653.497752
0
LINE
8
Layer 1
10
-32.212415
20
653.497752
11
-31.998106
21
653.179890
0
LINE
8
Layer 1
10
-31.998106
20
653.179890
11
-31.680245
21
652.965580
0
LINE
8
Layer 1
10
-31.680245
20
652.965580
11
-31.291000
21
652.886990
0
LINE
8
Layer 1
10
-31.291000
20
652.886990
11
-30.901754
21
652.965580
0
LINE
8
Layer 1
10
-30.901754
20
652.965580
11
-30.583893
21
653.179890
0
LINE
8
Layer 1
10
-30.583893
20
653.179890
11
-30.369585
21
653.497752
0
LINE
8
Layer 1
10
-30.369585
20
653.497752
11
-30.291000
21
653.887000
0
LINE
8
Layer 1
10
-30.291000
20
653.887000
11
-30.369585
21
654.276243
0
LINE
8
Layer 1
10
-30.369585
20
654.276243
11
-30.583893
21
654.594105
0
LINE
8
Layer 1
10
-30.583893
20
654.594105
11
-30.901755
21
654.808414
0
LINE
8
Layer 1
10
-30.901755
20
654.808414
11
-31.291000
21
654.887000
0
LINE
8
Layer 1
10
-31.291000
20
654.887000
11
-31.291000
21
654.887000
0
LINE
8
Layer 1
10
44.959000
20
657.137000
11
44.570225
21
657.057998
0
LINE
8
Layer 1
10
44.570225
20
657.057998
11
44.252840
21
656.843596
0
LINE
8
Layer 1
10
44.252840
20
656.843596
11
44.038901
21
656.525899
0
LINE
8
Layer 1
10
44.038901
20
656.525899
11
43.960464
21
656.137010
0
LINE
8
Layer 1
10
43.960464
20
656.137010
11
44.038901
21
655.748116
0
LINE
8
Layer 1
10
44.038901
20
655.748116
11
44.252840
21
655.430415
0
LINE
8
Layer 1
10
44.252840
20
655.430415
11
44.570225
21
655.216012
0
LINE
8
Layer 1
10
44.570225
20
655.216012
11
44.959000
21
655.137010
0
LINE
8
Layer 1
10
44.959000
20
655.137010
11
45.348088
21
655.215735
0
LINE
8
Layer 1
10
45.348088
20
655.215735
11
45.665790
21
655.430074
0
LINE
8
Layer 1
10
45.665790
20
655.430074
11
45.879975
21
655.747881
0
LINE
8
Layer 1
10
45.879975
20
655.747881
11
45.958511
21
656.137010
0
LINE
8
Layer 1
10
45.958511
20
656.137010
11
45.879975
21
656.526135
0
LINE
8
Layer 1
10
45.879975
20
656.526135
11
45.665790
21
656.843942
0
LINE
8
Layer 1
10
45.665790
20
656.843942
11
45.348088
21
657.058284
0
LINE
8
Layer 1
10
45.348088
20
657.058284
11
44.959000
21
657.137010
0
LINE
8
Layer 1
10
44.959000
20
657.137010
11
44.959000
21
657.137000
0
LINE
8
Layer 1
10
-32.247100
20
659.956000
11
-32.247100
21
663.957000
0
LINE
8
Layer 1
10
-32.247100
20
663.957000
11
-41.248200
21
663.957000
0
LINE
8
Layer 1
10
-41.248200
20
663.957000
11
-41.248200
21
674.958000
0
LINE
8
Layer 1
10
-41.248200
20
674.958000
11
-57.247600
21
674.958000
0
LINE
8
Layer 1
10
-57.247600
20
674.958000
11
-57.247600
21
683.457000
0
LINE
8
Layer 1
10
-57.247600
20
683.457000
11
-38.665900
21
683.457000
0
LINE
8
Layer 1
10
-36.530600
20
683.124000
11
-37.585129
21
683.373635
0
LINE
8
Layer 1
10
-37.585129
20
683.373635
11
-38.665550
21
683.457520
0
LINE
8
Layer 1
10
-36.530600
20
683.124000
11
-26.260548
21
680.053300
0
LINE
8
Layer 1
10
-26.260548
20
680.053300
11
-15.890881
21
677.385989
0
LINE
8
Layer 1
10
-15.890881
20
677.385989
11
-5.433512
21
675.123927
0
LINE
8
Layer 1
10
-5.433512
20
675.123927
11
5.099650
21
673.268976
0
LINE
8
Layer 1
10
5.099650
20
673.268976
11
15.696693
21
671.822997
0
LINE
8
Layer 1
10
15.696693
20
671.822997
11
26.345706
21
670.787850
0
LINE
8
Layer 1
10
26.345706
20
670.787850
11
37.034779
21
670.165398
0
LINE
8
Layer 1
10
37.034779
20
670.165398
11
47.752000
21
669.957500
0
LINE
8
Layer 1
10
47.752300
20
669.958000
11
65.003100
21
669.958000
0
LINE
8
Layer 1
10
65.003100
20
659.956000
11
65.003100
21
669.958000
0
LINE
8
Layer 1
10
65.003100
20
659.956000
11
-32.247100
21
659.956000
0
LINE
8
Layer 1
10
45.002000
20
664.707000
11
44.612755
21
664.628414
0
LINE
8
Layer 1
10
44.612755
20
664.628414
11
44.294894
21
664.414105
0
LINE
8
Layer 1
10
44.294894
20
664.414105
11
44.080585
21
664.096243
0
LINE
8
Layer 1
10
44.080585
20
664.096243
11
44.002000
21
663.707000
0
LINE
8
Layer 1
10
44.002000
20
663.707000
11
44.080585
21
663.317753
0
LINE
8
Layer 1
10
44.080585
20
663.317753
11
44.294894
21
662.999891
0
LINE
8
Layer 1
10
44.294894
20
662.999891
11
44.612755
21
662.785584
0
LINE
8
Layer 1
10
44.612755
20
662.785584
11
45.002000
21
662.707000
0
LINE
8
Layer 1
10
45.002000
20
662.707000
11
45.391088
21
662.785721
0
LINE
8
Layer 1
10
45.391088
20
662.785721
11
45.708791
21
663.000060
0
LINE
8
Layer 1
10
45.708791
20
663.000060
11
45.922976
21
663.317869
0
LINE
8
Layer 1
10
45.922976
20
663.317869
11
46.001512
21
663.707000
0
LINE
8
Layer 1
10
46.001512
20
663.707000
11
45.922976
21
664.096125
0
LINE
8
Layer 1
10
45.922976
20
664.096125
11
45.708791
21
664.413932
0
LINE
8
Layer 1
10
45.708791
20
664.413932
11
45.391088
21
664.628274
0
LINE
8
Layer 1
10
45.391088
20
664.628274
11
45.002000
21
664.707000
0
LINE
8
Layer 1
10
45.002000
20
664.707000
11
45.002000
21
664.707000
0
LINE
8
Layer 1
10
-31.248000
20
666.957000
11
-31.637088
21
666.878274
0
LINE
8
Layer 1
10
-31.637088
20
666.878274
11
-31.954791
21
666.663932
0
LINE
8
Layer 1
10
-31.954791
20
666.663932
11
-32.168976
21
666.346125
0
LINE
8
Layer 1
10
-32.168976
20
666.346125
11
-32.247512
21
665.957000
0
LINE
8
Layer 1
10
-32.247512
20
665.957000
11
-32.168976
21
665.567871
0
LINE
8
Layer 1
10
-32.168976
20
665.567871
11
-31.954791
21
665.250064
0
LINE
8
Layer 1
10
-31.954791
20
665.250064
11
-31.637088
21
665.035725
0
LINE
8
Layer 1
10
-31.637088
20
665.035725
11
-31.248000
21
664.957000
0
LINE
8
Layer 1
10
-31.248000
20
664.957000
11
-30.858911
21
665.035725
0
LINE
8
Layer 1
10
-30.858911
20
665.035725
11
-30.541208
21
665.250064
0
LINE
8
Layer 1
10
-30.541208
20
665.250064
11
-30.327023
21
665.567871
0
LINE
8
Layer 1
10
-30.327023
20
665.567871
11
-30.248488
21
665.957000
0
LINE
8
Layer 1
10
-30.248488
20
665.957000
11
-30.327023
21
666.346125
0
LINE
8
Layer 1
10
-30.327023
20
666.346125
11
-30.541208
21
666.663932
0
LINE
8
Layer 1
10
-30.541208
20
666.663932
11
-30.858911
21
666.878274
0
LINE
8
Layer 1
10
-30.858911
20
666.878274
11
-31.248000
21
666.957000
0
LINE
8
Layer 1
10
-31.248000
20
666.957000
11
-31.248000
21
666.957000
0
LINE
8
Layer 1
10
55.002000
20
665.207000
11
54.472254
21
664.987010
0
LINE
8
Layer 1
10
54.472254
20
664.987010
11
54.252900
21
664.457000
0
LINE
8
Layer 1
10
54.252900
20
664.457000
11
54.472254
21
663.926983
0
LINE
8
Layer 1
10
54.472254
20
663.926983
11
55.002000
21
663.707000
0
LINE
8
Layer 1
10
55.002000
20
663.707000
11
55.531746
21
663.926983
0
LINE
8
Layer 1
10
55.531746
20
663.926983
11
55.751100
21
664.457000
0
LINE
8
Layer 1
10
55.751100
20
664.457000
11
55.531746
21
664.987010
0
LINE
8
Layer 1
10
55.531746
20
664.987010
11
55.002000
21
665.207000
0
LINE
8
Layer 1
10
55.002000
20
665.207000
11
55.002000
21
665.207000
0
LINE
8
Layer 1
10
-21.248000
20
668.707000
11
-21.778118
21
668.487246
0
LINE
8
Layer 1
10
-21.778118
20
668.487246
11
-21.997703
21
667.957030
0
LINE
8
Layer 1
10
-21.997703
20
667.957030
11
-21.778153
21
667.426791
0
LINE
8
Layer 1
10
-21.778153
20
667.426791
11
-21.248000
21
667.207000
0
LINE
8
Layer 1
10
-21.248000
20
667.207000
11
-20.717884
21
667.426750
0
LINE
8
Layer 1
10
-20.717884
20
667.426750
11
-20.498300
21
667.956970
0
LINE
8
Layer 1
10
-20.498300
20
667.956970
11
-20.717848
21
668.487205
0
LINE
8
Layer 1
10
-20.717848
20
668.487205
11
-21.248000
21
668.707000
0
LINE
8
Layer 1
10
-21.248000
20
668.707000
11
-21.248000
21
668.707000
0
LINE
8
Layer 1
10
5.408290
20
666.207000
11
4.878172
21
665.987246
0
LINE
8
Layer 1
10
4.878172
20
665.987246
11
4.658588
21
665.457030
0
LINE
8
Layer 1
10
4.658588
20
665.457030
11
4.878137
21
664.926791
0
LINE
8
Layer 1
10
4.878137
20
664.926791
11
5.408290
21
664.707000
0
LINE
8
Layer 1
10
5.408290
20
664.707000
11
5.938410
21
664.926750
0
LINE
8
Layer 1
10
5.938410
20
664.926750
11
6.157993
21
665.456970
0
LINE
8
Layer 1
10
6.157993
20
665.456970
11
5.938444
21
665.987205
0
LINE
8
Layer 1
10
5.938444
20
665.987205
11
5.408290
21
666.207000
0
LINE
8
Layer 1
10
5.408290
20
666.207000
11
5.408290
21
666.207000
0
LINE
8
Layer 1
10
-38.248000
20
680.957000
11
-38.778070
21
680.737161
0
LINE
8
Layer 1
10
-38.778070
20
680.737161
11
-38.997577
21
680.206980
0
LINE
8
Layer 1
10
-38.997577
20
680.206980
11
-38.778049
21
679.676804
0
LINE
8
Layer 1
10
-38.778049
20
679.676804
11
-38.248000
21
679.457000
0
LINE
8
Layer 1
10
-38.248000
20
679.457000
11
-37.717930
21
679.676830
0
LINE
8
Layer 1
10
-37.717930
20
679.676830
11
-37.498424
21
680.207010
0
LINE
8
Layer 1
10
-37.498424
20
680.207010
11
-37.717951
21
680.737188
0
LINE
8
Layer 1
10
-37.717951
20
680.737188
11
-38.248000
21
680.957000
0
LINE
8
Layer 1
10
-38.248000
20
680.957000
11
-38.248000
21
680.957000
0
LINE
8
Layer 1
10
-39.634900
20
629.958000
11
-56.885200
21
629.958000
0
LINE
8
Layer 1
10
-39.635200
20
629.957000
11
-28.917946
21
630.164897
0
LINE
8
Layer 1
10
-28.917946
20
630.164897
11
-18.228850
21
630.787348
0
LINE
8
Layer 1
10
-18.228850
20
630.787348
11
-7.579823
21
631.822492
0
LINE
8
Layer 1
10
-7.579823
20
631.822492
11
3.017225
21
633.268469
0
LINE
8
Layer 1
10
3.017225
20
633.268469
11
13.550382
21
635.123418
0
LINE
8
Layer 1
10
13.550382
20
635.123418
11
24.007738
21
637.385480
0
LINE
8
Layer 1
10
24.007738
20
637.385480
11
34.377380
21
640.052794
0
LINE
8
Layer 1
10
34.377380
20
640.052794
11
44.647400
21
643.123500
0
LINE
8
Layer 1
10
46.782400
20
643.457000
11
45.701985
21
643.373119
0
LINE
8
Layer 1
10
45.701985
20
643.373119
11
44.647450
21
643.123480
0
LINE
8
Layer 1
10
65.365000
20
643.457000
11
46.783300
21
643.457000
0
LINE
8
Layer 1
10
65.365000
20
634.958000
11
65.365000
21
643.457000
0
LINE
8
Layer 1
10
49.365600
20
634.958000
11
65.365000
21
634.958000
0
LINE
8
Layer 1
10
49.365600
20
623.957000
11
49.365600
21
634.958000
0
LINE
8
Layer 1
10
40.364500
20
623.957000
11
49.365600
21
623.957000
0
LINE
8
Layer 1
10
40.364500
20
619.957000
11
40.364500
21
623.957000
0
LINE
8
Layer 1
10
-56.885200
20
619.957000
11
40.364500
21
619.957000
0
LINE
8
Layer 1
10
-56.885200
20
619.957000
11
-56.885200
21
629.958000
0
LINE
8
Layer 1
10
46.364800
20
639.457000
11
46.894919
21
639.676750
0
LINE
8
Layer 1
10
46.894919
20
639.676750
11
47.114502
21
640.206970
0
LINE
8
Layer 1
10
47.114502
20
640.206970
11
46.894953
21
640.737205
0
LINE
8
Layer 1
10
46.894953
20
640.737205
11
46.364800
21
640.957000
0
LINE
8
Layer 1
10
46.364800
20
640.957000
11
45.834681
21
640.737250
0
LINE
8
Layer 1
10
45.834681
20
640.737250
11
45.615097
21
640.207030
0
LINE
8
Layer 1
10
45.615097
20
640.207030
11
45.834646
21
639.676795
0
LINE
8
Layer 1
10
45.834646
20
639.676795
11
46.364800
21
639.457000
0
LINE
8
Layer 1
10
46.364800
20
639.457000
11
46.364800
21
639.457000
0
LINE
8
Layer 1
10
2.708550
20
624.707000
11
3.238085
21
624.927111
0
LINE
8
Layer 1
10
3.238085
20
624.927111
11
3.457314
21
625.457010
0
LINE
8
Layer 1
10
3.457314
20
625.457010
11
3.238080
21
625.986899
0
LINE
8
Layer 1
10
3.238080
20
625.986899
11
2.708550
21
626.207000
0
LINE
8
Layer 1
10
2.708550
20
626.207000
11
2.178441
21
625.987250
0
LINE
8
Layer 1
10
2.178441
20
625.987250
11
1.958855
21
625.457030
0
LINE
8
Layer 1
10
1.958855
20
625.457030
11
2.178406
21
624.926795
0
LINE
8
Layer 1
10
2.178406
20
624.926795
11
2.708550
21
624.707000
0
LINE
8
Layer 1
10
2.708550
20
624.707000
11
2.708550
21
624.707000
0
LINE
8
Layer 1
10
29.364800
20
627.207000
11
29.894915
21
627.426750
0
LINE
8
Layer 1
10
29.894915
20
627.426750
11
30.114495
21
627.956970
0
LINE
8
Layer 1
10
30.114495
20
627.956970
11
29.894955
21
628.487205
0
LINE
8
Layer 1
10
29.894955
20
628.487205
11
29.364800
21
628.707000
0
LINE
8
Layer 1
10
29.364800
20
628.707000
11
28.834678
21
628.487250
0
LINE
8
Layer 1
10
28.834678
20
628.487250
11
28.615097
21
627.957030
0
LINE
8
Layer 1
10
28.615097
20
627.957030
11
28.834643
21
627.426795
0
LINE
8
Layer 1
10
28.834643
20
627.426795
11
29.364800
21
627.207000
0
LINE
8
Layer 1
10
29.364800
20
627.207000
11
29.364800
21
627.207000
0
LINE
8
Layer 1
10
-46.885200
20
623.707000
11
-46.355091
21
623.926750
0
LINE
8
Layer 1
10
-46.355091
20
623.926750
11
-46.135505
21
624.456970
0
LINE
8
Layer 1
10
-46.135505
20
624.456970
11
-46.355056
21
624.987205
0
LINE
8
Layer 1
10
-46.355056
20
624.987205
11
-46.885200
21
625.207000
0
LINE
8
Layer 1
10
-46.885200
20
625.207000
11
-47.415309
21
624.987250
0
LINE
8
Layer 1
10
-47.415309
20
624.987250
11
-47.634895
21
624.457030
0
LINE
8
Layer 1
10
-47.634895
20
624.457030
11
-47.415344
21
623.926795
0
LINE
8
Layer 1
10
-47.415344
20
623.926795
11
-46.885200
21
623.707000
0
LINE
8
Layer 1
10
-46.885200
20
623.707000
11
-46.885200
21
623.707000
0
LINE
8
Layer 1
10
39.364800
20
624.957000
11
39.754048
21
625.035584
0
LINE
8
Layer 1
10
39.754048
20
625.035584
11
40.071910
21
625.249891
0
LINE
8
Layer 1
10
40.071910
20
625.249891
11
40.286216
21
625.567753
0
LINE
8
Layer 1
10
40.286216
20
625.567753
11
40.364800
21
625.957000
0
LINE
8
Layer 1
10
40.364800
20
625.957000
11
40.286216
21
626.346247
0
LINE
8
Layer 1
10
40.286216
20
626.346247
11
40.071910
21
626.664109
0
LINE
8
Layer 1
10
40.071910
20
626.664109
11
39.754048
21
626.878416
0
LINE
8
Layer 1
10
39.754048
20
626.878416
11
39.364800
21
626.957000
0
LINE
8
Layer 1
10
39.364800
20
626.957000
11
38.975555
21
626.878416
0
LINE
8
Layer 1
10
38.975555
20
626.878416
11
38.657694
21
626.664109
0
LINE
8
Layer 1
10
38.657694
20
626.664109
11
38.443385
21
626.346247
0
LINE
8
Layer 1
10
38.443385
20
626.346247
11
38.364800
21
625.957000
0
LINE
8
Layer 1
10
38.364800
20
625.957000
11
38.443385
21
625.567753
0
LINE
8
Layer 1
10
38.443385
20
625.567753
11
38.657694
21
625.249891
0
LINE
8
Layer 1
10
38.657694
20
625.249891
11
38.975555
21
625.035584
0
LINE
8
Layer 1
10
38.975555
20
625.035584
11
39.364800
21
624.957000
0
LINE
8
Layer 1
10
39.364800
20
624.957000
11
39.364800
21
624.957000
0
LINE
8
Layer 1
10
-36.885200
20
622.707000
11
-36.496425
21
622.786007
0
LINE
8
Layer 1
10
-36.496425
20
622.786007
11
-36.179040
21
623.000413
0
LINE
8
Layer 1
10
-36.179040
20
623.000413
11
-35.965102
21
623.318111
0
LINE
8
Layer 1
10
-35.965102
20
623.318111
11
-35.886665
21
623.707000
0
LINE
8
Layer 1
10
-35.886665
20
623.707000
11
-35.965102
21
624.095889
0
LINE
8
Layer 1
10
-35.965102
20
624.095889
11
-36.179041
21
624.413587
0
LINE
8
Layer 1
10
-36.179041
20
624.413587
11
-36.496425
21
624.627993
0
LINE
8
Layer 1
10
-36.496425
20
624.627993
11
-36.885200
21
624.707000
0
LINE
8
Layer 1
10
-36.885200
20
624.707000
11
-37.274288
21
624.628274
0
LINE
8
Layer 1
10
-37.274288
20
624.628274
11
-37.591991
21
624.413932
0
LINE
8
Layer 1
10
-37.591991
20
624.413932
11
-37.806176
21
624.096125
0
LINE
8
Layer 1
10
-37.806176
20
624.096125
11
-37.884712
21
623.707000
0
LINE
8
Layer 1
10
-37.884712
20
623.707000
11
-37.806176
21
623.317875
0
LINE
8
Layer 1
10
-37.806176
20
623.317875
11
-37.591991
21
623.000068
0
LINE
8
Layer 1
10
-37.591991
20
623.000068
11
-37.274288
21
622.785726
0
LINE
8
Layer 1
10
-37.274288
20
622.785726
11
-36.885200
21
622.707000
0
LINE
8
Layer 1
10
-36.885200
20
622.707000
11
-36.885200
21
622.707000
0
LINE
8
Layer 1
10
40.261300
20
619.512000
11
40.261300
21
615.514000
0
LINE
8
Layer 1
10
40.261300
20
615.514000
11
49.262400
21
615.514000
0
LINE
8
Layer 1
10
49.262400
20
615.514000
11
49.262400
21
604.513000
0
LINE
8
Layer 1
10
49.262400
20
604.513000
11
65.261800
21
604.513000
0
LINE
8
Layer 1
10
65.261800
20
604.513000
11
65.261800
21
596.012000
0
LINE
8
Layer 1
10
65.261800
20
596.012000
11
46.680100
21
596.012000
0
LINE
8
Layer 1
10
44.544200
20
596.346000
11
45.598732
21
596.096361
0
LINE
8
Layer 1
10
45.598732
20
596.096361
11
46.679160
21
596.012480
0
LINE
8
Layer 1
10
44.544200
20
596.346000
11
34.274148
21
599.416700
0
LINE
8
Layer 1
10
34.274148
20
599.416700
11
23.904481
21
602.084011
0
LINE
8
Layer 1
10
23.904481
20
602.084011
11
13.447112
21
604.346073
0
LINE
8
Layer 1
10
13.447112
20
604.346073
11
2.913950
21
606.201024
0
LINE
8
Layer 1
10
2.913950
20
606.201024
11
-7.683093
21
607.647003
0
LINE
8
Layer 1
10
-7.683093
20
607.647003
11
-18.332106
21
608.682150
0
LINE
8
Layer 1
10
-18.332106
20
608.682150
11
-29.021179
21
609.304602
0
LINE
8
Layer 1
10
-29.021179
20
609.304602
11
-39.738400
21
609.512500
0
LINE
8
Layer 1
10
-39.738100
20
609.513000
11
-56.988400
21
609.513000
0
LINE
8
Layer 1
10
-56.988400
20
619.512000
11
-56.988400
21
609.513000
0
LINE
8
Layer 1
10
-56.988400
20
619.512000
11
40.261300
21
619.512000
0
LINE
8
Layer 1
10
-36.988400
20
614.763000
11
-36.599312
21
614.841725
0
LINE
8
Layer 1
10
-36.599312
20
614.841725
11
-36.281609
21
615.056064
0
LINE
8
Layer 1
10
-36.281609
20
615.056064
11
-36.067424
21
615.373871
0
LINE
8
Layer 1
10
-36.067424
20
615.373871
11
-35.988888
21
615.763000
0
LINE
8
Layer 1
10
-35.988888
20
615.763000
11
-36.067424
21
616.152125
0
LINE
8
Layer 1
10
-36.067424
20
616.152125
11
-36.281609
21
616.469932
0
LINE
8
Layer 1
10
-36.281609
20
616.469932
11
-36.599312
21
616.684274
0
LINE
8
Layer 1
10
-36.599312
20
616.684274
11
-36.988400
21
616.763000
0
LINE
8
Layer 1
10
-36.988400
20
616.763000
11
-37.377488
21
616.684274
0
LINE
8
Layer 1
10
-37.377488
20
616.684274
11
-37.695191
21
616.469932
0
LINE
8
Layer 1
10
-37.695191
20
616.469932
11
-37.909376
21
616.152125
0
LINE
8
Layer 1
10
-37.909376
20
616.152125
11
-37.987912
21
615.763000
0
LINE
8
Layer 1
10
-37.987912
20
615.763000
11
-37.909376
21
615.373871
0
LINE
8
Layer 1
10
-37.909376
20
615.373871
11
-37.695191
21
615.056064
0
LINE
8
Layer 1
10
-37.695191
20
615.056064
11
-37.377488
21
614.841725
0
LINE
8
Layer 1
10
-37.377488
20
614.841725
11
-36.988400
21
614.763000
0
LINE
8
Layer 1
10
-36.988400
20
614.763000
11
-36.988400
21
614.763000
0
LINE
8
Layer 1
10
39.261600
20
612.513000
11
39.650688
21
612.591725
0
LINE
8
Layer 1
10
39.650688
20
612.591725
11
39.968391
21
612.806064
0
LINE
8
Layer 1
10
39.968391
20
612.806064
11
40.182576
21
613.123871
0
LINE
8
Layer 1
10
40.182576
20
613.123871
11
40.261112
21
613.513000
0
LINE
8
Layer 1
10
40.261112
20
613.513000
11
40.182576
21
613.902125
0
LINE
8
Layer 1
10
40.182576
20
613.902125
11
39.968391
21
614.219932
0
LINE
8
Layer 1
10
39.968391
20
614.219932
11
39.650688
21
614.434274
0
LINE
8
Layer 1
10
39.650688
20
614.434274
11
39.261600
21
614.513000
0
LINE
8
Layer 1
10
39.261600
20
614.513000
11
38.872515
21
614.434274
0
LINE
8
Layer 1
10
38.872515
20
614.434274
11
38.554812
21
614.219932
0
LINE
8
Layer 1
10
38.554812
20
614.219932
11
38.340625
21
613.902125
0
LINE
8
Layer 1
10
38.340625
20
613.902125
11
38.262088
21
613.513000
0
LINE
8
Layer 1
10
38.262088
20
613.513000
11
38.340625
21
613.123871
0
LINE
8
Layer 1
10
38.340625
20
613.123871
11
38.554812
21
612.806064
0
LINE
8
Layer 1
10
38.554812
20
612.806064
11
38.872515
21
612.591725
0
LINE
8
Layer 1
10
38.872515
20
612.591725
11
39.261600
21
612.513000
0
LINE
8
Layer 1
10
39.261600
20
612.513000
11
39.261600
21
612.513000
0
LINE
8
Layer 1
10
-46.988400
20
614.263000
11
-46.458291
21
614.482746
0
LINE
8
Layer 1
10
-46.458291
20
614.482746
11
-46.238705
21
615.012970
0
LINE
8
Layer 1
10
-46.238705
20
615.012970
11
-46.458256
21
615.543205
0
LINE
8
Layer 1
10
-46.458256
20
615.543205
11
-46.988400
21
615.763000
0
LINE
8
Layer 1
10
-46.988400
20
615.763000
11
-47.518509
21
615.543246
0
LINE
8
Layer 1
10
-47.518509
20
615.543246
11
-47.738095
21
615.013030
0
LINE
8
Layer 1
10
-47.738095
20
615.013030
11
-47.518544
21
614.482791
0
LINE
8
Layer 1
10
-47.518544
20
614.482791
11
-46.988400
21
614.263000
0
LINE
8
Layer 1
10
-46.988400
20
614.263000
11
-46.988400
21
614.263000
0
LINE
8
Layer 1
10
29.261600
20
610.763000
11
29.791722
21
610.982750
0
LINE
8
Layer 1
10
29.791722
20
610.982750
11
30.011302
21
611.512970
0
LINE
8
Layer 1
10
30.011302
20
611.512970
11
29.791753
21
612.043205
0
LINE
8
Layer 1
10
29.791753
20
612.043205
11
29.261600
21
612.263000
0
LINE
8
Layer 1
10
29.261600
20
612.263000
11
28.731481
21
612.043246
0
LINE
8
Layer 1
10
28.731481
20
612.043246
11
28.511897
21
611.513030
0
LINE
8
Layer 1
10
28.511897
20
611.513030
11
28.731449
21
610.982791
0
LINE
8
Layer 1
10
28.731449
20
610.982791
11
29.261600
21
610.763000
0
LINE
8
Layer 1
10
29.261600
20
610.763000
11
29.261600
21
610.763000
0
LINE
8
Layer 1
10
2.605340
20
613.263000
11
3.135449
21
613.482746
0
LINE
8
Layer 1
10
3.135449
20
613.482746
11
3.355035
21
614.012970
0
LINE
8
Layer 1
10
3.355035
20
614.012970
11
3.135484
21
614.543205
0
LINE
8
Layer 1
10
3.135484
20
614.543205
11
2.605340
21
614.763000
0
LINE
8
Layer 1
10
2.605340
20
614.763000
11
2.075230
21
614.543246
0
LINE
8
Layer 1
10
2.075230
20
614.543246
11
1.855645
21
614.013030
0
LINE
8
Layer 1
10
1.855645
20
614.013030
11
2.075196
21
613.482791
0
LINE
8
Layer 1
10
2.075196
20
613.482791
11
2.605340
21
613.263000
0
LINE
8
Layer 1
10
2.605340
20
613.263000
11
2.605340
21
613.263000
0
LINE
8
Layer 1
10
46.261600
20
598.513000
11
46.791672
21
598.732831
0
LINE
8
Layer 1
10
46.791672
20
598.732831
11
47.011180
21
599.263020
0
LINE
8
Layer 1
10
47.011180
20
599.263020
11
46.791652
21
599.793189
0
LINE
8
Layer 1
10
46.791652
20
599.793189
11
46.261600
21
600.013000
0
LINE
8
Layer 1
10
46.261600
20
600.013000
11
45.731528
21
599.793161
0
LINE
8
Layer 1
10
45.731528
20
599.793161
11
45.512020
21
599.262980
0
LINE
8
Layer 1
10
45.512020
20
599.262980
11
45.731548
21
598.732804
0
LINE
8
Layer 1
10
45.731548
20
598.732804
11
46.261600
21
598.513000
0
LINE
8
Layer 1
10
46.261600
20
598.513000
11
46.261600
21
598.513000
0
LINE
8
Layer 1
10
94.661500
20
626.954000
11
77.411200
21
626.954000
0
LINE
8
Layer 1
10
94.661200
20
626.954000
11
105.378454
21
627.161897
0
LINE
8
Layer 1
10
105.378454
20
627.161897
11
116.067550
21
627.784348
0
LINE
8
Layer 1
10
116.067550
20
627.784348
11
126.716577
21
628.819492
0
LINE
8
Layer 1
10
126.716577
20
628.819492
11
137.313625
21
630.265469
0
LINE
8
Layer 1
10
137.313625
20
630.265469
11
147.846782
21
632.120418
0
LINE
8
Layer 1
10
147.846782
20
632.120418
11
158.304138
21
634.382480
0
LINE
8
Layer 1
10
158.304138
20
634.382480
11
168.673780
21
637.049794
0
LINE
8
Layer 1
10
168.673780
20
637.049794
11
178.943800
21
640.120500
0
LINE
8
Layer 1
10
181.079000
20
640.454000
11
179.998584
21
640.370119
0
LINE
8
Layer 1
10
179.998584
20
640.370119
11
178.944050
21
640.120480
0
LINE
8
Layer 1
10
199.661000
20
640.453000
11
181.080000
21
640.453000
0
LINE
8
Layer 1
10
199.661000
20
631.955000
11
199.661000
21
640.453000
0
LINE
8
Layer 1
10
183.662000
20
631.955000
11
199.661000
21
631.955000
0
LINE
8
Layer 1
10
183.662000
20
620.953000
11
183.662000
21
631.955000
0
LINE
8
Layer 1
10
174.661000
20
620.953000
11
183.662000
21
620.953000
0
LINE
8
Layer 1
10
174.661000
20
616.953000
11
174.661000
21
620.953000
0
LINE
8
Layer 1
10
77.411200
20
616.953000
11
174.661000
21
616.953000
0
LINE
8
Layer 1
10
77.411200
20
616.953000
11
77.411200
21
626.954000
0
LINE
8
Layer 1
10
180.661000
20
636.454000
11
181.191119
21
636.673750
0
LINE
8
Layer 1
10
181.191119
20
636.673750
11
181.410700
21
637.203970
0
LINE
8
Layer 1
10
181.410700
20
637.203970
11
181.191156
21
637.734209
0
LINE
8
Layer 1
10
181.191156
20
637.734209
11
180.661000
21
637.954000
0
LINE
8
Layer 1
10
180.661000
20
637.954000
11
180.130885
21
637.734250
0
LINE
8
Layer 1
10
180.130885
20
637.734250
11
179.911300
21
637.204030
0
LINE
8
Layer 1
10
179.911300
20
637.204030
11
180.130847
21
636.673795
0
LINE
8
Layer 1
10
180.130847
20
636.673795
11
180.661000
21
636.454000
0
LINE
8
Layer 1
10
180.661000
20
636.454000
11
180.661000
21
636.454000
0
LINE
8
Layer 1
10
137.005000
20
621.704000
11
137.534541
21
621.924106
0
LINE
8
Layer 1
10
137.534541
20
621.924106
11
137.753770
21
622.454000
0
LINE
8
Layer 1
10
137.753770
20
622.454000
11
137.534534
21
622.983889
0
LINE
8
Layer 1
10
137.534534
20
622.983889
11
137.005000
21
623.203990
0
LINE
8
Layer 1
10
137.005000
20
623.203990
11
136.474897
21
622.984240
0
LINE
8
Layer 1
10
136.474897
20
622.984240
11
136.255310
21
622.454020
0
LINE
8
Layer 1
10
136.255310
20
622.454020
11
136.474860
21
621.923785
0
LINE
8
Layer 1
10
136.474860
20
621.923785
11
137.005000
21
621.703990
0
LINE
8
Layer 1
10
137.005000
20
621.703990
11
137.005000
21
621.704000
0
LINE
8
Layer 1
10
163.661000
20
624.204000
11
164.191119
21
624.423746
0
LINE
8
Layer 1
10
164.191119
20
624.423746
11
164.410700
21
624.953970
0
LINE
8
Layer 1
10
164.410700
20
624.953970
11
164.191156
21
625.484205
0
LINE
8
Layer 1
10
164.191156
20
625.484205
11
163.661000
21
625.704000
0
LINE
8
Layer 1
10
163.661000
20
625.704000
11
163.130881
21
625.484246
0
LINE
8
Layer 1
10
163.130881
20
625.484246
11
162.911300
21
624.954030
0
LINE
8
Layer 1
10
162.911300
20
624.954030
11
163.130847
21
624.423791
0
LINE
8
Layer 1
10
163.130847
20
624.423791
11
163.661000
21
624.204000
0
LINE
8
Layer 1
10
163.661000
20
624.204000
11
163.661000
21
624.204000
0
LINE
8
Layer 1
10
87.411200
20
620.704000
11
87.941310
21
620.923754
0
LINE
8
Layer 1
10
87.941310
20
620.923754
11
88.160895
21
621.453970
0
LINE
8
Layer 1
10
88.160895
20
621.453970
11
87.941344
21
621.984209
0
LINE
8
Layer 1
10
87.941344
20
621.984209
11
87.411200
21
622.204000
0
LINE
8
Layer 1
10
87.411200
20
622.204000
11
86.881091
21
621.984250
0
LINE
8
Layer 1
10
86.881091
20
621.984250
11
86.661505
21
621.454030
0
LINE
8
Layer 1
10
86.661505
20
621.454030
11
86.881056
21
620.923795
0
LINE
8
Layer 1
10
86.881056
20
620.923795
11
87.411200
21
620.704000
0
LINE
8
Layer 1
10
87.411200
20
620.704000
11
87.411200
21
620.704000
0
LINE
8
Layer 1
10
173.661000
20
621.954000
11
174.050247
21
622.032586
0
LINE
8
Layer 1
10
174.050247
20
622.032586
11
174.368109
21
622.246895
0
LINE
8
Layer 1
10
174.368109
20
622.246895
11
174.582416
21
622.564757
0
LINE
8
Layer 1
10
174.582416
20
622.564757
11
174.661000
21
622.954000
0
LINE
8
Layer 1
10
174.661000
20
622.954000
11
174.582416
21
623.343247
0
LINE
8
Layer 1
10
174.582416
20
623.343247
11
174.368109
21
623.661110
0
LINE
8
Layer 1
10
174.368109
20
623.661110
11
174.050247
21
623.875420
0
LINE
8
Layer 1
10
174.050247
20
623.875420
11
173.661000
21
623.954010
0
LINE
8
Layer 1
10
173.661000
20
623.954010
11
173.271757
21
623.875420
0
LINE
8
Layer 1
10
173.271757
20
623.875420
11
172.953895
21
623.661110
0
LINE
8
Layer 1
10
172.953895
20
623.661110
11
172.739586
21
623.343247
0
LINE
8
Layer 1
10
172.739586
20
623.343247
11
172.661000
21
622.954000
0
LINE
8
Layer 1
10
172.661000
20
622.954000
11
172.739586
21
622.564757
0
LINE
8
Layer 1
10
172.739586
20
622.564757
11
172.953895
21
622.246895
0
LINE
8
Layer 1
10
172.953895
20
622.246895
11
173.271757
21
622.032586
0
LINE
8
Layer 1
10
173.271757
20
622.032586
11
173.661000
21
621.954000
0
LINE
8
Layer 1
10
173.661000
20
621.954000
11
173.661000
21
621.954000
0
LINE
8
Layer 1
10
97.411200
20
619.704000
11
97.799975
21
619.783002
0
LINE
8
Layer 1
10
97.799975
20
619.783002
11
98.117359
21
619.997404
0
LINE
8
Layer 1
10
98.117359
20
619.997404
11
98.331298
21
620.315101
0
LINE
8
Layer 1
10
98.331298
20
620.315101
11
98.409735
21
620.703990
0
LINE
8
Layer 1
10
98.409735
20
620.703990
11
98.331298
21
621.092884
0
LINE
8
Layer 1
10
98.331298
20
621.092884
11
98.117359
21
621.410585
0
LINE
8
Layer 1
10
98.117359
20
621.410585
11
97.799975
21
621.624988
0
LINE
8
Layer 1
10
97.799975
20
621.624988
11
97.411200
21
621.703990
0
LINE
8
Layer 1
10
97.411200
20
621.703990
11
97.022112
21
621.625265
0
LINE
8
Layer 1
10
97.022112
20
621.625265
11
96.704409
21
621.410926
0
LINE
8
Layer 1
10
96.704409
20
621.410926
11
96.490224
21
621.093119
0
LINE
8
Layer 1
10
96.490224
20
621.093119
11
96.411688
21
620.703990
0
LINE
8
Layer 1
10
96.411688
20
620.703990
11
96.490224
21
620.314865
0
LINE
8
Layer 1
10
96.490224
20
620.314865
11
96.704409
21
619.997057
0
LINE
8
Layer 1
10
96.704409
20
619.997057
11
97.022112
21
619.782716
0
LINE
8
Layer 1
10
97.022112
20
619.782716
11
97.411200
21
619.703990
0
LINE
8
Layer 1
10
97.411200
20
619.703990
11
97.411200
21
619.704000
0
LINE
8
Layer 1
10
174.558000
20
616.508000
11
174.558000
21
612.511000
0
LINE
8
Layer 1
10
174.558000
20
612.511000
11
183.559000
21
612.511000
0
LINE
8
Layer 1
10
183.559000
20
612.511000
11
183.559000
21
601.509000
0
LINE
8
Layer 1
10
183.559000
20
601.509000
11
199.558000
21
601.509000
0
LINE
8
Layer 1
10
199.558000
20
601.509000
11
199.558000
21
593.008000
0
LINE
8
Layer 1
10
199.558000
20
593.008000
11
180.977000
21
593.008000
0
LINE
8
Layer 1
10
178.841000
20
593.343000
11
179.895530
21
593.093365
0
LINE
8
Layer 1
10
179.895530
20
593.093365
11
180.975950
21
593.009480
0
LINE
8
Layer 1
10
178.841000
20
593.343000
11
168.570948
21
596.413700
0
LINE
8
Layer 1
10
168.570948
20
596.413700
11
158.201281
21
599.081011
0
LINE
8
Layer 1
10
158.201281
20
599.081011
11
147.743912
21
601.343073
0
LINE
8
Layer 1
10
147.743912
20
601.343073
11
137.210750
21
603.198024
0
LINE
8
Layer 1
10
137.210750
20
603.198024
11
126.613707
21
604.644003
0
LINE
8
Layer 1
10
126.613707
20
604.644003
11
115.964694
21
605.679150
0
LINE
8
Layer 1
10
115.964694
20
605.679150
11
105.275621
21
606.301602
0
LINE
8
Layer 1
10
105.275621
20
606.301602
11
94.558400
21
606.509500
0
LINE
8
Layer 1
10
94.558300
20
606.510000
11
77.308000
21
606.510000
0
LINE
8
Layer 1
10
77.308000
20
616.508000
11
77.308000
21
606.510000
0
LINE
8
Layer 1
10
77.308000
20
616.508000
11
174.558000
21
616.508000
0
LINE
8
Layer 1
10
97.308000
20
611.759000
11
97.697088
21
611.837726
0
LINE
8
Layer 1
10
97.697088
20
611.837726
11
98.014791
21
612.052068
0
LINE
8
Layer 1
10
98.014791
20
612.052068
11
98.228976
21
612.369875
0
LINE
8
Layer 1
10
98.228976
20
612.369875
11
98.307512
21
612.759000
0
LINE
8
Layer 1
10
98.307512
20
612.759000
11
98.228976
21
613.148129
0
LINE
8
Layer 1
10
98.228976
20
613.148129
11
98.014791
21
613.465936
0
LINE
8
Layer 1
10
98.014791
20
613.465936
11
97.697088
21
613.680275
0
LINE
8
Layer 1
10
97.697088
20
613.680275
11
97.308000
21
613.759000
0
LINE
8
Layer 1
10
97.308000
20
613.759000
11
96.918912
21
613.680275
0
LINE
8
Layer 1
10
96.918912
20
613.680275
11
96.601209
21
613.465936
0
LINE
8
Layer 1
10
96.601209
20
613.465936
11
96.387024
21
613.148129
0
LINE
8
Layer 1
10
96.387024
20
613.148129
11
96.308488
21
612.759000
0
LINE
8
Layer 1
10
96.308488
20
612.759000
11
96.387024
21
612.369875
0
LINE
8
Layer 1
10
96.387024
20
612.369875
11
96.601209
21
612.052068
0
LINE
8
Layer 1
10
96.601209
20
612.052068
11
96.918912
21
611.837726
0
LINE
8
Layer 1
10
96.918912
20
611.837726
11
97.308000
21
611.759000
0
LINE
8
Layer 1
10
97.308000
20
611.759000
11
97.308000
21
611.759000
0
LINE
8
Layer 1
10
173.558000
20
609.509000
11
173.947086
21
609.587726
0
LINE
8
Layer 1
10
173.947086
20
609.587726
11
174.264789
21
609.802068
0
LINE
8
Layer 1
10
174.264789
20
609.802068
11
174.478974
21
610.119875
0
LINE
8
Layer 1
10
174.478974
20
610.119875
11
174.557510
21
610.509000
0
LINE
8
Layer 1
10
174.557510
20
610.509000
11
174.478974
21
610.898129
0
LINE
8
Layer 1
10
174.478974
20
610.898129
11
174.264789
21
611.215936
0
LINE
8
Layer 1
10
174.264789
20
611.215936
11
173.947086
21
611.430275
0
LINE
8
Layer 1
10
173.947086
20
611.430275
11
173.558000
21
611.509000
0
LINE
8
Layer 1
10
173.558000
20
611.509000
11
173.168914
21
611.430275
0
LINE
8
Layer 1
10
173.168914
20
611.430275
11
172.851211
21
611.215936
0
LINE
8
Layer 1
10
172.851211
20
611.215936
11
172.637026
21
610.898129
0
LINE
8
Layer 1
10
172.637026
20
610.898129
11
172.558490
21
610.509000
0
LINE
8
Layer 1
10
172.558490
20
610.509000
11
172.637026
21
610.119875
0
LINE
8
Layer 1
10
172.637026
20
610.119875
11
172.851211
21
609.802068
0
LINE
8
Layer 1
10
172.851211
20
609.802068
11
173.168914
21
609.587726
0
LINE
8
Layer 1
10
173.168914
20
609.587726
11
173.558000
21
609.509000
0
LINE
8
Layer 1
10
173.558000
20
609.509000
11
173.558000
21
609.509000
0
LINE
8
Layer 1
10
87.308000
20
611.259000
11
87.838110
21
611.478754
0
LINE
8
Layer 1
10
87.838110
20
611.478754
11
88.057695
21
612.008970
0
LINE
8
Layer 1
10
88.057695
20
612.008970
11
87.838144
21
612.539209
0
LINE
8
Layer 1
10
87.838144
20
612.539209
11
87.308000
21
612.759000
0
LINE
8
Layer 1
10
87.308000
20
612.759000
11
86.777890
21
612.539250
0
LINE
8
Layer 1
10
86.777890
20
612.539250
11
86.558305
21
612.009030
0
LINE
8
Layer 1
10
86.558305
20
612.009030
11
86.777856
21
611.478795
0
LINE
8
Layer 1
10
86.777856
20
611.478795
11
87.308000
21
611.259000
0
LINE
8
Layer 1
10
87.308000
20
611.259000
11
87.308000
21
611.259000
0
LINE
8
Layer 1
10
163.558000
20
607.759000
11
164.088119
21
607.978754
0
LINE
8
Layer 1
10
164.088119
20
607.978754
11
164.307700
21
608.508970
0
LINE
8
Layer 1
10
164.307700
20
608.508970
11
164.088153
21
609.039209
0
LINE
8
Layer 1
10
164.088153
20
609.039209
11
163.558000
21
609.259000
0
LINE
8
Layer 1
10
163.558000
20
609.259000
11
163.027881
21
609.039254
0
LINE
8
Layer 1
10
163.027881
20
609.039254
11
162.808300
21
608.509030
0
LINE
8
Layer 1
10
162.808300
20
608.509030
11
163.027847
21
607.978795
0
LINE
8
Layer 1
10
163.027847
20
607.978795
11
163.558000
21
607.759000
0
LINE
8
Layer 1
10
163.558000
20
607.759000
11
163.558000
21
607.759000
0
LINE
8
Layer 1
10
136.902000
20
610.259000
11
137.432111
21
610.478754
0
LINE
8
Layer 1
10
137.432111
20
610.478754
11
137.651700
21
611.008970
0
LINE
8
Layer 1
10
137.651700
20
611.008970
11
137.432145
21
611.539209
0
LINE
8
Layer 1
10
137.432145
20
611.539209
11
136.902000
21
611.759000
0
LINE
8
Layer 1
10
136.902000
20
611.759000
11
136.371894
21
611.539250
0
LINE
8
Layer 1
10
136.371894
20
611.539250
11
136.152310
21
611.009030
0
LINE
8
Layer 1
10
136.152310
20
611.009030
11
136.371860
21
610.478795
0
LINE
8
Layer 1
10
136.371860
20
610.478795
11
136.902000
21
610.259000
0
LINE
8
Layer 1
10
136.902000
20
610.259000
11
136.902000
21
610.259000
0
LINE
8
Layer 1
10
180.558000
20
595.509000
11
181.088074
21
595.728839
0
LINE
8
Layer 1
10
181.088074
20
595.728839
11
181.307580
21
596.259020
0
LINE
8
Layer 1
10
181.307580
20
596.259020
11
181.088051
21
596.789196
0
LINE
8
Layer 1
10
181.088051
20
596.789196
11
180.558000
21
597.009000
0
LINE
8
Layer 1
10
180.558000
20
597.009000
11
180.027926
21
596.789169
0
LINE
8
Layer 1
10
180.027926
20
596.789169
11
179.808420
21
596.258980
0
LINE
8
Layer 1
10
179.808420
20
596.258980
11
180.027949
21
595.728811
0
LINE
8
Layer 1
10
180.027949
20
595.728811
11
180.558000
21
595.509000
0
LINE
8
Layer 1
10
180.558000
20
595.509000
11
180.558000
21
595.509000
0
LINE
8
Layer 1
10
101.016000
20
538.672000
11
101.016000
21
547.672000
0
LINE
8
Layer 1
10
25.516300
20
538.672000
11
101.016000
21
538.672000
0
LINE
8
Layer 1
10
97.266300
20
542.172000
11
97.266300
21
544.172000
0
LINE
8
Layer 1
10
29.266200
20
544.172000
11
97.266300
21
544.172000
0
LINE
8
Layer 1
10
29.266200
20
542.172000
11
29.266200
21
544.172000
0
LINE
8
Layer 1
10
29.266200
20
542.172000
11
97.266300
21
542.172000
0
LINE
8
Layer 1
10
25.516300
20
547.672000
11
101.016000
21
547.672000
0
LINE
8
Layer 1
10
25.516300
20
538.672000
11
25.516300
21
547.672000
 0 
ENDSEC
 0 
EOF