999
"DXF R12 Output" (www.mydxf.blogspot.com)
 0 
SECTION
 2 
HEADER
 9 
$ACADVER
 1 
AC1009
 9 
$EXTMIN
 10 
 0 
 20 
 0 
 9 
$EXTMAX
 10 
 8.5 
 20 
 11 
 0 
ENDSEC
 0 
SECTION
 2 
ENTITIES
0
LINE
8
Layer 1
10
-625.774000
20
1140.500000
11
-626.247669
21
1139.866342
0
LINE
8
Layer 1
10
-626.247669
20
1139.866342
11
-626.438580
21
1139.098570
0
LINE
8
Layer 1
10
-626.438580
20
1139.098570
11
-626.316865
21
1138.316884
0
LINE
8
Layer 1
10
-626.316865
20
1138.316884
11
-625.901570
21
1137.643550
0
LINE
8
Layer 1
10
-625.901000
20
1137.640000
11
-615.786800
21
1126.820800
0
LINE
8
Layer 1
10
-615.786000
20
1126.820000
11
-615.196005
21
1126.300964
0
LINE
8
Layer 1
10
-615.196005
20
1126.300964
11
-614.535779
21
1125.916833
0
LINE
8
Layer 1
10
-614.535779
20
1125.916833
11
-613.087927
21
1125.557960
0
LINE
8
Layer 1
10
-613.087927
20
1125.557960
11
-611.609030
21
1125.752729
0
LINE
8
Layer 1
10
-611.609030
20
1125.752729
11
-610.909996
21
1126.060651
0
LINE
8
Layer 1
10
-610.909996
20
1126.060651
11
-610.265670
21
1126.510490
0
LINE
8
Layer 1
10
-596.763000
20
1135.900000
11
-600.310503
21
1133.805689
0
LINE
8
Layer 1
10
-600.310503
20
1133.805689
11
-603.747603
21
1131.539321
0
LINE
8
Layer 1
10
-603.747603
20
1131.539321
11
-607.068051
21
1129.105240
0
LINE
8
Layer 1
10
-607.068051
20
1129.105240
11
-610.265600
21
1126.507790
0
LINE
8
Layer 1
10
-596.763000
20
1135.900000
11
-596.117116
21
1136.347603
0
LINE
8
Layer 1
10
-596.117116
20
1136.347603
11
-595.585254
21
1136.895859
0
LINE
8
Layer 1
10
-595.585254
20
1136.895859
11
-594.888189
21
1138.214624
0
LINE
8
Layer 1
10
-594.888189
20
1138.214624
11
-594.720997
21
1139.696879
0
LINE
8
Layer 1
10
-594.720997
20
1139.696879
11
-594.851476
21
1140.449499
0
LINE
8
Layer 1
10
-594.851476
20
1140.449499
11
-595.132870
21
1141.183210
0
LINE
8
Layer 1
10
-601.759000
20
1154.430000
11
-595.133680
21
1141.182600
0
LINE
8
Layer 1
10
-601.759000
20
1154.430000
11
-602.245833
21
1155.053591
0
LINE
8
Layer 1
10
-602.245833
20
1155.053591
11
-602.936380
21
1155.439650
0
LINE
8
Layer 1
10
-602.936380
20
1155.439650
11
-603.722583
21
1155.527709
0
LINE
8
Layer 1
10
-603.722583
20
1155.527709
11
-604.481440
21
1155.304030
0
LINE
8
Layer 1
10
-604.481000
20
1155.310000
11
-610.136010
21
1152.100298
0
LINE
8
Layer 1
10
-610.136010
20
1152.100298
11
-615.579731
21
1148.555015
0
LINE
8
Layer 1
10
-615.579731
20
1148.555015
11
-620.797262
21
1144.684524
0
LINE
8
Layer 1
10
-620.797262
20
1144.684524
11
-625.773700
21
1140.499200
0
LINE
8
Layer 1
10
-590.717000
20
1161.310000
11
-591.397094
21
1160.905862
0
LINE
8
Layer 1
10
-591.397094
20
1160.905862
11
-591.867270
21
1160.269600
0
LINE
8
Layer 1
10
-591.867270
20
1160.269600
11
-592.053976
21
1159.500830
0
LINE
8
Layer 1
10
-592.053976
20
1159.500830
11
-591.927970
21
1158.719790
0
LINE
8
Layer 1
10
-591.929000
20
1158.720000
11
-586.724110
21
1144.852300
0
LINE
8
Layer 1
10
-586.723000
20
1144.860000
11
-586.376545
21
1144.154679
0
LINE
8
Layer 1
10
-586.376545
20
1144.154679
11
-585.913578
21
1143.547124
0
LINE
8
Layer 1
10
-585.913578
20
1143.547124
11
-584.713278
21
1142.661499
0
LINE
8
Layer 1
10
-584.713278
20
1142.661499
11
-583.272425
21
1142.275500
0
LINE
8
Layer 1
10
-583.272425
20
1142.275500
11
-582.508770
21
1142.292476
0
LINE
8
Layer 1
10
-582.508770
20
1142.292476
11
-581.741350
21
1142.461500
0
LINE
8
Layer 1
10
-565.672000
20
1145.970000
11
-569.750907
21
1145.392686
0
LINE
8
Layer 1
10
-569.750907
20
1145.392686
11
-573.793665
21
1144.614164
0
LINE
8
Layer 1
10
-573.793665
20
1144.614164
11
-577.792840
21
1143.636057
0
LINE
8
Layer 1
10
-577.792840
20
1143.636057
11
-581.741000
21
1142.459990
0
LINE
8
Layer 1
10
-565.672000
20
1145.970000
11
-564.903988
21
1146.136364
0
LINE
8
Layer 1
10
-564.903988
20
1146.136364
11
-564.202800
21
1146.439357
0
LINE
8
Layer 1
10
-564.202800
20
1146.439357
11
-563.054124
21
1147.390997
0
LINE
8
Layer 1
10
-563.054124
20
1147.390997
11
-562.332428
21
1148.696454
0
LINE
8
Layer 1
10
-562.332428
20
1148.696454
11
-562.164965
21
1149.441718
0
LINE
8
Layer 1
10
-562.164965
20
1149.441718
11
-562.144170
21
1150.227260
0
LINE
8
Layer 1
10
-563.196000
20
1165.000000
11
-562.144720
21
1150.226000
0
LINE
8
Layer 1
10
-563.196000
20
1165.000000
11
-563.407140
21
1165.762427
0
LINE
8
Layer 1
10
-563.407140
20
1165.762427
11
-563.897400
21
1166.383360
0
LINE
8
Layer 1
10
-563.897400
20
1166.383360
11
-564.590048
21
1166.765574
0
LINE
8
Layer 1
10
-564.590048
20
1166.765574
11
-565.376730
21
1166.849370
0
LINE
8
Layer 1
10
-565.377000
20
1166.850000
11
-571.829855
21
1166.048665
0
LINE
8
Layer 1
10
-571.829855
20
1166.048665
11
-578.215919
21
1164.856461
0
LINE
8
Layer 1
10
-578.215919
20
1164.856461
11
-584.517448
21
1163.277252
0
LINE
8
Layer 1
10
-584.517448
20
1163.277252
11
-590.716700
21
1161.314900
0
LINE
8
Layer 1
10
-594.510000
20
1151.230000
11
-594.510000
21
1151.230000
0
LINE
8
Layer 1
10
-594.510000
20
1151.230000
11
-594.510000
21
1151.230000
0
LINE
8
Layer 1
10
-571.951000
20
1189.050000
11
-569.996130
21
1174.367500
0
LINE
8
Layer 1
10
-569.996000
20
1174.370000
11
-569.816929
21
1173.604849
0
LINE
8
Layer 1
10
-569.816929
20
1173.604849
11
-569.502353
21
1172.908778
0
LINE
8
Layer 1
10
-569.502353
20
1172.908778
11
-568.531796
21
1171.776035
0
LINE
8
Layer 1
10
-568.531796
20
1171.776035
11
-567.214554
21
1171.076087
0
LINE
8
Layer 1
10
-567.214554
20
1171.076087
11
-566.466621
21
1170.921010
0
LINE
8
Layer 1
10
-566.466621
20
1170.921010
11
-565.680850
21
1170.913250
0
LINE
8
Layer 1
10
-549.234000
20
1170.720000
11
-553.338332
21
1171.074197
0
LINE
8
Layer 1
10
-553.338332
20
1171.074197
11
-557.452668
21
1171.224205
0
LINE
8
Layer 1
10
-557.452668
20
1171.224205
11
-561.569369
21
1171.169935
0
LINE
8
Layer 1
10
-561.569369
20
1171.169935
11
-565.680800
21
1170.911300
0
LINE
8
Layer 1
10
-549.234000
20
1170.720000
11
-548.448256
21
1170.709498
0
LINE
8
Layer 1
10
-548.448256
20
1170.709498
11
-547.696915
21
1170.847148
0
LINE
8
Layer 1
10
-547.696915
20
1170.847148
11
-546.363744
21
1171.516275
0
LINE
8
Layer 1
10
-546.363744
20
1171.516275
11
-545.367104
21
1172.626133
0
LINE
8
Layer 1
10
-545.367104
20
1172.626133
11
-545.036425
21
1173.314694
0
LINE
8
Layer 1
10
-545.036425
20
1173.314694
11
-544.839610
21
1174.075470
0
LINE
8
Layer 1
10
-542.543000
20
1188.710000
11
-544.838990
21
1174.077100
0
LINE
8
Layer 1
10
-542.544000
20
1188.710000
11
-542.578384
21
1189.500376
0
LINE
8
Layer 1
10
-542.578384
20
1189.500376
11
-542.916570
21
1190.215610
0
LINE
8
Layer 1
10
-542.916570
20
1190.215610
11
-543.505590
21
1190.743730
0
LINE
8
Layer 1
10
-543.505590
20
1190.743730
11
-544.253310
21
1191.002150
0
LINE
8
Layer 1
10
-544.254000
20
1191.000000
11
-550.721875
21
1191.669486
0
LINE
8
Layer 1
10
-550.721875
20
1191.669486
11
-557.212509
21
1191.943065
0
LINE
8
Layer 1
10
-557.212509
20
1191.943065
11
-563.707738
21
1191.820524
0
LINE
8
Layer 1
10
-563.707738
20
1191.820524
11
-570.189400
21
1191.301650
0
LINE
8
Layer 1
10
-570.189000
20
1191.300000
11
-570.942534
21
1191.059027
0
LINE
8
Layer 1
10
-570.942534
20
1191.059027
11
-571.543690
21
1190.544740
0
LINE
8
Layer 1
10
-571.543690
20
1190.544740
11
-571.898394
21
1189.837591
0
LINE
8
Layer 1
10
-571.898394
20
1189.837591
11
-571.951140
21
1189.048220
0
LINE
8
Layer 1
10
-576.150000
20
1182.330000
11
-576.150000
21
1182.330000
0
LINE
8
Layer 1
10
-576.150000
20
1182.330000
11
-576.150000
21
1182.330000
0
LINE
8
Layer 1
10
-550.362000
20
1167.130000
11
-551.145000
21
1167.016876
0
LINE
8
Layer 1
10
-551.145000
20
1167.016876
11
-551.822880
21
1166.609010
0
LINE
8
Layer 1
10
-551.822880
20
1166.609010
11
-552.289552
21
1165.970172
0
LINE
8
Layer 1
10
-552.289552
20
1165.970172
11
-552.472020
21
1165.200370
0
LINE
8
Layer 1
10
-552.472000
20
1165.200000
11
-552.970470
21
1150.396100
0
LINE
8
Layer 1
10
-552.970000
20
1150.400000
11
-552.919837
21
1149.615778
0
LINE
8
Layer 1
10
-552.919837
20
1149.615778
11
-552.724615
21
1148.877295
0
LINE
8
Layer 1
10
-552.724615
20
1148.877295
11
-551.954588
21
1147.599743
0
LINE
8
Layer 1
10
-551.954588
20
1147.599743
11
-550.771112
21
1146.691741
0
LINE
8
Layer 1
10
-550.771112
20
1146.691741
11
-550.059078
21
1146.415197
0
LINE
8
Layer 1
10
-550.059078
20
1146.415197
11
-549.285380
21
1146.277690
0
LINE
8
Layer 1
10
-533.097000
20
1143.370000
11
-537.086365
21
1144.397580
0
LINE
8
Layer 1
10
-537.086365
20
1144.397580
11
-541.119305
21
1145.225410
0
LINE
8
Layer 1
10
-541.119305
20
1145.225410
11
-545.188342
21
1145.852158
0
LINE
8
Layer 1
10
-545.188342
20
1145.852158
11
-549.286000
21
1146.276490
0
LINE
8
Layer 1
10
-533.097000
20
1143.370000
11
-532.323788
21
1143.229791
0
LINE
8
Layer 1
10
-532.323788
20
1143.229791
11
-531.560026
21
1143.241387
0
LINE
8
Layer 1
10
-531.560026
20
1143.241387
11
-530.134614
21
1143.681019
0
LINE
8
Layer 1
10
-530.134614
20
1143.681019
11
-528.968280
21
1144.610938
0
LINE
8
Layer 1
10
-528.968280
20
1144.610938
11
-528.528366
21
1145.235395
0
LINE
8
Layer 1
10
-528.528366
20
1145.235395
11
-528.208540
21
1145.953190
0
LINE
8
Layer 1
10
-523.526000
20
1160.000000
11
-528.208530
21
1145.947700
0
LINE
8
Layer 1
10
-523.526000
20
1160.000000
11
-523.429307
21
1160.785212
0
LINE
8
Layer 1
10
-523.429307
20
1160.785212
11
-523.644630
21
1161.546440
0
LINE
8
Layer 1
10
-523.644630
20
1161.546440
11
-524.138284
21
1162.164675
0
LINE
8
Layer 1
10
-524.138284
20
1162.164675
11
-524.833020
21
1162.543090
0
LINE
8
Layer 1
10
-524.833000
20
1162.550000
11
-531.101297
21
1164.279092
0
LINE
8
Layer 1
10
-531.101297
20
1164.279092
11
-537.457475
21
1165.621486
0
LINE
8
Layer 1
10
-537.457475
20
1165.621486
11
-543.883666
21
1166.573980
0
LINE
8
Layer 1
10
-543.883666
20
1166.573980
11
-550.362000
21
1167.133370
0
LINE
8
Layer 1
10
-557.726000
20
1159.270000
11
-557.726000
21
1159.270000
0
LINE
8
Layer 1
10
-557.726000
20
1159.270000
11
-557.726000
21
1159.270000
0
LINE
8
Layer 1
10
-532.052000
20
1186.490000
11
-535.864100
21
1172.176800
0
LINE
8
Layer 1
10
-535.864000
20
1172.180000
11
-535.991369
21
1171.404570
0
LINE
8
Layer 1
10
-535.991369
20
1171.404570
11
-535.967112
21
1170.641106
0
LINE
8
Layer 1
10
-535.967112
20
1170.641106
11
-535.503916
21
1169.223176
0
LINE
8
Layer 1
10
-535.503916
20
1169.223176
11
-534.554805
21
1168.072421
0
LINE
8
Layer 1
10
-534.554805
20
1168.072421
11
-533.923154
21
1167.642924
0
LINE
8
Layer 1
10
-533.923154
20
1167.642924
11
-533.200170
21
1167.335050
0
LINE
8
Layer 1
10
-518.079000
20
1160.860000
11
-521.735345
21
1162.757892
0
LINE
8
Layer 1
10
-521.735345
20
1162.757892
11
-525.479060
21
1164.470957
0
LINE
8
Layer 1
10
-525.479060
20
1164.470957
11
-529.303145
21
1165.996204
0
LINE
8
Layer 1
10
-529.303145
20
1165.996204
11
-533.200600
21
1167.330640
0
LINE
8
Layer 1
10
-518.079000
20
1160.860000
11
-517.357080
21
1160.549598
0
LINE
8
Layer 1
10
-517.357080
20
1160.549598
11
-516.610251
21
1160.389236
0
LINE
8
Layer 1
10
-516.610251
20
1160.389236
11
-515.122499
21
1160.497241
0
LINE
8
Layer 1
10
-515.122499
20
1160.497241
11
-513.777004
21
1161.141220
0
LINE
8
Layer 1
10
-513.777004
20
1161.141220
11
-513.207998
21
1161.650827
0
LINE
8
Layer 1
10
-513.207998
20
1161.650827
11
-512.735030
21
1162.278380
0
LINE
8
Layer 1
10
-505.013000
20
1174.920000
11
-512.734430
21
1162.278400
0
LINE
8
Layer 1
10
-505.014000
20
1174.920000
11
-504.743300
21
1175.663369
0
LINE
8
Layer 1
10
-504.743300
20
1175.663369
11
-504.782020
21
1176.453530
0
LINE
8
Layer 1
10
-504.782020
20
1176.453530
11
-505.124097
21
1177.166871
0
LINE
8
Layer 1
10
-505.124097
20
1177.166871
11
-505.716000
21
1177.691760
0
LINE
8
Layer 1
10
-505.716000
20
1177.690000
11
-511.435326
21
1180.783662
0
LINE
8
Layer 1
10
-511.435326
20
1180.783662
11
-517.327204
21
1183.520278
0
LINE
8
Layer 1
10
-517.327204
20
1183.520278
11
-523.374930
21
1185.892704
0
LINE
8
Layer 1
10
-523.374930
20
1185.892704
11
-529.561800
21
1187.893800
0
LINE
8
Layer 1
10
-529.562000
20
1187.900000
11
-530.350361
21
1187.965734
0
LINE
8
Layer 1
10
-530.350361
20
1187.965734
11
-531.102550
21
1187.720630
0
LINE
8
Layer 1
10
-531.102550
20
1187.720630
11
-531.700904
21
1187.203081
0
LINE
8
Layer 1
10
-531.700904
20
1187.203081
11
-532.051720
21
1186.493990
0
LINE
8
Layer 1
10
-538.501000
20
1181.900000
11
-538.501000
21
1181.900000
0
LINE
8
Layer 1
10
-538.501000
20
1181.900000
11
-538.501000
21
1181.900000
0
LINE
8
Layer 1
10
-510.853000
20
1157.060000
11
-511.619685
21
1157.255128
0
LINE
8
Layer 1
10
-511.619685
20
1157.255128
11
-512.402030
21
1157.137700
0
LINE
8
Layer 1
10
-512.402030
20
1157.137700
11
-513.077669
21
1156.726141
0
LINE
8
Layer 1
10
-513.077669
20
1156.726141
11
-513.540840
21
1156.084790
0
LINE
8
Layer 1
10
-513.540000
20
1156.080000
11
-519.666860
21
1142.595300
0
LINE
8
Layer 1
10
-519.666000
20
1142.600000
11
-519.919760
21
1141.856268
0
LINE
8
Layer 1
10
-519.919760
20
1141.856268
11
-520.022001
21
1141.099284
0
LINE
8
Layer 1
10
-520.022001
20
1141.099284
11
-519.799490
21
1139.624300
0
LINE
8
Layer 1
10
-519.799490
20
1139.624300
11
-519.053584
21
1138.332526
0
LINE
8
Layer 1
10
-519.053584
20
1138.332526
11
-518.501582
21
1137.804555
0
LINE
8
Layer 1
10
-518.501582
20
1137.804555
11
-517.839400
21
1137.381440
0
LINE
8
Layer 1
10
-503.995000
20
1128.500000
11
-507.287455
21
1130.976024
0
LINE
8
Layer 1
10
-507.287455
20
1130.976024
11
-510.696621
21
1133.284196
0
LINE
8
Layer 1
10
-510.696621
20
1133.284196
11
-514.216076
21
1135.420411
0
LINE
8
Layer 1
10
-514.216076
20
1135.420411
11
-517.839400
21
1137.380560
0
LINE
8
Layer 1
10
-503.995000
20
1128.500000
11
-503.334301
21
1128.074577
0
LINE
8
Layer 1
10
-503.334301
20
1128.074577
11
-502.624240
21
1127.793014
0
LINE
8
Layer 1
10
-502.624240
20
1127.793014
11
-501.139094
21
1127.653687
0
LINE
8
Layer 1
10
-501.139094
20
1127.653687
11
-499.705680
21
1128.066470
0
LINE
8
Layer 1
10
-499.705680
20
1128.066470
11
-499.060286
21
1128.475042
0
LINE
8
Layer 1
10
-499.060286
20
1128.475042
11
-498.490120
21
1129.015810
0
LINE
8
Layer 1
10
-488.787000
20
1140.210000
11
-498.490560
21
1129.019000
0
LINE
8
Layer 1
10
-488.787000
20
1140.210000
11
-488.397180
21
1140.898441
0
LINE
8
Layer 1
10
-488.397180
20
1140.898441
11
-488.304780
21
1141.684120
0
LINE
8
Layer 1
10
-488.304780
20
1141.684120
11
-488.524276
21
1142.444195
0
LINE
8
Layer 1
10
-488.524276
20
1142.444195
11
-489.021310
21
1143.059670
0
LINE
8
Layer 1
10
-489.021000
20
1143.060000
11
-494.150490
21
1147.056252
0
LINE
8
Layer 1
10
-494.150490
20
1147.056252
11
-499.509153
21
1150.728874
0
LINE
8
Layer 1
10
-499.509153
20
1150.728874
11
-505.081688
21
1154.068059
0
LINE
8
Layer 1
10
-505.081688
20
1154.068059
11
-510.852800
21
1157.064000
0
LINE
8
Layer 1
10
-520.665000
20
1152.610000
11
-520.665000
21
1152.610000
0
LINE
8
Layer 1
10
-520.665000
20
1152.610000
11
-520.665000
21
1152.610000
0
LINE
8
Layer 1
10
-609.791000
20
1176.140000
11
-602.366030
21
1163.323100
0
LINE
8
Layer 1
10
-602.367000
20
1163.320000
11
-601.908759
21
1162.681638
0
LINE
8
Layer 1
10
-601.908759
20
1162.681638
11
-601.351763
21
1162.158949
0
LINE
8
Layer 1
10
-601.351763
20
1162.158949
11
-600.021617
21
1161.483864
0
LINE
8
Layer 1
10
-600.021617
20
1161.483864
11
-598.536788
21
1161.341284
0
LINE
8
Layer 1
10
-598.536788
20
1161.341284
11
-597.786438
21
1161.484227
0
LINE
8
Layer 1
10
-597.786438
20
1161.484227
11
-597.057500
21
1161.777750
0
LINE
8
Layer 1
10
-581.789000
20
1167.900000
11
-585.716435
21
1166.656566
0
LINE
8
Layer 1
10
-585.716435
20
1166.656566
11
-589.574973
21
1165.220671
0
LINE
8
Layer 1
10
-589.574973
20
1165.220671
11
-593.357524
21
1163.595141
0
LINE
8
Layer 1
10
-593.357524
20
1163.595141
11
-597.057000
21
1161.782800
0
LINE
8
Layer 1
10
-581.789000
20
1167.900000
11
-581.059037
21
1168.190980
0
LINE
8
Layer 1
10
-581.059037
20
1168.190980
11
-580.417560
21
1168.605673
0
LINE
8
Layer 1
10
-580.417560
20
1168.605673
11
-579.441939
21
1169.734049
0
LINE
8
Layer 1
10
-579.441939
20
1169.734049
11
-578.945896
21
1171.140823
0
LINE
8
Layer 1
10
-578.945896
20
1171.140823
11
-578.903891
21
1171.903514
0
LINE
8
Layer 1
10
-578.903891
20
1171.903514
11
-579.013190
21
1172.681690
0
LINE
8
Layer 1
10
-582.492000
20
1187.080000
11
-579.013920
21
1172.682700
0
LINE
8
Layer 1
10
-582.492000
20
1187.080000
11
-582.826220
21
1187.797042
0
LINE
8
Layer 1
10
-582.826220
20
1187.797042
11
-583.412350
21
1188.328400
0
LINE
8
Layer 1
10
-583.412350
20
1188.328400
11
-584.158642
21
1188.590925
0
LINE
8
Layer 1
10
-584.158642
20
1188.590925
11
-584.948360
21
1188.543550
0
LINE
8
Layer 1
10
-584.949000
20
1188.540000
11
-591.180762
21
1186.683373
0
LINE
8
Layer 1
10
-591.180762
20
1186.683373
11
-597.282032
21
1184.452278
0
LINE
8
Layer 1
10
-597.282032
20
1184.452278
11
-603.235962
21
1181.853453
0
LINE
8
Layer 1
10
-603.235962
20
1181.853453
11
-609.025700
21
1178.893640
0
LINE
8
Layer 1
10
-609.025000
20
1178.900000
11
-609.628972
21
1178.389030
0
LINE
8
Layer 1
10
-609.628972
20
1178.389030
11
-609.987560
21
1177.683840
0
LINE
8
Layer 1
10
-609.987560
20
1177.683840
11
-610.044669
21
1176.894778
0
LINE
8
Layer 1
10
-610.044669
20
1176.894778
11
-609.791300
21
1176.145300
0
LINE
8
Layer 1
10
-611.101000
20
1168.330000
11
-611.101000
21
1168.330000
0
LINE
8
Layer 1
10
-611.101000
20
1168.330000
11
-611.101000
21
1168.330000
0
LINE
8
Layer 1
10
-470.621000
20
1093.080000
11
-474.202853
21
1097.925860
0
LINE
8
Layer 1
10
-474.202853
20
1097.925860
11
-478.034398
21
1102.530716
0
LINE
8
Layer 1
10
-478.034398
20
1102.530716
11
-482.103046
21
1106.887556
0
LINE
8
Layer 1
10
-482.103046
20
1106.887556
11
-486.396212
21
1110.989369
0
LINE
8
Layer 1
10
-486.396212
20
1110.989369
11
-490.901310
21
1114.829144
0
LINE
8
Layer 1
10
-490.901310
20
1114.829144
11
-495.605752
21
1118.399869
0
LINE
8
Layer 1
10
-495.605752
20
1118.399869
11
-500.496953
21
1121.694533
0
LINE
8
Layer 1
10
-500.496953
20
1121.694533
11
-505.562325
21
1124.706125
0
LINE
8
Layer 1
10
-505.562325
20
1124.706125
11
-510.789282
21
1127.427633
0
LINE
8
Layer 1
10
-510.789282
20
1127.427633
11
-516.165238
21
1129.852047
0
LINE
8
Layer 1
10
-516.165238
20
1129.852047
11
-521.677606
21
1131.972354
0
LINE
8
Layer 1
10
-521.677606
20
1131.972354
11
-527.313800
21
1133.781544
0
LINE
8
Layer 1
10
-527.313800
20
1133.781544
11
-533.061233
21
1135.272604
0
LINE
8
Layer 1
10
-533.061233
20
1135.272604
11
-538.907318
21
1136.438525
0
LINE
8
Layer 1
10
-538.907318
20
1136.438525
11
-544.839469
21
1137.272294
0
LINE
8
Layer 1
10
-544.839469
20
1137.272294
11
-550.845100
21
1137.766900
0
LINE
8
Layer 1
10
-550.845100
20
1137.766900
11
-556.869223
21
1137.915171
0
LINE
8
Layer 1
10
-556.869223
20
1137.915171
11
-562.856437
21
1137.718382
0
LINE
8
Layer 1
10
-562.856437
20
1137.718382
11
-568.793479
21
1137.182161
0
LINE
8
Layer 1
10
-568.793479
20
1137.182161
11
-574.667087
21
1136.312140
0
LINE
8
Layer 1
10
-574.667087
20
1136.312140
11
-580.463999
21
1135.113948
0
LINE
8
Layer 1
10
-580.463999
20
1135.113948
11
-586.170951
21
1133.593214
0
LINE
8
Layer 1
10
-586.170951
20
1133.593214
11
-591.774680
21
1131.755570
0
LINE
8
Layer 1
10
-591.774680
20
1131.755570
11
-597.261925
21
1129.606644
0
LINE
8
Layer 1
10
-597.261925
20
1129.606644
11
-602.619422
21
1127.152067
0
LINE
8
Layer 1
10
-602.619422
20
1127.152067
11
-607.833909
21
1124.397468
0
LINE
8
Layer 1
10
-607.833909
20
1124.397468
11
-612.892122
21
1121.348478
0
LINE
8
Layer 1
10
-612.892122
20
1121.348478
11
-617.780800
21
1118.010726
0
LINE
8
Layer 1
10
-617.780800
20
1118.010726
11
-622.486679
21
1114.389842
0
LINE
8
Layer 1
10
-622.486679
20
1114.389842
11
-626.996498
21
1110.491457
0
LINE
8
Layer 1
10
-626.996498
20
1110.491457
11
-631.296992
21
1106.321199
0
LINE
8
Layer 1
10
-631.296992
20
1106.321199
11
-635.374900
21
1101.884700
0
LINE
8
Layer 1
10
-635.375000
20
1101.880000
11
-635.764611
21
1101.192726
0
LINE
8
Layer 1
10
-635.764611
20
1101.192726
11
-635.857680
21
1100.408200
0
LINE
8
Layer 1
10
-635.857680
20
1100.408200
11
-635.639699
21
1099.648820
0
LINE
8
Layer 1
10
-635.639699
20
1099.648820
11
-635.144660
21
1099.033110
0
LINE
8
Layer 1
10
-623.760000
20
1089.540000
11
-635.145800
21
1099.028740
0
LINE
8
Layer 1
10
-623.759000
20
1089.540000
11
-623.109680
21
1089.098313
0
LINE
8
Layer 1
10
-623.109680
20
1089.098313
11
-622.407428
21
1088.799008
0
LINE
8
Layer 1
10
-622.407428
20
1088.799008
11
-620.927205
21
1088.621905
0
LINE
8
Layer 1
10
-620.927205
20
1088.621905
11
-619.484489
21
1088.997410
0
LINE
8
Layer 1
10
-619.484489
20
1088.997410
11
-618.829121
21
1089.388864
0
LINE
8
Layer 1
10
-618.829121
20
1089.388864
11
-618.245440
21
1089.914240
0
LINE
8
Layer 1
10
-488.928000
20
1083.010000
11
-491.808000
21
1086.708432
0
LINE
8
Layer 1
10
-491.808000
20
1086.708432
11
-494.872667
21
1090.220912
0
LINE
8
Layer 1
10
-494.872667
20
1090.220912
11
-498.112686
21
1093.542407
0
LINE
8
Layer 1
10
-498.112686
20
1093.542407
11
-501.518744
21
1096.667886
0
LINE
8
Layer 1
10
-501.518744
20
1096.667886
11
-505.081525
21
1099.592318
0
LINE
8
Layer 1
10
-505.081525
20
1099.592318
11
-508.791717
21
1102.310671
0
LINE
8
Layer 1
10
-508.791717
20
1102.310671
11
-512.640005
21
1104.817913
0
LINE
8
Layer 1
10
-512.640005
20
1104.817913
11
-516.617075
21
1107.109012
0
LINE
8
Layer 1
10
-516.617075
20
1107.109012
11
-520.713613
21
1109.178939
0
LINE
8
Layer 1
10
-520.713613
20
1109.178939
11
-524.920305
21
1111.022659
0
LINE
8
Layer 1
10
-524.920305
20
1111.022659
11
-529.227836
21
1112.635143
0
LINE
8
Layer 1
10
-529.227836
20
1112.635143
11
-533.626894
21
1114.011358
0
LINE
8
Layer 1
10
-533.626894
20
1114.011358
11
-538.108163
21
1115.146273
0
LINE
8
Layer 1
10
-538.108163
20
1115.146273
11
-542.662330
21
1116.034856
0
LINE
8
Layer 1
10
-542.662330
20
1116.034856
11
-547.280080
21
1116.672075
0
LINE
8
Layer 1
10
-547.280080
20
1116.672075
11
-551.952100
21
1117.052900
0
LINE
8
Layer 1
10
-551.952100
20
1117.052900
11
-556.638098
21
1117.172169
0
LINE
8
Layer 1
10
-556.638098
20
1117.172169
11
-561.297462
21
1117.030723
0
LINE
8
Layer 1
10
-561.297462
20
1117.030723
11
-565.920394
21
1116.632572
0
LINE
8
Layer 1
10
-565.920394
20
1116.632572
11
-570.497097
21
1115.981726
0
LINE
8
Layer 1
10
-570.497097
20
1115.981726
11
-575.017774
21
1115.082194
0
LINE
8
Layer 1
10
-575.017774
20
1115.082194
11
-579.472627
21
1113.937987
0
LINE
8
Layer 1
10
-579.472627
20
1113.937987
11
-583.851860
21
1112.553113
0
LINE
8
Layer 1
10
-583.851860
20
1112.553113
11
-588.145675
21
1110.931584
0
LINE
8
Layer 1
10
-588.145675
20
1110.931584
11
-592.344275
21
1109.077408
0
LINE
8
Layer 1
10
-592.344275
20
1109.077408
11
-596.437864
21
1106.994595
0
LINE
8
Layer 1
10
-596.437864
20
1106.994595
11
-600.416643
21
1104.687156
0
LINE
8
Layer 1
10
-600.416643
20
1104.687156
11
-604.270816
21
1102.159100
0
LINE
8
Layer 1
10
-604.270816
20
1102.159100
11
-607.990585
21
1099.414436
0
LINE
8
Layer 1
10
-607.990585
20
1099.414436
11
-611.566154
21
1096.457175
0
LINE
8
Layer 1
10
-611.566154
20
1096.457175
11
-614.987724
21
1093.291326
0
LINE
8
Layer 1
10
-614.987724
20
1093.291326
11
-618.245500
21
1089.920900
0
LINE
8
Layer 1
10
-488.928000
20
1083.010000
11
-488.403631
21
1082.425411
0
LINE
8
Layer 1
10
-488.403631
20
1082.425411
11
-487.793715
21
1081.966342
0
LINE
8
Layer 1
10
-487.793715
20
1081.966342
11
-486.399240
21
1081.439224
0
LINE
8
Layer 1
10
-486.399240
20
1081.439224
11
-484.908578
21
1081.457563
0
LINE
8
Layer 1
10
-484.908578
20
1081.457563
11
-484.178427
21
1081.680317
0
LINE
8
Layer 1
10
-484.178427
20
1081.680317
11
-483.485730
21
1082.050280
0
LINE
8
Layer 1
10
-471.154000
20
1090.270000
11
-483.485200
21
1082.049360
0
LINE
8
Layer 1
10
-471.154000
20
1090.270000
11
-470.596162
21
1090.829447
0
LINE
8
Layer 1
10
-470.596162
20
1090.829447
11
-470.298470
21
1091.561260
0
LINE
8
Layer 1
10
-470.298470
20
1091.561260
11
-470.307416
21
1092.351225
0
LINE
8
Layer 1
10
-470.307416
20
1092.351225
11
-470.621560
21
1093.076120
0
LINE
8
Layer 1
10
-605.075000
20
1115.960000
11
-604.933675
21
1116.515980
0
LINE
8
Layer 1
10
-604.933675
20
1116.515980
11
-605.226600
21
1117.009200
0
LINE
8
Layer 1
10
-605.226600
20
1117.009200
11
-605.782415
21
1117.151134
0
LINE
8
Layer 1
10
-605.782415
20
1117.151134
11
-606.275950
21
1116.858750
0
LINE
8
Layer 1
10
-606.275950
20
1116.858750
11
-606.417275
21
1116.302770
0
LINE
8
Layer 1
10
-606.417275
20
1116.302770
11
-606.124350
21
1115.809550
0
LINE
8
Layer 1
10
-606.124350
20
1115.809550
11
-605.568539
21
1115.667627
0
LINE
8
Layer 1
10
-605.568539
20
1115.667627
11
-605.075000
21
1115.960000
0
LINE
8
Layer 1
10
-605.075000
20
1115.960000
11
-605.075000
21
1115.960000
0
LINE
8
Layer 1
10
-569.569000
20
1128.490000
11
-569.427717
21
1129.045922
0
LINE
8
Layer 1
10
-569.427717
20
1129.045922
11
-569.720640
21
1129.539130
0
LINE
8
Layer 1
10
-569.720640
20
1129.539130
11
-570.276410
21
1129.681071
0
LINE
8
Layer 1
10
-570.276410
20
1129.681071
11
-570.769960
21
1129.388680
0
LINE
8
Layer 1
10
-570.769960
20
1129.388680
11
-570.911246
21
1128.832765
0
LINE
8
Layer 1
10
-570.911246
20
1128.832765
11
-570.618320
21
1128.339610
0
LINE
8
Layer 1
10
-570.618320
20
1128.339610
11
-570.062550
21
1128.197616
0
LINE
8
Layer 1
10
-570.062550
20
1128.197616
11
-569.569000
21
1128.490000
0
LINE
8
Layer 1
10
-569.569000
20
1128.490000
11
-569.569000
21
1128.490000
0
LINE
8
Layer 1
10
-531.971000
20
1126.480000
11
-531.830131
21
1127.035773
0
LINE
8
Layer 1
10
-531.830131
20
1127.035773
11
-532.123010
21
1127.528650
0
LINE
8
Layer 1
10
-532.123010
20
1127.528650
11
-532.678482
21
1127.670651
0
LINE
8
Layer 1
10
-532.678482
20
1127.670651
11
-533.171960
21
1127.378740
0
LINE
8
Layer 1
10
-533.171960
20
1127.378740
11
-533.312829
21
1126.822995
0
LINE
8
Layer 1
10
-533.312829
20
1126.822995
11
-533.019950
21
1126.330100
0
LINE
8
Layer 1
10
-533.019950
20
1126.330100
11
-532.464474
21
1126.188090
0
LINE
8
Layer 1
10
-532.464474
20
1126.188090
11
-531.971000
21
1126.480000
0
LINE
8
Layer 1
10
-531.971000
20
1126.480000
11
-531.971000
21
1126.480000
0
LINE
8
Layer 1
10
-605.675000
20
1116.410000
11
-605.675000
21
1116.410000
0
LINE
8
Layer 1
10
-605.675000
20
1116.410000
11
-605.675000
21
1116.410000
0
LINE
8
Layer 1
10
-623.506000
20
1082.790000
11
-623.966784
21
1082.170127
0
LINE
8
Layer 1
10
-623.966784
20
1082.170127
11
-624.155901
21
1081.447530
0
LINE
8
Layer 1
10
-624.155901
20
1081.447530
11
-624.067596
21
1080.705831
0
LINE
8
Layer 1
10
-624.067596
20
1080.705831
11
-623.696110
21
1080.028650
0
LINE
8
Layer 1
10
-614.197000
20
1068.640000
11
-623.696670
21
1080.021500
0
LINE
8
Layer 1
10
-614.197000
20
1068.640000
11
-613.637482
21
1068.088877
0
LINE
8
Layer 1
10
-613.637482
20
1068.088877
11
-613.000321
21
1067.668338
0
LINE
8
Layer 1
10
-613.000321
20
1067.668338
11
-611.575827
21
1067.228379
0
LINE
8
Layer 1
10
-611.575827
20
1067.228379
11
-610.089043
21
1067.338857
0
LINE
8
Layer 1
10
-610.089043
20
1067.338857
11
-609.374017
21
1067.606366
0
LINE
8
Layer 1
10
-609.374017
20
1067.606366
11
-608.705490
21
1068.018510
0
LINE
8
Layer 1
10
-502.519000
20
1064.030000
11
-505.364526
21
1066.441872
0
LINE
8
Layer 1
10
-505.364526
20
1066.441872
11
-508.290390
21
1068.708068
0
LINE
8
Layer 1
10
-508.290390
20
1068.708068
11
-511.291607
21
1070.828402
0
LINE
8
Layer 1
10
-511.291607
20
1070.828402
11
-514.363194
21
1072.802686
0
LINE
8
Layer 1
10
-514.363194
20
1072.802686
11
-517.500168
21
1074.630733
0
LINE
8
Layer 1
10
-517.500168
20
1074.630733
11
-520.697546
21
1076.312354
0
LINE
8
Layer 1
10
-520.697546
20
1076.312354
11
-523.950345
21
1077.847362
0
LINE
8
Layer 1
10
-523.950345
20
1077.847362
11
-527.253581
21
1079.235571
0
LINE
8
Layer 1
10
-527.253581
20
1079.235571
11
-530.602272
21
1080.476792
0
LINE
8
Layer 1
10
-530.602272
20
1080.476792
11
-533.991433
21
1081.570839
0
LINE
8
Layer 1
10
-533.991433
20
1081.570839
11
-537.416081
21
1082.517522
0
LINE
8
Layer 1
10
-537.416081
20
1082.517522
11
-540.871234
21
1083.316656
0
LINE
8
Layer 1
10
-540.871234
20
1083.316656
11
-547.853121
21
1084.471525
0
LINE
8
Layer 1
10
-547.853121
20
1084.471525
11
-554.897225
21
1085.033944
0
LINE
8
Layer 1
10
-554.897225
20
1085.033944
11
-561.963682
21
1085.002414
0
LINE
8
Layer 1
10
-561.963682
20
1085.002414
11
-569.012625
21
1084.375435
0
LINE
8
Layer 1
10
-569.012625
20
1084.375435
11
-572.518071
21
1083.838184
0
LINE
8
Layer 1
10
-572.518071
20
1083.838184
11
-576.004188
21
1083.151508
0
LINE
8
Layer 1
10
-576.004188
20
1083.151508
11
-579.465995
21
1082.315220
0
LINE
8
Layer 1
10
-579.465995
20
1082.315220
11
-582.898506
21
1081.329132
0
LINE
8
Layer 1
10
-582.898506
20
1081.329132
11
-586.296740
21
1080.193057
0
LINE
8
Layer 1
10
-586.296740
20
1080.193057
11
-589.655712
21
1078.906808
0
LINE
8
Layer 1
10
-589.655712
20
1078.906808
11
-592.970440
21
1077.470197
0
LINE
8
Layer 1
10
-592.970440
20
1077.470197
11
-596.235941
21
1075.883036
0
LINE
8
Layer 1
10
-596.235941
20
1075.883036
11
-599.447230
21
1074.145139
0
LINE
8
Layer 1
10
-599.447230
20
1074.145139
11
-602.599325
21
1072.256317
0
LINE
8
Layer 1
10
-602.599325
20
1072.256317
11
-605.687243
21
1070.216383
0
LINE
8
Layer 1
10
-605.687243
20
1070.216383
11
-608.706000
21
1068.025150
0
LINE
8
Layer 1
10
-502.519000
20
1064.030000
11
-501.883274
21
1063.568772
0
LINE
8
Layer 1
10
-501.883274
20
1063.568772
11
-501.190316
21
1063.248291
0
LINE
8
Layer 1
10
-501.190316
20
1063.248291
11
-499.715942
21
1063.026445
0
LINE
8
Layer 1
10
-499.715942
20
1063.026445
11
-498.262363
21
1063.358212
0
LINE
8
Layer 1
10
-498.262363
20
1063.358212
11
-497.595397
21
1063.729746
0
LINE
8
Layer 1
10
-497.595397
20
1063.729746
11
-496.996060
21
1064.237340
0
LINE
8
Layer 1
10
-496.996000
20
1064.230000
11
-486.670300
21
1074.865900
0
LINE
8
Layer 1
10
-486.670000
20
1074.870000
11
-486.248767
21
1075.517348
0
LINE
8
Layer 1
10
-486.248767
20
1075.517348
11
-486.105044
21
1076.250280
0
LINE
8
Layer 1
10
-486.105044
20
1076.250280
11
-486.239374
21
1076.984997
0
LINE
8
Layer 1
10
-486.239374
20
1076.984997
11
-486.652300
21
1077.637700
0
LINE
8
Layer 1
10
-554.933000
20
1098.310000
11
-555.172425
21
1097.788289
0
LINE
8
Layer 1
10
-555.172425
20
1097.788289
11
-554.972800
21
1097.250100
0
LINE
8
Layer 1
10
-554.972800
20
1097.250100
11
-554.451092
21
1097.010640
0
LINE
8
Layer 1
10
-554.451092
20
1097.010640
11
-553.912900
21
1097.210200
0
LINE
8
Layer 1
10
-553.912900
20
1097.210200
11
-553.673475
21
1097.731916
0
LINE
8
Layer 1
10
-553.673475
20
1097.731916
11
-553.873100
21
1098.270110
0
LINE
8
Layer 1
10
-553.873100
20
1098.270110
11
-554.394800
21
1098.509551
0
LINE
8
Layer 1
10
-554.394800
20
1098.509551
11
-554.933000
21
1098.310010
0
LINE
8
Layer 1
10
-554.933000
20
1098.310010
11
-554.933000
21
1098.310000
0
LINE
8
Layer 1
10
-592.112000
20
1092.360000
11
-592.351425
21
1091.838295
0
LINE
8
Layer 1
10
-592.351425
20
1091.838295
11
-592.151800
21
1091.300090
0
LINE
8
Layer 1
10
-592.151800
20
1091.300090
11
-591.630100
21
1091.060661
0
LINE
8
Layer 1
10
-591.630100
20
1091.060661
11
-591.091900
21
1091.260290
0
LINE
8
Layer 1
10
-591.091900
20
1091.260290
11
-590.852475
21
1091.781975
0
LINE
8
Layer 1
10
-590.852475
20
1091.781975
11
-591.052100
21
1092.320190
0
LINE
8
Layer 1
10
-591.052100
20
1092.320190
11
-591.573804
21
1092.559607
0
LINE
8
Layer 1
10
-591.573804
20
1092.559607
11
-592.112000
21
1092.359990
0
LINE
8
Layer 1
10
-592.112000
20
1092.359990
11
-592.112000
21
1092.360000
0
LINE
8
Layer 1
10
-518.306000
20
1089.580000
11
-518.545425
21
1089.058295
0
LINE
8
Layer 1
10
-518.545425
20
1089.058295
11
-518.345800
21
1088.520090
0
LINE
8
Layer 1
10
-518.345800
20
1088.520090
11
-517.824096
21
1088.280661
0
LINE
8
Layer 1
10
-517.824096
20
1088.280661
11
-517.285900
21
1088.480290
0
LINE
8
Layer 1
10
-517.285900
20
1088.480290
11
-517.046471
21
1089.001975
0
LINE
8
Layer 1
10
-517.046471
20
1089.001975
11
-517.246100
21
1089.540190
0
LINE
8
Layer 1
10
-517.246100
20
1089.540190
11
-517.767800
21
1089.779622
0
LINE
8
Layer 1
10
-517.767800
20
1089.779622
11
-518.306000
21
1089.579990
0
LINE
8
Layer 1
10
-518.306000
20
1089.579990
11
-518.306000
21
1089.580000
0
LINE
8
Layer 1
10
-486.652000
20
1077.640000
11
-490.271111
21
1080.873603
0
LINE
8
Layer 1
10
-490.271111
20
1080.873603
11
-494.002481
21
1083.911593
0
LINE
8
Layer 1
10
-494.002481
20
1083.911593
11
-497.839127
21
1086.753707
0
LINE
8
Layer 1
10
-497.839127
20
1086.753707
11
-501.774065
21
1089.399682
0
LINE
8
Layer 1
10
-501.774065
20
1089.399682
11
-505.800313
21
1091.849256
0
LINE
8
Layer 1
10
-505.800313
20
1091.849256
11
-509.910886
21
1094.102166
0
LINE
8
Layer 1
10
-509.910886
20
1094.102166
11
-514.098800
21
1096.158149
0
LINE
8
Layer 1
10
-514.098800
20
1096.158149
11
-518.357073
21
1098.016943
0
LINE
8
Layer 1
10
-518.357073
20
1098.016943
11
-522.678721
21
1099.678285
0
LINE
8
Layer 1
10
-522.678721
20
1099.678285
11
-527.056761
21
1101.141912
0
LINE
8
Layer 1
10
-527.056761
20
1101.141912
11
-531.484208
21
1102.407561
0
LINE
8
Layer 1
10
-531.484208
20
1102.407561
11
-535.954079
21
1103.474970
0
LINE
8
Layer 1
10
-535.954079
20
1103.474970
11
-540.459391
21
1104.343875
0
LINE
8
Layer 1
10
-540.459391
20
1104.343875
11
-544.993161
21
1105.014015
0
LINE
8
Layer 1
10
-544.993161
20
1105.014015
11
-549.548404
21
1105.485126
0
LINE
8
Layer 1
10
-549.548404
20
1105.485126
11
-554.118137
21
1105.756946
0
LINE
8
Layer 1
10
-554.118137
20
1105.756946
11
-558.695378
21
1105.829212
0
LINE
8
Layer 1
10
-558.695378
20
1105.829212
11
-563.273141
21
1105.701662
0
LINE
8
Layer 1
10
-563.273141
20
1105.701662
11
-567.844444
21
1105.374031
0
LINE
8
Layer 1
10
-567.844444
20
1105.374031
11
-572.402304
21
1104.846059
0
LINE
8
Layer 1
10
-572.402304
20
1104.846059
11
-576.939736
21
1104.117482
0
LINE
8
Layer 1
10
-576.939736
20
1104.117482
11
-581.449757
21
1103.188037
0
LINE
8
Layer 1
10
-581.449757
20
1103.188037
11
-585.925384
21
1102.057462
0
LINE
8
Layer 1
10
-585.925384
20
1102.057462
11
-590.359633
21
1100.725494
0
LINE
8
Layer 1
10
-590.359633
20
1100.725494
11
-594.745520
21
1099.191870
0
LINE
8
Layer 1
10
-594.745520
20
1099.191870
11
-599.076063
21
1097.456327
0
LINE
8
Layer 1
10
-599.076063
20
1097.456327
11
-603.344277
21
1095.518603
0
LINE
8
Layer 1
10
-603.344277
20
1095.518603
11
-607.543180
21
1093.378435
0
LINE
8
Layer 1
10
-607.543180
20
1093.378435
11
-611.665787
21
1091.035561
0
LINE
8
Layer 1
10
-611.665787
20
1091.035561
11
-615.705115
21
1088.489717
0
LINE
8
Layer 1
10
-615.705115
20
1088.489717
11
-619.654180
21
1085.740641
0
LINE
8
Layer 1
10
-619.654180
20
1085.740641
11
-623.506000
21
1082.788070
0
LINE
8
Layer 1
10
-554.422000
20
1097.760000
11
-554.422000
21
1097.760000
0
LINE
8
Layer 1
10
-554.422000
20
1097.760000
11
-554.422000
21
1097.760000
0
LINE
8
Layer 1
10
-591.602000
20
1091.810000
11
-591.602000
21
1091.810000
0
LINE
8
Layer 1
10
-591.602000
20
1091.810000
11
-591.602000
21
1091.810000
0
LINE
8
Layer 1
10
-517.795000
20
1089.030000
11
-517.795000
21
1089.030000
0
LINE
8
Layer 1
10
-517.795000
20
1089.030000
11
-517.795000
21
1089.030000
0
LINE
8
Layer 1
10
-548.503000
20
913.164000
11
-550.236020
21
911.430970
0
LINE
8
Layer 1
10
-551.394000
20
912.589000
11
-548.503160
21
913.163160
0
LINE
8
Layer 1
10
-550.236000
20
911.430000
11
-551.393800
21
912.588870
0
LINE
8
Layer 1
10
-556.344000
20
917.537000
11
-541.095500
21
920.571760
0
LINE
8
Layer 1
10
-553.945000
20
915.140000
11
-556.343460
21
917.537130
0
LINE
8
Layer 1
10
-544.685000
20
916.981000
11
-553.945400
21
915.139510
0
LINE
8
Layer 1
10
-541.095000
20
920.572000
11
-544.684620
21
916.981600
0
LINE
8
Layer 1
10
-529.869000
20
931.798000
11
-553.855000
21
927.027560
0
LINE
8
Layer 1
10
-526.280000
20
935.389000
11
-529.869620
21
931.798600
0
LINE
8
Layer 1
10
-550.266000
20
930.615000
11
-526.279900
21
935.388100
0
LINE
8
Layer 1
10
-553.855000
20
927.028000
11
-550.265400
21
930.615770
0
LINE
8
Layer 1
10
-557.674000
20
923.207000
11
-533.687900
21
927.980100
0
LINE
8
Layer 1
10
-559.844000
20
921.038000
11
-557.674150
21
923.207560
0
LINE
8
Layer 1
10
-558.895000
20
920.090000
11
-559.843280
21
921.037200
0
LINE
8
Layer 1
10
-537.277000
20
924.390000
11
-558.895000
21
920.090530
0
LINE
8
Layer 1
10
-533.688000
20
927.980000
11
-537.277600
21
924.389610
0
LINE
8
Layer 1
10
-481.900000
20
917.603000
11
-516.026000
21
910.813780
0
LINE
8
Layer 1
10
-484.299000
20
920.000000
11
-481.900550
21
917.602880
0
LINE
8
Layer 1
10
-512.437000
20
914.404000
11
-484.299100
21
919.999940
0
LINE
8
Layer 1
10
-516.026000
20
910.814000
11
-512.436390
21
914.404370
0
LINE
8
Layer 1
10
-519.844000
20
906.996000
11
-495.982800
21
911.742610
0
LINE
8
Layer 1
10
-523.434000
20
903.406000
11
-519.844400
21
906.996360
0
LINE
8
Layer 1
10
-499.573000
20
908.152000
11
-523.434200
21
903.405420
0
LINE
8
Layer 1
10
-495.983000
20
911.743000
11
-499.572600
21
908.152640
0
LINE
8
Layer 1
10
-486.850000
20
922.551000
11
-508.618300
21
918.222420
0
LINE
8
Layer 1
10
-489.248000
20
924.951000
11
-486.849550
21
922.551250
0
LINE
8
Layer 1
10
-505.028000
20
921.813000
11
-489.247700
21
924.950940
0
LINE
8
Layer 1
10
-508.618000
20
918.222000
11
-505.028400
21
921.812390
0
LINE
8
Layer 1
10
-497.621000
20
929.218000
11
-494.198360
21
929.900620
0
LINE
8
Layer 1
10
-501.210000
20
925.631000
11
-497.620400
21
929.218770
0
LINE
8
Layer 1
10
-491.800000
20
927.501000
11
-501.210690
21
925.630390
0
LINE
8
Layer 1
10
-494.198000
20
929.901000
11
-491.799550
21
927.501250
0
LINE
8
Layer 1
10
-471.405000
20
895.952000
11
-505.851400
21
889.099280
0
LINE
8
Layer 1
10
-471.250000
20
896.444000
11
-471.405050
21
895.951873
0
LINE
8
Layer 1
10
-470.964000
20
898.066000
11
-471.250270
21
896.444110
0
LINE
8
Layer 1
10
-470.921000
20
898.924000
11
-470.964400
21
898.066761
0
LINE
8
Layer 1
10
-505.416000
20
892.063000
11
-470.920400
21
898.923690
0
LINE
8
Layer 1
10
-505.852000
20
889.100000
11
-505.416500
21
892.063320
0
LINE
8
Layer 1
10
-471.811000
20
904.652000
11
-471.324700
21
903.024800
0
LINE
8
Layer 1
10
-471.822000
20
904.678000
11
-471.810900
21
904.651540
0
LINE
8
Layer 1
10
-484.216000
20
902.215000
11
-471.822600
21
904.678290
0
LINE
8
Layer 1
10
-484.260000
20
901.948000
11
-484.216100
21
902.215212
0
LINE
8
Layer 1
10
-484.929000
20
900.416000
11
-484.259590
21
901.947950
0
LINE
8
Layer 1
10
-486.086000
20
898.971000
11
-484.928970
21
900.415610
0
LINE
8
Layer 1
10
-486.094000
20
898.966000
11
-486.086000
21
898.971300
0
LINE
8
Layer 1
10
-471.116000
20
901.945000
11
-486.094100
21
898.965780
0
LINE
8
Layer 1
10
-471.325000
20
903.025000
11
-471.115710
21
901.945530
0
LINE
8
Layer 1
10
-484.660000
20
905.501000
11
-485.398190
21
906.876820
0
LINE
8
Layer 1
10
-484.578000
20
905.202000
11
-484.660000
21
905.500980
0
LINE
8
Layer 1
10
-473.114000
20
907.480000
11
-484.577900
21
905.201930
0
LINE
8
Layer 1
10
-473.225000
20
907.692000
11
-473.114130
21
907.480330
0
LINE
8
Layer 1
10
-474.152000
20
909.105000
11
-473.224640
21
907.692120
0
LINE
8
Layer 1
10
-474.879000
20
910.007000
11
-474.152720
21
909.104780
0
LINE
8
Layer 1
10
-486.092000
20
907.777000
11
-474.878700
21
910.007440
0
LINE
8
Layer 1
10
-485.398000
20
906.877000
11
-486.091740
21
907.776600
0
LINE
8
Layer 1
10
-490.784000
20
912.777000
11
-479.353700
21
915.049740
0
LINE
8
Layer 1
10
-489.389000
20
911.380000
11
-490.784690
21
912.777030
0
LINE
8
Layer 1
10
-488.440000
20
910.367000
11
-489.389050
21
911.380340
0
LINE
8
Layer 1
10
-477.075000
20
912.629000
11
-488.439100
21
910.366790
0
LINE
8
Layer 1
10
-479.354000
20
915.050000
11
-477.075400
21
912.629070
0
LINE
8
Layer 1
10
-531.595000
20
892.791000
11
-510.799000
21
896.926440
0
LINE
8
Layer 1
10
-529.197000
20
890.391000
11
-531.595450
21
892.790780
0
LINE
8
Layer 1
10
-514.389000
20
893.336000
11
-529.196900
21
890.391170
0
LINE
8
Layer 1
10
-510.799000
20
896.926000
11
-514.388620
21
893.335610
0
LINE
8
Layer 1
10
-500.172000
20
902.099000
11
-530.841700
21
895.997680
0
LINE
8
Layer 1
10
-502.571000
20
904.498000
11
-500.172550
21
902.098250
0
LINE
8
Layer 1
10
-527.252000
20
899.588000
11
-502.570400
21
904.498670
0
LINE
8
Layer 1
10
-530.842000
20
895.997000
11
-527.252380
21
899.587390
0
LINE
8
Layer 1
10
-521.796000
20
885.930000
11
-524.246570
21
885.440529
0
LINE
8
Layer 1
10
-518.207000
20
889.518000
11
-521.796600
21
885.930230
0
LINE
8
Layer 1
10
-526.645000
20
887.840000
11
-518.206390
21
889.517430
0
LINE
8
Layer 1
10
-524.247000
20
885.440000
11
-526.645450
21
887.839780
0
LINE
8
Layer 1
10
-497.484000
20
899.575000
11
-495.868980
21
898.246780
0
LINE
8
Layer 1
10
-508.807000
20
897.323000
11
-497.483900
21
899.574620
0
LINE
8
Layer 1
10
-506.409000
20
894.923000
11
-508.807440
21
897.322750
0
LINE
8
Layer 1
10
-494.314000
20
897.331000
11
-506.408900
21
894.923290
0
LINE
8
Layer 1
10
-495.869000
20
898.246000
11
-494.313770
21
897.330564
0
LINE
8
Layer 1
10
-542.858000
20
938.024000
11
-509.047400
21
944.749710
0
LINE
8
Layer 1
10
-546.447000
20
934.433000
11
-542.857380
21
938.023390
0
LINE
8
Layer 1
10
-522.461000
20
939.206000
11
-546.447100
21
934.432900
0
LINE
8
Layer 1
10
-520.188000
20
941.479000
11
-522.461580
21
939.206230
0
LINE
8
Layer 1
10
-518.669000
20
939.961000
11
-520.188220
21
941.479670
0
LINE
8
Layer 1
10
-506.649000
20
942.352000
11
-518.668800
21
939.960190
0
LINE
8
Layer 1
10
-509.047000
20
944.749000
11
-506.648560
21
942.351840
0
LINE
8
Layer 1
10
-535.450000
20
945.432000
11
-513.997300
21
949.699730
0
LINE
8
Layer 1
10
-539.039000
20
941.842000
11
-535.449400
21
945.432400
0
LINE
8
Layer 1
10
-511.599000
20
947.300000
11
-539.039700
21
941.841620
0
LINE
8
Layer 1
10
-513.997000
20
949.700000
11
-511.598550
21
947.300250
0
LINE
8
Layer 1
10
-501.699000
20
937.402000
11
-513.719000
21
935.010150
0
LINE
8
Layer 1
10
-504.097000
20
939.799000
11
-501.698560
21
937.401880
0
LINE
8
Layer 1
10
-516.117000
20
937.410000
11
-504.097000
21
939.799190
0
LINE
8
Layer 1
10
-513.719000
20
935.010000
11
-516.117440
21
937.409750
0
LINE
8
Layer 1
10
-511.168000
20
932.460000
11
-504.642300
21
933.756480
0
LINE
8
Layer 1
10
-508.769000
20
930.060000
11
-511.167460
21
932.459750
0
LINE
8
Layer 1
10
-508.232000
20
930.168000
11
-508.769630
21
930.059510
0
LINE
8
Layer 1
10
-504.642000
20
933.756000
11
-508.231620
21
930.168230
0
LINE
8
Layer 1
10
-531.632000
20
949.250000
11
-529.795520
21
951.086210
0
LINE
8
Layer 1
10
-516.548000
20
952.250000
11
-531.631100
21
949.249640
0
LINE
8
Layer 1
10
-518.947000
20
954.650000
11
-516.548550
21
952.250220
0
LINE
8
Layer 1
10
-530.967000
20
952.258000
11
-518.947200
21
954.649850
0
LINE
8
Layer 1
10
-529.795000
20
951.086000
11
-530.966570
21
952.258120
0
LINE
8
Layer 1
10
-535.916000
20
957.209000
11
-523.896000
21
959.598190
0
LINE
8
Layer 1
10
-533.518000
20
954.809000
11
-535.916450
21
957.208780
0
LINE
8
Layer 1
10
-521.498000
20
957.201000
11
-533.518000
21
954.809160
0
LINE
8
Layer 1
10
-523.896000
20
959.598000
11
-521.497550
21
957.200840
0
LINE
8
Layer 1
10
-526.448000
20
962.151000
11
-538.467800
21
959.759150
0
LINE
8
Layer 1
10
-528.846000
20
964.548000
11
-526.447540
21
962.150840
0
LINE
8
Layer 1
10
-540.866000
20
962.156000
11
-528.846200
21
964.547850
0
LINE
8
Layer 1
10
-538.468000
20
959.759000
11
-540.866460
21
962.156150
0
LINE
8
Layer 1
10
-532.601000
20
966.861000
11
-535.430295
21
965.647485
0
LINE
8
Layer 1
10
-535.430295
20
965.647485
11
-538.165688
21
964.307066
0
LINE
8
Layer 1
10
-538.165688
20
964.307066
11
-540.805085
21
962.844596
0
LINE
8
Layer 1
10
-540.805085
20
962.844596
11
-543.346390
21
961.264925
0
LINE
8
Layer 1
10
-543.346390
20
961.264925
11
-548.126342
21
957.773385
0
LINE
8
Layer 1
10
-548.126342
20
957.773385
11
-552.488781
21
953.871253
0
LINE
8
Layer 1
10
-552.488781
20
953.871253
11
-556.416945
21
949.597338
0
LINE
8
Layer 1
10
-556.416945
20
949.597338
11
-559.894070
21
944.990448
0
LINE
8
Layer 1
10
-559.894070
20
944.990448
11
-562.903392
21
940.089391
0
LINE
8
Layer 1
10
-562.903392
20
940.089391
11
-565.428150
21
934.932975
0
LINE
8
Layer 1
10
-565.428150
20
934.932975
11
-567.451580
21
929.560008
0
LINE
8
Layer 1
10
-567.451580
20
929.560008
11
-568.956918
21
924.009299
0
LINE
8
Layer 1
10
-568.956918
20
924.009299
11
-569.927402
21
918.319655
0
LINE
8
Layer 1
10
-569.927402
20
918.319655
11
-570.346269
21
912.529884
0
LINE
8
Layer 1
10
-570.346269
20
912.529884
11
-570.196755
21
906.678796
0
LINE
8
Layer 1
10
-570.196755
20
906.678796
11
-569.462098
21
900.805196
0
LINE
8
Layer 1
10
-569.462098
20
900.805196
11
-568.870102
21
897.872083
0
LINE
8
Layer 1
10
-568.870102
20
897.872083
11
-568.125534
21
894.947895
0
LINE
8
Layer 1
10
-568.125534
20
894.947895
11
-567.226298
21
892.037484
0
LINE
8
Layer 1
10
-567.226298
20
892.037484
11
-566.170300
21
889.145700
0
LINE
8
Layer 1
10
-566.170300
20
889.145700
11
-564.969930
21
886.310796
0
LINE
8
Layer 1
10
-564.969930
20
886.310796
11
-563.642224
21
883.569204
0
LINE
8
Layer 1
10
-563.642224
20
883.569204
11
-562.192021
21
880.923040
0
LINE
8
Layer 1
10
-562.192021
20
880.923040
11
-560.624164
21
878.374422
0
LINE
8
Layer 1
10
-560.624164
20
878.374422
11
-557.154852
21
873.578300
0
LINE
8
Layer 1
10
-557.154852
20
873.578300
11
-553.273016
21
869.197780
0
LINE
8
Layer 1
10
-553.273016
20
869.197780
11
-549.017385
21
865.249805
0
LINE
8
Layer 1
10
-549.017385
20
865.249805
11
-544.426690
21
861.751319
0
LINE
8
Layer 1
10
-544.426690
20
861.751319
11
-539.539660
21
858.719265
0
LINE
8
Layer 1
10
-539.539660
20
858.719265
11
-534.395025
21
856.170588
0
LINE
8
Layer 1
10
-534.395025
20
856.170588
11
-529.031514
21
854.122229
0
LINE
8
Layer 1
10
-529.031514
20
854.122229
11
-523.487857
21
852.591133
0
LINE
8
Layer 1
10
-523.487857
20
852.591133
11
-517.802783
21
851.594242
0
LINE
8
Layer 1
10
-517.802783
20
851.594242
11
-512.015022
21
851.148502
0
LINE
8
Layer 1
10
-512.015022
20
851.148502
11
-506.163304
21
851.270853
0
LINE
8
Layer 1
10
-506.163304
20
851.270853
11
-500.286357
21
851.978242
0
LINE
8
Layer 1
10
-500.286357
20
851.978242
11
-497.350527
21
852.556619
0
LINE
8
Layer 1
10
-497.350527
20
852.556619
11
-494.422913
21
853.287609
0
LINE
8
Layer 1
10
-494.422913
20
853.287609
11
-491.508357
21
854.173330
0
LINE
8
Layer 1
10
-491.508357
20
854.173330
11
-488.611700
21
855.215900
0
LINE
8
Layer 1
10
-488.611700
20
855.215900
11
-485.771252
21
856.403095
0
LINE
8
Layer 1
10
-485.771252
20
856.403095
11
-483.023524
21
857.718058
0
LINE
8
Layer 1
10
-483.023524
20
857.718058
11
-480.370655
21
859.155959
0
LINE
8
Layer 1
10
-480.370655
20
859.155959
11
-477.814787
21
860.711966
0
LINE
8
Layer 1
10
-477.814787
20
860.711966
11
-473.002610
21
864.158973
0
LINE
8
Layer 1
10
-473.002610
20
864.158973
11
-468.604117
21
868.020428
0
LINE
8
Layer 1
10
-468.604117
20
868.020428
11
-464.636431
21
872.257681
0
LINE
8
Layer 1
10
-464.636431
20
872.257681
11
-461.116674
21
876.832082
0
LINE
8
Layer 1
10
-461.116674
20
876.832082
11
-458.061968
21
881.704980
0
LINE
8
Layer 1
10
-458.061968
20
881.704980
11
-455.489438
21
886.837725
0
LINE
8
Layer 1
10
-455.489438
20
886.837725
11
-453.416204
21
892.191666
0
LINE
8
Layer 1
10
-453.416204
20
892.191666
11
-451.859390
21
897.728152
0
LINE
8
Layer 1
10
-451.859390
20
897.728152
11
-450.836120
21
903.408533
0
LINE
8
Layer 1
10
-450.836120
20
903.408533
11
-450.363514
21
909.194159
0
LINE
8
Layer 1
10
-450.363514
20
909.194159
11
-450.458697
21
915.046380
0
LINE
8
Layer 1
10
-450.458697
20
915.046380
11
-451.138790
21
920.926543
0
LINE
8
Layer 1
10
-451.138790
20
920.926543
11
-451.703529
21
923.865026
0
LINE
8
Layer 1
10
-451.703529
20
923.865026
11
-452.420917
21
926.796000
0
LINE
8
Layer 1
10
-452.420917
20
926.796000
11
-453.293094
21
929.714635
0
LINE
8
Layer 1
10
-453.293094
20
929.714635
11
-454.322200
21
932.616100
0
LINE
8
Layer 1
10
-454.322200
20
932.616100
11
-455.496191
21
935.462027
0
LINE
8
Layer 1
10
-455.496191
20
935.462027
11
-456.798379
21
938.215830
0
LINE
8
Layer 1
10
-456.798379
20
938.215830
11
-458.223945
21
940.875345
0
LINE
8
Layer 1
10
-458.223945
20
940.875345
11
-459.768066
21
943.438410
0
LINE
8
Layer 1
10
-459.768066
20
943.438410
11
-463.192690
21
948.266538
0
LINE
8
Layer 1
10
-463.192690
20
948.266538
11
-467.033680
21
952.682913
0
LINE
8
Layer 1
10
-467.033680
20
952.682913
11
-471.252465
21
956.670230
0
LINE
8
Layer 1
10
-471.252465
20
956.670230
11
-475.810475
21
960.211190
0
LINE
8
Layer 1
10
-475.810475
20
960.211190
11
-480.669140
21
963.288489
0
LINE
8
Layer 1
10
-480.669140
20
963.288489
11
-485.789888
21
965.884825
0
LINE
8
Layer 1
10
-485.789888
20
965.884825
11
-491.134148
21
967.982896
0
LINE
8
Layer 1
10
-491.134148
20
967.982896
11
-496.663351
21
969.565401
0
LINE
8
Layer 1
10
-496.663351
20
969.565401
11
-502.338926
21
970.615036
0
LINE
8
Layer 1
10
-502.338926
20
970.615036
11
-508.122302
21
971.114500
0
LINE
8
Layer 1
10
-508.122302
20
971.114500
11
-513.974907
21
971.046491
0
LINE
8
Layer 1
10
-513.974907
20
971.046491
11
-519.858173
21
970.393705
0
LINE
8
Layer 1
10
-519.858173
20
970.393705
11
-522.799250
21
969.842615
0
LINE
8
Layer 1
10
-522.799250
20
969.842615
11
-525.733527
21
969.138843
0
LINE
8
Layer 1
10
-525.733527
20
969.138843
11
-528.656185
21
968.280225
0
LINE
8
Layer 1
10
-528.656185
20
968.280225
11
-531.562400
21
967.264600
0
LINE
8
Layer 1
10
-531.398000
20
967.099000
11
-532.601070
21
966.860880
0
LINE
8
Layer 1
10
-531.562000
20
967.266000
11
-531.397710
21
967.099310
0
LINE
8
Layer 1
10
-501.896000
20
863.091000
11
-496.188400
21
864.226070
0
LINE
8
Layer 1
10
-499.498000
20
860.694000
11
-501.896460
21
863.091120
0
LINE
8
Layer 1
10
-496.555000
20
861.279000
11
-499.497960
21
860.694284
0
LINE
8
Layer 1
10
-496.188000
20
864.226000
11
-496.554170
21
861.278550
0
LINE
8
Layer 1
10
-493.532000
20
885.618000
11
-506.751100
21
882.988060
0
LINE
8
Layer 1
10
-493.417000
20
886.536000
11
-493.531300
21
885.617910
0
LINE
8
Layer 1
10
-491.588000
20
886.004000
11
-493.417080
21
886.535829
0
LINE
8
Layer 1
10
-476.300000
20
889.044000
11
-491.587900
21
886.003930
0
LINE
8
Layer 1
10
-474.978000
20
890.214000
11
-476.300390
21
889.044540
0
LINE
8
Layer 1
10
-473.619000
20
891.730000
11
-474.977890
21
890.213950
0
LINE
8
Layer 1
10
-473.034000
20
892.571000
11
-473.618730
21
891.729600
0
LINE
8
Layer 1
10
-506.315000
20
885.948000
11
-473.034100
21
892.570530
0
LINE
8
Layer 1
10
-506.751000
20
882.988000
11
-506.315500
21
885.948660
0
LINE
8
Layer 1
10
-494.287000
20
879.532000
11
-507.649500
21
876.872910
0
LINE
8
Layer 1
10
-493.921000
20
882.480000
11
-494.287190
21
879.532550
0
LINE
8
Layer 1
10
-507.214000
20
879.837000
11
-493.920800
21
882.480190
0
LINE
8
Layer 1
10
-507.650000
20
876.873000
11
-507.214500
21
879.836320
0
LINE
8
Layer 1
10
-508.113000
20
873.722000
11
-494.676900
21
876.396930
0
LINE
8
Layer 1
10
-508.549000
20
870.761000
11
-508.113240
21
873.721690
0
LINE
8
Layer 1
10
-495.043000
20
873.447000
11
-508.548700
21
870.761450
0
LINE
8
Layer 1
10
-494.677000
20
876.397000
11
-495.043160
21
873.446900
0
LINE
8
Layer 1
10
-495.799000
20
867.364000
11
-504.447690
21
865.641560
0
LINE
8
Layer 1
10
-495.433000
20
870.312000
11
-495.799460
21
867.364550
0
LINE
8
Layer 1
10
-506.846000
20
868.041000
11
-495.432400
21
870.311110
0
LINE
8
Layer 1
10
-504.448000
20
865.642000
11
-506.846460
21
868.041750
0
LINE
8
Layer 1
10
-475.066000
20
880.244000
11
-473.064430
21
879.143320
0
LINE
8
Layer 1
10
-477.918000
20
877.392000
11
-475.066320
21
880.244200
0
LINE
8
Layer 1
10
-477.258000
20
876.984000
11
-477.917880
21
877.391471
0
LINE
8
Layer 1
10
-471.308000
20
878.170000
11
-477.257430
21
876.984670
0
LINE
8
Layer 1
10
-473.064000
20
879.143000
11
-471.307940
21
878.169337
0
LINE
8
Layer 1
10
-468.134000
20
872.865000
11
-481.188000
21
870.269450
0
LINE
8
Layer 1
10
-465.834000
20
875.167000
11
-468.134280
21
872.865120
0
LINE
8
Layer 1
10
-467.221000
20
875.923000
11
-465.833790
21
875.166286
0
LINE
8
Layer 1
10
-477.599000
20
873.860000
11
-467.221500
21
875.923780
0
LINE
8
Layer 1
10
-481.188000
20
870.269000
11
-477.598400
21
873.859360
0
LINE
8
Layer 1
10
-485.007000
20
866.451000
11
-471.952700
21
869.046580
0
LINE
8
Layer 1
10
-488.596000
20
862.861000
11
-485.006380
21
866.451390
0
LINE
8
Layer 1
10
-475.542000
20
865.459000
11
-488.596600
21
862.860790
0
LINE
8
Layer 1
10
-471.952000
20
869.047000
11
-475.541330
21
865.459230
0
LINE
8
Layer 1
10
-492.414000
20
859.043000
11
-479.359400
21
861.638580
0
LINE
8
Layer 1
10
-495.131000
20
856.326000
11
-492.413990
21
859.043290
0
LINE
8
Layer 1
10
-494.548000
20
855.744000
11
-495.131130
21
856.326061
0
LINE
8
Layer 1
10
-482.949000
20
858.051000
11
-494.548100
21
855.743840
0
LINE
8
Layer 1
10
-479.360000
20
861.639000
11
-482.949340
21
858.051230
0
LINE
8
Layer 1
10
-434.195000
20
979.706000
11
-445.202500
21
969.794710
0
LINE
8
Layer 1
10
-445.203000
20
969.796000
11
-445.732999
21
969.215811
0
LINE
8
Layer 1
10
-445.732999
20
969.215811
11
-446.129423
21
968.562883
0
LINE
8
Layer 1
10
-446.129423
20
968.562883
11
-446.515314
21
967.121999
0
LINE
8
Layer 1
10
-446.515314
20
967.121999
11
-446.348220
21
965.639720
0
LINE
8
Layer 1
10
-446.348220
20
965.639720
11
-446.053413
21
964.935049
0
LINE
8
Layer 1
10
-446.053413
20
964.935049
11
-445.615690
21
964.282420
0
LINE
8
Layer 1
10
-436.477000
20
950.606000
11
-438.504584
21
954.192060
0
LINE
8
Layer 1
10
-438.504584
20
954.192060
11
-440.706261
21
957.670956
0
LINE
8
Layer 1
10
-440.706261
20
957.670956
11
-443.077793
21
961.036349
0
LINE
8
Layer 1
10
-443.077793
20
961.036349
11
-445.614940
21
964.281900
0
LINE
8
Layer 1
10
-436.477000
20
950.606000
11
-436.041561
21
949.951853
0
LINE
8
Layer 1
10
-436.041561
20
949.951853
11
-435.503348
21
949.409827
0
LINE
8
Layer 1
10
-435.503348
20
949.409827
11
-434.197842
21
948.688219
0
LINE
8
Layer 1
10
-434.197842
20
948.688219
11
-432.718963
21
948.493341
0
LINE
8
Layer 1
10
-432.718963
20
948.493341
11
-431.964033
21
948.609728
0
LINE
8
Layer 1
10
-431.964033
20
948.609728
11
-431.225190
21
948.877360
0
LINE
8
Layer 1
10
-417.856000
20
955.253000
11
-431.225100
21
948.876560
0
LINE
8
Layer 1
10
-417.856000
20
955.254000
11
-417.223410
21
955.729088
0
LINE
8
Layer 1
10
-417.223410
20
955.729088
11
-416.824520
21
956.412300
0
LINE
8
Layer 1
10
-416.824520
20
956.412300
11
-416.721758
21
957.196731
0
LINE
8
Layer 1
10
-416.721758
20
957.196731
11
-416.931190
21
957.959630
0
LINE
8
Layer 1
10
-416.932000
20
957.960000
11
-420.035360
21
963.674058
0
LINE
8
Layer 1
10
-420.035360
20
963.674058
11
-423.478195
21
969.183160
0
LINE
8
Layer 1
10
-423.478195
20
969.183160
11
-427.250407
21
974.472182
0
LINE
8
Layer 1
10
-427.250407
20
974.472182
11
-431.341900
21
979.526000
0
LINE
8
Layer 1
10
-431.342000
20
979.526000
11
-431.966689
21
980.011435
0
LINE
8
Layer 1
10
-431.966689
20
980.011435
11
-432.730720
21
980.216700
0
LINE
8
Layer 1
10
-432.730720
20
980.216700
11
-433.514569
21
980.109589
0
LINE
8
Layer 1
10
-433.514569
20
980.109589
11
-434.195570
21
979.706970
0
LINE
8
Layer 1
10
-466.231000
20
1003.630000
11
-472.607730
21
990.260600
0
LINE
8
Layer 1
10
-472.608000
20
990.259000
11
-472.875615
21
989.520162
0
LINE
8
Layer 1
10
-472.875615
20
989.520162
11
-472.991989
21
988.765238
0
LINE
8
Layer 1
10
-472.991989
20
988.765238
11
-472.797096
21
987.286371
0
LINE
8
Layer 1
10
-472.797096
20
987.286371
11
-472.075488
21
985.980877
0
LINE
8
Layer 1
10
-472.075488
20
985.980877
11
-471.533468
21
985.442668
0
LINE
8
Layer 1
10
-471.533468
20
985.442668
11
-470.879330
21
985.007230
0
LINE
8
Layer 1
10
-457.203000
20
975.869000
11
-460.448564
21
978.406151
0
LINE
8
Layer 1
10
-460.448564
20
978.406151
11
-463.813963
21
980.777690
0
LINE
8
Layer 1
10
-463.813963
20
980.777690
11
-467.292855
21
982.979377
0
LINE
8
Layer 1
10
-467.292855
20
982.979377
11
-470.878900
21
985.006970
0
LINE
8
Layer 1
10
-457.203000
20
975.869000
11
-456.550372
21
975.431281
0
LINE
8
Layer 1
10
-456.550372
20
975.431281
11
-455.845700
21
975.136477
0
LINE
8
Layer 1
10
-455.845700
20
975.136477
11
-454.363414
21
974.969391
0
LINE
8
Layer 1
10
-454.363414
20
974.969391
11
-452.922525
21
975.355290
0
LINE
8
Layer 1
10
-452.922525
20
975.355290
11
-452.269601
21
975.751717
0
LINE
8
Layer 1
10
-452.269601
20
975.751717
11
-451.689420
21
976.281720
0
LINE
8
Layer 1
10
-441.778000
20
987.289000
11
-451.689290
21
976.282300
0
LINE
8
Layer 1
10
-441.778000
20
987.289000
11
-441.375365
21
987.969985
0
LINE
8
Layer 1
10
-441.375365
20
987.969985
11
-441.268290
21
988.753810
0
LINE
8
Layer 1
10
-441.268290
20
988.753810
11
-441.473508
21
989.517861
0
LINE
8
Layer 1
10
-441.473508
20
989.517861
11
-441.958970
21
990.142540
0
LINE
8
Layer 1
10
-441.959000
20
990.143000
11
-447.012846
21
994.234524
0
LINE
8
Layer 1
10
-447.012846
20
994.234524
11
-452.301855
21
998.006735
0
LINE
8
Layer 1
10
-452.301855
20
998.006735
11
-457.810936
21
1001.449554
0
LINE
8
Layer 1
10
-457.810936
20
1001.449554
11
-463.525000
21
1004.552900
0
LINE
8
Layer 1
10
-463.525000
20
1004.550000
11
-464.287905
21
1004.759427
0
LINE
8
Layer 1
10
-464.287905
20
1004.759427
11
-465.072320
21
1004.656660
0
LINE
8
Layer 1
10
-465.072320
20
1004.656660
11
-465.755533
21
1004.257787
0
LINE
8
Layer 1
10
-465.755533
20
1004.257787
11
-466.230620
21
1003.625200
0
LINE
8
Layer 1
10
-413.752000
20
945.347000
11
-427.714300
21
940.401960
0
LINE
8
Layer 1
10
-427.715000
20
940.403000
11
-428.426682
21
940.069798
0
LINE
8
Layer 1
10
-428.426682
20
940.069798
11
-429.042795
21
939.618277
0
LINE
8
Layer 1
10
-429.042795
20
939.618277
11
-429.950721
21
938.434751
0
LINE
8
Layer 1
10
-429.950721
20
938.434751
11
-430.363597
21
937.001373
0
LINE
8
Layer 1
10
-430.363597
20
937.001373
11
-430.360897
21
936.237535
0
LINE
8
Layer 1
10
-430.360897
20
936.237535
11
-430.206240
21
935.467090
0
LINE
8
Layer 1
10
-426.997000
20
919.335000
11
-427.497916
21
923.423991
0
LINE
8
Layer 1
10
-427.497916
20
923.423991
11
-428.200683
21
927.480606
0
LINE
8
Layer 1
10
-428.200683
20
927.480606
11
-429.103816
21
931.497368
0
LINE
8
Layer 1
10
-429.103816
20
931.497368
11
-430.205830
21
935.466800
0
LINE
8
Layer 1
10
-426.997000
20
919.335000
11
-426.845042
21
918.564002
0
LINE
8
Layer 1
10
-426.845042
20
918.564002
11
-426.555226
21
917.857264
0
LINE
8
Layer 1
10
-426.555226
20
917.857264
11
-425.625249
21
916.690984
0
LINE
8
Layer 1
10
-425.625249
20
916.690984
11
-424.333522
21
915.944994
0
LINE
8
Layer 1
10
-424.333522
20
915.944994
11
-423.591519
21
915.763619
0
LINE
8
Layer 1
10
-423.591519
20
915.763619
11
-422.806500
21
915.728130
0
LINE
8
Layer 1
10
-408.014000
20
916.503000
11
-422.806800
21
915.727760
0
LINE
8
Layer 1
10
-408.015000
20
916.503000
11
-407.248761
21
916.699859
0
LINE
8
Layer 1
10
-407.248761
20
916.699859
11
-406.618790
21
917.178380
0
LINE
8
Layer 1
10
-406.618790
20
917.178380
11
-406.223659
21
917.863784
0
LINE
8
Layer 1
10
-406.223659
20
917.863784
11
-406.125190
21
918.648750
0
LINE
8
Layer 1
10
-406.125000
20
918.649000
11
-406.805457
21
925.115697
0
LINE
8
Layer 1
10
-406.805457
20
925.115697
11
-407.877985
21
931.522934
0
LINE
8
Layer 1
10
-407.877985
20
931.522934
11
-409.339043
21
937.852903
0
LINE
8
Layer 1
10
-409.339043
20
937.852903
11
-411.185090
21
944.087800
0
LINE
8
Layer 1
10
-411.185000
20
944.088000
11
-411.576360
21
944.775555
0
LINE
8
Layer 1
10
-411.576360
20
944.775555
11
-412.203700
21
945.257520
0
LINE
8
Layer 1
10
-412.203700
20
945.257520
11
-412.968855
21
945.458591
0
LINE
8
Layer 1
10
-412.968855
20
945.458591
11
-413.752100
21
945.347220
0
LINE
8
Layer 1
10
-477.389000
20
1010.310000
11
-483.160160
21
1012.043714
0
LINE
8
Layer 1
10
-483.160160
20
1012.043714
11
-488.986834
21
1013.434865
0
LINE
8
Layer 1
10
-488.986834
20
1013.434865
11
-494.854745
21
1014.485382
0
LINE
8
Layer 1
10
-494.854745
20
1014.485382
11
-500.749613
21
1015.197193
0
LINE
8
Layer 1
10
-500.749613
20
1015.197193
11
-506.657160
21
1015.572226
0
LINE
8
Layer 1
10
-506.657160
20
1015.572226
11
-512.563109
21
1015.612410
0
LINE
8
Layer 1
10
-512.563109
20
1015.612410
11
-518.453182
21
1015.319672
0
LINE
8
Layer 1
10
-518.453182
20
1015.319672
11
-524.313100
21
1014.695940
0
LINE
8
Layer 1
10
-524.313100
20
1014.695940
11
-530.128585
21
1013.743143
0
LINE
8
Layer 1
10
-530.128585
20
1013.743143
11
-535.885359
21
1012.463209
0
LINE
8
Layer 1
10
-535.885359
20
1012.463209
11
-541.569145
21
1010.858066
0
LINE
8
Layer 1
10
-541.569145
20
1010.858066
11
-547.165662
21
1008.929642
0
LINE
8
Layer 1
10
-547.165662
20
1008.929642
11
-552.660635
21
1006.679865
0
LINE
8
Layer 1
10
-552.660635
20
1006.679865
11
-558.039784
21
1004.110664
0
LINE
8
Layer 1
10
-558.039784
20
1004.110664
11
-563.288832
21
1001.223966
0
LINE
8
Layer 1
10
-563.288832
20
1001.223966
11
-568.393500
21
998.021700
0
LINE
8
Layer 1
10
-568.393500
20
998.021700
11
-573.305469
21
994.531070
0
LINE
8
Layer 1
10
-573.305469
20
994.531070
11
-577.981144
21
990.786283
0
LINE
8
Layer 1
10
-577.981144
20
990.786283
11
-582.413281
21
986.799794
0
LINE
8
Layer 1
10
-582.413281
20
986.799794
11
-586.594633
21
982.584055
0
LINE
8
Layer 1
10
-586.594633
20
982.584055
11
-590.517955
21
978.151521
0
LINE
8
Layer 1
10
-590.517955
20
978.151521
11
-594.176002
21
973.514646
0
LINE
8
Layer 1
10
-594.176002
20
973.514646
11
-597.561528
21
968.685883
0
LINE
8
Layer 1
10
-597.561528
20
968.685883
11
-600.667287
21
963.677687
0
LINE
8
Layer 1
10
-600.667287
20
963.677687
11
-603.486035
21
958.502513
0
LINE
8
Layer 1
10
-603.486035
20
958.502513
11
-606.010524
21
953.172812
0
LINE
8
Layer 1
10
-606.010524
20
953.172812
11
-608.233511
21
947.701041
0
LINE
8
Layer 1
10
-608.233511
20
947.701041
11
-610.147748
21
942.099652
0
LINE
8
Layer 1
10
-610.147748
20
942.099652
11
-611.745992
21
936.381099
0
LINE
8
Layer 1
10
-611.745992
20
936.381099
11
-613.020995
21
930.557837
0
LINE
8
Layer 1
10
-613.020995
20
930.557837
11
-613.965513
21
924.642319
0
LINE
8
Layer 1
10
-613.965513
20
924.642319
11
-614.572300
21
918.647000
0
LINE
8
Layer 1
10
-614.573000
20
918.645000
11
-614.473156
21
917.861300
0
LINE
8
Layer 1
10
-614.473156
20
917.861300
11
-614.077640
21
917.177440
0
LINE
8
Layer 1
10
-614.077640
20
917.177440
11
-613.448117
21
916.700057
0
LINE
8
Layer 1
10
-613.448117
20
916.700057
11
-612.682890
21
916.503700
0
LINE
8
Layer 1
10
-597.881000
20
915.727000
11
-612.682100
21
916.502240
0
LINE
8
Layer 1
10
-597.881000
20
915.728000
11
-597.096491
21
915.763416
0
LINE
8
Layer 1
10
-597.096491
20
915.763416
11
-596.354910
21
915.944539
0
LINE
8
Layer 1
10
-596.354910
20
915.944539
11
-595.063670
21
916.689616
0
LINE
8
Layer 1
10
-595.063670
20
916.689616
11
-594.133555
21
917.854651
0
LINE
8
Layer 1
10
-594.133555
20
917.854651
11
-593.843380
21
918.560720
0
LINE
8
Layer 1
10
-593.843380
20
918.560720
11
-593.690840
21
919.331060
0
LINE
8
Layer 1
10
-486.014000
20
991.278000
11
-490.535746
21
992.513561
0
LINE
8
Layer 1
10
-490.535746
20
992.513561
11
-495.093929
21
993.489595
0
LINE
8
Layer 1
10
-495.093929
20
993.489595
11
-499.678076
21
994.207655
0
LINE
8
Layer 1
10
-499.678076
20
994.207655
11
-504.277716
21
994.669293
0
LINE
8
Layer 1
10
-504.277716
20
994.669293
11
-508.882377
21
994.876061
0
LINE
8
Layer 1
10
-508.882377
20
994.876061
11
-513.481589
21
994.829512
0
LINE
8
Layer 1
10
-513.481589
20
994.829512
11
-518.064878
21
994.531198
0
LINE
8
Layer 1
10
-518.064878
20
994.531198
11
-522.621775
21
993.982671
0
LINE
8
Layer 1
10
-522.621775
20
993.982671
11
-527.141807
21
993.185485
0
LINE
8
Layer 1
10
-527.141807
20
993.185485
11
-531.614502
21
992.141191
0
LINE
8
Layer 1
10
-531.614502
20
992.141191
11
-536.029389
21
990.851341
0
LINE
8
Layer 1
10
-536.029389
20
990.851341
11
-540.375997
21
989.317489
0
LINE
8
Layer 1
10
-540.375997
20
989.317489
11
-544.643853
21
987.541187
0
LINE
8
Layer 1
10
-544.643853
20
987.541187
11
-548.822487
21
985.523986
0
LINE
8
Layer 1
10
-548.822487
20
985.523986
11
-552.901427
21
983.267440
0
LINE
8
Layer 1
10
-552.901427
20
983.267440
11
-556.870200
21
980.773100
0
LINE
8
Layer 1
10
-556.870200
20
980.773100
11
-560.693447
21
978.060982
0
LINE
8
Layer 1
10
-560.693447
20
978.060982
11
-564.339160
21
975.156082
0
LINE
8
Layer 1
10
-564.339160
20
975.156082
11
-567.801899
21
972.067481
0
LINE
8
Layer 1
10
-567.801899
20
972.067481
11
-571.076220
21
968.804259
0
LINE
8
Layer 1
10
-571.076220
20
968.804259
11
-574.156684
21
965.375497
0
LINE
8
Layer 1
10
-574.156684
20
965.375497
11
-577.037848
21
961.790275
0
LINE
8
Layer 1
10
-577.037848
20
961.790275
11
-579.714272
21
958.057674
0
LINE
8
Layer 1
10
-579.714272
20
958.057674
11
-582.180513
21
954.186775
0
LINE
8
Layer 1
10
-582.180513
20
954.186775
11
-584.431130
21
950.186658
0
LINE
8
Layer 1
10
-584.431130
20
950.186658
11
-586.460681
21
946.066403
0
LINE
8
Layer 1
10
-586.460681
20
946.066403
11
-588.263727
21
941.835091
0
LINE
8
Layer 1
10
-588.263727
20
941.835091
11
-589.834823
21
937.501803
0
LINE
8
Layer 1
10
-589.834823
20
937.501803
11
-591.168531
21
933.075619
0
LINE
8
Layer 1
10
-591.168531
20
933.075619
11
-592.259407
21
928.565621
0
LINE
8
Layer 1
10
-592.259407
20
928.565621
11
-593.102010
21
923.980887
0
LINE
8
Layer 1
10
-593.102010
20
923.980887
11
-593.690900
21
919.330500
0
LINE
8
Layer 1
10
-486.014000
20
991.278000
11
-485.243916
21
991.124141
0
LINE
8
Layer 1
10
-485.243916
20
991.124141
11
-484.480543
21
991.122031
0
LINE
8
Layer 1
10
-484.480543
20
991.122031
11
-483.048248
21
991.535509
0
LINE
8
Layer 1
10
-483.048248
20
991.535509
11
-481.865751
21
992.443324
0
LINE
8
Layer 1
10
-481.865751
20
992.443324
11
-481.414626
21
993.059138
0
LINE
8
Layer 1
10
-481.414626
20
993.059138
11
-481.081690
21
993.770370
0
LINE
8
Layer 1
10
-476.134000
20
1007.740000
11
-481.081430
21
993.770000
0
LINE
8
Layer 1
10
-476.134000
20
1007.740000
11
-476.022564
21
1008.522134
0
LINE
8
Layer 1
10
-476.022564
20
1008.522134
11
-476.222700
21
1009.286410
0
LINE
8
Layer 1
10
-476.222700
20
1009.286410
11
-476.703168
21
1009.913542
0
LINE
8
Layer 1
10
-476.703168
20
1009.913542
11
-477.389000
21
1010.305700
0
LINE
8
Layer 1
10
-546.522000
20
821.986000
11
-546.741674
21
822.516316
0
LINE
8
Layer 1
10
-546.741674
20
822.516316
11
-547.272020
21
822.735970
0
LINE
8
Layer 1
10
-547.272020
20
822.735970
11
-547.802349
21
822.516316
0
LINE
8
Layer 1
10
-547.802349
20
822.516316
11
-548.022020
21
821.986000
0
LINE
8
Layer 1
10
-548.022020
20
821.986000
11
-547.802349
21
821.455658
0
LINE
8
Layer 1
10
-547.802349
20
821.455658
11
-547.272020
21
821.236000
0
LINE
8
Layer 1
10
-547.272020
20
821.236000
11
-546.741674
21
821.455658
0
LINE
8
Layer 1
10
-546.741674
20
821.455658
11
-546.522000
21
821.986000
0
LINE
8
Layer 1
10
-546.522000
20
821.986000
11
-546.522000
21
821.986000
0
LINE
8
Layer 1
10
-441.357000
20
979.376000
11
-441.577184
21
979.905350
0
LINE
8
Layer 1
10
-441.577184
20
979.905350
11
-442.106990
21
980.124500
0
LINE
8
Layer 1
10
-442.106990
20
980.124500
11
-442.636803
21
979.905372
0
LINE
8
Layer 1
10
-442.636803
20
979.905372
11
-442.857000
21
979.376000
0
LINE
8
Layer 1
10
-442.857000
20
979.376000
11
-442.636815
21
978.846641
0
LINE
8
Layer 1
10
-442.636815
20
978.846641
11
-442.107000
21
978.627490
0
LINE
8
Layer 1
10
-442.107000
20
978.627490
11
-441.577193
21
978.846619
0
LINE
8
Layer 1
10
-441.577193
20
978.846619
11
-441.357000
21
979.376000
0
LINE
8
Layer 1
10
-441.357000
20
979.376000
11
-441.357000
21
979.376000
0
LINE
8
Layer 1
10
-577.829000
20
842.904000
11
-578.048667
21
843.434316
0
LINE
8
Layer 1
10
-578.048667
20
843.434316
11
-578.579000
21
843.653970
0
LINE
8
Layer 1
10
-578.579000
20
843.653970
11
-579.109326
21
843.434316
0
LINE
8
Layer 1
10
-579.109326
20
843.434316
11
-579.328980
21
842.904000
0
LINE
8
Layer 1
10
-579.328980
20
842.904000
11
-579.109326
21
842.373669
0
LINE
8
Layer 1
10
-579.109326
20
842.373669
11
-578.579000
21
842.154000
0
LINE
8
Layer 1
10
-578.579000
20
842.154000
11
-578.048667
21
842.373669
0
LINE
8
Layer 1
10
-578.048667
20
842.373669
11
-577.829000
21
842.904000
0
LINE
8
Layer 1
10
-577.829000
20
842.904000
11
-577.829000
21
842.904000
0
LINE
8
Layer 1
10
-420.438000
20
948.069000
11
-420.658184
21
948.598359
0
LINE
8
Layer 1
10
-420.658184
20
948.598359
11
-421.187990
21
948.817510
0
LINE
8
Layer 1
10
-421.187990
20
948.817510
11
-421.717803
21
948.598381
0
LINE
8
Layer 1
10
-421.717803
20
948.598381
11
-421.938000
21
948.069000
0
LINE
8
Layer 1
10
-421.938000
20
948.069000
11
-421.717816
21
947.539650
0
LINE
8
Layer 1
10
-421.717816
20
947.539650
11
-421.188010
21
947.320500
0
LINE
8
Layer 1
10
-421.188010
20
947.320500
11
-420.658197
21
947.539627
0
LINE
8
Layer 1
10
-420.658197
20
947.539627
11
-420.438000
21
948.069000
0
LINE
8
Layer 1
10
-420.438000
20
948.069000
11
-420.438000
21
948.069000
0
LINE
8
Layer 1
10
-598.747000
20
874.211000
11
-598.966660
21
874.741331
0
LINE
8
Layer 1
10
-598.966660
20
874.741331
11
-599.497000
21
874.961000
0
LINE
8
Layer 1
10
-599.497000
20
874.961000
11
-600.027321
21
874.741331
0
LINE
8
Layer 1
10
-600.027321
20
874.741331
11
-600.247000
21
874.211000
0
LINE
8
Layer 1
10
-600.247000
20
874.211000
11
-600.027321
21
873.680685
0
LINE
8
Layer 1
10
-600.027321
20
873.680685
11
-599.497000
21
873.461031
0
LINE
8
Layer 1
10
-599.497000
20
873.461031
11
-598.966660
21
873.680685
0
LINE
8
Layer 1
10
-598.966660
20
873.680685
11
-598.747000
21
874.211000
0
LINE
8
Layer 1
10
-598.747000
20
874.211000
11
-598.747000
21
874.211000
0
LINE
8
Layer 1
10
-472.664000
20
1000.290000
11
-472.883668
21
1000.820309
0
LINE
8
Layer 1
10
-472.883668
20
1000.820309
11
-473.414000
21
1001.039960
0
LINE
8
Layer 1
10
-473.414000
20
1001.039960
11
-473.944329
21
1000.820309
0
LINE
8
Layer 1
10
-473.944329
20
1000.820309
11
-474.164000
21
1000.290000
0
LINE
8
Layer 1
10
-474.164000
20
1000.290000
11
-473.944329
21
999.759656
0
LINE
8
Layer 1
10
-473.944329
20
999.759656
11
-473.414000
21
999.540000
0
LINE
8
Layer 1
10
-473.414000
20
999.540000
11
-472.883668
21
999.759656
0
LINE
8
Layer 1
10
-472.883668
20
999.759656
11
-472.664000
21
1000.290000
0
LINE
8
Layer 1
10
-472.664000
20
1000.290000
11
-472.664000
21
1000.290000
0
LINE
8
Layer 1
10
-435.346000
20
911.140000
11
-435.443589
21
914.999494
0
LINE
8
Layer 1
10
-435.443589
20
914.999494
11
-435.733216
21
918.808322
0
LINE
8
Layer 1
10
-435.733216
20
918.808322
11
-436.210168
21
922.561771
0
LINE
8
Layer 1
10
-436.210168
20
922.561771
11
-436.869732
21
926.255129
0
LINE
8
Layer 1
10
-436.869732
20
926.255129
11
-437.707196
21
929.883683
0
LINE
8
Layer 1
10
-437.707196
20
929.883683
11
-438.717848
21
933.442722
0
LINE
8
Layer 1
10
-438.717848
20
933.442722
11
-439.896975
21
936.927533
0
LINE
8
Layer 1
10
-439.896975
20
936.927533
11
-441.239866
21
940.333403
0
LINE
8
Layer 1
10
-441.239866
20
940.333403
11
-442.741807
21
943.655621
0
LINE
8
Layer 1
10
-442.741807
20
943.655621
11
-444.398086
21
946.889473
0
LINE
8
Layer 1
10
-444.398086
20
946.889473
11
-446.203992
21
950.030248
0
LINE
8
Layer 1
10
-446.203992
20
950.030248
11
-448.154811
21
953.073232
0
LINE
8
Layer 1
10
-448.154811
20
953.073232
11
-450.245831
21
956.013715
0
LINE
8
Layer 1
10
-450.245831
20
956.013715
11
-452.472340
21
958.846983
0
LINE
8
Layer 1
10
-452.472340
20
958.846983
11
-454.829625
21
961.568324
0
LINE
8
Layer 1
10
-454.829625
20
961.568324
11
-457.312975
21
964.173025
0
LINE
8
Layer 1
10
-457.312975
20
964.173025
11
-459.917676
21
966.656375
0
LINE
8
Layer 1
10
-459.917676
20
966.656375
11
-462.639017
21
969.013660
0
LINE
8
Layer 1
10
-462.639017
20
969.013660
11
-465.472285
21
971.240169
0
LINE
8
Layer 1
10
-465.472285
20
971.240169
11
-468.412768
21
973.331189
0
LINE
8
Layer 1
10
-468.412768
20
973.331189
11
-471.455752
21
975.282008
0
LINE
8
Layer 1
10
-471.455752
20
975.282008
11
-474.596527
21
977.087914
0
LINE
8
Layer 1
10
-474.596527
20
977.087914
11
-477.830379
21
978.744193
0
LINE
8
Layer 1
10
-477.830379
20
978.744193
11
-481.152597
21
980.246134
0
LINE
8
Layer 1
10
-481.152597
20
980.246134
11
-484.558467
21
981.589025
0
LINE
8
Layer 1
10
-484.558467
20
981.589025
11
-488.043278
21
982.768152
0
LINE
8
Layer 1
10
-488.043278
20
982.768152
11
-491.602317
21
983.778804
0
LINE
8
Layer 1
10
-491.602317
20
983.778804
11
-495.230871
21
984.616268
0
LINE
8
Layer 1
10
-495.230871
20
984.616268
11
-498.924229
21
985.275832
0
LINE
8
Layer 1
10
-498.924229
20
985.275832
11
-502.677678
21
985.752784
0
LINE
8
Layer 1
10
-502.677678
20
985.752784
11
-506.486506
21
986.042411
0
LINE
8
Layer 1
10
-506.486506
20
986.042411
11
-510.346000
21
986.140000
0
LINE
8
Layer 1
10
-510.346000
20
986.140000
11
-514.205494
21
986.042411
0
LINE
8
Layer 1
10
-514.205494
20
986.042411
11
-518.014322
21
985.752784
0
LINE
8
Layer 1
10
-518.014322
20
985.752784
11
-521.767771
21
985.275832
0
LINE
8
Layer 1
10
-521.767771
20
985.275832
11
-525.461129
21
984.616268
0
LINE
8
Layer 1
10
-525.461129
20
984.616268
11
-529.089683
21
983.778804
0
LINE
8
Layer 1
10
-529.089683
20
983.778804
11
-532.648722
21
982.768152
0
LINE
8
Layer 1
10
-532.648722
20
982.768152
11
-536.133533
21
981.589025
0
LINE
8
Layer 1
10
-536.133533
20
981.589025
11
-539.539403
21
980.246134
0
LINE
8
Layer 1
10
-539.539403
20
980.246134
11
-542.861621
21
978.744193
0
LINE
8
Layer 1
10
-542.861621
20
978.744193
11
-546.095473
21
977.087914
0
LINE
8
Layer 1
10
-546.095473
20
977.087914
11
-549.236248
21
975.282008
0
LINE
8
Layer 1
10
-549.236248
20
975.282008
11
-552.279232
21
973.331189
0
LINE
8
Layer 1
10
-552.279232
20
973.331189
11
-555.219715
21
971.240169
0
LINE
8
Layer 1
10
-555.219715
20
971.240169
11
-558.052983
21
969.013660
0
LINE
8
Layer 1
10
-558.052983
20
969.013660
11
-560.774324
21
966.656375
0
LINE
8
Layer 1
10
-560.774324
20
966.656375
11
-563.379025
21
964.173025
0
LINE
8
Layer 1
10
-563.379025
20
964.173025
11
-565.862375
21
961.568324
0
LINE
8
Layer 1
10
-565.862375
20
961.568324
11
-568.219660
21
958.846983
0
LINE
8
Layer 1
10
-568.219660
20
958.846983
11
-570.446169
21
956.013715
0
LINE
8
Layer 1
10
-570.446169
20
956.013715
11
-572.537189
21
953.073232
0
LINE
8
Layer 1
10
-572.537189
20
953.073232
11
-574.488008
21
950.030248
0
LINE
8
Layer 1
10
-574.488008
20
950.030248
11
-576.293914
21
946.889473
0
LINE
8
Layer 1
10
-576.293914
20
946.889473
11
-577.950193
21
943.655621
0
LINE
8
Layer 1
10
-577.950193
20
943.655621
11
-579.452134
21
940.333403
0
LINE
8
Layer 1
10
-579.452134
20
940.333403
11
-580.795025
21
936.927533
0
LINE
8
Layer 1
10
-580.795025
20
936.927533
11
-581.974152
21
933.442722
0
LINE
8
Layer 1
10
-581.974152
20
933.442722
11
-582.984804
21
929.883683
0
LINE
8
Layer 1
10
-582.984804
20
929.883683
11
-583.822268
21
926.255129
0
LINE
8
Layer 1
10
-583.822268
20
926.255129
11
-584.481832
21
922.561771
0
LINE
8
Layer 1
10
-584.481832
20
922.561771
11
-584.958784
21
918.808322
0
LINE
8
Layer 1
10
-584.958784
20
918.808322
11
-585.248411
21
914.999494
0
LINE
8
Layer 1
10
-585.248411
20
914.999494
11
-585.346000
21
911.140000
0
LINE
8
Layer 1
10
-585.346000
20
911.140000
11
-585.248408
21
907.280506
0
LINE
8
Layer 1
10
-585.248408
20
907.280506
11
-584.958778
21
903.471678
0
LINE
8
Layer 1
10
-584.958778
20
903.471678
11
-584.481823
21
899.718229
0
LINE
8
Layer 1
10
-584.481823
20
899.718229
11
-583.822256
21
896.024871
0
LINE
8
Layer 1
10
-583.822256
20
896.024871
11
-582.984788
21
892.396317
0
LINE
8
Layer 1
10
-582.984788
20
892.396317
11
-581.974132
21
888.837278
0
LINE
8
Layer 1
10
-581.974132
20
888.837278
11
-580.795002
21
885.352467
0
LINE
8
Layer 1
10
-580.795002
20
885.352467
11
-579.452108
21
881.946597
0
LINE
8
Layer 1
10
-579.452108
20
881.946597
11
-577.950163
21
878.624379
0
LINE
8
Layer 1
10
-577.950163
20
878.624379
11
-576.293880
21
875.390527
0
LINE
8
Layer 1
10
-576.293880
20
875.390527
11
-574.487972
21
872.249752
0
LINE
8
Layer 1
10
-574.487972
20
872.249752
11
-572.537150
21
869.206768
0
LINE
8
Layer 1
10
-572.537150
20
869.206768
11
-570.446127
21
866.266285
0
LINE
8
Layer 1
10
-570.446127
20
866.266285
11
-568.219615
21
863.433017
0
LINE
8
Layer 1
10
-568.219615
20
863.433017
11
-565.862328
21
860.711676
0
LINE
8
Layer 1
10
-565.862328
20
860.711676
11
-563.378976
21
858.106975
0
LINE
8
Layer 1
10
-563.378976
20
858.106975
11
-560.774273
21
855.623625
0
LINE
8
Layer 1
10
-560.774273
20
855.623625
11
-558.052932
21
853.266340
0
LINE
8
Layer 1
10
-558.052932
20
853.266340
11
-555.219663
21
851.039831
0
LINE
8
Layer 1
10
-555.219663
20
851.039831
11
-552.279181
21
848.948811
0
LINE
8
Layer 1
10
-552.279181
20
848.948811
11
-549.236196
21
846.997992
0
LINE
8
Layer 1
10
-549.236196
20
846.997992
11
-546.095423
21
845.192086
0
LINE
8
Layer 1
10
-546.095423
20
845.192086
11
-542.861572
21
843.535807
0
LINE
8
Layer 1
10
-542.861572
20
843.535807
11
-539.539357
21
842.033866
0
LINE
8
Layer 1
10
-539.539357
20
842.033866
11
-536.133489
21
840.690975
0
LINE
8
Layer 1
10
-536.133489
20
840.690975
11
-532.648682
21
839.511848
0
LINE
8
Layer 1
10
-532.648682
20
839.511848
11
-529.089648
21
838.501196
0
LINE
8
Layer 1
10
-529.089648
20
838.501196
11
-525.461099
21
837.663732
0
LINE
8
Layer 1
10
-525.461099
20
837.663732
11
-521.767747
21
837.004168
0
LINE
8
Layer 1
10
-521.767747
20
837.004168
11
-518.014305
21
836.527216
0
LINE
8
Layer 1
10
-518.014305
20
836.527216
11
-514.205485
21
836.237589
0
LINE
8
Layer 1
10
-514.205485
20
836.237589
11
-510.346000
21
836.140000
0
LINE
8
Layer 1
10
-510.346000
20
836.140000
11
-506.486515
21
836.237589
0
LINE
8
Layer 1
10
-506.486515
20
836.237589
11
-502.677695
21
836.527216
0
LINE
8
Layer 1
10
-502.677695
20
836.527216
11
-498.924253
21
837.004168
0
LINE
8
Layer 1
10
-498.924253
20
837.004168
11
-495.230900
21
837.663732
0
LINE
8
Layer 1
10
-495.230900
20
837.663732
11
-491.602350
21
838.501196
0
LINE
8
Layer 1
10
-491.602350
20
838.501196
11
-488.043315
21
839.511848
0
LINE
8
Layer 1
10
-488.043315
20
839.511848
11
-484.558507
21
840.690975
0
LINE
8
Layer 1
10
-484.558507
20
840.690975
11
-481.152639
21
842.033866
0
LINE
8
Layer 1
10
-481.152639
20
842.033866
11
-477.830423
21
843.535807
0
LINE
8
Layer 1
10
-477.830423
20
843.535807
11
-474.596571
21
845.192086
0
LINE
8
Layer 1
10
-474.596571
20
845.192086
11
-471.455797
21
846.997992
0
LINE
8
Layer 1
10
-471.455797
20
846.997992
11
-468.412812
21
848.948811
0
LINE
8
Layer 1
10
-468.412812
20
848.948811
11
-465.472328
21
851.039831
0
LINE
8
Layer 1
10
-465.472328
20
851.039831
11
-462.639059
21
853.266340
0
LINE
8
Layer 1
10
-462.639059
20
853.266340
11
-459.917716
21
855.623625
0
LINE
8
Layer 1
10
-459.917716
20
855.623625
11
-457.313013
21
858.106975
0
LINE
8
Layer 1
10
-457.313013
20
858.106975
11
-454.829660
21
860.711676
0
LINE
8
Layer 1
10
-454.829660
20
860.711676
11
-452.472372
21
863.433017
0
LINE
8
Layer 1
10
-452.472372
20
863.433017
11
-450.245860
21
866.266285
0
LINE
8
Layer 1
10
-450.245860
20
866.266285
11
-448.154837
21
869.206768
0
LINE
8
Layer 1
10
-448.154837
20
869.206768
11
-446.204015
21
872.249752
0
LINE
8
Layer 1
10
-446.204015
20
872.249752
11
-444.398106
21
875.390527
0
LINE
8
Layer 1
10
-444.398106
20
875.390527
11
-442.741824
21
878.624379
0
LINE
8
Layer 1
10
-442.741824
20
878.624379
11
-441.239880
21
881.946597
0
LINE
8
Layer 1
10
-441.239880
20
881.946597
11
-439.896986
21
885.352467
0
LINE
8
Layer 1
10
-439.896986
20
885.352467
11
-438.717856
21
888.837278
0
LINE
8
Layer 1
10
-438.717856
20
888.837278
11
-437.707202
21
892.396317
0
LINE
8
Layer 1
10
-437.707202
20
892.396317
11
-436.869736
21
896.024871
0
LINE
8
Layer 1
10
-436.869736
20
896.024871
11
-436.210170
21
899.718229
0
LINE
8
Layer 1
10
-436.210170
20
899.718229
11
-435.733217
21
903.471678
0
LINE
8
Layer 1
10
-435.733217
20
903.471678
11
-435.443590
21
907.280506
0
LINE
8
Layer 1
10
-435.443590
20
907.280506
11
-435.346000
21
911.140000
0
LINE
8
Layer 1
10
-435.346000
20
911.140000
11
-435.346000
21
911.140000
0
LINE
8
Layer 1
10
-517.852000
20
806.916000
11
-517.067029
21
807.014458
0
LINE
8
Layer 1
10
-517.067029
20
807.014458
11
-516.381650
21
807.409592
0
LINE
8
Layer 1
10
-516.381650
20
807.409592
11
-515.903096
21
808.039570
0
LINE
8
Layer 1
10
-515.903096
20
808.039570
11
-515.706250
21
808.805802
0
LINE
8
Layer 1
10
-515.706000
20
808.807000
11
-514.930780
21
823.597200
0
LINE
8
Layer 1
10
-514.931000
20
823.597000
11
-514.966487
21
824.382010
0
LINE
8
Layer 1
10
-514.966487
20
824.382010
11
-515.147862
21
825.124006
0
LINE
8
Layer 1
10
-515.147862
20
825.124006
11
-515.893856
21
826.415729
0
LINE
8
Layer 1
10
-515.893856
20
826.415729
11
-517.060137
21
827.345710
0
LINE
8
Layer 1
10
-517.060137
20
827.345710
11
-517.766871
21
827.635528
0
LINE
8
Layer 1
10
-517.766871
20
827.635528
11
-518.537860
21
827.787490
0
LINE
8
Layer 1
10
-534.669000
20
830.997000
11
-530.699552
21
829.894980
0
LINE
8
Layer 1
10
-530.699552
20
829.894980
11
-526.682780
21
828.991845
0
LINE
8
Layer 1
10
-526.682780
20
828.991845
11
-522.626168
21
828.289080
0
LINE
8
Layer 1
10
-522.626168
20
828.289080
11
-518.537200
21
827.788170
0
LINE
8
Layer 1
10
-534.669000
20
830.997000
11
-535.439452
21
831.151648
0
LINE
8
Layer 1
10
-535.439452
20
831.151648
11
-536.203297
21
831.154343
0
LINE
8
Layer 1
10
-536.203297
20
831.154343
11
-537.636687
21
830.741465
0
LINE
8
Layer 1
10
-537.636687
20
830.741465
11
-538.820219
21
829.833544
0
LINE
8
Layer 1
10
-538.820219
20
829.833544
11
-539.271740
21
829.217436
0
LINE
8
Layer 1
10
-539.271740
20
829.217436
11
-539.604940
21
828.505760
0
LINE
8
Layer 1
10
-544.550000
20
814.543000
11
-539.605000
21
828.505000
0
LINE
8
Layer 1
10
-544.550000
20
814.543000
11
-544.661371
21
813.759758
0
LINE
8
Layer 1
10
-544.661371
20
813.759758
11
-544.460300
21
812.994600
0
LINE
8
Layer 1
10
-544.460300
20
812.994600
11
-543.978295
21
812.367269
0
LINE
8
Layer 1
10
-543.978295
20
812.367269
11
-543.290760
21
811.975890
0
LINE
8
Layer 1
10
-543.291000
20
811.976000
11
-537.056122
21
810.129932
0
LINE
8
Layer 1
10
-537.056122
20
810.129932
11
-530.726153
21
808.668865
0
LINE
8
Layer 1
10
-530.726153
20
808.668865
11
-524.318907
21
807.596336
0
LINE
8
Layer 1
10
-524.318907
20
807.596336
11
-517.852200
21
806.915880
0
LINE
8
Layer 1
10
-557.165000
20
817.723000
11
-556.402090
21
817.513585
0
LINE
8
Layer 1
10
-556.402090
20
817.513585
11
-555.617670
21
817.616341
0
LINE
8
Layer 1
10
-555.617670
20
817.616341
11
-554.934465
21
818.015228
0
LINE
8
Layer 1
10
-554.934465
20
818.015228
11
-554.459370
21
818.647801
0
LINE
8
Layer 1
10
-554.460000
20
818.646000
11
-548.083270
21
832.015400
0
LINE
8
Layer 1
10
-548.083000
20
832.017000
11
-547.815385
21
832.755840
0
LINE
8
Layer 1
10
-547.815385
20
832.755840
11
-547.699010
21
833.510767
0
LINE
8
Layer 1
10
-547.699010
20
833.510767
11
-547.893899
21
834.989644
0
LINE
8
Layer 1
10
-547.893899
20
834.989644
11
-548.615503
21
836.295149
0
LINE
8
Layer 1
10
-548.615503
20
836.295149
11
-549.157523
21
836.833361
0
LINE
8
Layer 1
10
-549.157523
20
836.833361
11
-549.811660
21
837.268800
0
LINE
8
Layer 1
10
-563.487000
20
846.407000
11
-560.241439
21
843.869833
0
LINE
8
Layer 1
10
-560.241439
20
843.869833
11
-556.876045
21
841.498288
0
LINE
8
Layer 1
10
-556.876045
20
841.498288
11
-553.397153
21
839.296606
0
LINE
8
Layer 1
10
-553.397153
20
839.296606
11
-549.811100
21
837.269030
0
LINE
8
Layer 1
10
-563.487000
20
846.407000
11
-564.139624
21
846.844718
0
LINE
8
Layer 1
10
-564.139624
20
846.844718
11
-564.844292
21
847.139518
0
LINE
8
Layer 1
10
-564.844292
20
847.139518
11
-566.326572
21
847.306594
0
LINE
8
Layer 1
10
-566.326572
20
847.306594
11
-567.767456
21
846.920685
0
LINE
8
Layer 1
10
-567.767456
20
846.920685
11
-568.420380
21
846.524255
0
LINE
8
Layer 1
10
-568.420380
20
846.524255
11
-569.000560
21
845.994250
0
LINE
8
Layer 1
10
-578.912000
20
834.987000
11
-569.000970
21
845.993700
0
LINE
8
Layer 1
10
-578.912000
20
834.986000
11
-579.314615
21
834.304997
0
LINE
8
Layer 1
10
-579.314615
20
834.304997
11
-579.421670
21
833.521160
0
LINE
8
Layer 1
10
-579.421670
20
833.521160
11
-579.216416
21
832.757110
0
LINE
8
Layer 1
10
-579.216416
20
832.757110
11
-578.731000
21
832.132430
0
LINE
8
Layer 1
10
-578.731000
20
832.133000
11
-573.677179
21
828.041489
0
LINE
8
Layer 1
10
-573.677179
20
828.041489
11
-568.388168
21
824.269276
0
LINE
8
Layer 1
10
-568.388168
20
824.269276
11
-562.879072
21
820.826450
0
LINE
8
Layer 1
10
-562.879072
20
820.826450
11
-557.165000
21
817.723100
0
LINE
8
Layer 1
10
-589.350000
20
842.752000
11
-588.725306
21
842.266564
0
LINE
8
Layer 1
10
-588.725306
20
842.266564
11
-587.961270
21
842.061326
0
LINE
8
Layer 1
10
-587.961270
20
842.061326
11
-587.177440
21
842.168400
0
LINE
8
Layer 1
10
-587.177440
20
842.168400
11
-586.496420
21
842.571031
0
LINE
8
Layer 1
10
-586.497000
20
842.570000
11
-575.489300
21
852.481290
0
LINE
8
Layer 1
10
-575.489000
20
852.482000
11
-574.959003
21
853.062190
0
LINE
8
Layer 1
10
-574.959003
20
853.062190
11
-574.562580
21
853.715121
0
LINE
8
Layer 1
10
-574.562580
20
853.715121
11
-574.176683
21
855.156012
0
LINE
8
Layer 1
10
-574.176683
20
855.156012
11
-574.343764
21
856.638293
0
LINE
8
Layer 1
10
-574.343764
20
856.638293
11
-574.638564
21
857.342959
0
LINE
8
Layer 1
10
-574.638564
20
857.342959
11
-575.076280
21
857.995580
0
LINE
8
Layer 1
10
-584.215000
20
871.672000
11
-582.187424
21
868.085956
0
LINE
8
Layer 1
10
-582.187424
20
868.085956
11
-579.985743
21
864.607066
0
LINE
8
Layer 1
10
-579.985743
20
864.607066
11
-577.614198
21
861.241668
0
LINE
8
Layer 1
10
-577.614198
20
861.241668
11
-575.077030
21
857.996100
0
LINE
8
Layer 1
10
-584.215000
20
871.672000
11
-584.650439
21
872.326138
0
LINE
8
Layer 1
10
-584.650439
20
872.326138
11
-585.188651
21
872.868161
0
LINE
8
Layer 1
10
-585.188651
20
872.868161
11
-586.494156
21
873.589774
0
LINE
8
Layer 1
10
-586.494156
20
873.589774
11
-587.973033
21
873.784667
0
LINE
8
Layer 1
10
-587.973033
20
873.784667
11
-588.727960
21
873.668290
0
LINE
8
Layer 1
10
-588.727960
20
873.668290
11
-589.466800
21
873.400670
0
LINE
8
Layer 1
10
-602.835000
20
867.023000
11
-589.465900
21
873.399470
0
LINE
8
Layer 1
10
-602.835000
20
867.024000
11
-603.467576
21
866.548915
0
LINE
8
Layer 1
10
-603.467576
20
866.548915
11
-603.866460
21
865.865710
0
LINE
8
Layer 1
10
-603.866460
20
865.865710
11
-603.969227
21
865.081303
0
LINE
8
Layer 1
10
-603.969227
20
865.081303
11
-603.759800
21
864.318410
0
LINE
8
Layer 1
10
-603.760000
20
864.318000
11
-600.656648
21
858.603931
0
LINE
8
Layer 1
10
-600.656648
20
858.603931
11
-597.213827
21
853.094855
0
LINE
8
Layer 1
10
-597.213827
20
853.094855
11
-593.441618
21
847.805852
0
LINE
8
Layer 1
10
-593.441618
20
847.805852
11
-589.350100
21
842.752000
0
LINE
8
Layer 1
10
-609.507000
20
878.193000
11
-609.115629
21
877.505458
0
LINE
8
Layer 1
10
-609.115629
20
877.505458
11
-608.488300
21
877.023470
0
LINE
8
Layer 1
10
-608.488300
20
877.023470
11
-607.723149
21
876.822401
0
LINE
8
Layer 1
10
-607.723149
20
876.822401
11
-606.939900
21
876.933780
0
LINE
8
Layer 1
10
-606.940000
20
876.934000
11
-592.977700
21
881.876440
0
LINE
8
Layer 1
10
-592.978000
20
881.878000
11
-592.266315
21
882.211203
0
LINE
8
Layer 1
10
-592.266315
20
882.211203
11
-591.650201
21
882.662725
0
LINE
8
Layer 1
10
-591.650201
20
882.662725
11
-590.742271
21
883.846254
0
LINE
8
Layer 1
10
-590.742271
20
883.846254
11
-590.329389
21
885.279641
0
LINE
8
Layer 1
10
-590.329389
20
885.279641
11
-590.332083
21
886.043485
0
LINE
8
Layer 1
10
-590.332083
20
886.043485
11
-590.486730
21
886.813940
0
LINE
8
Layer 1
10
-593.695000
20
902.945000
11
-593.194085
21
898.856025
0
LINE
8
Layer 1
10
-593.194085
20
898.856025
11
-592.491310
21
894.799409
0
LINE
8
Layer 1
10
-592.491310
20
894.799409
11
-591.588165
21
890.782638
0
LINE
8
Layer 1
10
-591.588165
20
890.782638
11
-590.486140
21
886.813200
0
LINE
8
Layer 1
10
-593.695000
20
902.945000
11
-593.846962
21
903.715998
0
LINE
8
Layer 1
10
-593.846962
20
903.715998
11
-594.136782
21
904.422736
0
LINE
8
Layer 1
10
-594.136782
20
904.422736
11
-595.066765
21
905.589018
0
LINE
8
Layer 1
10
-595.066765
20
905.589018
11
-596.358488
21
906.335010
0
LINE
8
Layer 1
10
-596.358488
20
906.335010
11
-597.100483
21
906.516388
0
LINE
8
Layer 1
10
-597.100483
20
906.516388
11
-597.885490
21
906.551880
0
LINE
8
Layer 1
10
-612.678000
20
905.776000
11
-597.886200
21
906.551240
0
LINE
8
Layer 1
10
-612.678000
20
905.777000
11
-613.444228
21
905.580136
0
LINE
8
Layer 1
10
-613.444228
20
905.580136
11
-614.074180
21
905.101610
0
LINE
8
Layer 1
10
-614.074180
20
905.101610
11
-614.469340
21
904.416224
0
LINE
8
Layer 1
10
-614.469340
20
904.416224
11
-614.567800
21
903.631250
0
LINE
8
Layer 1
10
-614.567000
20
903.631000
11
-613.886550
21
897.164303
0
LINE
8
Layer 1
10
-613.886550
20
897.164303
11
-612.814026
21
890.757066
0
LINE
8
Layer 1
10
-612.814026
20
890.757066
11
-611.352966
21
884.427097
0
LINE
8
Layer 1
10
-611.352966
20
884.427097
11
-609.506910
21
878.192200
0
LINE
8
Layer 1
10
-406.105000
20
903.737000
11
-405.895077
21
907.807487
0
LINE
8
Layer 1
10
-405.895077
20
907.807487
11
-405.843213
21
911.858728
0
LINE
8
Layer 1
10
-405.843213
20
911.858728
11
-405.947224
21
915.887044
0
LINE
8
Layer 1
10
-405.947224
20
915.887044
11
-406.204927
21
919.888759
0
LINE
8
Layer 1
10
-406.204927
20
919.888759
11
-406.614137
21
923.860196
0
LINE
8
Layer 1
10
-406.614137
20
923.860196
11
-407.172671
21
927.797676
0
LINE
8
Layer 1
10
-407.172671
20
927.797676
11
-407.878345
21
931.697522
0
LINE
8
Layer 1
10
-407.878345
20
931.697522
11
-408.728976
21
935.556056
0
LINE
8
Layer 1
10
-408.728976
20
935.556056
11
-410.856373
21
943.134481
0
LINE
8
Layer 1
10
-410.856373
20
943.134481
11
-413.537392
21
950.503531
0
LINE
8
Layer 1
10
-413.537392
20
950.503531
11
-416.754563
21
957.633786
0
LINE
8
Layer 1
10
-416.754563
20
957.633786
11
-420.490417
21
964.495825
0
LINE
8
Layer 1
10
-420.490417
20
964.495825
11
-424.727485
21
971.060229
0
LINE
8
Layer 1
10
-424.727485
20
971.060229
11
-429.448297
21
977.297578
0
LINE
8
Layer 1
10
-429.448297
20
977.297578
11
-434.635384
21
983.178452
0
LINE
8
Layer 1
10
-434.635384
20
983.178452
11
-440.271275
21
988.673431
0
LINE
8
Layer 1
10
-440.271275
20
988.673431
11
-443.252064
21
991.267016
0
LINE
8
Layer 1
10
-443.252064
20
991.267016
11
-446.338502
21
993.753096
0
LINE
8
Layer 1
10
-446.338502
20
993.753096
11
-449.528407
21
996.127991
0
LINE
8
Layer 1
10
-449.528407
20
996.127991
11
-452.819595
21
998.388025
0
LINE
8
Layer 1
10
-452.819595
20
998.388025
11
-456.209882
21
1000.529520
0
LINE
8
Layer 1
10
-456.209882
20
1000.529520
11
-459.697084
21
1002.548800
0
LINE
8
Layer 1
10
-459.697084
20
1002.548800
11
-463.279018
21
1004.442185
0
LINE
8
Layer 1
10
-463.279018
20
1004.442185
11
-466.953500
21
1006.206000
0
LINE
8
Layer 1
10
-466.953500
20
1006.206000
11
-470.693544
21
1007.826183
0
LINE
8
Layer 1
10
-470.693544
20
1007.826183
11
-474.470833
21
1009.291556
0
LINE
8
Layer 1
10
-474.470833
20
1009.291556
11
-478.281159
21
1010.602880
0
LINE
8
Layer 1
10
-478.281159
20
1010.602880
11
-482.120312
21
1011.760914
0
LINE
8
Layer 1
10
-482.120312
20
1011.760914
11
-485.984083
21
1012.766417
0
LINE
8
Layer 1
10
-485.984083
20
1012.766417
11
-489.868264
21
1013.620151
0
LINE
8
Layer 1
10
-489.868264
20
1013.620151
11
-493.768645
21
1014.322874
0
LINE
8
Layer 1
10
-493.768645
20
1014.322874
11
-497.681019
21
1014.875346
0
LINE
8
Layer 1
10
-497.681019
20
1014.875346
11
-505.524906
21
1015.532578
0
LINE
8
Layer 1
10
-505.524906
20
1015.532578
11
-513.366254
21
1015.597925
0
LINE
8
Layer 1
10
-513.366254
20
1015.597925
11
-521.171392
21
1015.077464
0
LINE
8
Layer 1
10
-521.171392
20
1015.077464
11
-528.906650
21
1013.977274
0
LINE
8
Layer 1
10
-528.906650
20
1013.977274
11
-536.538356
21
1012.303433
0
LINE
8
Layer 1
10
-536.538356
20
1012.303433
11
-544.032840
21
1010.062020
0
LINE
8
Layer 1
10
-544.032840
20
1010.062020
11
-551.356430
21
1007.259113
0
LINE
8
Layer 1
10
-551.356430
20
1007.259113
11
-558.475456
21
1003.900789
0
LINE
8
Layer 1
10
-558.475456
20
1003.900789
11
-561.947736
21
1002.015246
0
LINE
8
Layer 1
10
-561.947736
20
1002.015246
11
-565.356247
21
999.993128
0
LINE
8
Layer 1
10
-565.356247
20
999.993128
11
-568.696782
21
997.835195
0
LINE
8
Layer 1
10
-568.696782
20
997.835195
11
-571.965132
21
995.542207
0
LINE
8
Layer 1
10
-571.965132
20
995.542207
11
-575.157088
21
993.114924
0
LINE
8
Layer 1
10
-575.157088
20
993.114924
11
-578.268440
21
990.554105
0
LINE
8
Layer 1
10
-578.268440
20
990.554105
11
-581.294980
21
987.860511
0
LINE
8
Layer 1
10
-581.294980
20
987.860511
11
-584.232500
21
985.034900
0
LINE
8
Layer 1
10
-584.232500
20
985.034900
11
-587.058336
21
982.097619
0
LINE
8
Layer 1
10
-587.058336
20
982.097619
11
-589.752163
21
979.071305
0
LINE
8
Layer 1
10
-589.752163
20
979.071305
11
-592.313220
21
975.960169
0
LINE
8
Layer 1
10
-592.313220
20
975.960169
11
-594.740747
21
972.768418
0
LINE
8
Layer 1
10
-594.740747
20
972.768418
11
-597.033985
21
969.500261
0
LINE
8
Layer 1
10
-597.033985
20
969.500261
11
-599.192173
21
966.159909
0
LINE
8
Layer 1
10
-599.192173
20
966.159909
11
-601.214551
21
962.751568
0
LINE
8
Layer 1
10
-601.214551
20
962.751568
11
-603.100359
21
959.279448
0
LINE
8
Layer 1
10
-603.100359
20
959.279448
11
-606.459226
21
952.160708
0
LINE
8
Layer 1
10
-606.459226
20
952.160708
11
-609.262692
21
944.837358
0
LINE
8
Layer 1
10
-609.262692
20
944.837358
11
-611.504677
21
937.343069
0
LINE
8
Layer 1
10
-611.504677
20
937.343069
11
-613.179100
21
929.711512
0
LINE
8
Layer 1
10
-613.179100
20
929.711512
11
-614.279881
21
921.976358
0
LINE
8
Layer 1
10
-614.279881
20
921.976358
11
-614.800939
21
914.171278
0
LINE
8
Layer 1
10
-614.800939
20
914.171278
11
-614.736194
21
906.329942
0
LINE
8
Layer 1
10
-614.736194
20
906.329942
11
-614.079566
21
898.486020
0
LINE
8
Layer 1
10
-614.079566
20
898.486020
11
-613.527395
21
894.573612
0
LINE
8
Layer 1
10
-613.527395
20
894.573612
11
-612.824972
21
890.673185
0
LINE
8
Layer 1
10
-612.824972
20
890.673185
11
-611.971539
21
886.788946
0
LINE
8
Layer 1
10
-611.971539
20
886.788946
11
-610.966334
21
882.925106
0
LINE
8
Layer 1
10
-610.966334
20
882.925106
11
-609.808598
21
879.085872
0
LINE
8
Layer 1
10
-609.808598
20
879.085872
11
-608.497570
21
875.275454
0
LINE
8
Layer 1
10
-608.497570
20
875.275454
11
-607.032491
21
871.498060
0
LINE
8
Layer 1
10
-607.032491
20
871.498060
11
-605.412600
21
867.757900
0
LINE
8
Layer 1
10
-605.412600
20
867.757900
11
-603.649036
21
864.083290
0
LINE
8
Layer 1
10
-603.649036
20
864.083290
11
-601.755895
21
860.501218
0
LINE
8
Layer 1
10
-601.755895
20
860.501218
11
-599.736855
21
857.013866
0
LINE
8
Layer 1
10
-599.736855
20
857.013866
11
-597.595593
21
853.623418
0
LINE
8
Layer 1
10
-597.595593
20
853.623418
11
-595.335785
21
850.332060
0
LINE
8
Layer 1
10
-595.335785
20
850.332060
11
-592.961110
21
847.141975
0
LINE
8
Layer 1
10
-592.961110
20
847.141975
11
-590.475245
21
844.055347
0
LINE
8
Layer 1
10
-590.475245
20
844.055347
11
-587.881866
21
841.074359
0
LINE
8
Layer 1
10
-587.881866
20
841.074359
11
-582.387277
21
835.438044
0
LINE
8
Layer 1
10
-582.387277
20
835.438044
11
-576.506762
21
830.250502
0
LINE
8
Layer 1
10
-576.506762
20
830.250502
11
-570.269739
21
825.529205
0
LINE
8
Layer 1
10
-570.269739
20
825.529205
11
-563.705625
21
821.291625
0
LINE
8
Layer 1
10
-563.705625
20
821.291625
11
-556.843839
21
817.555235
0
LINE
8
Layer 1
10
-556.843839
20
817.555235
11
-549.713797
21
814.337507
0
LINE
8
Layer 1
10
-549.713797
20
814.337507
11
-542.344919
21
811.655914
0
LINE
8
Layer 1
10
-542.344919
20
811.655914
11
-534.766622
21
809.527928
0
LINE
8
Layer 1
10
-534.766622
20
809.527928
11
-530.908134
21
808.676998
0
LINE
8
Layer 1
10
-530.908134
20
808.676998
11
-527.008323
21
807.971021
0
LINE
8
Layer 1
10
-527.008323
20
807.971021
11
-523.070867
21
807.412183
0
LINE
8
Layer 1
10
-523.070867
20
807.412183
11
-519.099442
21
807.002666
0
LINE
8
Layer 1
10
-519.099442
20
807.002666
11
-515.097725
21
806.744655
0
LINE
8
Layer 1
10
-515.097725
20
806.744655
11
-511.069395
21
806.640335
0
LINE
8
Layer 1
10
-511.069395
20
806.640335
11
-507.018127
21
806.691888
0
LINE
8
Layer 1
10
-507.018127
20
806.691888
11
-502.947600
21
806.901500
0
LINE
8
Layer 1
10
-406.105000
20
903.737000
11
-406.246126
21
904.496379
0
LINE
8
Layer 1
10
-406.246126
20
904.496379
11
-406.647296
21
905.126437
0
LINE
8
Layer 1
10
-406.647296
20
905.126437
11
-407.251126
21
905.566090
0
LINE
8
Layer 1
10
-407.251126
20
905.566090
11
-408.000230
21
905.754250
0
LINE
8
Layer 1
10
-422.805000
20
906.530000
11
-408.000200
21
905.754770
0
LINE
8
Layer 1
10
-422.805000
20
906.530000
11
-423.589565
21
906.494575
0
LINE
8
Layer 1
10
-423.589565
20
906.494575
11
-424.331191
21
906.313421
0
LINE
8
Layer 1
10
-424.331191
20
906.313421
11
-425.622484
21
905.568230
0
LINE
8
Layer 1
10
-425.622484
20
905.568230
11
-426.552582
21
904.403047
0
LINE
8
Layer 1
10
-426.552582
20
904.403047
11
-426.842716
21
903.696901
0
LINE
8
Layer 1
10
-426.842716
20
903.696901
11
-426.995190
21
902.926490
0
LINE
8
Layer 1
10
-502.137000
20
827.792000
11
-498.433594
21
828.238024
0
LINE
8
Layer 1
10
-498.433594
20
828.238024
11
-494.782357
21
828.842015
0
LINE
8
Layer 1
10
-494.782357
20
828.842015
11
-491.186817
21
829.600446
0
LINE
8
Layer 1
10
-491.186817
20
829.600446
11
-487.650499
21
830.509793
0
LINE
8
Layer 1
10
-487.650499
20
830.509793
11
-484.176931
21
831.566528
0
LINE
8
Layer 1
10
-484.176931
20
831.566528
11
-480.769637
21
832.767126
0
LINE
8
Layer 1
10
-480.769637
20
832.767126
11
-477.432146
21
834.108060
0
LINE
8
Layer 1
10
-477.432146
20
834.108060
11
-474.167983
21
835.585805
0
LINE
8
Layer 1
10
-474.167983
20
835.585805
11
-470.980674
21
837.196834
0
LINE
8
Layer 1
10
-470.980674
20
837.196834
11
-467.873747
21
838.937622
0
LINE
8
Layer 1
10
-467.873747
20
838.937622
11
-464.850727
21
840.804641
0
LINE
8
Layer 1
10
-464.850727
20
840.804641
11
-461.915140
21
842.794367
0
LINE
8
Layer 1
10
-461.915140
20
842.794367
11
-456.320375
21
847.127833
0
LINE
8
Layer 1
10
-456.320375
20
847.127833
11
-451.117662
21
851.909810
0
LINE
8
Layer 1
10
-451.117662
20
851.909810
11
-446.335213
21
857.112090
0
LINE
8
Layer 1
10
-446.335213
20
857.112090
11
-442.001239
21
862.706464
0
LINE
8
Layer 1
10
-442.001239
20
862.706464
11
-440.011246
21
865.641871
0
LINE
8
Layer 1
10
-440.011246
20
865.641871
11
-438.143951
21
868.664724
0
LINE
8
Layer 1
10
-438.143951
20
868.664724
11
-436.402881
21
871.771495
0
LINE
8
Layer 1
10
-436.402881
20
871.771495
11
-434.791561
21
874.958660
0
LINE
8
Layer 1
10
-434.791561
20
874.958660
11
-433.313518
21
878.222692
0
LINE
8
Layer 1
10
-433.313518
20
878.222692
11
-431.972279
21
881.560064
0
LINE
8
Layer 1
10
-431.972279
20
881.560064
11
-430.771370
21
884.967252
0
LINE
8
Layer 1
10
-430.771370
20
884.967252
11
-429.714318
21
888.440728
0
LINE
8
Layer 1
10
-429.714318
20
888.440728
11
-428.804648
21
891.976967
0
LINE
8
Layer 1
10
-428.804648
20
891.976967
11
-428.045888
21
895.572443
0
LINE
8
Layer 1
10
-428.045888
20
895.572443
11
-427.441563
21
899.223629
0
LINE
8
Layer 1
10
-427.441563
20
899.223629
11
-426.995200
21
902.927000
0
LINE
8
Layer 1
10
-502.137000
20
827.792000
11
-502.907482
21
827.639574
0
LINE
8
Layer 1
10
-502.907482
20
827.639574
11
-503.613695
21
827.349469
0
LINE
8
Layer 1
10
-503.613695
20
827.349469
11
-504.778995
21
826.419379
0
LINE
8
Layer 1
10
-504.778995
20
826.419379
11
-505.524265
21
825.128045
0
LINE
8
Layer 1
10
-505.524265
20
825.128045
11
-505.705441
21
824.386384
0
LINE
8
Layer 1
10
-505.705441
20
824.386384
11
-505.740870
21
823.601780
0
LINE
8
Layer 1
10
-505.741000
20
823.602000
11
-504.965240
21
808.798500
0
LINE
8
Layer 1
10
-504.965000
20
808.797000
11
-504.776841
21
808.047928
0
LINE
8
Layer 1
10
-504.776841
20
808.047928
11
-504.337225
21
807.444115
0
LINE
8
Layer 1
10
-504.337225
20
807.444115
11
-503.707222
21
807.042937
0
LINE
8
Layer 1
10
-503.707222
20
807.042937
11
-502.947900
21
806.901770
0
LINE
8
Layer 1
10
-598.747000
20
948.069000
11
-598.966660
21
948.599317
0
LINE
8
Layer 1
10
-598.966660
20
948.599317
11
-599.497000
21
948.818970
0
LINE
8
Layer 1
10
-599.497000
20
948.818970
11
-600.027321
21
948.599317
0
LINE
8
Layer 1
10
-600.027321
20
948.599317
11
-600.247000
21
948.069000
0
LINE
8
Layer 1
10
-600.247000
20
948.069000
11
-600.027321
21
947.538671
0
LINE
8
Layer 1
10
-600.027321
20
947.538671
11
-599.497000
21
947.319000
0
LINE
8
Layer 1
10
-599.497000
20
947.319000
11
-598.966660
21
947.538671
0
LINE
8
Layer 1
10
-598.966660
20
947.538671
11
-598.747000
21
948.069000
0
LINE
8
Layer 1
10
-598.747000
20
948.069000
11
-598.747000
21
948.069000
0
LINE
8
Layer 1
10
-577.829000
20
979.376000
11
-578.048667
21
979.906329
0
LINE
8
Layer 1
10
-578.048667
20
979.906329
11
-578.579000
21
980.126000
0
LINE
8
Layer 1
10
-578.579000
20
980.126000
11
-579.109326
21
979.906329
0
LINE
8
Layer 1
10
-579.109326
20
979.906329
11
-579.328980
21
979.376000
0
LINE
8
Layer 1
10
-579.328980
20
979.376000
11
-579.109326
21
978.845682
0
LINE
8
Layer 1
10
-579.109326
20
978.845682
11
-578.579000
21
978.626030
0
LINE
8
Layer 1
10
-578.579000
20
978.626030
11
-578.048667
21
978.845682
0
LINE
8
Layer 1
10
-578.048667
20
978.845682
11
-577.829000
21
979.376000
0
LINE
8
Layer 1
10
-577.829000
20
979.376000
11
-577.829000
21
979.376000
0
LINE
8
Layer 1
10
-546.522000
20
1000.290000
11
-546.741674
21
1000.820309
0
LINE
8
Layer 1
10
-546.741674
20
1000.820309
11
-547.272020
21
1001.039960
0
LINE
8
Layer 1
10
-547.272020
20
1001.039960
11
-547.802349
21
1000.820309
0
LINE
8
Layer 1
10
-547.802349
20
1000.820309
11
-548.022020
21
1000.290000
0
LINE
8
Layer 1
10
-548.022020
20
1000.290000
11
-547.802349
21
999.759656
0
LINE
8
Layer 1
10
-547.802349
20
999.759656
11
-547.272020
21
999.540000
0
LINE
8
Layer 1
10
-547.272020
20
999.540000
11
-546.741674
21
999.759656
0
LINE
8
Layer 1
10
-546.741674
20
999.759656
11
-546.522000
21
1000.290000
0
LINE
8
Layer 1
10
-546.522000
20
1000.290000
11
-546.522000
21
1000.290000
0
LINE
8
Layer 1
10
-441.357000
20
842.904000
11
-441.577184
21
843.433354
0
LINE
8
Layer 1
10
-441.577184
20
843.433354
11
-442.106990
21
843.652505
0
LINE
8
Layer 1
10
-442.106990
20
843.652505
11
-442.636803
21
843.433377
0
LINE
8
Layer 1
10
-442.636803
20
843.433377
11
-442.857000
21
842.904000
0
LINE
8
Layer 1
10
-442.857000
20
842.904000
11
-442.636815
21
842.374647
0
LINE
8
Layer 1
10
-442.636815
20
842.374647
11
-442.107000
21
842.155496
0
LINE
8
Layer 1
10
-442.107000
20
842.155496
11
-441.577193
21
842.374623
0
LINE
8
Layer 1
10
-441.577193
20
842.374623
11
-441.357000
21
842.904000
0
LINE
8
Layer 1
10
-441.357000
20
842.904000
11
-441.357000
21
842.904000
0
LINE
8
Layer 1
10
-420.438000
20
874.211000
11
-420.658184
21
874.740354
0
LINE
8
Layer 1
10
-420.658184
20
874.740354
11
-421.187990
21
874.959505
0
LINE
8
Layer 1
10
-421.187990
20
874.959505
11
-421.717803
21
874.740377
0
LINE
8
Layer 1
10
-421.717803
20
874.740377
11
-421.938000
21
874.211000
0
LINE
8
Layer 1
10
-421.938000
20
874.211000
11
-421.717816
21
873.681646
0
LINE
8
Layer 1
10
-421.717816
20
873.681646
11
-421.188010
21
873.462495
0
LINE
8
Layer 1
10
-421.188010
20
873.462495
11
-420.658197
21
873.681623
0
LINE
8
Layer 1
10
-420.658197
20
873.681623
11
-420.438000
21
874.211000
0
LINE
8
Layer 1
10
-420.438000
20
874.211000
11
-420.438000
21
874.211000
0
LINE
8
Layer 1
10
-472.664000
20
821.986000
11
-472.883668
21
822.516316
0
LINE
8
Layer 1
10
-472.883668
20
822.516316
11
-473.414000
21
822.735970
0
LINE
8
Layer 1
10
-473.414000
20
822.735970
11
-473.944329
21
822.516316
0
LINE
8
Layer 1
10
-473.944329
20
822.516316
11
-474.164000
21
821.986000
0
LINE
8
Layer 1
10
-474.164000
20
821.986000
11
-473.944329
21
821.455658
0
LINE
8
Layer 1
10
-473.944329
20
821.455658
11
-473.414000
21
821.236000
0
LINE
8
Layer 1
10
-473.414000
20
821.236000
11
-472.883668
21
821.455658
0
LINE
8
Layer 1
10
-472.883668
20
821.455658
11
-472.664000
21
821.986000
0
LINE
8
Layer 1
10
-472.664000
20
821.986000
11
-472.664000
21
821.986000
0
LINE
8
Layer 1
10
-502.948000
20
806.902000
11
-498.116046
21
807.356358
0
LINE
8
Layer 1
10
-498.116046
20
807.356358
11
-493.351166
21
808.026050
0
LINE
8
Layer 1
10
-493.351166
20
808.026050
11
-488.658302
21
808.906132
0
LINE
8
Layer 1
10
-488.658302
20
808.906132
11
-484.042395
21
809.991664
0
LINE
8
Layer 1
10
-484.042395
20
809.991664
11
-479.508387
21
811.277705
0
LINE
8
Layer 1
10
-479.508387
20
811.277705
11
-475.061221
21
812.759313
0
LINE
8
Layer 1
10
-475.061221
20
812.759313
11
-470.705837
21
814.431546
0
LINE
8
Layer 1
10
-470.705837
20
814.431546
11
-466.447178
21
816.289463
0
LINE
8
Layer 1
10
-466.447178
20
816.289463
11
-462.290185
21
818.328124
0
LINE
8
Layer 1
10
-462.290185
20
818.328124
11
-458.239801
21
820.542586
0
LINE
8
Layer 1
10
-458.239801
20
820.542586
11
-454.300966
21
822.927907
0
LINE
8
Layer 1
10
-454.300966
20
822.927907
11
-450.478622
21
825.479148
0
LINE
8
Layer 1
10
-450.478622
20
825.479148
11
-446.777712
21
828.191365
0
LINE
8
Layer 1
10
-446.777712
20
828.191365
11
-443.203177
21
831.059619
0
LINE
8
Layer 1
10
-443.203177
20
831.059619
11
-439.759959
21
834.078967
0
LINE
8
Layer 1
10
-439.759959
20
834.078967
11
-436.453000
21
837.244468
0
LINE
8
Layer 1
10
-436.453000
20
837.244468
11
-433.287241
21
840.551180
0
LINE
8
Layer 1
10
-433.287241
20
840.551180
11
-430.267624
21
843.994162
0
LINE
8
Layer 1
10
-430.267624
20
843.994162
11
-427.399091
21
847.568474
0
LINE
8
Layer 1
10
-427.399091
20
847.568474
11
-424.686584
21
851.269172
0
LINE
8
Layer 1
10
-424.686584
20
851.269172
11
-422.135044
21
855.091317
0
LINE
8
Layer 1
10
-422.135044
20
855.091317
11
-419.749414
21
859.029966
0
LINE
8
Layer 1
10
-419.749414
20
859.029966
11
-417.534634
21
863.080179
0
LINE
8
Layer 1
10
-417.534634
20
863.080179
11
-415.495647
21
867.237013
0
LINE
8
Layer 1
10
-415.495647
20
867.237013
11
-413.637394
21
871.495527
0
LINE
8
Layer 1
10
-413.637394
20
871.495527
11
-411.964818
21
875.850781
0
LINE
8
Layer 1
10
-411.964818
20
875.850781
11
-410.482860
21
880.297832
0
LINE
8
Layer 1
10
-410.482860
20
880.297832
11
-409.196461
21
884.831739
0
LINE
8
Layer 1
10
-409.196461
20
884.831739
11
-408.110564
21
889.447560
0
LINE
8
Layer 1
10
-408.110564
20
889.447560
11
-407.230111
21
894.140355
0
LINE
8
Layer 1
10
-407.230111
20
894.140355
11
-406.560042
21
898.905182
0
LINE
8
Layer 1
10
-406.560042
20
898.905182
11
-406.105300
21
903.737100
0
LINE
8
Layer 1
10
-547.272000
20
821.985000
11
-547.272000
21
821.985000
0
LINE
8
Layer 1
10
-547.272000
20
821.985000
11
-547.272000
21
821.985000
0
LINE
8
Layer 1
10
-442.107000
20
979.375000
11
-442.107000
21
979.375000
0
LINE
8
Layer 1
10
-442.107000
20
979.375000
11
-442.107000
21
979.375000
0
LINE
8
Layer 1
10
-578.579000
20
842.903000
11
-578.579000
21
842.903000
0
LINE
8
Layer 1
10
-578.579000
20
842.903000
11
-578.579000
21
842.903000
0
LINE
8
Layer 1
10
-421.188000
20
948.070000
11
-421.188000
21
948.070000
0
LINE
8
Layer 1
10
-421.188000
20
948.070000
11
-421.188000
21
948.070000
0
LINE
8
Layer 1
10
-599.497000
20
874.212000
11
-599.497000
21
874.212000
0
LINE
8
Layer 1
10
-599.497000
20
874.212000
11
-599.497000
21
874.212000
0
LINE
8
Layer 1
10
-473.414000
20
1000.290000
11
-473.414000
21
1000.290000
0
LINE
8
Layer 1
10
-473.414000
20
1000.290000
11
-473.414000
21
1000.290000
0
LINE
8
Layer 1
10
-510.347000
20
911.139000
11
-510.347000
21
911.139000
0
LINE
8
Layer 1
10
-510.347000
20
911.139000
11
-510.347000
21
911.139000
0
LINE
8
Layer 1
10
-599.497000
20
948.070000
11
-599.497000
21
948.070000
0
LINE
8
Layer 1
10
-599.497000
20
948.070000
11
-599.497000
21
948.070000
0
LINE
8
Layer 1
10
-578.579000
20
979.375000
11
-578.579000
21
979.375000
0
LINE
8
Layer 1
10
-578.579000
20
979.375000
11
-578.579000
21
979.375000
0
LINE
8
Layer 1
10
-547.272000
20
1000.290000
11
-547.272000
21
1000.290000
0
LINE
8
Layer 1
10
-547.272000
20
1000.290000
11
-547.272000
21
1000.290000
0
LINE
8
Layer 1
10
-442.107000
20
842.903000
11
-442.107000
21
842.903000
0
LINE
8
Layer 1
10
-442.107000
20
842.903000
11
-442.107000
21
842.903000
0
LINE
8
Layer 1
10
-421.188000
20
874.212000
11
-421.188000
21
874.212000
0
LINE
8
Layer 1
10
-421.188000
20
874.212000
11
-421.188000
21
874.212000
0
LINE
8
Layer 1
10
-473.414000
20
821.985000
11
-473.414000
21
821.985000
0
LINE
8
Layer 1
10
-473.414000
20
821.985000
11
-473.414000
21
821.985000
0
LINE
8
Layer 1
10
-502.948000
20
806.902000
11
-498.116046
21
807.356358
0
LINE
8
Layer 1
10
-498.116046
20
807.356358
11
-493.351166
21
808.026050
0
LINE
8
Layer 1
10
-493.351166
20
808.026050
11
-488.658302
21
808.906132
0
LINE
8
Layer 1
10
-488.658302
20
808.906132
11
-484.042395
21
809.991664
0
LINE
8
Layer 1
10
-484.042395
20
809.991664
11
-479.508387
21
811.277705
0
LINE
8
Layer 1
10
-479.508387
20
811.277705
11
-475.061221
21
812.759313
0
LINE
8
Layer 1
10
-475.061221
20
812.759313
11
-470.705837
21
814.431546
0
LINE
8
Layer 1
10
-470.705837
20
814.431546
11
-466.447178
21
816.289463
0
LINE
8
Layer 1
10
-466.447178
20
816.289463
11
-462.290185
21
818.328124
0
LINE
8
Layer 1
10
-462.290185
20
818.328124
11
-458.239801
21
820.542586
0
LINE
8
Layer 1
10
-458.239801
20
820.542586
11
-454.300966
21
822.927907
0
LINE
8
Layer 1
10
-454.300966
20
822.927907
11
-450.478622
21
825.479148
0
LINE
8
Layer 1
10
-450.478622
20
825.479148
11
-446.777712
21
828.191365
0
LINE
8
Layer 1
10
-446.777712
20
828.191365
11
-443.203177
21
831.059619
0
LINE
8
Layer 1
10
-443.203177
20
831.059619
11
-439.759959
21
834.078967
0
LINE
8
Layer 1
10
-439.759959
20
834.078967
11
-436.453000
21
837.244468
0
LINE
8
Layer 1
10
-436.453000
20
837.244468
11
-433.287241
21
840.551180
0
LINE
8
Layer 1
10
-433.287241
20
840.551180
11
-430.267624
21
843.994162
0
LINE
8
Layer 1
10
-430.267624
20
843.994162
11
-427.399091
21
847.568474
0
LINE
8
Layer 1
10
-427.399091
20
847.568474
11
-424.686584
21
851.269172
0
LINE
8
Layer 1
10
-424.686584
20
851.269172
11
-422.135044
21
855.091317
0
LINE
8
Layer 1
10
-422.135044
20
855.091317
11
-419.749414
21
859.029966
0
LINE
8
Layer 1
10
-419.749414
20
859.029966
11
-417.534634
21
863.080179
0
LINE
8
Layer 1
10
-417.534634
20
863.080179
11
-415.495647
21
867.237013
0
LINE
8
Layer 1
10
-415.495647
20
867.237013
11
-413.637394
21
871.495527
0
LINE
8
Layer 1
10
-413.637394
20
871.495527
11
-411.964818
21
875.850781
0
LINE
8
Layer 1
10
-411.964818
20
875.850781
11
-410.482860
21
880.297832
0
LINE
8
Layer 1
10
-410.482860
20
880.297832
11
-409.196461
21
884.831739
0
LINE
8
Layer 1
10
-409.196461
20
884.831739
11
-408.110564
21
889.447560
0
LINE
8
Layer 1
10
-408.110564
20
889.447560
11
-407.230111
21
894.140355
0
LINE
8
Layer 1
10
-407.230111
20
894.140355
11
-406.560042
21
898.905182
0
LINE
8
Layer 1
10
-406.560042
20
898.905182
11
-406.105300
21
903.737100
0
LINE
8
Layer 1
10
-384.215000
20
1071.600000
11
-378.265580
21
1072.785340
0
LINE
8
Layer 1
10
-378.266000
20
1072.790000
11
-377.606120
21
1072.382530
0
LINE
8
Layer 1
10
-382.459000
20
1070.630000
11
-384.215050
21
1071.603690
0
LINE
8
Layer 1
10
-377.606000
20
1072.380000
11
-380.457690
21
1069.527790
0
LINE
8
Layer 1
10
-380.458000
20
1069.530000
11
-382.459570
21
1070.630650
0
LINE
8
Layer 1
10
-413.032000
20
1158.780000
11
-415.305560
21
1156.507240
0
LINE
8
Layer 1
10
-364.797000
20
1086.350000
11
-368.386320
21
1082.762230
0
LINE
8
Layer 1
10
-364.656000
20
1121.950000
11
-364.169700
21
1120.322830
0
LINE
8
Layer 1
10
-399.253000
20
1112.220000
11
-401.651460
21
1114.619780
0
LINE
8
Layer 1
10
-404.443000
20
1164.600000
11
-431.883700
21
1159.141630
0
LINE
8
Layer 1
10
-382.233000
20
1128.680000
11
-383.628670
21
1130.077040
0
LINE
8
Layer 1
10
-411.791000
20
1171.950000
11
-409.392550
21
1169.550280
0
LINE
8
Layer 1
10
-398.261000
20
1109.360000
11
-363.765400
21
1116.220660
0
LINE
8
Layer 1
10
-384.644000
20
1144.800000
11
-394.054710
21
1142.929390
0
LINE
8
Layer 1
10
-452.688000
20
1138.340000
11
-450.518140
21
1140.509620
0
LINE
8
Layer 1
10
-388.828000
20
1129.040000
11
-392.417600
21
1125.449610
0
LINE
8
Layer 1
10
-328.191000
20
1128.440000
11
-328.288589
21
1132.299494
0
LINE
8
Layer 1
10
-328.288589
20
1132.299494
11
-328.578216
21
1136.108322
0
LINE
8
Layer 1
10
-328.578216
20
1136.108322
11
-329.055168
21
1139.861771
0
LINE
8
Layer 1
10
-329.055168
20
1139.861771
11
-329.714732
21
1143.555129
0
LINE
8
Layer 1
10
-329.714732
20
1143.555129
11
-330.552196
21
1147.183683
0
LINE
8
Layer 1
10
-330.552196
20
1147.183683
11
-331.562848
21
1150.742722
0
LINE
8
Layer 1
10
-331.562848
20
1150.742722
11
-332.741975
21
1154.227533
0
LINE
8
Layer 1
10
-332.741975
20
1154.227533
11
-334.084866
21
1157.633403
0
LINE
8
Layer 1
10
-334.084866
20
1157.633403
11
-335.586807
21
1160.955621
0
LINE
8
Layer 1
10
-335.586807
20
1160.955621
11
-337.243086
21
1164.189473
0
LINE
8
Layer 1
10
-337.243086
20
1164.189473
11
-339.048992
21
1167.330248
0
LINE
8
Layer 1
10
-339.048992
20
1167.330248
11
-340.999811
21
1170.373232
0
LINE
8
Layer 1
10
-340.999811
20
1170.373232
11
-343.090831
21
1173.313715
0
LINE
8
Layer 1
10
-343.090831
20
1173.313715
11
-345.317340
21
1176.146983
0
LINE
8
Layer 1
10
-345.317340
20
1176.146983
11
-347.674625
21
1178.868324
0
LINE
8
Layer 1
10
-347.674625
20
1178.868324
11
-350.157975
21
1181.473025
0
LINE
8
Layer 1
10
-350.157975
20
1181.473025
11
-352.762676
21
1183.956375
0
LINE
8
Layer 1
10
-352.762676
20
1183.956375
11
-355.484017
21
1186.313660
0
LINE
8
Layer 1
10
-355.484017
20
1186.313660
11
-358.317285
21
1188.540169
0
LINE
8
Layer 1
10
-358.317285
20
1188.540169
11
-361.257768
21
1190.631189
0
LINE
8
Layer 1
10
-361.257768
20
1190.631189
11
-364.300752
21
1192.582008
0
LINE
8
Layer 1
10
-364.300752
20
1192.582008
11
-367.441527
21
1194.387914
0
LINE
8
Layer 1
10
-367.441527
20
1194.387914
11
-370.675379
21
1196.044193
0
LINE
8
Layer 1
10
-370.675379
20
1196.044193
11
-373.997597
21
1197.546134
0
LINE
8
Layer 1
10
-373.997597
20
1197.546134
11
-377.403467
21
1198.889025
0
LINE
8
Layer 1
10
-377.403467
20
1198.889025
11
-380.888278
21
1200.068152
0
LINE
8
Layer 1
10
-380.888278
20
1200.068152
11
-384.447317
21
1201.078804
0
LINE
8
Layer 1
10
-384.447317
20
1201.078804
11
-388.075871
21
1201.916268
0
LINE
8
Layer 1
10
-388.075871
20
1201.916268
11
-391.769229
21
1202.575832
0
LINE
8
Layer 1
10
-391.769229
20
1202.575832
11
-395.522678
21
1203.052784
0
LINE
8
Layer 1
10
-395.522678
20
1203.052784
11
-399.331506
21
1203.342411
0
LINE
8
Layer 1
10
-399.331506
20
1203.342411
11
-403.191000
21
1203.440000
0
LINE
8
Layer 1
10
-403.191000
20
1203.440000
11
-407.050494
21
1203.342411
0
LINE
8
Layer 1
10
-407.050494
20
1203.342411
11
-410.859322
21
1203.052784
0
LINE
8
Layer 1
10
-410.859322
20
1203.052784
11
-414.612771
21
1202.575832
0
LINE
8
Layer 1
10
-414.612771
20
1202.575832
11
-418.306129
21
1201.916268
0
LINE
8
Layer 1
10
-418.306129
20
1201.916268
11
-421.934683
21
1201.078804
0
LINE
8
Layer 1
10
-421.934683
20
1201.078804
11
-425.493722
21
1200.068152
0
LINE
8
Layer 1
10
-425.493722
20
1200.068152
11
-428.978533
21
1198.889025
0
LINE
8
Layer 1
10
-428.978533
20
1198.889025
11
-432.384403
21
1197.546134
0
LINE
8
Layer 1
10
-432.384403
20
1197.546134
11
-435.706621
21
1196.044193
0
LINE
8
Layer 1
10
-435.706621
20
1196.044193
11
-438.940473
21
1194.387914
0
LINE
8
Layer 1
10
-438.940473
20
1194.387914
11
-442.081248
21
1192.582008
0
LINE
8
Layer 1
10
-442.081248
20
1192.582008
11
-445.124232
21
1190.631189
0
LINE
8
Layer 1
10
-445.124232
20
1190.631189
11
-448.064715
21
1188.540169
0
LINE
8
Layer 1
10
-448.064715
20
1188.540169
11
-450.897983
21
1186.313660
0
LINE
8
Layer 1
10
-450.897983
20
1186.313660
11
-453.619324
21
1183.956375
0
LINE
8
Layer 1
10
-453.619324
20
1183.956375
11
-456.224025
21
1181.473025
0
LINE
8
Layer 1
10
-456.224025
20
1181.473025
11
-458.707375
21
1178.868324
0
LINE
8
Layer 1
10
-458.707375
20
1178.868324
11
-461.064660
21
1176.146983
0
LINE
8
Layer 1
10
-461.064660
20
1176.146983
11
-463.291169
21
1173.313715
0
LINE
8
Layer 1
10
-463.291169
20
1173.313715
11
-465.382189
21
1170.373232
0
LINE
8
Layer 1
10
-465.382189
20
1170.373232
11
-467.333008
21
1167.330248
0
LINE
8
Layer 1
10
-467.333008
20
1167.330248
11
-469.138914
21
1164.189473
0
LINE
8
Layer 1
10
-469.138914
20
1164.189473
11
-470.795193
21
1160.955621
0
LINE
8
Layer 1
10
-470.795193
20
1160.955621
11
-472.297134
21
1157.633403
0
LINE
8
Layer 1
10
-472.297134
20
1157.633403
11
-473.640025
21
1154.227533
0
LINE
8
Layer 1
10
-473.640025
20
1154.227533
11
-474.819152
21
1150.742722
0
LINE
8
Layer 1
10
-474.819152
20
1150.742722
11
-475.829804
21
1147.183683
0
LINE
8
Layer 1
10
-475.829804
20
1147.183683
11
-476.667268
21
1143.555129
0
LINE
8
Layer 1
10
-476.667268
20
1143.555129
11
-477.326832
21
1139.861771
0
LINE
8
Layer 1
10
-477.326832
20
1139.861771
11
-477.803784
21
1136.108322
0
LINE
8
Layer 1
10
-477.803784
20
1136.108322
11
-478.093411
21
1132.299494
0
LINE
8
Layer 1
10
-478.093411
20
1132.299494
11
-478.191000
21
1128.440000
0
LINE
8
Layer 1
10
-478.191000
20
1128.440000
11
-478.093411
21
1124.580506
0
LINE
8
Layer 1
10
-478.093411
20
1124.580506
11
-477.803784
21
1120.771678
0
LINE
8
Layer 1
10
-477.803784
20
1120.771678
11
-477.326832
21
1117.018229
0
LINE
8
Layer 1
10
-477.326832
20
1117.018229
11
-476.667268
21
1113.324871
0
LINE
8
Layer 1
10
-476.667268
20
1113.324871
11
-475.829804
21
1109.696317
0
LINE
8
Layer 1
10
-475.829804
20
1109.696317
11
-474.819152
21
1106.137278
0
LINE
8
Layer 1
10
-474.819152
20
1106.137278
11
-473.640025
21
1102.652467
0
LINE
8
Layer 1
10
-473.640025
20
1102.652467
11
-472.297134
21
1099.246597
0
LINE
8
Layer 1
10
-472.297134
20
1099.246597
11
-470.795193
21
1095.924379
0
LINE
8
Layer 1
10
-470.795193
20
1095.924379
11
-469.138914
21
1092.690527
0
LINE
8
Layer 1
10
-469.138914
20
1092.690527
11
-467.333008
21
1089.549752
0
LINE
8
Layer 1
10
-467.333008
20
1089.549752
11
-465.382189
21
1086.506768
0
LINE
8
Layer 1
10
-465.382189
20
1086.506768
11
-463.291169
21
1083.566285
0
LINE
8
Layer 1
10
-463.291169
20
1083.566285
11
-461.064660
21
1080.733017
0
LINE
8
Layer 1
10
-461.064660
20
1080.733017
11
-458.707375
21
1078.011676
0
LINE
8
Layer 1
10
-458.707375
20
1078.011676
11
-456.224025
21
1075.406975
0
LINE
8
Layer 1
10
-456.224025
20
1075.406975
11
-453.619324
21
1072.923625
0
LINE
8
Layer 1
10
-453.619324
20
1072.923625
11
-450.897983
21
1070.566340
0
LINE
8
Layer 1
10
-450.897983
20
1070.566340
11
-448.064715
21
1068.339831
0
LINE
8
Layer 1
10
-448.064715
20
1068.339831
11
-445.124232
21
1066.248811
0
LINE
8
Layer 1
10
-445.124232
20
1066.248811
11
-442.081248
21
1064.297992
0
LINE
8
Layer 1
10
-442.081248
20
1064.297992
11
-438.940473
21
1062.492086
0
LINE
8
Layer 1
10
-438.940473
20
1062.492086
11
-435.706621
21
1060.835807
0
LINE
8
Layer 1
10
-435.706621
20
1060.835807
11
-432.384403
21
1059.333866
0
LINE
8
Layer 1
10
-432.384403
20
1059.333866
11
-428.978533
21
1057.990975
0
LINE
8
Layer 1
10
-428.978533
20
1057.990975
11
-425.493722
21
1056.811848
0
LINE
8
Layer 1
10
-425.493722
20
1056.811848
11
-421.934683
21
1055.801196
0
LINE
8
Layer 1
10
-421.934683
20
1055.801196
11
-418.306129
21
1054.963732
0
LINE
8
Layer 1
10
-418.306129
20
1054.963732
11
-414.612771
21
1054.304168
0
LINE
8
Layer 1
10
-414.612771
20
1054.304168
11
-410.859322
21
1053.827216
0
LINE
8
Layer 1
10
-410.859322
20
1053.827216
11
-407.050494
21
1053.537589
0
LINE
8
Layer 1
10
-407.050494
20
1053.537589
11
-403.191000
21
1053.440000
0
LINE
8
Layer 1
10
-403.191000
20
1053.440000
11
-399.331506
21
1053.537589
0
LINE
8
Layer 1
10
-399.331506
20
1053.537589
11
-395.522678
21
1053.827216
0
LINE
8
Layer 1
10
-395.522678
20
1053.827216
11
-391.769229
21
1054.304168
0
LINE
8
Layer 1
10
-391.769229
20
1054.304168
11
-388.075871
21
1054.963732
0
LINE
8
Layer 1
10
-388.075871
20
1054.963732
11
-384.447317
21
1055.801196
0
LINE
8
Layer 1
10
-384.447317
20
1055.801196
11
-380.888278
21
1056.811848
0
LINE
8
Layer 1
10
-380.888278
20
1056.811848
11
-377.403467
21
1057.990975
0
LINE
8
Layer 1
10
-377.403467
20
1057.990975
11
-373.997597
21
1059.333866
0
LINE
8
Layer 1
10
-373.997597
20
1059.333866
11
-370.675379
21
1060.835807
0
LINE
8
Layer 1
10
-370.675379
20
1060.835807
11
-367.441527
21
1062.492086
0
LINE
8
Layer 1
10
-367.441527
20
1062.492086
11
-364.300752
21
1064.297992
0
LINE
8
Layer 1
10
-364.300752
20
1064.297992
11
-361.257768
21
1066.248811
0
LINE
8
Layer 1
10
-361.257768
20
1066.248811
11
-358.317285
21
1068.339831
0
LINE
8
Layer 1
10
-358.317285
20
1068.339831
11
-355.484017
21
1070.566340
0
LINE
8
Layer 1
10
-355.484017
20
1070.566340
11
-352.762676
21
1072.923625
0
LINE
8
Layer 1
10
-352.762676
20
1072.923625
11
-350.157975
21
1075.406975
0
LINE
8
Layer 1
10
-350.157975
20
1075.406975
11
-347.674625
21
1078.011676
0
LINE
8
Layer 1
10
-347.674625
20
1078.011676
11
-345.317340
21
1080.733017
0
LINE
8
Layer 1
10
-345.317340
20
1080.733017
11
-343.090831
21
1083.566285
0
LINE
8
Layer 1
10
-343.090831
20
1083.566285
11
-340.999811
21
1086.506768
0
LINE
8
Layer 1
10
-340.999811
20
1086.506768
11
-339.048992
21
1089.549752
0
LINE
8
Layer 1
10
-339.048992
20
1089.549752
11
-337.243086
21
1092.690527
0
LINE
8
Layer 1
10
-337.243086
20
1092.690527
11
-335.586807
21
1095.924379
0
LINE
8
Layer 1
10
-335.586807
20
1095.924379
11
-334.084866
21
1099.246597
0
LINE
8
Layer 1
10
-334.084866
20
1099.246597
11
-332.741975
21
1102.652467
0
LINE
8
Layer 1
10
-332.741975
20
1102.652467
11
-331.562848
21
1106.137278
0
LINE
8
Layer 1
10
-331.562848
20
1106.137278
11
-330.552196
21
1109.696317
0
LINE
8
Layer 1
10
-330.552196
20
1109.696317
11
-329.714732
21
1113.324871
0
LINE
8
Layer 1
10
-329.714732
20
1113.324871
11
-329.055168
21
1117.018229
0
LINE
8
Layer 1
10
-329.055168
20
1117.018229
11
-328.578216
21
1120.771678
0
LINE
8
Layer 1
10
-328.578216
20
1120.771678
11
-328.288589
21
1124.580506
0
LINE
8
Layer 1
10
-328.288589
20
1124.580506
11
-328.191000
21
1128.440000
0
LINE
8
Layer 1
10
-328.191000
20
1128.440000
11
-328.191000
21
1128.440000
0
LINE
8
Layer 1
10
-387.522000
20
1093.700000
11
-387.888180
21
1090.749900
0
LINE
8
Layer 1
10
-443.081000
20
1128.730000
11
-444.238820
21
1129.888870
0
LINE
8
Layer 1
10
-443.110000
20
1147.920000
11
-419.123900
21
1152.693140
0
LINE
8
Layer 1
10
-370.443000
20
1091.160000
11
-360.065500
21
1093.223750
0
LINE
8
Layer 1
10
-372.199000
20
1132.350000
11
-369.920420
21
1129.929040
0
LINE
8
Layer 1
10
-389.033000
20
1081.530000
11
-389.399200
21
1078.582550
0
LINE
8
Layer 1
10
-449.188000
20
1134.840000
11
-433.939500
21
1137.874790
0
LINE
8
Layer 1
10
-393.017000
20
1119.400000
11
-423.686700
21
1113.298710
0
LINE
8
Layer 1
10
-433.711000
20
1179.460000
11
-421.691200
21
1181.851780
0
LINE
8
Layer 1
10
-400.958000
20
1091.020000
11
-387.521900
21
1093.694930
0
LINE
8
Layer 1
10
-426.532000
20
1145.280000
11
-430.121600
21
1141.689610
0
LINE
8
Layer 1
10
-377.851000
20
1083.750000
11
-364.796700
21
1086.345580
0
LINE
8
Layer 1
10
-366.070000
20
1124.990000
11
-365.959130
21
1124.778270
0
LINE
8
Layer 1
10
-387.132000
20
1096.830000
11
-400.494500
21
1094.170920
0
LINE
8
Layer 1
10
-377.423000
20
1122.500000
11
-377.505000
21
1122.798950
0
LINE
8
Layer 1
10
-421.691000
20
1181.850000
11
-419.292550
21
1179.452910
0
LINE
8
Layer 1
10
-411.051000
20
1106.820000
11
-414.640600
21
1103.232230
0
LINE
8
Layer 1
10
-394.741000
20
1080.390000
11
-389.033420
21
1081.525070
0
LINE
8
Layer 1
10
-381.284000
20
1127.670000
11
-382.233070
21
1128.683300
0
LINE
8
Layer 1
10
-386.262000
20
1103.840000
11
-386.376300
21
1102.921910
0
LINE
8
Layer 1
10
-405.281000
20
1131.710000
11
-377.143100
21
1137.305950
0
LINE
8
Layer 1
10
-419.490000
20
1105.140000
11
-411.051370
21
1106.817460
0
LINE
8
Layer 1
10
-426.363000
20
1172.110000
11
-428.761460
21
1174.509780
0
LINE
8
Layer 1
10
-428.294000
20
1162.730000
11
-406.841300
21
1166.997700
0
LINE
8
Layer 1
10
-392.417000
20
1125.450000
11
-416.278200
21
1120.703420
0
LINE
8
Layer 1
10
-439.292000
20
1151.730000
11
-435.702400
21
1155.320390
0
LINE
8
Layer 1
10
-394.544000
20
1154.700000
11
-406.564000
21
1152.308160
0
LINE
8
Layer 1
10
-425.445000
20
1184.160000
11
-428.274295
21
1182.946485
0
LINE
8
Layer 1
10
-428.274295
20
1182.946485
11
-431.009689
21
1181.606066
0
LINE
8
Layer 1
10
-431.009689
20
1181.606066
11
-433.649087
21
1180.143596
0
LINE
8
Layer 1
10
-433.649087
20
1180.143596
11
-436.190394
21
1178.563925
0
LINE
8
Layer 1
10
-436.190394
20
1178.563925
11
-440.970350
21
1175.072385
0
LINE
8
Layer 1
10
-440.970350
20
1175.072385
11
-445.332795
21
1171.170253
0
LINE
8
Layer 1
10
-445.332795
20
1171.170253
11
-449.260965
21
1166.896338
0
LINE
8
Layer 1
10
-449.260965
20
1166.896338
11
-452.738096
21
1162.289448
0
LINE
8
Layer 1
10
-452.738096
20
1162.289448
11
-455.747425
21
1157.388391
0
LINE
8
Layer 1
10
-455.747425
20
1157.388391
11
-458.272187
21
1152.231975
0
LINE
8
Layer 1
10
-458.272187
20
1152.231975
11
-460.295621
21
1146.859008
0
LINE
8
Layer 1
10
-460.295621
20
1146.859008
11
-461.800962
21
1141.308299
0
LINE
8
Layer 1
10
-461.800962
20
1141.308299
11
-462.771446
21
1135.618655
0
LINE
8
Layer 1
10
-462.771446
20
1135.618655
11
-463.190311
21
1129.828884
0
LINE
8
Layer 1
10
-463.190311
20
1129.828884
11
-463.040792
21
1123.977796
0
LINE
8
Layer 1
10
-463.040792
20
1123.977796
11
-462.306126
21
1118.104196
0
LINE
8
Layer 1
10
-462.306126
20
1118.104196
11
-461.714125
21
1115.171083
0
LINE
8
Layer 1
10
-461.714125
20
1115.171083
11
-460.969550
21
1112.246895
0
LINE
8
Layer 1
10
-460.969550
20
1112.246895
11
-460.070307
21
1109.336484
0
LINE
8
Layer 1
10
-460.070307
20
1109.336484
11
-459.014300
21
1106.444700
0
LINE
8
Layer 1
10
-459.014300
20
1106.444700
11
-457.813930
21
1103.609797
0
LINE
8
Layer 1
10
-457.813930
20
1103.609797
11
-456.486224
21
1100.868205
0
LINE
8
Layer 1
10
-456.486224
20
1100.868205
11
-455.036021
21
1098.222042
0
LINE
8
Layer 1
10
-455.036021
20
1098.222042
11
-453.468164
21
1095.673427
0
LINE
8
Layer 1
10
-453.468164
20
1095.673427
11
-449.998852
21
1090.877309
0
LINE
8
Layer 1
10
-449.998852
20
1090.877309
11
-446.117016
21
1086.496794
0
LINE
8
Layer 1
10
-446.117016
20
1086.496794
11
-441.861385
21
1082.548825
0
LINE
8
Layer 1
10
-441.861385
20
1082.548825
11
-437.270690
21
1079.050345
0
LINE
8
Layer 1
10
-437.270690
20
1079.050345
11
-432.383660
21
1076.018298
0
LINE
8
Layer 1
10
-432.383660
20
1076.018298
11
-427.239025
21
1073.469625
0
LINE
8
Layer 1
10
-427.239025
20
1073.469625
11
-421.875514
21
1071.421270
0
LINE
8
Layer 1
10
-421.875514
20
1071.421270
11
-416.331857
21
1069.890177
0
LINE
8
Layer 1
10
-416.331857
20
1069.890177
11
-410.646783
21
1068.893287
0
LINE
8
Layer 1
10
-410.646783
20
1068.893287
11
-404.859022
21
1068.447544
0
LINE
8
Layer 1
10
-404.859022
20
1068.447544
11
-399.007304
21
1068.569891
0
LINE
8
Layer 1
10
-399.007304
20
1068.569891
11
-393.130357
21
1069.277270
0
LINE
8
Layer 1
10
-393.130357
20
1069.277270
11
-390.194527
21
1069.855642
0
LINE
8
Layer 1
10
-390.194527
20
1069.855642
11
-387.266913
21
1070.586626
0
LINE
8
Layer 1
10
-387.266913
20
1070.586626
11
-384.352357
21
1071.472339
0
LINE
8
Layer 1
10
-384.352357
20
1071.472339
11
-381.455700
21
1072.514900
0
LINE
8
Layer 1
10
-381.455700
20
1072.514900
11
-378.615252
21
1073.702095
0
LINE
8
Layer 1
10
-378.615252
20
1073.702095
11
-375.867524
21
1075.017058
0
LINE
8
Layer 1
10
-375.867524
20
1075.017058
11
-373.214655
21
1076.454959
0
LINE
8
Layer 1
10
-373.214655
20
1076.454959
11
-370.658787
21
1078.010966
0
LINE
8
Layer 1
10
-370.658787
20
1078.010966
11
-365.846610
21
1081.457973
0
LINE
8
Layer 1
10
-365.846610
20
1081.457973
11
-361.448117
21
1085.319430
0
LINE
8
Layer 1
10
-361.448117
20
1085.319430
11
-357.480431
21
1089.556685
0
LINE
8
Layer 1
10
-357.480431
20
1089.556685
11
-353.960674
21
1094.131088
0
LINE
8
Layer 1
10
-353.960674
20
1094.131088
11
-350.905968
21
1099.003989
0
LINE
8
Layer 1
10
-350.905968
20
1099.003989
11
-348.333438
21
1104.136737
0
LINE
8
Layer 1
10
-348.333438
20
1104.136737
11
-346.260204
21
1109.490683
0
LINE
8
Layer 1
10
-346.260204
20
1109.490683
11
-344.703390
21
1115.027176
0
LINE
8
Layer 1
10
-344.703390
20
1115.027176
11
-343.680120
21
1120.707566
0
LINE
8
Layer 1
10
-343.680120
20
1120.707566
11
-343.207514
21
1126.493202
0
LINE
8
Layer 1
10
-343.207514
20
1126.493202
11
-343.302697
21
1132.345433
0
LINE
8
Layer 1
10
-343.302697
20
1132.345433
11
-343.982790
21
1138.225610
0
LINE
8
Layer 1
10
-343.982790
20
1138.225610
11
-344.547529
21
1141.164100
0
LINE
8
Layer 1
10
-344.547529
20
1141.164100
11
-345.264917
21
1144.095083
0
LINE
8
Layer 1
10
-345.264917
20
1144.095083
11
-346.137094
21
1147.013726
0
LINE
8
Layer 1
10
-346.137094
20
1147.013726
11
-347.166200
21
1149.915200
0
LINE
8
Layer 1
10
-347.166200
20
1149.915200
11
-348.340191
21
1152.761127
0
LINE
8
Layer 1
10
-348.340191
20
1152.761127
11
-349.642379
21
1155.514930
0
LINE
8
Layer 1
10
-349.642379
20
1155.514930
11
-351.067945
21
1158.174445
0
LINE
8
Layer 1
10
-351.067945
20
1158.174445
11
-352.612066
21
1160.737510
0
LINE
8
Layer 1
10
-352.612066
20
1160.737510
11
-356.036690
21
1165.565638
0
LINE
8
Layer 1
10
-356.036690
20
1165.565638
11
-359.877680
21
1169.982013
0
LINE
8
Layer 1
10
-359.877680
20
1169.982013
11
-364.096465
21
1173.969330
0
LINE
8
Layer 1
10
-364.096465
20
1173.969330
11
-368.654475
21
1177.510290
0
LINE
8
Layer 1
10
-368.654475
20
1177.510290
11
-373.513140
21
1180.587589
0
LINE
8
Layer 1
10
-373.513140
20
1180.587589
11
-378.633888
21
1183.183925
0
LINE
8
Layer 1
10
-378.633888
20
1183.183925
11
-383.978148
21
1185.281996
0
LINE
8
Layer 1
10
-383.978148
20
1185.281996
11
-389.507351
21
1186.864501
0
LINE
8
Layer 1
10
-389.507351
20
1186.864501
11
-395.182926
21
1187.914136
0
LINE
8
Layer 1
10
-395.182926
20
1187.914136
11
-400.966302
21
1188.413600
0
LINE
8
Layer 1
10
-400.966302
20
1188.413600
11
-406.818907
21
1188.345591
0
LINE
8
Layer 1
10
-406.818907
20
1188.345591
11
-412.702173
21
1187.692805
0
LINE
8
Layer 1
10
-412.702173
20
1187.692805
11
-415.643250
21
1187.141715
0
LINE
8
Layer 1
10
-415.643250
20
1187.141715
11
-418.577527
21
1186.437943
0
LINE
8
Layer 1
10
-418.577527
20
1186.437943
11
-421.500185
21
1185.579325
0
LINE
8
Layer 1
10
-421.500185
20
1185.579325
11
-424.406400
21
1184.563700
0
LINE
8
Layer 1
10
-377.104000
20
1119.250000
11
-377.060100
21
1119.517210
0
LINE
8
Layer 1
10
-378.243000
20
1124.180000
11
-378.936740
21
1125.079600
0
LINE
8
Layer 1
10
-386.376000
20
1102.920000
11
-399.595100
21
1100.290060
0
LINE
8
Layer 1
10
-363.765000
20
1116.220000
11
-363.808400
21
1115.362760
0
LINE
8
Layer 1
10
-415.306000
20
1156.510000
11
-439.292100
21
1151.736930
0
LINE
8
Layer 1
10
-406.842000
20
1167.000000
11
-404.443560
21
1164.600220
0
LINE
8
Layer 1
10
-358.679000
20
1092.470000
11
-360.979280
21
1090.168150
0
LINE
8
Layer 1
10
-364.095000
20
1113.750000
11
-364.250040
21
1113.257880
0
LINE
8
Layer 1
10
-416.279000
20
1120.710000
11
-412.689410
21
1124.300360
0
LINE
8
Layer 1
10
-399.691000
20
1085.340000
11
-388.277400
21
1087.610110
0
LINE
8
Layer 1
10
-390.465000
20
1146.520000
11
-387.042350
21
1147.202620
0
LINE
8
Layer 1
10
-419.124000
20
1152.690000
11
-422.713600
21
1149.099610
0
LINE
8
Layer 1
10
-360.066000
20
1093.220000
11
-358.678810
21
1092.463280
0
LINE
8
Layer 1
10
-403.644000
20
1114.230000
11
-407.233600
21
1110.639610
0
LINE
8
Layer 1
10
-409.393000
20
1169.550000
11
-424.476100
21
1166.549640
0
LINE
8
Layer 1
10
-444.239000
20
1129.890000
11
-441.348160
21
1130.464160
0
LINE
8
Layer 1
10
-401.393000
20
1088.060000
11
-400.957230
21
1091.020660
0
LINE
8
Layer 1
10
-441.348000
20
1130.460000
11
-443.081020
21
1128.726970
0
LINE
8
Layer 1
10
-378.937000
20
1125.080000
11
-367.723700
21
1127.310400
0
LINE
8
Layer 1
10
-422.640000
20
1168.390000
11
-423.811590
21
1169.562120
0
LINE
8
Layer 1
10
-446.700000
20
1144.330000
11
-443.110400
21
1147.917770
0
LINE
8
Layer 1
10
-401.076000
20
1147.470000
11
-401.613650
21
1147.361540
0
LINE
8
Layer 1
10
-401.614000
20
1147.360000
11
-404.012440
21
1149.759780
0
LINE
8
Layer 1
10
-404.012000
20
1149.760000
11
-397.486310
21
1151.056450
0
LINE
8
Layer 1
10
-397.487000
20
1151.060000
11
-401.076600
21
1147.472230
0
LINE
8
Layer 1
10
-399.595000
20
1100.290000
11
-399.159500
21
1103.250660
0
LINE
8
Layer 1
10
-378.931000
20
1116.270000
11
-377.773970
21
1117.714610
0
LINE
8
Layer 1
10
-381.441000
20
1080.160000
11
-377.851400
21
1083.750360
0
LINE
8
Layer 1
10
-414.641000
20
1103.230000
11
-417.091560
21
1102.740530
0
LINE
8
Layer 1
10
-384.433000
20
1103.300000
11
-386.262060
21
1103.831800
0
LINE
8
Layer 1
10
-364.170000
20
1120.330000
11
-363.960710
21
1119.250510
0
LINE
8
Layer 1
10
-424.242000
20
1184.400000
11
-425.445060
21
1184.161900
0
LINE
8
Layer 1
10
-424.440000
20
1110.090000
11
-403.644000
21
1114.225440
0
LINE
8
Layer 1
10
-366.464000
20
1109.030000
11
-367.822900
21
1107.513920
0
LINE
8
Layer 1
10
-377.143000
20
1137.300000
11
-374.744560
21
1134.902850
0
LINE
8
Layer 1
10
-420.097000
20
1116.890000
11
-395.415300
21
1121.800680
0
LINE
8
Layer 1
10
-451.740000
20
1137.390000
11
-452.688270
21
1138.337140
0
LINE
8
Layer 1
10
-388.713000
20
1115.550000
11
-387.157780
21
1114.634570
0
LINE
8
Layer 1
10
-406.564000
20
1152.310000
11
-408.962460
21
1154.709780
0
LINE
8
Layer 1
10
-399.493000
20
1159.650000
11
-411.512800
21
1157.258160
0
LINE
8
Layer 1
10
-408.962000
20
1154.710000
11
-396.942000
21
1157.099220
0
LINE
8
Layer 1
10
-372.205000
20
1078.940000
11
-375.794330
21
1075.352230
0
LINE
8
Layer 1
10
-377.060000
20
1119.520000
11
-364.666700
21
1121.983320
0
LINE
8
Layer 1
10
-414.343000
20
1174.500000
11
-426.363000
21
1172.108150
0
LINE
8
Layer 1
10
-363.808000
20
1115.370000
11
-364.094270
21
1113.748080
0
LINE
8
Layer 1
10
-387.158000
20
1114.630000
11
-399.252900
21
1112.222280
0
LINE
8
Layer 1
10
-398.696000
20
1106.400000
11
-398.260500
21
1109.363310
0
LINE
8
Layer 1
10
-364.250000
20
1113.250000
11
-398.696400
21
1106.397310
0
LINE
8
Layer 1
10
-401.463000
20
1135.520000
11
-397.873400
21
1139.110330
0
LINE
8
Layer 1
10
-387.393000
20
1073.040000
11
-387.976140
21
1073.622060
0
LINE
8
Layer 1
10
-400.059000
20
1097.140000
11
-386.765800
21
1099.783160
0
LINE
8
Layer 1
10
-385.259000
20
1076.340000
11
-372.204400
21
1078.935590
0
LINE
8
Layer 1
10
-422.714000
20
1149.100000
11
-446.700100
21
1144.329550
0
LINE
8
Layer 1
10
-395.415000
20
1121.800000
11
-393.016550
21
1119.400220
0
LINE
8
Layer 1
10
-365.879000
20
1109.870000
11
-366.463740
21
1109.028630
0
LINE
8
Layer 1
10
-368.386000
20
1082.760000
11
-381.440600
21
1080.161830
0
LINE
8
Layer 1
10
-437.530000
20
1134.280000
11
-446.790420
21
1132.438510
0
LINE
8
Layer 1
10
-387.888000
20
1090.750000
11
-401.393700
21
1088.064480
0
LINE
8
Layer 1
10
-388.277000
20
1087.610000
11
-388.643450
21
1084.662550
0
LINE
8
Layer 1
10
-387.043000
20
1147.200000
11
-384.644550
21
1144.800220
0
LINE
8
Layer 1
10
-367.723000
20
1127.310000
11
-366.996730
21
1126.407780
0
LINE
8
Layer 1
10
-394.055000
20
1142.930000
11
-390.465400
21
1146.517770
0
LINE
8
Layer 1
10
-388.644000
20
1084.660000
11
-397.292700
21
1082.937560
0
LINE
8
Layer 1
10
-401.652000
20
1114.620000
11
-390.328900
21
1116.871590
0
LINE
8
Layer 1
10
-399.160000
20
1103.250000
11
-365.879100
21
1109.872530
0
LINE
8
Layer 1
10
-365.959000
20
1124.780000
11
-377.422900
21
1122.501990
0
LINE
8
Layer 1
10
-424.476000
20
1166.550000
11
-422.639530
21
1168.386240
0
LINE
8
Layer 1
10
-426.650000
20
1186.280000
11
-426.112360
21
1186.388460
0
LINE
8
Layer 1
10
-426.113000
20
1186.390000
11
-423.714560
21
1183.990220
0
LINE
8
Layer 1
10
-423.714000
20
1183.990000
11
-430.239680
21
1182.693550
0
LINE
8
Layer 1
10
-430.240000
20
1182.690000
11
-426.650400
21
1186.277770
0
LINE
8
Layer 1
10
-369.920000
20
1129.930000
11
-381.284100
21
1127.667800
0
LINE
8
Layer 1
10
-423.811000
20
1169.560000
11
-411.791200
21
1171.951780
0
LINE
8
Layer 1
10
-428.761000
20
1174.510000
11
-416.741000
21
1176.899230
0
LINE
8
Layer 1
10
-377.505000
20
1122.800000
11
-378.243190
21
1124.175850
0
LINE
8
Layer 1
10
-367.823000
20
1107.510000
11
-369.145370
21
1106.340530
0
LINE
8
Layer 1
10
-397.873000
20
1139.110000
11
-382.092700
21
1142.247940
0
LINE
8
Layer 1
10
-422.041000
20
1107.690000
11
-424.439460
21
1110.089750
0
LINE
8
Layer 1
10
-431.312000
20
1177.060000
11
-433.710450
21
1179.457160
0
LINE
8
Layer 1
10
-417.092000
20
1102.740000
11
-419.490460
21
1105.139750
0
LINE
8
Layer 1
10
-411.513000
20
1157.260000
11
-413.032240
21
1158.778670
0
LINE
8
Layer 1
10
-431.884000
20
1159.140000
11
-428.294400
21
1162.730390
0
LINE
8
Layer 1
10
-375.794000
20
1075.350000
11
-387.393100
21
1073.042840
0
LINE
8
Layer 1
10
-364.667000
20
1121.980000
11
-364.655900
21
1121.953500
0
LINE
8
Layer 1
10
-401.892000
20
1162.050000
11
-399.493550
21
1159.652840
0
LINE
8
Layer 1
10
-396.942000
20
1157.100000
11
-394.543540
21
1154.702840
0
LINE
8
Layer 1
10
-374.033000
20
1087.570000
11
-370.443380
21
1091.160360
0
LINE
8
Layer 1
10
-435.702000
20
1155.320000
11
-401.891400
21
1162.045770
0
LINE
8
Layer 1
10
-424.407000
20
1184.570000
11
-424.242700
21
1184.403310
0
LINE
8
Layer 1
10
-430.122000
20
1141.690000
11
-451.740000
21
1137.390560
0
LINE
8
Layer 1
10
-450.518000
20
1140.510000
11
-426.531900
21
1145.283130
0
LINE
8
Layer 1
10
-379.694000
20
1139.850000
11
-401.462300
21
1135.521390
0
LINE
8
Layer 1
10
-412.689000
20
1124.300000
11
-388.827800
21
1129.046580
0
LINE
8
Layer 1
10
-364.153000
20
1095.470000
11
-370.102420
21
1094.284670
0
LINE
8
Layer 1
10
-370.102000
20
1094.280000
11
-370.761880
21
1094.687470
0
LINE
8
Layer 1
10
-365.909000
20
1096.440000
11
-364.152960
21
1095.466310
0
LINE
8
Layer 1
10
-370.762000
20
1094.690000
11
-367.910320
21
1097.542200
0
LINE
8
Layer 1
10
-367.911000
20
1097.540000
11
-365.909430
21
1096.439350
0
LINE
8
Layer 1
10
-397.292000
20
1082.940000
11
-399.690430
21
1085.339750
0
LINE
8
Layer 1
10
-400.494000
20
1094.170000
11
-400.058500
21
1097.133340
0
LINE
8
Layer 1
10
-387.976000
20
1073.630000
11
-385.258990
21
1076.347280
0
LINE
8
Layer 1
10
-433.940000
20
1137.870000
11
-437.529590
21
1134.279610
0
LINE
8
Layer 1
10
-407.233000
20
1110.640000
11
-422.040900
21
1107.695200
0
LINE
8
Layer 1
10
-389.399000
20
1078.580000
11
-392.341940
21
1077.995290
0
LINE
8
Layer 1
10
-383.629000
20
1130.080000
11
-372.198700
21
1132.352760
0
LINE
8
Layer 1
10
-416.741000
20
1176.900000
11
-414.342550
21
1174.502840
0
LINE
8
Layer 1
10
-366.997000
20
1126.410000
11
-366.069630
21
1124.997160
0
LINE
8
Layer 1
10
-446.790000
20
1132.440000
11
-449.188450
21
1134.837150
0
LINE
8
Layer 1
10
-360.979000
20
1090.170000
11
-374.033000
21
1087.574420
0
LINE
8
Layer 1
10
-374.745000
20
1134.900000
11
-408.871000
21
1128.110810
0
LINE
8
Layer 1
10
-382.093000
20
1142.250000
11
-379.694550
21
1139.850280
0
LINE
8
Layer 1
10
-471.423000
20
1196.680000
11
-471.423000
21
1196.680000
0
LINE
8
Layer 1
10
-471.423000
20
1196.680000
11
-471.423000
21
1196.680000
0
LINE
8
Layer 1
10
-403.191000
20
1128.440000
11
-403.191000
21
1128.440000
0
LINE
8
Layer 1
10
-403.191000
20
1128.440000
11
-403.191000
21
1128.440000
0
LINE
8
Layer 1
10
-386.766000
20
1099.780000
11
-387.132180
21
1096.832550
0
LINE
8
Layer 1
10
-390.328000
20
1116.880000
11
-388.712980
21
1115.551780
0
LINE
8
Layer 1
10
-378.938000
20
1116.270000
11
-378.930000
21
1116.275000
0
LINE
8
Layer 1
10
-392.342000
20
1077.990000
11
-394.740440
21
1080.387120
0
LINE
8
Layer 1
10
-377.774000
20
1117.720000
11
-377.104610
21
1119.251950
0
LINE
8
Layer 1
10
-369.145000
20
1106.340000
11
-384.432900
21
1103.299960
0
LINE
8
Layer 1
10
-363.960000
20
1119.250000
11
-378.938100
21
1116.270780
0
LINE
8
Layer 1
10
-419.292000
20
1179.450000
11
-431.311800
21
1177.058150
0
LINE
8
Layer 1
10
-408.871000
20
1128.110000
11
-405.281400
21
1131.700330
0
LINE
8
Layer 1
10
-423.687000
20
1113.300000
11
-420.097400
21
1116.890360
 0 
ENDSEC
 0 
EOF