999
"DXF R12 Output" (www.mydxf.blogspot.com)
 0 
SECTION
 2 
HEADER
 9 
$ACADVER
 1 
AC1009
 9 
$EXTMIN
 10 
 0 
 20 
 0 
 9 
$EXTMAX
 10 
 8.5 
 20 
 11 
 0 
ENDSEC
 0 
SECTION
 2 
ENTITIES
0
LINE
8
Layer 1
10
228.573000
20
604.546000
11
226.850930
21
608.703460
0
LINE
8
Layer 1
10
226.850930
20
608.703460
11
231.008390
21
610.425530
0
LINE
8
Layer 1
10
231.008390
20
610.425530
11
232.730460
21
606.268080
0
LINE
8
Layer 1
10
232.730460
20
606.268080
11
228.573000
21
604.546000
0
LINE
8
Layer 1
10
217.346000
20
592.653000
11
218.860153
21
590.767773
0
LINE
8
Layer 1
10
218.860153
20
590.767773
11
220.617108
21
589.124037
0
LINE
8
Layer 1
10
220.617108
20
589.124037
11
222.588506
21
587.744785
0
LINE
8
Layer 1
10
222.588506
20
587.744785
11
224.745990
21
586.653010
0
LINE
8
Layer 1
10
197.453000
20
620.880000
11
195.730930
21
625.037460
0
LINE
8
Layer 1
10
195.730930
20
625.037460
11
191.573470
21
623.315390
0
LINE
8
Layer 1
10
191.573470
20
623.315390
11
193.295550
21
619.157930
0
LINE
8
Layer 1
10
193.295550
20
619.157930
11
197.453000
21
620.880000
0
LINE
8
Layer 1
10
217.346000
20
592.653000
11
217.346000
21
594.453000
0
LINE
8
Layer 1
10
217.346000
20
594.453000
11
221.846000
21
594.453000
0
LINE
8
Layer 1
10
221.846000
20
594.453000
11
221.846000
21
596.253000
0
LINE
8
Layer 1
10
221.846000
20
596.253000
11
217.346000
21
596.253000
0
LINE
8
Layer 1
10
217.346000
20
596.253000
11
217.346000
21
598.053000
0
LINE
8
Layer 1
10
217.346000
20
598.053000
11
221.846000
21
598.053000
0
LINE
8
Layer 1
10
221.846000
20
598.053000
11
221.846000
21
599.853000
0
LINE
8
Layer 1
10
221.846000
20
599.853000
11
217.346000
21
599.853000
0
LINE
8
Layer 1
10
217.346000
20
599.853000
11
217.346000
21
601.653000
0
LINE
8
Layer 1
10
217.346000
20
601.653000
11
218.860153
21
603.538223
0
LINE
8
Layer 1
10
218.860153
20
603.538223
11
220.617109
21
605.181960
0
LINE
8
Layer 1
10
220.617109
20
605.181960
11
222.588510
21
606.561218
0
LINE
8
Layer 1
10
222.588510
20
606.561218
11
224.746000
21
607.653000
0
LINE
8
Layer 1
10
224.746000
20
607.653000
11
222.948693
21
610.515344
0
LINE
8
Layer 1
10
222.948693
20
610.515344
11
220.756150
21
613.062900
0
LINE
8
Layer 1
10
220.756150
20
613.062900
11
218.208594
21
615.255443
0
LINE
8
Layer 1
10
218.208594
20
615.255443
11
215.346250
21
617.052750
0
LINE
8
Layer 1
10
215.346250
20
617.052750
11
214.254469
21
614.895264
0
LINE
8
Layer 1
10
214.254469
20
614.895264
11
212.875215
21
612.923863
0
LINE
8
Layer 1
10
212.875215
20
612.923863
11
211.231481
21
611.166905
0
LINE
8
Layer 1
10
211.231481
20
611.166905
11
209.346260
21
609.652750
0
LINE
8
Layer 1
10
180.096000
20
599.403000
11
180.096000
21
594.903000
0
LINE
8
Layer 1
10
180.096000
20
594.903000
11
175.596000
21
594.903000
0
LINE
8
Layer 1
10
175.596000
20
594.903000
11
175.596000
21
599.403000
0
LINE
8
Layer 1
10
175.596000
20
599.403000
11
180.096000
21
599.403000
0
LINE
8
Layer 1
10
202.596000
20
572.403000
11
207.096000
21
572.403000
0
LINE
8
Layer 1
10
207.096000
20
572.403000
11
207.096000
21
567.903000
0
LINE
8
Layer 1
10
207.096000
20
567.903000
11
202.596000
21
567.903000
0
LINE
8
Layer 1
10
202.596000
20
567.903000
11
202.596000
21
572.403000
0
LINE
8
Layer 1
10
209.346000
20
609.653000
11
207.546000
21
609.653000
0
LINE
8
Layer 1
10
207.546000
20
609.653000
11
207.546000
21
614.153000
0
LINE
8
Layer 1
10
207.546000
20
614.153000
11
205.746000
21
614.153000
0
LINE
8
Layer 1
10
205.746000
20
614.153000
11
205.746000
21
609.653000
0
LINE
8
Layer 1
10
205.746000
20
609.653000
11
203.946000
21
609.653000
0
LINE
8
Layer 1
10
203.946000
20
609.653000
11
203.946000
21
614.153000
0
LINE
8
Layer 1
10
203.946000
20
614.153000
11
202.146000
21
614.153000
0
LINE
8
Layer 1
10
202.146000
20
614.153000
11
202.146000
21
609.653000
0
LINE
8
Layer 1
10
202.146000
20
609.653000
11
200.346000
21
609.653000
0
LINE
8
Layer 1
10
200.346000
20
609.653000
11
198.460773
21
611.167153
0
LINE
8
Layer 1
10
198.460773
20
611.167153
11
196.817036
21
612.924109
0
LINE
8
Layer 1
10
196.817036
20
612.924109
11
195.437781
21
614.895510
0
LINE
8
Layer 1
10
195.437781
20
614.895510
11
194.346000
21
617.053000
0
LINE
8
Layer 1
10
194.346000
20
617.053000
11
191.483656
21
615.255693
0
LINE
8
Layer 1
10
191.483656
20
615.255693
11
188.936101
21
613.063150
0
LINE
8
Layer 1
10
188.936101
20
613.063150
11
186.743561
21
610.515594
0
LINE
8
Layer 1
10
186.743561
20
610.515594
11
184.946260
21
607.653250
0
LINE
8
Layer 1
10
184.946260
20
607.653250
11
187.103744
21
606.561467
0
LINE
8
Layer 1
10
187.103744
20
606.561467
11
189.075142
21
605.182210
0
LINE
8
Layer 1
10
189.075142
20
605.182210
11
190.832097
21
603.538472
0
LINE
8
Layer 1
10
190.832097
20
603.538472
11
192.346250
21
601.653250
0
LINE
8
Layer 1
10
192.346250
20
601.653250
11
192.346000
21
599.853000
0
LINE
8
Layer 1
10
192.346000
20
599.853000
11
187.846000
21
599.853000
0
LINE
8
Layer 1
10
187.846000
20
599.853000
11
187.846000
21
598.053000
0
LINE
8
Layer 1
10
187.846000
20
598.053000
11
192.346000
21
598.053000
0
LINE
8
Layer 1
10
192.346000
20
598.053000
11
192.346000
21
596.253000
0
LINE
8
Layer 1
10
192.346000
20
596.253000
11
187.846000
21
596.253000
0
LINE
8
Layer 1
10
187.846000
20
596.253000
11
187.846000
21
594.453000
0
LINE
8
Layer 1
10
187.846000
20
594.453000
11
192.346000
21
594.453000
0
LINE
8
Layer 1
10
192.346000
20
594.453000
11
192.346000
21
592.653000
0
LINE
8
Layer 1
10
192.346000
20
592.653000
11
190.831847
21
590.767767
0
LINE
8
Layer 1
10
190.831847
20
590.767767
11
189.074891
21
589.124028
0
LINE
8
Layer 1
10
189.074891
20
589.124028
11
187.103490
21
587.744771
0
LINE
8
Layer 1
10
187.103490
20
587.744771
11
184.946000
21
586.652990
0
LINE
8
Layer 1
10
184.946000
20
586.652990
11
186.743307
21
583.790652
0
LINE
8
Layer 1
10
186.743307
20
583.790652
11
188.935850
21
581.243099
0
LINE
8
Layer 1
10
188.935850
20
581.243099
11
191.483406
21
579.050556
0
LINE
8
Layer 1
10
191.483406
20
579.050556
11
194.345750
21
577.253250
0
LINE
8
Layer 1
10
194.345750
20
577.253250
11
195.437533
21
579.410740
0
LINE
8
Layer 1
10
195.437533
20
579.410740
11
196.816791
21
581.382141
0
LINE
8
Layer 1
10
196.816791
20
581.382141
11
198.460532
21
583.139097
0
LINE
8
Layer 1
10
198.460532
20
583.139097
11
200.345760
21
584.653250
0
LINE
8
Layer 1
10
200.345760
20
584.653250
11
202.146000
21
584.653000
0
LINE
8
Layer 1
10
202.146000
20
584.653000
11
202.146000
21
580.153000
0
LINE
8
Layer 1
10
202.146000
20
580.153000
11
203.946000
21
580.153000
0
LINE
8
Layer 1
10
203.946000
20
580.153000
11
203.946000
21
584.653000
0
LINE
8
Layer 1
10
203.946000
20
584.653000
11
205.746000
21
584.653000
0
LINE
8
Layer 1
10
205.746000
20
584.653000
11
205.746000
21
580.153000
0
LINE
8
Layer 1
10
205.746000
20
580.153000
11
207.546000
21
580.153000
0
LINE
8
Layer 1
10
207.546000
20
580.153000
11
207.546000
21
584.653000
0
LINE
8
Layer 1
10
207.546000
20
584.653000
11
209.346000
21
584.653000
0
LINE
8
Layer 1
10
209.346000
20
584.653000
11
211.231228
21
583.138845
0
LINE
8
Layer 1
10
211.231228
20
583.138845
11
212.874967
21
581.381888
0
LINE
8
Layer 1
10
212.874967
20
581.381888
11
214.254223
21
579.410486
0
LINE
8
Layer 1
10
214.254223
20
579.410486
11
215.346000
21
577.253000
0
LINE
8
Layer 1
10
215.346000
20
577.253000
11
218.208344
21
579.050301
0
LINE
8
Layer 1
10
218.208344
20
579.050301
11
220.755900
21
581.242841
0
LINE
8
Layer 1
10
220.755900
20
581.242841
11
222.948443
21
583.790396
0
LINE
8
Layer 1
10
222.948443
20
583.790396
11
224.745750
21
586.652740
0
LINE
8
Layer 1
10
207.096000
20
621.903000
11
202.596000
21
621.903000
0
LINE
8
Layer 1
10
202.596000
20
621.903000
11
202.596000
21
626.403000
0
LINE
8
Layer 1
10
202.596000
20
626.403000
11
207.096000
21
626.403000
0
LINE
8
Layer 1
10
207.096000
20
626.403000
11
207.096000
21
621.903000
0
LINE
8
Layer 1
10
216.396000
20
575.148000
11
212.238550
21
573.425920
0
LINE
8
Layer 1
10
212.238550
20
573.425920
11
213.960620
21
569.268460
0
LINE
8
Layer 1
10
213.960620
20
569.268460
11
218.118080
21
570.990540
0
LINE
8
Layer 1
10
218.118080
20
570.990540
11
216.396000
21
575.148000
0
LINE
8
Layer 1
10
229.596000
20
594.903000
11
229.596000
21
599.403000
0
LINE
8
Layer 1
10
229.596000
20
599.403000
11
234.096000
21
599.403000
0
LINE
8
Layer 1
10
234.096000
20
599.403000
11
234.096000
21
594.903000
0
LINE
8
Layer 1
10
234.096000
20
594.903000
11
229.596000
21
594.903000
0
LINE
8
Layer 1
10
181.119000
20
604.546000
11
176.961550
21
606.268080
0
LINE
8
Layer 1
10
176.961550
20
606.268080
11
178.683620
21
610.425530
0
LINE
8
Layer 1
10
178.683620
20
610.425530
11
182.841080
21
608.703460
0
LINE
8
Layer 1
10
182.841080
20
608.703460
11
181.119000
21
604.546000
0
LINE
8
Layer 1
10
185.754000
20
581.243000
11
188.935980
21
578.061020
0
LINE
8
Layer 1
10
188.935980
20
578.061020
11
185.754000
21
574.879040
0
LINE
8
Layer 1
10
185.754000
20
574.879040
11
182.572020
21
578.061020
0
LINE
8
Layer 1
10
182.572020
20
578.061020
11
185.754000
21
581.243000
0
LINE
8
Layer 1
10
228.573000
20
589.760000
11
226.850930
21
585.602540
0
LINE
8
Layer 1
10
226.850930
20
585.602540
11
231.008390
21
583.880470
0
LINE
8
Layer 1
10
231.008390
20
583.880470
11
232.730460
21
588.037920
0
LINE
8
Layer 1
10
232.730460
20
588.037920
11
228.573000
21
589.760000
0
LINE
8
Layer 1
10
220.756000
20
578.061000
11
223.937980
21
581.242980
0
LINE
8
Layer 1
10
223.937980
20
581.242980
11
227.119960
21
578.061000
0
LINE
8
Layer 1
10
227.119960
20
578.061000
11
223.937980
21
574.879020
0
LINE
8
Layer 1
10
223.937980
20
574.879020
11
220.756000
21
578.061000
0
LINE
8
Layer 1
10
223.938000
20
613.063000
11
220.756020
21
616.244980
0
LINE
8
Layer 1
10
220.756020
20
616.244980
11
223.938000
21
619.426960
0
LINE
8
Layer 1
10
223.938000
20
619.426960
11
227.119980
21
616.244980
0
LINE
8
Layer 1
10
227.119980
20
616.244980
11
223.938000
21
613.063000
0
LINE
8
Layer 1
10
216.396000
20
619.158000
11
212.238550
21
620.880070
0
LINE
8
Layer 1
10
212.238550
20
620.880070
11
213.960620
21
625.037530
0
LINE
8
Layer 1
10
213.960620
20
625.037530
11
218.118080
21
623.315460
0
LINE
8
Layer 1
10
218.118080
20
623.315460
11
216.396000
21
619.158000
0
LINE
8
Layer 1
10
185.754000
20
613.063000
11
188.935980
21
616.244980
0
LINE
8
Layer 1
10
188.935980
20
616.244980
11
185.754000
21
619.426960
0
LINE
8
Layer 1
10
185.754000
20
619.426960
11
182.572020
21
616.244980
0
LINE
8
Layer 1
10
182.572020
20
616.244980
11
185.754000
21
613.063000
0
LINE
8
Layer 1
10
181.119000
20
589.760000
11
176.961550
21
588.037920
0
LINE
8
Layer 1
10
176.961550
20
588.037920
11
178.683620
21
583.880470
0
LINE
8
Layer 1
10
178.683620
20
583.880470
11
182.841080
21
585.602540
0
LINE
8
Layer 1
10
182.841080
20
585.602540
11
181.119000
21
589.760000
0
LINE
8
Layer 1
10
197.453000
20
573.426000
11
195.730930
21
569.268540
0
LINE
8
Layer 1
10
195.730930
20
569.268540
11
191.573470
21
570.990620
0
LINE
8
Layer 1
10
191.573470
20
570.990620
11
193.295550
21
575.148080
0
LINE
8
Layer 1
10
193.295550
20
575.148080
11
197.453000
21
573.426000
0
LINE
8
Layer 1
10
99.250400
20
636.688000
11
99.250400
21
639.188000
0
LINE
8
Layer 1
10
99.250400
20
639.188000
11
97.250400
21
639.188000
0
LINE
8
Layer 1
10
97.250400
20
639.188000
11
97.250400
21
636.688000
0
LINE
8
Layer 1
10
97.250400
20
636.688000
11
99.250400
21
636.688000
0
LINE
8
Layer 1
10
87.250400
20
630.388000
11
84.750400
21
630.388000
0
LINE
8
Layer 1
10
84.750400
20
630.388000
11
84.750400
21
628.288000
0
LINE
8
Layer 1
10
84.750400
20
628.288000
11
87.250400
21
628.288000
0
LINE
8
Layer 1
10
87.250400
20
628.288000
11
87.250400
21
630.388000
0
LINE
8
Layer 1
10
97.250400
20
626.188000
11
97.250400
21
623.688000
0
LINE
8
Layer 1
10
97.250400
20
623.688000
11
99.250400
21
623.688000
0
LINE
8
Layer 1
10
99.250400
20
623.688000
11
99.250400
21
626.188000
0
LINE
8
Layer 1
10
99.250400
20
626.188000
11
97.250400
21
626.188000
0
LINE
8
Layer 1
10
95.250400
20
636.688000
11
95.250400
21
639.188000
0
LINE
8
Layer 1
10
95.250400
20
639.188000
11
93.250400
21
639.188000
0
LINE
8
Layer 1
10
93.250400
20
639.188000
11
93.250400
21
636.688000
0
LINE
8
Layer 1
10
93.250400
20
636.688000
11
95.250400
21
636.688000
0
LINE
8
Layer 1
10
79.275400
20
640.688000
11
79.275400
21
622.188000
0
LINE
8
Layer 1
10
79.275400
20
622.188000
11
113.275000
21
622.188000
0
LINE
8
Layer 1
10
113.275000
20
622.188000
11
113.275000
21
640.688000
0
LINE
8
Layer 1
10
113.275000
20
640.688000
11
79.275400
21
640.688000
0
LINE
8
Layer 1
10
87.250400
20
634.588000
11
84.750400
21
634.588000
0
LINE
8
Layer 1
10
84.750400
20
634.588000
11
84.750400
21
632.488000
0
LINE
8
Layer 1
10
84.750400
20
632.488000
11
87.250400
21
632.488000
0
LINE
8
Layer 1
10
87.250400
20
632.488000
11
87.250400
21
634.588000
0
LINE
8
Layer 1
10
93.250400
20
626.188000
11
93.250400
21
623.688000
0
LINE
8
Layer 1
10
93.250400
20
623.688000
11
95.250400
21
623.688000
0
LINE
8
Layer 1
10
95.250400
20
623.688000
11
95.250400
21
626.188000
0
LINE
8
Layer 1
10
95.250400
20
626.188000
11
93.250400
21
626.188000
0
LINE
8
Layer 1
10
79.275400
20
660.688000
11
79.275400
21
642.188000
0
LINE
8
Layer 1
10
79.275400
20
642.188000
11
113.275000
21
642.188000
0
LINE
8
Layer 1
10
113.275000
20
642.188000
11
113.275000
21
660.688000
0
LINE
8
Layer 1
10
113.275000
20
660.688000
11
79.275400
21
660.688000
0
LINE
8
Layer 1
10
180.119000
20
524.760000
11
175.961550
21
523.037930
0
LINE
8
Layer 1
10
175.961550
20
523.037930
11
177.683630
21
518.880470
0
LINE
8
Layer 1
10
177.683630
20
518.880470
11
181.841080
21
520.602550
0
LINE
8
Layer 1
10
181.841080
20
520.602550
11
180.119000
21
524.760000
0
LINE
8
Layer 1
10
196.453000
20
555.880000
11
194.730920
21
560.037460
0
LINE
8
Layer 1
10
194.730920
20
560.037460
11
190.573470
21
558.315380
0
LINE
8
Layer 1
10
190.573470
20
558.315380
11
192.295550
21
554.157920
0
LINE
8
Layer 1
10
192.295550
20
554.157920
11
196.453000
21
555.880000
0
LINE
8
Layer 1
10
225.851000
20
520.603000
11
230.008440
21
518.880920
0
LINE
8
Layer 1
10
230.008440
20
518.880920
11
231.730520
21
523.038380
0
LINE
8
Layer 1
10
231.730520
20
523.038380
11
227.573080
21
524.760450
0
LINE
8
Layer 1
10
227.573080
20
524.760450
11
225.851000
21
520.603000
0
LINE
8
Layer 1
10
184.754000
20
516.243000
11
187.935980
21
513.061020
0
LINE
8
Layer 1
10
187.935980
20
513.061020
11
184.754000
21
509.879040
0
LINE
8
Layer 1
10
184.754000
20
509.879040
11
181.572010
21
513.061020
0
LINE
8
Layer 1
10
181.572010
20
513.061020
11
184.754000
21
516.243000
0
LINE
8
Layer 1
10
206.096000
20
556.903000
11
201.596000
21
556.903000
0
LINE
8
Layer 1
10
201.596000
20
556.903000
11
201.596000
21
561.403000
0
LINE
8
Layer 1
10
201.596000
20
561.403000
11
206.096000
21
561.403000
0
LINE
8
Layer 1
10
206.096000
20
561.403000
11
206.096000
21
556.903000
0
LINE
8
Layer 1
10
225.851000
20
543.703000
11
230.008440
21
545.425070
0
LINE
8
Layer 1
10
230.008440
20
545.425070
11
231.730520
21
541.267610
0
LINE
8
Layer 1
10
231.730520
20
541.267610
11
227.573080
21
539.545540
0
LINE
8
Layer 1
10
227.573080
20
539.545540
11
225.851000
21
543.703000
0
LINE
8
Layer 1
10
180.119000
20
539.546000
11
175.961550
21
541.268070
0
LINE
8
Layer 1
10
175.961550
20
541.268070
11
177.683630
21
545.425530
0
LINE
8
Layer 1
10
177.683630
20
545.425530
11
181.841080
21
543.703460
0
LINE
8
Layer 1
10
181.841080
20
543.703460
11
180.119000
21
539.546000
0
LINE
8
Layer 1
10
228.596000
20
529.903000
11
228.596000
21
534.403000
0
LINE
8
Layer 1
10
228.596000
20
534.403000
11
233.096000
21
534.403000
0
LINE
8
Layer 1
10
233.096000
20
534.403000
11
233.096000
21
529.903000
0
LINE
8
Layer 1
10
233.096000
20
529.903000
11
228.596000
21
529.903000
0
LINE
8
Layer 1
10
211.238000
20
555.880000
11
212.960080
21
560.037460
0
LINE
8
Layer 1
10
212.960080
20
560.037460
11
217.117530
21
558.315380
0
LINE
8
Layer 1
10
217.117530
20
558.315380
11
215.395450
21
554.157920
0
LINE
8
Layer 1
10
215.395450
20
554.157920
11
211.238000
21
555.880000
0
LINE
8
Layer 1
10
222.938000
20
516.243000
11
219.756020
21
513.061020
0
LINE
8
Layer 1
10
219.756020
20
513.061020
11
222.938000
21
509.879040
0
LINE
8
Layer 1
10
222.938000
20
509.879040
11
226.120000
21
513.061020
0
LINE
8
Layer 1
10
226.120000
20
513.061020
11
222.938000
21
516.243000
0
LINE
8
Layer 1
10
201.596000
20
507.403000
11
206.096000
21
507.403000
0
LINE
8
Layer 1
10
206.096000
20
507.403000
11
206.096000
21
502.903000
0
LINE
8
Layer 1
10
206.096000
20
502.903000
11
201.596000
21
502.903000
0
LINE
8
Layer 1
10
201.596000
20
502.903000
11
201.596000
21
507.403000
0
LINE
8
Layer 1
10
222.938000
20
548.063000
11
219.756020
21
551.244980
0
LINE
8
Layer 1
10
219.756020
20
551.244980
11
222.938000
21
554.426960
0
LINE
8
Layer 1
10
222.938000
20
554.426960
11
226.120000
21
551.244980
0
LINE
8
Layer 1
10
226.120000
20
551.244980
11
222.938000
21
548.063000
0
LINE
8
Layer 1
10
211.238000
20
508.426000
11
212.960080
21
504.268550
0
LINE
8
Layer 1
10
212.960080
20
504.268550
11
217.117530
21
505.990620
0
LINE
8
Layer 1
10
217.117530
20
505.990620
11
215.395450
21
510.148080
0
LINE
8
Layer 1
10
215.395450
20
510.148080
11
211.238000
21
508.426000
0
LINE
8
Layer 1
10
184.754000
20
548.063000
11
187.935980
21
551.244980
0
LINE
8
Layer 1
10
187.935980
20
551.244980
11
184.754000
21
554.426960
0
LINE
8
Layer 1
10
184.754000
20
554.426960
11
181.572010
21
551.244980
0
LINE
8
Layer 1
10
181.572010
20
551.244980
11
184.754000
21
548.063000
0
LINE
8
Layer 1
10
196.453000
20
508.426000
11
194.730920
21
504.268550
0
LINE
8
Layer 1
10
194.730920
20
504.268550
11
190.573470
21
505.990620
0
LINE
8
Layer 1
10
190.573470
20
505.990620
11
192.295550
21
510.148080
0
LINE
8
Layer 1
10
192.295550
20
510.148080
11
196.453000
21
508.426000
0
LINE
8
Layer 1
10
179.096000
20
534.403000
11
179.096000
21
529.903000
0
LINE
8
Layer 1
10
179.096000
20
529.903000
11
174.596000
21
529.903000
0
LINE
8
Layer 1
10
174.596000
20
529.903000
11
174.596000
21
534.403000
0
LINE
8
Layer 1
10
174.596000
20
534.403000
11
179.096000
21
534.403000
0
LINE
8
Layer 1
10
183.846000
20
561.653000
11
183.846000
21
563.453000
0
LINE
8
Layer 1
10
183.846000
20
563.453000
11
188.346000
21
563.453000
0
LINE
8
Layer 1
10
188.346000
20
563.453000
11
188.346000
21
565.253000
0
LINE
8
Layer 1
10
188.346000
20
565.253000
11
183.846000
21
565.253000
0
LINE
8
Layer 1
10
183.846000
20
565.253000
11
183.846000
21
567.053000
0
LINE
8
Layer 1
10
183.846000
20
567.053000
11
188.346000
21
567.053000
0
LINE
8
Layer 1
10
188.346000
20
567.053000
11
188.346000
21
568.853000
0
LINE
8
Layer 1
10
188.346000
20
568.853000
11
183.846000
21
568.853000
0
LINE
8
Layer 1
10
183.846000
20
568.853000
11
183.846000
21
570.653000
0
LINE
8
Layer 1
10
183.846000
20
570.653000
11
173.346000
21
570.653000
0
LINE
8
Layer 1
10
173.346000
20
570.653000
11
173.346000
21
561.653000
0
LINE
8
Layer 1
10
173.346000
20
561.653000
11
183.846000
21
561.653000
0
LINE
8
Layer 1
10
231.846000
20
559.652000
11
231.846000
21
561.452000
0
LINE
8
Layer 1
10
231.846000
20
561.452000
11
236.346000
21
561.452000
0
LINE
8
Layer 1
10
236.346000
20
561.452000
11
236.346000
21
563.252000
0
LINE
8
Layer 1
10
236.346000
20
563.252000
11
231.846000
21
563.252000
0
LINE
8
Layer 1
10
231.846000
20
563.252000
11
231.846000
21
565.052000
0
LINE
8
Layer 1
10
231.846000
20
565.052000
11
236.346000
21
565.052000
0
LINE
8
Layer 1
10
236.346000
20
565.052000
11
236.346000
21
566.852000
0
LINE
8
Layer 1
10
236.346000
20
566.852000
11
231.846000
21
566.852000
0
LINE
8
Layer 1
10
231.846000
20
566.852000
11
231.846000
21
568.652000
0
LINE
8
Layer 1
10
231.846000
20
568.652000
11
221.346000
21
568.652000
0
LINE
8
Layer 1
10
221.346000
20
568.652000
11
221.346000
21
559.652000
0
LINE
8
Layer 1
10
221.346000
20
559.652000
11
231.846000
21
559.652000
0
LINE
8
Layer 1
10
183.846000
20
628.652000
11
183.846000
21
630.452000
0
LINE
8
Layer 1
10
183.846000
20
630.452000
11
188.346000
21
630.452000
0
LINE
8
Layer 1
10
188.346000
20
630.452000
11
188.346000
21
632.252000
0
LINE
8
Layer 1
10
188.346000
20
632.252000
11
183.846000
21
632.252000
0
LINE
8
Layer 1
10
183.846000
20
632.252000
11
183.846000
21
634.052000
0
LINE
8
Layer 1
10
183.846000
20
634.052000
11
188.346000
21
634.052000
0
LINE
8
Layer 1
10
188.346000
20
634.052000
11
188.346000
21
635.852000
0
LINE
8
Layer 1
10
188.346000
20
635.852000
11
183.846000
21
635.852000
0
LINE
8
Layer 1
10
183.846000
20
635.852000
11
183.846000
21
637.652000
0
LINE
8
Layer 1
10
183.846000
20
637.652000
11
173.346000
21
637.652000
0
LINE
8
Layer 1
10
173.346000
20
637.652000
11
173.346000
21
628.652000
0
LINE
8
Layer 1
10
173.346000
20
628.652000
11
183.846000
21
628.652000
0
LINE
8
Layer 1
10
183.846000
20
638.652000
11
183.846000
21
640.452000
0
LINE
8
Layer 1
10
183.846000
20
640.452000
11
188.346000
21
640.452000
0
LINE
8
Layer 1
10
188.346000
20
640.452000
11
188.346000
21
642.252000
0
LINE
8
Layer 1
10
188.346000
20
642.252000
11
183.846000
21
642.252000
0
LINE
8
Layer 1
10
183.846000
20
642.252000
11
183.846000
21
644.052000
0
LINE
8
Layer 1
10
183.846000
20
644.052000
11
188.346000
21
644.052000
0
LINE
8
Layer 1
10
188.346000
20
644.052000
11
188.346000
21
645.852000
0
LINE
8
Layer 1
10
188.346000
20
645.852000
11
183.846000
21
645.852000
0
LINE
8
Layer 1
10
183.846000
20
645.852000
11
183.846000
21
647.652000
0
LINE
8
Layer 1
10
183.846000
20
647.652000
11
173.346000
21
647.652000
0
LINE
8
Layer 1
10
173.346000
20
647.652000
11
173.346000
21
638.652000
0
LINE
8
Layer 1
10
173.346000
20
638.652000
11
183.846000
21
638.652000
0
LINE
8
Layer 1
10
198.846000
20
638.652000
11
198.846000
21
640.452000
0
LINE
8
Layer 1
10
198.846000
20
640.452000
11
203.346000
21
640.452000
0
LINE
8
Layer 1
10
203.346000
20
640.452000
11
203.346000
21
642.252000
0
LINE
8
Layer 1
10
203.346000
20
642.252000
11
198.846000
21
642.252000
0
LINE
8
Layer 1
10
198.846000
20
642.252000
11
198.846000
21
644.052000
0
LINE
8
Layer 1
10
198.846000
20
644.052000
11
203.346000
21
644.052000
0
LINE
8
Layer 1
10
203.346000
20
644.052000
11
203.346000
21
645.852000
0
LINE
8
Layer 1
10
203.346000
20
645.852000
11
198.846000
21
645.852000
0
LINE
8
Layer 1
10
198.846000
20
645.852000
11
198.846000
21
647.652000
0
LINE
8
Layer 1
10
198.846000
20
647.652000
11
188.346000
21
647.652000
0
LINE
8
Layer 1
10
188.346000
20
647.652000
11
188.346000
21
638.652000
0
LINE
8
Layer 1
10
188.346000
20
638.652000
11
198.846000
21
638.652000
0
LINE
8
Layer 1
10
198.846000
20
628.652000
11
198.846000
21
630.452000
0
LINE
8
Layer 1
10
198.846000
20
630.452000
11
203.346000
21
630.452000
0
LINE
8
Layer 1
10
203.346000
20
630.452000
11
203.346000
21
632.252000
0
LINE
8
Layer 1
10
203.346000
20
632.252000
11
198.846000
21
632.252000
0
LINE
8
Layer 1
10
198.846000
20
632.252000
11
198.846000
21
634.052000
0
LINE
8
Layer 1
10
198.846000
20
634.052000
11
203.346000
21
634.052000
0
LINE
8
Layer 1
10
203.346000
20
634.052000
11
203.346000
21
635.852000
0
LINE
8
Layer 1
10
203.346000
20
635.852000
11
198.846000
21
635.852000
0
LINE
8
Layer 1
10
198.846000
20
635.852000
11
198.846000
21
637.652000
0
LINE
8
Layer 1
10
198.846000
20
637.652000
11
188.346000
21
637.652000
0
LINE
8
Layer 1
10
188.346000
20
637.652000
11
188.346000
21
628.652000
0
LINE
8
Layer 1
10
188.346000
20
628.652000
11
198.846000
21
628.652000
0
LINE
8
Layer 1
10
204.874000
20
676.903000
11
204.874000
21
672.403000
0
LINE
8
Layer 1
10
204.874000
20
672.403000
11
209.374000
21
672.403000
0
LINE
8
Layer 1
10
209.374000
20
672.403000
11
209.374000
21
676.903000
0
LINE
8
Layer 1
10
209.374000
20
676.903000
11
211.329775
21
676.984993
0
LINE
8
Layer 1
10
211.329775
20
676.984993
11
213.261721
21
677.228763
0
LINE
8
Layer 1
10
213.261721
20
677.228763
11
215.160258
21
677.630993
0
LINE
8
Layer 1
10
215.160258
20
677.630993
11
217.015810
21
678.188368
0
LINE
8
Layer 1
10
217.015810
20
678.188368
11
218.818798
21
678.897571
0
LINE
8
Layer 1
10
218.818798
20
678.897571
11
220.559644
21
679.755288
0
LINE
8
Layer 1
10
220.559644
20
679.755288
11
222.228771
21
680.758203
0
LINE
8
Layer 1
10
222.228771
20
680.758203
11
223.816600
21
681.903000
0
LINE
8
Layer 1
10
223.816600
20
681.903000
11
223.816000
21
684.903000
0
LINE
8
Layer 1
10
223.816000
20
684.903000
11
219.316000
21
684.903000
0
LINE
8
Layer 1
10
219.316000
20
684.903000
11
217.137523
21
684.763391
0
LINE
8
Layer 1
10
217.137523
20
684.763391
11
215.020437
21
684.352905
0
LINE
8
Layer 1
10
215.020437
20
684.352905
11
212.987356
21
683.684068
0
LINE
8
Layer 1
10
212.987356
20
683.684068
11
211.060889
21
682.769406
0
LINE
8
Layer 1
10
211.060889
20
682.769406
11
209.263648
21
681.621444
0
LINE
8
Layer 1
10
209.263648
20
681.621444
11
207.618246
21
680.252707
0
LINE
8
Layer 1
10
207.618246
20
680.252707
11
206.147293
21
678.675721
0
LINE
8
Layer 1
10
206.147293
20
678.675721
11
204.873400
21
676.903010
0
LINE
8
Layer 1
10
204.874000
20
666.903000
11
204.874000
21
662.403000
0
LINE
8
Layer 1
10
204.874000
20
662.403000
11
209.374000
21
662.403000
0
LINE
8
Layer 1
10
209.374000
20
662.403000
11
209.374000
21
666.903000
0
LINE
8
Layer 1
10
209.374000
20
666.903000
11
211.329775
21
666.984993
0
LINE
8
Layer 1
10
211.329775
20
666.984993
11
213.261721
21
667.228763
0
LINE
8
Layer 1
10
213.261721
20
667.228763
11
215.160258
21
667.630993
0
LINE
8
Layer 1
10
215.160258
20
667.630993
11
217.015810
21
668.188368
0
LINE
8
Layer 1
10
217.015810
20
668.188368
11
218.818798
21
668.897571
0
LINE
8
Layer 1
10
218.818798
20
668.897571
11
220.559644
21
669.755288
0
LINE
8
Layer 1
10
220.559644
20
669.755288
11
222.228771
21
670.758203
0
LINE
8
Layer 1
10
222.228771
20
670.758203
11
223.816600
21
671.903000
0
LINE
8
Layer 1
10
223.816600
20
671.903000
11
223.816000
21
674.903000
0
LINE
8
Layer 1
10
223.816000
20
674.903000
11
219.316000
21
674.903000
0
LINE
8
Layer 1
10
219.316000
20
674.903000
11
217.137523
21
674.763391
0
LINE
8
Layer 1
10
217.137523
20
674.763391
11
215.020437
21
674.352905
0
LINE
8
Layer 1
10
215.020437
20
674.352905
11
212.987356
21
673.684068
0
LINE
8
Layer 1
10
212.987356
20
673.684068
11
211.060889
21
672.769406
0
LINE
8
Layer 1
10
211.060889
20
672.769406
11
209.263648
21
671.621444
0
LINE
8
Layer 1
10
209.263648
20
671.621444
11
207.618246
21
670.252707
0
LINE
8
Layer 1
10
207.618246
20
670.252707
11
206.147293
21
668.675721
0
LINE
8
Layer 1
10
206.147293
20
668.675721
11
204.873400
21
666.903010
0
LINE
8
Layer 1
10
204.874000
20
656.903000
11
204.874000
21
652.403000
0
LINE
8
Layer 1
10
204.874000
20
652.403000
11
209.374000
21
652.403000
0
LINE
8
Layer 1
10
209.374000
20
652.403000
11
209.374000
21
656.903000
0
LINE
8
Layer 1
10
209.374000
20
656.903000
11
211.329775
21
656.984993
0
LINE
8
Layer 1
10
211.329775
20
656.984993
11
213.261721
21
657.228763
0
LINE
8
Layer 1
10
213.261721
20
657.228763
11
215.160258
21
657.630993
0
LINE
8
Layer 1
10
215.160258
20
657.630993
11
217.015810
21
658.188368
0
LINE
8
Layer 1
10
217.015810
20
658.188368
11
218.818798
21
658.897571
0
LINE
8
Layer 1
10
218.818798
20
658.897571
11
220.559644
21
659.755288
0
LINE
8
Layer 1
10
220.559644
20
659.755288
11
222.228771
21
660.758203
0
LINE
8
Layer 1
10
222.228771
20
660.758203
11
223.816600
21
661.903000
0
LINE
8
Layer 1
10
223.816600
20
661.903000
11
223.816000
21
664.903000
0
LINE
8
Layer 1
10
223.816000
20
664.903000
11
219.316000
21
664.903000
0
LINE
8
Layer 1
10
219.316000
20
664.903000
11
217.137523
21
664.763391
0
LINE
8
Layer 1
10
217.137523
20
664.763391
11
215.020437
21
664.352905
0
LINE
8
Layer 1
10
215.020437
20
664.352905
11
212.987356
21
663.684068
0
LINE
8
Layer 1
10
212.987356
20
663.684068
11
211.060889
21
662.769406
0
LINE
8
Layer 1
10
211.060889
20
662.769406
11
209.263648
21
661.621444
0
LINE
8
Layer 1
10
209.263648
20
661.621444
11
207.618246
21
660.252707
0
LINE
8
Layer 1
10
207.618246
20
660.252707
11
206.147293
21
658.675721
0
LINE
8
Layer 1
10
206.147293
20
658.675721
11
204.873400
21
656.903010
0
LINE
8
Layer 1
10
204.874000
20
646.903000
11
204.874000
21
642.403000
0
LINE
8
Layer 1
10
204.874000
20
642.403000
11
209.374000
21
642.403000
0
LINE
8
Layer 1
10
209.374000
20
642.403000
11
209.374000
21
646.903000
0
LINE
8
Layer 1
10
209.374000
20
646.903000
11
211.329775
21
646.984993
0
LINE
8
Layer 1
10
211.329775
20
646.984993
11
213.261721
21
647.228763
0
LINE
8
Layer 1
10
213.261721
20
647.228763
11
215.160258
21
647.630993
0
LINE
8
Layer 1
10
215.160258
20
647.630993
11
217.015810
21
648.188368
0
LINE
8
Layer 1
10
217.015810
20
648.188368
11
218.818798
21
648.897571
0
LINE
8
Layer 1
10
218.818798
20
648.897571
11
220.559644
21
649.755288
0
LINE
8
Layer 1
10
220.559644
20
649.755288
11
222.228771
21
650.758203
0
LINE
8
Layer 1
10
222.228771
20
650.758203
11
223.816600
21
651.903000
0
LINE
8
Layer 1
10
223.816600
20
651.903000
11
223.816000
21
654.903000
0
LINE
8
Layer 1
10
223.816000
20
654.903000
11
219.316000
21
654.903000
0
LINE
8
Layer 1
10
219.316000
20
654.903000
11
217.137523
21
654.763391
0
LINE
8
Layer 1
10
217.137523
20
654.763391
11
215.020437
21
654.352905
0
LINE
8
Layer 1
10
215.020437
20
654.352905
11
212.987356
21
653.684068
0
LINE
8
Layer 1
10
212.987356
20
653.684068
11
211.060889
21
652.769406
0
LINE
8
Layer 1
10
211.060889
20
652.769406
11
209.263648
21
651.621444
0
LINE
8
Layer 1
10
209.263648
20
651.621444
11
207.618246
21
650.252707
0
LINE
8
Layer 1
10
207.618246
20
650.252707
11
206.147293
21
648.675721
0
LINE
8
Layer 1
10
206.147293
20
648.675721
11
204.873400
21
646.903010
0
LINE
8
Layer 1
10
204.874000
20
636.903000
11
204.874000
21
632.403000
0
LINE
8
Layer 1
10
204.874000
20
632.403000
11
209.374000
21
632.403000
0
LINE
8
Layer 1
10
209.374000
20
632.403000
11
209.374000
21
636.903000
0
LINE
8
Layer 1
10
209.374000
20
636.903000
11
211.329775
21
636.984993
0
LINE
8
Layer 1
10
211.329775
20
636.984993
11
213.261721
21
637.228763
0
LINE
8
Layer 1
10
213.261721
20
637.228763
11
215.160258
21
637.630993
0
LINE
8
Layer 1
10
215.160258
20
637.630993
11
217.015810
21
638.188368
0
LINE
8
Layer 1
10
217.015810
20
638.188368
11
218.818798
21
638.897571
0
LINE
8
Layer 1
10
218.818798
20
638.897571
11
220.559644
21
639.755288
0
LINE
8
Layer 1
10
220.559644
20
639.755288
11
222.228771
21
640.758203
0
LINE
8
Layer 1
10
222.228771
20
640.758203
11
223.816600
21
641.903000
0
LINE
8
Layer 1
10
223.816600
20
641.903000
11
223.816000
21
644.903000
0
LINE
8
Layer 1
10
223.816000
20
644.903000
11
219.316000
21
644.903000
0
LINE
8
Layer 1
10
219.316000
20
644.903000
11
217.137523
21
644.763391
0
LINE
8
Layer 1
10
217.137523
20
644.763391
11
215.020437
21
644.352905
0
LINE
8
Layer 1
10
215.020437
20
644.352905
11
212.987356
21
643.684068
0
LINE
8
Layer 1
10
212.987356
20
643.684068
11
211.060889
21
642.769406
0
LINE
8
Layer 1
10
211.060889
20
642.769406
11
209.263648
21
641.621444
0
LINE
8
Layer 1
10
209.263648
20
641.621444
11
207.618246
21
640.252707
0
LINE
8
Layer 1
10
207.618246
20
640.252707
11
206.147293
21
638.675721
0
LINE
8
Layer 1
10
206.147293
20
638.675721
11
204.873400
21
636.903010
0
LINE
8
Layer 1
10
184.874000
20
676.903000
11
184.874000
21
672.403000
0
LINE
8
Layer 1
10
184.874000
20
672.403000
11
189.374000
21
672.403000
0
LINE
8
Layer 1
10
189.374000
20
672.403000
11
189.374000
21
676.903000
0
LINE
8
Layer 1
10
189.374000
20
676.903000
11
191.329775
21
676.984993
0
LINE
8
Layer 1
10
191.329775
20
676.984993
11
193.261721
21
677.228763
0
LINE
8
Layer 1
10
193.261721
20
677.228763
11
195.160258
21
677.630993
0
LINE
8
Layer 1
10
195.160258
20
677.630993
11
197.015810
21
678.188368
0
LINE
8
Layer 1
10
197.015810
20
678.188368
11
198.818798
21
678.897571
0
LINE
8
Layer 1
10
198.818798
20
678.897571
11
200.559644
21
679.755288
0
LINE
8
Layer 1
10
200.559644
20
679.755288
11
202.228771
21
680.758203
0
LINE
8
Layer 1
10
202.228771
20
680.758203
11
203.816600
21
681.903000
0
LINE
8
Layer 1
10
203.816600
20
681.903000
11
203.816000
21
684.903000
0
LINE
8
Layer 1
10
203.816000
20
684.903000
11
199.316000
21
684.903000
0
LINE
8
Layer 1
10
199.316000
20
684.903000
11
197.137520
21
684.763391
0
LINE
8
Layer 1
10
197.137520
20
684.763391
11
195.020433
21
684.352905
0
LINE
8
Layer 1
10
195.020433
20
684.352905
11
192.987351
21
683.684068
0
LINE
8
Layer 1
10
192.987351
20
683.684068
11
191.060885
21
682.769406
0
LINE
8
Layer 1
10
191.060885
20
682.769406
11
189.263646
21
681.621444
0
LINE
8
Layer 1
10
189.263646
20
681.621444
11
187.618244
21
680.252707
0
LINE
8
Layer 1
10
187.618244
20
680.252707
11
186.147292
21
678.675721
0
LINE
8
Layer 1
10
186.147292
20
678.675721
11
184.873400
21
676.903010
0
LINE
8
Layer 1
10
184.874000
20
666.903000
11
184.874000
21
662.403000
0
LINE
8
Layer 1
10
184.874000
20
662.403000
11
189.374000
21
662.403000
0
LINE
8
Layer 1
10
189.374000
20
662.403000
11
189.374000
21
666.903000
0
LINE
8
Layer 1
10
189.374000
20
666.903000
11
191.329775
21
666.984993
0
LINE
8
Layer 1
10
191.329775
20
666.984993
11
193.261721
21
667.228763
0
LINE
8
Layer 1
10
193.261721
20
667.228763
11
195.160258
21
667.630993
0
LINE
8
Layer 1
10
195.160258
20
667.630993
11
197.015810
21
668.188368
0
LINE
8
Layer 1
10
197.015810
20
668.188368
11
198.818798
21
668.897571
0
LINE
8
Layer 1
10
198.818798
20
668.897571
11
200.559644
21
669.755288
0
LINE
8
Layer 1
10
200.559644
20
669.755288
11
202.228771
21
670.758203
0
LINE
8
Layer 1
10
202.228771
20
670.758203
11
203.816600
21
671.903000
0
LINE
8
Layer 1
10
203.816600
20
671.903000
11
203.816000
21
674.903000
0
LINE
8
Layer 1
10
203.816000
20
674.903000
11
199.316000
21
674.903000
0
LINE
8
Layer 1
10
199.316000
20
674.903000
11
197.137520
21
674.763391
0
LINE
8
Layer 1
10
197.137520
20
674.763391
11
195.020433
21
674.352905
0
LINE
8
Layer 1
10
195.020433
20
674.352905
11
192.987351
21
673.684068
0
LINE
8
Layer 1
10
192.987351
20
673.684068
11
191.060885
21
672.769406
0
LINE
8
Layer 1
10
191.060885
20
672.769406
11
189.263646
21
671.621444
0
LINE
8
Layer 1
10
189.263646
20
671.621444
11
187.618244
21
670.252707
0
LINE
8
Layer 1
10
187.618244
20
670.252707
11
186.147292
21
668.675721
0
LINE
8
Layer 1
10
186.147292
20
668.675721
11
184.873400
21
666.903010
0
LINE
8
Layer 1
10
184.874000
20
656.903000
11
184.874000
21
652.403000
0
LINE
8
Layer 1
10
184.874000
20
652.403000
11
189.374000
21
652.403000
0
LINE
8
Layer 1
10
189.374000
20
652.403000
11
189.374000
21
656.903000
0
LINE
8
Layer 1
10
189.374000
20
656.903000
11
191.329775
21
656.984993
0
LINE
8
Layer 1
10
191.329775
20
656.984993
11
193.261721
21
657.228763
0
LINE
8
Layer 1
10
193.261721
20
657.228763
11
195.160258
21
657.630993
0
LINE
8
Layer 1
10
195.160258
20
657.630993
11
197.015810
21
658.188368
0
LINE
8
Layer 1
10
197.015810
20
658.188368
11
198.818798
21
658.897571
0
LINE
8
Layer 1
10
198.818798
20
658.897571
11
200.559644
21
659.755288
0
LINE
8
Layer 1
10
200.559644
20
659.755288
11
202.228771
21
660.758203
0
LINE
8
Layer 1
10
202.228771
20
660.758203
11
203.816600
21
661.903000
0
LINE
8
Layer 1
10
203.816600
20
661.903000
11
203.816000
21
664.903000
0
LINE
8
Layer 1
10
203.816000
20
664.903000
11
199.316000
21
664.903000
0
LINE
8
Layer 1
10
199.316000
20
664.903000
11
197.137520
21
664.763391
0
LINE
8
Layer 1
10
197.137520
20
664.763391
11
195.020433
21
664.352905
0
LINE
8
Layer 1
10
195.020433
20
664.352905
11
192.987351
21
663.684068
0
LINE
8
Layer 1
10
192.987351
20
663.684068
11
191.060885
21
662.769406
0
LINE
8
Layer 1
10
191.060885
20
662.769406
11
189.263646
21
661.621444
0
LINE
8
Layer 1
10
189.263646
20
661.621444
11
187.618244
21
660.252707
0
LINE
8
Layer 1
10
187.618244
20
660.252707
11
186.147292
21
658.675721
0
LINE
8
Layer 1
10
186.147292
20
658.675721
11
184.873400
21
656.903010
0
LINE
8
Layer 1
10
224.874000
20
676.903000
11
224.874000
21
672.403000
0
LINE
8
Layer 1
10
224.874000
20
672.403000
11
229.374000
21
672.403000
0
LINE
8
Layer 1
10
229.374000
20
672.403000
11
229.374000
21
676.903000
0
LINE
8
Layer 1
10
229.374000
20
676.903000
11
231.329775
21
676.984993
0
LINE
8
Layer 1
10
231.329775
20
676.984993
11
233.261721
21
677.228763
0
LINE
8
Layer 1
10
233.261721
20
677.228763
11
235.160258
21
677.630993
0
LINE
8
Layer 1
10
235.160258
20
677.630993
11
237.015810
21
678.188368
0
LINE
8
Layer 1
10
237.015810
20
678.188368
11
238.818798
21
678.897571
0
LINE
8
Layer 1
10
238.818798
20
678.897571
11
240.559644
21
679.755288
0
LINE
8
Layer 1
10
240.559644
20
679.755288
11
242.228771
21
680.758203
0
LINE
8
Layer 1
10
242.228771
20
680.758203
11
243.816600
21
681.903000
0
LINE
8
Layer 1
10
243.816600
20
681.903000
11
243.816000
21
684.903000
0
LINE
8
Layer 1
10
243.816000
20
684.903000
11
239.316000
21
684.903000
0
LINE
8
Layer 1
10
239.316000
20
684.903000
11
237.137520
21
684.763391
0
LINE
8
Layer 1
10
237.137520
20
684.763391
11
235.020433
21
684.352905
0
LINE
8
Layer 1
10
235.020433
20
684.352905
11
232.987351
21
683.684068
0
LINE
8
Layer 1
10
232.987351
20
683.684068
11
231.060885
21
682.769406
0
LINE
8
Layer 1
10
231.060885
20
682.769406
11
229.263646
21
681.621444
0
LINE
8
Layer 1
10
229.263646
20
681.621444
11
227.618244
21
680.252707
0
LINE
8
Layer 1
10
227.618244
20
680.252707
11
226.147292
21
678.675721
0
LINE
8
Layer 1
10
226.147292
20
678.675721
11
224.873400
21
676.903010
0
LINE
8
Layer 1
10
224.874000
20
666.903000
11
224.874000
21
662.403000
0
LINE
8
Layer 1
10
224.874000
20
662.403000
11
229.374000
21
662.403000
0
LINE
8
Layer 1
10
229.374000
20
662.403000
11
229.374000
21
666.903000
0
LINE
8
Layer 1
10
229.374000
20
666.903000
11
231.329775
21
666.984993
0
LINE
8
Layer 1
10
231.329775
20
666.984993
11
233.261721
21
667.228763
0
LINE
8
Layer 1
10
233.261721
20
667.228763
11
235.160258
21
667.630993
0
LINE
8
Layer 1
10
235.160258
20
667.630993
11
237.015810
21
668.188368
0
LINE
8
Layer 1
10
237.015810
20
668.188368
11
238.818798
21
668.897571
0
LINE
8
Layer 1
10
238.818798
20
668.897571
11
240.559644
21
669.755288
0
LINE
8
Layer 1
10
240.559644
20
669.755288
11
242.228771
21
670.758203
0
LINE
8
Layer 1
10
242.228771
20
670.758203
11
243.816600
21
671.903000
0
LINE
8
Layer 1
10
243.816600
20
671.903000
11
243.816000
21
674.903000
0
LINE
8
Layer 1
10
243.816000
20
674.903000
11
239.316000
21
674.903000
0
LINE
8
Layer 1
10
239.316000
20
674.903000
11
237.137520
21
674.763391
0
LINE
8
Layer 1
10
237.137520
20
674.763391
11
235.020433
21
674.352905
0
LINE
8
Layer 1
10
235.020433
20
674.352905
11
232.987351
21
673.684068
0
LINE
8
Layer 1
10
232.987351
20
673.684068
11
231.060885
21
672.769406
0
LINE
8
Layer 1
10
231.060885
20
672.769406
11
229.263646
21
671.621444
0
LINE
8
Layer 1
10
229.263646
20
671.621444
11
227.618244
21
670.252707
0
LINE
8
Layer 1
10
227.618244
20
670.252707
11
226.147292
21
668.675721
0
LINE
8
Layer 1
10
226.147292
20
668.675721
11
224.873400
21
666.903010
0
LINE
8
Layer 1
10
224.874000
20
656.903000
11
224.874000
21
652.403000
0
LINE
8
Layer 1
10
224.874000
20
652.403000
11
229.374000
21
652.403000
0
LINE
8
Layer 1
10
229.374000
20
652.403000
11
229.374000
21
656.903000
0
LINE
8
Layer 1
10
229.374000
20
656.903000
11
231.329775
21
656.984993
0
LINE
8
Layer 1
10
231.329775
20
656.984993
11
233.261721
21
657.228763
0
LINE
8
Layer 1
10
233.261721
20
657.228763
11
235.160258
21
657.630993
0
LINE
8
Layer 1
10
235.160258
20
657.630993
11
237.015810
21
658.188368
0
LINE
8
Layer 1
10
237.015810
20
658.188368
11
238.818798
21
658.897571
0
LINE
8
Layer 1
10
238.818798
20
658.897571
11
240.559644
21
659.755288
0
LINE
8
Layer 1
10
240.559644
20
659.755288
11
242.228771
21
660.758203
0
LINE
8
Layer 1
10
242.228771
20
660.758203
11
243.816600
21
661.903000
0
LINE
8
Layer 1
10
243.816600
20
661.903000
11
243.816000
21
664.903000
0
LINE
8
Layer 1
10
243.816000
20
664.903000
11
239.316000
21
664.903000
0
LINE
8
Layer 1
10
239.316000
20
664.903000
11
237.137520
21
664.763391
0
LINE
8
Layer 1
10
237.137520
20
664.763391
11
235.020433
21
664.352905
0
LINE
8
Layer 1
10
235.020433
20
664.352905
11
232.987351
21
663.684068
0
LINE
8
Layer 1
10
232.987351
20
663.684068
11
231.060885
21
662.769406
0
LINE
8
Layer 1
10
231.060885
20
662.769406
11
229.263646
21
661.621444
0
LINE
8
Layer 1
10
229.263646
20
661.621444
11
227.618244
21
660.252707
0
LINE
8
Layer 1
10
227.618244
20
660.252707
11
226.147292
21
658.675721
0
LINE
8
Layer 1
10
226.147292
20
658.675721
11
224.873400
21
656.903010
0
LINE
8
Layer 1
10
224.874000
20
646.903000
11
224.874000
21
642.403000
0
LINE
8
Layer 1
10
224.874000
20
642.403000
11
229.374000
21
642.403000
0
LINE
8
Layer 1
10
229.374000
20
642.403000
11
229.374000
21
646.903000
0
LINE
8
Layer 1
10
229.374000
20
646.903000
11
231.329775
21
646.984993
0
LINE
8
Layer 1
10
231.329775
20
646.984993
11
233.261721
21
647.228763
0
LINE
8
Layer 1
10
233.261721
20
647.228763
11
235.160258
21
647.630993
0
LINE
8
Layer 1
10
235.160258
20
647.630993
11
237.015810
21
648.188368
0
LINE
8
Layer 1
10
237.015810
20
648.188368
11
238.818798
21
648.897571
0
LINE
8
Layer 1
10
238.818798
20
648.897571
11
240.559644
21
649.755288
0
LINE
8
Layer 1
10
240.559644
20
649.755288
11
242.228771
21
650.758203
0
LINE
8
Layer 1
10
242.228771
20
650.758203
11
243.816600
21
651.903000
0
LINE
8
Layer 1
10
243.816600
20
651.903000
11
243.816000
21
654.903000
0
LINE
8
Layer 1
10
243.816000
20
654.903000
11
239.316000
21
654.903000
0
LINE
8
Layer 1
10
239.316000
20
654.903000
11
237.137520
21
654.763391
0
LINE
8
Layer 1
10
237.137520
20
654.763391
11
235.020433
21
654.352905
0
LINE
8
Layer 1
10
235.020433
20
654.352905
11
232.987351
21
653.684068
0
LINE
8
Layer 1
10
232.987351
20
653.684068
11
231.060885
21
652.769406
0
LINE
8
Layer 1
10
231.060885
20
652.769406
11
229.263646
21
651.621444
0
LINE
8
Layer 1
10
229.263646
20
651.621444
11
227.618244
21
650.252707
0
LINE
8
Layer 1
10
227.618244
20
650.252707
11
226.147292
21
648.675721
0
LINE
8
Layer 1
10
226.147292
20
648.675721
11
224.873400
21
646.903010
0
LINE
8
Layer 1
10
224.874000
20
636.903000
11
224.874000
21
632.403000
0
LINE
8
Layer 1
10
224.874000
20
632.403000
11
229.374000
21
632.403000
0
LINE
8
Layer 1
10
229.374000
20
632.403000
11
229.374000
21
636.903000
0
LINE
8
Layer 1
10
229.374000
20
636.903000
11
231.329775
21
636.984993
0
LINE
8
Layer 1
10
231.329775
20
636.984993
11
233.261721
21
637.228763
0
LINE
8
Layer 1
10
233.261721
20
637.228763
11
235.160258
21
637.630993
0
LINE
8
Layer 1
10
235.160258
20
637.630993
11
237.015810
21
638.188368
0
LINE
8
Layer 1
10
237.015810
20
638.188368
11
238.818798
21
638.897571
0
LINE
8
Layer 1
10
238.818798
20
638.897571
11
240.559644
21
639.755288
0
LINE
8
Layer 1
10
240.559644
20
639.755288
11
242.228771
21
640.758203
0
LINE
8
Layer 1
10
242.228771
20
640.758203
11
243.816600
21
641.903000
0
LINE
8
Layer 1
10
243.816600
20
641.903000
11
243.816000
21
644.903000
0
LINE
8
Layer 1
10
243.816000
20
644.903000
11
239.316000
21
644.903000
0
LINE
8
Layer 1
10
239.316000
20
644.903000
11
237.137520
21
644.763391
0
LINE
8
Layer 1
10
237.137520
20
644.763391
11
235.020433
21
644.352905
0
LINE
8
Layer 1
10
235.020433
20
644.352905
11
232.987351
21
643.684068
0
LINE
8
Layer 1
10
232.987351
20
643.684068
11
231.060885
21
642.769406
0
LINE
8
Layer 1
10
231.060885
20
642.769406
11
229.263646
21
641.621444
0
LINE
8
Layer 1
10
229.263646
20
641.621444
11
227.618244
21
640.252707
0
LINE
8
Layer 1
10
227.618244
20
640.252707
11
226.147292
21
638.675721
0
LINE
8
Layer 1
10
226.147292
20
638.675721
11
224.873400
21
636.903010
0
LINE
8
Layer 1
10
244.874000
20
676.903000
11
244.874000
21
672.403000
0
LINE
8
Layer 1
10
244.874000
20
672.403000
11
249.374000
21
672.403000
0
LINE
8
Layer 1
10
249.374000
20
672.403000
11
249.374000
21
676.903000
0
LINE
8
Layer 1
10
249.374000
20
676.903000
11
251.329775
21
676.984993
0
LINE
8
Layer 1
10
251.329775
20
676.984993
11
253.261721
21
677.228763
0
LINE
8
Layer 1
10
253.261721
20
677.228763
11
255.160258
21
677.630993
0
LINE
8
Layer 1
10
255.160258
20
677.630993
11
257.015810
21
678.188368
0
LINE
8
Layer 1
10
257.015810
20
678.188368
11
258.818798
21
678.897571
0
LINE
8
Layer 1
10
258.818798
20
678.897571
11
260.559644
21
679.755288
0
LINE
8
Layer 1
10
260.559644
20
679.755288
11
262.228771
21
680.758203
0
LINE
8
Layer 1
10
262.228771
20
680.758203
11
263.816600
21
681.903000
0
LINE
8
Layer 1
10
263.816600
20
681.903000
11
263.816000
21
684.903000
0
LINE
8
Layer 1
10
263.816000
20
684.903000
11
259.316000
21
684.903000
0
LINE
8
Layer 1
10
259.316000
20
684.903000
11
257.137520
21
684.763391
0
LINE
8
Layer 1
10
257.137520
20
684.763391
11
255.020433
21
684.352905
0
LINE
8
Layer 1
10
255.020433
20
684.352905
11
252.987351
21
683.684068
0
LINE
8
Layer 1
10
252.987351
20
683.684068
11
251.060885
21
682.769406
0
LINE
8
Layer 1
10
251.060885
20
682.769406
11
249.263646
21
681.621444
0
LINE
8
Layer 1
10
249.263646
20
681.621444
11
247.618244
21
680.252707
0
LINE
8
Layer 1
10
247.618244
20
680.252707
11
246.147292
21
678.675721
0
LINE
8
Layer 1
10
246.147292
20
678.675721
11
244.873400
21
676.903010
0
LINE
8
Layer 1
10
244.874000
20
666.903000
11
244.874000
21
662.403000
0
LINE
8
Layer 1
10
244.874000
20
662.403000
11
249.374000
21
662.403000
0
LINE
8
Layer 1
10
249.374000
20
662.403000
11
249.374000
21
666.903000
0
LINE
8
Layer 1
10
249.374000
20
666.903000
11
251.329775
21
666.984993
0
LINE
8
Layer 1
10
251.329775
20
666.984993
11
253.261721
21
667.228763
0
LINE
8
Layer 1
10
253.261721
20
667.228763
11
255.160258
21
667.630993
0
LINE
8
Layer 1
10
255.160258
20
667.630993
11
257.015810
21
668.188368
0
LINE
8
Layer 1
10
257.015810
20
668.188368
11
258.818798
21
668.897571
0
LINE
8
Layer 1
10
258.818798
20
668.897571
11
260.559644
21
669.755288
0
LINE
8
Layer 1
10
260.559644
20
669.755288
11
262.228771
21
670.758203
0
LINE
8
Layer 1
10
262.228771
20
670.758203
11
263.816600
21
671.903000
0
LINE
8
Layer 1
10
263.816600
20
671.903000
11
263.816000
21
674.903000
0
LINE
8
Layer 1
10
263.816000
20
674.903000
11
259.316000
21
674.903000
0
LINE
8
Layer 1
10
259.316000
20
674.903000
11
257.137520
21
674.763391
0
LINE
8
Layer 1
10
257.137520
20
674.763391
11
255.020433
21
674.352905
0
LINE
8
Layer 1
10
255.020433
20
674.352905
11
252.987351
21
673.684068
0
LINE
8
Layer 1
10
252.987351
20
673.684068
11
251.060885
21
672.769406
0
LINE
8
Layer 1
10
251.060885
20
672.769406
11
249.263646
21
671.621444
0
LINE
8
Layer 1
10
249.263646
20
671.621444
11
247.618244
21
670.252707
0
LINE
8
Layer 1
10
247.618244
20
670.252707
11
246.147292
21
668.675721
0
LINE
8
Layer 1
10
246.147292
20
668.675721
11
244.873400
21
666.903010
0
LINE
8
Layer 1
10
244.874000
20
656.903000
11
244.874000
21
652.403000
0
LINE
8
Layer 1
10
244.874000
20
652.403000
11
249.374000
21
652.403000
0
LINE
8
Layer 1
10
249.374000
20
652.403000
11
249.374000
21
656.903000
0
LINE
8
Layer 1
10
249.374000
20
656.903000
11
251.329775
21
656.984993
0
LINE
8
Layer 1
10
251.329775
20
656.984993
11
253.261721
21
657.228763
0
LINE
8
Layer 1
10
253.261721
20
657.228763
11
255.160258
21
657.630993
0
LINE
8
Layer 1
10
255.160258
20
657.630993
11
257.015810
21
658.188368
0
LINE
8
Layer 1
10
257.015810
20
658.188368
11
258.818798
21
658.897571
0
LINE
8
Layer 1
10
258.818798
20
658.897571
11
260.559644
21
659.755288
0
LINE
8
Layer 1
10
260.559644
20
659.755288
11
262.228771
21
660.758203
0
LINE
8
Layer 1
10
262.228771
20
660.758203
11
263.816600
21
661.903000
0
LINE
8
Layer 1
10
263.816600
20
661.903000
11
263.816000
21
664.903000
0
LINE
8
Layer 1
10
263.816000
20
664.903000
11
259.316000
21
664.903000
0
LINE
8
Layer 1
10
259.316000
20
664.903000
11
257.137520
21
664.763391
0
LINE
8
Layer 1
10
257.137520
20
664.763391
11
255.020433
21
664.352905
0
LINE
8
Layer 1
10
255.020433
20
664.352905
11
252.987351
21
663.684068
0
LINE
8
Layer 1
10
252.987351
20
663.684068
11
251.060885
21
662.769406
0
LINE
8
Layer 1
10
251.060885
20
662.769406
11
249.263646
21
661.621444
0
LINE
8
Layer 1
10
249.263646
20
661.621444
11
247.618244
21
660.252707
0
LINE
8
Layer 1
10
247.618244
20
660.252707
11
246.147292
21
658.675721
0
LINE
8
Layer 1
10
246.147292
20
658.675721
11
244.873400
21
656.903010
0
LINE
8
Layer 1
10
244.874000
20
646.903000
11
244.874000
21
642.403000
0
LINE
8
Layer 1
10
244.874000
20
642.403000
11
249.374000
21
642.403000
0
LINE
8
Layer 1
10
249.374000
20
642.403000
11
249.374000
21
646.903000
0
LINE
8
Layer 1
10
249.374000
20
646.903000
11
251.329775
21
646.984993
0
LINE
8
Layer 1
10
251.329775
20
646.984993
11
253.261721
21
647.228763
0
LINE
8
Layer 1
10
253.261721
20
647.228763
11
255.160258
21
647.630993
0
LINE
8
Layer 1
10
255.160258
20
647.630993
11
257.015810
21
648.188368
0
LINE
8
Layer 1
10
257.015810
20
648.188368
11
258.818798
21
648.897571
0
LINE
8
Layer 1
10
258.818798
20
648.897571
11
260.559644
21
649.755288
0
LINE
8
Layer 1
10
260.559644
20
649.755288
11
262.228771
21
650.758203
0
LINE
8
Layer 1
10
262.228771
20
650.758203
11
263.816600
21
651.903000
0
LINE
8
Layer 1
10
263.816600
20
651.903000
11
263.816000
21
654.903000
0
LINE
8
Layer 1
10
263.816000
20
654.903000
11
259.316000
21
654.903000
0
LINE
8
Layer 1
10
259.316000
20
654.903000
11
257.137520
21
654.763391
0
LINE
8
Layer 1
10
257.137520
20
654.763391
11
255.020433
21
654.352905
0
LINE
8
Layer 1
10
255.020433
20
654.352905
11
252.987351
21
653.684068
0
LINE
8
Layer 1
10
252.987351
20
653.684068
11
251.060885
21
652.769406
0
LINE
8
Layer 1
10
251.060885
20
652.769406
11
249.263646
21
651.621444
0
LINE
8
Layer 1
10
249.263646
20
651.621444
11
247.618244
21
650.252707
0
LINE
8
Layer 1
10
247.618244
20
650.252707
11
246.147292
21
648.675721
0
LINE
8
Layer 1
10
246.147292
20
648.675721
11
244.873400
21
646.903010
0
LINE
8
Layer 1
10
244.874000
20
636.903000
11
244.874000
21
632.403000
0
LINE
8
Layer 1
10
244.874000
20
632.403000
11
249.374000
21
632.403000
0
LINE
8
Layer 1
10
249.374000
20
632.403000
11
249.374000
21
636.903000
0
LINE
8
Layer 1
10
249.374000
20
636.903000
11
251.329775
21
636.984993
0
LINE
8
Layer 1
10
251.329775
20
636.984993
11
253.261721
21
637.228763
0
LINE
8
Layer 1
10
253.261721
20
637.228763
11
255.160258
21
637.630993
0
LINE
8
Layer 1
10
255.160258
20
637.630993
11
257.015810
21
638.188368
0
LINE
8
Layer 1
10
257.015810
20
638.188368
11
258.818798
21
638.897571
0
LINE
8
Layer 1
10
258.818798
20
638.897571
11
260.559644
21
639.755288
0
LINE
8
Layer 1
10
260.559644
20
639.755288
11
262.228771
21
640.758203
0
LINE
8
Layer 1
10
262.228771
20
640.758203
11
263.816600
21
641.903000
0
LINE
8
Layer 1
10
263.816600
20
641.903000
11
263.816000
21
644.903000
0
LINE
8
Layer 1
10
263.816000
20
644.903000
11
259.316000
21
644.903000
0
LINE
8
Layer 1
10
259.316000
20
644.903000
11
257.137520
21
644.763391
0
LINE
8
Layer 1
10
257.137520
20
644.763391
11
255.020433
21
644.352905
0
LINE
8
Layer 1
10
255.020433
20
644.352905
11
252.987351
21
643.684068
0
LINE
8
Layer 1
10
252.987351
20
643.684068
11
251.060885
21
642.769406
0
LINE
8
Layer 1
10
251.060885
20
642.769406
11
249.263646
21
641.621444
0
LINE
8
Layer 1
10
249.263646
20
641.621444
11
247.618244
21
640.252707
0
LINE
8
Layer 1
10
247.618244
20
640.252707
11
246.147292
21
638.675721
0
LINE
8
Layer 1
10
246.147292
20
638.675721
11
244.873400
21
636.903010
0
LINE
8
Layer 1
10
244.874000
20
626.903000
11
244.874000
21
622.403000
0
LINE
8
Layer 1
10
244.874000
20
622.403000
11
249.374000
21
622.403000
0
LINE
8
Layer 1
10
249.374000
20
622.403000
11
249.374000
21
626.903000
0
LINE
8
Layer 1
10
249.374000
20
626.903000
11
251.329775
21
626.984993
0
LINE
8
Layer 1
10
251.329775
20
626.984993
11
253.261721
21
627.228763
0
LINE
8
Layer 1
10
253.261721
20
627.228763
11
255.160258
21
627.630993
0
LINE
8
Layer 1
10
255.160258
20
627.630993
11
257.015810
21
628.188368
0
LINE
8
Layer 1
10
257.015810
20
628.188368
11
258.818798
21
628.897571
0
LINE
8
Layer 1
10
258.818798
20
628.897571
11
260.559644
21
629.755288
0
LINE
8
Layer 1
10
260.559644
20
629.755288
11
262.228771
21
630.758203
0
LINE
8
Layer 1
10
262.228771
20
630.758203
11
263.816600
21
631.903000
0
LINE
8
Layer 1
10
263.816600
20
631.903000
11
263.816000
21
634.903000
0
LINE
8
Layer 1
10
263.816000
20
634.903000
11
259.316000
21
634.903000
0
LINE
8
Layer 1
10
259.316000
20
634.903000
11
257.137520
21
634.763391
0
LINE
8
Layer 1
10
257.137520
20
634.763391
11
255.020433
21
634.352905
0
LINE
8
Layer 1
10
255.020433
20
634.352905
11
252.987351
21
633.684068
0
LINE
8
Layer 1
10
252.987351
20
633.684068
11
251.060885
21
632.769406
0
LINE
8
Layer 1
10
251.060885
20
632.769406
11
249.263646
21
631.621444
0
LINE
8
Layer 1
10
249.263646
20
631.621444
11
247.618244
21
630.252707
0
LINE
8
Layer 1
10
247.618244
20
630.252707
11
246.147292
21
628.675721
0
LINE
8
Layer 1
10
246.147292
20
628.675721
11
244.873400
21
626.903010
0
LINE
8
Layer 1
10
244.874000
20
616.903000
11
244.874000
21
612.403000
0
LINE
8
Layer 1
10
244.874000
20
612.403000
11
249.374000
21
612.403000
0
LINE
8
Layer 1
10
249.374000
20
612.403000
11
249.374000
21
616.903000
0
LINE
8
Layer 1
10
249.374000
20
616.903000
11
251.329775
21
616.984993
0
LINE
8
Layer 1
10
251.329775
20
616.984993
11
253.261721
21
617.228763
0
LINE
8
Layer 1
10
253.261721
20
617.228763
11
255.160258
21
617.630993
0
LINE
8
Layer 1
10
255.160258
20
617.630993
11
257.015810
21
618.188368
0
LINE
8
Layer 1
10
257.015810
20
618.188368
11
258.818798
21
618.897571
0
LINE
8
Layer 1
10
258.818798
20
618.897571
11
260.559644
21
619.755288
0
LINE
8
Layer 1
10
260.559644
20
619.755288
11
262.228771
21
620.758203
0
LINE
8
Layer 1
10
262.228771
20
620.758203
11
263.816600
21
621.903000
0
LINE
8
Layer 1
10
263.816600
20
621.903000
11
263.816000
21
624.903000
0
LINE
8
Layer 1
10
263.816000
20
624.903000
11
259.316000
21
624.903000
0
LINE
8
Layer 1
10
259.316000
20
624.903000
11
257.137520
21
624.763391
0
LINE
8
Layer 1
10
257.137520
20
624.763391
11
255.020433
21
624.352905
0
LINE
8
Layer 1
10
255.020433
20
624.352905
11
252.987351
21
623.684068
0
LINE
8
Layer 1
10
252.987351
20
623.684068
11
251.060885
21
622.769406
0
LINE
8
Layer 1
10
251.060885
20
622.769406
11
249.263646
21
621.621444
0
LINE
8
Layer 1
10
249.263646
20
621.621444
11
247.618244
21
620.252707
0
LINE
8
Layer 1
10
247.618244
20
620.252707
11
246.147292
21
618.675721
0
LINE
8
Layer 1
10
246.147292
20
618.675721
11
244.873400
21
616.903010
0
LINE
8
Layer 1
10
244.874000
20
606.903000
11
244.874000
21
602.403000
0
LINE
8
Layer 1
10
244.874000
20
602.403000
11
249.374000
21
602.403000
0
LINE
8
Layer 1
10
249.374000
20
602.403000
11
249.374000
21
606.903000
0
LINE
8
Layer 1
10
249.374000
20
606.903000
11
251.329775
21
606.984993
0
LINE
8
Layer 1
10
251.329775
20
606.984993
11
253.261721
21
607.228763
0
LINE
8
Layer 1
10
253.261721
20
607.228763
11
255.160258
21
607.630993
0
LINE
8
Layer 1
10
255.160258
20
607.630993
11
257.015810
21
608.188368
0
LINE
8
Layer 1
10
257.015810
20
608.188368
11
258.818798
21
608.897571
0
LINE
8
Layer 1
10
258.818798
20
608.897571
11
260.559644
21
609.755288
0
LINE
8
Layer 1
10
260.559644
20
609.755288
11
262.228771
21
610.758203
0
LINE
8
Layer 1
10
262.228771
20
610.758203
11
263.816600
21
611.903000
0
LINE
8
Layer 1
10
263.816600
20
611.903000
11
263.816000
21
614.903000
0
LINE
8
Layer 1
10
263.816000
20
614.903000
11
259.316000
21
614.903000
0
LINE
8
Layer 1
10
259.316000
20
614.903000
11
257.137520
21
614.763391
0
LINE
8
Layer 1
10
257.137520
20
614.763391
11
255.020433
21
614.352905
0
LINE
8
Layer 1
10
255.020433
20
614.352905
11
252.987351
21
613.684068
0
LINE
8
Layer 1
10
252.987351
20
613.684068
11
251.060885
21
612.769406
0
LINE
8
Layer 1
10
251.060885
20
612.769406
11
249.263646
21
611.621444
0
LINE
8
Layer 1
10
249.263646
20
611.621444
11
247.618244
21
610.252707
0
LINE
8
Layer 1
10
247.618244
20
610.252707
11
246.147292
21
608.675721
0
LINE
8
Layer 1
10
246.147292
20
608.675721
11
244.873400
21
606.903010
0
LINE
8
Layer 1
10
244.874000
20
596.903000
11
244.874000
21
592.403000
0
LINE
8
Layer 1
10
244.874000
20
592.403000
11
249.374000
21
592.403000
0
LINE
8
Layer 1
10
249.374000
20
592.403000
11
249.374000
21
596.903000
0
LINE
8
Layer 1
10
249.374000
20
596.903000
11
251.329775
21
596.984993
0
LINE
8
Layer 1
10
251.329775
20
596.984993
11
253.261721
21
597.228763
0
LINE
8
Layer 1
10
253.261721
20
597.228763
11
255.160258
21
597.630993
0
LINE
8
Layer 1
10
255.160258
20
597.630993
11
257.015810
21
598.188368
0
LINE
8
Layer 1
10
257.015810
20
598.188368
11
258.818798
21
598.897571
0
LINE
8
Layer 1
10
258.818798
20
598.897571
11
260.559644
21
599.755288
0
LINE
8
Layer 1
10
260.559644
20
599.755288
11
262.228771
21
600.758203
0
LINE
8
Layer 1
10
262.228771
20
600.758203
11
263.816600
21
601.903000
0
LINE
8
Layer 1
10
263.816600
20
601.903000
11
263.816000
21
604.903000
0
LINE
8
Layer 1
10
263.816000
20
604.903000
11
259.316000
21
604.903000
0
LINE
8
Layer 1
10
259.316000
20
604.903000
11
257.137520
21
604.763391
0
LINE
8
Layer 1
10
257.137520
20
604.763391
11
255.020433
21
604.352905
0
LINE
8
Layer 1
10
255.020433
20
604.352905
11
252.987351
21
603.684068
0
LINE
8
Layer 1
10
252.987351
20
603.684068
11
251.060885
21
602.769406
0
LINE
8
Layer 1
10
251.060885
20
602.769406
11
249.263646
21
601.621444
0
LINE
8
Layer 1
10
249.263646
20
601.621444
11
247.618244
21
600.252707
0
LINE
8
Layer 1
10
247.618244
20
600.252707
11
246.147292
21
598.675721
0
LINE
8
Layer 1
10
246.147292
20
598.675721
11
244.873400
21
596.903010
0
LINE
8
Layer 1
10
244.874000
20
586.903000
11
244.874000
21
582.403000
0
LINE
8
Layer 1
10
244.874000
20
582.403000
11
249.374000
21
582.403000
0
LINE
8
Layer 1
10
249.374000
20
582.403000
11
249.374000
21
586.903000
0
LINE
8
Layer 1
10
249.374000
20
586.903000
11
251.329775
21
586.984993
0
LINE
8
Layer 1
10
251.329775
20
586.984993
11
253.261721
21
587.228763
0
LINE
8
Layer 1
10
253.261721
20
587.228763
11
255.160258
21
587.630993
0
LINE
8
Layer 1
10
255.160258
20
587.630993
11
257.015810
21
588.188368
0
LINE
8
Layer 1
10
257.015810
20
588.188368
11
258.818798
21
588.897571
0
LINE
8
Layer 1
10
258.818798
20
588.897571
11
260.559644
21
589.755288
0
LINE
8
Layer 1
10
260.559644
20
589.755288
11
262.228771
21
590.758203
0
LINE
8
Layer 1
10
262.228771
20
590.758203
11
263.816600
21
591.903000
0
LINE
8
Layer 1
10
263.816600
20
591.903000
11
263.816000
21
594.903000
0
LINE
8
Layer 1
10
263.816000
20
594.903000
11
259.316000
21
594.903000
0
LINE
8
Layer 1
10
259.316000
20
594.903000
11
257.137520
21
594.763391
0
LINE
8
Layer 1
10
257.137520
20
594.763391
11
255.020433
21
594.352905
0
LINE
8
Layer 1
10
255.020433
20
594.352905
11
252.987351
21
593.684068
0
LINE
8
Layer 1
10
252.987351
20
593.684068
11
251.060885
21
592.769406
0
LINE
8
Layer 1
10
251.060885
20
592.769406
11
249.263646
21
591.621444
0
LINE
8
Layer 1
10
249.263646
20
591.621444
11
247.618244
21
590.252707
0
LINE
8
Layer 1
10
247.618244
20
590.252707
11
246.147292
21
588.675721
0
LINE
8
Layer 1
10
246.147292
20
588.675721
11
244.873400
21
586.903010
0
LINE
8
Layer 1
10
244.874000
20
576.903000
11
244.874000
21
572.403000
0
LINE
8
Layer 1
10
244.874000
20
572.403000
11
249.374000
21
572.403000
0
LINE
8
Layer 1
10
249.374000
20
572.403000
11
249.374000
21
576.903000
0
LINE
8
Layer 1
10
249.374000
20
576.903000
11
251.329775
21
576.984993
0
LINE
8
Layer 1
10
251.329775
20
576.984993
11
253.261721
21
577.228763
0
LINE
8
Layer 1
10
253.261721
20
577.228763
11
255.160258
21
577.630993
0
LINE
8
Layer 1
10
255.160258
20
577.630993
11
257.015810
21
578.188368
0
LINE
8
Layer 1
10
257.015810
20
578.188368
11
258.818798
21
578.897571
0
LINE
8
Layer 1
10
258.818798
20
578.897571
11
260.559644
21
579.755288
0
LINE
8
Layer 1
10
260.559644
20
579.755288
11
262.228771
21
580.758203
0
LINE
8
Layer 1
10
262.228771
20
580.758203
11
263.816600
21
581.903000
0
LINE
8
Layer 1
10
263.816600
20
581.903000
11
263.816000
21
584.903000
0
LINE
8
Layer 1
10
263.816000
20
584.903000
11
259.316000
21
584.903000
0
LINE
8
Layer 1
10
259.316000
20
584.903000
11
257.137520
21
584.763391
0
LINE
8
Layer 1
10
257.137520
20
584.763391
11
255.020433
21
584.352905
0
LINE
8
Layer 1
10
255.020433
20
584.352905
11
252.987351
21
583.684068
0
LINE
8
Layer 1
10
252.987351
20
583.684068
11
251.060885
21
582.769406
0
LINE
8
Layer 1
10
251.060885
20
582.769406
11
249.263646
21
581.621444
0
LINE
8
Layer 1
10
249.263646
20
581.621444
11
247.618244
21
580.252707
0
LINE
8
Layer 1
10
247.618244
20
580.252707
11
246.147292
21
578.675721
0
LINE
8
Layer 1
10
246.147292
20
578.675721
11
244.873400
21
576.903010
0
LINE
8
Layer 1
10
244.874000
20
566.903000
11
244.874000
21
562.403000
0
LINE
8
Layer 1
10
244.874000
20
562.403000
11
249.374000
21
562.403000
0
LINE
8
Layer 1
10
249.374000
20
562.403000
11
249.374000
21
566.903000
0
LINE
8
Layer 1
10
249.374000
20
566.903000
11
251.329775
21
566.984993
0
LINE
8
Layer 1
10
251.329775
20
566.984993
11
253.261721
21
567.228763
0
LINE
8
Layer 1
10
253.261721
20
567.228763
11
255.160258
21
567.630993
0
LINE
8
Layer 1
10
255.160258
20
567.630993
11
257.015810
21
568.188368
0
LINE
8
Layer 1
10
257.015810
20
568.188368
11
258.818798
21
568.897571
0
LINE
8
Layer 1
10
258.818798
20
568.897571
11
260.559644
21
569.755288
0
LINE
8
Layer 1
10
260.559644
20
569.755288
11
262.228771
21
570.758203
0
LINE
8
Layer 1
10
262.228771
20
570.758203
11
263.816600
21
571.903000
0
LINE
8
Layer 1
10
263.816600
20
571.903000
11
263.816000
21
574.903000
0
LINE
8
Layer 1
10
263.816000
20
574.903000
11
259.316000
21
574.903000
0
LINE
8
Layer 1
10
259.316000
20
574.903000
11
257.137520
21
574.763391
0
LINE
8
Layer 1
10
257.137520
20
574.763391
11
255.020433
21
574.352905
0
LINE
8
Layer 1
10
255.020433
20
574.352905
11
252.987351
21
573.684068
0
LINE
8
Layer 1
10
252.987351
20
573.684068
11
251.060885
21
572.769406
0
LINE
8
Layer 1
10
251.060885
20
572.769406
11
249.263646
21
571.621444
0
LINE
8
Layer 1
10
249.263646
20
571.621444
11
247.618244
21
570.252707
0
LINE
8
Layer 1
10
247.618244
20
570.252707
11
246.147292
21
568.675721
0
LINE
8
Layer 1
10
246.147292
20
568.675721
11
244.873400
21
566.903010
0
LINE
8
Layer 1
10
244.874000
20
556.903000
11
244.874000
21
552.403000
0
LINE
8
Layer 1
10
244.874000
20
552.403000
11
249.374000
21
552.403000
0
LINE
8
Layer 1
10
249.374000
20
552.403000
11
249.374000
21
556.903000
0
LINE
8
Layer 1
10
249.374000
20
556.903000
11
251.329775
21
556.984993
0
LINE
8
Layer 1
10
251.329775
20
556.984993
11
253.261721
21
557.228763
0
LINE
8
Layer 1
10
253.261721
20
557.228763
11
255.160258
21
557.630993
0
LINE
8
Layer 1
10
255.160258
20
557.630993
11
257.015810
21
558.188368
0
LINE
8
Layer 1
10
257.015810
20
558.188368
11
258.818798
21
558.897571
0
LINE
8
Layer 1
10
258.818798
20
558.897571
11
260.559644
21
559.755288
0
LINE
8
Layer 1
10
260.559644
20
559.755288
11
262.228771
21
560.758203
0
LINE
8
Layer 1
10
262.228771
20
560.758203
11
263.816600
21
561.903000
0
LINE
8
Layer 1
10
263.816600
20
561.903000
11
263.816000
21
564.903000
0
LINE
8
Layer 1
10
263.816000
20
564.903000
11
259.316000
21
564.903000
0
LINE
8
Layer 1
10
259.316000
20
564.903000
11
257.137520
21
564.763391
0
LINE
8
Layer 1
10
257.137520
20
564.763391
11
255.020433
21
564.352905
0
LINE
8
Layer 1
10
255.020433
20
564.352905
11
252.987351
21
563.684068
0
LINE
8
Layer 1
10
252.987351
20
563.684068
11
251.060885
21
562.769406
0
LINE
8
Layer 1
10
251.060885
20
562.769406
11
249.263646
21
561.621444
0
LINE
8
Layer 1
10
249.263646
20
561.621444
11
247.618244
21
560.252707
0
LINE
8
Layer 1
10
247.618244
20
560.252707
11
246.147292
21
558.675721
0
LINE
8
Layer 1
10
246.147292
20
558.675721
11
244.873400
21
556.903010
0
LINE
8
Layer 1
10
244.874000
20
556.903000
11
244.874000
21
552.403000
0
LINE
8
Layer 1
10
244.874000
20
552.403000
11
249.374000
21
552.403000
0
LINE
8
Layer 1
10
249.374000
20
552.403000
11
249.374000
21
556.903000
0
LINE
8
Layer 1
10
249.374000
20
556.903000
11
251.329775
21
556.984993
0
LINE
8
Layer 1
10
251.329775
20
556.984993
11
253.261721
21
557.228763
0
LINE
8
Layer 1
10
253.261721
20
557.228763
11
255.160258
21
557.630993
0
LINE
8
Layer 1
10
255.160258
20
557.630993
11
257.015810
21
558.188368
0
LINE
8
Layer 1
10
257.015810
20
558.188368
11
258.818798
21
558.897571
0
LINE
8
Layer 1
10
258.818798
20
558.897571
11
260.559644
21
559.755288
0
LINE
8
Layer 1
10
260.559644
20
559.755288
11
262.228771
21
560.758203
0
LINE
8
Layer 1
10
262.228771
20
560.758203
11
263.816600
21
561.903000
0
LINE
8
Layer 1
10
263.816600
20
561.903000
11
263.816000
21
564.903000
0
LINE
8
Layer 1
10
263.816000
20
564.903000
11
259.316000
21
564.903000
0
LINE
8
Layer 1
10
259.316000
20
564.903000
11
257.137520
21
564.763391
0
LINE
8
Layer 1
10
257.137520
20
564.763391
11
255.020433
21
564.352905
0
LINE
8
Layer 1
10
255.020433
20
564.352905
11
252.987351
21
563.684068
0
LINE
8
Layer 1
10
252.987351
20
563.684068
11
251.060885
21
562.769406
0
LINE
8
Layer 1
10
251.060885
20
562.769406
11
249.263646
21
561.621444
0
LINE
8
Layer 1
10
249.263646
20
561.621444
11
247.618244
21
560.252707
0
LINE
8
Layer 1
10
247.618244
20
560.252707
11
246.147292
21
558.675721
0
LINE
8
Layer 1
10
246.147292
20
558.675721
11
244.873400
21
556.903010
0
LINE
8
Layer 1
10
244.874000
20
546.903000
11
244.874000
21
542.403000
0
LINE
8
Layer 1
10
244.874000
20
542.403000
11
249.374000
21
542.403000
0
LINE
8
Layer 1
10
249.374000
20
542.403000
11
249.374000
21
546.903000
0
LINE
8
Layer 1
10
249.374000
20
546.903000
11
251.329775
21
546.984993
0
LINE
8
Layer 1
10
251.329775
20
546.984993
11
253.261721
21
547.228763
0
LINE
8
Layer 1
10
253.261721
20
547.228763
11
255.160258
21
547.630993
0
LINE
8
Layer 1
10
255.160258
20
547.630993
11
257.015810
21
548.188368
0
LINE
8
Layer 1
10
257.015810
20
548.188368
11
258.818798
21
548.897571
0
LINE
8
Layer 1
10
258.818798
20
548.897571
11
260.559644
21
549.755288
0
LINE
8
Layer 1
10
260.559644
20
549.755288
11
262.228771
21
550.758203
0
LINE
8
Layer 1
10
262.228771
20
550.758203
11
263.816600
21
551.903000
0
LINE
8
Layer 1
10
263.816600
20
551.903000
11
263.816000
21
554.903000
0
LINE
8
Layer 1
10
263.816000
20
554.903000
11
259.316000
21
554.903000
0
LINE
8
Layer 1
10
259.316000
20
554.903000
11
257.137520
21
554.763391
0
LINE
8
Layer 1
10
257.137520
20
554.763391
11
255.020433
21
554.352905
0
LINE
8
Layer 1
10
255.020433
20
554.352905
11
252.987351
21
553.684068
0
LINE
8
Layer 1
10
252.987351
20
553.684068
11
251.060885
21
552.769406
0
LINE
8
Layer 1
10
251.060885
20
552.769406
11
249.263646
21
551.621444
0
LINE
8
Layer 1
10
249.263646
20
551.621444
11
247.618244
21
550.252707
0
LINE
8
Layer 1
10
247.618244
20
550.252707
11
246.147292
21
548.675721
0
LINE
8
Layer 1
10
246.147292
20
548.675721
11
244.873400
21
546.903010
0
LINE
8
Layer 1
10
244.874000
20
536.903000
11
244.874000
21
532.403000
0
LINE
8
Layer 1
10
244.874000
20
532.403000
11
249.374000
21
532.403000
0
LINE
8
Layer 1
10
249.374000
20
532.403000
11
249.374000
21
536.903000
0
LINE
8
Layer 1
10
249.374000
20
536.903000
11
251.329775
21
536.984993
0
LINE
8
Layer 1
10
251.329775
20
536.984993
11
253.261721
21
537.228763
0
LINE
8
Layer 1
10
253.261721
20
537.228763
11
255.160258
21
537.630993
0
LINE
8
Layer 1
10
255.160258
20
537.630993
11
257.015810
21
538.188368
0
LINE
8
Layer 1
10
257.015810
20
538.188368
11
258.818798
21
538.897571
0
LINE
8
Layer 1
10
258.818798
20
538.897571
11
260.559644
21
539.755288
0
LINE
8
Layer 1
10
260.559644
20
539.755288
11
262.228771
21
540.758203
0
LINE
8
Layer 1
10
262.228771
20
540.758203
11
263.816600
21
541.903000
0
LINE
8
Layer 1
10
263.816600
20
541.903000
11
263.816000
21
544.903000
0
LINE
8
Layer 1
10
263.816000
20
544.903000
11
259.316000
21
544.903000
0
LINE
8
Layer 1
10
259.316000
20
544.903000
11
257.137520
21
544.763391
0
LINE
8
Layer 1
10
257.137520
20
544.763391
11
255.020433
21
544.352905
0
LINE
8
Layer 1
10
255.020433
20
544.352905
11
252.987351
21
543.684068
0
LINE
8
Layer 1
10
252.987351
20
543.684068
11
251.060885
21
542.769406
0
LINE
8
Layer 1
10
251.060885
20
542.769406
11
249.263646
21
541.621444
0
LINE
8
Layer 1
10
249.263646
20
541.621444
11
247.618244
21
540.252707
0
LINE
8
Layer 1
10
247.618244
20
540.252707
11
246.147292
21
538.675721
0
LINE
8
Layer 1
10
246.147292
20
538.675721
11
244.873400
21
536.903010
0
LINE
8
Layer 1
10
244.874000
20
526.903000
11
244.874000
21
522.403000
0
LINE
8
Layer 1
10
244.874000
20
522.403000
11
249.374000
21
522.403000
0
LINE
8
Layer 1
10
249.374000
20
522.403000
11
249.374000
21
526.903000
0
LINE
8
Layer 1
10
249.374000
20
526.903000
11
251.329775
21
526.984993
0
LINE
8
Layer 1
10
251.329775
20
526.984993
11
253.261721
21
527.228763
0
LINE
8
Layer 1
10
253.261721
20
527.228763
11
255.160258
21
527.630993
0
LINE
8
Layer 1
10
255.160258
20
527.630993
11
257.015810
21
528.188368
0
LINE
8
Layer 1
10
257.015810
20
528.188368
11
258.818798
21
528.897571
0
LINE
8
Layer 1
10
258.818798
20
528.897571
11
260.559644
21
529.755288
0
LINE
8
Layer 1
10
260.559644
20
529.755288
11
262.228771
21
530.758203
0
LINE
8
Layer 1
10
262.228771
20
530.758203
11
263.816600
21
531.903000
0
LINE
8
Layer 1
10
263.816600
20
531.903000
11
263.816000
21
534.903000
0
LINE
8
Layer 1
10
263.816000
20
534.903000
11
259.316000
21
534.903000
0
LINE
8
Layer 1
10
259.316000
20
534.903000
11
257.137520
21
534.763391
0
LINE
8
Layer 1
10
257.137520
20
534.763391
11
255.020433
21
534.352905
0
LINE
8
Layer 1
10
255.020433
20
534.352905
11
252.987351
21
533.684068
0
LINE
8
Layer 1
10
252.987351
20
533.684068
11
251.060885
21
532.769406
0
LINE
8
Layer 1
10
251.060885
20
532.769406
11
249.263646
21
531.621444
0
LINE
8
Layer 1
10
249.263646
20
531.621444
11
247.618244
21
530.252707
0
LINE
8
Layer 1
10
247.618244
20
530.252707
11
246.147292
21
528.675721
0
LINE
8
Layer 1
10
246.147292
20
528.675721
11
244.873400
21
526.903010
0
LINE
8
Layer 1
10
244.874000
20
516.903000
11
244.874000
21
512.403000
0
LINE
8
Layer 1
10
244.874000
20
512.403000
11
249.374000
21
512.403000
0
LINE
8
Layer 1
10
249.374000
20
512.403000
11
249.374000
21
516.903000
0
LINE
8
Layer 1
10
249.374000
20
516.903000
11
251.329775
21
516.984993
0
LINE
8
Layer 1
10
251.329775
20
516.984993
11
253.261721
21
517.228763
0
LINE
8
Layer 1
10
253.261721
20
517.228763
11
255.160258
21
517.630993
0
LINE
8
Layer 1
10
255.160258
20
517.630993
11
257.015810
21
518.188368
0
LINE
8
Layer 1
10
257.015810
20
518.188368
11
258.818798
21
518.897571
0
LINE
8
Layer 1
10
258.818798
20
518.897571
11
260.559644
21
519.755288
0
LINE
8
Layer 1
10
260.559644
20
519.755288
11
262.228771
21
520.758203
0
LINE
8
Layer 1
10
262.228771
20
520.758203
11
263.816600
21
521.903000
0
LINE
8
Layer 1
10
263.816600
20
521.903000
11
263.816000
21
524.903000
0
LINE
8
Layer 1
10
263.816000
20
524.903000
11
259.316000
21
524.903000
0
LINE
8
Layer 1
10
259.316000
20
524.903000
11
257.137520
21
524.763391
0
LINE
8
Layer 1
10
257.137520
20
524.763391
11
255.020433
21
524.352905
0
LINE
8
Layer 1
10
255.020433
20
524.352905
11
252.987351
21
523.684068
0
LINE
8
Layer 1
10
252.987351
20
523.684068
11
251.060885
21
522.769406
0
LINE
8
Layer 1
10
251.060885
20
522.769406
11
249.263646
21
521.621444
0
LINE
8
Layer 1
10
249.263646
20
521.621444
11
247.618244
21
520.252707
0
LINE
8
Layer 1
10
247.618244
20
520.252707
11
246.147292
21
518.675721
0
LINE
8
Layer 1
10
246.147292
20
518.675721
11
244.873400
21
516.903010
0
LINE
8
Layer 1
10
244.874000
20
506.903000
11
244.874000
21
502.403000
0
LINE
8
Layer 1
10
244.874000
20
502.403000
11
249.374000
21
502.403000
0
LINE
8
Layer 1
10
249.374000
20
502.403000
11
249.374000
21
506.903000
0
LINE
8
Layer 1
10
249.374000
20
506.903000
11
251.329775
21
506.984993
0
LINE
8
Layer 1
10
251.329775
20
506.984993
11
253.261721
21
507.228763
0
LINE
8
Layer 1
10
253.261721
20
507.228763
11
255.160258
21
507.630993
0
LINE
8
Layer 1
10
255.160258
20
507.630993
11
257.015810
21
508.188368
0
LINE
8
Layer 1
10
257.015810
20
508.188368
11
258.818798
21
508.897571
0
LINE
8
Layer 1
10
258.818798
20
508.897571
11
260.559644
21
509.755288
0
LINE
8
Layer 1
10
260.559644
20
509.755288
11
262.228771
21
510.758203
0
LINE
8
Layer 1
10
262.228771
20
510.758203
11
263.816600
21
511.903000
0
LINE
8
Layer 1
10
263.816600
20
511.903000
11
263.816000
21
514.903000
0
LINE
8
Layer 1
10
263.816000
20
514.903000
11
259.316000
21
514.903000
0
LINE
8
Layer 1
10
259.316000
20
514.903000
11
257.137520
21
514.763391
0
LINE
8
Layer 1
10
257.137520
20
514.763391
11
255.020433
21
514.352905
0
LINE
8
Layer 1
10
255.020433
20
514.352905
11
252.987351
21
513.684068
0
LINE
8
Layer 1
10
252.987351
20
513.684068
11
251.060885
21
512.769406
0
LINE
8
Layer 1
10
251.060885
20
512.769406
11
249.263646
21
511.621444
0
LINE
8
Layer 1
10
249.263646
20
511.621444
11
247.618244
21
510.252707
0
LINE
8
Layer 1
10
247.618244
20
510.252707
11
246.147292
21
508.675721
0
LINE
8
Layer 1
10
246.147292
20
508.675721
11
244.873400
21
506.903010
0
LINE
8
Layer 1
10
99.250400
20
516.688000
11
99.250400
21
519.188000
0
LINE
8
Layer 1
10
99.250400
20
519.188000
11
97.250400
21
519.188000
0
LINE
8
Layer 1
10
97.250400
20
519.188000
11
97.250400
21
516.688000
0
LINE
8
Layer 1
10
97.250400
20
516.688000
11
99.250400
21
516.688000
0
LINE
8
Layer 1
10
87.250400
20
510.388000
11
84.750400
21
510.388000
0
LINE
8
Layer 1
10
84.750400
20
510.388000
11
84.750400
21
508.288000
0
LINE
8
Layer 1
10
84.750400
20
508.288000
11
87.250400
21
508.288000
0
LINE
8
Layer 1
10
87.250400
20
508.288000
11
87.250400
21
510.388000
0
LINE
8
Layer 1
10
97.250400
20
506.188000
11
97.250400
21
503.688000
0
LINE
8
Layer 1
10
97.250400
20
503.688000
11
99.250400
21
503.688000
0
LINE
8
Layer 1
10
99.250400
20
503.688000
11
99.250400
21
506.188000
0
LINE
8
Layer 1
10
99.250400
20
506.188000
11
97.250400
21
506.188000
0
LINE
8
Layer 1
10
95.250400
20
516.688000
11
95.250400
21
519.188000
0
LINE
8
Layer 1
10
95.250400
20
519.188000
11
93.250400
21
519.188000
0
LINE
8
Layer 1
10
93.250400
20
519.188000
11
93.250400
21
516.688000
0
LINE
8
Layer 1
10
93.250400
20
516.688000
11
95.250400
21
516.688000
0
LINE
8
Layer 1
10
79.275400
20
520.688000
11
79.275400
21
502.188000
0
LINE
8
Layer 1
10
79.275400
20
502.188000
11
113.275000
21
502.188000
0
LINE
8
Layer 1
10
113.275000
20
502.188000
11
113.275000
21
520.688000
0
LINE
8
Layer 1
10
113.275000
20
520.688000
11
79.275400
21
520.688000
0
LINE
8
Layer 1
10
87.250400
20
514.588000
11
84.750400
21
514.588000
0
LINE
8
Layer 1
10
84.750400
20
514.588000
11
84.750400
21
512.488000
0
LINE
8
Layer 1
10
84.750400
20
512.488000
11
87.250400
21
512.488000
0
LINE
8
Layer 1
10
87.250400
20
512.488000
11
87.250400
21
514.588000
0
LINE
8
Layer 1
10
93.250400
20
506.188000
11
93.250400
21
503.688000
0
LINE
8
Layer 1
10
93.250400
20
503.688000
11
95.250400
21
503.688000
0
LINE
8
Layer 1
10
95.250400
20
503.688000
11
95.250400
21
506.188000
0
LINE
8
Layer 1
10
95.250400
20
506.188000
11
93.250400
21
506.188000
0
LINE
8
Layer 1
10
79.275400
20
540.688000
11
79.275400
21
522.188000
0
LINE
8
Layer 1
10
79.275400
20
522.188000
11
113.275000
21
522.188000
0
LINE
8
Layer 1
10
113.275000
20
522.188000
11
113.275000
21
540.688000
0
LINE
8
Layer 1
10
113.275000
20
540.688000
11
79.275400
21
540.688000
0
LINE
8
Layer 1
10
31.405400
20
638.271000
11
31.405400
21
640.771000
0
LINE
8
Layer 1
10
31.405400
20
640.771000
11
29.405400
21
640.771000
0
LINE
8
Layer 1
10
29.405400
20
640.771000
11
29.405400
21
638.271000
0
LINE
8
Layer 1
10
29.405400
20
638.271000
11
31.405400
21
638.271000
0
LINE
8
Layer 1
10
19.405300
20
631.971000
11
16.905300
21
631.971000
0
LINE
8
Layer 1
10
16.905300
20
631.971000
11
16.905300
21
629.871000
0
LINE
8
Layer 1
10
16.905300
20
629.871000
11
19.405300
21
629.871000
0
LINE
8
Layer 1
10
19.405300
20
629.871000
11
19.405300
21
631.971000
0
LINE
8
Layer 1
10
29.405400
20
627.771000
11
29.405400
21
625.271000
0
LINE
8
Layer 1
10
29.405400
20
625.271000
11
31.405400
21
625.271000
0
LINE
8
Layer 1
10
31.405400
20
625.271000
11
31.405400
21
627.771000
0
LINE
8
Layer 1
10
31.405400
20
627.771000
11
29.405400
21
627.771000
0
LINE
8
Layer 1
10
27.405400
20
638.271000
11
27.405400
21
640.771000
0
LINE
8
Layer 1
10
27.405400
20
640.771000
11
25.405300
21
640.771000
0
LINE
8
Layer 1
10
25.405300
20
640.771000
11
25.405300
21
638.271000
0
LINE
8
Layer 1
10
25.405300
20
638.271000
11
27.405400
21
638.271000
0
LINE
8
Layer 1
10
11.430200
20
642.271000
11
11.430200
21
623.771000
0
LINE
8
Layer 1
10
11.430200
20
623.771000
11
45.430500
21
623.771000
0
LINE
8
Layer 1
10
45.430500
20
623.771000
11
45.430500
21
642.271000
0
LINE
8
Layer 1
10
45.430500
20
642.271000
11
11.430200
21
642.271000
0
LINE
8
Layer 1
10
19.405300
20
636.171000
11
16.905300
21
636.171000
0
LINE
8
Layer 1
10
16.905300
20
636.171000
11
16.905300
21
634.071000
0
LINE
8
Layer 1
10
16.905300
20
634.071000
11
19.405300
21
634.071000
0
LINE
8
Layer 1
10
19.405300
20
634.071000
11
19.405300
21
636.171000
0
LINE
8
Layer 1
10
25.405300
20
627.771000
11
25.405300
21
625.271000
0
LINE
8
Layer 1
10
25.405300
20
625.271000
11
27.405400
21
625.271000
0
LINE
8
Layer 1
10
27.405400
20
625.271000
11
27.405400
21
627.771000
0
LINE
8
Layer 1
10
27.405400
20
627.771000
11
25.405300
21
627.771000
0
LINE
8
Layer 1
10
11.430200
20
662.271000
11
11.430200
21
643.771000
0
LINE
8
Layer 1
10
11.430200
20
643.771000
11
45.430500
21
643.771000
0
LINE
8
Layer 1
10
45.430500
20
643.771000
11
45.430500
21
662.271000
0
LINE
8
Layer 1
10
45.430500
20
662.271000
11
11.430200
21
662.271000
0
LINE
8
Layer 1
10
31.405400
20
518.270000
11
31.405400
21
520.770000
0
LINE
8
Layer 1
10
31.405400
20
520.770000
11
29.405400
21
520.770000
0
LINE
8
Layer 1
10
29.405400
20
520.770000
11
29.405400
21
518.270000
0
LINE
8
Layer 1
10
29.405400
20
518.270000
11
31.405400
21
518.270000
0
LINE
8
Layer 1
10
19.405300
20
511.970000
11
16.905300
21
511.970000
0
LINE
8
Layer 1
10
16.905300
20
511.970000
11
16.905300
21
509.870000
0
LINE
8
Layer 1
10
16.905300
20
509.870000
11
19.405300
21
509.870000
0
LINE
8
Layer 1
10
19.405300
20
509.870000
11
19.405300
21
511.970000
0
LINE
8
Layer 1
10
29.405400
20
507.770000
11
29.405400
21
505.270000
0
LINE
8
Layer 1
10
29.405400
20
505.270000
11
31.405400
21
505.270000
0
LINE
8
Layer 1
10
31.405400
20
505.270000
11
31.405400
21
507.770000
0
LINE
8
Layer 1
10
31.405400
20
507.770000
11
29.405400
21
507.770000
0
LINE
8
Layer 1
10
27.405400
20
518.270000
11
27.405400
21
520.770000
0
LINE
8
Layer 1
10
27.405400
20
520.770000
11
25.405300
21
520.770000
0
LINE
8
Layer 1
10
25.405300
20
520.770000
11
25.405300
21
518.270000
0
LINE
8
Layer 1
10
25.405300
20
518.270000
11
27.405400
21
518.270000
0
LINE
8
Layer 1
10
11.430200
20
522.270000
11
11.430200
21
503.770000
0
LINE
8
Layer 1
10
11.430200
20
503.770000
11
45.430500
21
503.770000
0
LINE
8
Layer 1
10
45.430500
20
503.770000
11
45.430500
21
522.270000
0
LINE
8
Layer 1
10
45.430500
20
522.270000
11
11.430200
21
522.270000
0
LINE
8
Layer 1
10
19.405300
20
516.170000
11
16.905300
21
516.170000
0
LINE
8
Layer 1
10
16.905300
20
516.170000
11
16.905300
21
514.070000
0
LINE
8
Layer 1
10
16.905300
20
514.070000
11
19.405300
21
514.070000
0
LINE
8
Layer 1
10
19.405300
20
514.070000
11
19.405300
21
516.170000
0
LINE
8
Layer 1
10
25.405300
20
507.770000
11
25.405300
21
505.270000
0
LINE
8
Layer 1
10
25.405300
20
505.270000
11
27.405400
21
505.270000
0
LINE
8
Layer 1
10
27.405400
20
505.270000
11
27.405400
21
507.770000
0
LINE
8
Layer 1
10
27.405400
20
507.770000
11
25.405300
21
507.770000
0
LINE
8
Layer 1
10
11.430200
20
542.270000
11
11.430200
21
523.770000
0
LINE
8
Layer 1
10
11.430200
20
523.770000
11
45.430500
21
523.770000
0
LINE
8
Layer 1
10
45.430500
20
523.770000
11
45.430500
21
542.270000
0
LINE
8
Layer 1
10
45.430500
20
542.270000
11
11.430200
21
542.270000
0
LINE
8
Layer 1
10
58.094700
20
520.443000
11
55.594700
21
520.443000
0
LINE
8
Layer 1
10
55.594700
20
520.443000
11
55.594700
21
518.443000
0
LINE
8
Layer 1
10
55.594700
20
518.443000
11
58.094700
21
518.443000
0
LINE
8
Layer 1
10
58.094700
20
518.443000
11
58.094700
21
516.443000
0
LINE
8
Layer 1
10
58.094700
20
516.443000
11
55.594700
21
516.443000
0
LINE
8
Layer 1
10
55.594700
20
516.443000
11
55.594700
21
514.443000
0
LINE
8
Layer 1
10
55.594700
20
514.443000
11
52.094600
21
514.443000
0
LINE
8
Layer 1
10
52.094600
20
514.443000
11
52.094600
21
516.443000
0
LINE
8
Layer 1
10
52.094600
20
516.443000
11
49.594600
21
516.443000
0
LINE
8
Layer 1
10
49.594600
20
516.443000
11
49.594600
21
518.443000
0
LINE
8
Layer 1
10
49.594600
20
518.443000
11
52.094600
21
518.443000
0
LINE
8
Layer 1
10
52.094600
20
518.443000
11
52.094600
21
520.443000
0
LINE
8
Layer 1
10
52.094600
20
520.443000
11
49.594600
21
520.443000
0
LINE
8
Layer 1
10
49.594600
20
520.443000
11
49.594600
21
522.443000
0
LINE
8
Layer 1
10
49.594600
20
522.443000
11
52.094600
21
522.443000
0
LINE
8
Layer 1
10
52.094600
20
522.443000
11
52.094600
21
524.443000
0
LINE
8
Layer 1
10
52.094600
20
524.443000
11
55.594700
21
524.443000
0
LINE
8
Layer 1
10
55.594700
20
524.443000
11
55.594700
21
522.443000
0
LINE
8
Layer 1
10
55.594700
20
522.443000
11
58.094700
21
522.443000
0
LINE
8
Layer 1
10
58.094700
20
522.443000
11
58.094700
21
520.443000
0
LINE
8
Layer 1
10
58.094700
20
511.443000
11
55.594700
21
511.443000
0
LINE
8
Layer 1
10
55.594700
20
511.443000
11
55.594700
21
513.443000
0
LINE
8
Layer 1
10
55.594700
20
513.443000
11
52.094700
21
513.443000
0
LINE
8
Layer 1
10
52.094700
20
513.443000
11
52.094700
21
511.443000
0
LINE
8
Layer 1
10
52.094700
20
511.443000
11
49.594600
21
511.443000
0
LINE
8
Layer 1
10
49.594600
20
511.443000
11
49.594600
21
509.443000
0
LINE
8
Layer 1
10
49.594600
20
509.443000
11
52.094700
21
509.443000
0
LINE
8
Layer 1
10
52.094700
20
509.443000
11
52.094700
21
507.443000
0
LINE
8
Layer 1
10
52.094700
20
507.443000
11
49.594600
21
507.443000
0
LINE
8
Layer 1
10
49.594600
20
507.443000
11
49.594600
21
505.443000
0
LINE
8
Layer 1
10
49.594600
20
505.443000
11
52.094700
21
505.443000
0
LINE
8
Layer 1
10
52.094700
20
505.443000
11
52.094700
21
503.443000
0
LINE
8
Layer 1
10
52.094700
20
503.443000
11
55.594700
21
503.443000
0
LINE
8
Layer 1
10
55.594700
20
503.443000
11
55.594700
21
505.443000
0
LINE
8
Layer 1
10
55.594700
20
505.443000
11
58.094700
21
505.443000
0
LINE
8
Layer 1
10
58.094700
20
505.443000
11
58.094700
21
507.443000
0
LINE
8
Layer 1
10
58.094700
20
507.443000
11
55.594700
21
507.443000
0
LINE
8
Layer 1
10
55.594700
20
507.443000
11
55.594700
21
509.443000
0
LINE
8
Layer 1
10
55.594700
20
509.443000
11
58.094700
21
509.443000
0
LINE
8
Layer 1
10
58.094700
20
509.443000
11
58.094700
21
511.443000
0
LINE
8
Layer 1
10
72.766000
20
505.443000
11
75.266000
21
505.443000
0
LINE
8
Layer 1
10
75.266000
20
505.443000
11
75.266000
21
503.443000
0
LINE
8
Layer 1
10
75.266000
20
503.443000
11
59.765900
21
503.443000
0
LINE
8
Layer 1
10
59.765900
20
503.443000
11
59.765900
21
505.443000
0
LINE
8
Layer 1
10
59.765900
20
505.443000
11
62.265900
21
505.443000
0
LINE
8
Layer 1
10
62.265900
20
505.443000
11
62.265900
21
507.443000
0
LINE
8
Layer 1
10
62.265900
20
507.443000
11
59.765900
21
507.443000
0
LINE
8
Layer 1
10
59.765900
20
507.443000
11
59.765900
21
509.443000
0
LINE
8
Layer 1
10
59.765900
20
509.443000
11
62.265900
21
509.443000
0
LINE
8
Layer 1
10
62.265900
20
509.443000
11
62.265900
21
511.443000
0
LINE
8
Layer 1
10
62.265900
20
511.443000
11
59.765900
21
511.443000
0
LINE
8
Layer 1
10
59.765900
20
511.443000
11
59.765900
21
513.443000
0
LINE
8
Layer 1
10
59.765900
20
513.443000
11
75.266000
21
513.443000
0
LINE
8
Layer 1
10
75.266000
20
513.443000
11
75.266000
21
511.443000
0
LINE
8
Layer 1
10
75.266000
20
511.443000
11
72.766000
21
511.443000
0
LINE
8
Layer 1
10
72.766000
20
511.443000
11
72.766000
21
509.443000
0
LINE
8
Layer 1
10
72.766000
20
509.443000
11
75.266000
21
509.443000
0
LINE
8
Layer 1
10
75.266000
20
509.443000
11
75.266000
21
507.443000
0
LINE
8
Layer 1
10
75.266000
20
507.443000
11
72.766000
21
507.443000
0
LINE
8
Layer 1
10
72.766000
20
507.443000
11
72.766000
21
505.443000
0
LINE
8
Layer 1
10
60.153000
20
514.097000
11
60.153000
21
524.597000
0
LINE
8
Layer 1
10
60.153000
20
524.597000
11
66.153100
21
524.597000
0
LINE
8
Layer 1
10
66.153100
20
524.597000
11
66.153100
21
522.497000
0
LINE
8
Layer 1
10
66.153100
20
522.497000
11
68.653100
21
522.497000
0
LINE
8
Layer 1
10
68.653100
20
522.497000
11
68.653100
21
520.397000
0
LINE
8
Layer 1
10
68.653100
20
520.397000
11
66.153100
21
520.397000
0
LINE
8
Layer 1
10
66.153100
20
520.397000
11
66.153100
21
518.297000
0
LINE
8
Layer 1
10
66.153100
20
518.297000
11
68.653100
21
518.297000
0
LINE
8
Layer 1
10
68.653100
20
518.297000
11
68.653100
21
516.197000
0
LINE
8
Layer 1
10
68.653100
20
516.197000
11
66.153100
21
516.197000
0
LINE
8
Layer 1
10
66.153100
20
516.197000
11
66.153100
21
514.097000
0
LINE
8
Layer 1
10
66.153100
20
514.097000
11
60.153000
21
514.097000
0
LINE
8
Layer 1
10
58.094700
20
545.444000
11
55.594700
21
545.444000
0
LINE
8
Layer 1
10
55.594700
20
545.444000
11
55.594700
21
543.443000
0
LINE
8
Layer 1
10
55.594700
20
543.443000
11
58.094700
21
543.443000
0
LINE
8
Layer 1
10
58.094700
20
543.443000
11
58.094700
21
541.443000
0
LINE
8
Layer 1
10
58.094700
20
541.443000
11
55.594700
21
541.443000
0
LINE
8
Layer 1
10
55.594700
20
541.443000
11
55.594700
21
539.443000
0
LINE
8
Layer 1
10
55.594700
20
539.443000
11
52.094600
21
539.443000
0
LINE
8
Layer 1
10
52.094600
20
539.443000
11
52.094600
21
541.443000
0
LINE
8
Layer 1
10
52.094600
20
541.443000
11
49.594600
21
541.443000
0
LINE
8
Layer 1
10
49.594600
20
541.443000
11
49.594600
21
543.443000
0
LINE
8
Layer 1
10
49.594600
20
543.443000
11
52.094600
21
543.443000
0
LINE
8
Layer 1
10
52.094600
20
543.443000
11
52.094600
21
545.444000
0
LINE
8
Layer 1
10
52.094600
20
545.444000
11
49.594600
21
545.444000
0
LINE
8
Layer 1
10
49.594600
20
545.444000
11
49.594600
21
547.444000
0
LINE
8
Layer 1
10
49.594600
20
547.444000
11
52.094600
21
547.444000
0
LINE
8
Layer 1
10
52.094600
20
547.444000
11
52.094600
21
549.444000
0
LINE
8
Layer 1
10
52.094600
20
549.444000
11
55.594700
21
549.444000
0
LINE
8
Layer 1
10
55.594700
20
549.444000
11
55.594700
21
547.444000
0
LINE
8
Layer 1
10
55.594700
20
547.444000
11
58.094700
21
547.444000
0
LINE
8
Layer 1
10
58.094700
20
547.444000
11
58.094700
21
545.444000
0
LINE
8
Layer 1
10
58.094700
20
536.444000
11
55.594700
21
536.444000
0
LINE
8
Layer 1
10
55.594700
20
536.444000
11
55.594700
21
538.444000
0
LINE
8
Layer 1
10
55.594700
20
538.444000
11
52.094700
21
538.444000
0
LINE
8
Layer 1
10
52.094700
20
538.444000
11
52.094700
21
536.444000
0
LINE
8
Layer 1
10
52.094700
20
536.444000
11
49.594600
21
536.444000
0
LINE
8
Layer 1
10
49.594600
20
536.444000
11
49.594600
21
534.443000
0
LINE
8
Layer 1
10
49.594600
20
534.443000
11
52.094700
21
534.443000
0
LINE
8
Layer 1
10
52.094700
20
534.443000
11
52.094700
21
532.443000
0
LINE
8
Layer 1
10
52.094700
20
532.443000
11
49.594600
21
532.443000
0
LINE
8
Layer 1
10
49.594600
20
532.443000
11
49.594600
21
530.443000
0
LINE
8
Layer 1
10
49.594600
20
530.443000
11
52.094700
21
530.443000
0
LINE
8
Layer 1
10
52.094700
20
530.443000
11
52.094700
21
528.443000
0
LINE
8
Layer 1
10
52.094700
20
528.443000
11
55.594700
21
528.443000
0
LINE
8
Layer 1
10
55.594700
20
528.443000
11
55.594700
21
530.443000
0
LINE
8
Layer 1
10
55.594700
20
530.443000
11
58.094700
21
530.443000
0
LINE
8
Layer 1
10
58.094700
20
530.443000
11
58.094700
21
532.443000
0
LINE
8
Layer 1
10
58.094700
20
532.443000
11
55.594700
21
532.443000
0
LINE
8
Layer 1
10
55.594700
20
532.443000
11
55.594700
21
534.443000
0
LINE
8
Layer 1
10
55.594700
20
534.443000
11
58.094700
21
534.443000
0
LINE
8
Layer 1
10
58.094700
20
534.443000
11
58.094700
21
536.444000
0
LINE
8
Layer 1
10
72.766000
20
530.443000
11
75.266000
21
530.443000
0
LINE
8
Layer 1
10
75.266000
20
530.443000
11
75.266000
21
528.443000
0
LINE
8
Layer 1
10
75.266000
20
528.443000
11
59.765900
21
528.443000
0
LINE
8
Layer 1
10
59.765900
20
528.443000
11
59.765900
21
530.443000
0
LINE
8
Layer 1
10
59.765900
20
530.443000
11
62.265900
21
530.443000
0
LINE
8
Layer 1
10
62.265900
20
530.443000
11
62.265900
21
532.443000
0
LINE
8
Layer 1
10
62.265900
20
532.443000
11
59.765900
21
532.443000
0
LINE
8
Layer 1
10
59.765900
20
532.443000
11
59.765900
21
534.443000
0
LINE
8
Layer 1
10
59.765900
20
534.443000
11
62.265900
21
534.443000
0
LINE
8
Layer 1
10
62.265900
20
534.443000
11
62.265900
21
536.443000
0
LINE
8
Layer 1
10
62.265900
20
536.443000
11
59.765900
21
536.443000
0
LINE
8
Layer 1
10
59.765900
20
536.443000
11
59.765900
21
538.443000
0
LINE
8
Layer 1
10
59.765900
20
538.443000
11
75.266000
21
538.443000
0
LINE
8
Layer 1
10
75.266000
20
538.443000
11
75.266000
21
536.443000
0
LINE
8
Layer 1
10
75.266000
20
536.443000
11
72.766000
21
536.443000
0
LINE
8
Layer 1
10
72.766000
20
536.443000
11
72.766000
21
534.443000
0
LINE
8
Layer 1
10
72.766000
20
534.443000
11
75.266000
21
534.443000
0
LINE
8
Layer 1
10
75.266000
20
534.443000
11
75.266000
21
532.443000
0
LINE
8
Layer 1
10
75.266000
20
532.443000
11
72.766000
21
532.443000
0
LINE
8
Layer 1
10
72.766000
20
532.443000
11
72.766000
21
530.443000
0
LINE
8
Layer 1
10
60.153000
20
539.097000
11
60.153000
21
549.597000
0
LINE
8
Layer 1
10
60.153000
20
549.597000
11
66.153100
21
549.597000
0
LINE
8
Layer 1
10
66.153100
20
549.597000
11
66.153100
21
547.497000
0
LINE
8
Layer 1
10
66.153100
20
547.497000
11
68.653100
21
547.497000
0
LINE
8
Layer 1
10
68.653100
20
547.497000
11
68.653100
21
545.397000
0
LINE
8
Layer 1
10
68.653100
20
545.397000
11
66.153100
21
545.397000
0
LINE
8
Layer 1
10
66.153100
20
545.397000
11
66.153100
21
543.297000
0
LINE
8
Layer 1
10
66.153100
20
543.297000
11
68.653100
21
543.297000
0
LINE
8
Layer 1
10
68.653100
20
543.297000
11
68.653100
21
541.197000
0
LINE
8
Layer 1
10
68.653100
20
541.197000
11
66.153100
21
541.197000
0
LINE
8
Layer 1
10
66.153100
20
541.197000
11
66.153100
21
539.097000
0
LINE
8
Layer 1
10
66.153100
20
539.097000
11
60.153000
21
539.097000
0
LINE
8
Layer 1
10
58.094700
20
570.444000
11
55.594700
21
570.444000
0
LINE
8
Layer 1
10
55.594700
20
570.444000
11
55.594700
21
568.444000
0
LINE
8
Layer 1
10
55.594700
20
568.444000
11
58.094700
21
568.444000
0
LINE
8
Layer 1
10
58.094700
20
568.444000
11
58.094700
21
566.444000
0
LINE
8
Layer 1
10
58.094700
20
566.444000
11
55.594700
21
566.444000
0
LINE
8
Layer 1
10
55.594700
20
566.444000
11
55.594700
21
564.444000
0
LINE
8
Layer 1
10
55.594700
20
564.444000
11
52.094600
21
564.444000
0
LINE
8
Layer 1
10
52.094600
20
564.444000
11
52.094600
21
566.444000
0
LINE
8
Layer 1
10
52.094600
20
566.444000
11
49.594600
21
566.444000
0
LINE
8
Layer 1
10
49.594600
20
566.444000
11
49.594600
21
568.444000
0
LINE
8
Layer 1
10
49.594600
20
568.444000
11
52.094600
21
568.444000
0
LINE
8
Layer 1
10
52.094600
20
568.444000
11
52.094600
21
570.444000
0
LINE
8
Layer 1
10
52.094600
20
570.444000
11
49.594600
21
570.444000
0
LINE
8
Layer 1
10
49.594600
20
570.444000
11
49.594600
21
572.444000
0
LINE
8
Layer 1
10
49.594600
20
572.444000
11
52.094600
21
572.444000
0
LINE
8
Layer 1
10
52.094600
20
572.444000
11
52.094600
21
574.444000
0
LINE
8
Layer 1
10
52.094600
20
574.444000
11
55.594700
21
574.444000
0
LINE
8
Layer 1
10
55.594700
20
574.444000
11
55.594700
21
572.444000
0
LINE
8
Layer 1
10
55.594700
20
572.444000
11
58.094700
21
572.444000
0
LINE
8
Layer 1
10
58.094700
20
572.444000
11
58.094700
21
570.444000
0
LINE
8
Layer 1
10
58.094700
20
561.444000
11
55.594700
21
561.444000
0
LINE
8
Layer 1
10
55.594700
20
561.444000
11
55.594700
21
563.444000
0
LINE
8
Layer 1
10
55.594700
20
563.444000
11
52.094700
21
563.444000
0
LINE
8
Layer 1
10
52.094700
20
563.444000
11
52.094700
21
561.444000
0
LINE
8
Layer 1
10
52.094700
20
561.444000
11
49.594600
21
561.444000
0
LINE
8
Layer 1
10
49.594600
20
561.444000
11
49.594600
21
559.444000
0
LINE
8
Layer 1
10
49.594600
20
559.444000
11
52.094700
21
559.444000
0
LINE
8
Layer 1
10
52.094700
20
559.444000
11
52.094700
21
557.444000
0
LINE
8
Layer 1
10
52.094700
20
557.444000
11
49.594600
21
557.444000
0
LINE
8
Layer 1
10
49.594600
20
557.444000
11
49.594600
21
555.444000
0
LINE
8
Layer 1
10
49.594600
20
555.444000
11
52.094700
21
555.444000
0
LINE
8
Layer 1
10
52.094700
20
555.444000
11
52.094700
21
553.444000
0
LINE
8
Layer 1
10
52.094700
20
553.444000
11
55.594700
21
553.444000
0
LINE
8
Layer 1
10
55.594700
20
553.444000
11
55.594700
21
555.444000
0
LINE
8
Layer 1
10
55.594700
20
555.444000
11
58.094700
21
555.444000
0
LINE
8
Layer 1
10
58.094700
20
555.444000
11
58.094700
21
557.444000
0
LINE
8
Layer 1
10
58.094700
20
557.444000
11
55.594700
21
557.444000
0
LINE
8
Layer 1
10
55.594700
20
557.444000
11
55.594700
21
559.444000
0
LINE
8
Layer 1
10
55.594700
20
559.444000
11
58.094700
21
559.444000
0
LINE
8
Layer 1
10
58.094700
20
559.444000
11
58.094700
21
561.444000
0
LINE
8
Layer 1
10
72.766000
20
555.443000
11
75.266000
21
555.443000
0
LINE
8
Layer 1
10
75.266000
20
555.443000
11
75.266000
21
553.443000
0
LINE
8
Layer 1
10
75.266000
20
553.443000
11
59.765900
21
553.443000
0
LINE
8
Layer 1
10
59.765900
20
553.443000
11
59.765900
21
555.443000
0
LINE
8
Layer 1
10
59.765900
20
555.443000
11
62.265900
21
555.443000
0
LINE
8
Layer 1
10
62.265900
20
555.443000
11
62.265900
21
557.443000
0
LINE
8
Layer 1
10
62.265900
20
557.443000
11
59.765900
21
557.443000
0
LINE
8
Layer 1
10
59.765900
20
557.443000
11
59.765900
21
559.444000
0
LINE
8
Layer 1
10
59.765900
20
559.444000
11
62.265900
21
559.444000
0
LINE
8
Layer 1
10
62.265900
20
559.444000
11
62.265900
21
561.444000
0
LINE
8
Layer 1
10
62.265900
20
561.444000
11
59.765900
21
561.444000
0
LINE
8
Layer 1
10
59.765900
20
561.444000
11
59.765900
21
563.444000
0
LINE
8
Layer 1
10
59.765900
20
563.444000
11
75.266000
21
563.444000
0
LINE
8
Layer 1
10
75.266000
20
563.444000
11
75.266000
21
561.444000
0
LINE
8
Layer 1
10
75.266000
20
561.444000
11
72.766000
21
561.444000
0
LINE
8
Layer 1
10
72.766000
20
561.444000
11
72.766000
21
559.444000
0
LINE
8
Layer 1
10
72.766000
20
559.444000
11
75.266000
21
559.444000
0
LINE
8
Layer 1
10
75.266000
20
559.444000
11
75.266000
21
557.443000
0
LINE
8
Layer 1
10
75.266000
20
557.443000
11
72.766000
21
557.443000
0
LINE
8
Layer 1
10
72.766000
20
557.443000
11
72.766000
21
555.443000
0
LINE
8
Layer 1
10
60.153000
20
564.098000
11
60.153000
21
574.598000
0
LINE
8
Layer 1
10
60.153000
20
574.598000
11
66.153100
21
574.598000
0
LINE
8
Layer 1
10
66.153100
20
574.598000
11
66.153100
21
572.498000
0
LINE
8
Layer 1
10
66.153100
20
572.498000
11
68.653100
21
572.498000
0
LINE
8
Layer 1
10
68.653100
20
572.498000
11
68.653100
21
570.398000
0
LINE
8
Layer 1
10
68.653100
20
570.398000
11
66.153100
21
570.398000
0
LINE
8
Layer 1
10
66.153100
20
570.398000
11
66.153100
21
568.298000
0
LINE
8
Layer 1
10
66.153100
20
568.298000
11
68.653100
21
568.298000
0
LINE
8
Layer 1
10
68.653100
20
568.298000
11
68.653100
21
566.198000
0
LINE
8
Layer 1
10
68.653100
20
566.198000
11
66.153100
21
566.198000
0
LINE
8
Layer 1
10
66.153100
20
566.198000
11
66.153100
21
564.098000
0
LINE
8
Layer 1
10
66.153100
20
564.098000
11
60.153000
21
564.098000
0
LINE
8
Layer 1
10
58.094700
20
595.444000
11
55.594700
21
595.444000
0
LINE
8
Layer 1
10
55.594700
20
595.444000
11
55.594700
21
593.444000
0
LINE
8
Layer 1
10
55.594700
20
593.444000
11
58.094700
21
593.444000
0
LINE
8
Layer 1
10
58.094700
20
593.444000
11
58.094700
21
591.444000
0
LINE
8
Layer 1
10
58.094700
20
591.444000
11
55.594700
21
591.444000
0
LINE
8
Layer 1
10
55.594700
20
591.444000
11
55.594700
21
589.444000
0
LINE
8
Layer 1
10
55.594700
20
589.444000
11
52.094600
21
589.444000
0
LINE
8
Layer 1
10
52.094600
20
589.444000
11
52.094600
21
591.444000
0
LINE
8
Layer 1
10
52.094600
20
591.444000
11
49.594600
21
591.444000
0
LINE
8
Layer 1
10
49.594600
20
591.444000
11
49.594600
21
593.444000
0
LINE
8
Layer 1
10
49.594600
20
593.444000
11
52.094600
21
593.444000
0
LINE
8
Layer 1
10
52.094600
20
593.444000
11
52.094600
21
595.444000
0
LINE
8
Layer 1
10
52.094600
20
595.444000
11
49.594600
21
595.444000
0
LINE
8
Layer 1
10
49.594600
20
595.444000
11
49.594600
21
597.444000
0
LINE
8
Layer 1
10
49.594600
20
597.444000
11
52.094600
21
597.444000
0
LINE
8
Layer 1
10
52.094600
20
597.444000
11
52.094600
21
599.444000
0
LINE
8
Layer 1
10
52.094600
20
599.444000
11
55.594700
21
599.444000
0
LINE
8
Layer 1
10
55.594700
20
599.444000
11
55.594700
21
597.444000
0
LINE
8
Layer 1
10
55.594700
20
597.444000
11
58.094700
21
597.444000
0
LINE
8
Layer 1
10
58.094700
20
597.444000
11
58.094700
21
595.444000
0
LINE
8
Layer 1
10
58.094700
20
586.444000
11
55.594700
21
586.444000
0
LINE
8
Layer 1
10
55.594700
20
586.444000
11
55.594700
21
588.444000
0
LINE
8
Layer 1
10
55.594700
20
588.444000
11
52.094700
21
588.444000
0
LINE
8
Layer 1
10
52.094700
20
588.444000
11
52.094700
21
586.444000
0
LINE
8
Layer 1
10
52.094700
20
586.444000
11
49.594600
21
586.444000
0
LINE
8
Layer 1
10
49.594600
20
586.444000
11
49.594600
21
584.444000
0
LINE
8
Layer 1
10
49.594600
20
584.444000
11
52.094700
21
584.444000
0
LINE
8
Layer 1
10
52.094700
20
584.444000
11
52.094700
21
582.444000
0
LINE
8
Layer 1
10
52.094700
20
582.444000
11
49.594600
21
582.444000
0
LINE
8
Layer 1
10
49.594600
20
582.444000
11
49.594600
21
580.444000
0
LINE
8
Layer 1
10
49.594600
20
580.444000
11
52.094700
21
580.444000
0
LINE
8
Layer 1
10
52.094700
20
580.444000
11
52.094700
21
578.444000
0
LINE
8
Layer 1
10
52.094700
20
578.444000
11
55.594700
21
578.444000
0
LINE
8
Layer 1
10
55.594700
20
578.444000
11
55.594700
21
580.444000
0
LINE
8
Layer 1
10
55.594700
20
580.444000
11
58.094700
21
580.444000
0
LINE
8
Layer 1
10
58.094700
20
580.444000
11
58.094700
21
582.444000
0
LINE
8
Layer 1
10
58.094700
20
582.444000
11
55.594700
21
582.444000
0
LINE
8
Layer 1
10
55.594700
20
582.444000
11
55.594700
21
584.444000
0
LINE
8
Layer 1
10
55.594700
20
584.444000
11
58.094700
21
584.444000
0
LINE
8
Layer 1
10
58.094700
20
584.444000
11
58.094700
21
586.444000
0
LINE
8
Layer 1
10
72.766000
20
580.444000
11
75.266000
21
580.444000
0
LINE
8
Layer 1
10
75.266000
20
580.444000
11
75.266000
21
578.444000
0
LINE
8
Layer 1
10
75.266000
20
578.444000
11
59.765900
21
578.444000
0
LINE
8
Layer 1
10
59.765900
20
578.444000
11
59.765900
21
580.444000
0
LINE
8
Layer 1
10
59.765900
20
580.444000
11
62.265900
21
580.444000
0
LINE
8
Layer 1
10
62.265900
20
580.444000
11
62.265900
21
582.444000
0
LINE
8
Layer 1
10
62.265900
20
582.444000
11
59.765900
21
582.444000
0
LINE
8
Layer 1
10
59.765900
20
582.444000
11
59.765900
21
584.444000
0
LINE
8
Layer 1
10
59.765900
20
584.444000
11
62.265900
21
584.444000
0
LINE
8
Layer 1
10
62.265900
20
584.444000
11
62.265900
21
586.444000
0
LINE
8
Layer 1
10
62.265900
20
586.444000
11
59.765900
21
586.444000
0
LINE
8
Layer 1
10
59.765900
20
586.444000
11
59.765900
21
588.444000
0
LINE
8
Layer 1
10
59.765900
20
588.444000
11
75.266000
21
588.444000
0
LINE
8
Layer 1
10
75.266000
20
588.444000
11
75.266000
21
586.444000
0
LINE
8
Layer 1
10
75.266000
20
586.444000
11
72.766000
21
586.444000
0
LINE
8
Layer 1
10
72.766000
20
586.444000
11
72.766000
21
584.444000
0
LINE
8
Layer 1
10
72.766000
20
584.444000
11
75.266000
21
584.444000
0
LINE
8
Layer 1
10
75.266000
20
584.444000
11
75.266000
21
582.444000
0
LINE
8
Layer 1
10
75.266000
20
582.444000
11
72.766000
21
582.444000
0
LINE
8
Layer 1
10
72.766000
20
582.444000
11
72.766000
21
580.444000
0
LINE
8
Layer 1
10
60.153000
20
589.098000
11
60.153000
21
599.598000
0
LINE
8
Layer 1
10
60.153000
20
599.598000
11
66.153100
21
599.598000
0
LINE
8
Layer 1
10
66.153100
20
599.598000
11
66.153100
21
597.498000
0
LINE
8
Layer 1
10
66.153100
20
597.498000
11
68.653100
21
597.498000
0
LINE
8
Layer 1
10
68.653100
20
597.498000
11
68.653100
21
595.398000
0
LINE
8
Layer 1
10
68.653100
20
595.398000
11
66.153100
21
595.398000
0
LINE
8
Layer 1
10
66.153100
20
595.398000
11
66.153100
21
593.298000
0
LINE
8
Layer 1
10
66.153100
20
593.298000
11
68.653100
21
593.298000
0
LINE
8
Layer 1
10
68.653100
20
593.298000
11
68.653100
21
591.198000
0
LINE
8
Layer 1
10
68.653100
20
591.198000
11
66.153100
21
591.198000
0
LINE
8
Layer 1
10
66.153100
20
591.198000
11
66.153100
21
589.098000
0
LINE
8
Layer 1
10
66.153100
20
589.098000
11
60.153000
21
589.098000
0
LINE
8
Layer 1
10
58.094700
20
620.444000
11
55.594700
21
620.444000
0
LINE
8
Layer 1
10
55.594700
20
620.444000
11
55.594700
21
618.444000
0
LINE
8
Layer 1
10
55.594700
20
618.444000
11
58.094700
21
618.444000
0
LINE
8
Layer 1
10
58.094700
20
618.444000
11
58.094700
21
616.444000
0
LINE
8
Layer 1
10
58.094700
20
616.444000
11
55.594700
21
616.444000
0
LINE
8
Layer 1
10
55.594700
20
616.444000
11
55.594700
21
614.444000
0
LINE
8
Layer 1
10
55.594700
20
614.444000
11
52.094600
21
614.444000
0
LINE
8
Layer 1
10
52.094600
20
614.444000
11
52.094600
21
616.444000
0
LINE
8
Layer 1
10
52.094600
20
616.444000
11
49.594600
21
616.444000
0
LINE
8
Layer 1
10
49.594600
20
616.444000
11
49.594600
21
618.444000
0
LINE
8
Layer 1
10
49.594600
20
618.444000
11
52.094600
21
618.444000
0
LINE
8
Layer 1
10
52.094600
20
618.444000
11
52.094600
21
620.444000
0
LINE
8
Layer 1
10
52.094600
20
620.444000
11
49.594600
21
620.444000
0
LINE
8
Layer 1
10
49.594600
20
620.444000
11
49.594600
21
622.444000
0
LINE
8
Layer 1
10
49.594600
20
622.444000
11
52.094600
21
622.444000
0
LINE
8
Layer 1
10
52.094600
20
622.444000
11
52.094600
21
624.444000
0
LINE
8
Layer 1
10
52.094600
20
624.444000
11
55.594700
21
624.444000
0
LINE
8
Layer 1
10
55.594700
20
624.444000
11
55.594700
21
622.444000
0
LINE
8
Layer 1
10
55.594700
20
622.444000
11
58.094700
21
622.444000
0
LINE
8
Layer 1
10
58.094700
20
622.444000
11
58.094700
21
620.444000
0
LINE
8
Layer 1
10
58.094700
20
611.444000
11
55.594700
21
611.444000
0
LINE
8
Layer 1
10
55.594700
20
611.444000
11
55.594700
21
613.444000
0
LINE
8
Layer 1
10
55.594700
20
613.444000
11
52.094700
21
613.444000
0
LINE
8
Layer 1
10
52.094700
20
613.444000
11
52.094700
21
611.444000
0
LINE
8
Layer 1
10
52.094700
20
611.444000
11
49.594600
21
611.444000
0
LINE
8
Layer 1
10
49.594600
20
611.444000
11
49.594600
21
609.444000
0
LINE
8
Layer 1
10
49.594600
20
609.444000
11
52.094700
21
609.444000
0
LINE
8
Layer 1
10
52.094700
20
609.444000
11
52.094700
21
607.444000
0
LINE
8
Layer 1
10
52.094700
20
607.444000
11
49.594600
21
607.444000
0
LINE
8
Layer 1
10
49.594600
20
607.444000
11
49.594600
21
605.444000
0
LINE
8
Layer 1
10
49.594600
20
605.444000
11
52.094700
21
605.444000
0
LINE
8
Layer 1
10
52.094700
20
605.444000
11
52.094700
21
603.444000
0
LINE
8
Layer 1
10
52.094700
20
603.444000
11
55.594700
21
603.444000
0
LINE
8
Layer 1
10
55.594700
20
603.444000
11
55.594700
21
605.444000
0
LINE
8
Layer 1
10
55.594700
20
605.444000
11
58.094700
21
605.444000
0
LINE
8
Layer 1
10
58.094700
20
605.444000
11
58.094700
21
607.444000
0
LINE
8
Layer 1
10
58.094700
20
607.444000
11
55.594700
21
607.444000
0
LINE
8
Layer 1
10
55.594700
20
607.444000
11
55.594700
21
609.444000
0
LINE
8
Layer 1
10
55.594700
20
609.444000
11
58.094700
21
609.444000
0
LINE
8
Layer 1
10
58.094700
20
609.444000
11
58.094700
21
611.444000
0
LINE
8
Layer 1
10
72.766000
20
605.444000
11
75.266000
21
605.444000
0
LINE
8
Layer 1
10
75.266000
20
605.444000
11
75.266000
21
603.444000
0
LINE
8
Layer 1
10
75.266000
20
603.444000
11
59.765900
21
603.444000
0
LINE
8
Layer 1
10
59.765900
20
603.444000
11
59.765900
21
605.444000
0
LINE
8
Layer 1
10
59.765900
20
605.444000
11
62.265900
21
605.444000
0
LINE
8
Layer 1
10
62.265900
20
605.444000
11
62.265900
21
607.444000
0
LINE
8
Layer 1
10
62.265900
20
607.444000
11
59.765900
21
607.444000
0
LINE
8
Layer 1
10
59.765900
20
607.444000
11
59.765900
21
609.444000
0
LINE
8
Layer 1
10
59.765900
20
609.444000
11
62.265900
21
609.444000
0
LINE
8
Layer 1
10
62.265900
20
609.444000
11
62.265900
21
611.444000
0
LINE
8
Layer 1
10
62.265900
20
611.444000
11
59.765900
21
611.444000
0
LINE
8
Layer 1
10
59.765900
20
611.444000
11
59.765900
21
613.444000
0
LINE
8
Layer 1
10
59.765900
20
613.444000
11
75.266000
21
613.444000
0
LINE
8
Layer 1
10
75.266000
20
613.444000
11
75.266000
21
611.444000
0
LINE
8
Layer 1
10
75.266000
20
611.444000
11
72.766000
21
611.444000
0
LINE
8
Layer 1
10
72.766000
20
611.444000
11
72.766000
21
609.444000
0
LINE
8
Layer 1
10
72.766000
20
609.444000
11
75.266000
21
609.444000
0
LINE
8
Layer 1
10
75.266000
20
609.444000
11
75.266000
21
607.444000
0
LINE
8
Layer 1
10
75.266000
20
607.444000
11
72.766000
21
607.444000
0
LINE
8
Layer 1
10
72.766000
20
607.444000
11
72.766000
21
605.444000
0
LINE
8
Layer 1
10
60.153000
20
614.098000
11
60.153000
21
624.598000
0
LINE
8
Layer 1
10
60.153000
20
624.598000
11
66.153100
21
624.598000
0
LINE
8
Layer 1
10
66.153100
20
624.598000
11
66.153100
21
622.498000
0
LINE
8
Layer 1
10
66.153100
20
622.498000
11
68.653100
21
622.498000
0
LINE
8
Layer 1
10
68.653100
20
622.498000
11
68.653100
21
620.398000
0
LINE
8
Layer 1
10
68.653100
20
620.398000
11
66.153100
21
620.398000
0
LINE
8
Layer 1
10
66.153100
20
620.398000
11
66.153100
21
618.298000
0
LINE
8
Layer 1
10
66.153100
20
618.298000
11
68.653100
21
618.298000
0
LINE
8
Layer 1
10
68.653100
20
618.298000
11
68.653100
21
616.198000
0
LINE
8
Layer 1
10
68.653100
20
616.198000
11
66.153100
21
616.198000
0
LINE
8
Layer 1
10
66.153100
20
616.198000
11
66.153100
21
614.098000
0
LINE
8
Layer 1
10
66.153100
20
614.098000
11
60.153000
21
614.098000
0
LINE
8
Layer 1
10
58.094700
20
645.445000
11
55.594700
21
645.445000
0
LINE
8
Layer 1
10
55.594700
20
645.445000
11
55.594700
21
643.445000
0
LINE
8
Layer 1
10
55.594700
20
643.445000
11
58.094700
21
643.445000
0
LINE
8
Layer 1
10
58.094700
20
643.445000
11
58.094700
21
641.445000
0
LINE
8
Layer 1
10
58.094700
20
641.445000
11
55.594700
21
641.445000
0
LINE
8
Layer 1
10
55.594700
20
641.445000
11
55.594700
21
639.445000
0
LINE
8
Layer 1
10
55.594700
20
639.445000
11
52.094600
21
639.445000
0
LINE
8
Layer 1
10
52.094600
20
639.445000
11
52.094600
21
641.445000
0
LINE
8
Layer 1
10
52.094600
20
641.445000
11
49.594600
21
641.445000
0
LINE
8
Layer 1
10
49.594600
20
641.445000
11
49.594600
21
643.445000
0
LINE
8
Layer 1
10
49.594600
20
643.445000
11
52.094600
21
643.445000
0
LINE
8
Layer 1
10
52.094600
20
643.445000
11
52.094600
21
645.445000
0
LINE
8
Layer 1
10
52.094600
20
645.445000
11
49.594600
21
645.445000
0
LINE
8
Layer 1
10
49.594600
20
645.445000
11
49.594600
21
647.445000
0
LINE
8
Layer 1
10
49.594600
20
647.445000
11
52.094600
21
647.445000
0
LINE
8
Layer 1
10
52.094600
20
647.445000
11
52.094600
21
649.445000
0
LINE
8
Layer 1
10
52.094600
20
649.445000
11
55.594700
21
649.445000
0
LINE
8
Layer 1
10
55.594700
20
649.445000
11
55.594700
21
647.445000
0
LINE
8
Layer 1
10
55.594700
20
647.445000
11
58.094700
21
647.445000
0
LINE
8
Layer 1
10
58.094700
20
647.445000
11
58.094700
21
645.445000
0
LINE
8
Layer 1
10
58.094700
20
636.444000
11
55.594700
21
636.444000
0
LINE
8
Layer 1
10
55.594700
20
636.444000
11
55.594700
21
638.444000
0
LINE
8
Layer 1
10
55.594700
20
638.444000
11
52.094700
21
638.444000
0
LINE
8
Layer 1
10
52.094700
20
638.444000
11
52.094700
21
636.444000
0
LINE
8
Layer 1
10
52.094700
20
636.444000
11
49.594600
21
636.444000
0
LINE
8
Layer 1
10
49.594600
20
636.444000
11
49.594600
21
634.444000
0
LINE
8
Layer 1
10
49.594600
20
634.444000
11
52.094700
21
634.444000
0
LINE
8
Layer 1
10
52.094700
20
634.444000
11
52.094700
21
632.444000
0
LINE
8
Layer 1
10
52.094700
20
632.444000
11
49.594600
21
632.444000
0
LINE
8
Layer 1
10
49.594600
20
632.444000
11
49.594600
21
630.444000
0
LINE
8
Layer 1
10
49.594600
20
630.444000
11
52.094700
21
630.444000
0
LINE
8
Layer 1
10
52.094700
20
630.444000
11
52.094700
21
628.444000
0
LINE
8
Layer 1
10
52.094700
20
628.444000
11
55.594700
21
628.444000
0
LINE
8
Layer 1
10
55.594700
20
628.444000
11
55.594700
21
630.444000
0
LINE
8
Layer 1
10
55.594700
20
630.444000
11
58.094700
21
630.444000
0
LINE
8
Layer 1
10
58.094700
20
630.444000
11
58.094700
21
632.444000
0
LINE
8
Layer 1
10
58.094700
20
632.444000
11
55.594700
21
632.444000
0
LINE
8
Layer 1
10
55.594700
20
632.444000
11
55.594700
21
634.444000
0
LINE
8
Layer 1
10
55.594700
20
634.444000
11
58.094700
21
634.444000
0
LINE
8
Layer 1
10
58.094700
20
634.444000
11
58.094700
21
636.444000
0
LINE
8
Layer 1
10
72.766000
20
630.444000
11
75.266000
21
630.444000
0
LINE
8
Layer 1
10
75.266000
20
630.444000
11
75.266000
21
628.444000
0
LINE
8
Layer 1
10
75.266000
20
628.444000
11
59.765900
21
628.444000
0
LINE
8
Layer 1
10
59.765900
20
628.444000
11
59.765900
21
630.444000
0
LINE
8
Layer 1
10
59.765900
20
630.444000
11
62.265900
21
630.444000
0
LINE
8
Layer 1
10
62.265900
20
630.444000
11
62.265900
21
632.444000
0
LINE
8
Layer 1
10
62.265900
20
632.444000
11
59.765900
21
632.444000
0
LINE
8
Layer 1
10
59.765900
20
632.444000
11
59.765900
21
634.444000
0
LINE
8
Layer 1
10
59.765900
20
634.444000
11
62.265900
21
634.444000
0
LINE
8
Layer 1
10
62.265900
20
634.444000
11
62.265900
21
636.444000
0
LINE
8
Layer 1
10
62.265900
20
636.444000
11
59.765900
21
636.444000
0
LINE
8
Layer 1
10
59.765900
20
636.444000
11
59.765900
21
638.444000
0
LINE
8
Layer 1
10
59.765900
20
638.444000
11
75.266000
21
638.444000
0
LINE
8
Layer 1
10
75.266000
20
638.444000
11
75.266000
21
636.444000
0
LINE
8
Layer 1
10
75.266000
20
636.444000
11
72.766000
21
636.444000
0
LINE
8
Layer 1
10
72.766000
20
636.444000
11
72.766000
21
634.444000
0
LINE
8
Layer 1
10
72.766000
20
634.444000
11
75.266000
21
634.444000
0
LINE
8
Layer 1
10
75.266000
20
634.444000
11
75.266000
21
632.444000
0
LINE
8
Layer 1
10
75.266000
20
632.444000
11
72.766000
21
632.444000
0
LINE
8
Layer 1
10
72.766000
20
632.444000
11
72.766000
21
630.444000
0
LINE
8
Layer 1
10
60.153000
20
639.098000
11
60.153000
21
649.598000
0
LINE
8
Layer 1
10
60.153000
20
649.598000
11
66.153100
21
649.598000
0
LINE
8
Layer 1
10
66.153100
20
649.598000
11
66.153100
21
647.498000
0
LINE
8
Layer 1
10
66.153100
20
647.498000
11
68.653100
21
647.498000
0
LINE
8
Layer 1
10
68.653100
20
647.498000
11
68.653100
21
645.398000
0
LINE
8
Layer 1
10
68.653100
20
645.398000
11
66.153100
21
645.398000
0
LINE
8
Layer 1
10
66.153100
20
645.398000
11
66.153100
21
643.298000
0
LINE
8
Layer 1
10
66.153100
20
643.298000
11
68.653100
21
643.298000
0
LINE
8
Layer 1
10
68.653100
20
643.298000
11
68.653100
21
641.198000
0
LINE
8
Layer 1
10
68.653100
20
641.198000
11
66.153100
21
641.198000
0
LINE
8
Layer 1
10
66.153100
20
641.198000
11
66.153100
21
639.098000
0
LINE
8
Layer 1
10
66.153100
20
639.098000
11
60.153000
21
639.098000
0
LINE
8
Layer 1
10
90.939200
20
678.861000
11
88.439200
21
678.861000
0
LINE
8
Layer 1
10
88.439200
20
678.861000
11
88.439200
21
676.861000
0
LINE
8
Layer 1
10
88.439200
20
676.861000
11
90.939200
21
676.861000
0
LINE
8
Layer 1
10
90.939200
20
676.861000
11
90.939200
21
674.861000
0
LINE
8
Layer 1
10
90.939200
20
674.861000
11
88.439200
21
674.861000
0
LINE
8
Layer 1
10
88.439200
20
674.861000
11
88.439200
21
672.861000
0
LINE
8
Layer 1
10
88.439200
20
672.861000
11
84.939200
21
672.861000
0
LINE
8
Layer 1
10
84.939200
20
672.861000
11
84.939200
21
674.861000
0
LINE
8
Layer 1
10
84.939200
20
674.861000
11
82.439200
21
674.861000
0
LINE
8
Layer 1
10
82.439200
20
674.861000
11
82.439200
21
676.861000
0
LINE
8
Layer 1
10
82.439200
20
676.861000
11
84.939200
21
676.861000
0
LINE
8
Layer 1
10
84.939200
20
676.861000
11
84.939200
21
678.861000
0
LINE
8
Layer 1
10
84.939200
20
678.861000
11
82.439200
21
678.861000
0
LINE
8
Layer 1
10
82.439200
20
678.861000
11
82.439200
21
680.861000
0
LINE
8
Layer 1
10
82.439200
20
680.861000
11
84.939200
21
680.861000
0
LINE
8
Layer 1
10
84.939200
20
680.861000
11
84.939200
21
682.861000
0
LINE
8
Layer 1
10
84.939200
20
682.861000
11
88.439200
21
682.861000
0
LINE
8
Layer 1
10
88.439200
20
682.861000
11
88.439200
21
680.861000
0
LINE
8
Layer 1
10
88.439200
20
680.861000
11
90.939200
21
680.861000
0
LINE
8
Layer 1
10
90.939200
20
680.861000
11
90.939200
21
678.861000
0
LINE
8
Layer 1
10
90.939600
20
669.861000
11
88.439600
21
669.861000
0
LINE
8
Layer 1
10
88.439600
20
669.861000
11
88.439600
21
671.861000
0
LINE
8
Layer 1
10
88.439600
20
671.861000
11
84.939600
21
671.861000
0
LINE
8
Layer 1
10
84.939600
20
671.861000
11
84.939600
21
669.861000
0
LINE
8
Layer 1
10
84.939600
20
669.861000
11
82.439600
21
669.861000
0
LINE
8
Layer 1
10
82.439600
20
669.861000
11
82.439600
21
667.861000
0
LINE
8
Layer 1
10
82.439600
20
667.861000
11
84.939600
21
667.861000
0
LINE
8
Layer 1
10
84.939600
20
667.861000
11
84.939600
21
665.861000
0
LINE
8
Layer 1
10
84.939600
20
665.861000
11
82.439600
21
665.861000
0
LINE
8
Layer 1
10
82.439600
20
665.861000
11
82.439600
21
663.861000
0
LINE
8
Layer 1
10
82.439600
20
663.861000
11
84.939600
21
663.861000
0
LINE
8
Layer 1
10
84.939600
20
663.861000
11
84.939600
21
661.861000
0
LINE
8
Layer 1
10
84.939600
20
661.861000
11
88.439600
21
661.861000
0
LINE
8
Layer 1
10
88.439600
20
661.861000
11
88.439600
21
663.861000
0
LINE
8
Layer 1
10
88.439600
20
663.861000
11
90.939600
21
663.861000
0
LINE
8
Layer 1
10
90.939600
20
663.861000
11
90.939600
21
665.861000
0
LINE
8
Layer 1
10
90.939600
20
665.861000
11
88.439600
21
665.861000
0
LINE
8
Layer 1
10
88.439600
20
665.861000
11
88.439600
21
667.861000
0
LINE
8
Layer 1
10
88.439600
20
667.861000
11
90.939600
21
667.861000
0
LINE
8
Layer 1
10
90.939600
20
667.861000
11
90.939600
21
669.861000
0
LINE
8
Layer 1
10
105.611000
20
663.861000
11
108.111000
21
663.861000
0
LINE
8
Layer 1
10
108.111000
20
663.861000
11
108.111000
21
661.861000
0
LINE
8
Layer 1
10
108.111000
20
661.861000
11
92.610700
21
661.861000
0
LINE
8
Layer 1
10
92.610700
20
661.861000
11
92.610700
21
663.861000
0
LINE
8
Layer 1
10
92.610700
20
663.861000
11
95.110700
21
663.861000
0
LINE
8
Layer 1
10
95.110700
20
663.861000
11
95.110700
21
665.861000
0
LINE
8
Layer 1
10
95.110700
20
665.861000
11
92.610700
21
665.861000
0
LINE
8
Layer 1
10
92.610700
20
665.861000
11
92.610700
21
667.861000
0
LINE
8
Layer 1
10
92.610700
20
667.861000
11
95.110700
21
667.861000
0
LINE
8
Layer 1
10
95.110700
20
667.861000
11
95.110700
21
669.861000
0
LINE
8
Layer 1
10
95.110700
20
669.861000
11
92.610700
21
669.861000
0
LINE
8
Layer 1
10
92.610700
20
669.861000
11
92.610700
21
671.861000
0
LINE
8
Layer 1
10
92.610700
20
671.861000
11
108.111000
21
671.861000
0
LINE
8
Layer 1
10
108.111000
20
671.861000
11
108.111000
21
669.861000
0
LINE
8
Layer 1
10
108.111000
20
669.861000
11
105.611000
21
669.861000
0
LINE
8
Layer 1
10
105.611000
20
669.861000
11
105.611000
21
667.861000
0
LINE
8
Layer 1
10
105.611000
20
667.861000
11
108.111000
21
667.861000
0
LINE
8
Layer 1
10
108.111000
20
667.861000
11
108.111000
21
665.861000
0
LINE
8
Layer 1
10
108.111000
20
665.861000
11
105.611000
21
665.861000
0
LINE
8
Layer 1
10
105.611000
20
665.861000
11
105.611000
21
663.861000
0
LINE
8
Layer 1
10
92.997700
20
672.515000
11
92.997700
21
683.015000
0
LINE
8
Layer 1
10
92.997700
20
683.015000
11
98.997600
21
683.015000
0
LINE
8
Layer 1
10
98.997600
20
683.015000
11
98.997600
21
680.915000
0
LINE
8
Layer 1
10
98.997600
20
680.915000
11
101.498000
21
680.915000
0
LINE
8
Layer 1
10
101.498000
20
680.915000
11
101.498000
21
678.815000
0
LINE
8
Layer 1
10
101.498000
20
678.815000
11
98.997600
21
678.815000
0
LINE
8
Layer 1
10
98.997600
20
678.815000
11
98.997600
21
676.715000
0
LINE
8
Layer 1
10
98.997600
20
676.715000
11
101.498000
21
676.715000
0
LINE
8
Layer 1
10
101.498000
20
676.715000
11
101.498000
21
674.615000
0
LINE
8
Layer 1
10
101.498000
20
674.615000
11
98.997600
21
674.615000
0
LINE
8
Layer 1
10
98.997600
20
674.615000
11
98.997600
21
672.515000
0
LINE
8
Layer 1
10
98.997600
20
672.515000
11
92.997700
21
672.515000
0
LINE
8
Layer 1
10
31.405400
20
598.271000
11
31.405400
21
600.771000
0
LINE
8
Layer 1
10
31.405400
20
600.771000
11
29.405400
21
600.771000
0
LINE
8
Layer 1
10
29.405400
20
600.771000
11
29.405400
21
598.271000
0
LINE
8
Layer 1
10
29.405400
20
598.271000
11
31.405400
21
598.271000
0
LINE
8
Layer 1
10
19.405300
20
591.971000
11
16.905300
21
591.971000
0
LINE
8
Layer 1
10
16.905300
20
591.971000
11
16.905300
21
589.871000
0
LINE
8
Layer 1
10
16.905300
20
589.871000
11
19.405300
21
589.871000
0
LINE
8
Layer 1
10
19.405300
20
589.871000
11
19.405300
21
591.971000
0
LINE
8
Layer 1
10
29.405400
20
587.771000
11
29.405400
21
585.271000
0
LINE
8
Layer 1
10
29.405400
20
585.271000
11
31.405400
21
585.271000
0
LINE
8
Layer 1
10
31.405400
20
585.271000
11
31.405400
21
587.771000
0
LINE
8
Layer 1
10
31.405400
20
587.771000
11
29.405400
21
587.771000
0
LINE
8
Layer 1
10
27.405400
20
598.271000
11
27.405400
21
600.771000
0
LINE
8
Layer 1
10
27.405400
20
600.771000
11
25.405300
21
600.771000
0
LINE
8
Layer 1
10
25.405300
20
600.771000
11
25.405300
21
598.271000
0
LINE
8
Layer 1
10
25.405300
20
598.271000
11
27.405400
21
598.271000
0
LINE
8
Layer 1
10
11.430200
20
602.271000
11
11.430200
21
583.771000
0
LINE
8
Layer 1
10
11.430200
20
583.771000
11
45.430500
21
583.771000
0
LINE
8
Layer 1
10
45.430500
20
583.771000
11
45.430500
21
602.271000
0
LINE
8
Layer 1
10
45.430500
20
602.271000
11
11.430200
21
602.271000
0
LINE
8
Layer 1
10
19.405300
20
596.171000
11
16.905300
21
596.171000
0
LINE
8
Layer 1
10
16.905300
20
596.171000
11
16.905300
21
594.071000
0
LINE
8
Layer 1
10
16.905300
20
594.071000
11
19.405300
21
594.071000
0
LINE
8
Layer 1
10
19.405300
20
594.071000
11
19.405300
21
596.171000
0
LINE
8
Layer 1
10
25.405300
20
587.771000
11
25.405300
21
585.271000
0
LINE
8
Layer 1
10
25.405300
20
585.271000
11
27.405400
21
585.271000
0
LINE
8
Layer 1
10
27.405400
20
585.271000
11
27.405400
21
587.771000
0
LINE
8
Layer 1
10
27.405400
20
587.771000
11
25.405300
21
587.771000
0
LINE
8
Layer 1
10
11.430200
20
622.271000
11
11.430200
21
603.771000
0
LINE
8
Layer 1
10
11.430200
20
603.771000
11
45.430500
21
603.771000
0
LINE
8
Layer 1
10
45.430500
20
603.771000
11
45.430500
21
622.271000
0
LINE
8
Layer 1
10
45.430500
20
622.271000
11
11.430200
21
622.271000
0
LINE
8
Layer 1
10
99.250400
20
596.688000
11
99.250400
21
599.188000
0
LINE
8
Layer 1
10
99.250400
20
599.188000
11
97.250400
21
599.188000
0
LINE
8
Layer 1
10
97.250400
20
599.188000
11
97.250400
21
596.688000
0
LINE
8
Layer 1
10
97.250400
20
596.688000
11
99.250400
21
596.688000
0
LINE
8
Layer 1
10
87.250400
20
590.388000
11
84.750400
21
590.388000
0
LINE
8
Layer 1
10
84.750400
20
590.388000
11
84.750400
21
588.288000
0
LINE
8
Layer 1
10
84.750400
20
588.288000
11
87.250400
21
588.288000
0
LINE
8
Layer 1
10
87.250400
20
588.288000
11
87.250400
21
590.388000
0
LINE
8
Layer 1
10
97.250400
20
586.188000
11
97.250400
21
583.688000
0
LINE
8
Layer 1
10
97.250400
20
583.688000
11
99.250400
21
583.688000
0
LINE
8
Layer 1
10
99.250400
20
583.688000
11
99.250400
21
586.188000
0
LINE
8
Layer 1
10
99.250400
20
586.188000
11
97.250400
21
586.188000
0
LINE
8
Layer 1
10
95.250400
20
596.688000
11
95.250400
21
599.188000
0
LINE
8
Layer 1
10
95.250400
20
599.188000
11
93.250400
21
599.188000
0
LINE
8
Layer 1
10
93.250400
20
599.188000
11
93.250400
21
596.688000
0
LINE
8
Layer 1
10
93.250400
20
596.688000
11
95.250400
21
596.688000
0
LINE
8
Layer 1
10
79.275400
20
600.688000
11
79.275400
21
582.188000
0
LINE
8
Layer 1
10
79.275400
20
582.188000
11
113.275000
21
582.188000
0
LINE
8
Layer 1
10
113.275000
20
582.188000
11
113.275000
21
600.688000
0
LINE
8
Layer 1
10
113.275000
20
600.688000
11
79.275400
21
600.688000
0
LINE
8
Layer 1
10
87.250400
20
594.588000
11
84.750400
21
594.588000
0
LINE
8
Layer 1
10
84.750400
20
594.588000
11
84.750400
21
592.488000
0
LINE
8
Layer 1
10
84.750400
20
592.488000
11
87.250400
21
592.488000
0
LINE
8
Layer 1
10
87.250400
20
592.488000
11
87.250400
21
594.588000
0
LINE
8
Layer 1
10
93.250400
20
586.188000
11
93.250400
21
583.688000
0
LINE
8
Layer 1
10
93.250400
20
583.688000
11
95.250400
21
583.688000
0
LINE
8
Layer 1
10
95.250400
20
583.688000
11
95.250400
21
586.188000
0
LINE
8
Layer 1
10
95.250400
20
586.188000
11
93.250400
21
586.188000
0
LINE
8
Layer 1
10
79.275400
20
620.688000
11
79.275400
21
602.188000
0
LINE
8
Layer 1
10
79.275400
20
602.188000
11
113.275000
21
602.188000
0
LINE
8
Layer 1
10
113.275000
20
602.188000
11
113.275000
21
620.688000
0
LINE
8
Layer 1
10
113.275000
20
620.688000
11
79.275400
21
620.688000
0
LINE
8
Layer 1
10
99.250400
20
556.688000
11
99.250400
21
559.188000
0
LINE
8
Layer 1
10
99.250400
20
559.188000
11
97.250400
21
559.188000
0
LINE
8
Layer 1
10
97.250400
20
559.188000
11
97.250400
21
556.688000
0
LINE
8
Layer 1
10
97.250400
20
556.688000
11
99.250400
21
556.688000
0
LINE
8
Layer 1
10
87.250400
20
550.388000
11
84.750400
21
550.388000
0
LINE
8
Layer 1
10
84.750400
20
550.388000
11
84.750400
21
548.288000
0
LINE
8
Layer 1
10
84.750400
20
548.288000
11
87.250400
21
548.288000
0
LINE
8
Layer 1
10
87.250400
20
548.288000
11
87.250400
21
550.388000
0
LINE
8
Layer 1
10
97.250400
20
546.188000
11
97.250400
21
543.688000
0
LINE
8
Layer 1
10
97.250400
20
543.688000
11
99.250400
21
543.688000
0
LINE
8
Layer 1
10
99.250400
20
543.688000
11
99.250400
21
546.188000
0
LINE
8
Layer 1
10
99.250400
20
546.188000
11
97.250400
21
546.188000
0
LINE
8
Layer 1
10
95.250400
20
556.688000
11
95.250400
21
559.188000
0
LINE
8
Layer 1
10
95.250400
20
559.188000
11
93.250400
21
559.188000
0
LINE
8
Layer 1
10
93.250400
20
559.188000
11
93.250400
21
556.688000
0
LINE
8
Layer 1
10
93.250400
20
556.688000
11
95.250400
21
556.688000
0
LINE
8
Layer 1
10
79.275400
20
560.688000
11
79.275400
21
542.188000
0
LINE
8
Layer 1
10
79.275400
20
542.188000
11
113.275000
21
542.188000
0
LINE
8
Layer 1
10
113.275000
20
542.188000
11
113.275000
21
560.688000
0
LINE
8
Layer 1
10
113.275000
20
560.688000
11
79.275400
21
560.688000
0
LINE
8
Layer 1
10
87.250400
20
554.588000
11
84.750400
21
554.588000
0
LINE
8
Layer 1
10
84.750400
20
554.588000
11
84.750400
21
552.488000
0
LINE
8
Layer 1
10
84.750400
20
552.488000
11
87.250400
21
552.488000
0
LINE
8
Layer 1
10
87.250400
20
552.488000
11
87.250400
21
554.588000
0
LINE
8
Layer 1
10
93.250400
20
546.188000
11
93.250400
21
543.688000
0
LINE
8
Layer 1
10
93.250400
20
543.688000
11
95.250400
21
543.688000
0
LINE
8
Layer 1
10
95.250400
20
543.688000
11
95.250400
21
546.188000
0
LINE
8
Layer 1
10
95.250400
20
546.188000
11
93.250400
21
546.188000
0
LINE
8
Layer 1
10
79.275400
20
580.688000
11
79.275400
21
562.188000
0
LINE
8
Layer 1
10
79.275400
20
562.188000
11
113.275000
21
562.188000
0
LINE
8
Layer 1
10
113.275000
20
562.188000
11
113.275000
21
580.688000
0
LINE
8
Layer 1
10
113.275000
20
580.688000
11
79.275400
21
580.688000
0
LINE
8
Layer 1
10
31.405400
20
558.270000
11
31.405400
21
560.770000
0
LINE
8
Layer 1
10
31.405400
20
560.770000
11
29.405400
21
560.770000
0
LINE
8
Layer 1
10
29.405400
20
560.770000
11
29.405400
21
558.270000
0
LINE
8
Layer 1
10
29.405400
20
558.270000
11
31.405400
21
558.270000
0
LINE
8
Layer 1
10
19.405300
20
551.970000
11
16.905300
21
551.970000
0
LINE
8
Layer 1
10
16.905300
20
551.970000
11
16.905300
21
549.870000
0
LINE
8
Layer 1
10
16.905300
20
549.870000
11
19.405300
21
549.870000
0
LINE
8
Layer 1
10
19.405300
20
549.870000
11
19.405300
21
551.970000
0
LINE
8
Layer 1
10
29.405400
20
547.770000
11
29.405400
21
545.270000
0
LINE
8
Layer 1
10
29.405400
20
545.270000
11
31.405400
21
545.270000
0
LINE
8
Layer 1
10
31.405400
20
545.270000
11
31.405400
21
547.770000
0
LINE
8
Layer 1
10
31.405400
20
547.770000
11
29.405400
21
547.770000
0
LINE
8
Layer 1
10
27.405400
20
558.270000
11
27.405400
21
560.770000
0
LINE
8
Layer 1
10
27.405400
20
560.770000
11
25.405300
21
560.770000
0
LINE
8
Layer 1
10
25.405300
20
560.770000
11
25.405300
21
558.270000
0
LINE
8
Layer 1
10
25.405300
20
558.270000
11
27.405400
21
558.270000
0
LINE
8
Layer 1
10
11.430200
20
562.270000
11
11.430200
21
543.770000
0
LINE
8
Layer 1
10
11.430200
20
543.770000
11
45.430500
21
543.770000
0
LINE
8
Layer 1
10
45.430500
20
543.770000
11
45.430500
21
562.270000
0
LINE
8
Layer 1
10
45.430500
20
562.270000
11
11.430200
21
562.270000
0
LINE
8
Layer 1
10
19.405300
20
556.170000
11
16.905300
21
556.170000
0
LINE
8
Layer 1
10
16.905300
20
556.170000
11
16.905300
21
554.070000
0
LINE
8
Layer 1
10
16.905300
20
554.070000
11
19.405300
21
554.070000
0
LINE
8
Layer 1
10
19.405300
20
554.070000
11
19.405300
21
556.170000
0
LINE
8
Layer 1
10
25.405300
20
547.770000
11
25.405300
21
545.270000
0
LINE
8
Layer 1
10
25.405300
20
545.270000
11
27.405400
21
545.270000
0
LINE
8
Layer 1
10
27.405400
20
545.270000
11
27.405400
21
547.770000
0
LINE
8
Layer 1
10
27.405400
20
547.770000
11
25.405300
21
547.770000
0
LINE
8
Layer 1
10
11.430200
20
582.270000
11
11.430200
21
563.770000
0
LINE
8
Layer 1
10
11.430200
20
563.770000
11
45.430500
21
563.770000
0
LINE
8
Layer 1
10
45.430500
20
563.770000
11
45.430500
21
582.270000
0
LINE
8
Layer 1
10
45.430500
20
582.270000
11
11.430200
21
582.270000
 0 
ENDSEC
 0 
EOF