999
"DXF R12 Output" (www.mydxf.blogspot.com)
 0 
SECTION
 2 
HEADER
 9 
$ACADVER
 1 
AC1009
 9 
$EXTMIN
 10 
 0 
 20 
 0 
 9 
$EXTMAX
 10 
 8.5 
 20 
 11 
 0 
ENDSEC
 0 
SECTION
 2 
ENTITIES
0
LINE
8
Layer 1
10
0.793749
20
297.794000
11
-0.793749
21
296.206000
0
LINE
8
Layer 1
10
0.000000
20
298.323000
11
0.000000
21
295.677000
0
LINE
8
Layer 1
10
2.116660
20
295.942000
11
1.058330
21
294.883670
0
LINE
8
Layer 1
10
1.587500
20
296.471000
11
0.529170
21
295.412670
0
LINE
8
Layer 1
10
1.058330
20
297.000000
11
0.000000
21
295.941670
0
LINE
8
VISIBLE
10
226.382000
20
451.968000
11
226.096192
21
456.272937
0
LINE
8
VISIBLE
10
226.096192
20
456.272937
11
225.256997
21
460.447824
0
LINE
8
VISIBLE
10
225.256997
20
460.447824
11
223.891760
21
464.445299
0
LINE
8
VISIBLE
10
223.891760
20
464.445299
11
222.027826
21
468.218000
0
LINE
8
VISIBLE
10
222.027826
20
468.218000
11
219.692538
21
471.718565
0
LINE
8
VISIBLE
10
219.692538
20
471.718565
11
216.913241
21
474.899633
0
LINE
8
VISIBLE
10
216.913241
20
474.899633
11
213.717281
21
477.713840
0
LINE
8
VISIBLE
10
213.717281
20
477.713840
11
210.132000
21
480.113826
0
LINE
8
VISIBLE
10
210.132000
20
480.113826
11
206.260911
21
482.018777
0
LINE
8
VISIBLE
10
206.260911
20
482.018777
11
202.225756
21
483.379456
0
LINE
8
VISIBLE
10
202.225756
20
483.379456
11
198.081222
21
484.195864
0
LINE
8
VISIBLE
10
198.081222
20
484.195864
11
193.882000
21
484.468000
0
LINE
8
VISIBLE
10
193.882000
20
484.468000
11
189.682778
21
484.195864
0
LINE
8
VISIBLE
10
189.682778
20
484.195864
11
185.538244
21
483.379456
0
LINE
8
VISIBLE
10
185.538244
20
483.379456
11
181.503089
21
482.018777
0
LINE
8
VISIBLE
10
181.503089
20
482.018777
11
177.632000
21
480.113826
0
LINE
8
VISIBLE
10
177.632000
20
480.113826
11
174.046719
21
477.713840
0
LINE
8
VISIBLE
10
174.046719
20
477.713840
11
170.850759
21
474.899633
0
LINE
8
VISIBLE
10
170.850759
20
474.899633
11
168.071462
21
471.718565
0
LINE
8
VISIBLE
10
168.071462
20
471.718565
11
165.736174
21
468.218000
0
LINE
8
VISIBLE
10
165.736174
20
468.218000
11
163.872240
21
464.445299
0
LINE
8
VISIBLE
10
163.872240
20
464.445299
11
162.507003
21
460.447824
0
LINE
8
VISIBLE
10
162.507003
20
460.447824
11
161.667808
21
456.272937
0
LINE
8
VISIBLE
10
161.667808
20
456.272937
11
161.382000
21
451.968000
0
LINE
8
VISIBLE
10
161.382000
20
451.968000
11
161.667808
21
447.663063
0
LINE
8
VISIBLE
10
161.667808
20
447.663063
11
162.507003
21
443.488176
0
LINE
8
VISIBLE
10
162.507003
20
443.488176
11
163.872240
21
439.490701
0
LINE
8
VISIBLE
10
163.872240
20
439.490701
11
165.736174
21
435.718000
0
LINE
8
VISIBLE
10
165.736174
20
435.718000
11
168.071462
21
432.217435
0
LINE
8
VISIBLE
10
168.071462
20
432.217435
11
170.850759
21
429.036367
0
LINE
8
VISIBLE
10
170.850759
20
429.036367
11
174.046719
21
426.222160
0
LINE
8
VISIBLE
10
174.046719
20
426.222160
11
177.632000
21
423.822174
0
LINE
8
VISIBLE
10
177.632000
20
423.822174
11
181.503089
21
421.917223
0
LINE
8
VISIBLE
10
181.503089
20
421.917223
11
185.538244
21
420.556544
0
LINE
8
VISIBLE
10
185.538244
20
420.556544
11
189.682778
21
419.740136
0
LINE
8
VISIBLE
10
189.682778
20
419.740136
11
193.882000
21
419.468000
0
LINE
8
VISIBLE
10
193.882000
20
419.468000
11
198.081222
21
419.740136
0
LINE
8
VISIBLE
10
198.081222
20
419.740136
11
202.225756
21
420.556544
0
LINE
8
VISIBLE
10
202.225756
20
420.556544
11
206.260911
21
421.917223
0
LINE
8
VISIBLE
10
206.260911
20
421.917223
11
210.132000
21
423.822174
0
LINE
8
VISIBLE
10
210.132000
20
423.822174
11
213.717281
21
426.222160
0
LINE
8
VISIBLE
10
213.717281
20
426.222160
11
216.913241
21
429.036367
0
LINE
8
VISIBLE
10
216.913241
20
429.036367
11
219.692538
21
432.217435
0
LINE
8
VISIBLE
10
219.692538
20
432.217435
11
222.027826
21
435.718000
0
LINE
8
VISIBLE
10
222.027826
20
435.718000
11
223.891760
21
439.490701
0
LINE
8
VISIBLE
10
223.891760
20
439.490701
11
225.256997
21
443.488176
0
LINE
8
VISIBLE
10
225.256997
20
443.488176
11
226.096192
21
447.663063
0
LINE
8
VISIBLE
10
226.096192
20
447.663063
11
226.382000
21
451.968000
0
LINE
8
VISIBLE
10
226.382000
20
451.968000
11
226.382000
21
451.968000
0
LINE
8
VISIBLE
10
175.282000
20
447.168000
11
175.282000
21
450.368000
0
LINE
8
VISIBLE
10
170.782000
20
450.368000
11
175.282000
21
450.368000
0
LINE
8
VISIBLE
10
170.782000
20
447.168000
11
170.782000
21
450.368000
0
LINE
8
VISIBLE
10
170.782000
20
447.168000
11
175.282000
21
447.168000
0
LINE
8
VISIBLE
10
175.282000
20
453.568000
11
175.282000
21
456.768000
0
LINE
8
VISIBLE
10
170.782000
20
456.768000
11
175.282000
21
456.768000
0
LINE
8
VISIBLE
10
170.782000
20
453.568000
11
170.782000
21
456.768000
0
LINE
8
VISIBLE
10
170.782000
20
453.568000
11
175.282000
21
453.568000
0
LINE
8
VISIBLE
10
180.032000
20
456.768000
11
180.032000
21
453.568000
0
LINE
8
VISIBLE
10
184.532000
20
453.568000
11
180.032000
21
453.568000
0
LINE
8
VISIBLE
10
184.532000
20
456.768000
11
184.532000
21
453.568000
0
LINE
8
VISIBLE
10
184.532000
20
456.768000
11
180.032000
21
456.768000
0
LINE
8
VISIBLE
10
180.032000
20
450.368000
11
180.032000
21
447.168000
0
LINE
8
VISIBLE
10
184.532000
20
447.168000
11
180.032000
21
447.168000
0
LINE
8
VISIBLE
10
184.532000
20
450.368000
11
184.532000
21
447.168000
0
LINE
8
VISIBLE
10
184.532000
20
450.368000
11
180.032000
21
450.368000
0
LINE
8
VISIBLE
10
189.282000
20
456.768000
11
189.282000
21
453.568000
0
LINE
8
VISIBLE
10
193.782000
20
453.568000
11
189.282000
21
453.568000
0
LINE
8
VISIBLE
10
193.782000
20
456.768000
11
193.782000
21
453.568000
0
LINE
8
VISIBLE
10
193.782000
20
456.768000
11
189.282000
21
456.768000
0
LINE
8
VISIBLE
10
189.282000
20
450.368000
11
189.282000
21
447.168000
0
LINE
8
VISIBLE
10
193.782000
20
447.168000
11
189.282000
21
447.168000
0
LINE
8
VISIBLE
10
193.782000
20
450.368000
11
193.782000
21
447.168000
0
LINE
8
VISIBLE
10
193.782000
20
450.368000
11
189.282000
21
450.368000
0
LINE
8
VISIBLE
10
198.532000
20
456.768000
11
198.532000
21
453.568000
0
LINE
8
VISIBLE
10
203.032000
20
453.568000
11
198.532000
21
453.568000
0
LINE
8
VISIBLE
10
203.032000
20
456.768000
11
203.032000
21
453.568000
0
LINE
8
VISIBLE
10
203.032000
20
456.768000
11
198.532000
21
456.768000
0
LINE
8
VISIBLE
10
198.532000
20
450.368000
11
198.532000
21
447.168000
0
LINE
8
VISIBLE
10
203.032000
20
447.168000
11
198.532000
21
447.168000
0
LINE
8
VISIBLE
10
203.032000
20
450.368000
11
203.032000
21
447.168000
0
LINE
8
VISIBLE
10
203.032000
20
450.368000
11
198.532000
21
450.368000
0
LINE
8
VISIBLE
10
207.782000
20
456.768000
11
207.782000
21
453.568000
0
LINE
8
VISIBLE
10
212.282000
20
453.568000
11
207.782000
21
453.568000
0
LINE
8
VISIBLE
10
212.282000
20
456.768000
11
212.282000
21
453.568000
0
LINE
8
VISIBLE
10
212.282000
20
456.768000
11
207.782000
21
456.768000
0
LINE
8
VISIBLE
10
207.782000
20
450.368000
11
207.782000
21
447.168000
0
LINE
8
VISIBLE
10
212.282000
20
447.168000
11
207.782000
21
447.168000
0
LINE
8
VISIBLE
10
212.282000
20
450.368000
11
212.282000
21
447.168000
0
LINE
8
VISIBLE
10
212.282000
20
450.368000
11
207.782000
21
450.368000
0
LINE
8
VISIBLE
10
259.826000
20
449.798000
11
259.725615
21
450.554661
0
LINE
8
VISIBLE
10
259.725615
20
450.554661
11
259.437474
21
451.248000
0
LINE
8
VISIBLE
10
259.437474
20
451.248000
11
258.981095
21
451.844207
0
LINE
8
VISIBLE
10
258.981095
20
451.844207
11
258.376000
21
452.309474
0
LINE
8
VISIBLE
10
258.376000
20
452.309474
11
257.670520
21
452.600868
0
LINE
8
VISIBLE
10
257.670520
20
452.600868
11
256.926000
21
452.698000
0
LINE
8
VISIBLE
10
256.926000
20
452.698000
11
256.181480
21
452.600868
0
LINE
8
VISIBLE
10
256.181480
20
452.600868
11
255.476000
21
452.309474
0
LINE
8
VISIBLE
10
255.476000
20
452.309474
11
254.870905
21
451.844207
0
LINE
8
VISIBLE
10
254.870905
20
451.844207
11
254.414526
21
451.248000
0
LINE
8
VISIBLE
10
254.414526
20
451.248000
11
254.126385
21
450.554661
0
LINE
8
VISIBLE
10
254.126385
20
450.554661
11
254.026000
21
449.798000
0
LINE
8
VISIBLE
10
254.026000
20
449.798000
11
254.126385
21
449.041339
0
LINE
8
VISIBLE
10
254.126385
20
449.041339
11
254.414526
21
448.348000
0
LINE
8
VISIBLE
10
254.414526
20
448.348000
11
254.870905
21
447.751793
0
LINE
8
VISIBLE
10
254.870905
20
447.751793
11
255.476000
21
447.286526
0
LINE
8
VISIBLE
10
255.476000
20
447.286526
11
256.181480
21
446.995132
0
LINE
8
VISIBLE
10
256.181480
20
446.995132
11
256.926000
21
446.898000
0
LINE
8
VISIBLE
10
256.926000
20
446.898000
11
257.670520
21
446.995132
0
LINE
8
VISIBLE
10
257.670520
20
446.995132
11
258.376000
21
447.286526
0
LINE
8
VISIBLE
10
258.376000
20
447.286526
11
258.981095
21
447.751793
0
LINE
8
VISIBLE
10
258.981095
20
447.751793
11
259.437474
21
448.348000
0
LINE
8
VISIBLE
10
259.437474
20
448.348000
11
259.725615
21
449.041339
0
LINE
8
VISIBLE
10
259.725615
20
449.041339
11
259.826000
21
449.798000
0
LINE
8
VISIBLE
10
259.826000
20
449.798000
11
259.826000
21
449.798000
0
LINE
8
VISIBLE
10
252.126000
20
462.298000
11
255.326000
21
462.298000
0
LINE
8
VISIBLE
10
255.326000
20
457.798000
11
255.326000
21
462.298000
0
LINE
8
VISIBLE
10
258.526000
20
457.798000
11
255.326000
21
457.798000
0
LINE
8
VISIBLE
10
258.526000
20
457.798000
11
258.526000
21
462.298000
0
LINE
8
VISIBLE
10
258.526000
20
462.298000
11
261.726000
21
462.298000
0
LINE
8
VISIBLE
10
261.726000
20
457.798000
11
261.726000
21
462.298000
0
LINE
8
VISIBLE
10
264.927000
20
457.798000
11
261.726000
21
457.798000
0
LINE
8
VISIBLE
10
264.927000
20
450.798000
11
264.927000
21
457.798000
0
LINE
8
VISIBLE
10
248.926000
20
450.798000
11
249.202929
21
448.710661
0
LINE
8
VISIBLE
10
249.202929
20
448.710661
11
249.997804
21
446.798005
0
LINE
8
VISIBLE
10
249.997804
20
446.798005
11
251.256778
21
445.153297
0
LINE
8
VISIBLE
10
251.256778
20
445.153297
11
252.926005
21
443.869805
0
LINE
8
VISIBLE
10
252.926005
20
443.869805
11
254.872155
21
443.065959
0
LINE
8
VISIBLE
10
254.872155
20
443.065959
11
256.926000
21
442.798010
0
LINE
8
VISIBLE
10
256.926000
20
442.798010
11
258.979845
21
443.065959
0
LINE
8
VISIBLE
10
258.979845
20
443.065959
11
260.925995
21
443.869805
0
LINE
8
VISIBLE
10
260.925995
20
443.869805
11
262.595222
21
445.153297
0
LINE
8
VISIBLE
10
262.595222
20
445.153297
11
263.854195
21
446.798005
0
LINE
8
VISIBLE
10
263.854195
20
446.798005
11
264.649067
21
448.710661
0
LINE
8
VISIBLE
10
264.649067
20
448.710661
11
264.925990
21
450.798000
0
LINE
8
VISIBLE
10
252.126000
20
457.798000
11
248.926000
21
457.798000
0
LINE
8
VISIBLE
10
252.126000
20
457.798000
11
252.126000
21
462.298000
0
LINE
8
VISIBLE
10
248.926000
20
450.798000
11
248.926000
21
457.798000
0
LINE
8
VISIBLE
10
288.927000
20
428.468000
11
288.927000
21
432.968000
0
LINE
8
VISIBLE
10
292.425000
20
428.468000
11
288.927000
21
428.468000
0
LINE
8
VISIBLE
10
292.425000
20
423.968000
11
292.425000
21
428.468000
0
LINE
8
VISIBLE
10
292.425000
20
423.968000
11
288.927000
21
423.968000
0
LINE
8
VISIBLE
10
288.927000
20
419.468000
11
288.927000
21
423.968000
0
LINE
8
VISIBLE
10
285.427000
20
419.468000
11
288.927000
21
419.468000
0
LINE
8
VISIBLE
10
280.926000
20
423.968000
11
281.013264
21
423.085993
0
LINE
8
VISIBLE
10
281.013264
20
423.085993
11
281.268539
21
422.245923
0
LINE
8
VISIBLE
10
281.268539
20
422.245923
11
281.682050
21
421.471395
0
LINE
8
VISIBLE
10
281.682050
20
421.471395
11
282.244017
21
420.786017
0
LINE
8
VISIBLE
10
282.244017
20
420.786017
11
282.929395
21
420.224050
0
LINE
8
VISIBLE
10
282.929395
20
420.224050
11
283.703923
21
419.810539
0
LINE
8
VISIBLE
10
283.703923
20
419.810539
11
284.543993
21
419.555264
0
LINE
8
VISIBLE
10
284.543993
20
419.555264
11
285.426000
21
419.468000
0
LINE
8
VISIBLE
10
285.427000
20
432.968000
11
288.927000
21
432.968000
0
LINE
8
VISIBLE
10
281.625000
20
424.602000
11
284.427000
21
422.985000
0
LINE
8
VISIBLE
10
287.226000
20
427.835000
11
284.427000
21
429.451000
0
LINE
8
VISIBLE
10
287.226000
20
424.602000
11
287.226000
21
427.835000
0
LINE
8
VISIBLE
10
284.427000
20
429.451000
11
281.625000
21
427.835000
0
LINE
8
VISIBLE
10
280.926000
20
423.968000
11
280.926000
21
428.468000
0
LINE
8
VISIBLE
10
285.426000
20
432.968000
11
284.543993
21
432.880736
0
LINE
8
VISIBLE
10
284.543993
20
432.880736
11
283.703923
21
432.625461
0
LINE
8
VISIBLE
10
283.703923
20
432.625461
11
282.929395
21
432.211950
0
LINE
8
VISIBLE
10
282.929395
20
432.211950
11
282.244017
21
431.649983
0
LINE
8
VISIBLE
10
282.244017
20
431.649983
11
281.682050
21
430.964605
0
LINE
8
VISIBLE
10
281.682050
20
430.964605
11
281.268539
21
430.190077
0
LINE
8
VISIBLE
10
281.268539
20
430.190077
11
281.013264
21
429.350007
0
LINE
8
VISIBLE
10
281.013264
20
429.350007
11
280.926000
21
428.468000
0
LINE
8
VISIBLE
10
281.625000
20
427.835000
11
281.625000
21
424.602000
0
LINE
8
VISIBLE
10
284.427000
20
422.985000
11
287.226000
21
424.602000
0
LINE
8
VISIBLE
10
285.926000
20
426.218000
11
285.725038
21
426.968000
0
LINE
8
VISIBLE
10
285.725038
20
426.968000
11
285.176000
21
427.517038
0
LINE
8
VISIBLE
10
285.176000
20
427.517038
11
284.426000
21
427.718000
0
LINE
8
VISIBLE
10
284.426000
20
427.718000
11
283.676000
21
427.517038
0
LINE
8
VISIBLE
10
283.676000
20
427.517038
11
283.126962
21
426.968000
0
LINE
8
VISIBLE
10
283.126962
20
426.968000
11
282.926000
21
426.218000
0
LINE
8
VISIBLE
10
282.926000
20
426.218000
11
283.126962
21
425.468000
0
LINE
8
VISIBLE
10
283.126962
20
425.468000
11
283.676000
21
424.918962
0
LINE
8
VISIBLE
10
283.676000
20
424.918962
11
284.426000
21
424.718000
0
LINE
8
VISIBLE
10
284.426000
20
424.718000
11
285.176000
21
424.918962
0
LINE
8
VISIBLE
10
285.176000
20
424.918962
11
285.725038
21
425.468000
0
LINE
8
VISIBLE
10
285.725038
20
425.468000
11
285.926000
21
426.218000
0
LINE
8
VISIBLE
10
285.926000
20
426.218000
11
285.926000
21
426.218000
0
LINE
8
VISIBLE
10
259.564000
20
613.468000
11
249.745000
21
613.468000
0
LINE
8
VISIBLE
10
249.745000
20
617.968000
11
249.745000
21
613.468000
0
LINE
8
VISIBLE
10
239.927000
20
617.968000
11
249.745000
21
617.968000
0
LINE
8
VISIBLE
10
239.927000
20
617.968000
11
239.927000
21
613.468000
0
LINE
8
VISIBLE
10
239.927000
20
613.468000
11
230.109000
21
613.468000
0
LINE
8
VISIBLE
10
230.109000
20
617.968000
11
230.109000
21
613.468000
0
LINE
8
VISIBLE
10
220.291000
20
617.968000
11
230.109000
21
617.968000
0
LINE
8
VISIBLE
10
220.291000
20
617.968000
11
220.291000
21
613.468000
0
LINE
8
VISIBLE
10
220.291000
20
613.468000
11
210.473000
21
613.468000
0
LINE
8
VISIBLE
10
210.473000
20
617.968000
11
210.473000
21
613.468000
0
LINE
8
VISIBLE
10
200.655000
20
617.968000
11
210.473000
21
617.968000
0
LINE
8
VISIBLE
10
200.655000
20
617.968000
11
200.655000
21
613.468000
0
LINE
8
VISIBLE
10
200.655000
20
613.468000
11
190.837000
21
613.468000
0
LINE
8
VISIBLE
10
190.837000
20
617.968000
11
190.837000
21
613.468000
0
LINE
8
VISIBLE
10
181.018000
20
617.968000
11
190.837000
21
617.968000
0
LINE
8
VISIBLE
10
181.018000
20
617.968000
11
181.018000
21
613.468000
0
LINE
8
VISIBLE
10
171.200000
20
617.968000
11
171.200000
21
613.468000
0
LINE
8
VISIBLE
10
161.382000
20
617.968000
11
171.200000
21
617.968000
0
LINE
8
VISIBLE
10
161.382000
20
617.968000
11
161.382000
21
622.969000
0
LINE
8
VISIBLE
10
171.200000
20
622.969000
11
161.382000
21
622.969000
0
LINE
8
VISIBLE
10
171.200000
20
622.969000
11
171.200000
21
627.467000
0
LINE
8
VISIBLE
10
181.018000
20
627.467000
11
171.200000
21
627.467000
0
LINE
8
VISIBLE
10
181.018000
20
622.969000
11
181.018000
21
627.467000
0
LINE
8
VISIBLE
10
190.837000
20
622.969000
11
181.018000
21
622.969000
0
LINE
8
VISIBLE
10
190.837000
20
622.969000
11
190.837000
21
627.467000
0
LINE
8
VISIBLE
10
200.655000
20
627.467000
11
190.837000
21
627.467000
0
LINE
8
VISIBLE
10
200.655000
20
622.969000
11
200.655000
21
627.467000
0
LINE
8
VISIBLE
10
210.473000
20
622.969000
11
200.655000
21
622.969000
0
LINE
8
VISIBLE
10
210.473000
20
622.969000
11
210.473000
21
627.467000
0
LINE
8
VISIBLE
10
220.291000
20
627.467000
11
210.473000
21
627.467000
0
LINE
8
VISIBLE
10
220.291000
20
622.969000
11
220.291000
21
627.467000
0
LINE
8
VISIBLE
10
230.109000
20
622.969000
11
220.291000
21
622.969000
0
LINE
8
VISIBLE
10
239.927000
20
627.467000
11
230.109000
21
627.467000
0
LINE
8
VISIBLE
10
239.927000
20
622.969000
11
239.927000
21
627.467000
0
LINE
8
VISIBLE
10
249.745000
20
622.969000
11
239.927000
21
622.969000
0
LINE
8
VISIBLE
10
249.745000
20
622.969000
11
249.745000
21
627.467000
0
LINE
8
VISIBLE
10
259.564000
20
627.467000
11
249.745000
21
627.467000
0
LINE
8
VISIBLE
10
259.564000
20
622.969000
11
259.564000
21
627.467000
0
LINE
8
VISIBLE
10
269.383000
20
622.969000
11
259.564000
21
622.969000
0
LINE
8
VISIBLE
10
269.383000
20
617.968000
11
269.383000
21
622.969000
0
LINE
8
VISIBLE
10
259.564000
20
617.968000
11
269.383000
21
617.968000
0
LINE
8
VISIBLE
10
259.564000
20
617.968000
11
259.564000
21
613.468000
0
LINE
8
VISIBLE
10
181.018000
20
613.468000
11
171.200000
21
613.468000
0
LINE
8
VISIBLE
10
230.109000
20
622.969000
11
230.109000
21
627.467000
0
LINE
8
VISIBLE
10
166.270000
20
565.572000
11
165.079056
21
565.037861
0
LINE
8
VISIBLE
10
165.079056
20
565.037861
11
164.027292
21
564.318124
0
LINE
8
VISIBLE
10
164.027292
20
564.318124
11
163.129769
21
563.438116
0
LINE
8
VISIBLE
10
163.129769
20
563.438116
11
162.401545
21
562.423167
0
LINE
8
VISIBLE
10
162.401545
20
562.423167
11
161.857679
21
561.298603
0
LINE
8
VISIBLE
10
161.857679
20
561.298603
11
161.513232
21
560.089754
0
LINE
8
VISIBLE
10
161.513232
20
560.089754
11
161.383261
21
558.821946
0
LINE
8
VISIBLE
10
161.383261
20
558.821946
11
161.482827
21
557.520509
0
LINE
8
VISIBLE
10
161.482827
20
557.520509
11
161.812706
21
556.257642
0
LINE
8
VISIBLE
10
161.812706
20
556.257642
11
162.348640
21
555.101354
0
LINE
8
VISIBLE
10
162.348640
20
555.101354
11
163.068140
21
554.070684
0
LINE
8
VISIBLE
10
163.068140
20
554.070684
11
163.948717
21
553.184672
0
LINE
8
VISIBLE
10
163.948717
20
553.184672
11
164.967882
21
552.462358
0
LINE
8
VISIBLE
10
164.967882
20
552.462358
11
166.103143
21
551.922781
0
LINE
8
VISIBLE
10
166.103143
20
551.922781
11
167.332012
21
551.584982
0
LINE
8
VISIBLE
10
167.332012
20
551.584982
11
168.632000
21
551.468000
0
LINE
8
VISIBLE
10
166.270000
20
565.572000
11
167.748133
21
566.171167
0
LINE
8
VISIBLE
10
167.748133
20
566.171167
11
169.142818
21
566.917007
0
LINE
8
VISIBLE
10
169.142818
20
566.917007
11
170.444456
21
567.800517
0
LINE
8
VISIBLE
10
170.444456
20
567.800517
11
171.643449
21
568.812694
0
LINE
8
VISIBLE
10
171.643449
20
568.812694
11
172.730199
21
569.944534
0
LINE
8
VISIBLE
10
172.730199
20
569.944534
11
173.695106
21
571.187034
0
LINE
8
VISIBLE
10
173.695106
20
571.187034
11
174.528572
21
572.531190
0
LINE
8
VISIBLE
10
174.528572
20
572.531190
11
175.221000
21
573.968000
0
LINE
8
VISIBLE
10
186.200000
20
573.968000
11
175.221000
21
573.968000
0
LINE
8
VISIBLE
10
186.200000
20
569.468000
11
186.200000
21
573.968000
0
LINE
8
VISIBLE
10
186.200000
20
569.468000
11
196.018000
21
569.468000
0
LINE
8
VISIBLE
10
196.018000
20
569.468000
11
196.018000
21
573.968000
0
LINE
8
VISIBLE
10
205.837000
20
573.968000
11
196.018000
21
573.968000
0
LINE
8
VISIBLE
10
205.837000
20
569.468000
11
205.837000
21
573.968000
0
LINE
8
VISIBLE
10
205.837000
20
569.468000
11
215.655000
21
569.468000
0
LINE
8
VISIBLE
10
215.655000
20
569.468000
11
215.655000
21
573.968000
0
LINE
8
VISIBLE
10
225.473000
20
573.968000
11
215.655000
21
573.968000
0
LINE
8
VISIBLE
10
225.473000
20
569.468000
11
225.473000
21
573.968000
0
LINE
8
VISIBLE
10
225.473000
20
569.468000
11
235.291000
21
569.468000
0
LINE
8
VISIBLE
10
235.291000
20
569.468000
11
235.291000
21
573.968000
0
LINE
8
VISIBLE
10
245.109000
20
573.968000
11
235.291000
21
573.968000
0
LINE
8
VISIBLE
10
245.109000
20
569.468000
11
245.109000
21
573.968000
0
LINE
8
VISIBLE
10
245.109000
20
569.468000
11
254.927000
21
569.468000
0
LINE
8
VISIBLE
10
254.927000
20
569.468000
11
254.927000
21
573.968000
0
LINE
8
VISIBLE
10
264.744000
20
573.968000
11
254.927000
21
573.968000
0
LINE
8
VISIBLE
10
264.744000
20
569.468000
11
264.744000
21
573.968000
0
LINE
8
VISIBLE
10
264.744000
20
569.468000
11
274.563000
21
569.468000
0
LINE
8
VISIBLE
10
274.563000
20
569.468000
11
274.563000
21
573.968000
0
LINE
8
VISIBLE
10
284.382000
20
573.968000
11
274.563000
21
573.968000
0
LINE
8
VISIBLE
10
284.382000
20
573.968000
11
284.382000
21
566.467000
0
LINE
8
VISIBLE
10
269.382000
20
551.468000
11
272.322020
21
551.758884
0
LINE
8
VISIBLE
10
272.322020
20
551.758884
11
275.122251
21
552.609807
0
LINE
8
VISIBLE
10
275.122251
20
552.609807
11
277.704008
21
553.988176
0
LINE
8
VISIBLE
10
277.704008
20
553.988176
11
279.988602
21
555.861398
0
LINE
8
VISIBLE
10
279.988602
20
555.861398
11
281.861824
21
558.145992
0
LINE
8
VISIBLE
10
281.861824
20
558.145992
11
283.240193
21
560.727749
0
LINE
8
VISIBLE
10
283.240193
20
560.727749
11
284.091116
21
563.527980
0
LINE
8
VISIBLE
10
284.091116
20
563.527980
11
284.382000
21
566.468000
0
LINE
8
VISIBLE
10
269.383000
20
551.468000
11
168.632000
21
551.468000
0
LINE
8
VISIBLE
10
264.744000
20
564.467000
11
264.744000
21
559.968000
0
LINE
8
VISIBLE
10
274.563000
20
559.968000
11
264.744000
21
559.968000
0
LINE
8
VISIBLE
10
274.563000
20
564.467000
11
274.563000
21
559.968000
0
LINE
8
VISIBLE
10
274.563000
20
564.467000
11
264.744000
21
564.467000
0
LINE
8
VISIBLE
10
245.109000
20
564.467000
11
245.109000
21
559.968000
0
LINE
8
VISIBLE
10
254.927000
20
559.968000
11
245.109000
21
559.968000
0
LINE
8
VISIBLE
10
254.927000
20
564.467000
11
254.927000
21
559.968000
0
LINE
8
VISIBLE
10
254.927000
20
564.467000
11
245.109000
21
564.467000
0
LINE
8
VISIBLE
10
225.473000
20
564.467000
11
225.473000
21
559.968000
0
LINE
8
VISIBLE
10
235.291000
20
559.968000
11
225.473000
21
559.968000
0
LINE
8
VISIBLE
10
235.291000
20
564.467000
11
235.291000
21
559.968000
0
LINE
8
VISIBLE
10
235.291000
20
564.467000
11
225.473000
21
564.467000
0
LINE
8
VISIBLE
10
205.837000
20
564.467000
11
205.837000
21
559.968000
0
LINE
8
VISIBLE
10
215.655000
20
559.968000
11
205.837000
21
559.968000
0
LINE
8
VISIBLE
10
215.655000
20
564.467000
11
215.655000
21
559.968000
0
LINE
8
VISIBLE
10
215.655000
20
564.467000
11
205.837000
21
564.467000
0
LINE
8
VISIBLE
10
186.200000
20
564.467000
11
186.200000
21
559.968000
0
LINE
8
VISIBLE
10
196.018000
20
559.968000
11
186.200000
21
559.968000
0
LINE
8
VISIBLE
10
196.018000
20
564.467000
11
196.018000
21
559.968000
0
LINE
8
VISIBLE
10
196.018000
20
564.467000
11
186.200000
21
564.467000
0
LINE
8
VISIBLE
10
230.382000
20
558.643000
11
227.632000
21
557.056000
0
LINE
8
VISIBLE
10
171.832000
20
558.968000
11
171.693533
21
560.011668
0
LINE
8
VISIBLE
10
171.693533
20
560.011668
11
171.296094
21
560.967995
0
LINE
8
VISIBLE
10
171.296094
20
560.967995
11
170.666607
21
561.790348
0
LINE
8
VISIBLE
10
170.666607
20
561.790348
11
169.831995
21
562.432093
0
LINE
8
VISIBLE
10
169.831995
20
562.432093
11
168.858921
21
562.834016
0
LINE
8
VISIBLE
10
168.858921
20
562.834016
11
167.832000
21
562.967990
0
LINE
8
VISIBLE
10
167.832000
20
562.967990
11
166.805079
21
562.834016
0
LINE
8
VISIBLE
10
166.805079
20
562.834016
11
165.832005
21
562.432093
0
LINE
8
VISIBLE
10
165.832005
20
562.432093
11
164.997393
21
561.790348
0
LINE
8
VISIBLE
10
164.997393
20
561.790348
11
164.367907
21
560.967995
0
LINE
8
VISIBLE
10
164.367907
20
560.967995
11
163.970472
21
560.011668
0
LINE
8
VISIBLE
10
163.970472
20
560.011668
11
163.832010
21
558.968000
0
LINE
8
VISIBLE
10
163.832010
20
558.968000
11
163.970474
21
557.924332
0
LINE
8
VISIBLE
10
163.970474
20
557.924332
11
164.367911
21
556.968005
0
LINE
8
VISIBLE
10
164.367911
20
556.968005
11
164.997398
21
556.145652
0
LINE
8
VISIBLE
10
164.997398
20
556.145652
11
165.832010
21
555.503907
0
LINE
8
VISIBLE
10
165.832010
20
555.503907
11
166.805084
21
555.101984
0
LINE
8
VISIBLE
10
166.805084
20
555.101984
11
167.832005
21
554.968010
0
LINE
8
VISIBLE
10
167.832005
20
554.968010
11
168.858926
21
555.101984
0
LINE
8
VISIBLE
10
168.858926
20
555.101984
11
169.832000
21
555.503907
0
LINE
8
VISIBLE
10
169.832000
20
555.503907
11
170.666612
21
556.145652
0
LINE
8
VISIBLE
10
170.666612
20
556.145652
11
171.296098
21
556.968005
0
LINE
8
VISIBLE
10
171.296098
20
556.968005
11
171.693533
21
557.924332
0
LINE
8
VISIBLE
10
171.693533
20
557.924332
11
171.831995
21
558.968000
0
LINE
8
VISIBLE
10
171.831995
20
558.968000
11
171.832000
21
558.968000
0
LINE
8
VISIBLE
10
233.132000
20
553.880000
11
233.132000
21
557.056000
0
LINE
8
VISIBLE
10
227.632000
20
557.056000
11
227.632000
21
553.880000
0
LINE
8
VISIBLE
10
230.382000
20
552.293000
11
233.132000
21
553.880000
0
LINE
8
VISIBLE
10
233.132000
20
557.056000
11
230.382000
21
558.643000
0
LINE
8
VISIBLE
10
227.632000
20
553.880000
11
230.382000
21
552.293000
0
LINE
8
VISIBLE
10
169.782000
20
558.968000
11
169.520750
21
559.943000
0
LINE
8
VISIBLE
10
169.520750
20
559.943000
11
168.807000
21
560.656750
0
LINE
8
VISIBLE
10
168.807000
20
560.656750
11
167.832000
21
560.918000
0
LINE
8
VISIBLE
10
167.832000
20
560.918000
11
166.857000
21
560.656750
0
LINE
8
VISIBLE
10
166.857000
20
560.656750
11
166.143250
21
559.943000
0
LINE
8
VISIBLE
10
166.143250
20
559.943000
11
165.882000
21
558.968000
0
LINE
8
VISIBLE
10
165.882000
20
558.968000
11
166.035241
21
558.208972
0
LINE
8
VISIBLE
10
166.035241
20
558.208972
11
166.453142
21
557.589142
0
LINE
8
VISIBLE
10
166.453142
20
557.589142
11
167.072972
21
557.171241
0
LINE
8
VISIBLE
10
167.072972
20
557.171241
11
167.832000
21
557.018000
0
LINE
8
VISIBLE
10
167.832000
20
557.018000
11
168.591028
21
557.171241
0
LINE
8
VISIBLE
10
168.591028
20
557.171241
11
169.210858
21
557.589142
0
LINE
8
VISIBLE
10
169.210858
20
557.589142
11
169.628759
21
558.208972
0
LINE
8
VISIBLE
10
169.628759
20
558.208972
11
169.782000
21
558.968000
0
LINE
8
VISIBLE
10
169.782000
20
558.968000
11
169.782000
21
558.968000
0
LINE
8
VISIBLE
10
231.882000
20
555.468000
11
231.681038
21
556.218000
0
LINE
8
VISIBLE
10
231.681038
20
556.218000
11
231.132000
21
556.767038
0
LINE
8
VISIBLE
10
231.132000
20
556.767038
11
230.382000
21
556.968000
0
LINE
8
VISIBLE
10
230.382000
20
556.968000
11
229.632000
21
556.767038
0
LINE
8
VISIBLE
10
229.632000
20
556.767038
11
229.082962
21
556.218000
0
LINE
8
VISIBLE
10
229.082962
20
556.218000
11
228.882000
21
555.468000
0
LINE
8
VISIBLE
10
228.882000
20
555.468000
11
229.082962
21
554.718000
0
LINE
8
VISIBLE
10
229.082962
20
554.718000
11
229.632000
21
554.168962
0
LINE
8
VISIBLE
10
229.632000
20
554.168962
11
230.382000
21
553.968000
0
LINE
8
VISIBLE
10
230.382000
20
553.968000
11
231.132000
21
554.168962
0
LINE
8
VISIBLE
10
231.132000
20
554.168962
11
231.681038
21
554.718000
0
LINE
8
VISIBLE
10
231.681038
20
554.718000
11
231.882000
21
555.468000
0
LINE
8
VISIBLE
10
231.882000
20
555.468000
11
231.882000
21
555.468000
0
LINE
8
VISIBLE
10
281.326000
20
508.798000
11
286.326000
21
508.798000
0
LINE
8
VISIBLE
10
281.326000
20
513.798000
11
281.326000
21
508.798000
0
LINE
8
VISIBLE
10
281.326000
20
513.798000
11
286.326000
21
513.798000
0
LINE
8
VISIBLE
10
286.326000
20
513.798000
11
286.326000
21
508.798000
0
LINE
8
VISIBLE
10
278.381000
20
622.469000
11
278.381000
21
626.967000
0
LINE
8
VISIBLE
10
281.881000
20
622.469000
11
278.381000
21
622.469000
0
LINE
8
VISIBLE
10
281.881000
20
617.968000
11
281.881000
21
622.469000
0
LINE
8
VISIBLE
10
281.881000
20
617.968000
11
278.381000
21
617.968000
0
LINE
8
VISIBLE
10
278.381000
20
613.468000
11
278.381000
21
617.968000
0
LINE
8
VISIBLE
10
274.881000
20
613.468000
11
278.381000
21
613.468000
0
LINE
8
VISIBLE
10
274.882000
20
626.968000
11
273.999993
21
626.880736
0
LINE
8
VISIBLE
10
273.999993
20
626.880736
11
273.159923
21
626.625461
0
LINE
8
VISIBLE
10
273.159923
20
626.625461
11
272.385395
21
626.211950
0
LINE
8
VISIBLE
10
272.385395
20
626.211950
11
271.700017
21
625.649983
0
LINE
8
VISIBLE
10
271.700017
20
625.649983
11
271.138050
21
624.964605
0
LINE
8
VISIBLE
10
271.138050
20
624.964605
11
270.724539
21
624.190077
0
LINE
8
VISIBLE
10
270.724539
20
624.190077
11
270.469264
21
623.350007
0
LINE
8
VISIBLE
10
270.469264
20
623.350007
11
270.382000
21
622.468000
0
LINE
8
VISIBLE
10
274.881000
20
626.967000
11
278.381000
21
626.967000
0
LINE
8
VISIBLE
10
271.131000
20
618.630000
11
273.883000
21
617.042000
0
LINE
8
VISIBLE
10
273.883000
20
617.042000
11
276.632000
21
618.630000
0
LINE
8
VISIBLE
10
276.632000
20
618.630000
11
276.632000
21
621.805000
0
LINE
8
VISIBLE
10
271.131000
20
621.805000
11
271.131000
21
618.630000
0
LINE
8
VISIBLE
10
273.883000
20
623.392000
11
271.131000
21
621.805000
0
LINE
8
VISIBLE
10
276.632000
20
621.805000
11
273.883000
21
623.392000
0
LINE
8
VISIBLE
10
270.383000
20
617.968000
11
270.383000
21
622.469000
0
LINE
8
VISIBLE
10
270.382000
20
617.968000
11
270.469264
21
617.085993
0
LINE
8
VISIBLE
10
270.469264
20
617.085993
11
270.724539
21
616.245923
0
LINE
8
VISIBLE
10
270.724539
20
616.245923
11
271.138050
21
615.471395
0
LINE
8
VISIBLE
10
271.138050
20
615.471395
11
271.700017
21
614.786017
0
LINE
8
VISIBLE
10
271.700017
20
614.786017
11
272.385395
21
614.224050
0
LINE
8
VISIBLE
10
272.385395
20
614.224050
11
273.159923
21
613.810539
0
LINE
8
VISIBLE
10
273.159923
20
613.810539
11
273.999993
21
613.555264
0
LINE
8
VISIBLE
10
273.999993
20
613.555264
11
274.882000
21
613.468000
0
LINE
8
VISIBLE
10
275.382000
20
620.218000
11
275.181038
21
620.968000
0
LINE
8
VISIBLE
10
275.181038
20
620.968000
11
274.632000
21
621.517038
0
LINE
8
VISIBLE
10
274.632000
20
621.517038
11
273.882000
21
621.718000
0
LINE
8
VISIBLE
10
273.882000
20
621.718000
11
273.132000
21
621.517038
0
LINE
8
VISIBLE
10
273.132000
20
621.517038
11
272.582962
21
620.968000
0
LINE
8
VISIBLE
10
272.582962
20
620.968000
11
272.382000
21
620.218000
0
LINE
8
VISIBLE
10
272.382000
20
620.218000
11
272.582962
21
619.468000
0
LINE
8
VISIBLE
10
272.582962
20
619.468000
11
273.132000
21
618.918962
0
LINE
8
VISIBLE
10
273.132000
20
618.918962
11
273.882000
21
618.718000
0
LINE
8
VISIBLE
10
273.882000
20
618.718000
11
274.632000
21
618.918962
0
LINE
8
VISIBLE
10
274.632000
20
618.918962
11
275.181038
21
619.468000
0
LINE
8
VISIBLE
10
275.181038
20
619.468000
11
275.382000
21
620.218000
0
LINE
8
VISIBLE
10
275.382000
20
620.218000
11
275.382000
21
620.218000
0
LINE
8
VISIBLE
10
269.383000
20
607.967000
11
269.383000
21
602.969000
0
LINE
8
VISIBLE
10
259.564000
20
598.469000
11
259.564000
21
602.969000
0
LINE
8
VISIBLE
10
239.927000
20
598.469000
11
239.927000
21
602.969000
0
LINE
8
VISIBLE
10
230.109000
20
598.469000
11
230.109000
21
602.969000
0
LINE
8
VISIBLE
10
230.109000
20
602.969000
11
220.291000
21
602.969000
0
LINE
8
VISIBLE
10
220.291000
20
598.469000
11
220.291000
21
602.969000
0
LINE
8
VISIBLE
10
220.291000
20
598.469000
11
210.473000
21
598.469000
0
LINE
8
VISIBLE
10
210.473000
20
598.469000
11
210.473000
21
602.969000
0
LINE
8
VISIBLE
10
210.473000
20
602.969000
11
200.655000
21
602.969000
0
LINE
8
VISIBLE
10
200.655000
20
598.469000
11
200.655000
21
602.969000
0
LINE
8
VISIBLE
10
200.655000
20
598.469000
11
190.837000
21
598.469000
0
LINE
8
VISIBLE
10
190.837000
20
602.969000
11
181.018000
21
602.969000
0
LINE
8
VISIBLE
10
181.018000
20
598.469000
11
181.018000
21
602.969000
0
LINE
8
VISIBLE
10
171.200000
20
602.969000
11
161.382000
21
602.969000
0
LINE
8
VISIBLE
10
161.382000
20
607.967000
11
171.200000
21
607.967000
0
LINE
8
VISIBLE
10
171.200000
20
612.468000
11
171.200000
21
607.967000
0
LINE
8
VISIBLE
10
181.018000
20
612.468000
11
171.200000
21
612.468000
0
LINE
8
VISIBLE
10
181.018000
20
612.468000
11
181.018000
21
607.967000
0
LINE
8
VISIBLE
10
190.837000
20
612.468000
11
190.837000
21
607.967000
0
LINE
8
VISIBLE
10
200.655000
20
612.468000
11
190.837000
21
612.468000
0
LINE
8
VISIBLE
10
200.655000
20
612.468000
11
200.655000
21
607.967000
0
LINE
8
VISIBLE
10
200.655000
20
607.967000
11
210.473000
21
607.967000
0
LINE
8
VISIBLE
10
210.473000
20
612.468000
11
210.473000
21
607.967000
0
LINE
8
VISIBLE
10
220.291000
20
612.468000
11
210.473000
21
612.468000
0
LINE
8
VISIBLE
10
220.291000
20
612.468000
11
220.291000
21
607.967000
0
LINE
8
VISIBLE
10
220.291000
20
607.967000
11
230.109000
21
607.967000
0
LINE
8
VISIBLE
10
230.109000
20
612.468000
11
230.109000
21
607.967000
0
LINE
8
VISIBLE
10
239.927000
20
612.468000
11
230.109000
21
612.468000
0
LINE
8
VISIBLE
10
259.564000
20
612.468000
11
249.745000
21
612.468000
0
LINE
8
VISIBLE
10
259.564000
20
612.468000
11
259.564000
21
607.967000
0
LINE
8
VISIBLE
10
259.564000
20
607.967000
11
269.383000
21
607.967000
0
LINE
8
VISIBLE
10
249.745000
20
612.468000
11
249.745000
21
607.967000
0
LINE
8
VISIBLE
10
269.383000
20
602.969000
11
259.564000
21
602.969000
0
LINE
8
VISIBLE
10
171.200000
20
598.469000
11
171.200000
21
602.969000
0
LINE
8
VISIBLE
10
190.837000
20
598.469000
11
190.837000
21
602.969000
0
LINE
8
VISIBLE
10
161.382000
20
607.967000
11
161.382000
21
602.969000
0
LINE
8
VISIBLE
10
249.745000
20
602.969000
11
239.927000
21
602.969000
0
LINE
8
VISIBLE
10
239.927000
20
598.469000
11
230.109000
21
598.469000
0
LINE
8
VISIBLE
10
239.927000
20
607.967000
11
249.745000
21
607.967000
0
LINE
8
VISIBLE
10
181.018000
20
607.967000
11
190.837000
21
607.967000
0
LINE
8
VISIBLE
10
249.745000
20
598.469000
11
249.745000
21
602.969000
0
LINE
8
VISIBLE
10
259.564000
20
598.469000
11
249.745000
21
598.469000
0
LINE
8
VISIBLE
10
239.927000
20
612.468000
11
239.927000
21
607.967000
0
LINE
8
VISIBLE
10
181.018000
20
598.469000
11
171.200000
21
598.469000
0
LINE
8
VISIBLE
10
252.882000
20
532.128000
11
252.882000
21
535.328000
0
LINE
8
VISIBLE
10
248.382000
20
535.328000
11
252.882000
21
535.328000
0
LINE
8
VISIBLE
10
248.382000
20
538.528000
11
248.382000
21
535.328000
0
LINE
8
VISIBLE
10
248.382000
20
538.528000
11
252.882000
21
538.528000
0
LINE
8
VISIBLE
10
252.882000
20
538.528000
11
252.882000
21
541.728000
0
LINE
8
VISIBLE
10
248.382000
20
541.728000
11
252.882000
21
541.728000
0
LINE
8
VISIBLE
10
248.382000
20
544.928000
11
248.382000
21
541.728000
0
LINE
8
VISIBLE
10
248.382000
20
544.928000
11
252.882000
21
544.928000
0
LINE
8
VISIBLE
10
252.882000
20
544.928000
11
252.882000
21
548.128000
0
LINE
8
VISIBLE
10
259.882000
20
532.128000
11
252.882000
21
532.128000
0
LINE
8
VISIBLE
10
259.882000
20
548.128000
11
252.882000
21
548.128000
0
LINE
8
VISIBLE
10
263.782000
20
540.128000
11
263.554104
21
541.256811
0
LINE
8
VISIBLE
10
263.554104
20
541.256811
11
262.932610
21
542.178609
0
LINE
8
VISIBLE
10
262.932610
20
542.178609
11
262.010811
21
542.800103
0
LINE
8
VISIBLE
10
262.010811
20
542.800103
11
260.882000
21
543.028000
0
LINE
8
VISIBLE
10
260.882000
20
543.028000
11
259.753189
21
542.800103
0
LINE
8
VISIBLE
10
259.753189
20
542.800103
11
258.831390
21
542.178609
0
LINE
8
VISIBLE
10
258.831390
20
542.178609
11
258.209896
21
541.256811
0
LINE
8
VISIBLE
10
258.209896
20
541.256811
11
257.982000
21
540.128000
0
LINE
8
VISIBLE
10
257.982000
20
540.128000
11
258.209896
21
538.999189
0
LINE
8
VISIBLE
10
258.209896
20
538.999189
11
258.831390
21
538.077391
0
LINE
8
VISIBLE
10
258.831390
20
538.077391
11
259.753189
21
537.455897
0
LINE
8
VISIBLE
10
259.753189
20
537.455897
11
260.882000
21
537.228000
0
LINE
8
VISIBLE
10
260.882000
20
537.228000
11
262.010811
21
537.455897
0
LINE
8
VISIBLE
10
262.010811
20
537.455897
11
262.932610
21
538.077391
0
LINE
8
VISIBLE
10
262.932610
20
538.077391
11
263.554104
21
538.999189
0
LINE
8
VISIBLE
10
263.554104
20
538.999189
11
263.782000
21
540.128000
0
LINE
8
VISIBLE
10
263.782000
20
540.128000
11
263.782000
21
540.128000
0
LINE
8
VISIBLE
10
259.882000
20
532.128000
11
261.969339
21
532.404929
0
LINE
8
VISIBLE
10
261.969339
20
532.404929
11
263.881995
21
533.199804
0
LINE
8
VISIBLE
10
263.881995
20
533.199804
11
265.526703
21
534.458778
0
LINE
8
VISIBLE
10
265.526703
20
534.458778
11
266.810195
21
536.128005
0
LINE
8
VISIBLE
10
266.810195
20
536.128005
11
267.614041
21
538.074155
0
LINE
8
VISIBLE
10
267.614041
20
538.074155
11
267.881990
21
540.128000
0
LINE
8
VISIBLE
10
267.881990
20
540.128000
11
267.614041
21
542.181845
0
LINE
8
VISIBLE
10
267.614041
20
542.181845
11
266.810195
21
544.127995
0
LINE
8
VISIBLE
10
266.810195
20
544.127995
11
265.526703
21
545.797222
0
LINE
8
VISIBLE
10
265.526703
20
545.797222
11
263.881995
21
547.056195
0
LINE
8
VISIBLE
10
263.881995
20
547.056195
11
261.969339
21
547.851067
0
LINE
8
VISIBLE
10
261.969339
20
547.851067
11
259.882000
21
548.127990
0
LINE
8
VISIBLE
10
259.882000
20
482.128000
11
252.882000
21
482.128000
0
LINE
8
VISIBLE
10
259.882000
20
466.128000
11
261.969339
21
466.404929
0
LINE
8
VISIBLE
10
261.969339
20
466.404929
11
263.881995
21
467.199804
0
LINE
8
VISIBLE
10
263.881995
20
467.199804
11
265.526703
21
468.458778
0
LINE
8
VISIBLE
10
265.526703
20
468.458778
11
266.810195
21
470.128005
0
LINE
8
VISIBLE
10
266.810195
20
470.128005
11
267.614041
21
472.074155
0
LINE
8
VISIBLE
10
267.614041
20
472.074155
11
267.881990
21
474.128000
0
LINE
8
VISIBLE
10
267.881990
20
474.128000
11
267.614041
21
476.181845
0
LINE
8
VISIBLE
10
267.614041
20
476.181845
11
266.810195
21
478.127995
0
LINE
8
VISIBLE
10
266.810195
20
478.127995
11
265.526703
21
479.797222
0
LINE
8
VISIBLE
10
265.526703
20
479.797222
11
263.881995
21
481.056195
0
LINE
8
VISIBLE
10
263.881995
20
481.056195
11
261.969339
21
481.851067
0
LINE
8
VISIBLE
10
261.969339
20
481.851067
11
259.882000
21
482.127990
0
LINE
8
VISIBLE
10
259.882000
20
466.128000
11
252.882000
21
466.128000
0
LINE
8
VISIBLE
10
252.882000
20
466.128000
11
252.882000
21
469.328000
0
LINE
8
VISIBLE
10
248.382000
20
469.328000
11
252.882000
21
469.328000
0
LINE
8
VISIBLE
10
248.382000
20
472.528000
11
248.382000
21
469.328000
0
LINE
8
VISIBLE
10
248.382000
20
472.528000
11
252.882000
21
472.528000
0
LINE
8
VISIBLE
10
252.882000
20
472.528000
11
252.882000
21
475.728000
0
LINE
8
VISIBLE
10
248.382000
20
475.728000
11
252.882000
21
475.728000
0
LINE
8
VISIBLE
10
248.382000
20
478.928000
11
248.382000
21
475.728000
0
LINE
8
VISIBLE
10
248.382000
20
478.928000
11
252.882000
21
478.928000
0
LINE
8
VISIBLE
10
252.882000
20
478.928000
11
252.882000
21
482.128000
0
LINE
8
VISIBLE
10
263.782000
20
474.128000
11
263.554104
21
475.256811
0
LINE
8
VISIBLE
10
263.554104
20
475.256811
11
262.932610
21
476.178609
0
LINE
8
VISIBLE
10
262.932610
20
476.178609
11
262.010811
21
476.800103
0
LINE
8
VISIBLE
10
262.010811
20
476.800103
11
260.882000
21
477.028000
0
LINE
8
VISIBLE
10
260.882000
20
477.028000
11
259.753189
21
476.800103
0
LINE
8
VISIBLE
10
259.753189
20
476.800103
11
258.831390
21
476.178609
0
LINE
8
VISIBLE
10
258.831390
20
476.178609
11
258.209896
21
475.256811
0
LINE
8
VISIBLE
10
258.209896
20
475.256811
11
257.982000
21
474.128000
0
LINE
8
VISIBLE
10
257.982000
20
474.128000
11
258.209896
21
472.999189
0
LINE
8
VISIBLE
10
258.209896
20
472.999189
11
258.831390
21
472.077391
0
LINE
8
VISIBLE
10
258.831390
20
472.077391
11
259.753189
21
471.455897
0
LINE
8
VISIBLE
10
259.753189
20
471.455897
11
260.882000
21
471.228000
0
LINE
8
VISIBLE
10
260.882000
20
471.228000
11
262.010811
21
471.455897
0
LINE
8
VISIBLE
10
262.010811
20
471.455897
11
262.932610
21
472.077391
0
LINE
8
VISIBLE
10
262.932610
20
472.077391
11
263.554104
21
472.999189
0
LINE
8
VISIBLE
10
263.554104
20
472.999189
11
263.782000
21
474.128000
0
LINE
8
VISIBLE
10
263.782000
20
474.128000
11
263.782000
21
474.128000
0
LINE
8
VISIBLE
10
285.882000
20
630.719000
11
273.883000
21
630.719000
0
LINE
8
VISIBLE
10
285.882000
20
628.467000
11
285.882000
21
630.719000
0
LINE
8
VISIBLE
10
161.382000
20
628.467000
11
285.882000
21
628.467000
0
LINE
8
VISIBLE
10
161.382000
20
628.467000
11
161.382000
21
630.719000
0
LINE
8
VISIBLE
10
173.382000
20
630.719000
11
161.382000
21
630.719000
0
LINE
8
VISIBLE
10
173.382000
20
635.219000
11
161.382000
21
635.219000
0
LINE
8
VISIBLE
10
161.382000
20
637.468000
11
285.882000
21
637.468000
0
LINE
8
VISIBLE
10
285.882000
20
635.219000
11
273.883000
21
635.219000
0
LINE
8
VISIBLE
10
246.473000
20
630.719000
11
237.337000
21
630.719000
0
LINE
8
VISIBLE
10
228.200000
20
630.719000
11
219.064000
21
630.719000
0
LINE
8
VISIBLE
10
209.927000
20
630.719000
11
200.791000
21
630.719000
0
LINE
8
VISIBLE
10
191.655000
20
630.719000
11
182.518000
21
630.719000
0
LINE
8
VISIBLE
10
264.744000
20
630.719000
11
255.609000
21
630.719000
0
LINE
8
VISIBLE
10
246.473000
20
635.219000
11
246.473000
21
630.719000
0
LINE
8
VISIBLE
10
237.337000
20
635.219000
11
237.337000
21
630.719000
0
LINE
8
VISIBLE
10
173.382000
20
635.219000
11
173.382000
21
630.719000
0
LINE
8
VISIBLE
10
182.518000
20
635.219000
11
182.518000
21
630.719000
0
LINE
8
VISIBLE
10
285.882000
20
635.219000
11
285.882000
21
637.468000
0
LINE
8
VISIBLE
10
264.744000
20
635.219000
11
255.609000
21
635.219000
0
LINE
8
VISIBLE
10
264.744000
20
635.219000
11
264.744000
21
630.719000
0
LINE
8
VISIBLE
10
246.473000
20
635.219000
11
237.337000
21
635.219000
0
LINE
8
VISIBLE
10
219.064000
20
635.219000
11
219.064000
21
630.719000
0
LINE
8
VISIBLE
10
200.791000
20
635.219000
11
200.791000
21
630.719000
0
LINE
8
VISIBLE
10
209.927000
20
635.219000
11
209.927000
21
630.719000
0
LINE
8
VISIBLE
10
191.655000
20
635.219000
11
191.655000
21
630.719000
0
LINE
8
VISIBLE
10
161.382000
20
635.219000
11
161.382000
21
637.468000
0
LINE
8
VISIBLE
10
191.655000
20
635.219000
11
182.518000
21
635.219000
0
LINE
8
VISIBLE
10
209.927000
20
635.219000
11
200.791000
21
635.219000
0
LINE
8
VISIBLE
10
228.200000
20
635.219000
11
219.064000
21
635.219000
0
LINE
8
VISIBLE
10
228.200000
20
635.219000
11
228.200000
21
630.719000
0
LINE
8
VISIBLE
10
255.609000
20
635.219000
11
255.609000
21
630.719000
0
LINE
8
VISIBLE
10
273.883000
20
635.219000
11
273.883000
21
630.719000
0
LINE
8
VISIBLE
10
276.882000
20
466.128000
11
277.764007
21
466.215264
0
LINE
8
VISIBLE
10
277.764007
20
466.215264
11
278.604077
21
466.470539
0
LINE
8
VISIBLE
10
278.604077
20
466.470539
11
279.378605
21
466.884050
0
LINE
8
VISIBLE
10
279.378605
20
466.884050
11
280.063983
21
467.446017
0
LINE
8
VISIBLE
10
280.063983
20
467.446017
11
280.625950
21
468.131395
0
LINE
8
VISIBLE
10
280.625950
20
468.131395
11
281.039461
21
468.905923
0
LINE
8
VISIBLE
10
281.039461
20
468.905923
11
281.294736
21
469.745993
0
LINE
8
VISIBLE
10
281.294736
20
469.745993
11
281.382000
21
470.628000
0
LINE
8
VISIBLE
10
276.881000
20
466.128000
11
273.383000
21
466.128000
0
LINE
8
VISIBLE
10
273.383000
20
466.128000
11
273.383000
21
470.688000
0
LINE
8
VISIBLE
10
268.882000
20
470.688000
11
273.383000
21
470.688000
0
LINE
8
VISIBLE
10
268.882000
20
475.248000
11
268.882000
21
470.688000
0
LINE
8
VISIBLE
10
268.882000
20
475.248000
11
273.383000
21
475.248000
0
LINE
8
VISIBLE
10
276.881000
20
479.807000
11
273.383000
21
479.807000
0
LINE
8
VISIBLE
10
281.382000
20
475.307000
11
281.294736
21
476.189007
0
LINE
8
VISIBLE
10
281.294736
20
476.189007
11
281.039461
21
477.029077
0
LINE
8
VISIBLE
10
281.039461
20
477.029077
11
280.625950
21
477.803605
0
LINE
8
VISIBLE
10
280.625950
20
477.803605
11
280.063983
21
478.488983
0
LINE
8
VISIBLE
10
280.063983
20
478.488983
11
279.378605
21
479.050950
0
LINE
8
VISIBLE
10
279.378605
20
479.050950
11
278.604077
21
479.464461
0
LINE
8
VISIBLE
10
278.604077
20
479.464461
11
277.764007
21
479.719736
0
LINE
8
VISIBLE
10
277.764007
20
479.719736
11
276.882000
21
479.807000
0
LINE
8
VISIBLE
10
281.381000
20
475.307000
11
281.381000
21
470.628000
0
LINE
8
VISIBLE
10
273.383000
20
475.248000
11
273.383000
21
479.807000
0
LINE
8
VISIBLE
10
285.426000
20
395.798000
11
284.543993
21
395.710736
0
LINE
8
VISIBLE
10
284.543993
20
395.710736
11
283.703923
21
395.455461
0
LINE
8
VISIBLE
10
283.703923
20
395.455461
11
282.929395
21
395.041950
0
LINE
8
VISIBLE
10
282.929395
20
395.041950
11
282.244017
21
394.479983
0
LINE
8
VISIBLE
10
282.244017
20
394.479983
11
281.682050
21
393.794605
0
LINE
8
VISIBLE
10
281.682050
20
393.794605
11
281.268539
21
393.020077
0
LINE
8
VISIBLE
10
281.268539
20
393.020077
11
281.013264
21
392.180007
0
LINE
8
VISIBLE
10
281.013264
20
392.180007
11
280.926000
21
391.298000
0
LINE
8
VISIBLE
10
285.427000
20
395.798000
11
288.927000
21
395.798000
0
LINE
8
VISIBLE
10
288.927000
20
395.798000
11
288.927000
21
391.298000
0
LINE
8
VISIBLE
10
292.425000
20
391.298000
11
288.927000
21
391.298000
0
LINE
8
VISIBLE
10
292.425000
20
391.298000
11
292.425000
21
386.798000
0
LINE
8
VISIBLE
10
292.425000
20
386.798000
11
288.927000
21
386.798000
0
LINE
8
VISIBLE
10
288.927000
20
386.798000
11
288.927000
21
382.298000
0
LINE
8
VISIBLE
10
280.926000
20
386.798000
11
281.013264
21
385.915993
0
LINE
8
VISIBLE
10
281.013264
20
385.915993
11
281.268539
21
385.075923
0
LINE
8
VISIBLE
10
281.268539
20
385.075923
11
281.682050
21
384.301395
0
LINE
8
VISIBLE
10
281.682050
20
384.301395
11
282.244017
21
383.616017
0
LINE
8
VISIBLE
10
282.244017
20
383.616017
11
282.929395
21
383.054050
0
LINE
8
VISIBLE
10
282.929395
20
383.054050
11
283.703923
21
382.640539
0
LINE
8
VISIBLE
10
283.703923
20
382.640539
11
284.543993
21
382.385264
0
LINE
8
VISIBLE
10
284.543993
20
382.385264
11
285.426000
21
382.298000
0
LINE
8
VISIBLE
10
280.926000
20
391.298000
11
280.926000
21
386.798000
0
LINE
8
VISIBLE
10
287.176000
20
389.048000
11
287.080807
21
389.765524
0
LINE
8
VISIBLE
10
287.080807
20
389.765524
11
286.807570
21
390.423000
0
LINE
8
VISIBLE
10
286.807570
20
390.423000
11
286.374797
21
390.988369
0
LINE
8
VISIBLE
10
286.374797
20
390.988369
11
285.801000
21
391.429570
0
LINE
8
VISIBLE
10
285.801000
20
391.429570
11
285.132010
21
391.705892
0
LINE
8
VISIBLE
10
285.132010
20
391.705892
11
284.426000
21
391.798000
0
LINE
8
VISIBLE
10
284.426000
20
391.798000
11
283.719990
21
391.705892
0
LINE
8
VISIBLE
10
283.719990
20
391.705892
11
283.051000
21
391.429570
0
LINE
8
VISIBLE
10
283.051000
20
391.429570
11
282.477203
21
390.988369
0
LINE
8
VISIBLE
10
282.477203
20
390.988369
11
282.044430
21
390.423000
0
LINE
8
VISIBLE
10
282.044430
20
390.423000
11
281.771193
21
389.765524
0
LINE
8
VISIBLE
10
281.771193
20
389.765524
11
281.676000
21
389.048000
0
LINE
8
VISIBLE
10
281.676000
20
389.048000
11
281.771193
21
388.330476
0
LINE
8
VISIBLE
10
281.771193
20
388.330476
11
282.044430
21
387.673000
0
LINE
8
VISIBLE
10
282.044430
20
387.673000
11
282.477203
21
387.107631
0
LINE
8
VISIBLE
10
282.477203
20
387.107631
11
283.051000
21
386.666430
0
LINE
8
VISIBLE
10
283.051000
20
386.666430
11
283.719990
21
386.390108
0
LINE
8
VISIBLE
10
283.719990
20
386.390108
11
284.426000
21
386.298000
0
LINE
8
VISIBLE
10
284.426000
20
386.298000
11
285.132010
21
386.390108
0
LINE
8
VISIBLE
10
285.132010
20
386.390108
11
285.801000
21
386.666430
0
LINE
8
VISIBLE
10
285.801000
20
386.666430
11
286.374797
21
387.107631
0
LINE
8
VISIBLE
10
286.374797
20
387.107631
11
286.807570
21
387.673000
0
LINE
8
VISIBLE
10
286.807570
20
387.673000
11
287.080807
21
388.330476
0
LINE
8
VISIBLE
10
287.080807
20
388.330476
11
287.176000
21
389.048000
0
LINE
8
VISIBLE
10
287.176000
20
389.048000
11
287.176000
21
389.048000
0
LINE
8
VISIBLE
10
285.427000
20
382.298000
11
288.927000
21
382.298000
0
LINE
8
VISIBLE
10
285.926000
20
389.048000
11
285.725038
21
389.798000
0
LINE
8
VISIBLE
10
285.725038
20
389.798000
11
285.176000
21
390.347038
0
LINE
8
VISIBLE
10
285.176000
20
390.347038
11
284.426000
21
390.548000
0
LINE
8
VISIBLE
10
284.426000
20
390.548000
11
283.676000
21
390.347038
0
LINE
8
VISIBLE
10
283.676000
20
390.347038
11
283.126962
21
389.798000
0
LINE
8
VISIBLE
10
283.126962
20
389.798000
11
282.926000
21
389.048000
0
LINE
8
VISIBLE
10
282.926000
20
389.048000
11
283.126962
21
388.298000
0
LINE
8
VISIBLE
10
283.126962
20
388.298000
11
283.676000
21
387.748962
0
LINE
8
VISIBLE
10
283.676000
20
387.748962
11
284.426000
21
387.548000
0
LINE
8
VISIBLE
10
284.426000
20
387.548000
11
285.176000
21
387.748962
0
LINE
8
VISIBLE
10
285.176000
20
387.748962
11
285.725038
21
388.298000
0
LINE
8
VISIBLE
10
285.725038
20
388.298000
11
285.926000
21
389.048000
0
LINE
8
VISIBLE
10
285.926000
20
389.048000
11
285.926000
21
389.048000
0
LINE
8
VISIBLE
10
242.282000
20
474.128000
11
242.181615
21
474.884661
0
LINE
8
VISIBLE
10
242.181615
20
474.884661
11
241.893474
21
475.578000
0
LINE
8
VISIBLE
10
241.893474
20
475.578000
11
241.437095
21
476.174207
0
LINE
8
VISIBLE
10
241.437095
20
476.174207
11
240.832000
21
476.639474
0
LINE
8
VISIBLE
10
240.832000
20
476.639474
11
240.126520
21
476.930868
0
LINE
8
VISIBLE
10
240.126520
20
476.930868
11
239.382000
21
477.028000
0
LINE
8
VISIBLE
10
239.382000
20
477.028000
11
238.637480
21
476.930868
0
LINE
8
VISIBLE
10
238.637480
20
476.930868
11
237.932000
21
476.639474
0
LINE
8
VISIBLE
10
237.932000
20
476.639474
11
237.326905
21
476.174207
0
LINE
8
VISIBLE
10
237.326905
20
476.174207
11
236.870526
21
475.578000
0
LINE
8
VISIBLE
10
236.870526
20
475.578000
11
236.582385
21
474.884661
0
LINE
8
VISIBLE
10
236.582385
20
474.884661
11
236.482000
21
474.128000
0
LINE
8
VISIBLE
10
236.482000
20
474.128000
11
236.582385
21
473.371339
0
LINE
8
VISIBLE
10
236.582385
20
473.371339
11
236.870526
21
472.678000
0
LINE
8
VISIBLE
10
236.870526
20
472.678000
11
237.326905
21
472.081793
0
LINE
8
VISIBLE
10
237.326905
20
472.081793
11
237.932000
21
471.616526
0
LINE
8
VISIBLE
10
237.932000
20
471.616526
11
238.637480
21
471.325132
0
LINE
8
VISIBLE
10
238.637480
20
471.325132
11
239.382000
21
471.228000
0
LINE
8
VISIBLE
10
239.382000
20
471.228000
11
240.126520
21
471.325132
0
LINE
8
VISIBLE
10
240.126520
20
471.325132
11
240.832000
21
471.616526
0
LINE
8
VISIBLE
10
240.832000
20
471.616526
11
241.437095
21
472.081793
0
LINE
8
VISIBLE
10
241.437095
20
472.081793
11
241.893474
21
472.678000
0
LINE
8
VISIBLE
10
241.893474
20
472.678000
11
242.181615
21
473.371339
0
LINE
8
VISIBLE
10
242.181615
20
473.371339
11
242.282000
21
474.128000
0
LINE
8
VISIBLE
10
242.282000
20
474.128000
11
242.282000
21
474.128000
0
LINE
8
VISIBLE
10
231.882000
20
478.928000
11
231.882000
21
482.128000
0
LINE
8
VISIBLE
10
231.882000
20
482.128000
11
239.382000
21
482.128000
0
LINE
8
VISIBLE
10
239.382000
20
466.128000
11
241.469339
21
466.404929
0
LINE
8
VISIBLE
10
241.469339
20
466.404929
11
243.381995
21
467.199804
0
LINE
8
VISIBLE
10
243.381995
20
467.199804
11
245.026703
21
468.458778
0
LINE
8
VISIBLE
10
245.026703
20
468.458778
11
246.310195
21
470.128005
0
LINE
8
VISIBLE
10
246.310195
20
470.128005
11
247.114041
21
472.074155
0
LINE
8
VISIBLE
10
247.114041
20
472.074155
11
247.381990
21
474.128000
0
LINE
8
VISIBLE
10
247.381990
20
474.128000
11
247.114041
21
476.181845
0
LINE
8
VISIBLE
10
247.114041
20
476.181845
11
246.310195
21
478.127995
0
LINE
8
VISIBLE
10
246.310195
20
478.127995
11
245.026703
21
479.797222
0
LINE
8
VISIBLE
10
245.026703
20
479.797222
11
243.381995
21
481.056195
0
LINE
8
VISIBLE
10
243.381995
20
481.056195
11
241.469339
21
481.851067
0
LINE
8
VISIBLE
10
241.469339
20
481.851067
11
239.382000
21
482.127990
0
LINE
8
VISIBLE
10
231.882000
20
466.128000
11
239.382000
21
466.128000
0
LINE
8
VISIBLE
10
231.882000
20
466.128000
11
231.882000
21
469.328000
0
LINE
8
VISIBLE
10
227.382000
20
469.328000
11
231.882000
21
469.328000
0
LINE
8
VISIBLE
10
227.382000
20
472.528000
11
227.382000
21
469.328000
0
LINE
8
VISIBLE
10
227.382000
20
472.528000
11
231.882000
21
472.528000
0
LINE
8
VISIBLE
10
231.882000
20
472.528000
11
231.882000
21
475.728000
0
LINE
8
VISIBLE
10
227.382000
20
475.728000
11
231.882000
21
475.728000
0
LINE
8
VISIBLE
10
227.382000
20
478.928000
11
227.382000
21
475.728000
0
LINE
8
VISIBLE
10
227.382000
20
478.928000
11
231.882000
21
478.928000
0
LINE
8
VISIBLE
10
278.382000
20
405.628000
11
279.425668
21
405.766467
0
LINE
8
VISIBLE
10
279.425668
20
405.766467
11
280.381995
21
406.163906
0
LINE
8
VISIBLE
10
280.381995
20
406.163906
11
281.204348
21
406.793393
0
LINE
8
VISIBLE
10
281.204348
20
406.793393
11
281.846093
21
407.628005
0
LINE
8
VISIBLE
10
281.846093
20
407.628005
11
282.248016
21
408.601079
0
LINE
8
VISIBLE
10
282.248016
20
408.601079
11
282.381990
21
409.628000
0
LINE
8
VISIBLE
10
282.381990
20
409.628000
11
282.248016
21
410.654921
0
LINE
8
VISIBLE
10
282.248016
20
410.654921
11
281.846093
21
411.627995
0
LINE
8
VISIBLE
10
281.846093
20
411.627995
11
281.204348
21
412.462607
0
LINE
8
VISIBLE
10
281.204348
20
412.462607
11
280.381995
21
413.092093
0
LINE
8
VISIBLE
10
280.381995
20
413.092093
11
279.425668
21
413.489528
0
LINE
8
VISIBLE
10
279.425668
20
413.489528
11
278.382000
21
413.627990
0
LINE
8
VISIBLE
10
231.382000
20
405.629000
11
278.381000
21
405.629000
0
LINE
8
VISIBLE
10
279.382000
20
409.378000
11
279.181038
21
410.128000
0
LINE
8
VISIBLE
10
279.181038
20
410.128000
11
278.632000
21
410.677038
0
LINE
8
VISIBLE
10
278.632000
20
410.677038
11
277.882000
21
410.878000
0
LINE
8
VISIBLE
10
277.882000
20
410.878000
11
277.132000
21
410.677038
0
LINE
8
VISIBLE
10
277.132000
20
410.677038
11
276.582962
21
410.128000
0
LINE
8
VISIBLE
10
276.582962
20
410.128000
11
276.382000
21
409.378000
0
LINE
8
VISIBLE
10
276.382000
20
409.378000
11
276.582962
21
408.628000
0
LINE
8
VISIBLE
10
276.582962
20
408.628000
11
277.132000
21
408.078962
0
LINE
8
VISIBLE
10
277.132000
20
408.078962
11
277.882000
21
407.878000
0
LINE
8
VISIBLE
10
277.882000
20
407.878000
11
278.632000
21
408.078962
0
LINE
8
VISIBLE
10
278.632000
20
408.078962
11
279.181038
21
408.628000
0
LINE
8
VISIBLE
10
279.181038
20
408.628000
11
279.382000
21
409.378000
0
LINE
8
VISIBLE
10
279.382000
20
409.378000
11
279.382000
21
409.378000
0
LINE
8
VISIBLE
10
232.882000
20
409.628000
11
232.681038
21
410.378000
0
LINE
8
VISIBLE
10
232.681038
20
410.378000
11
232.132000
21
410.927038
0
LINE
8
VISIBLE
10
232.132000
20
410.927038
11
231.382000
21
411.128000
0
LINE
8
VISIBLE
10
231.382000
20
411.128000
11
230.632000
21
410.927038
0
LINE
8
VISIBLE
10
230.632000
20
410.927038
11
230.082962
21
410.378000
0
LINE
8
VISIBLE
10
230.082962
20
410.378000
11
229.882000
21
409.628000
0
LINE
8
VISIBLE
10
229.882000
20
409.628000
11
230.082962
21
408.878000
0
LINE
8
VISIBLE
10
230.082962
20
408.878000
11
230.632000
21
408.328962
0
LINE
8
VISIBLE
10
230.632000
20
408.328962
11
231.382000
21
408.128000
0
LINE
8
VISIBLE
10
231.382000
20
408.128000
11
232.132000
21
408.328962
0
LINE
8
VISIBLE
10
232.132000
20
408.328962
11
232.681038
21
408.878000
0
LINE
8
VISIBLE
10
232.681038
20
408.878000
11
232.882000
21
409.628000
0
LINE
8
VISIBLE
10
232.882000
20
409.628000
11
232.882000
21
409.628000
0
LINE
8
VISIBLE
10
231.382000
20
413.628000
11
278.381000
21
413.628000
0
LINE
8
VISIBLE
10
231.382000
20
413.628000
11
230.338332
21
413.489533
0
LINE
8
VISIBLE
10
230.338332
20
413.489533
11
229.382005
21
413.092094
0
LINE
8
VISIBLE
10
229.382005
20
413.092094
11
228.559652
21
412.462607
0
LINE
8
VISIBLE
10
228.559652
20
412.462607
11
227.917907
21
411.627995
0
LINE
8
VISIBLE
10
227.917907
20
411.627995
11
227.515984
21
410.654921
0
LINE
8
VISIBLE
10
227.515984
20
410.654921
11
227.382010
21
409.628000
0
LINE
8
VISIBLE
10
227.382010
20
409.628000
11
227.515984
21
408.601079
0
LINE
8
VISIBLE
10
227.515984
20
408.601079
11
227.917907
21
407.628005
0
LINE
8
VISIBLE
10
227.917907
20
407.628005
11
228.559652
21
406.793393
0
LINE
8
VISIBLE
10
228.559652
20
406.793393
11
229.382005
21
406.163907
0
LINE
8
VISIBLE
10
229.382005
20
406.163907
11
230.338332
21
405.766472
0
LINE
8
VISIBLE
10
230.338332
20
405.766472
11
231.382000
21
405.628010
0
LINE
8
VISIBLE
10
285.426000
20
372.468000
11
284.543993
21
372.380736
0
LINE
8
VISIBLE
10
284.543993
20
372.380736
11
283.703923
21
372.125461
0
LINE
8
VISIBLE
10
283.703923
20
372.125461
11
282.929395
21
371.711950
0
LINE
8
VISIBLE
10
282.929395
20
371.711950
11
282.244017
21
371.149983
0
LINE
8
VISIBLE
10
282.244017
20
371.149983
11
281.682050
21
370.464605
0
LINE
8
VISIBLE
10
281.682050
20
370.464605
11
281.268539
21
369.690077
0
LINE
8
VISIBLE
10
281.268539
20
369.690077
11
281.013264
21
368.850007
0
LINE
8
VISIBLE
10
281.013264
20
368.850007
11
280.926000
21
367.968000
0
LINE
8
VISIBLE
10
285.427000
20
372.468000
11
288.927000
21
372.468000
0
LINE
8
VISIBLE
10
292.425000
20
367.968000
11
288.927000
21
367.968000
0
LINE
8
VISIBLE
10
292.425000
20
367.968000
11
292.425000
21
363.468000
0
LINE
8
VISIBLE
10
292.425000
20
363.468000
11
288.927000
21
363.468000
0
LINE
8
VISIBLE
10
280.926000
20
363.468000
11
281.013264
21
362.585993
0
LINE
8
VISIBLE
10
281.013264
20
362.585993
11
281.268539
21
361.745923
0
LINE
8
VISIBLE
10
281.268539
20
361.745923
11
281.682050
21
360.971395
0
LINE
8
VISIBLE
10
281.682050
20
360.971395
11
282.244017
21
360.286017
0
LINE
8
VISIBLE
10
282.244017
20
360.286017
11
282.929395
21
359.724050
0
LINE
8
VISIBLE
10
282.929395
20
359.724050
11
283.703923
21
359.310539
0
LINE
8
VISIBLE
10
283.703923
20
359.310539
11
284.543993
21
359.055264
0
LINE
8
VISIBLE
10
284.543993
20
359.055264
11
285.426000
21
358.968000
0
LINE
8
VISIBLE
10
280.926000
20
367.968000
11
280.926000
21
363.468000
0
LINE
8
VISIBLE
10
287.176000
20
365.718000
11
287.080807
21
366.435524
0
LINE
8
VISIBLE
10
287.080807
20
366.435524
11
286.807570
21
367.093000
0
LINE
8
VISIBLE
10
286.807570
20
367.093000
11
286.374797
21
367.658369
0
LINE
8
VISIBLE
10
286.374797
20
367.658369
11
285.801000
21
368.099570
0
LINE
8
VISIBLE
10
285.801000
20
368.099570
11
285.132010
21
368.375892
0
LINE
8
VISIBLE
10
285.132010
20
368.375892
11
284.426000
21
368.468000
0
LINE
8
VISIBLE
10
284.426000
20
368.468000
11
283.719990
21
368.375892
0
LINE
8
VISIBLE
10
283.719990
20
368.375892
11
283.051000
21
368.099570
0
LINE
8
VISIBLE
10
283.051000
20
368.099570
11
282.477203
21
367.658369
0
LINE
8
VISIBLE
10
282.477203
20
367.658369
11
282.044430
21
367.093000
0
LINE
8
VISIBLE
10
282.044430
20
367.093000
11
281.771193
21
366.435524
0
LINE
8
VISIBLE
10
281.771193
20
366.435524
11
281.676000
21
365.718000
0
LINE
8
VISIBLE
10
281.676000
20
365.718000
11
281.771193
21
365.000476
0
LINE
8
VISIBLE
10
281.771193
20
365.000476
11
282.044430
21
364.343000
0
LINE
8
VISIBLE
10
282.044430
20
364.343000
11
282.477203
21
363.777631
0
LINE
8
VISIBLE
10
282.477203
20
363.777631
11
283.051000
21
363.336430
0
LINE
8
VISIBLE
10
283.051000
20
363.336430
11
283.719990
21
363.060108
0
LINE
8
VISIBLE
10
283.719990
20
363.060108
11
284.426000
21
362.968000
0
LINE
8
VISIBLE
10
284.426000
20
362.968000
11
285.132010
21
363.060108
0
LINE
8
VISIBLE
10
285.132010
20
363.060108
11
285.801000
21
363.336430
0
LINE
8
VISIBLE
10
285.801000
20
363.336430
11
286.374797
21
363.777631
0
LINE
8
VISIBLE
10
286.374797
20
363.777631
11
286.807570
21
364.343000
0
LINE
8
VISIBLE
10
286.807570
20
364.343000
11
287.080807
21
365.000476
0
LINE
8
VISIBLE
10
287.080807
20
365.000476
11
287.176000
21
365.718000
0
LINE
8
VISIBLE
10
287.176000
20
365.718000
11
287.176000
21
365.718000
0
LINE
8
VISIBLE
10
288.927000
20
372.468000
11
288.927000
21
367.968000
0
LINE
8
VISIBLE
10
288.927000
20
363.468000
11
288.927000
21
358.968000
0
LINE
8
VISIBLE
10
285.427000
20
358.968000
11
288.927000
21
358.968000
0
LINE
8
VISIBLE
10
285.926000
20
365.718000
11
285.725038
21
366.468000
0
LINE
8
VISIBLE
10
285.725038
20
366.468000
11
285.176000
21
367.017038
0
LINE
8
VISIBLE
10
285.176000
20
367.017038
11
284.426000
21
367.218000
0
LINE
8
VISIBLE
10
284.426000
20
367.218000
11
283.676000
21
367.017038
0
LINE
8
VISIBLE
10
283.676000
20
367.017038
11
283.126962
21
366.468000
0
LINE
8
VISIBLE
10
283.126962
20
366.468000
11
282.926000
21
365.718000
0
LINE
8
VISIBLE
10
282.926000
20
365.718000
11
283.126962
21
364.968000
0
LINE
8
VISIBLE
10
283.126962
20
364.968000
11
283.676000
21
364.418962
0
LINE
8
VISIBLE
10
283.676000
20
364.418962
11
284.426000
21
364.218000
0
LINE
8
VISIBLE
10
284.426000
20
364.218000
11
285.176000
21
364.418962
0
LINE
8
VISIBLE
10
285.176000
20
364.418962
11
285.725038
21
364.968000
0
LINE
8
VISIBLE
10
285.725038
20
364.968000
11
285.926000
21
365.718000
0
LINE
8
VISIBLE
10
285.926000
20
365.718000
11
285.926000
21
365.718000
0
LINE
8
VISIBLE
10
275.984000
20
520.948000
11
270.269000
21
520.948000
0
LINE
8
VISIBLE
10
270.269000
20
520.948000
11
267.411000
21
515.998000
0
LINE
8
VISIBLE
10
280.326000
20
515.998000
11
280.076763
21
517.876604
0
LINE
8
VISIBLE
10
280.076763
20
517.876604
11
279.361375
21
519.597995
0
LINE
8
VISIBLE
10
279.361375
20
519.597995
11
278.228299
21
521.078232
0
LINE
8
VISIBLE
10
278.228299
20
521.078232
11
276.725995
21
522.233374
0
LINE
8
VISIBLE
10
276.725995
20
522.233374
11
274.974460
21
522.956836
0
LINE
8
VISIBLE
10
274.974460
20
522.956836
11
273.126000
21
523.197990
0
LINE
8
VISIBLE
10
273.126000
20
523.197990
11
271.277540
21
522.956836
0
LINE
8
VISIBLE
10
271.277540
20
522.956836
11
269.526005
21
522.233374
0
LINE
8
VISIBLE
10
269.526005
20
522.233374
11
268.023701
21
521.078232
0
LINE
8
VISIBLE
10
268.023701
20
521.078232
11
266.890626
21
519.597995
0
LINE
8
VISIBLE
10
266.890626
20
519.597995
11
266.175241
21
517.876604
0
LINE
8
VISIBLE
10
266.175241
20
517.876604
11
265.926010
21
515.998000
0
LINE
8
VISIBLE
10
265.926010
20
515.998000
11
266.175244
21
514.119396
0
LINE
8
VISIBLE
10
266.175244
20
514.119396
11
266.890630
21
512.398005
0
LINE
8
VISIBLE
10
266.890630
20
512.398005
11
268.023706
21
510.917768
0
LINE
8
VISIBLE
10
268.023706
20
510.917768
11
269.526010
21
509.762626
0
LINE
8
VISIBLE
10
269.526010
20
509.762626
11
271.277545
21
509.039164
0
LINE
8
VISIBLE
10
271.277545
20
509.039164
11
273.126005
21
508.798010
0
LINE
8
VISIBLE
10
273.126005
20
508.798010
11
274.974465
21
509.039164
0
LINE
8
VISIBLE
10
274.974465
20
509.039164
11
276.726000
21
509.762626
0
LINE
8
VISIBLE
10
276.726000
20
509.762626
11
278.228304
21
510.917768
0
LINE
8
VISIBLE
10
278.228304
20
510.917768
11
279.361379
21
512.398005
0
LINE
8
VISIBLE
10
279.361379
20
512.398005
11
280.076764
21
514.119396
0
LINE
8
VISIBLE
10
280.076764
20
514.119396
11
280.325995
21
515.998000
0
LINE
8
VISIBLE
10
280.325995
20
515.998000
11
280.326000
21
515.998000
0
LINE
8
VISIBLE
10
278.841000
20
515.998000
11
275.984000
21
520.948000
0
LINE
8
VISIBLE
10
267.411000
20
515.998000
11
270.269000
21
511.048000
0
LINE
8
VISIBLE
10
270.269000
20
511.048000
11
275.984000
21
511.048000
0
LINE
8
VISIBLE
10
275.984000
20
511.048000
11
278.841000
21
515.998000
0
LINE
8
VISIBLE
10
248.926000
20
496.968000
11
248.926000
21
489.968000
0
LINE
8
VISIBLE
10
264.926000
20
496.968000
11
264.649071
21
499.055339
0
LINE
8
VISIBLE
10
264.649071
20
499.055339
11
263.854196
21
500.967995
0
LINE
8
VISIBLE
10
263.854196
20
500.967995
11
262.595222
21
502.612703
0
LINE
8
VISIBLE
10
262.595222
20
502.612703
11
260.925995
21
503.896195
0
LINE
8
VISIBLE
10
260.925995
20
503.896195
11
258.979845
21
504.700041
0
LINE
8
VISIBLE
10
258.979845
20
504.700041
11
256.926000
21
504.967990
0
LINE
8
VISIBLE
10
256.926000
20
504.967990
11
254.872155
21
504.700041
0
LINE
8
VISIBLE
10
254.872155
20
504.700041
11
252.926005
21
503.896195
0
LINE
8
VISIBLE
10
252.926005
20
503.896195
11
251.256778
21
502.612703
0
LINE
8
VISIBLE
10
251.256778
20
502.612703
11
249.997805
21
500.967995
0
LINE
8
VISIBLE
10
249.997805
20
500.967995
11
249.202933
21
499.055339
0
LINE
8
VISIBLE
10
249.202933
20
499.055339
11
248.926010
21
496.968000
0
LINE
8
VISIBLE
10
264.927000
20
496.968000
11
264.927000
21
489.968000
0
LINE
8
VISIBLE
10
264.927000
20
489.968000
11
261.726000
21
489.968000
0
LINE
8
VISIBLE
10
261.726000
20
485.468000
11
261.726000
21
489.968000
0
LINE
8
VISIBLE
10
258.526000
20
485.468000
11
261.726000
21
485.468000
0
LINE
8
VISIBLE
10
258.526000
20
485.468000
11
258.526000
21
489.968000
0
LINE
8
VISIBLE
10
258.526000
20
489.968000
11
255.326000
21
489.968000
0
LINE
8
VISIBLE
10
255.326000
20
485.468000
11
255.326000
21
489.968000
0
LINE
8
VISIBLE
10
252.126000
20
485.468000
11
255.326000
21
485.468000
0
LINE
8
VISIBLE
10
252.126000
20
485.468000
11
252.126000
21
489.968000
0
LINE
8
VISIBLE
10
252.126000
20
489.968000
11
248.926000
21
489.968000
0
LINE
8
VISIBLE
10
259.826000
20
497.968000
11
259.725615
21
498.724661
0
LINE
8
VISIBLE
10
259.725615
20
498.724661
11
259.437474
21
499.418000
0
LINE
8
VISIBLE
10
259.437474
20
499.418000
11
258.981095
21
500.014207
0
LINE
8
VISIBLE
10
258.981095
20
500.014207
11
258.376000
21
500.479474
0
LINE
8
VISIBLE
10
258.376000
20
500.479474
11
257.670520
21
500.770868
0
LINE
8
VISIBLE
10
257.670520
20
500.770868
11
256.926000
21
500.868000
0
LINE
8
VISIBLE
10
256.926000
20
500.868000
11
256.181480
21
500.770868
0
LINE
8
VISIBLE
10
256.181480
20
500.770868
11
255.476000
21
500.479474
0
LINE
8
VISIBLE
10
255.476000
20
500.479474
11
254.870905
21
500.014207
0
LINE
8
VISIBLE
10
254.870905
20
500.014207
11
254.414526
21
499.418000
0
LINE
8
VISIBLE
10
254.414526
20
499.418000
11
254.126385
21
498.724661
0
LINE
8
VISIBLE
10
254.126385
20
498.724661
11
254.026000
21
497.968000
0
LINE
8
VISIBLE
10
254.026000
20
497.968000
11
254.126385
21
497.211339
0
LINE
8
VISIBLE
10
254.126385
20
497.211339
11
254.414526
21
496.518000
0
LINE
8
VISIBLE
10
254.414526
20
496.518000
11
254.870905
21
495.921793
0
LINE
8
VISIBLE
10
254.870905
20
495.921793
11
255.476000
21
495.456526
0
LINE
8
VISIBLE
10
255.476000
20
495.456526
11
256.181480
21
495.165132
0
LINE
8
VISIBLE
10
256.181480
20
495.165132
11
256.926000
21
495.068000
0
LINE
8
VISIBLE
10
256.926000
20
495.068000
11
257.670520
21
495.165132
0
LINE
8
VISIBLE
10
257.670520
20
495.165132
11
258.376000
21
495.456526
0
LINE
8
VISIBLE
10
258.376000
20
495.456526
11
258.981095
21
495.921793
0
LINE
8
VISIBLE
10
258.981095
20
495.921793
11
259.437474
21
496.518000
0
LINE
8
VISIBLE
10
259.437474
20
496.518000
11
259.725615
21
497.211339
0
LINE
8
VISIBLE
10
259.725615
20
497.211339
11
259.826000
21
497.968000
0
LINE
8
VISIBLE
10
259.826000
20
497.968000
11
259.826000
21
497.968000
0
LINE
8
VISIBLE
10
229.382000
20
353.468000
11
333.383000
21
353.468000
0
LINE
8
VISIBLE
10
229.382000
20
357.968000
11
333.383000
21
357.968000
0
LINE
8
VISIBLE
10
335.383000
20
355.968000
11
335.383000
21
355.468000
0
LINE
8
VISIBLE
10
227.382000
20
355.968000
11
227.382000
21
355.468000
0
LINE
8
VISIBLE
10
335.382000
20
355.968000
11
335.229759
21
356.733367
0
LINE
8
VISIBLE
10
335.229759
20
356.733367
11
334.796214
21
357.382214
0
LINE
8
VISIBLE
10
334.796214
20
357.382214
11
334.147367
21
357.815759
0
LINE
8
VISIBLE
10
334.147367
20
357.815759
11
333.382000
21
357.968000
0
LINE
8
VISIBLE
10
333.382000
20
353.468000
11
334.147367
21
353.620241
0
LINE
8
VISIBLE
10
334.147367
20
353.620241
11
334.796214
21
354.053786
0
LINE
8
VISIBLE
10
334.796214
20
354.053786
11
335.229759
21
354.702633
0
LINE
8
VISIBLE
10
335.229759
20
354.702633
11
335.382000
21
355.468000
0
LINE
8
VISIBLE
10
227.382000
20
355.468000
11
227.534241
21
354.702633
0
LINE
8
VISIBLE
10
227.534241
20
354.702633
11
227.967786
21
354.053786
0
LINE
8
VISIBLE
10
227.967786
20
354.053786
11
228.616633
21
353.620241
0
LINE
8
VISIBLE
10
228.616633
20
353.620241
11
229.382000
21
353.468000
0
LINE
8
VISIBLE
10
229.382000
20
357.968000
11
228.616633
21
357.815759
0
LINE
8
VISIBLE
10
228.616633
20
357.815759
11
227.967786
21
357.382214
0
LINE
8
VISIBLE
10
227.967786
20
357.382214
11
227.534241
21
356.733367
0
LINE
8
VISIBLE
10
227.534241
20
356.733367
11
227.382000
21
355.968000
0
LINE
8
VISIBLE
10
280.326000
20
492.668000
11
280.076763
21
494.546604
0
LINE
8
VISIBLE
10
280.076763
20
494.546604
11
279.361375
21
496.267995
0
LINE
8
VISIBLE
10
279.361375
20
496.267995
11
278.228299
21
497.748232
0
LINE
8
VISIBLE
10
278.228299
20
497.748232
11
276.725995
21
498.903374
0
LINE
8
VISIBLE
10
276.725995
20
498.903374
11
274.974460
21
499.626836
0
LINE
8
VISIBLE
10
274.974460
20
499.626836
11
273.126000
21
499.867990
0
LINE
8
VISIBLE
10
273.126000
20
499.867990
11
271.277540
21
499.626836
0
LINE
8
VISIBLE
10
271.277540
20
499.626836
11
269.526005
21
498.903374
0
LINE
8
VISIBLE
10
269.526005
20
498.903374
11
268.023701
21
497.748232
0
LINE
8
VISIBLE
10
268.023701
20
497.748232
11
266.890626
21
496.267995
0
LINE
8
VISIBLE
10
266.890626
20
496.267995
11
266.175241
21
494.546604
0
LINE
8
VISIBLE
10
266.175241
20
494.546604
11
265.926010
21
492.668000
0
LINE
8
VISIBLE
10
265.926010
20
492.668000
11
266.175244
21
490.789396
0
LINE
8
VISIBLE
10
266.175244
20
490.789396
11
266.890630
21
489.068005
0
LINE
8
VISIBLE
10
266.890630
20
489.068005
11
268.023706
21
487.587768
0
LINE
8
VISIBLE
10
268.023706
20
487.587768
11
269.526010
21
486.432626
0
LINE
8
VISIBLE
10
269.526010
20
486.432626
11
271.277545
21
485.709164
0
LINE
8
VISIBLE
10
271.277545
20
485.709164
11
273.126005
21
485.468010
0
LINE
8
VISIBLE
10
273.126005
20
485.468010
11
274.974465
21
485.709164
0
LINE
8
VISIBLE
10
274.974465
20
485.709164
11
276.726000
21
486.432626
0
LINE
8
VISIBLE
10
276.726000
20
486.432626
11
278.228304
21
487.587768
0
LINE
8
VISIBLE
10
278.228304
20
487.587768
11
279.361379
21
489.068005
0
LINE
8
VISIBLE
10
279.361379
20
489.068005
11
280.076764
21
490.789396
0
LINE
8
VISIBLE
10
280.076764
20
490.789396
11
280.325995
21
492.668000
0
LINE
8
VISIBLE
10
280.325995
20
492.668000
11
280.326000
21
492.668000
0
LINE
8
VISIBLE
10
275.375000
20
490.388000
11
275.375000
21
494.948000
0
LINE
8
VISIBLE
10
270.875000
20
490.388000
11
270.875000
21
494.948000
0
LINE
8
VISIBLE
10
270.875000
20
494.948000
11
275.375000
21
494.948000
0
LINE
8
VISIBLE
10
270.875000
20
490.388000
11
275.375000
21
490.388000
0
LINE
8
VISIBLE
10
270.383000
20
602.969000
11
273.883000
21
602.969000
0
LINE
8
VISIBLE
10
270.383000
20
607.467000
11
273.883000
21
607.467000
0
LINE
8
VISIBLE
10
273.883000
20
611.968000
11
273.883000
21
607.467000
0
LINE
8
VISIBLE
10
277.381000
20
611.968000
11
273.883000
21
611.968000
0
LINE
8
VISIBLE
10
281.882000
20
607.468000
11
281.794736
21
608.350007
0
LINE
8
VISIBLE
10
281.794736
20
608.350007
11
281.539461
21
609.190077
0
LINE
8
VISIBLE
10
281.539461
20
609.190077
11
281.125950
21
609.964605
0
LINE
8
VISIBLE
10
281.125950
20
609.964605
11
280.563983
21
610.649983
0
LINE
8
VISIBLE
10
280.563983
20
610.649983
11
279.878605
21
611.211950
0
LINE
8
VISIBLE
10
279.878605
20
611.211950
11
279.104077
21
611.625461
0
LINE
8
VISIBLE
10
279.104077
20
611.625461
11
278.264007
21
611.880736
0
LINE
8
VISIBLE
10
278.264007
20
611.880736
11
277.382000
21
611.968000
0
LINE
8
VISIBLE
10
281.881000
20
607.467000
11
281.881000
21
602.969000
0
LINE
8
VISIBLE
10
277.382000
20
598.468000
11
278.264007
21
598.555264
0
LINE
8
VISIBLE
10
278.264007
20
598.555264
11
279.104077
21
598.810539
0
LINE
8
VISIBLE
10
279.104077
20
598.810539
11
279.878605
21
599.224050
0
LINE
8
VISIBLE
10
279.878605
20
599.224050
11
280.563983
21
599.786017
0
LINE
8
VISIBLE
10
280.563983
20
599.786017
11
281.125950
21
600.471395
0
LINE
8
VISIBLE
10
281.125950
20
600.471395
11
281.539461
21
601.245923
0
LINE
8
VISIBLE
10
281.539461
20
601.245923
11
281.794736
21
602.085993
0
LINE
8
VISIBLE
10
281.794736
20
602.085993
11
281.882000
21
602.968000
0
LINE
8
VISIBLE
10
277.381000
20
598.469000
11
273.883000
21
598.469000
0
LINE
8
VISIBLE
10
281.132000
20
605.218000
11
281.036807
21
605.935524
0
LINE
8
VISIBLE
10
281.036807
20
605.935524
11
280.763570
21
606.593000
0
LINE
8
VISIBLE
10
280.763570
20
606.593000
11
280.330797
21
607.158369
0
LINE
8
VISIBLE
10
280.330797
20
607.158369
11
279.757000
21
607.599570
0
LINE
8
VISIBLE
10
279.757000
20
607.599570
11
279.088010
21
607.875892
0
LINE
8
VISIBLE
10
279.088010
20
607.875892
11
278.382000
21
607.968000
0
LINE
8
VISIBLE
10
278.382000
20
607.968000
11
277.675990
21
607.875892
0
LINE
8
VISIBLE
10
277.675990
20
607.875892
11
277.007000
21
607.599570
0
LINE
8
VISIBLE
10
277.007000
20
607.599570
11
276.433203
21
607.158369
0
LINE
8
VISIBLE
10
276.433203
20
607.158369
11
276.000430
21
606.593000
0
LINE
8
VISIBLE
10
276.000430
20
606.593000
11
275.727193
21
605.935524
0
LINE
8
VISIBLE
10
275.727193
20
605.935524
11
275.632000
21
605.218000
0
LINE
8
VISIBLE
10
275.632000
20
605.218000
11
275.727193
21
604.500476
0
LINE
8
VISIBLE
10
275.727193
20
604.500476
11
276.000430
21
603.843000
0
LINE
8
VISIBLE
10
276.000430
20
603.843000
11
276.433203
21
603.277631
0
LINE
8
VISIBLE
10
276.433203
20
603.277631
11
277.007000
21
602.836430
0
LINE
8
VISIBLE
10
277.007000
20
602.836430
11
277.675990
21
602.560108
0
LINE
8
VISIBLE
10
277.675990
20
602.560108
11
278.382000
21
602.468000
0
LINE
8
VISIBLE
10
278.382000
20
602.468000
11
279.088010
21
602.560108
0
LINE
8
VISIBLE
10
279.088010
20
602.560108
11
279.757000
21
602.836430
0
LINE
8
VISIBLE
10
279.757000
20
602.836430
11
280.330797
21
603.277631
0
LINE
8
VISIBLE
10
280.330797
20
603.277631
11
280.763570
21
603.843000
0
LINE
8
VISIBLE
10
280.763570
20
603.843000
11
281.036807
21
604.500476
0
LINE
8
VISIBLE
10
281.036807
20
604.500476
11
281.132000
21
605.218000
0
LINE
8
VISIBLE
10
281.132000
20
605.218000
11
281.132000
21
605.218000
0
LINE
8
VISIBLE
10
270.383000
20
607.467000
11
270.383000
21
602.969000
0
LINE
8
VISIBLE
10
273.883000
20
602.969000
11
273.883000
21
598.469000
0
LINE
8
VISIBLE
10
279.882000
20
605.218000
11
279.681038
21
605.968000
0
LINE
8
VISIBLE
10
279.681038
20
605.968000
11
279.132000
21
606.517038
0
LINE
8
VISIBLE
10
279.132000
20
606.517038
11
278.382000
21
606.718000
0
LINE
8
VISIBLE
10
278.382000
20
606.718000
11
277.632000
21
606.517038
0
LINE
8
VISIBLE
10
277.632000
20
606.517038
11
277.082962
21
605.968000
0
LINE
8
VISIBLE
10
277.082962
20
605.968000
11
276.882000
21
605.218000
0
LINE
8
VISIBLE
10
276.882000
20
605.218000
11
277.082962
21
604.468000
0
LINE
8
VISIBLE
10
277.082962
20
604.468000
11
277.632000
21
603.918962
0
LINE
8
VISIBLE
10
277.632000
20
603.918962
11
278.382000
21
603.718000
0
LINE
8
VISIBLE
10
278.382000
20
603.718000
11
279.132000
21
603.918962
0
LINE
8
VISIBLE
10
279.132000
20
603.918962
11
279.681038
21
604.468000
0
LINE
8
VISIBLE
10
279.681038
20
604.468000
11
279.882000
21
605.218000
0
LINE
8
VISIBLE
10
279.882000
20
605.218000
11
279.882000
21
605.218000
0
LINE
8
VISIBLE
10
238.382000
20
425.883000
11
233.382000
21
425.883000
0
LINE
8
VISIBLE
10
240.632000
20
433.133000
11
240.632000
21
428.133000
0
LINE
8
VISIBLE
10
247.926000
20
430.896000
11
247.770404
21
432.070380
0
LINE
8
VISIBLE
10
247.770404
20
432.070380
11
247.323337
21
433.146503
0
LINE
8
VISIBLE
10
247.323337
20
433.146503
11
246.615102
21
434.071875
0
LINE
8
VISIBLE
10
246.615102
20
434.071875
11
245.676000
21
434.794000
0
LINE
8
VISIBLE
10
247.926000
20
430.896000
11
247.926000
21
430.370000
0
LINE
8
VISIBLE
10
234.588000
20
420.071000
11
245.676000
21
426.473000
0
LINE
8
VISIBLE
10
230.088000
20
420.071000
11
231.182711
21
419.618835
0
LINE
8
VISIBLE
10
231.182711
20
419.618835
11
232.338000
21
419.468113
0
LINE
8
VISIBLE
10
232.338000
20
419.468113
11
233.493289
21
419.618835
0
LINE
8
VISIBLE
10
233.493289
20
419.618835
11
234.588000
21
420.071000
0
LINE
8
VISIBLE
10
229.632000
20
420.334000
11
230.088000
21
420.071000
0
LINE
8
VISIBLE
10
234.588000
20
441.195000
11
245.676000
21
434.794000
0
LINE
8
VISIBLE
10
233.382000
20
425.883000
11
233.382000
21
428.133000
0
LINE
8
VISIBLE
10
238.382000
20
428.133000
11
238.382000
21
425.883000
0
LINE
8
VISIBLE
10
240.632000
20
428.133000
11
238.382000
21
428.133000
0
LINE
8
VISIBLE
10
238.382000
20
435.383000
11
238.382000
21
433.133000
0
LINE
8
VISIBLE
10
230.088000
20
441.195000
11
229.632000
21
440.932000
0
LINE
8
VISIBLE
10
238.382000
20
433.133000
11
240.632000
21
433.133000
0
LINE
8
VISIBLE
10
231.132000
20
433.133000
11
233.382000
21
433.133000
0
LINE
8
VISIBLE
10
231.132000
20
428.133000
11
231.132000
21
433.133000
0
LINE
8
VISIBLE
10
233.382000
20
428.133000
11
231.132000
21
428.133000
0
LINE
8
VISIBLE
10
229.632000
20
440.932000
11
228.693079
21
440.210056
0
LINE
8
VISIBLE
10
228.693079
20
440.210056
11
227.984913
21
439.284936
0
LINE
8
VISIBLE
10
227.984913
20
439.284936
11
227.537791
21
438.209098
0
LINE
8
VISIBLE
10
227.537791
20
438.209098
11
227.382000
21
437.035000
0
LINE
8
VISIBLE
10
234.588000
20
441.195000
11
233.493289
21
441.647165
0
LINE
8
VISIBLE
10
233.493289
20
441.647165
11
232.338000
21
441.797887
0
LINE
8
VISIBLE
10
232.338000
20
441.797887
11
231.182711
21
441.647165
0
LINE
8
VISIBLE
10
231.182711
20
441.647165
11
230.088000
21
441.195000
0
LINE
8
VISIBLE
10
227.382000
20
424.231000
11
227.382000
21
437.035000
0
LINE
8
VISIBLE
10
245.676000
20
426.473000
11
246.614921
21
427.194944
0
LINE
8
VISIBLE
10
246.614921
20
427.194944
11
247.323087
21
428.120064
0
LINE
8
VISIBLE
10
247.323087
20
428.120064
11
247.770209
21
429.195902
0
LINE
8
VISIBLE
10
247.770209
20
429.195902
11
247.926000
21
430.370000
0
LINE
8
VISIBLE
10
233.382000
20
433.133000
11
233.382000
21
435.383000
0
LINE
8
VISIBLE
10
227.382000
20
424.231000
11
227.537791
21
423.056902
0
LINE
8
VISIBLE
10
227.537791
20
423.056902
11
227.984913
21
421.981064
0
LINE
8
VISIBLE
10
227.984913
20
421.981064
11
228.693079
21
421.055944
0
LINE
8
VISIBLE
10
228.693079
20
421.055944
11
229.632000
21
420.334000
0
LINE
8
VISIBLE
10
233.382000
20
435.383000
11
238.382000
21
435.383000
0
LINE
8
VISIBLE
10
248.926000
20
520.298000
11
248.926000
21
513.298000
0
LINE
8
VISIBLE
10
264.926000
20
520.298000
11
264.649071
21
522.385339
0
LINE
8
VISIBLE
10
264.649071
20
522.385339
11
263.854196
21
524.297995
0
LINE
8
VISIBLE
10
263.854196
20
524.297995
11
262.595222
21
525.942703
0
LINE
8
VISIBLE
10
262.595222
20
525.942703
11
260.925995
21
527.226195
0
LINE
8
VISIBLE
10
260.925995
20
527.226195
11
258.979845
21
528.030041
0
LINE
8
VISIBLE
10
258.979845
20
528.030041
11
256.926000
21
528.297990
0
LINE
8
VISIBLE
10
256.926000
20
528.297990
11
254.872155
21
528.030041
0
LINE
8
VISIBLE
10
254.872155
20
528.030041
11
252.926005
21
527.226195
0
LINE
8
VISIBLE
10
252.926005
20
527.226195
11
251.256778
21
525.942703
0
LINE
8
VISIBLE
10
251.256778
20
525.942703
11
249.997805
21
524.297995
0
LINE
8
VISIBLE
10
249.997805
20
524.297995
11
249.202933
21
522.385339
0
LINE
8
VISIBLE
10
249.202933
20
522.385339
11
248.926010
21
520.298000
0
LINE
8
VISIBLE
10
264.927000
20
520.298000
11
264.927000
21
513.298000
0
LINE
8
VISIBLE
10
264.927000
20
513.298000
11
261.726000
21
513.298000
0
LINE
8
VISIBLE
10
261.726000
20
508.798000
11
261.726000
21
513.298000
0
LINE
8
VISIBLE
10
258.526000
20
508.798000
11
261.726000
21
508.798000
0
LINE
8
VISIBLE
10
258.526000
20
508.798000
11
258.526000
21
513.298000
0
LINE
8
VISIBLE
10
258.526000
20
513.298000
11
255.326000
21
513.298000
0
LINE
8
VISIBLE
10
255.326000
20
508.798000
11
255.326000
21
513.298000
0
LINE
8
VISIBLE
10
252.126000
20
508.798000
11
255.326000
21
508.798000
0
LINE
8
VISIBLE
10
252.126000
20
508.798000
11
252.126000
21
513.298000
0
LINE
8
VISIBLE
10
252.126000
20
513.298000
11
248.926000
21
513.298000
0
LINE
8
VISIBLE
10
259.826000
20
521.298000
11
259.725615
21
522.054661
0
LINE
8
VISIBLE
10
259.725615
20
522.054661
11
259.437474
21
522.748000
0
LINE
8
VISIBLE
10
259.437474
20
522.748000
11
258.981095
21
523.344207
0
LINE
8
VISIBLE
10
258.981095
20
523.344207
11
258.376000
21
523.809474
0
LINE
8
VISIBLE
10
258.376000
20
523.809474
11
257.670520
21
524.100868
0
LINE
8
VISIBLE
10
257.670520
20
524.100868
11
256.926000
21
524.198000
0
LINE
8
VISIBLE
10
256.926000
20
524.198000
11
256.181480
21
524.100868
0
LINE
8
VISIBLE
10
256.181480
20
524.100868
11
255.476000
21
523.809474
0
LINE
8
VISIBLE
10
255.476000
20
523.809474
11
254.870905
21
523.344207
0
LINE
8
VISIBLE
10
254.870905
20
523.344207
11
254.414526
21
522.748000
0
LINE
8
VISIBLE
10
254.414526
20
522.748000
11
254.126385
21
522.054661
0
LINE
8
VISIBLE
10
254.126385
20
522.054661
11
254.026000
21
521.298000
0
LINE
8
VISIBLE
10
254.026000
20
521.298000
11
254.126385
21
520.541339
0
LINE
8
VISIBLE
10
254.126385
20
520.541339
11
254.414526
21
519.848000
0
LINE
8
VISIBLE
10
254.414526
20
519.848000
11
254.870905
21
519.251793
0
LINE
8
VISIBLE
10
254.870905
20
519.251793
11
255.476000
21
518.786526
0
LINE
8
VISIBLE
10
255.476000
20
518.786526
11
256.181480
21
518.495132
0
LINE
8
VISIBLE
10
256.181480
20
518.495132
11
256.926000
21
518.398000
0
LINE
8
VISIBLE
10
256.926000
20
518.398000
11
257.670520
21
518.495132
0
LINE
8
VISIBLE
10
257.670520
20
518.495132
11
258.376000
21
518.786526
0
LINE
8
VISIBLE
10
258.376000
20
518.786526
11
258.981095
21
519.251793
0
LINE
8
VISIBLE
10
258.981095
20
519.251793
11
259.437474
21
519.848000
0
LINE
8
VISIBLE
10
259.437474
20
519.848000
11
259.725615
21
520.541339
0
LINE
8
VISIBLE
10
259.725615
20
520.541339
11
259.826000
21
521.298000
0
LINE
8
VISIBLE
10
259.826000
20
521.298000
11
259.826000
21
521.298000
0
LINE
8
VISIBLE
10
191.632000
20
354.968000
11
191.632000
21
359.635000
0
LINE
8
VISIBLE
10
191.632000
20
364.302000
11
196.132000
21
364.302000
0
LINE
8
VISIBLE
10
178.034000
20
392.520000
11
173.993000
21
394.853000
0
LINE
8
VISIBLE
10
226.382000
20
385.968000
11
226.096192
21
390.272937
0
LINE
8
VISIBLE
10
226.096192
20
390.272937
11
225.256997
21
394.447824
0
LINE
8
VISIBLE
10
225.256997
20
394.447824
11
223.891760
21
398.445299
0
LINE
8
VISIBLE
10
223.891760
20
398.445299
11
222.027826
21
402.218000
0
LINE
8
VISIBLE
10
222.027826
20
402.218000
11
219.692538
21
405.718565
0
LINE
8
VISIBLE
10
219.692538
20
405.718565
11
216.913241
21
408.899633
0
LINE
8
VISIBLE
10
216.913241
20
408.899633
11
213.717281
21
411.713840
0
LINE
8
VISIBLE
10
213.717281
20
411.713840
11
210.132000
21
414.113826
0
LINE
8
VISIBLE
10
210.132000
20
414.113826
11
206.260911
21
416.018777
0
LINE
8
VISIBLE
10
206.260911
20
416.018777
11
202.225756
21
417.379456
0
LINE
8
VISIBLE
10
202.225756
20
417.379456
11
198.081222
21
418.195864
0
LINE
8
VISIBLE
10
198.081222
20
418.195864
11
193.882000
21
418.468000
0
LINE
8
VISIBLE
10
193.882000
20
418.468000
11
189.682778
21
418.195864
0
LINE
8
VISIBLE
10
189.682778
20
418.195864
11
185.538244
21
417.379456
0
LINE
8
VISIBLE
10
185.538244
20
417.379456
11
181.503089
21
416.018777
0
LINE
8
VISIBLE
10
181.503089
20
416.018777
11
177.632000
21
414.113826
0
LINE
8
VISIBLE
10
177.632000
20
414.113826
11
174.046719
21
411.713840
0
LINE
8
VISIBLE
10
174.046719
20
411.713840
11
170.850759
21
408.899633
0
LINE
8
VISIBLE
10
170.850759
20
408.899633
11
168.071462
21
405.718565
0
LINE
8
VISIBLE
10
168.071462
20
405.718565
11
165.736174
21
402.218000
0
LINE
8
VISIBLE
10
165.736174
20
402.218000
11
163.872240
21
398.445299
0
LINE
8
VISIBLE
10
163.872240
20
398.445299
11
162.507003
21
394.447824
0
LINE
8
VISIBLE
10
162.507003
20
394.447824
11
161.667808
21
390.272937
0
LINE
8
VISIBLE
10
161.667808
20
390.272937
11
161.382000
21
385.968000
0
LINE
8
VISIBLE
10
161.382000
20
385.968000
11
161.667808
21
381.663063
0
LINE
8
VISIBLE
10
161.667808
20
381.663063
11
162.507003
21
377.488176
0
LINE
8
VISIBLE
10
162.507003
20
377.488176
11
163.872240
21
373.490701
0
LINE
8
VISIBLE
10
163.872240
20
373.490701
11
165.736174
21
369.718000
0
LINE
8
VISIBLE
10
165.736174
20
369.718000
11
168.071462
21
366.217435
0
LINE
8
VISIBLE
10
168.071462
20
366.217435
11
170.850759
21
363.036367
0
LINE
8
VISIBLE
10
170.850759
20
363.036367
11
174.046719
21
360.222160
0
LINE
8
VISIBLE
10
174.046719
20
360.222160
11
177.632000
21
357.822174
0
LINE
8
VISIBLE
10
177.632000
20
357.822174
11
181.503089
21
355.917223
0
LINE
8
VISIBLE
10
181.503089
20
355.917223
11
185.538244
21
354.556544
0
LINE
8
VISIBLE
10
185.538244
20
354.556544
11
189.682778
21
353.740136
0
LINE
8
VISIBLE
10
189.682778
20
353.740136
11
193.882000
21
353.468000
0
LINE
8
VISIBLE
10
193.882000
20
353.468000
11
198.081222
21
353.740136
0
LINE
8
VISIBLE
10
198.081222
20
353.740136
11
202.225756
21
354.556544
0
LINE
8
VISIBLE
10
202.225756
20
354.556544
11
206.260911
21
355.917223
0
LINE
8
VISIBLE
10
206.260911
20
355.917223
11
210.132000
21
357.822174
0
LINE
8
VISIBLE
10
210.132000
20
357.822174
11
213.717281
21
360.222160
0
LINE
8
VISIBLE
10
213.717281
20
360.222160
11
216.913241
21
363.036367
0
LINE
8
VISIBLE
10
216.913241
20
363.036367
11
219.692538
21
366.217435
0
LINE
8
VISIBLE
10
219.692538
20
366.217435
11
222.027826
21
369.718000
0
LINE
8
VISIBLE
10
222.027826
20
369.718000
11
223.891760
21
373.490701
0
LINE
8
VISIBLE
10
223.891760
20
373.490701
11
225.256997
21
377.488176
0
LINE
8
VISIBLE
10
225.256997
20
377.488176
11
226.096192
21
381.663063
0
LINE
8
VISIBLE
10
226.096192
20
381.663063
11
226.382000
21
385.968000
0
LINE
8
VISIBLE
10
226.382000
20
385.968000
11
226.382000
21
385.968000
0
LINE
8
VISIBLE
10
215.562000
20
401.084000
11
219.604000
21
403.417000
0
LINE
8
VISIBLE
10
211.521000
20
398.750000
11
213.771000
21
394.853000
0
LINE
8
VISIBLE
10
209.729000
20
392.520000
11
213.771000
21
394.853000
0
LINE
8
VISIBLE
10
191.632000
20
364.302000
11
191.632000
21
368.968000
0
LINE
8
VISIBLE
10
191.632000
20
368.968000
11
196.132000
21
368.968000
0
LINE
8
VISIBLE
10
191.632000
20
359.635000
11
196.132000
21
359.635000
0
LINE
8
VISIBLE
10
196.132000
20
354.968000
11
196.132000
21
359.635000
0
LINE
8
VISIBLE
10
191.632000
20
354.968000
11
196.132000
21
354.968000
0
LINE
8
VISIBLE
10
191.632000
20
388.218000
11
191.632000
21
390.468000
0
LINE
8
VISIBLE
10
189.382000
20
388.218000
11
191.632000
21
388.218000
0
LINE
8
VISIBLE
10
196.132000
20
364.302000
11
196.132000
21
368.968000
0
LINE
8
VISIBLE
10
196.132000
20
388.218000
11
198.382000
21
388.218000
0
LINE
8
VISIBLE
10
189.382000
20
383.718000
11
191.632000
21
383.718000
0
LINE
8
VISIBLE
10
173.993000
20
394.853000
11
176.243000
21
398.750000
0
LINE
8
VISIBLE
10
180.284000
20
396.417000
11
176.243000
21
398.750000
0
LINE
8
VISIBLE
10
178.034000
20
392.520000
11
180.284000
21
396.417000
0
LINE
8
VISIBLE
10
217.812000
20
397.186000
11
221.854000
21
399.520000
0
LINE
8
VISIBLE
10
219.604000
20
403.417000
11
221.854000
21
399.520000
0
LINE
8
VISIBLE
10
215.562000
20
401.084000
11
217.812000
21
397.186000
0
LINE
8
VISIBLE
10
189.382000
20
383.718000
11
189.382000
21
388.218000
0
LINE
8
VISIBLE
10
207.479000
20
396.417000
11
211.521000
21
398.750000
0
LINE
8
VISIBLE
10
207.479000
20
396.417000
11
209.729000
21
392.520000
0
LINE
8
VISIBLE
10
198.382000
20
388.218000
11
198.382000
21
383.718000
0
LINE
8
VISIBLE
10
172.202000
20
401.084000
11
168.160000
21
403.417000
0
LINE
8
VISIBLE
10
191.632000
20
381.468000
11
196.132000
21
381.468000
0
LINE
8
VISIBLE
10
196.132000
20
383.718000
11
198.382000
21
383.718000
0
LINE
8
VISIBLE
10
165.910000
20
399.520000
11
168.160000
21
403.417000
0
LINE
8
VISIBLE
10
191.632000
20
390.468000
11
196.132000
21
390.468000
0
LINE
8
VISIBLE
10
169.952000
20
397.186000
11
165.910000
21
399.520000
0
LINE
8
VISIBLE
10
196.132000
20
381.468000
11
196.132000
21
383.718000
0
LINE
8
VISIBLE
10
196.132000
20
390.468000
11
196.132000
21
388.218000
0
LINE
8
VISIBLE
10
169.952000
20
397.186000
11
172.202000
21
401.084000
0
LINE
8
VISIBLE
10
191.632000
20
383.718000
11
191.632000
21
381.468000
0
LINE
8
VISIBLE
10
233.382000
20
491.883000
11
233.382000
21
494.133000
0
LINE
8
VISIBLE
10
238.382000
20
491.883000
11
233.382000
21
491.883000
0
LINE
8
VISIBLE
10
238.382000
20
494.133000
11
238.382000
21
491.883000
0
LINE
8
VISIBLE
10
240.632000
20
494.133000
11
238.382000
21
494.133000
0
LINE
8
VISIBLE
10
240.632000
20
499.133000
11
240.632000
21
494.133000
0
LINE
8
VISIBLE
10
238.382000
20
499.133000
11
240.632000
21
499.133000
0
LINE
8
VISIBLE
10
238.382000
20
501.383000
11
238.382000
21
499.133000
0
LINE
8
VISIBLE
10
233.382000
20
501.383000
11
238.382000
21
501.383000
0
LINE
8
VISIBLE
10
233.382000
20
499.133000
11
233.382000
21
501.383000
0
LINE
8
VISIBLE
10
231.132000
20
499.133000
11
233.382000
21
499.133000
0
LINE
8
VISIBLE
10
231.132000
20
494.133000
11
231.132000
21
499.133000
0
LINE
8
VISIBLE
10
233.382000
20
494.133000
11
231.132000
21
494.133000
0
LINE
8
VISIBLE
10
245.426000
20
493.894000
11
245.426000
21
499.394000
0
LINE
8
VISIBLE
10
247.926000
20
493.894000
11
245.426000
21
493.894000
0
LINE
8
VISIBLE
10
247.926000
20
493.894000
11
247.926000
21
493.772000
0
LINE
8
VISIBLE
10
234.588000
20
486.071000
11
247.926000
21
493.772000
0
LINE
8
VISIBLE
10
230.088000
20
486.071000
11
231.182711
21
485.618835
0
LINE
8
VISIBLE
10
231.182711
20
485.618835
11
232.338000
21
485.468113
0
LINE
8
VISIBLE
10
232.338000
20
485.468113
11
233.493289
21
485.618835
0
LINE
8
VISIBLE
10
233.493289
20
485.618835
11
234.588000
21
486.071000
0
LINE
8
VISIBLE
10
229.632000
20
486.334000
11
230.088000
21
486.071000
0
LINE
8
VISIBLE
10
227.382000
20
490.231000
11
227.537791
21
489.056902
0
LINE
8
VISIBLE
10
227.537791
20
489.056902
11
227.984913
21
487.981064
0
LINE
8
VISIBLE
10
227.984913
20
487.981064
11
228.693079
21
487.055944
0
LINE
8
VISIBLE
10
228.693079
20
487.055944
11
229.632000
21
486.334000
0
LINE
8
VISIBLE
10
229.632000
20
506.932000
11
228.693079
21
506.210056
0
LINE
8
VISIBLE
10
228.693079
20
506.210056
11
227.984913
21
505.284936
0
LINE
8
VISIBLE
10
227.984913
20
505.284936
11
227.537791
21
504.209098
0
LINE
8
VISIBLE
10
227.537791
20
504.209098
11
227.382000
21
503.035000
0
LINE
8
VISIBLE
10
234.588000
20
507.195000
11
233.493289
21
507.647165
0
LINE
8
VISIBLE
10
233.493289
20
507.647165
11
232.338000
21
507.797887
0
LINE
8
VISIBLE
10
232.338000
20
507.797887
11
231.182711
21
507.647165
0
LINE
8
VISIBLE
10
231.182711
20
507.647165
11
230.088000
21
507.195000
0
LINE
8
VISIBLE
10
234.588000
20
507.195000
11
247.926000
21
499.494000
0
LINE
8
VISIBLE
10
247.926000
20
499.494000
11
247.926000
21
499.394000
0
LINE
8
VISIBLE
10
247.926000
20
499.394000
11
245.426000
21
499.394000
0
LINE
8
VISIBLE
10
227.382000
20
490.231000
11
227.382000
21
503.035000
0
LINE
8
VISIBLE
10
230.088000
20
507.195000
11
229.632000
21
506.932000
0
LINE
8
VISIBLE
10
241.926000
20
522.463000
11
241.926000
21
524.713000
0
LINE
8
VISIBLE
10
241.926000
20
524.713000
11
236.926000
21
524.713000
0
LINE
8
VISIBLE
10
241.926000
20
517.463000
11
244.176000
21
517.463000
0
LINE
8
VISIBLE
10
247.926000
20
526.365000
11
247.770209
21
527.539098
0
LINE
8
VISIBLE
10
247.770209
20
527.539098
11
247.323087
21
528.614936
0
LINE
8
VISIBLE
10
247.323087
20
528.614936
11
246.614921
21
529.540056
0
LINE
8
VISIBLE
10
246.614921
20
529.540056
11
245.676000
21
530.262000
0
LINE
8
VISIBLE
10
245.676000
20
509.664000
11
246.614921
21
510.385944
0
LINE
8
VISIBLE
10
246.614921
20
510.385944
11
247.323087
21
511.311064
0
LINE
8
VISIBLE
10
247.323087
20
511.311064
11
247.770209
21
512.386902
0
LINE
8
VISIBLE
10
247.770209
20
512.386902
11
247.926000
21
513.561000
0
LINE
8
VISIBLE
10
240.720000
20
509.401000
11
241.814711
21
508.948835
0
LINE
8
VISIBLE
10
241.814711
20
508.948835
11
242.970000
21
508.798113
0
LINE
8
VISIBLE
10
242.970000
20
508.798113
11
244.125289
21
508.948835
0
LINE
8
VISIBLE
10
244.125289
20
508.948835
11
245.220000
21
509.401000
0
LINE
8
VISIBLE
10
227.382000
20
517.225000
11
229.882000
21
517.225000
0
LINE
8
VISIBLE
10
227.382000
20
522.724000
11
229.882000
21
522.724000
0
LINE
8
VISIBLE
10
240.720000
20
530.525000
11
227.382000
21
522.825000
0
LINE
8
VISIBLE
10
227.382000
20
517.225000
11
227.382000
21
517.102000
0
LINE
8
VISIBLE
10
227.382000
20
522.825000
11
227.382000
21
522.724000
0
LINE
8
VISIBLE
10
240.720000
20
509.401000
11
227.382000
21
517.102000
0
LINE
8
VISIBLE
10
245.676000
20
509.664000
11
245.220000
21
509.401000
0
LINE
8
VISIBLE
10
247.926000
20
513.561000
11
247.926000
21
526.365000
0
LINE
8
VISIBLE
10
236.926000
20
515.213000
11
241.926000
21
515.213000
0
LINE
8
VISIBLE
10
236.926000
20
517.463000
11
236.926000
21
515.213000
0
LINE
8
VISIBLE
10
234.676000
20
522.463000
11
234.676000
21
517.463000
0
LINE
8
VISIBLE
10
236.926000
20
522.463000
11
234.676000
21
522.463000
0
LINE
8
VISIBLE
10
236.926000
20
524.713000
11
236.926000
21
522.463000
0
LINE
8
VISIBLE
10
244.176000
20
522.463000
11
241.926000
21
522.463000
0
LINE
8
VISIBLE
10
244.176000
20
517.463000
11
244.176000
21
522.463000
0
LINE
8
VISIBLE
10
229.882000
20
517.225000
11
229.882000
21
522.724000
0
LINE
8
VISIBLE
10
245.220000
20
530.525000
11
244.125289
21
530.977165
0
LINE
8
VISIBLE
10
244.125289
20
530.977165
11
242.970000
21
531.127887
0
LINE
8
VISIBLE
10
242.970000
20
531.127887
11
241.814711
21
530.977165
0
LINE
8
VISIBLE
10
241.814711
20
530.977165
11
240.720000
21
530.525000
0
LINE
8
VISIBLE
10
241.926000
20
515.213000
11
241.926000
21
517.463000
0
LINE
8
VISIBLE
10
245.220000
20
530.525000
11
245.676000
21
530.262000
0
LINE
8
VISIBLE
10
234.676000
20
517.463000
11
236.926000
21
517.463000
0
LINE
8
VISIBLE
10
227.382000
20
522.724000
11
227.382000
21
517.225000
0
LINE
8
VISIBLE
10
274.876000
20
369.918000
11
274.722759
21
370.677028
0
LINE
8
VISIBLE
10
274.722759
20
370.677028
11
274.304858
21
371.296858
0
LINE
8
VISIBLE
10
274.304858
20
371.296858
11
273.685028
21
371.714759
0
LINE
8
VISIBLE
10
273.685028
20
371.714759
11
272.926000
21
371.868000
0
LINE
8
VISIBLE
10
272.926000
20
371.868000
11
272.166972
21
371.714759
0
LINE
8
VISIBLE
10
272.166972
20
371.714759
11
271.547142
21
371.296858
0
LINE
8
VISIBLE
10
271.547142
20
371.296858
11
271.129241
21
370.677028
0
LINE
8
VISIBLE
10
271.129241
20
370.677028
11
270.976000
21
369.918000
0
LINE
8
VISIBLE
10
270.976000
20
369.918000
11
271.129241
21
369.158972
0
LINE
8
VISIBLE
10
271.129241
20
369.158972
11
271.547142
21
368.539142
0
LINE
8
VISIBLE
10
271.547142
20
368.539142
11
272.166972
21
368.121241
0
LINE
8
VISIBLE
10
272.166972
20
368.121241
11
272.926000
21
367.968000
0
LINE
8
VISIBLE
10
272.926000
20
367.968000
11
273.685028
21
368.121241
0
LINE
8
VISIBLE
10
273.685028
20
368.121241
11
274.304858
21
368.539142
0
LINE
8
VISIBLE
10
274.304858
20
368.539142
11
274.722759
21
369.158972
0
LINE
8
VISIBLE
10
274.722759
20
369.158972
11
274.876000
21
369.918000
0
LINE
8
VISIBLE
10
274.876000
20
369.918000
11
274.876000
21
369.918000
0
LINE
8
VISIBLE
10
270.592000
20
363.468000
11
270.592000
21
358.968000
0
LINE
8
VISIBLE
10
265.927000
20
358.968000
11
270.592000
21
358.968000
0
LINE
8
VISIBLE
10
265.927000
20
371.468000
11
265.927000
21
358.968000
0
LINE
8
VISIBLE
10
271.926000
20
377.468000
11
270.749991
21
377.351648
0
LINE
8
VISIBLE
10
270.749991
20
377.351648
11
269.629898
21
377.011280
0
LINE
8
VISIBLE
10
269.629898
20
377.011280
11
268.597195
21
376.459933
0
LINE
8
VISIBLE
10
268.597195
20
376.459933
11
267.683356
21
375.710644
0
LINE
8
VISIBLE
10
267.683356
20
375.710644
11
266.934067
21
374.796805
0
LINE
8
VISIBLE
10
266.934067
20
374.796805
11
266.382720
21
373.764102
0
LINE
8
VISIBLE
10
266.382720
20
373.764102
11
266.042352
21
372.644009
0
LINE
8
VISIBLE
10
266.042352
20
372.644009
11
265.926000
21
371.468000
0
LINE
8
VISIBLE
10
271.925000
20
377.468000
11
273.925000
21
377.468000
0
LINE
8
VISIBLE
10
279.926000
20
371.468000
11
279.809648
21
372.644009
0
LINE
8
VISIBLE
10
279.809648
20
372.644009
11
279.469280
21
373.764102
0
LINE
8
VISIBLE
10
279.469280
20
373.764102
11
278.917933
21
374.796805
0
LINE
8
VISIBLE
10
278.917933
20
374.796805
11
278.168644
21
375.710644
0
LINE
8
VISIBLE
10
278.168644
20
375.710644
11
277.254805
21
376.459933
0
LINE
8
VISIBLE
10
277.254805
20
376.459933
11
276.222102
21
377.011280
0
LINE
8
VISIBLE
10
276.222102
20
377.011280
11
275.102009
21
377.351648
0
LINE
8
VISIBLE
10
275.102009
20
377.351648
11
273.926000
21
377.468000
0
LINE
8
VISIBLE
10
279.926000
20
371.468000
11
279.926000
21
358.968000
0
LINE
8
VISIBLE
10
270.592000
20
363.468000
11
275.259000
21
363.468000
0
LINE
8
VISIBLE
10
275.259000
20
358.968000
11
279.926000
21
358.968000
0
LINE
8
VISIBLE
10
275.259000
20
363.468000
11
275.259000
21
358.968000
0
LINE
8
VISIBLE
10
184.632000
20
706.717000
11
203.132000
21
706.717000
0
LINE
8
VISIBLE
10
184.632000
20
725.217000
11
184.632000
21
706.717000
0
LINE
8
VISIBLE
10
203.132000
20
725.217000
11
203.132000
21
706.717000
0
LINE
8
VISIBLE
10
184.632000
20
725.217000
11
203.132000
21
725.217000
0
LINE
8
VISIBLE
10
226.382000
20
715.968000
11
226.096192
21
720.272937
0
LINE
8
VISIBLE
10
226.096192
20
720.272937
11
225.256997
21
724.447824
0
LINE
8
VISIBLE
10
225.256997
20
724.447824
11
223.891760
21
728.445299
0
LINE
8
VISIBLE
10
223.891760
20
728.445299
11
222.027826
21
732.218000
0
LINE
8
VISIBLE
10
222.027826
20
732.218000
11
219.692538
21
735.718565
0
LINE
8
VISIBLE
10
219.692538
20
735.718565
11
216.913241
21
738.899633
0
LINE
8
VISIBLE
10
216.913241
20
738.899633
11
213.717281
21
741.713840
0
LINE
8
VISIBLE
10
213.717281
20
741.713840
11
210.132000
21
744.113826
0
LINE
8
VISIBLE
10
210.132000
20
744.113826
11
206.260911
21
746.018777
0
LINE
8
VISIBLE
10
206.260911
20
746.018777
11
202.225756
21
747.379456
0
LINE
8
VISIBLE
10
202.225756
20
747.379456
11
198.081222
21
748.195864
0
LINE
8
VISIBLE
10
198.081222
20
748.195864
11
193.882000
21
748.468000
0
LINE
8
VISIBLE
10
193.882000
20
748.468000
11
189.682778
21
748.195864
0
LINE
8
VISIBLE
10
189.682778
20
748.195864
11
185.538244
21
747.379456
0
LINE
8
VISIBLE
10
185.538244
20
747.379456
11
181.503089
21
746.018777
0
LINE
8
VISIBLE
10
181.503089
20
746.018777
11
177.632000
21
744.113826
0
LINE
8
VISIBLE
10
177.632000
20
744.113826
11
174.046719
21
741.713840
0
LINE
8
VISIBLE
10
174.046719
20
741.713840
11
170.850759
21
738.899633
0
LINE
8
VISIBLE
10
170.850759
20
738.899633
11
168.071462
21
735.718565
0
LINE
8
VISIBLE
10
168.071462
20
735.718565
11
165.736174
21
732.218000
0
LINE
8
VISIBLE
10
165.736174
20
732.218000
11
163.872240
21
728.445299
0
LINE
8
VISIBLE
10
163.872240
20
728.445299
11
162.507003
21
724.447824
0
LINE
8
VISIBLE
10
162.507003
20
724.447824
11
161.667808
21
720.272937
0
LINE
8
VISIBLE
10
161.667808
20
720.272937
11
161.382000
21
715.968000
0
LINE
8
VISIBLE
10
161.382000
20
715.968000
11
161.667808
21
711.663063
0
LINE
8
VISIBLE
10
161.667808
20
711.663063
11
162.507003
21
707.488176
0
LINE
8
VISIBLE
10
162.507003
20
707.488176
11
163.872240
21
703.490701
0
LINE
8
VISIBLE
10
163.872240
20
703.490701
11
165.736174
21
699.718000
0
LINE
8
VISIBLE
10
165.736174
20
699.718000
11
168.071462
21
696.217435
0
LINE
8
VISIBLE
10
168.071462
20
696.217435
11
170.850759
21
693.036367
0
LINE
8
VISIBLE
10
170.850759
20
693.036367
11
174.046719
21
690.222160
0
LINE
8
VISIBLE
10
174.046719
20
690.222160
11
177.632000
21
687.822174
0
LINE
8
VISIBLE
10
177.632000
20
687.822174
11
181.503089
21
685.917223
0
LINE
8
VISIBLE
10
181.503089
20
685.917223
11
185.538244
21
684.556544
0
LINE
8
VISIBLE
10
185.538244
20
684.556544
11
189.682778
21
683.740136
0
LINE
8
VISIBLE
10
189.682778
20
683.740136
11
193.882000
21
683.468000
0
LINE
8
VISIBLE
10
193.882000
20
683.468000
11
198.081222
21
683.740136
0
LINE
8
VISIBLE
10
198.081222
20
683.740136
11
202.225756
21
684.556544
0
LINE
8
VISIBLE
10
202.225756
20
684.556544
11
206.260911
21
685.917223
0
LINE
8
VISIBLE
10
206.260911
20
685.917223
11
210.132000
21
687.822174
0
LINE
8
VISIBLE
10
210.132000
20
687.822174
11
213.717281
21
690.222160
0
LINE
8
VISIBLE
10
213.717281
20
690.222160
11
216.913241
21
693.036367
0
LINE
8
VISIBLE
10
216.913241
20
693.036367
11
219.692538
21
696.217435
0
LINE
8
VISIBLE
10
219.692538
20
696.217435
11
222.027826
21
699.718000
0
LINE
8
VISIBLE
10
222.027826
20
699.718000
11
223.891760
21
703.490701
0
LINE
8
VISIBLE
10
223.891760
20
703.490701
11
225.256997
21
707.488176
0
LINE
8
VISIBLE
10
225.256997
20
707.488176
11
226.096192
21
711.663063
0
LINE
8
VISIBLE
10
226.096192
20
711.663063
11
226.382000
21
715.968000
0
LINE
8
VISIBLE
10
226.382000
20
715.968000
11
226.382000
21
715.968000
0
LINE
8
VISIBLE
10
275.926000
20
450.048000
11
275.830807
21
450.765524
0
LINE
8
VISIBLE
10
275.830807
20
450.765524
11
275.557570
21
451.423000
0
LINE
8
VISIBLE
10
275.557570
20
451.423000
11
275.124797
21
451.988369
0
LINE
8
VISIBLE
10
275.124797
20
451.988369
11
274.551000
21
452.429570
0
LINE
8
VISIBLE
10
274.551000
20
452.429570
11
273.882010
21
452.705892
0
LINE
8
VISIBLE
10
273.882010
20
452.705892
11
273.176000
21
452.798000
0
LINE
8
VISIBLE
10
273.176000
20
452.798000
11
272.469990
21
452.705892
0
LINE
8
VISIBLE
10
272.469990
20
452.705892
11
271.801000
21
452.429570
0
LINE
8
VISIBLE
10
271.801000
20
452.429570
11
271.227203
21
451.988369
0
LINE
8
VISIBLE
10
271.227203
20
451.988369
11
270.794430
21
451.423000
0
LINE
8
VISIBLE
10
270.794430
20
451.423000
11
270.521193
21
450.765524
0
LINE
8
VISIBLE
10
270.521193
20
450.765524
11
270.426000
21
450.048000
0
LINE
8
VISIBLE
10
270.426000
20
450.048000
11
270.521193
21
449.330476
0
LINE
8
VISIBLE
10
270.521193
20
449.330476
11
270.794430
21
448.673000
0
LINE
8
VISIBLE
10
270.794430
20
448.673000
11
271.227203
21
448.107631
0
LINE
8
VISIBLE
10
271.227203
20
448.107631
11
271.801000
21
447.666430
0
LINE
8
VISIBLE
10
271.801000
20
447.666430
11
272.469990
21
447.390108
0
LINE
8
VISIBLE
10
272.469990
20
447.390108
11
273.176000
21
447.298000
0
LINE
8
VISIBLE
10
273.176000
20
447.298000
11
273.882010
21
447.390108
0
LINE
8
VISIBLE
10
273.882010
20
447.390108
11
274.551000
21
447.666430
0
LINE
8
VISIBLE
10
274.551000
20
447.666430
11
275.124797
21
448.107631
0
LINE
8
VISIBLE
10
275.124797
20
448.107631
11
275.557570
21
448.673000
0
LINE
8
VISIBLE
10
275.557570
20
448.673000
11
275.830807
21
449.330476
0
LINE
8
VISIBLE
10
275.830807
20
449.330476
11
275.926000
21
450.048000
0
LINE
8
VISIBLE
10
275.926000
20
450.048000
11
275.926000
21
450.048000
0
LINE
8
VISIBLE
10
276.677000
20
452.298000
11
276.677000
21
447.798000
0
LINE
8
VISIBLE
10
269.676000
20
452.298000
11
269.676000
21
447.798000
0
LINE
8
VISIBLE
10
276.677000
20
447.798000
11
279.675000
21
447.798000
0
LINE
8
VISIBLE
10
276.677000
20
452.298000
11
279.675000
21
452.298000
0
LINE
8
VISIBLE
10
266.676000
20
447.798000
11
269.676000
21
447.798000
0
LINE
8
VISIBLE
10
266.676000
20
452.298000
11
269.676000
21
452.298000
0
LINE
8
VISIBLE
10
280.426000
20
450.048000
11
280.175032
21
451.939650
0
LINE
8
VISIBLE
10
280.175032
20
451.939650
11
279.454677
21
453.672995
0
LINE
8
VISIBLE
10
279.454677
20
453.672995
11
278.313732
21
455.163511
0
LINE
8
VISIBLE
10
278.313732
20
455.163511
11
276.800995
21
456.326676
0
LINE
8
VISIBLE
10
276.800995
20
456.326676
11
275.037297
21
457.055161
0
LINE
8
VISIBLE
10
275.037297
20
457.055161
11
273.176000
21
457.297990
0
LINE
8
VISIBLE
10
273.176000
20
457.297990
11
271.314703
21
457.055161
0
LINE
8
VISIBLE
10
271.314703
20
457.055161
11
269.551005
21
456.326676
0
LINE
8
VISIBLE
10
269.551005
20
456.326676
11
268.038269
21
455.163511
0
LINE
8
VISIBLE
10
268.038269
20
455.163511
11
266.897324
21
453.672995
0
LINE
8
VISIBLE
10
266.897324
20
453.672995
11
266.176972
21
451.939650
0
LINE
8
VISIBLE
10
266.176972
20
451.939650
11
265.926010
21
450.048000
0
LINE
8
VISIBLE
10
265.926010
20
450.048000
11
266.176975
21
448.156350
0
LINE
8
VISIBLE
10
266.176975
20
448.156350
11
266.897329
21
446.423005
0
LINE
8
VISIBLE
10
266.897329
20
446.423005
11
268.038274
21
444.932489
0
LINE
8
VISIBLE
10
268.038274
20
444.932489
11
269.551010
21
443.769324
0
LINE
8
VISIBLE
10
269.551010
20
443.769324
11
271.314708
21
443.040839
0
LINE
8
VISIBLE
10
271.314708
20
443.040839
11
273.176005
21
442.798010
0
LINE
8
VISIBLE
10
273.176005
20
442.798010
11
275.037302
21
443.040839
0
LINE
8
VISIBLE
10
275.037302
20
443.040839
11
276.801000
21
443.769324
0
LINE
8
VISIBLE
10
276.801000
20
443.769324
11
278.313736
21
444.932489
0
LINE
8
VISIBLE
10
278.313736
20
444.932489
11
279.454681
21
446.423005
0
LINE
8
VISIBLE
10
279.454681
20
446.423005
11
280.175033
21
448.156350
0
LINE
8
VISIBLE
10
280.175033
20
448.156350
11
280.425995
21
450.048000
0
LINE
8
VISIBLE
10
280.425995
20
450.048000
11
280.426000
21
450.048000
0
LINE
8
VISIBLE
10
279.675000
20
452.298000
11
279.675000
21
447.798000
0
LINE
8
VISIBLE
10
266.676000
20
452.298000
11
266.676000
21
447.798000
0
LINE
8
VISIBLE
10
237.967000
20
402.075000
11
242.115000
21
399.680000
0
LINE
8
VISIBLE
10
229.632000
20
383.164000
11
230.088000
21
382.901000
0
LINE
8
VISIBLE
10
227.382000
20
390.963000
11
227.382000
21
395.964000
0
LINE
8
VISIBLE
10
238.382000
20
395.964000
11
240.632000
21
395.964000
0
LINE
8
VISIBLE
10
238.382000
20
398.213000
11
238.382000
21
395.964000
0
LINE
8
VISIBLE
10
233.382000
20
398.213000
11
238.382000
21
398.213000
0
LINE
8
VISIBLE
10
231.132000
20
390.963000
11
231.132000
21
395.964000
0
LINE
8
VISIBLE
10
233.382000
20
390.963000
11
231.132000
21
390.963000
0
LINE
8
VISIBLE
10
237.967000
20
384.852000
11
242.297000
21
387.352000
0
LINE
8
VISIBLE
10
233.382000
20
395.964000
11
233.382000
21
398.213000
0
LINE
8
VISIBLE
10
232.320000
20
401.294000
11
234.050000
21
404.290000
0
LINE
8
VISIBLE
10
230.782000
20
390.963000
11
230.782000
21
386.463000
0
LINE
8
VISIBLE
10
230.782000
20
386.463000
11
227.422000
21
386.463000
0
LINE
8
VISIBLE
10
230.782000
20
390.963000
11
227.382000
21
390.963000
0
LINE
8
VISIBLE
10
230.782000
20
400.463000
11
230.782000
21
395.964000
0
LINE
8
VISIBLE
10
230.782000
20
395.964000
11
227.382000
21
395.964000
0
LINE
8
VISIBLE
10
230.782000
20
400.463000
11
227.422000
21
400.463000
0
LINE
8
VISIBLE
10
247.926000
20
393.727000
11
247.926000
21
393.200000
0
LINE
8
VISIBLE
10
238.382000
20
388.713000
11
233.382000
21
388.713000
0
LINE
8
VISIBLE
10
238.382000
20
390.963000
11
238.382000
21
388.713000
0
LINE
8
VISIBLE
10
240.632000
20
390.963000
11
238.382000
21
390.963000
0
LINE
8
VISIBLE
10
240.632000
20
395.964000
11
240.632000
21
390.963000
0
LINE
8
VISIBLE
10
231.132000
20
395.964000
11
233.382000
21
395.964000
0
LINE
8
VISIBLE
10
247.926000
20
393.727000
11
247.795005
21
394.804775
0
LINE
8
VISIBLE
10
247.795005
20
394.804775
11
247.416597
21
395.806350
0
LINE
8
VISIBLE
10
247.416597
20
395.806350
11
246.812391
21
396.690249
0
LINE
8
VISIBLE
10
246.812391
20
396.690249
11
246.004000
21
397.415000
0
LINE
8
VISIBLE
10
230.088000
20
404.026000
11
229.632000
21
403.762000
0
LINE
8
VISIBLE
10
240.547000
20
390.383000
11
242.297000
21
387.352000
0
LINE
8
VISIBLE
10
246.174000
20
389.637000
11
246.913777
21
390.356937
0
LINE
8
VISIBLE
10
246.913777
20
390.356937
11
247.464208
21
391.214825
0
LINE
8
VISIBLE
10
247.464208
20
391.214825
11
247.807535
21
392.174551
0
LINE
8
VISIBLE
10
247.807535
20
392.174551
11
247.926000
21
393.200000
0
LINE
8
VISIBLE
10
227.422000
20
386.463000
11
227.675628
21
385.462263
0
LINE
8
VISIBLE
10
227.675628
20
385.462263
11
228.143441
21
384.556554
0
LINE
8
VISIBLE
10
228.143441
20
384.556554
11
228.803034
21
383.779318
0
LINE
8
VISIBLE
10
228.803034
20
383.779318
11
229.632000
21
383.164000
0
LINE
8
VISIBLE
10
234.050000
20
404.290000
11
233.056563
21
404.570816
0
LINE
8
VISIBLE
10
233.056563
20
404.570816
11
232.038306
21
404.618637
0
LINE
8
VISIBLE
10
232.038306
20
404.618637
11
231.035397
21
404.436139
0
LINE
8
VISIBLE
10
231.035397
20
404.436139
11
230.088000
21
404.026000
0
LINE
8
VISIBLE
10
232.320000
20
385.633000
11
234.050000
21
382.637000
0
LINE
8
VISIBLE
10
236.217000
20
387.883000
11
237.967000
21
384.852000
0
LINE
8
VISIBLE
10
244.444000
20
392.633000
11
240.547000
21
390.383000
0
LINE
8
VISIBLE
10
232.320000
20
401.294000
11
236.217000
21
399.044000
0
LINE
8
VISIBLE
10
236.217000
20
399.044000
11
237.967000
21
402.075000
0
LINE
8
VISIBLE
10
233.382000
20
388.713000
11
233.382000
21
390.963000
0
LINE
8
VISIBLE
10
236.217000
20
387.883000
11
232.320000
21
385.633000
0
LINE
8
VISIBLE
10
229.632000
20
403.762000
11
228.803034
21
403.146682
0
LINE
8
VISIBLE
10
228.803034
20
403.146682
11
228.143441
21
402.369446
0
LINE
8
VISIBLE
10
228.143441
20
402.369446
11
227.675628
21
401.463737
0
LINE
8
VISIBLE
10
227.675628
20
401.463737
11
227.422000
21
400.463000
0
LINE
8
VISIBLE
10
230.088000
20
382.901000
11
231.035397
21
382.490861
0
LINE
8
VISIBLE
10
231.035397
20
382.490861
11
232.038306
21
382.308363
0
LINE
8
VISIBLE
10
232.038306
20
382.308363
11
233.056563
21
382.356184
0
LINE
8
VISIBLE
10
233.056563
20
382.356184
11
234.050000
21
382.637000
0
LINE
8
VISIBLE
10
244.444000
20
392.633000
11
246.174000
21
389.637000
0
LINE
8
VISIBLE
10
240.365000
20
396.649000
11
244.262000
21
394.399000
0
LINE
8
VISIBLE
10
240.365000
20
396.649000
11
242.115000
21
399.680000
0
LINE
8
VISIBLE
10
244.262000
20
394.399000
11
246.004000
21
397.415000
0
LINE
8
VISIBLE
10
259.826000
20
370.968000
11
259.725615
21
371.724661
0
LINE
8
VISIBLE
10
259.725615
20
371.724661
11
259.437474
21
372.418000
0
LINE
8
VISIBLE
10
259.437474
20
372.418000
11
258.981095
21
373.014207
0
LINE
8
VISIBLE
10
258.981095
20
373.014207
11
258.376000
21
373.479474
0
LINE
8
VISIBLE
10
258.376000
20
373.479474
11
257.670520
21
373.770868
0
LINE
8
VISIBLE
10
257.670520
20
373.770868
11
256.926000
21
373.868000
0
LINE
8
VISIBLE
10
256.926000
20
373.868000
11
256.181480
21
373.770868
0
LINE
8
VISIBLE
10
256.181480
20
373.770868
11
255.476000
21
373.479474
0
LINE
8
VISIBLE
10
255.476000
20
373.479474
11
254.870905
21
373.014207
0
LINE
8
VISIBLE
10
254.870905
20
373.014207
11
254.414526
21
372.418000
0
LINE
8
VISIBLE
10
254.414526
20
372.418000
11
254.126385
21
371.724661
0
LINE
8
VISIBLE
10
254.126385
20
371.724661
11
254.026000
21
370.968000
0
LINE
8
VISIBLE
10
254.026000
20
370.968000
11
254.126385
21
370.211339
0
LINE
8
VISIBLE
10
254.126385
20
370.211339
11
254.414526
21
369.518000
0
LINE
8
VISIBLE
10
254.414526
20
369.518000
11
254.870905
21
368.921793
0
LINE
8
VISIBLE
10
254.870905
20
368.921793
11
255.476000
21
368.456526
0
LINE
8
VISIBLE
10
255.476000
20
368.456526
11
256.181480
21
368.165132
0
LINE
8
VISIBLE
10
256.181480
20
368.165132
11
256.926000
21
368.068000
0
LINE
8
VISIBLE
10
256.926000
20
368.068000
11
257.670520
21
368.165132
0
LINE
8
VISIBLE
10
257.670520
20
368.165132
11
258.376000
21
368.456526
0
LINE
8
VISIBLE
10
258.376000
20
368.456526
11
258.981095
21
368.921793
0
LINE
8
VISIBLE
10
258.981095
20
368.921793
11
259.437474
21
369.518000
0
LINE
8
VISIBLE
10
259.437474
20
369.518000
11
259.725615
21
370.211339
0
LINE
8
VISIBLE
10
259.725615
20
370.211339
11
259.826000
21
370.968000
0
LINE
8
VISIBLE
10
259.826000
20
370.968000
11
259.826000
21
370.968000
0
LINE
8
VISIBLE
10
252.126000
20
363.468000
11
248.926000
21
363.468000
0
LINE
8
VISIBLE
10
248.926000
20
363.468000
11
248.926000
21
370.968000
0
LINE
8
VISIBLE
10
264.926000
20
370.968000
11
264.649071
21
373.055339
0
LINE
8
VISIBLE
10
264.649071
20
373.055339
11
263.854196
21
374.967995
0
LINE
8
VISIBLE
10
263.854196
20
374.967995
11
262.595222
21
376.612703
0
LINE
8
VISIBLE
10
262.595222
20
376.612703
11
260.925995
21
377.896195
0
LINE
8
VISIBLE
10
260.925995
20
377.896195
11
258.979845
21
378.700041
0
LINE
8
VISIBLE
10
258.979845
20
378.700041
11
256.926000
21
378.967990
0
LINE
8
VISIBLE
10
256.926000
20
378.967990
11
254.872155
21
378.700041
0
LINE
8
VISIBLE
10
254.872155
20
378.700041
11
252.926005
21
377.896195
0
LINE
8
VISIBLE
10
252.926005
20
377.896195
11
251.256778
21
376.612703
0
LINE
8
VISIBLE
10
251.256778
20
376.612703
11
249.997805
21
374.967995
0
LINE
8
VISIBLE
10
249.997805
20
374.967995
11
249.202933
21
373.055339
0
LINE
8
VISIBLE
10
249.202933
20
373.055339
11
248.926010
21
370.968000
0
LINE
8
VISIBLE
10
261.726000
20
358.968000
11
261.726000
21
363.468000
0
LINE
8
VISIBLE
10
258.526000
20
358.968000
11
261.726000
21
358.968000
0
LINE
8
VISIBLE
10
258.526000
20
358.968000
11
258.526000
21
363.468000
0
LINE
8
VISIBLE
10
258.526000
20
363.468000
11
255.326000
21
363.468000
0
LINE
8
VISIBLE
10
255.326000
20
358.968000
11
255.326000
21
363.468000
0
LINE
8
VISIBLE
10
252.126000
20
358.968000
11
255.326000
21
358.968000
0
LINE
8
VISIBLE
10
252.126000
20
358.968000
11
252.126000
21
363.468000
0
LINE
8
VISIBLE
10
264.927000
20
363.468000
11
261.726000
21
363.468000
0
LINE
8
VISIBLE
10
264.927000
20
363.468000
11
264.927000
21
370.968000
0
LINE
8
VISIBLE
10
259.826000
20
394.298000
11
259.725615
21
395.054661
0
LINE
8
VISIBLE
10
259.725615
20
395.054661
11
259.437474
21
395.748000
0
LINE
8
VISIBLE
10
259.437474
20
395.748000
11
258.981095
21
396.344207
0
LINE
8
VISIBLE
10
258.981095
20
396.344207
11
258.376000
21
396.809474
0
LINE
8
VISIBLE
10
258.376000
20
396.809474
11
257.670520
21
397.100868
0
LINE
8
VISIBLE
10
257.670520
20
397.100868
11
256.926000
21
397.198000
0
LINE
8
VISIBLE
10
256.926000
20
397.198000
11
256.181480
21
397.100868
0
LINE
8
VISIBLE
10
256.181480
20
397.100868
11
255.476000
21
396.809474
0
LINE
8
VISIBLE
10
255.476000
20
396.809474
11
254.870905
21
396.344207
0
LINE
8
VISIBLE
10
254.870905
20
396.344207
11
254.414526
21
395.748000
0
LINE
8
VISIBLE
10
254.414526
20
395.748000
11
254.126385
21
395.054661
0
LINE
8
VISIBLE
10
254.126385
20
395.054661
11
254.026000
21
394.298000
0
LINE
8
VISIBLE
10
254.026000
20
394.298000
11
254.126385
21
393.541339
0
LINE
8
VISIBLE
10
254.126385
20
393.541339
11
254.414526
21
392.848000
0
LINE
8
VISIBLE
10
254.414526
20
392.848000
11
254.870905
21
392.251793
0
LINE
8
VISIBLE
10
254.870905
20
392.251793
11
255.476000
21
391.786526
0
LINE
8
VISIBLE
10
255.476000
20
391.786526
11
256.181480
21
391.495132
0
LINE
8
VISIBLE
10
256.181480
20
391.495132
11
256.926000
21
391.398000
0
LINE
8
VISIBLE
10
256.926000
20
391.398000
11
257.670520
21
391.495132
0
LINE
8
VISIBLE
10
257.670520
20
391.495132
11
258.376000
21
391.786526
0
LINE
8
VISIBLE
10
258.376000
20
391.786526
11
258.981095
21
392.251793
0
LINE
8
VISIBLE
10
258.981095
20
392.251793
11
259.437474
21
392.848000
0
LINE
8
VISIBLE
10
259.437474
20
392.848000
11
259.725615
21
393.541339
0
LINE
8
VISIBLE
10
259.725615
20
393.541339
11
259.826000
21
394.298000
0
LINE
8
VISIBLE
10
259.826000
20
394.298000
11
259.826000
21
394.298000
0
LINE
8
VISIBLE
10
264.926000
20
394.298000
11
264.649071
21
396.385339
0
LINE
8
VISIBLE
10
264.649071
20
396.385339
11
263.854196
21
398.297995
0
LINE
8
VISIBLE
10
263.854196
20
398.297995
11
262.595222
21
399.942703
0
LINE
8
VISIBLE
10
262.595222
20
399.942703
11
260.925995
21
401.226195
0
LINE
8
VISIBLE
10
260.925995
20
401.226195
11
258.979845
21
402.030041
0
LINE
8
VISIBLE
10
258.979845
20
402.030041
11
256.926000
21
402.297990
0
LINE
8
VISIBLE
10
256.926000
20
402.297990
11
254.872155
21
402.030041
0
LINE
8
VISIBLE
10
254.872155
20
402.030041
11
252.926005
21
401.226195
0
LINE
8
VISIBLE
10
252.926005
20
401.226195
11
251.256778
21
399.942703
0
LINE
8
VISIBLE
10
251.256778
20
399.942703
11
249.997805
21
398.297995
0
LINE
8
VISIBLE
10
249.997805
20
398.297995
11
249.202933
21
396.385339
0
LINE
8
VISIBLE
10
249.202933
20
396.385339
11
248.926010
21
394.298000
0
LINE
8
VISIBLE
10
264.927000
20
386.798000
11
264.927000
21
394.298000
0
LINE
8
VISIBLE
10
264.927000
20
386.798000
11
261.726000
21
386.798000
0
LINE
8
VISIBLE
10
261.726000
20
382.298000
11
261.726000
21
386.798000
0
LINE
8
VISIBLE
10
258.526000
20
382.298000
11
261.726000
21
382.298000
0
LINE
8
VISIBLE
10
258.526000
20
382.298000
11
258.526000
21
386.798000
0
LINE
8
VISIBLE
10
258.526000
20
386.798000
11
255.326000
21
386.798000
0
LINE
8
VISIBLE
10
255.326000
20
382.298000
11
255.326000
21
386.798000
0
LINE
8
VISIBLE
10
252.126000
20
382.298000
11
252.126000
21
386.798000
0
LINE
8
VISIBLE
10
252.126000
20
382.298000
11
255.326000
21
382.298000
0
LINE
8
VISIBLE
10
248.926000
20
386.798000
11
248.926000
21
394.298000
0
LINE
8
VISIBLE
10
252.126000
20
386.798000
11
248.926000
21
386.798000
0
LINE
8
VISIBLE
10
274.876000
20
389.848000
11
274.722759
21
390.607028
0
LINE
8
VISIBLE
10
274.722759
20
390.607028
11
274.304858
21
391.226858
0
LINE
8
VISIBLE
10
274.304858
20
391.226858
11
273.685028
21
391.644759
0
LINE
8
VISIBLE
10
273.685028
20
391.644759
11
272.926000
21
391.798000
0
LINE
8
VISIBLE
10
272.926000
20
391.798000
11
272.166972
21
391.644759
0
LINE
8
VISIBLE
10
272.166972
20
391.644759
11
271.547142
21
391.226858
0
LINE
8
VISIBLE
10
271.547142
20
391.226858
11
271.129241
21
390.607028
0
LINE
8
VISIBLE
10
271.129241
20
390.607028
11
270.976000
21
389.848000
0
LINE
8
VISIBLE
10
270.976000
20
389.848000
11
271.129241
21
389.088972
0
LINE
8
VISIBLE
10
271.129241
20
389.088972
11
271.547142
21
388.469142
0
LINE
8
VISIBLE
10
271.547142
20
388.469142
11
272.166972
21
388.051241
0
LINE
8
VISIBLE
10
272.166972
20
388.051241
11
272.926000
21
387.898000
0
LINE
8
VISIBLE
10
272.926000
20
387.898000
11
273.685028
21
388.051241
0
LINE
8
VISIBLE
10
273.685028
20
388.051241
11
274.304858
21
388.469142
0
LINE
8
VISIBLE
10
274.304858
20
388.469142
11
274.722759
21
389.088972
0
LINE
8
VISIBLE
10
274.722759
20
389.088972
11
274.876000
21
389.848000
0
LINE
8
VISIBLE
10
274.876000
20
389.848000
11
274.876000
21
389.848000
0
LINE
8
VISIBLE
10
270.592000
20
396.298000
11
275.259000
21
396.298000
0
LINE
8
VISIBLE
10
275.259000
20
400.798000
11
275.259000
21
396.298000
0
LINE
8
VISIBLE
10
275.259000
20
400.798000
11
279.926000
21
400.798000
0
LINE
8
VISIBLE
10
271.925000
20
382.298000
11
273.925000
21
382.298000
0
LINE
8
VISIBLE
10
265.926000
20
388.298000
11
266.042352
21
387.121991
0
LINE
8
VISIBLE
10
266.042352
20
387.121991
11
266.382720
21
386.001898
0
LINE
8
VISIBLE
10
266.382720
20
386.001898
11
266.934067
21
384.969195
0
LINE
8
VISIBLE
10
266.934067
20
384.969195
11
267.683356
21
384.055356
0
LINE
8
VISIBLE
10
267.683356
20
384.055356
11
268.597195
21
383.306067
0
LINE
8
VISIBLE
10
268.597195
20
383.306067
11
269.629898
21
382.754720
0
LINE
8
VISIBLE
10
269.629898
20
382.754720
11
270.749991
21
382.414352
0
LINE
8
VISIBLE
10
270.749991
20
382.414352
11
271.926000
21
382.298000
0
LINE
8
VISIBLE
10
265.927000
20
388.298000
11
265.927000
21
400.798000
0
LINE
8
VISIBLE
10
265.927000
20
400.798000
11
270.592000
21
400.798000
0
LINE
8
VISIBLE
10
270.592000
20
400.798000
11
270.592000
21
396.298000
0
LINE
8
VISIBLE
10
279.926000
20
388.298000
11
279.926000
21
400.798000
0
LINE
8
VISIBLE
10
273.926000
20
382.298000
11
275.102009
21
382.414352
0
LINE
8
VISIBLE
10
275.102009
20
382.414352
11
276.222102
21
382.754720
0
LINE
8
VISIBLE
10
276.222102
20
382.754720
11
277.254805
21
383.306067
0
LINE
8
VISIBLE
10
277.254805
20
383.306067
11
278.168644
21
384.055356
0
LINE
8
VISIBLE
10
278.168644
20
384.055356
11
278.917933
21
384.969195
0
LINE
8
VISIBLE
10
278.917933
20
384.969195
11
279.469280
21
386.001898
0
LINE
8
VISIBLE
10
279.469280
20
386.001898
11
279.809648
21
387.121991
0
LINE
8
VISIBLE
10
279.809648
20
387.121991
11
279.926000
21
388.298000
0
LINE
8
VISIBLE
10
242.282000
20
540.128000
11
242.181615
21
540.884661
0
LINE
8
VISIBLE
10
242.181615
20
540.884661
11
241.893474
21
541.578000
0
LINE
8
VISIBLE
10
241.893474
20
541.578000
11
241.437095
21
542.174207
0
LINE
8
VISIBLE
10
241.437095
20
542.174207
11
240.832000
21
542.639474
0
LINE
8
VISIBLE
10
240.832000
20
542.639474
11
240.126520
21
542.930868
0
LINE
8
VISIBLE
10
240.126520
20
542.930868
11
239.382000
21
543.028000
0
LINE
8
VISIBLE
10
239.382000
20
543.028000
11
238.637480
21
542.930868
0
LINE
8
VISIBLE
10
238.637480
20
542.930868
11
237.932000
21
542.639474
0
LINE
8
VISIBLE
10
237.932000
20
542.639474
11
237.326905
21
542.174207
0
LINE
8
VISIBLE
10
237.326905
20
542.174207
11
236.870526
21
541.578000
0
LINE
8
VISIBLE
10
236.870526
20
541.578000
11
236.582385
21
540.884661
0
LINE
8
VISIBLE
10
236.582385
20
540.884661
11
236.482000
21
540.128000
0
LINE
8
VISIBLE
10
236.482000
20
540.128000
11
236.582385
21
539.371339
0
LINE
8
VISIBLE
10
236.582385
20
539.371339
11
236.870526
21
538.678000
0
LINE
8
VISIBLE
10
236.870526
20
538.678000
11
237.326905
21
538.081793
0
LINE
8
VISIBLE
10
237.326905
20
538.081793
11
237.932000
21
537.616526
0
LINE
8
VISIBLE
10
237.932000
20
537.616526
11
238.637480
21
537.325132
0
LINE
8
VISIBLE
10
238.637480
20
537.325132
11
239.382000
21
537.228000
0
LINE
8
VISIBLE
10
239.382000
20
537.228000
11
240.126520
21
537.325132
0
LINE
8
VISIBLE
10
240.126520
20
537.325132
11
240.832000
21
537.616526
0
LINE
8
VISIBLE
10
240.832000
20
537.616526
11
241.437095
21
538.081793
0
LINE
8
VISIBLE
10
241.437095
20
538.081793
11
241.893474
21
538.678000
0
LINE
8
VISIBLE
10
241.893474
20
538.678000
11
242.181615
21
539.371339
0
LINE
8
VISIBLE
10
242.181615
20
539.371339
11
242.282000
21
540.128000
0
LINE
8
VISIBLE
10
242.282000
20
540.128000
11
242.282000
21
540.128000
0
LINE
8
VISIBLE
10
231.882000
20
544.928000
11
231.882000
21
548.128000
0
LINE
8
VISIBLE
10
231.882000
20
548.128000
11
239.382000
21
548.128000
0
LINE
8
VISIBLE
10
239.382000
20
532.128000
11
241.469339
21
532.404929
0
LINE
8
VISIBLE
10
241.469339
20
532.404929
11
243.381995
21
533.199804
0
LINE
8
VISIBLE
10
243.381995
20
533.199804
11
245.026703
21
534.458778
0
LINE
8
VISIBLE
10
245.026703
20
534.458778
11
246.310195
21
536.128005
0
LINE
8
VISIBLE
10
246.310195
20
536.128005
11
247.114041
21
538.074155
0
LINE
8
VISIBLE
10
247.114041
20
538.074155
11
247.381990
21
540.128000
0
LINE
8
VISIBLE
10
247.381990
20
540.128000
11
247.114041
21
542.181845
0
LINE
8
VISIBLE
10
247.114041
20
542.181845
11
246.310195
21
544.127995
0
LINE
8
VISIBLE
10
246.310195
20
544.127995
11
245.026703
21
545.797222
0
LINE
8
VISIBLE
10
245.026703
20
545.797222
11
243.381995
21
547.056195
0
LINE
8
VISIBLE
10
243.381995
20
547.056195
11
241.469339
21
547.851067
0
LINE
8
VISIBLE
10
241.469339
20
547.851067
11
239.382000
21
548.127990
0
LINE
8
VISIBLE
10
231.882000
20
532.128000
11
239.382000
21
532.128000
0
LINE
8
VISIBLE
10
231.882000
20
532.128000
11
231.882000
21
535.328000
0
LINE
8
VISIBLE
10
227.382000
20
538.528000
11
231.882000
21
538.528000
0
LINE
8
VISIBLE
10
231.882000
20
538.528000
11
231.882000
21
541.728000
0
LINE
8
VISIBLE
10
227.382000
20
541.728000
11
231.882000
21
541.728000
0
LINE
8
VISIBLE
10
227.382000
20
544.928000
11
227.382000
21
541.728000
0
LINE
8
VISIBLE
10
227.382000
20
544.928000
11
231.882000
21
544.928000
0
LINE
8
VISIBLE
10
227.382000
20
535.328000
11
231.882000
21
535.328000
0
LINE
8
VISIBLE
10
227.382000
20
538.528000
11
227.382000
21
535.328000
0
LINE
8
VISIBLE
10
209.927000
20
642.969000
11
209.927000
21
638.468000
0
LINE
8
VISIBLE
10
200.791000
20
638.468000
11
209.927000
21
638.468000
0
LINE
8
VISIBLE
10
200.791000
20
642.969000
11
200.791000
21
638.468000
0
LINE
8
VISIBLE
10
200.791000
20
642.969000
11
209.927000
21
642.969000
0
LINE
8
VISIBLE
10
285.882000
20
642.969000
11
285.882000
21
638.468000
0
LINE
8
VISIBLE
10
273.883000
20
638.468000
11
285.882000
21
638.468000
0
LINE
8
VISIBLE
10
273.883000
20
642.969000
11
273.883000
21
638.468000
0
LINE
8
VISIBLE
10
273.883000
20
642.969000
11
285.882000
21
642.969000
0
LINE
8
VISIBLE
10
228.200000
20
642.969000
11
228.200000
21
638.468000
0
LINE
8
VISIBLE
10
219.064000
20
638.468000
11
228.200000
21
638.468000
0
LINE
8
VISIBLE
10
219.064000
20
642.969000
11
219.064000
21
638.468000
0
LINE
8
VISIBLE
10
219.064000
20
642.969000
11
228.200000
21
642.969000
0
LINE
8
VISIBLE
10
237.337000
20
638.468000
11
246.473000
21
638.468000
0
LINE
8
VISIBLE
10
237.337000
20
642.969000
11
237.337000
21
638.468000
0
LINE
8
VISIBLE
10
237.337000
20
642.969000
11
246.473000
21
642.969000
0
LINE
8
VISIBLE
10
246.473000
20
642.969000
11
246.473000
21
638.468000
0
LINE
8
VISIBLE
10
161.382000
20
638.468000
11
173.382000
21
638.468000
0
LINE
8
VISIBLE
10
161.382000
20
642.969000
11
161.382000
21
638.468000
0
LINE
8
VISIBLE
10
161.382000
20
642.969000
11
173.382000
21
642.969000
0
LINE
8
VISIBLE
10
173.382000
20
642.969000
11
173.382000
21
638.468000
0
LINE
8
VISIBLE
10
255.609000
20
638.468000
11
264.744000
21
638.468000
0
LINE
8
VISIBLE
10
255.609000
20
642.969000
11
264.744000
21
642.969000
0
LINE
8
VISIBLE
10
255.609000
20
642.969000
11
255.609000
21
638.468000
0
LINE
8
VISIBLE
10
264.744000
20
642.969000
11
264.744000
21
638.468000
0
LINE
8
VISIBLE
10
182.518000
20
638.468000
11
191.655000
21
638.468000
0
LINE
8
VISIBLE
10
182.518000
20
642.969000
11
191.655000
21
642.969000
0
LINE
8
VISIBLE
10
191.655000
20
642.969000
11
191.655000
21
638.468000
0
LINE
8
VISIBLE
10
182.518000
20
642.969000
11
182.518000
21
638.468000
0
LINE
8
VISIBLE
10
246.473000
20
638.468000
11
255.609000
21
638.468000
0
LINE
8
VISIBLE
10
246.473000
20
642.969000
11
255.609000
21
642.969000
0
LINE
8
VISIBLE
10
209.927000
20
638.468000
11
219.064000
21
638.468000
0
LINE
8
VISIBLE
10
209.927000
20
642.969000
11
219.064000
21
642.969000
0
LINE
8
VISIBLE
10
264.744000
20
638.468000
11
273.883000
21
638.468000
0
LINE
8
VISIBLE
10
264.744000
20
642.969000
11
273.883000
21
642.969000
0
LINE
8
VISIBLE
10
228.200000
20
638.468000
11
237.337000
21
638.468000
0
LINE
8
VISIBLE
10
228.200000
20
642.969000
11
237.337000
21
642.969000
0
LINE
8
VISIBLE
10
191.655000
20
638.468000
11
200.791000
21
638.468000
0
LINE
8
VISIBLE
10
191.655000
20
642.969000
11
200.791000
21
642.969000
0
LINE
8
VISIBLE
10
173.382000
20
638.468000
11
182.518000
21
638.468000
0
LINE
8
VISIBLE
10
173.382000
20
642.969000
11
182.518000
21
642.969000
0
LINE
8
VISIBLE
10
288.327000
20
485.468000
11
284.826000
21
485.468000
0
LINE
8
VISIBLE
10
284.826000
20
494.468000
11
284.826000
21
498.968000
0
LINE
8
VISIBLE
10
288.327000
20
498.968000
11
284.826000
21
498.968000
0
LINE
8
VISIBLE
10
289.327000
20
495.451000
11
286.525000
21
493.835000
0
LINE
8
VISIBLE
10
281.326000
20
489.968000
11
284.826000
21
489.968000
0
LINE
8
VISIBLE
10
284.826000
20
485.468000
11
284.826000
21
489.968000
0
LINE
8
VISIBLE
10
292.827000
20
489.968000
11
292.827000
21
494.468000
0
LINE
8
VISIBLE
10
281.326000
20
494.468000
11
284.826000
21
494.468000
0
LINE
8
VISIBLE
10
286.525000
20
490.601000
11
289.327000
21
488.985000
0
LINE
8
VISIBLE
10
286.525000
20
493.835000
11
286.525000
21
490.601000
0
LINE
8
VISIBLE
10
292.126000
20
493.835000
11
289.327000
21
495.451000
0
LINE
8
VISIBLE
10
292.826000
20
494.468000
11
292.738736
21
495.350007
0
LINE
8
VISIBLE
10
292.738736
20
495.350007
11
292.483461
21
496.190077
0
LINE
8
VISIBLE
10
292.483461
20
496.190077
11
292.069950
21
496.964605
0
LINE
8
VISIBLE
10
292.069950
20
496.964605
11
291.507983
21
497.649983
0
LINE
8
VISIBLE
10
291.507983
20
497.649983
11
290.822605
21
498.211950
0
LINE
8
VISIBLE
10
290.822605
20
498.211950
11
290.048077
21
498.625461
0
LINE
8
VISIBLE
10
290.048077
20
498.625461
11
289.208007
21
498.880736
0
LINE
8
VISIBLE
10
289.208007
20
498.880736
11
288.326000
21
498.968000
0
LINE
8
VISIBLE
10
288.326000
20
485.468000
11
289.208007
21
485.555264
0
LINE
8
VISIBLE
10
289.208007
20
485.555264
11
290.048077
21
485.810539
0
LINE
8
VISIBLE
10
290.048077
20
485.810539
11
290.822605
21
486.224050
0
LINE
8
VISIBLE
10
290.822605
20
486.224050
11
291.507983
21
486.786017
0
LINE
8
VISIBLE
10
291.507983
20
486.786017
11
292.069950
21
487.471395
0
LINE
8
VISIBLE
10
292.069950
20
487.471395
11
292.483461
21
488.245923
0
LINE
8
VISIBLE
10
292.483461
20
488.245923
11
292.738736
21
489.085993
0
LINE
8
VISIBLE
10
292.738736
20
489.085993
11
292.826000
21
489.968000
0
LINE
8
VISIBLE
10
289.327000
20
488.985000
11
292.126000
21
490.601000
0
LINE
8
VISIBLE
10
281.326000
20
489.968000
11
281.326000
21
494.468000
0
LINE
8
VISIBLE
10
292.126000
20
490.601000
11
292.126000
21
493.835000
0
LINE
8
VISIBLE
10
290.826000
20
492.218000
11
290.625038
21
492.968000
0
LINE
8
VISIBLE
10
290.625038
20
492.968000
11
290.076000
21
493.517038
0
LINE
8
VISIBLE
10
290.076000
20
493.517038
11
289.326000
21
493.718000
0
LINE
8
VISIBLE
10
289.326000
20
493.718000
11
288.576000
21
493.517038
0
LINE
8
VISIBLE
10
288.576000
20
493.517038
11
288.026962
21
492.968000
0
LINE
8
VISIBLE
10
288.026962
20
492.968000
11
287.826000
21
492.218000
0
LINE
8
VISIBLE
10
287.826000
20
492.218000
11
288.026962
21
491.468000
0
LINE
8
VISIBLE
10
288.026962
20
491.468000
11
288.576000
21
490.918962
0
LINE
8
VISIBLE
10
288.576000
20
490.918962
11
289.326000
21
490.718000
0
LINE
8
VISIBLE
10
289.326000
20
490.718000
11
290.076000
21
490.918962
0
LINE
8
VISIBLE
10
290.076000
20
490.918962
11
290.625038
21
491.468000
0
LINE
8
VISIBLE
10
290.625038
20
491.468000
11
290.826000
21
492.218000
0
LINE
8
VISIBLE
10
290.826000
20
492.218000
11
290.826000
21
492.218000
0
LINE
8
VISIBLE
10
219.064000
20
648.467000
11
228.200000
21
648.467000
0
LINE
8
VISIBLE
10
219.064000
20
643.969000
11
219.064000
21
648.467000
0
LINE
8
VISIBLE
10
219.064000
20
643.969000
11
228.200000
21
643.969000
0
LINE
8
VISIBLE
10
228.200000
20
643.969000
11
228.200000
21
648.467000
0
LINE
8
VISIBLE
10
237.337000
20
648.467000
11
246.473000
21
648.467000
0
LINE
8
VISIBLE
10
237.337000
20
643.969000
11
237.337000
21
648.467000
0
LINE
8
VISIBLE
10
246.473000
20
643.969000
11
246.473000
21
648.467000
0
LINE
8
VISIBLE
10
237.337000
20
643.969000
11
246.473000
21
643.969000
0
LINE
8
VISIBLE
10
209.927000
20
643.969000
11
209.927000
21
648.467000
0
LINE
8
VISIBLE
10
200.791000
20
643.969000
11
200.791000
21
648.467000
0
LINE
8
VISIBLE
10
200.791000
20
648.467000
11
209.927000
21
648.467000
0
LINE
8
VISIBLE
10
200.791000
20
643.969000
11
209.927000
21
643.969000
0
LINE
8
VISIBLE
10
161.382000
20
648.467000
11
173.382000
21
648.467000
0
LINE
8
VISIBLE
10
173.382000
20
643.969000
11
173.382000
21
648.467000
0
LINE
8
VISIBLE
10
161.382000
20
643.969000
11
161.382000
21
648.467000
0
LINE
8
VISIBLE
10
161.382000
20
643.969000
11
173.382000
21
643.969000
0
LINE
8
VISIBLE
10
191.655000
20
643.969000
11
191.655000
21
648.467000
0
LINE
8
VISIBLE
10
182.518000
20
643.969000
11
182.518000
21
648.467000
0
LINE
8
VISIBLE
10
182.518000
20
648.467000
11
191.655000
21
648.467000
0
LINE
8
VISIBLE
10
182.518000
20
643.969000
11
191.655000
21
643.969000
0
LINE
8
VISIBLE
10
273.883000
20
643.969000
11
273.883000
21
648.467000
0
LINE
8
VISIBLE
10
273.883000
20
648.467000
11
285.882000
21
648.467000
0
LINE
8
VISIBLE
10
285.882000
20
643.969000
11
285.882000
21
648.467000
0
LINE
8
VISIBLE
10
273.883000
20
643.969000
11
285.882000
21
643.969000
0
LINE
8
VISIBLE
10
264.744000
20
643.969000
11
264.744000
21
648.467000
0
LINE
8
VISIBLE
10
255.609000
20
648.467000
11
264.744000
21
648.467000
0
LINE
8
VISIBLE
10
255.609000
20
643.969000
11
255.609000
21
648.467000
0
LINE
8
VISIBLE
10
255.609000
20
643.969000
11
264.744000
21
643.969000
0
LINE
8
VISIBLE
10
246.473000
20
648.467000
11
255.609000
21
648.467000
0
LINE
8
VISIBLE
10
255.609000
20
643.969000
11
246.473000
21
643.969000
0
LINE
8
VISIBLE
10
209.927000
20
648.467000
11
219.064000
21
648.467000
0
LINE
8
VISIBLE
10
219.064000
20
643.969000
11
209.927000
21
643.969000
0
LINE
8
VISIBLE
10
173.382000
20
648.467000
11
182.518000
21
648.467000
0
LINE
8
VISIBLE
10
182.518000
20
643.969000
11
173.382000
21
643.969000
0
LINE
8
VISIBLE
10
264.744000
20
648.467000
11
273.883000
21
648.467000
0
LINE
8
VISIBLE
10
273.883000
20
643.969000
11
264.744000
21
643.969000
0
LINE
8
VISIBLE
10
191.655000
20
648.467000
11
200.791000
21
648.467000
0
LINE
8
VISIBLE
10
200.791000
20
643.969000
11
191.655000
21
643.969000
0
LINE
8
VISIBLE
10
228.200000
20
648.467000
11
237.337000
21
648.467000
0
LINE
8
VISIBLE
10
237.337000
20
643.969000
11
228.200000
21
643.969000
0
LINE
8
VISIBLE
10
233.382000
20
449.213000
11
233.382000
21
451.463000
0
LINE
8
VISIBLE
10
233.382000
20
456.463000
11
233.382000
21
458.713000
0
LINE
8
VISIBLE
10
231.132000
20
456.463000
11
233.382000
21
456.463000
0
LINE
8
VISIBLE
10
231.132000
20
451.463000
11
231.132000
21
456.463000
0
LINE
8
VISIBLE
10
233.382000
20
451.463000
11
231.132000
21
451.463000
0
LINE
8
VISIBLE
10
245.426000
20
451.225000
11
245.426000
21
456.725000
0
LINE
8
VISIBLE
10
247.926000
20
451.225000
11
245.426000
21
451.225000
0
LINE
8
VISIBLE
10
247.926000
20
451.225000
11
247.926000
21
451.102000
0
LINE
8
VISIBLE
10
234.588000
20
443.401000
11
247.926000
21
451.102000
0
LINE
8
VISIBLE
10
230.088000
20
443.401000
11
231.182711
21
442.948835
0
LINE
8
VISIBLE
10
231.182711
20
442.948835
11
232.338000
21
442.798113
0
LINE
8
VISIBLE
10
232.338000
20
442.798113
11
233.493289
21
442.948835
0
LINE
8
VISIBLE
10
233.493289
20
442.948835
11
234.588000
21
443.401000
0
LINE
8
VISIBLE
10
229.632000
20
443.664000
11
230.088000
21
443.401000
0
LINE
8
VISIBLE
10
227.382000
20
447.561000
11
227.537791
21
446.386902
0
LINE
8
VISIBLE
10
227.537791
20
446.386902
11
227.984913
21
445.311064
0
LINE
8
VISIBLE
10
227.984913
20
445.311064
11
228.693079
21
444.385944
0
LINE
8
VISIBLE
10
228.693079
20
444.385944
11
229.632000
21
443.664000
0
LINE
8
VISIBLE
10
229.632000
20
464.262000
11
228.693079
21
463.540056
0
LINE
8
VISIBLE
10
228.693079
20
463.540056
11
227.984913
21
462.614936
0
LINE
8
VISIBLE
10
227.984913
20
462.614936
11
227.537791
21
461.539098
0
LINE
8
VISIBLE
10
227.537791
20
461.539098
11
227.382000
21
460.365000
0
LINE
8
VISIBLE
10
234.588000
20
464.526000
11
233.493289
21
464.978165
0
LINE
8
VISIBLE
10
233.493289
20
464.978165
11
232.338000
21
465.128887
0
LINE
8
VISIBLE
10
232.338000
20
465.128887
11
231.182711
21
464.978165
0
LINE
8
VISIBLE
10
231.182711
20
464.978165
11
230.088000
21
464.526000
0
LINE
8
VISIBLE
10
247.926000
20
456.825000
11
247.926000
21
456.725000
0
LINE
8
VISIBLE
10
247.926000
20
456.725000
11
245.426000
21
456.725000
0
LINE
8
VISIBLE
10
230.088000
20
464.525000
11
229.632000
21
464.262000
0
LINE
8
VISIBLE
10
234.588000
20
464.525000
11
247.926000
21
456.825000
0
LINE
8
VISIBLE
10
238.382000
20
449.213000
11
233.382000
21
449.213000
0
LINE
8
VISIBLE
10
233.382000
20
458.713000
11
238.382000
21
458.713000
0
LINE
8
VISIBLE
10
227.382000
20
447.561000
11
227.382000
21
460.365000
0
LINE
8
VISIBLE
10
238.382000
20
451.463000
11
238.382000
21
449.213000
0
LINE
8
VISIBLE
10
240.632000
20
451.463000
11
238.382000
21
451.463000
0
LINE
8
VISIBLE
10
240.632000
20
456.463000
11
240.632000
21
451.463000
0
LINE
8
VISIBLE
10
238.382000
20
456.463000
11
240.632000
21
456.463000
0
LINE
8
VISIBLE
10
238.382000
20
458.713000
11
238.382000
21
456.463000
0
LINE
8
VISIBLE
10
247.926000
20
456.725000
11
247.926000
21
451.225000
0
LINE
8
VISIBLE
10
268.882000
20
535.128000
11
268.882000
21
532.128000
0
LINE
8
VISIBLE
10
273.383000
20
542.128000
11
273.383000
21
535.128000
0
LINE
8
VISIBLE
10
281.382000
20
540.628000
11
281.294736
21
541.510007
0
LINE
8
VISIBLE
10
281.294736
20
541.510007
11
281.039461
21
542.350077
0
LINE
8
VISIBLE
10
281.039461
20
542.350077
11
280.625950
21
543.124605
0
LINE
8
VISIBLE
10
280.625950
20
543.124605
11
280.063983
21
543.809983
0
LINE
8
VISIBLE
10
280.063983
20
543.809983
11
279.378605
21
544.371950
0
LINE
8
VISIBLE
10
279.378605
20
544.371950
11
278.604077
21
544.785461
0
LINE
8
VISIBLE
10
278.604077
20
544.785461
11
277.764007
21
545.040736
0
LINE
8
VISIBLE
10
277.764007
20
545.040736
11
276.882000
21
545.128000
0
LINE
8
VISIBLE
10
281.381000
20
540.628000
11
281.381000
21
536.628000
0
LINE
8
VISIBLE
10
268.882000
20
545.128000
11
276.881000
21
545.128000
0
LINE
8
VISIBLE
10
268.882000
20
532.128000
11
276.881000
21
532.128000
0
LINE
8
VISIBLE
10
268.882000
20
545.128000
11
268.882000
21
542.128000
0
LINE
8
VISIBLE
10
268.882000
20
542.128000
11
273.383000
21
542.128000
0
LINE
8
VISIBLE
10
276.882000
20
532.128000
11
277.764007
21
532.215264
0
LINE
8
VISIBLE
10
277.764007
20
532.215264
11
278.604077
21
532.470539
0
LINE
8
VISIBLE
10
278.604077
20
532.470539
11
279.378605
21
532.884050
0
LINE
8
VISIBLE
10
279.378605
20
532.884050
11
280.063983
21
533.446017
0
LINE
8
VISIBLE
10
280.063983
20
533.446017
11
280.625950
21
534.131395
0
LINE
8
VISIBLE
10
280.625950
20
534.131395
11
281.039461
21
534.905923
0
LINE
8
VISIBLE
10
281.039461
20
534.905923
11
281.294736
21
535.745993
0
LINE
8
VISIBLE
10
281.294736
20
535.745993
11
281.382000
21
536.628000
0
LINE
8
VISIBLE
10
268.882000
20
535.128000
11
273.383000
21
535.128000
0
LINE
8
VISIBLE
10
184.657000
20
513.168000
11
184.657000
21
516.368000
0
LINE
8
VISIBLE
10
193.907000
20
513.168000
11
193.907000
21
516.368000
0
LINE
8
VISIBLE
10
193.907000
20
513.168000
11
198.407000
21
513.168000
0
LINE
8
VISIBLE
10
216.907000
20
513.168000
11
216.907000
21
516.368000
0
LINE
8
VISIBLE
10
212.407000
20
516.368000
11
216.907000
21
516.368000
0
LINE
8
VISIBLE
10
216.907000
20
519.568000
11
216.907000
21
522.768000
0
LINE
8
VISIBLE
10
212.407000
20
519.568000
11
216.907000
21
519.568000
0
LINE
8
VISIBLE
10
179.907000
20
513.168000
11
179.907000
21
516.368000
0
LINE
8
VISIBLE
10
193.907000
20
516.368000
11
198.407000
21
516.368000
0
LINE
8
VISIBLE
10
212.407000
20
519.568000
11
212.407000
21
522.768000
0
LINE
8
VISIBLE
10
203.157000
20
513.168000
11
203.157000
21
516.368000
0
LINE
8
VISIBLE
10
203.157000
20
513.168000
11
207.657000
21
513.168000
0
LINE
8
VISIBLE
10
193.907000
20
519.568000
11
198.407000
21
519.568000
0
LINE
8
VISIBLE
10
198.407000
20
513.168000
11
198.407000
21
516.368000
0
LINE
8
VISIBLE
10
189.157000
20
519.568000
11
189.157000
21
522.768000
0
LINE
8
VISIBLE
10
184.657000
20
516.368000
11
189.157000
21
516.368000
0
LINE
8
VISIBLE
10
184.657000
20
513.168000
11
189.157000
21
513.168000
0
LINE
8
VISIBLE
10
175.407000
20
516.368000
11
179.907000
21
516.368000
0
LINE
8
VISIBLE
10
175.407000
20
513.168000
11
175.407000
21
516.368000
0
LINE
8
VISIBLE
10
226.382000
20
517.968000
11
226.096192
21
522.272937
0
LINE
8
VISIBLE
10
226.096192
20
522.272937
11
225.256997
21
526.447824
0
LINE
8
VISIBLE
10
225.256997
20
526.447824
11
223.891760
21
530.445299
0
LINE
8
VISIBLE
10
223.891760
20
530.445299
11
222.027826
21
534.218000
0
LINE
8
VISIBLE
10
222.027826
20
534.218000
11
219.692538
21
537.718565
0
LINE
8
VISIBLE
10
219.692538
20
537.718565
11
216.913241
21
540.899633
0
LINE
8
VISIBLE
10
216.913241
20
540.899633
11
213.717281
21
543.713840
0
LINE
8
VISIBLE
10
213.717281
20
543.713840
11
210.132000
21
546.113826
0
LINE
8
VISIBLE
10
210.132000
20
546.113826
11
206.260911
21
548.018777
0
LINE
8
VISIBLE
10
206.260911
20
548.018777
11
202.225756
21
549.379456
0
LINE
8
VISIBLE
10
202.225756
20
549.379456
11
198.081222
21
550.195864
0
LINE
8
VISIBLE
10
198.081222
20
550.195864
11
193.882000
21
550.468000
0
LINE
8
VISIBLE
10
193.882000
20
550.468000
11
189.682778
21
550.195864
0
LINE
8
VISIBLE
10
189.682778
20
550.195864
11
185.538244
21
549.379456
0
LINE
8
VISIBLE
10
185.538244
20
549.379456
11
181.503089
21
548.018777
0
LINE
8
VISIBLE
10
181.503089
20
548.018777
11
177.632000
21
546.113826
0
LINE
8
VISIBLE
10
177.632000
20
546.113826
11
174.046719
21
543.713840
0
LINE
8
VISIBLE
10
174.046719
20
543.713840
11
170.850759
21
540.899633
0
LINE
8
VISIBLE
10
170.850759
20
540.899633
11
168.071462
21
537.718565
0
LINE
8
VISIBLE
10
168.071462
20
537.718565
11
165.736174
21
534.218000
0
LINE
8
VISIBLE
10
165.736174
20
534.218000
11
163.872240
21
530.445299
0
LINE
8
VISIBLE
10
163.872240
20
530.445299
11
162.507003
21
526.447824
0
LINE
8
VISIBLE
10
162.507003
20
526.447824
11
161.667808
21
522.272937
0
LINE
8
VISIBLE
10
161.667808
20
522.272937
11
161.382000
21
517.968000
0
LINE
8
VISIBLE
10
161.382000
20
517.968000
11
161.667808
21
513.663063
0
LINE
8
VISIBLE
10
161.667808
20
513.663063
11
162.507003
21
509.488176
0
LINE
8
VISIBLE
10
162.507003
20
509.488176
11
163.872240
21
505.490701
0
LINE
8
VISIBLE
10
163.872240
20
505.490701
11
165.736174
21
501.718000
0
LINE
8
VISIBLE
10
165.736174
20
501.718000
11
168.071462
21
498.217435
0
LINE
8
VISIBLE
10
168.071462
20
498.217435
11
170.850759
21
495.036367
0
LINE
8
VISIBLE
10
170.850759
20
495.036367
11
174.046719
21
492.222160
0
LINE
8
VISIBLE
10
174.046719
20
492.222160
11
177.632000
21
489.822174
0
LINE
8
VISIBLE
10
177.632000
20
489.822174
11
181.503089
21
487.917223
0
LINE
8
VISIBLE
10
181.503089
20
487.917223
11
185.538244
21
486.556544
0
LINE
8
VISIBLE
10
185.538244
20
486.556544
11
189.682778
21
485.740136
0
LINE
8
VISIBLE
10
189.682778
20
485.740136
11
193.882000
21
485.468000
0
LINE
8
VISIBLE
10
193.882000
20
485.468000
11
198.081222
21
485.740136
0
LINE
8
VISIBLE
10
198.081222
20
485.740136
11
202.225756
21
486.556544
0
LINE
8
VISIBLE
10
202.225756
20
486.556544
11
206.260911
21
487.917223
0
LINE
8
VISIBLE
10
206.260911
20
487.917223
11
210.132000
21
489.822174
0
LINE
8
VISIBLE
10
210.132000
20
489.822174
11
213.717281
21
492.222160
0
LINE
8
VISIBLE
10
213.717281
20
492.222160
11
216.913241
21
495.036367
0
LINE
8
VISIBLE
10
216.913241
20
495.036367
11
219.692538
21
498.217435
0
LINE
8
VISIBLE
10
219.692538
20
498.217435
11
222.027826
21
501.718000
0
LINE
8
VISIBLE
10
222.027826
20
501.718000
11
223.891760
21
505.490701
0
LINE
8
VISIBLE
10
223.891760
20
505.490701
11
225.256997
21
509.488176
0
LINE
8
VISIBLE
10
225.256997
20
509.488176
11
226.096192
21
513.663063
0
LINE
8
VISIBLE
10
226.096192
20
513.663063
11
226.382000
21
517.968000
0
LINE
8
VISIBLE
10
226.382000
20
517.968000
11
226.382000
21
517.968000
0
LINE
8
VISIBLE
10
212.407000
20
522.768000
11
216.907000
21
522.768000
0
LINE
8
VISIBLE
10
212.407000
20
513.168000
11
216.907000
21
513.168000
0
LINE
8
VISIBLE
10
203.157000
20
516.368000
11
207.657000
21
516.368000
0
LINE
8
VISIBLE
10
193.907000
20
522.768000
11
198.407000
21
522.768000
0
LINE
8
VISIBLE
10
193.907000
20
519.568000
11
193.907000
21
522.768000
0
LINE
8
VISIBLE
10
175.407000
20
513.168000
11
179.907000
21
513.168000
0
LINE
8
VISIBLE
10
184.657000
20
522.768000
11
189.157000
21
522.768000
0
LINE
8
VISIBLE
10
184.657000
20
519.568000
11
184.657000
21
522.768000
0
LINE
8
VISIBLE
10
175.407000
20
522.768000
11
179.907000
21
522.768000
0
LINE
8
VISIBLE
10
179.907000
20
519.568000
11
179.907000
21
522.768000
0
LINE
8
VISIBLE
10
175.407000
20
519.568000
11
175.407000
21
522.768000
0
LINE
8
VISIBLE
10
203.157000
20
519.568000
11
207.657000
21
519.568000
0
LINE
8
VISIBLE
10
203.157000
20
522.768000
11
207.657000
21
522.768000
0
LINE
8
VISIBLE
10
189.157000
20
513.168000
11
189.157000
21
516.368000
0
LINE
8
VISIBLE
10
198.407000
20
519.568000
11
198.407000
21
522.768000
0
LINE
8
VISIBLE
10
175.407000
20
519.568000
11
179.907000
21
519.568000
0
LINE
8
VISIBLE
10
212.407000
20
513.168000
11
212.407000
21
516.368000
0
LINE
8
VISIBLE
10
184.657000
20
519.568000
11
189.157000
21
519.568000
0
LINE
8
VISIBLE
10
207.657000
20
519.568000
11
207.657000
21
522.768000
0
LINE
8
VISIBLE
10
203.157000
20
519.568000
11
203.157000
21
522.768000
0
LINE
8
VISIBLE
10
207.657000
20
513.168000
11
207.657000
21
516.368000
0
LINE
8
VISIBLE
10
259.826000
20
431.468000
11
259.725615
21
432.224661
0
LINE
8
VISIBLE
10
259.725615
20
432.224661
11
259.437474
21
432.918000
0
LINE
8
VISIBLE
10
259.437474
20
432.918000
11
258.981095
21
433.514207
0
LINE
8
VISIBLE
10
258.981095
20
433.514207
11
258.376000
21
433.979474
0
LINE
8
VISIBLE
10
258.376000
20
433.979474
11
257.670520
21
434.270868
0
LINE
8
VISIBLE
10
257.670520
20
434.270868
11
256.926000
21
434.368000
0
LINE
8
VISIBLE
10
256.926000
20
434.368000
11
256.181480
21
434.270868
0
LINE
8
VISIBLE
10
256.181480
20
434.270868
11
255.476000
21
433.979474
0
LINE
8
VISIBLE
10
255.476000
20
433.979474
11
254.870905
21
433.514207
0
LINE
8
VISIBLE
10
254.870905
20
433.514207
11
254.414526
21
432.918000
0
LINE
8
VISIBLE
10
254.414526
20
432.918000
11
254.126385
21
432.224661
0
LINE
8
VISIBLE
10
254.126385
20
432.224661
11
254.026000
21
431.468000
0
LINE
8
VISIBLE
10
254.026000
20
431.468000
11
254.126385
21
430.711339
0
LINE
8
VISIBLE
10
254.126385
20
430.711339
11
254.414526
21
430.018000
0
LINE
8
VISIBLE
10
254.414526
20
430.018000
11
254.870905
21
429.421793
0
LINE
8
VISIBLE
10
254.870905
20
429.421793
11
255.476000
21
428.956526
0
LINE
8
VISIBLE
10
255.476000
20
428.956526
11
256.181480
21
428.665132
0
LINE
8
VISIBLE
10
256.181480
20
428.665132
11
256.926000
21
428.568000
0
LINE
8
VISIBLE
10
256.926000
20
428.568000
11
257.670520
21
428.665132
0
LINE
8
VISIBLE
10
257.670520
20
428.665132
11
258.376000
21
428.956526
0
LINE
8
VISIBLE
10
258.376000
20
428.956526
11
258.981095
21
429.421793
0
LINE
8
VISIBLE
10
258.981095
20
429.421793
11
259.437474
21
430.018000
0
LINE
8
VISIBLE
10
259.437474
20
430.018000
11
259.725615
21
430.711339
0
LINE
8
VISIBLE
10
259.725615
20
430.711339
11
259.826000
21
431.468000
0
LINE
8
VISIBLE
10
259.826000
20
431.468000
11
259.826000
21
431.468000
0
LINE
8
VISIBLE
10
261.726000
20
419.468000
11
261.726000
21
423.968000
0
LINE
8
VISIBLE
10
258.526000
20
419.468000
11
261.726000
21
419.468000
0
LINE
8
VISIBLE
10
255.326000
20
419.468000
11
255.326000
21
423.968000
0
LINE
8
VISIBLE
10
252.126000
20
419.468000
11
255.326000
21
419.468000
0
LINE
8
VISIBLE
10
264.926000
20
431.468000
11
264.649071
21
433.555339
0
LINE
8
VISIBLE
10
264.649071
20
433.555339
11
263.854196
21
435.467995
0
LINE
8
VISIBLE
10
263.854196
20
435.467995
11
262.595222
21
437.112703
0
LINE
8
VISIBLE
10
262.595222
20
437.112703
11
260.925995
21
438.396195
0
LINE
8
VISIBLE
10
260.925995
20
438.396195
11
258.979845
21
439.200041
0
LINE
8
VISIBLE
10
258.979845
20
439.200041
11
256.926000
21
439.467990
0
LINE
8
VISIBLE
10
256.926000
20
439.467990
11
254.872155
21
439.200041
0
LINE
8
VISIBLE
10
254.872155
20
439.200041
11
252.926005
21
438.396195
0
LINE
8
VISIBLE
10
252.926005
20
438.396195
11
251.256778
21
437.112703
0
LINE
8
VISIBLE
10
251.256778
20
437.112703
11
249.997805
21
435.467995
0
LINE
8
VISIBLE
10
249.997805
20
435.467995
11
249.202933
21
433.555339
0
LINE
8
VISIBLE
10
249.202933
20
433.555339
11
248.926010
21
431.468000
0
LINE
8
VISIBLE
10
248.926000
20
423.968000
11
248.926000
21
431.468000
0
LINE
8
VISIBLE
10
264.927000
20
423.968000
11
264.927000
21
431.468000
0
LINE
8
VISIBLE
10
258.526000
20
419.468000
11
258.526000
21
423.968000
0
LINE
8
VISIBLE
10
252.126000
20
419.468000
11
252.126000
21
423.968000
0
LINE
8
VISIBLE
10
264.927000
20
423.968000
11
261.726000
21
423.968000
0
LINE
8
VISIBLE
10
258.526000
20
423.968000
11
255.326000
21
423.968000
0
LINE
8
VISIBLE
10
252.126000
20
423.968000
11
248.926000
21
423.968000
0
LINE
8
VISIBLE
10
226.382000
20
781.968000
11
226.096192
21
786.272937
0
LINE
8
VISIBLE
10
226.096192
20
786.272937
11
225.256997
21
790.447824
0
LINE
8
VISIBLE
10
225.256997
20
790.447824
11
223.891760
21
794.445299
0
LINE
8
VISIBLE
10
223.891760
20
794.445299
11
222.027826
21
798.218000
0
LINE
8
VISIBLE
10
222.027826
20
798.218000
11
219.692538
21
801.718565
0
LINE
8
VISIBLE
10
219.692538
20
801.718565
11
216.913241
21
804.899633
0
LINE
8
VISIBLE
10
216.913241
20
804.899633
11
213.717281
21
807.713840
0
LINE
8
VISIBLE
10
213.717281
20
807.713840
11
210.132000
21
810.113826
0
LINE
8
VISIBLE
10
210.132000
20
810.113826
11
206.260911
21
812.018777
0
LINE
8
VISIBLE
10
206.260911
20
812.018777
11
202.225756
21
813.379456
0
LINE
8
VISIBLE
10
202.225756
20
813.379456
11
198.081222
21
814.195864
0
LINE
8
VISIBLE
10
198.081222
20
814.195864
11
193.882000
21
814.468000
0
LINE
8
VISIBLE
10
193.882000
20
814.468000
11
189.682778
21
814.195864
0
LINE
8
VISIBLE
10
189.682778
20
814.195864
11
185.538244
21
813.379456
0
LINE
8
VISIBLE
10
185.538244
20
813.379456
11
181.503089
21
812.018777
0
LINE
8
VISIBLE
10
181.503089
20
812.018777
11
177.632000
21
810.113826
0
LINE
8
VISIBLE
10
177.632000
20
810.113826
11
174.046719
21
807.713840
0
LINE
8
VISIBLE
10
174.046719
20
807.713840
11
170.850759
21
804.899633
0
LINE
8
VISIBLE
10
170.850759
20
804.899633
11
168.071462
21
801.718565
0
LINE
8
VISIBLE
10
168.071462
20
801.718565
11
165.736174
21
798.218000
0
LINE
8
VISIBLE
10
165.736174
20
798.218000
11
163.872240
21
794.445299
0
LINE
8
VISIBLE
10
163.872240
20
794.445299
11
162.507003
21
790.447824
0
LINE
8
VISIBLE
10
162.507003
20
790.447824
11
161.667808
21
786.272937
0
LINE
8
VISIBLE
10
161.667808
20
786.272937
11
161.382000
21
781.968000
0
LINE
8
VISIBLE
10
161.382000
20
781.968000
11
161.667808
21
777.663063
0
LINE
8
VISIBLE
10
161.667808
20
777.663063
11
162.507003
21
773.488176
0
LINE
8
VISIBLE
10
162.507003
20
773.488176
11
163.872240
21
769.490701
0
LINE
8
VISIBLE
10
163.872240
20
769.490701
11
165.736174
21
765.718000
0
LINE
8
VISIBLE
10
165.736174
20
765.718000
11
168.071462
21
762.217435
0
LINE
8
VISIBLE
10
168.071462
20
762.217435
11
170.850759
21
759.036367
0
LINE
8
VISIBLE
10
170.850759
20
759.036367
11
174.046719
21
756.222160
0
LINE
8
VISIBLE
10
174.046719
20
756.222160
11
177.632000
21
753.822174
0
LINE
8
VISIBLE
10
177.632000
20
753.822174
11
181.503089
21
751.917223
0
LINE
8
VISIBLE
10
181.503089
20
751.917223
11
185.538244
21
750.556544
0
LINE
8
VISIBLE
10
185.538244
20
750.556544
11
189.682778
21
749.740136
0
LINE
8
VISIBLE
10
189.682778
20
749.740136
11
193.882000
21
749.468000
0
LINE
8
VISIBLE
10
193.882000
20
749.468000
11
198.081222
21
749.740136
0
LINE
8
VISIBLE
10
198.081222
20
749.740136
11
202.225756
21
750.556544
0
LINE
8
VISIBLE
10
202.225756
20
750.556544
11
206.260911
21
751.917223
0
LINE
8
VISIBLE
10
206.260911
20
751.917223
11
210.132000
21
753.822174
0
LINE
8
VISIBLE
10
210.132000
20
753.822174
11
213.717281
21
756.222160
0
LINE
8
VISIBLE
10
213.717281
20
756.222160
11
216.913241
21
759.036367
0
LINE
8
VISIBLE
10
216.913241
20
759.036367
11
219.692538
21
762.217435
0
LINE
8
VISIBLE
10
219.692538
20
762.217435
11
222.027826
21
765.718000
0
LINE
8
VISIBLE
10
222.027826
20
765.718000
11
223.891760
21
769.490701
0
LINE
8
VISIBLE
10
223.891760
20
769.490701
11
225.256997
21
773.488176
0
LINE
8
VISIBLE
10
225.256997
20
773.488176
11
226.096192
21
777.663063
0
LINE
8
VISIBLE
10
226.096192
20
777.663063
11
226.382000
21
781.968000
0
LINE
8
VISIBLE
10
226.382000
20
781.968000
11
226.382000
21
781.968000
0
LINE
8
VISIBLE
10
197.132000
20
781.968000
11
197.019500
21
782.815982
0
LINE
8
VISIBLE
10
197.019500
20
782.815982
11
196.696583
21
783.593000
0
LINE
8
VISIBLE
10
196.696583
20
783.593000
11
196.185124
21
784.261163
0
LINE
8
VISIBLE
10
196.185124
20
784.261163
11
195.507000
21
784.782583
0
LINE
8
VISIBLE
10
195.507000
20
784.782583
11
194.716376
21
785.109146
0
LINE
8
VISIBLE
10
194.716376
20
785.109146
11
193.882000
21
785.218000
0
LINE
8
VISIBLE
10
193.882000
20
785.218000
11
193.047624
21
785.109146
0
LINE
8
VISIBLE
10
193.047624
20
785.109146
11
192.257000
21
784.782583
0
LINE
8
VISIBLE
10
192.257000
20
784.782583
11
191.578876
21
784.261163
0
LINE
8
VISIBLE
10
191.578876
20
784.261163
11
191.067417
21
783.593000
0
LINE
8
VISIBLE
10
191.067417
20
783.593000
11
190.744500
21
782.815982
0
LINE
8
VISIBLE
10
190.744500
20
782.815982
11
190.632000
21
781.968000
0
LINE
8
VISIBLE
10
190.632000
20
781.968000
11
190.744500
21
781.120018
0
LINE
8
VISIBLE
10
190.744500
20
781.120018
11
191.067417
21
780.343000
0
LINE
8
VISIBLE
10
191.067417
20
780.343000
11
191.578876
21
779.674837
0
LINE
8
VISIBLE
10
191.578876
20
779.674837
11
192.257000
21
779.153417
0
LINE
8
VISIBLE
10
192.257000
20
779.153417
11
193.047624
21
778.826854
0
LINE
8
VISIBLE
10
193.047624
20
778.826854
11
193.882000
21
778.718000
0
LINE
8
VISIBLE
10
193.882000
20
778.718000
11
194.716376
21
778.826854
0
LINE
8
VISIBLE
10
194.716376
20
778.826854
11
195.507000
21
779.153417
0
LINE
8
VISIBLE
10
195.507000
20
779.153417
11
196.185124
21
779.674837
0
LINE
8
VISIBLE
10
196.185124
20
779.674837
11
196.696583
21
780.343000
0
LINE
8
VISIBLE
10
196.696583
20
780.343000
11
197.019500
21
781.120018
0
LINE
8
VISIBLE
10
197.019500
20
781.120018
11
197.132000
21
781.968000
0
LINE
8
VISIBLE
10
197.132000
20
781.968000
11
197.132000
21
781.968000
0
LINE
8
VISIBLE
10
161.382000
20
597.468000
11
171.200000
21
597.468000
0
LINE
8
VISIBLE
10
181.018000
20
597.468000
11
190.837000
21
597.468000
0
LINE
8
VISIBLE
10
200.655000
20
592.968000
11
200.655000
21
597.468000
0
LINE
8
VISIBLE
10
200.655000
20
597.468000
11
210.473000
21
597.468000
0
LINE
8
VISIBLE
10
210.473000
20
592.968000
11
210.473000
21
597.468000
0
LINE
8
VISIBLE
10
210.473000
20
592.968000
11
220.291000
21
592.968000
0
LINE
8
VISIBLE
10
220.291000
20
592.968000
11
220.291000
21
597.468000
0
LINE
8
VISIBLE
10
220.291000
20
597.468000
11
230.109000
21
597.468000
0
LINE
8
VISIBLE
10
230.109000
20
592.968000
11
230.109000
21
597.468000
0
LINE
8
VISIBLE
10
239.927000
20
597.468000
11
249.745000
21
597.468000
0
LINE
8
VISIBLE
10
249.745000
20
592.968000
11
249.745000
21
597.468000
0
LINE
8
VISIBLE
10
259.564000
20
592.968000
11
259.564000
21
597.468000
0
LINE
8
VISIBLE
10
259.564000
20
597.468000
11
270.541000
21
597.468000
0
LINE
8
VISIBLE
10
270.543000
20
597.468000
11
271.235428
21
596.031190
0
LINE
8
VISIBLE
10
271.235428
20
596.031190
11
272.068894
21
594.687034
0
LINE
8
VISIBLE
10
272.068894
20
594.687034
11
273.033801
21
593.444534
0
LINE
8
VISIBLE
10
273.033801
20
593.444534
11
274.120551
21
592.312694
0
LINE
8
VISIBLE
10
274.120551
20
592.312694
11
275.319544
21
591.300517
0
LINE
8
VISIBLE
10
275.319544
20
591.300517
11
276.621182
21
590.417007
0
LINE
8
VISIBLE
10
276.621182
20
590.417007
11
278.015867
21
589.671167
0
LINE
8
VISIBLE
10
278.015867
20
589.671167
11
279.494000
21
589.072000
0
LINE
8
VISIBLE
10
277.132000
20
574.968000
11
278.431988
21
575.084982
0
LINE
8
VISIBLE
10
278.431988
20
575.084982
11
279.660857
21
575.422781
0
LINE
8
VISIBLE
10
279.660857
20
575.422781
11
280.796118
21
575.962358
0
LINE
8
VISIBLE
10
280.796118
20
575.962358
11
281.815283
21
576.684672
0
LINE
8
VISIBLE
10
281.815283
20
576.684672
11
282.695860
21
577.570684
0
LINE
8
VISIBLE
10
282.695860
20
577.570684
11
283.415360
21
578.601354
0
LINE
8
VISIBLE
10
283.415360
20
578.601354
11
283.951294
21
579.757642
0
LINE
8
VISIBLE
10
283.951294
20
579.757642
11
284.281173
21
581.020509
0
LINE
8
VISIBLE
10
284.281173
20
581.020509
11
284.380739
21
582.321946
0
LINE
8
VISIBLE
10
284.380739
20
582.321946
11
284.250768
21
583.589754
0
LINE
8
VISIBLE
10
284.250768
20
583.589754
11
283.906321
21
584.798603
0
LINE
8
VISIBLE
10
283.906321
20
584.798603
11
283.362455
21
585.923167
0
LINE
8
VISIBLE
10
283.362455
20
585.923167
11
282.634231
21
586.938116
0
LINE
8
VISIBLE
10
282.634231
20
586.938116
11
281.736708
21
587.818124
0
LINE
8
VISIBLE
10
281.736708
20
587.818124
11
280.684944
21
588.537861
0
LINE
8
VISIBLE
10
280.684944
20
588.537861
11
279.494000
21
589.072000
0
LINE
8
VISIBLE
10
176.382000
20
574.968000
11
277.132000
21
574.968000
0
LINE
8
VISIBLE
10
161.382000
20
589.968000
11
161.672884
21
587.027980
0
LINE
8
VISIBLE
10
161.672884
20
587.027980
11
162.523807
21
584.227749
0
LINE
8
VISIBLE
10
162.523807
20
584.227749
11
163.902176
21
581.645992
0
LINE
8
VISIBLE
10
163.902176
20
581.645992
11
165.775398
21
579.361398
0
LINE
8
VISIBLE
10
165.775398
20
579.361398
11
168.059992
21
577.488176
0
LINE
8
VISIBLE
10
168.059992
20
577.488176
11
170.641749
21
576.109807
0
LINE
8
VISIBLE
10
170.641749
20
576.109807
11
173.441980
21
575.258884
0
LINE
8
VISIBLE
10
173.441980
20
575.258884
11
176.382000
21
574.968000
0
LINE
8
VISIBLE
10
161.382000
20
597.468000
11
161.382000
21
589.967000
0
LINE
8
VISIBLE
10
259.564000
20
587.967000
11
249.745000
21
587.967000
0
LINE
8
VISIBLE
10
249.745000
20
587.967000
11
249.745000
21
583.469000
0
LINE
8
VISIBLE
10
259.564000
20
583.469000
11
249.745000
21
583.469000
0
LINE
8
VISIBLE
10
259.564000
20
587.967000
11
259.564000
21
583.469000
0
LINE
8
VISIBLE
10
239.927000
20
587.967000
11
230.109000
21
587.967000
0
LINE
8
VISIBLE
10
230.109000
20
587.967000
11
230.109000
21
583.469000
0
LINE
8
VISIBLE
10
239.927000
20
587.967000
11
239.927000
21
583.469000
0
LINE
8
VISIBLE
10
220.291000
20
587.967000
11
210.473000
21
587.967000
0
LINE
8
VISIBLE
10
210.473000
20
587.967000
11
210.473000
21
583.469000
0
LINE
8
VISIBLE
10
220.291000
20
583.469000
11
210.473000
21
583.469000
0
LINE
8
VISIBLE
10
220.291000
20
587.967000
11
220.291000
21
583.469000
0
LINE
8
VISIBLE
10
200.655000
20
587.967000
11
190.837000
21
587.967000
0
LINE
8
VISIBLE
10
190.837000
20
587.967000
11
190.837000
21
583.469000
0
LINE
8
VISIBLE
10
181.018000
20
587.967000
11
171.200000
21
587.967000
0
LINE
8
VISIBLE
10
171.200000
20
587.967000
11
171.200000
21
583.469000
0
LINE
8
VISIBLE
10
181.018000
20
583.469000
11
171.200000
21
583.469000
0
LINE
8
VISIBLE
10
187.427000
20
590.468000
11
187.226038
21
591.218000
0
LINE
8
VISIBLE
10
187.226038
20
591.218000
11
186.677000
21
591.767038
0
LINE
8
VISIBLE
10
186.677000
20
591.767038
11
185.927000
21
591.968000
0
LINE
8
VISIBLE
10
185.927000
20
591.968000
11
185.177000
21
591.767038
0
LINE
8
VISIBLE
10
185.177000
20
591.767038
11
184.627962
21
591.218000
0
LINE
8
VISIBLE
10
184.627962
20
591.218000
11
184.427000
21
590.468000
0
LINE
8
VISIBLE
10
184.427000
20
590.468000
11
184.627962
21
589.718000
0
LINE
8
VISIBLE
10
184.627962
20
589.718000
11
185.177000
21
589.168962
0
LINE
8
VISIBLE
10
185.177000
20
589.168962
11
185.927000
21
588.968000
0
LINE
8
VISIBLE
10
185.927000
20
588.968000
11
186.677000
21
589.168962
0
LINE
8
VISIBLE
10
186.677000
20
589.168962
11
187.226038
21
589.718000
0
LINE
8
VISIBLE
10
187.226038
20
589.718000
11
187.427000
21
590.468000
0
LINE
8
VISIBLE
10
187.427000
20
590.468000
11
187.427000
21
590.468000
0
LINE
8
VISIBLE
10
218.132000
20
578.968000
11
218.036807
21
579.685524
0
LINE
8
VISIBLE
10
218.036807
20
579.685524
11
217.763570
21
580.343000
0
LINE
8
VISIBLE
10
217.763570
20
580.343000
11
217.330797
21
580.908369
0
LINE
8
VISIBLE
10
217.330797
20
580.908369
11
216.757000
21
581.349570
0
LINE
8
VISIBLE
10
216.757000
20
581.349570
11
216.088010
21
581.625892
0
LINE
8
VISIBLE
10
216.088010
20
581.625892
11
215.382000
21
581.718000
0
LINE
8
VISIBLE
10
215.382000
20
581.718000
11
214.675990
21
581.625892
0
LINE
8
VISIBLE
10
214.675990
20
581.625892
11
214.007000
21
581.349570
0
LINE
8
VISIBLE
10
214.007000
20
581.349570
11
213.433203
21
580.908369
0
LINE
8
VISIBLE
10
213.433203
20
580.908369
11
213.000430
21
580.343000
0
LINE
8
VISIBLE
10
213.000430
20
580.343000
11
212.727193
21
579.685524
0
LINE
8
VISIBLE
10
212.727193
20
579.685524
11
212.632000
21
578.968000
0
LINE
8
VISIBLE
10
212.632000
20
578.968000
11
212.727193
21
578.250476
0
LINE
8
VISIBLE
10
212.727193
20
578.250476
11
213.000430
21
577.593000
0
LINE
8
VISIBLE
10
213.000430
20
577.593000
11
213.433203
21
577.027631
0
LINE
8
VISIBLE
10
213.433203
20
577.027631
11
214.007000
21
576.586430
0
LINE
8
VISIBLE
10
214.007000
20
576.586430
11
214.675990
21
576.310108
0
LINE
8
VISIBLE
10
214.675990
20
576.310108
11
215.382000
21
576.218000
0
LINE
8
VISIBLE
10
215.382000
20
576.218000
11
216.088010
21
576.310108
0
LINE
8
VISIBLE
10
216.088010
20
576.310108
11
216.757000
21
576.586430
0
LINE
8
VISIBLE
10
216.757000
20
576.586430
11
217.330797
21
577.027631
0
LINE
8
VISIBLE
10
217.330797
20
577.027631
11
217.763570
21
577.593000
0
LINE
8
VISIBLE
10
217.763570
20
577.593000
11
218.036807
21
578.250476
0
LINE
8
VISIBLE
10
218.036807
20
578.250476
11
218.132000
21
578.968000
0
LINE
8
VISIBLE
10
218.132000
20
578.968000
11
218.132000
21
578.968000
0
LINE
8
VISIBLE
10
281.432000
20
580.448000
11
281.432000
21
584.488000
0
LINE
8
VISIBLE
10
281.432000
20
584.488000
11
277.931000
21
586.509000
0
LINE
8
VISIBLE
10
277.931000
20
586.509000
11
274.431000
21
584.488000
0
LINE
8
VISIBLE
10
274.431000
20
584.488000
11
274.431000
21
580.448000
0
LINE
8
VISIBLE
10
274.431000
20
580.448000
11
277.931000
21
578.426000
0
LINE
8
VISIBLE
10
277.931000
20
578.426000
11
281.432000
21
580.448000
0
LINE
8
VISIBLE
10
239.927000
20
583.469000
11
230.109000
21
583.469000
0
LINE
8
VISIBLE
10
239.927000
20
592.968000
11
239.927000
21
597.468000
0
LINE
8
VISIBLE
10
249.745000
20
592.968000
11
259.564000
21
592.968000
0
LINE
8
VISIBLE
10
200.655000
20
587.967000
11
200.655000
21
583.469000
0
LINE
8
VISIBLE
10
171.200000
20
592.968000
11
171.200000
21
597.468000
0
LINE
8
VISIBLE
10
181.018000
20
587.967000
11
181.018000
21
583.469000
0
LINE
8
VISIBLE
10
190.837000
20
592.968000
11
200.655000
21
592.968000
0
LINE
8
VISIBLE
10
230.109000
20
592.968000
11
239.927000
21
592.968000
0
LINE
8
VISIBLE
10
190.837000
20
592.968000
11
190.837000
21
597.468000
0
LINE
8
VISIBLE
10
200.655000
20
583.469000
11
190.837000
21
583.469000
0
LINE
8
VISIBLE
10
171.200000
20
592.968000
11
181.018000
21
592.968000
0
LINE
8
VISIBLE
10
181.018000
20
592.968000
11
181.018000
21
597.468000
0
LINE
8
VISIBLE
10
279.882000
20
582.468000
11
279.620750
21
583.443000
0
LINE
8
VISIBLE
10
279.620750
20
583.443000
11
278.907000
21
584.156750
0
LINE
8
VISIBLE
10
278.907000
20
584.156750
11
277.932000
21
584.418000
0
LINE
8
VISIBLE
10
277.932000
20
584.418000
11
276.957000
21
584.156750
0
LINE
8
VISIBLE
10
276.957000
20
584.156750
11
276.243250
21
583.443000
0
LINE
8
VISIBLE
10
276.243250
20
583.443000
11
275.982000
21
582.468000
0
LINE
8
VISIBLE
10
275.982000
20
582.468000
11
276.243250
21
581.493000
0
LINE
8
VISIBLE
10
276.243250
20
581.493000
11
276.957000
21
580.779250
0
LINE
8
VISIBLE
10
276.957000
20
580.779250
11
277.932000
21
580.518000
0
LINE
8
VISIBLE
10
277.932000
20
580.518000
11
278.907000
21
580.779250
0
LINE
8
VISIBLE
10
278.907000
20
580.779250
11
279.620750
21
581.493000
0
LINE
8
VISIBLE
10
279.620750
20
581.493000
11
279.882000
21
582.468000
0
LINE
8
VISIBLE
10
279.882000
20
582.468000
11
279.882000
21
582.468000
0
LINE
8
VISIBLE
10
216.882000
20
578.968000
11
216.681038
21
579.718000
0
LINE
8
VISIBLE
10
216.681038
20
579.718000
11
216.132000
21
580.267038
0
LINE
8
VISIBLE
10
216.132000
20
580.267038
11
215.382000
21
580.468000
0
LINE
8
VISIBLE
10
215.382000
20
580.468000
11
214.632000
21
580.267038
0
LINE
8
VISIBLE
10
214.632000
20
580.267038
11
214.082962
21
579.718000
0
LINE
8
VISIBLE
10
214.082962
20
579.718000
11
213.882000
21
578.968000
0
LINE
8
VISIBLE
10
213.882000
20
578.968000
11
214.082962
21
578.218000
0
LINE
8
VISIBLE
10
214.082962
20
578.218000
11
214.632000
21
577.668962
0
LINE
8
VISIBLE
10
214.632000
20
577.668962
11
215.382000
21
577.468000
0
LINE
8
VISIBLE
10
215.382000
20
577.468000
11
216.132000
21
577.668962
0
LINE
8
VISIBLE
10
216.132000
20
577.668962
11
216.681038
21
578.218000
0
LINE
8
VISIBLE
10
216.681038
20
578.218000
11
216.882000
21
578.968000
0
LINE
8
VISIBLE
10
216.882000
20
578.968000
11
216.882000
21
578.968000
0
LINE
8
VISIBLE
10
274.876000
20
430.418000
11
274.722759
21
431.177028
0
LINE
8
VISIBLE
10
274.722759
20
431.177028
11
274.304858
21
431.796858
0
LINE
8
VISIBLE
10
274.304858
20
431.796858
11
273.685028
21
432.214759
0
LINE
8
VISIBLE
10
273.685028
20
432.214759
11
272.926000
21
432.368000
0
LINE
8
VISIBLE
10
272.926000
20
432.368000
11
272.166972
21
432.214759
0
LINE
8
VISIBLE
10
272.166972
20
432.214759
11
271.547142
21
431.796858
0
LINE
8
VISIBLE
10
271.547142
20
431.796858
11
271.129241
21
431.177028
0
LINE
8
VISIBLE
10
271.129241
20
431.177028
11
270.976000
21
430.418000
0
LINE
8
VISIBLE
10
270.976000
20
430.418000
11
271.129241
21
429.658972
0
LINE
8
VISIBLE
10
271.129241
20
429.658972
11
271.547142
21
429.039142
0
LINE
8
VISIBLE
10
271.547142
20
429.039142
11
272.166972
21
428.621241
0
LINE
8
VISIBLE
10
272.166972
20
428.621241
11
272.926000
21
428.468000
0
LINE
8
VISIBLE
10
272.926000
20
428.468000
11
273.685028
21
428.621241
0
LINE
8
VISIBLE
10
273.685028
20
428.621241
11
274.304858
21
429.039142
0
LINE
8
VISIBLE
10
274.304858
20
429.039142
11
274.722759
21
429.658972
0
LINE
8
VISIBLE
10
274.722759
20
429.658972
11
274.876000
21
430.418000
0
LINE
8
VISIBLE
10
274.876000
20
430.418000
11
274.876000
21
430.418000
0
LINE
8
VISIBLE
10
270.592000
20
423.968000
11
270.592000
21
419.468000
0
LINE
8
VISIBLE
10
265.927000
20
419.468000
11
270.592000
21
419.468000
0
LINE
8
VISIBLE
10
265.927000
20
431.968000
11
265.927000
21
419.468000
0
LINE
8
VISIBLE
10
271.926000
20
437.968000
11
270.749991
21
437.851648
0
LINE
8
VISIBLE
10
270.749991
20
437.851648
11
269.629898
21
437.511280
0
LINE
8
VISIBLE
10
269.629898
20
437.511280
11
268.597195
21
436.959933
0
LINE
8
VISIBLE
10
268.597195
20
436.959933
11
267.683356
21
436.210644
0
LINE
8
VISIBLE
10
267.683356
20
436.210644
11
266.934067
21
435.296805
0
LINE
8
VISIBLE
10
266.934067
20
435.296805
11
266.382720
21
434.264102
0
LINE
8
VISIBLE
10
266.382720
20
434.264102
11
266.042352
21
433.144009
0
LINE
8
VISIBLE
10
266.042352
20
433.144009
11
265.926000
21
431.968000
0
LINE
8
VISIBLE
10
271.925000
20
437.968000
11
273.925000
21
437.968000
0
LINE
8
VISIBLE
10
279.926000
20
431.968000
11
279.809648
21
433.144009
0
LINE
8
VISIBLE
10
279.809648
20
433.144009
11
279.469280
21
434.264102
0
LINE
8
VISIBLE
10
279.469280
20
434.264102
11
278.917933
21
435.296805
0
LINE
8
VISIBLE
10
278.917933
20
435.296805
11
278.168644
21
436.210644
0
LINE
8
VISIBLE
10
278.168644
20
436.210644
11
277.254805
21
436.959933
0
LINE
8
VISIBLE
10
277.254805
20
436.959933
11
276.222102
21
437.511280
0
LINE
8
VISIBLE
10
276.222102
20
437.511280
11
275.102009
21
437.851648
0
LINE
8
VISIBLE
10
275.102009
20
437.851648
11
273.926000
21
437.968000
0
LINE
8
VISIBLE
10
279.926000
20
431.968000
11
279.926000
21
419.468000
0
LINE
8
VISIBLE
10
275.259000
20
419.468000
11
279.926000
21
419.468000
0
LINE
8
VISIBLE
10
275.259000
20
423.968000
11
275.259000
21
419.468000
0
LINE
8
VISIBLE
10
270.592000
20
423.968000
11
275.259000
21
423.968000
0
LINE
8
VISIBLE
10
238.382000
20
365.383000
11
233.382000
21
365.383000
0
LINE
8
VISIBLE
10
238.382000
20
367.633000
11
238.382000
21
365.383000
0
LINE
8
VISIBLE
10
240.632000
20
367.633000
11
238.382000
21
367.633000
0
LINE
8
VISIBLE
10
247.926000
20
370.396000
11
247.926000
21
369.870000
0
LINE
8
VISIBLE
10
245.676000
20
365.973000
11
246.614921
21
366.694944
0
LINE
8
VISIBLE
10
246.614921
20
366.694944
11
247.323087
21
367.620064
0
LINE
8
VISIBLE
10
247.323087
20
367.620064
11
247.770209
21
368.695902
0
LINE
8
VISIBLE
10
247.770209
20
368.695902
11
247.926000
21
369.870000
0
LINE
8
VISIBLE
10
229.632000
20
359.834000
11
230.088000
21
359.571000
0
LINE
8
VISIBLE
10
227.382000
20
363.732000
11
227.382000
21
376.535000
0
LINE
8
VISIBLE
10
234.588000
20
380.696000
11
233.493289
21
381.148165
0
LINE
8
VISIBLE
10
233.493289
20
381.148165
11
232.338000
21
381.298887
0
LINE
8
VISIBLE
10
232.338000
20
381.298887
11
231.182711
21
381.148165
0
LINE
8
VISIBLE
10
231.182711
20
381.148165
11
230.088000
21
380.696000
0
LINE
8
VISIBLE
10
234.588000
20
380.696000
11
245.676000
21
374.294000
0
LINE
8
VISIBLE
10
233.382000
20
365.383000
11
233.382000
21
367.633000
0
LINE
8
VISIBLE
10
230.088000
20
380.696000
11
229.632000
21
380.432000
0
LINE
8
VISIBLE
10
234.588000
20
359.571000
11
245.676000
21
365.973000
0
LINE
8
VISIBLE
10
240.632000
20
372.633000
11
240.632000
21
367.633000
0
LINE
8
VISIBLE
10
233.382000
20
374.883000
11
238.382000
21
374.883000
0
LINE
8
VISIBLE
10
231.132000
20
372.633000
11
233.382000
21
372.633000
0
LINE
8
VISIBLE
10
231.132000
20
367.633000
11
231.132000
21
372.633000
0
LINE
8
VISIBLE
10
233.382000
20
372.633000
11
233.382000
21
374.883000
0
LINE
8
VISIBLE
10
247.926000
20
370.396000
11
247.770404
21
371.570380
0
LINE
8
VISIBLE
10
247.770404
20
371.570380
11
247.323337
21
372.646503
0
LINE
8
VISIBLE
10
247.323337
20
372.646503
11
246.615102
21
373.571875
0
LINE
8
VISIBLE
10
246.615102
20
373.571875
11
245.676000
21
374.294000
0
LINE
8
VISIBLE
10
227.382000
20
363.731000
11
227.537791
21
362.556902
0
LINE
8
VISIBLE
10
227.537791
20
362.556902
11
227.984913
21
361.481064
0
LINE
8
VISIBLE
10
227.984913
20
361.481064
11
228.693079
21
360.555944
0
LINE
8
VISIBLE
10
228.693079
20
360.555944
11
229.632000
21
359.834000
0
LINE
8
VISIBLE
10
238.382000
20
374.883000
11
238.382000
21
372.633000
0
LINE
8
VISIBLE
10
233.382000
20
367.633000
11
231.132000
21
367.633000
0
LINE
8
VISIBLE
10
238.382000
20
372.633000
11
240.632000
21
372.633000
0
LINE
8
VISIBLE
10
230.088000
20
359.571000
11
231.182711
21
359.118835
0
LINE
8
VISIBLE
10
231.182711
20
359.118835
11
232.338000
21
358.968113
0
LINE
8
VISIBLE
10
232.338000
20
358.968113
11
233.493289
21
359.118835
0
LINE
8
VISIBLE
10
233.493289
20
359.118835
11
234.588000
21
359.571000
0
LINE
8
VISIBLE
10
229.632000
20
380.432000
11
228.693079
21
379.710056
0
LINE
8
VISIBLE
10
228.693079
20
379.710056
11
227.984913
21
378.784936
0
LINE
8
VISIBLE
10
227.984913
20
378.784936
11
227.537791
21
377.709098
0
LINE
8
VISIBLE
10
227.537791
20
377.709098
11
227.382000
21
376.535000
0
LINE
8
VISIBLE
10
180.718000
20
656.068000
11
180.718000
21
653.819000
0
LINE
8
VISIBLE
10
180.718000
20
653.819000
11
189.855000
21
653.819000
0
LINE
8
VISIBLE
10
189.855000
20
656.068000
11
189.855000
21
653.819000
0
LINE
8
VISIBLE
10
198.991000
20
656.068000
11
198.991000
21
653.819000
0
LINE
8
VISIBLE
10
198.991000
20
653.819000
11
208.127000
21
653.819000
0
LINE
8
VISIBLE
10
208.127000
20
656.068000
11
208.127000
21
653.819000
0
LINE
8
VISIBLE
10
217.264000
20
656.068000
11
217.264000
21
653.819000
0
LINE
8
VISIBLE
10
217.264000
20
653.819000
11
226.400000
21
653.819000
0
LINE
8
VISIBLE
10
226.400000
20
656.068000
11
226.400000
21
653.819000
0
LINE
8
VISIBLE
10
235.536000
20
656.068000
11
235.536000
21
653.819000
0
LINE
8
VISIBLE
10
235.536000
20
653.819000
11
244.673000
21
653.819000
0
LINE
8
VISIBLE
10
244.673000
20
656.068000
11
244.673000
21
653.819000
0
LINE
8
VISIBLE
10
253.809000
20
656.068000
11
253.809000
21
653.819000
0
LINE
8
VISIBLE
10
253.809000
20
653.819000
11
262.945000
21
653.819000
0
LINE
8
VISIBLE
10
274.947000
20
651.568000
11
274.947000
21
656.068000
0
LINE
8
VISIBLE
10
150.446000
20
651.568000
11
150.446000
21
656.068000
0
LINE
8
VISIBLE
10
150.446000
20
656.068000
11
162.445000
21
656.068000
0
LINE
8
VISIBLE
10
162.445000
20
656.068000
11
162.445000
21
653.819000
0
LINE
8
VISIBLE
10
162.445000
20
653.819000
11
171.582000
21
653.819000
0
LINE
8
VISIBLE
10
171.582000
20
656.068000
11
171.582000
21
653.819000
0
LINE
8
VISIBLE
10
150.446000
20
651.568000
11
274.947000
21
651.568000
0
LINE
8
VISIBLE
10
262.945000
20
656.068000
11
262.945000
21
653.819000
0
LINE
8
VISIBLE
10
226.400000
20
656.068000
11
235.536000
21
656.068000
0
LINE
8
VISIBLE
10
208.127000
20
656.068000
11
217.264000
21
656.068000
0
LINE
8
VISIBLE
10
189.855000
20
656.068000
11
198.991000
21
656.068000
0
LINE
8
VISIBLE
10
262.945000
20
656.068000
11
274.947000
21
656.068000
0
LINE
8
VISIBLE
10
244.673000
20
656.068000
11
253.809000
21
656.068000
0
LINE
8
VISIBLE
10
171.582000
20
656.068000
11
180.718000
21
656.068000
0
LINE
8
VISIBLE
10
171.582000
20
660.484000
11
162.445000
21
660.484000
0
LINE
8
VISIBLE
10
171.582000
20
662.733000
11
171.582000
21
660.484000
0
LINE
8
VISIBLE
10
180.718000
20
662.733000
11
180.718000
21
660.484000
0
LINE
8
VISIBLE
10
189.855000
20
660.484000
11
180.718000
21
660.484000
0
LINE
8
VISIBLE
10
189.855000
20
662.733000
11
189.855000
21
660.484000
0
LINE
8
VISIBLE
10
198.991000
20
662.733000
11
198.991000
21
660.484000
0
LINE
8
VISIBLE
10
208.127000
20
660.484000
11
198.991000
21
660.484000
0
LINE
8
VISIBLE
10
208.127000
20
662.733000
11
208.127000
21
660.484000
0
LINE
8
VISIBLE
10
217.264000
20
662.733000
11
217.264000
21
660.484000
0
LINE
8
VISIBLE
10
226.400000
20
660.484000
11
217.264000
21
660.484000
0
LINE
8
VISIBLE
10
226.400000
20
662.733000
11
226.400000
21
660.484000
0
LINE
8
VISIBLE
10
235.536000
20
662.733000
11
235.536000
21
660.484000
0
LINE
8
VISIBLE
10
244.673000
20
660.484000
11
235.536000
21
660.484000
0
LINE
8
VISIBLE
10
244.673000
20
662.733000
11
244.673000
21
660.484000
0
LINE
8
VISIBLE
10
253.809000
20
662.733000
11
253.809000
21
660.484000
0
LINE
8
VISIBLE
10
262.945000
20
660.484000
11
253.809000
21
660.484000
0
LINE
8
VISIBLE
10
262.945000
20
662.733000
11
262.945000
21
660.484000
0
LINE
8
VISIBLE
10
274.947000
20
662.733000
11
274.947000
21
658.235000
0
LINE
8
VISIBLE
10
150.446000
20
658.235000
11
274.947000
21
658.235000
0
LINE
8
VISIBLE
10
150.446000
20
662.733000
11
150.446000
21
658.235000
0
LINE
8
VISIBLE
10
150.446000
20
662.733000
11
162.445000
21
662.733000
0
LINE
8
VISIBLE
10
162.445000
20
662.733000
11
162.445000
21
660.484000
0
LINE
8
VISIBLE
10
226.400000
20
662.733000
11
235.536000
21
662.733000
0
LINE
8
VISIBLE
10
208.127000
20
662.733000
11
217.264000
21
662.733000
0
LINE
8
VISIBLE
10
189.855000
20
662.733000
11
198.991000
21
662.733000
0
LINE
8
VISIBLE
10
262.945000
20
662.733000
11
274.947000
21
662.733000
0
LINE
8
VISIBLE
10
244.673000
20
662.733000
11
253.809000
21
662.733000
0
LINE
8
VISIBLE
10
171.582000
20
662.733000
11
180.718000
21
662.733000
 0 
ENDSEC
 0 
EOF