999
"DXF R12 Output" (www.mydxf.blogspot.com)
 0 
SECTION
 2 
HEADER
 9 
$ACADVER
 1 
AC1009
 9 
$EXTMIN
 10 
 0 
 20 
 0 
 9 
$EXTMAX
 10 
 8.5 
 20 
 11 
 0 
ENDSEC
 0 
SECTION
 2 
ENTITIES
0
LINE
8
Layer 1
10
0.793749
20
297.794000
11
-0.793749
21
296.206000
0
LINE
8
Layer 1
10
0.000000
20
298.323000
11
0.000000
21
295.677000
0
LINE
8
Layer 1
10
2.116660
20
295.942000
11
1.058330
21
294.883670
0
LINE
8
Layer 1
10
1.587500
20
296.471000
11
0.529170
21
295.412670
0
LINE
8
Layer 1
10
1.058330
20
297.000000
11
0.000000
21
295.941670
0
LINE
8
VISIBLE
10
694.708000
20
366.632000
11
694.422192
21
370.936937
0
LINE
8
VISIBLE
10
694.422192
20
370.936937
11
693.582997
21
375.111824
0
LINE
8
VISIBLE
10
693.582997
20
375.111824
11
692.217760
21
379.109299
0
LINE
8
VISIBLE
10
692.217760
20
379.109299
11
690.353826
21
382.882000
0
LINE
8
VISIBLE
10
690.353826
20
382.882000
11
688.018538
21
386.382565
0
LINE
8
VISIBLE
10
688.018538
20
386.382565
11
685.239241
21
389.563633
0
LINE
8
VISIBLE
10
685.239241
20
389.563633
11
682.043281
21
392.377840
0
LINE
8
VISIBLE
10
682.043281
20
392.377840
11
678.458000
21
394.777826
0
LINE
8
VISIBLE
10
678.458000
20
394.777826
11
674.586911
21
396.682777
0
LINE
8
VISIBLE
10
674.586911
20
396.682777
11
670.551756
21
398.043456
0
LINE
8
VISIBLE
10
670.551756
20
398.043456
11
666.407222
21
398.859864
0
LINE
8
VISIBLE
10
666.407222
20
398.859864
11
662.208000
21
399.132000
0
LINE
8
VISIBLE
10
662.208000
20
399.132000
11
658.008778
21
398.859864
0
LINE
8
VISIBLE
10
658.008778
20
398.859864
11
653.864244
21
398.043456
0
LINE
8
VISIBLE
10
653.864244
20
398.043456
11
649.829089
21
396.682777
0
LINE
8
VISIBLE
10
649.829089
20
396.682777
11
645.958000
21
394.777826
0
LINE
8
VISIBLE
10
645.958000
20
394.777826
11
642.372719
21
392.377840
0
LINE
8
VISIBLE
10
642.372719
20
392.377840
11
639.176759
21
389.563633
0
LINE
8
VISIBLE
10
639.176759
20
389.563633
11
636.397462
21
386.382565
0
LINE
8
VISIBLE
10
636.397462
20
386.382565
11
634.062174
21
382.882000
0
LINE
8
VISIBLE
10
634.062174
20
382.882000
11
632.198240
21
379.109299
0
LINE
8
VISIBLE
10
632.198240
20
379.109299
11
630.833003
21
375.111824
0
LINE
8
VISIBLE
10
630.833003
20
375.111824
11
629.993808
21
370.936937
0
LINE
8
VISIBLE
10
629.993808
20
370.936937
11
629.708000
21
366.632000
0
LINE
8
VISIBLE
10
629.708000
20
366.632000
11
629.875794
21
363.309064
0
LINE
8
VISIBLE
10
629.875794
20
363.309064
11
630.368285
21
360.082117
0
LINE
8
VISIBLE
10
630.368285
20
360.082117
11
631.169136
21
356.967495
0
LINE
8
VISIBLE
10
631.169136
20
356.967495
11
632.262012
21
353.981534
0
LINE
8
VISIBLE
10
632.262012
20
353.981534
11
633.630575
21
351.140571
0
LINE
8
VISIBLE
10
633.630575
20
351.140571
11
635.258490
21
348.460942
0
LINE
8
VISIBLE
10
635.258490
20
348.460942
11
637.129421
21
345.958983
0
LINE
8
VISIBLE
10
637.129421
20
345.958983
11
639.227030
21
343.651031
0
LINE
8
VISIBLE
10
639.227030
20
343.651031
11
641.534983
21
341.553421
0
LINE
8
VISIBLE
10
641.534983
20
341.553421
11
644.036942
21
339.682491
0
LINE
8
VISIBLE
10
644.036942
20
339.682491
11
646.716571
21
338.054576
0
LINE
8
VISIBLE
10
646.716571
20
338.054576
11
649.557534
21
336.686013
0
LINE
8
VISIBLE
10
649.557534
20
336.686013
11
652.543495
21
335.593137
0
LINE
8
VISIBLE
10
652.543495
20
335.593137
11
655.658117
21
334.792286
0
LINE
8
VISIBLE
10
655.658117
20
334.792286
11
658.885064
21
334.299796
0
LINE
8
VISIBLE
10
658.885064
20
334.299796
11
662.208000
21
334.132002
0
LINE
8
VISIBLE
10
662.208000
20
334.132002
11
665.530936
21
334.299796
0
LINE
8
VISIBLE
10
665.530936
20
334.299796
11
668.757883
21
334.792286
0
LINE
8
VISIBLE
10
668.757883
20
334.792286
11
671.872505
21
335.593137
0
LINE
8
VISIBLE
10
671.872505
20
335.593137
11
674.858466
21
336.686013
0
LINE
8
VISIBLE
10
674.858466
20
336.686013
11
677.699429
21
338.054576
0
LINE
8
VISIBLE
10
677.699429
20
338.054576
11
680.379058
21
339.682491
0
LINE
8
VISIBLE
10
680.379058
20
339.682491
11
682.881017
21
341.553421
0
LINE
8
VISIBLE
10
682.881017
20
341.553421
11
685.188970
21
343.651031
0
LINE
8
VISIBLE
10
685.188970
20
343.651031
11
687.286579
21
345.958983
0
LINE
8
VISIBLE
10
687.286579
20
345.958983
11
689.157510
21
348.460942
0
LINE
8
VISIBLE
10
689.157510
20
348.460942
11
690.785425
21
351.140571
0
LINE
8
VISIBLE
10
690.785425
20
351.140571
11
692.153988
21
353.981534
0
LINE
8
VISIBLE
10
692.153988
20
353.981534
11
693.246864
21
356.967495
0
LINE
8
VISIBLE
10
693.246864
20
356.967495
11
694.047715
21
360.082117
0
LINE
8
VISIBLE
10
694.047715
20
360.082117
11
694.540206
21
363.309064
0
LINE
8
VISIBLE
10
694.540206
20
363.309064
11
694.708000
21
366.632000
0
LINE
8
VISIBLE
10
694.708000
20
366.632000
11
694.708000
21
366.632000
0
LINE
8
VISIBLE
10
639.108000
20
361.832000
11
639.108000
21
365.032000
0
LINE
8
VISIBLE
10
639.108000
20
368.232000
11
639.108000
21
371.432000
0
LINE
8
VISIBLE
10
657.608000
20
371.432000
11
657.608000
21
368.232000
0
LINE
8
VISIBLE
10
662.108000
20
371.432000
11
657.608000
21
371.432000
0
LINE
8
VISIBLE
10
671.358000
20
368.232000
11
666.858000
21
368.232000
0
LINE
8
VISIBLE
10
639.108000
20
371.432000
11
643.609000
21
371.432000
0
LINE
8
VISIBLE
10
662.108000
20
365.032000
11
662.108000
21
361.832000
0
LINE
8
VISIBLE
10
662.108000
20
368.232000
11
657.608000
21
368.232000
0
LINE
8
VISIBLE
10
652.859000
20
361.832000
11
648.358000
21
361.832000
0
LINE
8
VISIBLE
10
652.859000
20
371.432000
11
648.358000
21
371.432000
0
LINE
8
VISIBLE
10
662.108000
20
361.832000
11
657.608000
21
361.832000
0
LINE
8
VISIBLE
10
662.108000
20
371.432000
11
662.108000
21
368.232000
0
LINE
8
VISIBLE
10
648.358000
20
365.032000
11
648.358000
21
361.832000
0
LINE
8
VISIBLE
10
648.358000
20
371.432000
11
648.358000
21
368.232000
0
LINE
8
VISIBLE
10
643.609000
20
368.232000
11
643.609000
21
371.432000
0
LINE
8
VISIBLE
10
639.108000
20
365.032000
11
643.609000
21
365.032000
0
LINE
8
VISIBLE
10
639.108000
20
361.832000
11
643.609000
21
361.832000
0
LINE
8
VISIBLE
10
671.358000
20
371.432000
11
671.358000
21
368.232000
0
LINE
8
VISIBLE
10
671.358000
20
371.432000
11
666.858000
21
371.432000
0
LINE
8
VISIBLE
10
657.608000
20
365.032000
11
657.608000
21
361.832000
0
LINE
8
VISIBLE
10
652.859000
20
365.032000
11
652.859000
21
361.832000
0
LINE
8
VISIBLE
10
652.859000
20
368.232000
11
648.358000
21
368.232000
0
LINE
8
VISIBLE
10
643.609000
20
361.832000
11
643.609000
21
365.032000
0
LINE
8
VISIBLE
10
680.608000
20
365.032000
11
680.608000
21
361.832000
0
LINE
8
VISIBLE
10
680.608000
20
365.032000
11
676.107000
21
365.032000
0
LINE
8
VISIBLE
10
676.107000
20
371.432000
11
676.107000
21
368.232000
0
LINE
8
VISIBLE
10
680.608000
20
368.232000
11
676.107000
21
368.232000
0
LINE
8
VISIBLE
10
680.608000
20
371.432000
11
680.608000
21
368.232000
0
LINE
8
VISIBLE
10
671.358000
20
365.032000
11
666.858000
21
365.032000
0
LINE
8
VISIBLE
10
666.858000
20
371.432000
11
666.858000
21
368.232000
0
LINE
8
VISIBLE
10
662.108000
20
365.032000
11
657.608000
21
365.032000
0
LINE
8
VISIBLE
10
652.859000
20
365.032000
11
648.358000
21
365.032000
0
LINE
8
VISIBLE
10
652.859000
20
371.432000
11
652.859000
21
368.232000
0
LINE
8
VISIBLE
10
639.108000
20
368.232000
11
643.609000
21
368.232000
0
LINE
8
VISIBLE
10
676.107000
20
365.032000
11
676.107000
21
361.832000
0
LINE
8
VISIBLE
10
671.358000
20
365.032000
11
671.358000
21
361.832000
0
LINE
8
VISIBLE
10
680.608000
20
361.832000
11
676.107000
21
361.832000
0
LINE
8
VISIBLE
10
666.858000
20
365.032000
11
666.858000
21
361.832000
0
LINE
8
VISIBLE
10
671.358000
20
361.832000
11
666.858000
21
361.832000
0
LINE
8
VISIBLE
10
680.608000
20
371.432000
11
676.107000
21
371.432000
0
LINE
8
VISIBLE
10
773.707000
20
383.655000
11
773.707000
21
393.560000
0
LINE
8
VISIBLE
10
787.709000
20
462.894000
11
787.709000
21
472.798000
0
LINE
8
VISIBLE
10
787.709000
20
443.084000
11
787.709000
21
452.989000
0
LINE
8
VISIBLE
10
778.207000
20
502.512000
11
773.707000
21
502.512000
0
LINE
8
VISIBLE
10
778.207000
20
522.322000
11
773.707000
21
522.322000
0
LINE
8
VISIBLE
10
778.207000
20
482.703000
11
778.207000
21
472.798000
0
LINE
8
VISIBLE
10
778.207000
20
502.512000
11
778.207000
21
492.608000
0
LINE
8
VISIBLE
10
778.207000
20
452.989000
11
773.707000
21
452.989000
0
LINE
8
VISIBLE
10
778.207000
20
472.798000
11
773.707000
21
472.798000
0
LINE
8
VISIBLE
10
787.709000
20
502.512000
11
787.709000
21
512.417000
0
LINE
8
VISIBLE
10
778.207000
20
482.703000
11
773.707000
21
482.703000
0
LINE
8
VISIBLE
10
778.207000
20
344.037000
11
778.207000
21
334.132000
0
LINE
8
VISIBLE
10
778.207000
20
443.084000
11
773.707000
21
443.084000
0
LINE
8
VISIBLE
10
778.207000
20
542.131000
11
778.207000
21
532.227000
0
LINE
8
VISIBLE
10
778.207000
20
532.227000
11
773.707000
21
532.227000
0
LINE
8
VISIBLE
10
778.207000
20
423.275000
11
773.707000
21
423.275000
0
LINE
8
VISIBLE
10
778.207000
20
512.417000
11
773.707000
21
512.417000
0
LINE
8
VISIBLE
10
778.207000
20
522.322000
11
778.207000
21
512.417000
0
LINE
8
VISIBLE
10
778.207000
20
403.465000
11
773.707000
21
403.465000
0
LINE
8
VISIBLE
10
778.207000
20
492.608000
11
773.707000
21
492.608000
0
LINE
8
VISIBLE
10
778.207000
20
383.655000
11
778.207000
21
373.751000
0
LINE
8
VISIBLE
10
778.207000
20
383.655000
11
773.707000
21
383.655000
0
LINE
8
VISIBLE
10
778.207000
20
353.941000
11
773.707000
21
353.941000
0
LINE
8
VISIBLE
10
778.207000
20
363.846000
11
778.207000
21
353.941000
0
LINE
8
VISIBLE
10
778.207000
20
363.846000
11
773.707000
21
363.846000
0
LINE
8
VISIBLE
10
783.208000
20
344.037000
11
787.709000
21
344.037000
0
LINE
8
VISIBLE
10
783.208000
20
334.132000
11
783.208000
21
344.037000
0
LINE
8
VISIBLE
10
783.208000
20
522.322000
11
787.709000
21
522.322000
0
LINE
8
VISIBLE
10
783.208000
20
512.417000
11
783.208000
21
522.322000
0
LINE
8
VISIBLE
10
783.208000
20
512.417000
11
787.709000
21
512.417000
0
LINE
8
VISIBLE
10
783.208000
20
502.512000
11
787.709000
21
502.512000
0
LINE
8
VISIBLE
10
783.208000
20
492.608000
11
783.208000
21
502.512000
0
LINE
8
VISIBLE
10
783.208000
20
492.608000
11
787.709000
21
492.608000
0
LINE
8
VISIBLE
10
783.208000
20
403.465000
11
787.709000
21
403.465000
0
LINE
8
VISIBLE
10
783.208000
20
393.560000
11
783.208000
21
403.465000
0
LINE
8
VISIBLE
10
783.208000
20
393.560000
11
787.709000
21
393.560000
0
LINE
8
VISIBLE
10
783.208000
20
383.655000
11
787.709000
21
383.655000
0
LINE
8
VISIBLE
10
783.208000
20
373.751000
11
783.208000
21
383.655000
0
LINE
8
VISIBLE
10
783.208000
20
373.751000
11
787.709000
21
373.751000
0
LINE
8
VISIBLE
10
783.208000
20
363.846000
11
787.709000
21
363.846000
0
LINE
8
VISIBLE
10
783.208000
20
353.941000
11
783.208000
21
363.846000
0
LINE
8
VISIBLE
10
783.208000
20
353.941000
11
787.709000
21
353.941000
0
LINE
8
VISIBLE
10
783.208000
20
532.227000
11
783.208000
21
542.131000
0
LINE
8
VISIBLE
10
783.208000
20
532.227000
11
787.709000
21
532.227000
0
LINE
8
VISIBLE
10
783.208000
20
423.275000
11
787.709000
21
423.275000
0
LINE
8
VISIBLE
10
783.208000
20
413.370000
11
783.208000
21
423.275000
0
LINE
8
VISIBLE
10
783.208000
20
413.370000
11
787.709000
21
413.370000
0
LINE
8
VISIBLE
10
783.208000
20
443.084000
11
787.709000
21
443.084000
0
LINE
8
VISIBLE
10
783.208000
20
433.179000
11
783.208000
21
443.084000
0
LINE
8
VISIBLE
10
783.208000
20
433.179000
11
787.709000
21
433.179000
0
LINE
8
VISIBLE
10
783.208000
20
462.894000
11
787.709000
21
462.894000
0
LINE
8
VISIBLE
10
783.208000
20
452.989000
11
783.208000
21
462.894000
0
LINE
8
VISIBLE
10
783.208000
20
452.989000
11
787.709000
21
452.989000
0
LINE
8
VISIBLE
10
783.208000
20
482.703000
11
787.709000
21
482.703000
0
LINE
8
VISIBLE
10
783.208000
20
472.798000
11
783.208000
21
482.703000
0
LINE
8
VISIBLE
10
783.208000
20
472.798000
11
787.709000
21
472.798000
0
LINE
8
VISIBLE
10
778.207000
20
542.131000
11
783.208000
21
542.131000
0
LINE
8
VISIBLE
10
778.207000
20
334.132000
11
783.208000
21
334.132000
0
LINE
8
VISIBLE
10
787.709000
20
482.703000
11
787.709000
21
492.608000
0
LINE
8
VISIBLE
10
773.707000
20
502.512000
11
773.707000
21
512.417000
0
LINE
8
VISIBLE
10
773.707000
20
522.322000
11
773.707000
21
532.227000
0
LINE
8
VISIBLE
10
787.709000
20
423.275000
11
787.709000
21
433.179000
0
LINE
8
VISIBLE
10
787.709000
20
363.846000
11
787.709000
21
373.751000
0
LINE
8
VISIBLE
10
787.709000
20
383.655000
11
787.709000
21
393.560000
0
LINE
8
VISIBLE
10
787.709000
20
403.465000
11
787.709000
21
413.370000
0
LINE
8
VISIBLE
10
778.207000
20
462.894000
11
773.707000
21
462.894000
0
LINE
8
VISIBLE
10
787.709000
20
522.322000
11
787.709000
21
532.227000
0
LINE
8
VISIBLE
10
787.709000
20
344.037000
11
787.709000
21
353.941000
0
LINE
8
VISIBLE
10
773.707000
20
403.465000
11
773.707000
21
413.370000
0
LINE
8
VISIBLE
10
778.207000
20
344.037000
11
773.707000
21
344.037000
0
LINE
8
VISIBLE
10
773.707000
20
363.846000
11
773.707000
21
373.751000
0
LINE
8
VISIBLE
10
773.707000
20
462.894000
11
773.707000
21
472.798000
0
LINE
8
VISIBLE
10
773.707000
20
482.703000
11
773.707000
21
492.608000
0
LINE
8
VISIBLE
10
773.707000
20
423.275000
11
773.707000
21
433.179000
0
LINE
8
VISIBLE
10
773.707000
20
443.084000
11
773.707000
21
452.989000
0
LINE
8
VISIBLE
10
773.707000
20
344.037000
11
773.707000
21
353.941000
0
LINE
8
VISIBLE
10
778.207000
20
433.179000
11
773.707000
21
433.179000
0
LINE
8
VISIBLE
10
778.207000
20
393.560000
11
773.707000
21
393.560000
0
LINE
8
VISIBLE
10
778.207000
20
413.370000
11
773.707000
21
413.370000
0
LINE
8
VISIBLE
10
778.207000
20
403.465000
11
778.207000
21
393.560000
0
LINE
8
VISIBLE
10
778.207000
20
423.275000
11
778.207000
21
413.370000
0
LINE
8
VISIBLE
10
778.207000
20
443.084000
11
778.207000
21
433.179000
0
LINE
8
VISIBLE
10
778.207000
20
462.894000
11
778.207000
21
452.989000
0
LINE
8
VISIBLE
10
778.207000
20
373.751000
11
773.707000
21
373.751000
0
LINE
8
VISIBLE
10
694.202000
20
592.412000
11
693.940750
21
593.387000
0
LINE
8
VISIBLE
10
693.940750
20
593.387000
11
693.227000
21
594.100750
0
LINE
8
VISIBLE
10
693.227000
20
594.100750
11
692.252000
21
594.362000
0
LINE
8
VISIBLE
10
692.252000
20
594.362000
11
691.277000
21
594.100750
0
LINE
8
VISIBLE
10
691.277000
20
594.100750
11
690.563250
21
593.387000
0
LINE
8
VISIBLE
10
690.563250
20
593.387000
11
690.302000
21
592.412000
0
LINE
8
VISIBLE
10
690.302000
20
592.412000
11
690.455241
21
591.652972
0
LINE
8
VISIBLE
10
690.455241
20
591.652972
11
690.873142
21
591.033142
0
LINE
8
VISIBLE
10
690.873142
20
591.033142
11
691.492972
21
590.615241
0
LINE
8
VISIBLE
10
691.492972
20
590.615241
11
692.252000
21
590.462000
0
LINE
8
VISIBLE
10
692.252000
20
590.462000
11
693.011028
21
590.615241
0
LINE
8
VISIBLE
10
693.011028
20
590.615241
11
693.630858
21
591.033142
0
LINE
8
VISIBLE
10
693.630858
20
591.033142
11
694.048759
21
591.652972
0
LINE
8
VISIBLE
10
694.048759
20
591.652972
11
694.202000
21
592.412000
0
LINE
8
VISIBLE
10
694.202000
20
592.412000
11
694.202000
21
592.412000
0
LINE
8
VISIBLE
10
685.251000
20
581.461000
11
689.919000
21
581.461000
0
LINE
8
VISIBLE
10
685.251000
20
593.963000
11
685.251000
21
581.461000
0
LINE
8
VISIBLE
10
691.252000
20
599.962000
11
690.075991
21
599.845648
0
LINE
8
VISIBLE
10
690.075991
20
599.845648
11
688.955898
21
599.505280
0
LINE
8
VISIBLE
10
688.955898
20
599.505280
11
687.923195
21
598.953933
0
LINE
8
VISIBLE
10
687.923195
20
598.953933
11
687.009356
21
598.204644
0
LINE
8
VISIBLE
10
687.009356
20
598.204644
11
686.260067
21
597.290805
0
LINE
8
VISIBLE
10
686.260067
20
597.290805
11
685.708720
21
596.258102
0
LINE
8
VISIBLE
10
685.708720
20
596.258102
11
685.368352
21
595.138009
0
LINE
8
VISIBLE
10
685.368352
20
595.138009
11
685.252000
21
593.962000
0
LINE
8
VISIBLE
10
691.252000
20
599.961000
11
693.252000
21
599.961000
0
LINE
8
VISIBLE
10
699.252000
20
593.962000
11
699.135648
21
595.138009
0
LINE
8
VISIBLE
10
699.135648
20
595.138009
11
698.795280
21
596.258102
0
LINE
8
VISIBLE
10
698.795280
20
596.258102
11
698.243933
21
597.290805
0
LINE
8
VISIBLE
10
698.243933
20
597.290805
11
697.494644
21
598.204644
0
LINE
8
VISIBLE
10
697.494644
20
598.204644
11
696.580805
21
598.953933
0
LINE
8
VISIBLE
10
696.580805
20
598.953933
11
695.548102
21
599.505280
0
LINE
8
VISIBLE
10
695.548102
20
599.505280
11
694.428009
21
599.845648
0
LINE
8
VISIBLE
10
694.428009
20
599.845648
11
693.252000
21
599.962000
0
LINE
8
VISIBLE
10
699.253000
20
593.963000
11
699.253000
21
581.461000
0
LINE
8
VISIBLE
10
694.586000
20
581.461000
11
699.253000
21
581.461000
0
LINE
8
VISIBLE
10
694.586000
20
585.962000
11
694.586000
21
581.461000
0
LINE
8
VISIBLE
10
689.919000
20
585.962000
11
694.586000
21
585.962000
0
LINE
8
VISIBLE
10
689.919000
20
585.962000
11
689.919000
21
581.461000
0
LINE
8
VISIBLE
10
605.959000
20
687.382000
11
624.458000
21
687.382000
0
LINE
8
VISIBLE
10
624.458000
20
705.881000
11
624.458000
21
687.382000
0
LINE
8
VISIBLE
10
605.959000
20
705.881000
11
624.458000
21
705.881000
0
LINE
8
VISIBLE
10
605.959000
20
705.881000
11
605.959000
21
687.382000
0
LINE
8
VISIBLE
10
647.708000
20
696.631000
11
647.422192
21
700.935937
0
LINE
8
VISIBLE
10
647.422192
20
700.935937
11
646.582997
21
705.110824
0
LINE
8
VISIBLE
10
646.582997
20
705.110824
11
645.217760
21
709.108299
0
LINE
8
VISIBLE
10
645.217760
20
709.108299
11
643.353826
21
712.881000
0
LINE
8
VISIBLE
10
643.353826
20
712.881000
11
641.018538
21
716.381565
0
LINE
8
VISIBLE
10
641.018538
20
716.381565
11
638.239241
21
719.562633
0
LINE
8
VISIBLE
10
638.239241
20
719.562633
11
635.043281
21
722.376840
0
LINE
8
VISIBLE
10
635.043281
20
722.376840
11
631.458000
21
724.776826
0
LINE
8
VISIBLE
10
631.458000
20
724.776826
11
627.586911
21
726.681777
0
LINE
8
VISIBLE
10
627.586911
20
726.681777
11
623.551756
21
728.042456
0
LINE
8
VISIBLE
10
623.551756
20
728.042456
11
619.407222
21
728.858864
0
LINE
8
VISIBLE
10
619.407222
20
728.858864
11
615.208000
21
729.131000
0
LINE
8
VISIBLE
10
615.208000
20
729.131000
11
611.008778
21
728.858864
0
LINE
8
VISIBLE
10
611.008778
20
728.858864
11
606.864244
21
728.042456
0
LINE
8
VISIBLE
10
606.864244
20
728.042456
11
602.829089
21
726.681777
0
LINE
8
VISIBLE
10
602.829089
20
726.681777
11
598.958000
21
724.776826
0
LINE
8
VISIBLE
10
598.958000
20
724.776826
11
595.372719
21
722.376840
0
LINE
8
VISIBLE
10
595.372719
20
722.376840
11
592.176759
21
719.562633
0
LINE
8
VISIBLE
10
592.176759
20
719.562633
11
589.397462
21
716.381565
0
LINE
8
VISIBLE
10
589.397462
20
716.381565
11
587.062174
21
712.881000
0
LINE
8
VISIBLE
10
587.062174
20
712.881000
11
585.198240
21
709.108299
0
LINE
8
VISIBLE
10
585.198240
20
709.108299
11
583.833003
21
705.110824
0
LINE
8
VISIBLE
10
583.833003
20
705.110824
11
582.993808
21
700.935937
0
LINE
8
VISIBLE
10
582.993808
20
700.935937
11
582.708000
21
696.631000
0
LINE
8
VISIBLE
10
582.708000
20
696.631000
11
582.993808
21
692.326063
0
LINE
8
VISIBLE
10
582.993808
20
692.326063
11
583.833003
21
688.151176
0
LINE
8
VISIBLE
10
583.833003
20
688.151176
11
585.198240
21
684.153701
0
LINE
8
VISIBLE
10
585.198240
20
684.153701
11
587.062174
21
680.381000
0
LINE
8
VISIBLE
10
587.062174
20
680.381000
11
589.397462
21
676.880435
0
LINE
8
VISIBLE
10
589.397462
20
676.880435
11
592.176759
21
673.699367
0
LINE
8
VISIBLE
10
592.176759
20
673.699367
11
595.372719
21
670.885160
0
LINE
8
VISIBLE
10
595.372719
20
670.885160
11
598.958000
21
668.485174
0
LINE
8
VISIBLE
10
598.958000
20
668.485174
11
602.829089
21
666.580223
0
LINE
8
VISIBLE
10
602.829089
20
666.580223
11
606.864244
21
665.219544
0
LINE
8
VISIBLE
10
606.864244
20
665.219544
11
611.008778
21
664.403136
0
LINE
8
VISIBLE
10
611.008778
20
664.403136
11
615.208000
21
664.131000
0
LINE
8
VISIBLE
10
615.208000
20
664.131000
11
619.407222
21
664.403136
0
LINE
8
VISIBLE
10
619.407222
20
664.403136
11
623.551756
21
665.219544
0
LINE
8
VISIBLE
10
623.551756
20
665.219544
11
627.586911
21
666.580223
0
LINE
8
VISIBLE
10
627.586911
20
666.580223
11
631.458000
21
668.485174
0
LINE
8
VISIBLE
10
631.458000
20
668.485174
11
635.043281
21
670.885160
0
LINE
8
VISIBLE
10
635.043281
20
670.885160
11
638.239241
21
673.699367
0
LINE
8
VISIBLE
10
638.239241
20
673.699367
11
641.018538
21
676.880435
0
LINE
8
VISIBLE
10
641.018538
20
676.880435
11
643.353826
21
680.381000
0
LINE
8
VISIBLE
10
643.353826
20
680.381000
11
645.217760
21
684.153701
0
LINE
8
VISIBLE
10
645.217760
20
684.153701
11
646.582997
21
688.151176
0
LINE
8
VISIBLE
10
646.582997
20
688.151176
11
647.422192
21
692.326063
0
LINE
8
VISIBLE
10
647.422192
20
692.326063
11
647.708000
21
696.631000
0
LINE
8
VISIBLE
10
647.708000
20
696.631000
11
647.708000
21
696.631000
0
LINE
8
VISIBLE
10
808.709000
20
411.016000
11
804.208000
21
411.016000
0
LINE
8
VISIBLE
10
804.208000
20
411.016000
11
804.208000
21
420.286000
0
LINE
8
VISIBLE
10
808.709000
20
420.286000
11
804.208000
21
420.286000
0
LINE
8
VISIBLE
10
808.709000
20
411.016000
11
808.709000
21
420.286000
0
LINE
8
VISIBLE
10
808.709000
20
429.555000
11
804.208000
21
429.555000
0
LINE
8
VISIBLE
10
804.208000
20
429.555000
11
804.208000
21
438.824000
0
LINE
8
VISIBLE
10
808.709000
20
429.555000
11
808.709000
21
438.824000
0
LINE
8
VISIBLE
10
808.709000
20
438.824000
11
804.208000
21
438.824000
0
LINE
8
VISIBLE
10
804.208000
20
355.401000
11
804.208000
21
364.670000
0
LINE
8
VISIBLE
10
808.709000
20
364.670000
11
804.208000
21
364.670000
0
LINE
8
VISIBLE
10
808.709000
20
355.401000
11
808.709000
21
364.670000
0
LINE
8
VISIBLE
10
808.709000
20
355.401000
11
804.208000
21
355.401000
0
LINE
8
VISIBLE
10
804.208000
20
466.632000
11
804.208000
21
478.631000
0
LINE
8
VISIBLE
10
808.709000
20
466.632000
11
808.709000
21
478.631000
0
LINE
8
VISIBLE
10
808.709000
20
466.632000
11
804.208000
21
466.632000
0
LINE
8
VISIBLE
10
808.709000
20
478.631000
11
804.208000
21
478.631000
0
LINE
8
VISIBLE
10
804.208000
20
448.093000
11
804.208000
21
457.362000
0
LINE
8
VISIBLE
10
808.709000
20
457.362000
11
804.208000
21
457.362000
0
LINE
8
VISIBLE
10
808.709000
20
448.093000
11
804.208000
21
448.093000
0
LINE
8
VISIBLE
10
808.709000
20
448.093000
11
808.709000
21
457.362000
0
LINE
8
VISIBLE
10
804.208000
20
334.132000
11
804.208000
21
346.132000
0
LINE
8
VISIBLE
10
808.709000
20
334.132000
11
808.709000
21
346.132000
0
LINE
8
VISIBLE
10
808.709000
20
346.132000
11
804.208000
21
346.132000
0
LINE
8
VISIBLE
10
808.709000
20
334.132000
11
804.208000
21
334.132000
0
LINE
8
VISIBLE
10
804.208000
20
373.939000
11
804.208000
21
383.209000
0
LINE
8
VISIBLE
10
808.709000
20
373.939000
11
804.208000
21
373.939000
0
LINE
8
VISIBLE
10
808.709000
20
373.939000
11
808.709000
21
383.209000
0
LINE
8
VISIBLE
10
808.709000
20
383.209000
11
804.208000
21
383.209000
0
LINE
8
VISIBLE
10
804.208000
20
392.478000
11
804.208000
21
401.747000
0
LINE
8
VISIBLE
10
808.709000
20
392.478000
11
804.208000
21
392.478000
0
LINE
8
VISIBLE
10
808.709000
20
401.747000
11
804.208000
21
401.747000
0
LINE
8
VISIBLE
10
808.709000
20
392.478000
11
808.709000
21
401.747000
0
LINE
8
VISIBLE
10
804.208000
20
457.362000
11
804.208000
21
466.632000
0
LINE
8
VISIBLE
10
808.709000
20
466.632000
11
808.709000
21
457.362000
0
LINE
8
VISIBLE
10
804.208000
20
346.132000
11
804.208000
21
355.401000
0
LINE
8
VISIBLE
10
808.709000
20
355.401000
11
808.709000
21
346.132000
0
LINE
8
VISIBLE
10
804.208000
20
438.824000
11
804.208000
21
448.093000
0
LINE
8
VISIBLE
10
808.709000
20
448.093000
11
808.709000
21
438.824000
0
LINE
8
VISIBLE
10
804.208000
20
383.209000
11
804.208000
21
392.478000
0
LINE
8
VISIBLE
10
808.709000
20
392.478000
11
808.709000
21
383.209000
0
LINE
8
VISIBLE
10
804.208000
20
420.286000
11
804.208000
21
429.555000
0
LINE
8
VISIBLE
10
808.709000
20
429.555000
11
808.709000
21
420.286000
0
LINE
8
VISIBLE
10
804.208000
20
364.670000
11
804.208000
21
373.939000
0
LINE
8
VISIBLE
10
808.709000
20
373.939000
11
808.709000
21
364.670000
0
LINE
8
VISIBLE
10
804.208000
20
401.747000
11
804.208000
21
411.016000
0
LINE
8
VISIBLE
10
808.709000
20
411.016000
11
808.709000
21
401.747000
0
LINE
8
VISIBLE
10
679.202000
20
592.412000
11
679.048759
21
593.171028
0
LINE
8
VISIBLE
10
679.048759
20
593.171028
11
678.630858
21
593.790858
0
LINE
8
VISIBLE
10
678.630858
20
593.790858
11
678.011028
21
594.208759
0
LINE
8
VISIBLE
10
678.011028
20
594.208759
11
677.252000
21
594.362000
0
LINE
8
VISIBLE
10
677.252000
20
594.362000
11
676.492972
21
594.208759
0
LINE
8
VISIBLE
10
676.492972
20
594.208759
11
675.873142
21
593.790858
0
LINE
8
VISIBLE
10
675.873142
20
593.790858
11
675.455241
21
593.171028
0
LINE
8
VISIBLE
10
675.455241
20
593.171028
11
675.302000
21
592.412000
0
LINE
8
VISIBLE
10
675.302000
20
592.412000
11
675.455241
21
591.652972
0
LINE
8
VISIBLE
10
675.455241
20
591.652972
11
675.873142
21
591.033142
0
LINE
8
VISIBLE
10
675.873142
20
591.033142
11
676.492972
21
590.615241
0
LINE
8
VISIBLE
10
676.492972
20
590.615241
11
677.252000
21
590.462001
0
LINE
8
VISIBLE
10
677.252000
20
590.462001
11
678.011028
21
590.615241
0
LINE
8
VISIBLE
10
678.011028
20
590.615241
11
678.630858
21
591.033142
0
LINE
8
VISIBLE
10
678.630858
20
591.033142
11
679.048759
21
591.652972
0
LINE
8
VISIBLE
10
679.048759
20
591.652972
11
679.202000
21
592.412000
0
LINE
8
VISIBLE
10
679.202000
20
592.412000
11
679.202000
21
592.412000
0
LINE
8
VISIBLE
10
674.919000
20
585.962000
11
674.919000
21
581.461000
0
LINE
8
VISIBLE
10
670.252000
20
581.461000
11
674.919000
21
581.461000
0
LINE
8
VISIBLE
10
670.252000
20
593.963000
11
670.252000
21
581.461000
0
LINE
8
VISIBLE
10
676.252000
20
599.962000
11
675.075991
21
599.845648
0
LINE
8
VISIBLE
10
675.075991
20
599.845648
11
673.955898
21
599.505280
0
LINE
8
VISIBLE
10
673.955898
20
599.505280
11
672.923195
21
598.953933
0
LINE
8
VISIBLE
10
672.923195
20
598.953933
11
672.009356
21
598.204644
0
LINE
8
VISIBLE
10
672.009356
20
598.204644
11
671.260067
21
597.290805
0
LINE
8
VISIBLE
10
671.260067
20
597.290805
11
670.708720
21
596.258102
0
LINE
8
VISIBLE
10
670.708720
20
596.258102
11
670.368352
21
595.138009
0
LINE
8
VISIBLE
10
670.368352
20
595.138009
11
670.252000
21
593.962000
0
LINE
8
VISIBLE
10
676.253000
20
599.961000
11
678.253000
21
599.961000
0
LINE
8
VISIBLE
10
684.252000
20
593.962000
11
684.135648
21
595.138009
0
LINE
8
VISIBLE
10
684.135648
20
595.138009
11
683.795280
21
596.258102
0
LINE
8
VISIBLE
10
683.795280
20
596.258102
11
683.243933
21
597.290805
0
LINE
8
VISIBLE
10
683.243933
20
597.290805
11
682.494644
21
598.204644
0
LINE
8
VISIBLE
10
682.494644
20
598.204644
11
681.580805
21
598.953933
0
LINE
8
VISIBLE
10
681.580805
20
598.953933
11
680.548102
21
599.505280
0
LINE
8
VISIBLE
10
680.548102
20
599.505280
11
679.428009
21
599.845648
0
LINE
8
VISIBLE
10
679.428009
20
599.845648
11
678.252000
21
599.962000
0
LINE
8
VISIBLE
10
684.251000
20
593.963000
11
684.251000
21
581.461000
0
LINE
8
VISIBLE
10
679.587000
20
585.962000
11
679.587000
21
581.461000
0
LINE
8
VISIBLE
10
674.919000
20
585.962000
11
679.587000
21
585.962000
0
LINE
8
VISIBLE
10
679.587000
20
581.461000
11
684.251000
21
581.461000
0
LINE
8
VISIBLE
10
663.938000
20
548.122000
11
663.837615
21
548.878661
0
LINE
8
VISIBLE
10
663.837615
20
548.878661
11
663.549474
21
549.572000
0
LINE
8
VISIBLE
10
663.549474
20
549.572000
11
663.093095
21
550.168207
0
LINE
8
VISIBLE
10
663.093095
20
550.168207
11
662.488000
21
550.633474
0
LINE
8
VISIBLE
10
662.488000
20
550.633474
11
661.782520
21
550.924868
0
LINE
8
VISIBLE
10
661.782520
20
550.924868
11
661.038000
21
551.022000
0
LINE
8
VISIBLE
10
661.038000
20
551.022000
11
660.293480
21
550.924868
0
LINE
8
VISIBLE
10
660.293480
20
550.924868
11
659.588000
21
550.633474
0
LINE
8
VISIBLE
10
659.588000
20
550.633474
11
658.982905
21
550.168207
0
LINE
8
VISIBLE
10
658.982905
20
550.168207
11
658.526526
21
549.572000
0
LINE
8
VISIBLE
10
658.526526
20
549.572000
11
658.238385
21
548.878661
0
LINE
8
VISIBLE
10
658.238385
20
548.878661
11
658.138000
21
548.122000
0
LINE
8
VISIBLE
10
658.138000
20
548.122000
11
658.238385
21
547.365339
0
LINE
8
VISIBLE
10
658.238385
20
547.365339
11
658.526526
21
546.672000
0
LINE
8
VISIBLE
10
658.526526
20
546.672000
11
658.982905
21
546.075793
0
LINE
8
VISIBLE
10
658.982905
20
546.075793
11
659.588000
21
545.610526
0
LINE
8
VISIBLE
10
659.588000
20
545.610526
11
660.293480
21
545.319132
0
LINE
8
VISIBLE
10
660.293480
20
545.319132
11
661.038000
21
545.222000
0
LINE
8
VISIBLE
10
661.038000
20
545.222000
11
661.782520
21
545.319132
0
LINE
8
VISIBLE
10
661.782520
20
545.319132
11
662.488000
21
545.610526
0
LINE
8
VISIBLE
10
662.488000
20
545.610526
11
663.093095
21
546.075793
0
LINE
8
VISIBLE
10
663.093095
20
546.075793
11
663.549474
21
546.672000
0
LINE
8
VISIBLE
10
663.549474
20
546.672000
11
663.837615
21
547.365339
0
LINE
8
VISIBLE
10
663.837615
20
547.365339
11
663.938000
21
548.122000
0
LINE
8
VISIBLE
10
663.938000
20
548.122000
11
663.938000
21
548.122000
0
LINE
8
VISIBLE
10
653.038000
20
540.622000
11
653.038000
21
548.122000
0
LINE
8
VISIBLE
10
669.038000
20
548.122000
11
668.761071
21
550.209339
0
LINE
8
VISIBLE
10
668.761071
20
550.209339
11
667.966196
21
552.121995
0
LINE
8
VISIBLE
10
667.966196
20
552.121995
11
666.707222
21
553.766703
0
LINE
8
VISIBLE
10
666.707222
20
553.766703
11
665.037995
21
555.050195
0
LINE
8
VISIBLE
10
665.037995
20
555.050195
11
663.091845
21
555.854041
0
LINE
8
VISIBLE
10
663.091845
20
555.854041
11
661.038000
21
556.121990
0
LINE
8
VISIBLE
10
661.038000
20
556.121990
11
658.984155
21
555.854041
0
LINE
8
VISIBLE
10
658.984155
20
555.854041
11
657.038005
21
555.050195
0
LINE
8
VISIBLE
10
657.038005
20
555.050195
11
655.368778
21
553.766703
0
LINE
8
VISIBLE
10
655.368778
20
553.766703
11
654.109805
21
552.121995
0
LINE
8
VISIBLE
10
654.109805
20
552.121995
11
653.314933
21
550.209339
0
LINE
8
VISIBLE
10
653.314933
20
550.209339
11
653.038010
21
548.122000
0
LINE
8
VISIBLE
10
669.038000
20
540.622000
11
669.038000
21
548.122000
0
LINE
8
VISIBLE
10
656.237000
20
540.622000
11
653.038000
21
540.622000
0
LINE
8
VISIBLE
10
662.638000
20
536.122000
11
662.638000
21
540.622000
0
LINE
8
VISIBLE
10
659.439000
20
536.122000
11
659.439000
21
540.622000
0
LINE
8
VISIBLE
10
656.237000
20
536.122000
11
656.237000
21
540.622000
0
LINE
8
VISIBLE
10
662.638000
20
536.122000
11
665.839000
21
536.122000
0
LINE
8
VISIBLE
10
662.638000
20
540.622000
11
659.439000
21
540.622000
0
LINE
8
VISIBLE
10
669.038000
20
540.622000
11
665.839000
21
540.622000
0
LINE
8
VISIBLE
10
665.839000
20
536.122000
11
665.839000
21
540.622000
0
LINE
8
VISIBLE
10
656.237000
20
536.122000
11
659.439000
21
536.122000
0
LINE
8
VISIBLE
10
648.234000
20
427.832000
11
648.234000
21
431.032000
0
LINE
8
VISIBLE
10
643.733000
20
431.032000
11
648.234000
21
431.032000
0
LINE
8
VISIBLE
10
643.733000
20
427.832000
11
643.733000
21
431.032000
0
LINE
8
VISIBLE
10
643.733000
20
434.232000
11
648.234000
21
434.232000
0
LINE
8
VISIBLE
10
657.483000
20
427.832000
11
657.483000
21
431.032000
0
LINE
8
VISIBLE
10
652.983000
20
431.032000
11
657.483000
21
431.032000
0
LINE
8
VISIBLE
10
652.983000
20
427.832000
11
652.983000
21
431.032000
0
LINE
8
VISIBLE
10
652.983000
20
427.832000
11
657.483000
21
427.832000
0
LINE
8
VISIBLE
10
675.983000
20
427.832000
11
675.983000
21
431.032000
0
LINE
8
VISIBLE
10
671.483000
20
437.432000
11
675.983000
21
437.432000
0
LINE
8
VISIBLE
10
671.483000
20
434.232000
11
675.983000
21
434.232000
0
LINE
8
VISIBLE
10
680.732000
20
437.432000
11
685.233000
21
437.432000
0
LINE
8
VISIBLE
10
694.708000
20
432.632000
11
694.422192
21
436.936937
0
LINE
8
VISIBLE
10
694.422192
20
436.936937
11
693.582997
21
441.111824
0
LINE
8
VISIBLE
10
693.582997
20
441.111824
11
692.217760
21
445.109299
0
LINE
8
VISIBLE
10
692.217760
20
445.109299
11
690.353826
21
448.882000
0
LINE
8
VISIBLE
10
690.353826
20
448.882000
11
688.018538
21
452.382565
0
LINE
8
VISIBLE
10
688.018538
20
452.382565
11
685.239241
21
455.563633
0
LINE
8
VISIBLE
10
685.239241
20
455.563633
11
682.043281
21
458.377840
0
LINE
8
VISIBLE
10
682.043281
20
458.377840
11
678.458000
21
460.777826
0
LINE
8
VISIBLE
10
678.458000
20
460.777826
11
674.586911
21
462.682777
0
LINE
8
VISIBLE
10
674.586911
20
462.682777
11
670.551756
21
464.043456
0
LINE
8
VISIBLE
10
670.551756
20
464.043456
11
666.407222
21
464.859864
0
LINE
8
VISIBLE
10
666.407222
20
464.859864
11
662.208000
21
465.132000
0
LINE
8
VISIBLE
10
662.208000
20
465.132000
11
658.008778
21
464.859864
0
LINE
8
VISIBLE
10
658.008778
20
464.859864
11
653.864244
21
464.043456
0
LINE
8
VISIBLE
10
653.864244
20
464.043456
11
649.829089
21
462.682777
0
LINE
8
VISIBLE
10
649.829089
20
462.682777
11
645.958000
21
460.777826
0
LINE
8
VISIBLE
10
645.958000
20
460.777826
11
642.372719
21
458.377840
0
LINE
8
VISIBLE
10
642.372719
20
458.377840
11
639.176759
21
455.563633
0
LINE
8
VISIBLE
10
639.176759
20
455.563633
11
636.397462
21
452.382565
0
LINE
8
VISIBLE
10
636.397462
20
452.382565
11
634.062174
21
448.882000
0
LINE
8
VISIBLE
10
634.062174
20
448.882000
11
632.198240
21
445.109299
0
LINE
8
VISIBLE
10
632.198240
20
445.109299
11
630.833003
21
441.111824
0
LINE
8
VISIBLE
10
630.833003
20
441.111824
11
629.993808
21
436.936937
0
LINE
8
VISIBLE
10
629.993808
20
436.936937
11
629.708000
21
432.632000
0
LINE
8
VISIBLE
10
629.708000
20
432.632000
11
629.875794
21
429.309064
0
LINE
8
VISIBLE
10
629.875794
20
429.309064
11
630.368285
21
426.082117
0
LINE
8
VISIBLE
10
630.368285
20
426.082117
11
631.169136
21
422.967495
0
LINE
8
VISIBLE
10
631.169136
20
422.967495
11
632.262012
21
419.981534
0
LINE
8
VISIBLE
10
632.262012
20
419.981534
11
633.630575
21
417.140571
0
LINE
8
VISIBLE
10
633.630575
20
417.140571
11
635.258490
21
414.460942
0
LINE
8
VISIBLE
10
635.258490
20
414.460942
11
637.129421
21
411.958983
0
LINE
8
VISIBLE
10
637.129421
20
411.958983
11
639.227030
21
409.651031
0
LINE
8
VISIBLE
10
639.227030
20
409.651031
11
641.534983
21
407.553421
0
LINE
8
VISIBLE
10
641.534983
20
407.553421
11
644.036942
21
405.682491
0
LINE
8
VISIBLE
10
644.036942
20
405.682491
11
646.716571
21
404.054576
0
LINE
8
VISIBLE
10
646.716571
20
404.054576
11
649.557534
21
402.686013
0
LINE
8
VISIBLE
10
649.557534
20
402.686013
11
652.543495
21
401.593137
0
LINE
8
VISIBLE
10
652.543495
20
401.593137
11
655.658117
21
400.792286
0
LINE
8
VISIBLE
10
655.658117
20
400.792286
11
658.885064
21
400.299796
0
LINE
8
VISIBLE
10
658.885064
20
400.299796
11
662.208000
21
400.132002
0
LINE
8
VISIBLE
10
662.208000
20
400.132002
11
665.530936
21
400.299796
0
LINE
8
VISIBLE
10
665.530936
20
400.299796
11
668.757883
21
400.792286
0
LINE
8
VISIBLE
10
668.757883
20
400.792286
11
671.872505
21
401.593137
0
LINE
8
VISIBLE
10
671.872505
20
401.593137
11
674.858466
21
402.686013
0
LINE
8
VISIBLE
10
674.858466
20
402.686013
11
677.699429
21
404.054576
0
LINE
8
VISIBLE
10
677.699429
20
404.054576
11
680.379058
21
405.682491
0
LINE
8
VISIBLE
10
680.379058
20
405.682491
11
682.881017
21
407.553421
0
LINE
8
VISIBLE
10
682.881017
20
407.553421
11
685.188970
21
409.651031
0
LINE
8
VISIBLE
10
685.188970
20
409.651031
11
687.286579
21
411.958983
0
LINE
8
VISIBLE
10
687.286579
20
411.958983
11
689.157510
21
414.460942
0
LINE
8
VISIBLE
10
689.157510
20
414.460942
11
690.785425
21
417.140571
0
LINE
8
VISIBLE
10
690.785425
20
417.140571
11
692.153988
21
419.981534
0
LINE
8
VISIBLE
10
692.153988
20
419.981534
11
693.246864
21
422.967495
0
LINE
8
VISIBLE
10
693.246864
20
422.967495
11
694.047715
21
426.082117
0
LINE
8
VISIBLE
10
694.047715
20
426.082117
11
694.540206
21
429.309064
0
LINE
8
VISIBLE
10
694.540206
20
429.309064
11
694.708000
21
432.632000
0
LINE
8
VISIBLE
10
694.708000
20
432.632000
11
694.708000
21
432.632000
0
LINE
8
VISIBLE
10
680.732000
20
427.832000
11
680.732000
21
431.032000
0
LINE
8
VISIBLE
10
675.983000
20
434.232000
11
675.983000
21
437.432000
0
LINE
8
VISIBLE
10
671.483000
20
434.232000
11
671.483000
21
437.432000
0
LINE
8
VISIBLE
10
671.483000
20
431.032000
11
675.983000
21
431.032000
0
LINE
8
VISIBLE
10
671.483000
20
427.832000
11
671.483000
21
431.032000
0
LINE
8
VISIBLE
10
671.483000
20
427.832000
11
675.983000
21
427.832000
0
LINE
8
VISIBLE
10
666.733000
20
434.232000
11
666.733000
21
437.432000
0
LINE
8
VISIBLE
10
662.233000
20
437.432000
11
666.733000
21
437.432000
0
LINE
8
VISIBLE
10
662.233000
20
434.232000
11
666.733000
21
434.232000
0
LINE
8
VISIBLE
10
643.733000
20
427.832000
11
648.234000
21
427.832000
0
LINE
8
VISIBLE
10
680.732000
20
434.232000
11
685.233000
21
434.232000
0
LINE
8
VISIBLE
10
662.233000
20
431.032000
11
666.733000
21
431.032000
0
LINE
8
VISIBLE
10
662.233000
20
427.832000
11
662.233000
21
431.032000
0
LINE
8
VISIBLE
10
662.233000
20
427.832000
11
666.733000
21
427.832000
0
LINE
8
VISIBLE
10
657.483000
20
434.232000
11
657.483000
21
437.432000
0
LINE
8
VISIBLE
10
652.983000
20
434.232000
11
652.983000
21
437.432000
0
LINE
8
VISIBLE
10
652.983000
20
434.232000
11
657.483000
21
434.232000
0
LINE
8
VISIBLE
10
648.234000
20
434.232000
11
648.234000
21
437.432000
0
LINE
8
VISIBLE
10
643.733000
20
434.232000
11
643.733000
21
437.432000
0
LINE
8
VISIBLE
10
652.983000
20
437.432000
11
657.483000
21
437.432000
0
LINE
8
VISIBLE
10
643.733000
20
437.432000
11
648.234000
21
437.432000
0
LINE
8
VISIBLE
10
685.233000
20
434.232000
11
685.233000
21
437.432000
0
LINE
8
VISIBLE
10
680.732000
20
434.232000
11
680.732000
21
437.432000
0
LINE
8
VISIBLE
10
662.233000
20
434.232000
11
662.233000
21
437.432000
0
LINE
8
VISIBLE
10
666.733000
20
427.832000
11
666.733000
21
431.032000
0
LINE
8
VISIBLE
10
685.233000
20
427.832000
11
685.233000
21
431.032000
0
LINE
8
VISIBLE
10
680.732000
20
427.832000
11
685.233000
21
427.832000
0
LINE
8
VISIBLE
10
680.732000
20
431.032000
11
685.233000
21
431.032000
0
LINE
8
VISIBLE
10
663.608000
20
612.792000
11
663.380103
21
613.920811
0
LINE
8
VISIBLE
10
663.380103
20
613.920811
11
662.758609
21
614.842609
0
LINE
8
VISIBLE
10
662.758609
20
614.842609
11
661.836811
21
615.464103
0
LINE
8
VISIBLE
10
661.836811
20
615.464103
11
660.708000
21
615.692000
0
LINE
8
VISIBLE
10
660.708000
20
615.692000
11
659.579189
21
615.464103
0
LINE
8
VISIBLE
10
659.579189
20
615.464103
11
658.657391
21
614.842609
0
LINE
8
VISIBLE
10
658.657391
20
614.842609
11
658.035897
21
613.920811
0
LINE
8
VISIBLE
10
658.035897
20
613.920811
11
657.808000
21
612.792000
0
LINE
8
VISIBLE
10
657.808000
20
612.792000
11
658.035897
21
611.663189
0
LINE
8
VISIBLE
10
658.035897
20
611.663189
11
658.657391
21
610.741391
0
LINE
8
VISIBLE
10
658.657391
20
610.741391
11
659.579189
21
610.119897
0
LINE
8
VISIBLE
10
659.579189
20
610.119897
11
660.708000
21
609.892000
0
LINE
8
VISIBLE
10
660.708000
20
609.892000
11
661.836811
21
610.119897
0
LINE
8
VISIBLE
10
661.836811
20
610.119897
11
662.758609
21
610.741391
0
LINE
8
VISIBLE
10
662.758609
20
610.741391
11
663.380103
21
611.663189
0
LINE
8
VISIBLE
10
663.380103
20
611.663189
11
663.608000
21
612.792000
0
LINE
8
VISIBLE
10
663.608000
20
612.792000
11
663.608000
21
612.792000
0
LINE
8
VISIBLE
10
653.208000
20
617.593000
11
653.208000
21
620.791000
0
LINE
8
VISIBLE
10
653.208000
20
620.791000
11
660.709000
21
620.791000
0
LINE
8
VISIBLE
10
660.708000
20
604.792000
11
662.795339
21
605.068929
0
LINE
8
VISIBLE
10
662.795339
20
605.068929
11
664.707995
21
605.863804
0
LINE
8
VISIBLE
10
664.707995
20
605.863804
11
666.352703
21
607.122778
0
LINE
8
VISIBLE
10
666.352703
20
607.122778
11
667.636195
21
608.792005
0
LINE
8
VISIBLE
10
667.636195
20
608.792005
11
668.440041
21
610.738155
0
LINE
8
VISIBLE
10
668.440041
20
610.738155
11
668.707990
21
612.792000
0
LINE
8
VISIBLE
10
668.707990
20
612.792000
11
668.440041
21
614.845845
0
LINE
8
VISIBLE
10
668.440041
20
614.845845
11
667.636195
21
616.791995
0
LINE
8
VISIBLE
10
667.636195
20
616.791995
11
666.352703
21
618.461222
0
LINE
8
VISIBLE
10
666.352703
20
618.461222
11
664.707995
21
619.720195
0
LINE
8
VISIBLE
10
664.707995
20
619.720195
11
662.795339
21
620.515067
0
LINE
8
VISIBLE
10
662.795339
20
620.515067
11
660.708000
21
620.791990
0
LINE
8
VISIBLE
10
653.208000
20
604.792000
11
660.709000
21
604.792000
0
LINE
8
VISIBLE
10
653.208000
20
604.792000
11
653.208000
21
607.991000
0
LINE
8
VISIBLE
10
648.707000
20
607.991000
11
653.208000
21
607.991000
0
LINE
8
VISIBLE
10
648.707000
20
611.192000
11
648.707000
21
607.991000
0
LINE
8
VISIBLE
10
648.707000
20
611.192000
11
653.208000
21
611.192000
0
LINE
8
VISIBLE
10
653.208000
20
611.192000
11
653.208000
21
614.391000
0
LINE
8
VISIBLE
10
648.707000
20
614.391000
11
653.208000
21
614.391000
0
LINE
8
VISIBLE
10
648.707000
20
617.593000
11
648.707000
21
614.391000
0
LINE
8
VISIBLE
10
648.707000
20
617.593000
11
653.208000
21
617.593000
0
LINE
8
VISIBLE
10
689.003000
20
498.962000
11
689.003000
21
494.462000
0
LINE
8
VISIBLE
10
686.003000
20
498.962000
11
686.003000
21
494.462000
0
LINE
8
VISIBLE
10
696.001000
20
494.462000
11
699.002000
21
494.462000
0
LINE
8
VISIBLE
10
699.002000
20
498.962000
11
699.002000
21
494.462000
0
LINE
8
VISIBLE
10
695.252000
20
496.712000
11
695.156807
21
497.429524
0
LINE
8
VISIBLE
10
695.156807
20
497.429524
11
694.883570
21
498.087000
0
LINE
8
VISIBLE
10
694.883570
20
498.087000
11
694.450797
21
498.652369
0
LINE
8
VISIBLE
10
694.450797
20
498.652369
11
693.877000
21
499.093570
0
LINE
8
VISIBLE
10
693.877000
20
499.093570
11
693.208010
21
499.369892
0
LINE
8
VISIBLE
10
693.208010
20
499.369892
11
692.502000
21
499.462000
0
LINE
8
VISIBLE
10
692.502000
20
499.462000
11
691.795990
21
499.369892
0
LINE
8
VISIBLE
10
691.795990
20
499.369892
11
691.127000
21
499.093570
0
LINE
8
VISIBLE
10
691.127000
20
499.093570
11
690.553203
21
498.652369
0
LINE
8
VISIBLE
10
690.553203
20
498.652369
11
690.120430
21
498.087000
0
LINE
8
VISIBLE
10
690.120430
20
498.087000
11
689.847193
21
497.429524
0
LINE
8
VISIBLE
10
689.847193
20
497.429524
11
689.752000
21
496.712000
0
LINE
8
VISIBLE
10
689.752000
20
496.712000
11
689.847193
21
495.994476
0
LINE
8
VISIBLE
10
689.847193
20
495.994476
11
690.120430
21
495.337000
0
LINE
8
VISIBLE
10
690.120430
20
495.337000
11
690.553203
21
494.771631
0
LINE
8
VISIBLE
10
690.553203
20
494.771631
11
691.127000
21
494.330430
0
LINE
8
VISIBLE
10
691.127000
20
494.330430
11
691.795990
21
494.054108
0
LINE
8
VISIBLE
10
691.795990
20
494.054108
11
692.502000
21
493.962000
0
LINE
8
VISIBLE
10
692.502000
20
493.962000
11
693.208010
21
494.054108
0
LINE
8
VISIBLE
10
693.208010
20
494.054108
11
693.877000
21
494.330430
0
LINE
8
VISIBLE
10
693.877000
20
494.330430
11
694.450797
21
494.771631
0
LINE
8
VISIBLE
10
694.450797
20
494.771631
11
694.883570
21
495.337000
0
LINE
8
VISIBLE
10
694.883570
20
495.337000
11
695.156807
21
495.994476
0
LINE
8
VISIBLE
10
695.156807
20
495.994476
11
695.252000
21
496.712000
0
LINE
8
VISIBLE
10
695.252000
20
496.712000
11
695.252000
21
496.712000
0
LINE
8
VISIBLE
10
699.752000
20
496.712000
11
699.501032
21
498.603650
0
LINE
8
VISIBLE
10
699.501032
20
498.603650
11
698.780677
21
500.336995
0
LINE
8
VISIBLE
10
698.780677
20
500.336995
11
697.639732
21
501.827511
0
LINE
8
VISIBLE
10
697.639732
20
501.827511
11
696.126995
21
502.990676
0
LINE
8
VISIBLE
10
696.126995
20
502.990676
11
694.363297
21
503.719161
0
LINE
8
VISIBLE
10
694.363297
20
503.719161
11
692.502000
21
503.961990
0
LINE
8
VISIBLE
10
692.502000
20
503.961990
11
690.640703
21
503.719161
0
LINE
8
VISIBLE
10
690.640703
20
503.719161
11
688.877005
21
502.990676
0
LINE
8
VISIBLE
10
688.877005
20
502.990676
11
687.364269
21
501.827511
0
LINE
8
VISIBLE
10
687.364269
20
501.827511
11
686.223324
21
500.336995
0
LINE
8
VISIBLE
10
686.223324
20
500.336995
11
685.502972
21
498.603650
0
LINE
8
VISIBLE
10
685.502972
20
498.603650
11
685.252010
21
496.712000
0
LINE
8
VISIBLE
10
685.252010
20
496.712000
11
685.502975
21
494.820350
0
LINE
8
VISIBLE
10
685.502975
20
494.820350
11
686.223329
21
493.087005
0
LINE
8
VISIBLE
10
686.223329
20
493.087005
11
687.364274
21
491.596489
0
LINE
8
VISIBLE
10
687.364274
20
491.596489
11
688.877010
21
490.433324
0
LINE
8
VISIBLE
10
688.877010
20
490.433324
11
690.640708
21
489.704839
0
LINE
8
VISIBLE
10
690.640708
20
489.704839
11
692.502005
21
489.462010
0
LINE
8
VISIBLE
10
692.502005
20
489.462010
11
694.363302
21
489.704839
0
LINE
8
VISIBLE
10
694.363302
20
489.704839
11
696.127000
21
490.433324
0
LINE
8
VISIBLE
10
696.127000
20
490.433324
11
697.639736
21
491.596489
0
LINE
8
VISIBLE
10
697.639736
20
491.596489
11
698.780681
21
493.087005
0
LINE
8
VISIBLE
10
698.780681
20
493.087005
11
699.501033
21
494.820350
0
LINE
8
VISIBLE
10
699.501033
20
494.820350
11
699.751995
21
496.712000
0
LINE
8
VISIBLE
10
699.751995
20
496.712000
11
699.752000
21
496.712000
0
LINE
8
VISIBLE
10
686.003000
20
498.962000
11
689.003000
21
498.962000
0
LINE
8
VISIBLE
10
686.003000
20
494.462000
11
689.003000
21
494.462000
0
LINE
8
VISIBLE
10
696.001000
20
498.962000
11
699.002000
21
498.962000
0
LINE
8
VISIBLE
10
696.001000
20
498.962000
11
696.001000
21
494.462000
0
LINE
8
VISIBLE
10
659.709000
20
574.048000
11
659.709000
21
571.796000
0
LINE
8
VISIBLE
10
654.708000
20
574.048000
11
659.709000
21
574.048000
0
LINE
8
VISIBLE
10
654.708000
20
571.796000
11
654.708000
21
574.048000
0
LINE
8
VISIBLE
10
652.459000
20
571.796000
11
654.708000
21
571.796000
0
LINE
8
VISIBLE
10
652.459000
20
566.795000
11
652.459000
21
571.796000
0
LINE
8
VISIBLE
10
654.708000
20
566.795000
11
652.459000
21
566.795000
0
LINE
8
VISIBLE
10
669.252000
20
566.557000
11
669.252000
21
566.435000
0
LINE
8
VISIBLE
10
655.914000
20
558.734000
11
669.252000
21
566.435000
0
LINE
8
VISIBLE
10
654.708000
20
564.546000
11
654.708000
21
566.795000
0
LINE
8
VISIBLE
10
669.252000
20
572.158000
11
669.252000
21
572.058000
0
LINE
8
VISIBLE
10
650.959000
20
558.997000
11
651.414000
21
558.734000
0
LINE
8
VISIBLE
10
648.707000
20
562.895000
11
648.707000
21
575.699000
0
LINE
8
VISIBLE
10
661.958000
20
571.796000
11
661.958000
21
566.795000
0
LINE
8
VISIBLE
10
655.914000
20
579.859000
11
654.819289
21
580.311165
0
LINE
8
VISIBLE
10
654.819289
20
580.311165
11
653.664000
21
580.461887
0
LINE
8
VISIBLE
10
653.664000
20
580.461887
11
652.508711
21
580.311165
0
LINE
8
VISIBLE
10
652.508711
20
580.311165
11
651.414000
21
579.859000
0
LINE
8
VISIBLE
10
648.708000
20
562.895000
11
648.863791
21
561.720902
0
LINE
8
VISIBLE
10
648.863791
20
561.720902
11
649.310913
21
560.645064
0
LINE
8
VISIBLE
10
649.310913
20
560.645064
11
650.019079
21
559.719944
0
LINE
8
VISIBLE
10
650.019079
20
559.719944
11
650.958000
21
558.998000
0
LINE
8
VISIBLE
10
651.414000
20
558.734000
11
652.508711
21
558.281835
0
LINE
8
VISIBLE
10
652.508711
20
558.281835
11
653.664000
21
558.131113
0
LINE
8
VISIBLE
10
653.664000
20
558.131113
11
654.819289
21
558.281835
0
LINE
8
VISIBLE
10
654.819289
20
558.281835
11
655.914000
21
558.734000
0
LINE
8
VISIBLE
10
659.709000
20
566.795000
11
659.709000
21
564.546000
0
LINE
8
VISIBLE
10
659.709000
20
571.796000
11
661.958000
21
571.796000
0
LINE
8
VISIBLE
10
666.752000
20
566.557000
11
666.752000
21
572.058000
0
LINE
8
VISIBLE
10
669.252000
20
572.058000
11
666.752000
21
572.058000
0
LINE
8
VISIBLE
10
655.914000
20
579.858000
11
669.252000
21
572.158000
0
LINE
8
VISIBLE
10
659.709000
20
564.546000
11
654.708000
21
564.546000
0
LINE
8
VISIBLE
10
661.958000
20
566.795000
11
659.709000
21
566.795000
0
LINE
8
VISIBLE
10
669.252000
20
566.557000
11
666.752000
21
566.557000
0
LINE
8
VISIBLE
10
650.958000
20
579.596000
11
650.018898
21
578.873875
0
LINE
8
VISIBLE
10
650.018898
20
578.873875
11
649.310663
21
577.948503
0
LINE
8
VISIBLE
10
649.310663
20
577.948503
11
648.863596
21
576.872380
0
LINE
8
VISIBLE
10
648.863596
20
576.872380
11
648.708000
21
575.698000
0
LINE
8
VISIBLE
10
651.414000
20
579.858000
11
650.959000
21
579.596000
0
LINE
8
VISIBLE
10
605.207000
20
557.131000
11
605.207000
21
547.227000
0
LINE
8
VISIBLE
10
600.709000
20
547.227000
11
600.709000
21
537.322000
0
LINE
8
VISIBLE
10
600.709000
20
527.417000
11
605.207000
21
527.417000
0
LINE
8
VISIBLE
10
600.709000
20
517.512000
11
605.207000
21
517.512000
0
LINE
8
VISIBLE
10
600.709000
20
497.703000
11
605.207000
21
497.703000
0
LINE
8
VISIBLE
10
605.207000
20
497.703000
11
605.207000
21
487.798000
0
LINE
8
VISIBLE
10
600.709000
20
487.798000
11
605.207000
21
487.798000
0
LINE
8
VISIBLE
10
605.207000
20
477.894000
11
605.207000
21
467.989000
0
LINE
8
VISIBLE
10
600.709000
20
467.989000
11
605.207000
21
467.989000
0
LINE
8
VISIBLE
10
600.709000
20
467.989000
11
600.709000
21
458.084000
0
LINE
8
VISIBLE
10
600.709000
20
458.084000
11
605.207000
21
458.084000
0
LINE
8
VISIBLE
10
605.207000
20
458.084000
11
605.207000
21
448.179000
0
LINE
8
VISIBLE
10
600.709000
20
448.179000
11
605.207000
21
448.179000
0
LINE
8
VISIBLE
10
600.709000
20
448.179000
11
600.709000
21
438.275000
0
LINE
8
VISIBLE
10
605.207000
20
438.275000
11
605.207000
21
428.370000
0
LINE
8
VISIBLE
10
600.709000
20
428.370000
11
605.207000
21
428.370000
0
LINE
8
VISIBLE
10
600.709000
20
428.370000
11
600.709000
21
418.465000
0
LINE
8
VISIBLE
10
600.709000
20
418.465000
11
605.207000
21
418.465000
0
LINE
8
VISIBLE
10
605.207000
20
418.465000
11
605.207000
21
408.560000
0
LINE
8
VISIBLE
10
600.709000
20
408.560000
11
600.709000
21
398.655000
0
LINE
8
VISIBLE
10
600.709000
20
398.655000
11
605.207000
21
398.655000
0
LINE
8
VISIBLE
10
605.207000
20
398.655000
11
605.207000
21
388.751000
0
LINE
8
VISIBLE
10
600.709000
20
388.751000
11
605.207000
21
388.751000
0
LINE
8
VISIBLE
10
600.709000
20
388.751000
11
600.709000
21
378.846000
0
LINE
8
VISIBLE
10
600.709000
20
378.846000
11
605.207000
21
378.846000
0
LINE
8
VISIBLE
10
605.207000
20
378.846000
11
605.207000
21
368.941000
0
LINE
8
VISIBLE
10
600.709000
20
368.941000
11
605.207000
21
368.941000
0
LINE
8
VISIBLE
10
600.709000
20
368.941000
11
600.709000
21
359.037000
0
LINE
8
VISIBLE
10
600.709000
20
359.037000
11
605.207000
21
359.037000
0
LINE
8
VISIBLE
10
605.207000
20
359.037000
11
605.207000
21
347.971000
0
LINE
8
VISIBLE
10
605.208000
20
347.971000
11
603.771120
21
347.278481
0
LINE
8
VISIBLE
10
603.771120
20
347.278481
11
602.426911
21
346.444909
0
LINE
8
VISIBLE
10
602.426911
20
346.444909
11
601.184378
21
345.479884
0
LINE
8
VISIBLE
10
601.184378
20
345.479884
11
600.052524
21
344.393008
0
LINE
8
VISIBLE
10
600.052524
20
344.393008
11
599.040355
21
343.193880
0
LINE
8
VISIBLE
10
599.040355
20
343.193880
11
598.156875
21
341.892103
0
LINE
8
VISIBLE
10
598.156875
20
341.892103
11
597.411089
21
340.497276
0
LINE
8
VISIBLE
10
597.411089
20
340.497276
11
596.812000
21
339.019000
0
LINE
8
VISIBLE
10
582.708000
20
341.382000
11
582.824815
21
340.081930
0
LINE
8
VISIBLE
10
582.824815
20
340.081930
11
583.162478
21
338.852958
0
LINE
8
VISIBLE
10
583.162478
20
338.852958
11
583.701949
21
337.717580
0
LINE
8
VISIBLE
10
583.701949
20
337.717580
11
584.424187
21
336.698290
0
LINE
8
VISIBLE
10
584.424187
20
336.698290
11
585.310154
21
335.817583
0
LINE
8
VISIBLE
10
585.310154
20
335.817583
11
586.340807
21
335.097954
0
LINE
8
VISIBLE
10
586.340807
20
335.097954
11
587.497108
21
334.561898
0
LINE
8
VISIBLE
10
587.497108
20
334.561898
11
588.760016
21
334.231910
0
LINE
8
VISIBLE
10
588.760016
20
334.231910
11
590.061514
21
334.132255
0
LINE
8
VISIBLE
10
590.061514
20
334.132255
11
591.329391
21
334.262162
0
LINE
8
VISIBLE
10
591.329391
20
334.262162
11
592.538314
21
334.606569
0
LINE
8
VISIBLE
10
592.538314
20
334.606569
11
593.662952
21
335.150417
0
LINE
8
VISIBLE
10
593.662952
20
335.150417
11
594.677972
21
335.878645
0
LINE
8
VISIBLE
10
594.677972
20
335.878645
11
595.558041
21
336.776192
0
LINE
8
VISIBLE
10
595.558041
20
336.776192
11
596.277828
21
337.827997
0
LINE
8
VISIBLE
10
596.277828
20
337.827997
11
596.812000
21
339.019000
0
LINE
8
VISIBLE
10
582.707000
20
542.131000
11
582.707000
21
341.382000
0
LINE
8
VISIBLE
10
597.708000
20
557.131000
11
596.174408
21
557.053564
0
LINE
8
VISIBLE
10
596.174408
20
557.053564
11
594.685112
21
556.826280
0
LINE
8
VISIBLE
10
594.685112
20
556.826280
11
591.869565
21
555.952327
0
LINE
8
VISIBLE
10
591.869565
20
555.952327
11
589.321675
21
554.569449
0
LINE
8
VISIBLE
10
589.321675
20
554.569449
11
587.101752
21
552.737955
0
LINE
8
VISIBLE
10
587.101752
20
552.737955
11
585.270110
21
550.518155
0
LINE
8
VISIBLE
10
585.270110
20
550.518155
11
583.887062
21
547.970356
0
LINE
8
VISIBLE
10
583.887062
20
547.970356
11
583.012921
21
545.154868
0
LINE
8
VISIBLE
10
583.012921
20
545.154868
11
582.785539
21
543.665587
0
LINE
8
VISIBLE
10
582.785539
20
543.665587
11
582.708000
21
542.132000
0
LINE
8
VISIBLE
10
605.207000
20
557.131000
11
597.709000
21
557.131000
0
LINE
8
VISIBLE
10
595.709000
20
359.037000
11
595.709000
21
368.941000
0
LINE
8
VISIBLE
10
595.709000
20
368.941000
11
591.208000
21
368.941000
0
LINE
8
VISIBLE
10
591.208000
20
359.037000
11
591.208000
21
368.941000
0
LINE
8
VISIBLE
10
595.709000
20
359.037000
11
591.208000
21
359.037000
0
LINE
8
VISIBLE
10
595.709000
20
537.322000
11
595.709000
21
547.227000
0
LINE
8
VISIBLE
10
595.709000
20
547.227000
11
591.208000
21
547.227000
0
LINE
8
VISIBLE
10
595.709000
20
537.322000
11
591.208000
21
537.322000
0
LINE
8
VISIBLE
10
595.709000
20
517.512000
11
595.709000
21
527.417000
0
LINE
8
VISIBLE
10
595.709000
20
527.417000
11
591.208000
21
527.417000
0
LINE
8
VISIBLE
10
595.709000
20
517.512000
11
591.208000
21
517.512000
0
LINE
8
VISIBLE
10
595.709000
20
497.703000
11
595.709000
21
507.608000
0
LINE
8
VISIBLE
10
595.709000
20
507.608000
11
591.208000
21
507.608000
0
LINE
8
VISIBLE
10
591.208000
20
497.703000
11
591.208000
21
507.608000
0
LINE
8
VISIBLE
10
595.709000
20
477.894000
11
595.709000
21
487.798000
0
LINE
8
VISIBLE
10
595.709000
20
487.798000
11
591.208000
21
487.798000
0
LINE
8
VISIBLE
10
591.208000
20
477.894000
11
591.208000
21
487.798000
0
LINE
8
VISIBLE
10
595.709000
20
477.894000
11
591.208000
21
477.894000
0
LINE
8
VISIBLE
10
595.709000
20
458.084000
11
595.709000
21
467.989000
0
LINE
8
VISIBLE
10
595.709000
20
467.989000
11
591.208000
21
467.989000
0
LINE
8
VISIBLE
10
591.208000
20
458.084000
11
591.208000
21
467.989000
0
LINE
8
VISIBLE
10
595.709000
20
458.084000
11
591.208000
21
458.084000
0
LINE
8
VISIBLE
10
595.709000
20
438.275000
11
595.709000
21
448.179000
0
LINE
8
VISIBLE
10
595.709000
20
448.179000
11
591.208000
21
448.179000
0
LINE
8
VISIBLE
10
591.208000
20
438.275000
11
591.208000
21
448.179000
0
LINE
8
VISIBLE
10
595.709000
20
438.275000
11
591.208000
21
438.275000
0
LINE
8
VISIBLE
10
595.709000
20
418.465000
11
595.709000
21
428.370000
0
LINE
8
VISIBLE
10
595.709000
20
428.370000
11
591.208000
21
428.370000
0
LINE
8
VISIBLE
10
595.709000
20
418.465000
11
591.208000
21
418.465000
0
LINE
8
VISIBLE
10
595.709000
20
398.655000
11
595.709000
21
408.560000
0
LINE
8
VISIBLE
10
595.709000
20
408.560000
11
591.208000
21
408.560000
0
LINE
8
VISIBLE
10
591.208000
20
398.655000
11
591.208000
21
408.560000
0
LINE
8
VISIBLE
10
595.709000
20
398.655000
11
591.208000
21
398.655000
0
LINE
8
VISIBLE
10
595.709000
20
378.846000
11
595.709000
21
388.751000
0
LINE
8
VISIBLE
10
595.709000
20
388.751000
11
591.208000
21
388.751000
0
LINE
8
VISIBLE
10
591.208000
20
378.846000
11
591.208000
21
388.751000
0
LINE
8
VISIBLE
10
595.709000
20
378.846000
11
591.208000
21
378.846000
0
LINE
8
VISIBLE
10
601.257000
20
530.544000
11
601.257000
21
533.719000
0
LINE
8
VISIBLE
10
601.257000
20
533.719000
11
598.508000
21
535.307000
0
LINE
8
VISIBLE
10
598.508000
20
535.307000
11
595.759000
21
533.719000
0
LINE
8
VISIBLE
10
595.759000
20
533.719000
11
595.759000
21
530.544000
0
LINE
8
VISIBLE
10
595.759000
20
530.544000
11
598.508000
21
528.956000
0
LINE
8
VISIBLE
10
598.508000
20
528.956000
11
601.257000
21
530.544000
0
LINE
8
VISIBLE
10
589.458000
20
443.227000
11
589.362807
21
443.944524
0
LINE
8
VISIBLE
10
589.362807
20
443.944524
11
589.089570
21
444.602000
0
LINE
8
VISIBLE
10
589.089570
20
444.602000
11
588.656797
21
445.167369
0
LINE
8
VISIBLE
10
588.656797
20
445.167369
11
588.083000
21
445.608570
0
LINE
8
VISIBLE
10
588.083000
20
445.608570
11
587.414010
21
445.884892
0
LINE
8
VISIBLE
10
587.414010
20
445.884892
11
586.708000
21
445.977000
0
LINE
8
VISIBLE
10
586.708000
20
445.977000
11
586.001990
21
445.884892
0
LINE
8
VISIBLE
10
586.001990
20
445.884892
11
585.333000
21
445.608570
0
LINE
8
VISIBLE
10
585.333000
20
445.608570
11
584.759203
21
445.167369
0
LINE
8
VISIBLE
10
584.759203
20
445.167369
11
584.326430
21
444.602000
0
LINE
8
VISIBLE
10
584.326430
20
444.602000
11
584.053193
21
443.944524
0
LINE
8
VISIBLE
10
584.053193
20
443.944524
11
583.958000
21
443.227000
0
LINE
8
VISIBLE
10
583.958000
20
443.227000
11
584.053193
21
442.509476
0
LINE
8
VISIBLE
10
584.053193
20
442.509476
11
584.326430
21
441.852000
0
LINE
8
VISIBLE
10
584.326430
20
441.852000
11
584.759203
21
441.286631
0
LINE
8
VISIBLE
10
584.759203
20
441.286631
11
585.333000
21
440.845430
0
LINE
8
VISIBLE
10
585.333000
20
440.845430
11
586.001990
21
440.569108
0
LINE
8
VISIBLE
10
586.001990
20
440.569108
11
586.708000
21
440.477000
0
LINE
8
VISIBLE
10
586.708000
20
440.477000
11
587.414010
21
440.569108
0
LINE
8
VISIBLE
10
587.414010
20
440.569108
11
588.083000
21
440.845430
0
LINE
8
VISIBLE
10
588.083000
20
440.845430
11
588.656797
21
441.286631
0
LINE
8
VISIBLE
10
588.656797
20
441.286631
11
589.089570
21
441.852000
0
LINE
8
VISIBLE
10
589.089570
20
441.852000
11
589.362807
21
442.509476
0
LINE
8
VISIBLE
10
589.362807
20
442.509476
11
589.458000
21
443.227000
0
LINE
8
VISIBLE
10
589.458000
20
443.227000
11
589.458000
21
443.227000
0
LINE
8
VISIBLE
10
588.187000
20
337.082000
11
592.229000
21
337.082000
0
LINE
8
VISIBLE
10
592.229000
20
337.082000
11
594.251000
21
340.582000
0
LINE
8
VISIBLE
10
594.251000
20
340.582000
11
592.229000
21
344.082000
0
LINE
8
VISIBLE
10
592.229000
20
344.082000
11
588.187000
21
344.082000
0
LINE
8
VISIBLE
10
588.187000
20
344.082000
11
586.168000
21
340.582000
0
LINE
8
VISIBLE
10
586.168000
20
340.582000
11
588.187000
21
337.082000
0
LINE
8
VISIBLE
10
605.207000
20
517.512000
11
605.207000
21
507.608000
0
LINE
8
VISIBLE
10
600.709000
20
547.227000
11
605.207000
21
547.227000
0
LINE
8
VISIBLE
10
600.709000
20
408.560000
11
605.207000
21
408.560000
0
LINE
8
VISIBLE
10
600.709000
20
537.322000
11
605.207000
21
537.322000
0
LINE
8
VISIBLE
10
600.709000
20
507.608000
11
605.207000
21
507.608000
0
LINE
8
VISIBLE
10
600.709000
20
438.275000
11
605.207000
21
438.275000
0
LINE
8
VISIBLE
10
595.709000
20
497.703000
11
591.208000
21
497.703000
0
LINE
8
VISIBLE
10
600.709000
20
487.798000
11
600.709000
21
477.894000
0
LINE
8
VISIBLE
10
591.208000
20
418.465000
11
591.208000
21
428.370000
0
LINE
8
VISIBLE
10
600.709000
20
507.608000
11
600.709000
21
497.703000
0
LINE
8
VISIBLE
10
600.709000
20
527.417000
11
600.709000
21
517.512000
0
LINE
8
VISIBLE
10
605.207000
20
537.322000
11
605.207000
21
527.417000
0
LINE
8
VISIBLE
10
591.208000
20
517.512000
11
591.208000
21
527.417000
0
LINE
8
VISIBLE
10
600.709000
20
477.894000
11
605.207000
21
477.894000
0
LINE
8
VISIBLE
10
591.208000
20
537.322000
11
591.208000
21
547.227000
0
LINE
8
VISIBLE
10
588.208000
20
443.227000
11
588.007038
21
443.977000
0
LINE
8
VISIBLE
10
588.007038
20
443.977000
11
587.458000
21
444.526038
0
LINE
8
VISIBLE
10
587.458000
20
444.526038
11
586.708000
21
444.727000
0
LINE
8
VISIBLE
10
586.708000
20
444.727000
11
585.958000
21
444.526038
0
LINE
8
VISIBLE
10
585.958000
20
444.526038
11
585.408962
21
443.977000
0
LINE
8
VISIBLE
10
585.408962
20
443.977000
11
585.208000
21
443.227000
0
LINE
8
VISIBLE
10
585.208000
20
443.227000
11
585.408962
21
442.477000
0
LINE
8
VISIBLE
10
585.408962
20
442.477000
11
585.958000
21
441.927962
0
LINE
8
VISIBLE
10
585.958000
20
441.927962
11
586.708000
21
441.727000
0
LINE
8
VISIBLE
10
586.708000
20
441.727000
11
587.458000
21
441.927962
0
LINE
8
VISIBLE
10
587.458000
20
441.927962
11
588.007038
21
442.477000
0
LINE
8
VISIBLE
10
588.007038
20
442.477000
11
588.208000
21
443.227000
0
LINE
8
VISIBLE
10
588.208000
20
443.227000
11
588.208000
21
443.227000
0
LINE
8
VISIBLE
10
599.708000
20
532.132000
11
599.547230
21
532.732000
0
LINE
8
VISIBLE
10
599.547230
20
532.732000
11
599.108000
21
533.171230
0
LINE
8
VISIBLE
10
599.108000
20
533.171230
11
598.508000
21
533.332000
0
LINE
8
VISIBLE
10
598.508000
20
533.332000
11
597.908000
21
533.171230
0
LINE
8
VISIBLE
10
597.908000
20
533.171230
11
597.468770
21
532.732000
0
LINE
8
VISIBLE
10
597.468770
20
532.732000
11
597.308000
21
532.132000
0
LINE
8
VISIBLE
10
597.308000
20
532.132000
11
597.468770
21
531.532000
0
LINE
8
VISIBLE
10
597.468770
20
531.532000
11
597.908000
21
531.092770
0
LINE
8
VISIBLE
10
597.908000
20
531.092770
11
598.508000
21
530.932000
0
LINE
8
VISIBLE
10
598.508000
20
530.932000
11
599.108000
21
531.092770
0
LINE
8
VISIBLE
10
599.108000
20
531.092770
11
599.547230
21
531.532000
0
LINE
8
VISIBLE
10
599.547230
20
531.532000
11
599.708000
21
532.132000
0
LINE
8
VISIBLE
10
599.708000
20
532.132000
11
599.708000
21
532.132000
0
LINE
8
VISIBLE
10
592.158000
20
340.582000
11
591.896750
21
341.557000
0
LINE
8
VISIBLE
10
591.896750
20
341.557000
11
591.183000
21
342.270750
0
LINE
8
VISIBLE
10
591.183000
20
342.270750
11
590.208000
21
342.532000
0
LINE
8
VISIBLE
10
590.208000
20
342.532000
11
589.233000
21
342.270750
0
LINE
8
VISIBLE
10
589.233000
20
342.270750
11
588.519250
21
341.557000
0
LINE
8
VISIBLE
10
588.519250
20
341.557000
11
588.258000
21
340.582000
0
LINE
8
VISIBLE
10
588.258000
20
340.582000
11
588.519250
21
339.607000
0
LINE
8
VISIBLE
10
588.519250
20
339.607000
11
589.233000
21
338.893250
0
LINE
8
VISIBLE
10
589.233000
20
338.893250
11
590.208000
21
338.632000
0
LINE
8
VISIBLE
10
590.208000
20
338.632000
11
591.183000
21
338.893250
0
LINE
8
VISIBLE
10
591.183000
20
338.893250
11
591.896750
21
339.607000
0
LINE
8
VISIBLE
10
591.896750
20
339.607000
11
592.158000
21
340.582000
0
LINE
8
VISIBLE
10
592.158000
20
340.582000
11
592.158000
21
340.582000
0
LINE
8
VISIBLE
10
679.208000
20
611.792000
11
678.946750
21
612.767000
0
LINE
8
VISIBLE
10
678.946750
20
612.767000
11
678.233000
21
613.480750
0
LINE
8
VISIBLE
10
678.233000
20
613.480750
11
677.258000
21
613.742000
0
LINE
8
VISIBLE
10
677.258000
20
613.742000
11
676.283000
21
613.480750
0
LINE
8
VISIBLE
10
676.283000
20
613.480750
11
675.569250
21
612.767000
0
LINE
8
VISIBLE
10
675.569250
20
612.767000
11
675.308000
21
611.792000
0
LINE
8
VISIBLE
10
675.308000
20
611.792000
11
675.461241
21
611.032972
0
LINE
8
VISIBLE
10
675.461241
20
611.032972
11
675.879142
21
610.413142
0
LINE
8
VISIBLE
10
675.879142
20
610.413142
11
676.498972
21
609.995241
0
LINE
8
VISIBLE
10
676.498972
20
609.995241
11
677.258000
21
609.842000
0
LINE
8
VISIBLE
10
677.258000
20
609.842000
11
678.017028
21
609.995241
0
LINE
8
VISIBLE
10
678.017028
20
609.995241
11
678.636858
21
610.413142
0
LINE
8
VISIBLE
10
678.636858
20
610.413142
11
679.054759
21
611.032972
0
LINE
8
VISIBLE
10
679.054759
20
611.032972
11
679.208000
21
611.792000
0
LINE
8
VISIBLE
10
679.208000
20
611.792000
11
679.208000
21
611.792000
0
LINE
8
VISIBLE
10
688.207000
20
609.459000
11
683.709000
21
609.459000
0
LINE
8
VISIBLE
10
688.207000
20
609.459000
11
688.207000
21
604.792000
0
LINE
8
VISIBLE
10
669.708000
20
610.792000
11
669.824352
21
609.615991
0
LINE
8
VISIBLE
10
669.824352
20
609.615991
11
670.164720
21
608.495898
0
LINE
8
VISIBLE
10
670.164720
20
608.495898
11
670.716067
21
607.463195
0
LINE
8
VISIBLE
10
670.716067
20
607.463195
11
671.465356
21
606.549356
0
LINE
8
VISIBLE
10
671.465356
20
606.549356
11
672.379195
21
605.800067
0
LINE
8
VISIBLE
10
672.379195
20
605.800067
11
673.411898
21
605.248720
0
LINE
8
VISIBLE
10
673.411898
20
605.248720
11
674.531991
21
604.908352
0
LINE
8
VISIBLE
10
674.531991
20
604.908352
11
675.708000
21
604.792000
0
LINE
8
VISIBLE
10
669.707000
20
612.790000
11
669.707000
21
610.793000
0
LINE
8
VISIBLE
10
675.708000
20
618.792000
11
674.531991
21
618.675648
0
LINE
8
VISIBLE
10
674.531991
20
618.675648
11
673.411898
21
618.335280
0
LINE
8
VISIBLE
10
673.411898
20
618.335280
11
672.379195
21
617.783933
0
LINE
8
VISIBLE
10
672.379195
20
617.783933
11
671.465356
21
617.034644
0
LINE
8
VISIBLE
10
671.465356
20
617.034644
11
670.716067
21
616.120805
0
LINE
8
VISIBLE
10
670.716067
20
616.120805
11
670.164720
21
615.088102
0
LINE
8
VISIBLE
10
670.164720
20
615.088102
11
669.824352
21
613.968009
0
LINE
8
VISIBLE
10
669.824352
20
613.968009
11
669.708000
21
612.792000
0
LINE
8
VISIBLE
10
688.207000
20
614.124000
11
683.709000
21
614.124000
0
LINE
8
VISIBLE
10
675.708000
20
604.792000
11
688.207000
21
604.792000
0
LINE
8
VISIBLE
10
675.708000
20
618.791000
11
688.207000
21
618.791000
0
LINE
8
VISIBLE
10
683.709000
20
614.124000
11
683.709000
21
609.459000
0
LINE
8
VISIBLE
10
688.207000
20
618.791000
11
688.207000
21
614.124000
0
LINE
8
VISIBLE
10
691.379000
20
538.372000
11
697.097000
21
538.372000
0
LINE
8
VISIBLE
10
697.097000
20
548.272000
11
691.379000
21
548.272000
0
LINE
8
VISIBLE
10
701.438000
20
543.322000
11
701.188763
21
545.200604
0
LINE
8
VISIBLE
10
701.188763
20
545.200604
11
700.473375
21
546.921995
0
LINE
8
VISIBLE
10
700.473375
20
546.921995
11
699.340299
21
548.402232
0
LINE
8
VISIBLE
10
699.340299
20
548.402232
11
697.837995
21
549.557374
0
LINE
8
VISIBLE
10
697.837995
20
549.557374
11
696.086460
21
550.280836
0
LINE
8
VISIBLE
10
696.086460
20
550.280836
11
694.238000
21
550.521990
0
LINE
8
VISIBLE
10
694.238000
20
550.521990
11
692.389540
21
550.280836
0
LINE
8
VISIBLE
10
692.389540
20
550.280836
11
690.638005
21
549.557374
0
LINE
8
VISIBLE
10
690.638005
20
549.557374
11
689.135701
21
548.402232
0
LINE
8
VISIBLE
10
689.135701
20
548.402232
11
688.002626
21
546.921995
0
LINE
8
VISIBLE
10
688.002626
20
546.921995
11
687.287241
21
545.200604
0
LINE
8
VISIBLE
10
687.287241
20
545.200604
11
687.038010
21
543.322000
0
LINE
8
VISIBLE
10
687.038010
20
543.322000
11
687.287244
21
541.443396
0
LINE
8
VISIBLE
10
687.287244
20
541.443396
11
688.002630
21
539.722005
0
LINE
8
VISIBLE
10
688.002630
20
539.722005
11
689.135706
21
538.241768
0
LINE
8
VISIBLE
10
689.135706
20
538.241768
11
690.638010
21
537.086626
0
LINE
8
VISIBLE
10
690.638010
20
537.086626
11
692.389545
21
536.363164
0
LINE
8
VISIBLE
10
692.389545
20
536.363164
11
694.238005
21
536.122010
0
LINE
8
VISIBLE
10
694.238005
20
536.122010
11
696.086465
21
536.363164
0
LINE
8
VISIBLE
10
696.086465
20
536.363164
11
697.838000
21
537.086626
0
LINE
8
VISIBLE
10
697.838000
20
537.086626
11
699.340304
21
538.241768
0
LINE
8
VISIBLE
10
699.340304
20
538.241768
11
700.473379
21
539.722005
0
LINE
8
VISIBLE
10
700.473379
20
539.722005
11
701.188764
21
541.443396
0
LINE
8
VISIBLE
10
701.188764
20
541.443396
11
701.437995
21
543.322000
0
LINE
8
VISIBLE
10
701.437995
20
543.322000
11
701.438000
21
543.322000
0
LINE
8
VISIBLE
10
699.954000
20
543.322000
11
697.097000
21
548.272000
0
LINE
8
VISIBLE
10
691.379000
20
548.272000
11
688.522000
21
543.322000
0
LINE
8
VISIBLE
10
688.522000
20
543.322000
11
691.379000
21
538.372000
0
LINE
8
VISIBLE
10
697.097000
20
538.372000
11
699.954000
21
543.322000
0
LINE
8
VISIBLE
10
937.208000
20
334.132000
11
937.973367
21
334.284241
0
LINE
8
VISIBLE
10
937.973367
20
334.284241
11
938.622214
21
334.717786
0
LINE
8
VISIBLE
10
938.622214
20
334.717786
11
939.055759
21
335.366633
0
LINE
8
VISIBLE
10
939.055759
20
335.366633
11
939.208000
21
336.132000
0
LINE
8
VISIBLE
10
934.708000
20
336.132000
11
934.860241
21
335.366633
0
LINE
8
VISIBLE
10
934.860241
20
335.366633
11
935.293786
21
334.717786
0
LINE
8
VISIBLE
10
935.293786
20
334.717786
11
935.942633
21
334.284241
0
LINE
8
VISIBLE
10
935.942633
20
334.284241
11
936.708000
21
334.132000
0
LINE
8
VISIBLE
10
936.708000
20
542.132000
11
935.942633
21
541.979759
0
LINE
8
VISIBLE
10
935.942633
20
541.979759
11
935.293786
21
541.546214
0
LINE
8
VISIBLE
10
935.293786
20
541.546214
11
934.860241
21
540.897367
0
LINE
8
VISIBLE
10
934.860241
20
540.897367
11
934.708000
21
540.132000
0
LINE
8
VISIBLE
10
934.708000
20
336.132000
11
934.708000
21
540.131000
0
LINE
8
VISIBLE
10
939.209000
20
336.132000
11
939.209000
21
540.131000
0
LINE
8
VISIBLE
10
936.708000
20
334.132000
11
937.209000
21
334.132000
0
LINE
8
VISIBLE
10
939.208000
20
540.132000
11
939.055759
21
540.897367
0
LINE
8
VISIBLE
10
939.055759
20
540.897367
11
938.622214
21
541.546214
0
LINE
8
VISIBLE
10
938.622214
20
541.546214
11
937.973367
21
541.979759
0
LINE
8
VISIBLE
10
937.973367
20
541.979759
11
937.208000
21
542.132000
0
LINE
8
VISIBLE
10
936.708000
20
542.131000
11
937.209000
21
542.131000
0
LINE
8
VISIBLE
10
662.152000
20
524.792000
11
662.051615
21
525.548661
0
LINE
8
VISIBLE
10
662.051615
20
525.548661
11
661.763474
21
526.242000
0
LINE
8
VISIBLE
10
661.763474
20
526.242000
11
661.307095
21
526.838207
0
LINE
8
VISIBLE
10
661.307095
20
526.838207
11
660.702000
21
527.303474
0
LINE
8
VISIBLE
10
660.702000
20
527.303474
11
659.996520
21
527.594868
0
LINE
8
VISIBLE
10
659.996520
20
527.594868
11
659.252000
21
527.692000
0
LINE
8
VISIBLE
10
659.252000
20
527.692000
11
658.507480
21
527.594868
0
LINE
8
VISIBLE
10
658.507480
20
527.594868
11
657.802000
21
527.303474
0
LINE
8
VISIBLE
10
657.802000
20
527.303474
11
657.196905
21
526.838207
0
LINE
8
VISIBLE
10
657.196905
20
526.838207
11
656.740526
21
526.242000
0
LINE
8
VISIBLE
10
656.740526
20
526.242000
11
656.452385
21
525.548661
0
LINE
8
VISIBLE
10
656.452385
20
525.548661
11
656.352000
21
524.792000
0
LINE
8
VISIBLE
10
656.352000
20
524.792000
11
656.452385
21
524.035339
0
LINE
8
VISIBLE
10
656.452385
20
524.035339
11
656.740526
21
523.342000
0
LINE
8
VISIBLE
10
656.740526
20
523.342000
11
657.196905
21
522.745793
0
LINE
8
VISIBLE
10
657.196905
20
522.745793
11
657.802000
21
522.280526
0
LINE
8
VISIBLE
10
657.802000
20
522.280526
11
658.507480
21
521.989132
0
LINE
8
VISIBLE
10
658.507480
20
521.989132
11
659.252000
21
521.892000
0
LINE
8
VISIBLE
10
659.252000
20
521.892000
11
659.996520
21
521.989132
0
LINE
8
VISIBLE
10
659.996520
20
521.989132
11
660.702000
21
522.280526
0
LINE
8
VISIBLE
10
660.702000
20
522.280526
11
661.307095
21
522.745793
0
LINE
8
VISIBLE
10
661.307095
20
522.745793
11
661.763474
21
523.342000
0
LINE
8
VISIBLE
10
661.763474
20
523.342000
11
662.051615
21
524.035339
0
LINE
8
VISIBLE
10
662.051615
20
524.035339
11
662.152000
21
524.792000
0
LINE
8
VISIBLE
10
662.152000
20
524.792000
11
662.152000
21
524.792000
0
LINE
8
VISIBLE
10
654.451000
20
517.292000
11
651.253000
21
517.292000
0
LINE
8
VISIBLE
10
651.253000
20
517.292000
11
651.253000
21
524.792000
0
LINE
8
VISIBLE
10
664.053000
20
512.792000
11
664.053000
21
517.292000
0
LINE
8
VISIBLE
10
660.852000
20
512.792000
11
664.053000
21
512.792000
0
LINE
8
VISIBLE
10
660.852000
20
512.792000
11
660.852000
21
517.292000
0
LINE
8
VISIBLE
10
660.852000
20
517.292000
11
657.653000
21
517.292000
0
LINE
8
VISIBLE
10
657.653000
20
512.792000
11
657.653000
21
517.292000
0
LINE
8
VISIBLE
10
654.451000
20
512.792000
11
657.653000
21
512.792000
0
LINE
8
VISIBLE
10
654.451000
20
512.792000
11
654.451000
21
517.292000
0
LINE
8
VISIBLE
10
667.252000
20
517.292000
11
667.252000
21
524.792000
0
LINE
8
VISIBLE
10
667.252000
20
517.292000
11
664.053000
21
517.292000
0
LINE
8
VISIBLE
10
667.252000
20
524.792000
11
666.975071
21
526.879339
0
LINE
8
VISIBLE
10
666.975071
20
526.879339
11
666.180196
21
528.791995
0
LINE
8
VISIBLE
10
666.180196
20
528.791995
11
664.921222
21
530.436703
0
LINE
8
VISIBLE
10
664.921222
20
530.436703
11
663.251995
21
531.720195
0
LINE
8
VISIBLE
10
663.251995
20
531.720195
11
661.305845
21
532.524041
0
LINE
8
VISIBLE
10
661.305845
20
532.524041
11
659.252000
21
532.791990
0
LINE
8
VISIBLE
10
659.252000
20
532.791990
11
657.198155
21
532.524041
0
LINE
8
VISIBLE
10
657.198155
20
532.524041
11
655.252005
21
531.720195
0
LINE
8
VISIBLE
10
655.252005
20
531.720195
11
653.582778
21
530.436703
0
LINE
8
VISIBLE
10
653.582778
20
530.436703
11
652.323805
21
528.791995
0
LINE
8
VISIBLE
10
652.323805
20
528.791995
11
651.528933
21
526.879339
0
LINE
8
VISIBLE
10
651.528933
20
526.879339
11
651.252010
21
524.792000
0
LINE
8
VISIBLE
10
668.252000
20
524.292000
11
668.252000
21
517.292000
0
LINE
8
VISIBLE
10
684.251000
20
517.292000
11
681.053000
21
517.292000
0
LINE
8
VISIBLE
10
681.053000
20
512.792000
11
681.053000
21
517.292000
0
LINE
8
VISIBLE
10
677.851000
20
512.792000
11
681.053000
21
512.792000
0
LINE
8
VISIBLE
10
677.851000
20
512.792000
11
677.851000
21
517.292000
0
LINE
8
VISIBLE
10
677.851000
20
517.292000
11
674.652000
21
517.292000
0
LINE
8
VISIBLE
10
674.652000
20
512.792000
11
674.652000
21
517.292000
0
LINE
8
VISIBLE
10
671.453000
20
512.792000
11
674.652000
21
512.792000
0
LINE
8
VISIBLE
10
671.453000
20
512.792000
11
671.453000
21
517.292000
0
LINE
8
VISIBLE
10
671.453000
20
517.292000
11
668.252000
21
517.292000
0
LINE
8
VISIBLE
10
679.152000
20
525.292000
11
679.051615
21
526.048661
0
LINE
8
VISIBLE
10
679.051615
20
526.048661
11
678.763474
21
526.742000
0
LINE
8
VISIBLE
10
678.763474
20
526.742000
11
678.307095
21
527.338207
0
LINE
8
VISIBLE
10
678.307095
20
527.338207
11
677.702000
21
527.803474
0
LINE
8
VISIBLE
10
677.702000
20
527.803474
11
676.996520
21
528.094868
0
LINE
8
VISIBLE
10
676.996520
20
528.094868
11
676.252000
21
528.192000
0
LINE
8
VISIBLE
10
676.252000
20
528.192000
11
675.507480
21
528.094868
0
LINE
8
VISIBLE
10
675.507480
20
528.094868
11
674.802000
21
527.803474
0
LINE
8
VISIBLE
10
674.802000
20
527.803474
11
674.196905
21
527.338207
0
LINE
8
VISIBLE
10
674.196905
20
527.338207
11
673.740526
21
526.742000
0
LINE
8
VISIBLE
10
673.740526
20
526.742000
11
673.452385
21
526.048661
0
LINE
8
VISIBLE
10
673.452385
20
526.048661
11
673.352000
21
525.292000
0
LINE
8
VISIBLE
10
673.352000
20
525.292000
11
673.452385
21
524.535339
0
LINE
8
VISIBLE
10
673.452385
20
524.535339
11
673.740526
21
523.842000
0
LINE
8
VISIBLE
10
673.740526
20
523.842000
11
674.196905
21
523.245793
0
LINE
8
VISIBLE
10
674.196905
20
523.245793
11
674.802000
21
522.780526
0
LINE
8
VISIBLE
10
674.802000
20
522.780526
11
675.507480
21
522.489132
0
LINE
8
VISIBLE
10
675.507480
20
522.489132
11
676.252000
21
522.392000
0
LINE
8
VISIBLE
10
676.252000
20
522.392000
11
676.996520
21
522.489132
0
LINE
8
VISIBLE
10
676.996520
20
522.489132
11
677.702000
21
522.780526
0
LINE
8
VISIBLE
10
677.702000
20
522.780526
11
678.307095
21
523.245793
0
LINE
8
VISIBLE
10
678.307095
20
523.245793
11
678.763474
21
523.842000
0
LINE
8
VISIBLE
10
678.763474
20
523.842000
11
679.051615
21
524.535339
0
LINE
8
VISIBLE
10
679.051615
20
524.535339
11
679.152000
21
525.292000
0
LINE
8
VISIBLE
10
679.152000
20
525.292000
11
679.152000
21
525.292000
0
LINE
8
VISIBLE
10
684.252000
20
524.292000
11
683.975071
21
526.379339
0
LINE
8
VISIBLE
10
683.975071
20
526.379339
11
683.180196
21
528.291995
0
LINE
8
VISIBLE
10
683.180196
20
528.291995
11
681.921222
21
529.936703
0
LINE
8
VISIBLE
10
681.921222
20
529.936703
11
680.251995
21
531.220195
0
LINE
8
VISIBLE
10
680.251995
20
531.220195
11
678.305845
21
532.024041
0
LINE
8
VISIBLE
10
678.305845
20
532.024041
11
676.252000
21
532.291990
0
LINE
8
VISIBLE
10
676.252000
20
532.291990
11
674.198155
21
532.024041
0
LINE
8
VISIBLE
10
674.198155
20
532.024041
11
672.252005
21
531.220195
0
LINE
8
VISIBLE
10
672.252005
20
531.220195
11
670.582778
21
529.936703
0
LINE
8
VISIBLE
10
670.582778
20
529.936703
11
669.323805
21
528.291995
0
LINE
8
VISIBLE
10
669.323805
20
528.291995
11
668.528933
21
526.379339
0
LINE
8
VISIBLE
10
668.528933
20
526.379339
11
668.252010
21
524.292000
0
LINE
8
VISIBLE
10
684.251000
20
524.292000
11
684.251000
21
517.292000
0
LINE
8
VISIBLE
10
700.208000
20
413.632000
11
699.325993
21
413.544736
0
LINE
8
VISIBLE
10
699.325993
20
413.544736
11
698.485923
21
413.289461
0
LINE
8
VISIBLE
10
698.485923
20
413.289461
11
697.711395
21
412.875950
0
LINE
8
VISIBLE
10
697.711395
20
412.875950
11
697.026017
21
412.313983
0
LINE
8
VISIBLE
10
697.026017
20
412.313983
11
696.464050
21
411.628605
0
LINE
8
VISIBLE
10
696.464050
20
411.628605
11
696.050539
21
410.854077
0
LINE
8
VISIBLE
10
696.050539
20
410.854077
11
695.795264
21
410.014007
0
LINE
8
VISIBLE
10
695.795264
20
410.014007
11
695.708000
21
409.132000
0
LINE
8
VISIBLE
10
700.208000
20
413.632000
11
703.709000
21
413.632000
0
LINE
8
VISIBLE
10
703.709000
20
413.632000
11
703.709000
21
409.132000
0
LINE
8
VISIBLE
10
707.209000
20
409.132000
11
703.709000
21
409.132000
0
LINE
8
VISIBLE
10
703.709000
20
404.632000
11
703.709000
21
400.132000
0
LINE
8
VISIBLE
10
700.208000
20
400.132000
11
703.709000
21
400.132000
0
LINE
8
VISIBLE
10
701.958000
20
406.882000
11
701.862807
21
407.599524
0
LINE
8
VISIBLE
10
701.862807
20
407.599524
11
701.589570
21
408.257000
0
LINE
8
VISIBLE
10
701.589570
20
408.257000
11
701.156797
21
408.822369
0
LINE
8
VISIBLE
10
701.156797
20
408.822369
11
700.583000
21
409.263570
0
LINE
8
VISIBLE
10
700.583000
20
409.263570
11
699.914010
21
409.539892
0
LINE
8
VISIBLE
10
699.914010
20
409.539892
11
699.208000
21
409.632000
0
LINE
8
VISIBLE
10
699.208000
20
409.632000
11
698.501990
21
409.539892
0
LINE
8
VISIBLE
10
698.501990
20
409.539892
11
697.833000
21
409.263570
0
LINE
8
VISIBLE
10
697.833000
20
409.263570
11
697.259203
21
408.822369
0
LINE
8
VISIBLE
10
697.259203
20
408.822369
11
696.826430
21
408.257000
0
LINE
8
VISIBLE
10
696.826430
20
408.257000
11
696.553193
21
407.599524
0
LINE
8
VISIBLE
10
696.553193
20
407.599524
11
696.458000
21
406.882000
0
LINE
8
VISIBLE
10
696.458000
20
406.882000
11
696.553193
21
406.164476
0
LINE
8
VISIBLE
10
696.553193
20
406.164476
11
696.826430
21
405.507000
0
LINE
8
VISIBLE
10
696.826430
20
405.507000
11
697.259203
21
404.941631
0
LINE
8
VISIBLE
10
697.259203
20
404.941631
11
697.833000
21
404.500430
0
LINE
8
VISIBLE
10
697.833000
20
404.500430
11
698.501990
21
404.224108
0
LINE
8
VISIBLE
10
698.501990
20
404.224108
11
699.208000
21
404.132000
0
LINE
8
VISIBLE
10
699.208000
20
404.132000
11
699.914010
21
404.224108
0
LINE
8
VISIBLE
10
699.914010
20
404.224108
11
700.583000
21
404.500430
0
LINE
8
VISIBLE
10
700.583000
20
404.500430
11
701.156797
21
404.941631
0
LINE
8
VISIBLE
10
701.156797
20
404.941631
11
701.589570
21
405.507000
0
LINE
8
VISIBLE
10
701.589570
20
405.507000
11
701.862807
21
406.164476
0
LINE
8
VISIBLE
10
701.862807
20
406.164476
11
701.958000
21
406.882000
0
LINE
8
VISIBLE
10
701.958000
20
406.882000
11
701.958000
21
406.882000
0
LINE
8
VISIBLE
10
695.708000
20
409.132000
11
695.708000
21
404.632000
0
LINE
8
VISIBLE
10
707.209000
20
404.632000
11
703.709000
21
404.632000
0
LINE
8
VISIBLE
10
707.209000
20
409.132000
11
707.209000
21
404.632000
0
LINE
8
VISIBLE
10
695.708000
20
404.632000
11
695.795264
21
403.749993
0
LINE
8
VISIBLE
10
695.795264
20
403.749993
11
696.050539
21
402.909923
0
LINE
8
VISIBLE
10
696.050539
20
402.909923
11
696.464050
21
402.135395
0
LINE
8
VISIBLE
10
696.464050
20
402.135395
11
697.026017
21
401.450017
0
LINE
8
VISIBLE
10
697.026017
20
401.450017
11
697.711395
21
400.888050
0
LINE
8
VISIBLE
10
697.711395
20
400.888050
11
698.485923
21
400.474539
0
LINE
8
VISIBLE
10
698.485923
20
400.474539
11
699.325993
21
400.219264
0
LINE
8
VISIBLE
10
699.325993
20
400.219264
11
700.208000
21
400.132000
0
LINE
8
VISIBLE
10
700.708000
20
406.882000
11
700.507038
21
407.632000
0
LINE
8
VISIBLE
10
700.507038
20
407.632000
11
699.958000
21
408.181038
0
LINE
8
VISIBLE
10
699.958000
20
408.181038
11
699.208000
21
408.382000
0
LINE
8
VISIBLE
10
699.208000
20
408.382000
11
698.458000
21
408.181038
0
LINE
8
VISIBLE
10
698.458000
20
408.181038
11
697.908962
21
407.632000
0
LINE
8
VISIBLE
10
697.908962
20
407.632000
11
697.708000
21
406.882000
0
LINE
8
VISIBLE
10
697.708000
20
406.882000
11
697.908962
21
406.132000
0
LINE
8
VISIBLE
10
697.908962
20
406.132000
11
698.458000
21
405.582962
0
LINE
8
VISIBLE
10
698.458000
20
405.582962
11
699.208000
21
405.382000
0
LINE
8
VISIBLE
10
699.208000
20
405.382000
11
699.958000
21
405.582962
0
LINE
8
VISIBLE
10
699.958000
20
405.582962
11
700.507038
21
406.132000
0
LINE
8
VISIBLE
10
700.507038
20
406.132000
11
700.708000
21
406.882000
0
LINE
8
VISIBLE
10
700.708000
20
406.882000
11
700.708000
21
406.882000
0
LINE
8
VISIBLE
10
803.208000
20
411.016000
11
803.208000
21
420.286000
0
LINE
8
VISIBLE
10
798.707000
20
411.016000
11
803.208000
21
411.016000
0
LINE
8
VISIBLE
10
798.707000
20
411.016000
11
798.707000
21
420.286000
0
LINE
8
VISIBLE
10
798.707000
20
420.286000
11
803.208000
21
420.286000
0
LINE
8
VISIBLE
10
803.208000
20
334.132000
11
803.208000
21
346.132000
0
LINE
8
VISIBLE
10
798.707000
20
334.132000
11
803.208000
21
334.132000
0
LINE
8
VISIBLE
10
798.707000
20
334.132000
11
798.707000
21
346.132000
0
LINE
8
VISIBLE
10
798.707000
20
346.132000
11
803.208000
21
346.132000
0
LINE
8
VISIBLE
10
803.208000
20
429.555000
11
803.208000
21
438.824000
0
LINE
8
VISIBLE
10
798.707000
20
429.555000
11
803.208000
21
429.555000
0
LINE
8
VISIBLE
10
798.707000
20
429.555000
11
798.707000
21
438.824000
0
LINE
8
VISIBLE
10
798.707000
20
438.824000
11
803.208000
21
438.824000
0
LINE
8
VISIBLE
10
798.707000
20
478.631000
11
803.208000
21
478.631000
0
LINE
8
VISIBLE
10
803.208000
20
466.632000
11
803.208000
21
478.631000
0
LINE
8
VISIBLE
10
798.707000
20
466.632000
11
803.208000
21
466.632000
0
LINE
8
VISIBLE
10
798.707000
20
466.632000
11
798.707000
21
478.631000
0
LINE
8
VISIBLE
10
803.208000
20
373.939000
11
803.208000
21
383.209000
0
LINE
8
VISIBLE
10
798.707000
20
373.939000
11
798.707000
21
383.209000
0
LINE
8
VISIBLE
10
798.707000
20
383.209000
11
803.208000
21
383.209000
0
LINE
8
VISIBLE
10
798.707000
20
373.939000
11
803.208000
21
373.939000
0
LINE
8
VISIBLE
10
798.707000
20
401.747000
11
803.208000
21
401.747000
0
LINE
8
VISIBLE
10
803.208000
20
392.478000
11
803.208000
21
401.747000
0
LINE
8
VISIBLE
10
798.707000
20
392.478000
11
798.707000
21
401.747000
0
LINE
8
VISIBLE
10
798.707000
20
392.478000
11
803.208000
21
392.478000
0
LINE
8
VISIBLE
10
798.707000
20
457.362000
11
803.208000
21
457.362000
0
LINE
8
VISIBLE
10
803.208000
20
448.093000
11
803.208000
21
457.362000
0
LINE
8
VISIBLE
10
798.707000
20
448.093000
11
798.707000
21
457.362000
0
LINE
8
VISIBLE
10
798.707000
20
448.093000
11
803.208000
21
448.093000
0
LINE
8
VISIBLE
10
798.707000
20
355.401000
11
798.707000
21
364.670000
0
LINE
8
VISIBLE
10
803.208000
20
355.401000
11
803.208000
21
364.670000
0
LINE
8
VISIBLE
10
798.707000
20
355.401000
11
803.208000
21
355.401000
0
LINE
8
VISIBLE
10
798.707000
20
364.670000
11
803.208000
21
364.670000
0
LINE
8
VISIBLE
10
798.707000
20
457.362000
11
798.707000
21
466.632000
0
LINE
8
VISIBLE
10
803.208000
20
457.362000
11
803.208000
21
466.632000
0
LINE
8
VISIBLE
10
798.707000
20
401.747000
11
798.707000
21
411.016000
0
LINE
8
VISIBLE
10
803.208000
20
401.747000
11
803.208000
21
411.016000
0
LINE
8
VISIBLE
10
798.707000
20
346.132000
11
798.707000
21
355.401000
0
LINE
8
VISIBLE
10
803.208000
20
346.132000
11
803.208000
21
355.401000
0
LINE
8
VISIBLE
10
798.707000
20
364.670000
11
798.707000
21
373.939000
0
LINE
8
VISIBLE
10
803.208000
20
364.670000
11
803.208000
21
373.939000
0
LINE
8
VISIBLE
10
798.707000
20
383.209000
11
798.707000
21
392.478000
0
LINE
8
VISIBLE
10
803.208000
20
383.209000
11
803.208000
21
392.478000
0
LINE
8
VISIBLE
10
798.707000
20
420.286000
11
798.707000
21
429.555000
0
LINE
8
VISIBLE
10
803.208000
20
420.286000
11
803.208000
21
429.555000
0
LINE
8
VISIBLE
10
798.707000
20
438.824000
11
798.707000
21
448.093000
0
LINE
8
VISIBLE
10
803.208000
20
438.824000
11
803.208000
21
448.093000
0
LINE
8
VISIBLE
10
684.252000
20
500.962000
11
683.975071
21
503.049339
0
LINE
8
VISIBLE
10
683.975071
20
503.049339
11
683.180196
21
504.961995
0
LINE
8
VISIBLE
10
683.180196
20
504.961995
11
681.921222
21
506.606703
0
LINE
8
VISIBLE
10
681.921222
20
506.606703
11
680.251995
21
507.890195
0
LINE
8
VISIBLE
10
680.251995
20
507.890195
11
678.305845
21
508.694041
0
LINE
8
VISIBLE
10
678.305845
20
508.694041
11
676.252000
21
508.961990
0
LINE
8
VISIBLE
10
676.252000
20
508.961990
11
674.198155
21
508.694041
0
LINE
8
VISIBLE
10
674.198155
20
508.694041
11
672.252005
21
507.890195
0
LINE
8
VISIBLE
10
672.252005
20
507.890195
11
670.582778
21
506.606703
0
LINE
8
VISIBLE
10
670.582778
20
506.606703
11
669.323805
21
504.961995
0
LINE
8
VISIBLE
10
669.323805
20
504.961995
11
668.528933
21
503.049339
0
LINE
8
VISIBLE
10
668.528933
20
503.049339
11
668.252010
21
500.962000
0
LINE
8
VISIBLE
10
684.251000
20
500.962000
11
684.251000
21
493.962000
0
LINE
8
VISIBLE
10
684.251000
20
493.962000
11
681.053000
21
493.962000
0
LINE
8
VISIBLE
10
677.851000
20
489.462000
11
681.053000
21
489.462000
0
LINE
8
VISIBLE
10
677.851000
20
489.462000
11
677.851000
21
493.962000
0
LINE
8
VISIBLE
10
674.652000
20
489.462000
11
674.652000
21
493.962000
0
LINE
8
VISIBLE
10
671.453000
20
489.462000
11
674.652000
21
489.462000
0
LINE
8
VISIBLE
10
671.453000
20
489.462000
11
671.453000
21
493.962000
0
LINE
8
VISIBLE
10
671.453000
20
493.962000
11
668.252000
21
493.962000
0
LINE
8
VISIBLE
10
679.152000
20
501.962000
11
679.051615
21
502.718661
0
LINE
8
VISIBLE
10
679.051615
20
502.718661
11
678.763474
21
503.412000
0
LINE
8
VISIBLE
10
678.763474
20
503.412000
11
678.307095
21
504.008207
0
LINE
8
VISIBLE
10
678.307095
20
504.008207
11
677.702000
21
504.473474
0
LINE
8
VISIBLE
10
677.702000
20
504.473474
11
676.996520
21
504.764868
0
LINE
8
VISIBLE
10
676.996520
20
504.764868
11
676.252000
21
504.862000
0
LINE
8
VISIBLE
10
676.252000
20
504.862000
11
675.507480
21
504.764868
0
LINE
8
VISIBLE
10
675.507480
20
504.764868
11
674.802000
21
504.473474
0
LINE
8
VISIBLE
10
674.802000
20
504.473474
11
674.196905
21
504.008207
0
LINE
8
VISIBLE
10
674.196905
20
504.008207
11
673.740526
21
503.412000
0
LINE
8
VISIBLE
10
673.740526
20
503.412000
11
673.452385
21
502.718661
0
LINE
8
VISIBLE
10
673.452385
20
502.718661
11
673.352000
21
501.962000
0
LINE
8
VISIBLE
10
673.352000
20
501.962000
11
673.452385
21
501.205339
0
LINE
8
VISIBLE
10
673.452385
20
501.205339
11
673.740526
21
500.512000
0
LINE
8
VISIBLE
10
673.740526
20
500.512000
11
674.196905
21
499.915793
0
LINE
8
VISIBLE
10
674.196905
20
499.915793
11
674.802000
21
499.450526
0
LINE
8
VISIBLE
10
674.802000
20
499.450526
11
675.507480
21
499.159132
0
LINE
8
VISIBLE
10
675.507480
20
499.159132
11
676.252000
21
499.062000
0
LINE
8
VISIBLE
10
676.252000
20
499.062000
11
676.996520
21
499.159132
0
LINE
8
VISIBLE
10
676.996520
20
499.159132
11
677.702000
21
499.450526
0
LINE
8
VISIBLE
10
677.702000
20
499.450526
11
678.307095
21
499.915793
0
LINE
8
VISIBLE
10
678.307095
20
499.915793
11
678.763474
21
500.512000
0
LINE
8
VISIBLE
10
678.763474
20
500.512000
11
679.051615
21
501.205339
0
LINE
8
VISIBLE
10
679.051615
20
501.205339
11
679.152000
21
501.962000
0
LINE
8
VISIBLE
10
679.152000
20
501.962000
11
679.152000
21
501.962000
0
LINE
8
VISIBLE
10
681.053000
20
489.462000
11
681.053000
21
493.962000
0
LINE
8
VISIBLE
10
677.851000
20
493.962000
11
674.652000
21
493.962000
0
LINE
8
VISIBLE
10
668.252000
20
500.962000
11
668.252000
21
493.962000
0
LINE
8
VISIBLE
10
662.152000
20
478.132000
11
662.051615
21
478.888661
0
LINE
8
VISIBLE
10
662.051615
20
478.888661
11
661.763474
21
479.582000
0
LINE
8
VISIBLE
10
661.763474
20
479.582000
11
661.307095
21
480.178207
0
LINE
8
VISIBLE
10
661.307095
20
480.178207
11
660.702000
21
480.643474
0
LINE
8
VISIBLE
10
660.702000
20
480.643474
11
659.996520
21
480.934868
0
LINE
8
VISIBLE
10
659.996520
20
480.934868
11
659.252000
21
481.032000
0
LINE
8
VISIBLE
10
659.252000
20
481.032000
11
658.507480
21
480.934868
0
LINE
8
VISIBLE
10
658.507480
20
480.934868
11
657.802000
21
480.643474
0
LINE
8
VISIBLE
10
657.802000
20
480.643474
11
657.196905
21
480.178207
0
LINE
8
VISIBLE
10
657.196905
20
480.178207
11
656.740526
21
479.582000
0
LINE
8
VISIBLE
10
656.740526
20
479.582000
11
656.452385
21
478.888661
0
LINE
8
VISIBLE
10
656.452385
20
478.888661
11
656.352000
21
478.132000
0
LINE
8
VISIBLE
10
656.352000
20
478.132000
11
656.452385
21
477.375339
0
LINE
8
VISIBLE
10
656.452385
20
477.375339
11
656.740526
21
476.682000
0
LINE
8
VISIBLE
10
656.740526
20
476.682000
11
657.196905
21
476.085793
0
LINE
8
VISIBLE
10
657.196905
20
476.085793
11
657.802000
21
475.620526
0
LINE
8
VISIBLE
10
657.802000
20
475.620526
11
658.507480
21
475.329132
0
LINE
8
VISIBLE
10
658.507480
20
475.329132
11
659.252000
21
475.232000
0
LINE
8
VISIBLE
10
659.252000
20
475.232000
11
659.996520
21
475.329132
0
LINE
8
VISIBLE
10
659.996520
20
475.329132
11
660.702000
21
475.620526
0
LINE
8
VISIBLE
10
660.702000
20
475.620526
11
661.307095
21
476.085793
0
LINE
8
VISIBLE
10
661.307095
20
476.085793
11
661.763474
21
476.682000
0
LINE
8
VISIBLE
10
661.763474
20
476.682000
11
662.051615
21
477.375339
0
LINE
8
VISIBLE
10
662.051615
20
477.375339
11
662.152000
21
478.132000
0
LINE
8
VISIBLE
10
662.152000
20
478.132000
11
662.152000
21
478.132000
0
LINE
8
VISIBLE
10
667.252000
20
478.132000
11
666.975071
21
480.219339
0
LINE
8
VISIBLE
10
666.975071
20
480.219339
11
666.180196
21
482.131995
0
LINE
8
VISIBLE
10
666.180196
20
482.131995
11
664.921222
21
483.776703
0
LINE
8
VISIBLE
10
664.921222
20
483.776703
11
663.251995
21
485.060195
0
LINE
8
VISIBLE
10
663.251995
20
485.060195
11
661.305845
21
485.864041
0
LINE
8
VISIBLE
10
661.305845
20
485.864041
11
659.252000
21
486.131990
0
LINE
8
VISIBLE
10
659.252000
20
486.131990
11
657.198155
21
485.864041
0
LINE
8
VISIBLE
10
657.198155
20
485.864041
11
655.252005
21
485.060195
0
LINE
8
VISIBLE
10
655.252005
20
485.060195
11
653.582778
21
483.776703
0
LINE
8
VISIBLE
10
653.582778
20
483.776703
11
652.323805
21
482.131995
0
LINE
8
VISIBLE
10
652.323805
20
482.131995
11
651.528933
21
480.219339
0
LINE
8
VISIBLE
10
651.528933
20
480.219339
11
651.252010
21
478.132000
0
LINE
8
VISIBLE
10
667.252000
20
470.632000
11
667.252000
21
478.132000
0
LINE
8
VISIBLE
10
667.252000
20
470.632000
11
664.053000
21
470.632000
0
LINE
8
VISIBLE
10
664.053000
20
466.132000
11
664.053000
21
470.632000
0
LINE
8
VISIBLE
10
660.852000
20
466.132000
11
664.053000
21
466.132000
0
LINE
8
VISIBLE
10
660.852000
20
466.132000
11
660.852000
21
470.632000
0
LINE
8
VISIBLE
10
660.852000
20
470.632000
11
657.653000
21
470.632000
0
LINE
8
VISIBLE
10
657.653000
20
466.132000
11
657.653000
21
470.632000
0
LINE
8
VISIBLE
10
654.451000
20
466.132000
11
657.653000
21
466.132000
0
LINE
8
VISIBLE
10
654.451000
20
466.132000
11
654.451000
21
470.632000
0
LINE
8
VISIBLE
10
651.253000
20
470.632000
11
651.253000
21
478.132000
0
LINE
8
VISIBLE
10
654.451000
20
470.632000
11
651.253000
21
470.632000
0
LINE
8
VISIBLE
10
703.709000
20
386.632000
11
703.709000
21
391.132000
0
LINE
8
VISIBLE
10
707.209000
20
386.632000
11
703.709000
21
386.632000
0
LINE
8
VISIBLE
10
707.209000
20
382.132000
11
707.209000
21
386.632000
0
LINE
8
VISIBLE
10
707.209000
20
382.132000
11
703.709000
21
382.132000
0
LINE
8
VISIBLE
10
703.709000
20
377.632000
11
703.709000
21
382.132000
0
LINE
8
VISIBLE
10
700.208000
20
377.632000
11
703.709000
21
377.632000
0
LINE
8
VISIBLE
10
695.708000
20
382.132000
11
695.795264
21
381.249993
0
LINE
8
VISIBLE
10
695.795264
20
381.249993
11
696.050539
21
380.409923
0
LINE
8
VISIBLE
10
696.050539
20
380.409923
11
696.464050
21
379.635395
0
LINE
8
VISIBLE
10
696.464050
20
379.635395
11
697.026017
21
378.950017
0
LINE
8
VISIBLE
10
697.026017
20
378.950017
11
697.711395
21
378.388050
0
LINE
8
VISIBLE
10
697.711395
20
378.388050
11
698.485923
21
377.974539
0
LINE
8
VISIBLE
10
698.485923
20
377.974539
11
699.325993
21
377.719264
0
LINE
8
VISIBLE
10
699.325993
20
377.719264
11
700.208000
21
377.632000
0
LINE
8
VISIBLE
10
700.208000
20
391.132000
11
703.709000
21
391.132000
0
LINE
8
VISIBLE
10
696.409000
20
382.765000
11
699.208000
21
381.149000
0
LINE
8
VISIBLE
10
702.007000
20
385.998000
11
699.208000
21
387.615000
0
LINE
8
VISIBLE
10
700.208000
20
391.132000
11
699.325993
21
391.044736
0
LINE
8
VISIBLE
10
699.325993
20
391.044736
11
698.485923
21
390.789461
0
LINE
8
VISIBLE
10
698.485923
20
390.789461
11
697.711395
21
390.375950
0
LINE
8
VISIBLE
10
697.711395
20
390.375950
11
697.026017
21
389.813983
0
LINE
8
VISIBLE
10
697.026017
20
389.813983
11
696.464050
21
389.128605
0
LINE
8
VISIBLE
10
696.464050
20
389.128605
11
696.050539
21
388.354077
0
LINE
8
VISIBLE
10
696.050539
20
388.354077
11
695.795264
21
387.514007
0
LINE
8
VISIBLE
10
695.795264
20
387.514007
11
695.708000
21
386.632000
0
LINE
8
VISIBLE
10
696.409000
20
385.998000
11
696.409000
21
382.765000
0
LINE
8
VISIBLE
10
699.208000
20
381.149000
11
702.007000
21
382.765000
0
LINE
8
VISIBLE
10
695.708000
20
382.132000
11
695.708000
21
386.632000
0
LINE
8
VISIBLE
10
702.007000
20
382.765000
11
702.007000
21
385.998000
0
LINE
8
VISIBLE
10
699.208000
20
387.615000
11
696.409000
21
385.998000
0
LINE
8
VISIBLE
10
700.708000
20
384.382000
11
700.507038
21
385.132000
0
LINE
8
VISIBLE
10
700.507038
20
385.132000
11
699.958000
21
385.681038
0
LINE
8
VISIBLE
10
699.958000
20
385.681038
11
699.208000
21
385.882000
0
LINE
8
VISIBLE
10
699.208000
20
385.882000
11
698.458000
21
385.681038
0
LINE
8
VISIBLE
10
698.458000
20
385.681038
11
697.908962
21
385.132000
0
LINE
8
VISIBLE
10
697.908962
20
385.132000
11
697.708000
21
384.382000
0
LINE
8
VISIBLE
10
697.708000
20
384.382000
11
697.908962
21
383.632000
0
LINE
8
VISIBLE
10
697.908962
20
383.632000
11
698.458000
21
383.082962
0
LINE
8
VISIBLE
10
698.458000
20
383.082962
11
699.208000
21
382.882000
0
LINE
8
VISIBLE
10
699.208000
20
382.882000
11
699.958000
21
383.082962
0
LINE
8
VISIBLE
10
699.958000
20
383.082962
11
700.507038
21
383.632000
0
LINE
8
VISIBLE
10
700.507038
20
383.632000
11
700.708000
21
384.382000
0
LINE
8
VISIBLE
10
700.708000
20
384.382000
11
700.708000
21
384.382000
0
LINE
8
VISIBLE
10
686.252000
20
562.631000
11
683.053000
21
562.631000
0
LINE
8
VISIBLE
10
683.053000
20
558.132000
11
683.053000
21
562.631000
0
LINE
8
VISIBLE
10
679.851000
20
558.132000
11
683.053000
21
558.132000
0
LINE
8
VISIBLE
10
679.851000
20
558.132000
11
679.851000
21
562.631000
0
LINE
8
VISIBLE
10
679.851000
20
562.631000
11
676.653000
21
562.631000
0
LINE
8
VISIBLE
10
676.653000
20
558.132000
11
676.653000
21
562.631000
0
LINE
8
VISIBLE
10
673.451000
20
558.132000
11
676.653000
21
558.132000
0
LINE
8
VISIBLE
10
673.451000
20
558.132000
11
673.451000
21
562.631000
0
LINE
8
VISIBLE
10
673.451000
20
562.631000
11
670.252000
21
562.631000
0
LINE
8
VISIBLE
10
670.252000
20
569.632000
11
670.252000
21
562.631000
0
LINE
8
VISIBLE
10
686.252000
20
569.632000
11
686.252000
21
562.631000
0
LINE
8
VISIBLE
10
686.252000
20
569.631000
11
685.975071
21
571.718339
0
LINE
8
VISIBLE
10
685.975071
20
571.718339
11
685.180196
21
573.630995
0
LINE
8
VISIBLE
10
685.180196
20
573.630995
11
683.921222
21
575.275703
0
LINE
8
VISIBLE
10
683.921222
20
575.275703
11
682.251995
21
576.559195
0
LINE
8
VISIBLE
10
682.251995
20
576.559195
11
680.305845
21
577.363041
0
LINE
8
VISIBLE
10
680.305845
20
577.363041
11
678.252000
21
577.630990
0
LINE
8
VISIBLE
10
678.252000
20
577.630990
11
676.198155
21
577.363041
0
LINE
8
VISIBLE
10
676.198155
20
577.363041
11
674.252005
21
576.559195
0
LINE
8
VISIBLE
10
674.252005
20
576.559195
11
672.582778
21
575.275703
0
LINE
8
VISIBLE
10
672.582778
20
575.275703
11
671.323805
21
573.630995
0
LINE
8
VISIBLE
10
671.323805
20
573.630995
11
670.528933
21
571.718339
0
LINE
8
VISIBLE
10
670.528933
20
571.718339
11
670.252010
21
569.631000
0
LINE
8
VISIBLE
10
681.152000
20
570.631000
11
681.051615
21
571.387661
0
LINE
8
VISIBLE
10
681.051615
20
571.387661
11
680.763474
21
572.081000
0
LINE
8
VISIBLE
10
680.763474
20
572.081000
11
680.307095
21
572.677207
0
LINE
8
VISIBLE
10
680.307095
20
572.677207
11
679.702000
21
573.142474
0
LINE
8
VISIBLE
10
679.702000
20
573.142474
11
678.996520
21
573.433868
0
LINE
8
VISIBLE
10
678.996520
20
573.433868
11
678.252000
21
573.531000
0
LINE
8
VISIBLE
10
678.252000
20
573.531000
11
677.507480
21
573.433868
0
LINE
8
VISIBLE
10
677.507480
20
573.433868
11
676.802000
21
573.142474
0
LINE
8
VISIBLE
10
676.802000
20
573.142474
11
676.196905
21
572.677207
0
LINE
8
VISIBLE
10
676.196905
20
572.677207
11
675.740526
21
572.081000
0
LINE
8
VISIBLE
10
675.740526
20
572.081000
11
675.452385
21
571.387661
0
LINE
8
VISIBLE
10
675.452385
20
571.387661
11
675.352000
21
570.631000
0
LINE
8
VISIBLE
10
675.352000
20
570.631000
11
675.452385
21
569.874339
0
LINE
8
VISIBLE
10
675.452385
20
569.874339
11
675.740526
21
569.181000
0
LINE
8
VISIBLE
10
675.740526
20
569.181000
11
676.196905
21
568.584793
0
LINE
8
VISIBLE
10
676.196905
20
568.584793
11
676.802000
21
568.119526
0
LINE
8
VISIBLE
10
676.802000
20
568.119526
11
677.507480
21
567.828132
0
LINE
8
VISIBLE
10
677.507480
20
567.828132
11
678.252000
21
567.731000
0
LINE
8
VISIBLE
10
678.252000
20
567.731000
11
678.996520
21
567.828132
0
LINE
8
VISIBLE
10
678.996520
20
567.828132
11
679.702000
21
568.119526
0
LINE
8
VISIBLE
10
679.702000
20
568.119526
11
680.307095
21
568.584793
0
LINE
8
VISIBLE
10
680.307095
20
568.584793
11
680.763474
21
569.181000
0
LINE
8
VISIBLE
10
680.763474
20
569.181000
11
681.051615
21
569.874339
0
LINE
8
VISIBLE
10
681.051615
20
569.874339
11
681.152000
21
570.631000
0
LINE
8
VISIBLE
10
681.152000
20
570.631000
11
681.152000
21
570.631000
0
LINE
8
VISIBLE
10
635.708000
20
519.207000
11
635.708000
21
521.457000
0
LINE
8
VISIBLE
10
640.709000
20
519.207000
11
635.708000
21
519.207000
0
LINE
8
VISIBLE
10
640.709000
20
521.457000
11
640.709000
21
519.207000
0
LINE
8
VISIBLE
10
642.958000
20
521.457000
11
640.709000
21
521.457000
0
LINE
8
VISIBLE
10
642.958000
20
526.457000
11
642.958000
21
521.457000
0
LINE
8
VISIBLE
10
640.709000
20
526.457000
11
642.958000
21
526.457000
0
LINE
8
VISIBLE
10
640.709000
20
528.707000
11
640.709000
21
526.457000
0
LINE
8
VISIBLE
10
635.708000
20
528.707000
11
640.709000
21
528.707000
0
LINE
8
VISIBLE
10
635.708000
20
526.457000
11
635.708000
21
528.707000
0
LINE
8
VISIBLE
10
633.459000
20
526.457000
11
635.708000
21
526.457000
0
LINE
8
VISIBLE
10
633.459000
20
521.457000
11
633.459000
21
526.457000
0
LINE
8
VISIBLE
10
635.708000
20
521.457000
11
633.459000
21
521.457000
0
LINE
8
VISIBLE
10
650.252000
20
524.220000
11
650.252000
21
523.694000
0
LINE
8
VISIBLE
10
636.915000
20
513.395000
11
648.003000
21
519.797000
0
LINE
8
VISIBLE
10
632.414000
20
513.395000
11
633.508711
21
512.942835
0
LINE
8
VISIBLE
10
633.508711
20
512.942835
11
634.664000
21
512.792113
0
LINE
8
VISIBLE
10
634.664000
20
512.792113
11
635.819289
21
512.942835
0
LINE
8
VISIBLE
10
635.819289
20
512.942835
11
636.914000
21
513.395000
0
LINE
8
VISIBLE
10
631.959000
20
513.658000
11
632.414000
21
513.395000
0
LINE
8
VISIBLE
10
629.708000
20
517.555000
11
629.708000
21
530.359000
0
LINE
8
VISIBLE
10
632.414000
20
534.519000
11
631.959000
21
534.256000
0
LINE
8
VISIBLE
10
648.002000
20
519.797000
11
648.940921
21
520.518944
0
LINE
8
VISIBLE
10
648.940921
20
520.518944
11
649.649087
21
521.444064
0
LINE
8
VISIBLE
10
649.649087
20
521.444064
11
650.096209
21
522.519902
0
LINE
8
VISIBLE
10
650.096209
20
522.519902
11
650.252000
21
523.694000
0
LINE
8
VISIBLE
10
631.958000
20
534.256000
11
631.019079
21
533.534056
0
LINE
8
VISIBLE
10
631.019079
20
533.534056
11
630.310913
21
532.608936
0
LINE
8
VISIBLE
10
630.310913
20
532.608936
11
629.863791
21
531.533098
0
LINE
8
VISIBLE
10
629.863791
20
531.533098
11
629.708000
21
530.359000
0
LINE
8
VISIBLE
10
636.914000
20
534.519000
11
635.819289
21
534.971165
0
LINE
8
VISIBLE
10
635.819289
20
534.971165
11
634.664000
21
535.121887
0
LINE
8
VISIBLE
10
634.664000
20
535.121887
11
633.508711
21
534.971165
0
LINE
8
VISIBLE
10
633.508711
20
534.971165
11
632.414000
21
534.519000
0
LINE
8
VISIBLE
10
636.915000
20
534.519000
11
648.003000
21
528.117000
0
LINE
8
VISIBLE
10
650.252000
20
524.220000
11
650.096209
21
525.394098
0
LINE
8
VISIBLE
10
650.096209
20
525.394098
11
649.649087
21
526.469936
0
LINE
8
VISIBLE
10
649.649087
20
526.469936
11
648.940921
21
527.395056
0
LINE
8
VISIBLE
10
648.940921
20
527.395056
11
648.002000
21
528.117000
0
LINE
8
VISIBLE
10
629.708000
20
517.555000
11
629.863791
21
516.380902
0
LINE
8
VISIBLE
10
629.863791
20
516.380902
11
630.310913
21
515.305064
0
LINE
8
VISIBLE
10
630.310913
20
515.305064
11
631.019079
21
514.379944
0
LINE
8
VISIBLE
10
631.019079
20
514.379944
11
631.958000
21
513.658000
0
LINE
8
VISIBLE
10
643.373000
20
552.916000
11
643.373000
21
550.666000
0
LINE
8
VISIBLE
10
638.373000
20
550.666000
11
638.373000
21
552.916000
0
LINE
8
VISIBLE
10
651.435000
20
553.960000
11
651.173000
21
554.416000
0
LINE
8
VISIBLE
10
651.435000
20
549.460000
11
643.733000
21
536.122000
0
LINE
8
VISIBLE
10
638.135000
20
538.622000
11
643.635000
21
538.622000
0
LINE
8
VISIBLE
10
638.135000
20
536.122000
11
638.135000
21
538.622000
0
LINE
8
VISIBLE
10
643.635000
20
536.122000
11
643.635000
21
538.622000
0
LINE
8
VISIBLE
10
651.172000
20
554.416000
11
650.450056
21
555.354921
0
LINE
8
VISIBLE
10
650.450056
20
555.354921
11
649.524936
21
556.063087
0
LINE
8
VISIBLE
10
649.524936
20
556.063087
11
648.449098
21
556.510209
0
LINE
8
VISIBLE
10
648.449098
20
556.510209
11
647.275000
21
556.666000
0
LINE
8
VISIBLE
10
634.471000
20
556.666000
11
633.296902
21
556.510209
0
LINE
8
VISIBLE
10
633.296902
20
556.510209
11
632.221064
21
556.063087
0
LINE
8
VISIBLE
10
632.221064
20
556.063087
11
631.295944
21
555.354921
0
LINE
8
VISIBLE
10
631.295944
20
555.354921
11
630.574000
21
554.416000
0
LINE
8
VISIBLE
10
643.733000
20
536.122000
11
643.635000
21
536.122000
0
LINE
8
VISIBLE
10
638.135000
20
536.122000
11
638.013000
21
536.122000
0
LINE
8
VISIBLE
10
630.311000
20
549.460000
11
638.013000
21
536.122000
0
LINE
8
VISIBLE
10
636.124000
20
545.666000
11
636.124000
21
550.666000
0
LINE
8
VISIBLE
10
643.373000
20
543.416000
11
638.373000
21
543.416000
0
LINE
8
VISIBLE
10
643.373000
20
550.666000
11
645.622000
21
550.666000
0
LINE
8
VISIBLE
10
638.373000
20
552.916000
11
643.373000
21
552.916000
0
LINE
8
VISIBLE
10
645.622000
20
550.666000
11
645.622000
21
545.666000
0
LINE
8
VISIBLE
10
651.435000
20
549.460000
11
651.887165
21
550.554711
0
LINE
8
VISIBLE
10
651.887165
20
550.554711
11
652.037887
21
551.710000
0
LINE
8
VISIBLE
10
652.037887
20
551.710000
11
651.887165
21
552.865289
0
LINE
8
VISIBLE
10
651.887165
20
552.865289
11
651.435000
21
553.960000
0
LINE
8
VISIBLE
10
636.124000
20
550.666000
11
638.373000
21
550.666000
0
LINE
8
VISIBLE
10
638.373000
20
545.666000
11
636.124000
21
545.666000
0
LINE
8
VISIBLE
10
638.373000
20
543.416000
11
638.373000
21
545.666000
0
LINE
8
VISIBLE
10
630.311000
20
553.960000
11
629.858835
21
552.865289
0
LINE
8
VISIBLE
10
629.858835
20
552.865289
11
629.708113
21
551.710000
0
LINE
8
VISIBLE
10
629.708113
20
551.710000
11
629.858835
21
550.554711
0
LINE
8
VISIBLE
10
629.858835
20
550.554711
11
630.311000
21
549.460000
0
LINE
8
VISIBLE
10
630.575000
20
554.416000
11
630.311000
21
553.960000
0
LINE
8
VISIBLE
10
634.470000
20
556.666000
11
647.276000
21
556.666000
0
LINE
8
VISIBLE
10
645.622000
20
545.666000
11
643.373000
21
545.666000
0
LINE
8
VISIBLE
10
643.373000
20
545.666000
11
643.373000
21
543.416000
0
LINE
8
VISIBLE
10
643.635000
20
536.122000
11
638.135000
21
536.122000
0
LINE
8
VISIBLE
10
679.152000
20
473.132000
11
679.051615
21
473.888661
0
LINE
8
VISIBLE
10
679.051615
20
473.888661
11
678.763474
21
474.582000
0
LINE
8
VISIBLE
10
678.763474
20
474.582000
11
678.307095
21
475.178207
0
LINE
8
VISIBLE
10
678.307095
20
475.178207
11
677.702000
21
475.643474
0
LINE
8
VISIBLE
10
677.702000
20
475.643474
11
676.996520
21
475.934868
0
LINE
8
VISIBLE
10
676.996520
20
475.934868
11
676.252000
21
476.032000
0
LINE
8
VISIBLE
10
676.252000
20
476.032000
11
675.507480
21
475.934868
0
LINE
8
VISIBLE
10
675.507480
20
475.934868
11
674.802000
21
475.643474
0
LINE
8
VISIBLE
10
674.802000
20
475.643474
11
674.196905
21
475.178207
0
LINE
8
VISIBLE
10
674.196905
20
475.178207
11
673.740526
21
474.582000
0
LINE
8
VISIBLE
10
673.740526
20
474.582000
11
673.452385
21
473.888661
0
LINE
8
VISIBLE
10
673.452385
20
473.888661
11
673.352000
21
473.132000
0
LINE
8
VISIBLE
10
673.352000
20
473.132000
11
673.452385
21
472.375339
0
LINE
8
VISIBLE
10
673.452385
20
472.375339
11
673.740526
21
471.682000
0
LINE
8
VISIBLE
10
673.740526
20
471.682000
11
674.196905
21
471.085793
0
LINE
8
VISIBLE
10
674.196905
20
471.085793
11
674.802000
21
470.620526
0
LINE
8
VISIBLE
10
674.802000
20
470.620526
11
675.507480
21
470.329132
0
LINE
8
VISIBLE
10
675.507480
20
470.329132
11
676.252000
21
470.232000
0
LINE
8
VISIBLE
10
676.252000
20
470.232000
11
676.996520
21
470.329132
0
LINE
8
VISIBLE
10
676.996520
20
470.329132
11
677.702000
21
470.620526
0
LINE
8
VISIBLE
10
677.702000
20
470.620526
11
678.307095
21
471.085793
0
LINE
8
VISIBLE
10
678.307095
20
471.085793
11
678.763474
21
471.682000
0
LINE
8
VISIBLE
10
678.763474
20
471.682000
11
679.051615
21
472.375339
0
LINE
8
VISIBLE
10
679.051615
20
472.375339
11
679.152000
21
473.132000
0
LINE
8
VISIBLE
10
679.152000
20
473.132000
11
679.152000
21
473.132000
0
LINE
8
VISIBLE
10
671.453000
20
485.632000
11
674.652000
21
485.632000
0
LINE
8
VISIBLE
10
674.652000
20
481.132000
11
674.652000
21
485.632000
0
LINE
8
VISIBLE
10
677.851000
20
481.132000
11
674.652000
21
481.132000
0
LINE
8
VISIBLE
10
677.851000
20
481.132000
11
677.851000
21
485.632000
0
LINE
8
VISIBLE
10
677.851000
20
485.632000
11
681.053000
21
485.632000
0
LINE
8
VISIBLE
10
681.053000
20
481.132000
11
681.053000
21
485.632000
0
LINE
8
VISIBLE
10
684.251000
20
481.132000
11
681.053000
21
481.132000
0
LINE
8
VISIBLE
10
684.251000
20
474.132000
11
684.251000
21
481.132000
0
LINE
8
VISIBLE
10
668.252000
20
474.132000
11
668.528929
21
472.044661
0
LINE
8
VISIBLE
10
668.528929
20
472.044661
11
669.323804
21
470.132005
0
LINE
8
VISIBLE
10
669.323804
20
470.132005
11
670.582778
21
468.487297
0
LINE
8
VISIBLE
10
670.582778
20
468.487297
11
672.252005
21
467.203805
0
LINE
8
VISIBLE
10
672.252005
20
467.203805
11
674.198155
21
466.399959
0
LINE
8
VISIBLE
10
674.198155
20
466.399959
11
676.252000
21
466.132010
0
LINE
8
VISIBLE
10
676.252000
20
466.132010
11
678.305845
21
466.399959
0
LINE
8
VISIBLE
10
678.305845
20
466.399959
11
680.251995
21
467.203805
0
LINE
8
VISIBLE
10
680.251995
20
467.203805
11
681.921222
21
468.487297
0
LINE
8
VISIBLE
10
681.921222
20
468.487297
11
683.180195
21
470.132005
0
LINE
8
VISIBLE
10
683.180195
20
470.132005
11
683.975067
21
472.044661
0
LINE
8
VISIBLE
10
683.975067
20
472.044661
11
684.251990
21
474.132000
0
LINE
8
VISIBLE
10
668.252000
20
474.132000
11
668.252000
21
481.132000
0
LINE
8
VISIBLE
10
671.453000
20
481.132000
11
671.453000
21
485.632000
0
LINE
8
VISIBLE
10
671.453000
20
481.132000
11
668.252000
21
481.132000
0
LINE
8
VISIBLE
10
790.958000
20
466.632000
11
795.458000
21
466.632000
0
LINE
8
VISIBLE
10
795.458000
20
478.631000
11
795.458000
21
466.632000
0
LINE
8
VISIBLE
10
797.707000
20
478.631000
11
795.458000
21
478.631000
0
LINE
8
VISIBLE
10
797.707000
20
334.132000
11
797.707000
21
478.631000
0
LINE
8
VISIBLE
10
797.707000
20
334.132000
11
795.458000
21
334.132000
0
LINE
8
VISIBLE
10
795.458000
20
346.132000
11
795.458000
21
334.132000
0
LINE
8
VISIBLE
10
790.958000
20
346.132000
11
795.458000
21
346.132000
0
LINE
8
VISIBLE
10
790.958000
20
346.132000
11
790.958000
21
334.132000
0
LINE
8
VISIBLE
10
790.958000
20
334.132000
11
788.709000
21
334.132000
0
LINE
8
VISIBLE
10
788.709000
20
334.132000
11
788.709000
21
478.631000
0
LINE
8
VISIBLE
10
790.958000
20
478.631000
11
788.709000
21
478.631000
0
LINE
8
VISIBLE
10
790.958000
20
478.631000
11
790.958000
21
466.632000
0
LINE
8
VISIBLE
10
795.458000
20
438.824000
11
795.458000
21
429.555000
0
LINE
8
VISIBLE
10
790.958000
20
438.824000
11
795.458000
21
438.824000
0
LINE
8
VISIBLE
10
790.958000
20
438.824000
11
790.958000
21
429.555000
0
LINE
8
VISIBLE
10
790.958000
20
411.016000
11
795.458000
21
411.016000
0
LINE
8
VISIBLE
10
795.458000
20
420.286000
11
795.458000
21
411.016000
0
LINE
8
VISIBLE
10
790.958000
20
420.286000
11
795.458000
21
420.286000
0
LINE
8
VISIBLE
10
790.958000
20
420.286000
11
790.958000
21
411.016000
0
LINE
8
VISIBLE
10
790.958000
20
392.478000
11
795.458000
21
392.478000
0
LINE
8
VISIBLE
10
795.458000
20
401.747000
11
795.458000
21
392.478000
0
LINE
8
VISIBLE
10
790.958000
20
401.747000
11
795.458000
21
401.747000
0
LINE
8
VISIBLE
10
790.958000
20
401.747000
11
790.958000
21
392.478000
0
LINE
8
VISIBLE
10
790.958000
20
373.939000
11
795.458000
21
373.939000
0
LINE
8
VISIBLE
10
795.458000
20
383.209000
11
795.458000
21
373.939000
0
LINE
8
VISIBLE
10
790.958000
20
383.209000
11
795.458000
21
383.209000
0
LINE
8
VISIBLE
10
790.958000
20
383.209000
11
790.958000
21
373.939000
0
LINE
8
VISIBLE
10
795.458000
20
457.362000
11
795.458000
21
448.093000
0
LINE
8
VISIBLE
10
790.958000
20
457.362000
11
790.958000
21
448.093000
0
LINE
8
VISIBLE
10
790.958000
20
355.401000
11
795.458000
21
355.401000
0
LINE
8
VISIBLE
10
795.458000
20
364.670000
11
795.458000
21
355.401000
0
LINE
8
VISIBLE
10
790.958000
20
364.670000
11
795.458000
21
364.670000
0
LINE
8
VISIBLE
10
790.958000
20
364.670000
11
790.958000
21
355.401000
0
LINE
8
VISIBLE
10
790.958000
20
448.093000
11
795.458000
21
448.093000
0
LINE
8
VISIBLE
10
790.958000
20
457.362000
11
795.458000
21
457.362000
0
LINE
8
VISIBLE
10
790.958000
20
429.555000
11
795.458000
21
429.555000
0
LINE
8
VISIBLE
10
686.038000
20
547.622000
11
685.761071
21
549.709339
0
LINE
8
VISIBLE
10
685.761071
20
549.709339
11
684.966196
21
551.621995
0
LINE
8
VISIBLE
10
684.966196
20
551.621995
11
683.707222
21
553.266703
0
LINE
8
VISIBLE
10
683.707222
20
553.266703
11
682.037995
21
554.550195
0
LINE
8
VISIBLE
10
682.037995
20
554.550195
11
680.091845
21
555.354041
0
LINE
8
VISIBLE
10
680.091845
20
555.354041
11
678.038000
21
555.621990
0
LINE
8
VISIBLE
10
678.038000
20
555.621990
11
675.984155
21
555.354041
0
LINE
8
VISIBLE
10
675.984155
20
555.354041
11
674.038005
21
554.550195
0
LINE
8
VISIBLE
10
674.038005
20
554.550195
11
672.368778
21
553.266703
0
LINE
8
VISIBLE
10
672.368778
20
553.266703
11
671.109805
21
551.621995
0
LINE
8
VISIBLE
10
671.109805
20
551.621995
11
670.314933
21
549.709339
0
LINE
8
VISIBLE
10
670.314933
20
549.709339
11
670.038010
21
547.622000
0
LINE
8
VISIBLE
10
686.037000
20
540.622000
11
682.838000
21
540.622000
0
LINE
8
VISIBLE
10
682.838000
20
536.122000
11
682.838000
21
540.622000
0
LINE
8
VISIBLE
10
679.637000
20
536.122000
11
679.637000
21
540.622000
0
LINE
8
VISIBLE
10
679.637000
20
540.622000
11
676.438000
21
540.622000
0
LINE
8
VISIBLE
10
676.438000
20
536.122000
11
676.438000
21
540.622000
0
LINE
8
VISIBLE
10
673.239000
20
536.122000
11
673.239000
21
540.622000
0
LINE
8
VISIBLE
10
673.239000
20
540.622000
11
670.038000
21
540.622000
0
LINE
8
VISIBLE
10
680.938000
20
548.622000
11
680.837615
21
549.378661
0
LINE
8
VISIBLE
10
680.837615
20
549.378661
11
680.549474
21
550.072000
0
LINE
8
VISIBLE
10
680.549474
20
550.072000
11
680.093095
21
550.668207
0
LINE
8
VISIBLE
10
680.093095
20
550.668207
11
679.488000
21
551.133474
0
LINE
8
VISIBLE
10
679.488000
20
551.133474
11
678.782520
21
551.424868
0
LINE
8
VISIBLE
10
678.782520
20
551.424868
11
678.038000
21
551.522000
0
LINE
8
VISIBLE
10
678.038000
20
551.522000
11
677.293480
21
551.424868
0
LINE
8
VISIBLE
10
677.293480
20
551.424868
11
676.588000
21
551.133474
0
LINE
8
VISIBLE
10
676.588000
20
551.133474
11
675.982905
21
550.668207
0
LINE
8
VISIBLE
10
675.982905
20
550.668207
11
675.526526
21
550.072000
0
LINE
8
VISIBLE
10
675.526526
20
550.072000
11
675.238385
21
549.378661
0
LINE
8
VISIBLE
10
675.238385
20
549.378661
11
675.138000
21
548.622000
0
LINE
8
VISIBLE
10
675.138000
20
548.622000
11
675.238385
21
547.865339
0
LINE
8
VISIBLE
10
675.238385
20
547.865339
11
675.526526
21
547.172000
0
LINE
8
VISIBLE
10
675.526526
20
547.172000
11
675.982905
21
546.575793
0
LINE
8
VISIBLE
10
675.982905
20
546.575793
11
676.588000
21
546.110526
0
LINE
8
VISIBLE
10
676.588000
20
546.110526
11
677.293480
21
545.819132
0
LINE
8
VISIBLE
10
677.293480
20
545.819132
11
678.038000
21
545.722000
0
LINE
8
VISIBLE
10
678.038000
20
545.722000
11
678.782520
21
545.819132
0
LINE
8
VISIBLE
10
678.782520
20
545.819132
11
679.488000
21
546.110526
0
LINE
8
VISIBLE
10
679.488000
20
546.110526
11
680.093095
21
546.575793
0
LINE
8
VISIBLE
10
680.093095
20
546.575793
11
680.549474
21
547.172000
0
LINE
8
VISIBLE
10
680.549474
20
547.172000
11
680.837615
21
547.865339
0
LINE
8
VISIBLE
10
680.837615
20
547.865339
11
680.938000
21
548.622000
0
LINE
8
VISIBLE
10
680.938000
20
548.622000
11
680.938000
21
548.622000
0
LINE
8
VISIBLE
10
686.037000
20
547.622000
11
686.037000
21
540.622000
0
LINE
8
VISIBLE
10
679.637000
20
536.122000
11
682.838000
21
536.122000
0
LINE
8
VISIBLE
10
673.239000
20
536.122000
11
676.438000
21
536.122000
0
LINE
8
VISIBLE
10
670.038000
20
547.622000
11
670.038000
21
540.622000
0
LINE
8
VISIBLE
10
695.252000
20
558.131000
11
696.134007
21
558.218264
0
LINE
8
VISIBLE
10
696.134007
20
558.218264
11
696.974077
21
558.473539
0
LINE
8
VISIBLE
10
696.974077
20
558.473539
11
697.748605
21
558.887050
0
LINE
8
VISIBLE
10
697.748605
20
558.887050
11
698.433983
21
559.449017
0
LINE
8
VISIBLE
10
698.433983
20
559.449017
11
698.995950
21
560.134395
0
LINE
8
VISIBLE
10
698.995950
20
560.134395
11
699.409461
21
560.908923
0
LINE
8
VISIBLE
10
699.409461
20
560.908923
11
699.664736
21
561.748993
0
LINE
8
VISIBLE
10
699.664736
20
561.748993
11
699.752000
21
562.631000
0
LINE
8
VISIBLE
10
695.253000
20
558.132000
11
691.752000
21
558.132000
0
LINE
8
VISIBLE
10
691.752000
20
558.132000
11
691.752000
21
562.692000
0
LINE
8
VISIBLE
10
687.252000
20
562.692000
11
691.752000
21
562.692000
0
LINE
8
VISIBLE
10
687.252000
20
567.250000
11
687.252000
21
562.692000
0
LINE
8
VISIBLE
10
687.252000
20
567.250000
11
691.752000
21
567.250000
0
LINE
8
VISIBLE
10
691.752000
20
567.250000
11
691.752000
21
571.809000
0
LINE
8
VISIBLE
10
695.253000
20
571.809000
11
691.752000
21
571.809000
0
LINE
8
VISIBLE
10
699.753000
20
567.311000
11
699.753000
21
562.631000
0
LINE
8
VISIBLE
10
699.752000
20
567.310000
11
699.664736
21
568.192007
0
LINE
8
VISIBLE
10
699.664736
20
568.192007
11
699.409461
21
569.032077
0
LINE
8
VISIBLE
10
699.409461
20
569.032077
11
698.995950
21
569.806605
0
LINE
8
VISIBLE
10
698.995950
20
569.806605
11
698.433983
21
570.491983
0
LINE
8
VISIBLE
10
698.433983
20
570.491983
11
697.748605
21
571.053950
0
LINE
8
VISIBLE
10
697.748605
20
571.053950
11
696.974077
21
571.467461
0
LINE
8
VISIBLE
10
696.974077
20
571.467461
11
696.134007
21
571.722736
0
LINE
8
VISIBLE
10
696.134007
20
571.722736
11
695.252000
21
571.810000
0
LINE
8
VISIBLE
10
707.209000
20
357.632000
11
703.709000
21
357.632000
0
LINE
8
VISIBLE
10
707.209000
20
353.132000
11
707.209000
21
357.632000
0
LINE
8
VISIBLE
10
707.209000
20
353.132000
11
703.709000
21
353.132000
0
LINE
8
VISIBLE
10
703.709000
20
348.632000
11
703.709000
21
353.132000
0
LINE
8
VISIBLE
10
700.208000
20
348.632000
11
703.709000
21
348.632000
0
LINE
8
VISIBLE
10
695.708000
20
353.132000
11
695.795264
21
352.249993
0
LINE
8
VISIBLE
10
695.795264
20
352.249993
11
696.050539
21
351.409923
0
LINE
8
VISIBLE
10
696.050539
20
351.409923
11
696.464050
21
350.635395
0
LINE
8
VISIBLE
10
696.464050
20
350.635395
11
697.026017
21
349.950017
0
LINE
8
VISIBLE
10
697.026017
20
349.950017
11
697.711395
21
349.388050
0
LINE
8
VISIBLE
10
697.711395
20
349.388050
11
698.485923
21
348.974539
0
LINE
8
VISIBLE
10
698.485923
20
348.974539
11
699.325993
21
348.719264
0
LINE
8
VISIBLE
10
699.325993
20
348.719264
11
700.208000
21
348.632000
0
LINE
8
VISIBLE
10
700.208000
20
362.132000
11
703.709000
21
362.132000
0
LINE
8
VISIBLE
10
696.459000
20
353.794000
11
699.208000
21
352.206000
0
LINE
8
VISIBLE
10
699.208000
20
352.206000
11
701.957000
21
353.794000
0
LINE
8
VISIBLE
10
701.957000
20
353.794000
11
701.957000
21
356.970000
0
LINE
8
VISIBLE
10
699.208000
20
358.557000
11
696.459000
21
356.970000
0
LINE
8
VISIBLE
10
696.459000
20
356.970000
11
696.459000
21
353.794000
0
LINE
8
VISIBLE
10
701.957000
20
356.970000
11
699.208000
21
358.557000
0
LINE
8
VISIBLE
10
700.208000
20
362.132000
11
699.325993
21
362.044736
0
LINE
8
VISIBLE
10
699.325993
20
362.044736
11
698.485923
21
361.789461
0
LINE
8
VISIBLE
10
698.485923
20
361.789461
11
697.711395
21
361.375950
0
LINE
8
VISIBLE
10
697.711395
20
361.375950
11
697.026017
21
360.813983
0
LINE
8
VISIBLE
10
697.026017
20
360.813983
11
696.464050
21
360.128605
0
LINE
8
VISIBLE
10
696.464050
20
360.128605
11
696.050539
21
359.354077
0
LINE
8
VISIBLE
10
696.050539
20
359.354077
11
695.795264
21
358.514007
0
LINE
8
VISIBLE
10
695.795264
20
358.514007
11
695.708000
21
357.632000
0
LINE
8
VISIBLE
10
695.708000
20
353.132000
11
695.708000
21
357.632000
0
LINE
8
VISIBLE
10
703.709000
20
357.632000
11
703.709000
21
362.132000
0
LINE
8
VISIBLE
10
700.708000
20
355.382000
11
700.507038
21
356.132000
0
LINE
8
VISIBLE
10
700.507038
20
356.132000
11
699.958000
21
356.681038
0
LINE
8
VISIBLE
10
699.958000
20
356.681038
11
699.208000
21
356.882000
0
LINE
8
VISIBLE
10
699.208000
20
356.882000
11
698.458000
21
356.681038
0
LINE
8
VISIBLE
10
698.458000
20
356.681038
11
697.908962
21
356.132000
0
LINE
8
VISIBLE
10
697.908962
20
356.132000
11
697.708000
21
355.382000
0
LINE
8
VISIBLE
10
697.708000
20
355.382000
11
697.908962
21
354.632000
0
LINE
8
VISIBLE
10
697.908962
20
354.632000
11
698.458000
21
354.082962
0
LINE
8
VISIBLE
10
698.458000
20
354.082962
11
699.208000
21
353.882000
0
LINE
8
VISIBLE
10
699.208000
20
353.882000
11
699.958000
21
354.082962
0
LINE
8
VISIBLE
10
699.958000
20
354.082962
11
700.507038
21
354.632000
0
LINE
8
VISIBLE
10
700.507038
20
354.632000
11
700.708000
21
355.382000
0
LINE
8
VISIBLE
10
700.708000
20
355.382000
11
700.708000
21
355.382000
0
LINE
8
VISIBLE
10
678.708000
20
624.130000
11
683.709000
21
624.130000
0
LINE
8
VISIBLE
10
678.708000
20
629.131000
11
678.708000
21
624.130000
0
LINE
8
VISIBLE
10
678.708000
20
629.131000
11
683.709000
21
629.131000
0
LINE
8
VISIBLE
10
683.709000
20
629.131000
11
683.709000
21
624.130000
0
LINE
8
VISIBLE
10
612.959000
20
586.131000
11
617.457000
21
586.131000
0
LINE
8
VISIBLE
10
619.709000
20
592.881000
11
619.709000
21
588.383000
0
LINE
8
VISIBLE
10
617.457000
20
592.881000
11
619.709000
21
592.881000
0
LINE
8
VISIBLE
10
617.457000
20
595.132000
11
617.457000
21
592.881000
0
LINE
8
VISIBLE
10
612.959000
20
595.132000
11
617.457000
21
595.132000
0
LINE
8
VISIBLE
10
612.959000
20
592.881000
11
612.959000
21
595.132000
0
LINE
8
VISIBLE
10
610.708000
20
592.881000
11
612.959000
21
592.881000
0
LINE
8
VISIBLE
10
610.708000
20
588.383000
11
612.959000
21
588.383000
0
LINE
8
VISIBLE
10
647.708000
20
590.631000
11
647.422192
21
594.935937
0
LINE
8
VISIBLE
10
647.422192
20
594.935937
11
646.582997
21
599.110824
0
LINE
8
VISIBLE
10
646.582997
20
599.110824
11
645.217760
21
603.108299
0
LINE
8
VISIBLE
10
645.217760
20
603.108299
11
643.353826
21
606.881000
0
LINE
8
VISIBLE
10
643.353826
20
606.881000
11
641.018538
21
610.381565
0
LINE
8
VISIBLE
10
641.018538
20
610.381565
11
638.239241
21
613.562633
0
LINE
8
VISIBLE
10
638.239241
20
613.562633
11
635.043281
21
616.376840
0
LINE
8
VISIBLE
10
635.043281
20
616.376840
11
631.458000
21
618.776826
0
LINE
8
VISIBLE
10
631.458000
20
618.776826
11
627.586911
21
620.681777
0
LINE
8
VISIBLE
10
627.586911
20
620.681777
11
623.551756
21
622.042456
0
LINE
8
VISIBLE
10
623.551756
20
622.042456
11
619.407222
21
622.858864
0
LINE
8
VISIBLE
10
619.407222
20
622.858864
11
615.208000
21
623.131000
0
LINE
8
VISIBLE
10
615.208000
20
623.131000
11
611.008778
21
622.858864
0
LINE
8
VISIBLE
10
611.008778
20
622.858864
11
606.864244
21
622.042456
0
LINE
8
VISIBLE
10
606.864244
20
622.042456
11
602.829089
21
620.681777
0
LINE
8
VISIBLE
10
602.829089
20
620.681777
11
598.958000
21
618.776826
0
LINE
8
VISIBLE
10
598.958000
20
618.776826
11
595.372719
21
616.376840
0
LINE
8
VISIBLE
10
595.372719
20
616.376840
11
592.176759
21
613.562633
0
LINE
8
VISIBLE
10
592.176759
20
613.562633
11
589.397462
21
610.381565
0
LINE
8
VISIBLE
10
589.397462
20
610.381565
11
587.062174
21
606.881000
0
LINE
8
VISIBLE
10
587.062174
20
606.881000
11
585.198240
21
603.108299
0
LINE
8
VISIBLE
10
585.198240
20
603.108299
11
583.833003
21
599.110824
0
LINE
8
VISIBLE
10
583.833003
20
599.110824
11
582.993808
21
594.935937
0
LINE
8
VISIBLE
10
582.993808
20
594.935937
11
582.708000
21
590.631000
0
LINE
8
VISIBLE
10
582.708000
20
590.631000
11
582.993808
21
586.326063
0
LINE
8
VISIBLE
10
582.993808
20
586.326063
11
583.833003
21
582.151176
0
LINE
8
VISIBLE
10
583.833003
20
582.151176
11
585.198240
21
578.153701
0
LINE
8
VISIBLE
10
585.198240
20
578.153701
11
587.062174
21
574.381000
0
LINE
8
VISIBLE
10
587.062174
20
574.381000
11
589.397462
21
570.880435
0
LINE
8
VISIBLE
10
589.397462
20
570.880435
11
592.176759
21
567.699367
0
LINE
8
VISIBLE
10
592.176759
20
567.699367
11
595.372719
21
564.885160
0
LINE
8
VISIBLE
10
595.372719
20
564.885160
11
598.958000
21
562.485174
0
LINE
8
VISIBLE
10
598.958000
20
562.485174
11
602.829089
21
560.580223
0
LINE
8
VISIBLE
10
602.829089
20
560.580223
11
606.864244
21
559.219544
0
LINE
8
VISIBLE
10
606.864244
20
559.219544
11
611.008778
21
558.403136
0
LINE
8
VISIBLE
10
611.008778
20
558.403136
11
615.208000
21
558.131000
0
LINE
8
VISIBLE
10
615.208000
20
558.131000
11
619.407222
21
558.403136
0
LINE
8
VISIBLE
10
619.407222
20
558.403136
11
623.551756
21
559.219544
0
LINE
8
VISIBLE
10
623.551756
20
559.219544
11
627.586911
21
560.580223
0
LINE
8
VISIBLE
10
627.586911
20
560.580223
11
631.458000
21
562.485174
0
LINE
8
VISIBLE
10
631.458000
20
562.485174
11
635.043281
21
564.885160
0
LINE
8
VISIBLE
10
635.043281
20
564.885160
11
638.239241
21
567.699367
0
LINE
8
VISIBLE
10
638.239241
20
567.699367
11
641.018538
21
570.880435
0
LINE
8
VISIBLE
10
641.018538
20
570.880435
11
643.353826
21
574.381000
0
LINE
8
VISIBLE
10
643.353826
20
574.381000
11
645.217760
21
578.153701
0
LINE
8
VISIBLE
10
645.217760
20
578.153701
11
646.582997
21
582.151176
0
LINE
8
VISIBLE
10
646.582997
20
582.151176
11
647.422192
21
586.326063
0
LINE
8
VISIBLE
10
647.422192
20
586.326063
11
647.708000
21
590.631000
0
LINE
8
VISIBLE
10
647.708000
20
590.631000
11
647.708000
21
590.631000
0
LINE
8
VISIBLE
10
612.959000
20
564.298000
11
617.457000
21
564.298000
0
LINE
8
VISIBLE
10
612.959000
20
559.631000
11
612.959000
21
564.298000
0
LINE
8
VISIBLE
10
612.959000
20
559.631000
11
617.457000
21
559.631000
0
LINE
8
VISIBLE
10
617.457000
20
568.965000
11
617.457000
21
573.632000
0
LINE
8
VISIBLE
10
612.959000
20
573.632000
11
617.457000
21
573.632000
0
LINE
8
VISIBLE
10
612.959000
20
568.965000
11
612.959000
21
573.632000
0
LINE
8
VISIBLE
10
612.959000
20
568.965000
11
617.457000
21
568.965000
0
LINE
8
VISIBLE
10
631.054000
20
597.183000
11
635.097000
21
599.516000
0
LINE
8
VISIBLE
10
632.848000
20
603.414000
11
635.097000
21
599.516000
0
LINE
8
VISIBLE
10
628.805000
20
601.080000
11
632.848000
21
603.414000
0
LINE
8
VISIBLE
10
628.805000
20
601.080000
11
631.054000
21
597.183000
0
LINE
8
VISIBLE
10
639.137000
20
601.850000
11
643.180000
21
604.184000
0
LINE
8
VISIBLE
10
640.931000
20
608.081000
11
643.180000
21
604.184000
0
LINE
8
VISIBLE
10
636.888000
20
605.747000
11
640.931000
21
608.081000
0
LINE
8
VISIBLE
10
636.888000
20
605.747000
11
639.137000
21
601.850000
0
LINE
8
VISIBLE
10
601.611000
20
601.080000
11
597.569000
21
603.414000
0
LINE
8
VISIBLE
10
595.320000
20
599.516000
11
597.569000
21
603.414000
0
LINE
8
VISIBLE
10
599.360000
20
597.183000
11
595.320000
21
599.516000
0
LINE
8
VISIBLE
10
587.237000
20
604.184000
11
589.486000
21
608.081000
0
LINE
8
VISIBLE
10
591.277000
20
601.850000
11
593.528000
21
605.747000
0
LINE
8
VISIBLE
10
617.457000
20
586.131000
11
617.457000
21
588.383000
0
LINE
8
VISIBLE
10
617.457000
20
588.383000
11
619.709000
21
588.383000
0
LINE
8
VISIBLE
10
610.708000
20
588.383000
11
610.708000
21
592.881000
0
LINE
8
VISIBLE
10
612.959000
20
588.383000
11
612.959000
21
586.131000
0
LINE
8
VISIBLE
10
599.360000
20
597.183000
11
601.611000
21
601.080000
0
LINE
8
VISIBLE
10
591.277000
20
601.850000
11
587.237000
21
604.184000
0
LINE
8
VISIBLE
10
617.457000
20
559.631000
11
617.457000
21
564.298000
0
LINE
8
VISIBLE
10
593.528000
20
605.747000
11
589.486000
21
608.081000
0
LINE
8
VISIBLE
10
635.708000
20
472.547000
11
635.708000
21
474.797000
0
LINE
8
VISIBLE
10
650.252000
20
477.560000
11
650.096209
21
478.734098
0
LINE
8
VISIBLE
10
650.096209
20
478.734098
11
649.649087
21
479.809936
0
LINE
8
VISIBLE
10
649.649087
20
479.809936
11
648.940921
21
480.735056
0
LINE
8
VISIBLE
10
648.940921
20
480.735056
11
648.002000
21
481.457000
0
LINE
8
VISIBLE
10
629.708000
20
470.895000
11
629.863791
21
469.720902
0
LINE
8
VISIBLE
10
629.863791
20
469.720902
11
630.310913
21
468.645064
0
LINE
8
VISIBLE
10
630.310913
20
468.645064
11
631.019079
21
467.719944
0
LINE
8
VISIBLE
10
631.019079
20
467.719944
11
631.958000
21
466.998000
0
LINE
8
VISIBLE
10
632.414000
20
487.859000
11
631.959000
21
487.596000
0
LINE
8
VISIBLE
10
636.914000
20
487.859000
11
635.819289
21
488.311165
0
LINE
8
VISIBLE
10
635.819289
20
488.311165
11
634.664000
21
488.461887
0
LINE
8
VISIBLE
10
634.664000
20
488.461887
11
633.508711
21
488.311165
0
LINE
8
VISIBLE
10
633.508711
20
488.311165
11
632.414000
21
487.859000
0
LINE
8
VISIBLE
10
636.915000
20
487.859000
11
648.003000
21
481.457000
0
LINE
8
VISIBLE
10
631.959000
20
466.998000
11
632.414000
21
466.734000
0
LINE
8
VISIBLE
10
640.709000
20
472.547000
11
635.708000
21
472.547000
0
LINE
8
VISIBLE
10
640.709000
20
474.797000
11
640.709000
21
472.547000
0
LINE
8
VISIBLE
10
648.002000
20
473.136000
11
648.941102
21
473.858125
0
LINE
8
VISIBLE
10
648.941102
20
473.858125
11
649.649337
21
474.783497
0
LINE
8
VISIBLE
10
649.649337
20
474.783497
11
650.096404
21
475.859620
0
LINE
8
VISIBLE
10
650.096404
20
475.859620
11
650.252000
21
477.034000
0
LINE
8
VISIBLE
10
631.958000
20
487.596000
11
631.019079
21
486.874056
0
LINE
8
VISIBLE
10
631.019079
20
486.874056
11
630.310913
21
485.948936
0
LINE
8
VISIBLE
10
630.310913
20
485.948936
11
629.863791
21
484.873098
0
LINE
8
VISIBLE
10
629.863791
20
484.873098
11
629.708000
21
483.699000
0
LINE
8
VISIBLE
10
632.414000
20
466.734000
11
633.508711
21
466.281835
0
LINE
8
VISIBLE
10
633.508711
20
466.281835
11
634.664000
21
466.131113
0
LINE
8
VISIBLE
10
634.664000
20
466.131113
11
635.819289
21
466.281835
0
LINE
8
VISIBLE
10
635.819289
20
466.281835
11
636.914000
21
466.734000
0
LINE
8
VISIBLE
10
633.459000
20
479.797000
11
635.708000
21
479.797000
0
LINE
8
VISIBLE
10
650.252000
20
477.560000
11
650.252000
21
477.034000
0
LINE
8
VISIBLE
10
636.915000
20
466.734000
11
648.003000
21
473.136000
0
LINE
8
VISIBLE
10
642.958000
20
479.797000
11
642.958000
21
474.797000
0
LINE
8
VISIBLE
10
633.459000
20
474.797000
11
633.459000
21
479.797000
0
LINE
8
VISIBLE
10
640.709000
20
479.797000
11
642.958000
21
479.797000
0
LINE
8
VISIBLE
10
642.958000
20
474.797000
11
640.709000
21
474.797000
0
LINE
8
VISIBLE
10
635.708000
20
482.047000
11
640.709000
21
482.047000
0
LINE
8
VISIBLE
10
629.708000
20
470.895000
11
629.708000
21
483.698000
0
LINE
8
VISIBLE
10
635.708000
20
479.797000
11
635.708000
21
482.047000
0
LINE
8
VISIBLE
10
640.709000
20
482.047000
11
640.709000
21
479.797000
0
LINE
8
VISIBLE
10
635.708000
20
474.797000
11
633.459000
21
474.797000
0
LINE
8
VISIBLE
10
693.708000
20
614.791000
11
693.708000
21
607.792000
0
LINE
8
VISIBLE
10
689.207000
20
614.791000
11
693.708000
21
614.791000
0
LINE
8
VISIBLE
10
689.207000
20
617.791000
11
697.208000
21
617.791000
0
LINE
8
VISIBLE
10
701.708000
20
613.292000
11
701.620736
21
614.174007
0
LINE
8
VISIBLE
10
701.620736
20
614.174007
11
701.365461
21
615.014077
0
LINE
8
VISIBLE
10
701.365461
20
615.014077
11
700.951950
21
615.788605
0
LINE
8
VISIBLE
10
700.951950
20
615.788605
11
700.389983
21
616.473983
0
LINE
8
VISIBLE
10
700.389983
20
616.473983
11
699.704605
21
617.035950
0
LINE
8
VISIBLE
10
699.704605
20
617.035950
11
698.930077
21
617.449461
0
LINE
8
VISIBLE
10
698.930077
20
617.449461
11
698.090007
21
617.704736
0
LINE
8
VISIBLE
10
698.090007
20
617.704736
11
697.208000
21
617.792000
0
LINE
8
VISIBLE
10
701.709000
20
613.290000
11
701.709000
21
609.293000
0
LINE
8
VISIBLE
10
689.207000
20
604.792000
11
697.208000
21
604.792000
0
LINE
8
VISIBLE
10
697.208000
20
604.792000
11
698.090007
21
604.879264
0
LINE
8
VISIBLE
10
698.090007
20
604.879264
11
698.930077
21
605.134539
0
LINE
8
VISIBLE
10
698.930077
20
605.134539
11
699.704605
21
605.548050
0
LINE
8
VISIBLE
10
699.704605
20
605.548050
11
700.389983
21
606.110017
0
LINE
8
VISIBLE
10
700.389983
20
606.110017
11
700.951950
21
606.795395
0
LINE
8
VISIBLE
10
700.951950
20
606.795395
11
701.365461
21
607.569923
0
LINE
8
VISIBLE
10
701.365461
20
607.569923
11
701.620736
21
608.409993
0
LINE
8
VISIBLE
10
701.620736
20
608.409993
11
701.708000
21
609.292000
0
LINE
8
VISIBLE
10
689.207000
20
607.792000
11
689.207000
21
604.792000
0
LINE
8
VISIBLE
10
689.207000
20
617.791000
11
689.207000
21
614.791000
0
LINE
8
VISIBLE
10
689.207000
20
607.792000
11
693.708000
21
607.792000
0
LINE
8
VISIBLE
10
620.312000
20
552.244000
11
619.777861
21
553.434944
0
LINE
8
VISIBLE
10
619.777861
20
553.434944
11
619.058124
21
554.486708
0
LINE
8
VISIBLE
10
619.058124
20
554.486708
11
618.178116
21
555.384231
0
LINE
8
VISIBLE
10
618.178116
20
555.384231
11
617.163167
21
556.112455
0
LINE
8
VISIBLE
10
617.163167
20
556.112455
11
616.038603
21
556.656321
0
LINE
8
VISIBLE
10
616.038603
20
556.656321
11
614.829754
21
557.000768
0
LINE
8
VISIBLE
10
614.829754
20
557.000768
11
613.561946
21
557.130739
0
LINE
8
VISIBLE
10
613.561946
20
557.130739
11
612.260509
21
557.031173
0
LINE
8
VISIBLE
10
612.260509
20
557.031173
11
610.997642
21
556.701294
0
LINE
8
VISIBLE
10
610.997642
20
556.701294
11
609.841354
21
556.165360
0
LINE
8
VISIBLE
10
609.841354
20
556.165360
11
608.810684
21
555.445860
0
LINE
8
VISIBLE
10
608.810684
20
555.445860
11
607.924672
21
554.565283
0
LINE
8
VISIBLE
10
607.924672
20
554.565283
11
607.202358
21
553.546118
0
LINE
8
VISIBLE
10
607.202358
20
553.546118
11
606.662781
21
552.410857
0
LINE
8
VISIBLE
10
606.662781
20
552.410857
11
606.324982
21
551.181988
0
LINE
8
VISIBLE
10
606.324982
20
551.181988
11
606.208000
21
549.882000
0
LINE
8
VISIBLE
10
620.312000
20
552.244000
11
620.911089
21
550.765724
0
LINE
8
VISIBLE
10
620.911089
20
550.765724
11
621.656875
21
549.370897
0
LINE
8
VISIBLE
10
621.656875
20
549.370897
11
622.540355
21
548.069120
0
LINE
8
VISIBLE
10
622.540355
20
548.069120
11
623.552524
21
546.869992
0
LINE
8
VISIBLE
10
623.552524
20
546.869992
11
624.684378
21
545.783116
0
LINE
8
VISIBLE
10
624.684378
20
545.783116
11
625.926911
21
544.818091
0
LINE
8
VISIBLE
10
625.926911
20
544.818091
11
627.271120
21
543.984519
0
LINE
8
VISIBLE
10
627.271120
20
543.984519
11
628.708000
21
543.292000
0
LINE
8
VISIBLE
10
628.707000
20
532.227000
11
628.707000
21
543.292000
0
LINE
8
VISIBLE
10
624.207000
20
532.227000
11
628.707000
21
532.227000
0
LINE
8
VISIBLE
10
624.207000
20
532.227000
11
624.207000
21
522.322000
0
LINE
8
VISIBLE
10
624.207000
20
522.322000
11
628.707000
21
522.322000
0
LINE
8
VISIBLE
10
628.707000
20
512.417000
11
628.707000
21
522.322000
0
LINE
8
VISIBLE
10
624.207000
20
512.417000
11
628.707000
21
512.417000
0
LINE
8
VISIBLE
10
624.207000
20
512.417000
11
624.207000
21
502.512000
0
LINE
8
VISIBLE
10
624.207000
20
502.512000
11
628.707000
21
502.512000
0
LINE
8
VISIBLE
10
628.707000
20
492.608000
11
628.707000
21
502.512000
0
LINE
8
VISIBLE
10
624.207000
20
492.608000
11
628.707000
21
492.608000
0
LINE
8
VISIBLE
10
624.207000
20
492.608000
11
624.207000
21
482.703000
0
LINE
8
VISIBLE
10
624.207000
20
482.703000
11
628.707000
21
482.703000
0
LINE
8
VISIBLE
10
628.707000
20
472.798000
11
628.707000
21
482.703000
0
LINE
8
VISIBLE
10
624.207000
20
472.798000
11
628.707000
21
472.798000
0
LINE
8
VISIBLE
10
624.207000
20
472.798000
11
624.207000
21
462.894000
0
LINE
8
VISIBLE
10
624.207000
20
462.894000
11
628.707000
21
462.894000
0
LINE
8
VISIBLE
10
628.707000
20
452.989000
11
628.707000
21
462.894000
0
LINE
8
VISIBLE
10
624.207000
20
452.989000
11
628.707000
21
452.989000
0
LINE
8
VISIBLE
10
624.207000
20
452.989000
11
624.207000
21
443.084000
0
LINE
8
VISIBLE
10
624.207000
20
443.084000
11
628.707000
21
443.084000
0
LINE
8
VISIBLE
10
628.707000
20
433.179000
11
628.707000
21
443.084000
0
LINE
8
VISIBLE
10
624.207000
20
433.179000
11
628.707000
21
433.179000
0
LINE
8
VISIBLE
10
624.207000
20
433.179000
11
624.207000
21
423.275000
0
LINE
8
VISIBLE
10
624.207000
20
423.275000
11
628.707000
21
423.275000
0
LINE
8
VISIBLE
10
628.707000
20
413.370000
11
628.707000
21
423.275000
0
LINE
8
VISIBLE
10
624.207000
20
413.370000
11
628.707000
21
413.370000
0
LINE
8
VISIBLE
10
624.207000
20
413.370000
11
624.207000
21
403.465000
0
LINE
8
VISIBLE
10
624.207000
20
403.465000
11
628.707000
21
403.465000
0
LINE
8
VISIBLE
10
628.707000
20
393.560000
11
628.707000
21
403.465000
0
LINE
8
VISIBLE
10
624.207000
20
393.560000
11
628.707000
21
393.560000
0
LINE
8
VISIBLE
10
624.207000
20
393.560000
11
624.207000
21
383.655000
0
LINE
8
VISIBLE
10
624.207000
20
383.655000
11
628.707000
21
383.655000
0
LINE
8
VISIBLE
10
628.707000
20
373.751000
11
628.707000
21
383.655000
0
LINE
8
VISIBLE
10
624.207000
20
373.751000
11
628.707000
21
373.751000
0
LINE
8
VISIBLE
10
624.207000
20
373.751000
11
624.207000
21
363.846000
0
LINE
8
VISIBLE
10
624.207000
20
363.846000
11
628.707000
21
363.846000
0
LINE
8
VISIBLE
10
628.707000
20
353.941000
11
628.707000
21
363.846000
0
LINE
8
VISIBLE
10
624.207000
20
353.941000
11
628.707000
21
353.941000
0
LINE
8
VISIBLE
10
624.207000
20
353.941000
11
624.207000
21
344.037000
0
LINE
8
VISIBLE
10
624.207000
20
344.037000
11
628.707000
21
344.037000
0
LINE
8
VISIBLE
10
628.707000
20
334.132000
11
628.707000
21
344.037000
0
LINE
8
VISIBLE
10
628.707000
20
334.132000
11
621.209000
21
334.132000
0
LINE
8
VISIBLE
10
606.208000
20
349.132000
11
606.498884
21
346.191980
0
LINE
8
VISIBLE
10
606.498884
20
346.191980
11
607.349807
21
343.391749
0
LINE
8
VISIBLE
10
607.349807
20
343.391749
11
608.728176
21
340.809992
0
LINE
8
VISIBLE
10
608.728176
20
340.809992
11
610.601398
21
338.525398
0
LINE
8
VISIBLE
10
610.601398
20
338.525398
11
612.885992
21
336.652176
0
LINE
8
VISIBLE
10
612.885992
20
336.652176
11
615.467749
21
335.273807
0
LINE
8
VISIBLE
10
615.467749
20
335.273807
11
618.267980
21
334.422884
0
LINE
8
VISIBLE
10
618.267980
20
334.422884
11
621.208000
21
334.132000
0
LINE
8
VISIBLE
10
606.207000
20
349.132000
11
606.207000
21
549.882000
0
LINE
8
VISIBLE
10
619.209000
20
353.941000
11
614.708000
21
353.941000
0
LINE
8
VISIBLE
10
614.708000
20
344.037000
11
614.708000
21
353.941000
0
LINE
8
VISIBLE
10
619.209000
20
344.037000
11
614.708000
21
344.037000
0
LINE
8
VISIBLE
10
619.209000
20
344.037000
11
619.209000
21
353.941000
0
LINE
8
VISIBLE
10
619.209000
20
532.227000
11
614.708000
21
532.227000
0
LINE
8
VISIBLE
10
614.708000
20
522.322000
11
614.708000
21
532.227000
0
LINE
8
VISIBLE
10
619.209000
20
522.322000
11
614.708000
21
522.322000
0
LINE
8
VISIBLE
10
619.209000
20
522.322000
11
619.209000
21
532.227000
0
LINE
8
VISIBLE
10
619.209000
20
512.417000
11
614.708000
21
512.417000
0
LINE
8
VISIBLE
10
614.708000
20
502.512000
11
614.708000
21
512.417000
0
LINE
8
VISIBLE
10
619.209000
20
502.512000
11
614.708000
21
502.512000
0
LINE
8
VISIBLE
10
619.209000
20
502.512000
11
619.209000
21
512.417000
0
LINE
8
VISIBLE
10
619.209000
20
492.608000
11
614.708000
21
492.608000
0
LINE
8
VISIBLE
10
614.708000
20
482.703000
11
614.708000
21
492.608000
0
LINE
8
VISIBLE
10
619.209000
20
482.703000
11
614.708000
21
482.703000
0
LINE
8
VISIBLE
10
619.209000
20
482.703000
11
619.209000
21
492.608000
0
LINE
8
VISIBLE
10
619.209000
20
472.798000
11
614.708000
21
472.798000
0
LINE
8
VISIBLE
10
614.708000
20
462.894000
11
614.708000
21
472.798000
0
LINE
8
VISIBLE
10
619.209000
20
462.894000
11
614.708000
21
462.894000
0
LINE
8
VISIBLE
10
619.209000
20
462.894000
11
619.209000
21
472.798000
0
LINE
8
VISIBLE
10
619.209000
20
452.989000
11
614.708000
21
452.989000
0
LINE
8
VISIBLE
10
614.708000
20
443.084000
11
614.708000
21
452.989000
0
LINE
8
VISIBLE
10
619.209000
20
443.084000
11
614.708000
21
443.084000
0
LINE
8
VISIBLE
10
619.209000
20
443.084000
11
619.209000
21
452.989000
0
LINE
8
VISIBLE
10
619.209000
20
433.179000
11
614.708000
21
433.179000
0
LINE
8
VISIBLE
10
614.708000
20
423.275000
11
614.708000
21
433.179000
0
LINE
8
VISIBLE
10
619.209000
20
423.275000
11
614.708000
21
423.275000
0
LINE
8
VISIBLE
10
619.209000
20
423.275000
11
619.209000
21
433.179000
0
LINE
8
VISIBLE
10
619.209000
20
413.370000
11
614.708000
21
413.370000
0
LINE
8
VISIBLE
10
614.708000
20
403.465000
11
614.708000
21
413.370000
0
LINE
8
VISIBLE
10
619.209000
20
403.465000
11
614.708000
21
403.465000
0
LINE
8
VISIBLE
10
619.209000
20
403.465000
11
619.209000
21
413.370000
0
LINE
8
VISIBLE
10
619.209000
20
393.560000
11
614.708000
21
393.560000
0
LINE
8
VISIBLE
10
614.708000
20
383.655000
11
614.708000
21
393.560000
0
LINE
8
VISIBLE
10
619.209000
20
383.655000
11
614.708000
21
383.655000
0
LINE
8
VISIBLE
10
619.209000
20
383.655000
11
619.209000
21
393.560000
0
LINE
8
VISIBLE
10
619.209000
20
373.751000
11
614.708000
21
373.751000
0
LINE
8
VISIBLE
10
614.708000
20
363.846000
11
614.708000
21
373.751000
0
LINE
8
VISIBLE
10
619.209000
20
363.846000
11
614.708000
21
363.846000
0
LINE
8
VISIBLE
10
619.209000
20
363.846000
11
619.209000
21
373.751000
0
LINE
8
VISIBLE
10
608.620000
20
445.286000
11
611.795000
21
445.286000
0
LINE
8
VISIBLE
10
611.795000
20
450.786000
11
608.620000
21
450.786000
0
LINE
8
VISIBLE
10
617.708000
20
550.682000
11
617.569533
21
551.725668
0
LINE
8
VISIBLE
10
617.569533
20
551.725668
11
617.172094
21
552.681995
0
LINE
8
VISIBLE
10
617.172094
20
552.681995
11
616.542607
21
553.504348
0
LINE
8
VISIBLE
10
616.542607
20
553.504348
11
615.707995
21
554.146093
0
LINE
8
VISIBLE
10
615.707995
20
554.146093
11
614.734921
21
554.548016
0
LINE
8
VISIBLE
10
614.734921
20
554.548016
11
613.708000
21
554.681990
0
LINE
8
VISIBLE
10
613.708000
20
554.681990
11
612.681079
21
554.548016
0
LINE
8
VISIBLE
10
612.681079
20
554.548016
11
611.708005
21
554.146093
0
LINE
8
VISIBLE
10
611.708005
20
554.146093
11
610.873393
21
553.504348
0
LINE
8
VISIBLE
10
610.873393
20
553.504348
11
610.243907
21
552.681995
0
LINE
8
VISIBLE
10
610.243907
20
552.681995
11
609.846472
21
551.725668
0
LINE
8
VISIBLE
10
609.846472
20
551.725668
11
609.708010
21
550.682000
0
LINE
8
VISIBLE
10
609.708010
20
550.682000
11
609.846474
21
549.638332
0
LINE
8
VISIBLE
10
609.846474
20
549.638332
11
610.243911
21
548.682005
0
LINE
8
VISIBLE
10
610.243911
20
548.682005
11
610.873398
21
547.859652
0
LINE
8
VISIBLE
10
610.873398
20
547.859652
11
611.708010
21
547.217907
0
LINE
8
VISIBLE
10
611.708010
20
547.217907
11
612.681084
21
546.815984
0
LINE
8
VISIBLE
10
612.681084
20
546.815984
11
613.708005
21
546.682010
0
LINE
8
VISIBLE
10
613.708005
20
546.682010
11
614.734926
21
546.815984
0
LINE
8
VISIBLE
10
614.734926
20
546.815984
11
615.708000
21
547.217907
0
LINE
8
VISIBLE
10
615.708000
20
547.217907
11
616.542612
21
547.859652
0
LINE
8
VISIBLE
10
616.542612
20
547.859652
11
617.172098
21
548.682005
0
LINE
8
VISIBLE
10
617.172098
20
548.682005
11
617.569533
21
549.638332
0
LINE
8
VISIBLE
10
617.569533
20
549.638332
11
617.707995
21
550.682000
0
LINE
8
VISIBLE
10
617.707995
20
550.682000
11
617.708000
21
550.682000
0
LINE
8
VISIBLE
10
613.383000
20
448.036000
11
611.795000
21
450.786000
0
LINE
8
VISIBLE
10
608.620000
20
450.786000
11
607.033000
21
448.036000
0
LINE
8
VISIBLE
10
611.795000
20
445.286000
11
613.383000
21
448.036000
0
LINE
8
VISIBLE
10
607.033000
20
448.036000
11
608.620000
21
445.286000
0
LINE
8
VISIBLE
10
615.658000
20
550.682000
11
615.396750
21
551.657000
0
LINE
8
VISIBLE
10
615.396750
20
551.657000
11
614.683000
21
552.370750
0
LINE
8
VISIBLE
10
614.683000
20
552.370750
11
613.708000
21
552.632000
0
LINE
8
VISIBLE
10
613.708000
20
552.632000
11
612.733000
21
552.370750
0
LINE
8
VISIBLE
10
612.733000
20
552.370750
11
612.019250
21
551.657000
0
LINE
8
VISIBLE
10
612.019250
20
551.657000
11
611.758000
21
550.682000
0
LINE
8
VISIBLE
10
611.758000
20
550.682000
11
612.019250
21
549.707000
0
LINE
8
VISIBLE
10
612.019250
20
549.707000
11
612.733000
21
548.993250
0
LINE
8
VISIBLE
10
612.733000
20
548.993250
11
613.708000
21
548.732000
0
LINE
8
VISIBLE
10
613.708000
20
548.732000
11
614.683000
21
548.993250
0
LINE
8
VISIBLE
10
614.683000
20
548.993250
11
615.396750
21
549.707000
0
LINE
8
VISIBLE
10
615.396750
20
549.707000
11
615.658000
21
550.682000
0
LINE
8
VISIBLE
10
615.658000
20
550.682000
11
615.658000
21
550.682000
0
LINE
8
VISIBLE
10
611.708000
20
448.036000
11
611.507038
21
448.786000
0
LINE
8
VISIBLE
10
611.507038
20
448.786000
11
610.958000
21
449.335038
0
LINE
8
VISIBLE
10
610.958000
20
449.335038
11
610.208000
21
449.536000
0
LINE
8
VISIBLE
10
610.208000
20
449.536000
11
609.458000
21
449.335038
0
LINE
8
VISIBLE
10
609.458000
20
449.335038
11
608.908962
21
448.786000
0
LINE
8
VISIBLE
10
608.908962
20
448.786000
11
608.708000
21
448.036000
0
LINE
8
VISIBLE
10
608.708000
20
448.036000
11
608.908962
21
447.286000
0
LINE
8
VISIBLE
10
608.908962
20
447.286000
11
609.458000
21
446.736962
0
LINE
8
VISIBLE
10
609.458000
20
446.736962
11
610.208000
21
446.536000
0
LINE
8
VISIBLE
10
610.208000
20
446.536000
11
610.958000
21
446.736962
0
LINE
8
VISIBLE
10
610.958000
20
446.736962
11
611.507038
21
447.286000
0
LINE
8
VISIBLE
10
611.507038
20
447.286000
11
611.708000
21
448.036000
0
LINE
8
VISIBLE
10
611.708000
20
448.036000
11
611.708000
21
448.036000
0
LINE
8
VISIBLE
10
699.208000
20
338.632000
11
699.208000
21
334.132000
0
LINE
8
VISIBLE
10
695.708000
20
343.132000
11
699.208000
21
343.132000
0
LINE
8
VISIBLE
10
699.208000
20
347.632000
11
699.208000
21
343.132000
0
LINE
8
VISIBLE
10
702.709000
20
347.632000
11
699.208000
21
347.632000
0
LINE
8
VISIBLE
10
707.208000
20
343.132000
11
707.120736
21
344.014007
0
LINE
8
VISIBLE
10
707.120736
20
344.014007
11
706.865461
21
344.854077
0
LINE
8
VISIBLE
10
706.865461
20
344.854077
11
706.451950
21
345.628605
0
LINE
8
VISIBLE
10
706.451950
20
345.628605
11
705.889983
21
346.313983
0
LINE
8
VISIBLE
10
705.889983
20
346.313983
11
705.204605
21
346.875950
0
LINE
8
VISIBLE
10
705.204605
20
346.875950
11
704.430077
21
347.289461
0
LINE
8
VISIBLE
10
704.430077
20
347.289461
11
703.590007
21
347.544736
0
LINE
8
VISIBLE
10
703.590007
20
347.544736
11
702.708000
21
347.632000
0
LINE
8
VISIBLE
10
707.209000
20
343.132000
11
707.209000
21
338.632000
0
LINE
8
VISIBLE
10
702.708000
20
334.132000
11
703.590007
21
334.219264
0
LINE
8
VISIBLE
10
703.590007
20
334.219264
11
704.430077
21
334.474539
0
LINE
8
VISIBLE
10
704.430077
20
334.474539
11
705.204605
21
334.888050
0
LINE
8
VISIBLE
10
705.204605
20
334.888050
11
705.889983
21
335.450017
0
LINE
8
VISIBLE
10
705.889983
20
335.450017
11
706.451950
21
336.135395
0
LINE
8
VISIBLE
10
706.451950
20
336.135395
11
706.865461
21
336.909923
0
LINE
8
VISIBLE
10
706.865461
20
336.909923
11
707.120736
21
337.749993
0
LINE
8
VISIBLE
10
707.120736
20
337.749993
11
707.208000
21
338.632000
0
LINE
8
VISIBLE
10
702.709000
20
334.132000
11
699.208000
21
334.132000
0
LINE
8
VISIBLE
10
706.458000
20
340.882000
11
706.362807
21
341.599524
0
LINE
8
VISIBLE
10
706.362807
20
341.599524
11
706.089570
21
342.257000
0
LINE
8
VISIBLE
10
706.089570
20
342.257000
11
705.656797
21
342.822369
0
LINE
8
VISIBLE
10
705.656797
20
342.822369
11
705.083000
21
343.263570
0
LINE
8
VISIBLE
10
705.083000
20
343.263570
11
704.414010
21
343.539892
0
LINE
8
VISIBLE
10
704.414010
20
343.539892
11
703.708000
21
343.632000
0
LINE
8
VISIBLE
10
703.708000
20
343.632000
11
703.001990
21
343.539892
0
LINE
8
VISIBLE
10
703.001990
20
343.539892
11
702.333000
21
343.263570
0
LINE
8
VISIBLE
10
702.333000
20
343.263570
11
701.759203
21
342.822369
0
LINE
8
VISIBLE
10
701.759203
20
342.822369
11
701.326430
21
342.257000
0
LINE
8
VISIBLE
10
701.326430
20
342.257000
11
701.053193
21
341.599524
0
LINE
8
VISIBLE
10
701.053193
20
341.599524
11
700.958000
21
340.882000
0
LINE
8
VISIBLE
10
700.958000
20
340.882000
11
701.053193
21
340.164476
0
LINE
8
VISIBLE
10
701.053193
20
340.164476
11
701.326430
21
339.507000
0
LINE
8
VISIBLE
10
701.326430
20
339.507000
11
701.759203
21
338.941631
0
LINE
8
VISIBLE
10
701.759203
20
338.941631
11
702.333000
21
338.500430
0
LINE
8
VISIBLE
10
702.333000
20
338.500430
11
703.001990
21
338.224108
0
LINE
8
VISIBLE
10
703.001990
20
338.224108
11
703.708000
21
338.132000
0
LINE
8
VISIBLE
10
703.708000
20
338.132000
11
704.414010
21
338.224108
0
LINE
8
VISIBLE
10
704.414010
20
338.224108
11
705.083000
21
338.500430
0
LINE
8
VISIBLE
10
705.083000
20
338.500430
11
705.656797
21
338.941631
0
LINE
8
VISIBLE
10
705.656797
20
338.941631
11
706.089570
21
339.507000
0
LINE
8
VISIBLE
10
706.089570
20
339.507000
11
706.362807
21
340.164476
0
LINE
8
VISIBLE
10
706.362807
20
340.164476
11
706.458000
21
340.882000
0
LINE
8
VISIBLE
10
706.458000
20
340.882000
11
706.458000
21
340.882000
0
LINE
8
VISIBLE
10
695.708000
20
338.632000
11
699.208000
21
338.632000
0
LINE
8
VISIBLE
10
695.708000
20
343.132000
11
695.708000
21
338.632000
0
LINE
8
VISIBLE
10
705.208000
20
340.882000
11
705.007038
21
341.632000
0
LINE
8
VISIBLE
10
705.007038
20
341.632000
11
704.458000
21
342.181038
0
LINE
8
VISIBLE
10
704.458000
20
342.181038
11
703.708000
21
342.382000
0
LINE
8
VISIBLE
10
703.708000
20
342.382000
11
702.958000
21
342.181038
0
LINE
8
VISIBLE
10
702.958000
20
342.181038
11
702.408962
21
341.632000
0
LINE
8
VISIBLE
10
702.408962
20
341.632000
11
702.208000
21
340.882000
0
LINE
8
VISIBLE
10
702.208000
20
340.882000
11
702.408962
21
340.132000
0
LINE
8
VISIBLE
10
702.408962
20
340.132000
11
702.958000
21
339.582962
0
LINE
8
VISIBLE
10
702.958000
20
339.582962
11
703.708000
21
339.382000
0
LINE
8
VISIBLE
10
703.708000
20
339.382000
11
704.458000
21
339.582962
0
LINE
8
VISIBLE
10
704.458000
20
339.582962
11
705.007038
21
340.132000
0
LINE
8
VISIBLE
10
705.007038
20
340.132000
11
705.208000
21
340.882000
0
LINE
8
VISIBLE
10
705.208000
20
340.882000
11
705.208000
21
340.882000
0
LINE
8
VISIBLE
10
662.152000
20
501.462000
11
662.051615
21
502.218661
0
LINE
8
VISIBLE
10
662.051615
20
502.218661
11
661.763474
21
502.912000
0
LINE
8
VISIBLE
10
661.763474
20
502.912000
11
661.307095
21
503.508207
0
LINE
8
VISIBLE
10
661.307095
20
503.508207
11
660.702000
21
503.973474
0
LINE
8
VISIBLE
10
660.702000
20
503.973474
11
659.996520
21
504.264868
0
LINE
8
VISIBLE
10
659.996520
20
504.264868
11
659.252000
21
504.362000
0
LINE
8
VISIBLE
10
659.252000
20
504.362000
11
658.507480
21
504.264868
0
LINE
8
VISIBLE
10
658.507480
20
504.264868
11
657.802000
21
503.973474
0
LINE
8
VISIBLE
10
657.802000
20
503.973474
11
657.196905
21
503.508207
0
LINE
8
VISIBLE
10
657.196905
20
503.508207
11
656.740526
21
502.912000
0
LINE
8
VISIBLE
10
656.740526
20
502.912000
11
656.452385
21
502.218661
0
LINE
8
VISIBLE
10
656.452385
20
502.218661
11
656.352000
21
501.462000
0
LINE
8
VISIBLE
10
656.352000
20
501.462000
11
656.452385
21
500.705339
0
LINE
8
VISIBLE
10
656.452385
20
500.705339
11
656.740526
21
500.012000
0
LINE
8
VISIBLE
10
656.740526
20
500.012000
11
657.196905
21
499.415793
0
LINE
8
VISIBLE
10
657.196905
20
499.415793
11
657.802000
21
498.950526
0
LINE
8
VISIBLE
10
657.802000
20
498.950526
11
658.507480
21
498.659132
0
LINE
8
VISIBLE
10
658.507480
20
498.659132
11
659.252000
21
498.562000
0
LINE
8
VISIBLE
10
659.252000
20
498.562000
11
659.996520
21
498.659132
0
LINE
8
VISIBLE
10
659.996520
20
498.659132
11
660.702000
21
498.950526
0
LINE
8
VISIBLE
10
660.702000
20
498.950526
11
661.307095
21
499.415793
0
LINE
8
VISIBLE
10
661.307095
20
499.415793
11
661.763474
21
500.012000
0
LINE
8
VISIBLE
10
661.763474
20
500.012000
11
662.051615
21
500.705339
0
LINE
8
VISIBLE
10
662.051615
20
500.705339
11
662.152000
21
501.462000
0
LINE
8
VISIBLE
10
662.152000
20
501.462000
11
662.152000
21
501.462000
0
LINE
8
VISIBLE
10
654.451000
20
493.962000
11
651.253000
21
493.962000
0
LINE
8
VISIBLE
10
651.253000
20
493.962000
11
651.253000
21
501.462000
0
LINE
8
VISIBLE
10
667.252000
20
501.462000
11
666.975071
21
503.549339
0
LINE
8
VISIBLE
10
666.975071
20
503.549339
11
666.180196
21
505.461995
0
LINE
8
VISIBLE
10
666.180196
20
505.461995
11
664.921222
21
507.106703
0
LINE
8
VISIBLE
10
664.921222
20
507.106703
11
663.251995
21
508.390195
0
LINE
8
VISIBLE
10
663.251995
20
508.390195
11
661.305845
21
509.194041
0
LINE
8
VISIBLE
10
661.305845
20
509.194041
11
659.252000
21
509.461990
0
LINE
8
VISIBLE
10
659.252000
20
509.461990
11
657.198155
21
509.194041
0
LINE
8
VISIBLE
10
657.198155
20
509.194041
11
655.252005
21
508.390195
0
LINE
8
VISIBLE
10
655.252005
20
508.390195
11
653.582778
21
507.106703
0
LINE
8
VISIBLE
10
653.582778
20
507.106703
11
652.323805
21
505.461995
0
LINE
8
VISIBLE
10
652.323805
20
505.461995
11
651.528933
21
503.549339
0
LINE
8
VISIBLE
10
651.528933
20
503.549339
11
651.252010
21
501.462000
0
LINE
8
VISIBLE
10
667.252000
20
493.962000
11
667.252000
21
501.462000
0
LINE
8
VISIBLE
10
667.252000
20
493.962000
11
664.053000
21
493.962000
0
LINE
8
VISIBLE
10
664.053000
20
489.462000
11
664.053000
21
493.962000
0
LINE
8
VISIBLE
10
660.852000
20
489.462000
11
664.053000
21
489.462000
0
LINE
8
VISIBLE
10
660.852000
20
489.462000
11
660.852000
21
493.962000
0
LINE
8
VISIBLE
10
660.852000
20
493.962000
11
657.653000
21
493.962000
0
LINE
8
VISIBLE
10
657.653000
20
489.462000
11
657.653000
21
493.962000
0
LINE
8
VISIBLE
10
654.451000
20
489.462000
11
657.653000
21
489.462000
0
LINE
8
VISIBLE
10
654.451000
20
489.462000
11
654.451000
21
493.962000
0
LINE
8
VISIBLE
10
640.294000
20
509.238000
11
644.442000
21
506.843000
0
LINE
8
VISIBLE
10
650.252000
20
500.890000
11
650.252000
21
500.364000
0
LINE
8
VISIBLE
10
648.500000
20
496.800000
11
649.239938
21
497.520134
0
LINE
8
VISIBLE
10
649.239938
20
497.520134
11
649.790429
21
498.378274
0
LINE
8
VISIBLE
10
649.790429
20
498.378274
11
650.133705
21
499.338277
0
LINE
8
VISIBLE
10
650.133705
20
499.338277
11
650.252000
21
500.364000
0
LINE
8
VISIBLE
10
646.770000
20
499.797000
11
648.501000
21
496.800000
0
LINE
8
VISIBLE
10
640.294000
20
492.016000
11
644.622000
21
494.515000
0
LINE
8
VISIBLE
10
633.107000
20
493.627000
11
629.747000
21
493.627000
0
LINE
8
VISIBLE
10
633.107000
20
498.127000
11
629.708000
21
498.127000
0
LINE
8
VISIBLE
10
629.708000
20
498.127000
11
629.708000
21
503.127000
0
LINE
8
VISIBLE
10
633.107000
20
503.127000
11
629.708000
21
503.127000
0
LINE
8
VISIBLE
10
633.107000
20
507.627000
11
633.107000
21
503.127000
0
LINE
8
VISIBLE
10
633.107000
20
507.627000
11
629.747000
21
507.627000
0
LINE
8
VISIBLE
10
632.414000
20
511.189000
11
631.959000
21
510.926000
0
LINE
8
VISIBLE
10
635.708000
20
495.877000
11
635.708000
21
498.127000
0
LINE
8
VISIBLE
10
640.709000
20
495.877000
11
635.708000
21
495.877000
0
LINE
8
VISIBLE
10
640.709000
20
498.127000
11
640.709000
21
495.877000
0
LINE
8
VISIBLE
10
642.958000
20
498.127000
11
640.709000
21
498.127000
0
LINE
8
VISIBLE
10
642.958000
20
503.127000
11
642.958000
21
498.127000
0
LINE
8
VISIBLE
10
640.709000
20
503.127000
11
642.958000
21
503.127000
0
LINE
8
VISIBLE
10
640.709000
20
505.377000
11
640.709000
21
503.127000
0
LINE
8
VISIBLE
10
635.708000
20
505.377000
11
640.709000
21
505.377000
0
LINE
8
VISIBLE
10
635.708000
20
503.127000
11
635.708000
21
505.377000
0
LINE
8
VISIBLE
10
633.459000
20
503.127000
11
635.708000
21
503.127000
0
LINE
8
VISIBLE
10
633.459000
20
498.127000
11
633.459000
21
503.127000
0
LINE
8
VISIBLE
10
635.708000
20
498.127000
11
633.459000
21
498.127000
0
LINE
8
VISIBLE
10
646.770000
20
499.797000
11
642.873000
21
497.547000
0
LINE
8
VISIBLE
10
642.873000
20
497.547000
11
644.622000
21
494.515000
0
LINE
8
VISIBLE
10
631.959000
20
490.328000
11
632.414000
21
490.065000
0
LINE
8
VISIBLE
10
650.252000
20
500.890000
11
650.121005
21
501.967775
0
LINE
8
VISIBLE
10
650.121005
20
501.967775
11
649.742597
21
502.969350
0
LINE
8
VISIBLE
10
649.742597
20
502.969350
11
649.138391
21
503.853249
0
LINE
8
VISIBLE
10
649.138391
20
503.853249
11
648.330000
21
504.578000
0
LINE
8
VISIBLE
10
632.414000
20
490.065000
11
633.361308
21
489.654609
0
LINE
8
VISIBLE
10
633.361308
20
489.654609
11
634.364190
21
489.471855
0
LINE
8
VISIBLE
10
634.364190
20
489.471855
11
635.382476
21
489.519423
0
LINE
8
VISIBLE
10
635.382476
20
489.519423
11
636.376000
21
489.800000
0
LINE
8
VISIBLE
10
631.958000
20
510.926000
11
631.129034
21
510.310682
0
LINE
8
VISIBLE
10
631.129034
20
510.310682
11
630.469441
21
509.533446
0
LINE
8
VISIBLE
10
630.469441
20
509.533446
11
630.001628
21
508.627737
0
LINE
8
VISIBLE
10
630.001628
20
508.627737
11
629.748000
21
507.627000
0
LINE
8
VISIBLE
10
636.376000
20
511.453000
11
635.382563
21
511.733816
0
LINE
8
VISIBLE
10
635.382563
20
511.733816
11
634.364306
21
511.781637
0
LINE
8
VISIBLE
10
634.364306
20
511.781637
11
633.361397
21
511.599139
0
LINE
8
VISIBLE
10
633.361397
20
511.599139
11
632.414000
21
511.189000
0
LINE
8
VISIBLE
10
638.542000
20
495.047000
11
634.645000
21
492.797000
0
LINE
8
VISIBLE
10
634.645000
20
492.797000
11
636.375000
21
489.800000
0
LINE
8
VISIBLE
10
642.691000
20
503.812000
11
646.588000
21
501.562000
0
LINE
8
VISIBLE
10
646.588000
20
501.562000
11
648.329000
21
504.578000
0
LINE
8
VISIBLE
10
642.691000
20
503.812000
11
644.442000
21
506.843000
0
LINE
8
VISIBLE
10
638.542000
20
506.207000
11
640.294000
21
509.238000
0
LINE
8
VISIBLE
10
634.645000
20
508.457000
11
636.375000
21
511.454000
0
LINE
8
VISIBLE
10
633.107000
20
498.127000
11
633.107000
21
493.627000
0
LINE
8
VISIBLE
10
629.748000
20
493.627000
11
630.001628
21
492.626263
0
LINE
8
VISIBLE
10
630.001628
20
492.626263
11
630.469441
21
491.720554
0
LINE
8
VISIBLE
10
630.469441
20
491.720554
11
631.129034
21
490.943318
0
LINE
8
VISIBLE
10
631.129034
20
490.943318
11
631.958000
21
490.328000
0
LINE
8
VISIBLE
10
638.542000
20
495.047000
11
640.294000
21
492.016000
0
LINE
8
VISIBLE
10
634.645000
20
508.457000
11
638.542000
21
506.207000
0
LINE
8
VISIBLE
10
673.708000
20
624.131000
11
674.751668
21
624.269467
0
LINE
8
VISIBLE
10
674.751668
20
624.269467
11
675.707995
21
624.666906
0
LINE
8
VISIBLE
10
675.707995
20
624.666906
11
676.530348
21
625.296393
0
LINE
8
VISIBLE
10
676.530348
20
625.296393
11
677.172093
21
626.131005
0
LINE
8
VISIBLE
10
677.172093
20
626.131005
11
677.574016
21
627.104079
0
LINE
8
VISIBLE
10
677.574016
20
627.104079
11
677.707990
21
628.131000
0
LINE
8
VISIBLE
10
677.707990
20
628.131000
11
677.574016
21
629.157921
0
LINE
8
VISIBLE
10
677.574016
20
629.157921
11
677.172093
21
630.130995
0
LINE
8
VISIBLE
10
677.172093
20
630.130995
11
676.530348
21
630.965607
0
LINE
8
VISIBLE
10
676.530348
20
630.965607
11
675.707995
21
631.595093
0
LINE
8
VISIBLE
10
675.707995
20
631.595093
11
674.751668
21
631.992528
0
LINE
8
VISIBLE
10
674.751668
20
631.992528
11
673.708000
21
632.130990
0
LINE
8
VISIBLE
10
586.708000
20
624.130000
11
673.708000
21
624.130000
0
LINE
8
VISIBLE
10
586.708000
20
632.131000
11
585.664332
21
631.992533
0
LINE
8
VISIBLE
10
585.664332
20
631.992533
11
584.708005
21
631.595094
0
LINE
8
VISIBLE
10
584.708005
20
631.595094
11
583.885652
21
630.965607
0
LINE
8
VISIBLE
10
583.885652
20
630.965607
11
583.243907
21
630.130995
0
LINE
8
VISIBLE
10
583.243907
20
630.130995
11
582.841984
21
629.157921
0
LINE
8
VISIBLE
10
582.841984
20
629.157921
11
582.708010
21
628.131000
0
LINE
8
VISIBLE
10
582.708010
20
628.131000
11
582.841984
21
627.104079
0
LINE
8
VISIBLE
10
582.841984
20
627.104079
11
583.243907
21
626.131005
0
LINE
8
VISIBLE
10
583.243907
20
626.131005
11
583.885652
21
625.296393
0
LINE
8
VISIBLE
10
583.885652
20
625.296393
11
584.708005
21
624.666907
0
LINE
8
VISIBLE
10
584.708005
20
624.666907
11
585.664332
21
624.269472
0
LINE
8
VISIBLE
10
585.664332
20
624.269472
11
586.708000
21
624.131010
0
LINE
8
VISIBLE
10
674.803000
20
627.881000
11
674.602038
21
628.631000
0
LINE
8
VISIBLE
10
674.602038
20
628.631000
11
674.053000
21
629.180038
0
LINE
8
VISIBLE
10
674.053000
20
629.180038
11
673.303000
21
629.381000
0
LINE
8
VISIBLE
10
673.303000
20
629.381000
11
672.553000
21
629.180038
0
LINE
8
VISIBLE
10
672.553000
20
629.180038
11
672.003962
21
628.631000
0
LINE
8
VISIBLE
10
672.003962
20
628.631000
11
671.803000
21
627.881000
0
LINE
8
VISIBLE
10
671.803000
20
627.881000
11
672.003962
21
627.131000
0
LINE
8
VISIBLE
10
672.003962
20
627.131000
11
672.553000
21
626.581962
0
LINE
8
VISIBLE
10
672.553000
20
626.581962
11
673.303000
21
626.381000
0
LINE
8
VISIBLE
10
673.303000
20
626.381000
11
674.053000
21
626.581962
0
LINE
8
VISIBLE
10
674.053000
20
626.581962
11
674.602038
21
627.131000
0
LINE
8
VISIBLE
10
674.602038
20
627.131000
11
674.803000
21
627.881000
0
LINE
8
VISIBLE
10
674.803000
20
627.881000
11
674.803000
21
627.881000
0
LINE
8
VISIBLE
10
586.708000
20
632.131000
11
673.708000
21
632.131000
0
LINE
8
VISIBLE
10
588.208000
20
628.131000
11
588.007038
21
628.881000
0
LINE
8
VISIBLE
10
588.007038
20
628.881000
11
587.458000
21
629.430038
0
LINE
8
VISIBLE
10
587.458000
20
629.430038
11
586.708000
21
629.631000
0
LINE
8
VISIBLE
10
586.708000
20
629.631000
11
585.958000
21
629.430038
0
LINE
8
VISIBLE
10
585.958000
20
629.430038
11
585.408962
21
628.881000
0
LINE
8
VISIBLE
10
585.408962
20
628.881000
11
585.208000
21
628.131000
0
LINE
8
VISIBLE
10
585.208000
20
628.131000
11
585.408962
21
627.381000
0
LINE
8
VISIBLE
10
585.408962
20
627.381000
11
585.958000
21
626.831962
0
LINE
8
VISIBLE
10
585.958000
20
626.831962
11
586.708000
21
626.631000
0
LINE
8
VISIBLE
10
586.708000
20
626.631000
11
587.458000
21
626.831962
0
LINE
8
VISIBLE
10
587.458000
20
626.831962
11
588.007038
21
627.381000
0
LINE
8
VISIBLE
10
588.007038
20
627.381000
11
588.208000
21
628.131000
0
LINE
8
VISIBLE
10
588.208000
20
628.131000
11
588.208000
21
628.131000
0
LINE
8
VISIBLE
10
758.708000
20
344.037000
11
763.208000
21
344.037000
0
LINE
8
VISIBLE
10
763.208000
20
353.941000
11
763.208000
21
363.846000
0
LINE
8
VISIBLE
10
758.708000
20
363.846000
11
763.208000
21
363.846000
0
LINE
8
VISIBLE
10
758.708000
20
363.846000
11
758.708000
21
373.751000
0
LINE
8
VISIBLE
10
763.208000
20
373.751000
11
763.208000
21
383.655000
0
LINE
8
VISIBLE
10
758.708000
20
383.655000
11
763.208000
21
383.655000
0
LINE
8
VISIBLE
10
758.708000
20
383.655000
11
758.708000
21
393.560000
0
LINE
8
VISIBLE
10
758.708000
20
393.560000
11
763.208000
21
393.560000
0
LINE
8
VISIBLE
10
763.208000
20
393.560000
11
763.208000
21
403.465000
0
LINE
8
VISIBLE
10
758.708000
20
403.465000
11
763.208000
21
403.465000
0
LINE
8
VISIBLE
10
763.208000
20
413.370000
11
763.208000
21
423.275000
0
LINE
8
VISIBLE
10
758.708000
20
423.275000
11
763.208000
21
423.275000
0
LINE
8
VISIBLE
10
763.208000
20
433.179000
11
763.208000
21
443.084000
0
LINE
8
VISIBLE
10
758.708000
20
443.084000
11
763.208000
21
443.084000
0
LINE
8
VISIBLE
10
758.708000
20
443.084000
11
758.708000
21
452.989000
0
LINE
8
VISIBLE
10
763.208000
20
452.989000
11
763.208000
21
462.894000
0
LINE
8
VISIBLE
10
758.708000
20
462.894000
11
763.208000
21
462.894000
0
LINE
8
VISIBLE
10
763.208000
20
472.798000
11
763.208000
21
482.703000
0
LINE
8
VISIBLE
10
758.708000
20
482.703000
11
763.208000
21
482.703000
0
LINE
8
VISIBLE
10
758.708000
20
482.703000
11
758.708000
21
492.608000
0
LINE
8
VISIBLE
10
763.208000
20
492.608000
11
763.208000
21
502.512000
0
LINE
8
VISIBLE
10
758.708000
20
502.512000
11
763.208000
21
502.512000
0
LINE
8
VISIBLE
10
763.208000
20
512.417000
11
763.208000
21
522.322000
0
LINE
8
VISIBLE
10
758.708000
20
522.322000
11
763.208000
21
522.322000
0
LINE
8
VISIBLE
10
758.708000
20
522.322000
11
758.708000
21
532.227000
0
LINE
8
VISIBLE
10
763.208000
20
532.227000
11
763.208000
21
542.131000
0
LINE
8
VISIBLE
10
772.707000
20
532.227000
11
768.209000
21
532.227000
0
LINE
8
VISIBLE
10
772.707000
20
522.322000
11
772.707000
21
532.227000
0
LINE
8
VISIBLE
10
768.209000
20
522.322000
11
768.209000
21
512.417000
0
LINE
8
VISIBLE
10
772.707000
20
512.417000
11
768.209000
21
512.417000
0
LINE
8
VISIBLE
10
768.209000
20
502.512000
11
768.209000
21
492.608000
0
LINE
8
VISIBLE
10
772.707000
20
492.608000
11
768.209000
21
492.608000
0
LINE
8
VISIBLE
10
768.209000
20
482.703000
11
768.209000
21
472.798000
0
LINE
8
VISIBLE
10
772.707000
20
472.798000
11
768.209000
21
472.798000
0
LINE
8
VISIBLE
10
768.209000
20
462.894000
11
768.209000
21
452.989000
0
LINE
8
VISIBLE
10
772.707000
20
452.989000
11
768.209000
21
452.989000
0
LINE
8
VISIBLE
10
768.209000
20
443.084000
11
768.209000
21
433.179000
0
LINE
8
VISIBLE
10
772.707000
20
433.179000
11
768.209000
21
433.179000
0
LINE
8
VISIBLE
10
768.209000
20
423.275000
11
768.209000
21
413.370000
0
LINE
8
VISIBLE
10
772.707000
20
413.370000
11
768.209000
21
413.370000
0
LINE
8
VISIBLE
10
768.209000
20
403.465000
11
768.209000
21
393.560000
0
LINE
8
VISIBLE
10
772.707000
20
393.560000
11
768.209000
21
393.560000
0
LINE
8
VISIBLE
10
772.707000
20
383.655000
11
768.209000
21
383.655000
0
LINE
8
VISIBLE
10
768.209000
20
383.655000
11
768.209000
21
373.751000
0
LINE
8
VISIBLE
10
772.707000
20
373.751000
11
768.209000
21
373.751000
0
LINE
8
VISIBLE
10
768.209000
20
363.846000
11
768.209000
21
353.941000
0
LINE
8
VISIBLE
10
772.707000
20
353.941000
11
768.209000
21
353.941000
0
LINE
8
VISIBLE
10
772.707000
20
344.037000
11
768.209000
21
344.037000
0
LINE
8
VISIBLE
10
768.209000
20
344.037000
11
768.209000
21
334.132000
0
LINE
8
VISIBLE
10
768.209000
20
542.131000
11
763.208000
21
542.131000
0
LINE
8
VISIBLE
10
772.707000
20
363.846000
11
772.707000
21
373.751000
0
LINE
8
VISIBLE
10
772.707000
20
502.512000
11
772.707000
21
512.417000
0
LINE
8
VISIBLE
10
772.707000
20
344.037000
11
772.707000
21
353.941000
0
LINE
8
VISIBLE
10
772.707000
20
363.846000
11
768.209000
21
363.846000
0
LINE
8
VISIBLE
10
758.708000
20
462.894000
11
758.708000
21
472.798000
0
LINE
8
VISIBLE
10
758.708000
20
492.608000
11
763.208000
21
492.608000
0
LINE
8
VISIBLE
10
758.708000
20
512.417000
11
763.208000
21
512.417000
0
LINE
8
VISIBLE
10
758.708000
20
452.989000
11
763.208000
21
452.989000
0
LINE
8
VISIBLE
10
758.708000
20
433.179000
11
763.208000
21
433.179000
0
LINE
8
VISIBLE
10
758.708000
20
423.275000
11
758.708000
21
433.179000
0
LINE
8
VISIBLE
10
758.708000
20
403.465000
11
758.708000
21
413.370000
0
LINE
8
VISIBLE
10
758.708000
20
344.037000
11
758.708000
21
353.941000
0
LINE
8
VISIBLE
10
758.708000
20
502.512000
11
758.708000
21
512.417000
0
LINE
8
VISIBLE
10
768.209000
20
334.132000
11
763.208000
21
334.132000
0
LINE
8
VISIBLE
10
772.707000
20
482.703000
11
772.707000
21
492.608000
0
LINE
8
VISIBLE
10
772.707000
20
462.894000
11
772.707000
21
472.798000
0
LINE
8
VISIBLE
10
758.708000
20
472.798000
11
763.208000
21
472.798000
0
LINE
8
VISIBLE
10
772.707000
20
403.465000
11
772.707000
21
413.370000
0
LINE
8
VISIBLE
10
772.707000
20
383.655000
11
772.707000
21
393.560000
0
LINE
8
VISIBLE
10
763.208000
20
334.132000
11
763.208000
21
344.037000
0
LINE
8
VISIBLE
10
758.708000
20
413.370000
11
763.208000
21
413.370000
0
LINE
8
VISIBLE
10
758.708000
20
532.227000
11
763.208000
21
532.227000
0
LINE
8
VISIBLE
10
758.708000
20
353.941000
11
763.208000
21
353.941000
0
LINE
8
VISIBLE
10
772.707000
20
423.275000
11
768.209000
21
423.275000
0
LINE
8
VISIBLE
10
772.707000
20
403.465000
11
768.209000
21
403.465000
0
LINE
8
VISIBLE
10
768.209000
20
542.131000
11
768.209000
21
532.227000
0
LINE
8
VISIBLE
10
758.708000
20
373.751000
11
763.208000
21
373.751000
0
LINE
8
VISIBLE
10
772.707000
20
522.322000
11
768.209000
21
522.322000
0
LINE
8
VISIBLE
10
772.707000
20
423.275000
11
772.707000
21
433.179000
0
LINE
8
VISIBLE
10
772.707000
20
482.703000
11
768.209000
21
482.703000
0
LINE
8
VISIBLE
10
772.707000
20
462.894000
11
768.209000
21
462.894000
0
LINE
8
VISIBLE
10
772.707000
20
443.084000
11
772.707000
21
452.989000
0
LINE
8
VISIBLE
10
772.707000
20
443.084000
11
768.209000
21
443.084000
0
LINE
8
VISIBLE
10
772.707000
20
502.512000
11
768.209000
21
502.512000
0
LINE
8
VISIBLE
10
695.533000
20
471.913000
11
697.782000
21
471.913000
0
LINE
8
VISIBLE
10
701.315000
20
474.163000
11
701.036790
21
476.258466
0
LINE
8
VISIBLE
10
701.036790
20
476.258466
11
700.238716
21
478.178570
0
LINE
8
VISIBLE
10
700.238716
20
478.178570
11
698.974802
21
479.829682
0
LINE
8
VISIBLE
10
698.974802
20
479.829682
11
697.299070
21
481.118171
0
LINE
8
VISIBLE
10
697.299070
20
481.118171
11
695.345342
21
481.925148
0
LINE
8
VISIBLE
10
695.345342
20
481.925148
11
693.283500
21
482.194140
0
LINE
8
VISIBLE
10
693.283500
20
482.194140
11
691.221658
21
481.925148
0
LINE
8
VISIBLE
10
691.221658
20
481.925148
11
689.267930
21
481.118171
0
LINE
8
VISIBLE
10
689.267930
20
481.118171
11
687.592204
21
479.829682
0
LINE
8
VISIBLE
10
687.592204
20
479.829682
11
686.328329
21
478.178570
0
LINE
8
VISIBLE
10
686.328329
20
478.178570
11
685.530362
21
476.258466
0
LINE
8
VISIBLE
10
685.530362
20
476.258466
11
685.252360
21
474.163000
0
LINE
8
VISIBLE
10
685.252360
20
474.163000
11
685.530466
21
472.067534
0
LINE
8
VISIBLE
10
685.530466
20
472.067534
11
686.328486
21
470.147430
0
LINE
8
VISIBLE
10
686.328486
20
470.147430
11
687.592381
21
468.496318
0
LINE
8
VISIBLE
10
687.592381
20
468.496318
11
689.268110
21
467.207829
0
LINE
8
VISIBLE
10
689.268110
20
467.207829
11
691.221838
21
466.400852
0
LINE
8
VISIBLE
10
691.221838
20
466.400852
11
693.283680
21
466.131860
0
LINE
8
VISIBLE
10
693.283680
20
466.131860
11
695.345522
21
466.400852
0
LINE
8
VISIBLE
10
695.345522
20
466.400852
11
697.299250
21
467.207829
0
LINE
8
VISIBLE
10
697.299250
20
467.207829
11
698.974976
21
468.496318
0
LINE
8
VISIBLE
10
698.974976
20
468.496318
11
700.238851
21
470.147430
0
LINE
8
VISIBLE
10
700.238851
20
470.147430
11
701.036818
21
472.067534
0
LINE
8
VISIBLE
10
701.036818
20
472.067534
11
701.314820
21
474.163000
0
LINE
8
VISIBLE
10
701.314820
20
474.163000
11
701.315000
21
474.163000
0
LINE
8
VISIBLE
10
688.784000
20
471.913000
11
691.033000
21
471.913000
0
LINE
8
VISIBLE
10
691.033000
20
476.413000
11
688.784000
21
476.413000
0
LINE
8
VISIBLE
10
695.533000
20
478.663000
11
695.533000
21
476.413000
0
LINE
8
VISIBLE
10
697.782000
20
476.413000
11
695.533000
21
476.413000
0
LINE
8
VISIBLE
10
691.033000
20
478.663000
11
695.533000
21
478.663000
0
LINE
8
VISIBLE
10
697.782000
20
471.913000
11
697.782000
21
476.413000
0
LINE
8
VISIBLE
10
691.033000
20
478.663000
11
691.033000
21
476.413000
0
LINE
8
VISIBLE
10
695.533000
20
469.663000
11
695.533000
21
471.913000
0
LINE
8
VISIBLE
10
691.033000
20
469.663000
11
695.533000
21
469.663000
0
LINE
8
VISIBLE
10
691.033000
20
471.913000
11
691.033000
21
469.663000
0
LINE
8
VISIBLE
10
688.784000
20
476.413000
11
688.784000
21
471.913000
0
LINE
8
VISIBLE
10
699.652000
20
519.992000
11
699.402763
21
521.870604
0
LINE
8
VISIBLE
10
699.402763
20
521.870604
11
698.687375
21
523.591995
0
LINE
8
VISIBLE
10
698.687375
20
523.591995
11
697.554299
21
525.072232
0
LINE
8
VISIBLE
10
697.554299
20
525.072232
11
696.051995
21
526.227374
0
LINE
8
VISIBLE
10
696.051995
20
526.227374
11
694.300460
21
526.950836
0
LINE
8
VISIBLE
10
694.300460
20
526.950836
11
692.452000
21
527.191990
0
LINE
8
VISIBLE
10
692.452000
20
527.191990
11
690.603540
21
526.950836
0
LINE
8
VISIBLE
10
690.603540
20
526.950836
11
688.852005
21
526.227374
0
LINE
8
VISIBLE
10
688.852005
20
526.227374
11
687.349701
21
525.072232
0
LINE
8
VISIBLE
10
687.349701
20
525.072232
11
686.216626
21
523.591995
0
LINE
8
VISIBLE
10
686.216626
20
523.591995
11
685.501241
21
521.870604
0
LINE
8
VISIBLE
10
685.501241
20
521.870604
11
685.252010
21
519.992000
0
LINE
8
VISIBLE
10
685.252010
20
519.992000
11
685.501244
21
518.113396
0
LINE
8
VISIBLE
10
685.501244
20
518.113396
11
686.216630
21
516.392005
0
LINE
8
VISIBLE
10
686.216630
20
516.392005
11
687.349706
21
514.911768
0
LINE
8
VISIBLE
10
687.349706
20
514.911768
11
688.852010
21
513.756626
0
LINE
8
VISIBLE
10
688.852010
20
513.756626
11
690.603545
21
513.033164
0
LINE
8
VISIBLE
10
690.603545
20
513.033164
11
692.452005
21
512.792010
0
LINE
8
VISIBLE
10
692.452005
20
512.792010
11
694.300465
21
513.033164
0
LINE
8
VISIBLE
10
694.300465
20
513.033164
11
696.052000
21
513.756626
0
LINE
8
VISIBLE
10
696.052000
20
513.756626
11
697.554304
21
514.911768
0
LINE
8
VISIBLE
10
697.554304
20
514.911768
11
698.687379
21
516.392005
0
LINE
8
VISIBLE
10
698.687379
20
516.392005
11
699.402764
21
518.113396
0
LINE
8
VISIBLE
10
699.402764
20
518.113396
11
699.651995
21
519.992000
0
LINE
8
VISIBLE
10
699.651995
20
519.992000
11
699.652000
21
519.992000
0
LINE
8
VISIBLE
10
690.202000
20
517.712000
11
690.202000
21
522.272000
0
LINE
8
VISIBLE
10
690.202000
20
517.712000
11
694.702000
21
517.712000
0
LINE
8
VISIBLE
10
690.202000
20
522.272000
11
694.702000
21
522.272000
0
LINE
8
VISIBLE
10
694.702000
20
517.712000
11
694.702000
21
522.272000
0
LINE
8
VISIBLE
10
700.208000
20
376.632000
11
699.325993
21
376.544736
0
LINE
8
VISIBLE
10
699.325993
20
376.544736
11
698.485923
21
376.289461
0
LINE
8
VISIBLE
10
698.485923
20
376.289461
11
697.711395
21
375.875950
0
LINE
8
VISIBLE
10
697.711395
20
375.875950
11
697.026017
21
375.313983
0
LINE
8
VISIBLE
10
697.026017
20
375.313983
11
696.464050
21
374.628605
0
LINE
8
VISIBLE
10
696.464050
20
374.628605
11
696.050539
21
373.854077
0
LINE
8
VISIBLE
10
696.050539
20
373.854077
11
695.795264
21
373.014007
0
LINE
8
VISIBLE
10
695.795264
20
373.014007
11
695.708000
21
372.132000
0
LINE
8
VISIBLE
10
700.208000
20
376.632000
11
703.709000
21
376.632000
0
LINE
8
VISIBLE
10
703.709000
20
376.632000
11
703.709000
21
372.132000
0
LINE
8
VISIBLE
10
707.209000
20
372.132000
11
703.709000
21
372.132000
0
LINE
8
VISIBLE
10
707.209000
20
372.132000
11
707.209000
21
367.632000
0
LINE
8
VISIBLE
10
707.209000
20
367.632000
11
703.709000
21
367.632000
0
LINE
8
VISIBLE
10
703.709000
20
367.632000
11
703.709000
21
363.132000
0
LINE
8
VISIBLE
10
695.708000
20
372.132000
11
695.708000
21
367.632000
0
LINE
8
VISIBLE
10
701.958000
20
369.882000
11
701.862807
21
370.599524
0
LINE
8
VISIBLE
10
701.862807
20
370.599524
11
701.589570
21
371.257000
0
LINE
8
VISIBLE
10
701.589570
20
371.257000
11
701.156797
21
371.822369
0
LINE
8
VISIBLE
10
701.156797
20
371.822369
11
700.583000
21
372.263570
0
LINE
8
VISIBLE
10
700.583000
20
372.263570
11
699.914010
21
372.539892
0
LINE
8
VISIBLE
10
699.914010
20
372.539892
11
699.208000
21
372.632000
0
LINE
8
VISIBLE
10
699.208000
20
372.632000
11
698.501990
21
372.539892
0
LINE
8
VISIBLE
10
698.501990
20
372.539892
11
697.833000
21
372.263570
0
LINE
8
VISIBLE
10
697.833000
20
372.263570
11
697.259203
21
371.822369
0
LINE
8
VISIBLE
10
697.259203
20
371.822369
11
696.826430
21
371.257000
0
LINE
8
VISIBLE
10
696.826430
20
371.257000
11
696.553193
21
370.599524
0
LINE
8
VISIBLE
10
696.553193
20
370.599524
11
696.458000
21
369.882000
0
LINE
8
VISIBLE
10
696.458000
20
369.882000
11
696.553193
21
369.164476
0
LINE
8
VISIBLE
10
696.553193
20
369.164476
11
696.826430
21
368.507000
0
LINE
8
VISIBLE
10
696.826430
20
368.507000
11
697.259203
21
367.941631
0
LINE
8
VISIBLE
10
697.259203
20
367.941631
11
697.833000
21
367.500430
0
LINE
8
VISIBLE
10
697.833000
20
367.500430
11
698.501990
21
367.224108
0
LINE
8
VISIBLE
10
698.501990
20
367.224108
11
699.208000
21
367.132000
0
LINE
8
VISIBLE
10
699.208000
20
367.132000
11
699.914010
21
367.224108
0
LINE
8
VISIBLE
10
699.914010
20
367.224108
11
700.583000
21
367.500430
0
LINE
8
VISIBLE
10
700.583000
20
367.500430
11
701.156797
21
367.941631
0
LINE
8
VISIBLE
10
701.156797
20
367.941631
11
701.589570
21
368.507000
0
LINE
8
VISIBLE
10
701.589570
20
368.507000
11
701.862807
21
369.164476
0
LINE
8
VISIBLE
10
701.862807
20
369.164476
11
701.958000
21
369.882000
0
LINE
8
VISIBLE
10
701.958000
20
369.882000
11
701.958000
21
369.882000
0
LINE
8
VISIBLE
10
700.208000
20
363.132000
11
703.709000
21
363.132000
0
LINE
8
VISIBLE
10
695.708000
20
367.632000
11
695.795264
21
366.749993
0
LINE
8
VISIBLE
10
695.795264
20
366.749993
11
696.050539
21
365.909923
0
LINE
8
VISIBLE
10
696.050539
20
365.909923
11
696.464050
21
365.135395
0
LINE
8
VISIBLE
10
696.464050
20
365.135395
11
697.026017
21
364.450017
0
LINE
8
VISIBLE
10
697.026017
20
364.450017
11
697.711395
21
363.888050
0
LINE
8
VISIBLE
10
697.711395
20
363.888050
11
698.485923
21
363.474539
0
LINE
8
VISIBLE
10
698.485923
20
363.474539
11
699.325993
21
363.219264
0
LINE
8
VISIBLE
10
699.325993
20
363.219264
11
700.208000
21
363.132000
0
LINE
8
VISIBLE
10
700.708000
20
369.882000
11
700.507038
21
370.632000
0
LINE
8
VISIBLE
10
700.507038
20
370.632000
11
699.958000
21
371.181038
0
LINE
8
VISIBLE
10
699.958000
20
371.181038
11
699.208000
21
371.382000
0
LINE
8
VISIBLE
10
699.208000
20
371.382000
11
698.458000
21
371.181038
0
LINE
8
VISIBLE
10
698.458000
20
371.181038
11
697.908962
21
370.632000
0
LINE
8
VISIBLE
10
697.908962
20
370.632000
11
697.708000
21
369.882000
0
LINE
8
VISIBLE
10
697.708000
20
369.882000
11
697.908962
21
369.132000
0
LINE
8
VISIBLE
10
697.908962
20
369.132000
11
698.458000
21
368.582962
0
LINE
8
VISIBLE
10
698.458000
20
368.582962
11
699.208000
21
368.382000
0
LINE
8
VISIBLE
10
699.208000
20
368.382000
11
699.958000
21
368.582962
0
LINE
8
VISIBLE
10
699.958000
20
368.582962
11
700.507038
21
369.132000
0
LINE
8
VISIBLE
10
700.507038
20
369.132000
11
700.708000
21
369.882000
0
LINE
8
VISIBLE
10
700.708000
20
369.882000
11
700.708000
21
369.882000
0
LINE
8
VISIBLE
10
665.503000
20
595.127000
11
663.251000
21
595.127000
0
LINE
8
VISIBLE
10
663.251000
20
597.376000
11
658.253000
21
597.376000
0
LINE
8
VISIBLE
10
658.253000
20
597.376000
11
658.253000
21
595.127000
0
LINE
8
VISIBLE
10
658.253000
20
595.127000
11
656.002000
21
595.127000
0
LINE
8
VISIBLE
10
656.002000
20
595.127000
11
656.002000
21
590.126000
0
LINE
8
VISIBLE
10
656.002000
20
590.126000
11
658.253000
21
590.126000
0
LINE
8
VISIBLE
10
663.251000
20
587.877000
11
663.251000
21
590.126000
0
LINE
8
VISIBLE
10
666.545000
20
603.189000
11
667.003000
21
602.927000
0
LINE
8
VISIBLE
10
669.252000
20
599.029000
11
669.096209
21
600.203098
0
LINE
8
VISIBLE
10
669.096209
20
600.203098
11
668.649087
21
601.278936
0
LINE
8
VISIBLE
10
668.649087
20
601.278936
11
667.940921
21
602.204056
0
LINE
8
VISIBLE
10
667.940921
20
602.204056
11
667.002000
21
602.926000
0
LINE
8
VISIBLE
10
667.002000
20
582.328000
11
667.940921
21
583.049944
0
LINE
8
VISIBLE
10
667.940921
20
583.049944
11
668.649087
21
583.975064
0
LINE
8
VISIBLE
10
668.649087
20
583.975064
11
669.096209
21
585.050902
0
LINE
8
VISIBLE
10
669.096209
20
585.050902
11
669.252000
21
586.225000
0
LINE
8
VISIBLE
10
667.003000
20
582.326000
11
666.545000
21
582.064000
0
LINE
8
VISIBLE
10
662.047000
20
582.064000
11
663.141711
21
581.611835
0
LINE
8
VISIBLE
10
663.141711
20
581.611835
11
664.297000
21
581.461113
0
LINE
8
VISIBLE
10
664.297000
20
581.461113
11
665.452289
21
581.611835
0
LINE
8
VISIBLE
10
665.452289
20
581.611835
11
666.547000
21
582.064000
0
LINE
8
VISIBLE
10
662.048000
20
582.064000
11
648.707000
21
589.766000
0
LINE
8
VISIBLE
10
648.707000
20
595.389000
11
651.208000
21
595.389000
0
LINE
8
VISIBLE
10
662.048000
20
603.189000
11
648.707000
21
595.487000
0
LINE
8
VISIBLE
10
648.707000
20
589.888000
11
648.707000
21
589.766000
0
LINE
8
VISIBLE
10
648.707000
20
595.487000
11
648.707000
21
595.389000
0
LINE
8
VISIBLE
10
669.252000
20
586.224000
11
669.252000
21
599.029000
0
LINE
8
VISIBLE
10
658.253000
20
587.877000
11
663.251000
21
587.877000
0
LINE
8
VISIBLE
10
663.251000
20
595.127000
11
663.251000
21
597.376000
0
LINE
8
VISIBLE
10
665.503000
20
590.126000
11
665.503000
21
595.127000
0
LINE
8
VISIBLE
10
663.251000
20
590.126000
11
665.503000
21
590.126000
0
LINE
8
VISIBLE
10
651.208000
20
589.888000
11
651.208000
21
595.389000
0
LINE
8
VISIBLE
10
658.253000
20
590.126000
11
658.253000
21
587.877000
0
LINE
8
VISIBLE
10
648.707000
20
589.888000
11
651.208000
21
589.888000
0
LINE
8
VISIBLE
10
666.547000
20
603.189000
11
665.452289
21
603.641165
0
LINE
8
VISIBLE
10
665.452289
20
603.641165
11
664.297000
21
603.791887
0
LINE
8
VISIBLE
10
664.297000
20
603.791887
11
663.141711
21
603.641165
0
LINE
8
VISIBLE
10
663.141711
20
603.641165
11
662.047000
21
603.189000
0
LINE
8
VISIBLE
10
648.707000
20
595.389000
11
648.707000
21
589.888000
0
LINE
8
VISIBLE
10
647.708000
20
762.631000
11
647.422192
21
766.935937
0
LINE
8
VISIBLE
10
647.422192
20
766.935937
11
646.582997
21
771.110824
0
LINE
8
VISIBLE
10
646.582997
20
771.110824
11
645.217760
21
775.108299
0
LINE
8
VISIBLE
10
645.217760
20
775.108299
11
643.353826
21
778.881000
0
LINE
8
VISIBLE
10
643.353826
20
778.881000
11
641.018538
21
782.381565
0
LINE
8
VISIBLE
10
641.018538
20
782.381565
11
638.239241
21
785.562633
0
LINE
8
VISIBLE
10
638.239241
20
785.562633
11
635.043281
21
788.376840
0
LINE
8
VISIBLE
10
635.043281
20
788.376840
11
631.458000
21
790.776826
0
LINE
8
VISIBLE
10
631.458000
20
790.776826
11
627.586911
21
792.681777
0
LINE
8
VISIBLE
10
627.586911
20
792.681777
11
623.551756
21
794.042456
0
LINE
8
VISIBLE
10
623.551756
20
794.042456
11
619.407222
21
794.858864
0
LINE
8
VISIBLE
10
619.407222
20
794.858864
11
615.208000
21
795.131000
0
LINE
8
VISIBLE
10
615.208000
20
795.131000
11
611.008778
21
794.858864
0
LINE
8
VISIBLE
10
611.008778
20
794.858864
11
606.864244
21
794.042456
0
LINE
8
VISIBLE
10
606.864244
20
794.042456
11
602.829089
21
792.681777
0
LINE
8
VISIBLE
10
602.829089
20
792.681777
11
598.958000
21
790.776826
0
LINE
8
VISIBLE
10
598.958000
20
790.776826
11
595.372719
21
788.376840
0
LINE
8
VISIBLE
10
595.372719
20
788.376840
11
592.176759
21
785.562633
0
LINE
8
VISIBLE
10
592.176759
20
785.562633
11
589.397462
21
782.381565
0
LINE
8
VISIBLE
10
589.397462
20
782.381565
11
587.062174
21
778.881000
0
LINE
8
VISIBLE
10
587.062174
20
778.881000
11
585.198240
21
775.108299
0
LINE
8
VISIBLE
10
585.198240
20
775.108299
11
583.833003
21
771.110824
0
LINE
8
VISIBLE
10
583.833003
20
771.110824
11
582.993808
21
766.935937
0
LINE
8
VISIBLE
10
582.993808
20
766.935937
11
582.708000
21
762.631000
0
LINE
8
VISIBLE
10
582.708000
20
762.631000
11
582.993808
21
758.326063
0
LINE
8
VISIBLE
10
582.993808
20
758.326063
11
583.833003
21
754.151176
0
LINE
8
VISIBLE
10
583.833003
20
754.151176
11
585.198240
21
750.153701
0
LINE
8
VISIBLE
10
585.198240
20
750.153701
11
587.062174
21
746.381000
0
LINE
8
VISIBLE
10
587.062174
20
746.381000
11
589.397462
21
742.880435
0
LINE
8
VISIBLE
10
589.397462
20
742.880435
11
592.176759
21
739.699367
0
LINE
8
VISIBLE
10
592.176759
20
739.699367
11
595.372719
21
736.885160
0
LINE
8
VISIBLE
10
595.372719
20
736.885160
11
598.958000
21
734.485174
0
LINE
8
VISIBLE
10
598.958000
20
734.485174
11
602.829089
21
732.580223
0
LINE
8
VISIBLE
10
602.829089
20
732.580223
11
606.864244
21
731.219544
0
LINE
8
VISIBLE
10
606.864244
20
731.219544
11
611.008778
21
730.403136
0
LINE
8
VISIBLE
10
611.008778
20
730.403136
11
615.208000
21
730.131000
0
LINE
8
VISIBLE
10
615.208000
20
730.131000
11
619.407222
21
730.403136
0
LINE
8
VISIBLE
10
619.407222
20
730.403136
11
623.551756
21
731.219544
0
LINE
8
VISIBLE
10
623.551756
20
731.219544
11
627.586911
21
732.580223
0
LINE
8
VISIBLE
10
627.586911
20
732.580223
11
631.458000
21
734.485174
0
LINE
8
VISIBLE
10
631.458000
20
734.485174
11
635.043281
21
736.885160
0
LINE
8
VISIBLE
10
635.043281
20
736.885160
11
638.239241
21
739.699367
0
LINE
8
VISIBLE
10
638.239241
20
739.699367
11
641.018538
21
742.880435
0
LINE
8
VISIBLE
10
641.018538
20
742.880435
11
643.353826
21
746.381000
0
LINE
8
VISIBLE
10
643.353826
20
746.381000
11
645.217760
21
750.153701
0
LINE
8
VISIBLE
10
645.217760
20
750.153701
11
646.582997
21
754.151176
0
LINE
8
VISIBLE
10
646.582997
20
754.151176
11
647.422192
21
758.326063
0
LINE
8
VISIBLE
10
647.422192
20
758.326063
11
647.708000
21
762.631000
0
LINE
8
VISIBLE
10
647.708000
20
762.631000
11
647.708000
21
762.631000
0
LINE
8
VISIBLE
10
618.458000
20
762.631000
11
618.345500
21
763.478982
0
LINE
8
VISIBLE
10
618.345500
20
763.478982
11
618.022583
21
764.256000
0
LINE
8
VISIBLE
10
618.022583
20
764.256000
11
617.511124
21
764.924163
0
LINE
8
VISIBLE
10
617.511124
20
764.924163
11
616.833000
21
765.445583
0
LINE
8
VISIBLE
10
616.833000
20
765.445583
11
616.042376
21
765.772146
0
LINE
8
VISIBLE
10
616.042376
20
765.772146
11
615.208000
21
765.881000
0
LINE
8
VISIBLE
10
615.208000
20
765.881000
11
614.373624
21
765.772146
0
LINE
8
VISIBLE
10
614.373624
20
765.772146
11
613.583000
21
765.445583
0
LINE
8
VISIBLE
10
613.583000
20
765.445583
11
612.904876
21
764.924163
0
LINE
8
VISIBLE
10
612.904876
20
764.924163
11
612.393417
21
764.256000
0
LINE
8
VISIBLE
10
612.393417
20
764.256000
11
612.070500
21
763.478982
0
LINE
8
VISIBLE
10
612.070500
20
763.478982
11
611.958000
21
762.631000
0
LINE
8
VISIBLE
10
611.958000
20
762.631000
11
612.070500
21
761.783018
0
LINE
8
VISIBLE
10
612.070500
20
761.783018
11
612.393417
21
761.006000
0
LINE
8
VISIBLE
10
612.393417
20
761.006000
11
612.904876
21
760.337837
0
LINE
8
VISIBLE
10
612.904876
20
760.337837
11
613.583000
21
759.816417
0
LINE
8
VISIBLE
10
613.583000
20
759.816417
11
614.373624
21
759.489854
0
LINE
8
VISIBLE
10
614.373624
20
759.489854
11
615.208000
21
759.381000
0
LINE
8
VISIBLE
10
615.208000
20
759.381000
11
616.042376
21
759.489854
0
LINE
8
VISIBLE
10
616.042376
20
759.489854
11
616.833000
21
759.816417
0
LINE
8
VISIBLE
10
616.833000
20
759.816417
11
617.511124
21
760.337837
0
LINE
8
VISIBLE
10
617.511124
20
760.337837
11
618.022583
21
761.006000
0
LINE
8
VISIBLE
10
618.022583
20
761.006000
11
618.345500
21
761.783018
0
LINE
8
VISIBLE
10
618.345500
20
761.783018
11
618.458000
21
762.631000
0
LINE
8
VISIBLE
10
618.458000
20
762.631000
11
618.458000
21
762.631000
0
LINE
8
VISIBLE
10
702.708000
20
414.632000
11
703.590007
21
414.719264
0
LINE
8
VISIBLE
10
703.590007
20
414.719264
11
704.430077
21
414.974539
0
LINE
8
VISIBLE
10
704.430077
20
414.974539
11
705.204605
21
415.388050
0
LINE
8
VISIBLE
10
705.204605
20
415.388050
11
705.889983
21
415.950017
0
LINE
8
VISIBLE
10
705.889983
20
415.950017
11
706.451950
21
416.635395
0
LINE
8
VISIBLE
10
706.451950
20
416.635395
11
706.865461
21
417.409923
0
LINE
8
VISIBLE
10
706.865461
20
417.409923
11
707.120736
21
418.249993
0
LINE
8
VISIBLE
10
707.120736
20
418.249993
11
707.208000
21
419.132000
0
LINE
8
VISIBLE
10
699.208000
20
414.632000
11
699.208000
21
419.132000
0
LINE
8
VISIBLE
10
695.708000
20
419.132000
11
695.708000
21
423.632000
0
LINE
8
VISIBLE
10
706.508000
20
422.998000
11
703.709000
21
424.615000
0
LINE
8
VISIBLE
10
703.709000
20
424.615000
11
700.907000
21
422.998000
0
LINE
8
VISIBLE
10
700.907000
20
419.765000
11
703.709000
21
418.149000
0
LINE
8
VISIBLE
10
702.709000
20
414.632000
11
699.208000
21
414.632000
0
LINE
8
VISIBLE
10
700.907000
20
422.998000
11
700.907000
21
419.765000
0
LINE
8
VISIBLE
10
706.508000
20
419.765000
11
706.508000
21
422.998000
0
LINE
8
VISIBLE
10
695.708000
20
419.132000
11
699.208000
21
419.132000
0
LINE
8
VISIBLE
10
707.208000
20
423.632000
11
707.120736
21
424.514007
0
LINE
8
VISIBLE
10
707.120736
20
424.514007
11
706.865461
21
425.354077
0
LINE
8
VISIBLE
10
706.865461
20
425.354077
11
706.451950
21
426.128605
0
LINE
8
VISIBLE
10
706.451950
20
426.128605
11
705.889983
21
426.813983
0
LINE
8
VISIBLE
10
705.889983
20
426.813983
11
705.204605
21
427.375950
0
LINE
8
VISIBLE
10
705.204605
20
427.375950
11
704.430077
21
427.789461
0
LINE
8
VISIBLE
10
704.430077
20
427.789461
11
703.590007
21
428.044736
0
LINE
8
VISIBLE
10
703.590007
20
428.044736
11
702.708000
21
428.132000
0
LINE
8
VISIBLE
10
702.709000
20
428.132000
11
699.208000
21
428.132000
0
LINE
8
VISIBLE
10
703.709000
20
418.149000
11
706.508000
21
419.765000
0
LINE
8
VISIBLE
10
695.708000
20
423.632000
11
699.208000
21
423.632000
0
LINE
8
VISIBLE
10
707.209000
20
419.132000
11
707.209000
21
423.632000
0
LINE
8
VISIBLE
10
699.208000
20
423.632000
11
699.208000
21
428.132000
0
LINE
8
VISIBLE
10
705.208000
20
421.382000
11
705.007038
21
422.132000
0
LINE
8
VISIBLE
10
705.007038
20
422.132000
11
704.458000
21
422.681038
0
LINE
8
VISIBLE
10
704.458000
20
422.681038
11
703.708000
21
422.882000
0
LINE
8
VISIBLE
10
703.708000
20
422.882000
11
702.958000
21
422.681038
0
LINE
8
VISIBLE
10
702.958000
20
422.681038
11
702.408962
21
422.132000
0
LINE
8
VISIBLE
10
702.408962
20
422.132000
11
702.208000
21
421.382000
0
LINE
8
VISIBLE
10
702.208000
20
421.382000
11
702.408962
21
420.632000
0
LINE
8
VISIBLE
10
702.408962
20
420.632000
11
702.958000
21
420.082962
0
LINE
8
VISIBLE
10
702.958000
20
420.082962
11
703.708000
21
419.882000
0
LINE
8
VISIBLE
10
703.708000
20
419.882000
11
704.458000
21
420.082962
0
LINE
8
VISIBLE
10
704.458000
20
420.082962
11
705.007038
21
420.632000
0
LINE
8
VISIBLE
10
705.007038
20
420.632000
11
705.208000
21
421.382000
0
LINE
8
VISIBLE
10
705.208000
20
421.382000
11
705.208000
21
421.382000
0
LINE
8
VISIBLE
10
905.234000
20
300.447000
11
895.965000
21
300.447000
0
LINE
8
VISIBLE
10
905.234000
20
302.697000
11
905.234000
21
300.447000
0
LINE
8
VISIBLE
10
917.235000
20
302.697000
11
905.234000
21
302.697000
0
LINE
8
VISIBLE
10
917.235000
20
298.197000
11
917.235000
21
302.697000
0
LINE
8
VISIBLE
10
917.235000
20
298.197000
11
772.736000
21
298.197000
0
LINE
8
VISIBLE
10
772.736000
20
298.197000
11
772.736000
21
302.697000
0
LINE
8
VISIBLE
10
784.735000
20
302.697000
11
784.735000
21
300.447000
0
LINE
8
VISIBLE
10
794.003000
20
300.447000
11
784.735000
21
300.447000
0
LINE
8
VISIBLE
10
794.003000
20
302.697000
11
794.003000
21
300.447000
0
LINE
8
VISIBLE
10
803.274000
20
302.697000
11
803.274000
21
300.447000
0
LINE
8
VISIBLE
10
812.542000
20
300.447000
11
803.274000
21
300.447000
0
LINE
8
VISIBLE
10
812.542000
20
302.697000
11
812.542000
21
300.447000
0
LINE
8
VISIBLE
10
821.811000
20
302.697000
11
821.811000
21
300.447000
0
LINE
8
VISIBLE
10
831.082000
20
300.447000
11
821.811000
21
300.447000
0
LINE
8
VISIBLE
10
831.082000
20
302.697000
11
831.082000
21
300.447000
0
LINE
8
VISIBLE
10
840.350000
20
302.697000
11
840.350000
21
300.447000
0
LINE
8
VISIBLE
10
849.618000
20
300.447000
11
840.350000
21
300.447000
0
LINE
8
VISIBLE
10
849.618000
20
302.697000
11
849.618000
21
300.447000
0
LINE
8
VISIBLE
10
858.889000
20
302.697000
11
858.889000
21
300.447000
0
LINE
8
VISIBLE
10
868.158000
20
300.447000
11
858.889000
21
300.447000
0
LINE
8
VISIBLE
10
868.158000
20
302.697000
11
868.158000
21
300.447000
0
LINE
8
VISIBLE
10
877.426000
20
302.697000
11
877.426000
21
300.447000
0
LINE
8
VISIBLE
10
886.697000
20
300.447000
11
877.426000
21
300.447000
0
LINE
8
VISIBLE
10
886.697000
20
302.697000
11
886.697000
21
300.447000
0
LINE
8
VISIBLE
10
895.965000
20
302.697000
11
895.965000
21
300.447000
0
LINE
8
VISIBLE
10
840.350000
20
302.697000
11
831.082000
21
302.697000
0
LINE
8
VISIBLE
10
858.889000
20
302.697000
11
849.618000
21
302.697000
0
LINE
8
VISIBLE
10
877.426000
20
302.697000
11
868.158000
21
302.697000
0
LINE
8
VISIBLE
10
784.735000
20
302.697000
11
772.736000
21
302.697000
0
LINE
8
VISIBLE
10
821.811000
20
302.697000
11
812.542000
21
302.697000
0
LINE
8
VISIBLE
10
803.274000
20
302.697000
11
794.003000
21
302.697000
0
LINE
8
VISIBLE
10
895.965000
20
302.697000
11
886.697000
21
302.697000
0
LINE
8
VISIBLE
10
794.003000
20
308.869000
11
784.735000
21
308.869000
0
LINE
8
VISIBLE
10
794.003000
20
311.119000
11
794.003000
21
308.869000
0
LINE
8
VISIBLE
10
803.274000
20
311.119000
11
803.274000
21
308.869000
0
LINE
8
VISIBLE
10
812.542000
20
308.869000
11
803.274000
21
308.869000
0
LINE
8
VISIBLE
10
812.542000
20
311.119000
11
812.542000
21
308.869000
0
LINE
8
VISIBLE
10
821.811000
20
311.119000
11
821.811000
21
308.869000
0
LINE
8
VISIBLE
10
831.082000
20
308.869000
11
821.811000
21
308.869000
0
LINE
8
VISIBLE
10
831.082000
20
311.119000
11
831.082000
21
308.869000
0
LINE
8
VISIBLE
10
840.350000
20
311.119000
11
840.350000
21
308.869000
0
LINE
8
VISIBLE
10
849.618000
20
308.869000
11
840.350000
21
308.869000
0
LINE
8
VISIBLE
10
849.618000
20
311.119000
11
849.618000
21
308.869000
0
LINE
8
VISIBLE
10
858.889000
20
311.119000
11
858.889000
21
308.869000
0
LINE
8
VISIBLE
10
868.158000
20
308.869000
11
858.889000
21
308.869000
0
LINE
8
VISIBLE
10
868.158000
20
311.119000
11
868.158000
21
308.869000
0
LINE
8
VISIBLE
10
877.426000
20
311.119000
11
877.426000
21
308.869000
0
LINE
8
VISIBLE
10
886.697000
20
308.869000
11
877.426000
21
308.869000
0
LINE
8
VISIBLE
10
886.697000
20
311.119000
11
886.697000
21
308.869000
0
LINE
8
VISIBLE
10
895.965000
20
311.119000
11
895.965000
21
308.869000
0
LINE
8
VISIBLE
10
905.234000
20
308.869000
11
895.965000
21
308.869000
0
LINE
8
VISIBLE
10
905.234000
20
311.119000
11
905.234000
21
308.869000
0
LINE
8
VISIBLE
10
917.235000
20
311.119000
11
917.235000
21
306.619000
0
LINE
8
VISIBLE
10
772.736000
20
306.619000
11
917.235000
21
306.619000
0
LINE
8
VISIBLE
10
772.736000
20
311.119000
11
772.736000
21
306.619000
0
LINE
8
VISIBLE
10
772.736000
20
311.119000
11
784.735000
21
311.119000
0
LINE
8
VISIBLE
10
784.735000
20
311.119000
11
784.735000
21
308.869000
0
LINE
8
VISIBLE
10
849.618000
20
311.119000
11
858.889000
21
311.119000
0
LINE
8
VISIBLE
10
831.082000
20
311.119000
11
840.350000
21
311.119000
0
LINE
8
VISIBLE
10
812.542000
20
311.119000
11
821.811000
21
311.119000
0
LINE
8
VISIBLE
10
905.234000
20
311.119000
11
917.235000
21
311.119000
0
LINE
8
VISIBLE
10
868.158000
20
311.119000
11
877.426000
21
311.119000
0
LINE
8
VISIBLE
10
886.697000
20
311.119000
11
895.965000
21
311.119000
0
LINE
8
VISIBLE
10
794.003000
20
311.119000
11
803.274000
21
311.119000
 0 
ENDSEC
 0 
EOF